<?xml version="1.0" encoding="UTF-8" standalone="no"?>
<!-- Created with Inkscape (http://www.inkscape.org/) -->

<svg
   xmlns:dc="http://purl.org/dc/elements/1.1/"
   xmlns:cc="http://creativecommons.org/ns#"
   xmlns:rdf="http://www.w3.org/1999/02/22-rdf-syntax-ns#"
   xmlns:svg="http://www.w3.org/2000/svg"
   xmlns="http://www.w3.org/2000/svg"
   xmlns:xlink="http://www.w3.org/1999/xlink"
   xmlns:sodipodi="http://sodipodi.sourceforge.net/DTD/sodipodi-0.dtd"
   xmlns:inkscape="http://www.inkscape.org/namespaces/inkscape"
   width="128"
   height="128"
   viewBox="0 0 128 128"
   version="1.1"
   id="svg8"
   inkscape:version="0.92.2 5c3e80d, 2017-08-06"
   sodipodi:docname="dialog-password.svg">
  <title
     id="title7895">Antu icon Theme</title>
  <defs
     id="defs2">
    <linearGradient
       gradientTransform="matrix(3.7795275,0,0,3.7795275,-27.743682,-849.68691)"
       inkscape:collect="always"
       xlink:href="#linearGradient4902"
       id="linearGradient4581"
       x1="32.740517"
       y1="304.88913"
       x2="32.740517"
       y2="278.43082"
       gradientUnits="userSpaceOnUse" />
    <linearGradient
       inkscape:collect="always"
       id="linearGradient4902">
      <stop
         style="stop-color:#0d72ec;stop-opacity:1"
         offset="0"
         id="stop4898" />
      <stop
         style="stop-color:#36b2fb;stop-opacity:1"
         offset="1"
         id="stop4900" />
    </linearGradient>
    <style
       type="text/css"
       id="current-color-scheme">
      .ColorScheme-Text {
        color:#122036;
      }
      </style>
    <style
       type="text/css"
       id="current-color-scheme-7">
      .ColorScheme-Text {
        color:#122036;
      }
      </style>
    <style
       type="text/css"
       id="current-color-scheme-5">
      .ColorScheme-Text {
        color:#122036;
      }
      </style>
    <linearGradient
       inkscape:collect="always"
       id="linearGradient4582-3">
      <stop
         style="stop-color:#c8c8c8;stop-opacity:1"
         offset="0"
         id="stop4578-5" />
      <stop
         style="stop-color:#f2f2f2;stop-opacity:1"
         offset="1"
         id="stop4580-6" />
    </linearGradient>
    <linearGradient
       id="linearGradient2126"
       inkscape:collect="always">
      <stop
         id="stop2122"
         offset="0"
         style="stop-color:#475057;stop-opacity:1;" />
      <stop
         id="stop2124"
         offset="1"
         style="stop-color:#5e6a73;stop-opacity:1" />
    </linearGradient>
    <style
       type="text/css"
       id="current-color-scheme-2">
      .ColorScheme-Text {
        color:#122036;
      }
      </style>
    <style
       type="text/css"
       id="current-color-scheme-7-7">
      .ColorScheme-Text {
        color:#122036;
      }
      </style>
    <style
       type="text/css"
       id="current-color-scheme-5-0">
      .ColorScheme-Text {
        color:#122036;
      }
      </style>
    <style
       id="current-color-scheme-9"
       type="text/css">
      .ColorScheme-Text {
        color:#122036;
      }
      </style>
    <style
       id="current-color-scheme-1"
       type="text/css">
      .ColorScheme-Text {
        color:#122036;
      }
      </style>
    <style
       type="text/css"
       id="current-color-scheme-10">
      .ColorScheme-Text {
        color:#122036;
      }
      </style>
    <style
       id="current-color-scheme-6"
       type="text/css">
      .ColorScheme-Text {
        color:#122036;
      }
      </style>
    <style
       id="current-color-scheme-7-1"
       type="text/css">
      .ColorScheme-Text {
        color:#122036;
      }
      </style>
    <style
       id="current-color-scheme-5-2"
       type="text/css">
      .ColorScheme-Text {
        color:#122036;
      }
      </style>
    <style
       type="text/css"
       id="current-color-scheme-3">
      .ColorScheme-Text {
        color:#122036;
      }
      </style>
    <style
       type="text/css"
       id="current-color-scheme-7-75">
      .ColorScheme-Text {
        color:#122036;
      }
      </style>
    <style
       type="text/css"
       id="current-color-scheme-5-9">
      .ColorScheme-Text {
        color:#122036;
      }
      </style>
    <style
       id="current-color-scheme-9-2"
       type="text/css">
      .ColorScheme-Text {
        color:#122036;
      }
      </style>
    <style
       id="current-color-scheme-1-2"
       type="text/css">
      .ColorScheme-Text {
        color:#122036;
      }
      </style>
    <style
       type="text/css"
       id="current-color-scheme-10-8">
      .ColorScheme-Text {
        color:#122036;
      }
      </style>
    <style
       id="current-color-scheme-6-9"
       type="text/css">
      .ColorScheme-Text {
        color:#122036;
      }
      </style>
    <style
       id="current-color-scheme-7-1-7"
       type="text/css">
      .ColorScheme-Text {
        color:#122036;
      }
      </style>
    <style
       id="current-color-scheme-5-2-3"
       type="text/css">
      .ColorScheme-Text {
        color:#122036;
      }
      </style>
    <style
       id="current-color-scheme-106"
       type="text/css">
      .ColorScheme-Text {
        color:#122036;
      }
      </style>
    <style
       id="current-color-scheme-7-3"
       type="text/css">
      .ColorScheme-Text {
        color:#122036;
      }
      </style>
    <style
       id="current-color-scheme-5-20"
       type="text/css">
      .ColorScheme-Text {
        color:#122036;
      }
      </style>
    <style
       type="text/css"
       id="current-color-scheme-9-6">
      .ColorScheme-Text {
        color:#122036;
      }
      </style>
    <style
       type="text/css"
       id="current-color-scheme-1-1">
      .ColorScheme-Text {
        color:#122036;
      }
      </style>
    <style
       id="current-color-scheme-10-5"
       type="text/css">
      .ColorScheme-Text {
        color:#122036;
      }
      </style>
    <style
       type="text/css"
       id="current-color-scheme-6-5">
      .ColorScheme-Text {
        color:#122036;
      }
      </style>
    <style
       type="text/css"
       id="current-color-scheme-7-1-4">
      .ColorScheme-Text {
        color:#122036;
      }
      </style>
    <style
       type="text/css"
       id="current-color-scheme-5-2-7">
      .ColorScheme-Text {
        color:#122036;
      }
      </style>
    <style
       id="current-color-scheme-59"
       type="text/css">
      .ColorScheme-Text {
        color:#122036;
      }
      </style>
    <style
       id="current-color-scheme-7-2"
       type="text/css">
      .ColorScheme-Text {
        color:#122036;
      }
      </style>
    <style
       id="current-color-scheme-5-28"
       type="text/css">
      .ColorScheme-Text {
        color:#122036;
      }
      </style>
    <style
       id="current-color-scheme-2-1"
       type="text/css">
      .ColorScheme-Text {
        color:#122036;
      }
      </style>
    <style
       id="current-color-scheme-7-7-2"
       type="text/css">
      .ColorScheme-Text {
        color:#122036;
      }
      </style>
    <style
       id="current-color-scheme-5-0-9"
       type="text/css">
      .ColorScheme-Text {
        color:#122036;
      }
      </style>
    <style
       type="text/css"
       id="current-color-scheme-9-3">
      .ColorScheme-Text {
        color:#122036;
      }
      </style>
    <style
       type="text/css"
       id="current-color-scheme-1-19">
      .ColorScheme-Text {
        color:#122036;
      }
      </style>
    <style
       id="current-color-scheme-10-4"
       type="text/css">
      .ColorScheme-Text {
        color:#122036;
      }
      </style>
    <style
       type="text/css"
       id="current-color-scheme-6-7">
      .ColorScheme-Text {
        color:#122036;
      }
      </style>
    <style
       type="text/css"
       id="current-color-scheme-7-1-8">
      .ColorScheme-Text {
        color:#122036;
      }
      </style>
    <style
       type="text/css"
       id="current-color-scheme-5-2-4">
      .ColorScheme-Text {
        color:#122036;
      }
      </style>
    <linearGradient
       gradientTransform="matrix(1.0309904,0,0,1.0309904,114.97507,-99.982428)"
       gradientUnits="userSpaceOnUse"
       y2="373.01364"
       x2="-96"
       y1="400.28635"
       x1="-96"
       id="linearGradient979"
       xlink:href="#linearGradient2126"
       inkscape:collect="always" />
    <style
       id="current-color-scheme-3-5"
       type="text/css">
      .ColorScheme-Text {
        color:#122036;
      }
      </style>
    <style
       id="current-color-scheme-7-75-0"
       type="text/css">
      .ColorScheme-Text {
        color:#122036;
      }
      </style>
    <style
       id="current-color-scheme-5-9-3"
       type="text/css">
      .ColorScheme-Text {
        color:#122036;
      }
      </style>
    <style
       type="text/css"
       id="current-color-scheme-9-2-6">
      .ColorScheme-Text {
        color:#122036;
      }
      </style>
    <style
       type="text/css"
       id="current-color-scheme-1-2-1">
      .ColorScheme-Text {
        color:#122036;
      }
      </style>
    <style
       id="current-color-scheme-10-8-0"
       type="text/css">
      .ColorScheme-Text {
        color:#122036;
      }
      </style>
    <style
       type="text/css"
       id="current-color-scheme-6-9-6">
      .ColorScheme-Text {
        color:#122036;
      }
      </style>
    <style
       type="text/css"
       id="current-color-scheme-7-1-7-3">
      .ColorScheme-Text {
        color:#122036;
      }
      </style>
    <style
       type="text/css"
       id="current-color-scheme-5-2-3-2">
      .ColorScheme-Text {
        color:#122036;
      }
      </style>
    <style
       type="text/css"
       id="current-color-scheme-106-0">
      .ColorScheme-Text {
        color:#122036;
      }
      </style>
    <style
       type="text/css"
       id="current-color-scheme-7-3-6">
      .ColorScheme-Text {
        color:#122036;
      }
      </style>
    <style
       type="text/css"
       id="current-color-scheme-5-20-1">
      .ColorScheme-Text {
        color:#122036;
      }
      </style>
    <style
       id="current-color-scheme-9-6-5"
       type="text/css">
      .ColorScheme-Text {
        color:#122036;
      }
      </style>
    <style
       id="current-color-scheme-1-1-5"
       type="text/css">
      .ColorScheme-Text {
        color:#122036;
      }
      </style>
    <style
       type="text/css"
       id="current-color-scheme-10-5-4">
      .ColorScheme-Text {
        color:#122036;
      }
      </style>
    <style
       id="current-color-scheme-6-5-7"
       type="text/css">
      .ColorScheme-Text {
        color:#122036;
      }
      </style>
    <style
       id="current-color-scheme-7-1-4-6"
       type="text/css">
      .ColorScheme-Text {
        color:#122036;
      }
      </style>
    <style
       id="current-color-scheme-5-2-7-5"
       type="text/css">
      .ColorScheme-Text {
        color:#122036;
      }
      </style>
    <linearGradient
       inkscape:collect="always"
       xlink:href="#linearGradient4582-3"
       id="linearGradient1308"
       x1="58.939339"
       y1="312.64999"
       x2="60"
       y2="221.64999"
       gradientUnits="userSpaceOnUse"
       gradientTransform="translate(4,-25)" />
  </defs>
  <sodipodi:namedview
     id="base"
     pagecolor="#ffffff"
     bordercolor="#666666"
     borderopacity="1.0"
     inkscape:pageopacity="0.0"
     inkscape:pageshadow="2"
     inkscape:zoom="2"
     inkscape:cx="45.676387"
     inkscape:cy="61.149099"
     inkscape:document-units="px"
     inkscape:current-layer="layer1"
     showgrid="false"
     units="px"
     inkscape:window-width="1360"
     inkscape:window-height="699"
     inkscape:window-x="0"
     inkscape:window-y="0"
     inkscape:window-maximized="1"
     objecttolerance="10"
     gridtolerance="10"
     guidetolerance="10"
     inkscape:snap-bbox="true"
     inkscape:bbox-paths="true"
     inkscape:bbox-nodes="true"
     inkscape:snap-bbox-edge-midpoints="true"
     inkscape:snap-bbox-midpoints="true"
     inkscape:object-paths="true"
     inkscape:snap-intersection-paths="true">
    <inkscape:grid
       type="xygrid"
       id="grid7897"
       empspacing="4" />
  </sodipodi:namedview>
  <metadata
     id="metadata5">
    <rdf:RDF>
      <cc:Work
         rdf:about="">
        <dc:format>image/svg+xml</dc:format>
        <dc:type
           rdf:resource="http://purl.org/dc/dcmitype/StillImage" />
        <dc:title>Antu icon Theme</dc:title>
      </cc:Work>
    </rdf:RDF>
  </metadata>
  <g
     inkscape:label="Capa 1"
     inkscape:groupmode="layer"
     id="layer1"
     transform="translate(0,-186.64999)">
    <g
       transform="matrix(2.8636363,0,0,2.8636363,-4.7272718,-581.66588)"
       id="layer1-7"
       inkscape:label="Capa 1">
      <g
         transform="translate(35,-15.000005)"
         id="g1535">
        <g
           transform="translate(-35,15)"
           id="g911">
          <g
             transform="translate(-24,-4)"
             id="g5422">
            <g
               inkscape:label="Capa 1"
               id="layer1-6-4"
               transform="matrix(1.4666667,0,0,1.4666667,24.533333,-143.37)">
              <rect
                 style="fill:#343b40;fill-opacity:1;stroke-width:0.68181819"
                 id="rect938"
                 width="30"
                 height="29.999996"
                 x="1"
                 y="283.64999"
                 ry="2.8571429" />
              <rect
                 style="opacity:0.97000002;fill:url(#linearGradient979);fill-opacity:1;stroke-width:0.70294797"
                 id="rect942"
                 width="29.523809"
                 height="29.523806"
                 x="1.2380953"
                 y="283.88809"
                 ry="2.6190476" />
              <g
                 inkscape:label="Capa 1"
                 id="layer1-94"
                 transform="matrix(0.68181817,0,0,0.68181817,37.136363,97.752273)">
                <g
                   transform="matrix(1.1666667,0,0,1.125,5.3333328,-46.956249)"
                   id="layer1-9"
                   inkscape:label="Capa 1">
                  <g
                     transform="translate(18,-2)"
                     id="g1528" />
                </g>
              </g>
            </g>
          </g>
        </g>
      </g>
    </g>
    <path
       style="opacity:1;fill:#343b40;fill-opacity:1;stroke-width:1"
       d="M 16 11 C 12.122 11 9 14.122 9 18 C 9 21.878 12.122 25 16 25 C 19.878 25 23 21.878 23 18 C 23 14.122 19.878 11 16 11 z M 112 11 C 108.122 11 105 14.12199 105 18 C 105 21.87801 108.122 25 112 25 C 115.878 25 119 21.87801 119 18 C 119 14.12199 115.878 11 112 11 z M 64 32 C 54.028 32 46 40.028 46 50 L 46 57 L 45 57 C 41.676 57 39 59.676 39 63 L 39 96 C 39 99.324 41.676 102 45 102 L 83 102 C 86.324 102 89 99.324 89 96 L 89 63 C 89 59.676 86.324 57 83 57 L 82 57 L 82 50 C 82 40.028 73.972 32 64 32 z M 64 39 C 70.094 39 75 43.906 75 50 L 75 57 L 53 57 L 53 50 C 53 43.906 57.906 39 64 39 z M 16 57 C 12.122 57 9 60.122 9 64 C 9 67.878 12.122 71 16 71 C 19.878 71 23 67.878 23 64 C 23 60.122 19.878 57 16 57 z M 112 57 C 108.122 57 105 60.12199 105 64 C 105 67.87801 108.122 71 112 71 C 115.878 71 119 67.87801 119 64 C 119 60.12199 115.878 57 112 57 z M 64 69 C 67.878 69 71 72.122 71 76 C 71 78.801679 69.36683 81.201928 67 82.322266 L 67 89 C 67 90.662 65.662 92 64 92 C 62.338 92 61 90.662 61 89 L 61 82.322266 C 58.63317 81.201928 57 78.801679 57 76 C 57 72.122 60.122 69 64 69 z M 16 107 C 12.122 107 9 110.122 9 114 C 9 117.878 12.122 121 16 121 C 19.878 121 23 117.878 23 114 C 23 110.122 19.878 107 16 107 z M 112 107 C 108.122 107 105 110.12202 105 114 C 105 117.87801 108.122 121 112 121 C 115.878 121 119 117.87801 119 114 C 119 110.12202 115.878 107 112 107 z "
       transform="translate(0,186.64999)"
       id="rect1194" />
    <g
       transform="matrix(2.8636364,0,0,2.8636364,-4.7272734,-581.66589)"
       id="layer1-62-9-0"
       inkscape:label="Capa 1">
      <g
         transform="translate(35,-15.000005)"
         id="g1535-3-7">
        <g
           transform="translate(-35,15)"
           id="g911-6-8">
          <g
             transform="translate(-24,-4)"
             id="g5422-0-6">
            <g
               inkscape:label="Capa 1"
               id="layer1-6-6-8"
               transform="matrix(1.4666667,0,0,1.4666667,24.533333,-143.37)">
              <g
                 inkscape:label="Capa 1"
                 id="layer1-94-1-3"
                 transform="matrix(0.68181817,0,0,0.68181817,37.136363,97.752273)">
                <g
                   transform="matrix(1.1666667,0,0,1.125,5.3333328,-46.956249)"
                   id="layer1-9-8-1"
                   inkscape:label="Capa 1">
                  <g
                     transform="translate(18,-2)"
                     id="g1528-7-4" />
                </g>
              </g>
            </g>
          </g>
        </g>
      </g>
    </g>
    <path
       inkscape:connector-curvature="0"
       style="opacity:1;fill:url(#linearGradient1308);fill-opacity:1;stroke-width:1"
       d="m 16,196.64999 c -3.878,0 -7,3.122 -7,7 0,3.878 3.122,7 7,7 3.878,0 7,-3.122 7,-7 0,-3.878 -3.122,-7 -7,-7 z m 96,0 c -3.878,0 -7,3.12199 -7,7 0,3.87801 3.122,7 7,7 3.878,0 7,-3.12199 7,-7 0,-3.87801 -3.122,-7 -7,-7 z m -48,21 c -9.972,0 -18,8.028 -18,18 v 7 h -1 c -3.324,0 -6,2.676 -6,6 v 33 c 0,3.324 2.676,6 6,6 h 38 c 3.324,0 6,-2.676 6,-6 v -33 c 0,-3.324 -2.676,-6 -6,-6 h -1 v -7 c 0,-9.972 -8.028,-18 -18,-18 z m 0,7 c 6.094,0 11,4.906 11,11 v 7 H 53 v -7 c 0,-6.094 4.906,-11 11,-11 z m -48,18 c -3.878,0 -7,3.122 -7,7 0,3.878 3.122,7 7,7 3.878,0 7,-3.122 7,-7 0,-3.878 -3.122,-7 -7,-7 z m 96,0 c -3.878,0 -7,3.12199 -7,7 0,3.87801 3.122,7 7,7 3.878,0 7,-3.12199 7,-7 0,-3.87801 -3.122,-7 -7,-7 z m -48,12 c 3.878,0 7,3.122 7,7 0,2.80168 -1.63317,5.20193 -4,6.32227 v 6.67773 c 0,1.662 -1.338,3 -3,3 -1.662,0 -3,-1.338 -3,-3 v -6.67773 c -2.36683,-1.12034 -4,-3.52059 -4,-6.32227 0,-3.878 3.122,-7 7,-7 z m -48,38 c -3.878,0 -7,3.122 -7,7 0,3.878 3.122,7 7,7 3.878,0 7,-3.122 7,-7 0,-3.878 -3.122,-7 -7,-7 z m 96,0 c -3.878,0 -7,3.12202 -7,7 0,3.87801 3.122,7 7,7 3.878,0 7,-3.12199 7,-7 0,-3.87798 -3.122,-7 -7,-7 z"
       id="rect1194-9" />
  </g>
</svg>
