<?xml version="1.0" encoding="UTF-8" standalone="no"?>
<!-- Created with Inkscape (http://www.inkscape.org/) -->

<svg
   xmlns:dc="http://purl.org/dc/elements/1.1/"
   xmlns:cc="http://creativecommons.org/ns#"
   xmlns:rdf="http://www.w3.org/1999/02/22-rdf-syntax-ns#"
   xmlns:svg="http://www.w3.org/2000/svg"
   xmlns="http://www.w3.org/2000/svg"
   xmlns:xlink="http://www.w3.org/1999/xlink"
   xmlns:sodipodi="http://sodipodi.sourceforge.net/DTD/sodipodi-0.dtd"
   xmlns:inkscape="http://www.inkscape.org/namespaces/inkscape"
   width="48"
   height="48"
   viewBox="0 0 48 48"
   version="1.1"
   id="svg8"
   inkscape:version="0.92.2 2405546, 2018-03-11"
   sodipodi:docname="applications-utilities.svg">
  <title
     id="title7895">Antu icon Theme</title>
  <defs
     id="defs2">
    <linearGradient
       gradientTransform="translate(-69.000002,274.64999)"
       inkscape:collect="always"
       xlink:href="#linearGradient1143"
       id="linearGradient1915"
       x1="93"
       y1="20"
       x2="93"
       y2="12"
       gradientUnits="userSpaceOnUse" />
    <linearGradient
       inkscape:collect="always"
       id="linearGradient1143">
      <stop
         style="stop-color:#f1efea;stop-opacity:1"
         offset="0"
         id="stop1139" />
      <stop
         style="stop-color:#fcfcfc;stop-opacity:1"
         offset="1"
         id="stop1141" />
    </linearGradient>
    <linearGradient
       gradientTransform="translate(-69.000002,274.64999)"
       inkscape:collect="always"
       xlink:href="#linearGradient4564"
       id="linearGradient1906"
       x1="92"
       y1="34"
       x2="92"
       y2="5"
       gradientUnits="userSpaceOnUse" />
    <linearGradient
       id="linearGradient4564"
       inkscape:collect="always">
      <stop
         id="stop4560"
         offset="0"
         style="stop-color:#ef0b2c;stop-opacity:1" />
      <stop
         id="stop4562"
         offset="1"
         style="stop-color:#fc3a56;stop-opacity:1" />
    </linearGradient>
  </defs>
  <sodipodi:namedview
     id="base"
     pagecolor="#ffffff"
     bordercolor="#666666"
     borderopacity="1.0"
     inkscape:pageopacity="0.0"
     inkscape:pageshadow="2"
     inkscape:zoom="5.6568544"
     inkscape:cx="57.647295"
     inkscape:cy="-6.982773"
     inkscape:document-units="px"
     inkscape:current-layer="layer1"
     showgrid="true"
     units="px"
     inkscape:window-width="1360"
     inkscape:window-height="711"
     inkscape:window-x="0"
     inkscape:window-y="28"
     inkscape:window-maximized="1"
     objecttolerance="10"
     gridtolerance="10"
     guidetolerance="10"
     inkscape:snap-bbox="true"
     inkscape:bbox-paths="true"
     inkscape:bbox-nodes="true"
     inkscape:snap-bbox-edge-midpoints="true"
     inkscape:snap-bbox-midpoints="true"
     inkscape:object-paths="true"
     inkscape:snap-intersection-paths="true">
    <inkscape:grid
       type="xygrid"
       id="grid7897"
       empspacing="4" />
  </sodipodi:namedview>
  <metadata
     id="metadata5">
    <rdf:RDF>
      <cc:Work
         rdf:about="">
        <dc:format>image/svg+xml</dc:format>
        <dc:type
           rdf:resource="http://purl.org/dc/dcmitype/StillImage" />
        <dc:title>Antu icon Theme</dc:title>
      </cc:Work>
    </rdf:RDF>
  </metadata>
  <g
     inkscape:label="Capa 1"
     inkscape:groupmode="layer"
     id="layer1"
     transform="translate(0,-266.64999)">
    <g
       id="g2556">
      <path
         id="rect1644"
         d="m 14,270.64999 c -1.107998,0 -2,0.892 -2,2 v 3 5 1 1 h 4 v -1 -7 h 16 v 7 1 h 2 1 1 v -1 -1 -5 -3 c 0,-1.108 -0.892,-2 -2,-2 z"
         style="opacity:1;vector-effect:none;fill:#02070c;fill-opacity:0.99215686;stroke:none;stroke-width:6;stroke-linecap:round;stroke-linejoin:round;stroke-miterlimit:4;stroke-dasharray:none;stroke-dashoffset:0;stroke-opacity:1"
         inkscape:connector-curvature="0" />
      <path
         id="rect1677"
         d="m 14,271.64999 c -0.554,0 -1,0.446 -1,1 v 9 h 2 v -7 -1 h 18 v 4 4 h 2 v -4 -5 c 0,-0.554 -0.446,-1 -1,-1 z"
         style="opacity:1;vector-effect:none;fill:#15272f;fill-opacity:1;stroke:none;stroke-width:6;stroke-linecap:round;stroke-linejoin:round;stroke-miterlimit:4;stroke-dasharray:none;stroke-dashoffset:0;stroke-opacity:1"
         inkscape:connector-curvature="0" />
      <path
         id="rect2544"
         d="m 5,278.64999 h 38 c 1.662,0 3,1.338 3,3 v 26 c 0,1.662 -1.338,3 -3,3 H 5 c -1.662,0 -3,-1.338 -3,-3 v -26 c 0,-1.662 1.338,-3 3,-3 z"
         style="opacity:1;vector-effect:none;fill:#be011e;fill-opacity:1;stroke:none;stroke-width:6;stroke-linecap:round;stroke-linejoin:round;stroke-miterlimit:4;stroke-dasharray:none;stroke-dashoffset:0;stroke-opacity:1" />
      <path
         id="path1897"
         d="m 5,279.64999 c -1.108,0 -2,0.892 -2,2 v 9 h 12 v -3 c 0,-0.277 0.112218,-0.52628 0.292969,-0.70703 0.18075,-0.18075 0.430032,-0.29297 0.707031,-0.29297 h 4 c 0.276999,0 0.526281,0.11222 0.707031,0.29297 C 20.887781,287.12371 21,287.37299 21,287.64999 v 3 h 6 v -3 c 0,-0.277 0.112218,-0.52628 0.292969,-0.70703 C 27.473719,286.76221 27.723,286.64999 28,286.64999 h 4 c 0.277,0 0.52628,0.11222 0.70703,0.29297 C 32.88778,287.12371 33,287.37299 33,287.64999 v 3 h 12 v -9 c 0,-1.108 -0.892,-2 -2,-2 z m -2,12 v 16 c 0,1.108 0.892,2 2,2 h 38 c 1.108,0 2,-0.892 2,-2 v -16 H 33 v 2 c 0,0.277 -0.11222,0.52628 -0.29297,0.70703 -0.18075,0.18075 -0.43003,0.29297 -0.70703,0.29297 h -4 c -0.277,0 -0.526281,-0.11222 -0.707031,-0.29297 C 27.112218,294.17627 27,293.92699 27,293.64999 v -2 h -6 v 2 c 0,0.277 -0.112218,0.52628 -0.292969,0.70703 -0.18075,0.18075 -0.430032,0.29297 -0.707031,0.29297 h -4 c -0.276999,0 -0.526281,-0.11222 -0.707031,-0.29297 C 15.112218,294.17627 15,293.92699 15,293.64999 v -2 z"
         style="opacity:1;vector-effect:none;fill:url(#linearGradient1906);fill-opacity:1;stroke:none;stroke-width:6;stroke-linecap:round;stroke-linejoin:round;stroke-miterlimit:4;stroke-dasharray:none;stroke-dashoffset:0;stroke-opacity:1"
         inkscape:connector-curvature="0" />
      <path
         id="rect1818"
         d="m 16,287.64999 v 6 h 4 v -6 z m 12,0 v 6 h 4 v -6 z"
         style="opacity:1;vector-effect:none;fill:url(#linearGradient1915);fill-opacity:1;stroke:none;stroke-width:6;stroke-linecap:round;stroke-linejoin:round;stroke-miterlimit:4;stroke-dasharray:none;stroke-dashoffset:0;stroke-opacity:1"
         inkscape:connector-curvature="0" />
    </g>
  </g>
</svg>
