<?xml version="1.0" encoding="UTF-8" standalone="no"?>
<!-- Created with Inkscape (http://www.inkscape.org/) -->

<svg
   xmlns:dc="http://purl.org/dc/elements/1.1/"
   xmlns:cc="http://creativecommons.org/ns#"
   xmlns:rdf="http://www.w3.org/1999/02/22-rdf-syntax-ns#"
   xmlns:svg="http://www.w3.org/2000/svg"
   xmlns="http://www.w3.org/2000/svg"
   xmlns:xlink="http://www.w3.org/1999/xlink"
   xmlns:sodipodi="http://sodipodi.sourceforge.net/DTD/sodipodi-0.dtd"
   xmlns:inkscape="http://www.inkscape.org/namespaces/inkscape"
   width="48"
   height="48"
   viewBox="0 0 48 48"
   version="1.1"
   id="svg8"
   inkscape:version="0.92.2 2405546, 2018-03-11"
   sodipodi:docname="preferences-desktop-gaming.svg">
  <title
     id="title7895">Antu icon Theme</title>
  <defs
     id="defs2">
    <linearGradient
       gradientTransform="translate(-65.896077,258.64998)"
       inkscape:collect="always"
       xlink:href="#linearGradient4570"
       id="linearGradient9588"
       x1="39"
       y1="46"
       x2="39"
       y2="2.000005"
       gradientUnits="userSpaceOnUse" />
    <linearGradient
       id="linearGradient4570"
       inkscape:collect="always">
      <stop
         id="stop4566"
         offset="0"
         style="stop-color:#e63a3f;stop-opacity:1" />
      <stop
         id="stop4568"
         offset="1"
         style="stop-color:#ff6c60;stop-opacity:1" />
    </linearGradient>
    <linearGradient
       gradientTransform="matrix(1.5,0,0,1.5,-65.896077,-164.82502)"
       inkscape:collect="always"
       xlink:href="#linearGradient4580"
       id="linearGradient9618"
       x1="16"
       y1="312.31668"
       x2="16"
       y2="284.98334"
       gradientUnits="userSpaceOnUse" />
    <linearGradient
       id="linearGradient4580"
       inkscape:collect="always">
      <stop
         id="stop4576"
         offset="0"
         style="stop-color:#06111c;stop-opacity:1" />
      <stop
         id="stop4578-59"
         offset="1"
         style="stop-color:#15272f;stop-opacity:1" />
    </linearGradient>
    <linearGradient
       gradientTransform="translate(-65.896077,258.64998)"
       inkscape:collect="always"
       xlink:href="#linearGradient9624"
       id="linearGradient9580"
       x1="9"
       y1="46.000004"
       x2="8"
       y2="2.000005"
       gradientUnits="userSpaceOnUse" />
    <linearGradient
       inkscape:collect="always"
       id="linearGradient9624">
      <stop
         style="stop-color:#1e99c4;stop-opacity:1"
         offset="0"
         id="stop9620" />
      <stop
         style="stop-color:#1dd7ff;stop-opacity:1"
         offset="1"
         id="stop9622" />
    </linearGradient>
  </defs>
  <sodipodi:namedview
     id="base"
     pagecolor="#ffffff"
     bordercolor="#666666"
     borderopacity="1.0"
     inkscape:pageopacity="0.0"
     inkscape:pageshadow="2"
     inkscape:zoom="5.6568544"
     inkscape:cx="-9.7905113"
     inkscape:cy="38.487199"
     inkscape:document-units="px"
     inkscape:current-layer="layer1"
     showgrid="true"
     units="px"
     inkscape:window-width="1360"
     inkscape:window-height="711"
     inkscape:window-x="0"
     inkscape:window-y="28"
     inkscape:window-maximized="1"
     objecttolerance="10"
     gridtolerance="10"
     guidetolerance="10"
     inkscape:snap-bbox="true"
     inkscape:bbox-paths="true"
     inkscape:bbox-nodes="true"
     inkscape:snap-bbox-edge-midpoints="true"
     inkscape:snap-bbox-midpoints="true"
     inkscape:object-paths="true"
     inkscape:snap-intersection-paths="true">
    <inkscape:grid
       type="xygrid"
       id="grid7897"
       empspacing="4" />
  </sodipodi:namedview>
  <metadata
     id="metadata5">
    <rdf:RDF>
      <cc:Work
         rdf:about="">
        <dc:format>image/svg+xml</dc:format>
        <dc:type
           rdf:resource="http://purl.org/dc/dcmitype/StillImage" />
        <dc:title>Antu icon Theme</dc:title>
      </cc:Work>
    </rdf:RDF>
  </metadata>
  <g
     inkscape:label="Capa 1"
     inkscape:groupmode="layer"
     id="layer1"
     transform="translate(0,-266.64999)">
    <g
       id="g10863"
       transform="translate(65.896075,8.00001)">
      <path
         id="rect9419"
         d="m -47.896077,260.64996 h 12 v 45 h -12 z"
         style="opacity:1;vector-effect:none;fill:#03080d;fill-opacity:0.99215686;stroke:none;stroke-width:6;stroke-linecap:square;stroke-linejoin:round;stroke-miterlimit:18;stroke-dasharray:none;stroke-dashoffset:0;stroke-opacity:1;paint-order:markers stroke fill"
         inkscape:connector-curvature="0" />
      <path
         id="rect9421"
         d="m -47.896077,261.65 h 12 v 43.00001 h -12 z"
         style="opacity:1;vector-effect:none;fill:url(#linearGradient9618);fill-opacity:1;stroke:none;stroke-width:6;stroke-linecap:square;stroke-linejoin:round;stroke-miterlimit:18;stroke-dasharray:none;stroke-dashoffset:0;stroke-opacity:1;paint-order:markers stroke fill"
         inkscape:connector-curvature="0" />
      <path
         style="opacity:1;vector-effect:none;fill:#1487af;fill-opacity:0.99215686;stroke:none;stroke-width:6;stroke-linecap:square;stroke-linejoin:round;stroke-miterlimit:18;stroke-dasharray:none;stroke-dashoffset:0;stroke-opacity:1;paint-order:markers stroke fill"
         d="m -59.896077,260.64998 c -3.324,0 -6,2.676 -6,6 v 33 c 0,3.324 2.676,6 6,6 h 5 7 v -45 h -7 z"
         id="rect9195"
         inkscape:connector-curvature="0" />
      <path
         id="rect9191"
         d="m -59.896077,261.64998 c -2.77,0 -5,2.23001 -5,5 v 33 c 0,2.77 2.23,5 5,5 h 4 2 5 v -5 -33 -5 h -5 -2 z"
         style="opacity:1;vector-effect:none;fill:url(#linearGradient9580);fill-opacity:1;stroke:none;stroke-width:6;stroke-linecap:square;stroke-linejoin:round;stroke-miterlimit:18;stroke-dasharray:none;stroke-dashoffset:0;stroke-opacity:1;paint-order:markers stroke fill"
         inkscape:connector-curvature="0" />
      <path
         id="rect9098"
         d="m -53.896077,264.64998 v 1 h 3 v -1 z m -3,7 c -2.215999,0 -4,1.78401 -4,4 0,2.21601 1.784001,4 4,4 2.215999,0 4,-1.78399 4,-4 0,-2.21599 -1.784001,-4 -4,-4 z m 0,13 c -1.107997,0 -2,0.89201 -2,2 0,1.10801 0.892003,2 2,2 1.107997,0 2,-0.89199 2,-2 0,-1.10799 -0.892003,-2 -2,-2 z m -4,4 c -1.107997,0 -2,0.89201 -2,2 0,1.10799 0.892003,2 2,2 1.107997,0 2,-0.89201 2,-2 0,-1.10799 -0.892003,-2 -2,-2 z m 8,0 c -1.107997,0 -2,0.89201 -2,2 0,1.10799 0.892003,2 2,2 1.107997,0 2,-0.89201 2,-2 0,-1.10799 -0.892003,-2 -2,-2 z m -4,4 c -1.107997,0 -2,0.892 -2,2 0,1.10799 0.892003,2 2,2 1.107997,0 2,-0.89201 2,-2 0,-1.108 -0.892003,-2 -2,-2 z m 4,7 v 3 h 3 v -3 z"
         style="opacity:1;vector-effect:none;fill:#041e26;fill-opacity:1;stroke:none;stroke-width:6;stroke-linecap:square;stroke-linejoin:round;stroke-miterlimit:18;stroke-dasharray:none;stroke-dashoffset:0;stroke-opacity:1;paint-order:markers stroke fill"
         inkscape:connector-curvature="0" />
      <path
         id="rect9118-74-4"
         d="m -56.896077,272.64998 c -1.662,0 -3,1.33801 -3,3 0,1.662 1.338,3 3,3 1.662,0 3,-1.338 3,-3 0,-1.66199 -1.338,-3 -3,-3 z m 0,13 c -0.554,0 -1,0.44601 -1,1 0,0.55402 0.446,1 1,1 0.554,0 1,-0.44598 1,-1 0,-0.55399 -0.446,-1 -1,-1 z m -4,4 c -0.554,0 -1,0.44599 -1,1 0,0.55402 0.446,1 1,1 0.554,0 1,-0.44598 1,-1 0,-0.55401 -0.446,-1 -1,-1 z m 8,0 c -0.554,0 -1,0.44599 -1,1 0,0.55402 0.446,1 1,1 0.554,0 1,-0.44598 1,-1 0,-0.55401 -0.446,-1 -1,-1 z m -4,4 c -0.554,0 -1,0.44599 -1,1 0,0.554 0.446,1 1,1 0.554,0 1,-0.446 1,-1 0,-0.55401 -0.446,-1 -1,-1 z m 5,7 v 1 h 1 v -1 z"
         style="opacity:1;vector-effect:none;fill:#0b5065;fill-opacity:1;stroke:none;stroke-width:6;stroke-linecap:square;stroke-linejoin:round;stroke-miterlimit:18;stroke-dasharray:none;stroke-dashoffset:0;stroke-opacity:1;paint-order:markers stroke fill"
         inkscape:connector-curvature="0" />
      <path
         style="opacity:1;vector-effect:none;fill:#c73436;fill-opacity:0.99215686;stroke:none;stroke-width:6;stroke-linecap:square;stroke-linejoin:round;stroke-miterlimit:18;stroke-dasharray:none;stroke-dashoffset:0;stroke-opacity:1;paint-order:markers stroke fill"
         d="m -23.896074,260.64992 c 3.324,0 6,2.676 6,6 v 33 c 0,3.324 -2.676,6 -6,6 h -5.000001 -6.999999 v -45 h 6.999999 z"
         id="rect9195-6"
         inkscape:connector-curvature="0" />
      <path
         id="rect9191-0"
         d="m -34.896077,261.64998 v 5 33 5 h 5 2 4 c 2.77,0 5,-2.23 5,-5 v -33 c 0,-2.76999 -2.23,-5 -5,-5 h -4 -2 z"
         style="opacity:1;vector-effect:none;fill:url(#linearGradient9588);fill-opacity:1;stroke:none;stroke-width:6;stroke-linecap:square;stroke-linejoin:round;stroke-miterlimit:18;stroke-dasharray:none;stroke-dashoffset:0;stroke-opacity:1;paint-order:markers stroke fill"
         inkscape:connector-curvature="0" />
      <path
         id="rect9245-0"
         d="m -31.896077,263.64998 v 1 h -1 v 1 h 1 v 1 h 1 v -1 h 1 v -1 h -1 v -1 z m 5,6 c -1.107997,0 -2,0.89201 -2,2 0,1.10801 0.892003,2 2,2 1.107998,0 2,-0.89199 2,-2 0,-1.10799 -0.892003,-2 -2,-2 z m -4,4 c -1.107998,0 -2,0.89201 -2,2 0,1.10801 0.892003,2 2,2 1.107998,0 2,-0.89199 2,-2 0,-1.10799 -0.892002,-2 -2,-2 z m 8,0 c -1.107998,0 -2,0.89201 -2,2 0,1.10801 0.892002,2 2,2 1.107998,0 2,-0.89199 2,-2 0,-1.10799 -0.892003,-2 -2,-2 z m -4,4 c -1.107997,0 -2,0.892 -2,2 0,1.10799 0.892003,2 2,2 1.107998,0 2,-0.89201 2,-2 0,-1.108 -0.892003,-2 -2,-2 z m 0,9 c -2.215999,0 -4,1.78401 -4,4 0,2.21601 1.784,4 4,4 2.215998,0 4,-1.78399 4,-4 0,-2.21599 -1.784002,-4 -4,-4 z m -5.5,13 c -0.831,0 -1.5,0.669 -1.5,1.5 0,0.83101 0.669,1.5 1.5,1.5 0.831,0 1.5,-0.66899 1.5,-1.5 0,-0.831 -0.669,-1.5 -1.5,-1.5 z"
         style="opacity:1;vector-effect:none;fill:#260b0b;fill-opacity:1;stroke:none;stroke-width:6;stroke-linecap:square;stroke-linejoin:round;stroke-miterlimit:18;stroke-dasharray:none;stroke-dashoffset:0;stroke-opacity:1;paint-order:markers stroke fill"
         inkscape:connector-curvature="0" />
      <path
         id="rect9247-1"
         d="m -26.896077,270.64998 c -0.553999,0 -1,0.44601 -1,1 0,0.55402 0.446,1 1,1 0.554001,0 1,-0.44598 1,-1 0,-0.55399 -0.445999,-1 -1,-1 z m -4,4 c -0.553999,0 -1,0.44599 -1,1 0,0.55402 0.446,1 1,1 0.554001,0 1,-0.44598 1,-1 0,-0.55401 -0.445999,-1 -1,-1 z m 8,0 c -0.554,0 -1,0.44599 -1,1 0,0.55402 0.446001,1 1,1 0.554001,0 1,-0.44598 1,-1 0,-0.55401 -0.445999,-1 -1,-1 z m -4,4 c -0.553999,0 -1,0.44599 -1,1 0,0.554 0.446,1 1,1 0.554001,0 1,-0.446 1,-1 0,-0.55401 -0.445999,-1 -1,-1 z m 0,9 c -1.662,0 -3,1.33801 -3,3 0,1.662 1.338,3 3,3 1.662,0 3,-1.338 3,-3 0,-1.66199 -1.338,-3 -3,-3 z m -5.5,13 c -0.277,0 -0.5,0.22301 -0.5,0.5 0,0.27701 0.223,0.5 0.5,0.5 0.276999,0 0.5,-0.22299 0.5,-0.5 0,-0.27699 -0.223001,-0.5 -0.5,-0.5 z"
         style="opacity:1;vector-effect:none;fill:#842525;fill-opacity:1;stroke:none;stroke-width:6;stroke-linecap:square;stroke-linejoin:round;stroke-miterlimit:18;stroke-dasharray:none;stroke-dashoffset:0;stroke-opacity:1;paint-order:markers stroke fill"
         inkscape:connector-curvature="0" />
      <path
         id="path9608"
         d="m -43.896077,275.64998 c -0.554001,0 -1,0.44601 -1,1 0,0.55402 0.445999,1 1,1 0.553999,0 1,-0.44598 1,-1 0,-0.55399 -0.446001,-1 -1,-1 z m 4,0 c -0.554,0 -1,0.44601 -1,1 0,0.55402 0.446,1 1,1 0.554001,0 1,-0.44598 1,-1 0,-0.55399 -0.445999,-1 -1,-1 z"
         style="opacity:1;vector-effect:none;fill:#d7dadc;fill-opacity:1;stroke:none;stroke-width:6;stroke-linecap:square;stroke-linejoin:round;stroke-miterlimit:18;stroke-dasharray:none;stroke-dashoffset:0;stroke-opacity:1;paint-order:markers stroke fill"
         inkscape:connector-curvature="0" />
      <path
         id="path9604"
         d="m -43.896077,279.64998 c -0.554001,0 -1,0.44601 -1,1 0,0.554 0.445999,1 1,1 0.553999,0 1,-0.446 1,-1 0,-0.55399 -0.446001,-1 -1,-1 z m 4,0 c -0.554,0 -1,0.44601 -1,1 0,0.554 0.446,1 1,1 0.554001,0 1,-0.446 1,-1 0,-0.55399 -0.445999,-1 -1,-1 z m -4,4 c -0.554001,0 -1,0.44599 -1,1 0,0.554 0.445999,1 1,1 0.553999,0 1,-0.446 1,-1 0,-0.55401 -0.446001,-1 -1,-1 z m 4,0 c -0.554,0 -1,0.44599 -1,1 0,0.554 0.446,1 1,1 0.554001,0 1,-0.446 1,-1 0,-0.55401 -0.445999,-1 -1,-1 z m -4,4 c -0.554001,0 -1,0.44601 -1,1 0,0.55402 0.445999,1 1,1 0.553999,0 1,-0.44598 1,-1 0,-0.55399 -0.446001,-1 -1,-1 z m 4,0 c -0.554,0 -1,0.44601 -1,1 0,0.55402 0.446,1 1,1 0.554001,0 1,-0.44598 1,-1 0,-0.55399 -0.445999,-1 -1,-1 z"
         style="opacity:1;vector-effect:none;fill:#000000;fill-opacity:1;stroke:none;stroke-width:6;stroke-linecap:square;stroke-linejoin:round;stroke-miterlimit:18;stroke-dasharray:none;stroke-dashoffset:0;stroke-opacity:1;paint-order:markers stroke fill"
         inkscape:connector-curvature="0" />
    </g>
  </g>
</svg>
