<?xml version="1.0" encoding="UTF-8" standalone="no"?>
<!-- Created with Inkscape (http://www.inkscape.org/) -->

<svg
   xmlns:dc="http://purl.org/dc/elements/1.1/"
   xmlns:cc="http://creativecommons.org/ns#"
   xmlns:rdf="http://www.w3.org/1999/02/22-rdf-syntax-ns#"
   xmlns:svg="http://www.w3.org/2000/svg"
   xmlns="http://www.w3.org/2000/svg"
   xmlns:xlink="http://www.w3.org/1999/xlink"
   xmlns:sodipodi="http://sodipodi.sourceforge.net/DTD/sodipodi-0.dtd"
   xmlns:inkscape="http://www.inkscape.org/namespaces/inkscape"
   width="48"
   height="48"
   viewBox="0 0 48 48"
   version="1.1"
   id="svg8"
   inkscape:version="0.92.2 2405546, 2018-03-11"
   sodipodi:docname="applications-development-translation.svg">
  <title
     id="title7895">Antu icon Theme</title>
  <defs
     id="defs2">
    <linearGradient
       gradientTransform="matrix(3.7795276,0,0,-3.7795276,-324,1353.1696)"
       inkscape:collect="always"
       xlink:href="#linearGradient4902"
       id="linearGradient9532-3"
       x1="84.666664"
       y1="274.77496"
       x2="84.666664"
       y2="282.77863"
       gradientUnits="userSpaceOnUse" />
    <linearGradient
       inkscape:collect="always"
       id="linearGradient4902">
      <stop
         style="stop-color:#0d72ec;stop-opacity:1"
         offset="0"
         id="stop4898" />
      <stop
         style="stop-color:#36b2fb;stop-opacity:1"
         offset="1"
         id="stop4900" />
    </linearGradient>
    <linearGradient
       gradientTransform="translate(-0.928572,1e-5)"
       gradientUnits="userSpaceOnUse"
       y2="278.64999"
       x2="-27.071428"
       y1="314.64999"
       x1="-27.071428"
       id="linearGradient14815"
       xlink:href="#linearGradient1500"
       inkscape:collect="always" />
    <linearGradient
       id="linearGradient1500"
       inkscape:collect="always">
      <stop
         id="stop1496"
         offset="0"
         style="stop-color:#262626;stop-opacity:1" />
      <stop
         id="stop1498"
         offset="1"
         style="stop-color:#333333;stop-opacity:1" />
    </linearGradient>
    <linearGradient
       gradientTransform="matrix(3.7795276,0,0,-3.7795276,30.857142,1308.5982)"
       gradientUnits="userSpaceOnUse"
       y2="273.56546"
       x2="-11.339285"
       y1="271.44879"
       x1="-11.339285"
       id="linearGradient7718"
       xlink:href="#linearGradient1492"
       inkscape:collect="always" />
    <linearGradient
       id="linearGradient1492"
       inkscape:collect="always">
      <stop
         id="stop1488"
         offset="0"
         style="stop-color:#4c4c4c;stop-opacity:1;" />
      <stop
         id="stop1490"
         offset="1"
         style="stop-color:#595959;stop-opacity:1" />
    </linearGradient>
  </defs>
  <sodipodi:namedview
     id="base"
     pagecolor="#ffffff"
     bordercolor="#666666"
     borderopacity="1.0"
     inkscape:pageopacity="0.0"
     inkscape:pageshadow="2"
     inkscape:zoom="5.6568544"
     inkscape:cx="-3.9410525"
     inkscape:cy="36.152369"
     inkscape:document-units="px"
     inkscape:current-layer="layer1"
     showgrid="true"
     units="px"
     inkscape:window-width="1360"
     inkscape:window-height="711"
     inkscape:window-x="0"
     inkscape:window-y="28"
     inkscape:window-maximized="1"
     objecttolerance="10"
     gridtolerance="10"
     guidetolerance="10"
     inkscape:snap-bbox="true"
     inkscape:bbox-paths="true"
     inkscape:bbox-nodes="true"
     inkscape:snap-bbox-edge-midpoints="true"
     inkscape:snap-bbox-midpoints="true"
     inkscape:object-paths="true"
     inkscape:snap-intersection-paths="true">
    <inkscape:grid
       type="xygrid"
       id="grid7897"
       empspacing="4" />
  </sodipodi:namedview>
  <metadata
     id="metadata5">
    <rdf:RDF>
      <cc:Work
         rdf:about="">
        <dc:format>image/svg+xml</dc:format>
        <dc:type
           rdf:resource="http://purl.org/dc/dcmitype/StillImage" />
        <dc:title>Antu icon Theme</dc:title>
      </cc:Work>
    </rdf:RDF>
  </metadata>
  <g
     inkscape:label="Capa 1"
     inkscape:groupmode="layer"
     id="layer1"
     transform="translate(0,-266.64999)">
    <g
       id="g3012"
       transform="translate(36,12)">
      <g
         inkscape:label="Capa 1"
         id="layer1-6"
         transform="translate(-36,-12)">
        <g
           id="g15463"
           transform="translate(36,-4)">
          <path
             style="opacity:1;fill:#1a1a1a;fill-opacity:1;stroke:none;stroke-width:0.99999994;stroke-opacity:1"
             d="m -33.999989,273.65001 h 17.975774 5.024239 21.000002 c 1.107968,0 1.999975,0.89197 1.999975,1.99997 v 37.99998 c 0,1.10801 -0.892007,2.00001 -2.000013,2.00001 h -43.999977 c -1.108006,0 -2.000012,-0.892 -2.000012,-2.00001 v -37.99998 c 0,-1.108 0.892006,-1.99997 2.000012,-1.99997 z"
             id="rect9183-4-4"
             inkscape:connector-curvature="0"
             sodipodi:nodetypes="sccssssssss" />
          <path
             inkscape:connector-curvature="0"
             style="opacity:0.98999999;fill:url(#linearGradient9532-3);fill-opacity:1;stroke:none;stroke-width:0.99999994;stroke-opacity:1"
             d="m -33.999996,314.64997 c -0.554004,0.003 -0.999999,-0.44602 -0.999999,-0.99998 l -4e-6,-33 h 46.000001 l 4e-6,33 c 0,0.55396 -0.446,0.99998 -1.000003,0.99998 h -22 -3.999999 z"
             id="rect9179-4-3"
             sodipodi:nodetypes="csccssccc" />
          <path
             id="rect14805"
             d="m -34,277.64999 c -1.107993,0 -2,0.89201 -2,2 v 34 c 0,1.10799 0.892007,2 2,2 h 17 2 2 v -2 -5 -29 c 0,-1.10799 -0.892008,-2 -2,-2 z"
             style="opacity:1;vector-effect:none;fill:#1a1a1a;fill-opacity:1;stroke:none;stroke-width:2;stroke-linecap:round;stroke-linejoin:round;stroke-miterlimit:4;stroke-dasharray:none;stroke-dashoffset:0;stroke-opacity:1;paint-order:markers stroke fill"
             inkscape:connector-curvature="0"
             sodipodi:nodetypes="sssscccccsss" />
          <path
             id="rect14807"
             d="m -34,278.64999 c -0.554,0 -1,0.446 -1,1 v 34 c 0,0.554 0.446,1 1,1 h 17 2 1 v -1 -7 -27 c 0,-0.554 -0.446,-1 -1,-1 z"
             style="opacity:1;vector-effect:none;fill:url(#linearGradient14815);fill-opacity:1;stroke:none;stroke-width:2;stroke-linecap:round;stroke-linejoin:round;stroke-miterlimit:4;stroke-dasharray:none;stroke-dashoffset:0;stroke-opacity:1;paint-order:markers stroke fill"
             inkscape:connector-curvature="0"
             sodipodi:nodetypes="sssscccccsss" />
          <path
             sodipodi:nodetypes="ssccccccccsss"
             inkscape:connector-curvature="0"
             id="rect14800"
             d="m -34,273.64999 c -1.107992,0 -2,0.89201 -2,2 v 5 1 2 h 2 44 2 v -2 -1 -5 c 0,-1.10799 -0.892008,-2 -2,-2 z"
             style="opacity:1;vector-effect:none;fill:#1a1a1a;fill-opacity:1;stroke:none;stroke-width:2;stroke-linecap:round;stroke-linejoin:round;stroke-miterlimit:4;stroke-dasharray:none;stroke-dashoffset:0;stroke-opacity:1;paint-order:markers stroke fill" />
          <path
             inkscape:connector-curvature="0"
             style="opacity:0.98999999;fill:url(#linearGradient7718);fill-opacity:1;stroke:none;stroke-width:0.30000001;stroke-miterlimit:4;stroke-dasharray:none;stroke-opacity:1"
             d="m -34.999999,282.64998 v -2 -4 -1 c 0,-0.554 0.446001,-1 1,-1 h 44.000001 c 0.554003,0 1,0.446 1,1 v 1 4 2 h -1 -44.000001 z"
             id="rect4523"
             sodipodi:nodetypes="cccsssscccccc" />
        </g>
      </g>
      <path
         inkscape:connector-curvature="0"
         id="rect1107-3-4"
         d="m -4,271.64999 v 2 h -4 v 14 H 4 v 3 H 2 v -2 H 0 v 2 h -2 v -2 h -2 v 2 h -2 v -2 h -2 v 2 2 1 h 2 v -1 H 4 v 1 H 2 v 2 h 4 v -2 -7 -1 H -6 v -2 H 6 v -10 h -7 v -2 z m -2,4 H 4 v 2 H -6 Z m 0,4 H 4 v 2 H -6 Z"
         style="opacity:1;fill:#0e44b2;fill-opacity:1;stroke:none;stroke-width:4;stroke-linecap:round;stroke-linejoin:round;stroke-miterlimit:4;stroke-dasharray:none;stroke-opacity:1" />
      <path
         inkscape:connector-curvature="0"
         id="rect1107-2-4-3"
         d="m -4,270.64999 v 2 h -4 v 14 H 4 v 3 H 2 v -2 H 0 v 2 h -2 v -2 h -2 v 2 h -2 v -2 h -2 v 2 2 1 h 2 v -1 H 4 v 1 H 2 v 2 h 4 v -2 -7 -1 H -6 v -2 H 6 v -10 h -7 v -2 z m -2,4 H 4 v 2 H -6 Z m 0,4 H 4 v 2 H -6 Z"
         style="opacity:1;fill:#ffffff;fill-opacity:1;stroke:none;stroke-width:4;stroke-linecap:round;stroke-linejoin:round;stroke-miterlimit:4;stroke-dasharray:none;stroke-opacity:1" />
      <path
         inkscape:connector-curvature="0"
         style="opacity:1;fill:#ffffff;fill-opacity:1;stroke:none;stroke-width:6;stroke-linecap:round;stroke-linejoin:round;stroke-miterlimit:4;stroke-dasharray:none;stroke-dashoffset:0;stroke-opacity:1;paint-order:stroke markers fill"
         d="m -32,269.64999 v 1 h -1 v 1 h 1 v 1 h -1 v 1 h 1 v 1 h 1 v -1 h 1 v 1 h 1 v -1 h 1 v -1 h -1 v -1 h 1 v -1 h -1 v -1 h -1 v 1 h -1 v -1 z m 1,2 h 1 v 1 h -1 z m 4,2 v 1 h 4 v -1 z"
         id="rect1017-0" />
    </g>
  </g>
</svg>
