<?xml version="1.0" encoding="UTF-8" standalone="no"?>
<!-- Created with Inkscape (http://www.inkscape.org/) -->

<svg
   xmlns:dc="http://purl.org/dc/elements/1.1/"
   xmlns:cc="http://creativecommons.org/ns#"
   xmlns:rdf="http://www.w3.org/1999/02/22-rdf-syntax-ns#"
   xmlns:svg="http://www.w3.org/2000/svg"
   xmlns="http://www.w3.org/2000/svg"
   xmlns:xlink="http://www.w3.org/1999/xlink"
   xmlns:sodipodi="http://sodipodi.sourceforge.net/DTD/sodipodi-0.dtd"
   xmlns:inkscape="http://www.inkscape.org/namespaces/inkscape"
   width="48"
   height="48"
   viewBox="0 0 48 48"
   version="1.1"
   id="svg8"
   inkscape:version="0.92.2 2405546, 2018-03-11"
   sodipodi:docname="applications-education-language.svg">
  <title
     id="title7895">Antu icon Theme</title>
  <defs
     id="defs2">
    <linearGradient
       inkscape:collect="always"
       xlink:href="#linearGradient4331"
       id="linearGradient2718"
       x1="104"
       y1="253.64999"
       x2="104"
       y2="222.64999"
       gradientUnits="userSpaceOnUse"
       gradientTransform="translate(-46,80)" />
    <linearGradient
       id="linearGradient4331"
       inkscape:collect="always">
      <stop
         id="stop4333"
         offset="0"
         style="stop-color:#157367;stop-opacity:1;" />
      <stop
         id="stop4335"
         offset="1"
         style="stop-color:#1a8c7e;stop-opacity:1" />
    </linearGradient>
    <linearGradient
       gradientUnits="userSpaceOnUse"
       y2="275.30417"
       x2="82.814583"
       y1="285.09372"
       x1="82.814606"
       id="linearGradient9532-3"
       xlink:href="#linearGradient4323"
       inkscape:collect="always"
       gradientTransform="matrix(3.7795276,0,0,3.7795276,-210.0001,-1086.5196)" />
    <linearGradient
       id="linearGradient4323"
       inkscape:collect="always">
      <stop
         id="stop4325"
         offset="0"
         style="stop-color:#c19e72;stop-opacity:1;" />
      <stop
         id="stop4327"
         offset="1"
         style="stop-color:#d6af7f;stop-opacity:1" />
    </linearGradient>
  </defs>
  <sodipodi:namedview
     id="base"
     pagecolor="#ffffff"
     bordercolor="#666666"
     borderopacity="1.0"
     inkscape:pageopacity="0.0"
     inkscape:pageshadow="2"
     inkscape:zoom="5.6568544"
     inkscape:cx="-9.7905113"
     inkscape:cy="38.487199"
     inkscape:document-units="px"
     inkscape:current-layer="layer1"
     showgrid="true"
     units="px"
     inkscape:window-width="1360"
     inkscape:window-height="711"
     inkscape:window-x="0"
     inkscape:window-y="28"
     inkscape:window-maximized="1"
     objecttolerance="10"
     gridtolerance="10"
     guidetolerance="10"
     inkscape:snap-bbox="true"
     inkscape:bbox-paths="true"
     inkscape:bbox-nodes="true"
     inkscape:snap-bbox-edge-midpoints="true"
     inkscape:snap-bbox-midpoints="true"
     inkscape:object-paths="true"
     inkscape:snap-intersection-paths="true">
    <inkscape:grid
       type="xygrid"
       id="grid7897"
       empspacing="4" />
  </sodipodi:namedview>
  <metadata
     id="metadata5">
    <rdf:RDF>
      <cc:Work
         rdf:about="">
        <dc:format>image/svg+xml</dc:format>
        <dc:type
           rdf:resource="http://purl.org/dc/dcmitype/StillImage" />
        <dc:title>Antu icon Theme</dc:title>
      </cc:Work>
    </rdf:RDF>
  </metadata>
  <g
     inkscape:label="Capa 1"
     inkscape:groupmode="layer"
     id="layer1"
     transform="translate(0,-266.64999)">
    <g
       id="g3851"
       transform="translate(-32,-28)">
      <g
         inkscape:label="Capa 1"
         id="layer1-5"
         transform="translate(32,28)">
        <g
           id="layer1-7"
           inkscape:label="Capa 1">
          <g
             transform="translate(35.071428,-3.99999)"
             id="g8335">
            <path
               style="opacity:1;fill:#80684b;fill-opacity:1;stroke:none;stroke-width:0.99999994;stroke-opacity:1"
               d="m -33.071417,273.65 h 17.975774 5.024239 21.000002 c 1.107968,0 1.999975,0.89197 1.999975,1.99997 v 37.99998 c 0,1.10801 -0.892007,2.00001 -2.000013,2.00001 h -43.999977 c -1.108006,0 -2.000012,-0.892 -2.000012,-2.00001 v -37.99998 c 0,-1.108 0.892006,-1.99997 2.000012,-1.99997 z"
               id="rect9183-4-4"
               inkscape:connector-curvature="0"
               sodipodi:nodetypes="sccssssssss" />
            <path
               inkscape:connector-curvature="0"
               id="rect9179-4-3"
               transform="translate(-113.07133,322.64989)"
               d="m 80,-48 c -0.554004,-0.003 -1,0.44604 -1,1 v 33 2 2 1 c 0,0.554 0.446001,1 1,1 h 44 c 0.554,0 1,-0.446 1,-1 v -1 -2 -2 -33 c 0,-0.55396 -0.446,-1 -1,-1 h -22 -4 z"
               style="opacity:0.98999999;fill:url(#linearGradient9532-3);fill-opacity:1;stroke:none;stroke-width:0.99999994;stroke-opacity:1" />
          </g>
        </g>
      </g>
      <path
         inkscape:connector-curvature="0"
         id="rect2708"
         d="m 36,301.64999 h 40 v 34 H 36 Z"
         style="opacity:1;vector-effect:none;fill:#80684b;fill-opacity:1;stroke:none;stroke-width:6;stroke-linecap:round;stroke-linejoin:round;stroke-miterlimit:4;stroke-dasharray:none;stroke-dashoffset:0;stroke-opacity:1" />
      <path
         inkscape:connector-curvature="0"
         id="rect2710"
         d="m 37,302.64999 h 38 v 32 H 37 Z"
         style="opacity:1;vector-effect:none;fill:url(#linearGradient2718);fill-opacity:1;stroke:none;stroke-width:6;stroke-linecap:round;stroke-linejoin:round;stroke-miterlimit:4;stroke-dasharray:none;stroke-dashoffset:0;stroke-opacity:1" />
      <g
         style="fill:#cccccc;fill-opacity:1"
         inkscape:label="Capa 1"
         id="layer1-3-3-0"
         transform="matrix(5.1968504,0,0,5.1968504,37,-1206.8145)">
        <path
           inkscape:connector-curvature="0"
           id="rect1107-3"
           transform="matrix(0.19242424,0,0,0.19242424,-0.38484847,288.14847)"
           d="m 28,19 v 2 h -4 v 14 h 12 v 3 h -2 v -2 h -2 v 2 h -2 v -2 h -2 v 2 h -2 v -2 h -2 v 2 2 1 h 2 v -1 h 10 v 1 h -2 v 2 h 4 V 41 34 33 H 26 V 31 H 38 V 21 h -7 v -2 z m -2,4 h 10 v 2 H 26 Z m 0,4 h 10 v 2 H 26 Z"
           style="opacity:1;fill:#0e4d45;fill-opacity:1;stroke:none;stroke-width:4;stroke-linecap:round;stroke-linejoin:round;stroke-miterlimit:4;stroke-dasharray:none;stroke-opacity:1" />
      </g>
      <g
         transform="matrix(1.4666667,0,0,1.4666667,27.266666,-121.37001)"
         id="layer1-6-5-2-5-8"
         inkscape:label="Capa 1"
         style="fill:#1a6cb2;fill-opacity:1">
        <path
           style="fill:#0e4d45;fill-opacity:1;stroke:none;stroke-width:1px;stroke-linecap:butt;stroke-linejoin:miter;stroke-opacity:1"
           d="m 21,15 -8,16.999996 5,2 L 20,29 h 8 l 2,5 5,-2 -8,-17 z m 3,4 3,6 h -6 z"
           transform="matrix(0.68181817,0,0,0.68181817,-0.86363596,282.28636)"
           id="path1022-9-0-4"
           inkscape:connector-curvature="0"
           sodipodi:nodetypes="ccccccccccccc" />
      </g>
      <g
         style="fill:#666666;fill-opacity:1"
         inkscape:label="Capa 1"
         id="layer1-3-3-1-0"
         transform="matrix(5.1968504,0,0,5.1968504,37,-1207.8145)">
        <path
           inkscape:connector-curvature="0"
           id="rect1107-2-4"
           transform="matrix(0.19242424,0,0,0.19242424,-0.38484847,288.14847)"
           d="m 28,19 v 2 h -4 v 14 h 12 v 3 h -2 v -2 h -2 v 2 h -2 v -2 h -2 v 2 h -2 v -2 h -2 v 2 2 1 h 2 v -1 h 10 v 1 h -2 v 2 h 4 V 41 34 33 H 26 V 31 H 38 V 21 h -7 v -2 z m -2,4 h 10 v 2 H 26 Z m 0,4 h 10 v 2 H 26 Z"
           style="opacity:1;fill:#ffffff;fill-opacity:1;stroke:none;stroke-width:4;stroke-linecap:round;stroke-linejoin:round;stroke-miterlimit:4;stroke-dasharray:none;stroke-opacity:1" />
      </g>
      <g
         transform="matrix(1.4666667,0,0,1.4666667,27.266666,-122.37001)"
         id="layer1-6-5-9-8"
         inkscape:label="Capa 1">
        <path
           style="fill:#ffffff;fill-opacity:1;stroke:none;stroke-width:1px;stroke-linecap:butt;stroke-linejoin:miter;stroke-opacity:1"
           d="m 21,15 -8,16.999996 5,2 L 20,29 h 8 l 2,5 5,-2 -8,-17 z m 3,4 3,6 h -6 z"
           transform="matrix(0.68181817,0,0,0.68181817,-0.86363596,282.28636)"
           id="path1022-6-1"
           inkscape:connector-curvature="0"
           sodipodi:nodetypes="ccccccccccccc" />
      </g>
    </g>
  </g>
</svg>
