<?xml version="1.0" encoding="UTF-8" standalone="no"?>
<!-- Created with Inkscape (http://www.inkscape.org/) -->

<svg
   xmlns:dc="http://purl.org/dc/elements/1.1/"
   xmlns:cc="http://creativecommons.org/ns#"
   xmlns:rdf="http://www.w3.org/1999/02/22-rdf-syntax-ns#"
   xmlns:svg="http://www.w3.org/2000/svg"
   xmlns="http://www.w3.org/2000/svg"
   xmlns:xlink="http://www.w3.org/1999/xlink"
   xmlns:sodipodi="http://sodipodi.sourceforge.net/DTD/sodipodi-0.dtd"
   xmlns:inkscape="http://www.inkscape.org/namespaces/inkscape"
   width="32"
   height="32"
   viewBox="0 0 32 32"
   version="1.1"
   id="svg8"
   inkscape:version="0.91 r13725"
   sodipodi:docname="applications-education.svg">
  <title
     id="title7895">Antu icon Theme</title>
  <defs
     id="defs2">
    <linearGradient
       inkscape:collect="always"
       id="linearGradient4331">
      <stop
         style="stop-color:#157367;stop-opacity:1;"
         offset="0"
         id="stop4333" />
      <stop
         style="stop-color:#1a8c7e;stop-opacity:1"
         offset="1"
         id="stop4335" />
    </linearGradient>
    <linearGradient
       inkscape:collect="always"
       id="linearGradient4323">
      <stop
         style="stop-color:#c19e72;stop-opacity:1;"
         offset="0"
         id="stop4325" />
      <stop
         style="stop-color:#d6af7f;stop-opacity:1"
         offset="1"
         id="stop4327" />
    </linearGradient>
    <linearGradient
       inkscape:collect="always"
       xlink:href="#linearGradient4323"
       id="linearGradient4329"
       x1="-9"
       y1="318.64999"
       x2="-9"
       y2="294.64999"
       gradientUnits="userSpaceOnUse" />
    <linearGradient
       inkscape:collect="always"
       xlink:href="#linearGradient4331"
       id="linearGradient4337"
       x1="-9"
       y1="315.64999"
       x2="-9"
       y2="297.64999"
       gradientUnits="userSpaceOnUse" />
  </defs>
  <sodipodi:namedview
     id="base"
     pagecolor="#ffffff"
     bordercolor="#666666"
     borderopacity="1.0"
     inkscape:pageopacity="0.0"
     inkscape:pageshadow="2"
     inkscape:zoom="1"
     inkscape:cx="-108.34728"
     inkscape:cy="112.63777"
     inkscape:document-units="px"
     inkscape:current-layer="layer1"
     showgrid="true"
     units="px"
     inkscape:window-width="1360"
     inkscape:window-height="697"
     inkscape:window-x="0"
     inkscape:window-y="0"
     inkscape:window-maximized="1"
     objecttolerance="10"
     gridtolerance="10"
     guidetolerance="10"
     inkscape:snap-bbox="true"
     inkscape:bbox-paths="true"
     inkscape:bbox-nodes="true"
     inkscape:snap-bbox-edge-midpoints="true"
     inkscape:snap-bbox-midpoints="true"
     inkscape:snap-intersection-paths="true"
     inkscape:object-nodes="true"
     inkscape:object-paths="true">
    <inkscape:grid
       type="xygrid"
       id="grid7897"
       empspacing="4" />
  </sodipodi:namedview>
  <metadata
     id="metadata5">
    <rdf:RDF>
      <cc:Work
         rdf:about="">
        <dc:format>image/svg+xml</dc:format>
        <dc:type
           rdf:resource="http://purl.org/dc/dcmitype/StillImage" />
        <dc:title>Antu icon Theme</dc:title>
      </cc:Work>
    </rdf:RDF>
  </metadata>
  <g
     inkscape:label="Capa 1"
     inkscape:groupmode="layer"
     id="layer1"
     transform="translate(0,-282.64999)">
    <g
       id="g2369"
       transform="translate(25,-8)">
      <path
         id="path12329"
         d="m -24,292.64999 c -0.55401,0 -1,0.446 -1,1 v 26 c 0,0.554 0.44599,1 1,1 H 6 c 0.55401,0 1,-0.446 1,-1 v -26 c 0,-0.554 -0.44599,-1 -1,-1 h -14 -3 z"
         style="fill:#80684b;fill-opacity:1;stroke-width:1.00000012"
         inkscape:connector-curvature="0" />
      <path
         style="opacity:1;fill:url(#linearGradient4329);fill-opacity:1;stroke:none;stroke-width:2;stroke-linecap:round;stroke-linejoin:round;stroke-miterlimit:4;stroke-dasharray:none;stroke-dashoffset:0;stroke-opacity:1"
         d="m -24,293.64999 30,0 0,26 -30,0 z"
         id="rect4209" />
      <path
         style="opacity:1;fill:#80684b;fill-opacity:1;stroke:none;stroke-width:2;stroke-linecap:round;stroke-linejoin:round;stroke-miterlimit:4;stroke-dasharray:none;stroke-dashoffset:0;stroke-opacity:1"
         d="m -22,295.64999 26,0 0,22 -26,0 z"
         id="rect4211" />
      <path
         style="opacity:1;fill:url(#linearGradient4337);fill-opacity:1;stroke:none;stroke-width:2;stroke-linecap:round;stroke-linejoin:round;stroke-miterlimit:4;stroke-dasharray:none;stroke-dashoffset:0;stroke-opacity:1"
         d="m -21,296.64999 24,0 0,20 -24,0 z"
         id="rect4213" />
      <path
         style="opacity:1;fill:#0e4d45;fill-opacity:1;stroke:none;stroke-width:2;stroke-linecap:round;stroke-linejoin:round;stroke-miterlimit:4;stroke-dasharray:none;stroke-dashoffset:0;stroke-opacity:1"
         d="m -4.000002,314.64999 4.0000039669533,0 C 0.55400088,314.64999 1,315.09599 1,315.64999 c 0,0.554 -0.44599912,1 -0.9999980330467,1 l -4.0000039669533,0 c -0.5539989,0 -0.999998,-0.446 -0.999998,-1 0,-0.554 0.4459991,-1 0.999998,-1 z"
         id="rect4215-2" />
      <path
         style="opacity:1;fill:#ffffff;fill-opacity:1;stroke:none;stroke-width:2;stroke-linecap:round;stroke-linejoin:round;stroke-miterlimit:4;stroke-dasharray:none;stroke-dashoffset:0;stroke-opacity:1"
         d="m -4.000002,313.64999 4.0000039669533,0 C 0.55400088,313.64999 1,314.09599 1,314.64999 c 0,0.554 -0.44599912,1 -0.9999980330467,1 l -4.0000039669533,0 c -0.5539989,0 -0.999998,-0.446 -0.999998,-1 0,-0.554 0.4459991,-1 0.999998,-1 z"
         id="rect4215" />
      <path
         inkscape:connector-curvature="0"
         style="opacity:1;fill:#0e4d45;fill-opacity:1;stroke:none;stroke-width:2;stroke-linecap:round;stroke-linejoin:round;stroke-miterlimit:4;stroke-dasharray:none;stroke-dashoffset:0;stroke-opacity:1"
         d="m -9.5,302.64996 c -1.385,0 -2.5,1.115 -2.5,2.5 0,1.385 1.115,2.5 2.5,2.5 1.385,0 2.5,-1.115 2.5,-2.5 0,-1.385 -1.115,-2.5 -2.5,-2.5 z m -3,6 c -0.831001,0 -1.5,0.669 -1.5,1.5 0,0.005 0.0019,0.009 0.002,0.0137 l -0.002,0 0,1.48633 1.5,0 6,0 1.5,0 0,-1.48633 -0.002,0 c 9e-5,-0.005 0.002,-0.009 0.002,-0.0137 0,-0.831 -0.668999,-1.5 -1.5,-1.5 l -6,0 z"
         id="rect4251-2" />
      <path
         style="opacity:1;fill:#ffffff;fill-opacity:1;stroke:none;stroke-width:2;stroke-linecap:round;stroke-linejoin:round;stroke-miterlimit:4;stroke-dasharray:none;stroke-dashoffset:0;stroke-opacity:1"
         d="M 15.5 11 C 14.115 11 13 12.115 13 13.5 C 13 14.885 14.115 16 15.5 16 C 16.885 16 18 14.885 18 13.5 C 18 12.115 16.885 11 15.5 11 z M 12.5 17 C 11.668999 17 11 17.668999 11 18.5 C 11 18.50471 11.00191 18.508972 11.001953 18.513672 L 11 18.513672 L 11 20 L 12.5 20 L 18.5 20 L 20 20 L 20 18.513672 L 19.998047 18.513672 C 19.99809 18.508972 20 18.50471 20 18.5 C 20 17.668999 19.331001 17 18.5 17 L 12.5 17 z "
         transform="translate(-25,290.64999)"
         id="rect4251" />
    </g>
  </g>
</svg>
