<?xml version="1.0" encoding="UTF-8" standalone="no"?>
<!-- Created with Inkscape (http://www.inkscape.org/) -->

<svg
   xmlns:dc="http://purl.org/dc/elements/1.1/"
   xmlns:cc="http://creativecommons.org/ns#"
   xmlns:rdf="http://www.w3.org/1999/02/22-rdf-syntax-ns#"
   xmlns:svg="http://www.w3.org/2000/svg"
   xmlns="http://www.w3.org/2000/svg"
   xmlns:xlink="http://www.w3.org/1999/xlink"
   xmlns:sodipodi="http://sodipodi.sourceforge.net/DTD/sodipodi-0.dtd"
   xmlns:inkscape="http://www.inkscape.org/namespaces/inkscape"
   width="32"
   height="32"
   viewBox="0 0 32 32"
   version="1.1"
   id="svg8"
   inkscape:version="0.92.3 (2405546, 2018-03-11)"
   sodipodi:docname="drive-harddisk-root.svg">
  <title
     id="title7895">Antu icon Theme</title>
  <defs
     id="defs2">
    <style
       id="current-color-scheme"
       type="text/css">
      .ColorScheme-Text {
        color:#122036;
      }
      </style>
    <linearGradient
       inkscape:collect="always"
       xlink:href="#linearGradient923"
       id="linearGradient925"
       x1="3"
       y1="319.64999"
       x2="3"
       y2="316.64999"
       gradientUnits="userSpaceOnUse"
       gradientTransform="translate(13,-289.64999)" />
    <linearGradient
       inkscape:collect="always"
       id="linearGradient923">
      <stop
         style="stop-color:#323232;stop-opacity:1"
         offset="0"
         id="stop919" />
      <stop
         style="stop-color:#484849;stop-opacity:1"
         offset="1"
         id="stop921" />
    </linearGradient>
    <linearGradient
       inkscape:collect="always"
       xlink:href="#linearGradient914"
       id="linearGradient916"
       x1="3"
       y1="313.64999"
       x2="3"
       y2="293.64999"
       gradientUnits="userSpaceOnUse"
       gradientTransform="translate(13,-289.64999)" />
    <linearGradient
       inkscape:collect="always"
       id="linearGradient914">
      <stop
         style="stop-color:#dadbdb;stop-opacity:1"
         offset="0"
         id="stop910" />
      <stop
         style="stop-color:#e5e6e6;stop-opacity:1"
         offset="1"
         id="stop912" />
    </linearGradient>
    <linearGradient
       inkscape:collect="always"
       id="linearGradient4627">
      <stop
         style="stop-color:#ffc900;stop-opacity:1"
         offset="0"
         id="stop4623" />
      <stop
         style="stop-color:#ffe200;stop-opacity:1"
         offset="1"
         id="stop4625" />
    </linearGradient>
    <linearGradient
       inkscape:collect="always"
       xlink:href="#linearGradient4627"
       id="linearGradient928"
       x1="16"
       y1="30"
       x2="16"
       y2="29"
       gradientUnits="userSpaceOnUse" />
    <linearGradient
       id="linearGradient4619"
       inkscape:collect="always">
      <stop
         id="stop4615"
         offset="0"
         style="stop-color:#67d924;stop-opacity:1" />
      <stop
         id="stop4617"
         offset="1"
         style="stop-color:#a3eb1e;stop-opacity:1" />
    </linearGradient>
    <linearGradient
       inkscape:collect="always"
       xlink:href="#linearGradient4619"
       id="linearGradient1004"
       x1="13"
       y1="318.64999"
       x2="13"
       y2="317.64999"
       gradientUnits="userSpaceOnUse" />
    <style
       type="text/css"
       id="current-color-scheme-09">
      .ColorScheme-Text {
        color:#122036;
      }
      </style>
    <style
       id="current-color-scheme-5356"
       type="text/css">
      .ColorScheme-Text {
        color:#122036;
      }
      </style>
    <style
       type="text/css"
       id="current-color-scheme-5">
      .ColorScheme-Text {
        color:#122036;
      }
      </style>
    <style
       type="text/css"
       id="current-color-scheme-53">
      .ColorScheme-Text {
        color:#122036;
      }
      </style>
    <style
       type="text/css"
       id="current-color-scheme-535">
      .ColorScheme-Text {
        color:#122036;
      }
      </style>
    <style
       id="current-color-scheme-5-6"
       type="text/css">
      .ColorScheme-Text {
        color:#122036;
      }
      </style>
    <style
       type="text/css"
       id="current-color-scheme-70">
      .ColorScheme-Text {
        color:#122036;
      }
      </style>
    <style
       id="current-color-scheme-5-9"
       type="text/css">
      .ColorScheme-Text {
        color:#122036;
      }
      </style>
    <style
       id="current-color-scheme-2"
       type="text/css">
      .ColorScheme-Text {
        color:#122036;
      }
      </style>
    <style
       id="current-color-scheme-1"
       type="text/css">
      .ColorScheme-Text {
        color:#122036;
      }
      </style>
    <style
       type="text/css"
       id="current-color-scheme-10">
      .ColorScheme-Text {
        color:#122036;
      }
      </style>
    <style
       id="current-color-scheme-0"
       type="text/css">
      .ColorScheme-Text {
        color:#122036;
      }
      </style>
    <style
       id="current-color-scheme-26"
       type="text/css">
      .ColorScheme-Text {
        color:#122036;
      }
      </style>
    <style
       id="current-color-scheme-7"
       type="text/css">
      .ColorScheme-Text {
        color:#122036;
      }
      </style>
  </defs>
  <sodipodi:namedview
     id="base"
     pagecolor="#ffffff"
     bordercolor="#666666"
     borderopacity="1.0"
     inkscape:pageopacity="0.0"
     inkscape:pageshadow="2"
     inkscape:zoom="7.9999995"
     inkscape:cx="41.914383"
     inkscape:cy="16.694699"
     inkscape:document-units="px"
     inkscape:current-layer="g1645"
     showgrid="true"
     units="px"
     inkscape:window-width="1874"
     inkscape:window-height="1141"
     inkscape:window-x="46"
     inkscape:window-y="30"
     inkscape:window-maximized="1"
     objecttolerance="10"
     gridtolerance="10"
     guidetolerance="10">
    <inkscape:grid
       type="xygrid"
       id="grid7897"
       empspacing="4" />
  </sodipodi:namedview>
  <metadata
     id="metadata5">
    <rdf:RDF>
      <cc:Work
         rdf:about="">
        <dc:format>image/svg+xml</dc:format>
        <dc:type
           rdf:resource="http://purl.org/dc/dcmitype/StillImage" />
        <dc:title>Antu icon Theme</dc:title>
      </cc:Work>
    </rdf:RDF>
  </metadata>
  <g
     inkscape:label="Capa 1"
     inkscape:groupmode="layer"
     id="layer1"
     transform="translate(0,-282.64999)">
    <g
       id="g1645"
       transform="translate(13,-7)">
      <g
         transform="translate(31.000001,25.999995)"
         id="layer1-2"
         inkscape:label="Capa 1" />
      <g
         id="g1176">
        <g
           id="g894"
           transform="translate(-57.000003,-96.000003)">
          <g
             id="g935"
             transform="translate(57.000003,96.000003)">
            <path
               inkscape:connector-curvature="0"
               style="fill:#181818;fill-opacity:1;stroke:none;stroke-width:2;stroke-linecap:round;stroke-linejoin:round;stroke-miterlimit:4;stroke-dasharray:none;stroke-dashoffset:0;stroke-opacity:1"
               d="m -9,311.64999 h 24 c 1.108,0 2,0.892 2,2 v 5 c 0,1.108 -0.892,2 -2,2 H -9 c -1.108,0 -2,-0.892 -2,-2 v -5 c 0,-1.108 0.892,-2 2,-2 z"
               id="rect842" />
            <path
               style="fill:url(#linearGradient925);fill-opacity:1;stroke:none;stroke-width:2;stroke-linecap:round;stroke-linejoin:round;stroke-miterlimit:4;stroke-dasharray:none;stroke-dashoffset:0;stroke-opacity:1"
               d="M 4 23 C 3.446 23 3 23.446 3 24 L 3 29 C 3 29.554 3.446 30 4 30 L 5 30 L 5 28 L 24 28 L 24 30 L 28 30 C 28.554 30 29 29.554 29 29 L 29 24 C 29 23.446 28.554 23 28 23 L 4 23 z "
               id="path1024"
               transform="translate(-13,289.64999)" />
            <path
               inkscape:connector-curvature="0"
               style="fill:#a5a6a6;fill-opacity:1;stroke:none;stroke-width:2;stroke-linecap:round;stroke-linejoin:round;stroke-miterlimit:4;stroke-dasharray:none;stroke-dashoffset:0;stroke-opacity:1"
               d="m -9,290.64999 h 24 c 1.108,0 2,0.892 2,2 v 22 c 0,1.108 -0.892,2 -2,2 H -9 c -1.108,0 -2,-0.892 -2,-2 v -22 c 0,-1.108 0.892,-2 2,-2 z"
               id="rect838" />
            <path
               style="fill:url(#linearGradient916);fill-opacity:1;stroke:none;stroke-width:2;stroke-linecap:round;stroke-linejoin:round;stroke-miterlimit:4;stroke-dasharray:none;stroke-dashoffset:0;stroke-opacity:1"
               d="M 4,2 C 3.446,2 3,2.446 3,3 v 22 c 0,0.554 0.446,1 1,1 h 24 c 0.554,0 1,-0.446 1,-1 V 3 C 29,2.446 28.554,2 28,2 Z M 5,3 C 5.554,3 6,3.446 6,4 6,4.554 5.554,5 5,5 4.446,5 4,4.554 4,4 4,3.446 4.446,3 5,3 Z m 22,0 c 0.554,0 1,0.446 1,1 0,0.554 -0.446,1 -1,1 C 26.446,5 26,4.554 26,4 26,3.446 26.446,3 27,3 Z M 5,12 c 0.554,0 1,0.446 1,1 0,0.554 -0.446,1 -1,1 -0.554,0 -1,-0.446 -1,-1 0,-0.554 0.446,-1 1,-1 z m 22,0 c 0.554,0 1,0.446 1,1 0,0.554 -0.446,1 -1,1 -0.554,0 -1,-0.446 -1,-1 0,-0.554 0.446,-1 1,-1 z M 5,23 c 0.554,0 1,0.446 1,1 0,0.554 -0.446,1 -1,1 -0.554,0 -1,-0.446 -1,-1 0,-0.554 0.446,-1 1,-1 z m 22,0 c 0.554,0 1,0.446 1,1 0,0.554 -0.446,1 -1,1 -0.554,0 -1,-0.446 -1,-1 0,-0.554 0.446,-1 1,-1 z"
               transform="translate(-13,289.64999)"
               id="rect840"
               inkscape:connector-curvature="0"
               sodipodi:nodetypes="sssssssssssssssssssssssssssssssssssssss" />
          </g>
          <path
             id="rect1082"
             d="m 52.000003,390.64999 h 12 v 5 h -12 z"
             style="opacity:0.98000004;fill:#181818;fill-opacity:1;stroke:none;stroke-width:2;stroke-linecap:round;stroke-linejoin:round;stroke-miterlimit:4;stroke-dasharray:none;stroke-dashoffset:0;stroke-opacity:1"
             inkscape:connector-curvature="0" />
          <path
             id="rect1084"
             d="m 53.000003,391.64999 h 10 v 3 h -10 z"
             style="opacity:0.98000004;fill:#414141;fill-opacity:1;stroke:none;stroke-width:2;stroke-linecap:round;stroke-linejoin:round;stroke-miterlimit:4;stroke-dasharray:none;stroke-dashoffset:0;stroke-opacity:1"
             inkscape:connector-curvature="0" />
          <path
             id="rect1098"
             d="m 54.000003,392.64999 h 2 v 1 h -2 z"
             style="opacity:0.98000004;fill:#fdffff;fill-opacity:1;stroke:none;stroke-width:2;stroke-linecap:round;stroke-linejoin:round;stroke-miterlimit:4;stroke-dasharray:none;stroke-dashoffset:0;stroke-opacity:1"
             inkscape:connector-curvature="0" />
          <path
             id="rect1100"
             d="m 57.000003,392.64999 h 1 v 1 h -1 z"
             style="opacity:0.98000004;fill:#fdffff;fill-opacity:1;stroke:none;stroke-width:2;stroke-linecap:round;stroke-linejoin:round;stroke-miterlimit:4;stroke-dasharray:none;stroke-dashoffset:0;stroke-opacity:1"
             inkscape:connector-curvature="0" />
          <path
             id="rect1102"
             d="m 59.000003,392.64999 h 1 v 1 h -1 z"
             style="opacity:0.98000004;fill:#fdffff;fill-opacity:1;stroke:none;stroke-width:2;stroke-linecap:round;stroke-linejoin:round;stroke-miterlimit:4;stroke-dasharray:none;stroke-dashoffset:0;stroke-opacity:1"
             inkscape:connector-curvature="0" />
        </g>
        <path
           style="opacity:1;fill:url(#linearGradient928);fill-opacity:1;stroke:none;stroke-width:2;stroke-linecap:round;stroke-linejoin:round;stroke-miterlimit:4;stroke-dasharray:none;stroke-opacity:1"
           d="M 6 29 L 6 30 L 8 30 L 8 29 L 6 29 z M 9 29 L 9 30 L 11 30 L 11 29 L 9 29 z M 12 29 L 12 30 L 14 30 L 14 29 L 12 29 z M 15 29 L 15 30 L 17 30 L 17 29 L 15 29 z M 18 29 L 18 30 L 20 30 L 20 29 L 18 29 z M 21 29 L 21 30 L 23 30 L 23 29 L 21 29 z "
           transform="translate(-13,289.64999)"
           id="rect848" />
        <path
           style="opacity:1;fill:url(#linearGradient1004);fill-opacity:1;stroke:none;stroke-width:2;stroke-linecap:round;stroke-linejoin:round;stroke-miterlimit:4;stroke-dasharray:none;stroke-opacity:1"
           d="m 12,317.64999 h 2 v 1 h -2 z"
           id="rect875" />
        <g
           id="g940"
           transform="translate(-6,-2)">
          <path
             id="rect843"
             d="m 1,302.64999 h 16 v 10 H 1 Z"
             style="opacity:0.98999999;vector-effect:none;fill:#8b8c8c;fill-opacity:1;stroke:none;stroke-width:2;stroke-linecap:round;stroke-linejoin:round;stroke-miterlimit:4;stroke-dasharray:none;stroke-dashoffset:0;stroke-opacity:1"
             inkscape:connector-curvature="0" />
        </g>
        <path
           inkscape:connector-curvature="0"
           style="opacity:0.98999999;vector-effect:none;fill:#d8344b;fill-opacity:1;stroke:none;stroke-width:2;stroke-linecap:round;stroke-linejoin:round;stroke-miterlimit:4;stroke-dasharray:none;stroke-dashoffset:0;stroke-opacity:1"
           d="m -4,301.64999 h 14 v 8 H -4 Z"
           id="rect845-3-2" />
        <path
           sodipodi:nodetypes="ccccc"
           id="rect857-6-9"
           d="M -3,302.64999 H 9 v 6 H -3 Z"
           style="opacity:0.98999999;vector-effect:none;fill:#fe7588;fill-opacity:1;stroke:none;stroke-width:2;stroke-linecap:round;stroke-linejoin:round;stroke-miterlimit:4;stroke-dasharray:none;stroke-dashoffset:0;stroke-opacity:1"
           inkscape:connector-curvature="0" />
        <path
           sodipodi:nodetypes="ccccccccccccccccccccccccccccccccccc"
           id="rect847-1-3"
           d="m 4,303.64999 v 1 h 4 v -1 z m -6,0 v 1 h 1 v -1 z m 2,0 v 1 h 2 v -1 z m 5,2 v 1 h 3 v -1 z m -7,0 v 1 h 2 v -1 z m 3,0 v 1 h 1 v -1 z m 2,0 v 1 h 1 v -1 z"
           style="opacity:0.98999999;vector-effect:none;fill:#f9fcfc;fill-opacity:1;stroke:none;stroke-width:2;stroke-linecap:round;stroke-linejoin:round;stroke-miterlimit:4;stroke-dasharray:none;stroke-dashoffset:0;stroke-opacity:1"
           inkscape:connector-curvature="0" />
      </g>
    </g>
  </g>
</svg>
