<?xml version="1.0" encoding="UTF-8" standalone="no"?>
<!-- Created with Inkscape (http://www.inkscape.org/) -->

<svg
   width="32"
   height="32"
   viewBox="0 0 8.4666665 8.4666666"
   version="1.1"
   id="svg6407"
   inkscape:version="1.2 (dc2aedaf03, 2022-05-15)"
   sodipodi:docname="akregator.svg"
   xml:space="preserve"
   xmlns:inkscape="http://www.inkscape.org/namespaces/inkscape"
   xmlns:sodipodi="http://sodipodi.sourceforge.net/DTD/sodipodi-0.dtd"
   xmlns:xlink="http://www.w3.org/1999/xlink"
   xmlns="http://www.w3.org/2000/svg"
   xmlns:svg="http://www.w3.org/2000/svg"><sodipodi:namedview
     id="namedview6409"
     pagecolor="#ffffff"
     bordercolor="#000000"
     borderopacity="0.25"
     inkscape:showpageshadow="false"
     inkscape:pageopacity="0.0"
     inkscape:pagecheckerboard="0"
     inkscape:deskcolor="#d1d1d1"
     inkscape:document-units="px"
     showgrid="true"
     inkscape:zoom="26.910887"
     inkscape:cx="23.4106"
     inkscape:cy="17.818067"
     inkscape:window-width="2160"
     inkscape:window-height="1337"
     inkscape:window-x="0"
     inkscape:window-y="0"
     inkscape:window-maximized="1"
     inkscape:current-layer="layer1"
     showguides="false"><inkscape:grid
       type="xygrid"
       id="grid9069" /></sodipodi:namedview><defs
     id="defs6404"><linearGradient
       inkscape:collect="always"
       id="linearGradient6278"><stop
         style="stop-color:#ff6a3e;stop-opacity:1;"
         offset="0"
         id="stop6274" /><stop
         style="stop-color:#ff9065;stop-opacity:1;"
         offset="1"
         id="stop6276" /></linearGradient><style
       type="text/css"
       id="current-color-scheme">
      .ColorScheme-Text {
        color:#122036;
      }
      </style><style
       type="text/css"
       id="current-color-scheme-2">
      .ColorScheme-Text {
        color:#122036;
      }
      </style><style
       type="text/css"
       id="current-color-scheme-6">
      .ColorScheme-Text {
        color:#122036;
      }
      </style><style
       id="current-color-scheme-53"
       type="text/css">
      .ColorScheme-Text {
        color:#122036;
      }
      </style><style
       type="text/css"
       id="current-color-scheme-5">
      .ColorScheme-Text {
        color:#122036;
      }
      </style><style
       type="text/css"
       id="current-color-scheme-2-7">
      .ColorScheme-Text {
        color:#122036;
      }
      </style><style
       type="text/css"
       id="current-color-scheme-1">
      .ColorScheme-Text {
        color:#122036;
      }
      </style><style
       id="current-color-scheme-10"
       type="text/css">
      .ColorScheme-Text {
        color:#122036;
      }
      </style><style
       type="text/css"
       id="current-color-scheme-0">
      .ColorScheme-Text {
        color:#122036;
      }
      </style><style
       type="text/css"
       id="current-color-scheme-26">
      .ColorScheme-Text {
        color:#122036;
      }
      </style><style
       id="current-color-scheme-7"
       type="text/css">
      .ColorScheme-Text {
        color:#122036;
      }
      </style><linearGradient
       inkscape:collect="always"
       xlink:href="#linearGradient6278"
       id="linearGradient6280"
       x1="4.7624998"
       y1="6.8791666"
       x2="4.7624998"
       y2="0.52916664"
       gradientUnits="userSpaceOnUse" /></defs><g
     inkscape:label="Capa 1"
     inkscape:groupmode="layer"
     id="layer1"><path
       id="rect902"
       style="fill:#dd4d25;fill-opacity:1;stroke-width:0.577273;stroke-linecap:round;stroke-linejoin:round;stop-color:#000000"
       d="M 2.1481893 0.26458333 C 1.6908626 0.26458333 1.3229166 0.63252933 1.3229166 1.0898559 L 1.3229166 5.1170003 C 0.70527286 5.3340705 0.26458333 5.9209118 0.26458333 6.6145832 C 0.26458333 7.4940573 0.9726092 8.2020832 1.8520833 8.2020832 C 2.5457547 8.2020832 3.132596 7.7613937 3.3496663 7.1437499 L 7.3768106 7.1437499 C 7.8341372 7.1437499 8.2020832 6.7758039 8.2020832 6.3184773 L 8.2020832 1.0898559 C 8.2020832 0.63252933 7.8341372 0.26458333 7.3768106 0.26458333 L 2.1481893 0.26458333 z " /><path
       id="rect961-3"
       style="fill:url(#linearGradient6280);fill-opacity:1;stroke-width:0.500172;stroke-linecap:round;stroke-linejoin:round;stop-color:#000000"
       d="M 2.139921 0.52916666 C 1.834017 0.52916666 1.5875 0.7756837 1.5875 1.0815877 L 1.5875 5.3180216 C 0.98229447 5.4399863 0.52916666 5.9723896 0.52916666 6.6145832 C 0.52916666 7.3474783 1.1191882 7.9374999 1.8520833 7.9374999 C 2.4942769 7.9374999 3.0266802 7.4843721 3.148645 6.8791666 L 7.3850788 6.8791666 C 7.6909828 6.8791666 7.9374999 6.6326495 7.9374999 6.3267455 L 7.9374999 1.0815877 C 7.9374999 0.7756837 7.6909828 0.52916666 7.3850788 0.52916666 L 2.139921 0.52916666 z " /><path
       id="path2562"
       style="fill:#dd4d25;fill-opacity:1;stroke-width:0.264583"
       d="m 1.8520831,1.5875001 v 1.0583333 c 2.3381204,0 4.2333334,1.8952127 4.2333334,4.2333332 h 1.058333 c 0,-2.9236429 -2.369082,-5.2916665 -5.2916664,-5.2916665 z m 0,2.1166665 V 4.7625 c 1.1689279,0 2.1166666,0.9477387 2.1166666,2.1166666 h 1.0583338 c 0,-1.7533919 -1.4216085,-3.175 -3.1750004,-3.175 z m 0,2.1166667 c -0.5844641,0 -1.05833341,0.4738694 -1.05833341,1.0583333 0,0.584464 0.47386931,1.0583333 1.05833341,1.0583333 0.5844639,0 1.0583333,-0.4738693 1.0583333,-1.0583333 0,-0.5844639 -0.4738694,-1.0583333 -1.0583333,-1.0583333 z" /><path
       fill="#ffffff"
       d="M 1.8520833,1.3229166 V 2.38125 c 2.3381228,0 4.2333332,1.8952104 4.2333332,4.2333332 h 1.0583334 c 0,-2.9236458 -2.3690792,-5.2916666 -5.2916666,-5.2916666 m 0,2.1166667 v 1.0583333 c 1.1689291,0 2.1166666,0.9477375 2.1166666,2.1166666 h 1.0583333 c 0,-1.7533937 -1.4216062,-3.1749999 -3.1749999,-3.1749999 m 0,2.1166666 c -0.5844646,0 -1.05833331,0.4738688 -1.05833331,1.0583333 0,0.5844646 0.47386871,1.0583335 1.05833331,1.0583335 0.5844645,0 1.0583333,-0.4738689 1.0583333,-1.0583335 0,-0.5844645 -0.4738688,-1.0583333 -1.0583333,-1.0583333"
       id="path3968-3"
       style="stroke-width:0.264583;fill:#fff3f0;fill-opacity:1" /></g></svg>
