<?xml version="1.0" encoding="UTF-8" standalone="no"?>
<!-- Created with Inkscape (http://www.inkscape.org/) -->

<svg
   width="32"
   height="32"
   viewBox="0 0 8.4666665 8.4666666"
   version="1.1"
   id="svg6407"
   inkscape:version="1.2 (dc2aedaf03, 2022-05-15)"
   sodipodi:docname="Anydesk.svg"
   xmlns:inkscape="http://www.inkscape.org/namespaces/inkscape"
   xmlns:sodipodi="http://sodipodi.sourceforge.net/DTD/sodipodi-0.dtd"
   xmlns:xlink="http://www.w3.org/1999/xlink"
   xmlns="http://www.w3.org/2000/svg"
   xmlns:svg="http://www.w3.org/2000/svg">
  <sodipodi:namedview
     id="namedview6409"
     pagecolor="#ffffff"
     bordercolor="#000000"
     borderopacity="0.25"
     inkscape:showpageshadow="false"
     inkscape:pageopacity="0.0"
     inkscape:pagecheckerboard="0"
     inkscape:deskcolor="#d1d1d1"
     inkscape:document-units="px"
     showgrid="true"
     inkscape:zoom="53.821773"
     inkscape:cx="12.392754"
     inkscape:cy="18.663451"
     inkscape:window-width="2160"
     inkscape:window-height="1337"
     inkscape:window-x="0"
     inkscape:window-y="0"
     inkscape:window-maximized="1"
     inkscape:current-layer="layer1">
    <inkscape:grid
       type="xygrid"
       id="grid9069" />
  </sodipodi:namedview>
  <defs
     id="defs6404">
    <linearGradient
       inkscape:collect="always"
       xlink:href="#linearGradient4774"
       id="linearGradient4657"
       gradientUnits="userSpaceOnUse"
       gradientTransform="matrix(0.26458333,0,0,0.26458333,10.573356,-78.681948)"
       x1="-31.75"
       y1="324.27499"
       x2="-31.75"
       y2="296.27499" />
    <linearGradient
       inkscape:collect="always"
       id="linearGradient4774">
      <stop
         style="stop-color:#f41e3d;stop-opacity:1"
         offset="0"
         id="stop4770" />
      <stop
         style="stop-color:#fc3a56;stop-opacity:1"
         offset="1"
         id="stop4772" />
    </linearGradient>
  </defs>
  <g
     inkscape:label="Capa 1"
     inkscape:groupmode="layer"
     id="layer1">
    <g
       id="g9878"
       transform="translate(2.0604984,0.82168748)">
      <path
         inkscape:connector-curvature="0"
         style="fill:#cc0120;fill-opacity:1;stroke:none;stroke-width:1.05833;stroke-linecap:round;stroke-linejoin:round;stroke-miterlimit:4;stroke-dasharray:none;stroke-dashoffset:0;stroke-opacity:1"
         d="M -0.73758165,-0.55710409 H 5.0832516 c 0.5863167,0 1.0583333,0.47201666 1.0583333,1.05833332 V 6.3220625 c 0,0.5863166 -0.4720166,1.0583333 -1.0583333,1.0583333 h -5.82083325 c -0.58631665,0 -1.05833335,-0.4720167 -1.05833335,-1.0583333 V 0.50122923 c 0,-0.58631666 0.4720167,-1.05833332 1.05833335,-1.05833332 z"
         id="rect4556-1-8" />
      <path
         inkscape:connector-curvature="0"
         style="fill:url(#linearGradient4657);fill-opacity:1;stroke:none;stroke-width:1.05833;stroke-linecap:round;stroke-linejoin:round;stroke-miterlimit:4;stroke-dasharray:none;stroke-dashoffset:0;stroke-opacity:1"
         d="M -0.73758165,-0.29252076 H 5.0832516 c 0.4397375,0 0.79375,0.35401249 0.79375,0.79374999 V 6.3220625 c 0,0.4397375 -0.3540125,0.79375 -0.79375,0.79375 h -5.82083325 c -0.43973745,0 -0.79374995,-0.3540125 -0.79374995,-0.79375 V 0.50122923 c 0,-0.4397375 0.3540125,-0.79374999 0.79374995,-0.79374999 z"
         id="rect4556-9" />
    </g>
    <path
       id="path10497-6"
       style="fill:#cc0120;fill-opacity:1;stroke-width:0.529167;stroke-linecap:round;stroke-linejoin:round"
       d="M 3.175,2.6458333 1.3229166,4.4979166 3.175,6.3499999 5.0270833,4.4979166 Z m 2.1166666,0 L 4.7624999,3.1749999 6.0854166,4.4979166 4.7624999,5.8208332 5.2916666,6.3499999 7.1437499,4.4979166 Z" />
    <path
       id="path10497"
       style="fill:#ffebee;fill-opacity:1;stroke-width:0.529167;stroke-linecap:round;stroke-linejoin:round"
       d="M 3.175 2.38125 L 1.3229166 4.2333333 L 3.175 6.0854166 L 5.0270833 4.2333333 L 3.175 2.38125 z M 5.2916666 2.38125 L 4.7624999 2.9104166 L 6.0854166 4.2333333 L 4.7624999 5.5562499 L 5.2916666 6.0854166 L 7.1437499 4.2333333 L 5.2916666 2.38125 z " />
  </g>
</svg>
