<?xml version="1.0" encoding="UTF-8" standalone="no"?>
<!-- Created with Inkscape (http://www.inkscape.org/) -->

<svg
   xmlns:dc="http://purl.org/dc/elements/1.1/"
   xmlns:cc="http://creativecommons.org/ns#"
   xmlns:rdf="http://www.w3.org/1999/02/22-rdf-syntax-ns#"
   xmlns:svg="http://www.w3.org/2000/svg"
   xmlns="http://www.w3.org/2000/svg"
   xmlns:xlink="http://www.w3.org/1999/xlink"
   xmlns:sodipodi="http://sodipodi.sourceforge.net/DTD/sodipodi-0.dtd"
   xmlns:inkscape="http://www.inkscape.org/namespaces/inkscape"
   width="32"
   height="32"
   viewBox="0 0 8.4666665 8.4666669"
   version="1.1"
   id="svg8"
   inkscape:version="0.92.3 (2405546, 2018-03-11)"
   sodipodi:docname="atom-beta.svg">
  <defs
     id="defs2">
    <linearGradient
       inkscape:collect="always"
       xlink:href="#linearGradient4627"
       id="linearGradient885"
       x1="-29.3125"
       y1="309.39999"
       x2="-29.3125"
       y2="281.39999"
       gradientUnits="userSpaceOnUse" />
    <linearGradient
       inkscape:collect="always"
       id="linearGradient4627">
      <stop
         style="stop-color:#ffc900;stop-opacity:1"
         offset="0"
         id="stop4623" />
      <stop
         style="stop-color:#ffe200;stop-opacity:1"
         offset="1"
         id="stop4625" />
    </linearGradient>
  </defs>
  <sodipodi:namedview
     id="base"
     pagecolor="#ffffff"
     bordercolor="#666666"
     borderopacity="1.0"
     inkscape:pageopacity="0.0"
     inkscape:pageshadow="2"
     inkscape:zoom="0.99999995"
     inkscape:cx="87.834457"
     inkscape:cy="201.13942"
     inkscape:document-units="px"
     inkscape:current-layer="g1014"
     showgrid="true"
     units="px"
     inkscape:showpageshadow="false"
     inkscape:snap-bbox="true"
     inkscape:bbox-paths="true"
     inkscape:bbox-nodes="true"
     inkscape:snap-bbox-edge-midpoints="true"
     inkscape:snap-bbox-midpoints="true"
     inkscape:object-paths="true"
     inkscape:snap-intersection-paths="true"
     inkscape:window-width="1874"
     inkscape:window-height="1141"
     inkscape:window-x="46"
     inkscape:window-y="30"
     inkscape:window-maximized="1">
    <inkscape:grid
       type="xygrid"
       id="grid815" />
  </sodipodi:namedview>
  <metadata
     id="metadata5">
    <rdf:RDF>
      <cc:Work
         rdf:about="">
        <dc:format>image/svg+xml</dc:format>
        <dc:type
           rdf:resource="http://purl.org/dc/dcmitype/StillImage" />
        <dc:title />
      </cc:Work>
    </rdf:RDF>
  </metadata>
  <g
     inkscape:label="Capa 1"
     inkscape:groupmode="layer"
     id="layer1"
     transform="translate(0,-288.53333)">
    <g
       id="g1014"
       transform="matrix(0.26458333,0,0,0.26458333,11.988932,214.60875)">
      <path
         inkscape:connector-curvature="0"
         id="rect903-5-7"
         d="m -29.3125,280.39999 c 8.31,0 15,6.69 15,15 0,8.31 -6.69,15 -15,15 -8.31,0 -15,-6.69 -15,-15 0,-8.31 6.69,-15 15,-15 z"
         style="opacity:1;fill:#ff9600;fill-opacity:0.96078432;stroke:none;stroke-width:1.97685266;stroke-linecap:round;stroke-linejoin:round;stroke-miterlimit:4;stroke-dasharray:none;stroke-opacity:1" />
      <path
         inkscape:connector-curvature="0"
         id="rect903-2-4-9"
         d="m -29.3125,281.39999 c 7.756,0 14,6.244 14,14 0,7.756 -6.244,14 -14,14 -7.756,0 -14,-6.244 -14,-14 0,-7.756 6.244,-14 14,-14 z"
         style="opacity:1;fill:url(#linearGradient885);fill-opacity:1.0;stroke:none;stroke-width:1.84506249;stroke-linecap:round;stroke-linejoin:round;stroke-miterlimit:4;stroke-dasharray:none;stroke-opacity:1" />
      <path
         inkscape:connector-curvature="0"
         style="opacity:1;fill:#ff9600;fill-opacity:0.96078432;stroke:none;stroke-width:2;stroke-linecap:round;stroke-linejoin:round;stroke-miterlimit:4;stroke-dasharray:none;stroke-opacity:0.96078431;paint-order:fill markers stroke"
         d="m -31.746071,287.37019 c -1.27823,-0.0122 -2.370922,0.50934 -2.896484,1.44531 -0.600642,1.06967 -0.542957,2.33758 -0.265625,3.68946 0.0222,0.10821 0.05647,0.22224 0.08203,0.33203 -0.792656,0.15724 -1.542716,0.34384 -2.173828,0.59765 -0.964941,0.38806 -1.833033,0.89559 -2.148438,1.89844 -0.157702,0.50143 -0.09162,1.07877 0.136719,1.55469 0.228335,0.47592 0.587028,0.88056 1.054688,1.27539 a 1.0001,1.0001 0 1 0 1.289062,-1.52734 c -0.325068,-0.27445 -0.486658,-0.49998 -0.541016,-0.61328 -0.05436,-0.1133 -0.03311,-0.0838 -0.03125,-0.0898 0.0037,-0.0118 0.269821,-0.35443 0.986329,-0.64258 0.513063,-0.20634 1.228647,-0.3718 2.011718,-0.51367 0.08273,0.22537 0.171369,0.45232 0.263672,0.67968 -1.261347,2.05014 -2.188552,4.12494 -2.324219,5.91407 -0.08628,1.13788 0.251897,2.36538 1.281251,2.9707 1.029352,0.60531 2.337983,0.52331 4.001953,0.0137 a 1.0001,1.0001 0 1 0 -0.585938,-1.91211 c -1.408896,0.43154 -2.168094,0.31158 -2.402343,0.17383 -0.234252,-0.13775 -0.356598,-0.35766 -0.300782,-1.09375 0.06905,-0.91056 0.609291,-2.30812 1.384766,-3.79883 0.599574,1.14957 1.276776,2.27352 1.984375,3.29883 0.895623,1.29774 1.828689,2.42895 2.742187,3.2539 0.913499,0.82496 1.806567,1.50966 2.986328,1.2793 0.589882,-0.11518 1.109894,-0.57224 1.375,-1.10156 0.265109,-0.52932 0.372225,-1.13489 0.402344,-1.87305 0.06024,-1.47632 -0.217297,-3.51998 -0.90625,-6.41406 a 1.0001,1.0001 0 1 0 -1.945312,0.46289 c 0.666467,2.79962 0.89979,4.737 0.853515,5.87109 -0.02314,0.56705 -0.124146,0.92431 -0.191406,1.0586 -0.0084,0.0168 -0.0011,0.007 -0.0059,0.0176 0.0024,-0.0253 -0.530522,-0.15659 -1.226563,-0.78516 -0.734927,-0.66369 -1.604718,-1.69956 -2.4375,-2.90625 -0.891562,-1.29186 -1.739214,-2.78784 -2.410156,-4.24414 0.152063,-0.23239 0.286851,-0.4694 0.447266,-0.69727 0.125498,-0.17826 0.266335,-0.34055 0.396484,-0.51562 0.481719,-0.0174 0.96379,-0.0371 1.451172,-0.0293 2.689474,0.043 5.410729,0.49302 6.855469,1.18945 0.72237,0.34822 1.033272,0.71877 1.091796,0.91992 0.05853,0.20114 0.05041,0.52303 -0.585937,1.2129 a 1.0001,1.0001 0 1 0 1.46875,1.35546 c 0.895561,-0.97087 1.337865,-2.09329 1.037109,-3.12695 -0.300755,-1.03365 -1.158679,-1.68884 -2.144531,-2.16406 -1.928402,-0.92958 -4.698919,-1.31717 -7.503906,-1.37695 1.150408,-1.25422 2.302274,-2.27361 3.173828,-2.70899 0.705364,-0.35236 1.022463,-0.31089 1.169922,-0.20898 0.147459,0.1019 0.487439,0.607 0.533203,1.9414 a 1.0005846,1.0005846 0 1 0 2,-0.0684 c -0.05576,-1.62699 -0.426726,-2.84935 -1.396484,-3.51953 -0.48488,-0.33509 -1.029105,-0.44652 -1.580078,-0.41016 -0.550976,0.0364 -1.10912,0.22082 -1.621094,0.47657 -1.681269,0.83986 -3.408864,2.55615 -4.97461,4.55468 -0.324366,0.0202 -0.638277,0.051 -0.953125,0.082 -0.03729,-0.1479 -0.08238,-0.30224 -0.111328,-0.44336 -0.229074,-1.11665 -0.144142,-1.96339 0.05078,-2.31054 0.194972,-0.34714 0.415087,-0.53482 1.460981,-0.40234 a 1.0001,1.0001 0 1 0 0.25,-1.98438 c -0.189038,-0.0239 -0.375989,-0.0354 -0.558594,-0.0371 z m 2.933594,8.0293 c -0.830999,0 -1.5,0.669 -1.5,1.5 0,0.831 0.669001,1.5 1.5,1.5 0.830999,0 1.5,-0.669 1.5,-1.5 0,-0.831 -0.669001,-1.5 -1.5,-1.5 z"
         id="path912-6" />
      <path
         style="opacity:1;fill:#6e5d00;fill-opacity:1;stroke:none;stroke-width:2;stroke-linecap:round;stroke-linejoin:round;stroke-miterlimit:4;stroke-dasharray:none;stroke-opacity:0.96078431;paint-order:fill markers stroke"
         d="M 13.566406 6.9707031 C 12.288176 6.9584601 11.195484 7.4800456 10.669922 8.4160156 C 10.06928 9.4856856 10.126965 10.753589 10.404297 12.105469 C 10.426497 12.213679 10.460768 12.327714 10.486328 12.4375 C 9.6936722 12.594738 8.9436121 12.781345 8.3125 13.035156 C 7.347559 13.423216 6.4794675 13.930744 6.1640625 14.933594 C 6.0063605 15.435024 6.0724426 16.012361 6.3007812 16.488281 C 6.5291162 16.964201 6.8878088 17.368842 7.3554688 17.763672 A 1.0001 1.0001 0 1 0 8.6445312 16.236328 C 8.3194634 15.961878 8.1578736 15.736347 8.1035156 15.623047 C 8.0491556 15.509747 8.0704056 15.539203 8.0722656 15.533203 C 8.0759656 15.521403 8.3420858 15.178775 9.0585938 14.890625 C 9.5716574 14.684288 10.287241 14.518827 11.070312 14.376953 C 11.153042 14.602328 11.241681 14.829275 11.333984 15.056641 C 10.072637 17.106772 9.1454323 19.181578 9.0097656 20.970703 C 8.9234856 22.108583 9.2616622 23.336086 10.291016 23.941406 C 11.320368 24.546716 12.628999 24.46472 14.292969 23.955078 A 1.0001 1.0001 0 1 0 13.707031 22.042969 C 12.298135 22.474509 11.538937 22.354547 11.304688 22.216797 C 11.070436 22.079047 10.94809 21.859137 11.003906 21.123047 C 11.072956 20.212487 11.613197 18.814925 12.388672 17.324219 C 12.988246 18.473793 13.665448 19.597741 14.373047 20.623047 C 15.26867 21.920787 16.201736 23.052003 17.115234 23.876953 C 18.028733 24.701913 18.921801 25.38661 20.101562 25.15625 C 20.691444 25.04107 21.211456 24.584006 21.476562 24.054688 C 21.741671 23.525368 21.848787 22.919801 21.878906 22.181641 C 21.939146 20.705321 21.661609 18.661658 20.972656 15.767578 A 1.0001 1.0001 0 1 0 19.027344 16.230469 C 19.693811 19.030089 19.927134 20.967464 19.880859 22.101562 C 19.857719 22.668612 19.756713 23.025866 19.689453 23.160156 C 19.681053 23.176946 19.688394 23.167454 19.683594 23.177734 C 19.685994 23.152394 19.153072 23.021151 18.457031 22.392578 C 17.722104 21.728888 16.852313 20.693018 16.019531 19.486328 C 15.127969 18.194465 14.280317 16.698491 13.609375 15.242188 C 13.761438 15.009796 13.896226 14.772788 14.056641 14.544922 C 14.182139 14.366654 14.322976 14.204369 14.453125 14.029297 C 14.934844 14.011877 15.416915 13.99221 15.904297 14 C 18.593771 14.043 21.315026 14.493023 22.759766 15.189453 C 23.482136 15.537673 23.793038 15.908225 23.851562 16.109375 C 23.910092 16.310515 23.901972 16.632396 23.265625 17.322266 A 1.0001 1.0001 0 1 0 24.734375 18.677734 C 25.629936 17.706864 26.07224 16.584441 25.771484 15.550781 C 25.470729 14.517131 24.612805 13.861939 23.626953 13.386719 C 21.698551 12.457142 18.928034 12.069548 16.123047 12.009766 C 17.273455 10.755551 18.425321 9.7361602 19.296875 9.3007812 C 20.002239 8.9484214 20.319338 8.9898869 20.466797 9.0917969 C 20.614256 9.1936969 20.954236 9.6988032 21 11.033203 A 1.0005846 1.0005846 0 1 0 23 10.964844 C 22.944242 9.3378536 22.573274 8.1154925 21.603516 7.4453125 C 21.118636 7.1102225 20.574411 6.9987964 20.023438 7.0351562 C 19.472462 7.0715562 18.914318 7.2559688 18.402344 7.5117188 C 16.721075 8.3515819 14.99348 10.067874 13.427734 12.066406 C 13.103368 12.086636 12.789457 12.117398 12.474609 12.148438 C 12.437319 12.000534 12.392229 11.846194 12.363281 11.705078 C 12.134207 10.588428 12.219139 9.7416812 12.414062 9.3945312 C 12.608991 9.0473934 12.829106 8.8597075 13.875 8.9921875 A 1.0001 1.0001 0 1 0 14.125 7.0078125 C 13.935962 6.9838675 13.749011 6.9724525 13.566406 6.9707031 z M 16.5 15 C 15.669001 15 15 15.669 15 16.5 C 15 17.331 15.669001 18 16.5 18 C 17.330999 18 18 17.331 18 16.5 C 18 15.669 17.330999 15 16.5 15 z "
         transform="translate(-45.312499,279.39999)"
         id="path912" />
    </g>
  </g>
</svg>
