<?xml version="1.0" encoding="UTF-8" standalone="no"?>
<!-- Created with Inkscape (http://www.inkscape.org/) -->

<svg
   xmlns:dc="http://purl.org/dc/elements/1.1/"
   xmlns:cc="http://creativecommons.org/ns#"
   xmlns:rdf="http://www.w3.org/1999/02/22-rdf-syntax-ns#"
   xmlns:svg="http://www.w3.org/2000/svg"
   xmlns="http://www.w3.org/2000/svg"
   xmlns:xlink="http://www.w3.org/1999/xlink"
   xmlns:sodipodi="http://sodipodi.sourceforge.net/DTD/sodipodi-0.dtd"
   xmlns:inkscape="http://www.inkscape.org/namespaces/inkscape"
   width="32"
   height="32"
   viewBox="0 0 32 32"
   version="1.1"
   id="svg8"
   inkscape:version="0.92.2 5c3e80d, 2017-08-06"
   sodipodi:docname="deepin-music.svg">
  <title
     id="title7895">Antu icon Theme</title>
  <defs
     id="defs2">
    <linearGradient
       gradientTransform="matrix(4.5354327,0,0,4.5354327,-43.199998,-1001.7737)"
       inkscape:collect="always"
       xlink:href="#linearGradient2126"
       id="linearGradient4581-2-3"
       x1="9.5249996"
       y1="290.91458"
       x2="9.5249996"
       y2="285.62292"
       gradientUnits="userSpaceOnUse" />
    <linearGradient
       inkscape:collect="always"
       id="linearGradient2126">
      <stop
         style="stop-color:#475057;stop-opacity:1;"
         offset="0"
         id="stop2122" />
      <stop
         style="stop-color:#5e6a73;stop-opacity:1"
         offset="1"
         id="stop2124" />
    </linearGradient>
    <linearGradient
       inkscape:collect="always"
       xlink:href="#linearGradient4619"
       id="linearGradient852"
       x1="8.7123508"
       y1="294.54315"
       x2="8.7123508"
       y2="288.98691"
       gradientUnits="userSpaceOnUse"
       gradientTransform="matrix(3.7795275,0,0,3.7795275,-35.928569,-797.58391)" />
    <linearGradient
       id="linearGradient4619"
       inkscape:collect="always">
      <stop
         id="stop4615"
         offset="0"
         style="stop-color:#67d924;stop-opacity:1" />
      <stop
         id="stop4617"
         offset="1"
         style="stop-color:#a3eb1e;stop-opacity:1" />
    </linearGradient>
  </defs>
  <sodipodi:namedview
     id="base"
     pagecolor="#ffffff"
     bordercolor="#666666"
     borderopacity="1.0"
     inkscape:pageopacity="0.0"
     inkscape:pageshadow="2"
     inkscape:zoom="11.2"
     inkscape:cx="-10.680228"
     inkscape:cy="17.46648"
     inkscape:document-units="px"
     inkscape:current-layer="g2351"
     showgrid="true"
     units="px"
     inkscape:window-width="1366"
     inkscape:window-height="697"
     inkscape:window-x="0"
     inkscape:window-y="0"
     inkscape:window-maximized="1"
     objecttolerance="10"
     gridtolerance="10"
     guidetolerance="10">
    <inkscape:grid
       type="xygrid"
       id="grid7897"
       empspacing="4" />
  </sodipodi:namedview>
  <metadata
     id="metadata5">
    <rdf:RDF>
      <cc:Work
         rdf:about="">
        <dc:format>image/svg+xml</dc:format>
        <dc:type
           rdf:resource="http://purl.org/dc/dcmitype/StillImage" />
        <dc:title>Antu icon Theme</dc:title>
      </cc:Work>
    </rdf:RDF>
  </metadata>
  <g
     inkscape:label="Capa 1"
     inkscape:groupmode="layer"
     id="layer1"
     transform="translate(0,-282.64999)">
    <g
       id="g2351"
       transform="translate(19,-7)">
      <path
         inkscape:connector-curvature="0"
         id="path1073"
         d="m 0,292.64999 c -7.201999,0 -13,5.79792 -13,13 0,7.20194 5.798001,13 13,13 7.202,0 13,-5.79806 13,-13 0,-7.20208 -5.798,-13 -13,-13 z m 0,9 c 2.215999,0 4,1.78402 4,4 0,2.21603 -1.784001,4 -4,4 -2.215999,0 -4,-1.78397 -4,-4 0,-2.21598 1.784001,-4 4,-4 z"
         style="fill:#343b40;fill-opacity:1;stroke:none;stroke-width:1.27370465;stroke-linecap:round;stroke-linejoin:round;stroke-miterlimit:4;stroke-dasharray:none;stroke-opacity:1" />
      <path
         inkscape:connector-curvature="0"
         id="path1067"
         d="m 0,293.64999 c -6.648001,0 -12,5.35196 -12,12 0,6.64803 5.351999,12 12,12 6.647999,0 12,-5.35197 12,-12 0,-6.64804 -5.352001,-12 -12,-12 z m 0,7 c 2.769997,0 5,2.22996 5,5 0,2.77 -2.230003,5 -5,5 -2.77,0 -5,-2.23 -5,-5 0,-2.77004 2.229999,-5 5,-5 z"
         style="fill:url(#linearGradient4581-2-3);fill-opacity:1;stroke:none;stroke-width:1.20188987;stroke-linecap:round;stroke-linejoin:round;stroke-miterlimit:4;stroke-dasharray:none;stroke-opacity:1" />
      <path
         sodipodi:nodetypes="sssssssss"
         inkscape:connector-curvature="0"
         style="opacity:1;fill:#56b21d;fill-opacity:1;stroke:none;stroke-width:2.39314151;stroke-linecap:round;stroke-linejoin:round;stroke-miterlimit:4;stroke-dasharray:none;stroke-opacity:1"
         d="M -17,290.64999 H 0 c 1.108,0 2,0.892 2,2 v 26 c 0,1.108 -0.892,2 -2,2 h -17 c -1.108,0 -2,-0.892 -2,-2 v -26 c 0,-1.108 0.892,-2 2,-2 z"
         id="rect843" />
      <path
         sodipodi:nodetypes="sssssssss"
         inkscape:connector-curvature="0"
         style="opacity:1;fill:url(#linearGradient852);fill-opacity:1;stroke:none;stroke-width:2.23359871;stroke-linecap:round;stroke-linejoin:round;stroke-miterlimit:4;stroke-dasharray:none;stroke-opacity:1"
         d="M -17,291.64999 H 0 c 0.553999,0 1,0.446 1,1 v 26 c 0,0.554 -0.446001,1 -1,1 h -17 c -0.554,0 -1,-0.446 -1,-1 v -26 c 0,-0.554 0.446,-1 1,-1 z"
         id="rect843-3" />
      <path
         sodipodi:nodetypes="cccccsssscccc"
         style="opacity:1;fill:#4a9919;fill-opacity:1;stroke:none;stroke-width:1;stroke-opacity:1"
         d="m -3,298.64999 -5,2 v 3 1 2.55078 c -0.589552,-0.34166 -1.266971,-0.55078 -2,-0.55078 -2.216,0 -4,1.78403 -4,4 0,2.21601 1.784,4 4,4 2.216,0 4,-1.78399 4,-4 v -5 -1.80078 l 3,-1.19922 z"
         id="rect4689-9-0-2"
         inkscape:connector-curvature="0" />
      <path
         sodipodi:nodetypes="cccccsssscccc"
         style="opacity:1;fill:#ffffff;fill-opacity:1;stroke:none;stroke-width:1;stroke-opacity:1"
         d="m -3,297.64999 -5,2 v 3 1 2.55078 c -0.589552,-0.34166 -1.266971,-0.55078 -2,-0.55078 -2.216,0 -4,1.78403 -4,4 0,2.21601 1.784,4 4,4 2.216,0 4,-1.78399 4,-4 v -5 -1.80078 l 3,-1.19922 z"
         id="rect4689-9-0"
         inkscape:connector-curvature="0" />
    </g>
  </g>
</svg>
