<?xml version="1.0" encoding="UTF-8" standalone="no"?>
<!-- Created with Inkscape (http://www.inkscape.org/) -->

<svg
   width="32"
   height="32"
   viewBox="0 0 32 32"
   version="1.1"
   id="svg8"
   inkscape:version="1.2 (dc2aedaf03, 2022-05-15)"
   sodipodi:docname="face-smile.svg"
   xml:space="preserve"
   xmlns:inkscape="http://www.inkscape.org/namespaces/inkscape"
   xmlns:sodipodi="http://sodipodi.sourceforge.net/DTD/sodipodi-0.dtd"
   xmlns:xlink="http://www.w3.org/1999/xlink"
   xmlns="http://www.w3.org/2000/svg"
   xmlns:svg="http://www.w3.org/2000/svg"
   xmlns:rdf="http://www.w3.org/1999/02/22-rdf-syntax-ns#"
   xmlns:cc="http://creativecommons.org/ns#"
   xmlns:dc="http://purl.org/dc/elements/1.1/"><title
     id="title7895">Antu icon Theme</title><defs
     id="defs2"><linearGradient
       inkscape:collect="always"
       id="linearGradient3798"><stop
         style="stop-color:#ffcb00;stop-opacity:1;"
         offset="0"
         id="stop3794" /><stop
         style="stop-color:#ffe200;stop-opacity:1;"
         offset="1"
         id="stop3796" /></linearGradient><style
       id="current-color-scheme"
       type="text/css">
      .ColorScheme-Text {
        color:#122036;
      }
      </style><style
       type="text/css"
       id="current-color-scheme-5">
      .ColorScheme-Text {
        color:#122036;
      }
      </style><style
       type="text/css"
       id="current-color-scheme-2">
      .ColorScheme-Text {
        color:#122036;
      }
      </style><style
       type="text/css"
       id="current-color-scheme-1">
      .ColorScheme-Text {
        color:#122036;
      }
      </style><style
       id="current-color-scheme-10"
       type="text/css">
      .ColorScheme-Text {
        color:#122036;
      }
      </style><style
       id="current-color-scheme-7"
       type="text/css">
      .ColorScheme-Text {
        color:#122036;
      }
      </style><style
       type="text/css"
       id="current-color-scheme-5-5">
      .ColorScheme-Text {
        color:#122036;
      }
      </style><style
       type="text/css"
       id="current-color-scheme-2-3">
      .ColorScheme-Text {
        color:#122036;
      }
      </style><style
       type="text/css"
       id="current-color-scheme-1-5">
      .ColorScheme-Text {
        color:#122036;
      }
      </style><style
       id="current-color-scheme-10-6"
       type="text/css">
      .ColorScheme-Text {
        color:#122036;
      }
      </style><style
       type="text/css"
       id="current-color-scheme-0">
      .ColorScheme-Text {
        color:#122036;
      }
      </style><style
       id="current-color-scheme-27"
       type="text/css">
      .ColorScheme-Text {
        color:#122036;
      }
      </style><style
       type="text/css"
       id="current-color-scheme-5-0">
      .ColorScheme-Text {
        color:#122036;
      }
      </style><style
       type="text/css"
       id="current-color-scheme-2-9">
      .ColorScheme-Text {
        color:#122036;
      }
      </style><style
       type="text/css"
       id="current-color-scheme-1-3">
      .ColorScheme-Text {
        color:#122036;
      }
      </style><style
       id="current-color-scheme-10-60"
       type="text/css">
      .ColorScheme-Text {
        color:#122036;
      }
      </style><style
       type="text/css"
       id="current-color-scheme-0-6">
      .ColorScheme-Text {
        color:#122036;
      }
      </style><style
       type="text/css"
       id="current-color-scheme-26">
      .ColorScheme-Text {
        color:#122036;
      }
      </style><style
       type="text/css"
       id="current-color-scheme-675">
      .ColorScheme-Text {
        color:#36404d;
      }
      </style><style
       type="text/css"
       id="current-color-scheme-67">
      .ColorScheme-Text {
        color:#122036;
      }
      </style><style
       type="text/css"
       id="current-color-scheme-7-3">
      .ColorScheme-Text {
        color:#122036;
      }
      </style><style
       type="text/css"
       id="current-color-scheme-5-56">
      .ColorScheme-Text {
        color:#122036;
      }
      </style><style
       type="text/css"
       id="current-color-scheme-6">
      .ColorScheme-Text {
        color:#122036;
      }
      </style><style
       type="text/css"
       id="current-color-scheme-1-29">
      .ColorScheme-Text {
        color:#122036;
      }
      </style><style
       id="current-color-scheme-10-1"
       type="text/css">
      .ColorScheme-Text {
        color:#122036;
      }
      </style><style
       id="current-color-scheme-5-7"
       type="text/css">
      .ColorScheme-Text {
        color:#122036;
      }
      </style><style
       id="current-color-scheme-1-2"
       type="text/css">
      .ColorScheme-Text {
        color:#122036;
      }
      </style><style
       type="text/css"
       id="current-color-scheme-10-9">
      .ColorScheme-Text {
        color:#122036;
      }
      </style><style
       type="text/css"
       id="current-color-scheme-2-2">
      .ColorScheme-Text {
        color:#36404d;
      }
      </style><style
       type="text/css"
       id="current-color-scheme-67-9">
      .ColorScheme-Text {
        color:#122036;
      }
      </style><style
       type="text/css"
       id="current-color-scheme-7-1">
      .ColorScheme-Text {
        color:#122036;
      }
      </style><style
       type="text/css"
       id="current-color-scheme-5-2">
      .ColorScheme-Text {
        color:#122036;
      }
      </style><style
       type="text/css"
       id="current-color-scheme-6-7">
      .ColorScheme-Text {
        color:#122036;
      }
      </style><style
       type="text/css"
       id="current-color-scheme-1-0">
      .ColorScheme-Text {
        color:#122036;
      }
      </style><style
       id="current-color-scheme-10-93"
       type="text/css">
      .ColorScheme-Text {
        color:#122036;
      }
      </style><style
       id="current-color-scheme-5-7-6"
       type="text/css">
      .ColorScheme-Text {
        color:#122036;
      }
      </style><style
       id="current-color-scheme-1-2-0"
       type="text/css">
      .ColorScheme-Text {
        color:#122036;
      }
      </style><style
       type="text/css"
       id="current-color-scheme-10-9-6">
      .ColorScheme-Text {
        color:#122036;
      }
      </style><linearGradient
       id="b"
       gradientTransform="matrix(0.64285644,0,0,0.64285644,-246.50993,-330.86975)"
       gradientUnits="userSpaceOnUse"
       x2="0"
       y1="545.79797"
       y2="517.79797"><stop
         offset="0"
         stop-color="#fdc95f"
         id="stop4327" /><stop
         offset="1"
         stop-color="#fdd583"
         id="stop4329" /></linearGradient><linearGradient
       id="c"
       gradientUnits="userSpaceOnUse"
       x1="11"
       x2="11"
       xlink:href="#a"
       y1="11"
       y2="7" /><linearGradient
       id="a"><stop
         offset="0"
         stop-color="#814b13"
         id="stop4322" /><stop
         offset="1"
         stop-color="#9d5b17"
         id="stop4324" /></linearGradient><linearGradient
       id="d"
       gradientUnits="userSpaceOnUse"
       x1="11"
       x2="11"
       xlink:href="#a"
       y1="16"
       y2="13" /><linearGradient
       inkscape:collect="always"
       xlink:href="#linearGradient3798"
       id="linearGradient3800"
       x1="3.175"
       y1="5.1152778"
       x2="3.175"
       y2="1.0583333"
       gradientUnits="userSpaceOnUse" /><style
       id="current-color-scheme-53"
       type="text/css">
      .ColorScheme-Text {
        color:#122036;
      }
      </style><style
       type="text/css"
       id="current-color-scheme-5-562">
      .ColorScheme-Text {
        color:#122036;
      }
      </style><style
       type="text/css"
       id="current-color-scheme-2-91">
      .ColorScheme-Text {
        color:#122036;
      }
      </style><style
       type="text/css"
       id="current-color-scheme-1-27">
      .ColorScheme-Text {
        color:#122036;
      }
      </style><style
       id="current-color-scheme-10-0"
       type="text/css">
      .ColorScheme-Text {
        color:#122036;
      }
      </style><style
       id="current-color-scheme-7-9"
       type="text/css">
      .ColorScheme-Text {
        color:#122036;
      }
      </style><style
       type="text/css"
       id="current-color-scheme-5-5-3">
      .ColorScheme-Text {
        color:#122036;
      }
      </style><style
       type="text/css"
       id="current-color-scheme-2-3-6">
      .ColorScheme-Text {
        color:#122036;
      }
      </style><style
       type="text/css"
       id="current-color-scheme-1-5-0">
      .ColorScheme-Text {
        color:#122036;
      }
      </style><style
       id="current-color-scheme-10-6-6"
       type="text/css">
      .ColorScheme-Text {
        color:#122036;
      }
      </style><style
       type="text/css"
       id="current-color-scheme-0-2">
      .ColorScheme-Text {
        color:#122036;
      }
      </style><style
       id="current-color-scheme-27-6"
       type="text/css">
      .ColorScheme-Text {
        color:#122036;
      }
      </style><style
       type="text/css"
       id="current-color-scheme-5-0-1">
      .ColorScheme-Text {
        color:#122036;
      }
      </style><style
       type="text/css"
       id="current-color-scheme-2-9-8">
      .ColorScheme-Text {
        color:#122036;
      }
      </style><style
       type="text/css"
       id="current-color-scheme-1-3-7">
      .ColorScheme-Text {
        color:#122036;
      }
      </style><style
       id="current-color-scheme-10-60-9"
       type="text/css">
      .ColorScheme-Text {
        color:#122036;
      }
      </style><style
       type="text/css"
       id="current-color-scheme-0-6-2">
      .ColorScheme-Text {
        color:#122036;
      }
      </style><style
       type="text/css"
       id="current-color-scheme-26-0">
      .ColorScheme-Text {
        color:#122036;
      }
      </style><style
       type="text/css"
       id="current-color-scheme-675-2">
      .ColorScheme-Text {
        color:#36404d;
      }
      </style><style
       type="text/css"
       id="current-color-scheme-67-3">
      .ColorScheme-Text {
        color:#122036;
      }
      </style><style
       type="text/css"
       id="current-color-scheme-7-3-7">
      .ColorScheme-Text {
        color:#122036;
      }
      </style><style
       type="text/css"
       id="current-color-scheme-5-56-5">
      .ColorScheme-Text {
        color:#122036;
      }
      </style><style
       type="text/css"
       id="current-color-scheme-6-9">
      .ColorScheme-Text {
        color:#122036;
      }
      </style><style
       type="text/css"
       id="current-color-scheme-1-29-2">
      .ColorScheme-Text {
        color:#122036;
      }
      </style><style
       id="current-color-scheme-10-1-2"
       type="text/css">
      .ColorScheme-Text {
        color:#122036;
      }
      </style><style
       id="current-color-scheme-5-7-8"
       type="text/css">
      .ColorScheme-Text {
        color:#122036;
      }
      </style><style
       id="current-color-scheme-1-2-9"
       type="text/css">
      .ColorScheme-Text {
        color:#122036;
      }
      </style><style
       type="text/css"
       id="current-color-scheme-10-9-7">
      .ColorScheme-Text {
        color:#122036;
      }
      </style><style
       type="text/css"
       id="current-color-scheme-2-2-3">
      .ColorScheme-Text {
        color:#36404d;
      }
      </style><style
       type="text/css"
       id="current-color-scheme-67-9-6">
      .ColorScheme-Text {
        color:#122036;
      }
      </style><style
       type="text/css"
       id="current-color-scheme-7-1-1">
      .ColorScheme-Text {
        color:#122036;
      }
      </style><style
       type="text/css"
       id="current-color-scheme-5-2-2">
      .ColorScheme-Text {
        color:#122036;
      }
      </style><style
       type="text/css"
       id="current-color-scheme-6-7-9">
      .ColorScheme-Text {
        color:#122036;
      }
      </style><style
       type="text/css"
       id="current-color-scheme-1-0-3">
      .ColorScheme-Text {
        color:#122036;
      }
      </style><style
       id="current-color-scheme-10-93-1"
       type="text/css">
      .ColorScheme-Text {
        color:#122036;
      }
      </style><style
       id="current-color-scheme-5-7-6-9"
       type="text/css">
      .ColorScheme-Text {
        color:#122036;
      }
      </style><style
       id="current-color-scheme-1-2-0-4"
       type="text/css">
      .ColorScheme-Text {
        color:#122036;
      }
      </style><style
       type="text/css"
       id="current-color-scheme-10-9-6-7">
      .ColorScheme-Text {
        color:#122036;
      }
      </style><linearGradient
       id="b-8"
       gradientTransform="matrix(0.64285644,0,0,0.64285644,-246.50993,-330.86975)"
       gradientUnits="userSpaceOnUse"
       x2="0"
       y1="545.79797"
       y2="517.79797"><stop
         offset="0"
         stop-color="#fdc95f"
         id="stop4327-4" /><stop
         offset="1"
         stop-color="#fdd583"
         id="stop4329-5" /></linearGradient></defs><sodipodi:namedview
     id="base"
     pagecolor="#ffffff"
     bordercolor="#666666"
     borderopacity="1.0"
     inkscape:pageopacity="0.0"
     inkscape:pageshadow="2"
     inkscape:zoom="7.9195959"
     inkscape:cx="53.222413"
     inkscape:cy="19.761109"
     inkscape:document-units="px"
     inkscape:current-layer="layer1"
     showgrid="true"
     units="px"
     inkscape:window-width="2160"
     inkscape:window-height="1335"
     inkscape:window-x="0"
     inkscape:window-y="0"
     inkscape:window-maximized="1"
     objecttolerance="10"
     gridtolerance="10"
     guidetolerance="10"
     inkscape:showpageshadow="2"
     inkscape:pagecheckerboard="0"
     inkscape:deskcolor="#d1d1d1"><inkscape:grid
       type="xygrid"
       id="grid7897"
       empspacing="4" /></sodipodi:namedview><metadata
     id="metadata5"><rdf:RDF><cc:Work
         rdf:about=""><dc:format>image/svg+xml</dc:format><dc:type
           rdf:resource="http://purl.org/dc/dcmitype/StillImage" /><dc:title>Antu icon Theme</dc:title></cc:Work></rdf:RDF></metadata><g
     inkscape:label="Capa 1"
     inkscape:groupmode="layer"
     id="layer1"
     transform="translate(0,-282.64999)"><g
       inkscape:label="Capa 1"
       id="layer1-7"
       transform="matrix(5.6692916,0,0,5.6692916,-2.0000001,280.64999)"><path
         id="rect15701"
         style="opacity:1;fill:#fc9102;fill-opacity:1;stroke-width:0.529167;stroke-linecap:round;stroke-linejoin:round;stroke-miterlimit:1.8;paint-order:fill markers stroke;stop-color:#000000"
         d="m 3.1749999,0.52916664 c 1.4657916,0 2.6458332,1.18004166 2.6458332,2.64583326 0,1.4657916 -1.1800416,2.6458332 -2.6458332,2.6458332 -1.4657916,0 -2.64583326,-1.1800416 -2.64583326,-2.6458332 0,-1.4657916 1.18004166,-2.64583326 2.64583326,-2.64583326 z" /><path
         id="rect15701-2"
         style="fill:url(#linearGradient3800);fill-opacity:1;stroke-width:0.493889;stroke-linecap:round;stroke-linejoin:round;stroke-miterlimit:1.8;paint-order:fill markers stroke;stop-color:#000000"
         d="m 3.1749999,0.70555555 c 1.3680721,0 2.4694443,1.10137215 2.4694443,2.46944435 0,1.3680721 -1.1013722,2.4694443 -2.4694443,2.4694443 -1.3680722,0 -2.46944435,-1.1013722 -2.46944435,-2.4694443 0,-1.3680722 1.10137215,-2.46944435 2.46944435,-2.46944435 z" /><g
         transform="matrix(0.26458333,0,0,0.26458333,0.26561465,0.08819438)"
         id="g4342"
         style="fill:#864e14;fill-opacity:1"><path
           id="rect5734"
           style="opacity:1;fill:#864e14;stroke-width:2.22222;stroke-linecap:round;stroke-linejoin:round;stroke-miterlimit:1.8;paint-order:fill markers stroke;stop-color:#000000;fill-opacity:1"
           d="M 7.3294352 7 C 6.4061028 7 5.6627686 7.7433342 5.6627686 8.6666666 C 5.6627686 9.5899991 6.4061028 10.333333 7.3294352 10.333333 C 8.2527676 10.333333 8.9961018 9.5899991 8.9961018 8.6666666 C 8.9961018 7.7433342 8.2527676 7 7.3294352 7 z M 14.662768 7 C 13.739435 7 12.996102 7.7433342 12.996102 8.6666666 C 12.996102 9.589999 13.739435 10.333333 14.662768 10.333333 C 15.5861 10.333333 16.329435 9.589999 16.329435 8.6666666 C 16.329435 7.7433342 15.5861 7 14.662768 7 z M 6.9961019 13.666666 A 4 4 0 0 0 8.9961018 17.130208 A 4 4 0 0 0 12.996102 17.130208 A 4 4 0 0 0 14.996102 13.666666 L 13.662768 13.666666 C 13.662768 13.712836 13.661162 13.759106 13.658862 13.804687 C 13.656562 13.850267 13.652965 13.895177 13.648445 13.940104 C 13.643945 13.985034 13.638238 14.029985 13.631518 14.074219 C 13.624818 14.118448 13.618243 14.162248 13.609383 14.205729 C 13.600483 14.249209 13.590365 14.291969 13.579435 14.334635 C 13.568505 14.377305 13.555927 14.419135 13.542977 14.460937 C 13.530027 14.502737 13.51623 14.545057 13.50131 14.585937 C 13.4864 14.626817 13.471255 14.667127 13.454435 14.707031 C 13.437615 14.746941 13.41973 14.785342 13.40105 14.824218 C 13.38237 14.863098 13.362926 14.902308 13.342456 14.940104 C 13.321976 14.977894 13.299572 15.015434 13.277352 15.052083 C 13.255132 15.088733 13.232251 15.124703 13.208341 15.160156 C 13.184431 15.195606 13.159672 15.230117 13.134123 15.264323 C 13.108573 15.298533 13.081825 15.331682 13.054695 15.364583 C 13.027565 15.397483 13.000012 15.429397 12.971362 15.460937 C 12.942712 15.492477 12.91294 15.523255 12.88282 15.553385 C 12.8527 15.583505 12.821913 15.613277 12.790373 15.641927 C 12.758833 15.670587 12.726928 15.69813 12.694018 15.72526 C 12.661118 15.75239 12.627958 15.779137 12.593758 15.804687 C 12.559548 15.830237 12.525048 15.854986 12.489591 15.878906 C 12.454131 15.902816 12.418171 15.925696 12.381518 15.947916 C 12.344868 15.970136 12.307328 15.992551 12.269539 16.013021 C 12.231749 16.033501 12.192529 16.052944 12.153654 16.071614 C 12.114774 16.090294 12.076374 16.10818 12.036466 16.125 C 11.996556 16.14182 11.956256 16.156965 11.915373 16.171875 C 11.874493 16.186785 11.832173 16.200591 11.790373 16.213541 C 11.748573 16.226491 11.706733 16.23907 11.66407 16.25 C 11.621401 16.26093 11.57864 16.271098 11.535164 16.279948 C 11.491684 16.288848 11.447884 16.295353 11.403654 16.302083 C 11.359424 16.308783 11.314474 16.31447 11.269539 16.31901 C 11.224609 16.32351 11.179699 16.327107 11.134123 16.329427 C 11.088543 16.331727 11.042263 16.333333 10.996102 16.333333 C 10.949932 16.333333 10.903662 16.331727 10.858081 16.329427 C 10.812501 16.327127 10.767591 16.32353 10.722664 16.31901 C 10.677734 16.31451 10.632784 16.308803 10.58855 16.302083 C 10.54432 16.295383 10.50052 16.288808 10.457039 16.279948 C 10.413559 16.271048 10.370799 16.26093 10.328133 16.25 C 10.285463 16.23907 10.243633 16.226491 10.201831 16.213541 C 10.160031 16.200591 10.117711 16.186795 10.076831 16.171875 C 10.035951 16.156965 9.995643 16.14182 9.9557372 16.125 C 9.9158313 16.10818 9.8774262 16.090284 9.8385497 16.071614 C 9.7996738 16.052934 9.7604557 16.033491 9.7226643 16.013021 C 9.6848733 15.992541 9.6473363 15.970136 9.6106851 15.947916 C 9.5740342 15.925696 9.5380681 15.902816 9.5026122 15.878906 C 9.4671563 15.854996 9.4326511 15.830237 9.3984456 15.804687 C 9.3642396 15.779137 9.3310855 15.75239 9.2981852 15.72526 C 9.2652852 15.69813 9.233371 15.670577 9.201831 15.641927 C 9.170291 15.613277 9.139508 15.583505 9.1093831 15.553385 C 9.0792581 15.523265 9.0494964 15.492477 9.0208414 15.460937 C 8.9921864 15.429397 8.9646371 15.397483 8.9375081 15.364583 C 8.9103781 15.331683 8.88363 15.298524 8.858081 15.264323 C 8.832532 15.230113 8.8077762 15.195612 8.7838623 15.160156 C 8.7599483 15.124696 8.7370748 15.088736 8.7148518 15.052083 C 8.6926279 15.015433 8.6702257 14.977893 8.6497477 14.940104 C 8.6292687 14.902314 8.6098319 14.863094 8.5911539 14.824218 C 8.5724759 14.785339 8.5545905 14.746938 8.5377685 14.707031 C 8.5209455 14.667121 8.5058065 14.626821 8.4908935 14.585937 C 8.4759805 14.545057 8.4621748 14.502737 8.4492268 14.460937 C 8.4362799 14.419137 8.4236955 14.377297 8.4127685 14.334635 C 8.4018415 14.291965 8.3916726 14.249205 8.3828206 14.205729 C 8.3739706 14.162249 8.3674062 14.118449 8.3606852 14.074219 C 8.3539652 14.029989 8.3482941 13.985038 8.3437581 13.940104 C 8.3392181 13.895174 8.3356384 13.850264 8.3333414 13.804687 C 8.3310414 13.759107 8.3294352 13.712837 8.3294352 13.666666 L 6.9961019 13.666666 z " /></g></g></g></svg>
