<?xml version="1.0" encoding="UTF-8" standalone="no"?>
<!-- Created with Inkscape (http://www.inkscape.org/) -->

<svg
   xmlns:dc="http://purl.org/dc/elements/1.1/"
   xmlns:cc="http://creativecommons.org/ns#"
   xmlns:rdf="http://www.w3.org/1999/02/22-rdf-syntax-ns#"
   xmlns:svg="http://www.w3.org/2000/svg"
   xmlns="http://www.w3.org/2000/svg"
   xmlns:xlink="http://www.w3.org/1999/xlink"
   xmlns:sodipodi="http://sodipodi.sourceforge.net/DTD/sodipodi-0.dtd"
   xmlns:inkscape="http://www.inkscape.org/namespaces/inkscape"
   width="32"
   height="32"
   viewBox="0 0 32 32"
   version="1.1"
   id="svg8"
   inkscape:version="0.91 r13725"
   sodipodi:docname="falkon.svg">
  <title
     id="title7895">Antu icon Theme</title>
  <defs
     id="defs2">
    <linearGradient
       y2="526.20001"
       x2="0"
       y1="542.20001"
       gradientUnits="userSpaceOnUse"
       id="0-5">
      <stop
         id="stop1121"
         stop-color="#d0d0d0" />
      <stop
         id="stop1123"
         stop-color="#f1eeee"
         offset="1"
         style="stop-color:#fffcff;stop-opacity:1" />
    </linearGradient>
    <linearGradient
       gradientUnits="userSpaceOnUse"
       y2="291.28934"
       x2="5.2318139"
       y1="296.62509"
       x1="0.13858482"
       id="linearGradient4682"
       xlink:href="#linearGradient4902"
       inkscape:collect="always"
       gradientTransform="matrix(4.1231209,0,0,4.1231209,4.428598,-913.37117)" />
    <linearGradient
       gradientTransform="matrix(3.7795275,0,0,3.7795275,5.392882,-812.36947)"
       gradientUnits="userSpaceOnUse"
       y2="290.5177"
       x2="2.8064666"
       y1="297.39685"
       x1="2.8064666"
       id="linearGradient4543"
       xlink:href="#linearGradient4582-3"
       inkscape:collect="always" />
    <linearGradient
       id="linearGradient4582-3"
       inkscape:collect="always">
      <stop
         id="stop4578-6"
         offset="0"
         style="stop-color:#cee3e3;stop-opacity:1" />
      <stop
         id="stop4580-1"
         offset="1"
         style="stop-color:#fcfcfc;stop-opacity:1" />
    </linearGradient>
    <linearGradient
       gradientTransform="translate(-96.169286,-15.786066)"
       gradientUnits="userSpaceOnUse"
       y2="321.65002"
       x2="54.705154"
       y1="337.65021"
       x1="38.843674"
       id="linearGradient4642"
       xlink:href="#linearGradient4163"
       inkscape:collect="always" />
    <linearGradient
       inkscape:collect="always"
       id="linearGradient4163">
      <stop
         style="stop-color:#8797cc;stop-opacity:1"
         offset="0"
         id="stop4165" />
      <stop
         style="stop-color:#9a63cc;stop-opacity:1"
         offset="1"
         id="stop4167" />
    </linearGradient>
    <linearGradient
       id="linearGradient4902"
       inkscape:collect="always">
      <stop
         id="stop4898"
         offset="0"
         style="stop-color:#a9bcff;stop-opacity:1" />
      <stop
         id="stop4900"
         offset="1"
         style="stop-color:#c07cff;stop-opacity:1" />
    </linearGradient>
    <linearGradient
       gradientUnits="userSpaceOnUse"
       y2="308.64999"
       x2="-75"
       y1="327.64999"
       x1="-76"
       id="linearGradient4238"
       xlink:href="#linearGradient4582-3"
       inkscape:collect="always"
       gradientTransform="translate(26.535713,-4.7857158)" />
    <linearGradient
       inkscape:collect="always"
       xlink:href="#linearGradient4163"
       id="linearGradient4215"
       x1="8"
       y1="308.64999"
       x2="26"
       y2="290.64999"
       gradientUnits="userSpaceOnUse" />
    <linearGradient
       inkscape:collect="always"
       xlink:href="#linearGradient4163"
       id="linearGradient4224"
       x1="10"
       y1="24"
       x2="22"
       y2="10"
       gradientUnits="userSpaceOnUse" />
  </defs>
  <sodipodi:namedview
     id="base"
     pagecolor="#ffffff"
     bordercolor="#666666"
     borderopacity="1.0"
     inkscape:pageopacity="0.0"
     inkscape:pageshadow="2"
     inkscape:zoom="0.98994949"
     inkscape:cx="51.96556"
     inkscape:cy="127.17437"
     inkscape:document-units="px"
     inkscape:current-layer="layer1"
     showgrid="true"
     units="px"
     inkscape:window-width="1360"
     inkscape:window-height="697"
     inkscape:window-x="0"
     inkscape:window-y="0"
     inkscape:window-maximized="1"
     objecttolerance="10"
     gridtolerance="10"
     guidetolerance="10">
    <inkscape:grid
       type="xygrid"
       id="grid7897"
       empspacing="4" />
  </sodipodi:namedview>
  <metadata
     id="metadata5">
    <rdf:RDF>
      <cc:Work
         rdf:about="">
        <dc:format>image/svg+xml</dc:format>
        <dc:type
           rdf:resource="http://purl.org/dc/dcmitype/StillImage" />
        <dc:title>Antu icon Theme</dc:title>
      </cc:Work>
    </rdf:RDF>
  </metadata>
  <g
     inkscape:label="Capa 1"
     inkscape:groupmode="layer"
     id="layer1"
     transform="translate(0,-282.64999)">
    <path
       id="path4628"
       d="m 16,283.65003 c 8.31,0 15,6.68984 15,14.99992 0,8.30994 -6.69,15 -15,15 -8.309999,0 -15,-6.69006 -15,-15 0,-8.31008 6.690001,-14.99992 15,-14.99992 z"
       style="fill:#90a4ae;fill-opacity:1;stroke:none;stroke-width:1.46965909;stroke-linecap:round;stroke-linejoin:round;stroke-miterlimit:4;stroke-dasharray:none;stroke-opacity:1"
       inkscape:connector-curvature="0" />
    <path
       id="path4630"
       d="M 16.000001,284.64998 C 23.756,284.64998 30,290.89391 30,298.64995 30,306.406 23.756,312.65004 16.000001,312.65004 8.244,312.65004 2,306.406 2,298.64995 2,290.89391 8.244,284.64998 16.000001,284.64998 Z"
       style="fill:url(#linearGradient4543);fill-opacity:1;stroke:none;stroke-width:1.40220487;stroke-linecap:round;stroke-linejoin:round;stroke-miterlimit:4;stroke-dasharray:none;stroke-opacity:1"
       inkscape:connector-curvature="0" />
    <path
       id="path4632"
       d="M 15.999999,285.64999 C 23.202,285.64999 29,291.44803 29,298.65003 c 0,7.20201 -5.798,13 -13.000001,13 C 8.798,311.65003 3,305.85204 3,298.65003 c 0,-7.202 5.798,-13.00004 12.999999,-13.00004 z"
       style="opacity:1;fill:url(#linearGradient4215);fill-opacity:1;stroke:none;stroke-width:1.57648146;stroke-linecap:round;stroke-linejoin:round;stroke-miterlimit:4;stroke-dasharray:none;stroke-opacity:1"
       inkscape:connector-curvature="0" />
    <path
       id="path4634"
       d="m 16,286.65 c 6.648,0 12,5.35202 12,12.00001 0,6.648 -5.352,12.00002 -12,12.00002 -6.648,0 -12,-5.35202 -12,-12.00002 C 4,292.00202 9.352,286.65 16,286.65 Z"
       style="opacity:1;fill:url(#linearGradient4682);fill-opacity:1;stroke:none;stroke-width:1.45521367;stroke-linecap:round;stroke-linejoin:round;stroke-miterlimit:4;stroke-dasharray:none;stroke-opacity:1"
       inkscape:connector-curvature="0" />
    <path
       style="fill:url(#linearGradient4224);fill-opacity:1;stroke:none;stroke-width:1px;stroke-linecap:butt;stroke-linejoin:miter;stroke-opacity:1"
       d="m 16,6 c -0.553999,0 -1,0.446 -1,1 0,0.554 0.446001,1 1,1 0.553999,0 1,-0.446 1,-1 C 17,6.446 16.553999,6 16,6 Z M 5.9785156,16 C 5.4368816,16 5,16.436886 5,16.978516 l 0,0.04297 C 5,17.563114 5.4368816,18.00004 5.9785156,18 l 0.042969,0 C 6.5631182,17.99997 7,17.563124 7,17.021484 l 0,-0.04297 C 7,16.436896 6.5631184,16 6.0214844,16 Z M 26,16 c -0.554,0 -1,0.446 -1,1 0,0.554 0.446,1 1,1 0.554,0 1,-0.446 1,-1 0,-0.554 -0.446,-1 -1,-1 z M 16,26 c -0.554,0 -1,0.446 -1,1 0,0.554 0.446,1 1,1 0.554,0 1,-0.446 1,-1 0,-0.554 -0.446,-1 -1,-1 z"
       transform="translate(0,282.64999)"
       id="path1344"
       inkscape:connector-curvature="0"
       sodipodi:nodetypes="ssssssssccssssssssssssss" />
    <path
       inkscape:connector-curvature="0"
       id="rect853"
       d="m 16,287.64999 c -0.553999,0 -1,0.446 -1,1 0,0.554 0.446001,1 1,1 0.553999,0 1,-0.446 1,-1 0,-0.554 -0.446001,-1 -1,-1 z m -10.0214844,10 C 5.4368816,297.64999 5,298.08688 5,298.62851 v 0.043 c 0,0.54163 0.4368816,0.97855 0.9785156,0.97851 h 0.042969 C 6.5631184,299.64999 7,299.21311 7,298.67147 v -0.043 c 0,-0.54162 -0.4368816,-0.97851 -0.9785156,-0.97851 z m 20.0214844,0 c -0.554,0 -1,0.446 -1,1 0,0.554 0.446,1 1,1 0.554,0 1,-0.446 1,-1 0,-0.554 -0.446,-1 -1,-1 z m -10,10 c -0.554,0 -1,0.446 -1,1 0,0.554 0.446,1 1,1 0.554,0 1,-0.446 1,-1 0,-0.554 -0.446,-1 -1,-1 z"
       style="opacity:1;fill:#e7f0f0;fill-opacity:1;stroke:none;stroke-width:2;stroke-linecap:round;stroke-linejoin:round;stroke-miterlimit:4;stroke-dasharray:none;stroke-opacity:1" />
    <g
       id="layer1-6"
       inkscape:label="Capa 1"
       transform="translate(-26.535714,2.7857143)">
      <g
         transform="translate(92,-18)"
         id="g5560">
        <g
           transform="translate(0,1)"
           id="g4240">
          <path
             inkscape:connector-curvature="0"
             style="opacity:1;fill:url(#linearGradient4642);fill-opacity:1;stroke:none;stroke-width:2;stroke-linecap:round;stroke-linejoin:round;stroke-miterlimit:4;stroke-dasharray:none;stroke-dashoffset:0;stroke-opacity:1"
             d="m -49.325615,305.86412 c -0.328101,0.006 -0.632467,0.17224 -0.814453,0.44531 l -1.298828,1.94923 c -1.55585,0.5888 -2.798367,1.79879 -3.423829,3.33594 l -2.156249,1.4375 c -0.27307,0.18198 -0.439313,0.48635 -0.445313,0.81445 -0.0059,0.34055 0.161883,0.66071 0.445313,0.84961 l 2.156249,1.4375 c 0.625489,1.53704 1.868052,2.74716 3.423829,3.33594 l 1.298828,1.94921 c 0.181986,0.27307 0.486352,0.43932 0.814453,0.44531 0.340556,0.006 0.660714,-0.16188 0.849609,-0.44531 l 1.298828,-1.94921 c 1.647156,-0.62314 2.938883,-1.94532 3.523438,-3.61134 l 1.744141,-1.1621 c 0.28343,-0.1889 0.451242,-0.50906 0.445312,-0.84961 -0.006,-0.3281 -0.172245,-0.63247 -0.445312,-0.81445 l -1.742188,-1.16211 c -0.584266,-1.66682 -1.877668,-2.98798 -3.525391,-3.61133 l -1.298828,-1.94923 c -0.188895,-0.28343 -0.509053,-0.45123 -0.849609,-0.44531 z m 0.01758,4 c 2.216,0 4,1.784 4,4 0,2.216 -1.784,4 -4,4 -2.216,0 -4,-1.784 -4,-4 0,-2.216 1.784,-4 4,-4 z m -0.156252,2 c -1.108,0 -2,0.892 -2,2 0,1.108 0.892,2 2,2 1.108,0 2,-0.892 2,-2 0,-1.108 -0.892,-2 -2,-2 z"
             id="rect4501-0-3" />
          <path
             style="opacity:1;fill:url(#linearGradient4238);fill-opacity:1;stroke:none;stroke-width:2;stroke-linecap:round;stroke-linejoin:round;stroke-miterlimit:4;stroke-dasharray:none;stroke-dashoffset:0;stroke-opacity:1"
             d="m -49.325615,304.86427 c -0.328101,0.006 -0.632467,0.17224 -0.814453,0.44531 l -1.298828,1.94922 c -1.55585,0.58879 -2.798367,1.79879 -3.423829,3.33593 l -2.156249,1.4375 c -0.273071,0.18198 -0.439313,0.48636 -0.445313,0.81446 -0.0059,0.34055 0.161883,0.66071 0.445313,0.84961 l 2.156249,1.4375 c 0.625489,1.53704 1.868052,2.74716 3.423829,3.33593 l 1.298828,1.94922 c 0.181986,0.27307 0.486352,0.43931 0.814453,0.44532 0.340556,0.006 0.660714,-0.16189 0.849609,-0.44532 l 1.298828,-1.94922 c 1.647156,-0.62313 2.938883,-1.94531 3.523438,-3.61132 l 1.744141,-1.16211 c 0.28343,-0.1889 0.451242,-0.50906 0.445312,-0.84961 -0.006,-0.3281 -0.172245,-0.63248 -0.445312,-0.81446 l -1.742188,-1.16211 c -0.584266,-1.66682 -1.877668,-2.98798 -3.525391,-3.61132 l -1.298828,-1.94922 c -0.188895,-0.28343 -0.509053,-0.45125 -0.849609,-0.44531 z m 0.01758,4 c 2.216,0 4,1.78399 4,4 0,2.216 -1.784,4 -4,4 -2.216,0 -4,-1.784 -4,-4 0,-2.21601 1.784,-4 4,-4 z m -0.156252,2 c -1.108,0 -2,0.89199 -2,2 0,1.108 0.892,2 2,2 1.108,0 2,-0.892 2,-2 0,-1.10801 -0.892,-2 -2,-2 z"
             id="rect4501-0"
             inkscape:connector-curvature="0" />
        </g>
      </g>
    </g>
  </g>
</svg>
