<?xml version="1.0" encoding="UTF-8" standalone="no"?>
<!-- Created with Inkscape (http://www.inkscape.org/) -->

<svg
   xmlns:dc="http://purl.org/dc/elements/1.1/"
   xmlns:cc="http://creativecommons.org/ns#"
   xmlns:rdf="http://www.w3.org/1999/02/22-rdf-syntax-ns#"
   xmlns:svg="http://www.w3.org/2000/svg"
   xmlns="http://www.w3.org/2000/svg"
   xmlns:xlink="http://www.w3.org/1999/xlink"
   xmlns:sodipodi="http://sodipodi.sourceforge.net/DTD/sodipodi-0.dtd"
   xmlns:inkscape="http://www.inkscape.org/namespaces/inkscape"
   width="32"
   height="32"
   viewBox="0 0 32 32"
   version="1.1"
   id="svg8"
   inkscape:version="0.92.2 5c3e80d, 2017-08-06"
   sodipodi:docname="firefox-developer.svg">
  <title
     id="title7895">Antu icon Theme</title>
  <defs
     id="defs2">
    <linearGradient
       inkscape:collect="always"
       xlink:href="#linearGradient4582-3"
       id="linearGradient971"
       x1="-2.5054908"
       y1="289.52963"
       x2="-1.3739663"
       y2="285.42026"
       gradientUnits="userSpaceOnUse"
       gradientTransform="matrix(3.2588783,0,0,3.2800663,-3.9599137,-630.17098)" />
    <linearGradient
       inkscape:collect="always"
       id="linearGradient4582-3">
      <stop
         style="stop-color:#cee3e3;stop-opacity:1"
         offset="0"
         id="stop4578-6" />
      <stop
         style="stop-color:#fcfcfc;stop-opacity:1"
         offset="1"
         id="stop4580-1" />
    </linearGradient>
    <linearGradient
       gradientTransform="matrix(1.0087671,0,0,1.0263542,-25.606251,290.24006)"
       inkscape:collect="always"
       xlink:href="#linearGradient1018"
       id="linearGradient2474"
       x1="8.5314522"
       y1="15.01424"
       x2="10.51407"
       y2="9.1683054"
       gradientUnits="userSpaceOnUse" />
    <linearGradient
       inkscape:collect="always"
       id="linearGradient1018">
      <stop
         style="stop-color:#0d72ec;stop-opacity:1"
         offset="0"
         id="stop1014" />
      <stop
         style="stop-color:#37c8ff;stop-opacity:1"
         offset="1"
         id="stop1016" />
    </linearGradient>
    <linearGradient
       inkscape:collect="always"
       xlink:href="#linearGradient1018"
       id="linearGradient848"
       gradientUnits="userSpaceOnUse"
       gradientTransform="matrix(1.0468424,0,0,1.013518,-26.20783,4.3691135)"
       x1="20.258854"
       y1="306.14246"
       x2="24.079868"
       y2="294.30252" />
  </defs>
  <sodipodi:namedview
     id="base"
     pagecolor="#ffffff"
     bordercolor="#666666"
     borderopacity="1.0"
     inkscape:pageopacity="0.0"
     inkscape:pageshadow="2"
     inkscape:zoom="15.839192"
     inkscape:cx="-4.4321239"
     inkscape:cy="9.8592752"
     inkscape:document-units="px"
     inkscape:current-layer="layer1"
     showgrid="true"
     units="px"
     inkscape:window-width="1366"
     inkscape:window-height="697"
     inkscape:window-x="0"
     inkscape:window-y="0"
     inkscape:window-maximized="1"
     objecttolerance="10"
     gridtolerance="10"
     guidetolerance="10">
    <inkscape:grid
       type="xygrid"
       id="grid7897"
       empspacing="4" />
  </sodipodi:namedview>
  <metadata
     id="metadata5">
    <rdf:RDF>
      <cc:Work
         rdf:about="">
        <dc:format>image/svg+xml</dc:format>
        <dc:type
           rdf:resource="http://purl.org/dc/dcmitype/StillImage" />
        <dc:title>Antu icon Theme</dc:title>
      </cc:Work>
    </rdf:RDF>
  </metadata>
  <g
     inkscape:label="Capa 1"
     inkscape:groupmode="layer"
     id="layer1"
     transform="translate(0,-282.64999)">
    <g
       id="g1677"
       transform="translate(25.000001,-8.0000131)">
      <path
         inkscape:connector-curvature="0"
         style="fill:#90a4ae;fill-opacity:1;stroke:none;stroke-width:1.27783811;stroke-linecap:round;stroke-linejoin:round;stroke-miterlimit:4;stroke-dasharray:none;stroke-opacity:1"
         d="m -8.0000017,294.47457 c 7.20199798,0 12.999999,5.83555 12.999999,13.08441 0,7.24882 -5.79800102,13.08455 -12.999999,13.08455 -7.2019993,0 -13.0000003,-5.83573 -13.0000003,-13.08455 0,-7.24886 5.798001,-13.08441 13.0000003,-13.08441 z"
         id="rect4496-5" />
      <path
         inkscape:connector-curvature="0"
         style="fill:url(#linearGradient971);fill-opacity:1;stroke:none;stroke-width:1.17954326;stroke-linecap:round;stroke-linejoin:round;stroke-miterlimit:4;stroke-dasharray:none;stroke-opacity:1"
         d="m -8.0000027,295.48107 c 6.648,0 12,5.38662 12,12.07792 0,6.69121 -5.352,12.07803 -12,12.07803 -6.6479993,0 -11.9999993,-5.38682 -11.9999993,-12.07803 0,-6.6913 5.352,-12.07792 11.9999993,-12.07792 z"
         id="rect4496" />
      <path
         id="path2529"
         d="m -0.03063672,292.4616 a 0.41877884,0.40544775 0 0 0 -0.423235,0.43946 c 0.197625,2.23519 -0.515368,3.69449 -1.62955698,5.05967 -1.114189,1.36518 -2.65345,2.60052 -4.009488,4.24608 -1.356038,1.64558 -2.513198,3.71573 -2.823612,6.70863 -0.310414,2.99289 0.21134,6.89666 2.132533,12.2691 0.0232,0.0649 0.04802,0.12888 0.07156,0.194 a 0.41877884,0.40544775 0 0 0 0.558179,0.23952 c 6.45335098,-2.66646 11.124436,-6.0942 12.635717,-10.83791 1.511282,-4.74371 -0.201419,-10.65637 -6.18700202,-18.16018 a 0.41877884,0.40544775 0 0 0 -0.325095,-0.15837 z"
         style="color:#000000;font-style:normal;font-variant:normal;font-weight:normal;font-stretch:normal;font-size:medium;line-height:normal;font-family:sans-serif;font-variant-ligatures:normal;font-variant-position:normal;font-variant-caps:normal;font-variant-numeric:normal;font-variant-alternates:normal;font-feature-settings:normal;text-indent:0;text-align:start;text-decoration:none;text-decoration-line:none;text-decoration-style:solid;text-decoration-color:#000000;letter-spacing:normal;word-spacing:normal;text-transform:none;writing-mode:lr-tb;direction:ltr;text-orientation:mixed;dominant-baseline:auto;baseline-shift:baseline;text-anchor:start;white-space:normal;shape-padding:0;clip-rule:nonzero;display:inline;overflow:visible;visibility:visible;opacity:1;isolation:auto;mix-blend-mode:normal;color-interpolation:sRGB;color-interpolation-filters:linearRGB;solid-color:#000000;solid-opacity:1;vector-effect:none;fill:#0c3996;fill-opacity:1;fill-rule:nonzero;stroke:none;stroke-width:0.82403636;stroke-linecap:round;stroke-linejoin:round;stroke-miterlimit:4;stroke-dasharray:none;stroke-dashoffset:0;stroke-opacity:1;color-rendering:auto;image-rendering:auto;shape-rendering:auto;text-rendering:auto;enable-background:accumulate"
         inkscape:connector-curvature="0" />
      <path
         id="path1186"
         d="m 0.24334228,293.99376 c 5.30624402,6.94735 6.78061802,12.33666 5.43867302,16.54884 -1.367193,4.29144 -5.63732102,7.5346 -11.742218,10.12727 -1.811332,-5.15092 -2.310615,-8.89175 -2.022124,-11.67328 0.293812,-2.83281 1.356662,-4.72068 2.645731,-6.28499 1.289069,-1.56431 2.819727,-2.7878 4.011533,-4.24806 0.97426298,-1.19374 1.55129798,-2.67586 1.66840498,-4.46978 z"
         style="color:#000000;font-style:normal;font-variant:normal;font-weight:normal;font-stretch:normal;font-size:medium;line-height:normal;font-family:sans-serif;font-variant-ligatures:normal;font-variant-position:normal;font-variant-caps:normal;font-variant-numeric:normal;font-variant-alternates:normal;font-feature-settings:normal;text-indent:0;text-align:start;text-decoration:none;text-decoration-line:none;text-decoration-style:solid;text-decoration-color:#000000;letter-spacing:normal;word-spacing:normal;text-transform:none;writing-mode:lr-tb;direction:ltr;text-orientation:mixed;dominant-baseline:auto;baseline-shift:baseline;text-anchor:start;white-space:normal;shape-padding:0;clip-rule:nonzero;display:inline;overflow:visible;visibility:visible;opacity:1;isolation:auto;mix-blend-mode:normal;color-interpolation:sRGB;color-interpolation-filters:linearRGB;solid-color:#000000;solid-opacity:1;vector-effect:none;fill:url(#linearGradient848);fill-opacity:1;fill-rule:nonzero;stroke:none;stroke-width:0.82403636;stroke-linecap:round;stroke-linejoin:round;stroke-miterlimit:4;stroke-dasharray:none;stroke-dashoffset:0;stroke-opacity:1;color-rendering:auto;image-rendering:auto;shape-rendering:auto;text-rendering:auto;enable-background:accumulate"
         inkscape:connector-curvature="0" />
      <path
         id="path2466"
         d="m -13.406474,290.651 a 0.407961,0.4150735 0 0 0 -0.358585,0.28265 l -2.009653,6.13407 -1.873706,1.91038 -7.002262,1.01834 a 0.407961,0.4150735 0 0 0 -0.267954,0.6595 l 2.977045,4.03927 v 1.93845 a 0.407961,0.4150735 0 0 0 0.407842,0.41495 h 0.610776 v 1.66181 a 0.407961,0.4150735 0 0 0 0.488622,0.40693 l 10.194064,-2.07675 a 0.407961,0.4150735 0 0 0 0.2935683,-0.23855 l 4.076443,-9.34143 a 0.407961,0.4150735 0 0 0 -0.372378,-0.58334 h -1.631365 v -0.62343 a 0.407961,0.4150735 0 0 0 -0.407841,-0.41495 h -1.8067183 l -2.93961,-4.98744 a 0.407961,0.4150735 0 0 0 -0.378288,-0.20046 z"
         style="color:#000000;font-style:normal;font-variant:normal;font-weight:normal;font-stretch:normal;font-size:medium;line-height:normal;font-family:sans-serif;font-variant-ligatures:normal;font-variant-position:normal;font-variant-caps:normal;font-variant-numeric:normal;font-variant-alternates:normal;font-feature-settings:normal;text-indent:0;text-align:start;text-decoration:none;text-decoration-line:none;text-decoration-style:solid;text-decoration-color:#000000;letter-spacing:normal;word-spacing:normal;text-transform:none;writing-mode:lr-tb;direction:ltr;text-orientation:mixed;dominant-baseline:auto;baseline-shift:baseline;text-anchor:start;white-space:normal;shape-padding:0;clip-rule:nonzero;display:inline;overflow:visible;visibility:visible;opacity:1;isolation:auto;mix-blend-mode:normal;color-interpolation:sRGB;color-interpolation-filters:linearRGB;solid-color:#000000;solid-opacity:1;vector-effect:none;fill:#0c3996;fill-opacity:1;fill-rule:nonzero;stroke:none;stroke-width:0.82292145;stroke-linecap:butt;stroke-linejoin:round;stroke-miterlimit:4;stroke-dasharray:none;stroke-dashoffset:0;stroke-opacity:1;paint-order:markers fill stroke;color-rendering:auto;image-rendering:auto;shape-rendering:auto;text-rendering:auto;enable-background:accumulate"
         inkscape:connector-curvature="0" />
      <path
         id="path2464"
         d="m -13.270526,292.05221 2.600727,4.41614 a 0.407961,0.4150735 0 0 0 0.348734,0.20046 h 1.6313653 v 0.62342 a 0.407961,0.4150735 0 0 0 0.407842,0.41496 h 0.269924 c -2.0965203,1.12039 -3.0620503,2.46555 -3.3513923,3.90295 -0.295453,1.46774 0.04837,2.94671 0.338882,4.36 -1.460355,-0.648 -2.962161,-1.25918 -4.52566,-1.21479 -1.538372,0.0437 -3.08538,0.7818 -4.557184,2.63003 v -0.75172 a 0.407961,0.4150735 0 0 0 -0.407841,-0.41495 h -0.610778 v -1.65981 a 0.407961,0.4150735 0 0 0 -0.08275,-0.25057 l -2.644072,-3.59024 6.454533,-0.93815 a 0.407961,0.4150735 0 0 0 0.230519,-0.11828 l 2.039207,-2.07475 a 0.407961,0.4150735 0 0 0 0.09852,-0.16237 z"
         style="color:#000000;font-style:normal;font-variant:normal;font-weight:normal;font-stretch:normal;font-size:medium;line-height:normal;font-family:sans-serif;font-variant-ligatures:normal;font-variant-position:normal;font-variant-caps:normal;font-variant-numeric:normal;font-variant-alternates:normal;font-feature-settings:normal;text-indent:0;text-align:start;text-decoration:none;text-decoration-line:none;text-decoration-style:solid;text-decoration-color:#000000;letter-spacing:normal;word-spacing:normal;text-transform:none;writing-mode:lr-tb;direction:ltr;text-orientation:mixed;dominant-baseline:auto;baseline-shift:baseline;text-anchor:start;white-space:normal;shape-padding:0;clip-rule:nonzero;display:inline;overflow:visible;visibility:visible;opacity:1;isolation:auto;mix-blend-mode:normal;color-interpolation:sRGB;color-interpolation-filters:linearRGB;solid-color:#000000;solid-opacity:1;vector-effect:none;fill:url(#linearGradient2474);fill-opacity:1;fill-rule:nonzero;stroke:none;stroke-width:0.82292145;stroke-linecap:butt;stroke-linejoin:round;stroke-miterlimit:4;stroke-dasharray:none;stroke-dashoffset:0;stroke-opacity:1;paint-order:markers fill stroke;color-rendering:auto;image-rendering:auto;shape-rendering:auto;text-rendering:auto;enable-background:accumulate"
         inkscape:connector-curvature="0" />
      <path
         id="path2462"
         d="m -7.0583337,298.14219 -3.2193863,7.37491 c -0.26513,-1.31824 -0.524965,-2.60283 -0.295537,-3.74258 0.264691,-1.31494 1.1358383,-2.53979 3.5149233,-3.63233 z"
         style="color:#000000;font-style:normal;font-variant:normal;font-weight:normal;font-stretch:normal;font-size:medium;line-height:normal;font-family:sans-serif;font-variant-ligatures:normal;font-variant-position:normal;font-variant-caps:normal;font-variant-numeric:normal;font-variant-alternates:normal;font-feature-settings:normal;text-indent:0;text-align:start;text-decoration:none;text-decoration-line:none;text-decoration-style:solid;text-decoration-color:#000000;letter-spacing:normal;word-spacing:normal;text-transform:none;writing-mode:lr-tb;direction:ltr;text-orientation:mixed;dominant-baseline:auto;baseline-shift:baseline;text-anchor:start;white-space:normal;shape-padding:0;clip-rule:nonzero;display:inline;overflow:visible;visibility:visible;opacity:1;isolation:auto;mix-blend-mode:normal;color-interpolation:sRGB;color-interpolation-filters:linearRGB;solid-color:#000000;solid-opacity:1;vector-effect:none;fill:#fffaff;fill-opacity:1;fill-rule:nonzero;stroke:none;stroke-width:0.82292145;stroke-linecap:butt;stroke-linejoin:round;stroke-miterlimit:4;stroke-dasharray:none;stroke-dashoffset:0;stroke-opacity:1;paint-order:markers fill stroke;color-rendering:auto;image-rendering:auto;shape-rendering:auto;text-rendering:auto;enable-background:accumulate"
         inkscape:connector-curvature="0" />
      <path
         id="path2271"
         d="m -15.52843,305.57523 c 1.18755,-0.0338 2.429837,0.40077 3.704065,0.94216 l -7.829765,1.59366 c 1.405948,-1.88493 2.755645,-2.49692 4.1257,-2.53582 z"
         style="color:#000000;font-style:normal;font-variant:normal;font-weight:normal;font-stretch:normal;font-size:medium;line-height:normal;font-family:sans-serif;font-variant-ligatures:normal;font-variant-position:normal;font-variant-caps:normal;font-variant-numeric:normal;font-variant-alternates:normal;font-feature-settings:normal;text-indent:0;text-align:start;text-decoration:none;text-decoration-line:none;text-decoration-style:solid;text-decoration-color:#000000;letter-spacing:normal;word-spacing:normal;text-transform:none;writing-mode:lr-tb;direction:ltr;text-orientation:mixed;dominant-baseline:auto;baseline-shift:baseline;text-anchor:start;white-space:normal;shape-padding:0;clip-rule:nonzero;display:inline;overflow:visible;visibility:visible;opacity:1;isolation:auto;mix-blend-mode:normal;color-interpolation:sRGB;color-interpolation-filters:linearRGB;solid-color:#000000;solid-opacity:1;vector-effect:none;fill:#fffaff;fill-opacity:1;fill-rule:nonzero;stroke:none;stroke-width:0.82292145;stroke-linecap:butt;stroke-linejoin:round;stroke-miterlimit:4;stroke-dasharray:none;stroke-dashoffset:0;stroke-opacity:1;paint-order:markers fill stroke;color-rendering:auto;image-rendering:auto;shape-rendering:auto;text-rendering:auto;enable-background:accumulate"
         inkscape:connector-curvature="0" />
      <path
         style="opacity:1;fill:#0c3996;fill-opacity:1;stroke:none;stroke-width:0.80800003;stroke-linecap:round;stroke-linejoin:round;stroke-miterlimit:4;stroke-dasharray:none;stroke-opacity:1;paint-order:stroke markers fill"
         d="m -10.516127,304.65001 h 0.03225 c 0.8220673,0 1.4838773,0.669 1.4838773,1.5 0,0.831 -0.66181,1.5 -1.4838773,1.5 h -0.03225 c -0.822067,0 -1.483876,-0.669 -1.483876,-1.5 0,-0.831 0.661809,-1.5 1.483876,-1.5 z"
         id="rect894"
         inkscape:connector-curvature="0" />
      <path
         style="opacity:1;fill:#fffaff;fill-opacity:1;stroke:none;stroke-width:0.80800003;stroke-linecap:round;stroke-linejoin:round;stroke-miterlimit:4;stroke-dasharray:none;stroke-opacity:1;paint-order:stroke markers fill"
         d="m -10.000003,306.15001 a 0.5,0.49999999 0 0 1 -0.5,0.5 0.5,0.49999999 0 0 1 -0.5,-0.5 0.5,0.49999999 0 0 1 0.5,-0.50001 0.5,0.49999999 0 0 1 0.5,0.50001 z"
         id="path1812"
         inkscape:connector-curvature="0" />
    </g>
  </g>
</svg>
