<?xml version="1.0" encoding="UTF-8" standalone="no"?>
<!-- Created with Inkscape (http://www.inkscape.org/) -->

<svg
   xmlns:dc="http://purl.org/dc/elements/1.1/"
   xmlns:cc="http://creativecommons.org/ns#"
   xmlns:rdf="http://www.w3.org/1999/02/22-rdf-syntax-ns#"
   xmlns:svg="http://www.w3.org/2000/svg"
   xmlns="http://www.w3.org/2000/svg"
   xmlns:xlink="http://www.w3.org/1999/xlink"
   xmlns:sodipodi="http://sodipodi.sourceforge.net/DTD/sodipodi-0.dtd"
   xmlns:inkscape="http://www.inkscape.org/namespaces/inkscape"
   width="32"
   height="32"
   viewBox="0 0 32 32"
   version="1.1"
   id="svg8"
   inkscape:version="0.92.2 2405546, 2018-03-11"
   sodipodi:docname="firefox-developer.svg">
  <title
     id="title7895">Antu icon Theme</title>
  <defs
     id="defs2">
    <linearGradient
       gradientTransform="translate(12.555668,-14.58715)"
       inkscape:collect="always"
       xlink:href="#linearGradient1018"
       id="linearGradient4394"
       gradientUnits="userSpaceOnUse"
       x1="-64.555672"
       y1="310.23584"
       x2="-64.555672"
       y2="297.23584" />
    <linearGradient
       id="linearGradient1018"
       inkscape:collect="always">
      <stop
         id="stop1014"
         offset="0"
         style="stop-color:#0d72ec;stop-opacity:1" />
      <stop
         id="stop1016"
         offset="1"
         style="stop-color:#37c8ff;stop-opacity:1" />
    </linearGradient>
    <linearGradient
       gradientTransform="translate(12.555668,-14.58715)"
       inkscape:collect="always"
       xlink:href="#linearGradient1018"
       id="linearGradient4396"
       gradientUnits="userSpaceOnUse"
       x1="-64.555672"
       y1="306.73651"
       x2="-64.555672"
       y2="291.73651" />
    <linearGradient
       gradientTransform="translate(12.555668,-14.58715)"
       inkscape:collect="always"
       xlink:href="#linearGradient1018"
       id="linearGradient1312-8"
       gradientUnits="userSpaceOnUse"
       x1="-57.555668"
       y1="295.23584"
       x2="-57.555668"
       y2="286.23584" />
    <linearGradient
       inkscape:collect="always"
       xlink:href="#linearGradient4582-3"
       id="linearGradient4543-2"
       x1="2.8064666"
       y1="297.39685"
       x2="2.8064666"
       y2="290.5177"
       gradientUnits="userSpaceOnUse"
       gradientTransform="matrix(3.7795275,0,0,3.7795275,-62.607118,-828.36947)" />
    <linearGradient
       id="linearGradient4582-3"
       inkscape:collect="always">
      <stop
         id="stop4578-6"
         offset="0"
         style="stop-color:#cee3e3;stop-opacity:1" />
      <stop
         id="stop4580-1"
         offset="1"
         style="stop-color:#fcfcfc;stop-opacity:1" />
    </linearGradient>
    <linearGradient
       gradientTransform="translate(12.555668,-14.58715)"
       inkscape:collect="always"
       xlink:href="#linearGradient1018"
       id="linearGradient990-4"
       x1="-72.555672"
       y1="295.23584"
       x2="-72.555672"
       y2="286.23584"
       gradientUnits="userSpaceOnUse" />
  </defs>
  <sodipodi:namedview
     id="base"
     pagecolor="#ffffff"
     bordercolor="#666666"
     borderopacity="1.0"
     inkscape:pageopacity="0.0"
     inkscape:pageshadow="2"
     inkscape:zoom="5.6"
     inkscape:cx="-40.017497"
     inkscape:cy="15.856699"
     inkscape:document-units="px"
     inkscape:current-layer="layer1"
     showgrid="true"
     units="px"
     inkscape:window-width="1360"
     inkscape:window-height="711"
     inkscape:window-x="0"
     inkscape:window-y="28"
     inkscape:window-maximized="1"
     objecttolerance="10"
     gridtolerance="10"
     guidetolerance="10"
     inkscape:snap-bbox="true"
     inkscape:bbox-paths="true"
     inkscape:bbox-nodes="true"
     inkscape:snap-bbox-edge-midpoints="true"
     inkscape:snap-bbox-midpoints="true"
     inkscape:object-paths="true"
     inkscape:snap-intersection-paths="true">
    <inkscape:grid
       type="xygrid"
       id="grid7897"
       empspacing="4" />
  </sodipodi:namedview>
  <metadata
     id="metadata5">
    <rdf:RDF>
      <cc:Work
         rdf:about="">
        <dc:format>image/svg+xml</dc:format>
        <dc:type
           rdf:resource="http://purl.org/dc/dcmitype/StillImage" />
        <dc:title>Antu icon Theme</dc:title>
      </cc:Work>
    </rdf:RDF>
  </metadata>
  <g
     inkscape:label="Capa 1"
     inkscape:groupmode="layer"
     id="layer1"
     transform="translate(0,-282.64999)">
    <g
       id="g5192"
       transform="translate(68,16)">
      <path
         inkscape:connector-curvature="0"
         style="fill:#90a4ae;fill-opacity:1;stroke:none;stroke-width:1.46965909;stroke-linecap:round;stroke-linejoin:round;stroke-miterlimit:4;stroke-dasharray:none;stroke-opacity:1"
         d="m -52,267.65003 c 8.31,0 15,6.68984 15,14.99992 0,8.30994 -6.69,15 -15,15 -8.309999,0 -15,-6.69006 -15,-15 0,-8.31008 6.690001,-14.99992 15,-14.99992 z"
         id="path4628" />
      <path
         inkscape:connector-curvature="0"
         style="fill:url(#linearGradient4543-2);fill-opacity:1;stroke:none;stroke-width:1.40220487;stroke-linecap:round;stroke-linejoin:round;stroke-miterlimit:4;stroke-dasharray:none;stroke-opacity:1"
         d="m -51.999999,268.64998 c 7.755999,0 13.999999,6.24393 13.999999,13.99997 0,7.75605 -6.244,14.00009 -13.999999,14.00009 C -59.756,296.65004 -66,290.406 -66,282.64995 c 0,-7.75604 6.244,-13.99997 14.000001,-13.99997 z"
         id="path4630" />
      <path
         inkscape:connector-curvature="0"
         id="path845-9"
         d="m -51.995113,275.64918 a 1.0001,1.0001 0 0 0 -0.574219,0.17773 l -13,9 a 1.0001,1.0001 0 0 0 -0.04102,1.61524 l 13,10 a 1.0001,1.0001 0 0 0 1.220704,0 l 13,-10 a 1.0001,1.0001 0 0 0 -0.04102,-1.61524 l -13,-9 a 1.0001,1.0001 0 0 0 -0.564453,-0.17773 z m -0.0059,2.21484 11.304688,7.82813 -11.304688,8.69531 -11.302734,-8.69531 z"
         style="color:#000000;font-style:normal;font-variant:normal;font-weight:normal;font-stretch:normal;font-size:medium;line-height:normal;font-family:sans-serif;font-variant-ligatures:normal;font-variant-position:normal;font-variant-caps:normal;font-variant-numeric:normal;font-variant-alternates:normal;font-feature-settings:normal;text-indent:0;text-align:start;text-decoration:none;text-decoration-line:none;text-decoration-style:solid;text-decoration-color:#000000;letter-spacing:normal;word-spacing:normal;text-transform:none;writing-mode:lr-tb;direction:ltr;text-orientation:mixed;dominant-baseline:auto;baseline-shift:baseline;text-anchor:start;white-space:normal;shape-padding:0;clip-rule:nonzero;display:inline;overflow:visible;visibility:visible;opacity:1;isolation:auto;mix-blend-mode:normal;color-interpolation:sRGB;color-interpolation-filters:linearRGB;solid-color:#000000;solid-opacity:1;vector-effect:none;fill:#0c3996;fill-opacity:1;fill-rule:nonzero;stroke:none;stroke-width:2;stroke-linecap:round;stroke-linejoin:round;stroke-miterlimit:4;stroke-dasharray:none;stroke-dashoffset:0;stroke-opacity:1;color-rendering:auto;image-rendering:auto;shape-rendering:auto;text-rendering:auto;enable-background:accumulate" />
      <path
         inkscape:connector-curvature="0"
         id="path845-7-2"
         d="m -65.000096,285.64861 13,-9 13,9 -13,10 z"
         style="fill:url(#linearGradient4394);fill-opacity:1;stroke:none;stroke-width:1;stroke-linecap:round;stroke-linejoin:round;stroke-miterlimit:4;stroke-dasharray:none;stroke-opacity:1" />
      <path
         inkscape:connector-curvature="0"
         id="path847-0"
         d="m -61.012691,269.64918 a 1.0001,1.0001 0 0 0 -0.988282,1 v 12 a 1.0001,1.0001 0 0 0 1.554688,0.83203 l 9,-6 a 1.0001,1.0001 0 0 0 0,-1.66406 l -9,-6 a 1.0001,1.0001 0 0 0 -0.566406,-0.16797 z m 1.011718,2.86914 6.197266,4.13086 -6.197266,4.13086 z"
         style="color:#000000;font-style:normal;font-variant:normal;font-weight:normal;font-stretch:normal;font-size:medium;line-height:normal;font-family:sans-serif;font-variant-ligatures:normal;font-variant-position:normal;font-variant-caps:normal;font-variant-numeric:normal;font-variant-alternates:normal;font-feature-settings:normal;text-indent:0;text-align:start;text-decoration:none;text-decoration-line:none;text-decoration-style:solid;text-decoration-color:#000000;letter-spacing:normal;word-spacing:normal;text-transform:none;writing-mode:lr-tb;direction:ltr;text-orientation:mixed;dominant-baseline:auto;baseline-shift:baseline;text-anchor:start;white-space:normal;shape-padding:0;clip-rule:nonzero;display:inline;overflow:visible;visibility:visible;opacity:1;isolation:auto;mix-blend-mode:normal;color-interpolation:sRGB;color-interpolation-filters:linearRGB;solid-color:#000000;solid-opacity:1;vector-effect:none;fill:#0c3996;fill-opacity:1;fill-rule:nonzero;stroke:none;stroke-width:2;stroke-linecap:round;stroke-linejoin:round;stroke-miterlimit:4;stroke-dasharray:none;stroke-dashoffset:0;stroke-opacity:1;color-rendering:auto;image-rendering:auto;shape-rendering:auto;text-rendering:auto;enable-background:accumulate" />
      <path
         inkscape:connector-curvature="0"
         id="path847-5-6"
         d="m -61.000096,270.64861 v 12 l 9,-6 z"
         style="fill:url(#linearGradient990-4);fill-opacity:1;stroke:none;stroke-width:1;stroke-linecap:round;stroke-linejoin:round;stroke-miterlimit:4;stroke-dasharray:none;stroke-opacity:1" />
      <path
         inkscape:connector-curvature="0"
         id="path847-3-8"
         d="m -43.03027,269.64918 a 1.0001,1.0001 0 0 0 -0.52539,0.16797 l -9,6 a 1.0001,1.0001 0 0 0 0,1.66406 l 9,6 a 1.0001,1.0001 0 0 0 1.554687,-0.83203 v -12 a 1.0001,1.0001 0 0 0 -1.029297,-1 z m -0.970703,2.86914 v 8.26172 l -6.197265,-4.13086 z"
         style="color:#000000;font-style:normal;font-variant:normal;font-weight:normal;font-stretch:normal;font-size:medium;line-height:normal;font-family:sans-serif;font-variant-ligatures:normal;font-variant-position:normal;font-variant-caps:normal;font-variant-numeric:normal;font-variant-alternates:normal;font-feature-settings:normal;text-indent:0;text-align:start;text-decoration:none;text-decoration-line:none;text-decoration-style:solid;text-decoration-color:#000000;letter-spacing:normal;word-spacing:normal;text-transform:none;writing-mode:lr-tb;direction:ltr;text-orientation:mixed;dominant-baseline:auto;baseline-shift:baseline;text-anchor:start;white-space:normal;shape-padding:0;clip-rule:nonzero;display:inline;overflow:visible;visibility:visible;opacity:1;isolation:auto;mix-blend-mode:normal;color-interpolation:sRGB;color-interpolation-filters:linearRGB;solid-color:#000000;solid-opacity:1;vector-effect:none;fill:#0c3996;fill-opacity:1;fill-rule:nonzero;stroke:none;stroke-width:2;stroke-linecap:round;stroke-linejoin:round;stroke-miterlimit:4;stroke-dasharray:none;stroke-dashoffset:0;stroke-opacity:1;color-rendering:auto;image-rendering:auto;shape-rendering:auto;text-rendering:auto;enable-background:accumulate" />
      <path
         inkscape:connector-curvature="0"
         id="path847-3-3-9"
         d="m -43.000096,270.64861 v 12 l -9,-6 z"
         style="fill:url(#linearGradient1312-8);fill-opacity:1;stroke:none;stroke-width:1;stroke-linecap:round;stroke-linejoin:round;stroke-miterlimit:4;stroke-dasharray:none;stroke-opacity:1" />
      <path
         sodipodi:nodetypes="cccccccccccccccccccscccccccccccccccccccccccccccccccsccccccccccccccccc"
         style="color:#000000;font-style:normal;font-variant:normal;font-weight:normal;font-stretch:normal;font-size:medium;line-height:normal;font-family:sans-serif;font-variant-ligatures:normal;font-variant-position:normal;font-variant-caps:normal;font-variant-numeric:normal;font-variant-alternates:normal;font-feature-settings:normal;text-indent:0;text-align:start;text-decoration:none;text-decoration-line:none;text-decoration-style:solid;text-decoration-color:#000000;letter-spacing:normal;word-spacing:normal;text-transform:none;writing-mode:lr-tb;direction:ltr;text-orientation:mixed;dominant-baseline:auto;baseline-shift:baseline;text-anchor:start;white-space:normal;shape-padding:0;clip-rule:nonzero;display:inline;overflow:visible;visibility:visible;opacity:1;isolation:auto;mix-blend-mode:normal;color-interpolation:sRGB;color-interpolation-filters:linearRGB;solid-color:#000000;solid-opacity:1;vector-effect:none;fill:#0c3996;fill-opacity:1;fill-rule:nonzero;stroke:none;stroke-width:2;stroke-linecap:round;stroke-linejoin:round;stroke-miterlimit:4;stroke-dasharray:none;stroke-dashoffset:0;stroke-opacity:1;color-rendering:auto;image-rendering:auto;shape-rendering:auto;text-rendering:auto;enable-background:accumulate"
         d="m -52.03125,275.64868 c -0.01826,8e-4 -0.0365,0.002 -0.05469,0.004 -0.01109,0.001 -0.02216,0.002 -0.0332,0.004 -0.02422,0.003 -0.04832,0.007 -0.07226,0.0117 -0.0085,0.002 -0.01695,0.004 -0.02539,0.006 -0.01243,0.003 -0.0248,0.006 -0.03711,0.01 -0.02301,0.006 -0.04581,0.0122 -0.06836,0.0195 h -0.002 c -0.0033,10e-4 -0.0065,0.003 -0.0098,0.004 -0.02512,0.009 -0.04988,0.0185 -0.07422,0.0293 -0.0033,10e-4 -0.0065,0.003 -0.0098,0.004 -0.02458,0.0114 -0.04869,0.0238 -0.07226,0.0371 -0.02197,0.0122 -0.04346,0.0252 -0.06445,0.0391 l -0.0098,0.006 c -0.0059,0.004 -0.01176,0.008 -0.01758,0.0117 l -8.972518,5.98241 c -0.278184,0.18463 -0.445285,0.49684 -0.445312,0.83119 v 3 c 7.14e-4,0.45843 0.313031,0.85768 0.757813,0.96875 1.714664,0.42866 3.871926,1.83097 5.511718,3.58789 1.639791,1.75692 2.730469,3.86002 2.730469,5.44336 3.08e-4,0.0333 0.0023,0.0665 0.0059,0.0996 0.0078,0.0664 0.02216,0.1318 0.04297,0.19531 0.01021,0.0312 0.02194,0.0618 0.03516,0.0918 v 0.002 c 0.01352,0.03 0.02851,0.0593 0.04492,0.0879 0.01612,0.0295 0.03373,0.0582 0.05274,0.0859 0.01952,0.0271 0.04038,0.0532 0.0625,0.0781 0.02221,0.0253 0.04567,0.0494 0.07031,0.0723 0.115686,0.10878 0.255613,0.18845 0.408203,0.23242 0.0071,0.003 0.0143,0.005 0.02149,0.008 h 0.002 c 0.06455,0.017 0.130632,0.0274 0.197265,0.0312 0.133329,0.007 0.266813,-0.0117 0.392579,-0.0566 0.03119,-0.0109 0.06183,-0.0232 0.0918,-0.0371 6.68e-4,-6.7e-4 0.0013,-0.001 0.002,-0.002 0.01318,-0.007 0.0262,-0.014 0.03906,-0.0215 0.02807,-0.0143 0.05544,-0.03 0.08203,-0.0469 0.03188,-0.021 0.06253,-0.0438 0.0918,-0.0684 0.02378,-0.0204 0.0466,-0.0419 0.06836,-0.0645 0.01201,-0.0114 0.02373,-0.0231 0.03516,-0.0352 v -0.002 c 0.01776,-0.0201 0.0347,-0.041 0.05078,-0.0625 0.0046,-0.005 0.0092,-0.0104 0.01367,-0.0156 0.0189,-0.0265 0.0365,-0.0539 0.05273,-0.082 v -0.002 c 0.0054,-0.01 0.01058,-0.0195 0.01563,-0.0293 0.02623,-0.0482 0.04844,-0.0985 0.06641,-0.15039 0.01076,-0.0321 0.01988,-0.0647 0.02734,-0.0977 0.015,-0.0648 0.0235,-0.13083 0.02539,-0.19727 6.32e-4,-0.004 0.0012,-0.009 0.0018,-0.0136 0,-1.58335 1.09263,-3.68644 2.732422,-5.44336 1.639792,-1.75692 3.797055,-3.15924 5.511719,-3.58789 0.444009,-0.11182 0.755373,-0.51088 0.755862,-0.96875 v -3 c -2.7e-5,-0.33435 -0.167128,-0.64656 -0.445312,-0.83203 l -9,-6 c -0.0039,-0.002 -0.0078,-0.004 -0.01172,-0.006 -0.0013,-10e-4 -0.0026,-0.003 -0.0039,-0.004 -0.02287,-0.0146 -0.04633,-0.0283 -0.07031,-0.041 -0.0052,-0.003 -0.0104,-0.005 -0.01563,-0.008 -0.02489,-0.0128 -0.0503,-0.0245 -0.07617,-0.0352 -0.0052,-0.002 -0.0104,-0.004 -0.01563,-0.006 -0.02566,-0.0102 -0.05172,-0.0193 -0.07813,-0.0273 -0.03214,-0.009 -0.06473,-0.0173 -0.09766,-0.0234 -0.03295,-0.006 -0.0662,-0.0108 -0.09961,-0.0137 -0.02663,-0.002 -0.05334,-0.004 -0.08007,-0.004 -0.01172,-2.1e-4 -0.02344,-2.1e-4 -0.03516,0 z"
         id="path864-2"
         inkscape:connector-curvature="0" />
      <path
         sodipodi:nodetypes="ccccccc"
         inkscape:connector-curvature="0"
         id="path4303-2"
         d="m -52,295.64161 c 0,-4 6,-9.99162 9,-10 v -3 l -9,-6 -9,6 v 3 c 3,0.008 9,6 9,10 z"
         style="fill:url(#linearGradient4396);fill-opacity:1;stroke:none;stroke-width:1px;stroke-linecap:butt;stroke-linejoin:miter;stroke-opacity:1" />
      <path
         style="opacity:1;vector-effect:none;fill:#0c3996;fill-opacity:1;stroke:none;stroke-width:2;stroke-linecap:round;stroke-linejoin:round;stroke-miterlimit:4;stroke-dasharray:none;stroke-dashoffset:0;stroke-opacity:1"
         d="m -52,292.64866 c 1.108,0 2,0.892 2,2 0,1.108 -0.892,2 -2,2 -1.108,0 -2,-0.892 -2,-2 0,-1.108 0.892,-2 2,-2 z"
         id="rect1076-6"
         inkscape:connector-curvature="0" />
      <path
         style="opacity:1;vector-effect:none;fill:#ffffff;fill-opacity:1;stroke:none;stroke-width:2;stroke-linecap:round;stroke-linejoin:round;stroke-miterlimit:4;stroke-dasharray:none;stroke-dashoffset:0;stroke-opacity:1"
         d="m -52,293.64866 c 0.554,0 1,0.446 1,1 0,0.554 -0.446,1 -1,1 -0.554,0 -1,-0.446 -1,-1 0,-0.554 0.446,-1 1,-1 z"
         id="rect1078-4"
         inkscape:connector-curvature="0" />
    </g>
  </g>
</svg>
