<?xml version="1.0" encoding="UTF-8" standalone="no"?>
<!-- Created with Inkscape (http://www.inkscape.org/) -->

<svg
   xmlns:dc="http://purl.org/dc/elements/1.1/"
   xmlns:cc="http://creativecommons.org/ns#"
   xmlns:rdf="http://www.w3.org/1999/02/22-rdf-syntax-ns#"
   xmlns:svg="http://www.w3.org/2000/svg"
   xmlns="http://www.w3.org/2000/svg"
   xmlns:xlink="http://www.w3.org/1999/xlink"
   xmlns:sodipodi="http://sodipodi.sourceforge.net/DTD/sodipodi-0.dtd"
   xmlns:inkscape="http://www.inkscape.org/namespaces/inkscape"
   width="32"
   height="32"
   viewBox="0 0 32 32"
   version="1.1"
   id="svg8"
   inkscape:version="0.92.2 5c3e80d, 2017-08-06"
   sodipodi:docname="firefox.svg">
  <title
     id="title7895">Antu icon Theme</title>
  <defs
     id="defs2">
    <linearGradient
       gradientTransform="matrix(0.05882242,0,0,0.05951342,-28.776808,290.53014)"
       inkscape:collect="always"
       xlink:href="#linearGradient4704"
       id="linearGradient4706"
       x1="165.1734"
       y1="506.07745"
       x2="165.1734"
       y2="32.334621"
       gradientUnits="userSpaceOnUse" />
    <linearGradient
       inkscape:collect="always"
       id="linearGradient4704">
      <stop
         style="stop-color:#fd7a00;stop-opacity:1"
         offset="0"
         id="stop4700" />
      <stop
         style="stop-color:#ffbb00;stop-opacity:1"
         offset="1"
         id="stop4702" />
    </linearGradient>
    <linearGradient
       gradientTransform="matrix(3.779783,0,0,3.7793807,-23.785154,-805.32701)"
       gradientUnits="userSpaceOnUse"
       y2="290.51797"
       x2="2.8533657"
       y1="295.6868"
       x1="2.8533802"
       id="linearGradient4544"
       xlink:href="#linearGradient4680"
       inkscape:collect="always" />
    <linearGradient
       id="linearGradient4680"
       inkscape:collect="always">
      <stop
         id="stop4676"
         offset="0"
         style="stop-color:#0e73ec;stop-opacity:1" />
      <stop
         id="stop4678"
         offset="1"
         style="stop-color:#51beff;stop-opacity:1" />
    </linearGradient>
  </defs>
  <sodipodi:namedview
     id="base"
     pagecolor="#ffffff"
     bordercolor="#666666"
     borderopacity="1.0"
     inkscape:pageopacity="0.0"
     inkscape:pageshadow="2"
     inkscape:zoom="3.959798"
     inkscape:cx="-1.5071485"
     inkscape:cy="1.4401684"
     inkscape:document-units="px"
     inkscape:current-layer="layer1"
     showgrid="true"
     units="px"
     inkscape:window-width="1366"
     inkscape:window-height="697"
     inkscape:window-x="0"
     inkscape:window-y="0"
     inkscape:window-maximized="1"
     objecttolerance="10"
     gridtolerance="10"
     guidetolerance="10">
    <inkscape:grid
       type="xygrid"
       id="grid7897"
       empspacing="4" />
  </sodipodi:namedview>
  <metadata
     id="metadata5">
    <rdf:RDF>
      <cc:Work
         rdf:about="">
        <dc:format>image/svg+xml</dc:format>
        <dc:type
           rdf:resource="http://purl.org/dc/dcmitype/StillImage" />
        <dc:title>Antu icon Theme</dc:title>
      </cc:Work>
    </rdf:RDF>
  </metadata>
  <g
     inkscape:label="Capa 1"
     inkscape:groupmode="layer"
     id="layer1"
     transform="translate(0,-282.64999)">
    <g
       id="g1519"
       transform="translate(28.994811,-6.99938)">
      <path
         id="rect4496"
         d="m -13.17732,290.64999 c 8.310562,0 15.001014,6.68958 15.001014,14.99934 0,8.30961 -6.690452,14.99942 -15.001014,14.99942 -8.31056,0 -15.001013,-6.68981 -15.001013,-14.99942 0,-8.30976 6.690453,-14.99934 15.001013,-14.99934 z"
         style="fill:#0e44b2;fill-opacity:1;stroke:none;stroke-width:1.46968019;stroke-linecap:round;stroke-linejoin:round;stroke-miterlimit:4;stroke-dasharray:none;stroke-opacity:1"
         inkscape:connector-curvature="0" />
      <path
         id="rect4570-9-6"
         d="m -13.177319,291.6499 c 7.756523,0 14.00094504,6.24369 14.00094504,13.99943 0,7.75575 -6.24442204,13.99954 -14.00094504,13.99954 -7.756525,0 -14.000947,-6.24379 -14.000947,-13.99954 0,-7.75574 6.244422,-13.99943 14.000947,-13.99943 z"
         style="fill:url(#linearGradient4544);fill-opacity:1;stroke:none;stroke-width:1.40222502;stroke-linecap:round;stroke-linejoin:round;stroke-miterlimit:4;stroke-dasharray:none;stroke-opacity:1"
         inkscape:connector-curvature="0" />
      <path
         inkscape:connector-curvature="0"
         d="m 2.550244,300.88727 -0.363404,2.35822 c 0,0 -0.519343,-4.3659 -1.155919,-5.99837 -0.97568796,-2.50134 -1.40973796,-2.48097 -1.41291396,-2.4773 0.653517,1.68008 0.534695,2.5829 0.534695,2.5829 0,0 -1.15780104,-3.1926 -4.21874304,-4.20819 -3.391053,-1.12462 -5.225783,-0.81714 -5.437544,-0.75898 -0.03216,-2.6e-4 -0.06323,-3e-4 -0.09277,-3e-4 0.02494,0.002 0.04935,0.004 0.0743,0.008 -0.0011,6.8e-4 -0.0028,10e-4 -0.0025,0.002 0.01372,0.0151 3.746988,0.66004 4.409093,1.58069 0,0 -1.585735,0 -3.163881,0.4601 -0.07136,0.0189 5.80636,0.7428 7.008102,6.68516 0,0 -0.6444,-1.36 -1.441267,-1.591 0.52405,1.61281 0.389522,4.67361 -0.109527,6.19478 -0.06424,0.19577 -0.129937,-0.84563 -1.112979,-1.29414 0.314996,2.28294 -0.01882,5.90374 -1.584146,6.90059 -0.121997,0.0779 0.981275,-3.57439 0.221821,-2.16211 -4.37227,6.78214 -9.540407,3.12978 -11.863893,1.52229 1.190742,0.26229 3.451346,-0.0408 4.45168,-0.79397 0.0013,-9.1e-4 0.0024,-0.002 0.0036,-0.003 1.086627,-0.75172 1.730085,-1.3006 2.308192,-1.17073 0.578224,0.13076 0.963158,-0.45651 0.514049,-0.97739 -0.449639,-0.52186 -1.541148,-1.23915 -3.018179,-0.84832 -1.041627,0.2759 -2.332543,1.44202 -4.302859,0.26153 -1.512325,-0.9066 -1.654674,-1.65975 -1.668145,-2.18138 0.0373,-0.18481 0.08436,-0.35753 0.140173,-0.51532 0.174055,-0.49189 0.701928,-0.6403 0.995511,-0.7575 0.498049,0.0865 0.927099,0.24377 1.37768,0.47729 0.0058,-0.15155 0.0077,-0.35299 -5.3e-4,-0.58149 0.04317,-0.0869 0.01648,-0.34884 -0.05276,-0.66895 -0.03988,-0.31936 -0.104765,-0.65013 -0.206879,-0.95131 3.52e-4,0 5.8e-5,-3e-4 9.41e-4,-4.1e-4 0.0017,-8e-5 0.0033,-10e-4 0.0048,-0.002 0.0024,-10e-4 0.0045,-0.004 0.0064,-0.008 3.53e-4,-4e-5 9.41e-4,-9.9e-4 0.0014,-0.002 0.0025,-0.004 0.0047,-0.008 0.0061,-0.0151 0.03122,-0.14324 0.368347,-0.41898 0.787926,-0.71597 0.375993,-0.26606 0.818043,-0.54854 1.166273,-0.76725 0.308229,-0.1935 0.542871,-0.3375 0.592929,-0.37492 0.0189,-0.0151 0.04158,-0.0302 0.06629,-0.0506 0.0046,-0.004 0.0092,-0.008 0.01387,-0.0113 0.0029,-0.002 0.0058,-0.004 0.0088,-0.008 0.165702,-0.13341 0.412933,-0.38583 0.464991,-0.9168 1.17e-4,-0.001 2.94e-4,-0.002 3.53e-4,-0.004 0.0015,-0.0151 0.0028,-0.0302 0.0039,-0.0476 8.83e-4,-0.0113 0.0015,-0.0227 0.0022,-0.034 4.12e-4,-0.008 10e-4,-0.0189 0.0014,-0.0265 9.41e-4,-0.0227 0.0015,-0.0423 0.0018,-0.0639 0,-0.001 6e-6,-0.002 1.17e-4,-0.004 7.06e-4,-0.0514 -1.76e-4,-0.10507 -0.0032,-0.16138 -0.0016,-0.0302 -0.0038,-0.0593 -0.0091,-0.0854 -2.34e-4,-10e-4 -5.9e-5,-0.003 -8.81e-4,-0.004 -5.3e-4,-0.002 -0.0011,-0.004 -0.0018,-0.008 -0.0011,-0.004 -0.0024,-0.008 -0.0037,-0.0151 -1.78e-4,-5.3e-4 -3.53e-4,-9.8e-4 -5.31e-4,-10e-4 -0.0016,-0.004 -0.0034,-0.0113 -0.0053,-0.0151 -1.18e-4,-1.5e-4 -1.18e-4,-2.6e-4 -1.77e-4,-4.5e-4 -0.0537,-0.12737 -0.254878,-0.17537 -1.085802,-0.18973 -7.65e-4,0 -0.0015,0 -0.0023,0 -0.339054,-0.008 -0.782397,-0.008 -1.363505,-0.004 -1.018626,0.004 -1.581676,-1.00751 -1.761378,-1.39894 0.246348,-1.37834 0.958217,-2.36011 2.127607,-3.02607 0.02211,-0.0113 0.01776,-0.0227 -0.0084,-0.0302 0.228624,-0.13979 -2.764672,-0.004 -4.141705,1.76804 -1.221956,-0.30726 -2.287053,-0.28648 -3.205154,-0.0688 -0.176289,-0.004 -0.395933,-0.0265 -0.656693,-0.082 -0.610518,-0.55965 -1.484678,-1.59328 -1.531148,-2.8269 0,0 -0.0028,0.002 -0.0077,0.008 -6.47e-4,-0.0113 -0.0018,-0.0227 -0.0022,-0.034 0,0 -1.860141,1.44641 -1.581734,5.38951 -7.06e-4,0.0631 -0.002,0.12358 -0.0037,0.18217 -0.50339,0.69084 -0.753209,1.27149 -0.771738,1.39969 -0.445933,0.91888 -0.898571,2.30168 -1.266918,4.40094 0,0 0.257585,-0.82651 0.774633,-1.76267 -0.380228,1.17857 -0.679046,3.01157 -0.503578,5.76091 0,0 0.04641,-0.60962 0.210583,-1.48767 0.128293,1.70517 0.689928,3.81006 2.109607,6.28582 2.725243,4.75216 6.913987,7.15233 11.543899,7.5201 0.82216,0.0684 1.655851,0.0703 2.494659,0.008 0.07711,-0.004 0.154173,-0.0113 0.231231,-0.0189 0.948806,-0.0673 1.903553,-0.2124 2.856534,-0.44521 13.025637,-3.18632 11.609781,-19.10023 11.609781,-19.10023"
         id="path5200"
         style="fill:url(#linearGradient4706);fill-opacity:1;stroke-width:0.05916689" />
      <path
         inkscape:connector-curvature="0"
         id="path5200-5"
         d="m -7.952835,291.66904 c -0.877381,-0.0545 -1.299111,0.0152 -1.539167,0.0723 -0.01442,-0.002 -0.02731,-0.003 -0.03907,-0.004 l 0.03125,-0.004 c -0.02262,-1.8e-4 -0.04327,5e-5 -0.06446,0 -0.01027,-2e-5 -0.02137,0 -0.03125,0 a 0.40384999,0.40380701 0 0 0 -0.0332,0.80466 c 3.8e-4,10e-5 0.0016,-1e-4 0.002,0 0.001,8e-5 9.5e-4,-8e-5 0.0019,0 0.01069,0.003 0.01735,0.004 0.02344,0.006 0.01315,0.003 0.02573,0.005 0.04102,0.008 0.03057,0.006 0.07096,0.015 0.123055,0.0254 0.104192,0.0208 0.251012,0.0499 0.429717,0.0879 0.357411,0.0759 0.839888,0.18611 1.337981,0.32226 0.498093,0.13614 1.0126,0.30038 1.427831,0.47849 0.01434,0.006 0.01327,0.0113 0.02735,0.0176 -0.603185,0.0345 -1.078143,-0.001 -2.168115,0.31445 -3e-6,0 -0.0019,-2e-5 -0.002,0 -0.0032,0.002 -0.177649,0.10145 -0.177746,0.10155 -9.8e-5,9e-5 -0.04891,0.51939 -0.04883,0.51951 8.2e-5,1.2e-4 0.138421,0.12486 0.138681,0.125 2.6e-4,1.4e-4 0.04155,0.0192 0.05274,0.0234 0.04477,0.0168 0.04792,0.0151 0.0586,0.0176 0.02135,0.005 0.03621,0.008 0.05664,0.0117 0.04087,0.008 0.09738,0.0193 0.171887,0.0352 0.149006,0.0317 0.36847,0.0819 0.636762,0.16016 0.536582,0.15659 1.271123,0.4244 2.041153,0.86714 1.071849,0.61629 2.070278,1.75952 2.855663,3.23621 -9.77e-4,-2.8e-4 -9.76e-4,-0.002 -0.002,-0.002 a 0.40384999,0.40380701 0 0 0 -0.496128,0.51365 c 0.401917,1.23694 0.310276,3.52094 0.0098,5.07402 -0.189654,-0.24066 -0.309896,-0.49726 -0.679733,-0.66599 a 0.40384999,0.40380701 0 0 0 -0.568398,0.42186 c 0.150909,1.09371 0.146366,2.54087 -0.08399,3.80454 -0.04927,0.27028 -0.149828,0.4724 -0.220718,0.71873 8.15e-4,-0.0309 0.01677,-0.0707 0.01563,-0.10157 -0.0026,-0.0709 0.03715,-0.16188 -0.128915,-0.33592 -0.08303,-0.087 -0.265292,-0.14565 -0.382838,-0.12499 -0.117546,0.0206 -0.173429,0.0691 -0.214858,0.1035 -0.165715,0.13743 -0.200291,0.23718 -0.302755,0.42773 l 0.01758,-0.0274 c -2.128995,3.30244 -4.315494,3.97597 -6.310973,3.72641 -1.47095,-0.18395 -2.749058,-0.90388 -3.83815,-1.59955 0.343183,-0.0144 0.632257,0.054 0.986394,-0.004 0.878738,-0.14362 1.73415,-0.40524 2.330236,-0.85348 h 0.002 c 0.544348,-0.37694 0.976775,-0.69918 1.308682,-0.89255 0.334521,-0.19489 0.532837,-0.2402 0.671921,-0.20897 0.434701,0.098 0.877435,-0.0848 1.080151,-0.43748 0.202716,-0.35272 0.138896,-0.83677 -0.171887,-1.19722 -0.54114,-0.62805 -1.785253,-1.41114 -3.427966,-0.97653 -1.234054,0.32687 -2.187471,1.3869 -3.990504,0.30663 -0.718659,-0.43081 -1.07754,-0.80602 -1.259851,-1.10152 -0.17517,-0.28392 -0.197855,-0.4952 -0.205092,-0.71481 0.0314,-0.14315 0.06719,-0.28136 0.109383,-0.40038 0.0848,-0.23962 0.376603,-0.33605 0.668014,-0.45116 0.398963,0.0822 0.756705,0.19652 1.138749,0.39453 a 0.40384999,0.40380701 0 0 0 0.589883,-0.34179 c 0.0063,-0.16257 0.0067,-0.37247 -0.0019,-0.61131 l -0.04111,0.19531 c 0.109172,-0.21872 0.06883,-0.32007 0.05664,-0.46287 -0.01128,-0.13217 -0.03737,-0.28021 -0.07032,-0.43748 v -0.004 c -0.03366,-0.26875 -0.103349,-0.54481 -0.179699,-0.81637 0.02492,-0.0274 0.05685,-0.0609 0.107429,-0.10547 0.12158,-0.10717 0.302575,-0.24474 0.505893,-0.38865 0.364176,-0.25771 0.800626,-0.5386 1.146562,-0.75583 0.152963,-0.0962 0.288059,-0.18063 0.392605,-0.24609 0.104546,-0.0655 0.159134,-0.0946 0.230484,-0.14843 a 0.40384999,0.40380701 0 0 0 0.0078,-0.006 c -0.0014,0.001 0.0281,-0.0212 0.0625,-0.0488 0.0049,-0.004 0.0044,-0.001 0.0098,-0.006 a 0.40384999,0.40380701 0 0 0 0.0078,-0.008 c 0.0032,-0.003 -0.0062,0.004 -0.01367,0.01 -7.46e-4,5.7e-4 0.0203,-0.02 0.02735,-0.0254 0.206996,-0.16776 0.546789,-0.54668 0.609416,-1.18549 2.6e-5,-2.3e-4 -9.3e-5,-0.003 0,-0.004 3.61e-4,-0.004 0.0016,-0.008 0.002,-0.0117 7.54e-4,-0.008 -2.54e-4,-0.007 0,-0.0156 7.87e-4,-0.009 0.0032,-0.0172 0.0039,-0.0274 v -0.006 c 10e-4,-0.0141 0.0015,-0.0272 0.002,-0.0351 a 0.40384999,0.40380701 0 0 0 0,-0.004 c 3.66e-4,-0.007 0.0014,-0.0181 0.002,-0.0312 8.99e-4,-0.0217 0.0016,-0.0415 0.002,-0.0625 1.71e-4,-0.003 -9.2e-5,-0.007 0,-0.0117 a 0.40384999,0.40380701 0 0 0 0,-0.004 c 8.24e-4,-0.0599 -5.12e-4,-0.12408 -0.0039,-0.18946 -0.0016,-0.0293 -0.0052,-0.0704 -0.01172,-0.11327 -5.21e-4,-0.004 -0.0018,-0.0132 -0.0039,-0.0234 -0.0034,-0.0164 -0.0061,-0.0297 -0.0078,-0.0371 v -0.002 a 0.40384999,0.40380701 0 0 0 0,-0.002 c -1.79e-4,-7.8e-4 -0.0019,-0.006 -0.002,-0.006 a 0.40384999,0.40380701 0 0 0 -0.0097,-0.0345 c -1.65e-4,-5e-4 -0.0016,-0.003 -0.002,-0.004 -0.0014,-0.004 -0.003,-0.009 -0.0059,-0.0156 -6.34e-4,-0.002 6.49e-4,-0.002 0,-0.004 0.004,0.01 -0.0067,-0.0138 -0.0039,-0.008 0.0026,0.005 -0.0032,-0.01 -0.002,-0.008 a 0.40384999,0.40380701 0 0 0 -0.0039,-0.006 c -1.77e-4,-4.2e-4 1.79e-4,-0.002 0,-0.002 -3.81e-4,-0.001 -9.66e-4,-0.001 -0.002,-0.004 -0.0044,-0.0116 0.01135,0.0207 -0.0078,-0.0176 a 0.40384999,0.40380701 0 0 0 -0.03907,-0.0625 c 0.0022,0.004 0.01041,0.0214 0.01953,0.0391 -0.01264,-0.0196 -0.02537,-0.039 -0.02539,-0.0391 0,0 -0.01087,0.009 -0.01172,0.01 -0.05168,-0.0758 -0.106178,-0.15698 -0.1797,-0.19922 -0.101214,-0.0581 -0.19678,-0.084 -0.302754,-0.1035 -0.211948,-0.0391 -0.477764,-0.0515 -0.900452,-0.0586 h -0.0098 c -0.345781,-0.008 -0.788147,-0.008 -1.365326,-0.004 h -0.0019 c -0.374419,8.3e-4 -0.659387,-0.17769 -0.900499,-0.42772 -0.202342,-0.20983 -0.320164,-0.43975 -0.410184,-0.61717 0.248179,-1.20007 0.839177,-2.03162 1.880987,-2.62489 l -0.01758,0.008 c 0.03484,-0.0178 0.08196,-0.0402 0.140635,-0.11133 0.01467,-0.0178 0.02878,-0.0386 0.04297,-0.0645 0.0142,-0.0259 0.03693,-0.0911 0.03711,-0.0918 2.39e-4,-8.9e-4 -6.96e-4,-0.0814 -0.002,-0.14844 9.95e-4,-0.0167 0.002,-0.0427 0.002,-0.043 -8e-6,-6e-5 -0.0035,-0.008 -0.0039,-0.01 -1.23e-4,-0.005 4.5e-5,-0.0253 0,-0.0254 -1.34e-4,-4.4e-4 -0.01685,-0.0349 -0.0293,-0.0625 -0.0073,-0.0216 -0.01546,-0.0485 -0.01563,-0.0488 -4.91e-4,-8.7e-4 -0.0485,-0.0707 -0.07227,-0.0937 -0.02377,-0.023 -0.04716,-0.0403 -0.06641,-0.0527 -0.153979,-0.0994 -0.185555,-0.0707 -0.240251,-0.0762 -0.109392,-0.0109 -0.223812,-0.008 -0.373072,0.004 -0.29852,0.0229 -0.712481,0.0852 -1.183674,0.21092 -0.881284,0.23519 -1.940744,0.7253 -2.70917,1.59565 -1.171529,-0.25566 -2.246603,-0.28064 -3.158417,-0.0645 l 0.101569,-0.0117 c -0.118412,-0.003 -0.287131,-0.0264 -0.460969,-0.0566 -0.562794,-0.53435 -1.293993,-1.45058 -1.332121,-2.4628 a 0.40384999,0.40380701 0 0 0 -0.0293,-0.13671 0.40384999,0.40380701 0 0 0 -0.002,-0.008 0.40384999,0.40380701 0 0 0 -0.0059,-0.0117 0.40384999,0.40380701 0 0 0 -0.623089,-0.17382 c 0,0 -0.54762,0.43545 -1.009833,1.35346 -0.462213,0.918 -0.872461,2.34462 -0.728565,4.38265 -1.86e-4,0.0126 -0.0017,0.0247 -0.002,0.0371 -0.216787,0.31052 -0.405447,0.60918 -0.525426,0.84176 -0.06864,0.13306 -0.120557,0.25034 -0.160168,0.34765 -0.03935,0.0967 -0.06713,0.15266 -0.08399,0.26757 -1.12e-4,7.6e-4 1.11e-4,10e-4 0,0.002 -3.717291,9.31739 2.511511,20.60461 13.23527,21.17691 6.44e-4,6e-5 0.0013,-5e-5 0.0019,0 0.843526,0.0701 1.697356,0.0714 2.556814,0.004 l -0.0098,0.002 c 0.08442,-0.004 0.163428,-0.0122 0.238297,-0.0195 l 0.01172,-0.002 c 0.966758,-0.0692 1.940405,-0.2176 2.912306,-0.45507 6.666779,-1.63086 9.68302004,-6.56392 10.981211,-11.02301 1.282469,-4.40508 0.944014,-8.34481 0.93561,-8.44107 a 0.40384999,0.40380701 0 0 0 0,-0.0625 0.40384999,0.40380701 0 0 0 -0.002,-0.0195 0.40384999,0.40380701 0 0 0 -0.0039,-0.0215 0.40384999,0.40380701 0 0 0 -0.0039,-0.0176 0.40384999,0.40380701 0 0 0 -0.0059,-0.0215 0.40384999,0.40380701 0 0 0 -0.0059,-0.0176 0.40384999,0.40380701 0 0 0 -0.0332,-0.0723 0.40384999,0.40380701 0 0 0 -0.68364,-0.0254 c -0.207764,-1.26742 -0.472974,-2.69002 -0.808569,-3.55064 -0.49534496,-1.2699 -0.85590396,-1.91724 -1.12507596,-2.2753 -0.134587,-0.17904 -0.246788,-0.2881 -0.3594,-0.36132 -0.0563,-0.0366 -0.113181,-0.0629 -0.173839,-0.0801 -0.03033,-0.009 -0.06011,-0.015 -0.09571,-0.0176 -0.0178,-10e-4 -0.03543,-0.002 -0.0625,0 -0.01354,9.9e-4 -0.05638,0.008 -0.05664,0.008 -1.3e-4,3e-5 -0.05852,0.0176 -0.05859,0.0176 -3.8e-5,10e-6 0.142589,0.37694 0.142589,0.37694 a 0.40384999,0.40380701 0 0 0 -0.37698,0.14648 c 0.04282,0.11008 0.03033,0.1453 0.06641,0.24803 -0.71294204,-0.91668 -1.73850704,-1.90197 -3.24631804,-2.40224 -1.726619,-0.57263 -3.068636,-0.78503 -4.013943,-0.84372 z m -1.611437,0.0723 v 0.004 c -0.0066,0.002 -0.04072,2.6e-4 -0.04688,0.002 z m 4.049102,1.25777 c 0.482959,0.11496 0.744444,0.0876 1.322355,0.27928 2.849745,0.94552 3.96511104,3.96273 3.96511104,3.96273 a 0.40384999,0.40380701 0 0 0 0.781303,-0.084 c 0,0 -0.0087,-0.1813 -0.0059,-0.23241 0.04781,0.11649 0.05655,0.0903 0.107429,0.22069 0.28753,0.73736 0.58511896,2.24295 0.79302196,3.52916 0.207902,1.28621 0.337913,2.36905 0.337913,2.36905 a 0.40384999,0.40380701 0 0 0 0.34182,0.35155 c -0.07989,1.49442 -0.285119,3.42035 -0.884824,5.48025 -1.25026396,4.29447 -4.03844,8.91088 -10.397188,10.4664 -0.930146,0.22727 -1.862239,0.36782 -2.789251,0.43357 a 0.40384999,0.40380701 0 0 0 -0.01172,0.002 c -0.07602,0.007 -0.147275,0.0142 -0.212905,0.0176 a 0.40384999,0.40380701 0 0 0 -0.0098,0 c -0.817501,0.0642 -1.629683,0.0627 -2.429852,-0.004 a 0.40384999,0.40380701 0 0 0 -0.01172,0 c -10.216783,-0.53721 -16.110809,-11.32269 -12.516396,-20.16327 a 0.40384999,0.40380701 0 0 0 0.02539,-0.0937 c -0.0076,0.0524 0.005,-0.0109 0.0332,-0.0801 0.02817,-0.0692 0.07181,-0.16675 0.130869,-0.28123 0.118117,-0.22898 0.296473,-0.5298 0.535192,-0.8574 a 0.40384999,0.40380701 0 0 0 0.07813,-0.2285 c 0.0016,-0.0602 0.0012,-0.12178 0.002,-0.18749 a 0.40384999,0.40380701 0 0 0 0,-0.0332 c -0.134509,-1.90508 0.24632,-3.17176 0.644575,-3.96274 0.204726,-0.4066 0.255349,-0.38469 0.402372,-0.55465 0.303421,0.9957 0.889453,1.83812 1.400485,2.30655 a 0.40384999,0.40380701 0 0 0 0.187513,0.0977 c 0.284189,0.0605 0.529467,0.0852 0.732471,0.0898 a 0.40384999,0.40380701 0 0 0 0.101569,-0.01 c 0.855597,-0.20286 1.849965,-0.22661 3.013876,0.0664 a 0.40384999,0.40380701 0 0 0 0.417997,-0.14258 c 0.60461,-0.77802 1.6158,-1.23438 2.457197,-1.45892 0.09571,-0.0256 0.146293,-0.0231 0.236344,-0.043 -0.675324,0.66329 -1.203292,1.44378 -1.386812,2.4706 a 0.40384999,0.40380701 0 0 0 0.0293,0.24023 c 0.101542,0.22119 0.303053,0.60681 0.642621,0.95895 0.339568,0.35212 0.845103,0.67828 1.488382,0.67575 0.579693,-0.004 1.020903,-0.004 1.351654,0.004 a 0.40384999,0.40380701 0 0 0 0.0098,0 c 0.375578,0.006 0.589087,0.0226 0.709033,0.041 0,0.01 1.28e-4,0.02 0,0.0293 -6.4e-5,0.003 0,0.009 0,0.01 -2.6e-4,0.0155 -0.0012,0.0294 -0.002,0.0469 -8e-5,0.002 -0.0015,0.0126 -0.002,0.0215 l 0.002,-0.004 c -8.28e-4,0.0134 -0.0016,0.0224 -0.002,0.0273 a 0.40384999,0.40380701 0 0 0 -0.002,0.006 c -7.64e-4,0.0121 -8.02e-4,0.0216 -0.002,0.0332 a 0.40384999,0.40380701 0 0 0 0,0.006 c -2.1e-5,2.2e-4 4.6e-5,0.002 0,0.002 -0.04159,0.41735 -0.191991,0.53846 -0.316427,0.63865 a 0.40384999,0.40380701 0 0 0 -0.02344,0.0195 c -8.8e-4,7.8e-4 -0.0032,0.003 -0.0039,0.004 a 0.40384999,0.40380701 0 0 0 -0.0039,0.004 c -4.3e-4,3.8e-4 -0.0036,0.002 -0.0039,0.002 -0.0079,0.006 -0.01835,0.0136 -0.05274,0.041 l 0.0078,-0.008 c 0.02129,-0.0161 -0.06759,0.0453 -0.169933,0.10936 -0.102347,0.0641 -0.239291,0.14843 -0.394558,0.24609 -0.350521,0.22011 -0.795863,0.50483 -1.183674,0.77926 -0.216265,0.15309 -0.414585,0.30261 -0.574257,0.44334 -0.07984,0.0704 -0.150052,0.13811 -0.212905,0.21289 -0.0275,0.0327 -0.04463,0.0937 -0.07032,0.13281 a 0.40384999,0.40380701 0 0 0 -0.0019,0.002 c -0.0024,0.002 -0.01367,0.01 -0.01367,0.01 0,0 0.0038,0.002 0.0039,0.002 0.0024,-0.003 0.0038,-0.003 0.0059,-0.006 -0.0018,0.003 -0.0022,0.007 -0.0039,0.01 0.01171,0.0107 0.292989,0.26757 0.292989,0.26757 2.7e-5,-3e-5 0.0604,0.14209 0.107429,0.25195 l -0.107429,0.15039 c 0,0 0,-0.40234 0,-0.40234 a 0.40384999,0.40380701 0 0 0 -0.382839,0.12891 c 0.09,0.26545 0.152012,0.57078 0.189466,0.87105 a 0.40384999,0.40380701 0 0 0 0.0059,0.0352 c 0.03209,0.1485 0.05288,0.28116 0.06055,0.37108 0.0077,0.0899 -0.04061,0.16543 0.02539,0.0332 a 0.40384999,0.40380701 0 0 0 -0.04297,0.1953 c 5.5e-5,0.002 -5.5e-5,0.002 0,0.004 -0.294577,-0.11441 -0.576979,-0.25563 -0.904358,-0.31249 a 0.40384999,0.40380701 0 0 0 -0.218765,0.0234 c -0.247808,0.0989 -0.975468,0.28627 -1.226645,0.99605 -0.06308,0.17795 -0.113651,0.36887 -0.154308,0.5703 a 0.40384999,0.40380701 0 0 0 -0.0078,0.0918 c 0.0075,0.2925 0.06174,0.70831 0.332054,1.14645 0.270314,0.43813 0.737687,0.8933 1.531354,1.36908 a 0.40384999,0.40380701 0 0 0 0,0.002 c 2.137597,1.28072 3.764395,0.006 4.613593,-0.21874 1.311351,-0.34694 2.251416,0.30698 2.609551,0.72263 0.138328,0.16044 0.10602,0.22924 0.08399,0.26757 -0.02203,0.0383 -0.05961,0.0831 -0.203139,0.0508 -0.439024,-0.0986 -0.852552,0.0657 -1.255944,0.30077 -0.403392,0.23502 -0.83502,0.56069 -1.371186,0.93161 a 0.40384999,0.40380701 0 0 0 -0.0098,0.008 0.40384999,0.40380701 0 0 0 -0.0078,0.006 c -0.404192,0.30433 -1.178011,0.5706 -1.976696,0.70114 -0.798684,0.13054 -1.633651,0.13405 -2.144676,0.0215 a 0.40384999,0.40380701 0 0 0 -0.316428,0.72653 c 1.159273,0.80206 3.081582,2.17008 5.344112,2.45304 2.012317,0.25166 4.2657302,-0.53924 6.3207392,-3.14051 -0.03274,0.1333 -0.06787,0.28072 -0.09571,0.39647 -0.03772,0.15683 -0.06802,0.28969 -0.0879,0.39452 -0.0099,0.0524 -0.0181,0.0915 -0.02149,0.15428 -0.0017,0.0314 -0.01664,0.0562 0.02149,0.17187 0.0048,0.0145 0.01066,0.0303 0.01953,0.0488 0.0089,0.0186 0.03685,0.0621 0.03711,0.0625 5.17e-4,7.2e-4 0.16732,0.13643 0.16798,0.13671 6.6e-4,2.9e-4 0.239445,0.0275 0.24025,0.0274 4.03e-4,-8e-5 0.08355,-0.0272 0.08399,-0.0274 4.39e-4,-1.8e-4 0.04282,-0.0193 0.0586,-0.0293 0.958541,-0.61044 1.428712,-1.86952 1.677848,-3.23621 0.189937,-1.04194 0.129063,-2.09427 0.06836,-3.09558 0.03722,0.0579 0.134102,0.10463 0.16212,0.16015 0.06138,0.12163 0.09682,0.22553 0.132821,0.3164 0.018,0.0454 -0.0115,0.0627 0.117196,0.20116 0.01609,0.0173 0.03767,0.0371 0.06836,0.0586 0.01535,0.0108 0.03161,0.0227 0.05274,0.0332 0.02112,0.0105 0.07366,0.0272 0.07422,0.0273 0.0011,3.2e-4 0.186419,0.008 0.187513,0.008 5.48e-4,-1e-4 0.08931,-0.029 0.08985,-0.0293 5.39e-4,-2.4e-4 0.05025,-0.0248 0.07031,-0.0391 0.160469,-0.11392 0.148253,-0.18428 0.16212,-0.22655 0.453532,-1.38243 0.520571,-3.60873 0.228531,-5.37479 0.06401,0.0743 0.13185,0.0912 0.187513,0.16991 0.238462,0.3374 0.386745,0.64841 0.386745,0.64841 a 0.40384999,0.40380701 0 0 0 0.75981704,-0.25389 c -0.0069,-0.0341 -0.02211,-0.0581 -0.0293,-0.0918 0,0 -0.002,-0.002 -0.002,-0.002 -0.64606104,-3.02909 -2.48235904,-4.78418 -4.14476904,-5.74003 -0.555871,-0.3196 -0.999,-0.4517 -1.466896,-0.62302 0.499801,-0.0438 1.404392,-0.20312 1.404392,-0.20312 a 0.40384999,0.40380701 0 0 0 0.326194,-0.6406 c -0.164931,-0.23062 -0.461604,-0.3492 -0.726599,-0.49343 z m -11.399208,8.46256 a 0.40384999,0.40380701 0 0 0 -0.0039,0.004 c 0.0012,-0.002 0.0027,-4.6e-4 0.0039,-0.002 -2.6e-5,-2e-5 2e-5,-0.002 0,-0.002 z m 1.076244,-8.00555 c -0.02767,0.0161 -0.04114,0.044 -0.06836,0.0605 0.0026,-0.003 0.0052,-0.009 0.0078,-0.0117 0.02833,-0.0343 0.04076,-0.035 0.06055,-0.0488 z m 1.939585,5.05449 c 3.2e-5,6e-5 0.0019,-8e-5 0.002,0 7e-5,1.3e-4 -8.7e-5,0.002 0,0.002 -3.68e-4,-10e-4 -0.0016,-9.4e-4 -0.002,-0.002 z m 0.0039,0.008 c 3.53e-4,6.8e-4 0.0015,0.003 0.002,0.004 0.0048,0.009 0.01277,0.0204 0.02344,0.041 -0.0046,-0.007 -0.0127,-0.0106 -0.01563,-0.0176 -4.01e-4,-9.9e-4 -0.0016,-0.001 -0.002,-0.002 l -0.002,-0.004 c 2e-6,1e-5 -0.0012,-0.006 -0.002,-0.008 l -0.002,-0.004 c 2.3e-5,9e-5 1e-6,-0.002 0,-0.002 -2.58e-4,-7.7e-4 2.75e-4,-10e-4 0,-0.002 -1.52e-4,-6.9e-4 1.6e-4,-10e-4 0,-0.002 l -0.002,-0.002 c -2.96e-4,-8.8e-4 2.99e-4,-0.001 0,-0.002 z m -2.804877,2.8202 c -0.02306,0.006 -0.03875,0.0108 -0.05665,0.0156 0.01509,-0.005 0.03343,-0.0118 0.03321,-0.0117 -1.04e-4,2e-5 0.01457,-0.003 0.02344,-0.004 z m -0.09376,0.0332 c -0.01923,0.0137 -0.06467,0.0463 -0.09571,0.0684 0.01756,-0.0159 0.03938,-0.0373 0.03907,-0.0371 -3.92e-4,2.9e-4 0.03276,-0.0178 0.05664,-0.0312 z m -0.128915,0.0977 a 0.40384999,0.40380701 0 0 0 -0.01563,0.0215 c 0.0034,-0.004 0.0074,-0.008 0.01367,-0.0156 0.0017,-0.002 1.5e-4,-0.004 0.002,-0.006 z m -0.03125,0.0469 a 0.40384999,0.40380701 0 0 0 -0.01563,0.0254 0.40384999,0.40380701 0 0 0 -0.002,0.006 0.40384999,0.40380701 0 0 0 -0.0078,0.0156 0.40384999,0.40380701 0 0 0 -0.0039,0.008 0.40384999,0.40380701 0 0 0 -0.0019,0.008 c 0.0018,-0.004 0.008,-0.0159 0.01563,-0.0312 0.002,-0.004 0.0073,-0.0107 0.0098,-0.0156 0.0019,-0.004 0.0046,-0.0134 0.0059,-0.0156 z m -0.03516,0.0899 c -0.0014,0.006 -0.0046,0.006 -0.0059,0.0117 a 0.40384999,0.40380701 0 0 0 -0.002,0.01 c 0.0015,-0.008 0.005,-0.0127 0.0078,-0.0215 z m 0.527379,0.49607 c 7e-6,2e-5 0,0.002 0,0.002 1.3e-5,-10e-6 -0.01059,0.003 -0.01367,0.004 0.0064,-0.002 0.0081,-0.004 0.01367,-0.006 z m -0.07813,0.0234 c -0.01169,0.003 -0.02936,0.008 -0.0293,0.008 l -0.04102,0.002 c 3.06e-4,0 0.04236,-0.006 0.07032,-0.01 z"
         style="color:#000000;font-style:normal;font-variant:normal;font-weight:normal;font-stretch:normal;font-size:medium;line-height:normal;font-family:sans-serif;font-variant-ligatures:normal;font-variant-position:normal;font-variant-caps:normal;font-variant-numeric:normal;font-variant-alternates:normal;font-feature-settings:normal;text-indent:0;text-align:start;text-decoration:none;text-decoration-line:none;text-decoration-style:solid;text-decoration-color:#000000;letter-spacing:normal;word-spacing:normal;text-transform:none;writing-mode:lr-tb;direction:ltr;text-orientation:mixed;dominant-baseline:auto;baseline-shift:baseline;text-anchor:start;white-space:normal;shape-padding:0;clip-rule:nonzero;display:inline;overflow:visible;visibility:visible;opacity:1;isolation:auto;mix-blend-mode:normal;color-interpolation:sRGB;color-interpolation-filters:linearRGB;solid-color:#000000;solid-opacity:1;vector-effect:none;fill:#cc4900;fill-opacity:1;fill-rule:nonzero;stroke:none;stroke-width:0.80757624;stroke-linecap:round;stroke-linejoin:round;stroke-miterlimit:4;stroke-dasharray:none;stroke-dashoffset:0;stroke-opacity:1;color-rendering:auto;image-rendering:auto;shape-rendering:auto;text-rendering:auto;enable-background:accumulate" />
    </g>
  </g>
</svg>
