<?xml version="1.0" encoding="UTF-8" standalone="no"?>
<!-- Created with Inkscape (http://www.inkscape.org/) -->

<svg
   xmlns:dc="http://purl.org/dc/elements/1.1/"
   xmlns:cc="http://creativecommons.org/ns#"
   xmlns:rdf="http://www.w3.org/1999/02/22-rdf-syntax-ns#"
   xmlns:svg="http://www.w3.org/2000/svg"
   xmlns="http://www.w3.org/2000/svg"
   xmlns:xlink="http://www.w3.org/1999/xlink"
   xmlns:sodipodi="http://sodipodi.sourceforge.net/DTD/sodipodi-0.dtd"
   xmlns:inkscape="http://www.inkscape.org/namespaces/inkscape"
   width="32"
   height="32"
   viewBox="0 0 8.4666665 8.4666669"
   version="1.1"
   id="svg8"
   inkscape:version="0.92.2 5c3e80d, 2017-08-06"
   sodipodi:docname="firefox-developer.svg">
  <defs
     id="defs2">
    <linearGradient
       gradientTransform="matrix(0.01556238,0,0,0.01574687,-5.3315372,288.48717)"
       inkscape:collect="always"
       xlink:href="#linearGradient4704"
       id="linearGradient4706"
       x1="183.20261"
       y1="522.90125"
       x2="183.20261"
       y2="136.44878"
       gradientUnits="userSpaceOnUse" />
    <linearGradient
       inkscape:collect="always"
       id="linearGradient4704">
      <stop
         style="stop-color:#017cbf;stop-opacity:1"
         offset="0"
         id="stop4700" />
      <stop
         style="stop-color:#02cbf6;stop-opacity:1"
         offset="1"
         id="stop4702" />
    </linearGradient>
    <linearGradient
       gradientTransform="translate(2.8635177,-2.1641817)"
       inkscape:collect="always"
       xlink:href="#linearGradient4878"
       id="linearGradient4880"
       x1="-4.3325524"
       y1="296.23932"
       x2="-4.3325524"
       y2="290.94763"
       gradientUnits="userSpaceOnUse" />
    <linearGradient
       inkscape:collect="always"
       id="linearGradient4878">
      <stop
         style="stop-color:#0a3666;stop-opacity:1"
         offset="0"
         id="stop4874" />
      <stop
         style="stop-color:#1280d9;stop-opacity:1"
         offset="1"
         id="stop4876" />
    </linearGradient>
  </defs>
  <sodipodi:namedview
     id="base"
     pagecolor="#ffffff"
     bordercolor="#666666"
     borderopacity="1.0"
     inkscape:pageopacity="0.0"
     inkscape:pageshadow="2"
     inkscape:zoom="11.2"
     inkscape:cx="14.4264"
     inkscape:cy="10.586792"
     inkscape:document-units="px"
     inkscape:current-layer="layer1"
     showgrid="true"
     units="px"
     inkscape:window-width="1366"
     inkscape:window-height="697"
     inkscape:window-x="0"
     inkscape:window-y="0"
     inkscape:window-maximized="1">
    <inkscape:grid
       type="xygrid"
       id="grid927" />
  </sodipodi:namedview>
  <metadata
     id="metadata5">
    <rdf:RDF>
      <cc:Work
         rdf:about="">
        <dc:format>image/svg+xml</dc:format>
        <dc:type
           rdf:resource="http://purl.org/dc/dcmitype/StillImage" />
        <dc:title />
      </cc:Work>
    </rdf:RDF>
  </metadata>
  <g
     inkscape:label="Capa 1"
     inkscape:groupmode="layer"
     id="layer1"
     transform="translate(0,-288.53332)">
    <g
       id="g5869"
       transform="translate(5.3908854,0.27875889)">
      <path
         id="path4628-6"
         d="m -1.2044509,288.51889 c 2.19868748,0 3.9687498,1.77002 3.9687498,3.96873 0,2.19867 -1.77006232,3.96875 -3.9687498,3.96875 -2.1986873,0 -3.9687501,-1.77008 -3.9687501,-3.96875 0,-2.19871 1.7700628,-3.96873 3.9687501,-3.96873 z"
         style="fill:#0a3666;fill-opacity:1;stroke:none;stroke-width:0.38884729;stroke-linecap:round;stroke-linejoin:round;stroke-miterlimit:4;stroke-dasharray:none;stroke-opacity:1"
         inkscape:connector-curvature="0" />
      <path
         id="path4630-1"
         d="m -1.2044506,288.78346 c 2.05210798,0 3.7041661,1.65204 3.7041661,3.70416 0,2.05212 -1.65205812,3.70419 -3.7041661,3.70419 -2.0521086,0 -3.704167,-1.65207 -3.704167,-3.70419 0,-2.05212 1.6520584,-3.70416 3.704167,-3.70416 z"
         style="fill:url(#linearGradient4880);fill-opacity:1;stroke:none;stroke-width:0.37100005;stroke-linecap:round;stroke-linejoin:round;stroke-miterlimit:4;stroke-dasharray:none;stroke-opacity:1"
         inkscape:connector-curvature="0" />
      <path
         style="fill:url(#linearGradient4706);fill-opacity:1;stroke-width:0.01565435"
         id="path5200"
         d="m 2.9565189,291.2276 -0.096144,0.62397 c 0,0 -0.1374002,-1.15519 -0.3058162,-1.58712 -0.2581334,-0.66185 -0.3729681,-0.65646 -0.3738084,-0.65548 0.1728981,0.44453 0.1414619,0.68341 0.1414619,0.68341 0,0 -0.3063143,-0.84474 -1.1161337,-1.11346 -0.89715552,-0.29757 -1.38256172,-0.21621 -1.43858642,-0.20082 -0.00851,-6e-5 -0.01673,-8e-5 -0.024543,-8e-5 0.0066,5.2e-4 0.013057,10e-4 0.019656,0.002 -2.91e-4,1.8e-4 -7.408e-4,3.5e-4 -6.615e-4,4.5e-4 0.00363,0.004 0.9913237,0.17463 1.1664937,0.41823 0,0 -0.4195307,0 -0.8370535,0.12174 -0.018878,0.005 1.53616232,0.19654 1.85410152,1.76885 0,0 -0.1704858,-0.35985 -0.3813093,-0.42096 0.1386454,0.42674 0.1030542,1.2366 -0.028977,1.63909 -0.016994,0.0518 -0.034377,-0.22375 -0.2944559,-0.34242 0.083337,0.60405 -0.00498,1.56209 -0.41911032,1.82585 -0.032276,0.0205 0.25961162,-0.94576 0.058686,-0.57208 -1.1567514,1.79451 -2.52406198,0.82813 -3.13877608,0.40279 0.3150293,0.0694 0.913107,-0.0108 1.1777609,-0.21008 3.44e-4,-2.4e-4 6.35e-4,-4.5e-4 9.525e-4,-7.2e-4 0.28748408,-0.19889 0.45772068,-0.34413 0.61066788,-0.30977 0.1529781,0.0345 0.2548184,-0.12079 0.1359995,-0.25861 -0.1189588,-0.13808 -0.4077343,-0.32786 -0.79850558,-0.22446 -0.2755786,0.073 -0.6171105,0.38155 -1.138388,0.0692 -0.4001088,-0.23989 -0.4377696,-0.43917 -0.4413335,-0.57719 0.00987,-0.0489 0.022318,-0.0946 0.037085,-0.13635 0.046049,-0.13015 0.1857058,-0.16942 0.2633776,-0.20043 0.1317668,0.0229 0.2452786,0.0645 0.3644866,0.12629 0.00153,-0.0401 0.00204,-0.0934 -1.402e-4,-0.15386 0.011422,-0.023 0.00436,-0.0923 -0.013959,-0.177 -0.010552,-0.0845 -0.027717,-0.17202 -0.054733,-0.25171 9.31e-5,0 1.53e-5,-8e-5 2.49e-4,-1.1e-4 4.498e-4,-2e-5 8.731e-4,-3.2e-4 0.00127,-5.8e-4 6.35e-4,-3.7e-4 0.00119,-9.3e-4 0.00169,-0.002 9.34e-5,-2e-5 2.49e-4,-2.7e-4 3.704e-4,-4.3e-4 6.615e-4,-0.001 0.00124,-0.002 0.00161,-0.004 0.00826,-0.0379 0.097452,-0.11086 0.208458,-0.18944 0.099475,-0.0704 0.216426,-0.14514 0.3085555,-0.20301 0.081547,-0.0512 0.1436251,-0.0892 0.1568686,-0.0992 0.005,-0.004 0.011001,-0.008 0.017539,-0.0134 0.00122,-9.6e-4 0.00243,-0.002 0.00367,-0.003 7.673e-4,-5.9e-4 0.00153,-0.001 0.00233,-0.002 0.043839,-0.0353 0.1092477,-0.10209 0.1230206,-0.24258 3.1e-5,-3.5e-4 7.78e-5,-6.6e-4 9.34e-5,-10e-4 3.969e-4,-0.004 7.409e-4,-0.008 0.00103,-0.0126 2.336e-4,-0.003 3.969e-4,-0.006 5.821e-4,-0.009 1.09e-4,-0.002 2.646e-4,-0.005 3.704e-4,-0.007 2.49e-4,-0.006 3.969e-4,-0.0112 4.762e-4,-0.0169 0,-3.3e-4 1.6e-6,-6.2e-4 3.1e-5,-9.6e-4 1.868e-4,-0.0136 -4.66e-5,-0.0278 -8.467e-4,-0.0427 -4.233e-4,-0.008 -0.00101,-0.0157 -0.00241,-0.0226 -6.21e-5,-3.6e-4 -1.56e-5,-7.5e-4 -2.333e-4,-0.001 -1.4e-4,-6.6e-4 -2.911e-4,-10e-4 -4.763e-4,-0.002 -2.91e-4,-0.001 -6.35e-4,-0.002 -9.789e-4,-0.004 -4.69e-5,-1.5e-4 -9.34e-5,-2.7e-4 -1.4e-4,-3.8e-4 -4.233e-4,-10e-4 -8.996e-4,-0.003 -0.0014,-0.004 -3.12e-5,-5e-5 -3.12e-5,-8e-5 -4.68e-5,-1.3e-4 -0.014208,-0.0337 -0.067432,-0.0464 -0.2872658,-0.0502 -2.024e-4,-10e-6 -3.969e-4,-10e-6 -6.086e-4,-10e-6 -0.089702,-0.002 -0.2069952,-0.002 -0.3607361,-9.7e-4 -0.2694934,0.001 -0.4184568,-0.26658 -0.4659997,-0.37015 0.065175,-0.3647 0.253511,-0.62447 0.5628912,-0.80068 0.00585,-0.003 0.0047,-0.006 -0.00222,-0.008 0.060491,-0.037 -0.7314319,-0.001 -1.0957471,0.46779 -0.3232883,-0.0813 -0.6050763,-0.0758 -0.847974,-0.0182 -0.04664,-0.001 -0.1047503,-0.007 -0.1737384,-0.0217 -0.1615219,-0.14808 -0.3927944,-0.42157 -0.4050887,-0.74797 0,0 -7.461e-4,5.9e-4 -0.00204,0.002 -1.712e-4,-0.003 -4.657e-4,-0.006 -5.927e-4,-0.009 0,0 -0.4921291,0.38271 -0.4184724,1.42603 -1.867e-4,0.0167 -5.291e-4,0.0327 -9.657e-4,0.0482 -0.1331794,0.18279 -0.1992728,0.33643 -0.204175,0.37035 -0.1179784,0.24313 -0.2377309,0.60901 -0.3351825,1.16446 0,0 0.068148,-0.21869 0.204941,-0.46639 -0.1005953,0.31184 -0.1796521,0.79684 -0.1332296,1.5243 0,0 0.012279,-0.1613 0.055713,-0.39362 0.033942,0.45118 0.1825312,1.00811 0.5581292,1.66318 0.7210051,1.25739 1.8292021,1.89246 3.0541169,1.98977 0.2175153,0.0181 0.438081,0.0186 0.66000048,0.002 0.020402,-0.001 0.040789,-0.003 0.061176,-0.005 0.2510213,-0.0178 0.5036143,-0.0562 0.7557402,-0.11781 3.44613342,-0.84308 3.07154692,-5.05379 3.07154692,-5.05379"
         inkscape:connector-curvature="0" />
      <path
         sodipodi:nodetypes="cccccccccccccccccccccccccccccccccccccccccccccccccccccccccccccccccccccccccccccc"
         style="fill:none;stroke:#0a3666;stroke-width:0.21366814;stroke-linecap:round;stroke-linejoin:round;stroke-miterlimit:4;stroke-dasharray:none;stroke-opacity:1"
         id="path5200-5"
         d="m 2.9564975,291.1618 -0.096144,0.62397 c 0,0 -0.1374,-1.15519 -0.3058163,-1.58713 -0.2581333,-0.66184 -0.3729681,-0.65645 -0.3738084,-0.65548 0.1728981,0.44454 0.1414622,0.68341 0.1414622,0.68341 0,0 -0.3063145,-0.84473 -1.1161343,-1.11345 -0.89715572,-0.29757 -1.38256192,-0.21621 -1.43858662,-0.20082 -0.00851,-6e-5 -0.01673,-8e-5 -0.02454,-8e-5 0.0066,5.2e-4 0.013057,0.001 0.019656,0.002 -2.91e-4,1.7e-4 -7.143e-4,3.5e-4 -6.35e-4,4.4e-4 0.00362,0.004 0.991324,0.17463 1.1664943,0.41824 0,0 -0.4195308,0 -0.8370541,0.12174 -0.018875,0.005 1.53616292,0.19653 1.85410232,1.76884 0,0 -0.1704858,-0.35985 -0.3813095,-0.42096 0.1386453,0.42674 0.1030541,1.2366 -0.028977,1.63909 -0.016994,0.0518 -0.034378,-0.22375 -0.2944558,-0.34242 0.083337,0.60405 -0.00498,1.56209 -0.41911062,1.82585 -0.032276,0.0205 0.25961182,-0.94576 0.058686,-0.57208 -1.1567517,1.79451 -2.52406278,0.82813 -3.13877688,0.40279 0.3150293,0.0694 0.9131072,-0.0108 1.1777612,-0.21008 3.44e-4,-2.4e-4 6.085e-4,-4.5e-4 9.525e-4,-7.1e-4 0.28748408,-0.1989 0.45772068,-0.34413 0.61066808,-0.30977 0.1529781,0.0345 0.2548184,-0.12079 0.1359993,-0.25861 -0.1189585,-0.13808 -0.4077343,-0.32786 -0.79850588,-0.22446 -0.2755783,0.073 -0.6171104,0.38155 -1.1383878,0.0692 -0.4001092,-0.23988 -0.43777,-0.43916 -0.441334,-0.57718 0.00987,-0.0489 0.022318,-0.0947 0.037085,-0.13636 0.046049,-0.13014 0.185706,-0.16941 0.2633776,-0.20041 0.131767,0.0229 0.2452788,0.0644 0.3644868,0.12628 0.00156,-0.0402 0.00204,-0.0935 -1.402e-4,-0.15387 0.011422,-0.023 0.00436,-0.0922 -0.013959,-0.17699 -0.010552,-0.0846 -0.027716,-0.17201 -0.054733,-0.25171 9.34e-5,0 1.56e-5,-8e-5 2.49e-4,-1.1e-4 4.498e-4,-10e-6 8.731e-4,-3.5e-4 0.0013,-5.9e-4 6.35e-4,-3.7e-4 0.00116,-9.2e-4 0.00169,-0.002 9.34e-5,-2e-5 2.489e-4,-2.6e-4 3.439e-4,-4.2e-4 6.615e-4,-0.001 0.00124,-0.002 0.00161,-0.004 0.00827,-0.0379 0.097451,-0.11085 0.2084583,-0.18943 0.099475,-0.0704 0.216426,-0.14514 0.3085552,-0.203 0.081547,-0.0513 0.1436251,-0.0892 0.1568689,-0.0992 0.005,-0.004 0.011001,-0.008 0.017542,-0.0134 0.00122,-9.7e-4 0.00243,-0.002 0.00367,-0.003 7.409e-4,-6e-4 0.00156,-10e-4 0.00233,-0.002 0.043839,-0.0353 0.109248,-0.10208 0.1230206,-0.24258 3.13e-5,-3.4e-4 7.78e-5,-6.5e-4 9.34e-5,-10e-4 3.969e-4,-0.004 7.409e-4,-0.008 0.00103,-0.0126 2.331e-4,-0.003 3.969e-4,-0.006 5.821e-4,-0.009 1.09e-4,-0.002 2.646e-4,-0.005 3.44e-4,-0.007 2.492e-4,-0.006 3.968e-4,-0.0112 4.762e-4,-0.0169 0,-3.3e-4 1.6e-6,-6.3e-4 3.1e-5,-9.7e-4 1.87e-4,-0.0136 -4.66e-5,-0.0278 -8.202e-4,-0.0427 -4.234e-4,-0.008 -0.00103,-0.0157 -0.00241,-0.0227 -6.19e-5,-3.6e-4 -1.53e-5,-7.5e-4 -2.333e-4,-0.001 -1.402e-4,-6.5e-4 -2.911e-4,-10e-4 -4.498e-4,-0.002 -2.91e-4,-0.001 -6.085e-4,-0.002 -9.79e-4,-0.004 -4.65e-5,-1.4e-4 -9.34e-5,-2.6e-4 -1.399e-4,-3.7e-4 -4.234e-4,-10e-4 -8.996e-4,-0.003 -0.0014,-0.004 -3.12e-5,-4e-5 -3.12e-5,-8e-5 -4.69e-5,-1.2e-4 -0.014208,-0.0337 -0.067431,-0.0464 -0.2872657,-0.0502 h -6.026e-4 c -0.089701,-0.002 -0.2069952,-0.002 -0.3607361,-9.7e-4 -0.2694937,10e-4 -0.418457,-0.26658 -0.466,-0.37014 0.065175,-0.36471 0.2535113,-0.62449 0.5628915,-0.80069 0.00585,-0.003 0.00469,-0.006 -0.00222,-0.008 0.06047,-0.0371 -0.7314533,-0.001 -1.0957685,0.46781 -0.3233316,-0.0814 -0.6051196,-0.0759 -0.8480171,-0.0182 -0.046636,-0.001 -0.1047506,-0.007 -0.1737385,-0.0217 -0.1615224,-0.14808 -0.3927946,-0.42157 -0.4050886,-0.74798 0,0 -7.488e-4,6e-4 -0.00202,0.002 -1.72e-4,-0.003 -4.656e-4,-0.006 -5.926e-4,-0.009 0,0 -0.492129,0.38271 -0.4184724,1.42603 -1.872e-4,0.0167 -5.292e-4,0.0327 -9.631e-4,0.0482 -0.1331847,0.18279 -0.1992777,0.33643 -0.2041801,0.37035 -0.9777366,2.40503 0.6287309,5.33574 3.4044881,5.48171 0.2175152,0.0181 0.4380809,0.0185 0.66000038,0.001 0.020402,-0.001 0.040789,-0.003 0.061175,-0.005 0.2510213,-0.0178 0.5036143,-0.0562 0.7557405,-0.11781 C 3.3313,295.37131 2.9567135,291.1606 2.9567135,291.1606"
         inkscape:connector-curvature="0" />
    </g>
  </g>
</svg>
