<?xml version="1.0" encoding="UTF-8" standalone="no"?>
<!-- Created with Inkscape (http://www.inkscape.org/) -->

<svg
   xmlns:dc="http://purl.org/dc/elements/1.1/"
   xmlns:cc="http://creativecommons.org/ns#"
   xmlns:rdf="http://www.w3.org/1999/02/22-rdf-syntax-ns#"
   xmlns:svg="http://www.w3.org/2000/svg"
   xmlns="http://www.w3.org/2000/svg"
   xmlns:xlink="http://www.w3.org/1999/xlink"
   xmlns:sodipodi="http://sodipodi.sourceforge.net/DTD/sodipodi-0.dtd"
   xmlns:inkscape="http://www.inkscape.org/namespaces/inkscape"
   width="32"
   height="32"
   viewBox="0 0 8.4666662 8.4666664"
   version="1.1"
   id="svg1399"
   inkscape:version="0.92.4 5da689c313, 2019-01-14"
   sodipodi:docname="gimp.svg">
  <defs
     id="defs1393">
    <linearGradient
       gradientUnits="userSpaceOnUse"
       y2="289.85794"
       x2="5.0542812"
       y1="295.41418"
       x1="5.0542812"
       id="linearGradient3667"
       xlink:href="#linearGradient4622-1"
       inkscape:collect="always"
       gradientTransform="translate(-9.4746998,3.5264618)" />
    <linearGradient
       id="linearGradient4622-1"
       inkscape:collect="always">
      <stop
         id="stop4618-8"
         offset="0"
         style="stop-color:#ab7747;stop-opacity:1" />
      <stop
         id="stop4620-9"
         offset="1"
         style="stop-color:#af8f70;stop-opacity:1" />
    </linearGradient>
    <linearGradient
       gradientUnits="userSpaceOnUse"
       y2="11.999997"
       x2="13"
       y1="16.999998"
       x1="13"
       id="linearGradient3395"
       xlink:href="#linearGradient4582-3"
       inkscape:collect="always"
       gradientTransform="matrix(0.26458332,0,0,0.26458332,-9.1829185,291.53229)" />
    <linearGradient
       inkscape:collect="always"
       id="linearGradient4582-3">
      <stop
         style="stop-color:#e3e3e3;stop-opacity:1"
         offset="0"
         id="stop4578-9" />
      <stop
         style="stop-color:#fcfcfc;stop-opacity:1"
         offset="1"
         id="stop4580-0" />
    </linearGradient>
    <linearGradient
       gradientUnits="userSpaceOnUse"
       y2="12.999997"
       x2="14"
       y1="15.999997"
       x1="13"
       id="linearGradient3404"
       xlink:href="#linearGradient1500"
       inkscape:collect="always"
       gradientTransform="matrix(0.26458332,0,0,0.26458332,-9.1829185,291.53229)" />
    <linearGradient
       id="linearGradient1500"
       inkscape:collect="always">
      <stop
         id="stop1496"
         offset="0"
         style="stop-color:#262626;stop-opacity:1" />
      <stop
         id="stop1498"
         offset="1"
         style="stop-color:#333333;stop-opacity:1" />
    </linearGradient>
    <linearGradient
       gradientUnits="userSpaceOnUse"
       y2="211.58504"
       x2="-204.7401"
       y1="213.65314"
       x1="-205.2827"
       id="linearGradient3386"
       xlink:href="#linearGradient1500"
       inkscape:collect="always"
       gradientTransform="matrix(0.72007586,-0.69389526,0.70066087,0.71349438,-9.4746998,3.5264618)" />
    <linearGradient
       inkscape:collect="always"
       xlink:href="#linearGradient4582-3"
       id="linearGradient1222"
       x1="-5.2411966"
       y1="297.616"
       x2="-5.2411966"
       y2="292.32434"
       gradientUnits="userSpaceOnUse" />
  </defs>
  <sodipodi:namedview
     id="base"
     pagecolor="#ffffff"
     bordercolor="#666666"
     borderopacity="1.0"
     inkscape:pageopacity="0.0"
     inkscape:pageshadow="2"
     inkscape:zoom="11.2"
     inkscape:cx="2.7331582"
     inkscape:cy="16.431848"
     inkscape:document-units="px"
     inkscape:current-layer="g4522"
     showgrid="true"
     inkscape:showpageshadow="false"
     units="px"
     inkscape:window-width="1920"
     inkscape:window-height="991"
     inkscape:window-x="0"
     inkscape:window-y="0"
     inkscape:window-maximized="1">
    <inkscape:grid
       type="xygrid"
       id="grid4524" />
  </sodipodi:namedview>
  <metadata
     id="metadata1396">
    <rdf:RDF>
      <cc:Work
         rdf:about="">
        <dc:format>image/svg+xml</dc:format>
        <dc:type
           rdf:resource="http://purl.org/dc/dcmitype/StillImage" />
        <dc:title></dc:title>
      </cc:Work>
    </rdf:RDF>
  </metadata>
  <g
     inkscape:label="Capa 1"
     inkscape:groupmode="layer"
     id="layer1"
     transform="translate(0,-288.53338)">
    <g
       id="g4522"
       transform="translate(9.2099465,-2.9972068)">
      <path
         style="opacity:1;vector-effect:none;fill:#90a4ae;fill-opacity:1;stroke:none;stroke-width:0.51927477;stroke-linecap:round;stroke-linejoin:round;stroke-miterlimit:4;stroke-dasharray:none;stroke-dashoffset:0;stroke-opacity:1;paint-order:normal"
         d="m -8.1516127,292.05975 h 5.8208333 c 0.2931583,0 0.5291666,0.23601 0.5291666,0.52917 v 5.82083 c 0,0.29316 -0.2360083,0.52917 -0.5291666,0.52917 h -5.8208333 c -0.2931583,0 -0.5291667,-0.23601 -0.5291667,-0.52917 v -5.82083 c 0,-0.29316 0.2360084,-0.52917 0.5291667,-0.52917 z"
         id="rect842"
         inkscape:connector-curvature="0" />
      <path
         style="opacity:1;vector-effect:none;fill:#c4c4c4;fill-opacity:1;stroke:none;stroke-width:0.47933054;stroke-linecap:round;stroke-linejoin:round;stroke-miterlimit:4;stroke-dasharray:none;stroke-dashoffset:0;stroke-opacity:1;paint-order:normal"
         d="m -8.1516134,292.32434 h 5.8208333 c 0.1465791,0 0.2645833,0.118 0.2645833,0.26458 v 5.82084 c 0,0.14658 -0.1180042,0.26458 -0.2645833,0.26458 h -5.8208333 c -0.1465792,0 -0.2645833,-0.118 -0.2645833,-0.26458 v -5.82084 c 0,-0.14658 0.1180041,-0.26458 0.2645833,-0.26458 z"
         id="rect842-3"
         inkscape:connector-curvature="0" />
      <path
         style="opacity:1;vector-effect:none;fill:url(#linearGradient1222);fill-opacity:1;stroke:none;stroke-width:0.52916664;stroke-linecap:round;stroke-linejoin:round;stroke-miterlimit:4;stroke-dasharray:none;stroke-dashoffset:0;stroke-opacity:1;paint-order:normal"
         d="m -8.1516132,292.32434 c -0.1465654,0 -0.2645833,0.11803 -0.2645833,0.26459 v 0.52916 0.26459 h 0.2645833 0.5291667 0.2645833 v -0.26459 -0.52916 -0.26459 h -0.2645833 z m 0.79375,1.05834 v 1.05833 h 1.0583333 v -1.05833 z m 1.0583333,0 h 1.0583333 v -1.05834 h -1.0583333 z m 1.0583333,0 v 1.05833 h 1.0583332 v -1.05833 z m 1.0583332,0 h 1.0583333 v -1.05834 h -1.0583333 z m 1.0583333,0 v 1.05833 h 1.0583333 v -1.05833 z m 0,1.05833 h -1.0583333 v 1.05833 h 1.0583333 z m 0,1.05833 v 1.05834 h 1.0583333 v -1.05834 z m 0,1.05834 h -1.0583333 v 1.05833 h 1.0583333 z m 0,1.05833 v 0.26458 0.52917 0.26458 h 0.2645833 0.5291667 c 0.1465654,0 0.2645833,-0.11801 0.2645833,-0.26458 v -0.52917 -0.26458 h -0.2645833 -0.5291667 z m -1.0583333,0 h -1.0583332 v 1.05833 h 1.0583332 z m -1.0583332,0 v -1.05833 h -1.0583333 v 1.05833 z m -1.0583333,0 h -1.0583333 v 1.05833 h 1.0583333 z m -1.0583333,0 v -1.05833 h -1.0583333 v 1.05833 z m 0,-1.05833 h 1.0583333 v -1.05834 h -1.0583333 z m 0,-1.05834 v -1.05833 h -1.0583333 v 1.05833 z m 1.0583333,0 h 1.0583333 v -1.05833 h -1.0583333 z m 1.0583333,0 v 1.05834 h 1.0583332 v -1.05834 z"
         id="rect859-6"
         inkscape:connector-curvature="0" />
      <g
         transform="translate(1.7015625e-4,0.52916338)"
         id="g1130">
        <path
           inkscape:connector-curvature="0"
           style="color:#000000;font-style:normal;font-variant:normal;font-weight:normal;font-stretch:normal;font-size:medium;line-height:normal;font-family:sans-serif;font-variant-ligatures:normal;font-variant-position:normal;font-variant-caps:normal;font-variant-numeric:normal;font-variant-alternates:normal;font-feature-settings:normal;text-indent:0;text-align:start;text-decoration:none;text-decoration-line:none;text-decoration-style:solid;text-decoration-color:#000000;letter-spacing:normal;word-spacing:normal;text-transform:none;writing-mode:lr-tb;direction:ltr;text-orientation:mixed;dominant-baseline:auto;baseline-shift:baseline;text-anchor:start;white-space:normal;shape-padding:0;clip-rule:nonzero;display:inline;overflow:visible;visibility:visible;opacity:1;isolation:auto;mix-blend-mode:normal;color-interpolation:sRGB;color-interpolation-filters:linearRGB;solid-color:#000000;solid-opacity:1;vector-effect:none;fill:#6a492c;fill-opacity:1;fill-rule:nonzero;stroke:none;stroke-width:0.52916664;stroke-linecap:round;stroke-linejoin:round;stroke-miterlimit:4;stroke-dasharray:none;stroke-dashoffset:0;stroke-opacity:1;color-rendering:auto;image-rendering:auto;shape-rendering:auto;text-rendering:auto;enable-background:accumulate"
           d="m -1.2542041,292.85521 a 0.26460981,0.26460981 0 0 0 -0.2072224,0.1111 c -0.7135495,1.00114 -1.4586929,1.77306 -2.2809977,1.97301 -0.8223049,0.19995 -1.8070123,-0.11136 -3.1346921,-1.47485 a 0.26460981,0.26460981 0 0 0 -0.4314981,0.078 c 0,0 -1.0540624,2.40509 -0.00207,4.96869 a 0.26460981,0.26460981 0 0 0 0.1700148,0.15451 c 1.6450527,0.49015 2.8531743,0.63146 3.7672117,0.49196 0.9140375,-0.1395 1.5325616,-0.58898 1.8908408,-1.21284 0.71655802,-1.24773 0.51172422,-3.07962 0.50177802,-4.82607 a 0.26460981,0.26460981 0 0 0 -0.27336842,-0.26354 z"
           id="path2499-1" />
        <path
           style="fill:url(#linearGradient3667);fill-opacity:1;stroke:none;stroke-width:0.52916664;stroke-linecap:round;stroke-linejoin:round;stroke-miterlimit:4;stroke-dasharray:none;stroke-opacity:1"
           d="m -7.0934494,293.64726 c 2.7209499,2.79434 4.3693619,1.5073 5.8208324,-0.52917 0.020074,3.52465 0.67555322,7.22729 -5.8208324,5.29167 -1.0063179,-2.4523 0,-4.7625 0,-4.7625 z"
           id="path2484-2"
           inkscape:connector-curvature="0"
           sodipodi:nodetypes="cccc" />
        <path
           inkscape:connector-curvature="0"
           id="rect2465-9"
           d="m -4.685002,294.17812 c -0.5413015,0 -1.0029222,0.32295 -1.2081949,0.78651 -0.1837788,-0.31159 -0.5190858,-0.52193 -0.9084717,-0.52193 -0.5863167,0 -1.0583333,0.47203 -1.0583333,1.05834 0,0.58632 0.4720166,1.05833 1.0583333,1.05833 0.3893859,0 0.7246929,-0.21034 0.9084717,-0.52193 0.2052727,0.46356 0.6668934,0.78651 1.2081949,0.78651 0.7328958,0 1.3229166,-0.59002 1.3229166,-1.32291 0,-0.7329 -0.5900208,-1.32292 -1.3229166,-1.32292 z"
           style="opacity:1;vector-effect:none;fill:#a6a6a6;fill-opacity:1;stroke:none;stroke-width:2.64583325;stroke-linecap:round;stroke-linejoin:round;stroke-miterlimit:4;stroke-dasharray:none;stroke-dashoffset:0;stroke-opacity:1;paint-order:normal" />
        <path
           inkscape:connector-curvature="0"
           id="rect2465-3-6-3"
           d="m -4.685002,294.4427 c -0.5863167,0 -1.0583333,0.47203 -1.0583333,1.05834 0,0.58632 0.4720166,1.05833 1.0583333,1.05833 0.5863166,0 1.0583332,-0.47201 1.0583332,-1.05833 0,-0.58631 -0.4720166,-1.05834 -1.0583332,-1.05834 z m -2.1166666,0.26459 c -0.4397375,0 -0.79375,0.35401 -0.79375,0.79375 0,0.43973 0.3540125,0.79375 0.79375,0.79375 0.4397375,0 0.7937499,-0.35402 0.7937499,-0.79375 0,-0.43974 -0.3540124,-0.79375 -0.7937499,-0.79375 z"
           style="opacity:1;vector-effect:none;fill:url(#linearGradient3395);fill-opacity:1;stroke:none;stroke-width:1.58749998;stroke-linecap:round;stroke-linejoin:round;stroke-miterlimit:4;stroke-dasharray:none;stroke-dashoffset:0;stroke-opacity:1;paint-order:normal" />
        <path
           inkscape:connector-curvature="0"
           id="rect2465-3-6-0-1"
           d="m -6.5370853,294.97187 c -0.2931583,0 -0.5291667,0.23601 -0.5291667,0.52917 0,0.29316 0.2360084,0.52916 0.5291667,0.52916 0.2931583,0 0.5291666,-0.236 0.5291666,-0.52916 0,-0.29316 -0.2360083,-0.52917 -0.5291666,-0.52917 z m 2.1166666,0 c -0.2931583,0 -0.5291667,0.23601 -0.5291667,0.52917 0,0.29316 0.2360084,0.52916 0.5291667,0.52916 0.2931583,0 0.5291666,-0.236 0.5291666,-0.52916 0,-0.29316 -0.2360083,-0.52917 -0.5291666,-0.52917 z"
           style="opacity:1;vector-effect:none;fill:url(#linearGradient3404);fill-opacity:1;stroke:none;stroke-width:1.05833328;stroke-linecap:round;stroke-linejoin:round;stroke-miterlimit:4;stroke-dasharray:none;stroke-dashoffset:0;stroke-opacity:1;paint-order:normal" />
        <path
           inkscape:connector-curvature="0"
           id="path3377-9"
           d="m -8.2553266,296.03072 c -0.2488081,0.002 -0.4912063,0.0819 -0.6743774,0.25838 -0.2442281,0.23534 -0.3173187,0.57973 -0.2635498,0.90796 0.053769,0.32822 0.2268965,0.65754 0.4991943,0.93482 0.2722908,0.27728 0.5994114,0.45758 0.9291422,0.51987 0.3297308,0.0623 0.6792296,-8.2e-4 0.9234578,-0.23616 0.2442281,-0.23534 0.3173189,-0.57921 0.2635498,-0.90744 -0.053769,-0.32823 -0.2269035,-0.65755 -0.4991943,-0.93483 -0.2722978,-0.27728 -0.5994114,-0.45808 -0.9291422,-0.52038 -0.082433,-0.0156 -0.1661444,-0.0231 -0.2490804,-0.0222 z"
           style="color:#000000;font-style:normal;font-variant:normal;font-weight:normal;font-stretch:normal;font-size:medium;line-height:normal;font-family:sans-serif;font-variant-ligatures:normal;font-variant-position:normal;font-variant-caps:normal;font-variant-numeric:normal;font-variant-alternates:normal;font-feature-settings:normal;text-indent:0;text-align:start;text-decoration:none;text-decoration-line:none;text-decoration-style:solid;text-decoration-color:#000000;letter-spacing:normal;word-spacing:normal;text-transform:none;writing-mode:lr-tb;direction:ltr;text-orientation:mixed;dominant-baseline:auto;baseline-shift:baseline;text-anchor:start;white-space:normal;shape-padding:0;clip-rule:nonzero;display:inline;overflow:visible;visibility:visible;opacity:1;isolation:auto;mix-blend-mode:normal;color-interpolation:sRGB;color-interpolation-filters:linearRGB;solid-color:#000000;solid-opacity:1;vector-effect:none;fill:#1a1a1a;fill-opacity:1;fill-rule:nonzero;stroke:none;stroke-width:0.52916664;stroke-linecap:round;stroke-linejoin:round;stroke-miterlimit:4;stroke-dasharray:none;stroke-dashoffset:0;stroke-opacity:1;paint-order:markers fill stroke;color-rendering:auto;image-rendering:auto;shape-rendering:auto;text-rendering:auto;enable-background:accumulate" />
        <path
           inkscape:connector-curvature="0"
           id="path912-6-2-0-6-4"
           d="m -7.2672758,296.75663 a 1.2260995,0.85838151 45 0 1 0.2408961,1.47045 1.2260995,0.85838151 45 0 1 -1.4772016,-0.2791 1.2260995,0.85838151 45 0 1 -0.2408819,-1.47045 1.2260995,0.85838151 45 0 1 1.4771874,0.2791 z"
           style="opacity:1;vector-effect:none;fill:url(#linearGradient3386);fill-opacity:1;stroke:none;stroke-width:0.49047175;stroke-linecap:round;stroke-linejoin:round;stroke-miterlimit:4;stroke-dasharray:none;stroke-dashoffset:0;stroke-opacity:1;paint-order:markers fill stroke" />
      </g>
      <g
         id="g840"
         transform="translate(1.7015625e-4,0.52916338)">
        <g
           id="g830" />
      </g>
    </g>
  </g>
</svg>
