<?xml version="1.0" encoding="UTF-8" standalone="no"?>
<!-- Created with Inkscape (http://www.inkscape.org/) -->

<svg
   xmlns:dc="http://purl.org/dc/elements/1.1/"
   xmlns:cc="http://creativecommons.org/ns#"
   xmlns:rdf="http://www.w3.org/1999/02/22-rdf-syntax-ns#"
   xmlns:svg="http://www.w3.org/2000/svg"
   xmlns="http://www.w3.org/2000/svg"
   xmlns:xlink="http://www.w3.org/1999/xlink"
   xmlns:sodipodi="http://sodipodi.sourceforge.net/DTD/sodipodi-0.dtd"
   xmlns:inkscape="http://www.inkscape.org/namespaces/inkscape"
   width="32"
   height="32"
   viewBox="0 0 8.4666665 8.4666669"
   version="1.1"
   id="svg8"
   inkscape:version="0.92.3 (2405546, 2018-03-11)"
   sodipodi:docname="gitkraken-antu-32.svg">
  <defs
     id="defs2">
    <style
       id="current-color-scheme"
       type="text/css">
      .ColorScheme-Text {
        color:#122036;
      }
      </style>
    <style
       type="text/css"
       id="current-color-scheme-5">
      .ColorScheme-Text {
        color:#122036;
      }
      </style>
    <style
       id="current-color-scheme-53"
       type="text/css">
      .ColorScheme-Text {
        color:#122036;
      }
      </style>
    <style
       id="current-color-scheme-2"
       type="text/css">
      .ColorScheme-Text {
        color:#122036;
      }
      </style>
    <style
       type="text/css"
       id="current-color-scheme-60">
      .ColorScheme-Text {
        color:#122036;
      }
      </style>
    <style
       id="current-color-scheme-6"
       type="text/css">
      .ColorScheme-Text {
        color:#122036;
      }
      </style>
    <style
       id="current-color-scheme-2-6"
       type="text/css">
      .ColorScheme-Text {
        color:#122036;
      }
      </style>
    <style
       id="current-color-scheme-29"
       type="text/css">
      .ColorScheme-Text {
        color:#122036;
      }
      </style>
    <style
       type="text/css"
       id="current-color-scheme-1">
      .ColorScheme-Text {
        color:#122036;
      }
      </style>
    <linearGradient
       inkscape:collect="always"
       xlink:href="#linearGradient4506"
       id="linearGradient902"
       x1="4.2333331"
       y1="296.20624"
       x2="4.2333331"
       y2="289.0625"
       gradientUnits="userSpaceOnUse" />
    <linearGradient
       inkscape:collect="always"
       xlink:href="#linearGradient7100"
       id="linearGradient910"
       x1="4.2333331"
       y1="296.47083"
       x2="4.2333331"
       y2="290.12082"
       gradientUnits="userSpaceOnUse" />
    <linearGradient
       inkscape:collect="always"
       id="linearGradient7100">
      <stop
         style="stop-color:#02ca56;stop-opacity:1"
         offset="0"
         id="stop7096" />
      <stop
         style="stop-color:#75d97d;stop-opacity:1"
         offset="1"
         id="stop7098" />
    </linearGradient>
    <linearGradient
       id="linearGradient4506"
       inkscape:collect="always">
      <stop
         id="stop4502"
         offset="0"
         style="stop-color:#252a34;stop-opacity:1" />
      <stop
         id="stop4504"
         offset="1"
         style="stop-color:#353d4b;stop-opacity:1" />
    </linearGradient>
  </defs>
  <sodipodi:namedview
     id="base"
     pagecolor="#ffffff"
     bordercolor="#666666"
     borderopacity="1.0"
     inkscape:pageopacity="0.0"
     inkscape:pageshadow="2"
     inkscape:zoom="1.4142136"
     inkscape:cx="232.90766"
     inkscape:cy="81.416818"
     inkscape:document-units="px"
     inkscape:current-layer="g1079"
     showgrid="true"
     units="px"
     inkscape:showpageshadow="false"
     inkscape:snap-bbox="true"
     inkscape:bbox-paths="true"
     inkscape:bbox-nodes="true"
     inkscape:snap-bbox-edge-midpoints="true"
     inkscape:snap-bbox-midpoints="true"
     inkscape:object-paths="true"
     inkscape:snap-intersection-paths="true"
     inkscape:window-width="1874"
     inkscape:window-height="1141"
     inkscape:window-x="46"
     inkscape:window-y="30"
     inkscape:window-maximized="1">
    <inkscape:grid
       type="xygrid"
       id="grid815" />
  </sodipodi:namedview>
  <metadata
     id="metadata5">
    <rdf:RDF>
      <cc:Work
         rdf:about="">
        <dc:format>image/svg+xml</dc:format>
        <dc:type
           rdf:resource="http://purl.org/dc/dcmitype/StillImage" />
        <dc:title />
      </cc:Work>
    </rdf:RDF>
  </metadata>
  <g
     inkscape:label="Capa 1"
     inkscape:groupmode="layer"
     id="layer1"
     transform="translate(0,-288.53333)">
    <g
       id="g1079"
       transform="translate(2.05e-7,3.35e-6)">
      <path
         inkscape:connector-curvature="0"
         id="rect903-5-7"
         d="m 4.2333331,288.79791 c 2.1986875,0 3.96875,1.77007 3.96875,3.96875 0,2.19869 -1.7700625,3.96875 -3.96875,3.96875 -2.1986874,0 -3.96874991,-1.77006 -3.96874991,-3.96875 0,-2.19868 1.77006251,-3.96875 3.96874991,-3.96875 z"
         style="opacity:1;fill:#15151a;fill-opacity:1;stroke:none;stroke-width:0.52304226;stroke-linecap:round;stroke-linejoin:round;stroke-miterlimit:4;stroke-dasharray:none;stroke-opacity:1" />
      <path
         inkscape:connector-curvature="0"
         id="rect903-2-4-9"
         d="m 4.2333331,289.0625 c 2.0521083,0 3.7041667,1.65205 3.7041667,3.70416 0,2.05211 -1.6520584,3.70417 -3.7041667,3.70417 -2.0521083,0 -3.70416658,-1.65206 -3.70416658,-3.70417 0,-2.05211 1.65205828,-3.70416 3.70416658,-3.70416 z"
         style="opacity:1;fill:url(#linearGradient902);fill-opacity:1.0;stroke:none;stroke-width:0.48817277;stroke-linecap:round;stroke-linejoin:round;stroke-miterlimit:4;stroke-dasharray:none;stroke-opacity:1" />
      <path
         style="color:#000000;font-style:normal;font-variant:normal;font-weight:normal;font-stretch:normal;font-size:medium;line-height:normal;font-family:sans-serif;font-variant-ligatures:normal;font-variant-position:normal;font-variant-caps:normal;font-variant-numeric:normal;font-variant-alternates:normal;font-feature-settings:normal;text-indent:0;text-align:start;text-decoration:none;text-decoration-line:none;text-decoration-style:solid;text-decoration-color:#000000;letter-spacing:normal;word-spacing:normal;text-transform:none;writing-mode:lr-tb;direction:ltr;text-orientation:mixed;dominant-baseline:auto;baseline-shift:baseline;text-anchor:start;white-space:normal;shape-padding:0;clip-rule:nonzero;display:inline;overflow:visible;visibility:visible;opacity:1;isolation:auto;mix-blend-mode:normal;color-interpolation:sRGB;color-interpolation-filters:linearRGB;solid-color:#000000;solid-opacity:1;vector-effect:none;fill:#15151a;fill-opacity:1;fill-rule:nonzero;stroke:none;stroke-width:0.52916664;stroke-linecap:round;stroke-linejoin:round;stroke-miterlimit:4;stroke-dasharray:none;stroke-dashoffset:0;stroke-opacity:1;color-rendering:auto;image-rendering:auto;shape-rendering:auto;text-rendering:auto;enable-background:accumulate"
         d="m 4.21628,290.38541 c -0.3436001,0.006 -0.6200457,0.23524 -0.8909018,0.56896 -0.2708558,0.33371 -0.5568902,0.80221 -0.9089883,1.41593 a 0.26460979,0.26460979 0 0 0 0.1457275,0.38292 c 0.1189522,0.0397 0.2003902,0.12341 0.2862874,0.27802 0.044317,0.0798 0.085024,0.17621 0.1260907,0.28061 -0.039748,0.0744 -0.064079,0.15803 -0.064079,0.24856 0,0.24561 0.1666065,0.44881 0.3927408,0.50901 0.040058,0.0662 0.084323,0.1307 0.1364258,0.19172 v 0.4408 a 1.8520832,1.8520832 0 0 1 -5.292e-4,0 1.8520832,1.8520832 0 0 1 -1.0578041,-1.6707 H 1.8520832 a 2.3812498,2.3812498 0 0 0 1.5875,2.23966 v 0.2837 A 2.645833,2.645833 0 0 1 1.5874999,293.03124 H 1.0583332 a 3.175,3.175 0 0 0 2.9104167,3.1626 v -0.5302 -0.26872 -0.53278 -0.27802 c 0.083491,0.0209 0.1709899,0.0346 0.2645833,0.0346 0.093593,0 0.181092,-0.0137 0.2645833,-0.0346 v 0.27854 0.53381 0.26459 0.2806 0.25115 a 3.175,3.175 0 0 0 2.9104167,-3.16157 H 6.8791666 a 2.645833,2.645833 0 0 1 -1.8520834,2.5182 v -0.27699 a 2.3812498,2.3812498 0 0 0 1.5875,-2.24121 H 6.0854165 a 1.8520832,1.8520832 0 0 1 -1.0583333,1.66967 v -0.43977 c 0.052102,-0.061 0.096367,-0.12548 0.1364258,-0.19172 0.2261343,-0.0602 0.3927409,-0.2634 0.3927409,-0.50901 0,-0.0905 -0.024331,-0.1742 -0.064079,-0.24856 0.041066,-0.1044 0.081773,-0.20084 0.1260906,-0.28061 0.085897,-0.15461 0.1673352,-0.23837 0.2862874,-0.27802 A 0.26460979,0.26460979 0 0 0 6.0502766,292.3703 C 5.6893487,291.74138 5.3963285,291.26852 5.1201006,290.93576 4.843874,290.60301 4.55988,290.37974 4.21628,290.38541 Z m -0.7766968,2.91042 c 0.1465792,0 0.2645833,0.118 0.2645833,0.26458 0,0.14658 -0.1180041,0.26458 -0.2645833,0.26458 -0.1465792,0 -0.2645833,-0.118 -0.2645833,-0.26458 0,-0.14658 0.1180041,-0.26458 0.2645833,-0.26458 z m 1.5875,0 c 0.1465792,0 0.2645833,0.118 0.2645833,0.26458 0,0.14658 -0.1180041,0.26458 -0.2645833,0.26458 -0.1465792,0 -0.2645833,-0.118 -0.2645833,-0.26458 0,-0.14658 0.1180041,-0.26458 0.2645833,-0.26458 z"
         id="path911-0"
         inkscape:connector-curvature="0" />
      <path
         style="color:#000000;font-style:normal;font-variant:normal;font-weight:normal;font-stretch:normal;font-size:medium;line-height:normal;font-family:sans-serif;font-variant-ligatures:normal;font-variant-position:normal;font-variant-caps:normal;font-variant-numeric:normal;font-variant-alternates:normal;font-feature-settings:normal;text-indent:0;text-align:start;text-decoration:none;text-decoration-line:none;text-decoration-style:solid;text-decoration-color:#000000;letter-spacing:normal;word-spacing:normal;text-transform:none;writing-mode:lr-tb;direction:ltr;text-orientation:mixed;dominant-baseline:auto;baseline-shift:baseline;text-anchor:start;white-space:normal;shape-padding:0;clip-rule:nonzero;display:inline;overflow:visible;visibility:visible;opacity:1;isolation:auto;mix-blend-mode:normal;color-interpolation:sRGB;color-interpolation-filters:linearRGB;solid-color:#000000;solid-opacity:1;vector-effect:none;fill:url(#linearGradient910);fill-opacity:1.0;fill-rule:nonzero;stroke:none;stroke-width:0.52916664;stroke-linecap:round;stroke-linejoin:round;stroke-miterlimit:4;stroke-dasharray:none;stroke-dashoffset:0;stroke-opacity:1;color-rendering:auto;image-rendering:auto;shape-rendering:auto;text-rendering:auto;enable-background:accumulate"
         d="m 4.2162802,290.12083 c -0.3436001,0.006 -0.6200457,0.23524 -0.8909018,0.56896 -0.2708558,0.33371 -0.5568902,0.80221 -0.9089883,1.41593 a 0.26460979,0.26460979 0 0 0 0.1457275,0.38292 c 0.1189522,0.0397 0.2003902,0.12341 0.2862874,0.27802 0.044317,0.0798 0.085024,0.17621 0.1260907,0.28061 -0.039748,0.0744 -0.064079,0.15803 -0.064079,0.24856 0,0.24561 0.1666065,0.44881 0.3927408,0.50901 0.040058,0.0662 0.084323,0.1307 0.1364258,0.19172 v 0.4408 a 1.8520832,1.8520832 0 0 1 -5.292e-4,0 1.8520832,1.8520832 0 0 1 -1.0578041,-1.6707 H 1.8520834 a 2.3812498,2.3812498 0 0 0 1.5875,2.23966 v 0.2837 A 2.645833,2.645833 0 0 1 1.5875001,292.76666 H 1.0583334 a 3.175,3.175 0 0 0 2.9104167,3.1626 v -0.5302 -0.26872 -0.53278 -0.27802 c 0.083491,0.0209 0.1709899,0.0346 0.2645833,0.0346 0.093593,0 0.1810919,-0.0137 0.2645833,-0.0346 v 0.27854 0.53381 0.26459 0.2806 0.25115 a 3.175,3.175 0 0 0 2.9104167,-3.16157 H 6.8791667 a 2.645833,2.645833 0 0 1 -1.8520833,2.5182 v -0.27699 a 2.3812498,2.3812498 0 0 0 1.5875,-2.24121 H 6.0854167 a 1.8520832,1.8520832 0 0 1 -1.0583333,1.66967 v -0.43977 c 0.052102,-0.061 0.096367,-0.12548 0.1364258,-0.19172 0.2261343,-0.0602 0.3927409,-0.2634 0.3927409,-0.50901 0,-0.0905 -0.024331,-0.1742 -0.064079,-0.24856 0.041066,-0.1044 0.081773,-0.20084 0.1260907,-0.28061 0.085897,-0.15461 0.1673352,-0.23837 0.2862873,-0.27802 a 0.26460979,0.26460979 0 0 0 0.1457278,-0.38292 C 5.689349,291.4768 5.3963287,291.00394 5.1201008,290.67118 4.8438743,290.33843 4.5598803,290.11516 4.2162802,290.12083 Z m -0.7766968,2.91042 c 0.1465792,0 0.2645833,0.118 0.2645833,0.26458 0,0.14658 -0.1180041,0.26458 -0.2645833,0.26458 -0.1465792,0 -0.2645833,-0.118 -0.2645833,-0.26458 0,-0.14658 0.1180041,-0.26458 0.2645833,-0.26458 z m 1.5875,0 c 0.1465792,0 0.2645833,0.118 0.2645833,0.26458 0,0.14658 -0.1180041,0.26458 -0.2645833,0.26458 -0.1465792,0 -0.2645833,-0.118 -0.2645833,-0.26458 0,-0.14658 0.1180041,-0.26458 0.2645833,-0.26458 z"
         id="path911"
         inkscape:connector-curvature="0" />
    </g>
  </g>
</svg>
