<?xml version="1.0" encoding="UTF-8" standalone="no"?>
<!-- Created with Inkscape (http://www.inkscape.org/) -->

<svg
   xmlns:dc="http://purl.org/dc/elements/1.1/"
   xmlns:cc="http://creativecommons.org/ns#"
   xmlns:rdf="http://www.w3.org/1999/02/22-rdf-syntax-ns#"
   xmlns:svg="http://www.w3.org/2000/svg"
   xmlns="http://www.w3.org/2000/svg"
   xmlns:xlink="http://www.w3.org/1999/xlink"
   xmlns:sodipodi="http://sodipodi.sourceforge.net/DTD/sodipodi-0.dtd"
   xmlns:inkscape="http://www.inkscape.org/namespaces/inkscape"
   width="32"
   height="32"
   viewBox="0 0 32 32"
   version="1.1"
   id="svg8"
   inkscape:version="0.92.2 5c3e80d, 2017-08-06"
   sodipodi:docname="googleplus.svg">
  <title
     id="title7895">Antu icon Theme</title>
  <defs
     id="defs2">
    <linearGradient
       inkscape:collect="always"
       xlink:href="#linearGradient4564"
       id="linearGradient852"
       x1="8.7123508"
       y1="294.54315"
       x2="8.7123508"
       y2="288.98691"
       gradientUnits="userSpaceOnUse"
       gradientTransform="matrix(3.7795275,0,0,3.7795275,-33.928569,-798.58391)" />
    <linearGradient
       id="linearGradient4564"
       inkscape:collect="always">
      <stop
         id="stop4560"
         offset="0"
         style="stop-color:#ef0b2c;stop-opacity:1" />
      <stop
         id="stop4562"
         offset="1"
         style="stop-color:#fc3a56;stop-opacity:1" />
    </linearGradient>
  </defs>
  <sodipodi:namedview
     id="base"
     pagecolor="#ffffff"
     bordercolor="#666666"
     borderopacity="1.0"
     inkscape:pageopacity="0.0"
     inkscape:pageshadow="2"
     inkscape:zoom="1"
     inkscape:cx="-4.4321239"
     inkscape:cy="9.8592752"
     inkscape:document-units="px"
     inkscape:current-layer="layer1"
     showgrid="true"
     units="px"
     inkscape:window-width="1366"
     inkscape:window-height="697"
     inkscape:window-x="0"
     inkscape:window-y="0"
     inkscape:window-maximized="1"
     objecttolerance="10"
     gridtolerance="10"
     guidetolerance="10">
    <inkscape:grid
       type="xygrid"
       id="grid7897"
       empspacing="4" />
  </sodipodi:namedview>
  <metadata
     id="metadata5">
    <rdf:RDF>
      <cc:Work
         rdf:about="">
        <dc:format>image/svg+xml</dc:format>
        <dc:type
           rdf:resource="http://purl.org/dc/dcmitype/StillImage" />
        <dc:title>Antu icon Theme</dc:title>
      </cc:Work>
    </rdf:RDF>
  </metadata>
  <g
     inkscape:label="Capa 1"
     inkscape:groupmode="layer"
     id="layer1"
     transform="translate(0,-282.64999)">
    <g
       id="g2981"
       transform="translate(18,-6)">
      <path
         inkscape:connector-curvature="0"
         style="opacity:1;fill:#be011e;fill-opacity:1;stroke:none;stroke-width:2.39314151;stroke-linecap:round;stroke-linejoin:round;stroke-miterlimit:4;stroke-dasharray:none;stroke-opacity:1"
         d="m -15,289.64999 h 26 c 1.108,0 2,0.892 2,2 v 26 c 0,1.108 -0.892,2 -2,2 h -26 c -1.108,0 -2,-0.892 -2,-2 v -26 c 0,-1.108 0.892,-2 2,-2 z"
         id="rect843" />
      <path
         inkscape:connector-curvature="0"
         style="opacity:1;fill:url(#linearGradient852);fill-opacity:1;stroke:none;stroke-width:2.23359871;stroke-linecap:round;stroke-linejoin:round;stroke-miterlimit:4;stroke-dasharray:none;stroke-opacity:1"
         d="m -15,290.64999 h 26 c 0.553999,0 1,0.446 1,1 v 26 c 0,0.554 -0.446001,1 -1,1 h -26 c -0.554,0 -1,-0.446 -1,-1 v -26 c 0,-0.554 0.446,-1 1,-1 z"
         id="rect843-3" />
      <path
         style="opacity:1;fill:#d90122;fill-opacity:1;stroke:none;stroke-width:0.33384895;stroke-miterlimit:4;stroke-dasharray:none;stroke-opacity:1"
         d="m -2,295.64999 c -5.5228335,0 -9.99998,4.47714 -10,10 2e-5,5.52285 4.4771665,10 10,10 5.522834,0 9.999981,-4.47715 10,-10 v -2 H 7.789062 -2 v 4 h 5.648438 c -0.846539,2.39437 -3.108833,3.99644 -5.648438,4 -3.3137,0 -5.9999885,-2.68629 -5.9999995,-6 1.1e-5,-3.31371 2.6862995,-6 5.9999995,-6 1.301565,0.002 2.567013,0.42823 3.605469,1.21289 l 2.40625,-3.19336 C 2.280001,296.36191 0.169943,295.65308 -2,295.64999 Z"
         id="path4801-8"
         inkscape:connector-curvature="0"
         sodipodi:nodetypes="ccscccccccccccc" />
      <path
         style="opacity:1;fill:#f7faff;fill-opacity:1;stroke:none;stroke-width:0.33384895;stroke-miterlimit:4;stroke-dasharray:none;stroke-opacity:1"
         d="m -2,294.64999 c -5.5228338,0 -9.999981,4.47714 -10,10 1.9e-5,5.52285 4.4771662,10 10,10 5.522834,0 9.999981,-4.47715 10,-10 v -2 H 7.789062 -2 v 4 h 5.648438 c -0.846539,2.39437 -3.108833,3.99644 -5.648438,4 -3.3137,0 -5.9999888,-2.68629 -5.9999998,-6 1.1e-5,-3.31371 2.6862998,-6 5.9999998,-6 1.301565,0.002 2.567013,0.42823 3.605469,1.21289 l 2.40625,-3.19336 C 2.280001,295.36191 0.169943,294.65308 -2,294.64999 Z"
         id="path4801"
         inkscape:connector-curvature="0"
         sodipodi:nodetypes="ccscccccccccccc" />
    </g>
  </g>
</svg>
