<?xml version="1.0" encoding="UTF-8" standalone="no"?>
<!-- Created with Inkscape (http://www.inkscape.org/) -->

<svg
   xmlns:dc="http://purl.org/dc/elements/1.1/"
   xmlns:cc="http://creativecommons.org/ns#"
   xmlns:rdf="http://www.w3.org/1999/02/22-rdf-syntax-ns#"
   xmlns:svg="http://www.w3.org/2000/svg"
   xmlns="http://www.w3.org/2000/svg"
   xmlns:xlink="http://www.w3.org/1999/xlink"
   xmlns:sodipodi="http://sodipodi.sourceforge.net/DTD/sodipodi-0.dtd"
   xmlns:inkscape="http://www.inkscape.org/namespaces/inkscape"
   width="32"
   height="32"
   viewBox="0 0 32 32"
   version="1.1"
   id="svg8"
   inkscape:version="0.92.2 5c3e80d, 2017-08-06"
   sodipodi:docname="google-chrome.svg">
  <title
     id="title7895">Antu icon Theme</title>
  <defs
     id="defs2">
    <linearGradient
       gradientTransform="matrix(3.7795275,0,0,3.7795275,-56.875001,-811.36963)"
       inkscape:collect="always"
       xlink:href="#linearGradient6367"
       id="linearGradient1426"
       x1="14.783594"
       y1="300.04269"
       x2="14.783594"
       y2="296.60312"
       gradientUnits="userSpaceOnUse" />
    <linearGradient
       inkscape:collect="always"
       id="linearGradient6367">
      <stop
         style="stop-color:#d9d601;stop-opacity:1"
         offset="0"
         id="stop6363" />
      <stop
         style="stop-color:#fffb01;stop-opacity:1"
         offset="1"
         id="stop6365" />
    </linearGradient>
    <linearGradient
       gradientTransform="matrix(3.7795275,0,0,3.7795275,-56.875001,-811.36963)"
       inkscape:collect="always"
       xlink:href="#linearGradient6351"
       id="linearGradient1402"
       x1="10.285677"
       y1="298.71979"
       x2="10.285677"
       y2="293.4281"
       gradientUnits="userSpaceOnUse" />
    <linearGradient
       inkscape:collect="always"
       id="linearGradient6351">
      <stop
         style="stop-color:#01ca56;stop-opacity:1"
         offset="0"
         id="stop6347" />
      <stop
         style="stop-color:#7de582;stop-opacity:1"
         offset="1"
         id="stop6349" />
    </linearGradient>
    <linearGradient
       gradientTransform="matrix(3.7795275,0,0,3.7795275,-56.875001,-811.36963)"
       inkscape:collect="always"
       xlink:href="#linearGradient6375"
       id="linearGradient1418"
       x1="11.608594"
       y1="296.07394"
       x2="11.608594"
       y2="292.89896"
       gradientUnits="userSpaceOnUse" />
    <linearGradient
       inkscape:collect="always"
       id="linearGradient6375">
      <stop
         style="stop-color:#ec0123;stop-opacity:1"
         offset="0"
         id="stop6371" />
      <stop
         style="stop-color:#ff4762;stop-opacity:1"
         offset="1"
         id="stop6373" />
    </linearGradient>
    <linearGradient
       gradientTransform="matrix(4.4094489,0,0,4.4094489,-65.353944,-997.70618)"
       inkscape:collect="always"
       xlink:href="#linearGradient4582-3"
       id="linearGradient1350"
       x1="13.460677"
       y1="297.13229"
       x2="13.460677"
       y2="294.48645"
       gradientUnits="userSpaceOnUse" />
    <linearGradient
       inkscape:collect="always"
       id="linearGradient4582-3">
      <stop
         style="stop-color:#cee3e3;stop-opacity:1"
         offset="0"
         id="stop4578-5" />
      <stop
         style="stop-color:#fcfcfc;stop-opacity:1"
         offset="1"
         id="stop4580-6" />
    </linearGradient>
    <linearGradient
       gradientTransform="matrix(5.0393699,0,0,5.0393699,-73.833106,-1184.0427)"
       inkscape:collect="always"
       xlink:href="#linearGradient4680"
       id="linearGradient1342"
       x1="13.460677"
       y1="296.33853"
       x2="13.460677"
       y2="295.28021"
       gradientUnits="userSpaceOnUse" />
    <linearGradient
       inkscape:collect="always"
       id="linearGradient4680">
      <stop
         style="stop-color:#0e73ec;stop-opacity:1"
         offset="0"
         id="stop4676" />
      <stop
         style="stop-color:#36b1fb;stop-opacity:1"
         offset="1"
         id="stop4678" />
    </linearGradient>
  </defs>
  <sodipodi:namedview
     id="base"
     pagecolor="#ffffff"
     bordercolor="#666666"
     borderopacity="1.0"
     inkscape:pageopacity="0.0"
     inkscape:pageshadow="2"
     inkscape:zoom="31.678384"
     inkscape:cx="14.18006"
     inkscape:cy="19.747924"
     inkscape:document-units="px"
     inkscape:current-layer="g2161"
     showgrid="true"
     units="px"
     inkscape:window-width="1366"
     inkscape:window-height="697"
     inkscape:window-x="0"
     inkscape:window-y="0"
     inkscape:window-maximized="1"
     objecttolerance="10"
     gridtolerance="10"
     guidetolerance="10">
    <inkscape:grid
       type="xygrid"
       id="grid7897"
       empspacing="4" />
  </sodipodi:namedview>
  <metadata
     id="metadata5">
    <rdf:RDF>
      <cc:Work
         rdf:about="">
        <dc:format>image/svg+xml</dc:format>
        <dc:type
           rdf:resource="http://purl.org/dc/dcmitype/StillImage" />
        <dc:title>Antu icon Theme</dc:title>
      </cc:Work>
    </rdf:RDF>
  </metadata>
  <g
     inkscape:label="Capa 1"
     inkscape:groupmode="layer"
     id="layer1"
     transform="translate(0,-282.64999)">
    <g
       id="g2161"
       transform="translate(21.999776,-8.0000822)">
      <path
         inkscape:connector-curvature="0"
         style="opacity:0.98000004;fill:#269334;fill-opacity:1;stroke:none;stroke-width:4.31026125;stroke-linecap:square;stroke-linejoin:miter;stroke-miterlimit:4;stroke-dasharray:none;stroke-opacity:1;paint-order:stroke markers fill"
         d="m -7.5679268,321.56784 a 15,15 0 0 1 -12.1352542,-8.81677 15,15 0 0 1 1.567925,-14.91783 l 12.1352582,8.81677 z"
         id="path972-5" />
      <path
         inkscape:connector-curvature="0"
         id="path972-1-7"
         d="m 7.2441402,299.60698 -13.244141,7.04297 -3.882812,14.48828 a 15,15 0 0 0 2.314453,0.42969 15,15 0 0 0 14.003906,-6.5293 15,15 0 0 0 0.808594,-15.43164 z"
         style="opacity:0.98000004;fill:#fca701;fill-opacity:1;stroke:none;stroke-width:4.31026125;stroke-linecap:square;stroke-linejoin:miter;stroke-miterlimit:4;stroke-dasharray:none;stroke-opacity:1;paint-order:stroke markers fill" />
      <path
         inkscape:connector-curvature="0"
         id="path921-9"
         d="m -6.1816418,291.64997 c -0.08073,0.002 -0.161499,0.004 -0.242192,0.008 -0.03666,0.002 -0.07295,0.004 -0.10938,0.008 -0.187124,0.0113 -0.373984,0.0264 -0.560545,0.045 -0.274696,0.0189 -0.548909,0.042 -0.822267,0.0741 -0.03704,0.004 -0.07423,0.008 -0.111345,0.0113 -0.153411,0.0265 -0.306444,0.0537 -0.458985,0.0839 -0.307049,0.0484 -0.612552,0.10658 -0.916014,0.17386 -0.03591,0.008 -0.07166,0.0151 -0.107414,0.0227 -0.145815,0.0393 -0.290986,0.0813 -0.435546,0.12511 -0.3008502,0.0794 -0.5991832,0.16781 -0.8945342,0.2657 -0.0325,0.0113 -0.06516,0.0189 -0.09766,0.0302 -0.163883,0.0616 -0.326668,0.12624 -0.488288,0.19351 -0.265398,0.10054 -0.52786,0.20863 -0.787109,0.32429 -0.03666,0.0151 -0.07298,0.0302 -0.10938,0.045 -0.153033,0.0763 -0.304743,0.15496 -0.455077,0.23622 -0.261052,0.12851 -0.51834,0.26457 -0.771485,0.40819 -0.03515,0.0189 -0.07037,0.0378 -0.105449,0.0567 -0.141506,0.0888 -0.281499,0.1799 -0.419924,0.27326 -0.21978,0.13644 -0.435995,0.27817 -0.648435,0.4258 -0.03137,0.0189 -0.06259,0.0401 -0.09373,0.0605 l 0.0038,0.008 c -0.03923,0.0302 -0.07827,0.0624 -0.117204,0.0937 -0.350211,0.25739 -0.689068,0.5297 -1.015627,0.81642 -0.07495,0.0703 -0.149178,0.14097 -0.222652,0.21278 -0.287168,0.26117 -0.564053,0.5336 -0.830075,0.81638 -0.116938,0.13153 -0.231533,0.26495 -0.343748,0.40041 -0.205946,0.23281 -0.404609,0.47176 -0.595702,0.71678 -0.06667,0.0847 -0.132435,0.1697 -0.197254,0.25588 l 0.01172,0.0113 c -0.209121,0.27892 -0.40846,0.56477 -0.597656,0.85742 l 5.720727,8.24092 6.9999755,-0.29178 13.027344,-4.99998 h 0.972654 0.150387 l -0.150387,-0.39065 h -0.002 c -0.221064,-0.56375 -0.476084,-1.11356 -0.763623,-1.64647 l 0.0098,-0.008 c -0.107803,-0.19125 -0.219828,-0.38007 -0.335973,-0.5664 -0.130885,-0.22602 -0.267629,-0.44893 -0.410158,-0.66796 -0.135194,-0.19994 -0.275226,-0.39666 -0.419921,-0.58987 -0.151559,-0.20976 -0.308485,-0.41552 -0.470702,-0.61716 -0.150728,-0.18142 -0.305726,-0.35905 -0.464844,-0.53321 -0.174577,-0.1973 -0.354331,-0.3902 -0.539063,-0.57812 -0.173027,-0.17046 -0.350173,-0.33638 -0.531251,-0.49807 -0.186481,-0.17196 -0.37731,-0.3394 -0.572265,-0.50196 -0.192227,-0.15458 -0.388264,-0.30425 -0.587891,-0.44919 -0.202582,-0.15307 -0.409043,-0.30085 -0.619139,-0.44338 -0.207043,-0.13455 -0.417407,-0.26419 -0.63086,-0.38865 -0.214942,-0.12964 -0.433111,-0.25436 -0.654297,-0.37304 -0.221858,-0.11489 -0.446521,-0.2245 -0.673829,-0.32806 -0.224013,-0.10696 -0.450637,-0.20863 -0.679688,-0.30463 -0.231533,-0.0918 -0.465343,-0.17764 -0.70117,-0.25776 -0.229115,-0.0866 -0.460297,-0.16706 -0.693362,-0.24227 -0.04683,-0.0113 -0.09369,-0.0227 -0.140636,-0.034 -0.233613,-0.0631 -0.468699,-0.12019 -0.705078,-0.17197 -0.245972,-0.0616 -0.493429,-0.11678 -0.742186,-0.16592 -0.255534,-0.0423 -0.512138,-0.0782 -0.769531,-0.10734 -0.239509,-0.034 -0.479811,-0.0631 -0.720703,-0.0858 -0.0449,-0.004 -0.08984,-0.0113 -0.134778,-0.0151 -0.225751,-0.0113 -0.451737,-0.0151 -0.677733,-0.0151 -0.122986,-0.008 -0.246048,-0.0113 -0.369147,-0.0151 v -0.008 c -0.04755,4.1e-4 -0.09506,10e-4 -0.142564,0.002 -0.01285,-6.8e-4 -0.02608,-0.001 -0.03904,-0.002 z"
         style="opacity:0.98000004;fill:#be011e;fill-opacity:1;stroke:none;stroke-width:2.02209759;stroke-linecap:square;stroke-linejoin:miter;stroke-miterlimit:4;stroke-dasharray:none;stroke-opacity:1;paint-order:stroke markers fill"
         sodipodi:nodetypes="cccccccccccccccccccccccccccccccccccccccccccccccccccccccccccccccccccc" />
      <path
         inkscape:connector-curvature="0"
         style="opacity:0.98000004;fill:url(#linearGradient1402);fill-opacity:1;stroke:none;stroke-width:4.20620251;stroke-linecap:square;stroke-linejoin:miter;stroke-miterlimit:4;stroke-dasharray:none;stroke-opacity:1;paint-order:stroke markers fill"
         d="m -7.4633968,320.57333 a 14,14 0 0 1 -11.3262382,-8.22901 14,14 0 0 1 1.463399,-13.92329 l 11.3262382,8.22898 z"
         id="path1022-9-2" />
      <path
         inkscape:connector-curvature="0"
         style="opacity:0.98000004;fill:url(#linearGradient1426);fill-opacity:1;stroke:none;stroke-width:4.20620251;stroke-linecap:square;stroke-linejoin:miter;stroke-miterlimit:4;stroke-dasharray:none;stroke-opacity:1;paint-order:stroke markers fill"
         d="m 6.3613282,300.07771 -2.95703,1.57225 h -5.404297 v 2.00001 h 1.642575 l -5.642578,3 -3.623043,13.52345 a 14,14 0 0 0 2.162108,0.38279 l -0.002,0.0189 a 14,14 0 0 0 0.414066,0.0227 14,14 0 0 0 0.701171,0.0378 14,14 0 0 0 0.712891,-0.004 14,14 0 0 0 0.660155,-0.0302 14,14 0 0 0 0.730469,-0.0763 14,14 0 0 0 0.677733,-0.0998 14,14 0 0 0 0.693362,-0.14438 14,14 0 0 0 0.660155,-0.16403 14,14 0 0 0 0.691408,-0.21883 14,14 0 0 0 0.640622,-0.23055 14,14 0 0 0 0.652343,-0.27931 14,14 0 0 0 0.613285,-0.29102 14,14 0 0 0 0.640622,-0.35528 14,14 0 0 0 0.57422,-0.34772 14,14 0 0 0 0.580078,-0.4004 14,14 0 0 0 0.343748,-0.23622 14,14 0 0 0 0.312492,-0.25776 14,14 0 0 0 0.521484,-0.45899 14,14 0 0 0 0.509767,-0.46877 14,14 0 0 0 0.496094,-0.53318 14,14 0 0 0 0.443357,-0.50196 14,14 0 0 0 0.640626,-0.84181 14,14 0 0 0 0.124989,-0.16782 14,14 0 0 0 0.03515,-0.0488 14,14 0 0 0 0.320315,-0.52928 14,14 0 0 0 0.384767,-0.63867 14,14 0 0 0 0.287093,-0.59765 14,14 0 0 0 0.306633,-0.64456 14,14 0 0 0 0.281235,-0.76755 14,14 0 0 0 0.197253,-0.55276 14,14 0 0 0 0.207043,-0.80859 14,14 0 0 0 0.134778,-0.541 14,14 0 0 0 0.124989,-0.83788 14,14 0 0 0 0.08009,-0.55079 14,14 0 0 0 0.03904,-0.77734 14,14 0 0 0 0.02948,-0.58204 h -0.0038 a 14,14 0 0 0 -1.634756,-6.57223 z"
         id="path1022-9-9-2" />
      <path
         sodipodi:nodetypes="sccccccccccccccccccccccccccccccccccccccccccsccs"
         inkscape:connector-curvature="0"
         id="path1022-8"
         d="m -5.9238288,292.65 c -0.31748,-0.002 -0.632633,0.0113 -0.947267,0.0302 -0.03402,0.002 -0.06769,0.004 -0.101556,0.008 -0.309127,0.0227 -0.614562,0.0639 -0.919922,0.10545 -0.3264,0.0446 -0.650449,0.10394 -0.974608,0.17197 -0.174311,0.0378 -0.349039,0.0684 -0.521484,0.11112 -0.07786,0.0189 -0.156699,0.0302 -0.234368,0.0506 -0.286224,0.0767 -0.5626552,0.17726 -0.8417952,0.27137 -0.13629,0.0461 -0.275452,0.0828 -0.410158,0.13266 -0.477132,0.17726 -0.942433,0.3789 -1.394533,0.60545 -0.08398,0.042 -0.162973,0.093 -0.246085,0.13681 -0.369751,0.19465 -0.73206,0.40256 -1.082029,0.62892 -0.131717,0.085 -0.257802,0.17801 -0.386718,0.26759 -0.295861,0.20598 -0.584205,0.42051 -0.863282,0.64845 -0.134966,0.11036 -0.267401,0.22224 -0.398437,0.33789 -0.261619,0.23055 -0.511726,0.47282 -0.75586,0.72265 -0.141619,0.14513 -0.288076,0.28384 -0.423829,0.43555 -0.06285,0.0703 -0.124082,0.14135 -0.185537,0.21279 -0.247824,0.28838 -0.489135,0.58386 -0.714841,0.89454 l 0.002,0.002 c -0.285883,0.39356 -0.555326,0.80144 -0.80078,1.22656 l 9.1250002,12.99999 h 2.000002 l 4.619142,-9.61912 1.378907,-1.37893 h 7.001949 l 1.070313,-0.0189 c -0.204586,-0.53299 -0.444843,-1.05071 -0.712891,-1.55471 h 0.0038 c -0.0094,-0.0189 -0.01965,-0.034 -0.02948,-0.0529 -0.006,-0.0113 -0.01172,-0.0227 -0.01739,-0.034 h -0.002 c -1.251111,-2.31349 -3.105861,-4.18643 -5.314409,-5.46289 l 0.002,-0.004 c -0.02154,-0.0113 -0.04483,-0.0227 -0.06641,-0.034 -0.345751,-0.19729 -0.700505,-0.37939 -1.062501,-0.5469 -0.08409,-0.0389 -0.169171,-0.0741 -0.253908,-0.11111 -0.341405,-0.14967 -0.687391,-0.28763 -1.041018,-0.41016 -0.03817,-0.0151 -0.07502,-0.0302 -0.113273,-0.0431 -0.381857,-0.12851 -0.772017,-0.2366 -1.166014,-0.33223 -0.08194,-0.0189 -0.163843,-0.0382 -0.246085,-0.0567 -0.395244,-0.0884 -0.794185,-0.16479 -1.199218,-0.21883 -0.03628,-0.004 -0.07298,-0.008 -0.10938,-0.0113 -0.253795,-0.0302 -0.508686,-0.0601 -0.765626,-0.0782 -0.121436,-0.008 -0.242116,-0.008 -0.363288,-0.0151 -0.09056,-0.004 -0.180851,-0.008 -0.271484,-0.0113 -0.08844,-0.002 -0.177335,-0.008 -0.265625,-0.0113 z"
         style="opacity:0.98000004;fill:url(#linearGradient1418);fill-opacity:1;stroke:none;stroke-width:4.20620251;stroke-linecap:square;stroke-linejoin:miter;stroke-miterlimit:4;stroke-dasharray:none;stroke-opacity:1;paint-order:stroke markers fill" />
      <path
         inkscape:connector-curvature="0"
         id="path1108-9"
         d="m 2.000224,306.6501 a 8.0000014,8.0000014 0 0 1 -8.0000005,7.99999 8.0000014,8.0000014 0 0 1 -7.9999995,-7.99999 8.0000014,8.0000014 0 0 1 7.9999995,-8.00004 8.0000014,8.0000014 0 0 1 8.0000005,8.00004 z"
         style="opacity:0.98000004;fill:#90a4ae;fill-opacity:1;stroke:none;stroke-width:2.13333368;stroke-linecap:square;stroke-linejoin:miter;stroke-miterlimit:4;stroke-dasharray:none;stroke-opacity:1;paint-order:stroke markers fill" />
      <path
         inkscape:connector-curvature="0"
         id="path1108-2-7"
         d="m 1.000224,306.65007 a 7.0000004,7.0000004 0 0 1 -7.0000005,7 7.0000004,7.0000004 0 0 1 -6.9999995,-7 7.0000004,7.0000004 0 0 1 6.9999995,-7 7.0000004,7.0000004 0 0 1 7.0000005,7 z"
         style="opacity:0.98000004;fill:url(#linearGradient1350);fill-opacity:1;stroke:none;stroke-width:1.86666679;stroke-linecap:square;stroke-linejoin:miter;stroke-miterlimit:4;stroke-dasharray:none;stroke-opacity:1;paint-order:stroke markers fill" />
      <path
         id="path1108-2-0-3"
         d="m -0.999776,306.65009 a 4.9999996,4.9999996 0 0 1 -5.0000031,4.99999 4.9999996,4.9999996 0 0 1 -4.9999969,-4.99999 4.9999996,4.9999996 0 0 1 4.9999969,-5.00003 4.9999996,4.9999996 0 0 1 5.0000031,5.00003 z"
         style="opacity:0.98000004;fill:#154ec0;fill-opacity:1;stroke:none;stroke-width:1.33333325;stroke-linecap:square;stroke-linejoin:miter;stroke-miterlimit:4;stroke-dasharray:none;stroke-opacity:1;paint-order:stroke markers fill"
         inkscape:connector-curvature="0" />
      <path
         id="path1108-2-0-2-6"
         d="m -1.999776,306.65007 a 3.9999999,3.9999999 0 0 1 -4,4 3.9999999,3.9999999 0 0 1 -4,-4 3.9999999,3.9999999 0 0 1 4,-4 3.9999999,3.9999999 0 0 1 4,4 z"
         style="opacity:0.98000004;fill:url(#linearGradient1342);fill-opacity:1;stroke:none;stroke-width:1.06666672;stroke-linecap:square;stroke-linejoin:miter;stroke-miterlimit:4;stroke-dasharray:none;stroke-opacity:1;paint-order:stroke markers fill"
         inkscape:connector-curvature="0" />
    </g>
  </g>
</svg>
