<?xml version="1.0" encoding="UTF-8" standalone="no"?>
<!-- Created with Inkscape (http://www.inkscape.org/) -->

<svg
   xmlns:dc="http://purl.org/dc/elements/1.1/"
   xmlns:cc="http://creativecommons.org/ns#"
   xmlns:rdf="http://www.w3.org/1999/02/22-rdf-syntax-ns#"
   xmlns:svg="http://www.w3.org/2000/svg"
   xmlns="http://www.w3.org/2000/svg"
   xmlns:sodipodi="http://sodipodi.sourceforge.net/DTD/sodipodi-0.dtd"
   xmlns:inkscape="http://www.inkscape.org/namespaces/inkscape"
   width="32"
   height="32"
   viewBox="0 0 8.4666665 8.4666669"
   version="1.1"
   id="svg8"
   inkscape:version="0.92.1 r"
   sodipodi:docname="htop.svg">
  <defs
     id="defs2" />
  <sodipodi:namedview
     id="base"
     pagecolor="#ffffff"
     bordercolor="#666666"
     borderopacity="1.0"
     inkscape:pageopacity="0.0"
     inkscape:pageshadow="2"
     inkscape:zoom="1"
     inkscape:cx="-194.03689"
     inkscape:cy="11.145646"
     inkscape:document-units="px"
     inkscape:current-layer="layer1"
     showgrid="false"
     units="px"
     inkscape:window-width="1366"
     inkscape:window-height="697"
     inkscape:window-x="0"
     inkscape:window-y="0"
     inkscape:window-maximized="1" />
  <metadata
     id="metadata5">
    <rdf:RDF>
      <cc:Work
         rdf:about="">
        <dc:format>image/svg+xml</dc:format>
        <dc:type
           rdf:resource="http://purl.org/dc/dcmitype/StillImage" />
        <dc:title></dc:title>
      </cc:Work>
    </rdf:RDF>
  </metadata>
  <g
     inkscape:label="Capa 1"
     inkscape:groupmode="layer"
     id="layer1"
     transform="translate(0,-288.53332)">
    <g
       id="g8976"
       transform="translate(3.3120164,-0.12284165)">
      <path
         style="opacity:1;vector-effect:none;fill:#333333;fill-opacity:1;stroke:none;stroke-width:0.2;stroke-linecap:round;stroke-linejoin:bevel;stroke-miterlimit:4;stroke-dasharray:none;stroke-dashoffset:0;stroke-opacity:0.39215686;paint-order:stroke fill markers"
         d="M -3.0474331,289.44991 H 4.890067 v 6.87917 h -7.9375001 z"
         id="rect6288"
         inkscape:connector-curvature="0" />
      <path
         style="opacity:1;vector-effect:none;fill:#030303;fill-opacity:1;stroke:none;stroke-width:0.2;stroke-linecap:round;stroke-linejoin:bevel;stroke-miterlimit:4;stroke-dasharray:none;stroke-dashoffset:0;stroke-opacity:0.39215686;paint-order:stroke fill markers"
         d="m -3.0474331,289.18533 c -0.1465817,0 -0.2645833,0.118 -0.2645833,0.26458 v 6.87917 c 0,0.14658 0.1180016,0.26458 0.2645833,0.26458 H 4.890067 c 0.1465818,0 0.2645833,-0.118 0.2645833,-0.26458 v -6.87917 c 0,-0.14658 -0.1180015,-0.26458 -0.2645833,-0.26458 z m 0.2645834,0.52917 h 7.4083333 v 6.35 h -7.4083333 z"
         id="rect6283"
         inkscape:connector-curvature="0" />
      <path
         style="opacity:1;fill:#29d6ff;fill-opacity:1;stroke:none;stroke-width:0.26458335;stroke-linecap:butt;stroke-linejoin:round;stroke-miterlimit:4;stroke-dasharray:none;stroke-opacity:1"
         d="m -2.2536831,295.53533 v 0.26458 h 0.79375 v -0.26458 z m 1.0583334,0 v 0.26458 h 0.79375002 v -0.26458 z m 1.05833332,0 v 0.26458 h 0.79375 v -0.26458 z m 1.32291668,0 v 0.26458 h 0.79375 v -0.26458 z m 1.0583333,0 v 0.26458 h 0.79375 v -0.26458 z m 1.0583334,0 v 0.26458 h 0.79375 v -0.26458 z"
         id="rect6127"
         inkscape:connector-curvature="0"
         sodipodi:nodetypes="cccccccccccccccccccccccccccccc" />
      <path
         style="opacity:1;vector-effect:none;fill:#0f0f0f;fill-opacity:0.7019608;stroke:none;stroke-width:0.2;stroke-linecap:round;stroke-linejoin:bevel;stroke-miterlimit:4;stroke-dasharray:none;stroke-dashoffset:0;stroke-opacity:0.39215686;paint-order:stroke fill markers"
         d="m -2.7828497,290.50825 v 1.05833 h 7.4083333 v -1.05833 z m 0,1.85208 v 1.05833 h 7.4083333 v -1.05833 z m 0,1.85208 v 1.05834 h 7.4083333 v -1.05834 z"
         id="rect6299-1-1-0"
         inkscape:connector-curvature="0" />
      <path
         style="opacity:1;fill:#32ff3f;fill-opacity:1;stroke:none;stroke-width:0.26458335;stroke-linecap:butt;stroke-linejoin:round;stroke-miterlimit:4;stroke-dasharray:none;stroke-opacity:1"
         d="m -0.40159968,290.77283 v 1.05834 h 0.2645833 v -1.05834 z m 0.5291666,0 v 1.05834 h 0.2645834 v -1.05834 z m 1.58750008,0 v 1.05834 h 0.2645833 v -1.05834 z m 0.5291666,0 v 1.05834 H 2.508817 v -1.05834 z m -2.64583328,1.32292 v 1.05833 h 0.2645833 v -1.05833 z m 0.5291666,0 v 1.05833 h 0.2645834 v -1.05833 z m 0.5291667,0 v 1.05833 h 0.2645833 v -1.05833 z m 0.52916668,0 v 1.05833 h 0.2645833 v -1.05833 z m 0.5291667,0 v 1.05833 h 0.2645833 v -1.05833 z m 0.5291666,0 v 1.05833 H 2.508817 v -1.05833 z m -2.64583328,1.32292 v 1.05833 h 0.2645833 v -1.05833 z m 0.5291666,0 v 1.05833 h 0.2645834 v -1.05833 z m 1.58750008,0 v 1.05833 h 0.2645833 v -1.05833 z m 0.5291666,0 V 294.477 H 2.508817 v -1.05833 z"
         id="rect6031"
         inkscape:connector-curvature="0" />
      <path
         style="opacity:1;fill:#fefefe;fill-opacity:1;stroke:none;stroke-width:0.26458335;stroke-linecap:butt;stroke-linejoin:round;stroke-miterlimit:4;stroke-dasharray:none;stroke-opacity:1"
         d="m -0.93076638,290.77283 v 1.05834 h 0.2645833 v -1.05834 z m 3.70416668,0 v 1.05834 h 0.2645833 v -1.05834 z m -3.70416668,1.32292 v 1.05833 h 0.2645833 v -1.05833 z m 3.70416668,0 v 1.05833 h 0.2645833 v -1.05833 z m -3.70416668,1.32292 v 1.05833 h 0.2645833 v -1.05833 z m 3.70416668,0 v 1.05833 h 0.2645833 v -1.05833 z"
         id="rect6065"
         inkscape:connector-curvature="0" />
    </g>
  </g>
</svg>
