<?xml version="1.0" encoding="UTF-8" standalone="no"?>
<!-- Created with Inkscape (http://www.inkscape.org/) -->

<svg
   xmlns:dc="http://purl.org/dc/elements/1.1/"
   xmlns:cc="http://creativecommons.org/ns#"
   xmlns:rdf="http://www.w3.org/1999/02/22-rdf-syntax-ns#"
   xmlns:svg="http://www.w3.org/2000/svg"
   xmlns="http://www.w3.org/2000/svg"
   xmlns:xlink="http://www.w3.org/1999/xlink"
   xmlns:sodipodi="http://sodipodi.sourceforge.net/DTD/sodipodi-0.dtd"
   xmlns:inkscape="http://www.inkscape.org/namespaces/inkscape"
   width="32"
   height="32"
   viewBox="0 0 32 32"
   version="1.1"
   id="svg8"
   inkscape:version="0.92.2 5c3e80d, 2017-08-06"
   sodipodi:docname="hwinfo.svg">
  <title
     id="title7895">Antu icon Theme</title>
  <defs
     id="defs2">
    <linearGradient
       inkscape:collect="always"
       xlink:href="#linearGradient885"
       id="linearGradient4696"
       x1="15"
       y1="23"
       x2="15"
       y2="9"
       gradientUnits="userSpaceOnUse"
       gradientTransform="matrix(1.1428571,0,0,1.1428571,-33.285715,287.3643)" />
    <linearGradient
       id="linearGradient885"
       inkscape:collect="always">
      <stop
         id="stop881"
         offset="0"
         style="stop-color:#bceff1;stop-opacity:1" />
      <stop
         id="stop883"
         offset="1"
         style="stop-color:#fffeff;stop-opacity:1" />
    </linearGradient>
    <linearGradient
       gradientTransform="translate(-31,289.65005)"
       inkscape:collect="always"
       xlink:href="#linearGradient4582"
       id="linearGradient4584"
       x1="15"
       y1="30"
       x2="15"
       y2="2"
       gradientUnits="userSpaceOnUse" />
    <linearGradient
       inkscape:collect="always"
       id="linearGradient4582">
      <stop
         style="stop-color:#188c79;stop-opacity:1"
         offset="0"
         id="stop4578" />
      <stop
         style="stop-color:#1fb69d;stop-opacity:1"
         offset="1"
         id="stop4580" />
    </linearGradient>
  </defs>
  <sodipodi:namedview
     id="base"
     pagecolor="#ffffff"
     bordercolor="#666666"
     borderopacity="1.0"
     inkscape:pageopacity="0.0"
     inkscape:pageshadow="2"
     inkscape:zoom="15.839192"
     inkscape:cx="-4.4321239"
     inkscape:cy="9.8592752"
     inkscape:document-units="px"
     inkscape:current-layer="layer1"
     showgrid="true"
     units="px"
     inkscape:window-width="1366"
     inkscape:window-height="697"
     inkscape:window-x="0"
     inkscape:window-y="0"
     inkscape:window-maximized="1"
     objecttolerance="10"
     gridtolerance="10"
     guidetolerance="10">
    <inkscape:grid
       type="xygrid"
       id="grid7897"
       empspacing="4" />
  </sodipodi:namedview>
  <metadata
     id="metadata5">
    <rdf:RDF>
      <cc:Work
         rdf:about="">
        <dc:format>image/svg+xml</dc:format>
        <dc:type
           rdf:resource="http://purl.org/dc/dcmitype/StillImage" />
        <dc:title>Antu icon Theme</dc:title>
      </cc:Work>
    </rdf:RDF>
  </metadata>
  <g
     inkscape:label="Capa 1"
     inkscape:groupmode="layer"
     id="layer1"
     transform="translate(0,-282.64999)">
    <g
       id="g1513"
       transform="translate(31,-7)">
      <path
         style="fill:#0b4037;fill-opacity:1;stroke:none;stroke-width:1.00157475;stroke-linecap:round;stroke-linejoin:round;stroke-miterlimit:4;stroke-dasharray:none;stroke-opacity:1"
         d="m -29,290.64999 c -0.554,0 -1,0.44598 -1,0.99999 V 295.65 h 2 v 1.99998 h -2 V 319.65 c 0,0.554 0.446,0.99999 1,0.99999 H -1.0000001 C -0.44600013,320.64999 -1.3e-7,320.204 -1.3e-7,319.65 V 297.64998 H -2.0000001 V 295.65 H -1.3e-7 v -4.00002 c 0,-0.55401 -0.446,-0.99999 -0.99999997,-0.99999 z m 3,2.00001 h 19.9999999 v 25.99998 H -26 Z"
         id="rect4573"
         inkscape:connector-curvature="0"
         sodipodi:nodetypes="ssccccssssccccsssccccc" />
      <path
         style="fill:url(#linearGradient4584);fill-opacity:1;stroke:none;stroke-width:1.00157475;stroke-linecap:round;stroke-linejoin:round;stroke-miterlimit:4;stroke-dasharray:none;stroke-opacity:1"
         d="m -29,291.64998 v 3 h 2 V 298.65 h -2 v 21 h 27.9999999 v -8.00001 h -3 V 310.65 305.64999 304.65 h 1 2 v -6 h -2 v -4.00002 h 2 v -3 z"
         id="rect4571"
         inkscape:connector-curvature="0"
         sodipodi:nodetypes="cccccccccccccccccccc" />
      <path
         inkscape:connector-curvature="0"
         style="fill:#0b4037;fill-opacity:1;stroke:none;stroke-width:2.24999976;stroke-linecap:round;stroke-linejoin:round;stroke-miterlimit:4;stroke-dasharray:none;stroke-opacity:1"
         d="m -23,296.64999 h 15.9999999 c 0.554,0 1,0.44598 1,0.99999 V 313.65 c 0,0.554 -0.446,0.99999 -1,0.99999 H -23 c -0.554,0 -1,-0.44599 -1,-0.99999 v -16.00002 c 0,-0.55401 0.446,-0.99999 1,-0.99999 z"
         id="rect4511" />
      <path
         style="fill:url(#linearGradient4696);fill-opacity:1;stroke:none;stroke-width:2.28571439;stroke-linecap:round;stroke-linejoin:round;stroke-miterlimit:4;stroke-dasharray:none;stroke-opacity:1"
         d="M -23,297.64998 V 313.65 h 15.9999999 v -16.00002 z m 7,2.00001 h 6.9999999 v 0.99999 H -16 Z m 2,3 h 4.9999999 v 0.99999 H -14 Z"
         id="rect4513"
         inkscape:connector-curvature="0"
         sodipodi:nodetypes="ccccccccccccccc" />
      <path
         inkscape:connector-curvature="0"
         style="fill:#faf7f7;fill-opacity:1;stroke:none;stroke-width:1px;stroke-linecap:butt;stroke-linejoin:miter;stroke-opacity:1"
         d="m -21,292.65 v 0.99999 h 1 V 292.65 Z m 1,0.99999 v 0.99999 h 1 v -0.99999 z m 1,0 h 1 V 292.65 h -1 z m 1,0 v 0.99999 h 1 v -0.99999 z m 1,0 h 1 V 292.65 h -1 z m 1,0 v 0.99999 h 1 v -0.99999 z m 1,0 h 1 V 292.65 h -1 z m 1,0 v 0.99999 h 1 v -0.99999 z m 1,0 h 1 V 292.65 h -1 z m -15,9.99999 V 304.65 h 1 v -1.00002 z m 1,1.00002 v 0.99999 h 1 V 304.65 Z m 0,0.99999 h -1 v 0.99999 h 1 z m 0,0.99999 V 307.65 h 1 v -1.00002 z m 0,1.00002 h -1 v 0.99999 h 1 z m 0,0.99999 v 0.99999 h 1 v -0.99999 z m 0,0.99999 h -1 V 310.65 h 1 z m 0,1.00002 v 0.99999 h 1 V 310.65 Z m 0,0.99999 h -1 v 0.99999 h 1 z m -1,3 v 2.00001 1.99998 h 2 2 z m 7,2.00001 v 0.99999 h 1 V 316.65 Z m 1,0.99999 v 0.99999 h 1 v -0.99999 z m 1,0 h 1 V 316.65 h -1 z m 1,0 v 0.99999 h 1 v -0.99999 z m 1,0 h 1 V 316.65 h -1 z m 1,0 v 0.99999 h 1 v -0.99999 z m 1,0 h 1 V 316.65 h -1 z m 1,0 v 0.99999 h 1 v -0.99999 z m -7,0 h -1 v 0.99999 h 1 z"
         id="path4659" />
      <path
         inkscape:connector-curvature="0"
         style="fill:#01ffa7;fill-opacity:1;stroke:none;stroke-width:2;stroke-linecap:round;stroke-linejoin:round;stroke-miterlimit:4;stroke-dasharray:none;stroke-opacity:1"
         d="m -3.0000001,305.64999 h 2 V 310.65 h -2 z"
         id="rect4746" />
    </g>
  </g>
</svg>
