<?xml version="1.0" encoding="UTF-8" standalone="no"?>
<!-- Created with Inkscape (http://www.inkscape.org/) -->

<svg
   xmlns:dc="http://purl.org/dc/elements/1.1/"
   xmlns:cc="http://creativecommons.org/ns#"
   xmlns:rdf="http://www.w3.org/1999/02/22-rdf-syntax-ns#"
   xmlns:svg="http://www.w3.org/2000/svg"
   xmlns="http://www.w3.org/2000/svg"
   xmlns:xlink="http://www.w3.org/1999/xlink"
   xmlns:sodipodi="http://sodipodi.sourceforge.net/DTD/sodipodi-0.dtd"
   xmlns:inkscape="http://www.inkscape.org/namespaces/inkscape"
   width="32"
   height="32"
   viewBox="0 0 32 32"
   version="1.1"
   id="svg8"
   inkscape:version="0.92.2 2405546, 2018-03-11"
   sodipodi:docname="kdeconnect.svg">
  <title
     id="title7895">Antu icon Theme</title>
  <defs
     id="defs2">
    <linearGradient
       inkscape:collect="always"
       xlink:href="#linearGradient4506"
       id="linearGradient1186"
       x1="-51"
       y1="320.64999"
       x2="-51"
       y2="291.64999"
       gradientUnits="userSpaceOnUse" />
    <linearGradient
       inkscape:collect="always"
       id="linearGradient4506">
      <stop
         style="stop-color:#252a34;stop-opacity:1"
         offset="0"
         id="stop4502" />
      <stop
         style="stop-color:#353d4b;stop-opacity:1"
         offset="1"
         id="stop4504" />
    </linearGradient>
    <linearGradient
       id="linearGradient1962"
       inkscape:collect="always">
      <stop
         id="stop1958"
         offset="0"
         style="stop-color:#33acfa;stop-opacity:1" />
      <stop
         id="stop1960"
         offset="1"
         style="stop-color:#0d72ec;stop-opacity:1" />
    </linearGradient>
    <linearGradient
       inkscape:collect="always"
       xlink:href="#linearGradient1962"
       id="linearGradient893"
       x1="-51"
       y1="318.64999"
       x2="-51"
       y2="294.64999"
       gradientUnits="userSpaceOnUse" />
  </defs>
  <sodipodi:namedview
     id="base"
     pagecolor="#ffffff"
     bordercolor="#666666"
     borderopacity="1.0"
     inkscape:pageopacity="0.0"
     inkscape:pageshadow="2"
     inkscape:zoom="7.9999996"
     inkscape:cx="8.7437435"
     inkscape:cy="18.308503"
     inkscape:document-units="px"
     inkscape:current-layer="g1196"
     showgrid="true"
     units="px"
     inkscape:window-width="1360"
     inkscape:window-height="711"
     inkscape:window-x="0"
     inkscape:window-y="28"
     inkscape:window-maximized="1"
     objecttolerance="10"
     gridtolerance="10"
     guidetolerance="10">
    <inkscape:grid
       type="xygrid"
       id="grid7897"
       empspacing="4" />
  </sodipodi:namedview>
  <metadata
     id="metadata5">
    <rdf:RDF>
      <cc:Work
         rdf:about="">
        <dc:format>image/svg+xml</dc:format>
        <dc:type
           rdf:resource="http://purl.org/dc/dcmitype/StillImage" />
        <dc:title>Antu icon Theme</dc:title>
      </cc:Work>
    </rdf:RDF>
  </metadata>
  <g
     inkscape:label="Capa 1"
     inkscape:groupmode="layer"
     id="layer1"
     transform="translate(0,-282.64999)">
    <g
       id="g2044"
       transform="translate(44,-8)">
      <g
         transform="translate(23)"
         id="g1196">
        <rect
           style="fill:url(#linearGradient1186);fill-opacity:1;stroke:none;stroke-width:0.80000001;stroke-linecap:round;stroke-linejoin:round;stroke-miterlimit:4;stroke-dasharray:none;stroke-opacity:1"
           id="rect837-3-6"
           width="20"
           height="29.999996"
           x="-61"
           y="291.64999"
           ry="2.9999962" />
        <path
           style="opacity:1;vector-effect:none;fill:url(#linearGradient893);fill-opacity:1;stroke:none;stroke-width:2;stroke-linecap:round;stroke-linejoin:round;stroke-miterlimit:4;stroke-dasharray:none;stroke-dashoffset:0;stroke-opacity:1"
           d="m -58,293.64999 h 14 c 0.554,0 1,0.446 1,1 v 24 c 0,0.554 -0.446,1 -1,1 h -14 c -0.554,0 -1,-0.446 -1,-1 v -24 c 0,-0.554 0.446,-1 1,-1 z"
           id="rect834" />
        <path
           style="fill:#15151a;fill-opacity:1;stroke:none;stroke-width:0.80000001;stroke-linecap:round;stroke-linejoin:round;stroke-miterlimit:4;stroke-dasharray:none;stroke-opacity:0"
           d="M 9,1 C 7.338002,1 6,2.338 6,4 v 24 c 0,1.662 1.338002,3 3,3 h 14 c 1.661998,0 3,-1.338 3,-3 V 4 C 26,2.338 24.661998,1 23,1 h -1.96875 -10.0625 z m 0,1 h 1 c 1,0 1,2 1.968375,2 h 8.06325 C 21,4 21,2 22,2 h 1 c 1.107998,0 2,0.892 2,2 v 24 c 0,1.108 -0.892002,2 -2,2 H 9 C 7.892002,30 7,29.108 7,28 V 4 C 7,2.892 7.897501,1.88975 9,2 Z m 4.492188,0 h 3.015624 C 16.780485,2 17,2.2195175 17,2.4921875 v 0.015625 C 17,2.7804925 16.780485,3 16.507812,3 H 13.492188 C 13.219515,3.00002 13,2.7804925 13,2.5078125 V 2.4921875 C 13,2.2195175 13.219515,2 13.492188,2 Z M 18.5,2 C 18.777,2 19,2.223 19,2.5 19,2.777 18.777,3 18.5,3 18.223,3 18,2.777 18,2.5 18,2.223 18.223,2 18.5,2 Z"
           transform="translate(-67,290.64999)"
           id="rect835-7"
           inkscape:connector-curvature="0"
           sodipodi:nodetypes="ssssssssccscccccssssssscssssscssssssss" />
        <path
           id="rect995-3"
           d="m -54.500002,317.64987 h 7.000004 c 0.276999,0 0.499998,0.223 0.499998,0.5 0,0.277 -0.222999,0.5 -0.499998,0.5 h -7.000004 c -0.276999,0 -0.499998,-0.223 -0.499998,-0.5 0,-0.277 0.222999,-0.5 0.499998,-0.5 z"
           style="fill:#15151a;fill-opacity:1;stroke:none;stroke-width:0.80000001;stroke-linecap:round;stroke-linejoin:round;stroke-miterlimit:4;stroke-dasharray:none;stroke-opacity:1"
           inkscape:connector-curvature="0" />
      </g>
    </g>
  </g>
</svg>
