<?xml version="1.0" encoding="UTF-8" standalone="no"?>
<!-- Created with Inkscape (http://www.inkscape.org/) -->

<svg
   xmlns:dc="http://purl.org/dc/elements/1.1/"
   xmlns:cc="http://creativecommons.org/ns#"
   xmlns:rdf="http://www.w3.org/1999/02/22-rdf-syntax-ns#"
   xmlns:svg="http://www.w3.org/2000/svg"
   xmlns="http://www.w3.org/2000/svg"
   xmlns:xlink="http://www.w3.org/1999/xlink"
   xmlns:sodipodi="http://sodipodi.sourceforge.net/DTD/sodipodi-0.dtd"
   xmlns:inkscape="http://www.inkscape.org/namespaces/inkscape"
   width="32"
   height="32"
   viewBox="0 0 32 32"
   version="1.1"
   id="svg8"
   inkscape:version="0.92.2 (5c3e80d, 2017-08-06)"
   sodipodi:docname="kdeconnect.svg">
  <title
     id="title7895">Antu icon Theme</title>
  <defs
     id="defs2">
    <linearGradient
       gradientTransform="translate(-44,290.64999)"
       inkscape:collect="always"
       xlink:href="#linearGradient1132"
       id="linearGradient1134"
       x1="16"
       y1="32"
       x2="16"
       y2="0"
       gradientUnits="userSpaceOnUse" />
    <linearGradient
       inkscape:collect="always"
       id="linearGradient1132">
      <stop
         style="stop-color:#141a1a;stop-opacity:1"
         offset="0"
         id="stop1127" />
      <stop
         style="stop-color:#232c2c;stop-opacity:1"
         offset="1"
         id="stop1129" />
    </linearGradient>
    <linearGradient
       gradientTransform="translate(-44,290.64993)"
       inkscape:collect="always"
       xlink:href="#linearGradient4737"
       id="linearGradient1083"
       x1="27"
       y1="34.000061"
       x2="10"
       y2="5.0000601"
       gradientUnits="userSpaceOnUse" />
    <linearGradient
       inkscape:collect="always"
       id="linearGradient4737">
      <stop
         style="stop-color:#018ed7;stop-opacity:1"
         offset="0"
         id="stop4733" />
      <stop
         style="stop-color:#00dc9a;stop-opacity:1"
         offset="1"
         id="stop4735" />
    </linearGradient>
  </defs>
  <sodipodi:namedview
     id="base"
     pagecolor="#ffffff"
     bordercolor="#666666"
     borderopacity="1.0"
     inkscape:pageopacity="0.0"
     inkscape:pageshadow="2"
     inkscape:zoom="3.9999998"
     inkscape:cx="-47.649338"
     inkscape:cy="26.31639"
     inkscape:document-units="px"
     inkscape:current-layer="g2044"
     showgrid="true"
     units="px"
     inkscape:window-width="1280"
     inkscape:window-height="729"
     inkscape:window-x="0"
     inkscape:window-y="0"
     inkscape:window-maximized="1"
     objecttolerance="10"
     gridtolerance="10"
     guidetolerance="10">
    <inkscape:grid
       type="xygrid"
       id="grid7897"
       empspacing="4" />
  </sodipodi:namedview>
  <metadata
     id="metadata5">
    <rdf:RDF>
      <cc:Work
         rdf:about="">
        <dc:format>image/svg+xml</dc:format>
        <dc:type
           rdf:resource="http://purl.org/dc/dcmitype/StillImage" />
        <dc:title>Antu icon Theme</dc:title>
      </cc:Work>
    </rdf:RDF>
  </metadata>
  <g
     inkscape:label="Capa 1"
     inkscape:groupmode="layer"
     id="layer1"
     transform="translate(0,-282.64999)">
    <g
       id="g2044"
       transform="translate(44,-8)">
      <rect
         ry="2.9999962"
         y="291.64999"
         x="-38"
         height="29.999996"
         width="20"
         id="rect837-3"
         style="fill:#233a39;fill-opacity:1;stroke:none;stroke-width:0.80000001;stroke-linecap:round;stroke-linejoin:round;stroke-miterlimit:4;stroke-dasharray:none;stroke-opacity:1" />
      <path
         sodipodi:nodetypes="ssssssssccsscsssscssssssss"
         inkscape:connector-curvature="0"
         id="rect835"
         d="m -35,291.64999 c -1.661998,0 -3,1.338 -3,3 v 24 c 0,1.662 1.338002,3 3,3 h 14 c 1.661998,0 3,-1.338 3,-3 v -24 c 0,-1.662 -1.338002,-3 -3,-3 h -1.96875 -10.0625 z m 0,1 h 1 v 1.03125 c 0,0.53669 0.432063,0.96875 0.96875,0.96875 h 10.0625 c 0.536687,0 0.96875,-0.43206 0.96875,-0.96875 v -1.03125 h 1 c 1.107998,0 2,0.892 2,2 v 24 c 0,1.108 -0.892002,2 -2,2 h -14 c -1.107998,0 -2,-0.892 -2,-2 v -24 c 0,-1.108 0.897501,-2.11025 2,-2 z"
         style="fill:url(#linearGradient1134);fill-opacity:1;stroke:#e5c6d2;stroke-width:0.80000001;stroke-linecap:round;stroke-linejoin:round;stroke-miterlimit:4;stroke-dasharray:none;stroke-opacity:0" />
      <path
         style="fill:url(#linearGradient1083);fill-opacity:1.0;stroke:#e5c6d2;stroke-width:0.80000001;stroke-linecap:round;stroke-linejoin:round;stroke-miterlimit:4;stroke-dasharray:none;stroke-opacity:0"
         d="m -34,293.64993 h -1 c -0.553998,0 -1,0.446 -1,1 v 24 c 0,0.554 0.446002,1 1,1 h 14 c 0.553998,0 1,-0.446 1,-1 v -24 c 0,-0.554 -0.446002,-1 -1,-1 h -1 c 0,0.277 -0.112219,0.52628 -0.292969,0.70703 -0.180749,0.18075 -0.430032,0.29297 -0.707031,0.29297 h -10 c -0.276999,0 -0.526282,-0.11222 -0.707031,-0.29297 C -33.887781,294.17621 -34,293.92693 -34,293.64993 Z"
         id="path1056"
         inkscape:connector-curvature="0"
         sodipodi:nodetypes="cssssssssccsscc" />
      <path
         inkscape:connector-curvature="0"
         style="fill:#1a2121;fill-opacity:1;stroke:none;stroke-width:0.80000001;stroke-linecap:round;stroke-linejoin:round;stroke-miterlimit:4;stroke-dasharray:none;stroke-opacity:1"
         d="m -31.500002,317.64987 h 7.000004 c 0.276999,0 0.499998,0.223 0.499998,0.5 0,0.277 -0.222999,0.5 -0.499998,0.5 h -7.000004 c -0.276999,0 -0.499998,-0.223 -0.499998,-0.5 0,-0.277 0.222999,-0.5 0.499998,-0.5 z"
         id="rect995" />
      <path
         inkscape:connector-curvature="0"
         style="fill:#c3fbfb;fill-opacity:1;stroke:none;stroke-width:0.80000001;stroke-linecap:round;stroke-linejoin:round;stroke-miterlimit:4;stroke-dasharray:none;stroke-opacity:1"
         d="m -32.5,292.64999 c 0.277,0 0.5,0.223 0.5,0.5 0,0.277 -0.223,0.5 -0.5,0.5 -0.277,0 -0.5,-0.223 -0.5,-0.5 0,-0.277 0.223,-0.5 0.5,-0.5 z"
         id="rect1058" />
      <path
         inkscape:connector-curvature="0"
         style="fill:#c3fbfb;fill-opacity:1;stroke:none;stroke-width:0.80000001;stroke-linecap:round;stroke-linejoin:round;stroke-miterlimit:4;stroke-dasharray:none;stroke-opacity:1"
         d="m -30.507812,292.64999 h 3.015624 c 0.272672,0 0.492188,0.21952 0.492188,0.49219 v 0.0156 c 0,0.27268 -0.219516,0.49219 -0.492188,0.49219 h -3.015624 C -30.780484,293.64999 -31,293.43048 -31,293.1578 v -0.0156 c 0,-0.27267 0.219516,-0.49219 0.492188,-0.49219 z"
         id="rect1060" />
      <path
         inkscape:connector-curvature="0"
         style="fill:#c3fbfb;fill-opacity:1;stroke:none;stroke-width:0.80000001;stroke-linecap:round;stroke-linejoin:round;stroke-miterlimit:4;stroke-dasharray:none;stroke-opacity:1"
         d="m -25.5,292.64999 c 0.277,0 0.5,0.223 0.5,0.5 0,0.277 -0.223,0.5 -0.5,0.5 -0.277,0 -0.5,-0.223 -0.5,-0.5 0,-0.277 0.223,-0.5 0.5,-0.5 z"
         id="rect1062" />
      <path
         inkscape:connector-curvature="0"
         style="fill:#c3fbfb;fill-opacity:1;stroke:none;stroke-width:0.80000001;stroke-linecap:round;stroke-linejoin:round;stroke-miterlimit:4;stroke-dasharray:none;stroke-opacity:1"
         d="m -24,292.64999 h 1 v 1 h -1 z"
         id="rect1064" />
    </g>
  </g>
</svg>
