<?xml version="1.0" encoding="UTF-8" standalone="no"?>
<!-- Created with Inkscape (http://www.inkscape.org/) -->

<svg
   width="32"
   height="32"
   viewBox="0 0 8.4666662 8.4666664"
   version="1.1"
   id="svg1399"
   inkscape:version="1.2 (dc2aedaf03, 2022-05-15)"
   sodipodi:docname="muon.svg"
   xml:space="preserve"
   xmlns:inkscape="http://www.inkscape.org/namespaces/inkscape"
   xmlns:sodipodi="http://sodipodi.sourceforge.net/DTD/sodipodi-0.dtd"
   xmlns:xlink="http://www.w3.org/1999/xlink"
   xmlns="http://www.w3.org/2000/svg"
   xmlns:svg="http://www.w3.org/2000/svg"
   xmlns:rdf="http://www.w3.org/1999/02/22-rdf-syntax-ns#"
   xmlns:cc="http://creativecommons.org/ns#"
   xmlns:dc="http://purl.org/dc/elements/1.1/"><defs
     id="defs1393"><linearGradient
       gradientUnits="userSpaceOnUse"
       y2="3.96875"
       x2="6.0854168"
       y1="8.2020836"
       x1="6.0854168"
       id="linearGradient2363"
       xlink:href="#linearGradient825"
       inkscape:collect="always"
       gradientTransform="translate(-8.6763199,290.89594)" /><linearGradient
       inkscape:collect="always"
       id="linearGradient825"><stop
         style="stop-color:#0e74ec;stop-opacity:1;"
         offset="0"
         id="stop821" /><stop
         style="stop-color:#36b2fb;stop-opacity:1;"
         offset="1"
         id="stop823" /></linearGradient><linearGradient
       gradientTransform="matrix(3.7795275,0,0,3.7795275,-47.928569,-803.58391)"
       gradientUnits="userSpaceOnUse"
       y2="288.98691"
       x2="8.4477682"
       y1="295.60147"
       x1="8.4477682"
       id="linearGradient852"
       xlink:href="#linearGradient6408"
       inkscape:collect="always" /><linearGradient
       inkscape:collect="always"
       id="linearGradient6408"><stop
         style="stop-color:#cfa578;stop-opacity:1"
         offset="0"
         id="stop6404" /><stop
         style="stop-color:#d9b389;stop-opacity:1"
         offset="1"
         id="stop6406" /></linearGradient></defs><sodipodi:namedview
     id="base"
     pagecolor="#ffffff"
     bordercolor="#666666"
     borderopacity="1.0"
     inkscape:pageopacity="0.0"
     inkscape:pageshadow="2"
     inkscape:zoom="15.839192"
     inkscape:cx="34.124216"
     inkscape:cy="23.265076"
     inkscape:document-units="px"
     inkscape:current-layer="g1507"
     showgrid="true"
     inkscape:showpageshadow="false"
     units="px"
     inkscape:window-width="2160"
     inkscape:window-height="1335"
     inkscape:window-x="0"
     inkscape:window-y="0"
     inkscape:window-maximized="1"
     inkscape:pagecheckerboard="0"
     inkscape:deskcolor="#d1d1d1"><inkscape:grid
       type="xygrid"
       id="grid3620" /></sodipodi:namedview><metadata
     id="metadata1396"><rdf:RDF><cc:Work
         rdf:about=""><dc:format>image/svg+xml</dc:format><dc:type
           rdf:resource="http://purl.org/dc/dcmitype/StillImage" /></cc:Work></rdf:RDF></metadata><g
     inkscape:label="Capa 1"
     inkscape:groupmode="layer"
     id="layer1"
     transform="translate(0,-288.53338)"><g
       id="g2031"
       transform="translate(8.6766889,-2.3624415)"><g
         transform="matrix(0.26458332,0,0,0.26458332,-0.47501667,215.58186)"
         id="g1317"><path
           id="rect843-9"
           d="m -29,284.64999 h 26 c 1.108,0 2,0.892 2,2 v 26 c 0,1.108 -0.892,2 -2,2 h -26 c -1.108,0 -2,-0.892 -2,-2 v -26 c 0,-1.108 0.892,-2 2,-2 z"
           style="opacity:1;fill:#806956;fill-opacity:1;stroke:none;stroke-width:2.39314151;stroke-linecap:round;stroke-linejoin:round;stroke-miterlimit:4;stroke-dasharray:none;stroke-opacity:1"
           inkscape:connector-curvature="0" /><path
           id="rect843-3-1"
           d="m -29,285.64999 c -0.554,0 -1,0.446 -1,1 v 9 h 23 3 l -1,2 1,2 -1,2 1,2 h -3 -23 v 9 c 0,0.554 0.446,1 1,1 h 26 c 0.554,0 1,-0.446 1,-1 v -26 c 0,-0.554 -0.446,-1 -1,-1 z"
           style="opacity:1;fill:url(#linearGradient852);fill-opacity:1;stroke:none;stroke-width:2.23359871;stroke-linecap:round;stroke-linejoin:round;stroke-miterlimit:4;stroke-dasharray:none;stroke-opacity:1"
           inkscape:connector-curvature="0" /><path
           id="rect841"
           d="m -25.000004,288.64999 h 16 c 0.554,0 1,0.446 1,1 v 20 c 0,0.554 -0.446,1 -1,1 h -16 c -0.554,0 -1,-0.446 -1,-1 v -20 c 0,-0.554 0.446,-1 1,-1 z"
           style="opacity:1;fill:#ffffff;fill-opacity:1;stroke:none;stroke-width:6;stroke-linecap:round;stroke-linejoin:round;stroke-miterlimit:4;stroke-dasharray:none;stroke-dashoffset:0;stroke-opacity:1;paint-order:stroke markers fill"
           inkscape:connector-curvature="0" /><path
           id="rect883"
           d="m -25,306.64999 h 1 v 3 h -1 z"
           style="opacity:1;fill:#242833;fill-opacity:1;stroke:none;stroke-width:6;stroke-linecap:round;stroke-linejoin:round;stroke-miterlimit:4;stroke-dasharray:none;stroke-dashoffset:0;stroke-opacity:1;paint-order:stroke markers fill"
           inkscape:connector-curvature="0" /><path
           id="rect885"
           d="m -23,306.64999 h 2 v 3 h -2 z"
           style="opacity:1;fill:#242833;fill-opacity:1;stroke:none;stroke-width:6;stroke-linecap:round;stroke-linejoin:round;stroke-miterlimit:4;stroke-dasharray:none;stroke-dashoffset:0;stroke-opacity:1;paint-order:stroke markers fill"
           inkscape:connector-curvature="0" /><path
           id="rect887"
           d="m -20,306.64999 h 1 v 3 h -1 z"
           style="opacity:1;fill:#242833;fill-opacity:1;stroke:none;stroke-width:6;stroke-linecap:round;stroke-linejoin:round;stroke-miterlimit:4;stroke-dasharray:none;stroke-dashoffset:0;stroke-opacity:1;paint-order:stroke markers fill"
           inkscape:connector-curvature="0" /><path
           id="rect889"
           d="m -18,306.64999 h 2 v 3 h -2 z"
           style="opacity:1;fill:#242833;fill-opacity:1;stroke:none;stroke-width:6;stroke-linecap:round;stroke-linejoin:round;stroke-miterlimit:4;stroke-dasharray:none;stroke-dashoffset:0;stroke-opacity:1;paint-order:stroke markers fill"
           inkscape:connector-curvature="0" /><path
           id="rect891"
           d="m -15,306.64999 h 2 v 3 h -2 z"
           style="opacity:1;fill:#363c4d;fill-opacity:1;stroke:none;stroke-width:6;stroke-linecap:round;stroke-linejoin:round;stroke-miterlimit:4;stroke-dasharray:none;stroke-dashoffset:0;stroke-opacity:1;paint-order:stroke markers fill"
           inkscape:connector-curvature="0" /><path
           id="rect893"
           d="m -11.999995,306.64999 h 1 v 3 h -1 z"
           style="opacity:1;fill:#363c4d;fill-opacity:1;stroke:none;stroke-width:6;stroke-linecap:round;stroke-linejoin:round;stroke-miterlimit:4;stroke-dasharray:none;stroke-dashoffset:0;stroke-opacity:1;paint-order:stroke markers fill"
           inkscape:connector-curvature="0" /><path
           id="rect895"
           d="m -9.999995,306.64999 h 1 v 3 h -1 z"
           style="opacity:1;fill:#363c4d;fill-opacity:1;stroke:none;stroke-width:6;stroke-linecap:round;stroke-linejoin:round;stroke-miterlimit:4;stroke-dasharray:none;stroke-dashoffset:0;stroke-opacity:1;paint-order:stroke markers fill"
           inkscape:connector-curvature="0" /></g><path
         id="rect843-5"
         d="m -2.5908618,294.60031 c 1.319213,0 2.38124993,1.06204 2.38124993,2.38125 0,1.31921 -1.06203693,2.38125 -2.38124993,2.38125 -1.3192119,0 -2.3812499,-1.06204 -2.3812499,-2.38125 0,-1.31921 1.062038,-2.38125 2.3812499,-2.38125 z"
         style="opacity:1;vector-effect:none;fill:#0b63cc;fill-opacity:1;stroke:none;stroke-width:0.59164834;stroke-linecap:round;stroke-linejoin:round;stroke-miterlimit:4;stroke-dasharray:none;stroke-dashoffset:0;stroke-opacity:1"
         inkscape:connector-curvature="0" /><path
         id="rect843-6-6"
         d="m -2.5908618,294.8649 c 1.1726341,0 2.11666693,0.94403 2.11666693,2.11666 0,1.17264 -0.94403283,2.11667 -2.11666693,2.11667 -1.172633,0 -2.1166668,-0.94403 -2.1166668,-2.11667 0,-1.17263 0.9440338,-2.11666 2.1166668,-2.11666 z"
         style="opacity:1;vector-effect:none;fill:url(#linearGradient2363);fill-opacity:1;stroke:none;stroke-width:0.52590966;stroke-linecap:round;stroke-linejoin:round;stroke-miterlimit:4;stroke-dasharray:none;stroke-dashoffset:0;stroke-opacity:1"
         inkscape:connector-curvature="0" /><path
         style="color:#000000;font-style:normal;font-variant:normal;font-weight:normal;font-stretch:normal;font-size:medium;line-height:normal;font-family:sans-serif;font-variant-ligatures:normal;font-variant-position:normal;font-variant-caps:normal;font-variant-numeric:normal;font-variant-alternates:normal;font-feature-settings:normal;text-indent:0;text-align:start;text-decoration:none;text-decoration-line:none;text-decoration-style:solid;text-decoration-color:#000000;letter-spacing:normal;word-spacing:normal;text-transform:none;writing-mode:lr-tb;direction:ltr;text-orientation:mixed;dominant-baseline:auto;baseline-shift:baseline;text-anchor:start;white-space:normal;shape-padding:0;clip-rule:nonzero;display:inline;overflow:visible;visibility:visible;opacity:1;isolation:auto;mix-blend-mode:normal;color-interpolation:sRGB;color-interpolation-filters:linearRGB;solid-color:#000000;solid-opacity:1;vector-effect:none;fill:#0b63cc;fill-opacity:1;fill-rule:nonzero;stroke:none;stroke-width:0.52916676;stroke-linecap:round;stroke-linejoin:round;stroke-miterlimit:4;stroke-dasharray:none;stroke-dashoffset:0;stroke-opacity:1;color-rendering:auto;image-rendering:auto;shape-rendering:auto;text-rendering:auto;enable-background:accumulate"
         d="m -2.8554866,295.65843 c -0.1461712,5.2e-4 -0.2642341,0.11944 -0.2636721,0.26561 v 1.05664 h -0.5292968 c -0.2237552,-0.002 -0.3482811,0.2581 -0.2070312,0.43164 l 1.0585939,1.32228 c 0.1026581,0.12776 0.2955872,0.13241 0.4042973,0.01 l 1.0565098,-1.32227 c 0.1530951,-0.17049 0.03187,-0.44174 -0.1972659,-0.44141 h -0.5291661 v -1.05664 c 5.556e-4,-0.14618 -0.1175007,-0.26511 -0.2636721,-0.26562 z"
         id="path855-2-7"
         inkscape:connector-curvature="0"
         sodipodi:nodetypes="ccccccccccccc" /><path
         sodipodi:nodetypes="ccccccccccccc"
         inkscape:connector-curvature="0"
         id="path855-2"
         d="m -2.8547056,295.39426 c -0.1461711,5.2e-4 -0.264234,0.11945 -0.2636721,0.26563 v 1.05664 h -0.5292968 c -0.2237552,-0.002 -0.3482811,0.25809 -0.2070312,0.43163 l 1.058594,1.32228 c 0.102658,0.12776 0.2955871,0.13241 0.4042973,0.01 l 1.0565098,-1.32227 c 0.1530948,-0.17049 0.03187,-0.44174 -0.1972659,-0.44141 h -0.5291662 v -1.05664 c 5.557e-4,-0.14617 -0.1175006,-0.26511 -0.2636721,-0.26563 z"
         style="color:#000000;font-style:normal;font-variant:normal;font-weight:normal;font-stretch:normal;font-size:medium;line-height:normal;font-family:sans-serif;font-variant-ligatures:normal;font-variant-position:normal;font-variant-caps:normal;font-variant-numeric:normal;font-variant-alternates:normal;font-feature-settings:normal;text-indent:0;text-align:start;text-decoration:none;text-decoration-line:none;text-decoration-style:solid;text-decoration-color:#000000;letter-spacing:normal;word-spacing:normal;text-transform:none;writing-mode:lr-tb;direction:ltr;text-orientation:mixed;dominant-baseline:auto;baseline-shift:baseline;text-anchor:start;white-space:normal;shape-padding:0;clip-rule:nonzero;display:inline;overflow:visible;visibility:visible;opacity:1;isolation:auto;mix-blend-mode:normal;color-interpolation:sRGB;color-interpolation-filters:linearRGB;solid-color:#000000;solid-opacity:1;vector-effect:none;fill:#effcfd;fill-opacity:1;fill-rule:nonzero;stroke:none;stroke-width:0.52916676;stroke-linecap:round;stroke-linejoin:round;stroke-miterlimit:4;stroke-dasharray:none;stroke-dashoffset:0;stroke-opacity:1;color-rendering:auto;image-rendering:auto;shape-rendering:auto;text-rendering:auto;enable-background:accumulate" /></g><g
       id="g1507"
       transform="matrix(0.26458332,0,0,0.26458332,-6.0854166,211.89682)"><path
         style="fill:#242833;fill-opacity:1"
         d="m 33.000001,295.64999 c -0.554,0 -1,0.446 -1,1 0,0.554 0.446,1 1,1 0.554,0 1,-0.446 1,-1 0,-0.554 -0.446,-1 -1,-1 z m 6,0 -2,2 3,3 -3,3 2,2 3,-3 2,-2 -2,-2 z m -7.5,5 c -0.831,0 -1.5,0.669 -1.5,1.5 0,0.831 0.669,1.5 1.5,1.5 0.831,0 1.5,-0.669 1.5,-1.5 0,-0.831 -0.669,-1.5 -1.5,-1.5 z m 2.5,5 c -1.108,0 -2,0.892 -2,2 0,1.108 0.892,2 2,2 1.108,0 2,-0.892 2,-2 0,-1.108 -0.892,-2 -2,-2 z"
         id="path4783-5-3"
         sodipodi:nodetypes="ssssscccccccccssssssssss" /></g></g></svg>
