<?xml version="1.0" encoding="UTF-8" standalone="no"?>
<!-- Created with Inkscape (http://www.inkscape.org/) -->

<svg
   xmlns:dc="http://purl.org/dc/elements/1.1/"
   xmlns:cc="http://creativecommons.org/ns#"
   xmlns:rdf="http://www.w3.org/1999/02/22-rdf-syntax-ns#"
   xmlns:svg="http://www.w3.org/2000/svg"
   xmlns="http://www.w3.org/2000/svg"
   xmlns:xlink="http://www.w3.org/1999/xlink"
   xmlns:sodipodi="http://sodipodi.sourceforge.net/DTD/sodipodi-0.dtd"
   xmlns:inkscape="http://www.inkscape.org/namespaces/inkscape"
   width="32"
   height="32"
   viewBox="0 0 8.4666662 8.4666664"
   version="1.1"
   id="svg1399"
   inkscape:version="0.92.4 5da689c313, 2019-01-14"
   sodipodi:docname="nx-software-updater.svg">
  <defs
     id="defs1393">
    <linearGradient
       gradientTransform="matrix(0.26458332,0,0,0.26458332,14.025602,216.34521)"
       inkscape:collect="always"
       xlink:href="#linearGradient940"
       id="linearGradient1298"
       x1="-52"
       y1="313.64999"
       x2="-52"
       y2="283.64999"
       gradientUnits="userSpaceOnUse" />
    <linearGradient
       inkscape:collect="always"
       id="linearGradient940">
      <stop
         style="stop-color:#015680;stop-opacity:1"
         offset="0"
         id="stop936" />
      <stop
         style="stop-color:#007f59;stop-opacity:1"
         offset="1"
         id="stop938" />
    </linearGradient>
    <linearGradient
       inkscape:collect="always"
       xlink:href="#linearGradient4622"
       id="linearGradient4543-5"
       x1="2.8064666"
       y1="297.66144"
       x2="2.8064666"
       y2="290.25311"
       gradientUnits="userSpaceOnUse"
       gradientTransform="translate(-2.539197,1.4057759)" />
    <linearGradient
       inkscape:collect="always"
       id="linearGradient4622">
      <stop
         style="stop-color:#0190d5;stop-opacity:1"
         offset="0"
         id="stop4618" />
      <stop
         style="stop-color:#00dc9a;stop-opacity:1"
         offset="1"
         id="stop4620" />
    </linearGradient>
    <linearGradient
       gradientTransform="matrix(0.26458332,0,0,0.26458332,14.025602,216.34521)"
       inkscape:collect="always"
       xlink:href="#linearGradient940"
       id="linearGradient1314"
       x1="-51"
       y1="312.64999"
       x2="-51"
       y2="283.64999"
       gradientUnits="userSpaceOnUse" />
    <linearGradient
       gradientTransform="matrix(0.26458332,0,0,0.26458332,7.6756027,215.28688)"
       inkscape:collect="always"
       xlink:href="#linearGradient940"
       id="linearGradient1306"
       x1="-28"
       y1="312.64999"
       x2="-28"
       y2="292.64999"
       gradientUnits="userSpaceOnUse" />
    <linearGradient
       gradientTransform="matrix(0.26458332,0,0,0.26458332,-3.9660637,216.34521)"
       gradientUnits="userSpaceOnUse"
       y2="289.71249"
       x2="16.0625"
       y1="307.64999"
       x1="16"
       id="linearGradient989"
       xlink:href="#linearGradient4582"
       inkscape:collect="always" />
    <linearGradient
       inkscape:collect="always"
       id="linearGradient4582">
      <stop
         style="stop-color:#cee3e3;stop-opacity:1"
         offset="0"
         id="stop4578" />
      <stop
         style="stop-color:#fcfcfc;stop-opacity:1"
         offset="1"
         id="stop4580" />
    </linearGradient>
    <linearGradient
       y2="293.64999"
       x2="15.984375"
       y1="303.67252"
       x1="16"
       gradientTransform="matrix(0.26458332,0,0,0.26458332,-3.9660637,216.34521)"
       gradientUnits="userSpaceOnUse"
       id="linearGradient845"
       xlink:href="#linearGradient962"
       inkscape:collect="always" />
    <linearGradient
       id="linearGradient962"
       inkscape:collect="always">
      <stop
         id="stop958"
         offset="0"
         style="stop-color:#00d59f;stop-opacity:1" />
      <stop
         id="stop960"
         offset="1"
         style="stop-color:#01577f;stop-opacity:1" />
    </linearGradient>
  </defs>
  <sodipodi:namedview
     id="base"
     pagecolor="#ffffff"
     bordercolor="#666666"
     borderopacity="1.0"
     inkscape:pageopacity="0.0"
     inkscape:pageshadow="2"
     inkscape:zoom="7.9195959"
     inkscape:cx="-15.735422"
     inkscape:cy="-0.67020984"
     inkscape:document-units="px"
     inkscape:current-layer="layer1"
     showgrid="false"
     inkscape:showpageshadow="false"
     units="px"
     inkscape:window-width="1920"
     inkscape:window-height="991"
     inkscape:window-x="0"
     inkscape:window-y="0"
     inkscape:window-maximized="1" />
  <metadata
     id="metadata1396">
    <rdf:RDF>
      <cc:Work
         rdf:about="">
        <dc:format>image/svg+xml</dc:format>
        <dc:type
           rdf:resource="http://purl.org/dc/dcmitype/StillImage" />
        <dc:title></dc:title>
      </cc:Work>
    </rdf:RDF>
  </metadata>
  <g
     inkscape:label="Capa 1"
     inkscape:groupmode="layer"
     id="layer1"
     transform="translate(0,-288.53338)">
    <g
       id="g1994"
       transform="translate(3.9660636,-2.5963068)">
      <path
         inkscape:connector-curvature="0"
         style="fill:url(#linearGradient1298);fill-opacity:1;stroke:none;stroke-width:0.38884729;stroke-linecap:round;stroke-linejoin:round;stroke-miterlimit:4;stroke-dasharray:none;stroke-opacity:1"
         d="m 0.26726947,291.39428 c 2.19868743,0 3.96874993,1.77002 3.96874993,3.96873 0,2.19867 -1.7700625,3.96875 -3.96874993,3.96875 -2.19868707,0 -3.96874977,-1.77008 -3.96874977,-3.96875 0,-2.19871 1.7700627,-3.96873 3.96874977,-3.96873 z"
         id="rect4496-6-9" />
      <path
         inkscape:connector-curvature="0"
         style="fill:url(#linearGradient4543-5);fill-opacity:1;stroke:none;stroke-width:0.37100002;stroke-linecap:round;stroke-linejoin:round;stroke-miterlimit:4;stroke-dasharray:none;stroke-opacity:1"
         d="m 0.26726977,291.65885 c 2.05210803,0 3.70416623,1.65204 3.70416623,3.70416 0,2.05212 -1.6520582,3.70419 -3.70416623,3.70419 -2.05210847,0 -3.70416677,-1.65207 -3.70416677,-3.70419 0,-2.05212 1.6520583,-3.70416 3.70416677,-3.70416 z"
         id="rect4570-9-6-0-7" />
      <path
         id="path4538-3"
         d="m 0.79023487,291.78959 a 0.13230488,0.13230488 0 0 0 -0.07028,0.0258 c -0.1911133,0.13378 -0.3688024,0.27364 -0.5358847,0.41806 -0.054563,-0.0282 -0.1155237,-0.0455 -0.1813843,-0.0455 -0.2198687,0 -0.396875,0.17701 -0.396875,0.39687 0,0.0628 0.015608,0.12149 0.041341,0.17415 -0.4316595,0.48333 -0.74287377,1.00772 -0.93120917,1.55185 -0.012385,-10e-4 -0.023458,-0.006 -0.036174,-0.006 -0.1147188,0 -0.2170605,0.0488 -0.289388,0.12609 -0.4600122,-0.16173 -0.8754679,-0.4202 -1.2035441,-0.74828 a 0.13264452,0.13264452 0 1 0 -0.1875853,0.18759 c 0.353041,0.35304 0.7957627,0.63108 1.2862263,0.80615 -5.556e-4,0.009 -0.00259,0.0166 -0.00259,0.0253 0,0.16946 0.105881,0.31237 0.2547647,0.36949 -0.00793,0.0606 -0.017801,0.12103 -0.022738,0.1819 -0.028619,0.35297 -0.00306,0.70816 0.07028,1.0604 -0.4797528,0.2325 -0.9297987,0.57387 -1.3280842,1.02526 a 0.13284082,0.13284082 0 1 0 0.1989553,0.17568 c 0.3628512,-0.41123 0.7663854,-0.72033 1.1937256,-0.93638 0.1050314,0.37212 0.2646011,0.7396 0.48420807,1.09554 -0.035596,0.0595 -0.057361,0.1284 -0.057361,0.20309 0,0.21987 0.1770063,0.39688 0.396875,0.39688 0.029389,0 0.057729,-0.004 0.085266,-0.01 0.1830076,0.2193 0.3893069,0.43252 0.6201172,0.63769 a 0.13230488,0.13230488 0 1 0 0.1756976,-0.19732 c -0.2121987,-0.18862 -0.4017036,-0.38329 -0.5705078,-0.58239 0.053259,-0.0675 0.0863,-0.15187 0.0863,-0.24495 0,-0.21987 -0.1770062,-0.39687 -0.396875,-0.39687 -0.048096,0 -0.093319,0.01 -0.135909,0.0253 -0.2053579,-0.3384 -0.35235487,-0.68573 -0.44648437,-1.03611 0.41052827,-0.16958 0.83929617,-0.2589 1.27589117,-0.2589 0.00532,0 0.010697,0.001 0.01602,0.001 0.066728,0.1248 0.1968704,0.21032 0.348815,0.21032 0.1225373,0 0.2306524,-0.0559 0.3033406,-0.14262 0.27079363,0.0529 0.54164753,0.13972 0.80976973,0.25683 -0.2661862,0.67265 -0.2773998,1.44728 0.096635,2.07067 a 0.13230951,0.13230951 0 0 0 0.2263426,-0.13694 c -0.3194153,-0.53236 -0.3164901,-1.21548 -0.083199,-1.81901 0.4134532,0.21219 0.8178691,0.50013 1.2004436,0.87178 a 0.1325886,0.1325886 0 1 0 0.1855182,-0.18914 c -0.4032441,-0.39172 -0.8338685,-0.69778 -1.2769244,-0.92397 0.0042,-0.008 0.00708,-0.0171 0.011369,-0.0253 0.1102606,-0.2105 0.2510877,-0.40062 0.4118612,-0.56638 0.064638,0.0465 0.1435211,0.0745 0.2294435,0.0749 0.2628686,0.28785 0.5951077,0.51928 0.9916705,0.65371 a 0.13230488,0.13230488 0 1 0 0.085783,-0.25011 c -0.3166456,-0.10734 -0.5845916,-0.28776 -0.8056361,-0.51005 0.077942,-0.0724 0.1271241,-0.17518 0.1271241,-0.29042 0,-0.0392 -0.00757,-0.0764 -0.018087,-0.11214 0.2108422,-0.0945 0.4378301,-0.15193 0.6790282,-0.15193 a 0.13281501,0.13281501 0 1 0 0,-0.26562 c -0.3018877,0 -0.5837595,0.0738 -0.8402587,0.19792 -0.062449,-0.0409 -0.1370057,-0.0651 -0.2175576,-0.0651 -0.065286,0 -0.1256176,0.0173 -0.1798341,0.045 -0.2759908,-0.58308 -0.3161056,-1.26599 -0.07338,-1.82056 0.1275863,-0.16492 0.2507879,-0.34253 0.3674194,-0.53692 a 0.13230488,0.13230488 0 0 0 0.0031,-0.006 0.13230488,0.13230488 0 0 0 0.0062,-0.0119 0.13230488,0.13230488 0 0 0 0.00259,-0.006 0.13230488,0.13230488 0 0 0 0.00206,-0.006 0.13230488,0.13230488 0 0 0 0.00568,-0.0258 0.13230488,0.13230488 0 0 0 -0.1390095,-0.14779 0.13230488,0.13230488 0 0 0 -0.00362,5.3e-4 0.13230488,0.13230488 0 0 0 -0.00672,10e-4 0.13230488,0.13230488 0 0 0 -0.095601,0.0605 c -0.1574689,0.16204 -0.2809661,0.34512 -0.3725871,0.54208 -0.7147745,0.91474 -1.57179793,1.3352 -2.40605463,1.41594 -0.2365306,0.0229 -0.4710181,0.0167 -0.7002155,-0.0124 -0.018828,-0.0642 -0.056333,-0.1186 -0.10180267,-0.16485 0.17356037,-0.51575 0.46523007,-1.01611 0.87901617,-1.48105 0.050884,0.0237 0.1069065,0.0377 0.1669082,0.0377 0.2198687,0 0.396875,-0.17701 0.396875,-0.39688 0,-0.0562 -0.011665,-0.10925 -0.032556,-0.15761 0.1577879,-0.13574 0.3243233,-0.26858 0.5053954,-0.39533 a 0.13230488,0.13230488 0 0 0 -0.082166,-0.24236 z m 1.19734303,1.99626 c -0.077012,0.52782 0.026487,1.09223 0.287321,1.5813 -0.013835,0.0405 -0.023254,0.0829 -0.023254,0.12816 0,0.0342 0.00536,0.0671 0.013435,0.0987 -0.1963015,0.19396 -0.3651882,0.41968 -0.4945432,0.66663 -0.00579,0.0111 -0.00985,0.023 -0.015502,0.0341 -0.2726507,-0.11973 -0.5489164,-0.211 -0.82630693,-0.26871 2.1e-6,-5.3e-4 0,-10e-4 0,-0.002 0,-0.21986 -0.1770097,-0.39687 -0.396875,-0.39687 -0.1929085,0 -0.352294,0.1364 -0.3886067,0.31832 -0.4483,0.003 -0.8891998,0.0945 -1.31154777,0.26303 -0.059472,-0.31154 -0.078402,-0.62433 -0.053227,-0.93482 0.00531,-0.0655 0.015766,-0.13058 0.024805,-0.19585 0.1100764,-0.0358 0.19881707,-0.11767 0.24287917,-0.22377 0.2415945,0.029 0.4887966,0.0355 0.7384561,0.0114 0.7562595,-0.0732 1.52818933,-0.40971 2.20296623,-1.08004 z"
         style="color:#000000;font-style:normal;font-variant:normal;font-weight:normal;font-stretch:normal;font-size:medium;line-height:normal;font-family:sans-serif;font-variant-ligatures:normal;font-variant-position:normal;font-variant-caps:normal;font-variant-numeric:normal;font-variant-alternates:normal;font-feature-settings:normal;text-indent:0;text-align:start;text-decoration:none;text-decoration-line:none;text-decoration-style:solid;text-decoration-color:#000000;letter-spacing:normal;word-spacing:normal;text-transform:none;writing-mode:lr-tb;direction:ltr;text-orientation:mixed;dominant-baseline:auto;baseline-shift:baseline;text-anchor:start;white-space:normal;shape-padding:0;clip-rule:nonzero;display:inline;overflow:visible;visibility:visible;opacity:1;isolation:auto;mix-blend-mode:normal;color-interpolation:sRGB;color-interpolation-filters:linearRGB;solid-color:#000000;solid-opacity:1;vector-effect:none;fill:url(#linearGradient1314);fill-opacity:1;fill-rule:nonzero;stroke:none;stroke-width:0.26458332;stroke-linecap:round;stroke-linejoin:miter;stroke-miterlimit:4;stroke-dasharray:none;stroke-dashoffset:0;stroke-opacity:1;color-rendering:auto;image-rendering:auto;shape-rendering:auto;text-rendering:auto;enable-background:accumulate"
         inkscape:connector-curvature="0" />
      <path
         sodipodi:nodetypes="sssss"
         inkscape:connector-curvature="0"
         id="rect4496-6-2"
         d="m 0.26726947,292.71719 c -1.46579127,0 -2.64583317,1.18002 -2.64583317,2.64583 0,1.46579 1.1800419,2.64583 2.64583317,2.64583 1.46579163,0 2.64583323,-1.18004 2.64583323,-2.64583 0,-1.46581 -1.1800416,-2.64583 -2.64583323,-2.64583 z"
         style="fill:url(#linearGradient1306);fill-opacity:1;stroke:none;stroke-width:0.25923187;stroke-linecap:round;stroke-linejoin:round;stroke-miterlimit:4;stroke-dasharray:none;stroke-opacity:1" />
      <path
         id="path843"
         d="m 0.26726947,292.98177 c -1.31921237,0 -2.38124987,1.06204 -2.38124987,2.38125 0,1.31921 1.0620375,2.38125 2.38124987,2.38125 1.31921253,0 2.38124993,-1.06204 2.38124993,-2.38125 0,-1.31921 -1.0620374,-2.38125 -2.38124993,-2.38125 z"
         style="opacity:1;fill:url(#linearGradient989);fill-opacity:1;stroke:none;stroke-width:0.26458332;stroke-opacity:1"
         inkscape:connector-curvature="0" />
      <path
         id="path995"
         d="m 0.26313537,294.0401 a 0.26460978,0.26460978 0 0 1 0.1912027,0.0775 l 0.79375003,0.79375 A 0.26460978,0.26460978 0 0 1 1.0610195,295.363 H 0.79643617 v 0.79375 c 0,0.29316 -0.2360084,0.52917 -0.5291667,0.52917 -0.2931583,0 -0.5291666,-0.23601 -0.5291666,-0.52917 V 295.363 h -0.2645833 a 0.26460978,0.26460978 0 0 1 -0.1870686,-0.45165 l 0.7937499,-0.79375 a 0.26460978,0.26460978 0 0 1 0.1829345,-0.0775 z"
         style="opacity:1;fill:url(#linearGradient845);fill-opacity:1;stroke:none;stroke-width:0.26458332;stroke-opacity:1"
         inkscape:connector-curvature="0" />
    </g>
  </g>
</svg>
