<?xml version="1.0" encoding="UTF-8" standalone="no"?>
<!-- Created with Inkscape (http://www.inkscape.org/) -->

<svg
   xmlns:dc="http://purl.org/dc/elements/1.1/"
   xmlns:cc="http://creativecommons.org/ns#"
   xmlns:rdf="http://www.w3.org/1999/02/22-rdf-syntax-ns#"
   xmlns:svg="http://www.w3.org/2000/svg"
   xmlns="http://www.w3.org/2000/svg"
   xmlns:xlink="http://www.w3.org/1999/xlink"
   xmlns:sodipodi="http://sodipodi.sourceforge.net/DTD/sodipodi-0.dtd"
   xmlns:inkscape="http://www.inkscape.org/namespaces/inkscape"
   width="32"
   height="32"
   viewBox="0 0 8.4666665 8.4666669"
   version="1.1"
   id="svg8"
   inkscape:version="0.92.2 5c3e80d, 2017-08-06"
   sodipodi:docname="baloo.svg">
  <defs
     id="defs2">
    <linearGradient
       gradientUnits="userSpaceOnUse"
       y2="285.62292"
       x2="9.5249996"
       y1="290.91458"
       x1="9.5249996"
       id="linearGradient4581-2-3"
       xlink:href="#linearGradient4587"
       inkscape:collect="always"
       gradientTransform="matrix(1.3999999,0,0,1.3999999,-9.1016664,-110.80962)" />
    <linearGradient
       id="linearGradient4587"
       inkscape:collect="always">
      <stop
         id="stop4583"
         offset="0"
         style="stop-color:#1b87f2;stop-opacity:1" />
      <stop
         id="stop4585"
         offset="1"
         style="stop-color:#30bafc;stop-opacity:1" />
    </linearGradient>
  </defs>
  <sodipodi:namedview
     id="base"
     pagecolor="#ffffff"
     bordercolor="#666666"
     borderopacity="1.0"
     inkscape:pageopacity="0.0"
     inkscape:pageshadow="2"
     inkscape:zoom="15.839192"
     inkscape:cx="-0.30885386"
     inkscape:cy="14.57963"
     inkscape:document-units="px"
     inkscape:current-layer="layer1"
     showgrid="false"
     units="px"
     inkscape:window-width="1366"
     inkscape:window-height="697"
     inkscape:window-x="0"
     inkscape:window-y="0"
     inkscape:window-maximized="1" />
  <metadata
     id="metadata5">
    <rdf:RDF>
      <cc:Work
         rdf:about="">
        <dc:format>image/svg+xml</dc:format>
        <dc:type
           rdf:resource="http://purl.org/dc/dcmitype/StillImage" />
        <dc:title />
      </cc:Work>
    </rdf:RDF>
  </metadata>
  <g
     inkscape:label="Capa 1"
     inkscape:groupmode="layer"
     id="layer1"
     transform="translate(0,-288.53332)">
    <path
       inkscape:connector-curvature="0"
       style="fill:#115799;fill-opacity:1;stroke:none;stroke-width:0.38884729;stroke-linecap:round;stroke-linejoin:round;stroke-miterlimit:4;stroke-dasharray:none;stroke-opacity:1"
       d="m 4.2333333,288.79791 c 2.1986875,0 3.96875,1.77002 3.96875,3.96873 0,2.19867 -1.7700625,3.96875 -3.96875,3.96875 -2.1986873,0 -3.96875,-1.77008 -3.96875,-3.96875 0,-2.19871 1.7700627,-3.96873 3.96875,-3.96873 z"
       id="rect4496" />
    <path
       inkscape:connector-curvature="0"
       style="fill:url(#linearGradient4581-2-3);fill-opacity:1;stroke:none;stroke-width:0.37100005;stroke-linecap:round;stroke-linejoin:round;stroke-miterlimit:4;stroke-dasharray:none;stroke-opacity:1"
       d="m 4.2333336,289.06248 c 2.0521081,0 3.7041664,1.65204 3.7041664,3.70416 0,2.05212 -1.6520583,3.70419 -3.7041664,3.70419 -2.0521086,0 -3.704167,-1.65207 -3.704167,-3.70419 0,-2.05212 1.6520584,-3.70416 3.704167,-3.70416 z"
       id="rect4570-9-6" />
    <path
       id="path4558-3"
       d="m 3.9687499,290.91459 a 1.8520833,1.8520833 0 0 0 -1.8520832,1.85208 1.8520833,1.8520833 0 0 0 1.8520832,1.85208 1.8520833,1.8520833 0 0 0 1.0169923,-0.30592 L 5.8208334,295.14792 6.35,294.61875 5.5154256,293.78418 a 1.8520833,1.8520833 0 0 0 0.3054078,-1.01751 1.8520833,1.8520833 0 0 0 -1.8520835,-1.85208 z m 0,0.79375 a 1.0583334,1.0583334 0 0 1 1.0583335,1.05833 1.0583334,1.0583334 0 0 1 -1.0583335,1.05833 1.0583334,1.0583334 0 0 1 -1.0583333,-1.05833 1.0583334,1.0583334 0 0 1 1.0583333,-1.05833 z"
       style="fill:#1466b2;fill-opacity:1;stroke:none;stroke-width:0.26458335;stroke-linecap:butt;stroke-linejoin:round;stroke-miterlimit:4;stroke-dasharray:none;stroke-opacity:1"
       inkscape:connector-curvature="0" />
    <path
       inkscape:connector-curvature="0"
       style="fill:#ffffff;fill-opacity:1;stroke:none;stroke-width:0.26458335;stroke-linecap:butt;stroke-linejoin:round;stroke-miterlimit:4;stroke-dasharray:none;stroke-opacity:1"
       d="m 3.96875,290.64999 a 1.8520833,1.8520833 0 0 0 -1.8520833,1.85208 1.8520833,1.8520833 0 0 0 1.8520833,1.85208 1.8520833,1.8520833 0 0 0 1.0169922,-0.30592 L 5.8208333,294.88332 6.35,294.35415 5.5154256,293.51958 A 1.8520833,1.8520833 0 0 0 5.8208333,292.50207 1.8520833,1.8520833 0 0 0 3.96875,290.64999 Z m 0,0.79375 A 1.0583334,1.0583334 0 0 1 5.0270833,292.50207 1.0583334,1.0583334 0 0 1 3.96875,293.5604 1.0583334,1.0583334 0 0 1 2.9104166,292.50207 1.0583334,1.0583334 0 0 1 3.96875,291.44374 Z"
       id="path4558" />
  </g>
</svg>
