<?xml version="1.0" encoding="UTF-8" standalone="no"?>
<!-- Created with Inkscape (http://www.inkscape.org/) -->

<svg
   xmlns:dc="http://purl.org/dc/elements/1.1/"
   xmlns:cc="http://creativecommons.org/ns#"
   xmlns:rdf="http://www.w3.org/1999/02/22-rdf-syntax-ns#"
   xmlns:svg="http://www.w3.org/2000/svg"
   xmlns="http://www.w3.org/2000/svg"
   xmlns:xlink="http://www.w3.org/1999/xlink"
   xmlns:sodipodi="http://sodipodi.sourceforge.net/DTD/sodipodi-0.dtd"
   xmlns:inkscape="http://www.inkscape.org/namespaces/inkscape"
   width="32"
   height="32"
   viewBox="0 0 32 32"
   version="1.1"
   id="svg8"
   inkscape:version="0.92.2 5c3e80d, 2017-08-06"
   sodipodi:docname="plasmadiscover.svg">
  <title
     id="title7895">Antu icon Theme</title>
  <defs
     id="defs2">
    <linearGradient
       gradientTransform="translate(56,-4)"
       gradientUnits="userSpaceOnUse"
       y2="303.64999"
       x2="-63"
       y1="311.64999"
       x1="-63"
       id="linearGradient1036"
       xlink:href="#linearGradient1034"
       inkscape:collect="always" />
    <linearGradient
       id="linearGradient1034"
       inkscape:collect="always">
      <stop
         id="stop1030"
         offset="0"
         style="stop-color:#4cb4f0;stop-opacity:1" />
      <stop
         id="stop1032"
         offset="1"
         style="stop-color:#6dcbf5;stop-opacity:1" />
    </linearGradient>
    <linearGradient
       gradientTransform="translate(56,-4)"
       gradientUnits="userSpaceOnUse"
       y2="305.64999"
       x2="-61"
       y1="309.64999"
       x1="-61"
       id="linearGradient1044"
       xlink:href="#linearGradient1042"
       inkscape:collect="always" />
    <linearGradient
       id="linearGradient1042"
       inkscape:collect="always">
      <stop
         id="stop1038"
         offset="0"
         style="stop-color:#2187be;stop-opacity:1" />
      <stop
         id="stop1040"
         offset="1"
         style="stop-color:#3290c3;stop-opacity:1" />
    </linearGradient>
    <linearGradient
       gradientTransform="translate(55,-7)"
       gradientUnits="userSpaceOnUse"
       y2="312.64999"
       x2="-70"
       y1="314.64999"
       x1="-70"
       id="linearGradient993"
       xlink:href="#linearGradient934"
       inkscape:collect="always" />
    <linearGradient
       id="linearGradient934"
       inkscape:collect="always">
      <stop
         id="stop930"
         offset="0"
         style="stop-color:#eee9dd;stop-opacity:1" />
      <stop
         id="stop932"
         offset="1"
         style="stop-color:#ffffff;stop-opacity:0.98586571" />
    </linearGradient>
    <linearGradient
       gradientTransform="translate(54.000001,-7)"
       gradientUnits="userSpaceOnUse"
       y2="310.64999"
       x2="-71"
       y1="317.64999"
       x1="-71"
       id="linearGradient973"
       xlink:href="#linearGradient5716"
       inkscape:collect="always" />
    <linearGradient
       id="linearGradient5716"
       inkscape:collect="always">
      <stop
         id="stop5712"
         offset="0"
         style="stop-color:#0090ff;stop-opacity:1" />
      <stop
         id="stop5714"
         offset="1"
         style="stop-color:#13befd;stop-opacity:1" />
    </linearGradient>
    <linearGradient
       gradientTransform="translate(55,-7)"
       gradientUnits="userSpaceOnUse"
       y2="319.64999"
       x2="-74"
       y1="320.64999"
       x1="-74"
       id="linearGradient981"
       xlink:href="#linearGradient979"
       inkscape:collect="always" />
    <linearGradient
       id="linearGradient979"
       inkscape:collect="always">
      <stop
         id="stop975"
         offset="0"
         style="stop-color:#b3b1ab;stop-opacity:1;" />
      <stop
         id="stop977"
         offset="1"
         style="stop-color:#d9d6cf;stop-opacity:1" />
    </linearGradient>
    <linearGradient
       gradientUnits="userSpaceOnUse"
       y2="299.64999"
       x2="-71"
       y1="319.64999"
       x1="-71"
       id="linearGradient936"
       xlink:href="#linearGradient934"
       inkscape:collect="always"
       gradientTransform="translate(56,-6)" />
    <linearGradient
       gradientTransform="translate(-16,-4)"
       gradientUnits="userSpaceOnUse"
       y2="290.64999"
       x2="17"
       y1="297.64999"
       x1="17"
       id="linearGradient880"
       xlink:href="#linearGradient4774"
       inkscape:collect="always" />
    <linearGradient
       inkscape:collect="always"
       id="linearGradient4774">
      <stop
         style="stop-color:#f41e3d;stop-opacity:1"
         offset="0"
         id="stop4770" />
      <stop
         style="stop-color:#fc3a56;stop-opacity:1"
         offset="1"
         id="stop4772" />
    </linearGradient>
    <linearGradient
       gradientTransform="translate(-16,-4)"
       gradientUnits="userSpaceOnUse"
       y2="290.64999"
       x2="11"
       y1="297.64999"
       x1="11"
       id="linearGradient902-3"
       xlink:href="#linearGradient908"
       inkscape:collect="always" />
    <linearGradient
       id="linearGradient908"
       inkscape:collect="always">
      <stop
         id="stop904"
         offset="0"
         style="stop-color:#d9d6cf;stop-opacity:1" />
      <stop
         id="stop906"
         offset="1"
         style="stop-color:#f2efe7;stop-opacity:1" />
    </linearGradient>
    <linearGradient
       gradientTransform="translate(-16,-4)"
       gradientUnits="userSpaceOnUse"
       y2="290.64999"
       x2="5"
       y1="297.64999"
       x1="5"
       id="linearGradient872"
       xlink:href="#linearGradient4774"
       inkscape:collect="always" />
    <linearGradient
       gradientTransform="translate(-16,-4)"
       gradientUnits="userSpaceOnUse"
       y2="290.64999"
       x2="-1"
       y1="297.64999"
       x1="-1"
       id="linearGradient888-5"
       xlink:href="#linearGradient908"
       inkscape:collect="always" />
    <linearGradient
       gradientTransform="translate(-16,-4)"
       gradientUnits="userSpaceOnUse"
       y2="290.64999"
       x2="-7"
       y1="297.64999"
       x1="-7"
       id="linearGradient864"
       xlink:href="#linearGradient4774"
       inkscape:collect="always" />
  </defs>
  <sodipodi:namedview
     id="base"
     pagecolor="#ffffff"
     bordercolor="#666666"
     borderopacity="1.0"
     inkscape:pageopacity="0.0"
     inkscape:pageshadow="2"
     inkscape:zoom="0.99999996"
     inkscape:cx="-95.226603"
     inkscape:cy="-15.616829"
     inkscape:document-units="px"
     inkscape:current-layer="g2933"
     showgrid="true"
     units="px"
     inkscape:window-width="1366"
     inkscape:window-height="697"
     inkscape:window-x="0"
     inkscape:window-y="0"
     inkscape:window-maximized="1"
     objecttolerance="10"
     gridtolerance="10"
     guidetolerance="10">
    <inkscape:grid
       type="xygrid"
       id="grid7897"
       empspacing="4" />
  </sodipodi:namedview>
  <metadata
     id="metadata5">
    <rdf:RDF>
      <cc:Work
         rdf:about="">
        <dc:format>image/svg+xml</dc:format>
        <dc:type
           rdf:resource="http://purl.org/dc/dcmitype/StillImage" />
        <dc:title>Antu icon Theme</dc:title>
      </cc:Work>
    </rdf:RDF>
  </metadata>
  <g
     inkscape:label="Capa 1"
     inkscape:groupmode="layer"
     id="layer1"
     transform="translate(0,-282.64999)">
    <g
       id="g2933"
       transform="translate(27,-1)">
      <path
         id="rect926"
         d="M -23,291.64999 H 1 c 1.108,0 2,0.892 2,2 v 19 c 0,1.108 -0.892,2 -2,2 h -24 c -1.108,0 -2,-0.892 -2,-2 v -19 c 0,-1.108 0.892,-2 2,-2 z"
         style="opacity:1;fill:#c8c3b7;fill-opacity:1;stroke:none;stroke-width:0.80800003;stroke-linecap:round;stroke-linejoin:round;stroke-miterlimit:4;stroke-dasharray:none;stroke-opacity:1;paint-order:stroke markers fill"
         inkscape:connector-curvature="0"
         sodipodi:nodetypes="sssssssss" />
      <path
         id="rect928"
         d="M -23,292.64999 H 1.000012 c 0.554,0 1,0.446 1,1 v 19 c 0,0.554 -0.446,1 -1,1 H -23 c -0.554,0 -1,-0.446 -1,-1 v -19 c 0,-0.554 0.446,-1 1,-1 z"
         style="opacity:1;fill:url(#linearGradient936);fill-opacity:1;stroke:none;stroke-width:0.80800003;stroke-linecap:round;stroke-linejoin:round;stroke-miterlimit:4;stroke-dasharray:none;stroke-opacity:1;paint-order:stroke markers fill"
         inkscape:connector-curvature="0"
         sodipodi:nodetypes="sssssssss" />
      <path
         id="rect963"
         d="m -20,299.64999 h 6.999999 c 0.554,0 1,0.446 1,1 v 11 c 0,0.554 -0.446,1 -1,1 H -20 c -0.554,0 -1,-0.446 -1,-1 v -11 c 0,-0.554 0.446,-1 1,-1 z"
         style="opacity:1;fill:#0082e5;fill-opacity:1;stroke:none;stroke-width:0.80800003;stroke-linecap:round;stroke-linejoin:round;stroke-miterlimit:4;stroke-dasharray:none;stroke-opacity:1;paint-order:stroke markers fill"
         inkscape:connector-curvature="0"
         sodipodi:nodetypes="sssssssss" />
      <path
         inkscape:connector-curvature="0"
         id="rect938"
         d="m -21,311.64999 c -0.554,0 -1,0.446 -1,1 v 1 1 h 1 9 1 v -1 -1 c 0,-0.554 -0.445999,-1 -1,-1 z"
         style="opacity:1;fill:#8e8c87;fill-opacity:1;stroke:none;stroke-width:0.80800003;stroke-linecap:round;stroke-linejoin:round;stroke-miterlimit:4;stroke-dasharray:none;stroke-opacity:1;paint-order:stroke markers fill" />
      <path
         id="rect965"
         d="m -20,300.64999 h 7 v 11 h -7 z"
         style="opacity:1;fill:url(#linearGradient973);fill-opacity:1;stroke:none;stroke-width:0.80800003;stroke-linecap:round;stroke-linejoin:round;stroke-miterlimit:4;stroke-dasharray:none;stroke-opacity:1;paint-order:stroke markers fill"
         inkscape:connector-curvature="0"
         sodipodi:nodetypes="ccccc" />
      <path
         id="rect945"
         d="m -21,312.64999 h 9 v 1 h -9 z"
         style="opacity:1;fill:url(#linearGradient981);fill-opacity:1;stroke:none;stroke-width:0.80800003;stroke-linecap:round;stroke-linejoin:round;stroke-miterlimit:4;stroke-dasharray:none;stroke-opacity:1;paint-order:stroke markers fill"
         inkscape:connector-curvature="0" />
      <path
         id="rect985-5"
         d="m -15,306.64999 c 0.554,0 1,0.446 1,1 0,0.554 -0.446,1 -1,1 -0.554,0 -1,-0.446 -1,-1 0,-0.554 0.446,-1 1,-1 z"
         style="opacity:1;fill:#0082e5;fill-opacity:1;stroke:none;stroke-width:0.80800003;stroke-linecap:round;stroke-linejoin:round;stroke-miterlimit:4;stroke-dasharray:none;stroke-opacity:1;paint-order:stroke markers fill"
         inkscape:connector-curvature="0" />
      <path
         id="rect985"
         d="m -15,305.64999 c 0.554,0 1,0.446 1,1 0,0.554 -0.446,1 -1,1 -0.554,0 -1,-0.446 -1,-1 0,-0.554 0.446,-1 1,-1 z"
         style="opacity:1;fill:url(#linearGradient993);fill-opacity:1;stroke:none;stroke-width:0.80800003;stroke-linecap:round;stroke-linejoin:round;stroke-miterlimit:4;stroke-dasharray:none;stroke-opacity:1;paint-order:stroke markers fill"
         inkscape:connector-curvature="0" />
      <path
         id="rect1019"
         d="M -8,298.64999 H 1e-6 c 0.554,0 1,0.446 1,1 v 8 c 0,0.554 -0.446,1 -1,1 H -8 c -0.554,0 -1,-0.446 -1,-1 v -8 c 0,-0.554 0.446,-1 1,-1 z"
         style="opacity:1;fill:#0082e5;fill-opacity:1;stroke:none;stroke-width:0.80800003;stroke-linecap:round;stroke-linejoin:round;stroke-miterlimit:4;stroke-dasharray:none;stroke-opacity:1;paint-order:stroke markers fill"
         inkscape:connector-curvature="0" />
      <path
         id="rect1021"
         d="m -8,299.64999 h 8 v 8 h -8 z"
         style="opacity:1;fill:url(#linearGradient1036);fill-opacity:1;stroke:none;stroke-width:0.80800003;stroke-linecap:round;stroke-linejoin:round;stroke-miterlimit:4;stroke-dasharray:none;stroke-opacity:1;paint-order:stroke markers fill"
         inkscape:connector-curvature="0" />
      <path
         id="rect1023"
         d="m -6,300.64999 h 4 c 0.554,0 1,0.446 1,1 v 4 c 0,0.554 -0.446,1 -1,1 h -4 c -0.554,0 -1,-0.446 -1,-1 v -4 c 0,-0.554 0.446,-1 1,-1 z"
         style="opacity:1;fill:#00598c;fill-opacity:1;stroke:none;stroke-width:0.80800003;stroke-linecap:round;stroke-linejoin:round;stroke-miterlimit:4;stroke-dasharray:none;stroke-opacity:1;paint-order:stroke markers fill"
         inkscape:connector-curvature="0" />
      <path
         id="rect1025"
         d="m -6,301.64999 h 4 v 4 h -4 z"
         style="opacity:1;fill:url(#linearGradient1044);fill-opacity:1;stroke:none;stroke-width:0.80800003;stroke-linecap:round;stroke-linejoin:round;stroke-miterlimit:4;stroke-dasharray:none;stroke-opacity:1;paint-order:stroke markers fill"
         inkscape:connector-curvature="0" />
      <path
         id="path1075-0"
         d="m -24,284.64999 c -1.108,0 -2,0.892 -2,2 v 1 3 2 c 1.49e-4,1.07165 0.571926,2.06184 1.5,2.59766 0.928203,0.5359 2.071797,0.5359 3,0 0.928074,-0.53582 1.499851,-1.52601 1.5,-2.59766 v -2 -3 -1 -2 h -2 z m 10,0 v 2 4 2 c 1.49e-4,1.07165 0.571926,2.06184 1.5,2.59766 0.928203,0.5359 2.071797,0.5359 3,0 0.928074,-0.53582 1.499851,-1.52601 1.5,-2.59766 v -5 -1 -2 h -2 -2 z m 12,0 v 2 4 2 c 1.49e-4,1.07165 0.571926,2.06184 1.5,2.59766 0.928203,0.5359 2.071797,0.5359 3,0 0.928074,-0.53582 1.499851,-1.52601 1.5,-2.59766 v -5 -1 c 0,-1.108 -0.892,-2 -2,-2 H 0 Z"
         style="opacity:1;fill:#d90122;fill-opacity:1;stroke:none;stroke-width:0.80800003;stroke-linecap:round;stroke-linejoin:round;stroke-miterlimit:4;stroke-dasharray:none;stroke-opacity:1;paint-order:stroke markers fill"
         inkscape:connector-curvature="0" />
      <path
         id="path1075-0-1"
         d="m -20,284.64999 v 2 4 2 c 1.49e-4,1.07165 0.571926,2.06184 1.5,2.59766 0.928203,0.5359 2.071797,0.5359 3,0 0.928074,-0.53582 1.499851,-1.52601 1.5,-2.59766 v -5 -1 -2 h -2 -2 z m 12,0 v 2 4 2 c 1.49e-4,1.07165 0.571926,2.06184 1.5,2.59766 0.928203,0.5359 2.071797,0.5359 3,0 0.928074,-0.53582 1.499851,-1.52601 1.5,-2.59766 v -5 -1 -2 h -2 -2 z"
         style="opacity:1;fill:#999999;fill-opacity:1;stroke:none;stroke-width:0.80800003;stroke-linecap:round;stroke-linejoin:round;stroke-miterlimit:4;stroke-dasharray:none;stroke-opacity:1;paint-order:stroke markers fill"
         inkscape:connector-curvature="0" />
      <path
         id="path1075-0-9-2"
         d="m -1,285.64999 v 1 5.00017 1 c -1.32e-4,0.71466 0.381084,1.37509 1,1.73242 0.618802,0.35727 1.381198,0.35727 2,0 0.618916,-0.35733 1.000132,-1.01776 1,-1.73242 v -1 -5.00017 c 0,-0.554 -0.446,-1 -1,-1 H 0 Z"
         style="opacity:1;fill:url(#linearGradient880);fill-opacity:1;stroke:none;stroke-width:0.53866667;stroke-linecap:round;stroke-linejoin:round;stroke-miterlimit:4;stroke-dasharray:none;stroke-opacity:1;paint-order:stroke markers fill"
         inkscape:connector-curvature="0"
         sodipodi:nodetypes="ccccssccsscc" />
      <path
         id="path1075-0-9-2-0"
         d="m -7,285.64999 v 1 5.00017 1 c -1.32e-4,0.71466 0.381084,1.37509 1,1.73242 0.618802,0.35727 1.381198,0.35727 2,0 0.618916,-0.35733 1.000132,-1.01776 1,-1.73242 v -1 -5.00017 -1 h -1 -2 z"
         style="opacity:1;fill:url(#linearGradient902-3);fill-opacity:1;stroke:none;stroke-width:0.53866667;stroke-linecap:round;stroke-linejoin:round;stroke-miterlimit:4;stroke-dasharray:none;stroke-opacity:1;paint-order:stroke markers fill"
         inkscape:connector-curvature="0"
         sodipodi:nodetypes="ccccssccccccc" />
      <path
         id="path1075-0-9-2-2"
         d="m -13,285.64999 v 1 5.00017 1 c -1.32e-4,0.71466 0.381084,1.37509 1,1.73242 0.618802,0.35727 1.381198,0.35727 2,0 0.618916,-0.35733 1.000132,-1.01776 1,-1.73242 v -1 -5.00017 -1 h -1 -2 z"
         style="opacity:1;fill:url(#linearGradient872);fill-opacity:1;stroke:none;stroke-width:0.53866667;stroke-linecap:round;stroke-linejoin:round;stroke-miterlimit:4;stroke-dasharray:none;stroke-opacity:1;paint-order:stroke markers fill"
         inkscape:connector-curvature="0"
         sodipodi:nodetypes="ccccssccccccc" />
      <path
         id="path1075-0-9-2-3"
         d="m -19,285.64999 v 1 5.00017 1 c -1.31e-4,0.71466 0.381084,1.37509 1,1.73242 0.618803,0.35727 1.381198,0.35727 2,0 0.618916,-0.35733 1.000132,-1.01776 1,-1.73242 v -1 -5.00017 -1 h -1 -2 z"
         style="opacity:1;fill:url(#linearGradient888-5);fill-opacity:1;stroke:none;stroke-width:0.53866667;stroke-linecap:round;stroke-linejoin:round;stroke-miterlimit:4;stroke-dasharray:none;stroke-opacity:1;paint-order:stroke markers fill"
         inkscape:connector-curvature="0"
         sodipodi:nodetypes="ccccssccccccc" />
      <path
         id="path1075-0-9-2-7"
         d="m -24,285.64999 c -0.553999,0 -1,0.446 -1,1 v 5.00017 1 c -1.31e-4,0.71466 0.381084,1.37509 1,1.73242 0.618803,0.35727 1.381198,0.35727 2,0 0.618917,-0.35733 1.000132,-1.01776 1,-1.73242 v -1 -5.00017 -1 h -1 z"
         style="opacity:1;fill:url(#linearGradient864);fill-opacity:1;stroke:none;stroke-width:0.53866667;stroke-linecap:round;stroke-linejoin:round;stroke-miterlimit:4;stroke-dasharray:none;stroke-opacity:1;paint-order:stroke markers fill"
         inkscape:connector-curvature="0"
         sodipodi:nodetypes="ssccsscccccs" />
    </g>
  </g>
</svg>
