<?xml version="1.0" encoding="UTF-8" standalone="no"?>
<!-- Created with Inkscape (http://www.inkscape.org/) -->

<svg
   xmlns:dc="http://purl.org/dc/elements/1.1/"
   xmlns:cc="http://creativecommons.org/ns#"
   xmlns:rdf="http://www.w3.org/1999/02/22-rdf-syntax-ns#"
   xmlns:svg="http://www.w3.org/2000/svg"
   xmlns="http://www.w3.org/2000/svg"
   xmlns:xlink="http://www.w3.org/1999/xlink"
   xmlns:sodipodi="http://sodipodi.sourceforge.net/DTD/sodipodi-0.dtd"
   xmlns:inkscape="http://www.inkscape.org/namespaces/inkscape"
   width="32"
   height="32"
   viewBox="0 0 32 32"
   version="1.1"
   id="svg8"
   inkscape:version="0.92.4 5da689c313, 2019-01-14"
   sodipodi:docname="preferences-web-browser-cookies.svg">
  <title
     id="title7895">Antu icon Theme</title>
  <defs
     id="defs2">
    <style
       id="current-color-scheme"
       type="text/css">
      .ColorScheme-Text {
        color:#122036;
      }
      </style>
    <style
       type="text/css"
       id="current-color-scheme-5">
      .ColorScheme-Text {
        color:#122036;
      }
      </style>
    <style
       type="text/css"
       id="current-color-scheme-2">
      .ColorScheme-Text {
        color:#122036;
      }
      </style>
    <style
       type="text/css"
       id="current-color-scheme-1">
      .ColorScheme-Text {
        color:#122036;
      }
      </style>
    <style
       id="current-color-scheme-10"
       type="text/css">
      .ColorScheme-Text {
        color:#122036;
      }
      </style>
    <style
       type="text/css"
       id="current-color-scheme-0">
      .ColorScheme-Text {
        color:#122036;
      }
      </style>
    <style
       id="current-color-scheme-27"
       type="text/css">
      .ColorScheme-Text {
        color:#36404d;
      }
      </style>
    <style
       id="current-color-scheme-0-0"
       type="text/css">
      .ColorScheme-Text {
        color:#122036;
      }
      </style>
    <style
       type="text/css"
       id="current-color-scheme-1-9">
      .ColorScheme-Text {
        color:#122036;
      }
      </style>
    <style
       type="text/css"
       id="current-color-scheme-3">
      .ColorScheme-Text {
        color:#122036;
      }
      </style>
    <style
       id="current-color-scheme-1-7"
       type="text/css">
      .ColorScheme-Text {
        color:#122036;
      }
      </style>
    <style
       id="current-color-scheme-06"
       type="text/css">
      .ColorScheme-Text {
        color:#122036;
      }
      </style>
    <style
       type="text/css"
       id="current-color-scheme-1-1">
      .ColorScheme-Text {
        color:#122036;
      }
      </style>
    <style
       type="text/css"
       id="current-color-scheme-5-36">
      .ColorScheme-Text {
        color:#36404d;
      }
      </style>
    <style
       id="current-color-scheme-3-6"
       type="text/css">
      .ColorScheme-Text {
        color:#36404d;
      }
      </style>
    <style
       type="text/css"
       id="current-color-scheme-9">
      .ColorScheme-Text {
        color:#36404d;
      }
      </style>
    <style
       id="current-color-scheme-4"
       type="text/css">
      .ColorScheme-Text {
        color:#122036;
      }
      </style>
    <style
       type="text/css"
       id="current-color-scheme-7">
      .ColorScheme-Text {
        color:#36404d;
      }
      </style>
    <style
       id="current-color-scheme-91"
       type="text/css">
      .ColorScheme-Text {
        color:#122036;
      }
      </style>
    <style
       id="current-color-scheme-7-27"
       type="text/css">
      .ColorScheme-Text {
        color:#122036;
      }
      </style>
    <style
       id="current-color-scheme-5-09"
       type="text/css">
      .ColorScheme-Text {
        color:#122036;
      }
      </style>
    <style
       id="current-color-scheme-0-3"
       type="text/css">
      .ColorScheme-Text {
        color:#122036;
      }
      </style>
    <style
       id="current-color-scheme-7-9"
       type="text/css">
      .ColorScheme-Text {
        color:#122036;
      }
      </style>
    <style
       id="current-color-scheme-5-3"
       type="text/css">
      .ColorScheme-Text {
        color:#122036;
      }
      </style>
    <style
       id="current-color-scheme-79"
       type="text/css">
      .ColorScheme-Text {
        color:#122036;
      }
      </style>
    <style
       id="current-color-scheme-7-2"
       type="text/css">
      .ColorScheme-Text {
        color:#122036;
      }
      </style>
    <style
       id="current-color-scheme-5-0"
       type="text/css">
      .ColorScheme-Text {
        color:#122036;
      }
      </style>
    <style
       id="current-color-scheme-062"
       type="text/css">
      .ColorScheme-Text {
        color:#122036;
      }
      </style>
    <style
       type="text/css"
       id="current-color-scheme-1-6">
      .ColorScheme-Text {
        color:#122036;
      }
      </style>
    <style
       id="current-color-scheme-37"
       type="text/css">
      .ColorScheme-Text {
        color:#122036;
      }
      </style>
    <style
       type="text/css"
       id="current-color-scheme-1-5">
      .ColorScheme-Text {
        color:#122036;
      }
      </style>
    <style
       id="current-color-scheme-19"
       type="text/css">
      .ColorScheme-Text {
        color:#122036;
      }
      </style>
    <style
       type="text/css"
       id="current-color-scheme-5-4">
      .ColorScheme-Text {
        color:#122036;
      }
      </style>
    <style
       type="text/css"
       id="current-color-scheme-2-0">
      .ColorScheme-Text {
        color:#122036;
      }
      </style>
    <style
       type="text/css"
       id="current-color-scheme-1-78">
      .ColorScheme-Text {
        color:#122036;
      }
      </style>
    <style
       id="current-color-scheme-10-6"
       type="text/css">
      .ColorScheme-Text {
        color:#122036;
      }
      </style>
    <style
       type="text/css"
       id="current-color-scheme-0-4">
      .ColorScheme-Text {
        color:#122036;
      }
      </style>
    <style
       type="text/css"
       id="current-color-scheme-535">
      .ColorScheme-Text {
        color:#122036;
      }
      </style>
    <style
       id="current-color-scheme-23"
       type="text/css">
      .ColorScheme-Text {
        color:#122036;
      }
      </style>
    <style
       type="text/css"
       id="current-color-scheme-5-6">
      .ColorScheme-Text {
        color:#122036;
      }
      </style>
    <style
       type="text/css"
       id="current-color-scheme-2-2">
      .ColorScheme-Text {
        color:#122036;
      }
      </style>
    <style
       type="text/css"
       id="current-color-scheme-1-91">
      .ColorScheme-Text {
        color:#122036;
      }
      </style>
    <style
       id="current-color-scheme-10-2"
       type="text/css">
      .ColorScheme-Text {
        color:#122036;
      }
      </style>
    <style
       type="text/css"
       id="current-color-scheme-0-7">
      .ColorScheme-Text {
        color:#122036;
      }
      </style>
    <style
       type="text/css"
       id="current-color-scheme-26">
      .ColorScheme-Text {
        color:#122036;
      }
      </style>
    <style
       id="current-color-scheme-53"
       type="text/css">
      .ColorScheme-Text {
        color:#122036;
      }
      </style>
    <style
       type="text/css"
       id="current-color-scheme-5-5">
      .ColorScheme-Text {
        color:#122036;
      }
      </style>
    <style
       type="text/css"
       id="current-color-scheme-2-6">
      .ColorScheme-Text {
        color:#122036;
      }
      </style>
    <style
       type="text/css"
       id="current-color-scheme-1-2">
      .ColorScheme-Text {
        color:#122036;
      }
      </style>
    <style
       id="current-color-scheme-10-9"
       type="text/css">
      .ColorScheme-Text {
        color:#122036;
      }
      </style>
    <style
       type="text/css"
       id="current-color-scheme-0-1">
      .ColorScheme-Text {
        color:#122036;
      }
      </style>
    <style
       id="current-color-scheme-27-0"
       type="text/css">
      .ColorScheme-Text {
        color:#36404d;
      }
      </style>
    <style
       id="current-color-scheme-0-0-93"
       type="text/css">
      .ColorScheme-Text {
        color:#122036;
      }
      </style>
    <style
       type="text/css"
       id="current-color-scheme-1-9-6">
      .ColorScheme-Text {
        color:#122036;
      }
      </style>
    <style
       type="text/css"
       id="current-color-scheme-3-0">
      .ColorScheme-Text {
        color:#122036;
      }
      </style>
    <style
       id="current-color-scheme-1-7-62"
       type="text/css">
      .ColorScheme-Text {
        color:#122036;
      }
      </style>
    <style
       id="current-color-scheme-06-6"
       type="text/css">
      .ColorScheme-Text {
        color:#122036;
      }
      </style>
    <style
       type="text/css"
       id="current-color-scheme-1-1-1">
      .ColorScheme-Text {
        color:#122036;
      }
      </style>
    <style
       type="text/css"
       id="current-color-scheme-5-36-8">
      .ColorScheme-Text {
        color:#36404d;
      }
      </style>
    <style
       id="current-color-scheme-3-6-7"
       type="text/css">
      .ColorScheme-Text {
        color:#36404d;
      }
      </style>
    <style
       type="text/css"
       id="current-color-scheme-9-9">
      .ColorScheme-Text {
        color:#36404d;
      }
      </style>
    <style
       id="current-color-scheme-4-2"
       type="text/css">
      .ColorScheme-Text {
        color:#122036;
      }
      </style>
    <style
       type="text/css"
       id="current-color-scheme-7-0">
      .ColorScheme-Text {
        color:#36404d;
      }
      </style>
    <style
       id="current-color-scheme-91-2"
       type="text/css">
      .ColorScheme-Text {
        color:#122036;
      }
      </style>
    <style
       id="current-color-scheme-7-27-3"
       type="text/css">
      .ColorScheme-Text {
        color:#122036;
      }
      </style>
    <style
       id="current-color-scheme-5-09-7"
       type="text/css">
      .ColorScheme-Text {
        color:#122036;
      }
      </style>
    <style
       id="current-color-scheme-0-3-59"
       type="text/css">
      .ColorScheme-Text {
        color:#122036;
      }
      </style>
    <style
       id="current-color-scheme-7-9-2"
       type="text/css">
      .ColorScheme-Text {
        color:#122036;
      }
      </style>
    <style
       id="current-color-scheme-5-3-2"
       type="text/css">
      .ColorScheme-Text {
        color:#122036;
      }
      </style>
    <style
       id="current-color-scheme-79-8"
       type="text/css">
      .ColorScheme-Text {
        color:#122036;
      }
      </style>
    <style
       id="current-color-scheme-7-2-9"
       type="text/css">
      .ColorScheme-Text {
        color:#122036;
      }
      </style>
    <style
       id="current-color-scheme-5-0-7"
       type="text/css">
      .ColorScheme-Text {
        color:#122036;
      }
      </style>
    <style
       id="current-color-scheme-062-3"
       type="text/css">
      .ColorScheme-Text {
        color:#122036;
      }
      </style>
    <style
       type="text/css"
       id="current-color-scheme-1-6-6">
      .ColorScheme-Text {
        color:#122036;
      }
      </style>
    <style
       id="current-color-scheme-37-1"
       type="text/css">
      .ColorScheme-Text {
        color:#122036;
      }
      </style>
    <style
       type="text/css"
       id="current-color-scheme-1-5-2">
      .ColorScheme-Text {
        color:#122036;
      }
      </style>
    <style
       id="current-color-scheme-19-9"
       type="text/css">
      .ColorScheme-Text {
        color:#122036;
      }
      </style>
    <style
       type="text/css"
       id="current-color-scheme-5-4-3">
      .ColorScheme-Text {
        color:#122036;
      }
      </style>
    <style
       type="text/css"
       id="current-color-scheme-2-0-1">
      .ColorScheme-Text {
        color:#122036;
      }
      </style>
    <style
       type="text/css"
       id="current-color-scheme-1-78-9">
      .ColorScheme-Text {
        color:#122036;
      }
      </style>
    <style
       id="current-color-scheme-10-6-47"
       type="text/css">
      .ColorScheme-Text {
        color:#122036;
      }
      </style>
    <style
       type="text/css"
       id="current-color-scheme-0-4-8">
      .ColorScheme-Text {
        color:#122036;
      }
      </style>
    <style
       id="current-color-scheme-20"
       type="text/css">
      .ColorScheme-Text {
        color:#122036;
      }
      </style>
    <style
       type="text/css"
       id="current-color-scheme-5-2">
      .ColorScheme-Text {
        color:#122036;
      }
      </style>
    <style
       type="text/css"
       id="current-color-scheme-2-3">
      .ColorScheme-Text {
        color:#122036;
      }
      </style>
    <style
       type="text/css"
       id="current-color-scheme-1-75">
      .ColorScheme-Text {
        color:#122036;
      }
      </style>
    <style
       id="current-color-scheme-10-92"
       type="text/css">
      .ColorScheme-Text {
        color:#122036;
      }
      </style>
    <style
       type="text/css"
       id="current-color-scheme-0-2">
      .ColorScheme-Text {
        color:#122036;
      }
      </style>
    <style
       id="current-color-scheme-27-8"
       type="text/css">
      .ColorScheme-Text {
        color:#36404d;
      }
      </style>
    <style
       id="current-color-scheme-0-0-9"
       type="text/css">
      .ColorScheme-Text {
        color:#122036;
      }
      </style>
    <style
       type="text/css"
       id="current-color-scheme-1-9-7">
      .ColorScheme-Text {
        color:#122036;
      }
      </style>
    <style
       type="text/css"
       id="current-color-scheme-3-3">
      .ColorScheme-Text {
        color:#122036;
      }
      </style>
    <style
       id="current-color-scheme-1-7-6"
       type="text/css">
      .ColorScheme-Text {
        color:#122036;
      }
      </style>
    <style
       id="current-color-scheme-06-1"
       type="text/css">
      .ColorScheme-Text {
        color:#122036;
      }
      </style>
    <style
       type="text/css"
       id="current-color-scheme-1-1-2">
      .ColorScheme-Text {
        color:#122036;
      }
      </style>
    <style
       type="text/css"
       id="current-color-scheme-5-36-9">
      .ColorScheme-Text {
        color:#36404d;
      }
      </style>
    <style
       id="current-color-scheme-3-6-3"
       type="text/css">
      .ColorScheme-Text {
        color:#36404d;
      }
      </style>
    <style
       type="text/css"
       id="current-color-scheme-9-1">
      .ColorScheme-Text {
        color:#36404d;
      }
      </style>
    <style
       id="current-color-scheme-4-9"
       type="text/css">
      .ColorScheme-Text {
        color:#122036;
      }
      </style>
    <style
       type="text/css"
       id="current-color-scheme-7-4">
      .ColorScheme-Text {
        color:#36404d;
      }
      </style>
    <style
       id="current-color-scheme-91-7"
       type="text/css">
      .ColorScheme-Text {
        color:#122036;
      }
      </style>
    <style
       id="current-color-scheme-7-27-8"
       type="text/css">
      .ColorScheme-Text {
        color:#122036;
      }
      </style>
    <style
       id="current-color-scheme-5-09-4"
       type="text/css">
      .ColorScheme-Text {
        color:#122036;
      }
      </style>
    <style
       id="current-color-scheme-0-3-5"
       type="text/css">
      .ColorScheme-Text {
        color:#122036;
      }
      </style>
    <style
       id="current-color-scheme-7-9-0"
       type="text/css">
      .ColorScheme-Text {
        color:#122036;
      }
      </style>
    <style
       id="current-color-scheme-5-3-3"
       type="text/css">
      .ColorScheme-Text {
        color:#122036;
      }
      </style>
    <style
       id="current-color-scheme-79-6"
       type="text/css">
      .ColorScheme-Text {
        color:#122036;
      }
      </style>
    <style
       id="current-color-scheme-7-2-1"
       type="text/css">
      .ColorScheme-Text {
        color:#122036;
      }
      </style>
    <style
       id="current-color-scheme-5-0-0"
       type="text/css">
      .ColorScheme-Text {
        color:#122036;
      }
      </style>
    <style
       id="current-color-scheme-062-6"
       type="text/css">
      .ColorScheme-Text {
        color:#122036;
      }
      </style>
    <style
       type="text/css"
       id="current-color-scheme-1-6-3">
      .ColorScheme-Text {
        color:#122036;
      }
      </style>
    <style
       id="current-color-scheme-37-2"
       type="text/css">
      .ColorScheme-Text {
        color:#122036;
      }
      </style>
    <style
       type="text/css"
       id="current-color-scheme-1-5-0">
      .ColorScheme-Text {
        color:#122036;
      }
      </style>
    <style
       id="current-color-scheme-19-6"
       type="text/css">
      .ColorScheme-Text {
        color:#122036;
      }
      </style>
    <style
       type="text/css"
       id="current-color-scheme-5-4-1">
      .ColorScheme-Text {
        color:#122036;
      }
      </style>
    <style
       type="text/css"
       id="current-color-scheme-2-0-5">
      .ColorScheme-Text {
        color:#122036;
      }
      </style>
    <style
       type="text/css"
       id="current-color-scheme-1-78-5">
      .ColorScheme-Text {
        color:#122036;
      }
      </style>
    <style
       id="current-color-scheme-10-6-4"
       type="text/css">
      .ColorScheme-Text {
        color:#122036;
      }
      </style>
    <style
       type="text/css"
       id="current-color-scheme-0-4-7">
      .ColorScheme-Text {
        color:#122036;
      }
      </style>
    <linearGradient
       inkscape:collect="always"
       id="linearGradient983-7">
      <stop
         style="stop-color:#06111c;stop-opacity:1"
         offset="0"
         id="stop979-1" />
      <stop
         style="stop-color:#15272f;stop-opacity:1"
         offset="1"
         id="stop981-7" />
    </linearGradient>
    <linearGradient
       id="linearGradient4582"
       inkscape:collect="always">
      <stop
         id="stop4578"
         offset="0"
         style="stop-color:#e3e3e3;stop-opacity:1" />
      <stop
         id="stop4580"
         offset="1"
         style="stop-color:#fcfcfc;stop-opacity:1" />
    </linearGradient>
    <linearGradient
       inkscape:collect="always"
       id="linearGradient1410">
      <stop
         style="stop-color:#444444;stop-opacity:1"
         offset="0"
         id="stop1406" />
      <stop
         style="stop-color:#06111c;stop-opacity:1"
         offset="1"
         id="stop1408" />
    </linearGradient>
    <linearGradient
       inkscape:collect="always"
       id="linearGradient1437">
      <stop
         style="stop-color:#3573f0;stop-opacity:1"
         offset="0"
         id="stop1433" />
      <stop
         style="stop-color:#5694fb;stop-opacity:1"
         offset="1"
         id="stop1435" />
    </linearGradient>
    <linearGradient
       inkscape:collect="always"
       xlink:href="#linearGradient1437"
       id="linearGradient1114"
       x1="-13"
       y1="310.64999"
       x2="-14"
       y2="288.64999"
       gradientUnits="userSpaceOnUse" />
    <linearGradient
       inkscape:collect="always"
       xlink:href="#linearGradient1410"
       id="linearGradient1122"
       x1="-13"
       y1="305.64999"
       x2="-13"
       y2="295.64999"
       gradientUnits="userSpaceOnUse" />
    <linearGradient
       inkscape:collect="always"
       xlink:href="#linearGradient4582"
       id="linearGradient1130"
       x1="-12"
       y1="290.64999"
       x2="-12"
       y2="282.64999"
       gradientUnits="userSpaceOnUse" />
    <linearGradient
       inkscape:collect="always"
       xlink:href="#linearGradient4582"
       id="linearGradient1138"
       x1="-19"
       y1="292.64999"
       x2="-19"
       y2="284.64999"
       gradientUnits="userSpaceOnUse" />
    <linearGradient
       inkscape:collect="always"
       xlink:href="#linearGradient983-7"
       id="linearGradient1147"
       x1="16"
       y1="9"
       x2="16"
       y2="4"
       gradientUnits="userSpaceOnUse" />
  </defs>
  <sodipodi:namedview
     id="base"
     pagecolor="#ffffff"
     bordercolor="#666666"
     borderopacity="1.0"
     inkscape:pageopacity="0.0"
     inkscape:pageshadow="2"
     inkscape:zoom="15.839192"
     inkscape:cx="36.990001"
     inkscape:cy="14.27009"
     inkscape:document-units="px"
     inkscape:current-layer="g1473"
     showgrid="true"
     units="px"
     inkscape:window-width="1920"
     inkscape:window-height="1003"
     inkscape:window-x="0"
     inkscape:window-y="0"
     inkscape:window-maximized="1"
     objecttolerance="10"
     gridtolerance="10"
     guidetolerance="10">
    <inkscape:grid
       type="xygrid"
       id="grid7897"
       empspacing="4" />
  </sodipodi:namedview>
  <metadata
     id="metadata5">
    <rdf:RDF>
      <cc:Work
         rdf:about="">
        <dc:format>image/svg+xml</dc:format>
        <dc:type
           rdf:resource="http://purl.org/dc/dcmitype/StillImage" />
        <dc:title>Antu icon Theme</dc:title>
      </cc:Work>
    </rdf:RDF>
  </metadata>
  <g
     inkscape:label="Capa 1"
     inkscape:groupmode="layer"
     id="layer1"
     transform="translate(0,-282.64999)">
    <g
       id="g1473"
       transform="translate(31,2)">
      <path
         inkscape:connector-curvature="0"
         style="opacity:1;fill:#dcedff;fill-opacity:1;stroke:none;stroke-width:1.84506249;stroke-linecap:round;stroke-linejoin:round;stroke-miterlimit:4;stroke-dasharray:none;stroke-opacity:1"
         d="m -15,289.64999 c -2.77,0 -5,2.23 -5,5 0,2.77 2.23,5 5,5 2.77,0 5,-2.23 5,-5 0,-2.77 -2.23,-5 -5,-5 z m 0,12 c -3.676863,0 -6.818991,2.18622 -8.21875,5.33203 2.306591,1.67252 5.139236,2.66797 8.21875,2.66797 3.079514,0 5.912159,-0.99545 8.21875,-2.66797 -1.399759,-3.14581 -4.541887,-5.33203 -8.21875,-5.33203 z"
         id="path906" />
      <path
         style="color:#000000;font-style:normal;font-variant:normal;font-weight:normal;font-stretch:normal;font-size:medium;line-height:normal;font-family:sans-serif;font-variant-ligatures:normal;font-variant-position:normal;font-variant-caps:normal;font-variant-numeric:normal;font-variant-alternates:normal;font-feature-settings:normal;text-indent:0;text-align:start;text-decoration:none;text-decoration-line:none;text-decoration-style:solid;text-decoration-color:#000000;letter-spacing:normal;word-spacing:normal;text-transform:none;writing-mode:lr-tb;direction:ltr;text-orientation:mixed;dominant-baseline:auto;baseline-shift:baseline;text-anchor:start;white-space:normal;shape-padding:0;clip-rule:nonzero;display:inline;overflow:visible;visibility:visible;opacity:1;isolation:auto;mix-blend-mode:normal;color-interpolation:sRGB;color-interpolation-filters:linearRGB;solid-color:#000000;solid-opacity:1;vector-effect:none;fill:#2453b5;fill-opacity:1;fill-rule:nonzero;stroke:none;stroke-width:2;stroke-linecap:round;stroke-linejoin:round;stroke-miterlimit:4;stroke-dasharray:none;stroke-dashoffset:0;stroke-opacity:1;color-rendering:auto;image-rendering:auto;shape-rendering:auto;text-rendering:auto;enable-background:accumulate"
         d="m -9.4707031,287.65039 a 1.0001,1.0001 0 0 0 -0.2167969,0.0234 l -13.183594,2.92383 -1.68164,-0.8418 a 1.0001,1.0001 0 0 0 -1.271485,1.45898 c 0,0 0.175065,0.27991 0.277344,0.43555 H -27 a 1.0001,1.0001 0 0 0 -0.830078,1.55469 l -1.486328,0.49609 a 1.0001,1.0001 0 0 0 -0.13086,1.84375 l 1.105469,0.55274 -1.552734,3.10546 a 1.0001,1.0001 0 0 0 1.341797,1.3418 L -28,300.26953 v 4.38086 a 1.0001,1.0001 0 0 0 1.894531,0.44727 l 0.0039,-0.01 1.173828,2.93359 A 1.0001,1.0001 0 0 0 -24,308.65039 h 3.697266 l 2.748046,1.83203 a 1.0001,1.0001 0 0 0 0.3125,0.13867 l 4,1 a 1.0001,1.0001 0 0 0 0.949219,-0.26367 l 2.8144534,-2.81445 4.7460937,-1.32031 a 1.0001,1.0001 0 0 0 0.4550781,-0.27149 l 3.45312505,-3.60937 a 1.0001,1.0001 0 0 0 0.265625,-0.8418 L -0.953125,299.88477 -0.16992188,298.7207 A 1.0001,1.0001 0 0 0 0,298.16406 v -1.51367 a 1.0001,1.0001 0 0 0 -0.36523438,-0.77344 l -0.33398437,-0.27343 a 1.0001,1.0001 0 0 0 0.25390625,-1.78516 l -1.5664063,-1.04492 0.4589844,-0.22852 A 1.0001,1.0001 0 0 0 -1,291.65039 v -1 a 1.0001,1.0001 0 0 0 -1,-1 h -1.9160156 l -1.3925782,-0.23633 0.1386719,-0.20703 A 1.0001,1.0001 0 0 0 -6,287.65039 Z m 0.109375,2 h 1.4921875 a 1.0001,1.0001 0 0 0 0.703125,1.47852 l 2.9667968,0.50195 -0.2480468,0.125 a 1.0001,1.0001 0 0 0 -0.1074219,1.72656 l 1.0175781,0.67774 a 1.0001,1.0001 0 0 0 -0.097656,1.61523 L -2,297.12305 v 0.73437 l -0.8300781,1.23438 a 1.0001,1.0001 0 0 0 -0.1582031,0.70703 l 0.3789062,2.51562 -2.9238281,3.05469 -4.7343749,1.31836 a 1.0001,1.0001 0 0 0 -0.439453,0.25586 l -2.59961,2.59961 -3.283203,-0.82031 -2.855468,-1.9043 A 1.0001,1.0001 0 0 0 -20,306.65039 h -3.322266 l -1.75,-4.37109 A 1.0001,1.0001 0 0 0 -26,301.65039 v -3 a 1.0001,1.0001 0 0 0 -0.884766,-0.99219 l 0.779297,-1.56054 a 1.0001,1.0001 0 0 0 -0.304687,-1.25586 l 0.726562,-0.24219 a 1.0001,1.0001 0 0 0 0.681641,-0.94922 H -24 c 0.247874,0 0.666524,-0.16277 0.867188,-0.44727 0.164694,-0.23349 0.15775,-0.40564 0.160156,-0.55468 a 1.0001,1.0001 0 0 0 0.189453,-0.0215 z"
         id="path835"
         inkscape:connector-curvature="0" />
      <path
         style="fill:url(#linearGradient1114);fill-opacity:1;stroke:none;stroke-width:2;stroke-linecap:round;stroke-linejoin:round;stroke-miterlimit:4;stroke-dasharray:none;stroke-opacity:1"
         d="m -23,291.64999 -2,-1 c 0,0 1.370874,2 1,2 -0.370875,0 -3,0 -3,0 l 1,1 -3.000001,1 2.000001,1 -2.000001,4 2.000001,-1 v 6 l 1,-2 2,5 h 4 l 2.999999,2 4,1 3,-3 5,-1.39007 3.452095,-3.60993 -0.452095,-3 1,-1.48661 v -1.51339 l -2,-1.6461 2,-0.3539 -3,-2 2,-1 v -1 h -2 l -3,-0.50746 1,-1.49254 h -3.471124 z"
         id="path835-7"
         inkscape:connector-curvature="0"
         sodipodi:nodetypes="ccscccccccccccccccccccccccccccc" />
      <path
         style="fill:#07121d;fill-opacity:1;stroke:none;stroke-width:2.5;stroke-linecap:round;stroke-linejoin:round;stroke-miterlimit:4;stroke-dasharray:none;stroke-opacity:1"
         d="m -12.076416,281.64999 h 0.152832 c 2.7276658,0 4.923584,2.19592 4.923584,4.92359 v 0.1528 c 0,2.72766 -2.1959182,4.92358 -4.923584,4.92358 h -0.152832 C -14.804082,291.64996 -17,289.45404 -17,286.72638 v -0.1528 c 0,-2.72767 2.195918,-4.92359 4.923584,-4.92359 z"
         id="rect837-5-3" />
      <path
         style="fill:url(#linearGradient1130);fill-opacity:1;stroke:none;stroke-width:2;stroke-linecap:round;stroke-linejoin:round;stroke-miterlimit:4;stroke-dasharray:none;stroke-opacity:1"
         d="m -12.061133,282.64999 h 0.122266 c 2.1821324,0 3.938867,1.75674 3.938867,3.93887 v 0.12224 c 0,2.18213 -1.7567346,3.93887 -3.938867,3.93887 h -0.122266 C -14.243265,290.64997 -16,288.89323 -16,286.7111 v -0.12224 c 0,-2.18213 1.756735,-3.93887 3.938867,-3.93887 z"
         id="rect837-56" />
      <path
         style="fill:#07121d;fill-opacity:1;stroke:none;stroke-width:2.5;stroke-linecap:round;stroke-linejoin:round;stroke-miterlimit:4;stroke-dasharray:none;stroke-opacity:1"
         d="m -19.076416,283.64999 h 0.152832 c 2.727666,0 4.923584,2.19592 4.923584,4.92359 v 0.1528 c 0,2.72766 -2.195918,4.92358 -4.923584,4.92358 h -0.152832 C -21.804082,293.64996 -24,291.45404 -24,288.72638 v -0.1528 c 0,-2.72767 2.195918,-4.92359 4.923584,-4.92359 z"
         id="rect837-5" />
      <path
         style="fill:url(#linearGradient1138);fill-opacity:1;stroke:none;stroke-width:2;stroke-linecap:round;stroke-linejoin:round;stroke-miterlimit:4;stroke-dasharray:none;stroke-opacity:1"
         d="m -19.061133,284.64999 h 0.122266 c 2.182132,0 3.938867,1.75674 3.938867,3.93887 v 0.12224 c 0,2.18213 -1.756735,3.93887 -3.938867,3.93887 h -0.122266 C -21.243265,292.64997 -23,290.89323 -23,288.7111 v -0.12224 c 0,-2.18213 1.756735,-3.93887 3.938867,-3.93887 z"
         id="rect837" />
      <path
         style="color:#000000;font-style:normal;font-variant:normal;font-weight:normal;font-stretch:normal;font-size:medium;line-height:normal;font-family:sans-serif;font-variant-ligatures:normal;font-variant-position:normal;font-variant-caps:normal;font-variant-numeric:normal;font-variant-alternates:normal;font-feature-settings:normal;text-indent:0;text-align:start;text-decoration:none;text-decoration-line:none;text-decoration-style:solid;text-decoration-color:#000000;letter-spacing:normal;word-spacing:normal;text-transform:none;writing-mode:lr-tb;direction:ltr;text-orientation:mixed;dominant-baseline:auto;baseline-shift:baseline;text-anchor:start;white-space:normal;shape-padding:0;clip-rule:nonzero;display:inline;overflow:visible;visibility:visible;opacity:1;isolation:auto;mix-blend-mode:normal;color-interpolation:sRGB;color-interpolation-filters:linearRGB;solid-color:#000000;solid-opacity:1;vector-effect:none;fill:#1d1d1d;fill-opacity:1;fill-rule:nonzero;stroke:none;stroke-width:2;stroke-linecap:square;stroke-linejoin:round;stroke-miterlimit:4;stroke-dasharray:none;stroke-dashoffset:0;stroke-opacity:1;color-rendering:auto;image-rendering:auto;shape-rendering:auto;text-rendering:auto;enable-background:accumulate"
         d="m -13.037109,294.65039 a 1.0001,1.0001 0 0 0 -0.625,0.25 l -0.94336,0.83399 a 1.0001,1.0001 0 0 0 -0.949219,0.084 l -1.71875,1.14648 a 1.0001,1.0001 0 0 0 -1.173828,-0.20898 l -0.710937,0.35547 a 1.0001,1.0001 0 0 0 -1.234375,-0.38086 l -4,1.70898 a 1.0001,1.0001 0 0 0 -0.292969,1.64844 c 2.924727,2.75942 5.442974,4.51723 7.714844,5.46484 2.27187,0.94762 4.335516,1.05946 6.119141,0.46094 3.5672478,-1.19702 5.7548174,-4.86689 7.7480464,-8.92187 a 1.0001,1.0001 0 0 0 -0.6542969,-1.41211 l -4,-1 a 1.0001,1.0001 0 0 0 -1.171875,0.60547 l -1.7539065,-0.58399 a 1.0001,1.0001 0 0 0 -1.158203,0.41016 l -0.710937,-0.35547 a 1.0001,1.0001 0 0 0 -0.484375,-0.10547 z m 0.193359,2.19531 1.396484,0.69922 a 1.0001,1.0001 0 0 0 1.376954,-0.5293 l 1.7539058,0.58399 a 1.0001,1.0001 0 0 0 1.2773437,-0.67773 l 1.4921875,0.37304 c -1.7611469,3.34899 -3.6354318,6.04847 -5.941406,6.82227 -1.290198,0.43294 -2.772922,0.39901 -4.712891,-0.41016 -1.638202,-0.6833 -3.646603,-2.09768 -5.904297,-4.07031 l 1.222657,-0.52149 a 1.0001,1.0001 0 0 0 1.330078,0.42969 l 0.710937,-0.35547 a 1.0001,1.0001 0 0 0 1.396485,0.29297 l 1.871093,-1.24804 a 1.0001,1.0001 0 0 0 1.236328,-0.0664 z"
         id="path948"
         inkscape:connector-curvature="0" />
      <path
         style="fill:url(#linearGradient1122);fill-opacity:1;stroke:none;stroke-width:2;stroke-linecap:square;stroke-linejoin:round;stroke-miterlimit:4;stroke-dasharray:none;stroke-opacity:1"
         d="m -24,299.35981 4,-1.70982 v 1 l 2,-1 v 1 l 3,-2 v 0.76786 l 2,-1.76786 2,1 v -1 l 3,1 v -1 l 4,1 c -3.931178,7.99751 -8.521757,13.53931 -20,2.70982 z"
         id="path948-9"
         inkscape:connector-curvature="0"
         sodipodi:nodetypes="cccccccccccccc" />
      <path
         style="fill:url(#linearGradient1147);fill-opacity:1;stroke:none;stroke-width:2;stroke-linecap:round;stroke-linejoin:round;stroke-miterlimit:4;stroke-dasharray:none;stroke-opacity:1"
         d="M 19 3 C 17.892 3 17 3.892 17 5 C 17 6.108 17.892 7 19 7 C 20.108 7 21 6.108 21 5 C 21 3.892 20.108 3 19 3 z M 12 6 C 10.892 6 10 6.892 10 8 C 10 9.108 10.892 10 12 10 C 13.108 10 14 9.108 14 8 C 14 6.892 13.108 6 12 6 z "
         transform="translate(-31,280.64999)"
         id="rect854-2" />
    </g>
  </g>
</svg>
