<?xml version="1.0" encoding="UTF-8" standalone="no"?>
<svg
   height="32"
   viewBox="0 0 8.4666664 8.4666669"
   width="32"
   version="1.1"
   id="svg16"
   sodipodi:docname="preferences-desktop-menu-edit.svg"
   xml:space="preserve"
   inkscape:version="1.2 (dc2aedaf03, 2022-05-15)"
   xmlns:inkscape="http://www.inkscape.org/namespaces/inkscape"
   xmlns:sodipodi="http://sodipodi.sourceforge.net/DTD/sodipodi-0.dtd"
   xmlns:xlink="http://www.w3.org/1999/xlink"
   xmlns="http://www.w3.org/2000/svg"
   xmlns:svg="http://www.w3.org/2000/svg"><defs
     id="defs20"><linearGradient
       inkscape:collect="always"
       id="linearGradient4123"><stop
         style="stop-color:#004a60;stop-opacity:1;"
         offset="0"
         id="stop4119" /><stop
         style="stop-color:#007960;stop-opacity:1;"
         offset="1"
         id="stop4121" /></linearGradient><style
       type="text/css"
       id="current-color-scheme">
      .ColorScheme-Text {
        color:#36404d;
      }
      </style><style
       id="current-color-scheme-3"
       type="text/css">
      .ColorScheme-Text {
        color:#36404d;
      }
      </style><linearGradient
       inkscape:collect="always"
       xlink:href="#linearGradient4774"
       id="linearGradient4657"
       gradientUnits="userSpaceOnUse"
       gradientTransform="matrix(0.26458333,0,0,0.26458333,10.573356,-78.681948)"
       x1="-31.75"
       y1="324.27499"
       x2="-31.75"
       y2="296.27499" /><linearGradient
       inkscape:collect="always"
       id="linearGradient4774"><stop
         style="stop-color:#01a2c7;stop-opacity:1;"
         offset="0"
         id="stop4770" /><stop
         style="stop-color:#00d4a0;stop-opacity:1;"
         offset="1"
         id="stop4772" /></linearGradient><linearGradient
       inkscape:collect="always"
       xlink:href="#linearGradient4123"
       id="linearGradient4125"
       x1="2.1728351"
       y1="7.1158123"
       x2="2.1728351"
       y2="-0.55710417"
       gradientUnits="userSpaceOnUse" /></defs><sodipodi:namedview
     id="namedview18"
     pagecolor="#ffffff"
     bordercolor="#000000"
     borderopacity="0.25"
     inkscape:showpageshadow="2"
     inkscape:pageopacity="0.0"
     inkscape:pagecheckerboard="0"
     inkscape:deskcolor="#d1d1d1"
     showgrid="true"
     inkscape:zoom="14.75"
     inkscape:cx="42.372881"
     inkscape:cy="22.338983"
     inkscape:window-width="2160"
     inkscape:window-height="1335"
     inkscape:window-x="0"
     inkscape:window-y="0"
     inkscape:window-maximized="1"
     inkscape:current-layer="svg16"><inkscape:grid
       type="xygrid"
       id="grid1954" /></sodipodi:namedview><g
     inkscape:label="Capa 1"
     id="layer1"
     transform="translate(1.4574512,2.3498587)"><g
       inkscape:label="Capa 1"
       id="layer1-3"
       transform="translate(-1.4574512,-2.3498587)"><g
         id="g9878"
         transform="translate(2.0604984,0.82168748)"><path
           inkscape:connector-curvature="0"
           style="fill:url(#linearGradient4125);fill-opacity:1;stroke:none;stroke-width:1.05833;stroke-linecap:round;stroke-linejoin:round;stroke-miterlimit:4;stroke-dasharray:none;stroke-dashoffset:0;stroke-opacity:1"
           d="M -0.73758165,-0.55710409 H 5.0832516 c 0.5863167,0 1.0583333,0.47201666 1.0583333,1.05833332 V 6.3220625 c 0,0.5863166 -0.4720166,1.0583333 -1.0583333,1.0583333 h -5.82083325 c -0.58631665,0 -1.05833335,-0.4720167 -1.05833335,-1.0583333 V 0.50122923 c 0,-0.58631666 0.4720167,-1.05833332 1.05833335,-1.05833332 z"
           id="rect4556-1-8" /><path
           id="rect4556-9"
           style="fill:url(#linearGradient4657);fill-opacity:1;stroke:none;stroke-width:1.05833;stroke-linecap:round;stroke-linejoin:round;stroke-miterlimit:4;stroke-dasharray:none;stroke-dashoffset:0;stroke-opacity:1"
           d="m -0.73758155,-0.29252081 c -0.43973665,0 -0.79375005,0.35401338 -0.79375005,0.79374999 V 1.2949792 H 5.8770018 V 0.50122918 c 0,-0.43973661 -0.3540135,-0.79374999 -0.79375,-0.79374999 z M -1.5313316,1.5595625 v 4.7625 c 0,0.4397367 0.3540134,0.79375 0.79375005,0.79375 H 5.0832518 c 0.4397365,0 0.79375,-0.3540133 0.79375,-0.79375 v -4.7625 h -0.79375 V 6.5866458 H 0.58533511 V 1.5595625 Z" /></g></g><path
       id="rect4886"
       style="fill:#ddecea;fill-opacity:1;stroke-width:0.529167;stroke-linecap:round;stroke-linejoin:round;stroke-miterlimit:1.8;paint-order:fill markers stroke;stop-color:#000000"
       d="m -0.13453435,-1.820692 c -0.43973618,0 -0.79375,0.3540137 -0.79375,0.79375 v 0.79374996 h 0.79375 5.82083335 0.79375 V -1.026942 c 0,-0.4397363 -0.354014,-0.79375 -0.79375,-0.79375 z M 1.4529656,0.03139129 V 1.6188913 h 3.96875 V 0.03139129 Z m 0,2.64583331 v 2.1166667 h 3.96875 V 2.6772246 Z" /><path
       id="rect7543"
       style="fill:#007360;fill-opacity:1;stroke-width:0.529167;stroke-linecap:round;stroke-linejoin:round;stroke-miterlimit:1.8;paint-order:fill markers stroke;stop-color:#000000"
       d="m -0.39911769,-1.2915254 v 0.5291667 h 0.79375 v -0.5291667 z m 1.32291667,0 v 0.5291667 H 2.2467156 v -0.5291667 z m 1.85208332,0 v 0.5291667 h 1.0583333 v -0.5291667 z m 1.5875,0 v 0.5291667 h 1.5875 v -0.5291667 z" /></g></svg>
