<?xml version="1.0" encoding="UTF-8" standalone="no"?>
<!-- Created with Inkscape (http://www.inkscape.org/) -->

<svg
   xmlns:dc="http://purl.org/dc/elements/1.1/"
   xmlns:cc="http://creativecommons.org/ns#"
   xmlns:rdf="http://www.w3.org/1999/02/22-rdf-syntax-ns#"
   xmlns:svg="http://www.w3.org/2000/svg"
   xmlns="http://www.w3.org/2000/svg"
   xmlns:xlink="http://www.w3.org/1999/xlink"
   xmlns:sodipodi="http://sodipodi.sourceforge.net/DTD/sodipodi-0.dtd"
   xmlns:inkscape="http://www.inkscape.org/namespaces/inkscape"
   width="32"
   height="32"
   viewBox="0 0 32 32"
   version="1.1"
   id="svg8"
   inkscape:version="0.92.2 5c3e80d, 2017-08-06"
   sodipodi:docname="preferences-desktop-font.svg">
  <title
     id="title7895">Antu icon Theme</title>
  <defs
     id="defs2">
    <linearGradient
       gradientTransform="translate(-24,8)"
       inkscape:collect="always"
       xlink:href="#linearGradient2126"
       id="linearGradient1256"
       x1="16"
       y1="310.64999"
       x2="16"
       y2="290.64999"
       gradientUnits="userSpaceOnUse" />
    <linearGradient
       id="linearGradient2126"
       inkscape:collect="always">
      <stop
         id="stop2122"
         offset="0"
         style="stop-color:#475057;stop-opacity:1;" />
      <stop
         id="stop2124"
         offset="1"
         style="stop-color:#5e6a73;stop-opacity:1" />
    </linearGradient>
  </defs>
  <sodipodi:namedview
     id="base"
     pagecolor="#ffffff"
     bordercolor="#666666"
     borderopacity="1.0"
     inkscape:pageopacity="0.0"
     inkscape:pageshadow="2"
     inkscape:zoom="5.6"
     inkscape:cx="-29.16809"
     inkscape:cy="15.856699"
     inkscape:document-units="px"
     inkscape:current-layer="layer1"
     showgrid="true"
     units="px"
     inkscape:window-width="1366"
     inkscape:window-height="697"
     inkscape:window-x="0"
     inkscape:window-y="0"
     inkscape:window-maximized="1"
     objecttolerance="10"
     gridtolerance="10"
     guidetolerance="10">
    <inkscape:grid
       type="xygrid"
       id="grid7897"
       empspacing="4" />
  </sodipodi:namedview>
  <metadata
     id="metadata5">
    <rdf:RDF>
      <cc:Work
         rdf:about="">
        <dc:format>image/svg+xml</dc:format>
        <dc:type
           rdf:resource="http://purl.org/dc/dcmitype/StillImage" />
        <dc:title>Antu icon Theme</dc:title>
      </cc:Work>
    </rdf:RDF>
  </metadata>
  <g
     inkscape:label="Capa 1"
     inkscape:groupmode="layer"
     id="layer1"
     transform="translate(0,-282.64999)">
    <g
       id="g2069"
       transform="translate(24,-8)">
      <path
         inkscape:connector-curvature="0"
         id="rect879"
         d="m -22,293.64999 v 5 3 h 3 v -1 c 0,-1.108 0.892,-2 2,-2 h 2 4 v 14 2 c 0,1.108 -0.892,2 -2,2 h -2 v 4 h 14 v -4 h -2 c -1.108,0 -2,-0.892 -2,-2 v -2 -14 h 6 c 1.108,0 2,0.892 2,2 v 1 h 3 v -4 -4 z"
         style="opacity:1;fill:#343b40;fill-opacity:1;stroke:none;stroke-width:0.80800003;stroke-linecap:round;stroke-linejoin:round;stroke-miterlimit:4;stroke-dasharray:none;stroke-opacity:1;paint-order:stroke markers fill" />
      <path
         inkscape:connector-curvature="0"
         id="rect965"
         d="m -21,294.64999 v 3 3 h 1 c 0,-0.831 0.334703,-1.5808 0.876953,-2.12305 0.54225,-0.54225 1.292047,-0.87695 2.123047,-0.87695 h 7 v 17 c 0,0.831 -0.334703,1.5808 -0.876953,2.12305 -0.54225,0.54225 -1.292047,0.87695 -2.123047,0.87695 h -1 v 1 1 h 12 v -1 -1 h -1 c -0.831,0 -1.580797,-0.3347 -2.123047,-0.87695 C -5.665297,316.23079 -6,315.48099 -6,314.64999 v -17 h 7 c 0.831,0 1.580797,0.3347 2.123047,0.87695 C 3.665297,299.06919 4,299.81899 4,300.64999 h 1 v -4 -2 z"
         style="opacity:1;fill:url(#linearGradient1256);fill-opacity:1;stroke:none;stroke-width:0.80800003;stroke-linecap:round;stroke-linejoin:round;stroke-miterlimit:4;stroke-dasharray:none;stroke-opacity:1;paint-order:stroke markers fill" />
    </g>
  </g>
</svg>
