<?xml version="1.0" encoding="UTF-8" standalone="no"?>
<!-- Created with Inkscape (http://www.inkscape.org/) -->

<svg
   xmlns:dc="http://purl.org/dc/elements/1.1/"
   xmlns:cc="http://creativecommons.org/ns#"
   xmlns:rdf="http://www.w3.org/1999/02/22-rdf-syntax-ns#"
   xmlns:svg="http://www.w3.org/2000/svg"
   xmlns="http://www.w3.org/2000/svg"
   xmlns:xlink="http://www.w3.org/1999/xlink"
   xmlns:sodipodi="http://sodipodi.sourceforge.net/DTD/sodipodi-0.dtd"
   xmlns:inkscape="http://www.inkscape.org/namespaces/inkscape"
   width="32"
   height="32"
   viewBox="0 0 32 32"
   version="1.1"
   id="svg8"
   inkscape:version="0.92.2 5c3e80d, 2017-08-06"
   sodipodi:docname="preferences-desktop-gaming.svg">
  <title
     id="title7895">Antu icon Theme</title>
  <defs
     id="defs2">
    <linearGradient
       gradientTransform="matrix(3.7795275,0,0,3.7795275,-8.6071432,-807.19113)"
       inkscape:collect="always"
       xlink:href="#linearGradient4580"
       id="linearGradient4582"
       x1="1.7481399"
       y1="297.34961"
       x2="1.7481399"
       y2="289.94128"
       gradientUnits="userSpaceOnUse" />
    <linearGradient
       inkscape:collect="always"
       id="linearGradient4580">
      <stop
         style="stop-color:#06111c;stop-opacity:1"
         offset="0"
         id="stop4576" />
      <stop
         style="stop-color:#15272f;stop-opacity:1"
         offset="1"
         id="stop4578" />
    </linearGradient>
    <linearGradient
       gradientTransform="matrix(3.7795275,0,0,3.7795275,-8.6071432,-807.19113)"
       inkscape:collect="always"
       xlink:href="#linearGradient4570"
       id="linearGradient4572"
       x1="4.3939734"
       y1="297.34961"
       x2="4.3939734"
       y2="289.94128"
       gradientUnits="userSpaceOnUse" />
    <linearGradient
       inkscape:collect="always"
       id="linearGradient4570">
      <stop
         style="stop-color:#e63a3f;stop-opacity:1"
         offset="0"
         id="stop4566" />
      <stop
         style="stop-color:#ff6c60;stop-opacity:1"
         offset="1"
         id="stop4568" />
    </linearGradient>
    <linearGradient
       gradientTransform="matrix(3.7795275,0,0,3.7795275,-8.6071432,-807.19113)"
       inkscape:collect="always"
       xlink:href="#linearGradient4562"
       id="linearGradient4564"
       x1="-0.89769351"
       y1="297.34961"
       x2="-0.89769351"
       y2="289.94128"
       gradientUnits="userSpaceOnUse" />
    <linearGradient
       inkscape:collect="always"
       id="linearGradient4562">
      <stop
         style="stop-color:#1e8ab7;stop-opacity:1"
         offset="0"
         id="stop4558" />
      <stop
         style="stop-color:#1dd7ff;stop-opacity:1"
         offset="1"
         id="stop4560" />
    </linearGradient>
  </defs>
  <sodipodi:namedview
     id="base"
     pagecolor="#ffffff"
     bordercolor="#666666"
     borderopacity="1.0"
     inkscape:pageopacity="0.0"
     inkscape:pageshadow="2"
     inkscape:zoom="16"
     inkscape:cx="20.28342"
     inkscape:cy="15.084242"
     inkscape:document-units="px"
     inkscape:current-layer="layer1"
     showgrid="false"
     units="px"
     inkscape:window-width="1366"
     inkscape:window-height="697"
     inkscape:window-x="0"
     inkscape:window-y="0"
     inkscape:window-maximized="1"
     objecttolerance="10"
     gridtolerance="10"
     guidetolerance="10">
    <inkscape:grid
       type="xygrid"
       id="grid7897"
       empspacing="4" />
  </sodipodi:namedview>
  <metadata
     id="metadata5">
    <rdf:RDF>
      <cc:Work
         rdf:about="">
        <dc:format>image/svg+xml</dc:format>
        <dc:type
           rdf:resource="http://purl.org/dc/dcmitype/StillImage" />
        <dc:title>Antu icon Theme</dc:title>
      </cc:Work>
    </rdf:RDF>
  </metadata>
  <g
     inkscape:label="Capa 1"
     inkscape:groupmode="layer"
     id="layer1"
     transform="translate(0,-282.64999)">
    <g
       id="g1535"
       transform="translate(18,-4)">
      <path
         style="opacity:0.98999999;fill:#c73436;fill-opacity:1;stroke:none;stroke-width:0.29999998;stroke-miterlimit:4;stroke-dasharray:none;stroke-opacity:1"
         d="m 5.999964,287.65001 h 4.00007 C 12.216016,287.65001 14,289.43402 14,291.65 v 21.99998 c 0,2.21601 -1.783984,3.99999 -3.999966,3.99999 H 5.999964 2 v -30 z"
         id="rect4515"
         inkscape:connector-curvature="0"
         sodipodi:nodetypes="csssscccc" />
      <path
         style="opacity:0.98999999;fill:url(#linearGradient4572);fill-opacity:1;stroke:none;stroke-width:0.29999998;stroke-miterlimit:4;stroke-dasharray:none;stroke-opacity:1"
         d="m 5.999999,288.64996 h 3.999999 c 1.662001,0 3.000001,1.33803 3.000001,3 v 22.00002 c 0,1.66197 -1.338,3 -3.000001,3 H 5.999999 3 v -28.00002 z"
         id="rect4533"
         inkscape:connector-curvature="0"
         sodipodi:nodetypes="csssscccc" />
      <path
         style="opacity:0.98999999;fill:#1487af;fill-opacity:1;stroke:none;stroke-width:0.29999998;stroke-miterlimit:4;stroke-dasharray:none;stroke-opacity:1"
         d="m -9.9999645,287.65005 h -4.0000705 c -2.215981,0 -3.999965,1.78401 -3.999965,3.99998 v 21.99995 c 0,2.21605 1.783984,4.00003 3.999965,4.00003 H -9.9999645 -6 v -30 z"
         id="rect4515-3"
         inkscape:connector-curvature="0"
         sodipodi:nodetypes="csssscccc" />
      <path
         style="opacity:0.98999999;fill:url(#linearGradient4564);fill-opacity:1;stroke:none;stroke-width:0.29999998;stroke-miterlimit:4;stroke-dasharray:none;stroke-opacity:1"
         d="m -9.9999996,288.65 h -3.9999994 c -1.662,0 -3,1.33802 -3,3 v 21.99998 c 0,1.66201 1.338,3 3,3 H -9.9999996 -7 V 288.65 Z"
         id="rect4533-6"
         inkscape:connector-curvature="0"
         sodipodi:nodetypes="csssscccc" />
      <path
         style="opacity:1;fill:#041e26;fill-opacity:1;stroke:none;stroke-width:0.29999998;stroke-miterlimit:4;stroke-dasharray:none;stroke-opacity:1"
         d="m -12.000001,291.64996 v 1.00002 h 3.0000001 v -1.00002 z m 0,4.00002 c -1.662,0 -3,1.33799 -3,3 0,1.66201 1.338,3 3,3 1.662,0 3.0000001,-1.33799 3.0000001,-3 0,-1.66201 -1.3380001,-3 -3.0000001,-3 z m 0,9 c -0.554,0 -1,0.44599 -1,0.99999 0,0.554 0.446,0.99999 1,0.99999 0.554,0 1,-0.44599 1,-0.99999 0,-0.554 -0.446,-0.99999 -1,-0.99999 z m -2,1.99998 c -0.554,0 -1,0.44602 -1,1.00002 0,0.554 0.446,0.99999 1,0.99999 0.554,0 1,-0.44599 1,-0.99999 0,-0.554 -0.446,-1.00002 -1,-1.00002 z m 4,0 c -0.554,0 -1,0.44602 -1,1.00002 0,0.554 0.446,0.99999 1,0.99999 0.554,0 1.0000001,-0.44599 1.0000001,-0.99999 0,-0.554 -0.4460001,-1.00002 -1.0000001,-1.00002 z m -2,2.00001 c -0.554,0 -1,0.44598 -1,0.99999 0,0.554 0.446,1.00002 1,1.00002 0.554,0 1,-0.44602 1,-1.00002 0,-0.55401 -0.446,-0.99999 -1,-0.99999 z m 2,3.99999 v 2.00001 h 1.9999996 v -2.00001 z"
         id="rect4577"
         inkscape:connector-curvature="0"
         sodipodi:nodetypes="cccccsssssssssssssssssssssssssccccc" />
      <path
         style="opacity:1;fill:#0b5065;fill-opacity:1;stroke:none;stroke-width:0.40000001;stroke-miterlimit:4;stroke-dasharray:none;stroke-opacity:1"
         d="m -12.000001,296.64997 c -1.108,0 -2,0.89201 -2,2.00001 0,1.10797 0.892,1.99998 2,1.99998 1.108,0 2,-0.89201 2,-1.99998 0,-1.108 -0.892,-2.00001 -2,-2.00001 z"
         id="path4872"
         inkscape:connector-curvature="0"
         sodipodi:nodetypes="sssss" />
      <path
         inkscape:connector-curvature="0"
         style="opacity:0.98999999;fill:#03080d;fill-opacity:1;stroke:none;stroke-width:0.29999998;stroke-miterlimit:4;stroke-dasharray:none;stroke-opacity:1"
         d="m -6,287.64997 h 7.999999 v 30 H -6 Z"
         id="rect4536" />
      <path
         inkscape:connector-curvature="0"
         style="opacity:0.98999999;fill:url(#linearGradient4582);fill-opacity:1;stroke:none;stroke-width:0.29999998;stroke-miterlimit:4;stroke-dasharray:none;stroke-opacity:1"
         d="m -6,288.64996 h 8 v 28.00002 h -8 z"
         id="rect4538" />
      <path
         style="opacity:1;fill:#260b0b;fill-opacity:1;stroke:none;stroke-width:0.29999995;stroke-miterlimit:4;stroke-dasharray:none;stroke-opacity:1"
         d="m 5.999999,290.64997 v 0.99999 H 4.999998 v 1.00002 h 1.000001 v 0.99999 h 1 v -0.99999 h 0.999999 v -1.00002 H 6.999999 v -0.99999 z m 1.999999,5.00001 c -0.553999,0 -0.999999,0.44599 -0.999999,0.99999 0,0.554 0.446,0.99999 0.999999,0.99999 0.554001,0 1.000001,-0.44599 1.000001,-0.99999 0,-0.554 -0.446,-0.99999 -1.000001,-0.99999 z m -1.999999,1.99998 c -0.554,0 -1.000001,0.44602 -1.000001,1.00002 0,0.55397 0.446001,0.99999 1.000001,0.99999 0.553999,0 1,-0.44602 1,-0.99999 0,-0.554 -0.446001,-1.00002 -1,-1.00002 z m 3.999999,0 c -0.554,0 -0.999999,0.44602 -0.999999,1.00002 0,0.55397 0.445999,0.99999 0.999999,0.99999 0.553999,0 1.000001,-0.44602 1.000001,-0.99999 0,-0.554 -0.446002,-1.00002 -1.000001,-1.00002 z m -2,2.00001 c -0.553999,0 -0.999999,0.44598 -0.999999,0.99999 0,0.554 0.446,1.00002 0.999999,1.00002 0.554001,0 1.000001,-0.44602 1.000001,-1.00002 0,-0.55401 -0.446,-0.99999 -1.000001,-0.99999 z m 0,5.00001 c -1.662,0 -3,1.33799 -3,3 0,1.66197 1.338,3 3,3 1.662,0 3.000001,-1.33803 3.000001,-3 0,-1.66201 -1.338001,-3 -3.000001,-3 z m -3,7.99998 c -0.553999,0 -0.999999,0.44602 -0.999999,1.00002 0,0.55397 0.446,0.99999 0.999999,0.99999 0.554001,0 1.000001,-0.44602 1.000001,-0.99999 0,-0.554 -0.446,-1.00002 -1.000001,-1.00002 z"
         id="rect4577-5"
         inkscape:connector-curvature="0"
         sodipodi:nodetypes="cccccccccccccssssssssssssssssssssssssssssss" />
      <path
         style="opacity:1;fill:#842525;fill-opacity:1;stroke:none;stroke-width:0.40000001;stroke-miterlimit:4;stroke-dasharray:none;stroke-opacity:1"
         d="m 7.999998,305.64997 c -1.107999,0 -1.999999,0.89201 -1.999999,2.00001 0,1.10797 0.892,1.99998 1.999999,1.99998 1.107999,0 2,-0.89201 2,-1.99998 0,-1.108 -0.892001,-2.00001 -2,-2.00001 z"
         id="rect4611-6"
         inkscape:connector-curvature="0"
         sodipodi:nodetypes="sssss" />
      <path
         id="path4524"
         d="m -3.5,298.65 c -0.277002,0 -0.5,0.22299 -0.5,0.5 0,0.27704 0.223,0.5 0.5,0.5 0.277002,0 0.5,-0.223 0.5,-0.5 0,-0.27704 -0.223,-0.5 -0.5,-0.5 z m 3,0 c -0.277002,0 -0.5,0.22299 -0.5,0.5 0,0.27704 0.223,0.5 0.5,0.5 0.277002,0 0.5,-0.223 0.5,-0.5 0,-0.27704 -0.223,-0.5 -0.5,-0.5 z"
         style="opacity:1;fill:#d7dadc;fill-opacity:1;stroke:none;stroke-width:0.29999998;stroke-miterlimit:4;stroke-dasharray:none;stroke-opacity:1"
         inkscape:connector-curvature="0" />
      <path
         inkscape:connector-curvature="0"
         id="path4518"
         d="m -3.500001,300.64992 c -0.277002,0 -0.5,0.22299 -0.5,0.50003 0,0.27704 0.222999,0.49999 0.5,0.49999 0.277001,0 0.5,-0.22299 0.5,-0.49999 0,-0.27704 -0.223,-0.50003 -0.5,-0.50003 z"
         style="opacity:1;fill:#000000;fill-opacity:1;stroke:none;stroke-width:0.29999998;stroke-miterlimit:4;stroke-dasharray:none;stroke-opacity:1" />
      <path
         inkscape:connector-curvature="0"
         id="path4516"
         d="m -0.500001,300.64992 c -0.277002,0 -0.5,0.22299 -0.5,0.50003 0,0.27704 0.222999,0.49999 0.5,0.49999 0.277001,0 0.5,-0.22299 0.5,-0.49999 0,-0.27704 -0.223,-0.50003 -0.5,-0.50003 z"
         style="opacity:1;fill:#000000;fill-opacity:1;stroke:none;stroke-width:0.29999998;stroke-miterlimit:4;stroke-dasharray:none;stroke-opacity:1" />
      <path
         inkscape:connector-curvature="0"
         id="path4514"
         d="m -3.500001,302.64993 c -0.277002,0 -0.5,0.22299 -0.5,0.5 0,0.27703 0.222999,0.49999 0.5,0.49999 0.277001,0 0.5,-0.22299 0.5,-0.49999 0,-0.27704 -0.223,-0.5 -0.5,-0.5 z"
         style="opacity:1;fill:#000000;fill-opacity:1;stroke:none;stroke-width:0.29999998;stroke-miterlimit:4;stroke-dasharray:none;stroke-opacity:1" />
      <path
         inkscape:connector-curvature="0"
         id="path4512"
         d="m -0.500001,302.64993 c -0.277002,0 -0.5,0.22299 -0.5,0.5 0,0.27703 0.222999,0.49999 0.5,0.49999 0.277001,0 0.5,-0.22299 0.5,-0.49999 0,-0.27704 -0.223,-0.5 -0.5,-0.5 z"
         style="opacity:1;fill:#000000;fill-opacity:1;stroke:none;stroke-width:0.29999998;stroke-miterlimit:4;stroke-dasharray:none;stroke-opacity:1" />
      <path
         inkscape:connector-curvature="0"
         id="path4510"
         d="m -3.500001,304.64994 c -0.277002,0 -0.5,0.223 -0.5,0.5 0,0.27704 0.222999,0.49999 0.5,0.49999 0.277001,0 0.5,-0.22299 0.5,-0.49999 0,-0.27704 -0.223,-0.5 -0.5,-0.5 z"
         style="opacity:1;fill:#000000;fill-opacity:1;stroke:none;stroke-width:0.29999998;stroke-miterlimit:4;stroke-dasharray:none;stroke-opacity:1" />
      <path
         inkscape:connector-curvature="0"
         id="rect4695"
         d="m -0.500001,304.64994 c -0.277002,0 -0.5,0.223 -0.5,0.5 0,0.27704 0.222999,0.49999 0.5,0.49999 0.277001,0 0.5,-0.22299 0.5,-0.49999 0,-0.27704 -0.223,-0.5 -0.5,-0.5 z"
         style="opacity:1;fill:#000000;fill-opacity:1;stroke:none;stroke-width:0.29999998;stroke-miterlimit:4;stroke-dasharray:none;stroke-opacity:1" />
    </g>
  </g>
</svg>
