<?xml version="1.0" encoding="UTF-8" standalone="no"?>
<!-- Created with Inkscape (http://www.inkscape.org/) -->

<svg
   xmlns:dc="http://purl.org/dc/elements/1.1/"
   xmlns:cc="http://creativecommons.org/ns#"
   xmlns:rdf="http://www.w3.org/1999/02/22-rdf-syntax-ns#"
   xmlns:svg="http://www.w3.org/2000/svg"
   xmlns="http://www.w3.org/2000/svg"
   xmlns:xlink="http://www.w3.org/1999/xlink"
   xmlns:sodipodi="http://sodipodi.sourceforge.net/DTD/sodipodi-0.dtd"
   xmlns:inkscape="http://www.inkscape.org/namespaces/inkscape"
   width="32"
   height="32"
   viewBox="0 0 32 32"
   version="1.1"
   id="svg8"
   inkscape:version="0.92.2 (5c3e80d, 2017-08-06)"
   sodipodi:docname="preferences-desktop-icons.svg">
  <title
     id="title7895">Antu icon Theme</title>
  <defs
     id="defs2">
    <linearGradient
       inkscape:collect="always"
       xlink:href="#linearGradient1464"
       id="linearGradient1010"
       x1="7.0000005"
       y1="330.64999"
       x2="7.0000005"
       y2="310.64999"
       gradientUnits="userSpaceOnUse" />
    <linearGradient
       id="linearGradient1464"
       inkscape:collect="always">
      <stop
         id="stop1460"
         offset="0"
         style="stop-color:#960cb2;stop-opacity:1" />
      <stop
         id="stop1462"
         offset="1"
         style="stop-color:#d628f2;stop-opacity:1" />
    </linearGradient>
    <linearGradient
       inkscape:collect="always"
       xlink:href="#linearGradient1481"
       id="linearGradient1394"
       x1="7.0000005"
       y1="318.64999"
       x2="7.0000005"
       y2="307.64999"
       gradientUnits="userSpaceOnUse" />
    <linearGradient
       id="linearGradient1481"
       inkscape:collect="always">
      <stop
         id="stop1477"
         offset="0"
         style="stop-color:#fdbb1c;stop-opacity:1" />
      <stop
         id="stop1479"
         offset="1"
         style="stop-color:#fec34f;stop-opacity:1" />
    </linearGradient>
    <linearGradient
       inkscape:collect="always"
       xlink:href="#linearGradient1458"
       id="linearGradient1452"
       x1="16"
       y1="27.000004"
       x2="16"
       y2="8.0000038"
       gradientUnits="userSpaceOnUse" />
    <linearGradient
       id="linearGradient1458"
       inkscape:collect="always">
      <stop
         id="stop1454"
         offset="0"
         style="stop-color:#71298c;stop-opacity:1" />
      <stop
         id="stop1456"
         offset="1"
         style="stop-color:#9a38bf;stop-opacity:1" />
    </linearGradient>
    <linearGradient
       inkscape:collect="always"
       xlink:href="#linearGradient1487"
       id="linearGradient1273"
       x1="16"
       y1="10.000004"
       x2="16"
       y2="6.0000038"
       gradientUnits="userSpaceOnUse" />
    <linearGradient
       id="linearGradient1487"
       inkscape:collect="always">
      <stop
         id="stop1483"
         offset="0"
         style="stop-color:#4b9f05;stop-opacity:1" />
      <stop
         id="stop1485"
         offset="1"
         style="stop-color:#5dbf06;stop-opacity:1" />
    </linearGradient>
  </defs>
  <sodipodi:namedview
     id="base"
     pagecolor="#ffffff"
     bordercolor="#666666"
     borderopacity="1.0"
     inkscape:pageopacity="0.0"
     inkscape:pageshadow="2"
     inkscape:zoom="3.959798"
     inkscape:cx="53.230688"
     inkscape:cy="-1.7911637"
     inkscape:document-units="px"
     inkscape:current-layer="g1469"
     showgrid="true"
     units="px"
     inkscape:window-width="1280"
     inkscape:window-height="729"
     inkscape:window-x="0"
     inkscape:window-y="0"
     inkscape:window-maximized="1"
     objecttolerance="10"
     gridtolerance="10"
     guidetolerance="10">
    <inkscape:grid
       type="xygrid"
       id="grid7897"
       empspacing="4" />
  </sodipodi:namedview>
  <metadata
     id="metadata5">
    <rdf:RDF>
      <cc:Work
         rdf:about="">
        <dc:format>image/svg+xml</dc:format>
        <dc:type
           rdf:resource="http://purl.org/dc/dcmitype/StillImage" />
        <dc:title>Antu icon Theme</dc:title>
      </cc:Work>
    </rdf:RDF>
  </metadata>
  <g
     inkscape:label="Capa 1"
     inkscape:groupmode="layer"
     id="layer1"
     transform="translate(0,-282.64999)">
    <g
       id="g1469"
       transform="translate(8.9999995,-18.000004)">
      <g
         transform="translate(2.5e-7,4e-6)"
         id="g1550">
        <path
           inkscape:connector-curvature="0"
           style="opacity:1;fill:#650579;fill-opacity:1;stroke:none;stroke-width:2.39314151;stroke-linecap:round;stroke-linejoin:round;stroke-miterlimit:4;stroke-dasharray:none;stroke-opacity:1"
           d="M -5.9999995,301.64999 H 20 c 1.108,0 2,0.892 2,2 v 26 c 0,1.108 -0.892,2 -2,2 H -5.9999995 c -1.108,0 -2,-0.892 -2,-2 v -26 c 0,-1.108 0.892,-2 2,-2 z"
           id="rect843" />
        <path
           inkscape:connector-curvature="0"
           style="opacity:1;fill:url(#linearGradient1010);fill-opacity:1;stroke:none;stroke-width:2.23359871;stroke-linecap:round;stroke-linejoin:round;stroke-miterlimit:4;stroke-dasharray:none;stroke-opacity:1"
           d="M -5.9999995,302.64999 H 20 c 0.554,0 1,0.446 1,1 v 26 c 0,0.554 -0.446,1 -1,1 H -5.9999995 c -0.554,0 -1,-0.446 -1,-1 v -26 c 0,-0.554 0.446,-1 1,-1 z"
           id="rect843-3" />
        <path
           style="fill:url(#linearGradient1394);fill-opacity:1;stroke:none;stroke-width:1px;stroke-linecap:butt;stroke-linejoin:miter;stroke-opacity:1"
           d="m 7.0000005,319.64999 5.0000005,-17 H 2.0000005 Z"
           id="path1097"
           inkscape:connector-curvature="0"
           sodipodi:nodetypes="cccc" />
        <path
           style="color:#000000;font-style:normal;font-variant:normal;font-weight:normal;font-stretch:normal;font-size:medium;line-height:normal;font-family:sans-serif;font-variant-ligatures:normal;font-variant-position:normal;font-variant-caps:normal;font-variant-numeric:normal;font-variant-alternates:normal;font-feature-settings:normal;text-indent:0;text-align:start;text-decoration:none;text-decoration-line:none;text-decoration-style:solid;text-decoration-color:#000000;letter-spacing:normal;word-spacing:normal;text-transform:none;writing-mode:lr-tb;direction:ltr;text-orientation:mixed;dominant-baseline:auto;baseline-shift:baseline;text-anchor:start;white-space:normal;shape-padding:0;clip-rule:nonzero;display:inline;overflow:visible;visibility:visible;opacity:1;isolation:auto;mix-blend-mode:normal;color-interpolation:sRGB;color-interpolation-filters:linearRGB;solid-color:#000000;solid-opacity:1;vector-effect:none;fill:#650579;fill-opacity:1;fill-rule:nonzero;stroke:none;stroke-width:2;stroke-linecap:round;stroke-linejoin:round;stroke-miterlimit:4;stroke-dasharray:none;stroke-dashoffset:0;stroke-opacity:1;color-rendering:auto;image-rendering:auto;shape-rendering:auto;text-rendering:auto;enable-background:accumulate"
           d="m 2.0136725,302.64999 c -0.2699287,-0.004 -0.5298545,0.10205 -0.720703,0.29297 l -6.0000002,6 c -0.3903667,0.39053 -0.3903667,1.02353 0,1.41406 l 3.3671874,3.36719 -3.4414062,4.30078 c -0.3182827,0.39806 -0.2863149,0.97179 0.074219,1.33203 l 11.0000002,11 c 0.3905298,0.39037 1.0235322,0.39037 1.414062,0 l 10.9999993,-11 c 0.360534,-0.36024 0.392503,-0.93397 0.07422,-1.33203 l -3.441405,-4.30078 3.367186,-3.36719 c 0.390367,-0.39053 0.390367,-1.02353 0,-1.41406 l -5.999999,-6 c -0.545943,-0.54516 -1.477443,-0.29299 -1.673828,0.45312 L 7.0000005,319.64999 2.9667987,303.39608 c -0.1140625,-0.43455 -0.5038998,-0.73971 -0.953125,-0.74609 z"
           id="path1073"
           inkscape:connector-curvature="0"
           sodipodi:nodetypes="cccccccccccccccccccc" />
        <path
           inkscape:connector-curvature="0"
           style="fill:url(#linearGradient1452);fill-opacity:1;stroke:none;stroke-width:1px;stroke-linecap:butt;stroke-linejoin:miter;stroke-opacity:1"
           d="M 11,3 5,9 9,13 5,18 16,29 27,18 23,13 27,9 21,3 16,22 Z"
           transform="translate(-8.9999995,300.64999)"
           id="path1428" />
        <path
           style="opacity:0.98000004;fill:#fffbfb;fill-opacity:1;stroke:none;stroke-width:2;stroke-linecap:round;stroke-linejoin:round;stroke-miterlimit:4;stroke-dasharray:none;stroke-dashoffset:0;stroke-opacity:1"
           d="m 7.0000005,321.64999 c -0.554,0 -1,0.446 -1,1 0,0.554 0.446,1 1,1 0.554,0 1,-0.446 1,-1 0,-0.554 -0.446,-1 -1,-1 z"
           id="rect870"
           inkscape:connector-curvature="0"
           sodipodi:nodetypes="sssss" />
        <path
           inkscape:connector-curvature="0"
           style="opacity:1;fill:#376611;fill-opacity:1;stroke:none;stroke-width:2;stroke-linecap:round;stroke-linejoin:round;stroke-miterlimit:4;stroke-dasharray:none;stroke-dashoffset:0;stroke-opacity:1"
           d="M 9.0410156,3 C 8.4728096,2.9767 7.9995807,3.43132 8,4 v 6 c 5.769e-4,0.77653 0.8473467,1.256192 1.5136719,0.857422 L 13.421875,8.5136719 C 13.941986,9.4003295 14.893674,10 16,10 c 1.106326,0 2.058014,-0.5996705 2.578125,-1.4863281 l 3.908203,2.3437501 C 23.152653,11.256192 23.999423,10.77652 24,10 V 4 C 24.000184,3.43609 23.534369,2.98354 22.970703,3 22.799707,3.005 22.632934,3.054398 22.486328,3.1425781 l -3.908203,2.34375 C 18.058014,4.5996705 17.106326,4 16,4 14.893674,4 13.941986,4.5996705 13.421875,5.4863281 L 9.5136719,3.1425781 C 9.3705103,3.0562781 9.2080071,3.00728 9.0410156,3 Z"
           id="rect1206"
           transform="translate(-8.9999995,300.64999)" />
        <path
           inkscape:connector-curvature="0"
           style="opacity:1;fill:url(#linearGradient1273);fill-opacity:1;stroke:none;stroke-width:2;stroke-linecap:round;stroke-linejoin:round;stroke-miterlimit:4;stroke-dasharray:none;stroke-dashoffset:0;stroke-opacity:1"
           d="m 9,4 v 6 l 5,-3 z m 5,3 c 0,1.108 0.892,2 2,2 1.108,0 2,-0.892 2,-2 0,-1.108 -0.892,-2 -2,-2 -1.108,0 -2,0.892 -2,2 z m 4,0 5,3 V 4 Z"
           id="rect1230"
           transform="translate(-8.9999995,300.64999)" />
        <path
           style="opacity:0.98000004;fill:#fffbfb;fill-opacity:1;stroke:none;stroke-width:2;stroke-linecap:round;stroke-linejoin:round;stroke-miterlimit:4;stroke-dasharray:none;stroke-dashoffset:0;stroke-opacity:1"
           d="m 7.0000005,325.64999 c -0.5539995,0 -0.9999995,0.446 -0.9999995,1 0,0.554 0.446,1 0.9999995,1 0.554,0 1,-0.446 1,-1 0,-0.554 -0.446,-1 -1,-1 z"
           id="rect870-0"
           inkscape:connector-curvature="0"
           sodipodi:nodetypes="sssss" />
      </g>
    </g>
  </g>
</svg>
