<?xml version="1.0" encoding="UTF-8" standalone="no"?>
<!-- Created with Inkscape (http://www.inkscape.org/) -->

<svg
   xmlns:dc="http://purl.org/dc/elements/1.1/"
   xmlns:cc="http://creativecommons.org/ns#"
   xmlns:rdf="http://www.w3.org/1999/02/22-rdf-syntax-ns#"
   xmlns:svg="http://www.w3.org/2000/svg"
   xmlns="http://www.w3.org/2000/svg"
   xmlns:xlink="http://www.w3.org/1999/xlink"
   xmlns:sodipodi="http://sodipodi.sourceforge.net/DTD/sodipodi-0.dtd"
   xmlns:inkscape="http://www.inkscape.org/namespaces/inkscape"
   width="32"
   height="32"
   viewBox="0 0 32 32"
   version="1.1"
   id="svg8"
   inkscape:version="0.92.2 5c3e80d, 2017-08-06"
   sodipodi:docname="preferences-system-time.svg">
  <title
     id="title7895">Antu icon Theme</title>
  <defs
     id="defs2">
    <linearGradient
       inkscape:collect="always"
       xlink:href="#linearGradient4846"
       id="linearGradient1375"
       gradientUnits="userSpaceOnUse"
       gradientTransform="translate(-140,36.999995)"
       x1="143"
       y1="282.64999"
       x2="143"
       y2="267.64999" />
    <linearGradient
       inkscape:collect="always"
       id="linearGradient4846">
      <stop
         style="stop-color:#e4efef;stop-opacity:1"
         offset="0"
         id="stop4842" />
      <stop
         style="stop-color:#fcfcfc;stop-opacity:1"
         offset="1"
         id="stop4844" />
    </linearGradient>
    <linearGradient
       gradientTransform="translate(-141,35.999995)"
       inkscape:collect="always"
       xlink:href="#linearGradient4506"
       id="linearGradient1321"
       x1="143"
       y1="282.64999"
       x2="143"
       y2="267.64999"
       gradientUnits="userSpaceOnUse" />
    <linearGradient
       id="linearGradient4506"
       inkscape:collect="always">
      <stop
         id="stop4502"
         offset="0"
         style="stop-color:#252a34;stop-opacity:1" />
      <stop
         id="stop4504"
         offset="1"
         style="stop-color:#353d4b;stop-opacity:1" />
    </linearGradient>
    <linearGradient
       inkscape:collect="always"
       xlink:href="#linearGradient4846"
       id="linearGradient1272"
       gradientUnits="userSpaceOnUse"
       gradientTransform="matrix(2.6996625,0,0,2.6996625,-29.806121,-486.37421)"
       x1="8.4477682"
       y1="295.60147"
       x2="8.4477682"
       y2="288.98691" />
    <linearGradient
       inkscape:collect="always"
       xlink:href="#linearGradient4774"
       id="linearGradient1272-9"
       gradientUnits="userSpaceOnUse"
       gradientTransform="matrix(2.6996625,0,0,2.6996625,-29.80612,-486.3742)"
       x1="8.4477682"
       y1="290.41562"
       x2="8.4477682"
       y2="288.19312" />
    <linearGradient
       inkscape:collect="always"
       id="linearGradient4774">
      <stop
         style="stop-color:#f41e3d;stop-opacity:1"
         offset="0"
         id="stop4770" />
      <stop
         style="stop-color:#fc3a56;stop-opacity:1"
         offset="1"
         id="stop4772" />
    </linearGradient>
  </defs>
  <sodipodi:namedview
     id="base"
     pagecolor="#ffffff"
     bordercolor="#666666"
     borderopacity="1.0"
     inkscape:pageopacity="0.0"
     inkscape:pageshadow="2"
     inkscape:zoom="15.839192"
     inkscape:cx="10.835872"
     inkscape:cy="18.849371"
     inkscape:document-units="px"
     inkscape:current-layer="layer1"
     showgrid="true"
     units="px"
     inkscape:window-width="1366"
     inkscape:window-height="697"
     inkscape:window-x="0"
     inkscape:window-y="0"
     inkscape:window-maximized="1"
     objecttolerance="10"
     gridtolerance="10"
     guidetolerance="10">
    <inkscape:grid
       type="xygrid"
       id="grid7897"
       empspacing="4" />
  </sodipodi:namedview>
  <metadata
     id="metadata5">
    <rdf:RDF>
      <cc:Work
         rdf:about="">
        <dc:format>image/svg+xml</dc:format>
        <dc:type
           rdf:resource="http://purl.org/dc/dcmitype/StillImage" />
        <dc:title>Antu icon Theme</dc:title>
      </cc:Work>
    </rdf:RDF>
  </metadata>
  <g
     inkscape:label="Capa 1"
     inkscape:groupmode="layer"
     id="layer1"
     transform="translate(0,-282.64999)">
    <g
       id="g2075"
       transform="translate(19,-7)">
      <path
         id="rect843-0-0"
         d="M -16.533333,290.64999 H 2.533332 C 3.345867,290.64999 4,291.30412 4,292.11664 v 19.06667 c 0,0.81252 -0.654133,1.46668 -1.466668,1.46668 H -16.533333 C -17.345867,312.64999 -18,311.99583 -18,311.1833 v -19.06665 c 0,-0.81253 0.654133,-1.46667 1.466667,-1.46666 z"
         style="opacity:1;fill:#90a4ae;fill-opacity:1;stroke:none;stroke-width:1.75497043;stroke-linecap:round;stroke-linejoin:round;stroke-miterlimit:4;stroke-dasharray:none;stroke-opacity:1"
         inkscape:connector-curvature="0" />
      <path
         id="rect843-3-9-1-6"
         d="M -16.285714,291.64999 H 2.285714 C 2.681428,291.64999 3,291.96853 3,292.36426 v 18.57143 c 0,0.39569 -0.318572,0.71427 -0.714286,0.71427 H -16.285714 C -16.681428,311.64997 -17,311.33139 -17,310.93569 v -18.57143 c 0,-0.39572 0.318572,-0.71427 0.714286,-0.71427 z"
         style="opacity:1;fill:url(#linearGradient1272);fill-opacity:1;stroke:none;stroke-width:1.59542763;stroke-linecap:round;stroke-linejoin:round;stroke-miterlimit:4;stroke-dasharray:none;stroke-opacity:1"
         inkscape:connector-curvature="0" />
      <path
         style="opacity:1;fill:#be011e;fill-opacity:1;stroke:none;stroke-width:1.75497043;stroke-linecap:round;stroke-linejoin:round;stroke-miterlimit:4;stroke-dasharray:none;stroke-opacity:1"
         d="m -16.5332,290.64998 c -0.81254,-2e-5 -1.4668,0.65427 -1.4668,1.46679 v 3.53321 1.5332 1.4668 H -16.5332 2.5332 4 v -1.4668 -1.5332 -3.53321 c 0,-0.81252 -0.65426,-1.46679 -1.4668,-1.46679 z"
         id="rect843-0-0-2"
         inkscape:connector-curvature="0" />
      <path
         style="opacity:1;fill:url(#linearGradient1272-9);fill-opacity:1;stroke:none;stroke-width:1.59542763;stroke-linecap:round;stroke-linejoin:round;stroke-miterlimit:4;stroke-dasharray:none;stroke-opacity:1"
         d="m -16.28516,291.64998 c -0.39572,0 -0.71484,0.31912 -0.71484,0.71484 v 2.28516 2.28515 0.71485 H -16.28516 2.28516 3 v -0.71485 -2.28515 -2.28516 c 0,-0.39573 -0.31912,-0.71484 -0.71484,-0.71484 z"
         id="rect843-3-9-1-6-3"
         inkscape:connector-curvature="0" />
      <path
         id="rect1311"
         d="m 2.5,301.64999 c 5.263,0 9.5,4.237 9.5,9.5 0,5.263 -4.237,9.5 -9.5,9.5 -5.263,0 -9.5,-4.237 -9.5,-9.5 0,-5.263 4.237,-9.5 9.5,-9.5 z"
         style="opacity:1;fill:#1f1f26;fill-opacity:1;stroke:none;stroke-width:0.80800003;stroke-linecap:round;stroke-linejoin:round;stroke-miterlimit:4;stroke-dasharray:none;stroke-opacity:1;paint-order:stroke markers fill"
         inkscape:connector-curvature="0" />
      <path
         id="rect1313"
         d="m 2.5,302.64999 c 4.709,0 8.5,3.791 8.5,8.5 0,4.709 -3.791,8.5 -8.5,8.5 -4.709,0 -8.5,-3.791 -8.5,-8.5 0,-4.709 3.791,-8.5 8.5,-8.5 z"
         style="opacity:1;fill:url(#linearGradient1321);fill-opacity:1;stroke:none;stroke-width:0.80800003;stroke-linecap:round;stroke-linejoin:round;stroke-miterlimit:4;stroke-dasharray:none;stroke-opacity:1;paint-order:stroke markers fill"
         inkscape:connector-curvature="0" />
      <path
         id="rect1313-2"
         d="m 2.5,303.64999 v 0 c 4.155,0 7.5,3.345 7.5,7.5 0,4.155 -3.345,7.5 -7.5,7.5 v 0 c -4.155,0 -7.5,-3.345 -7.5,-7.5 0,-4.155 3.345,-7.5 7.5,-7.5 z"
         style="opacity:1;fill:url(#linearGradient1375);fill-opacity:1;stroke:none;stroke-width:0.80800003;stroke-linecap:round;stroke-linejoin:round;stroke-miterlimit:4;stroke-dasharray:none;stroke-opacity:1;paint-order:stroke markers fill"
         inkscape:connector-curvature="0" />
      <path
         inkscape:connector-curvature="0"
         id="rect4633-2"
         d="m 2.5,311.55817 c 0.277,0 0.5,0.22299 0.5,0.49999 v 4.00003 c 0,0.27704 -0.22299,0.49999 -0.5,0.49999 -0.277,0 -0.5,-0.22299 -0.5,-0.49999 v -4.00003 c 0,-0.27704 0.22299,-0.49999 0.5,-0.49999 z"
         style="opacity:1;fill:#f4203e;fill-opacity:1;stroke:none;stroke-width:0.80800003;stroke-linecap:round;stroke-linejoin:round;stroke-miterlimit:4;stroke-dasharray:none;stroke-opacity:1;paint-order:stroke markers fill" />
      <path
         inkscape:connector-curvature="0"
         style="opacity:1;fill:#292e39;fill-opacity:1;stroke:none;stroke-width:0.80800003;stroke-linecap:round;stroke-linejoin:round;stroke-miterlimit:4;stroke-dasharray:none;stroke-opacity:1;paint-order:stroke markers fill"
         d="m 2.5,305.55819 c -0.277,0 -0.5,0.223 -0.5,0.5 v 3.5918 c -0.58192,0.206 -1,0.75396 -1,1.4082 0,0.831 0.669,1.5 1.5,1.5 0.6547,0 1.20254,-0.41743 1.4082,-1 H 6.59375 C 6.81882,311.55819 7,311.37701 7,311.15194 v -0.1875 c 0,-0.22507 -0.18118,-0.40625 -0.40625,-0.40625 H 3.9082 C 3.75785,310.13349 3.4247,309.80033 3,309.64999 v -3.5918 c 0,-0.277 -0.223,-0.5 -0.5,-0.5 z m 0,5 c 0.277,0 0.5,0.223 0.5,0.5 0,0.277 -0.223,0.5 -0.5,0.5 -0.277,0 -0.5,-0.223 -0.5,-0.5 0,-0.277 0.223,-0.5 0.5,-0.5 z"
         id="rect4598-8" />
    </g>
  </g>
</svg>
