<?xml version="1.0" encoding="UTF-8" standalone="no"?>
<!-- Created with Inkscape (http://www.inkscape.org/) -->

<svg
   xmlns:dc="http://purl.org/dc/elements/1.1/"
   xmlns:cc="http://creativecommons.org/ns#"
   xmlns:rdf="http://www.w3.org/1999/02/22-rdf-syntax-ns#"
   xmlns:svg="http://www.w3.org/2000/svg"
   xmlns="http://www.w3.org/2000/svg"
   xmlns:xlink="http://www.w3.org/1999/xlink"
   xmlns:sodipodi="http://sodipodi.sourceforge.net/DTD/sodipodi-0.dtd"
   xmlns:inkscape="http://www.inkscape.org/namespaces/inkscape"
   width="32"
   height="32"
   viewBox="0 0 32 32"
   version="1.1"
   id="svg8"
   inkscape:version="0.92.2 2405546, 2018-03-11"
   sodipodi:docname="preferences-desktop-default-applications.svg">
  <title
     id="title7895">Antu icon Theme</title>
  <defs
     id="defs2">
    <style
       type="text/css"
       id="current-color-scheme">
      .ColorScheme-Text {
        color:#122036;
      }
      </style>
    <style
       type="text/css"
       id="current-color-scheme-7">
      .ColorScheme-Text {
        color:#122036;
      }
      </style>
    <style
       type="text/css"
       id="current-color-scheme-5">
      .ColorScheme-Text {
        color:#122036;
      }
      </style>
    <linearGradient
       inkscape:collect="always"
       xlink:href="#linearGradient4582-3"
       id="linearGradient2237-3"
       gradientUnits="userSpaceOnUse"
       gradientTransform="matrix(3.7795275,0,0,3.7795275,16.071431,-780.58391)"
       x1="8.4477682"
       y1="295.60147"
       x2="8.4477673"
       y2="288.22623" />
    <linearGradient
       inkscape:collect="always"
       id="linearGradient4582-3">
      <stop
         style="stop-color:#c8d3d4;stop-opacity:1"
         offset="0"
         id="stop4578-5" />
      <stop
         style="stop-color:#f3f5f6;stop-opacity:1"
         offset="1"
         id="stop4580-6" />
    </linearGradient>
    <linearGradient
       gradientUnits="userSpaceOnUse"
       y2="286.64999"
       x2="16"
       y1="310.64999"
       x1="16"
       id="linearGradient1581"
       xlink:href="#linearGradient4498"
       inkscape:collect="always"
       gradientTransform="translate(32,24)" />
    <linearGradient
       id="linearGradient4498"
       inkscape:collect="always">
      <stop
         id="stop4494"
         offset="0"
         style="stop-color:#5e6a73;stop-opacity:1" />
      <stop
         id="stop4496"
         offset="1"
         style="stop-color:#475057;stop-opacity:1" />
    </linearGradient>
    <linearGradient
       gradientUnits="userSpaceOnUse"
       y2="287.64999"
       x2="16"
       y1="309.64999"
       x1="16"
       id="linearGradient1283"
       xlink:href="#linearGradient2126"
       inkscape:collect="always"
       gradientTransform="translate(32,24)" />
    <linearGradient
       inkscape:collect="always"
       id="linearGradient2126">
      <stop
         style="stop-color:#475057;stop-opacity:1;"
         offset="0"
         id="stop2122" />
      <stop
         style="stop-color:#5e6a73;stop-opacity:1"
         offset="1"
         id="stop2124" />
    </linearGradient>
    <linearGradient
       y2="13"
       x2="16"
       y1="19"
       x1="16"
       gradientTransform="matrix(1.25,0,0,-1.25,28,342.64999)"
       gradientUnits="userSpaceOnUse"
       id="linearGradient1208"
       xlink:href="#linearGradient4582-3"
       inkscape:collect="always" />
    <linearGradient
       y2="291.64999"
       x2="16"
       y1="305.64999"
       x1="16"
       gradientUnits="userSpaceOnUse"
       id="linearGradient1213"
       xlink:href="#linearGradient4582-3"
       inkscape:collect="always"
       gradientTransform="translate(32,24)" />
  </defs>
  <sodipodi:namedview
     id="base"
     pagecolor="#ffffff"
     bordercolor="#666666"
     borderopacity="1.0"
     inkscape:pageopacity="0.0"
     inkscape:pageshadow="2"
     inkscape:zoom="8"
     inkscape:cx="26.13128"
     inkscape:cy="9.8568874"
     inkscape:document-units="px"
     inkscape:current-layer="layer1"
     showgrid="true"
     units="px"
     inkscape:window-width="1360"
     inkscape:window-height="711"
     inkscape:window-x="0"
     inkscape:window-y="28"
     inkscape:window-maximized="1"
     objecttolerance="10"
     gridtolerance="10"
     guidetolerance="10"
     showborder="false">
    <inkscape:grid
       type="xygrid"
       id="grid7897"
       empspacing="4" />
  </sodipodi:namedview>
  <metadata
     id="metadata5">
    <rdf:RDF>
      <cc:Work
         rdf:about="">
        <dc:format>image/svg+xml</dc:format>
        <dc:type
           rdf:resource="http://purl.org/dc/dcmitype/StillImage" />
        <dc:title>Antu icon Theme</dc:title>
      </cc:Work>
    </rdf:RDF>
  </metadata>
  <g
     inkscape:label="Capa 1"
     inkscape:groupmode="layer"
     id="layer1"
     transform="translate(0,-282.64999)">
    <g
       id="g892"
       transform="translate(-32,-24)">
      <path
         id="rect843-6"
         d="M 35,307.64999 H 60.999999 C 62.108,307.64999 63,308.542 63,309.65 v 25.99998 c 0,1.108 -0.892,2.00001 -2.000001,2.00001 H 35 c -1.108,0 -2,-0.89201 -2,-2.00001 V 309.65 c 0,-1.108 0.892,-2.00001 2,-2.00001 z"
         style="opacity:1;fill:#7f9099;fill-opacity:1;stroke:none;stroke-width:2.39314151;stroke-linecap:round;stroke-linejoin:round;stroke-miterlimit:4;stroke-dasharray:none;stroke-opacity:1"
         inkscape:connector-curvature="0" />
      <path
         inkscape:connector-curvature="0"
         style="opacity:1;fill:url(#linearGradient2237-3);fill-opacity:1;stroke:none;stroke-width:2.23359871;stroke-linecap:round;stroke-linejoin:round;stroke-miterlimit:4;stroke-dasharray:none;stroke-opacity:1"
         d="m 35,308.64999 c -0.554,0 -1,0.446 -1,1 v 26 c 0,0.55397 0.446,1 1,1 h 26 c 0.554001,0 1,-0.44603 1,-1 v -26 c 0,-0.554 -0.445999,-1 -1,-1 z m 1.5,1 c 0.831,0 1.5,0.669 1.5,1.5 0,0.831 -0.669,1.5 -1.5,1.5 -0.831,0 -1.5,-0.669 -1.5,-1.5 0,-0.831 0.669,-1.5 1.5,-1.5 z m 23,0 c 0.831,0 1.5,0.669 1.5,1.5 0,0.831 -0.669,1.5 -1.5,1.5 -0.831,0 -1.5,-0.669 -1.5,-1.5 0,-0.831 0.669,-1.5 1.5,-1.5 z m -23,23 c 0.831,0 1.5,0.669 1.5,1.5 0,0.831 -0.669,1.5 -1.5,1.5 -0.831,0 -1.5,-0.669 -1.5,-1.5 0,-0.831 0.669,-1.5 1.5,-1.5 z m 23,0 c 0.831,0 1.5,0.669 1.5,1.5 0,0.831 -0.669,1.5 -1.5,1.5 -0.831,0 -1.5,-0.669 -1.5,-1.5 0,-0.831 0.669,-1.5 1.5,-1.5 z"
         id="rect843-3-6" />
      <path
         id="rect835"
         d="m 47.999986,335.64997 h 2.8e-5 C 55.202006,335.64997 61,329.85197 61,322.64998 61,315.44799 55.202006,309.64999 48.000014,309.64999 h -2.8e-5 C 40.797994,309.64999 35,315.44799 35,322.64998 c 0,7.20199 5.797994,12.99999 12.999986,12.99999 z"
         style="opacity:1;fill:url(#linearGradient1581);fill-opacity:1;stroke:none;stroke-width:2.16666675;stroke-linecap:round;stroke-linejoin:round;stroke-miterlimit:4;stroke-dasharray:none;stroke-dashoffset:0;stroke-opacity:1"
         inkscape:connector-curvature="0" />
      <path
         id="rect837"
         d="m 47.999986,310.64999 h 2.8e-5 c 6.647992,0 11.999986,5.352 11.999986,11.99999 0,6.64799 -5.351994,11.99999 -11.999986,11.99999 h -2.8e-5 C 41.351994,334.64997 36,329.29797 36,322.64998 c 0,-6.64799 5.351994,-11.99999 11.999986,-11.99999 z"
         style="opacity:1;fill:url(#linearGradient1283);fill-opacity:1;stroke:none;stroke-width:2.18181825;stroke-linecap:round;stroke-linejoin:round;stroke-miterlimit:4;stroke-dasharray:none;stroke-dashoffset:0;stroke-opacity:1"
         inkscape:connector-curvature="0" />
      <path
         style="opacity:1;fill:url(#linearGradient1208);fill-opacity:1;stroke:none;stroke-width:2.5;stroke-linecap:round;stroke-linejoin:round;stroke-miterlimit:4;stroke-dasharray:none;stroke-dashoffset:0;stroke-opacity:1"
         d="m 48,327.64999 c -2.769999,0 -5,-2.23 -5,-5 0,-2.77 2.230001,-5 5,-5 2.769999,0 5,2.23 5,5 0,2.77 -2.230001,5 -5,5 z m 0,-2 c 1.662,0 3,-1.338 3,-3 0,-1.662 -1.338,-3 -3,-3 -1.662,0 -3,1.338 -3,3 0,1.662 1.338,3 3,3 z"
         id="path1204"
         inkscape:connector-curvature="0" />
      <path
         style="color:#122036;fill:url(#linearGradient1213);fill-opacity:1;fill-rule:evenodd;stroke:none"
         d="m 44,314.64999 c -0.359147,-2.9e-4 -0.690953,0.19205 -0.869141,0.50391 l -4,7 c -0.175604,0.30741 -0.175604,0.68477 0,0.99218 l 4,7 c 0.178188,0.31186 0.509994,0.5042 0.869141,0.50391 h 8 c 0.359147,2.9e-4 0.690952,-0.19205 0.869141,-0.50391 l 4,-7 c 0.175604,-0.30741 0.175604,-0.68477 0,-0.99218 l -4,-7 C 52.690952,314.84204 52.359148,314.6497 52,314.64999 Z m 4,4 c 2.216,0 4,1.784 4,4 0,2.216 -1.784,4 -4,4 -2.216,0 -4,-1.784 -4,-4 0,-2.216 1.784,-4 4,-4 z"
         id="path825"
         inkscape:connector-curvature="0" />
    </g>
  </g>
</svg>
