<?xml version="1.0" encoding="UTF-8" standalone="no"?>
<!-- Created with Inkscape (http://www.inkscape.org/) -->

<svg
   xmlns:dc="http://purl.org/dc/elements/1.1/"
   xmlns:cc="http://creativecommons.org/ns#"
   xmlns:rdf="http://www.w3.org/1999/02/22-rdf-syntax-ns#"
   xmlns:svg="http://www.w3.org/2000/svg"
   xmlns="http://www.w3.org/2000/svg"
   xmlns:xlink="http://www.w3.org/1999/xlink"
   xmlns:sodipodi="http://sodipodi.sourceforge.net/DTD/sodipodi-0.dtd"
   xmlns:inkscape="http://www.inkscape.org/namespaces/inkscape"
   width="32"
   height="32"
   viewBox="0 0 8.4666662 8.4666664"
   version="1.1"
   id="svg1399"
   inkscape:version="0.92.4 5da689c313, 2019-01-14"
   sodipodi:docname="preferences-system-network-ldap.svg">
  <defs
     id="defs1393">
    <linearGradient
       gradientTransform="translate(-2.8518266,2.5963572)"
       inkscape:collect="always"
       xlink:href="#linearGradient4894"
       id="linearGradient5687"
       x1="-1.3229169"
       y1="296.47083"
       x2="-1.0583335"
       y2="289.0625"
       gradientUnits="userSpaceOnUse" />
    <style
       type="text/css"
       id="current-color-scheme">
      .ColorScheme-Text {
        color:#36404d;
      }
      </style>
    <style
       id="current-color-scheme-3"
       type="text/css">
      .ColorScheme-Text {
        color:#122036;
      }
      </style>
    <style
       type="text/css"
       id="current-color-scheme-5">
      .ColorScheme-Text {
        color:#122036;
      }
      </style>
    <style
       type="text/css"
       id="current-color-scheme-2">
      .ColorScheme-Text {
        color:#122036;
      }
      </style>
    <style
       type="text/css"
       id="current-color-scheme-1">
      .ColorScheme-Text {
        color:#122036;
      }
      </style>
    <style
       id="current-color-scheme-10"
       type="text/css">
      .ColorScheme-Text {
        color:#122036;
      }
      </style>
    <style
       type="text/css"
       id="current-color-scheme-0">
      .ColorScheme-Text {
        color:#122036;
      }
      </style>
    <style
       type="text/css"
       id="current-color-scheme-26">
      .ColorScheme-Text {
        color:#122036;
      }
      </style>
    <linearGradient
       id="linearGradient4894"
       inkscape:collect="always">
      <stop
         id="stop4890"
         offset="0"
         style="stop-color:#306dee;stop-opacity:1" />
      <stop
         id="stop4892"
         offset="1"
         style="stop-color:#5795fb;stop-opacity:1" />
    </linearGradient>
  </defs>
  <sodipodi:namedview
     id="base"
     pagecolor="#ffffff"
     bordercolor="#666666"
     borderopacity="1.0"
     inkscape:pageopacity="0.0"
     inkscape:pageshadow="2"
     inkscape:zoom="11.2"
     inkscape:cx="14.818935"
     inkscape:cy="0.83814531"
     inkscape:document-units="mm"
     inkscape:current-layer="g6882"
     showgrid="true"
     inkscape:showpageshadow="false"
     units="px"
     inkscape:window-width="1920"
     inkscape:window-height="1003"
     inkscape:window-x="0"
     inkscape:window-y="0"
     inkscape:window-maximized="1">
    <inkscape:grid
       type="xygrid"
       id="grid6884" />
  </sodipodi:namedview>
  <metadata
     id="metadata1396">
    <rdf:RDF>
      <cc:Work
         rdf:about="">
        <dc:format>image/svg+xml</dc:format>
        <dc:type
           rdf:resource="http://purl.org/dc/dcmitype/StillImage" />
        <dc:title />
      </cc:Work>
    </rdf:RDF>
  </metadata>
  <g
     inkscape:label="Capa 1"
     inkscape:groupmode="layer"
     id="layer1"
     transform="translate(0,-288.53338)">
    <g
       id="g6882"
       transform="translate(8.1434933,-2.5963067)">
      <path
         id="rect868-2-5"
         d="m -0.99974388,293.51099 h 0.529167 c 0.1465789,0 0.264583,0.11801 0.264583,0.26458 v 1.32292 c 0,0.14658 -0.1180041,0.26458 -0.264583,0.26458 h -0.529167 c -0.14657892,0 -0.26458302,-0.118 -0.26458302,-0.26458 v -1.32292 c 0,-0.14657 0.1180041,-0.26458 0.26458302,-0.26458 z"
         style="opacity:0.98000004;fill:#363c4d;fill-opacity:1;stroke:none;stroke-width:0.52916664;stroke-linecap:round;stroke-linejoin:round;stroke-miterlimit:4;stroke-dasharray:none;stroke-dashoffset:0;stroke-opacity:1"
         inkscape:connector-curvature="0" />
      <path
         inkscape:connector-curvature="0"
         id="rect868-6"
         d="m -0.99974328,291.6589 h 0.5291664 c 0.1465791,0 0.2645836,0.11801 0.2645836,0.26459 v 1.32291 c 0,0.14658 -0.1180045,0.26459 -0.2645836,0.26459 h -0.5291664 c -0.14657952,0 -0.26458362,-0.11801 -0.26458362,-0.26459 v -1.32291 c 0,-0.14658 0.1180041,-0.26459 0.26458362,-0.26459 z"
         style="opacity:0.98000004;fill:#cc0120;fill-opacity:1;stroke:none;stroke-width:0.52916664;stroke-linecap:round;stroke-linejoin:round;stroke-miterlimit:4;stroke-dasharray:none;stroke-dashoffset:0;stroke-opacity:1" />
      <path
         inkscape:connector-curvature="0"
         id="rect870-2"
         d="m -0.99974328,291.92349 h 0.5291664 v 1.32291 h -0.5291664 z"
         style="opacity:0.98000004;fill:#fc3a56;fill-opacity:1;stroke:none;stroke-width:0.52916664;stroke-linecap:round;stroke-linejoin:round;stroke-miterlimit:4;stroke-dasharray:none;stroke-dashoffset:0;stroke-opacity:1" />
      <path
         inkscape:connector-curvature="0"
         id="rect870-9-9"
         d="m -0.99974328,293.77557 h 0.5291664 v 1.32292 h -0.5291664 z"
         style="opacity:0.98000004;fill:#68718b;fill-opacity:1;stroke:none;stroke-width:0.52916664;stroke-linecap:round;stroke-linejoin:round;stroke-miterlimit:4;stroke-dasharray:none;stroke-dashoffset:0;stroke-opacity:1" />
      <path
         inkscape:connector-curvature="0"
         id="rect868-2-1-1"
         d="m -0.99974328,295.36307 h 0.5291664 c 0.1465791,0 0.2645836,0.118 0.2645836,0.26458 v 1.32292 c 0,0.14658 -0.1180045,0.26458 -0.2645836,0.26458 h -0.5291664 c -0.14657952,0 -0.26458362,-0.118 -0.26458362,-0.26458 v -1.32292 c 0,-0.14658 0.1180041,-0.26458 0.26458362,-0.26458 z"
         style="opacity:0.98000004;fill:#2aa65a;fill-opacity:1;stroke:none;stroke-width:0.52916664;stroke-linecap:round;stroke-linejoin:round;stroke-miterlimit:4;stroke-dasharray:none;stroke-dashoffset:0;stroke-opacity:1" />
      <path
         inkscape:connector-curvature="0"
         id="rect870-9-2-2"
         d="m -0.99974328,295.62765 h 0.5291664 v 1.32292 h -0.5291664 z"
         style="opacity:0.98000004;fill:#6bdf73;fill-opacity:1;stroke:none;stroke-width:0.52916664;stroke-linecap:round;stroke-linejoin:round;stroke-miterlimit:4;stroke-dasharray:none;stroke-dashoffset:0;stroke-opacity:1" />
      <path
         inkscape:connector-curvature="0"
         id="rect868-2-7-7"
         d="m -0.99974328,297.21515 h 0.5291664 c 0.1465791,0 0.2645836,0.11801 0.2645836,0.26459 v 1.32291 c 0,0.14658 -0.1180045,0.26459 -0.2645836,0.26459 h -0.5291664 c -0.14657952,0 -0.26458362,-0.11801 -0.26458362,-0.26459 v -1.32291 c 0,-0.14658 0.1180041,-0.26459 0.26458362,-0.26459 z"
         style="opacity:0.98000004;fill:#f89804;fill-opacity:1;stroke:none;stroke-width:0.52916664;stroke-linecap:round;stroke-linejoin:round;stroke-miterlimit:4;stroke-dasharray:none;stroke-dashoffset:0;stroke-opacity:1" />
      <path
         inkscape:connector-curvature="0"
         id="rect870-9-0-3"
         d="m -0.99974328,297.47974 h 0.5291664 v 1.32291 h -0.5291664 z"
         style="opacity:0.98000004;fill:#ffe200;fill-opacity:1;stroke:none;stroke-width:0.52916664;stroke-linecap:round;stroke-linejoin:round;stroke-miterlimit:4;stroke-dasharray:none;stroke-dashoffset:0;stroke-opacity:1" />
      <path
         id="rect843"
         d="M -7.3497433,291.39427 H -1.52891 c 0.2931586,0 0.52916672,0.23601 0.52916672,0.52917 v 6.87916 c 0,0.29316 -0.23600812,0.52917 -0.52916672,0.52917 h -5.8208333 c -0.2931583,0 -0.5291667,-0.23601 -0.5291667,-0.52917 v -6.87916 c 0,-0.29316 0.2360084,-0.52917 0.5291667,-0.52917 z"
         style="opacity:1;fill:#33518f;fill-opacity:1;stroke:none;stroke-width:0.63318545;stroke-linecap:round;stroke-linejoin:round;stroke-miterlimit:4;stroke-dasharray:none;stroke-opacity:1"
         inkscape:connector-curvature="0"
         sodipodi:nodetypes="sssssssss" />
      <path
         id="rect843-3"
         d="m -6.8205766,291.65885 v 7.40834 h 5.2916667 c 0.1465789,0 0.2645836,-0.11801 0.2645836,-0.26459 v -6.87916 c 0,-0.14658 -0.1180047,-0.26459 -0.2645836,-0.26459 z"
         style="opacity:1;fill:url(#linearGradient5687);fill-opacity:1;stroke:none;stroke-width:0.59097308;stroke-linecap:round;stroke-linejoin:round;stroke-miterlimit:4;stroke-dasharray:none;stroke-opacity:1"
         inkscape:connector-curvature="0" />
      <path
         inkscape:connector-curvature="0"
         id="rect966-6-1"
         d="m -4.1747433,294.04011 c -0.439737,0 -0.79375,0.35401 -0.79375,0.79375 0,0.43974 0.354013,0.79375 0.79375,0.79375 0.439738,0 0.7937504,-0.35401 0.7937504,-0.79375 0,-0.43974 -0.3540124,-0.79375 -0.7937504,-0.79375 z m 0,1.85208 c -0.730626,0 -1.322916,0.59229 -1.322916,1.32292 0.850993,0.33014 1.728749,0.37482 2.6458329,0 0,-0.73063 -0.5922897,-1.32292 -1.3229169,-1.32292 z"
         style="opacity:0.98000004;fill:#33518f;fill-opacity:1;stroke:none;stroke-width:0.52916682;stroke-linecap:round;stroke-linejoin:round;stroke-miterlimit:4;stroke-dasharray:none;stroke-dashoffset:0;stroke-opacity:1" />
      <path
         inkscape:connector-curvature="0"
         id="rect966-6"
         d="m -4.1747433,293.77552 c -0.4397375,0 -0.79375,0.35401 -0.79375,0.79375 0,0.43974 0.3540125,0.79375 0.79375,0.79375 0.4397375,0 0.79375,-0.35401 0.79375,-0.79375 0,-0.43974 -0.3540125,-0.79375 -0.79375,-0.79375 z m 0,1.85208 c -0.7306268,0 -1.3229167,0.59229 -1.3229167,1.32292 0.8509934,0.33014 1.7287494,0.37482 2.6458333,0 0,-0.73063 -0.5922898,-1.32292 -1.3229166,-1.32292 z"
         style="opacity:0.98000004;fill:#ffffff;fill-opacity:1;stroke:none;stroke-width:0.52916676;stroke-linecap:round;stroke-linejoin:round;stroke-miterlimit:4;stroke-dasharray:none;stroke-dashoffset:0;stroke-opacity:1" />
    </g>
    <g
       transform="translate(6.6358446,-0.32595451)"
       id="layer1-8"
       inkscape:label="Capa 1">
      <g
         transform="translate(5.2916667,3.3499999e-6)"
         id="g1658" />
    </g>
  </g>
</svg>
