<?xml version="1.0" encoding="UTF-8" standalone="no"?>
<!-- Created with Inkscape (http://www.inkscape.org/) -->

<svg
   xmlns:dc="http://purl.org/dc/elements/1.1/"
   xmlns:cc="http://creativecommons.org/ns#"
   xmlns:rdf="http://www.w3.org/1999/02/22-rdf-syntax-ns#"
   xmlns:svg="http://www.w3.org/2000/svg"
   xmlns="http://www.w3.org/2000/svg"
   xmlns:xlink="http://www.w3.org/1999/xlink"
   xmlns:sodipodi="http://sodipodi.sourceforge.net/DTD/sodipodi-0.dtd"
   xmlns:inkscape="http://www.inkscape.org/namespaces/inkscape"
   width="32"
   height="32"
   viewBox="0 0 32 32"
   version="1.1"
   id="svg8"
   inkscape:version="0.92.2 5c3e80d, 2017-08-06"
   sodipodi:docname="preferences-system-login.svg">
  <title
     id="title7895">Antu icon Theme</title>
  <defs
     id="defs2">
    <linearGradient
       gradientTransform="translate(1,-1)"
       inkscape:collect="always"
       xlink:href="#linearGradient842"
       id="linearGradient844"
       x1="-2"
       y1="317.64999"
       x2="-2"
       y2="290.64999"
       gradientUnits="userSpaceOnUse" />
    <linearGradient
       inkscape:collect="always"
       id="linearGradient842">
      <stop
         style="stop-color:#566066;stop-opacity:1"
         offset="0"
         id="stop838" />
      <stop
         style="stop-color:#6d7a81;stop-opacity:1"
         offset="1"
         id="stop840" />
    </linearGradient>
    <linearGradient
       inkscape:collect="always"
       xlink:href="#linearGradient850"
       id="linearGradient852"
       x1="-2"
       y1="311.64999"
       x2="-2"
       y2="293.64999"
       gradientUnits="userSpaceOnUse"
       gradientTransform="translate(1.022097,-1.0221)" />
    <linearGradient
       inkscape:collect="always"
       id="linearGradient850">
      <stop
         style="stop-color:#233a39;stop-opacity:1"
         offset="0"
         id="stop846" />
      <stop
         style="stop-color:#434d4d;stop-opacity:1"
         offset="1"
         id="stop848" />
    </linearGradient>
  </defs>
  <sodipodi:namedview
     id="base"
     pagecolor="#ffffff"
     bordercolor="#666666"
     borderopacity="1.0"
     inkscape:pageopacity="0.0"
     inkscape:pageshadow="2"
     inkscape:zoom="0.9899495"
     inkscape:cx="43.480966"
     inkscape:cy="129.03015"
     inkscape:document-units="px"
     inkscape:current-layer="layer1"
     showgrid="true"
     units="px"
     inkscape:window-width="1366"
     inkscape:window-height="697"
     inkscape:window-x="0"
     inkscape:window-y="0"
     inkscape:window-maximized="1"
     objecttolerance="10"
     gridtolerance="10"
     guidetolerance="10">
    <inkscape:grid
       type="xygrid"
       id="grid7897"
       empspacing="4" />
  </sodipodi:namedview>
  <metadata
     id="metadata5">
    <rdf:RDF>
      <cc:Work
         rdf:about="">
        <dc:format>image/svg+xml</dc:format>
        <dc:type
           rdf:resource="http://purl.org/dc/dcmitype/StillImage" />
        <dc:title>Antu icon Theme</dc:title>
      </cc:Work>
    </rdf:RDF>
  </metadata>
  <g
     inkscape:label="Capa 1"
     inkscape:groupmode="layer"
     id="layer1"
     transform="translate(0,-282.64999)">
    <g
       id="g1520"
       transform="translate(17,-5)">
      <path
         id="rect843"
         d="m -14,288.64999 h 26 c 1.108,0 2,0.892 2,2 v 26 c 0,1.108 -0.892,2 -2,2 h -26 c -1.108,0 -2,-0.892 -2,-2 v -26 c 0,-1.108 0.892,-2 2,-2 z"
         style="opacity:1;fill:#394349;fill-opacity:1;stroke:none;stroke-width:2.39314151;stroke-linecap:round;stroke-linejoin:round;stroke-miterlimit:4;stroke-dasharray:none;stroke-opacity:1"
         inkscape:connector-curvature="0" />
      <path
         id="rect843-3"
         d="m -14,289.64999 h 26 c 0.553999,0 1,0.446 1,1 v 26 c 0,0.554 -0.446001,1 -1,1 h -26 c -0.554,0 -1,-0.446 -1,-1 v -26 c 0,-0.554 0.446,-1 1,-1 z"
         style="opacity:1;fill:url(#linearGradient844);fill-opacity:1;stroke:none;stroke-width:2.23359871;stroke-linecap:round;stroke-linejoin:round;stroke-miterlimit:4;stroke-dasharray:none;stroke-opacity:1"
         inkscape:connector-curvature="0" />
      <path
         id="rect834"
         d="m -13.000004,290.64999 h 24.000008 c 0.553998,0 0.999996,0.446 0.999996,1 v 20 c 0,0.554 -0.445998,1 -0.999996,1 h -24.000008 c -0.553998,0 -0.999996,-0.446 -0.999996,-1 v -20 c 0,-0.554 0.445998,-1 0.999996,-1 z"
         style="opacity:1;fill:#232c2c;fill-opacity:1;stroke:none;stroke-width:2;stroke-linecap:round;stroke-linejoin:round;stroke-miterlimit:4;stroke-dasharray:none;stroke-opacity:1;paint-order:stroke markers fill"
         inkscape:connector-curvature="0" />
      <path
         id="rect836"
         d="m -12.977903,291.6279 h 24 v 20 h -24 z"
         style="opacity:1;fill:url(#linearGradient852);fill-opacity:1;stroke:none;stroke-width:2;stroke-linecap:round;stroke-linejoin:round;stroke-miterlimit:4;stroke-dasharray:none;stroke-opacity:1;paint-order:stroke markers fill"
         inkscape:connector-curvature="0" />
      <path
         inkscape:connector-curvature="0"
         id="path872-3"
         d="m -2,294.64999 v 5 h 2 v -5 z m -1,1.40234 c -2.876849,0.86923 -5,3.42982 -5,6.59766 0,3.878 3.122,7 7,7 3.878,0 7,-3.122 7,-7 0,-3.16784 -2.123151,-5.72843 -5,-6.59766 v 2.02344 c 1.765432,0.7702 3,2.51865 3,4.57422 0,2.77 -2.23,5 -5,5 -2.77,0 -5,-2.23 -5,-5 0,-2.05557 1.234568,-3.80402 3,-4.57422 z"
         style="opacity:1;fill:#232c2c;fill-opacity:1;stroke:none;stroke-width:1.86666667;stroke-linecap:round;stroke-linejoin:round;stroke-miterlimit:4;stroke-dasharray:none;stroke-opacity:1;paint-order:stroke markers fill" />
      <path
         inkscape:connector-curvature="0"
         id="path872"
         d="m -2,293.64999 v 5 h 2 v -5 z m -1,1.40234 c -2.876849,0.86923 -5,3.42982 -5,6.59766 0,3.878 3.122,7 7,7 3.878,0 7,-3.122 7,-7 0,-3.16784 -2.123151,-5.72843 -5,-6.59766 v 2.02344 c 1.765432,0.7702 3,2.51865 3,4.57422 0,2.77 -2.23,5 -5,5 -2.77,0 -5,-2.23 -5,-5 0,-2.05557 1.234568,-3.80402 3,-4.57422 z"
         style="opacity:1;fill:#ffffff;fill-opacity:1;stroke:none;stroke-width:1.86666667;stroke-linecap:round;stroke-linejoin:round;stroke-miterlimit:4;stroke-dasharray:none;stroke-opacity:1;paint-order:stroke markers fill" />
    </g>
    <path
       style="opacity:1;fill:#394349;fill-opacity:1;stroke:none;stroke-width:2;stroke-linecap:round;stroke-linejoin:round;stroke-miterlimit:4;stroke-dasharray:none;stroke-opacity:1;paint-order:stroke markers fill"
       d="m 26.5,308.64999 c 0.831,0 1.5,0.669 1.5,1.5 0,0.831 -0.669,1.5 -1.5,1.5 -0.831,0 -1.5,-0.669 -1.5,-1.5 0,-0.831 0.669,-1.5 1.5,-1.5 z"
       id="rect1584" />
    <path
       style="opacity:1;fill:#48ff5d;fill-opacity:1;stroke:none;stroke-width:2;stroke-linecap:round;stroke-linejoin:round;stroke-miterlimit:4;stroke-dasharray:none;stroke-opacity:1;paint-order:stroke markers fill"
       d="m 26.5,309.64999 c 0.277,0 0.5,0.223 0.5,0.5 0,0.277 -0.223,0.5 -0.5,0.5 -0.277,0 -0.5,-0.223 -0.5,-0.5 0,-0.277 0.223,-0.5 0.5,-0.5 z"
       id="rect1586" />
    <path
       style="opacity:1;fill:#394349;fill-opacity:1;stroke:none;stroke-width:2;stroke-linecap:round;stroke-linejoin:round;stroke-miterlimit:4;stroke-dasharray:none;stroke-opacity:1;paint-order:stroke markers fill"
       d="m 22.5,308.64999 c 0.831,0 1.5,0.669 1.5,1.5 0,0.831 -0.669,1.5 -1.5,1.5 -0.831,0 -1.5,-0.669 -1.5,-1.5 0,-0.831 0.669,-1.5 1.5,-1.5 z"
       id="rect1584-6" />
    <path
       style="opacity:1;fill:#48ff5d;fill-opacity:1;stroke:none;stroke-width:2;stroke-linecap:round;stroke-linejoin:round;stroke-miterlimit:4;stroke-dasharray:none;stroke-opacity:1;paint-order:stroke markers fill"
       d="m 22.5,309.64999 c 0.277,0 0.5,0.223 0.5,0.5 0,0.277 -0.223,0.5 -0.5,0.5 -0.277,0 -0.5,-0.223 -0.5,-0.5 0,-0.277 0.223,-0.5 0.5,-0.5 z"
       id="rect1586-7" />
  </g>
</svg>
