<?xml version="1.0" encoding="UTF-8" standalone="no"?>
<!-- Created with Inkscape (http://www.inkscape.org/) -->

<svg
   xmlns:dc="http://purl.org/dc/elements/1.1/"
   xmlns:cc="http://creativecommons.org/ns#"
   xmlns:rdf="http://www.w3.org/1999/02/22-rdf-syntax-ns#"
   xmlns:svg="http://www.w3.org/2000/svg"
   xmlns="http://www.w3.org/2000/svg"
   xmlns:xlink="http://www.w3.org/1999/xlink"
   xmlns:sodipodi="http://sodipodi.sourceforge.net/DTD/sodipodi-0.dtd"
   xmlns:inkscape="http://www.inkscape.org/namespaces/inkscape"
   width="32"
   height="32"
   viewBox="0 0 8.4666665 8.4666669"
   version="1.1"
   id="svg8"
   inkscape:version="0.92.2 5c3e80d, 2017-08-06"
   sodipodi:docname="preferences-desktop-gaming.svg">
  <defs
     id="defs2">
    <linearGradient
       gradientTransform="translate(-4.1104911,-2.5277269)"
       inkscape:collect="always"
       xlink:href="#linearGradient4570"
       id="linearGradient4572"
       x1="4.3939734"
       y1="297.34961"
       x2="4.3939734"
       y2="289.94128"
       gradientUnits="userSpaceOnUse" />
    <linearGradient
       inkscape:collect="always"
       id="linearGradient4570">
      <stop
         style="stop-color:#ec4455;stop-opacity:1"
         offset="0"
         id="stop4566" />
      <stop
         style="stop-color:#ff8d85;stop-opacity:1"
         offset="1"
         id="stop4568" />
    </linearGradient>
    <linearGradient
       gradientTransform="translate(-4.1104911,-2.5277269)"
       inkscape:collect="always"
       xlink:href="#linearGradient4580"
       id="linearGradient4582"
       x1="1.7481399"
       y1="297.34961"
       x2="1.7481399"
       y2="289.94128"
       gradientUnits="userSpaceOnUse" />
    <linearGradient
       inkscape:collect="always"
       id="linearGradient4580">
      <stop
         style="stop-color:#3f4346;stop-opacity:1"
         offset="0"
         id="stop4576" />
      <stop
         style="stop-color:#656a80;stop-opacity:1"
         offset="1"
         id="stop4578" />
    </linearGradient>
    <linearGradient
       gradientTransform="translate(-4.1104911,-2.5277269)"
       inkscape:collect="always"
       xlink:href="#linearGradient4562"
       id="linearGradient4564"
       x1="-0.89769351"
       y1="297.34961"
       x2="-0.89769351"
       y2="289.94128"
       gradientUnits="userSpaceOnUse" />
    <linearGradient
       inkscape:collect="always"
       id="linearGradient4562">
      <stop
         style="stop-color:#1aa3d4;stop-opacity:1"
         offset="0"
         id="stop4558" />
      <stop
         style="stop-color:#8ce3ee;stop-opacity:1"
         offset="1"
         id="stop4560" />
    </linearGradient>
  </defs>
  <sodipodi:namedview
     id="base"
     pagecolor="#ffffff"
     bordercolor="#666666"
     borderopacity="1.0"
     inkscape:pageopacity="0.0"
     inkscape:pageshadow="2"
     inkscape:zoom="15.839192"
     inkscape:cx="-1.7656695"
     inkscape:cy="14.015555"
     inkscape:document-units="px"
     inkscape:current-layer="layer1"
     showgrid="false"
     units="px"
     inkscape:window-width="1366"
     inkscape:window-height="697"
     inkscape:window-x="0"
     inkscape:window-y="0"
     inkscape:window-maximized="1" />
  <metadata
     id="metadata5">
    <rdf:RDF>
      <cc:Work
         rdf:about="">
        <dc:format>image/svg+xml</dc:format>
        <dc:type
           rdf:resource="http://purl.org/dc/dcmitype/StillImage" />
        <dc:title />
      </cc:Work>
    </rdf:RDF>
  </metadata>
  <g
     inkscape:label="Capa 1"
     inkscape:groupmode="layer"
     id="layer1"
     transform="translate(0,-288.53332)">
    <g
       id="g5428"
       transform="translate(6.5956845,1.6489183)">
      <path
         sodipodi:nodetypes="csssscccc"
         inkscape:connector-curvature="0"
         id="rect4515"
         d="m -0.24569405,287.14899 h 1.0583521 c 0.58631175,0 1.05832415,0.47202 1.05832415,1.05833 v 5.82083 c 0,0.58632 -0.4720124,1.05833 -1.05832415,1.05833 h -1.0583521 -1.05832375 v -7.9375 z"
         style="opacity:0.98999999;fill:#b23741;fill-opacity:1;stroke:none;stroke-width:0.079375;stroke-miterlimit:4;stroke-dasharray:none;stroke-opacity:1" />
      <path
         sodipodi:nodetypes="csssscccc"
         inkscape:connector-curvature="0"
         id="rect4533"
         d="m -0.24568475,287.41356 h 1.0583333 c 0.43973755,0 0.79375005,0.35402 0.79375005,0.79375 v 5.82084 c 0,0.43973 -0.3540125,0.79375 -0.79375005,0.79375 h -1.0583333 -0.79374975 v -7.40834 z"
         style="opacity:0.98999999;fill:url(#linearGradient4572);fill-opacity:1;stroke:none;stroke-width:0.079375;stroke-miterlimit:4;stroke-dasharray:none;stroke-opacity:1" />
      <path
         sodipodi:nodetypes="csssscccc"
         inkscape:connector-curvature="0"
         id="rect4515-3"
         d="m -4.4790084,287.149 h -1.058352 c -0.5863118,0 -1.0583241,0.47202 -1.0583241,1.05833 v 5.82082 c 0,0.58633 0.4720123,1.05834 1.0583241,1.05834 h 1.058352 1.0583239 v -7.9375 z"
         style="opacity:0.98999999;fill:#267fb2;fill-opacity:1;stroke:none;stroke-width:0.079375;stroke-miterlimit:4;stroke-dasharray:none;stroke-opacity:1" />
      <path
         sodipodi:nodetypes="csssscccc"
         inkscape:connector-curvature="0"
         id="rect4533-6"
         d="m -4.4790177,287.41357 h -1.0583332 c -0.4397375,0 -0.79375,0.35402 -0.79375,0.79375 v 5.82083 c 0,0.43974 0.3540125,0.79375 0.79375,0.79375 h 1.0583332 0.7937499 v -7.40833 z"
         style="opacity:0.98999999;fill:url(#linearGradient4564);fill-opacity:1;stroke:none;stroke-width:0.079375;stroke-miterlimit:4;stroke-dasharray:none;stroke-opacity:1" />
      <path
         sodipodi:nodetypes="cccccsssssssssssssssssssssssssccccc"
         inkscape:connector-curvature="0"
         id="rect4577"
         d="m -5.0081847,288.20731 v 0.26459 h 0.79375 v -0.26459 z m 0,1.05834 c -0.4397375,0 -0.7937501,0.35401 -0.7937501,0.79375 0,0.43974 0.3540126,0.79375 0.7937501,0.79375 0.4397375,0 0.79375,-0.35401 0.79375,-0.79375 0,-0.43974 -0.3540125,-0.79375 -0.79375,-0.79375 z m 0,2.38125 c -0.1465792,0 -0.2645833,0.118 -0.2645833,0.26458 0,0.14658 0.1180041,0.26458 0.2645833,0.26458 0.1465791,0 0.2645833,-0.118 0.2645833,-0.26458 0,-0.14658 -0.1180042,-0.26458 -0.2645833,-0.26458 z m -0.5291667,0.52916 c -0.1465792,0 -0.2645834,0.11801 -0.2645834,0.26459 0,0.14658 0.1180042,0.26458 0.2645834,0.26458 0.1465792,0 0.2645834,-0.118 0.2645834,-0.26458 0,-0.14658 -0.1180042,-0.26459 -0.2645834,-0.26459 z m 1.0583333,0 c -0.1465791,0 -0.2645833,0.11801 -0.2645833,0.26459 0,0.14658 0.1180042,0.26458 0.2645833,0.26458 0.1465792,0 0.2645834,-0.118 0.2645834,-0.26458 0,-0.14658 -0.1180042,-0.26459 -0.2645834,-0.26459 z m -0.5291666,0.52917 c -0.1465792,0 -0.2645833,0.118 -0.2645833,0.26458 0,0.14658 0.1180041,0.26459 0.2645833,0.26459 0.1465791,0 0.2645833,-0.11801 0.2645833,-0.26459 0,-0.14658 -0.1180042,-0.26458 -0.2645833,-0.26458 z m 0.5291666,1.05833 v 0.52917 h 0.5291666 v -0.52917 z"
         style="opacity:1;fill:#102d33;fill-opacity:1;stroke:none;stroke-width:0.079375;stroke-miterlimit:4;stroke-dasharray:none;stroke-opacity:1" />
      <path
         sodipodi:nodetypes="sssss"
         inkscape:connector-curvature="0"
         id="path4872"
         d="m -5.0081847,289.53023 c -0.2931584,0 -0.5291667,0.23601 -0.5291667,0.52917 0,0.29315 0.2360083,0.52916 0.5291667,0.52916 0.2931584,0 0.5291666,-0.23601 0.5291666,-0.52916 0,-0.29316 -0.2360082,-0.52917 -0.5291666,-0.52917 z"
         style="opacity:1;fill:#3a5760;fill-opacity:1;stroke:none;stroke-width:0.10583334;stroke-miterlimit:4;stroke-dasharray:none;stroke-opacity:1" />
      <path
         id="rect4536"
         d="m -3.4206845,287.14898 h 2.1166664 v 7.9375 h -2.1166664 z"
         style="opacity:0.98999999;fill:#262626;fill-opacity:1;stroke:none;stroke-width:0.079375;stroke-miterlimit:4;stroke-dasharray:none;stroke-opacity:1"
         inkscape:connector-curvature="0" />
      <path
         id="rect4538"
         d="m -3.4206845,287.41356 h 2.1166667 v 7.40834 h -2.1166667 z"
         style="opacity:0.98999999;fill:url(#linearGradient4582);fill-opacity:1;stroke:none;stroke-width:0.079375;stroke-miterlimit:4;stroke-dasharray:none;stroke-opacity:1"
         inkscape:connector-curvature="0" />
      <path
         sodipodi:nodetypes="cccccccccccccssssssssssssssssssssssssssssss"
         inkscape:connector-curvature="0"
         id="rect4577-5"
         d="m -0.24568475,287.94273 v 0.26458 h -0.2645834 v 0.26459 h 0.2645834 v 0.26458 h 0.2645833 v -0.26458 h 0.2645833 v -0.26459 h -0.2645833 v -0.26458 z m 0.5291666,1.32292 c -0.1465791,0 -0.2645833,0.118 -0.2645833,0.26458 0,0.14658 0.1180042,0.26458 0.2645833,0.26458 0.1465792,0 0.2645834,-0.118 0.2645834,-0.26458 0,-0.14658 -0.1180042,-0.26458 -0.2645834,-0.26458 z m -0.5291666,0.52916 c -0.1465792,0 -0.2645834,0.11801 -0.2645834,0.26459 0,0.14657 0.1180042,0.26458 0.2645834,0.26458 0.1465791,0 0.2645833,-0.11801 0.2645833,-0.26458 0,-0.14658 -0.1180042,-0.26459 -0.2645833,-0.26459 z m 1.0583333,0 c -0.1465792,0 -0.2645833,0.11801 -0.2645833,0.26459 0,0.14657 0.1180041,0.26458 0.2645833,0.26458 0.1465789,0 0.26458335,-0.11801 0.26458335,-0.26458 0,-0.14658 -0.11800445,-0.26459 -0.26458335,-0.26459 z m -0.5291667,0.52917 c -0.1465791,0 -0.2645833,0.118 -0.2645833,0.26458 0,0.14658 0.1180042,0.26459 0.2645833,0.26459 0.1465792,0 0.2645834,-0.11801 0.2645834,-0.26459 0,-0.14658 -0.1180042,-0.26458 -0.2645834,-0.26458 z m 0,1.32292 c -0.4397375,0 -0.79375,0.35401 -0.79375,0.79375 0,0.43973 0.3540125,0.79375 0.79375,0.79375 0.4397375,0 0.79375005,-0.35402 0.79375005,-0.79375 0,-0.43974 -0.35401255,-0.79375 -0.79375005,-0.79375 z m -0.79375,2.11666 c -0.1465791,0 -0.2645833,0.11801 -0.2645833,0.26459 0,0.14657 0.1180042,0.26458 0.2645833,0.26458 0.1465792,0 0.2645834,-0.11801 0.2645834,-0.26458 0,-0.14658 -0.1180042,-0.26459 -0.2645834,-0.26459 z"
         style="opacity:1;fill:#33181a;fill-opacity:1;stroke:none;stroke-width:0.07937499;stroke-miterlimit:4;stroke-dasharray:none;stroke-opacity:1" />
      <path
         sodipodi:nodetypes="sssss"
         inkscape:connector-curvature="0"
         id="rect4611-6"
         d="m 0.28348185,291.91148 c -0.2931583,0 -0.5291666,0.23601 -0.5291666,0.52917 0,0.29315 0.2360083,0.52916 0.5291666,0.52916 0.2931581,0 0.5291667,-0.23601 0.5291667,-0.52916 0,-0.29316 -0.2360086,-0.52917 -0.5291667,-0.52917 z"
         style="opacity:1;fill:#664344;fill-opacity:1;stroke:none;stroke-width:0.10583334;stroke-miterlimit:4;stroke-dasharray:none;stroke-opacity:1" />
      <path
         style="opacity:1;fill:#63ff00;fill-opacity:1;stroke:none;stroke-width:0.29999998;stroke-miterlimit:4;stroke-dasharray:none;stroke-opacity:1"
         d="M 14.5 12 C 14.222998 12 14 12.222998 14 12.5 C 14 12.777039 14.223 13 14.5 13 C 14.777002 13 15 12.777002 15 12.5 C 15 12.222961 14.777 12 14.5 12 z M 17.5 12 C 17.222998 12 17 12.222998 17 12.5 C 17 12.777039 17.223 13 17.5 13 C 17.777002 13 18 12.777002 18 12.5 C 18 12.222961 17.777 12 17.5 12 z "
         transform="matrix(0.26458333,0,0,0.26458333,-6.5956845,286.8844)"
         id="path4524" />
      <path
         style="opacity:1;fill:#000000;fill-opacity:1;stroke:none;stroke-width:0.079375;stroke-miterlimit:4;stroke-dasharray:none;stroke-opacity:1"
         d="m -2.7592264,290.58855 c -0.07329,0 -0.1322917,0.059 -0.1322917,0.1323 0,0.0733 0.059002,0.13229 0.1322917,0.13229 0.07329,0 0.1322917,-0.059 0.1322917,-0.13229 0,-0.0733 -0.059002,-0.1323 -0.1322917,-0.1323 z"
         id="path4518"
         inkscape:connector-curvature="0" />
      <path
         style="opacity:1;fill:#000000;fill-opacity:1;stroke:none;stroke-width:0.079375;stroke-miterlimit:4;stroke-dasharray:none;stroke-opacity:1"
         d="m -1.9654764,290.58855 c -0.07329,0 -0.1322917,0.059 -0.1322917,0.1323 0,0.0733 0.059002,0.13229 0.1322917,0.13229 0.07329,0 0.1322917,-0.059 0.1322917,-0.13229 0,-0.0733 -0.059002,-0.1323 -0.1322917,-0.1323 z"
         id="path4516"
         inkscape:connector-curvature="0" />
      <path
         style="opacity:1;fill:#000000;fill-opacity:1;stroke:none;stroke-width:0.079375;stroke-miterlimit:4;stroke-dasharray:none;stroke-opacity:1"
         d="m -2.7592264,291.11772 c -0.07329,0 -0.1322917,0.059 -0.1322917,0.13229 0,0.0733 0.059002,0.13229 0.1322917,0.13229 0.07329,0 0.1322917,-0.059 0.1322917,-0.13229 0,-0.0733 -0.059002,-0.13229 -0.1322917,-0.13229 z"
         id="path4514"
         inkscape:connector-curvature="0" />
      <path
         style="opacity:1;fill:#000000;fill-opacity:1;stroke:none;stroke-width:0.079375;stroke-miterlimit:4;stroke-dasharray:none;stroke-opacity:1"
         d="m -1.9654764,291.11772 c -0.07329,0 -0.1322917,0.059 -0.1322917,0.13229 0,0.0733 0.059002,0.13229 0.1322917,0.13229 0.07329,0 0.1322917,-0.059 0.1322917,-0.13229 0,-0.0733 -0.059002,-0.13229 -0.1322917,-0.13229 z"
         id="path4512"
         inkscape:connector-curvature="0" />
      <path
         style="opacity:1;fill:#000000;fill-opacity:1;stroke:none;stroke-width:0.079375;stroke-miterlimit:4;stroke-dasharray:none;stroke-opacity:1"
         d="m -2.7592264,291.64689 c -0.07329,0 -0.1322917,0.059 -0.1322917,0.13229 0,0.0733 0.059002,0.13229 0.1322917,0.13229 0.07329,0 0.1322917,-0.059 0.1322917,-0.13229 0,-0.0733 -0.059002,-0.13229 -0.1322917,-0.13229 z"
         id="path4510"
         inkscape:connector-curvature="0" />
      <path
         style="opacity:1;fill:#000000;fill-opacity:1;stroke:none;stroke-width:0.079375;stroke-miterlimit:4;stroke-dasharray:none;stroke-opacity:1"
         d="m -1.9654764,291.64689 c -0.07329,0 -0.1322917,0.059 -0.1322917,0.13229 0,0.0733 0.059002,0.13229 0.1322917,0.13229 0.07329,0 0.1322917,-0.059 0.1322917,-0.13229 0,-0.0733 -0.059002,-0.13229 -0.1322917,-0.13229 z"
         id="rect4695"
         inkscape:connector-curvature="0" />
    </g>
  </g>
</svg>
