<?xml version="1.0" encoding="UTF-8" standalone="no"?>
<!-- Created with Inkscape (http://www.inkscape.org/) -->

<svg
   xmlns:dc="http://purl.org/dc/elements/1.1/"
   xmlns:cc="http://creativecommons.org/ns#"
   xmlns:rdf="http://www.w3.org/1999/02/22-rdf-syntax-ns#"
   xmlns:svg="http://www.w3.org/2000/svg"
   xmlns="http://www.w3.org/2000/svg"
   xmlns:xlink="http://www.w3.org/1999/xlink"
   xmlns:sodipodi="http://sodipodi.sourceforge.net/DTD/sodipodi-0.dtd"
   xmlns:inkscape="http://www.inkscape.org/namespaces/inkscape"
   width="32"
   height="32"
   viewBox="0 0 32 32"
   version="1.1"
   id="svg8"
   inkscape:version="0.92.2 5c3e80d, 2017-08-06"
   sodipodi:docname="preferences-desktop-notification.svg">
  <title
     id="title7895">Antu icon Theme</title>
  <defs
     id="defs2">
    <linearGradient
       gradientTransform="matrix(4.4094489,0,0,4.4094489,20.10977,-1015.4594)"
       inkscape:collect="always"
       xlink:href="#linearGradient4534"
       id="linearGradient4536"
       x1="-3.6534665"
       y1="299.83554"
       x2="-3.6534665"
       y2="296.66052"
       gradientUnits="userSpaceOnUse" />
    <linearGradient
       inkscape:collect="always"
       id="linearGradient4534">
      <stop
         style="stop-color:#f23f3f;stop-opacity:1"
         offset="0"
         id="stop4530" />
      <stop
         style="stop-color:#ff5151;stop-opacity:1"
         offset="1"
         id="stop4532" />
    </linearGradient>
    <linearGradient
       y2="288.98691"
       x2="8.4477682"
       y1="295.60147"
       x1="8.4477682"
       gradientTransform="matrix(3.5095612,0,0,3.5095612,-33.647957,-716.78147)"
       gradientUnits="userSpaceOnUse"
       id="linearGradient2237"
       xlink:href="#linearGradient4582"
       inkscape:collect="always" />
    <linearGradient
       inkscape:collect="always"
       id="linearGradient4582">
      <stop
         style="stop-color:#e3e3e3;stop-opacity:1"
         offset="0"
         id="stop4578" />
      <stop
         style="stop-color:#fcfcfc;stop-opacity:1"
         offset="1"
         id="stop4580" />
    </linearGradient>
  </defs>
  <sodipodi:namedview
     id="base"
     pagecolor="#ffffff"
     bordercolor="#666666"
     borderopacity="1.0"
     inkscape:pageopacity="0.0"
     inkscape:pageshadow="2"
     inkscape:zoom="15.839192"
     inkscape:cx="16.569836"
     inkscape:cy="11.184089"
     inkscape:document-units="px"
     inkscape:current-layer="layer1"
     showgrid="true"
     units="px"
     inkscape:window-width="1366"
     inkscape:window-height="697"
     inkscape:window-x="0"
     inkscape:window-y="0"
     inkscape:window-maximized="1"
     objecttolerance="10"
     gridtolerance="10"
     guidetolerance="10">
    <inkscape:grid
       type="xygrid"
       id="grid7897"
       empspacing="4" />
  </sodipodi:namedview>
  <metadata
     id="metadata5">
    <rdf:RDF>
      <cc:Work
         rdf:about="">
        <dc:format>image/svg+xml</dc:format>
        <dc:type
           rdf:resource="http://purl.org/dc/dcmitype/StillImage" />
        <dc:title>Antu icon Theme</dc:title>
      </cc:Work>
    </rdf:RDF>
  </metadata>
  <g
     inkscape:label="Capa 1"
     inkscape:groupmode="layer"
     id="layer1"
     transform="translate(0,-282.64999)">
    <g
       id="g1584"
       transform="translate(19,-8.000015)">
      <path
         id="rect843-0"
         d="M -16.133333,293.64998 H 8.1333319 c 1.034135,0 1.866668,0.83254 1.866668,1.86667 v 24.26665 c 0,1.03413 -0.832533,1.86668 -1.866668,1.86668 H -16.133333 C -17.167467,321.64998 -18,320.81743 -18,319.7833 v -24.26665 c 0,-1.03413 0.832533,-1.86667 1.866667,-1.86667 z"
         style="opacity:1;fill:#7f9099;fill-opacity:1;stroke:none;stroke-width:2.23359871;stroke-linecap:round;stroke-linejoin:round;stroke-miterlimit:4;stroke-dasharray:none;stroke-opacity:1"
         inkscape:connector-curvature="0" />
      <path
         id="rect843-3-9"
         d="M -16.071428,294.65 H 8.0714279 c 0.514429,0 0.928572,0.41412 0.928572,0.92855 v 24.14286 c 0,0.51441 -0.414143,0.92857 -0.928572,0.92857 H -16.071428 C -16.585857,320.64998 -17,320.23582 -17,319.72141 v -24.14286 c 0,-0.51443 0.414143,-0.92855 0.928572,-0.92855 z"
         style="opacity:1;fill:url(#linearGradient2237);fill-opacity:1;stroke:none;stroke-width:2.07405591;stroke-linecap:round;stroke-linejoin:round;stroke-miterlimit:4;stroke-dasharray:none;stroke-opacity:1"
         inkscape:connector-curvature="0" />
      <path
         inkscape:connector-curvature="0"
         style="fill:#b22c2c;fill-opacity:1;stroke:none;stroke-width:0.78381819;stroke-linecap:round;stroke-linejoin:round;stroke-miterlimit:4;stroke-dasharray:none;stroke-opacity:1"
         d="m 3.9999999,291.65003 c 4.432,0 7.9999991,3.56791 7.9999991,7.99994 0,4.43198 -3.5679991,8.00001 -7.9999991,8.00001 -4.43199997,0 -8,-3.56803 -8,-8.00001 0,-4.43203 3.56800003,-7.99994 8,-7.99994 z"
         id="rect4496-3" />
      <path
         inkscape:connector-curvature="0"
         style="fill:url(#linearGradient4536);fill-opacity:1;stroke:none;stroke-width:0.70110238;stroke-linecap:round;stroke-linejoin:round;stroke-miterlimit:4;stroke-dasharray:none;stroke-opacity:1"
         d="m 3.9999999,292.64998 c 3.878,0 7.0000001,3.122 7.0000001,7.00002 0,3.87803 -3.1220001,7.00003 -7.0000001,7.00003 -3.87800097,0 -7,-3.122 -7,-7.00003 0,-3.87802 3.12199903,-7.00002 7,-7.00002 z"
         id="rect4570-9-6-5" />
      <path
         sodipodi:nodetypes="ssssssssssss"
         id="rect899-3"
         d="m 3.9999999,296.64998 c -0.554,0 -1,0.446 -1,1 v 3 c 0,0.554 0.446,1 1,1 0.554,0 1,-0.446 1,-1 v -3 c 0,-0.554 -0.446,-1 -1,-1 z m 0,6 c -0.554,0 -1,0.446 -1,1 0,0.554 0.446,1 1,1 0.554,0 1,-0.446 1,-1 0,-0.554 -0.446,-1 -1,-1 z"
         style="opacity:1;fill:#b22c2c;fill-opacity:1;stroke:none;stroke-width:2.00000024;stroke-linecap:round;stroke-linejoin:round;stroke-miterlimit:4;stroke-dasharray:none;stroke-opacity:1"
         inkscape:connector-curvature="0" />
      <path
         sodipodi:nodetypes="ssssssssssss"
         inkscape:connector-curvature="0"
         id="rect899"
         d="m 3.9999999,295.64998 c -0.554,0 -1,0.446 -1,1 v 3 c 0,0.554 0.446,1 1,1 0.554,0 1,-0.446 1,-1 v -3 c 0,-0.554 -0.446,-1 -1,-1 z m 0,6 c -0.554,0 -1,0.446 -1,1 0,0.554 0.446,1 1,1 0.554,0 1,-0.446 1,-1 0,-0.554 -0.446,-1 -1,-1 z"
         style="opacity:1;fill:#fcfcfc;fill-opacity:1;stroke:none;stroke-width:2.00000024;stroke-linecap:round;stroke-linejoin:round;stroke-miterlimit:4;stroke-dasharray:none;stroke-opacity:1" />
    </g>
  </g>
</svg>
