<?xml version="1.0" encoding="UTF-8" standalone="no"?>
<svg
   xmlns:dc="http://purl.org/dc/elements/1.1/"
   xmlns:cc="http://creativecommons.org/ns#"
   xmlns:rdf="http://www.w3.org/1999/02/22-rdf-syntax-ns#"
   xmlns:svg="http://www.w3.org/2000/svg"
   xmlns="http://www.w3.org/2000/svg"
   xmlns:xlink="http://www.w3.org/1999/xlink"
   xmlns:sodipodi="http://sodipodi.sourceforge.net/DTD/sodipodi-0.dtd"
   xmlns:inkscape="http://www.inkscape.org/namespaces/inkscape"
   height="32"
   viewBox="0 0 8.4666664 8.4666669"
   width="32"
   version="1.1"
   id="svg6"
   sodipodi:docname="preferences-desktop-gestures-screenedges.svg"
   inkscape:version="0.92.4 5da689c313, 2019-01-14">
  <metadata
     id="metadata10">
    <rdf:RDF>
      <cc:Work
         rdf:about="">
        <dc:format>image/svg+xml</dc:format>
        <dc:type
           rdf:resource="http://purl.org/dc/dcmitype/StillImage" />
        <dc:title />
      </cc:Work>
    </rdf:RDF>
  </metadata>
  <sodipodi:namedview
     pagecolor="#ffffff"
     bordercolor="#666666"
     borderopacity="1"
     objecttolerance="10"
     gridtolerance="10"
     guidetolerance="10"
     inkscape:pageopacity="0"
     inkscape:pageshadow="2"
     inkscape:window-width="1920"
     inkscape:window-height="1003"
     id="namedview8"
     showgrid="true"
     inkscape:zoom="14.75"
     inkscape:cx="3.4146888"
     inkscape:cy="8.6734801"
     inkscape:window-x="0"
     inkscape:window-y="0"
     inkscape:window-maximized="1"
     inkscape:current-layer="g889" />
  <defs
     id="defs2">
    <style
       type="text/css"
       id="current-color-scheme">
      .ColorScheme-Text {
        color:#36404d;
      }
      </style>
    <linearGradient
       inkscape:collect="always"
       id="linearGradient4902">
      <stop
         style="stop-color:#0d72ec;stop-opacity:1"
         offset="0"
         id="stop4898" />
      <stop
         style="stop-color:#36b2fb;stop-opacity:1"
         offset="1"
         id="stop4900" />
    </linearGradient>
    <linearGradient
       inkscape:collect="always"
       xlink:href="#linearGradient4902"
       id="linearGradient891"
       x1="15.101695"
       y1="25.050848"
       x2="15.135593"
       y2="3.0169489"
       gradientUnits="userSpaceOnUse" />
  </defs>
  <g
     id="g889"
     transform="translate(4.0539548,1.7220339)">
    <path
       inkscape:connector-curvature="0"
       style="fill:#0a5dbf;fill-opacity:1;stroke-width:0.26458341"
       d="m -3.7893715,-1.1928672 c -0.1465818,0 -0.2645833,0.1180042 -0.2645833,0.26458339 V 5.9508828 c 0,0.1465792 0.1180015,0.2645833 0.2645833,0.2645833 h 7.9375 c 0.1465816,0 0.2645833,-0.1180041 0.2645833,-0.2645833 v -6.87916661 c 0,-0.14657919 -0.118002,-0.26458339 -0.2645833,-0.26458339 h -3.70416657 -0.79375 z"
       id="path12329-7-3" />
    <path
       style="fill:url(#linearGradient891);fill-opacity:1;stroke-width:1.00000024"
       d="M 9 3 A 8.0000001 8.0000001 0 0 1 8.9609375 3.7988281 A 8.0000001 8.0000001 0 0 1 8.8398438 4.5898438 A 8.0000001 8.0000001 0 0 1 8.6425781 5.3632812 A 8.0000001 8.0000001 0 0 1 8.3691406 6.1152344 A 8.0000001 8.0000001 0 0 1 8.0214844 6.8359375 A 8.0000001 8.0000001 0 0 1 7.6035156 7.5175781 A 8.0000001 8.0000001 0 0 1 7.1191406 8.1542969 A 8.0000001 8.0000001 0 0 1 6.5742188 8.7382812 A 8.0000001 8.0000001 0 0 1 5.9726562 9.2675781 A 8.0000001 8.0000001 0 0 1 5.3222656 9.7324219 A 8.0000001 8.0000001 0 0 1 4.6289062 10.128906 A 8.0000001 8.0000001 0 0 1 3.8984375 10.457031 A 8.0000001 8.0000001 0 0 1 3.140625 10.708984 A 8.0000001 8.0000001 0 0 1 2.359375 10.882812 A 8.0000001 8.0000001 0 0 1 1.5664062 10.980469 A 8.0000001 8.0000001 0 0 1 1 11 L 1 24 L 1 25 L 24.080078 25 A 8.0000001 8.0000001 0 0 1 24.396484 24.482422 A 8.0000001 8.0000001 0 0 1 24.763672 24 A 8.0000001 8.0000001 0 0 1 24.880859 23.845703 A 8.0000001 8.0000001 0 0 1 25.425781 23.261719 A 8.0000001 8.0000001 0 0 1 26.027344 22.732422 A 8.0000001 8.0000001 0 0 1 26.677734 22.267578 A 8.0000001 8.0000001 0 0 1 27.371094 21.871094 A 8.0000001 8.0000001 0 0 1 28.101562 21.542969 A 8.0000001 8.0000001 0 0 1 28.859375 21.291016 A 8.0000001 8.0000001 0 0 1 29.640625 21.117188 A 8.0000001 8.0000001 0 0 1 30.433594 21.019531 A 8.0000001 8.0000001 0 0 1 31 21 L 31 3 L 16 3 L 14 3 L 9 3 z "
       transform="matrix(0.26458333,0,0,0.26458333,-4.0539548,-1.7220339)"
       id="path1821" />
    <path
       inkscape:connector-curvature="0"
       style="fill:#0b63cc;fill-opacity:1;stroke-width:0.26458332"
       d="m -0.87895467,0.65921605 c -0.14657923,0 -0.26458323,0.1180041 -0.26458323,0.2645833 0,0.14657925 0.118004,0.26458335 0.26458323,0.26458335 0.1465793,0 0.2645833,-0.1180041 0.2645833,-0.26458335 0,-0.1465792 -0.118004,-0.2645833 -0.2645833,-0.2645833 z m 1.5875001,0 -0.5291668,0.52916665 0.7937499,0.7937501 -0.7937499,0.79375 0.5291668,0.5291666 L 1.5022955,2.5112994 2.0314622,1.9821328 1.5022955,1.4529661 Z M -1.2758296,1.9821328 c -0.2198689,0 -0.3968751,0.1770062 -0.3968751,0.396875 0,0.2198687 0.1770062,0.396875 0.3968751,0.396875 0.2198687,0 0.39687493,-0.1770063 0.39687493,-0.396875 0,-0.2198688 -0.17700623,-0.396875 -0.39687493,-0.396875 z m 0.75085863,1.3229166 c -0.2931584,0 -0.52916663,0.2360084 -0.52916663,0.5291667 0,0.2931583 0.23600823,0.5291667 0.52916663,0.5291667 0.2931583,0 0.5291667,-0.2360084 0.5291667,-0.5291667 0,-0.2931583 -0.2360084,-0.5291667 -0.5291667,-0.5291667 z"
       id="path4783-5-3-5-6" />
    <path
       id="path1799-3"
       d="m -1.9372881,-0.92828262 a 1.8520833,1.8520833 0 0 1 -1.8520833,1.8520833 v -1.8520833 z"
       style="fill:#b7cfec;fill-opacity:1;stroke:none;stroke-width:0.52916664;stroke-linecap:round;stroke-linejoin:round;stroke-miterlimit:4;stroke-dasharray:none;stroke-opacity:1"
       inkscape:connector-curvature="0" />
    <path
       id="path1799-1-5"
       d="M 2.2960452,5.9508868 A 1.8520833,1.8520833 0 0 1 4.1481285,4.0988034 v 1.8520834 z"
       style="fill:#b7cfec;fill-opacity:1;stroke:none;stroke-width:0.52916664;stroke-linecap:round;stroke-linejoin:round;stroke-miterlimit:4;stroke-dasharray:none;stroke-opacity:1"
       inkscape:connector-curvature="0" />
    <path
       style="fill:#e6eef8;fill-opacity:1;stroke:none;stroke-width:0.40000001;stroke-linecap:round;stroke-linejoin:round;stroke-miterlimit:4;stroke-dasharray:none;stroke-opacity:1"
       d="M 12 8 C 11.446 8 11 8.4459999 11 9 C 11 9.5540001 11.446 10 12 10 C 12.554 10 13 9.5540001 13 9 C 13 8.4459999 12.554 8 12 8 z M 18 8 L 16 10 L 19 13 L 16 16 L 18 18 L 21 15 L 23 13 L 21 11 L 18 8 z M 10.5 13 C 9.6689994 13 9 13.669 9 14.5 C 9 15.331 9.6689994 16 10.5 16 C 11.331 16 12 15.331 12 14.5 C 12 13.669 11.331 13 10.5 13 z M 13.337891 18 C 12.22989 18 11.337891 18.892 11.337891 20 C 11.337891 21.108 12.22989 22 13.337891 22 C 14.445891 22 15.337891 21.108 15.337891 20 C 15.337891 18.892 14.445891 18 13.337891 18 z M 1 25 L 1 29 L 23 29 A 8.0000001 8.0000001 0 0 1 23.039062 28.201172 A 8.0000001 8.0000001 0 0 1 23.160156 27.410156 A 8.0000001 8.0000001 0 0 1 23.357422 26.636719 A 8.0000001 8.0000001 0 0 1 23.630859 25.884766 A 8.0000001 8.0000001 0 0 1 23.978516 25.164062 A 8.0000001 8.0000001 0 0 1 24.080078 25 L 1 25 z "
       transform="matrix(0.26458333,0,0,0.26458333,-4.0539548,-1.7220339)"
       id="path2604-7" />
  </g>
</svg>
