<?xml version="1.0" encoding="UTF-8" standalone="no"?>
<!-- Created with Inkscape (http://www.inkscape.org/) -->

<svg
   width="32"
   height="32"
   viewBox="0 0 8.4666664 8.4666666"
   version="1.1"
   id="svg5"
   inkscape:version="1.2 (dc2aedaf03, 2022-05-15)"
   sodipodi:docname="preferences-desktop-feedback.svg"
   xml:space="preserve"
   xmlns:inkscape="http://www.inkscape.org/namespaces/inkscape"
   xmlns:sodipodi="http://sodipodi.sourceforge.net/DTD/sodipodi-0.dtd"
   xmlns:xlink="http://www.w3.org/1999/xlink"
   xmlns="http://www.w3.org/2000/svg"
   xmlns:svg="http://www.w3.org/2000/svg"><sodipodi:namedview
     id="namedview7"
     pagecolor="#ffffff"
     bordercolor="#000000"
     borderopacity="0.25"
     inkscape:showpageshadow="false"
     inkscape:pageopacity="0.0"
     inkscape:pagecheckerboard="0"
     inkscape:deskcolor="#d1d1d1"
     inkscape:document-units="px"
     showgrid="true"
     inkscape:zoom="20.48"
     inkscape:cx="26.074219"
     inkscape:cy="29.321289"
     inkscape:window-width="2160"
     inkscape:window-height="1335"
     inkscape:window-x="0"
     inkscape:window-y="0"
     inkscape:window-maximized="1"
     inkscape:current-layer="g11186"><inkscape:grid
       type="xygrid"
       id="grid290"
       originx="0"
       originy="0" /></sodipodi:namedview><defs
     id="defs2"><style
       type="text/css"
       id="current-color-scheme">
      .ColorScheme-Text {
        color:#36404d;
      }
      </style><style
       id="current-color-scheme-3"
       type="text/css">
      .ColorScheme-Text {
        color:#36404d;
      }
      </style><linearGradient
       inkscape:collect="always"
       xlink:href="#linearGradient4774"
       id="linearGradient4657"
       gradientUnits="userSpaceOnUse"
       gradientTransform="matrix(0.26458333,0,0,0.26458333,10.573356,-78.681948)"
       x1="-31.75"
       y1="324.27499"
       x2="-31.75"
       y2="296.27499" /><linearGradient
       inkscape:collect="always"
       id="linearGradient4774"><stop
         style="stop-color:#f41e3d;stop-opacity:1"
         offset="0"
         id="stop4770" /><stop
         style="stop-color:#fc3a56;stop-opacity:1"
         offset="1"
         id="stop4772" /></linearGradient><linearGradient
       gradientTransform="translate(-52,-8.97697)"
       gradientUnits="userSpaceOnUse"
       y2="289.64999"
       x2="24"
       y1="303.64999"
       x1="24"
       id="linearGradient962"
       xlink:href="#linearGradient4631"
       inkscape:collect="always" /><linearGradient
       id="linearGradient4631"
       inkscape:collect="always"><stop
         id="stop4627"
         offset="0"
         style="stop-color:#f2c2ca;stop-opacity:1" /><stop
         id="stop4629"
         offset="1"
         style="stop-color:#ffffff;stop-opacity:1" /></linearGradient></defs><g
     inkscape:label="Capa 1"
     inkscape:groupmode="layer"
     id="layer1"><g
       inkscape:label="Capa 1"
       id="layer1-3"><g
         id="g9878"
         transform="translate(2.0604984,0.82168748)"><path
           inkscape:connector-curvature="0"
           style="fill:#cc0120;fill-opacity:1;stroke:none;stroke-width:1.05833;stroke-linecap:round;stroke-linejoin:round;stroke-miterlimit:4;stroke-dasharray:none;stroke-dashoffset:0;stroke-opacity:1"
           d="M -0.73758165,-0.55710409 H 5.0832516 c 0.5863167,0 1.0583333,0.47201666 1.0583333,1.05833332 V 6.3220625 c 0,0.5863166 -0.4720166,1.0583333 -1.0583333,1.0583333 h -5.82083325 c -0.58631665,0 -1.05833335,-0.4720167 -1.05833335,-1.0583333 V 0.50122923 c 0,-0.58631666 0.4720167,-1.05833332 1.05833335,-1.05833332 z"
           id="rect4556-1-8" /><path
           inkscape:connector-curvature="0"
           style="fill:url(#linearGradient4657);fill-opacity:1;stroke:none;stroke-width:1.05833;stroke-linecap:round;stroke-linejoin:round;stroke-miterlimit:4;stroke-dasharray:none;stroke-dashoffset:0;stroke-opacity:1"
           d="M -0.73758165,-0.29252076 H 5.0832516 c 0.4397375,0 0.79375,0.35401249 0.79375,0.79374999 V 6.3220625 c 0,0.4397375 -0.3540125,0.79375 -0.79375,0.79375 h -5.82083325 c -0.43973745,0 -0.79374995,-0.3540125 -0.79374995,-0.79375 V 0.50122923 c 0,-0.4397375 0.3540125,-0.79374999 0.79374995,-0.79374999 z"
           id="rect4556-9" /></g></g><g
       id="g5235"
       transform="matrix(0.26458333,0,0,0.26458333,5.6213623,-75.077478)"><g
         id="g447"
         transform="translate(38.753906,-2.8926731)"><g
           id="g11186"
           transform="translate(23,36.977064)"><g
             id="g503"
             transform="translate(-38.999993,-21)"><path
               style="opacity:0.99;vector-effect:none;fill:#cc0120;fill-opacity:1;stroke:none;stroke-width:2;stroke-linecap:round;stroke-linejoin:round;stroke-miterlimit:4;stroke-dasharray:none;stroke-dashoffset:0;stroke-opacity:1"
               d="m -32.000004,279.65152 c -2.738294,0 -4.945848,2.18039 -4.996094,4.90625 -0.0028,0.0312 -0.0041,0.0625 -0.0039,0.0937 0,0.19419 0.01382,0.38395 0.03516,0.57226 0.167523,2.11921 1.232482,4.11384 2.683594,5.92774 1.581261,1.97658 3.638974,3.76682 5.681641,5.29882 0.355407,0.26625 0.843811,0.26625 1.199218,0 2.042667,-1.532 4.10038,-3.32224 5.681641,-5.29882 1.451112,-1.8139 2.516071,-3.80853 2.683594,-5.92774 0.02133,-0.18826 0.03515,-0.37802 0.03515,-0.57221 -2.94e-4,-0.0333 -0.0022,-0.0665 -0.0059,-0.0996 -0.05334,-2.72305 -2.257816,-4.90039 -4.9941,-4.90039 -1.647081,0 -3.090068,0.79987 -4,2.02148 -0.909932,-1.22161 -2.352919,-2.02148 -4,-2.02148 z"
               id="rect934-6"
               inkscape:connector-curvature="0"
               sodipodi:nodetypes="scccsccscccscs" /><path
               style="opacity:0.99;vector-effect:none;fill:url(#linearGradient962);fill-opacity:1;stroke:none;stroke-width:2;stroke-linecap:round;stroke-linejoin:round;stroke-miterlimit:4;stroke-dasharray:none;stroke-dashoffset:0;stroke-opacity:1"
               d="m -32,278.67301 c -2.738294,0 -4.945848,2.18039 -4.996094,4.90625 -0.0028,0.0312 -0.0041,0.0625 -0.0039,0.0937 0,0.19419 0.01382,0.38395 0.03516,0.57226 0.167523,2.11921 1.232482,4.11384 2.683594,5.92774 1.581261,1.97658 3.638974,3.76682 5.681641,5.29882 0.355407,0.26625 0.843811,0.26625 1.199218,0 2.042667,-1.532 4.10038,-3.32224 5.681641,-5.29882 1.451112,-1.8139 2.516071,-3.80853 2.683594,-5.92774 0.02133,-0.18826 0.03515,-0.37802 0.03515,-0.57221 -2.94e-4,-0.0333 -0.0022,-0.0665 -0.0059,-0.0996 -0.05334,-2.72305 -2.257816,-4.90039 -4.9941,-4.90039 -1.647081,0 -3.090068,0.79987 -4,2.02148 -0.909932,-1.22161 -2.352919,-2.02148 -4,-2.02148 z"
               id="rect934"
               inkscape:connector-curvature="0"
               sodipodi:nodetypes="scccsccscccscs" /></g></g></g></g></g></svg>
