<?xml version="1.0" encoding="UTF-8" standalone="no"?>
<!-- Created with Inkscape (http://www.inkscape.org/) -->

<svg
   xmlns:dc="http://purl.org/dc/elements/1.1/"
   xmlns:cc="http://creativecommons.org/ns#"
   xmlns:rdf="http://www.w3.org/1999/02/22-rdf-syntax-ns#"
   xmlns:svg="http://www.w3.org/2000/svg"
   xmlns="http://www.w3.org/2000/svg"
   xmlns:xlink="http://www.w3.org/1999/xlink"
   xmlns:sodipodi="http://sodipodi.sourceforge.net/DTD/sodipodi-0.dtd"
   xmlns:inkscape="http://www.inkscape.org/namespaces/inkscape"
   width="32"
   height="32"
   viewBox="0 0 8.4666662 8.4666664"
   version="1.1"
   id="svg1399"
   inkscape:version="0.92.4 5da689c313, 2019-01-14"
   sodipodi:docname="preferences-system-network-nis.svg">
  <defs
     id="defs1393">
    <linearGradient
       gradientTransform="translate(-2.8518267,2.5963538)"
       inkscape:collect="always"
       xlink:href="#linearGradient4894"
       id="linearGradient5687"
       x1="-1.3229169"
       y1="296.47083"
       x2="-1.0583335"
       y2="289.0625"
       gradientUnits="userSpaceOnUse" />
    <linearGradient
       inkscape:collect="always"
       id="linearGradient4894">
      <stop
         style="stop-color:#306dee;stop-opacity:1"
         offset="0"
         id="stop4890" />
      <stop
         style="stop-color:#5795fb;stop-opacity:1"
         offset="1"
         id="stop4892" />
    </linearGradient>
  </defs>
  <sodipodi:namedview
     id="base"
     pagecolor="#ffffff"
     bordercolor="#666666"
     borderopacity="1.0"
     inkscape:pageopacity="0.0"
     inkscape:pageshadow="2"
     inkscape:zoom="22.4"
     inkscape:cx="11.492208"
     inkscape:cy="12.300402"
     inkscape:document-units="mm"
     inkscape:current-layer="layer1"
     showgrid="true"
     inkscape:showpageshadow="false"
     units="px"
     inkscape:window-width="1920"
     inkscape:window-height="1003"
     inkscape:window-x="0"
     inkscape:window-y="0"
     inkscape:window-maximized="1">
    <inkscape:grid
       type="xygrid"
       id="grid6884" />
  </sodipodi:namedview>
  <metadata
     id="metadata1396">
    <rdf:RDF>
      <cc:Work
         rdf:about="">
        <dc:format>image/svg+xml</dc:format>
        <dc:type
           rdf:resource="http://purl.org/dc/dcmitype/StillImage" />
        <dc:title />
      </cc:Work>
    </rdf:RDF>
  </metadata>
  <g
     inkscape:label="Capa 1"
     inkscape:groupmode="layer"
     id="layer1"
     transform="translate(0,-288.53338)">
    <g
       id="g6882"
       transform="translate(8.1434933,-2.5963067)">
      <path
         id="rect868-2-5"
         d="m -0.99974388,293.51099 h 0.529167 c 0.1465789,0 0.264583,0.11801 0.264583,0.26458 v 1.32292 c 0,0.14658 -0.1180041,0.26458 -0.264583,0.26458 h -0.529167 c -0.14657892,0 -0.26458302,-0.118 -0.26458302,-0.26458 v -1.32292 c 0,-0.14657 0.1180041,-0.26458 0.26458302,-0.26458 z"
         style="opacity:0.98000004;fill:#363c4d;fill-opacity:1;stroke:none;stroke-width:0.52916664;stroke-linecap:round;stroke-linejoin:round;stroke-miterlimit:4;stroke-dasharray:none;stroke-dashoffset:0;stroke-opacity:1"
         inkscape:connector-curvature="0" />
      <path
         inkscape:connector-curvature="0"
         id="rect868-6"
         d="m -0.99974328,291.6589 h 0.5291664 c 0.1465791,0 0.2645836,0.11801 0.2645836,0.26459 v 1.32291 c 0,0.14658 -0.1180045,0.26459 -0.2645836,0.26459 h -0.5291664 c -0.14657952,0 -0.26458362,-0.11801 -0.26458362,-0.26459 v -1.32291 c 0,-0.14658 0.1180041,-0.26459 0.26458362,-0.26459 z"
         style="opacity:0.98000004;fill:#cc0120;fill-opacity:1;stroke:none;stroke-width:0.52916664;stroke-linecap:round;stroke-linejoin:round;stroke-miterlimit:4;stroke-dasharray:none;stroke-dashoffset:0;stroke-opacity:1" />
      <path
         inkscape:connector-curvature="0"
         id="rect870-2"
         d="m -0.99974328,291.92349 h 0.5291664 v 1.32291 h -0.5291664 z"
         style="opacity:0.98000004;fill:#fc3a56;fill-opacity:1;stroke:none;stroke-width:0.52916664;stroke-linecap:round;stroke-linejoin:round;stroke-miterlimit:4;stroke-dasharray:none;stroke-dashoffset:0;stroke-opacity:1" />
      <path
         inkscape:connector-curvature="0"
         id="rect870-9-9"
         d="m -0.99974328,293.77557 h 0.5291664 v 1.32292 h -0.5291664 z"
         style="opacity:0.98000004;fill:#68718b;fill-opacity:1;stroke:none;stroke-width:0.52916664;stroke-linecap:round;stroke-linejoin:round;stroke-miterlimit:4;stroke-dasharray:none;stroke-dashoffset:0;stroke-opacity:1" />
      <path
         inkscape:connector-curvature="0"
         id="rect868-2-1-1"
         d="m -0.99974328,295.36307 h 0.5291664 c 0.1465791,0 0.2645836,0.118 0.2645836,0.26458 v 1.32292 c 0,0.14658 -0.1180045,0.26458 -0.2645836,0.26458 h -0.5291664 c -0.14657952,0 -0.26458362,-0.118 -0.26458362,-0.26458 v -1.32292 c 0,-0.14658 0.1180041,-0.26458 0.26458362,-0.26458 z"
         style="opacity:0.98000004;fill:#2aa65a;fill-opacity:1;stroke:none;stroke-width:0.52916664;stroke-linecap:round;stroke-linejoin:round;stroke-miterlimit:4;stroke-dasharray:none;stroke-dashoffset:0;stroke-opacity:1" />
      <path
         inkscape:connector-curvature="0"
         id="rect870-9-2-2"
         d="m -0.99974328,295.62765 h 0.5291664 v 1.32292 h -0.5291664 z"
         style="opacity:0.98000004;fill:#6bdf73;fill-opacity:1;stroke:none;stroke-width:0.52916664;stroke-linecap:round;stroke-linejoin:round;stroke-miterlimit:4;stroke-dasharray:none;stroke-dashoffset:0;stroke-opacity:1" />
      <path
         inkscape:connector-curvature="0"
         id="rect868-2-7-7"
         d="m -0.99974328,297.21515 h 0.5291664 c 0.1465791,0 0.2645836,0.11801 0.2645836,0.26459 v 1.32291 c 0,0.14658 -0.1180045,0.26459 -0.2645836,0.26459 h -0.5291664 c -0.14657952,0 -0.26458362,-0.11801 -0.26458362,-0.26459 v -1.32291 c 0,-0.14658 0.1180041,-0.26459 0.26458362,-0.26459 z"
         style="opacity:0.98000004;fill:#f89804;fill-opacity:1;stroke:none;stroke-width:0.52916664;stroke-linecap:round;stroke-linejoin:round;stroke-miterlimit:4;stroke-dasharray:none;stroke-dashoffset:0;stroke-opacity:1" />
      <path
         inkscape:connector-curvature="0"
         id="rect870-9-0-3"
         d="m -0.99974328,297.47974 h 0.5291664 v 1.32291 h -0.5291664 z"
         style="opacity:0.98000004;fill:#ffe200;fill-opacity:1;stroke:none;stroke-width:0.52916664;stroke-linecap:round;stroke-linejoin:round;stroke-miterlimit:4;stroke-dasharray:none;stroke-dashoffset:0;stroke-opacity:1" />
      <path
         id="rect843"
         d="M -7.3497433,291.39427 H -1.52891 c 0.2931586,0 0.52916672,0.23601 0.52916672,0.52917 v 6.87916 c 0,0.29316 -0.23600812,0.52917 -0.52916672,0.52917 h -5.8208333 c -0.2931583,0 -0.5291667,-0.23601 -0.5291667,-0.52917 v -6.87916 c 0,-0.29316 0.2360084,-0.52917 0.5291667,-0.52917 z"
         style="opacity:1;fill:#33518f;fill-opacity:1;stroke:none;stroke-width:0.63318545;stroke-linecap:round;stroke-linejoin:round;stroke-miterlimit:4;stroke-dasharray:none;stroke-opacity:1"
         inkscape:connector-curvature="0"
         sodipodi:nodetypes="sssssssss" />
      <path
         id="rect843-3"
         d="m -6.8205767,291.65885 v 7.40834 H -1.52891 c 0.1465789,0 0.2645836,-0.11801 0.2645836,-0.26459 v -6.87916 c 0,-0.14658 -0.1180047,-0.26459 -0.2645836,-0.26459 z"
         style="opacity:1;fill:url(#linearGradient5687);fill-opacity:1.0;stroke:none;stroke-width:0.59097308;stroke-linecap:round;stroke-linejoin:round;stroke-miterlimit:4;stroke-dasharray:none;stroke-opacity:1"
         inkscape:connector-curvature="0" />
      <path
         inkscape:connector-curvature="0"
         style="opacity:0.98000004;fill:#33518f;fill-opacity:1;stroke:none;stroke-width:0.52916664;stroke-linecap:round;stroke-linejoin:round;stroke-miterlimit:4;stroke-dasharray:none;stroke-dashoffset:0;stroke-opacity:1"
         d="m -4.1747433,294.0401 c -0.4397375,0 -0.79375,0.35401 -0.79375,0.79375 0,0.43974 0.3540125,0.79375 0.79375,0.79375 0.4397375,0 0.79375,-0.35401 0.79375,-0.79375 0,-0.43974 -0.3540125,-0.79375 -0.79375,-0.79375 z m 0,1.85208 c -0.7306268,0 -1.3229167,0.59229 -1.3229167,1.32292 0.5177827,0.20087 1.0470716,0.2789 1.5875,0.23823 v -0.23823 c 0,-0.0733 0.029692,-0.13925 0.077515,-0.18707 0.047823,-0.0478 0.1137761,-0.0775 0.1870686,-0.0775 h 0.010853 a 0.92604161,0.92604161 0 0 1 0.00775,-0.0517 0.92604161,0.92604161 0 0 1 0.022738,-0.0899 0.92604161,0.92604161 0 0 1 0.031523,-0.0868 0.92604161,0.92604161 0 0 1 0.040307,-0.0832 0.92604161,0.92604161 0 0 1 0.048576,-0.0791 0.92604161,0.92604161 0 0 1 0.055811,-0.0734 0.92604161,0.92604161 0 0 1 0.063562,-0.0682 0.92604161,0.92604161 0 0 1 0.03669,-0.0326 l 5.292e-4,-5.3e-4 h 5.291e-4 a 0.92604161,0.92604161 0 0 1 0.031523,-0.0279 0.92604161,0.92604161 0 0 1 0.062012,-0.0439 c -0.2401942,-0.25201 -0.5658635,-0.42115 -0.9415721,-0.42115 z m 1.4552083,0.52917 c -0.3664479,0 -0.6614583,0.29502 -0.6614583,0.66146 v 0.13229 c -0.1465808,0 -0.2645834,0.118 -0.2645834,0.26458 v 1.05833 c 0,0.14658 0.1180026,0.26459 0.2645834,0.26459 h 1.3229166 c 0.1465808,0 0.2645834,-0.11801 0.2645834,-0.26459 v -1.05833 c 0,-0.14658 -0.1180026,-0.26458 -0.2645834,-0.26458 v -0.13229 c 0,-0.36644 -0.2950104,-0.66146 -0.6614583,-0.66146 z m 0,0.52916 c 0.07329,0 0.1322917,0.059 0.1322917,0.1323 v 0.13229 h -0.2645834 v -0.13229 c 0,-0.0733 0.059002,-0.1323 0.1322917,-0.1323 z m -0.396875,0.79375 h 0.79375 v 0.52917 h -0.79375 z"
         id="path977-6" />
      <path
         inkscape:connector-curvature="0"
         style="opacity:0.98000004;fill:#ffffff;fill-opacity:1;stroke:none;stroke-width:0.52916664;stroke-linecap:round;stroke-linejoin:round;stroke-miterlimit:4;stroke-dasharray:none;stroke-dashoffset:0;stroke-opacity:1"
         d="m -4.1747433,293.77553 c -0.4397375,0 -0.79375,0.35401 -0.79375,0.79375 0,0.43974 0.3540125,0.79375 0.79375,0.79375 0.4397375,0 0.79375,-0.35401 0.79375,-0.79375 0,-0.43974 -0.3540125,-0.79375 -0.79375,-0.79375 z m 0,1.85208 c -0.7306268,0 -1.3229167,0.59229 -1.3229167,1.32292 0.5177827,0.20087 1.0470716,0.27891 1.5875,0.23823 v -0.23823 c 0,-0.0733 0.029692,-0.13925 0.077515,-0.18707 0.047823,-0.0478 0.1137761,-0.0775 0.1870686,-0.0775 h 0.010853 a 0.92604161,0.92604161 0 0 1 0.00775,-0.0517 0.92604161,0.92604161 0 0 1 0.022738,-0.0899 0.92604161,0.92604161 0 0 1 0.031523,-0.0868 0.92604161,0.92604161 0 0 1 0.040307,-0.0832 0.92604161,0.92604161 0 0 1 0.048576,-0.0791 0.92604161,0.92604161 0 0 1 0.055811,-0.0734 0.92604161,0.92604161 0 0 1 0.063562,-0.0682 0.92604161,0.92604161 0 0 1 0.03669,-0.0326 l 5.291e-4,-5.3e-4 h 5.292e-4 a 0.92604161,0.92604161 0 0 1 0.031523,-0.0279 0.92604161,0.92604161 0 0 1 0.062012,-0.0439 c -0.2401943,-0.25201 -0.5658635,-0.42115 -0.9415721,-0.42115 z m 1.4552083,0.52917 c -0.3664479,0 -0.6614583,0.29502 -0.6614583,0.66146 v 0.13229 c -0.1465808,0 -0.2645834,0.118 -0.2645834,0.26458 v 1.05834 c 0,0.14658 0.1180026,0.26458 0.2645834,0.26458 h 1.3229166 c 0.1465808,0 0.2645834,-0.118 0.2645834,-0.26458 v -1.05834 c 0,-0.14658 -0.1180026,-0.26458 -0.2645834,-0.26458 v -0.13229 c 0,-0.36644 -0.2950104,-0.66146 -0.6614583,-0.66146 z m 0,0.52917 c 0.07329,0 0.1322917,0.059 0.1322917,0.13229 v 0.13229 h -0.2645834 v -0.13229 c 0,-0.0733 0.059002,-0.13229 0.1322917,-0.13229 z m -0.396875,0.79375 h 0.79375 v 0.52916 h -0.79375 z"
         id="path977" />
    </g>
  </g>
</svg>
