<?xml version="1.0" encoding="UTF-8" standalone="no"?>
<!-- Created with Inkscape (http://www.inkscape.org/) -->

<svg
   xmlns:dc="http://purl.org/dc/elements/1.1/"
   xmlns:cc="http://creativecommons.org/ns#"
   xmlns:rdf="http://www.w3.org/1999/02/22-rdf-syntax-ns#"
   xmlns:svg="http://www.w3.org/2000/svg"
   xmlns="http://www.w3.org/2000/svg"
   xmlns:xlink="http://www.w3.org/1999/xlink"
   xmlns:sodipodi="http://sodipodi.sourceforge.net/DTD/sodipodi-0.dtd"
   xmlns:inkscape="http://www.inkscape.org/namespaces/inkscape"
   width="32"
   height="32"
   viewBox="0 0 32 32"
   version="1.1"
   id="svg8"
   inkscape:version="0.92.2 5c3e80d, 2017-08-06"
   sodipodi:docname="preferences-activities.svg">
  <title
     id="title7895">Antu icon Theme</title>
  <defs
     id="defs2">
    <linearGradient
       y2="288.98691"
       x2="8.4477682"
       y1="295.60147"
       x1="8.4477682"
       gradientTransform="matrix(3.5095612,0,0,3.5095612,-31.647957,-716.78151)"
       gradientUnits="userSpaceOnUse"
       id="linearGradient2237"
       xlink:href="#linearGradient4582"
       inkscape:collect="always" />
    <linearGradient
       inkscape:collect="always"
       id="linearGradient4582">
      <stop
         style="stop-color:#e3e3e3;stop-opacity:1"
         offset="0"
         id="stop4578" />
      <stop
         style="stop-color:#fcfcfc;stop-opacity:1"
         offset="1"
         id="stop4580" />
    </linearGradient>
    <linearGradient
       gradientTransform="matrix(2.519675,0,0,2.519675,-3.79447,-443.83807)"
       inkscape:collect="always"
       xlink:href="#linearGradient4902"
       id="linearGradient4536-5"
       x1="-3.6534665"
       y1="299.83554"
       x2="-3.6534665"
       y2="296.66052"
       gradientUnits="userSpaceOnUse" />
    <linearGradient
       inkscape:collect="always"
       id="linearGradient4902">
      <stop
         style="stop-color:#0d72ec;stop-opacity:1"
         offset="0"
         id="stop4898" />
      <stop
         style="stop-color:#36b2fb;stop-opacity:1"
         offset="1"
         id="stop4900" />
    </linearGradient>
    <linearGradient
       gradientTransform="matrix(2.519675,0,0,2.519675,18.205546,-443.83807)"
       inkscape:collect="always"
       xlink:href="#linearGradient4619"
       id="linearGradient4536-5-0"
       x1="-3.6534665"
       y1="299.83554"
       x2="-3.6534665"
       y2="296.66052"
       gradientUnits="userSpaceOnUse" />
    <linearGradient
       id="linearGradient4619"
       inkscape:collect="always">
      <stop
         id="stop4615"
         offset="0"
         style="stop-color:#67d924;stop-opacity:1" />
      <stop
         id="stop4617"
         offset="1"
         style="stop-color:#a3eb1e;stop-opacity:1" />
    </linearGradient>
    <linearGradient
       gradientTransform="matrix(2.5196733,0,0,2.5196733,7.20554,-443.83758)"
       inkscape:collect="always"
       xlink:href="#linearGradient1078"
       id="linearGradient4536"
       x1="-3.6534657"
       y1="299.43866"
       x2="-3.6534665"
       y2="296.66052"
       gradientUnits="userSpaceOnUse" />
    <linearGradient
       inkscape:collect="always"
       id="linearGradient1078">
      <stop
         style="stop-color:#de3f33;stop-opacity:1"
         offset="0"
         id="stop1074" />
      <stop
         style="stop-color:#f26156;stop-opacity:1"
         offset="1"
         id="stop1076" />
    </linearGradient>
  </defs>
  <sodipodi:namedview
     id="base"
     pagecolor="#ffffff"
     bordercolor="#666666"
     borderopacity="1.0"
     inkscape:pageopacity="0.0"
     inkscape:pageshadow="2"
     inkscape:zoom="5.6"
     inkscape:cx="14.870497"
     inkscape:cy="9.4235083"
     inkscape:document-units="px"
     inkscape:current-layer="layer1"
     showgrid="true"
     units="px"
     inkscape:window-width="1366"
     inkscape:window-height="697"
     inkscape:window-x="0"
     inkscape:window-y="0"
     inkscape:window-maximized="1"
     objecttolerance="10"
     gridtolerance="10"
     guidetolerance="10">
    <inkscape:grid
       type="xygrid"
       id="grid7897"
       empspacing="4" />
  </sodipodi:namedview>
  <metadata
     id="metadata5">
    <rdf:RDF>
      <cc:Work
         rdf:about="">
        <dc:format>image/svg+xml</dc:format>
        <dc:type
           rdf:resource="http://purl.org/dc/dcmitype/StillImage" />
        <dc:title>Antu icon Theme</dc:title>
      </cc:Work>
    </rdf:RDF>
  </metadata>
  <g
     inkscape:label="Capa 1"
     inkscape:groupmode="layer"
     id="layer1"
     transform="translate(0,-282.64999)">
    <g
       id="g1738"
       transform="translate(17.999992,-9)">
      <path
         inkscape:connector-curvature="0"
         style="opacity:1;fill:#808080;fill-opacity:1;stroke:none;stroke-width:2.23359871;stroke-linecap:round;stroke-linejoin:round;stroke-miterlimit:4;stroke-dasharray:none;stroke-opacity:1"
         d="m -14.133333,293.64999 h 24.266665 c 1.034135,0 1.866668,0.83254 1.866668,1.86667 v 24.26666 c 0,1.03413 -0.832533,1.86667 -1.866668,1.86667 H -14.133333 C -15.167467,321.64999 -16,320.81743 -16,319.7833 v -24.26664 c 0,-1.03413 0.832533,-1.86667 1.866667,-1.86667 z"
         id="rect843-0" />
      <path
         inkscape:connector-curvature="0"
         style="opacity:1;fill:url(#linearGradient2237);fill-opacity:1;stroke:none;stroke-width:2.07405591;stroke-linecap:round;stroke-linejoin:round;stroke-miterlimit:4;stroke-dasharray:none;stroke-opacity:1"
         d="m -14.071428,294.64999 h 24.142856 c 0.514429,0 0.928572,0.41413 0.928572,0.92856 v 24.14285 c 0,0.51441 -0.414143,0.92857 -0.928572,0.92857 H -14.071428 C -14.585857,320.64999 -15,320.23581 -15,319.7214 v -24.14285 c 0,-0.51443 0.414143,-0.92854 0.928572,-0.92856 z"
         id="rect843-3-9" />
      <path
         id="rect4496-3-9"
         d="m -13,302.65001 c 2.770001,0 5,2.22994 5,4.99996 0,2.76999 -2.229999,5 -5,5 -2.769999,0 -5,-2.23001 -5,-5 0,-2.77002 2.230001,-4.99996 5,-4.99996 z"
         style="fill:#0a5dbf;fill-opacity:1;stroke:none;stroke-width:0.4898864;stroke-linecap:round;stroke-linejoin:round;stroke-miterlimit:4;stroke-dasharray:none;stroke-opacity:1"
         inkscape:connector-curvature="0" />
      <path
         id="rect4570-9-6-5-1"
         d="m -13.000016,303.64999 c 2.215991,0 3.999984,1.784 3.999984,4 0,2.216 -1.783993,4 -3.999984,4 -2.215992,0 -3.999984,-1.784 -3.999984,-4 0,-2.216 1.783992,-4 3.999984,-4 z"
         style="fill:url(#linearGradient4536-5);fill-opacity:1;stroke:none;stroke-width:0.40062836;stroke-linecap:round;stroke-linejoin:round;stroke-miterlimit:4;stroke-dasharray:none;stroke-opacity:1"
         inkscape:connector-curvature="0" />
      <path
         id="rect4496-3"
         d="m -2,302.64999 c 2.77001,0 5.000017,2.22994 5.000017,4.99997 0,2.77002 -2.230007,5.00003 -5.000017,5.00003 -2.770009,0 -5.000017,-2.23003 -5.000017,-5.00003 0,-2.77001 2.230008,-4.99997 5.000017,-4.99997 z"
         style="fill:#b22c2c;fill-opacity:1;stroke:none;stroke-width:0.48988804;stroke-linecap:round;stroke-linejoin:round;stroke-miterlimit:4;stroke-dasharray:none;stroke-opacity:1"
         inkscape:connector-curvature="0" />
      <path
         id="rect4570-9-6-5"
         d="m -2,303.64999 c 2.21599,0 3.999981,1.78399 3.999981,4 0,2.216 -1.783991,4 -3.999981,4 -2.21599,0 -3.999981,-1.784 -3.999981,-4 0,-2.21601 1.783991,-4 3.999981,-4 z"
         style="fill:url(#linearGradient4536);fill-opacity:1;stroke:none;stroke-width:0.40062806;stroke-linecap:round;stroke-linejoin:round;stroke-miterlimit:4;stroke-dasharray:none;stroke-opacity:1"
         inkscape:connector-curvature="0" />
      <path
         id="rect4496-3-9-6"
         d="m 9.000016,302.65001 c 2.770001,0 5,2.22994 5,4.99995 0,2.77 -2.229999,5 -5,5 -2.769999,0 -5,-2.23 -5,-5 0,-2.77001 2.230001,-4.99995 5,-4.99995 z"
         style="fill:#56b21d;fill-opacity:1;stroke:none;stroke-width:0.4898864;stroke-linecap:round;stroke-linejoin:round;stroke-miterlimit:4;stroke-dasharray:none;stroke-opacity:1"
         inkscape:connector-curvature="0" />
      <path
         id="rect4570-9-6-5-1-1"
         d="m 9,303.64999 c 2.215991,0 3.999984,1.784 3.999984,4 0,2.21602 -1.783993,4 -3.999984,4 -2.215992,0 -3.999984,-1.78398 -3.999984,-4 0,-2.216 1.783992,-4 3.999984,-4 z"
         style="fill:url(#linearGradient4536-5-0);fill-opacity:1;stroke:none;stroke-width:0.40062836;stroke-linecap:round;stroke-linejoin:round;stroke-miterlimit:4;stroke-dasharray:none;stroke-opacity:1"
         inkscape:connector-curvature="0" />
    </g>
  </g>
</svg>
