<?xml version="1.0" encoding="UTF-8" standalone="no"?>
<!-- Created with Inkscape (http://www.inkscape.org/) -->

<svg
   xmlns:dc="http://purl.org/dc/elements/1.1/"
   xmlns:cc="http://creativecommons.org/ns#"
   xmlns:rdf="http://www.w3.org/1999/02/22-rdf-syntax-ns#"
   xmlns:svg="http://www.w3.org/2000/svg"
   xmlns="http://www.w3.org/2000/svg"
   xmlns:xlink="http://www.w3.org/1999/xlink"
   xmlns:sodipodi="http://sodipodi.sourceforge.net/DTD/sodipodi-0.dtd"
   xmlns:inkscape="http://www.inkscape.org/namespaces/inkscape"
   width="32"
   height="32"
   viewBox="0 0 32 32"
   version="1.1"
   id="svg8"
   inkscape:version="0.92.2 5c3e80d, 2017-08-06"
   sodipodi:docname="system-reboot.svg">
  <title
     id="title7895">Antu icon Theme</title>
  <defs
     id="defs2">
    <linearGradient
       gradientTransform="matrix(3.7795275,0,0,3.7795275,-4.1607151,-804.99458)"
       inkscape:collect="always"
       xlink:href="#linearGradient4565"
       id="linearGradient4567"
       x1="0.30710575"
       y1="298.62057"
       x2="0.30710575"
       y2="291.74139"
       gradientUnits="userSpaceOnUse" />
    <linearGradient
       inkscape:collect="always"
       id="linearGradient4565">
      <stop
         style="stop-color:#1780f2;stop-opacity:1"
         offset="0"
         id="stop4561" />
      <stop
         style="stop-color:#02b3fe;stop-opacity:1"
         offset="1"
         id="stop4563" />
    </linearGradient>
  </defs>
  <sodipodi:namedview
     id="base"
     pagecolor="#ffffff"
     bordercolor="#666666"
     borderopacity="1.0"
     inkscape:pageopacity="0.0"
     inkscape:pageshadow="2"
     inkscape:zoom="5.6"
     inkscape:cx="20.086728"
     inkscape:cy="10.432304"
     inkscape:document-units="px"
     inkscape:current-layer="g1605"
     showgrid="true"
     units="px"
     inkscape:window-width="1366"
     inkscape:window-height="697"
     inkscape:window-x="0"
     inkscape:window-y="0"
     inkscape:window-maximized="1"
     objecttolerance="10"
     gridtolerance="10"
     guidetolerance="10">
    <inkscape:grid
       type="xygrid"
       id="grid7897"
       empspacing="4" />
  </sodipodi:namedview>
  <metadata
     id="metadata5">
    <rdf:RDF>
      <cc:Work
         rdf:about="">
        <dc:format>image/svg+xml</dc:format>
        <dc:type
           rdf:resource="http://purl.org/dc/dcmitype/StillImage" />
        <dc:title>Antu icon Theme</dc:title>
      </cc:Work>
    </rdf:RDF>
  </metadata>
  <g
     inkscape:label="Capa 1"
     inkscape:groupmode="layer"
     id="layer1"
     transform="translate(0,-282.64999)">
    <g
       id="g1605"
       style="opacity:0.98000004"
       transform="translate(19,-11.99998)">
      <path
         inkscape:connector-curvature="0"
         style="fill:#1770d9;fill-opacity:1;stroke:none;stroke-width:1.46965909;stroke-linecap:round;stroke-linejoin:round;stroke-miterlimit:4;stroke-dasharray:none;stroke-opacity:1"
         d="m -3.0000001,295.65001 c 8.31,0 15.0000001,6.68984 15.0000001,14.99992 0,8.30994 -6.6900001,15 -15.0000001,15 -8.3099989,0 -14.9999999,-6.69006 -14.9999999,-15 0,-8.31008 6.690001,-14.99992 14.9999999,-14.99992 z"
         id="rect4496" />
      <path
         inkscape:connector-curvature="0"
         style="fill:url(#linearGradient4567);fill-opacity:1;stroke:none;stroke-width:1.40220487;stroke-linecap:round;stroke-linejoin:round;stroke-miterlimit:4;stroke-dasharray:none;stroke-opacity:1"
         d="M -2.9999991,296.64996 C 4.7559999,296.64996 11,302.89389 11,310.64993 11,318.40598 4.7559999,324.65002 -2.9999991,324.65002 -10.756,324.65002 -17,318.40598 -17,310.64993 c 0,-7.75604 6.244,-13.99997 14.0000009,-13.99997 z"
         id="rect4570-9-6" />
      <path
         inkscape:connector-curvature="0"
         style="opacity:0.98000004;fill:#1770d9;fill-opacity:0.98039216;stroke:none;stroke-width:3.83761263;stroke-linecap:round;stroke-linejoin:round;stroke-miterlimit:4;stroke-dasharray:none;stroke-opacity:1;paint-order:stroke markers fill"
         d="m -3.029297,300.65067 c -0.206095,0.006 -0.405289,0.0756 -0.570312,0.19921 l -4,3 c -0.534635,0.4 -0.534635,1.20157 0,1.60157 l 4,3 c 0.659495,0.49391 1.599846,0.0232 1.599609,-0.80078 v -0.91016 c 2.012112,0.3404 3.744112,1.68543 4.542969,3.61328 0.928794,2.24216 0.415392,4.82305 -1.300781,6.53906 -1.716015,1.71618 -4.296899,2.22958 -6.539063,1.30078 C -7.538514,317.26475 -9.000005,315.07714 -9,312.65066 v -0.5 c 0,-0.83099 -0.669,-1.5 -1.5,-1.5 -0.831,0 -1.5,0.66901 -1.5,1.5 v 0.5 0.5 c 0,0.11981 0.01863,0.23416 0.04492,0.34571 0.310734,3.2951 2.411566,6.18497 5.511719,7.46875 3.362703,1.39231 7.23298,0.62226 9.80664,-1.95117 2.573436,-2.57366 3.343483,-6.44394 1.951172,-9.80664 C 4.050781,306.15571 1.230672,304.07419 -2,303.71317 v -2.0625 c 1.84e-4,-0.56391 -0.465631,-1.01647 -1.029297,-1 z M -3,310.65066 c -1.108,0 -2,0.892 -2,2 0,1.108 0.892,2 2,2 1.108,0 2,-0.892 2,-2 0,-1.108 -0.892,-2 -2,-2 z"
         id="path1672-0" />
      <path
         style="opacity:0.98000004;fill:#e2f5ff;fill-opacity:0.98039216;stroke:none;stroke-width:3.83761263;stroke-linecap:round;stroke-linejoin:round;stroke-miterlimit:4;stroke-dasharray:none;stroke-opacity:1;paint-order:stroke markers fill"
         d="m -3.029297,299.65066 c -0.206095,0.006 -0.405289,0.0756 -0.570312,0.19922 l -4,3 c -0.534635,0.4 -0.534635,1.20157 0,1.60157 l 4,3 c 0.659495,0.49391 1.599846,0.0232 1.599609,-0.80079 v -0.91015 c 2.012112,0.3404 3.744112,1.68543 4.542969,3.61328 0.928794,2.24216 0.415392,4.82305 -1.300781,6.53906 -1.716015,1.71618 -4.296899,2.22958 -6.539063,1.30078 C -7.538514,316.26475 -9.0000051,314.07714 -9,311.65066 v -0.5 c 0,-0.831 -0.669,-1.5 -1.5,-1.5 -0.831,0 -1.5,0.669 -1.5,1.5 v 0.5 0.5 c 0,0.11981 0.01863,0.23416 0.04492,0.34571 0.310734,3.2951 2.4115659,6.18497 5.511719,7.46875 3.362703,1.39231 7.23298,0.62226 9.80664,-1.95117 2.573436,-2.57366 3.343483,-6.44394 1.951172,-9.80664 C 4.050781,305.15571 1.230672,303.07419 -2,302.71316 v -2.0625 c 1.84e-4,-0.5639 -0.465631,-1.01646 -1.029297,-1 z m 0.029297,10 c -1.108,0 -2,0.892 -2,2 0,1.108 0.892,2 2,2 1.108,0 2,-0.892 2,-2 0,-1.108 -0.892,-2 -2,-2 z"
         id="path1672"
         inkscape:connector-curvature="0" />
      <g
         transform="translate(-24,295.64997)"
         style="fill:none;fill-rule:evenodd;stroke:none;stroke-width:1;stroke-linejoin:round"
         id="Page-1">
        <g
           style="stroke:#333333;stroke-width:2"
           id="Artboard-4"
           transform="translate(-532,-115)">
          <g
             id="12"
             transform="translate(532,115)" />
        </g>
      </g>
    </g>
  </g>
</svg>
