<?xml version="1.0" encoding="UTF-8" standalone="no"?>
<!-- Created with Inkscape (http://www.inkscape.org/) -->

<svg
   xmlns:dc="http://purl.org/dc/elements/1.1/"
   xmlns:cc="http://creativecommons.org/ns#"
   xmlns:rdf="http://www.w3.org/1999/02/22-rdf-syntax-ns#"
   xmlns:svg="http://www.w3.org/2000/svg"
   xmlns="http://www.w3.org/2000/svg"
   xmlns:xlink="http://www.w3.org/1999/xlink"
   xmlns:sodipodi="http://sodipodi.sourceforge.net/DTD/sodipodi-0.dtd"
   xmlns:inkscape="http://www.inkscape.org/namespaces/inkscape"
   width="32"
   height="32"
   viewBox="0 0 32 32"
   version="1.1"
   id="svg8"
   inkscape:version="0.92.2 5c3e80d, 2017-08-06"
   sodipodi:docname="system-file-manager-root.svg">
  <title
     id="title7895">Antu icon Theme</title>
  <defs
     id="defs2">
    <linearGradient
       gradientUnits="userSpaceOnUse"
       y2="1.5874833"
       x2="4.7625046"
       y1="7.6729002"
       x1="4.7625046"
       id="linearGradient10233"
       xlink:href="#linearGradient4774"
       inkscape:collect="always"
       gradientTransform="matrix(3.7795275,0,0,3.7795275,20,274.64993)" />
    <linearGradient
       gradientUnits="userSpaceOnUse"
       y2="293.93365"
       x2="5.4570312"
       y1="295.52115"
       x1="5.4570312"
       id="linearGradient13069"
       xlink:href="#d-8-2"
       inkscape:collect="always"
       gradientTransform="matrix(3.7795275,0,0,3.7795275,15.375,-818.28051)" />
    <linearGradient
       y2="517.62"
       y1="545.62"
       x2="0"
       gradientUnits="userSpaceOnUse"
       id="d-8-2">
      <stop
         id="stop9-5-9"
         stop-color="#e3e3e3"
         offset="0" />
      <stop
         id="stop11-8-1"
         stop-color="#fcf9f9"
         offset="1" />
    </linearGradient>
    <linearGradient
       gradientUnits="userSpaceOnUse"
       y2="0.79373336"
       x2="1.8520881"
       y1="2.3812332"
       x1="1.8520881"
       id="linearGradient10241"
       xlink:href="#d-8-2"
       inkscape:collect="always"
       gradientTransform="matrix(3.7795275,0,0,3.7795275,20,274.64993)" />
    <linearGradient
       inkscape:collect="always"
       id="linearGradient4774">
      <stop
         style="stop-color:#f41e3d;stop-opacity:1"
         offset="0"
         id="stop4770" />
      <stop
         style="stop-color:#fc3a56;stop-opacity:1"
         offset="1"
         id="stop4772" />
    </linearGradient>
  </defs>
  <sodipodi:namedview
     id="base"
     pagecolor="#ffffff"
     bordercolor="#666666"
     borderopacity="1.0"
     inkscape:pageopacity="0.0"
     inkscape:pageshadow="2"
     inkscape:zoom="2"
     inkscape:cx="81.817035"
     inkscape:cy="19.703014"
     inkscape:document-units="px"
     inkscape:current-layer="layer1"
     showgrid="true"
     units="px"
     inkscape:window-width="1360"
     inkscape:window-height="699"
     inkscape:window-x="0"
     inkscape:window-y="0"
     inkscape:window-maximized="1"
     objecttolerance="10"
     gridtolerance="10"
     guidetolerance="10">
    <inkscape:grid
       type="xygrid"
       id="grid7897"
       empspacing="4" />
  </sodipodi:namedview>
  <metadata
     id="metadata5">
    <rdf:RDF>
      <cc:Work
         rdf:about="">
        <dc:format>image/svg+xml</dc:format>
        <dc:type
           rdf:resource="http://purl.org/dc/dcmitype/StillImage" />
        <dc:title>Antu icon Theme</dc:title>
      </cc:Work>
    </rdf:RDF>
  </metadata>
  <g
     inkscape:label="Capa 1"
     inkscape:groupmode="layer"
     id="layer1"
     transform="translate(0,-282.64999)">
    <g
       id="g1670"
       transform="translate(-20,8)">
      <path
         sodipodi:nodetypes="ccccccc"
         inkscape:connector-curvature="0"
         id="path13-6-7-64-1-3-02-8-0"
         d="m 21,277.64999 h 12 l 3,6 h 15.000001 v 20 H 21 Z"
         style="fill:url(#linearGradient10241);fill-opacity:1;stroke-width:1.00000012" />
      <path
         sodipodi:nodetypes="ssssssssccsccccccc"
         inkscape:connector-curvature="0"
         style="fill:#636e8c;fill-opacity:1;stroke-width:1.00000012"
         id="path13-6-3-1-3-0-7-7"
         d="m 21,276.64999 c -0.55401,0 -1,0.44598 -1,1 v 26 c 0,0.554 0.44599,1 1,1 h 30.000001 c 0.554009,0 0.999999,-0.446 0.999999,-1 v -20 c 0,-0.55402 -0.450268,-1.0687 -0.999999,-1 H 37 l -3,-6 z m 0,1 h 12 l 3,6 h 15.000001 v 20 H 21 Z" />
      <path
         sodipodi:nodetypes="sssssscsccsccccccc"
         inkscape:connector-curvature="0"
         style="fill:#d90122;fill-opacity:1;stroke-width:1.00000012"
         id="path13-0-0-9-9-8"
         d="m 21.000051,283.64999 c -0.55401,0 -0.999998,0.44601 -1,1.00002 L 20,303.64999 c -2e-6,0.554 0.44599,1 1,1 h 30.000001 c 0.554009,0 0.999999,-0.446 0.999999,-1 v -23 c 0,0 0,-1 -0.999999,-1 H 35 l -1.999948,4.00003 z m 0,1.00002 H 34.000052 L 36,280.64999 h 15.000001 v 23 H 21 Z" />
      <path
         inkscape:connector-curvature="0"
         id="path13-5-2-9-4-2-6-9"
         d="m 21.00005,284.65 h 13.000001 l 1.999948,-4.00002 H 51 v 23.00001 H 20.999999 Z"
         style="fill:url(#linearGradient10233);fill-opacity:1.0;stroke-width:1.00000012"
         sodipodi:nodetypes="ccccccc" />
      <path
         inkscape:connector-curvature="0"
         id="Triangle-1"
         d="m 35.978081,288.64999 c -0.288252,0.007 -0.559496,0.1379 -0.74414,0.35937 l -5,6 c -0.543022,0.65114 -0.08028,1.64022 0.767578,1.64063 v 4 c 0,0.55403 0.445967,1 1,1 h 8 c 0.554033,0 1,-0.44597 1,-1 v -4 c 0.847862,-4.3e-4 1.310601,-0.98949 0.767578,-1.64063 l -0.767578,-0.92187 v -2.4375 c 0,-0.55399 -0.446,-1 -1,-1 -0.554,0 -1,0.44601 -1,1 v 0.0391 l -2.232422,-2.67968 c -0.195151,-0.23404 -0.486363,-0.36636 -0.791016,-0.35938 z"
         style="color:#000000;font-style:normal;font-variant:normal;font-weight:normal;font-stretch:normal;font-size:medium;line-height:normal;font-family:sans-serif;font-variant-ligatures:normal;font-variant-position:normal;font-variant-caps:normal;font-variant-numeric:normal;font-variant-alternates:normal;font-feature-settings:normal;text-indent:0;text-align:start;text-decoration:none;text-decoration-line:none;text-decoration-style:solid;text-decoration-color:#000000;letter-spacing:normal;word-spacing:normal;text-transform:none;writing-mode:lr-tb;direction:ltr;text-orientation:mixed;dominant-baseline:auto;baseline-shift:baseline;text-anchor:start;white-space:normal;shape-padding:0;clip-rule:nonzero;display:inline;overflow:visible;visibility:visible;opacity:1;isolation:auto;mix-blend-mode:normal;color-interpolation:sRGB;color-interpolation-filters:linearRGB;solid-color:#000000;solid-opacity:1;vector-effect:none;fill:#d90122;fill-opacity:1;fill-rule:nonzero;stroke:none;stroke-width:2;stroke-linecap:butt;stroke-linejoin:miter;stroke-miterlimit:4;stroke-dasharray:none;stroke-dashoffset:0;stroke-opacity:1;color-rendering:auto;image-rendering:auto;shape-rendering:auto;text-rendering:auto;enable-background:accumulate" />
      <path
         inkscape:connector-curvature="0"
         id="Triangle-1-1"
         d="m 35.978081,287.64988 c -0.288253,0.008 -0.559496,0.13795 -0.74414,0.35943 l -4.999999,6 c -0.543023,0.65114 -0.08028,1.6402 0.767577,1.64062 v 3.99999 c 0,0.55404 0.445968,0.99998 1,0.99998 h 8 c 0.554033,0 1,-0.44594 1,-0.99998 v -3.99999 c 0.847862,-4.2e-4 1.310601,-0.98948 0.767578,-1.64062 l -0.767578,-0.9219 v -2.43749 c 0,-0.55401 -0.446,-0.99999 -1,-0.99999 -0.554,0 -1,0.44598 -1,0.99999 v 0.0389 l -2.232422,-2.67969 c -0.195152,-0.23395 -0.486363,-0.36622 -0.791016,-0.35942 z"
         style="color:#000000;font-style:normal;font-variant:normal;font-weight:normal;font-stretch:normal;font-size:medium;line-height:normal;font-family:sans-serif;font-variant-ligatures:normal;font-variant-position:normal;font-variant-caps:normal;font-variant-numeric:normal;font-variant-alternates:normal;font-feature-settings:normal;text-indent:0;text-align:start;text-decoration:none;text-decoration-line:none;text-decoration-style:solid;text-decoration-color:#000000;letter-spacing:normal;word-spacing:normal;text-transform:none;writing-mode:lr-tb;direction:ltr;text-orientation:mixed;dominant-baseline:auto;baseline-shift:baseline;text-anchor:start;white-space:normal;shape-padding:0;clip-rule:nonzero;display:inline;overflow:visible;visibility:visible;opacity:1;isolation:auto;mix-blend-mode:normal;color-interpolation:sRGB;color-interpolation-filters:linearRGB;solid-color:#000000;solid-opacity:1;vector-effect:none;fill:url(#linearGradient13069);fill-opacity:1;fill-rule:nonzero;stroke:none;stroke-width:2;stroke-linecap:butt;stroke-linejoin:miter;stroke-miterlimit:4;stroke-dasharray:none;stroke-dashoffset:0;stroke-opacity:1;color-rendering:auto;image-rendering:auto;shape-rendering:auto;text-rendering:auto;enable-background:accumulate" />
    </g>
  </g>
</svg>
