<?xml version="1.0" encoding="UTF-8" standalone="no"?>
<!-- Created with Inkscape (http://www.inkscape.org/) -->

<svg
   xmlns:dc="http://purl.org/dc/elements/1.1/"
   xmlns:cc="http://creativecommons.org/ns#"
   xmlns:rdf="http://www.w3.org/1999/02/22-rdf-syntax-ns#"
   xmlns:svg="http://www.w3.org/2000/svg"
   xmlns="http://www.w3.org/2000/svg"
   xmlns:xlink="http://www.w3.org/1999/xlink"
   xmlns:sodipodi="http://sodipodi.sourceforge.net/DTD/sodipodi-0.dtd"
   xmlns:inkscape="http://www.inkscape.org/namespaces/inkscape"
   width="32"
   height="32"
   viewBox="0 0 32 32"
   version="1.1"
   id="svg8"
   inkscape:version="0.92.4 5da689c313, 2019-01-14"
   sodipodi:docname="transmission.svg">
  <title
     id="title7895">Antu icon Theme</title>
  <defs
     id="defs2">
    <style
       type="text/css"
       id="current-color-scheme">
      .ColorScheme-Text {
        color:#122036;
      }
      </style>
    <style
       id="current-color-scheme-53"
       type="text/css">
      .ColorScheme-Text {
        color:#122036;
      }
      </style>
    <style
       type="text/css"
       id="current-color-scheme-5">
      .ColorScheme-Text {
        color:#122036;
      }
      </style>
    <style
       type="text/css"
       id="current-color-scheme-2">
      .ColorScheme-Text {
        color:#122036;
      }
      </style>
    <style
       type="text/css"
       id="current-color-scheme-1">
      .ColorScheme-Text {
        color:#122036;
      }
      </style>
    <style
       id="current-color-scheme-10"
       type="text/css">
      .ColorScheme-Text {
        color:#122036;
      }
      </style>
    <style
       type="text/css"
       id="current-color-scheme-0">
      .ColorScheme-Text {
        color:#122036;
      }
      </style>
    <style
       type="text/css"
       id="current-color-scheme-26">
      .ColorScheme-Text {
        color:#122036;
      }
      </style>
    <style
       type="text/css"
       id="current-color-scheme-7">
      .ColorScheme-Text {
        color:#122036;
      }
      </style>
    <style
       id="current-color-scheme-535"
       type="text/css">
      .ColorScheme-Text {
        color:#122036;
      }
      </style>
    <style
       type="text/css"
       id="current-color-scheme-53-6">
      .ColorScheme-Text {
        color:#122036;
      }
      </style>
    <style
       id="current-color-scheme-5-2"
       type="text/css">
      .ColorScheme-Text {
        color:#122036;
      }
      </style>
    <style
       id="current-color-scheme-2-9"
       type="text/css">
      .ColorScheme-Text {
        color:#122036;
      }
      </style>
    <style
       id="current-color-scheme-1-1"
       type="text/css">
      .ColorScheme-Text {
        color:#122036;
      }
      </style>
    <style
       type="text/css"
       id="current-color-scheme-10-2">
      .ColorScheme-Text {
        color:#122036;
      }
      </style>
    <style
       id="current-color-scheme-0-7"
       type="text/css">
      .ColorScheme-Text {
        color:#122036;
      }
      </style>
    <style
       id="current-color-scheme-26-0"
       type="text/css">
      .ColorScheme-Text {
        color:#122036;
      }
      </style>
    <style
       id="current-color-scheme-7-9"
       type="text/css">
      .ColorScheme-Text {
        color:#122036;
      }
      </style>
    <style
       type="text/css"
       id="current-color-scheme-5356">
      .ColorScheme-Text {
        color:#122036;
      }
      </style>
    <style
       id="current-color-scheme-53-2"
       type="text/css">
      .ColorScheme-Text {
        color:#122036;
      }
      </style>
    <style
       type="text/css"
       id="current-color-scheme-5-9">
      .ColorScheme-Text {
        color:#122036;
      }
      </style>
    <style
       type="text/css"
       id="current-color-scheme-2-1">
      .ColorScheme-Text {
        color:#122036;
      }
      </style>
    <style
       type="text/css"
       id="current-color-scheme-1-2">
      .ColorScheme-Text {
        color:#122036;
      }
      </style>
    <style
       id="current-color-scheme-10-7"
       type="text/css">
      .ColorScheme-Text {
        color:#122036;
      }
      </style>
    <style
       type="text/css"
       id="current-color-scheme-0-0">
      .ColorScheme-Text {
        color:#122036;
      }
      </style>
    <style
       type="text/css"
       id="current-color-scheme-26-9">
      .ColorScheme-Text {
        color:#122036;
      }
      </style>
    <style
       type="text/css"
       id="current-color-scheme-7-3">
      .ColorScheme-Text {
        color:#122036;
      }
      </style>
    <linearGradient
       inkscape:collect="always"
       xlink:href="#linearGradient835"
       id="linearGradient885"
       x1="-5"
       y1="316.64999"
       x2="-5"
       y2="289.64999"
       gradientUnits="userSpaceOnUse" />
    <linearGradient
       id="linearGradient835"
       inkscape:collect="always">
      <stop
         id="stop831"
         offset="0"
         style="stop-color:#7986cb;stop-opacity:1;" />
      <stop
         id="stop833"
         offset="1"
         style="stop-color:#828fd9;stop-opacity:1" />
    </linearGradient>
    <style
       type="text/css"
       id="current-color-scheme-9">
      .ColorScheme-Text {
        color:#122036;
      }
      </style>
    <style
       id="current-color-scheme-53-20"
       type="text/css">
      .ColorScheme-Text {
        color:#122036;
      }
      </style>
    <style
       type="text/css"
       id="current-color-scheme-5-23">
      .ColorScheme-Text {
        color:#122036;
      }
      </style>
    <style
       type="text/css"
       id="current-color-scheme-2-7">
      .ColorScheme-Text {
        color:#122036;
      }
      </style>
    <style
       type="text/css"
       id="current-color-scheme-1-5">
      .ColorScheme-Text {
        color:#122036;
      }
      </style>
    <style
       id="current-color-scheme-10-9"
       type="text/css">
      .ColorScheme-Text {
        color:#122036;
      }
      </style>
    <style
       type="text/css"
       id="current-color-scheme-0-2">
      .ColorScheme-Text {
        color:#122036;
      }
      </style>
    <style
       type="text/css"
       id="current-color-scheme-26-2">
      .ColorScheme-Text {
        color:#122036;
      }
      </style>
    <style
       type="text/css"
       id="current-color-scheme-7-8">
      .ColorScheme-Text {
        color:#122036;
      }
      </style>
  </defs>
  <sodipodi:namedview
     id="base"
     pagecolor="#ffffff"
     bordercolor="#666666"
     borderopacity="1.0"
     inkscape:pageopacity="0.0"
     inkscape:pageshadow="2"
     inkscape:zoom="15.839192"
     inkscape:cx="22.592906"
     inkscape:cy="8.6220856"
     inkscape:document-units="px"
     inkscape:current-layer="g2317"
     showgrid="true"
     units="px"
     inkscape:window-width="1920"
     inkscape:window-height="1049"
     inkscape:window-x="0"
     inkscape:window-y="0"
     inkscape:window-maximized="1"
     objecttolerance="10"
     gridtolerance="10"
     guidetolerance="10"
     showguides="false">
    <inkscape:grid
       type="xygrid"
       id="grid7897"
       empspacing="4" />
  </sodipodi:namedview>
  <metadata
     id="metadata5">
    <rdf:RDF>
      <cc:Work
         rdf:about="">
        <dc:format>image/svg+xml</dc:format>
        <dc:type
           rdf:resource="http://purl.org/dc/dcmitype/StillImage" />
        <dc:title>Antu icon Theme</dc:title>
      </cc:Work>
    </rdf:RDF>
  </metadata>
  <g
     inkscape:label="Capa 1"
     inkscape:groupmode="layer"
     id="layer1"
     transform="translate(0,-282.64999)">
    <g
       id="g2317"
       transform="translate(21,-5)">
      <path
         style="opacity:1;fill:#4a5599;fill-opacity:1;stroke:none;stroke-width:1.97685266;stroke-linecap:round;stroke-linejoin:round;stroke-miterlimit:4;stroke-dasharray:none;stroke-opacity:1"
         d="m -5,288.64999 c 8.31,0 15,6.69 15,15 0,8.31 -6.69,15 -15,15 -8.31,0 -15,-6.69 -15,-15 0,-8.31 6.69,-15 15,-15 z"
         id="rect903"
         inkscape:connector-curvature="0" />
      <path
         style="opacity:1;fill:url(#linearGradient885);fill-opacity:1;stroke:none;stroke-width:1.84506249;stroke-linecap:round;stroke-linejoin:round;stroke-miterlimit:4;stroke-dasharray:none;stroke-opacity:1"
         d="m -5,289.64999 c 7.756,0 14,6.244 14,14 0,7.756 -6.244,14 -14,14 -7.756,0 -14,-6.244 -14,-14 0,-7.756 6.244,-14 14,-14 z"
         id="rect903-2"
         inkscape:connector-curvature="0" />
      <path
         inkscape:connector-curvature="0"
         style="opacity:1;vector-effect:none;fill:#4a5599;fill-opacity:0.98431373;stroke:none;stroke-width:2;stroke-linecap:round;stroke-linejoin:round;stroke-miterlimit:4;stroke-dasharray:none;stroke-dashoffset:0;stroke-opacity:1;paint-order:normal"
         d="m -4.853509,294.65201 a 10,10 0 0 0 -7.216796,2.92774 10,10 0 0 0 -2.167969,10.89648 10,10 0 0 0 9.238281,6.17383 v -2 a 8,8 0 0 1 -0.798828,-0.0391 8,8 0 0 1 -0.791016,-0.1211 8,8 0 0 1 -0.773437,-0.19726 8,8 0 0 1 -0.7519534,-0.27344 8,8 0 0 1 -0.720704,-0.34765 8,8 0 0 1 -0.68164,-0.41797 8,8 0 0 1 -0.6367186,-0.48438 8,8 0 0 1 -0.583984,-0.54492 8,8 0 0 1 -0.529297,-0.60156 8,8 0 0 1 -0.464844,-0.65039 8,8 0 0 1 -0.396484,-0.69336 8,8 0 0 1 -0.261719,-0.56836 8,8 0 0 1 -0.269531,-0.75196 8,8 0 0 1 -0.191406,-0.77734 8,8 0 0 1 -0.113282,-0.79101 8,8 0 0 1 -0.03516,-0.79883 8,8 0 0 1 0.04687,-0.79883 8,8 0 0 1 0.125,-0.78906 8,8 0 0 1 0.203125,-0.77344 8,8 0 0 1 0.279297,-0.75 8,8 0 0 1 0.353516,-0.7168 8,8 0 0 1 0.421875,-0.67773 8,8 0 0 1 0.490234,-0.63477 8,8 0 0 1 0.423828,-0.45703 8,8 0 0 1 0.591797,-0.53711 8,8 0 0 1 0.6445306,-0.47461 8,8 0 0 1 0.6875,-0.4082 8,8 0 0 1 0.72461,-0.33789 8,8 0 0 1 0.7558594,-0.26172 8,8 0 0 1 0.777344,-0.1875 8,8 0 0 1 0.792968,-0.10742 8,8 0 0 1 0.798829,-0.0293 8,8 0 0 1 0.796874,0.0527 8,8 0 0 1 0.789063,0.13086 8,8 0 0 1 0.771484,0.20899 8,8 0 0 1 0.585938,0.2168 8,8 0 0 1 0.722656,0.34179 8,8 0 0 1 0.685547,0.41406 8,8 0 0 1 0.640625,0.47852 8,8 0 0 1 0.587891,0.54102 8,8 0 0 1 0.533203,0.59765 8,8 0 0 1 0.46875,0.64649 8,8 0 0 1 0.404297,0.68945 8,8 0 0 1 0.332031,0.72852 8,8 0 0 1 0.257812,0.75781 8,8 0 0 1 0.179688,0.77734 8,8 0 0 1 0.103515,0.79297 8,8 0 0 1 0.02344,0.625 h 2 a 10,10 0 0 0 -6.17383,-9.23828 10,10 0 0 0 -3.679688,-0.75977 z m -0.04492,2.99805 a 7,7 0 0 0 -5.0507814,2.05078 7,7 0 0 0 -1.5175776,7.62891 7,7 0 0 0 6.466797,4.32031 v -2 a 5,5 0 0 1 -0.5,-0.0254 5,5 0 0 1 -0.494141,-0.0742 5,5 0 0 1 -0.484375,-0.12305 5,5 0 0 1 -0.46875,-0.17187 5,5 0 0 1 -0.449218,-0.2168 5,5 0 0 1 -0.425782,-0.26172 5,5 0 0 1 -0.3984374,-0.30273 5,5 0 0 1 -0.365235,-0.33984 5,5 0 0 1 -0.330078,-0.37696 5,5 0 0 1 -0.291015,-0.40625 5,5 0 0 1 -0.248047,-0.43359 5,5 0 0 1 -0.164063,-0.35352 5,5 0 0 1 -0.167968,-0.4707 5,5 0 0 1 -0.121094,-0.48633 5,5 0 0 1 -0.07031,-0.49414 5,5 0 0 1 -0.02148,-0.5 5,5 0 0 1 0.0293,-0.49805 5,5 0 0 1 0.07813,-0.49414 5,5 0 0 1 0.126953,-0.48242 5,5 0 0 1 0.173828,-0.46875 5,5 0 0 1 0.220703,-0.44922 5,5 0 0 1 0.265625,-0.42383 5,5 0 0 1 0.304688,-0.39453 5,5 0 0 1 0.265625,-0.28711 5,5 0 0 1 0.371094,-0.33593 5,5 0 0 1 0.4023434,-0.29688 5,5 0 0 1 0.429688,-0.25391 5,5 0 0 1 0.453125,-0.21093 5,5 0 0 1 0.470703,-0.16407 5,5 0 0 1 0.486328,-0.11718 5,5 0 0 1 0.496094,-0.0684 5,5 0 0 1 0.498032,-0.0176 5,5 0 0 1 0.5,0.0332 5,5 0 0 1 0.492187,0.082 5,5 0 0 1 0.482422,0.13086 5,5 0 0 1 0.367187,0.13477 5,5 0 0 1 0.451172,0.21289 5,5 0 0 1 0.427735,0.25976 5,5 0 0 1 0.40039,0.29883 5,5 0 0 1 0.367188,0.33789 5,5 0 0 1 0.333984,0.37305 5,5 0 0 1 0.292969,0.40429 5,5 0 0 1 0.251953,0.43165 5,5 0 0 1 0.207031,0.45507 5,5 0 0 1 0.16211,0.47266 5,5 0 0 1 0.113281,0.48633 5,5 0 0 1 0.0625,0.49609 5,5 0 0 1 0.01563,0.39063 h 2 a 7,7 0 0 0 -4.320319,-6.4668 7,7 0 0 0 -2.578126,-0.5332 z m -0.04297,3 a 4,4 0 0 0 -2.886717,1.17188 4,4 0 0 0 -0.8671874,4.35937 4,4 0 0 0 3.6953124,2.46875 v -2 a 2,2 0 0 1 -0.199219,-0.01 2,2 0 0 1 -0.197265,-0.0293 2,2 0 0 1 -0.195313,-0.0508 2,2 0 0 1 -0.1875,-0.0684 2,2 0 0 1 -0.179687,-0.0859 2,2 0 0 1 -0.169922,-0.10547 2,2 0 0 1 -0.160156,-0.12109 2,2 0 0 1 -0.146485,-0.13672 2,2 0 0 1 -0.130859,-0.14844 2,2 0 0 1 -0.117188,-0.16406 2,2 0 0 1 -0.09961,-0.17383 2,2 0 0 1 -0.06445,-0.14062 2,2 0 0 1 -0.06641,-0.18946 2,2 0 0 1 -0.04883,-0.19336 2,2 0 0 1 -0.0293,-0.19726 2,2 0 0 1 -0.0078,-0.19918 2,2 0 0 1 0.01172,-0.20117 2,2 0 0 1 0.03125,-0.19727 2,2 0 0 1 0.05078,-0.19336 2,2 0 0 1 0.07031,-0.1875 2,2 0 0 1 0.08789,-0.17773 2,2 0 0 1 0.105469,-0.16992 2,2 0 0 1 0.123047,-0.15821 2,2 0 0 1 0.105469,-0.11523 2,2 0 0 1 0.148437,-0.13477 2,2 0 0 1 0.160156,-0.11719 2,2 0 0 1 0.171875,-0.10351 2,2 0 0 1 0.181641,-0.084 2,2 0 0 1 0.189453,-0.0664 2,2 0 0 1 0.193359,-0.0449 2,2 0 0 1 0.199219,-0.0273 2,2 0 0 1 0.199219,-0.008 2,2 0 0 1 0.199219,0.0137 2,2 0 0 1 0.197265,0.0312 2,2 0 0 1 0.19336,0.0527 2,2 0 0 1 0.146484,0.0547 2,2 0 0 1 0.179687,0.0859 2,2 0 0 1 0.171876,0.10352 2,2 0 0 1 0.160156,0.11914 2,2 0 0 1 0.146484,0.13476 2,2 0 0 1 0.132813,0.15039 2,2 0 0 1 0.11914,0.16016 2,2 0 0 1 0.09961,0.17383 2,2 0 0 1 0.08398,0.18164 2,2 0 0 1 0.06445,0.18945 2,2 0 0 1 0.04492,0.19531 2,2 0 0 1 0.02539,0.19727 2,2 0 0 1 0.0078,0.15625 h 2 a 4,4 0 0 0 -2.468725,-3.69532 4,4 0 0 0 -1.472656,-0.30469 z m -0.05664,6 v 2 H 8.410165 a 14,14 0 0 0 0.310547,-1.21875 14,14 0 0 0 0.117188,-0.78125 z m 0,3 v 2 H 7.111337 a 14,14 0 0 0 0.175781,-0.28711 14,14 0 0 0 0.607422,-1.26172 14,14 0 0 0 0.164063,-0.45117 z m 0,3 v 2 h 9.791016 a 14,14 0 0 0 0.914063,-0.98047 14,14 0 0 0 0.775391,-1.01953 z"
         id="path884-4" />
      <g
         transform="translate(-68.071429,26.178571)"
         id="layer1-2"
         inkscape:label="Capa 1">
        <g
           transform="translate(4.01479,-21.178571)"
           id="layer1-6"
           inkscape:label="Capa 1">
          <g
             id="g1593"
             transform="translate(35,14)" />
          <path
             style="opacity:1;vector-effect:none;fill:#eff0f6;fill-opacity:1;stroke:none;stroke-width:2;stroke-linecap:round;stroke-linejoin:round;stroke-miterlimit:4;stroke-dasharray:none;stroke-dashoffset:0;stroke-opacity:1;paint-order:normal"
             d="M 16.146484 6.0019531 A 10 10 0 0 0 8.9296875 8.9296875 A 10 10 0 0 0 6.7617188 19.826172 A 10 10 0 0 0 16 26 L 16 24 A 8 8 0 0 1 15.201172 23.960938 A 8 8 0 0 1 14.410156 23.839844 A 8 8 0 0 1 13.636719 23.642578 A 8 8 0 0 1 12.884766 23.369141 A 8 8 0 0 1 12.164062 23.021484 A 8 8 0 0 1 11.482422 22.603516 A 8 8 0 0 1 10.845703 22.119141 A 8 8 0 0 1 10.261719 21.574219 A 8 8 0 0 1 9.7324219 20.972656 A 8 8 0 0 1 9.2675781 20.322266 A 8 8 0 0 1 8.8710938 19.628906 A 8 8 0 0 1 8.609375 19.060547 A 8 8 0 0 1 8.3398438 18.308594 A 8 8 0 0 1 8.1484375 17.53125 A 8 8 0 0 1 8.0351562 16.740234 A 8 8 0 0 1 8 15.941406 A 8 8 0 0 1 8.046875 15.142578 A 8 8 0 0 1 8.171875 14.353516 A 8 8 0 0 1 8.375 13.580078 A 8 8 0 0 1 8.6542969 12.830078 A 8 8 0 0 1 9.0078125 12.113281 A 8 8 0 0 1 9.4296875 11.435547 A 8 8 0 0 1 9.9199219 10.800781 A 8 8 0 0 1 10.34375 10.34375 A 8 8 0 0 1 10.935547 9.8066406 A 8 8 0 0 1 11.580078 9.3320312 A 8 8 0 0 1 12.267578 8.9238281 A 8 8 0 0 1 12.992188 8.5859375 A 8 8 0 0 1 13.748047 8.3242188 A 8 8 0 0 1 14.525391 8.1367188 A 8 8 0 0 1 15.318359 8.0292969 A 8 8 0 0 1 16.117188 8 A 8 8 0 0 1 16.914062 8.0527344 A 8 8 0 0 1 17.703125 8.1835938 A 8 8 0 0 1 18.474609 8.3925781 A 8 8 0 0 1 19.060547 8.609375 A 8 8 0 0 1 19.783203 8.9511719 A 8 8 0 0 1 20.46875 9.3652344 A 8 8 0 0 1 21.109375 9.84375 A 8 8 0 0 1 21.697266 10.384766 A 8 8 0 0 1 22.230469 10.982422 A 8 8 0 0 1 22.699219 11.628906 A 8 8 0 0 1 23.103516 12.318359 A 8 8 0 0 1 23.435547 13.046875 A 8 8 0 0 1 23.693359 13.804688 A 8 8 0 0 1 23.873047 14.582031 A 8 8 0 0 1 23.976562 15.375 A 8 8 0 0 1 24 16 L 26 16 A 10 10 0 0 0 19.826172 6.7617188 A 10 10 0 0 0 16.146484 6.0019531 z M 16.101562 9 A 7 7 0 0 0 11.050781 11.050781 A 7 7 0 0 0 9.5332031 18.679688 A 7 7 0 0 0 16 23 L 16 21 A 5 5 0 0 1 15.5 20.974609 A 5 5 0 0 1 15.005859 20.900391 A 5 5 0 0 1 14.521484 20.777344 A 5 5 0 0 1 14.052734 20.605469 A 5 5 0 0 1 13.603516 20.388672 A 5 5 0 0 1 13.177734 20.126953 A 5 5 0 0 1 12.779297 19.824219 A 5 5 0 0 1 12.414062 19.484375 A 5 5 0 0 1 12.083984 19.107422 A 5 5 0 0 1 11.792969 18.701172 A 5 5 0 0 1 11.544922 18.267578 A 5 5 0 0 1 11.380859 17.914062 A 5 5 0 0 1 11.212891 17.443359 A 5 5 0 0 1 11.091797 16.957031 A 5 5 0 0 1 11.021484 16.462891 A 5 5 0 0 1 11 15.962891 A 5 5 0 0 1 11.029297 15.464844 A 5 5 0 0 1 11.107422 14.970703 A 5 5 0 0 1 11.234375 14.488281 A 5 5 0 0 1 11.408203 14.019531 A 5 5 0 0 1 11.628906 13.570312 A 5 5 0 0 1 11.894531 13.146484 A 5 5 0 0 1 12.199219 12.751953 A 5 5 0 0 1 12.464844 12.464844 A 5 5 0 0 1 12.835938 12.128906 A 5 5 0 0 1 13.238281 11.832031 A 5 5 0 0 1 13.667969 11.578125 A 5 5 0 0 1 14.121094 11.367188 A 5 5 0 0 1 14.591797 11.203125 A 5 5 0 0 1 15.078125 11.085938 A 5 5 0 0 1 15.574219 11.017578 A 5 5 0 0 1 16.072266 11 A 5 5 0 0 1 16.572266 11.033203 A 5 5 0 0 1 17.064453 11.115234 A 5 5 0 0 1 17.546875 11.246094 A 5 5 0 0 1 17.914062 11.380859 A 5 5 0 0 1 18.365234 11.59375 A 5 5 0 0 1 18.792969 11.853516 A 5 5 0 0 1 19.193359 12.152344 A 5 5 0 0 1 19.560547 12.490234 A 5 5 0 0 1 19.894531 12.863281 A 5 5 0 0 1 20.1875 13.267578 A 5 5 0 0 1 20.439453 13.699219 A 5 5 0 0 1 20.646484 14.154297 A 5 5 0 0 1 20.808594 14.626953 A 5 5 0 0 1 20.921875 15.113281 A 5 5 0 0 1 20.984375 15.609375 A 5 5 0 0 1 21 16 L 23 16 A 7 7 0 0 0 18.679688 9.5332031 A 7 7 0 0 0 16.101562 9 z M 16.058594 12 A 4 4 0 0 0 13.171875 13.171875 A 4 4 0 0 0 12.304688 17.53125 A 4 4 0 0 0 16 20 L 16 18 A 2 2 0 0 1 15.800781 17.990234 A 2 2 0 0 1 15.603516 17.960938 A 2 2 0 0 1 15.408203 17.910156 A 2 2 0 0 1 15.220703 17.841797 A 2 2 0 0 1 15.041016 17.755859 A 2 2 0 0 1 14.871094 17.650391 A 2 2 0 0 1 14.710938 17.529297 A 2 2 0 0 1 14.564453 17.392578 A 2 2 0 0 1 14.433594 17.244141 A 2 2 0 0 1 14.316406 17.080078 A 2 2 0 0 1 14.216797 16.90625 A 2 2 0 0 1 14.152344 16.765625 A 2 2 0 0 1 14.085938 16.576172 A 2 2 0 0 1 14.037109 16.382812 A 2 2 0 0 1 14.007812 16.185547 A 2 2 0 0 1 14 15.986328 A 2 2 0 0 1 14.011719 15.785156 A 2 2 0 0 1 14.042969 15.587891 A 2 2 0 0 1 14.09375 15.394531 A 2 2 0 0 1 14.164062 15.207031 A 2 2 0 0 1 14.251953 15.029297 A 2 2 0 0 1 14.357422 14.859375 A 2 2 0 0 1 14.480469 14.701172 A 2 2 0 0 1 14.585938 14.585938 A 2 2 0 0 1 14.734375 14.451172 A 2 2 0 0 1 14.894531 14.333984 A 2 2 0 0 1 15.066406 14.230469 A 2 2 0 0 1 15.248047 14.146484 A 2 2 0 0 1 15.4375 14.080078 A 2 2 0 0 1 15.630859 14.035156 A 2 2 0 0 1 15.830078 14.007812 A 2 2 0 0 1 16.029297 14 A 2 2 0 0 1 16.228516 14.013672 A 2 2 0 0 1 16.425781 14.044922 A 2 2 0 0 1 16.619141 14.097656 A 2 2 0 0 1 16.765625 14.152344 A 2 2 0 0 1 16.945312 14.238281 A 2 2 0 0 1 17.117188 14.341797 A 2 2 0 0 1 17.277344 14.460938 A 2 2 0 0 1 17.423828 14.595703 A 2 2 0 0 1 17.556641 14.746094 A 2 2 0 0 1 17.675781 14.90625 A 2 2 0 0 1 17.775391 15.080078 A 2 2 0 0 1 17.859375 15.261719 A 2 2 0 0 1 17.923828 15.451172 A 2 2 0 0 1 17.96875 15.646484 A 2 2 0 0 1 17.994141 15.84375 A 2 2 0 0 1 18.001953 16 L 20.001953 16 A 4 4 0 0 0 17.533203 12.304688 A 4 4 0 0 0 16.060547 12 L 16.058594 12 z M 16.001953 18 L 16.001953 20 L 29.410156 20 A 14 14 0 0 0 29.720703 18.78125 A 14 14 0 0 0 29.837891 18 L 16.001953 18 z M 16.001953 21 L 16.001953 23 L 28.111328 23 A 14 14 0 0 0 28.287109 22.712891 A 14 14 0 0 0 28.894531 21.451172 A 14 14 0 0 0 29.058594 21 L 16.001953 21 z M 16.001953 24 L 16.001953 26 L 25.792969 26 A 14 14 0 0 0 26.707031 25.019531 A 14 14 0 0 0 27.482422 24 L 16.001953 24 z "
             transform="translate(43.056639,282.64999)"
             id="path884" />
          <ellipse
             transform="scale(-1,1)"
             ry="0"
             rx="5"
             cy="312.64999"
             cx="-19.142857"
             id="path835-3-6"
             style="opacity:1;vector-effect:none;fill:#7caee6;fill-opacity:0.43043482;stroke:none;stroke-width:0;stroke-linecap:round;stroke-linejoin:round;stroke-miterlimit:4;stroke-dasharray:none;stroke-dashoffset:0;stroke-opacity:1;paint-order:normal" />
        </g>
      </g>
    </g>
  </g>
</svg>
