<?xml version="1.0" encoding="UTF-8" standalone="no"?>
<!-- Created with Inkscape (http://www.inkscape.org/) -->

<svg
   xmlns:dc="http://purl.org/dc/elements/1.1/"
   xmlns:cc="http://creativecommons.org/ns#"
   xmlns:rdf="http://www.w3.org/1999/02/22-rdf-syntax-ns#"
   xmlns:svg="http://www.w3.org/2000/svg"
   xmlns="http://www.w3.org/2000/svg"
   xmlns:xlink="http://www.w3.org/1999/xlink"
   xmlns:sodipodi="http://sodipodi.sourceforge.net/DTD/sodipodi-0.dtd"
   xmlns:inkscape="http://www.inkscape.org/namespaces/inkscape"
   width="32"
   height="32"
   viewBox="0 0 32 32"
   version="1.1"
   id="svg8"
   inkscape:version="0.92.2 2405546, 2018-03-11"
   sodipodi:docname="transmission.svg">
  <title
     id="title7895">Antu icon Theme</title>
  <defs
     id="defs2">
    <linearGradient
       id="linearGradient1137"
       inkscape:collect="always">
      <stop
         id="stop1131"
         offset="0"
         style="stop-color:#2c3340;stop-opacity:1" />
      <stop
         id="stop1135"
         offset="1"
         style="stop-color:#13151a;stop-opacity:1" />
    </linearGradient>
    <linearGradient
       inkscape:collect="always"
       id="linearGradient882">
      <stop
         style="stop-color:#d5e1ed;stop-opacity:0.90980393"
         offset="0"
         id="stop878" />
      <stop
         style="stop-color:#f7f7f7;stop-opacity:0.90980393"
         offset="1"
         id="stop880" />
    </linearGradient>
    <linearGradient
       inkscape:collect="always"
       xlink:href="#linearGradient882"
       id="linearGradient875"
       gradientUnits="userSpaceOnUse"
       gradientTransform="matrix(3.7795275,0,0,3.7795275,-15.928569,-1087.2339)"
       x1="7.3894339"
       y1="295.0723"
       x2="7.3894339"
       y2="288.72232" />
    <linearGradient
       id="linearGradient6408"
       inkscape:collect="always">
      <stop
         id="stop6404"
         offset="0"
         style="stop-color:#f34242;stop-opacity:1" />
      <stop
         id="stop6406"
         offset="1"
         style="stop-color:#ff6767;stop-opacity:1" />
    </linearGradient>
    <linearGradient
       inkscape:collect="always"
       xlink:href="#linearGradient6408"
       id="linearGradient1009"
       x1="16"
       y1="299.64999"
       x2="16"
       y2="297.64999"
       gradientUnits="userSpaceOnUse" />
    <linearGradient
       inkscape:collect="always"
       xlink:href="#linearGradient1137"
       id="linearGradient1129"
       x1="16"
       y1="292.65036"
       x2="16"
       y2="306.65036"
       gradientUnits="userSpaceOnUse" />
  </defs>
  <sodipodi:namedview
     id="base"
     pagecolor="#ffffff"
     bordercolor="#666666"
     borderopacity="1.0"
     inkscape:pageopacity="0.0"
     inkscape:pageshadow="2"
     inkscape:zoom="0.99999996"
     inkscape:cx="-252.58489"
     inkscape:cy="161.56632"
     inkscape:document-units="px"
     inkscape:current-layer="layer1"
     showgrid="true"
     units="px"
     inkscape:window-width="1360"
     inkscape:window-height="711"
     inkscape:window-x="0"
     inkscape:window-y="28"
     inkscape:window-maximized="1"
     objecttolerance="10"
     gridtolerance="10"
     guidetolerance="10"
     inkscape:snap-bbox="true"
     inkscape:bbox-paths="true"
     inkscape:bbox-nodes="true"
     inkscape:snap-bbox-edge-midpoints="true"
     inkscape:snap-bbox-midpoints="true"
     inkscape:object-paths="true"
     inkscape:snap-intersection-paths="true"
     inkscape:showpageshadow="false"
     showborder="false">
    <inkscape:grid
       type="xygrid"
       id="grid7897"
       empspacing="4" />
  </sodipodi:namedview>
  <metadata
     id="metadata5">
    <rdf:RDF>
      <cc:Work
         rdf:about="">
        <dc:format>image/svg+xml</dc:format>
        <dc:type
           rdf:resource="http://purl.org/dc/dcmitype/StillImage" />
        <dc:title>Antu icon Theme</dc:title>
      </cc:Work>
    </rdf:RDF>
  </metadata>
  <g
     inkscape:label="Capa 1"
     inkscape:groupmode="layer"
     id="layer1"
     transform="translate(0,-282.64999)">
    <path
       id="rect843"
       d="m 5,283.64999 h 22 c 1.108,0 2,0.892 2,2 v 26 c 0,1.108 -0.892,2 -2,2 H 5 c -1.108,0 -2,-0.892 -2,-2 v -26 c 0,-1.108 0.892,-2 2,-2 z"
       style="opacity:1;fill:#8998a6;fill-opacity:1;stroke:none;stroke-width:2.39314151;stroke-linecap:round;stroke-linejoin:round;stroke-miterlimit:4;stroke-dasharray:none;stroke-opacity:1"
       inkscape:connector-curvature="0"
       sodipodi:nodetypes="sssssssss" />
    <path
       style="opacity:1;fill:url(#linearGradient875);fill-opacity:1;stroke:none;stroke-width:2.23359871;stroke-linecap:round;stroke-linejoin:round;stroke-miterlimit:4;stroke-dasharray:none;stroke-opacity:1"
       d="M 5,2 C 4.446,2 4,2.446 4,3 v 26 c 0,0.554 0.446,1 1,1 h 22 c 0.553999,0 1,-0.446 1,-1 V 3 C 28,2.446 27.553999,2 27,2 Z M 7.5,4 C 8.3309989,4 9,4.6690011 9,5.5 9,6.3309989 8.3309989,7 7.5,7 6.6690011,7 6,6.3309989 6,5.5 6,4.6690011 6.6690011,4 7.5,4 Z m 17,0 C 25.331,4 26,4.669 26,5.5 26,6.331 25.331,7 24.5,7 23.669,7 23,6.331 23,5.5 23,4.669 23.669,4 24.5,4 Z M 7.5,26 C 8.331,26 9,26.669 9,27.5 9,28.331 8.331,29 7.5,29 6.669,29 6,28.331 6,27.5 6,26.669 6.669,26 7.5,26 Z m 17,0 C 25.330993,26 26,26.669007 26,27.5 26,28.330993 25.330993,29 24.5,29 23.669007,29 23,28.330993 23,27.5 23,26.669007 23.669007,26 24.5,26 Z"
       transform="translate(0,282.64999)"
       id="rect843-3"
       inkscape:connector-curvature="0"
       sodipodi:nodetypes="sssssssssssssssssssssssssssss" />
    <g
       id="layer1-1"
       inkscape:label="Capa 1">
      <g
         transform="translate(11,-2.9998)"
         id="g2980" />
      <g
         id="g997"
         transform="matrix(1,0,0,-1,0,599.30034)">
        <path
           style="color:#000000;font-style:normal;font-variant:normal;font-weight:normal;font-stretch:normal;font-size:medium;line-height:normal;font-family:sans-serif;font-variant-ligatures:normal;font-variant-position:normal;font-variant-caps:normal;font-variant-numeric:normal;font-variant-alternates:normal;font-feature-settings:normal;text-indent:0;text-align:start;text-decoration:none;text-decoration-line:none;text-decoration-style:solid;text-decoration-color:#000000;letter-spacing:normal;word-spacing:normal;text-transform:none;writing-mode:lr-tb;direction:ltr;text-orientation:mixed;dominant-baseline:auto;baseline-shift:baseline;text-anchor:start;white-space:normal;shape-padding:0;clip-rule:nonzero;display:inline;overflow:visible;visibility:visible;opacity:1;isolation:auto;mix-blend-mode:normal;color-interpolation:sRGB;color-interpolation-filters:linearRGB;solid-color:#000000;solid-opacity:1;vector-effect:none;fill:#030303;fill-opacity:1;fill-rule:nonzero;stroke:none;stroke-width:2;stroke-linecap:round;stroke-linejoin:round;stroke-miterlimit:4;stroke-dasharray:none;stroke-dashoffset:0;stroke-opacity:1;color-rendering:auto;image-rendering:auto;shape-rendering:auto;text-rendering:auto;enable-background:accumulate"
           d="M 15.996094,7 C 15.693601,7.00101 15.407819,7.1388732 15.21875,7.375 l -4,5 C 10.694593,13.029951 11.161131,14.00035 12,14 l 1,3.6e-4 v 8 L 12,22 c -0.838869,-3.5e-4 -1.305407,0.970049 -0.78125,1.625 l 4,5 c 0.400371,0.500962 1.162129,0.500962 1.5625,0 l 4,-5 C 21.305407,22.970049 20.838869,21.99965 20,22 l -1,3.6e-4 v -8 L 20,14 c 0.838869,3.5e-4 1.305407,-0.970049 0.78125,-1.625 l -4,-5 C 16.59047,7.1367333 16.301325,6.9986342 15.996094,7 Z"
           transform="translate(0,282.64999)"
           id="path833"
           inkscape:connector-curvature="0"
           sodipodi:nodetypes="cccccccccccccccccc" />
        <path
           sodipodi:nodetypes="ccccccccccc"
           style="fill:url(#linearGradient1129);fill-opacity:1;stroke:none;stroke-width:1px;stroke-linecap:butt;stroke-linejoin:miter;stroke-opacity:1"
           d="m 12,305.64999 4,5 4,-5 -2,3.6e-4 v -10 l 2,-3.6e-4 -4,-5 -4,5 2,3.6e-4 v 10 z"
           id="path861"
           inkscape:connector-curvature="0" />
      </g>
      <rect
         style="opacity:1;fill:#b42c2c;fill-opacity:1;stroke:none;stroke-width:1;stroke-linecap:round;stroke-linejoin:round;stroke-miterlimit:4;stroke-dasharray:none;stroke-opacity:1"
         id="rect999"
         width="16"
         height="4"
         x="8"
         y="296.64999"
         ry="2" />
      <rect
         style="opacity:1;fill:url(#linearGradient1009);fill-opacity:1;stroke:none;stroke-width:1;stroke-linecap:round;stroke-linejoin:round;stroke-miterlimit:4;stroke-dasharray:none;stroke-opacity:1"
         id="rect1001"
         width="14"
         height="2"
         x="9"
         y="297.64999"
         ry="1" />
    </g>
  </g>
</svg>
