<?xml version="1.0" encoding="UTF-8" standalone="no"?>
<!-- Created with Inkscape (http://www.inkscape.org/) -->

<svg
   xmlns:dc="http://purl.org/dc/elements/1.1/"
   xmlns:cc="http://creativecommons.org/ns#"
   xmlns:rdf="http://www.w3.org/1999/02/22-rdf-syntax-ns#"
   xmlns:svg="http://www.w3.org/2000/svg"
   xmlns="http://www.w3.org/2000/svg"
   xmlns:xlink="http://www.w3.org/1999/xlink"
   xmlns:sodipodi="http://sodipodi.sourceforge.net/DTD/sodipodi-0.dtd"
   xmlns:inkscape="http://www.inkscape.org/namespaces/inkscape"
   width="32"
   height="32"
   viewBox="0 0 32 32"
   version="1.1"
   id="svg8"
   inkscape:version="0.92.2 5c3e80d, 2017-08-06"
   sodipodi:docname="twitter.svg">
  <title
     id="title7895">Antu icon Theme</title>
  <defs
     id="defs2">
    <linearGradient
       inkscape:collect="always"
       xlink:href="#linearGradient4784"
       id="linearGradient852"
       x1="8.4477673"
       y1="295.0723"
       x2="8.4477673"
       y2="288.72232"
       gradientUnits="userSpaceOnUse"
       gradientTransform="matrix(3.7795275,0,0,3.7795275,-28.928569,-799.58391)" />
    <linearGradient
       id="linearGradient4784"
       inkscape:collect="always">
      <stop
         id="stop4780"
         offset="0"
         style="stop-color:#09a8e9;stop-opacity:1" />
      <stop
         id="stop4782"
         offset="1"
         style="stop-color:#1cb9f5;stop-opacity:1" />
    </linearGradient>
  </defs>
  <sodipodi:namedview
     id="base"
     pagecolor="#ffffff"
     bordercolor="#666666"
     borderopacity="1.0"
     inkscape:pageopacity="0.0"
     inkscape:pageshadow="2"
     inkscape:zoom="7.919596"
     inkscape:cx="3.0813755"
     inkscape:cy="1.5227405"
     inkscape:document-units="px"
     inkscape:current-layer="layer1"
     showgrid="true"
     units="px"
     inkscape:window-width="1366"
     inkscape:window-height="697"
     inkscape:window-x="0"
     inkscape:window-y="0"
     inkscape:window-maximized="1"
     objecttolerance="10"
     gridtolerance="10"
     guidetolerance="10">
    <inkscape:grid
       type="xygrid"
       id="grid7897"
       empspacing="4" />
  </sodipodi:namedview>
  <metadata
     id="metadata5">
    <rdf:RDF>
      <cc:Work
         rdf:about="">
        <dc:format>image/svg+xml</dc:format>
        <dc:type
           rdf:resource="http://purl.org/dc/dcmitype/StillImage" />
        <dc:title>Antu icon Theme</dc:title>
      </cc:Work>
    </rdf:RDF>
  </metadata>
  <g
     inkscape:label="Capa 1"
     inkscape:groupmode="layer"
     id="layer1"
     transform="translate(0,-282.64999)">
    <g
       id="g4445"
       transform="translate(13,-5)">
      <path
         inkscape:connector-curvature="0"
         style="opacity:1;fill:#097fb2;fill-opacity:1;stroke:none;stroke-width:2.39314151;stroke-linecap:round;stroke-linejoin:round;stroke-miterlimit:4;stroke-dasharray:none;stroke-opacity:1"
         d="m -10,288.64999 h 26 c 1.108,0 2,0.892 2,2 v 26 c 0,1.108 -0.892,2 -2,2 h -26 c -1.108,0 -2,-0.892 -2,-2 v -26 c 0,-1.108 0.892,-2 2,-2 z"
         id="rect843" />
      <path
         inkscape:connector-curvature="0"
         style="opacity:1;fill:url(#linearGradient852);fill-opacity:1;stroke:none;stroke-width:2.23359871;stroke-linecap:round;stroke-linejoin:round;stroke-miterlimit:4;stroke-dasharray:none;stroke-opacity:1"
         d="m -10,289.64999 h 26 c 0.553999,0 1,0.446 1,1 v 26 c 0,0.554 -0.446001,1 -1,1 h -26 c -0.554,0 -1,-0.446 -1,-1 v -26 c 0,-0.554 0.446,-1 1,-1 z"
         id="rect843-3" />
      <path
         style="fill:#0a92cc;fill-opacity:1;stroke:none;stroke-width:0.9971711px;stroke-linecap:butt;stroke-linejoin:miter;stroke-opacity:1"
         d="M -7.0000001,310.6485 -2,308.64852 C -6.0000002,306.64851 -7.0000001,300.64851 -5.9999983,296.86603 -4.0000001,298.64849 -1,300.64851 3.000002,301.83777 2.000003,297.86035 6.000005,294.87732 10,297.86035 l 3,-0.99432 -2.000001,3.97739 C 11,313.6485 2,314.64852 -7.0000001,310.6485 Z"
         id="path4556-3-5"
         inkscape:connector-curvature="0"
         sodipodi:nodetypes="cccccccc" />
      <path
         style="fill:#ffffff;fill-opacity:0.98936169;stroke:none;stroke-width:0.9971711px;stroke-linecap:butt;stroke-linejoin:miter;stroke-opacity:1"
         d="m -7.0000002,309.6512 5,-1.99998 c -4.0000002,-2.00001 -5,-8.00001 -3.9999983,-11.78249 C -4.0000003,297.65119 -1,299.65121 3.000001,300.84047 2.000003,296.86305 6.000005,293.88002 10,296.86305 l 3,-0.99432 -2.000001,3.97739 c 0,12.80508 -8.999999,13.8051 -17.9999992,9.80508 z"
         id="path4556-3"
         inkscape:connector-curvature="0"
         sodipodi:nodetypes="cccccccc" />
    </g>
  </g>
</svg>
