<?xml version="1.0" encoding="UTF-8" standalone="no"?>
<!-- Created with Inkscape (http://www.inkscape.org/) -->

<svg
   xmlns:dc="http://purl.org/dc/elements/1.1/"
   xmlns:cc="http://creativecommons.org/ns#"
   xmlns:rdf="http://www.w3.org/1999/02/22-rdf-syntax-ns#"
   xmlns:svg="http://www.w3.org/2000/svg"
   xmlns="http://www.w3.org/2000/svg"
   xmlns:xlink="http://www.w3.org/1999/xlink"
   xmlns:sodipodi="http://sodipodi.sourceforge.net/DTD/sodipodi-0.dtd"
   xmlns:inkscape="http://www.inkscape.org/namespaces/inkscape"
   width="32"
   height="32"
   viewBox="0 0 32 32"
   version="1.1"
   id="svg8"
   inkscape:version="0.92.2 (5c3e80d, 2017-08-06)"
   sodipodi:docname="ubiquity.svg">
  <title
     id="title7895">Antu icon Theme</title>
  <defs
     id="defs2">
    <linearGradient
       inkscape:collect="always"
       id="linearGradient923">
      <stop
         style="stop-color:#323232;stop-opacity:1"
         offset="0"
         id="stop919" />
      <stop
         style="stop-color:#484849;stop-opacity:1"
         offset="1"
         id="stop921" />
    </linearGradient>
    <linearGradient
       inkscape:collect="always"
       id="linearGradient914">
      <stop
         style="stop-color:#cbcccc;stop-opacity:1"
         offset="0"
         id="stop910" />
      <stop
         style="stop-color:#e5e6e6;stop-opacity:1"
         offset="1"
         id="stop912" />
    </linearGradient>
    <linearGradient
       inkscape:collect="always"
       xlink:href="#linearGradient914"
       id="linearGradient916"
       x1="3"
       y1="313.64999"
       x2="3"
       y2="293.64999"
       gradientUnits="userSpaceOnUse"
       gradientTransform="translate(13,-289.64999)" />
    <linearGradient
       inkscape:collect="always"
       xlink:href="#linearGradient923"
       id="linearGradient925"
       x1="3"
       y1="319.64999"
       x2="3"
       y2="316.64999"
       gradientUnits="userSpaceOnUse"
       gradientTransform="translate(13,-289.64999)" />
    <style
       id="current-color-scheme"
       type="text/css">
      .ColorScheme-Text {
        color:#122036;
      }
      </style>
    <linearGradient
       inkscape:collect="always"
       xlink:href="#linearGradient4622"
       id="linearGradient1096"
       x1="7"
       y1="321.64999"
       x2="7"
       y2="301.64999"
       gradientUnits="userSpaceOnUse" />
    <linearGradient
       id="linearGradient4622"
       inkscape:collect="always">
      <stop
         id="stop4618"
         offset="0"
         style="stop-color:#ff6a3e;stop-opacity:1" />
      <stop
         id="stop4620"
         offset="1"
         style="stop-color:#ff9065;stop-opacity:1" />
    </linearGradient>
  </defs>
  <sodipodi:namedview
     id="base"
     pagecolor="#ffffff"
     bordercolor="#666666"
     borderopacity="1.0"
     inkscape:pageopacity="0.0"
     inkscape:pageshadow="2"
     inkscape:zoom="11.313708"
     inkscape:cx="-8.2392922"
     inkscape:cy="17.355624"
     inkscape:document-units="px"
     inkscape:current-layer="g1176"
     showgrid="true"
     units="px"
     inkscape:window-width="1280"
     inkscape:window-height="729"
     inkscape:window-x="0"
     inkscape:window-y="0"
     inkscape:window-maximized="1"
     objecttolerance="10"
     gridtolerance="10"
     guidetolerance="10">
    <inkscape:grid
       type="xygrid"
       id="grid7897"
       empspacing="4" />
  </sodipodi:namedview>
  <metadata
     id="metadata5">
    <rdf:RDF>
      <cc:Work
         rdf:about="">
        <dc:format>image/svg+xml</dc:format>
        <dc:type
           rdf:resource="http://purl.org/dc/dcmitype/StillImage" />
        <dc:title>Antu icon Theme</dc:title>
      </cc:Work>
    </rdf:RDF>
  </metadata>
  <g
     inkscape:label="Capa 1"
     inkscape:groupmode="layer"
     id="layer1"
     transform="translate(0,-282.64999)">
    <g
       id="g1645"
       transform="translate(13,-7)">
      <g
         transform="translate(31.000001,25.999995)"
         id="layer1-2"
         inkscape:label="Capa 1" />
      <g
         id="g1176">
        <g
           transform="translate(-2,-1)"
           id="g935">
          <path
             inkscape:connector-curvature="0"
             style="fill:#181818;fill-opacity:1;stroke:none;stroke-width:2;stroke-linecap:round;stroke-linejoin:round;stroke-miterlimit:4;stroke-dasharray:none;stroke-dashoffset:0;stroke-opacity:1"
             d="m -9,311.64999 h 24 c 1.108,0 2,0.892 2,2 v 5 c 0,1.108 -0.892,2 -2,2 H -9 c -1.108,0 -2,-0.892 -2,-2 v -5 c 0,-1.108 0.892,-2 2,-2 z"
             id="rect842" />
          <path
             inkscape:connector-curvature="0"
             style="fill:url(#linearGradient925);fill-opacity:1;stroke:none;stroke-width:2;stroke-linecap:round;stroke-linejoin:round;stroke-miterlimit:4;stroke-dasharray:none;stroke-dashoffset:0;stroke-opacity:1"
             d="m 4,23 c -0.554,0 -1,0.446 -1,1 v 5 c 0,0.554 0.446,1 1,1 h 24 c 0.554,0 1,-0.446 1,-1 v -5 c 0,-0.554 -0.446,-1 -1,-1 z m 1.4785156,5 H 26.521484 C 26.786243,28 27,28.213757 27,28.478516 v 0.04297 C 27,28.786243 26.786243,29 26.521484,29 H 5.4785156 C 5.2137574,29 5,28.786243 5,28.521484 v -0.04297 C 5,28.213757 5.2137574,28 5.4785156,28 Z"
             transform="translate(-13,289.64999)"
             id="rect844" />
          <path
             inkscape:connector-curvature="0"
             style="fill:#a5a6a6;fill-opacity:1;stroke:none;stroke-width:2;stroke-linecap:round;stroke-linejoin:round;stroke-miterlimit:4;stroke-dasharray:none;stroke-dashoffset:0;stroke-opacity:1"
             d="m -9,290.64999 h 24 c 1.108,0 2,0.892 2,2 v 22 c 0,1.108 -0.892,2 -2,2 H -9 c -1.108,0 -2,-0.892 -2,-2 v -22 c 0,-1.108 0.892,-2 2,-2 z"
             id="rect838" />
          <path
             style="fill:url(#linearGradient916);fill-opacity:1;stroke:none;stroke-width:2;stroke-linecap:round;stroke-linejoin:round;stroke-miterlimit:4;stroke-dasharray:none;stroke-dashoffset:0;stroke-opacity:1"
             d="M 4,2 C 3.446,2 3,2.446 3,3 v 22 c 0,0.554 0.446,1 1,1 h 24 c 0.554,0 1,-0.446 1,-1 V 3 C 29,2.446 28.554,2 28,2 Z M 5,3 C 5.554,3 6,3.446 6,4 6,4.554 5.554,5 5,5 4.446,5 4,4.554 4,4 4,3.446 4.446,3 5,3 Z m 22,0 c 0.554,0 1,0.446 1,1 0,0.554 -0.446,1 -1,1 C 26.446,5 26,4.554 26,4 26,3.446 26.446,3 27,3 Z M 5,12 c 0.554,0 1,0.446 1,1 0,0.554 -0.446,1 -1,1 -0.554,0 -1,-0.446 -1,-1 0,-0.554 0.446,-1 1,-1 z m 0,11 c 0.554,0 1,0.446 1,1 0,0.554 -0.446,1 -1,1 -0.554,0 -1,-0.446 -1,-1 0,-0.554 0.446,-1 1,-1 z m 22,0 c 0.554,0 1,0.446 1,1 0,0.554 -0.446,1 -1,1 -0.554,0 -1,-0.446 -1,-1 0,-0.554 0.446,-1 1,-1 z"
             transform="translate(-13,289.64999)"
             id="rect840"
             inkscape:connector-curvature="0"
             sodipodi:nodetypes="ssssssssssssssssssssssssssssssssss" />
        </g>
        <path
           id="rect937"
           d="m 9,301.64999 c 5.54,0 10,4.46 10,10 v 10e-6 c 0,5.54 -4.46,10 -10,10 -5.54,0 -10,-4.46 -10,-10 v -10e-6 c 0,-5.54 4.46,-10 10,-10 z"
           style="fill:#dd4d25;fill-opacity:1;stroke:none;stroke-width:2;stroke-linecap:round;stroke-linejoin:round;stroke-miterlimit:4;stroke-dasharray:none;stroke-dashoffset:0;stroke-opacity:1" />
        <path
           id="rect939"
           d="m 9,302.64999 c 4.986,0 9,4.014 9,9 0,4.986 -4.014,9 -9,9 -4.986,0 -9,-4.014 -9,-9 0,-4.986 4.014,-9 9,-9 z"
           style="fill:url(#linearGradient1096);fill-opacity:1.0;stroke:none;stroke-width:2;stroke-linecap:round;stroke-linejoin:round;stroke-miterlimit:4;stroke-dasharray:none;stroke-dashoffset:0;stroke-opacity:1" />
        <g
           inkscape:label="Capa 1"
           id="layer1-8"
           transform="translate(50.999992,26.00006)">
          <g
             id="g7878"
             transform="translate(39.000008,-16)">
            <path
               id="path7212-4-9"
               d="m -81,297.64993 c 1.108,0 2,0.89201 2,2.00001 v 3 h 1 a 1.0001,1.0001 0 0 1 0.707031,1.70703 l -3,3 a 1.0001,1.0001 0 0 1 -1.414062,0 l -2.999995,-3 a 1.0001,1.0001 0 0 1 0.70703,-1.70703 h 1 v -3 c 0,-1.108 0.892,-2.00001 1.999996,-2.00001 z"
               style="opacity:1;fill:#dd4d25;fill-opacity:1;stroke:none;stroke-width:0.99999994;stroke-opacity:1"
               inkscape:connector-curvature="0" />
            <path
               id="path7212-4"
               d="m -81,296.64993 c 1.108,0 2,0.89201 2,2.00001 v 3 h 1 a 1.0001,1.0001 0 0 1 0.707031,1.70703 l -3,3 a 1.0001,1.0001 0 0 1 -1.414062,0 l -3,-3 A 1.0001,1.0001 0 0 1 -84,301.64994 h 1 v -3 c 0,-1.108 0.892,-2.00001 2,-2.00001 z"
               style="opacity:1;fill:#ebecf4;fill-opacity:1;stroke:none;stroke-width:0.99999994;stroke-opacity:1" />
          </g>
        </g>
      </g>
    </g>
  </g>
</svg>
