<?xml version="1.0" encoding="UTF-8" standalone="no"?>
<!-- Created with Inkscape (http://www.inkscape.org/) -->

<svg
   xmlns:dc="http://purl.org/dc/elements/1.1/"
   xmlns:cc="http://creativecommons.org/ns#"
   xmlns:rdf="http://www.w3.org/1999/02/22-rdf-syntax-ns#"
   xmlns:svg="http://www.w3.org/2000/svg"
   xmlns="http://www.w3.org/2000/svg"
   xmlns:xlink="http://www.w3.org/1999/xlink"
   xmlns:sodipodi="http://sodipodi.sourceforge.net/DTD/sodipodi-0.dtd"
   xmlns:inkscape="http://www.inkscape.org/namespaces/inkscape"
   width="32"
   height="32"
   viewBox="0 0 32 32"
   version="1.1"
   id="svg8"
   inkscape:version="0.91 r13725"
   sodipodi:docname="virtualbox.svg">
  <title
     id="title7895">Antu icon Theme</title>
  <defs
     id="defs2">
    <linearGradient
       gradientUnits="userSpaceOnUse"
       y2="290.64999"
       x2="-2"
       y1="317.64999"
       x1="-2"
       id="linearGradient844"
       xlink:href="#linearGradient7100"
       inkscape:collect="always"
       gradientTransform="translate(5,2)" />
    <linearGradient
       inkscape:collect="always"
       id="linearGradient7100">
      <stop
         style="stop-color:#f0f0f0;stop-opacity:1"
         offset="0"
         id="stop7096" />
      <stop
         style="stop-color:#ffffff;stop-opacity:1"
         offset="1"
         id="stop7098" />
    </linearGradient>
    <linearGradient
       gradientTransform="translate(5.022097,1.9779)"
       gradientUnits="userSpaceOnUse"
       y2="292.64999"
       x2="-2"
       y1="311.64999"
       x1="-2"
       id="linearGradient852"
       xlink:href="#linearGradient4766-0"
       inkscape:collect="always" />
    <linearGradient
       id="linearGradient4766-0"
       inkscape:collect="always">
      <stop
         id="stop4762"
         offset="0"
         style="stop-color:#222731;stop-opacity:1" />
      <stop
         style="stop-color:#15181e;stop-opacity:1;"
         offset="0.4999994"
         id="stop4828" />
      <stop
         id="stop4764"
         offset="1"
         style="stop-color:#090a0c;stop-opacity:1" />
    </linearGradient>
  </defs>
  <sodipodi:namedview
     id="base"
     pagecolor="#ffffff"
     bordercolor="#666666"
     borderopacity="1.0"
     inkscape:pageopacity="0.0"
     inkscape:pageshadow="2"
     inkscape:zoom="11.313708"
     inkscape:cx="-1.2163729"
     inkscape:cy="10.171916"
     inkscape:document-units="px"
     inkscape:current-layer="layer1"
     showgrid="true"
     units="px"
     inkscape:window-width="1360"
     inkscape:window-height="699"
     inkscape:window-x="0"
     inkscape:window-y="0"
     inkscape:window-maximized="1"
     objecttolerance="10"
     gridtolerance="10"
     guidetolerance="10"
     inkscape:snap-bbox="true"
     inkscape:bbox-nodes="true"
     inkscape:showpageshadow="false"
     inkscape:bbox-paths="true"
     inkscape:snap-bbox-edge-midpoints="true"
     inkscape:snap-bbox-midpoints="true"
     inkscape:object-paths="true"
     inkscape:snap-intersection-paths="true"
     inkscape:object-nodes="false"
     inkscape:snap-smooth-nodes="false"
     inkscape:snap-midpoints="false">
    <inkscape:grid
       type="xygrid"
       id="grid7897"
       empspacing="4" />
  </sodipodi:namedview>
  <metadata
     id="metadata5">
    <rdf:RDF>
      <cc:Work
         rdf:about="">
        <dc:format>image/svg+xml</dc:format>
        <dc:type
           rdf:resource="http://purl.org/dc/dcmitype/StillImage" />
        <dc:title>Antu icon Theme</dc:title>
      </cc:Work>
    </rdf:RDF>
  </metadata>
  <g
     inkscape:label="Capa 1"
     inkscape:groupmode="layer"
     id="layer1"
     transform="translate(0,-282.64999)">
    <g
       id="g5628"
       transform="translate(13,-8)">
      <path
         id="rect843"
         d="m -10,291.64999 26,0 c 1.108,0 2,0.892 2,2 l 0,26 c 0,1.108 -0.892,2 -2,2 l -26,0 c -1.108,0 -2,-0.892 -2,-2 l 0,-26 c 0,-1.108 0.892,-2 2,-2 z"
         style="opacity:1;fill:#90a4ae;fill-opacity:1;stroke:none;stroke-width:2.39314151;stroke-linecap:round;stroke-linejoin:round;stroke-miterlimit:4;stroke-dasharray:none;stroke-opacity:1"
         inkscape:connector-curvature="0" />
      <path
         id="rect843-3"
         d="m -10,292.64999 26,0 c 0.553999,0 1,0.446 1,1 l 0,26 c 0,0.554 -0.446001,1 -1,1 l -26,0 c -0.554,0 -1,-0.446 -1,-1 l 0,-26 c 0,-0.554 0.446,-1 1,-1 z"
         style="opacity:1;fill:url(#linearGradient844);fill-opacity:1;stroke:none;stroke-width:2.23359871;stroke-linecap:round;stroke-linejoin:round;stroke-miterlimit:4;stroke-dasharray:none;stroke-opacity:1"
         inkscape:connector-curvature="0" />
      <path
         sodipodi:nodetypes="sssssssss"
         id="rect834"
         d="m -9.000004,293.64999 24.000008,0 c 0.553998,0 0.999996,0.446 0.999996,1 l 0,19 c 0,0.554 -0.445998,1 -0.999996,1 l -24.000008,0 c -0.553998,0 -0.999996,-0.446 -0.999996,-1 l 0,-19 c 0,-0.554 0.445998,-1 0.999996,-1 z"
         style="opacity:1;fill:#030303;fill-opacity:1;stroke:none;stroke-width:2;stroke-linecap:round;stroke-linejoin:round;stroke-miterlimit:4;stroke-dasharray:none;stroke-opacity:1;paint-order:stroke markers fill"
         inkscape:connector-curvature="0" />
      <path
         sodipodi:nodetypes="ccccc"
         id="rect836"
         d="m -8.977903,294.6279 24,0 -0.0221,19.02209 -24,0 z"
         style="opacity:1;fill:url(#linearGradient852);fill-opacity:1;stroke:none;stroke-width:2;stroke-linecap:round;stroke-linejoin:round;stroke-miterlimit:4;stroke-dasharray:none;stroke-opacity:1;paint-order:stroke markers fill"
         inkscape:connector-curvature="0" />
      <path
         inkscape:connector-curvature="0"
         style="opacity:1;fill:#0c3996;fill-opacity:1;stroke:none;stroke-width:2;stroke-linecap:round;stroke-linejoin:round;stroke-miterlimit:4;stroke-dasharray:none;stroke-opacity:1;paint-order:stroke markers fill"
         d="m 13.544194,316.64999 c 0.831,0 1.5,0.669 1.5,1.5 0,0.831 -0.669,1.5 -1.5,1.5 -0.831,0 -1.5,-0.669 -1.5,-1.5 0,-0.831 0.669,-1.5 1.5,-1.5 z"
         id="rect1584" />
      <path
         inkscape:connector-curvature="0"
         style="opacity:1;fill:#2caff9;fill-opacity:1;stroke:none;stroke-width:2;stroke-linecap:round;stroke-linejoin:round;stroke-miterlimit:4;stroke-dasharray:none;stroke-opacity:1;paint-order:stroke markers fill"
         d="m 13.544194,317.64999 c 0.277,0 0.5,0.223 0.5,0.5 0,0.277 -0.223,0.5 -0.5,0.5 -0.277,0 -0.5,-0.223 -0.5,-0.5 0,-0.277 0.223,-0.5 0.5,-0.5 z"
         id="rect1586" />
      <path
         inkscape:connector-curvature="0"
         style="opacity:1;fill:#0c3996;fill-opacity:1;stroke:none;stroke-width:2;stroke-linecap:round;stroke-linejoin:round;stroke-miterlimit:4;stroke-dasharray:none;stroke-opacity:1;paint-order:stroke markers fill"
         d="m 9.544194,316.64999 c 0.831,0 1.5,0.669 1.5,1.5 0,0.831 -0.669,1.5 -1.5,1.5 -0.831,0 -1.5,-0.669 -1.5,-1.5 0,-0.831 0.669,-1.5 1.5,-1.5 z"
         id="rect1584-6" />
      <path
         inkscape:connector-curvature="0"
         style="opacity:1;fill:#2caff9;fill-opacity:1;stroke:none;stroke-width:2;stroke-linecap:round;stroke-linejoin:round;stroke-miterlimit:4;stroke-dasharray:none;stroke-opacity:1;paint-order:stroke markers fill"
         d="m 9.544194,317.64999 c 0.277,0 0.5,0.223 0.5,0.5 0,0.277 -0.223,0.5 -0.5,0.5 -0.277,0 -0.5,-0.223 -0.5,-0.5 0,-0.277 0.223,-0.5 0.5,-0.5 z"
         id="rect1586-7" />
      <path
         inkscape:connector-curvature="0"
         style="opacity:1;fill:#0c3996;fill-opacity:1;stroke:none;stroke-width:2;stroke-linecap:round;stroke-linejoin:round;stroke-miterlimit:4;stroke-dasharray:none;stroke-opacity:1;paint-order:stroke markers fill"
         d="m 5.544194,316.61874 c 0.831,0 1.5,0.669 1.5,1.5 0,0.831 -0.669,1.5 -1.5,1.5 -0.831,0 -1.5,-0.669 -1.5,-1.5 0,-0.831 0.669,-1.5 1.5,-1.5 z"
         id="rect1584-8" />
      <path
         inkscape:connector-curvature="0"
         style="opacity:1;fill:#2caff9;fill-opacity:1;stroke:none;stroke-width:2;stroke-linecap:round;stroke-linejoin:round;stroke-miterlimit:4;stroke-dasharray:none;stroke-opacity:1;paint-order:stroke markers fill"
         d="m 5.544194,317.61874 c 0.277,0 0.5,0.223 0.5,0.5 0,0.277 -0.223,0.5 -0.5,0.5 -0.277,0 -0.5,-0.223 -0.5,-0.5 0,-0.277 0.223,-0.5 0.5,-0.5 z"
         id="rect1586-4" />
      <path
         inkscape:connector-curvature="0"
         id="path37-6"
         d="m 8,297.64999 -5,1 0,4 5,0 0,-5 z m -6,1 -4,1 0,3 4,0 0,-4 z m -4,5 0,3 4,1 0,-4 -4,0 z m 5,0 0,4 5,1 0,-5 -5,0 z"
         style="fill:#36b2fb;fill-opacity:1;enable-background:new" />
      <rect
         ry="2"
         y="315.64999"
         x="-9"
         height="4"
         width="7"
         id="rect4881"
         style="opacity:1;fill:#0c3996;fill-opacity:1;stroke:none;stroke-width:4;stroke-linecap:round;stroke-linejoin:round;stroke-miterlimit:4;stroke-dasharray:none;stroke-dashoffset:0;stroke-opacity:1" />
      <rect
         transform="scale(-1,1)"
         style="opacity:1;fill:#2caff9;fill-opacity:1;stroke:none;stroke-width:2;stroke-linecap:round;stroke-linejoin:round;stroke-miterlimit:4;stroke-dasharray:none;stroke-opacity:1"
         id="rect4445-3-5-7"
         width="5"
         height="2"
         x="3"
         y="316.64999"
         ry="1" />
      <rect
         ry="2"
         y="315.64999"
         x="-9"
         height="4"
         width="4"
         id="rect4898"
         style="opacity:1;fill:#0c3996;fill-opacity:1;stroke:none;stroke-width:4;stroke-linecap:round;stroke-linejoin:round;stroke-miterlimit:4;stroke-dasharray:none;stroke-dashoffset:0;stroke-opacity:1" />
      <circle
         transform="scale(-1,1)"
         style="opacity:1;fill:#f1f1f1;fill-opacity:1;stroke:none;stroke-width:2;stroke-linecap:round;stroke-linejoin:round;stroke-miterlimit:4;stroke-dasharray:none;stroke-opacity:1"
         id="path4472-6-4"
         cx="7"
         cy="317.64999"
         r="1" />
    </g>
  </g>
</svg>
