<?xml version="1.0" encoding="UTF-8" standalone="no"?>
<!-- Created with Inkscape (http://www.inkscape.org/) -->

<svg
   xmlns:dc="http://purl.org/dc/elements/1.1/"
   xmlns:cc="http://creativecommons.org/ns#"
   xmlns:rdf="http://www.w3.org/1999/02/22-rdf-syntax-ns#"
   xmlns:svg="http://www.w3.org/2000/svg"
   xmlns="http://www.w3.org/2000/svg"
   xmlns:xlink="http://www.w3.org/1999/xlink"
   xmlns:sodipodi="http://sodipodi.sourceforge.net/DTD/sodipodi-0.dtd"
   xmlns:inkscape="http://www.inkscape.org/namespaces/inkscape"
   width="32"
   height="32"
   viewBox="0 0 8.4666665 8.4666669"
   version="1.1"
   id="svg8"
   inkscape:version="0.91 r13725"
   sodipodi:docname="visual-studio-code-insiders.svg">
  <defs
     id="defs2">
    <linearGradient
       gradientTransform="matrix(0.26458334,0,0,0.26458336,-10.847917,280.59582)"
       inkscape:collect="always"
       xlink:href="#linearGradient7100"
       id="linearGradient4637-4"
       x1="16"
       y1="25"
       x2="16"
       y2="9"
       gradientUnits="userSpaceOnUse" />
    <linearGradient
       id="linearGradient7100"
       inkscape:collect="always">
      <stop
         id="stop7096"
         offset="0"
         style="stop-color:#02ca56;stop-opacity:1" />
      <stop
         id="stop7098"
         offset="1"
         style="stop-color:#75d97d;stop-opacity:1" />
    </linearGradient>
    <linearGradient
       inkscape:collect="always"
       xlink:href="#linearGradient4506"
       id="linearGradient4770"
       gradientUnits="userSpaceOnUse"
       gradientTransform="translate(-15.062351,-7.068126)"
       x1="8.4477682"
       y1="295.60147"
       x2="8.4477682"
       y2="288.98691" />
    <linearGradient
       inkscape:collect="always"
       id="linearGradient4506">
      <stop
         style="stop-color:#252a34;stop-opacity:1"
         offset="0"
         id="stop4502" />
      <stop
         style="stop-color:#353d4b;stop-opacity:1"
         offset="1"
         id="stop4504" />
    </linearGradient>
  </defs>
  <sodipodi:namedview
     id="base"
     pagecolor="#ffffff"
     bordercolor="#666666"
     borderopacity="1.0"
     inkscape:pageopacity="0.0"
     inkscape:pageshadow="2"
     inkscape:zoom="4"
     inkscape:cx="-24.198182"
     inkscape:cy="46.068146"
     inkscape:document-units="px"
     inkscape:current-layer="layer1"
     showgrid="true"
     units="px"
     inkscape:window-width="1360"
     inkscape:window-height="699"
     inkscape:window-x="0"
     inkscape:window-y="0"
     inkscape:window-maximized="1"
     showguides="true"
     inkscape:guide-bbox="true">
    <inkscape:grid
       type="xygrid"
       id="grid5179" />
    <sodipodi:guide
       position="13.229166,-1.3229167"
       orientation="1,0"
       id="guide835"
       inkscape:locked="false" />
  </sodipodi:namedview>
  <metadata
     id="metadata5">
    <rdf:RDF>
      <cc:Work
         rdf:about="">
        <dc:format>image/svg+xml</dc:format>
        <dc:type
           rdf:resource="http://purl.org/dc/dcmitype/StillImage" />
        <dc:title></dc:title>
      </cc:Work>
    </rdf:RDF>
  </metadata>
  <g
     inkscape:label="Capa 1"
     inkscape:groupmode="layer"
     id="layer1"
     transform="translate(0,-288.53332)">
    <g
       id="g4225"
       transform="translate(10.847917,7.9374985)">
      <path
         sodipodi:nodetypes="sssssssss"
         inkscape:connector-curvature="0"
         style="opacity:1;fill:#15151a;fill-opacity:1;stroke:none;stroke-width:2.39314151;stroke-linecap:round;stroke-linejoin:round;stroke-miterlimit:4;stroke-dasharray:none;stroke-opacity:1"
         d="m -9.5250006,280.86035 5.8208336,1.1e-4 c 0.2931583,0 0.5291667,0.236 0.5291667,0.52916 l 0,6.87917 c 0,0.29316 -0.2360084,0.52917 -0.5291667,0.52917 l -5.8208336,-1.1e-4 c -0.2931583,0 -0.5291664,-0.23601 -0.5291664,-0.52917 l 0,-6.87916 c 0,-0.29316 0.2360081,-0.52918 0.5291664,-0.52917 z"
         id="rect843-5-4-7" />
      <path
         sodipodi:nodetypes="sssssssss"
         inkscape:connector-curvature="0"
         style="opacity:1;fill:url(#linearGradient4770);fill-opacity:1;stroke:none;stroke-width:2.23359871;stroke-linecap:round;stroke-linejoin:round;stroke-miterlimit:4;stroke-dasharray:none;stroke-opacity:1"
         d="m -9.5250006,281.12493 5.8208336,1.1e-4 c 0.1465791,0 0.2645833,0.118 0.2645833,0.26458 l 0,6.87917 c 0,0.14658 -0.1180042,0.26459 -0.2645833,0.26458 l -5.8208336,-10e-5 c -0.1465792,-1e-5 -0.2645833,-0.11801 -0.2645833,-0.26459 l 0,-6.87916 c 0,-0.14658 0.1180041,-0.26459 0.2645833,-0.26459 z"
         id="rect843-3-9-3-1" />
      <path
         style="fill:#15151a;fill-opacity:1;fill-rule:evenodd;stroke:none;stroke-width:1px;stroke-linecap:butt;stroke-linejoin:miter;stroke-opacity:1"
         d="m -5.2916671,282.18332 0,4.7625 -4.2333335,-0.79375 4.2333335,1.85208 1.3229167,-0.52916 0,-4.7625 -1.3229167,-0.52917 z m -1.3229167,0.52917 -1.5017171,1.50171 -0.6149496,-0.44338 -0.5291667,0 0.79375,0.79375 -0.79375,0.79375 0.5291667,0 0.6128824,-0.44545 1.5037843,1.50378 0.8082196,-0.53795 -0.01447,-0.0103 0,-2.62672 -0.79375,-0.52916 z m 0,1.10639 0,1.47743 -1.0200929,-0.73536 1.0200929,-0.74207 z"
         id="path4257-9-1"
         inkscape:connector-curvature="0" />
      <path
         style="fill:url(#linearGradient4637-4);fill-opacity:1;fill-rule:evenodd;stroke:none;stroke-width:1px;stroke-linecap:butt;stroke-linejoin:miter;stroke-opacity:1"
         d="m -5.2916671,281.91874 0,4.7625 -4.2333335,-0.79375 4.2333335,1.85208 1.3229167,-0.52917 0,-4.7625 -1.3229167,-0.52916 z m -1.3229167,0.52916 -1.5017171,1.50172 -0.6149496,-0.44338 -0.5291667,0 0.79375,0.79375 -0.79375,0.79375 0.5291667,0 0.6128824,-0.44545 1.5037843,1.50378 0.8082196,-0.53795 -0.01447,-0.0103 0,-2.62671 -0.79375,-0.52917 z m 0,1.1064 0,1.47742 -1.0200929,-0.73535 1.0200929,-0.74207 z"
         id="path4257-5"
         inkscape:connector-curvature="0" />
    </g>
  </g>
</svg>
