<?xml version="1.0" encoding="UTF-8" standalone="no"?>
<!-- Created with Inkscape (http://www.inkscape.org/) -->

<svg
   xmlns:dc="http://purl.org/dc/elements/1.1/"
   xmlns:cc="http://creativecommons.org/ns#"
   xmlns:rdf="http://www.w3.org/1999/02/22-rdf-syntax-ns#"
   xmlns:svg="http://www.w3.org/2000/svg"
   xmlns="http://www.w3.org/2000/svg"
   xmlns:xlink="http://www.w3.org/1999/xlink"
   xmlns:sodipodi="http://sodipodi.sourceforge.net/DTD/sodipodi-0.dtd"
   xmlns:inkscape="http://www.inkscape.org/namespaces/inkscape"
   width="32"
   height="32"
   viewBox="0 0 8.4666665 8.4666669"
   version="1.1"
   id="svg8"
   inkscape:version="0.92.3 (2405546, 2018-03-11)"
   sodipodi:docname="xorg.svg">
  <defs
     id="defs2">
    <linearGradient
       inkscape:collect="always"
       id="linearGradient925">
      <stop
         style="stop-color:#f8f9f9;stop-opacity:1"
         offset="0"
         id="stop921" />
      <stop
         style="stop-color:#94a1a1;stop-opacity:1"
         offset="1"
         id="stop923" />
    </linearGradient>
    <linearGradient
       id="linearGradient868"
       inkscape:collect="always">
      <stop
         id="stop864"
         offset="0"
         style="stop-color:#494949;stop-opacity:1" />
      <stop
         id="stop866"
         offset="1"
         style="stop-color:#222222;stop-opacity:1" />
    </linearGradient>
    <linearGradient
       inkscape:collect="always"
       xlink:href="#linearGradient868"
       id="linearGradient855"
       x1="-9.68504e-08"
       y1="323.64999"
       x2="-9.68504e-08"
       y2="295.64999"
       gradientUnits="userSpaceOnUse" />
    <linearGradient
       id="linearGradient4582-3"
       inkscape:collect="always">
      <stop
         id="stop4578-5"
         offset="0"
         style="stop-color:#c8d3d4;stop-opacity:1" />
      <stop
         id="stop4580-6"
         offset="1"
         style="stop-color:#f3f5f6;stop-opacity:1" />
    </linearGradient>
    <linearGradient
       inkscape:collect="always"
       xlink:href="#linearGradient4582-3"
       id="linearGradient919"
       x1="-4.2002606"
       y1="294.94949"
       x2="-4.2002606"
       y2="290.71616"
       gradientUnits="userSpaceOnUse" />
    <linearGradient
       inkscape:collect="always"
       xlink:href="#linearGradient925"
       id="linearGradient927"
       x1="-4.2002606"
       y1="293.89114"
       x2="-4.2002606"
       y2="291.77448"
       gradientUnits="userSpaceOnUse" />
  </defs>
  <sodipodi:namedview
     id="base"
     pagecolor="#ffffff"
     bordercolor="#666666"
     borderopacity="1.0"
     inkscape:pageopacity="0.0"
     inkscape:pageshadow="2"
     inkscape:zoom="15.839192"
     inkscape:cx="-1.5366268"
     inkscape:cy="11.709577"
     inkscape:document-units="px"
     inkscape:current-layer="layer1"
     showgrid="true"
     units="px"
     inkscape:showpageshadow="false"
     inkscape:snap-bbox="true"
     inkscape:bbox-paths="true"
     inkscape:bbox-nodes="true"
     inkscape:snap-bbox-edge-midpoints="true"
     inkscape:snap-bbox-midpoints="true"
     inkscape:object-paths="true"
     inkscape:snap-intersection-paths="true"
     inkscape:window-width="1874"
     inkscape:window-height="1141"
     inkscape:window-x="46"
     inkscape:window-y="30"
     inkscape:window-maximized="1">
    <inkscape:grid
       type="xygrid"
       id="grid815" />
  </sodipodi:namedview>
  <metadata
     id="metadata5">
    <rdf:RDF>
      <cc:Work
         rdf:about="">
        <dc:format>image/svg+xml</dc:format>
        <dc:type
           rdf:resource="http://purl.org/dc/dcmitype/StillImage" />
        <dc:title />
      </cc:Work>
    </rdf:RDF>
  </metadata>
  <g
     inkscape:label="Capa 1"
     inkscape:groupmode="layer"
     id="layer1"
     transform="translate(0,-288.53333)">
    <g
       id="g3656"
       transform="translate(4.7624999,0.52916449)">
      <g
         style="fill:#363c4d;fill-opacity:1"
         inkscape:label="Capa 1"
         id="layer1-6"
         transform="matrix(0.26458333,0,0,0.26458333,-4.7624998,213.21969)">
        <g
           style="fill:#363c4d;fill-opacity:1"
           id="g2852"
           transform="translate(17,-11)">
          <path
             id="rect843"
             d="M -14,294.64999 H 11.999999 C 13.108,294.64999 14,295.542 14,296.65 v 25.99998 c 0,1.108 -0.892,2.00001 -2.000001,2.00001 H -14 c -1.108,0 -2,-0.89201 -2,-2.00001 V 296.65 c 0,-1.108 0.892,-2.00001 2,-2.00001 z"
             style="opacity:1;fill:#030303;fill-opacity:1;stroke:none;stroke-width:2.39314151;stroke-linecap:round;stroke-linejoin:round;stroke-miterlimit:4;stroke-dasharray:none;stroke-opacity:1"
             inkscape:connector-curvature="0" />
          <path
             id="rect843-3"
             d="M -14,295.65002 H 11.999999 C 12.554,295.65002 13,296.096 13,296.65 v 26.00001 c 0,0.55397 -0.446,0.99999 -1.000001,0.99999 H -14 c -0.554,0 -1,-0.44602 -1,-0.99999 V 296.65 c 0,-0.554 0.446,-0.99998 1,-0.99998 z"
             style="opacity:1;fill:url(#linearGradient855);fill-opacity:1;stroke:none;stroke-width:2.23359871;stroke-linecap:round;stroke-linejoin:round;stroke-miterlimit:4;stroke-dasharray:none;stroke-opacity:1"
             inkscape:connector-curvature="0" />
        </g>
      </g>
      <path
         style="opacity:1;vector-effect:none;fill:#1d1d1d;fill-opacity:1;stroke:none;stroke-width:0.75590551;stroke-linecap:round;stroke-linejoin:bevel;stroke-miterlimit:4;stroke-dasharray:none;stroke-dashoffset:0;stroke-opacity:0.39215686;paint-order:stroke fill markers"
         d="M 2 3 L 2 5 L 30 5 L 30 3 L 2 3 z M 2 7 L 2 9 L 30 9 L 30 7 L 2 7 z M 2 11 L 2 13 L 30 13 L 30 11 L 2 11 z M 2 15 L 2 17 L 12 17 L 12 15 L 2 15 z M 20 15 L 20 17 L 30 17 L 30 15 L 20 15 z M 2 19 L 2 21 L 30 21 L 30 19 L 2 19 z M 2 23 L 2 25 L 30 25 L 30 23 L 2 23 z M 2 27 L 2 29 L 30 29 L 30 27 L 2 27 z "
         transform="matrix(0.26458333,0,0,0.26458333,-4.7624999,288.00417)"
         id="path842" />
      <g
         id="g1720"
         transform="translate(3.671094,-0.59531693)">
        <path
           inkscape:connector-curvature="0"
           id="path1204-2"
           d="m -4.2002612,294.15573 c -0.7328954,0 -1.3229178,-0.59002 -1.3229178,-1.32292 0,-0.7329 0.5900224,-1.32292 1.3229178,-1.32292 0.732896,0 1.3229169,0.59002 1.3229169,1.32292 0,0.7329 -0.5900209,1.32292 -1.3229169,1.32292 z m 0,-0.52917 c 0.439738,0 0.79375,-0.35401 0.79375,-0.79375 0,-0.43974 -0.354012,-0.79375 -0.79375,-0.79375 -0.4397374,0 -0.7937504,0.35401 -0.7937504,0.79375 0,0.43974 0.354013,0.79375 0.7937504,0.79375 z"
           style="opacity:1;fill:url(#linearGradient927);fill-opacity:1;stroke:none;stroke-width:0.66145837;stroke-linecap:round;stroke-linejoin:round;stroke-miterlimit:4;stroke-dasharray:none;stroke-dashoffset:0;stroke-opacity:1" />
        <path
           inkscape:connector-curvature="0"
           id="path825-6"
           d="m -5.258595,290.71614 c -0.09502,-7e-5 -0.182815,0.0508 -0.22996,0.13333 l -1.058334,1.85208 c -0.04646,0.0813 -0.04646,0.18118 0,0.26252 l 1.058334,1.85208 c 0.04715,0.0825 0.134936,0.1334 0.22996,0.13333 h 2.1166674 c 0.095024,7e-5 0.1828143,-0.0508 0.2299602,-0.13333 l 1.0583333,-1.85208 c 0.046462,-0.0813 0.046462,-0.18118 0,-0.26252 l -1.0583333,-1.85208 c -0.047146,-0.0825 -0.1349357,-0.1334 -0.2299602,-0.13333 z m 1.0583338,1.05834 c 0.586317,0 1.0583336,0.47201 1.0583336,1.05833 0,0.58632 -0.4720166,1.05833 -1.0583336,1.05833 -0.5863174,0 -1.0583338,-0.47201 -1.0583338,-1.05833 0,-0.58632 0.4720164,-1.05833 1.0583338,-1.05833 z"
           style="color:#122036;fill:url(#linearGradient919);fill-opacity:1;fill-rule:evenodd;stroke:none;stroke-width:0.26458335" />
      </g>
    </g>
  </g>
</svg>
