<?xml version="1.0" encoding="UTF-8" standalone="no"?>
<!-- Created with Inkscape (http://www.inkscape.org/) -->

<svg
   xmlns:dc="http://purl.org/dc/elements/1.1/"
   xmlns:cc="http://creativecommons.org/ns#"
   xmlns:rdf="http://www.w3.org/1999/02/22-rdf-syntax-ns#"
   xmlns:svg="http://www.w3.org/2000/svg"
   xmlns="http://www.w3.org/2000/svg"
   xmlns:xlink="http://www.w3.org/1999/xlink"
   xmlns:sodipodi="http://sodipodi.sourceforge.net/DTD/sodipodi-0.dtd"
   xmlns:inkscape="http://www.inkscape.org/namespaces/inkscape"
   width="32"
   height="32"
   viewBox="0 0 8.4666662 8.4666664"
   version="1.1"
   id="svg1399"
   inkscape:version="0.92.4 5da689c313, 2019-01-14"
   sodipodi:docname="preferences-system-network-server-iscsi.svg">
  <defs
     id="defs1393">
    <linearGradient
       gradientTransform="matrix(0.26458333,0,0,0.26458333,-14.687567,287.65653)"
       inkscape:collect="always"
       xlink:href="#linearGradient4627"
       id="linearGradient953"
       x1="23"
       y1="23"
       x2="23"
       y2="19"
       gradientUnits="userSpaceOnUse" />
    <linearGradient
       inkscape:collect="always"
       id="linearGradient4627">
      <stop
         style="stop-color:#ffc900;stop-opacity:1"
         offset="0"
         id="stop4623" />
      <stop
         style="stop-color:#ffe200;stop-opacity:1"
         offset="1"
         id="stop4625" />
    </linearGradient>
    <linearGradient
       gradientTransform="translate(-5.633436,286.37173)"
       inkscape:collect="always"
       xlink:href="#linearGradient4766-0"
       id="linearGradient944"
       x1="-2.9687145"
       y1="9.2222986"
       x2="-2.9687145"
       y2="5.7827153"
       gradientUnits="userSpaceOnUse" />
    <linearGradient
       id="linearGradient4766-0"
       inkscape:collect="always">
      <stop
         id="stop4762"
         offset="0"
         style="stop-color:#222731;stop-opacity:1" />
      <stop
         style="stop-color:#15181e;stop-opacity:1;"
         offset="0.4999994"
         id="stop4828" />
      <stop
         id="stop4764"
         offset="1"
         style="stop-color:#090a0c;stop-opacity:1" />
    </linearGradient>
    <linearGradient
       gradientTransform="translate(-5.633436,286.37173)"
       inkscape:collect="always"
       xlink:href="#linearGradient4582"
       id="linearGradient936"
       x1="-2.9687145"
       y1="9.4868822"
       x2="-2.9687145"
       y2="5.2535486"
       gradientUnits="userSpaceOnUse" />
    <linearGradient
       inkscape:collect="always"
       id="linearGradient4582">
      <stop
         style="stop-color:#cee3e3;stop-opacity:1"
         offset="0"
         id="stop4578" />
      <stop
         style="stop-color:#fcfcfc;stop-opacity:1"
         offset="1"
         id="stop4580" />
    </linearGradient>
    <linearGradient
       gradientTransform="translate(-5.633436,286.37173)"
       inkscape:collect="always"
       xlink:href="#linearGradient4582-5"
       id="linearGradient919"
       x1="-5.3499646"
       y1="8.1639652"
       x2="-5.3499646"
       y2="1.8139654"
       gradientUnits="userSpaceOnUse" />
    <linearGradient
       id="linearGradient4582-5"
       inkscape:collect="always">
      <stop
         id="stop4578-3"
         offset="0"
         style="stop-color:#5b637b;stop-opacity:1" />
      <stop
         id="stop4580-5"
         offset="1"
         style="stop-color:#727b97;stop-opacity:1" />
    </linearGradient>
    <linearGradient
       inkscape:collect="always"
       xlink:href="#linearGradient4582"
       id="linearGradient927"
       x1="-6.6728811"
       y1="9.2222986"
       x2="-6.6728811"
       y2="8.1639652"
       gradientUnits="userSpaceOnUse"
       gradientTransform="translate(-5.633436,286.37173)" />
  </defs>
  <sodipodi:namedview
     id="base"
     pagecolor="#ffffff"
     bordercolor="#666666"
     borderopacity="1.0"
     inkscape:pageopacity="0.0"
     inkscape:pageshadow="2"
     inkscape:zoom="15.839192"
     inkscape:cx="27.350986"
     inkscape:cy="25.440882"
     inkscape:document-units="mm"
     inkscape:current-layer="layer1"
     showgrid="true"
     inkscape:showpageshadow="false"
     units="px"
     inkscape:window-width="1920"
     inkscape:window-height="1003"
     inkscape:window-x="0"
     inkscape:window-y="0"
     inkscape:window-maximized="1">
    <inkscape:grid
       type="xygrid"
       id="grid2185" />
  </sodipodi:namedview>
  <metadata
     id="metadata1396">
    <rdf:RDF>
      <cc:Work
         rdf:about="">
        <dc:format>image/svg+xml</dc:format>
        <dc:type
           rdf:resource="http://purl.org/dc/dcmitype/StillImage" />
        <dc:title></dc:title>
      </cc:Work>
    </rdf:RDF>
  </metadata>
  <g
     inkscape:label="Capa 1"
     inkscape:groupmode="layer"
     id="layer1"
     transform="translate(0,-288.53338)">
    <g
       id="g2183"
       transform="translate(14.687567,0.87685667)">
      <path
         id="rect842"
         d="m -13.629234,293.47736 h 6.3500001 c 0.2931583,0 0.5291666,0.23601 0.5291666,0.52917 v 1.32291 c 0,0.29316 -0.2360083,0.52917 -0.5291666,0.52917 h -6.3500001 c -0.293158,0 -0.529167,-0.23601 -0.529167,-0.52917 v -1.32291 c 0,-0.29316 0.236009,-0.52917 0.529167,-0.52917 z"
         style="fill:#363c4d;fill-opacity:1;stroke:none;stroke-width:0.52916664;stroke-linecap:round;stroke-linejoin:round;stroke-miterlimit:4;stroke-dasharray:none;stroke-dashoffset:0;stroke-opacity:1"
         inkscape:connector-curvature="0" />
      <path
         id="path1024"
         d="m -13.629234,293.74194 c -0.146579,0 -0.264583,0.11801 -0.264583,0.26459 v 1.32291 c 0,0.14658 0.118004,0.26459 0.264583,0.26459 h 0.264584 v -0.52917 h 5.027083 v 0.52917 h 1.0583333 c 0.1465792,0 0.2645834,-0.11801 0.2645834,-0.26459 v -1.32291 c 0,-0.14658 -0.1180042,-0.26459 -0.2645834,-0.26459 z m 0.529167,1.5875 v 0.26459 h 0.529167 v -0.26459 z m 0.79375,0 v 0.26459 h 0.529167 v -0.26459 z m 0.79375,0 v 0.26459 h 0.529167 v -0.26459 z m 0.79375,0 v 0.26459 h 0.529167 v -0.26459 z m 0.79375,0 v 0.26459 h 0.5291667 v -0.26459 z m 0.79375,0 v 0.26459 h 0.5291667 v -0.26459 z"
         style="fill:url(#linearGradient927);fill-opacity:1;stroke:none;stroke-width:0.52916664;stroke-linecap:round;stroke-linejoin:round;stroke-miterlimit:4;stroke-dasharray:none;stroke-dashoffset:0;stroke-opacity:1"
         inkscape:connector-curvature="0" />
      <path
         id="rect838"
         d="m -13.629234,287.92111 h 6.3500001 c 0.2931583,0 0.5291666,0.23601 0.5291666,0.52917 v 5.82083 c 0,0.29316 -0.2360083,0.52917 -0.5291666,0.52917 h -6.3500001 c -0.293158,0 -0.529167,-0.23601 -0.529167,-0.52917 v -5.82083 c 0,-0.29316 0.236009,-0.52917 0.529167,-0.52917 z"
         style="fill:#363c4d;fill-opacity:1;stroke:none;stroke-width:0.52916664;stroke-linecap:round;stroke-linejoin:round;stroke-miterlimit:4;stroke-dasharray:none;stroke-dashoffset:0;stroke-opacity:1"
         inkscape:connector-curvature="0" />
      <path
         sodipodi:nodetypes="sssssssssssssssssssssssssssssssssssssss"
         inkscape:connector-curvature="0"
         id="rect840"
         d="m -13.629234,288.18569 c -0.146579,0 -0.264583,0.11801 -0.264583,0.26459 v 5.82083 c 0,0.14658 0.118004,0.26458 0.264583,0.26458 h 6.3500001 c 0.1465791,0 0.2645833,-0.118 0.2645833,-0.26458 v -5.82083 c 0,-0.14658 -0.1180042,-0.26459 -0.2645833,-0.26459 z m 0.264583,0.26459 c 0.146579,0 0.264584,0.118 0.264584,0.26458 0,0.14658 -0.118005,0.26458 -0.264584,0.26458 -0.146579,0 -0.264583,-0.118 -0.264583,-0.26458 0,-0.14658 0.118004,-0.26458 0.264583,-0.26458 z m 5.8208337,0 c 0.1465792,0 0.2645834,0.118 0.2645834,0.26458 0,0.14658 -0.1180042,0.26458 -0.2645834,0.26458 -0.1465791,0 -0.2645833,-0.118 -0.2645833,-0.26458 0,-0.14658 0.1180042,-0.26458 0.2645833,-0.26458 z m -5.8208337,2.38125 c 0.146579,0 0.264584,0.118 0.264584,0.26458 0,0.14658 -0.118005,0.26458 -0.264584,0.26458 -0.146579,0 -0.264583,-0.118 -0.264583,-0.26458 0,-0.14658 0.118004,-0.26458 0.264583,-0.26458 z m 5.8208337,0 c 0.1465792,0 0.2645834,0.118 0.2645834,0.26458 0,0.14658 -0.1180042,0.26458 -0.2645834,0.26458 -0.1465791,0 -0.2645833,-0.118 -0.2645833,-0.26458 0,-0.14658 0.1180042,-0.26458 0.2645833,-0.26458 z m -5.8208337,2.91041 c 0.146579,0 0.264584,0.11801 0.264584,0.26459 0,0.14658 -0.118005,0.26458 -0.264584,0.26458 -0.146579,0 -0.264583,-0.118 -0.264583,-0.26458 0,-0.14658 0.118004,-0.26459 0.264583,-0.26459 z m 5.8208337,0 c 0.1465792,0 0.2645834,0.11801 0.2645834,0.26459 0,0.14658 -0.1180042,0.26458 -0.2645834,0.26458 -0.1465791,0 -0.2645833,-0.118 -0.2645833,-0.26458 0,-0.14658 0.1180042,-0.26459 0.2645833,-0.26459 z"
         style="fill:url(#linearGradient919);fill-opacity:1;stroke:none;stroke-width:0.52916664;stroke-linecap:round;stroke-linejoin:round;stroke-miterlimit:4;stroke-dasharray:none;stroke-dashoffset:0;stroke-opacity:1" />
      <path
         inkscape:connector-curvature="0"
         style="fill:#90a4ae;fill-opacity:1;stroke:none;stroke-width:0.52916664;stroke-linecap:round;stroke-linejoin:round;stroke-miterlimit:4;stroke-dasharray:none;stroke-opacity:1"
         d="m -10.454234,291.36069 h 3.7041665 c 0.2931583,0 0.5291666,0.23601 0.5291666,0.52917 v 3.70417 c 0,0.29315 -0.2360083,0.52916 -0.5291666,0.52916 h -3.7041665 c -0.293158,0 -0.529167,-0.23601 -0.529167,-0.52916 v -3.70417 c 0,-0.29316 0.236009,-0.52917 0.529167,-0.52917 z"
         id="rect883" />
      <path
         inkscape:connector-curvature="0"
         style="fill:url(#linearGradient936);fill-opacity:1;stroke:none;stroke-width:0.52916664;stroke-linecap:round;stroke-linejoin:round;stroke-miterlimit:4;stroke-dasharray:none;stroke-opacity:1"
         d="m -10.454234,291.62528 h 3.7041665 c 0.1465791,0 0.2645833,0.118 0.2645833,0.26458 v 3.70417 c 0,0.14658 -0.1180042,0.26458 -0.2645833,0.26458 h -3.7041665 c -0.146579,0 -0.264583,-0.118 -0.264583,-0.26458 v -3.70417 c 0,-0.14658 0.118004,-0.26458 0.264583,-0.26458 z"
         id="rect885" />
      <path
         inkscape:connector-curvature="0"
         style="fill:url(#linearGradient944);fill-opacity:1;stroke:none;stroke-width:0.52916664;stroke-linecap:round;stroke-linejoin:round;stroke-miterlimit:4;stroke-dasharray:none;stroke-opacity:1"
         d="m -10.189651,292.15444 v 0.52917 h -0.264583 v 0.79375 h 0.264583 v 0.26458 h -0.264583 v 0.79375 h 0.264583 v 0.52917 h 0.7937504 v 0.26458 h 0.5291667 v 0.26459 h 0.5291666 v -0.26459 h 0.5291667 v -0.26458 h 0.79375 v -0.52917 h 0.2645833 v -0.79375 h -0.2645833 v -0.26458 h 0.2645833 v -0.79375 h -0.2645833 v -0.52917 z"
         id="rect897" />
      <path
         id="rect941"
         d="m -9.925067,292.68361 v 1.05833 h 0.5291667 v -1.05833 z m 1.0583333,0 v 1.05833 h 0.5291667 v -1.05833 z m 1.0583334,0 v 1.05833 h 0.5291666 v -1.05833 z"
         style="fill:url(#linearGradient953);fill-opacity:1;stroke:none;stroke-width:0.52916664;stroke-linecap:round;stroke-linejoin:round;stroke-miterlimit:4;stroke-dasharray:none;stroke-opacity:1"
         inkscape:connector-curvature="0" />
    </g>
  </g>
</svg>
