<?xml version="1.0" encoding="UTF-8" standalone="no"?>
<!-- Created with Inkscape (http://www.inkscape.org/) -->

<svg
   xmlns:dc="http://purl.org/dc/elements/1.1/"
   xmlns:cc="http://creativecommons.org/ns#"
   xmlns:rdf="http://www.w3.org/1999/02/22-rdf-syntax-ns#"
   xmlns:svg="http://www.w3.org/2000/svg"
   xmlns="http://www.w3.org/2000/svg"
   xmlns:xlink="http://www.w3.org/1999/xlink"
   xmlns:sodipodi="http://sodipodi.sourceforge.net/DTD/sodipodi-0.dtd"
   xmlns:inkscape="http://www.inkscape.org/namespaces/inkscape"
   width="32"
   height="32"
   viewBox="0 0 8.4666662 8.4666664"
   version="1.1"
   id="svg1399"
   inkscape:version="0.92.4 5da689c313, 2019-01-14"
   sodipodi:docname="preferences-system-network-server-ldap.svg">
  <defs
     id="defs1393">
    <linearGradient
       gradientTransform="translate(-7.9430411,7.1399623)"
       inkscape:collect="always"
       xlink:href="#linearGradient4582-5"
       id="linearGradient956"
       x1="3.96875"
       y1="296.47083"
       x2="3.96875"
       y2="289.0625"
       gradientUnits="userSpaceOnUse" />
    <linearGradient
       inkscape:collect="always"
       id="linearGradient4582-5">
      <stop
         style="stop-color:#5b637b;stop-opacity:1"
         offset="0"
         id="stop4578-3" />
      <stop
         style="stop-color:#727b97;stop-opacity:1"
         offset="1"
         id="stop4580-5" />
    </linearGradient>
  </defs>
  <sodipodi:namedview
     id="base"
     pagecolor="#ffffff"
     bordercolor="#666666"
     borderopacity="1.0"
     inkscape:pageopacity="0.0"
     inkscape:pageshadow="2"
     inkscape:zoom="22.4"
     inkscape:cx="18.573723"
     inkscape:cy="15.755715"
     inkscape:document-units="mm"
     inkscape:current-layer="layer1"
     showgrid="true"
     inkscape:showpageshadow="false"
     units="px"
     inkscape:window-width="1920"
     inkscape:window-height="1003"
     inkscape:window-x="0"
     inkscape:window-y="0"
     inkscape:window-maximized="1">
    <inkscape:grid
       type="xygrid"
       id="grid1693" />
  </sodipodi:namedview>
  <metadata
     id="metadata1396">
    <rdf:RDF>
      <cc:Work
         rdf:about="">
        <dc:format>image/svg+xml</dc:format>
        <dc:type
           rdf:resource="http://purl.org/dc/dcmitype/StillImage" />
        <dc:title></dc:title>
      </cc:Work>
    </rdf:RDF>
  </metadata>
  <g
     inkscape:label="Capa 1"
     inkscape:groupmode="layer"
     id="layer1"
     transform="translate(0,-288.53338)">
    <g
       id="g1691"
       transform="translate(7.9430412,-7.1398833)">
      <path
         id="rect868-2-5"
         d="m -0.79929143,298.05452 h 0.5291667 c 0.1465791,0 0.2645833,0.11801 0.2645833,0.26458 v 1.32292 c 0,0.14658 -0.1180042,0.26458 -0.2645833,0.26458 h -0.5291667 c -0.1465789,0 -0.26458327,-0.118 -0.26458327,-0.26458 v -1.32292 c 0,-0.14657 0.11800437,-0.26458 0.26458327,-0.26458 z"
         style="opacity:0.98000004;fill:#1770d9;fill-opacity:0.98039216;stroke:none;stroke-width:0.52916664;stroke-linecap:round;stroke-linejoin:round;stroke-miterlimit:4;stroke-dasharray:none;stroke-dashoffset:0;stroke-opacity:1"
         inkscape:connector-curvature="0" />
      <path
         inkscape:connector-curvature="0"
         id="rect868-6"
         d="m -0.79929113,296.20243 h 0.5291666 c 0.1465792,0 0.2645834,0.11801 0.2645834,0.26459 v 1.32291 c 0,0.14658 -0.1180042,0.26459 -0.2645834,0.26459 h -0.5291666 c -0.1465792,0 -0.26458337,-0.11801 -0.26458337,-0.26459 v -1.32291 c 0,-0.14658 0.11800417,-0.26459 0.26458337,-0.26459 z"
         style="opacity:0.98000004;fill:#cc0120;fill-opacity:1;stroke:none;stroke-width:0.52916664;stroke-linecap:round;stroke-linejoin:round;stroke-miterlimit:4;stroke-dasharray:none;stroke-dashoffset:0;stroke-opacity:1" />
      <path
         inkscape:connector-curvature="0"
         id="rect870-2"
         d="m -0.79929113,296.46702 h 0.5291666 v 1.32291 h -0.5291666 z"
         style="opacity:0.98000004;fill:#fc3a56;fill-opacity:1;stroke:none;stroke-width:0.52916664;stroke-linecap:round;stroke-linejoin:round;stroke-miterlimit:4;stroke-dasharray:none;stroke-dashoffset:0;stroke-opacity:1" />
      <path
         inkscape:connector-curvature="0"
         id="rect870-9-9"
         d="m -0.79929113,298.3191 h 0.5291666 v 1.32292 h -0.5291666 z"
         style="opacity:0.98000004;fill:#03b0fd;fill-opacity:0.98039216;stroke:none;stroke-width:0.52916664;stroke-linecap:round;stroke-linejoin:round;stroke-miterlimit:4;stroke-dasharray:none;stroke-dashoffset:0;stroke-opacity:1" />
      <path
         inkscape:connector-curvature="0"
         id="rect868-2-1-1"
         d="m -0.79929113,299.9066 h 0.5291666 c 0.1465792,0 0.2645834,0.118 0.2645834,0.26458 v 1.32292 c 0,0.14658 -0.1180042,0.26458 -0.2645834,0.26458 h -0.5291666 c -0.1465792,0 -0.26458337,-0.118 -0.26458337,-0.26458 v -1.32292 c 0,-0.14658 0.11800417,-0.26458 0.26458337,-0.26458 z"
         style="opacity:0.98000004;fill:#2aa65a;fill-opacity:1;stroke:none;stroke-width:0.52916664;stroke-linecap:round;stroke-linejoin:round;stroke-miterlimit:4;stroke-dasharray:none;stroke-dashoffset:0;stroke-opacity:1" />
      <path
         inkscape:connector-curvature="0"
         id="rect870-9-2-2"
         d="m -0.79929113,300.17118 h 0.5291666 v 1.32292 h -0.5291666 z"
         style="opacity:0.98000004;fill:#6bdf73;fill-opacity:1;stroke:none;stroke-width:0.52916664;stroke-linecap:round;stroke-linejoin:round;stroke-miterlimit:4;stroke-dasharray:none;stroke-dashoffset:0;stroke-opacity:1" />
      <path
         inkscape:connector-curvature="0"
         id="rect868-2-7-7"
         d="m -0.79929113,301.75868 h 0.5291666 c 0.1465792,0 0.2645834,0.11801 0.2645834,0.26459 v 1.32291 c 0,0.14658 -0.1180042,0.26459 -0.2645834,0.26459 h -0.5291666 c -0.1465792,0 -0.26458337,-0.11801 -0.26458337,-0.26459 v -1.32291 c 0,-0.14658 0.11800417,-0.26459 0.26458337,-0.26459 z"
         style="opacity:0.98000004;fill:#f89804;fill-opacity:1;stroke:none;stroke-width:0.52916664;stroke-linecap:round;stroke-linejoin:round;stroke-miterlimit:4;stroke-dasharray:none;stroke-dashoffset:0;stroke-opacity:1" />
      <path
         inkscape:connector-curvature="0"
         id="rect870-9-0-3"
         d="m -0.79929113,302.02327 h 0.5291666 v 1.32291 h -0.5291666 z"
         style="opacity:0.98000004;fill:#ffe200;fill-opacity:1;stroke:none;stroke-width:0.52916664;stroke-linecap:round;stroke-linejoin:round;stroke-miterlimit:4;stroke-dasharray:none;stroke-dashoffset:0;stroke-opacity:1" />
      <path
         id="rect843"
         d="m -7.1492911,295.93785 h 5.8208333 c 0.2931583,0 0.52916667,0.23601 0.52916667,0.52917 v 6.87916 c 0,0.29316 -0.23600837,0.52917 -0.52916667,0.52917 h -5.8208333 c -0.2931583,0 -0.5291667,-0.23601 -0.5291667,-0.52917 v -6.87916 c 0,-0.29316 0.2360084,-0.52917 0.5291667,-0.52917 z"
         style="opacity:1;fill:#363c4d;fill-opacity:1;stroke:none;stroke-width:0.63318539;stroke-linecap:round;stroke-linejoin:round;stroke-miterlimit:4;stroke-dasharray:none;stroke-opacity:1"
         inkscape:connector-curvature="0"
         sodipodi:nodetypes="sssssssss" />
      <path
         id="rect843-3"
         d="m -6.6201245,296.20243 v 7.40834 h 5.2916667 c 0.1465789,0 0.2645833,-0.11801 0.2645833,-0.26459 v -6.87916 c 0,-0.14658 -0.1180044,-0.26459 -0.2645833,-0.26459 z"
         style="opacity:1;fill:url(#linearGradient956);fill-opacity:1;stroke:none;stroke-width:0.59097302;stroke-linecap:round;stroke-linejoin:round;stroke-miterlimit:4;stroke-dasharray:none;stroke-opacity:1"
         inkscape:connector-curvature="0" />
      <path
         inkscape:connector-curvature="0"
         id="rect966-6-1"
         d="m -3.9742911,298.58364 c -0.4397375,0 -0.79375,0.35401 -0.79375,0.79375 0,0.43974 0.3540125,0.79375 0.79375,0.79375 0.4397375,0 0.79375,-0.35401 0.79375,-0.79375 0,-0.43974 -0.3540125,-0.79375 -0.79375,-0.79375 z m 0,1.85208 c -0.7306268,0 -1.3229166,0.59229 -1.3229166,1.32292 0.8509933,0.33014 1.7287493,0.37482 2.6458332,0 0,-0.73063 -0.5922899,-1.32292 -1.3229166,-1.32292 z"
         style="opacity:0.98000004;fill:#363c4d;fill-opacity:1;stroke:none;stroke-width:0.52916664;stroke-linecap:round;stroke-linejoin:round;stroke-miterlimit:4;stroke-dasharray:none;stroke-dashoffset:0;stroke-opacity:1" />
      <path
         style="opacity:0.98000004;fill:#f1f1f1;fill-opacity:1;stroke:none;stroke-width:0.52916664;stroke-linecap:round;stroke-linejoin:round;stroke-miterlimit:4;stroke-dasharray:none;stroke-dashoffset:0;stroke-opacity:1"
         d="m -3.9742911,298.31906 c -0.4397375,0 -0.79375,0.35401 -0.79375,0.79375 0,0.43974 0.3540125,0.79375 0.79375,0.79375 0.4397375,0 0.79375,-0.35401 0.79375,-0.79375 0,-0.43974 -0.3540125,-0.79375 -0.79375,-0.79375 z m 0,1.85208 c -0.7306268,0 -1.3229167,0.59229 -1.3229167,1.32292 0.8509934,0.33014 1.7287494,0.37482 2.6458333,0 0,-0.73063 -0.5922899,-1.32292 -1.3229166,-1.32292 z"
         id="rect966-6"
         inkscape:connector-curvature="0" />
    </g>
  </g>
</svg>
