<?xml version="1.0" encoding="UTF-8" standalone="no"?>
<!-- Created with Inkscape (http://www.inkscape.org/) -->

<svg
   xmlns:dc="http://purl.org/dc/elements/1.1/"
   xmlns:cc="http://creativecommons.org/ns#"
   xmlns:rdf="http://www.w3.org/1999/02/22-rdf-syntax-ns#"
   xmlns:svg="http://www.w3.org/2000/svg"
   xmlns="http://www.w3.org/2000/svg"
   xmlns:xlink="http://www.w3.org/1999/xlink"
   xmlns:sodipodi="http://sodipodi.sourceforge.net/DTD/sodipodi-0.dtd"
   xmlns:inkscape="http://www.inkscape.org/namespaces/inkscape"
   width="32"
   height="32"
   viewBox="0 0 32 32"
   version="1.1"
   id="svg8"
   inkscape:version="0.92.2 (5c3e80d, 2017-08-06)"
   sodipodi:docname="dialog-password.svg">
  <title
     id="title7895">Antu icon Theme</title>
  <defs
     id="defs2">
    <linearGradient
       y2="288.98691"
       x2="8.4477682"
       y1="295.60147"
       x1="8.4477682"
       gradientTransform="matrix(3.7795275,0,0,3.7795275,-127.92857,-716.58391)"
       gradientUnits="userSpaceOnUse"
       id="linearGradient2237"
       xlink:href="#linearGradient2126"
       inkscape:collect="always" />
    <style
       id="current-color-scheme"
       type="text/css">
      .ColorScheme-Text {
        color:#122036;
      }
      </style>
    <style
       id="current-color-scheme-7"
       type="text/css">
      .ColorScheme-Text {
        color:#122036;
      }
      </style>
    <style
       id="current-color-scheme-5"
       type="text/css">
      .ColorScheme-Text {
        color:#122036;
      }
      </style>
    <linearGradient
       id="linearGradient4582-3"
       inkscape:collect="always">
      <stop
         id="stop4578-5"
         offset="0"
         style="stop-color:#c8c8c8;stop-opacity:1" />
      <stop
         id="stop4580-6"
         offset="1"
         style="stop-color:#f2f2f2;stop-opacity:1" />
    </linearGradient>
    <linearGradient
       inkscape:collect="always"
       id="linearGradient2126">
      <stop
         style="stop-color:#475057;stop-opacity:1;"
         offset="0"
         id="stop2122" />
      <stop
         style="stop-color:#5e6a73;stop-opacity:1"
         offset="1"
         id="stop2124" />
    </linearGradient>
    <linearGradient
       inkscape:collect="always"
       xlink:href="#linearGradient4582-3"
       id="linearGradient881"
       x1="-96"
       y1="397.64999"
       x2="-96"
       y2="376.64999"
       gradientUnits="userSpaceOnUse"
       gradientTransform="translate(112,-370.64999)" />
  </defs>
  <sodipodi:namedview
     id="base"
     pagecolor="#ffffff"
     bordercolor="#666666"
     borderopacity="1.0"
     inkscape:pageopacity="0.0"
     inkscape:pageshadow="2"
     inkscape:zoom="1"
     inkscape:cx="138.02992"
     inkscape:cy="-5.9065727"
     inkscape:document-units="px"
     inkscape:current-layer="layer1"
     showgrid="true"
     units="px"
     inkscape:window-width="1280"
     inkscape:window-height="729"
     inkscape:window-x="0"
     inkscape:window-y="0"
     inkscape:window-maximized="1"
     objecttolerance="10"
     gridtolerance="10"
     guidetolerance="10">
    <inkscape:grid
       type="xygrid"
       id="grid7897"
       empspacing="4" />
  </sodipodi:namedview>
  <metadata
     id="metadata5">
    <rdf:RDF>
      <cc:Work
         rdf:about="">
        <dc:format>image/svg+xml</dc:format>
        <dc:type
           rdf:resource="http://purl.org/dc/dcmitype/StillImage" />
        <dc:title>Antu icon Theme</dc:title>
      </cc:Work>
    </rdf:RDF>
  </metadata>
  <g
     inkscape:label="Capa 1"
     inkscape:groupmode="layer"
     id="layer1"
     transform="translate(0,-282.64999)">
    <g
       id="g949"
       transform="translate(112,-88)">
      <path
         id="rect843-37"
         d="m -109,371.64999 h 25.999999 C -81.892,371.64999 -81,372.542 -81,373.65 v 25.99998 c 0,1.108 -0.892,2.00001 -2.000001,2.00001 H -109 c -1.108,0 -2,-0.89201 -2,-2.00001 V 373.65 c 0,-1.108 0.892,-2.00001 2,-2.00001 z"
         style="opacity:1;fill:#343b40;fill-opacity:1;stroke:none;stroke-width:2.39314151;stroke-linecap:round;stroke-linejoin:round;stroke-miterlimit:4;stroke-dasharray:none;stroke-opacity:1"
         inkscape:connector-curvature="0" />
      <path
         id="rect843-3-5"
         d="m -109,372.65002 h 25.999999 C -82.446,372.65002 -82,373.096 -82,373.65 v 26.00001 c 0,0.55397 -0.446,0.99999 -1.000001,0.99999 H -109 c -0.554,0 -1,-0.44602 -1,-0.99999 V 373.65 c 0,-0.554 0.446,-0.99998 1,-0.99998 z"
         style="opacity:1;fill:url(#linearGradient2237);fill-opacity:1.0;stroke:none;stroke-width:2.23359871;stroke-linecap:round;stroke-linejoin:round;stroke-miterlimit:4;stroke-dasharray:none;stroke-opacity:1"
         inkscape:connector-curvature="0" />
      <path
         style="opacity:0.97000002;fill:#343b40;fill-opacity:1;stroke:none;stroke-width:2;stroke-linecap:round;stroke-linejoin:round;stroke-miterlimit:4;stroke-dasharray:none;stroke-dashoffset:0;stroke-opacity:1"
         d="M 4.5 4 C 3.669 4 3 4.669 3 5.5 C 3 6.331 3.669 7 4.5 7 C 5.331 7 6 6.331 6 5.5 C 6 4.669 5.331 4 4.5 4 z M 27.5 4 C 26.669 4 26 4.669 26 5.5 C 26 6.331 26.669 7 27.5 7 C 28.331 7 29 6.331 29 5.5 C 29 4.669 28.331 4 27.5 4 z M 16 9 C 13.23 9 11 11.23 11 14 L 11 15 C 10.446 15 10 15.446 10 16 L 10 24 C 10 24.554 10.446 25 11 25 L 21 25 C 21.553998 25 22 24.554 22 24 L 22 16 C 22 15.446 21.553998 15 21 15 L 21 14 C 21 11.23 18.77 9 16 9 z M 16 11 C 17.662 11 19 12.338 19 14 L 19 15 L 13 15 L 13 14 C 13 12.338 14.338 11 16 11 z M 4.5 16 C 3.669 16 3 16.669 3 17.5 C 3 18.331 3.669 19 4.5 19 C 5.331 19 6 18.331 6 17.5 C 6 16.669 5.331 16 4.5 16 z M 27.5 16 C 26.669 16 26 16.669 26 17.5 C 26 18.331 26.669 19 27.5 19 C 28.331 19 29 18.331 29 17.5 C 29 16.669 28.331 16 27.5 16 z M 16 17 C 17.108 17 18 17.892 18 19 C 18 19.74107 17.595799 20.379049 17 20.724609 L 17 23 L 15 23 L 15 20.724609 C 14.404201 20.379049 14 19.74107 14 19 C 14 17.892 14.892 17 16 17 z M 4.5 27 C 3.669 27 3 27.669 3 28.5 C 3 29.331 3.669 30 4.5 30 C 5.331 30 6 29.331 6 28.5 C 6 27.669 5.331 27 4.5 27 z M 27.5 27 C 26.669 27 26 27.669 26 28.5 C 26 29.331 26.669 30 27.5 30 C 28.331 30 29 29.331 29 28.5 C 29 27.669 28.331 27 27.5 27 z "
         transform="translate(-112,370.64999)"
         id="rect869-1" />
      <path
         style="opacity:0.97000002;fill:url(#linearGradient881);fill-opacity:1;stroke:none;stroke-width:2;stroke-linecap:round;stroke-linejoin:round;stroke-miterlimit:4;stroke-dasharray:none;stroke-dashoffset:0;stroke-opacity:1"
         d="M 4.5 3 C 3.669 3 3 3.669 3 4.5 C 3 5.331 3.669 6 4.5 6 C 5.331 6 6 5.331 6 4.5 C 6 3.669 5.331 3 4.5 3 z M 27.5 3 C 26.669 3 26 3.669 26 4.5 C 26 5.331 26.669 6 27.5 6 C 28.331 6 29 5.331 29 4.5 C 29 3.669 28.331 3 27.5 3 z M 16 8 C 13.23 8 11 10.23 11 13 L 11 14 C 10.446 14 10 14.446 10 15 L 10 23 C 10 23.554 10.446 24 11 24 L 21 24 C 21.553998 24 22 23.554 22 23 L 22 15 C 22 14.446 21.553998 14 21 14 L 21 13 C 21 10.23 18.77 8 16 8 z M 16 10 C 17.662 10 19 11.338 19 13 L 19 14 L 13 14 L 13 13 C 13 11.338 14.338 10 16 10 z M 4.5 15 C 3.669 15 3 15.669 3 16.5 C 3 17.331 3.669 18 4.5 18 C 5.331 18 6 17.331 6 16.5 C 6 15.669 5.331 15 4.5 15 z M 27.5 15 C 26.669 15 26 15.669 26 16.5 C 26 17.331 26.669 18 27.5 18 C 28.331 18 29 17.331 29 16.5 C 29 15.669 28.331 15 27.5 15 z M 16 16 C 17.108 16 18 16.892 18 18 C 18 18.74107 17.595799 19.379049 17 19.724609 L 17 22 L 15 22 L 15 19.724609 C 14.404201 19.379049 14 18.74107 14 18 C 14 16.892 14.892 16 16 16 z M 4.5 26 C 3.669 26 3 26.669 3 27.5 C 3 28.331 3.669 29 4.5 29 C 5.331 29 6 28.331 6 27.5 C 6 26.669 5.331 26 4.5 26 z M 27.5 26 C 26.669 26 26 26.669 26 27.5 C 26 28.331 26.669 29 27.5 29 C 28.331 29 29 28.331 29 27.5 C 29 26.669 28.331 26 27.5 26 z "
         transform="translate(-112,370.64999)"
         id="rect869" />
    </g>
  </g>
</svg>
