<?xml version="1.0" encoding="UTF-8" standalone="no"?>
<svg
   xmlns:dc="http://purl.org/dc/elements/1.1/"
   xmlns:cc="http://creativecommons.org/ns#"
   xmlns:rdf="http://www.w3.org/1999/02/22-rdf-syntax-ns#"
   xmlns:svg="http://www.w3.org/2000/svg"
   xmlns="http://www.w3.org/2000/svg"
   xmlns:xlink="http://www.w3.org/1999/xlink"
   xmlns:sodipodi="http://sodipodi.sourceforge.net/DTD/sodipodi-0.dtd"
   xmlns:inkscape="http://www.inkscape.org/namespaces/inkscape"
   height="32"
   viewBox="0 0 8.4666664 8.4666669"
   width="32"
   version="1.1"
   id="svg6"
   sodipodi:docname="yast-vm-group.svg"
   inkscape:version="0.92.4 5da689c313, 2019-01-14">
  <metadata
     id="metadata10">
    <rdf:RDF>
      <cc:Work
         rdf:about="">
        <dc:format>image/svg+xml</dc:format>
        <dc:type
           rdf:resource="http://purl.org/dc/dcmitype/StillImage" />
        <dc:title />
      </cc:Work>
    </rdf:RDF>
  </metadata>
  <sodipodi:namedview
     pagecolor="#ffffff"
     bordercolor="#666666"
     borderopacity="1"
     objecttolerance="10"
     gridtolerance="10"
     guidetolerance="10"
     inkscape:pageopacity="0"
     inkscape:pageshadow="2"
     inkscape:window-width="1920"
     inkscape:window-height="1003"
     id="namedview8"
     showgrid="false"
     inkscape:zoom="14.75"
     inkscape:cx="27.023988"
     inkscape:cy="21.51452"
     inkscape:window-x="0"
     inkscape:window-y="0"
     inkscape:window-maximized="1"
     inkscape:current-layer="svg6" />
  <defs
     id="defs2">
    <style
       type="text/css"
       id="current-color-scheme">
      .ColorScheme-Text {
        color:#36404d;
      }
      </style>
    <linearGradient
       gradientTransform="translate(5,2)"
       inkscape:collect="always"
       xlink:href="#linearGradient7100"
       id="linearGradient844"
       x1="-2"
       y1="317.64999"
       x2="-2"
       y2="290.64999"
       gradientUnits="userSpaceOnUse" />
    <linearGradient
       id="linearGradient7100"
       inkscape:collect="always">
      <stop
         id="stop7096"
         offset="0"
         style="stop-color:#f0f0f0;stop-opacity:1" />
      <stop
         id="stop7098"
         offset="1"
         style="stop-color:#ffffff;stop-opacity:1" />
    </linearGradient>
    <linearGradient
       inkscape:collect="always"
       xlink:href="#linearGradient4766-0"
       id="linearGradient852"
       x1="-2.4978404"
       y1="311.7178"
       x2="-2"
       y2="292.64999"
       gradientUnits="userSpaceOnUse"
       gradientTransform="translate(5.022097,1.9779)" />
    <linearGradient
       inkscape:collect="always"
       id="linearGradient4766-0">
      <stop
         style="stop-color:#24b17a;stop-opacity:1"
         offset="0"
         id="stop4762" />
      <stop
         style="stop-color:#1e7755;stop-opacity:1"
         offset="1"
         id="stop4764" />
    </linearGradient>
    <style
       id="current-color-scheme-261"
       type="text/css">
      .ColorScheme-Text {
        color:#122036;
      }
      </style>
    <style
       type="text/css"
       id="current-color-scheme-3">
      .ColorScheme-Text {
        color:#122036;
      }
      </style>
    <style
       id="current-color-scheme-6"
       type="text/css">
      .ColorScheme-Text {
        color:#122036;
      }
      </style>
    <style
       id="current-color-scheme-60"
       type="text/css">
      .ColorScheme-Text {
        color:#122036;
      }
      </style>
    <style
       id="current-color-scheme-9"
       type="text/css">
      .ColorScheme-Text {
        color:#122036;
      }
      </style>
    <style
       type="text/css"
       id="current-color-scheme-8">
      .ColorScheme-Text {
        color:#122036;
      }
      </style>
    <style
       type="text/css"
       id="current-color-scheme-53">
      .ColorScheme-Text {
        color:#122036;
      }
      </style>
    <style
       id="current-color-scheme-23"
       type="text/css">
      .ColorScheme-Text {
        color:#122036;
      }
      </style>
    <style
       type="text/css"
       id="current-color-scheme-5">
      .ColorScheme-Text {
        color:#122036;
      }
      </style>
    <style
       type="text/css"
       id="current-color-scheme-2">
      .ColorScheme-Text {
        color:#122036;
      }
      </style>
    <style
       type="text/css"
       id="current-color-scheme-1">
      .ColorScheme-Text {
        color:#122036;
      }
      </style>
    <style
       id="current-color-scheme-10"
       type="text/css">
      .ColorScheme-Text {
        color:#122036;
      }
      </style>
    <style
       type="text/css"
       id="current-color-scheme-0">
      .ColorScheme-Text {
        color:#122036;
      }
      </style>
    <style
       type="text/css"
       id="current-color-scheme-26">
      .ColorScheme-Text {
        color:#122036;
      }
      </style>
  </defs>
  <g
     id="g1001">
    <g
       inkscape:label="Capa 1"
       id="layer1"
       transform="matrix(0.26458333,0,0,0.26458333,4.4999997e-8,-74.784476)">
      <g
         id="g5628"
         transform="translate(13,-8)">
        <path
           id="rect843-6"
           d="m -10,291.64999 h 26 c 1.108,0 2,0.892 2,2 v 26 c 0,1.108 -0.892,2 -2,2 h -26 c -1.108,0 -2,-0.892 -2,-2 v -26 c 0,-1.108 0.892,-2 2,-2 z"
           style="opacity:1;fill:#90a4ae;fill-opacity:1;stroke:none;stroke-width:2.39314151;stroke-linecap:round;stroke-linejoin:round;stroke-miterlimit:4;stroke-dasharray:none;stroke-opacity:1"
           inkscape:connector-curvature="0" />
        <path
           id="rect843-3-7"
           d="m -10,292.64999 h 26 c 0.553999,0 1,0.446 1,1 v 26 c 0,0.554 -0.446001,1 -1,1 h -26 c -0.554,0 -1,-0.446 -1,-1 v -26 c 0,-0.554 0.446,-1 1,-1 z"
           style="opacity:1;fill:url(#linearGradient844);fill-opacity:1;stroke:none;stroke-width:2.23359871;stroke-linecap:round;stroke-linejoin:round;stroke-miterlimit:4;stroke-dasharray:none;stroke-opacity:1"
           inkscape:connector-curvature="0" />
        <path
           sodipodi:nodetypes="sssssssss"
           id="rect834-5"
           d="m -9.000004,293.64999 h 24.000008 c 0.553998,0 0.999996,0.446 0.999996,1 v 19 c 0,0.554 -0.445998,1 -0.999996,1 H -9.000004 c -0.553998,0 -0.999996,-0.446 -0.999996,-1 v -19 c 0,-0.554 0.445998,-1 0.999996,-1 z"
           style="opacity:1;fill:#007042;fill-opacity:1;stroke:none;stroke-width:2;stroke-linecap:round;stroke-linejoin:round;stroke-miterlimit:4;stroke-dasharray:none;stroke-opacity:1;paint-order:stroke markers fill"
           inkscape:connector-curvature="0" />
        <path
           sodipodi:nodetypes="ccccc"
           id="rect836-3"
           d="m -8.977903,294.6279 h 24 l -0.0221,19.02209 h -24 z"
           style="opacity:1;fill:url(#linearGradient852);fill-opacity:1;stroke:none;stroke-width:2;stroke-linecap:round;stroke-linejoin:round;stroke-miterlimit:4;stroke-dasharray:none;stroke-opacity:1;paint-order:stroke markers fill"
           inkscape:connector-curvature="0" />
        <path
           inkscape:connector-curvature="0"
           style="opacity:1;fill:#007042;fill-opacity:1;stroke:none;stroke-width:2;stroke-linecap:round;stroke-linejoin:round;stroke-miterlimit:4;stroke-dasharray:none;stroke-opacity:1;paint-order:stroke markers fill"
           d="m 13.544194,316.64999 c 0.831,0 1.5,0.669 1.5,1.5 0,0.831 -0.669,1.5 -1.5,1.5 -0.831,0 -1.5,-0.669 -1.5,-1.5 0,-0.831 0.669,-1.5 1.5,-1.5 z"
           id="rect1584-5" />
        <path
           inkscape:connector-curvature="0"
           style="opacity:1;fill:#24b07a;fill-opacity:1;stroke:none;stroke-width:2;stroke-linecap:round;stroke-linejoin:round;stroke-miterlimit:4;stroke-dasharray:none;stroke-opacity:1;paint-order:stroke markers fill"
           d="m 13.544194,317.64999 c 0.277,0 0.5,0.223 0.5,0.5 0,0.277 -0.223,0.5 -0.5,0.5 -0.277,0 -0.5,-0.223 -0.5,-0.5 0,-0.277 0.223,-0.5 0.5,-0.5 z"
           id="rect1586-6" />
        <path
           inkscape:connector-curvature="0"
           style="opacity:1;fill:#007042;fill-opacity:1;stroke:none;stroke-width:2;stroke-linecap:round;stroke-linejoin:round;stroke-miterlimit:4;stroke-dasharray:none;stroke-opacity:1;paint-order:stroke markers fill"
           d="m 9.544194,316.64999 c 0.831,0 1.5,0.669 1.5,1.5 0,0.831 -0.669,1.5 -1.5,1.5 -0.831,0 -1.5,-0.669 -1.5,-1.5 0,-0.831 0.669,-1.5 1.5,-1.5 z"
           id="rect1584-6-2" />
        <path
           inkscape:connector-curvature="0"
           style="opacity:1;fill:#24b07a;fill-opacity:1;stroke:none;stroke-width:2;stroke-linecap:round;stroke-linejoin:round;stroke-miterlimit:4;stroke-dasharray:none;stroke-opacity:1;paint-order:stroke markers fill"
           d="m 9.544194,317.64999 c 0.277,0 0.5,0.223 0.5,0.5 0,0.277 -0.223,0.5 -0.5,0.5 -0.277,0 -0.5,-0.223 -0.5,-0.5 0,-0.277 0.223,-0.5 0.5,-0.5 z"
           id="rect1586-7-9" />
        <path
           inkscape:connector-curvature="0"
           style="opacity:1;fill:#007042;fill-opacity:1;stroke:none;stroke-width:2;stroke-linecap:round;stroke-linejoin:round;stroke-miterlimit:4;stroke-dasharray:none;stroke-opacity:1;paint-order:stroke markers fill"
           d="m 5.544194,316.61874 c 0.831,0 1.5,0.669 1.5,1.5 0,0.831 -0.669,1.5 -1.5,1.5 -0.831,0 -1.5,-0.669 -1.5,-1.5 0,-0.831 0.669,-1.5 1.5,-1.5 z"
           id="rect1584-8-1" />
        <path
           inkscape:connector-curvature="0"
           style="opacity:1;fill:#24b07a;fill-opacity:1;stroke:none;stroke-width:2;stroke-linecap:round;stroke-linejoin:round;stroke-miterlimit:4;stroke-dasharray:none;stroke-opacity:1;paint-order:stroke markers fill"
           d="m 5.544194,317.61874 c 0.277,0 0.5,0.223 0.5,0.5 0,0.277 -0.223,0.5 -0.5,0.5 -0.277,0 -0.5,-0.223 -0.5,-0.5 0,-0.277 0.223,-0.5 0.5,-0.5 z"
           id="rect1586-4-2" />
        <path
           inkscape:connector-curvature="0"
           id="rect4881-7"
           d="m -7,315.64999 h 3 c 1.108,0 2,0.892 2,2 0,1.108 -0.892,2 -2,2 h -3 c -1.108,0 -2,-0.892 -2,-2 0,-1.108 0.892,-2 2,-2 z"
           style="opacity:1;fill:#007042;fill-opacity:1;stroke:none;stroke-width:4;stroke-linecap:round;stroke-linejoin:round;stroke-miterlimit:4;stroke-dasharray:none;stroke-dashoffset:0;stroke-opacity:1" />
        <path
           id="rect4445-3-5-7-0"
           d="m 4,316.64999 h 3 c 0.554,0 1,0.446 1,1 0,0.554 -0.446,1 -1,1 H 4 c -0.554,0 -1,-0.446 -1,-1 0,-0.554 0.446,-1 1,-1 z"
           style="opacity:1;fill:#24b07a;fill-opacity:1;stroke:none;stroke-width:2;stroke-linecap:round;stroke-linejoin:round;stroke-miterlimit:4;stroke-dasharray:none;stroke-opacity:1"
           transform="scale(-1,1)" />
        <path
           inkscape:connector-curvature="0"
           id="rect4898-9"
           d="m -7,315.64999 c 1.108,0 2,0.892 2,2 0,1.108 -0.892,2 -2,2 -1.108,0 -2,-0.892 -2,-2 0,-1.108 0.892,-2 2,-2 z"
           style="opacity:1;fill:#007042;fill-opacity:1;stroke:none;stroke-width:4;stroke-linecap:round;stroke-linejoin:round;stroke-miterlimit:4;stroke-dasharray:none;stroke-dashoffset:0;stroke-opacity:1" />
        <path
           id="path4472-6-4-3"
           d="m 8,317.64999 a 1,1 0 0 1 -1,1 1,1 0 0 1 -1,-1 1,1 0 0 1 1,-1 1,1 0 0 1 1,1 z"
           style="opacity:1;fill:#f1f1f1;fill-opacity:1;stroke:none;stroke-width:2;stroke-linecap:round;stroke-linejoin:round;stroke-miterlimit:4;stroke-dasharray:none;stroke-opacity:1"
           transform="scale(-1,1)" />
      </g>
    </g>
    <g
       transform="translate(8.789548,-1.5605932)"
       id="g1615">
      <path
         style="fill:#dcf1e9;fill-opacity:1;stroke:none;stroke-width:0.26458332px;stroke-linecap:butt;stroke-linejoin:miter;stroke-opacity:1"
         d="m -5.4719212,2.8793757 c -0.1321409,-0.00179 -0.2678115,-3.936e-4 -0.4072102,0.00413 V 3.4126765 L -6.408298,3.1480932 c -0.7372848,1.3890868 -0.6909962,2.8221445 0.00827,4.2333333 1.7533837,-1.3163709 3.1255763,0.4237567 4.2250651,-1.5875 C -4.6139542,6.6519623 -5.614548,5.2647598 -5.614548,4.7355932 -4.4534471,6.194929 -3.1035194,5.917098 -2.1749647,5.2647598 -2.3301344,3.6485757 -3.4898081,2.906172 -5.4719212,2.8793757 Z m 1.5771648,0.5333008 c 0.5130271,0 0.9260417,0.4130146 0.9260417,0.9260417 0,0.513027 -0.4130146,0.9260416 -0.9260417,0.9260416 -0.5130271,0 -0.9260416,-0.4130146 -0.9260416,-0.9260416 0,-0.5130271 0.4130145,-0.9260417 0.9260416,-0.9260417 z m 0,0.2645833 c -0.3664479,0 -0.6614583,0.2950104 -0.6614583,0.6614584 0,0.3664479 0.2950104,0.6614583 0.6614583,0.6614583 0.3664479,0 0.6614584,-0.2950104 0.6614584,-0.6614583 0,-0.366448 -0.2950105,-0.6614584 -0.6614584,-0.6614584 z m 0.1322917,0.2645834 c 0.1461254,0 0.2645833,0.118458 0.2645833,0.2645833 0,0.1461254 -0.1184579,0.2645833 -0.2645833,0.2645833 -0.1461254,0 -0.2645833,-0.1184579 -0.2645833,-0.2645833 0,-0.1461253 0.1184579,-0.2645833 0.2645833,-0.2645833 z"
         id="path929"
         inkscape:connector-curvature="0"
         sodipodi:nodetypes="scccccccssssssssssssssss" />
    </g>
  </g>
</svg>
