<?xml version="1.0" encoding="UTF-8" standalone="no"?>
<!-- Created with Inkscape (http://www.inkscape.org/) -->

<svg
   xmlns:dc="http://purl.org/dc/elements/1.1/"
   xmlns:cc="http://creativecommons.org/ns#"
   xmlns:rdf="http://www.w3.org/1999/02/22-rdf-syntax-ns#"
   xmlns:svg="http://www.w3.org/2000/svg"
   xmlns="http://www.w3.org/2000/svg"
   xmlns:xlink="http://www.w3.org/1999/xlink"
   xmlns:sodipodi="http://sodipodi.sourceforge.net/DTD/sodipodi-0.dtd"
   xmlns:inkscape="http://www.inkscape.org/namespaces/inkscape"
   width="32"
   height="32"
   viewBox="0 0 32 32"
   version="1.1"
   id="svg8"
   inkscape:version="0.92.2 5c3e80d, 2017-08-06"
   sodipodi:docname="preferences-web-browser-shortcuts.svg">
  <title
     id="title7895">Antu icon Theme</title>
  <defs
     id="defs2">
    <linearGradient
       inkscape:collect="always"
       xlink:href="#linearGradient4582"
       id="linearGradient852"
       x1="8.4477682"
       y1="295.60147"
       x2="8.4477682"
       y2="288.98691"
       gradientUnits="userSpaceOnUse"
       gradientTransform="matrix(3.7795275,0,0,3.7795275,-37.928569,-796.58391)" />
    <linearGradient
       id="linearGradient4582"
       inkscape:collect="always">
      <stop
         id="stop4578"
         offset="0"
         style="stop-color:#5b637b;stop-opacity:1" />
      <stop
         id="stop4580"
         offset="1"
         style="stop-color:#727b97;stop-opacity:1" />
    </linearGradient>
  </defs>
  <sodipodi:namedview
     id="base"
     pagecolor="#ffffff"
     bordercolor="#666666"
     borderopacity="1.0"
     inkscape:pageopacity="0.0"
     inkscape:pageshadow="2"
     inkscape:zoom="15.839192"
     inkscape:cx="-4.4321239"
     inkscape:cy="9.8592752"
     inkscape:document-units="px"
     inkscape:current-layer="layer1"
     showgrid="true"
     units="px"
     inkscape:window-width="1366"
     inkscape:window-height="697"
     inkscape:window-x="0"
     inkscape:window-y="0"
     inkscape:window-maximized="1"
     objecttolerance="10"
     gridtolerance="10"
     guidetolerance="10">
    <inkscape:grid
       type="xygrid"
       id="grid7897"
       empspacing="4" />
  </sodipodi:namedview>
  <metadata
     id="metadata5">
    <rdf:RDF>
      <cc:Work
         rdf:about="">
        <dc:format>image/svg+xml</dc:format>
        <dc:type
           rdf:resource="http://purl.org/dc/dcmitype/StillImage" />
        <dc:title>Antu icon Theme</dc:title>
      </cc:Work>
    </rdf:RDF>
  </metadata>
  <g
     inkscape:label="Capa 1"
     inkscape:groupmode="layer"
     id="layer1"
     transform="translate(0,-282.64999)">
    <g
       id="g1473"
       transform="translate(22,-8)">
      <path
         id="rect843"
         d="M -19,291.64999 H 7 c 1.108,0 2,0.892 2,2 v 26 c 0,1.108 -0.892,2 -2,2 h -26 c -1.108,0 -2,-0.892 -2,-2 v -26 c 0,-1.108 0.892,-2 2,-2 z"
         style="opacity:1;fill:#363c4d;fill-opacity:1;stroke:none;stroke-width:2.39314151;stroke-linecap:round;stroke-linejoin:round;stroke-miterlimit:4;stroke-dasharray:none;stroke-opacity:1"
         inkscape:connector-curvature="0" />
      <path
         id="rect843-3"
         d="M -19,292.64999 H 7 c 0.553999,0 1,0.446 1,1 v 26 c 0,0.554 -0.446001,1 -1,1 h -26 c -0.554,0 -1,-0.446 -1,-1 v -26 c 0,-0.554 0.446,-1 1,-1 z"
         style="opacity:1;fill:url(#linearGradient852);fill-opacity:1;stroke:none;stroke-width:2.23359871;stroke-linecap:round;stroke-linejoin:round;stroke-miterlimit:4;stroke-dasharray:none;stroke-opacity:1"
         inkscape:connector-curvature="0" />
      <path
         id="rect4510-2"
         d="m -11,299.64997 c -1.662,0 -3,1.33802 -3,2.99999 0,1.66201 1.338,3 3,3 h 1 v 4.00003 h -1 c -1.662,0 -3,1.33799 -3,3 0,1.66197 1.338,3 3,3 1.662,0 3,-1.33803 3,-3 v -1.00003 h 4 v 1.00003 c 0,1.66197 1.338,3 3,3 1.662,0 3.000002,-1.33803 3.000002,-3 0,-1.66201 -1.338002,-3 -3.000002,-3 h -1 v -4.00003 h 1 c 1.662,0 3.000002,-1.33799 3.000002,-3 0,-1.66197 -1.338002,-2.99999 -3.000002,-2.99999 -1.662,0 -3,1.33802 -3,2.99999 v 1.00003 h -4 v -1.00003 c 0,-1.66197 -1.338,-2.99999 -3,-2.99999 z m 0,2.00001 c 0.554,0 1,0.44598 1,0.99998 v 1.00003 h -1 c -0.554,0 -1,-0.44602 -1,-1.00003 0,-0.554 0.446,-0.99998 1,-0.99998 z m 10,0 c 0.554,0 1.000001,0.44598 1.000001,0.99998 0,0.55401 -0.446001,1.00003 -1.000001,1.00003 h -1 v -1.00003 c 0,-0.554 0.446,-0.99998 1,-0.99998 z m -7,3.99998 h 4 v 4.00003 h -4 z m -3,6 h 1 v 1.00003 c 0,0.554 -0.446,0.99999 -1,0.99999 -0.554,0 -1,-0.44599 -1,-0.99999 0,-0.554 0.446,-1.00003 1,-1.00003 z m 9,0 h 1 c 0.554,0 1.000001,0.44603 1.000001,1.00003 0,0.554 -0.446001,0.99999 -1.000001,0.99999 -0.554,0 -1,-0.44599 -1,-0.99999 z"
         style="fill:#484f66;fill-opacity:1;stroke:none;stroke-width:0.40000001;stroke-linecap:round;stroke-linejoin:round;stroke-miterlimit:4;stroke-dasharray:none;stroke-opacity:1"
         inkscape:connector-curvature="0" />
      <path
         id="rect4510"
         d="m -11,298.64997 c -1.662,0 -3,1.33802 -3,3 0,1.662 1.338,2.99999 3,2.99999 h 1 v 4.00003 h -1 c -1.662,0 -3,1.33799 -3,3 0,1.66197 1.338,3 3,3 1.662,0 3,-1.33803 3,-3 v -1.00003 h 4 v 1.00003 c 0,1.66197 1.338,3 3,3 1.662,0 3.000002,-1.33803 3.000002,-3 0,-1.66201 -1.338002,-3 -3.000002,-3 h -1 v -4.00003 h 1 c 1.662,0 3.000002,-1.33799 3.000002,-2.99999 0,-1.66198 -1.338002,-3 -3.000002,-3 -1.662,0 -3,1.33802 -3,3 v 1.00002 h -4 v -1.00002 c 0,-1.66198 -1.338,-3 -3,-3 z m 0,2.00001 c 0.554,0 1,0.44598 1,0.99999 v 1.00002 h -1 c -0.554,0 -1,-0.44602 -1,-1.00002 0,-0.55401 0.446,-0.99999 1,-0.99999 z m 10,0 c 0.554,0 1.000001,0.44598 1.000001,0.99999 0,0.554 -0.446001,1.00002 -1.000001,1.00002 h -1 v -1.00002 c 0,-0.55401 0.446,-0.99999 1,-0.99999 z m -7,3.99998 h 4 v 4.00003 h -4 z m -3,6 h 1 v 1.00003 c 0,0.554 -0.446,0.99999 -1,0.99999 -0.554,0 -1,-0.44599 -1,-0.99999 0,-0.554 0.446,-1.00003 1,-1.00003 z m 9,0 h 1 c 0.554,0 1.000001,0.44603 1.000001,1.00003 0,0.554 -0.446001,0.99999 -1.000001,0.99999 -0.554,0 -1,-0.44599 -1,-0.99999 z"
         style="fill:#ffffff;fill-opacity:1;stroke:none;stroke-width:0.40000001;stroke-linecap:round;stroke-linejoin:round;stroke-miterlimit:4;stroke-dasharray:none;stroke-opacity:1"
         inkscape:connector-curvature="0" />
    </g>
  </g>
</svg>
