<?xml version="1.0" encoding="UTF-8" standalone="no"?>
<!-- Created with Inkscape (http://www.inkscape.org/) -->

<svg
   xmlns:dc="http://purl.org/dc/elements/1.1/"
   xmlns:cc="http://creativecommons.org/ns#"
   xmlns:rdf="http://www.w3.org/1999/02/22-rdf-syntax-ns#"
   xmlns:svg="http://www.w3.org/2000/svg"
   xmlns="http://www.w3.org/2000/svg"
   xmlns:xlink="http://www.w3.org/1999/xlink"
   xmlns:sodipodi="http://sodipodi.sourceforge.net/DTD/sodipodi-0.dtd"
   xmlns:inkscape="http://www.inkscape.org/namespaces/inkscape"
   width="32"
   height="32"
   viewBox="0 0 8.4666662 8.4666664"
   version="1.1"
   id="svg1399"
   inkscape:version="0.92.4 5da689c313, 2019-01-14"
   sodipodi:docname="preferences-system-network-wakeonlan.svg">
  <defs
     id="defs1393">
    <linearGradient
       inkscape:collect="always"
       xlink:href="#linearGradient4541"
       id="linearGradient4543"
       x1="2.8064666"
       y1="297.66144"
       x2="2.8064666"
       y2="290.25311"
       gradientUnits="userSpaceOnUse"
       gradientTransform="matrix(3.7795275,0,0,3.7795275,-9.6071181,-802.36957)" />
    <linearGradient
       inkscape:collect="always"
       id="linearGradient4541">
      <stop
         style="stop-color:#5a627a;stop-opacity:1"
         offset="0"
         id="stop4537" />
      <stop
         style="stop-color:#999fbd;stop-opacity:1"
         offset="1"
         id="stop4539" />
    </linearGradient>
    <linearGradient
       gradientUnits="userSpaceOnUse"
       y2="290.5177"
       x2="3.0710499"
       y1="297.39685"
       x1="3.0710499"
       id="linearGradient4571"
       xlink:href="#linearGradient4577"
       inkscape:collect="always"
       gradientTransform="matrix(3.7795274,0,0,3.7795274,-9.6071183,-802.36957)" />
    <linearGradient
       inkscape:collect="always"
       id="linearGradient4577">
      <stop
         style="stop-color:#5d657d;stop-opacity:1"
         offset="0"
         id="stop4573" />
      <stop
         id="stop4581"
         offset="0.14079665"
         style="stop-color:#dae1fc;stop-opacity:1" />
      <stop
         id="stop4579"
         offset="0.80769384"
         style="stop-color:#f8fcfc;stop-opacity:1" />
      <stop
         style="stop-color:#969cb9;stop-opacity:1"
         offset="1"
         id="stop4575" />
    </linearGradient>
    <linearGradient
       gradientUnits="userSpaceOnUse"
       y2="291.31143"
       x2="4.9231334"
       y1="292.36978"
       x1="-0.10395013"
       id="linearGradient4589"
       xlink:href="#linearGradient4595"
       inkscape:collect="always"
       gradientTransform="matrix(3.7795275,0,0,3.7795275,-9.6071182,-802.36957)" />
    <linearGradient
       inkscape:collect="always"
       id="linearGradient4595">
      <stop
         style="stop-color:#8990ac;stop-opacity:1"
         offset="0"
         id="stop4591" />
      <stop
         id="stop4599"
         offset="0.16897085"
         style="stop-color:#ffffff;stop-opacity:1" />
      <stop
         id="stop4597"
         offset="0.78947365"
         style="stop-color:#d5dcf6;stop-opacity:1" />
      <stop
         style="stop-color:#9298b5;stop-opacity:1"
         offset="1"
         id="stop4593" />
    </linearGradient>
    <linearGradient
       gradientUnits="userSpaceOnUse"
       y2="296.07394"
       x2="5.7168832"
       y1="296.07394"
       x1="-0.10395013"
       id="linearGradient4563"
       xlink:href="#linearGradient4561"
       inkscape:collect="always"
       gradientTransform="matrix(3.7795274,0,0,3.7795274,-9.6071183,-802.36957)" />
    <linearGradient
       id="linearGradient4561"
       inkscape:collect="always">
      <stop
         id="stop4557"
         offset="0"
         style="stop-color:#646c85;stop-opacity:1" />
      <stop
         style="stop-color:#dae1fc;stop-opacity:1"
         offset="0.1477273"
         id="stop4538" />
      <stop
         style="stop-color:#ecfcfc;stop-opacity:1"
         offset="0.79139614"
         id="stop4535" />
      <stop
         id="stop4559"
         offset="1"
         style="stop-color:#666d87;stop-opacity:1" />
    </linearGradient>
    <linearGradient
       gradientUnits="userSpaceOnUse"
       y2="293.4281"
       x2="5.9814668"
       y1="297.13226"
       x1="4.3939667"
       id="linearGradient4607"
       xlink:href="#linearGradient4605"
       inkscape:collect="always"
       gradientTransform="matrix(3.7795275,0,0,3.7795275,-9.6071181,-802.36957)" />
    <linearGradient
       id="linearGradient4605"
       inkscape:collect="always">
      <stop
         id="stop4601"
         offset="0"
         style="stop-color:#606881;stop-opacity:1" />
      <stop
         style="stop-color:#cdd4ef;stop-opacity:1"
         offset="0.23733707"
         id="stop4611" />
      <stop
         style="stop-color:#dae1fc;stop-opacity:1"
         offset="0.66666657"
         id="stop4609" />
      <stop
         id="stop4603"
         offset="1"
         style="stop-color:#79809b;stop-opacity:1" />
    </linearGradient>
    <linearGradient
       gradientUnits="userSpaceOnUse"
       y2="291.31143"
       x2="5.4523001"
       y1="295.01559"
       x1="5.9814668"
       id="linearGradient4619"
       xlink:href="#linearGradient4617"
       inkscape:collect="always"
       gradientTransform="matrix(3.7795273,0,0,3.7795273,-9.6071184,-802.36957)" />
    <linearGradient
       id="linearGradient4617"
       inkscape:collect="always">
      <stop
         id="stop4613"
         offset="0"
         style="stop-color:#717892;stop-opacity:1" />
      <stop
         style="stop-color:#f3ffff;stop-opacity:1"
         offset="0.33111522"
         id="stop4623" />
      <stop
         style="stop-color:#dae1fc;stop-opacity:1"
         offset="0.78571385"
         id="stop4621" />
      <stop
         id="stop4615"
         offset="1"
         style="stop-color:#8e95b2;stop-opacity:1" />
    </linearGradient>
    <linearGradient
       inkscape:collect="always"
       xlink:href="#linearGradient4774"
       id="linearGradient1501"
       x1="-2.8409073"
       y1="9.2761068"
       x2="-3.1054907"
       y2="5.3073568"
       gradientUnits="userSpaceOnUse" />
    <linearGradient
       id="linearGradient4774"
       inkscape:collect="always">
      <stop
         id="stop4770"
         offset="0"
         style="stop-color:#f41e3d;stop-opacity:1" />
      <stop
         id="stop4772"
         offset="1"
         style="stop-color:#fc3a56;stop-opacity:1" />
    </linearGradient>
  </defs>
  <sodipodi:namedview
     id="base"
     pagecolor="#ffffff"
     bordercolor="#666666"
     borderopacity="1.0"
     inkscape:pageopacity="0.0"
     inkscape:pageshadow="2"
     inkscape:zoom="31.678384"
     inkscape:cx="21.270657"
     inkscape:cy="9.6466435"
     inkscape:document-units="mm"
     inkscape:current-layer="g1406"
     showgrid="true"
     inkscape:showpageshadow="false"
     units="px"
     inkscape:window-width="1920"
     inkscape:window-height="999"
     inkscape:window-x="0"
     inkscape:window-y="0"
     inkscape:window-maximized="1">
    <inkscape:grid
       type="xygrid"
       id="grid2140" />
  </sodipodi:namedview>
  <metadata
     id="metadata1396">
    <rdf:RDF>
      <cc:Work
         rdf:about="">
        <dc:format>image/svg+xml</dc:format>
        <dc:type
           rdf:resource="http://purl.org/dc/dcmitype/StillImage" />
        <dc:title />
      </cc:Work>
    </rdf:RDF>
  </metadata>
  <g
     inkscape:label="Capa 1"
     inkscape:groupmode="layer"
     id="layer1"
     transform="translate(0,-288.53338)">
    <g
       transform="translate(7e-7,288.53338)"
       id="g1406">
      <g
         inkscape:label="Capa 1"
         id="layer1-3"
         transform="matrix(0.26458333,0,0,0.26458333,4.4999996e-8,-74.784476)">
        <g
           id="g1592"
           transform="translate(15,-10)">
          <path
             id="rect4496-6"
             d="M 0.99999987,293.65003 C 9.3099999,293.65003 16,300.33987 16,308.64995 c 0,8.30994 -6.6900001,15 -15.00000013,15 -8.30999927,0 -14.99999987,-6.69006 -14.99999987,-15 0,-8.31008 6.6900006,-14.99992 14.99999987,-14.99992 z"
             style="fill:#393d4d;fill-opacity:1;stroke:none;stroke-width:1.46965909;stroke-linecap:round;stroke-linejoin:round;stroke-miterlimit:4;stroke-dasharray:none;stroke-opacity:1"
             inkscape:connector-curvature="0" />
          <path
             id="rect4570-9-6-0"
             d="M 1.0000009,294.64998 C 8.7559999,294.64998 15,300.89391 15,308.64995 15,316.406 8.7559999,322.65004 1.0000009,322.65004 -6.7560001,322.65004 -13,316.406 -13,308.64995 c 0,-7.75604 6.2439999,-13.99997 14.0000009,-13.99997 z"
             style="fill:url(#linearGradient4543);fill-opacity:1;stroke:none;stroke-width:1.40220487;stroke-linecap:round;stroke-linejoin:round;stroke-miterlimit:4;stroke-dasharray:none;stroke-opacity:1"
             inkscape:connector-curvature="0" />
          <path
             id="path4538"
             d="m 2.9765609,295.14411 a 0.50004997,0.50004997 0 0 0 -0.265624,0.0977 c -0.722317,0.50562 -1.393899,1.03421 -2.02539103,1.58008 -0.206224,-0.10643 -0.436625,-0.17188 -0.685547,-0.17188 -0.831,0 -1.49999997,0.669 -1.49999997,1.5 0,0.23725 0.05899,0.45916 0.15625,0.6582 -2.557683,2.86384 -4.0100745,6.10539 -4.2792964,9.42578 -0.2502068,3.0859 0.5319706,6.2182 2.3398434,9.14844 -0.134537,0.22504 -0.216797,0.48527 -0.216797,0.76758 0,0.831 0.669,1.5 1.5,1.5 0.111077,0 0.218188,-0.0144 0.322266,-0.0371 0.69168197,0.82887 1.47139597,1.63473 2.34374997,2.41016 a 0.50004997,0.50004997 0 1 0 0.66406203,-0.7461 c -0.80201103,-0.71289 -1.51825003,-1.44867 -2.15625003,-2.20117 0.201294,-0.25525 0.326172,-0.57401 0.326172,-0.92578 0,-0.831 -0.66899997,-1.5 -1.49999997,-1.5 -0.181781,0 -0.352702,0.037 -0.513672,0.0957 -1.6553695,-2.72779 -2.3423225,-5.60679 -2.1132805,-8.43164 0.248947,-3.07035 1.5845075,-6.09696 3.99609347,-8.80664 0.192344,0.0894 0.404081,0.14258 0.630859,0.14258 0.831,0 1.50000003,-0.669 1.50000003,-1.5 0,-0.21242 -0.04409,-0.41292 -0.123047,-0.5957 0.596364,-0.51302 1.225789,-1.01509 1.910156,-1.49414 a 0.50004997,0.50004997 0 0 0 -0.310547,-0.91602 z"
             style="color:#000000;font-style:normal;font-variant:normal;font-weight:normal;font-stretch:normal;font-size:medium;line-height:normal;font-family:sans-serif;font-variant-ligatures:normal;font-variant-position:normal;font-variant-caps:normal;font-variant-numeric:normal;font-variant-alternates:normal;font-feature-settings:normal;text-indent:0;text-align:start;text-decoration:none;text-decoration-line:none;text-decoration-style:solid;text-decoration-color:#000000;letter-spacing:normal;word-spacing:normal;text-transform:none;writing-mode:lr-tb;direction:ltr;text-orientation:mixed;dominant-baseline:auto;baseline-shift:baseline;text-anchor:start;white-space:normal;shape-padding:0;clip-rule:nonzero;display:inline;overflow:visible;visibility:visible;opacity:1;isolation:auto;mix-blend-mode:normal;color-interpolation:sRGB;color-interpolation-filters:linearRGB;solid-color:#000000;solid-opacity:1;vector-effect:none;fill:url(#linearGradient4571);fill-opacity:1;fill-rule:nonzero;stroke:none;stroke-width:0.99999994;stroke-linecap:round;stroke-linejoin:miter;stroke-miterlimit:4;stroke-dasharray:none;stroke-dashoffset:0;stroke-opacity:1;color-rendering:auto;image-rendering:auto;shape-rendering:auto;text-rendering:auto;enable-background:accumulate"
             inkscape:connector-curvature="0" />
          <path
             id="path4538-6-6"
             d="m 9.9804679,298.1402 a 0.50004998,0.50004998 0 0 0 -0.01367,0.002 0.50004998,0.50004998 0 0 0 -0.398438,0.25 c -2.933167,4.8886 -6.773261,7.02312 -10.49023603,7.38282 -0.89397397,0.0865 -1.78022597,0.0633 -2.64648397,-0.0469 -0.182595,-0.62243 -0.7485915,-1.07812 -1.4316405,-1.07812 -0.4335826,0 -0.8203856,0.18432 -1.09375,0.47656 -1.7386289,-0.61127 -3.3088553,-1.58814 -4.5488284,-2.82812 a 0.50132771,0.50132771 0 1 0 -0.708984,0.70898 c 1.334328,1.33433 3.0076071,2.38519 4.861328,3.04688 -0.00206,0.0323 -0.00977,0.0629 -0.00977,0.0957 0,0.83096 0.6690002,1.5 1.5,1.5 0.626073,0 1.1594079,-0.37924 1.3847659,-0.92188 0.913113,0.1097 1.84742,0.13429 2.79101497,0.043 4.03302503,-0.39027 8.18902503,-2.74993 11.25586013,-7.86133 a 0.50004998,0.50004998 0 0 0 -0.4511681,-0.76953 z"
             style="color:#000000;font-style:normal;font-variant:normal;font-weight:normal;font-stretch:normal;font-size:medium;line-height:normal;font-family:sans-serif;font-variant-ligatures:normal;font-variant-position:normal;font-variant-caps:normal;font-variant-numeric:normal;font-variant-alternates:normal;font-feature-settings:normal;text-indent:0;text-align:start;text-decoration:none;text-decoration-line:none;text-decoration-style:solid;text-decoration-color:#000000;letter-spacing:normal;word-spacing:normal;text-transform:none;writing-mode:lr-tb;direction:ltr;text-orientation:mixed;dominant-baseline:auto;baseline-shift:baseline;text-anchor:start;white-space:normal;shape-padding:0;clip-rule:nonzero;display:inline;overflow:visible;visibility:visible;opacity:1;isolation:auto;mix-blend-mode:normal;color-interpolation:sRGB;color-interpolation-filters:linearRGB;solid-color:#000000;solid-opacity:1;vector-effect:none;fill:url(#linearGradient4589);fill-opacity:1;fill-rule:nonzero;stroke:none;stroke-width:0.99999994;stroke-linecap:round;stroke-linejoin:miter;stroke-miterlimit:4;stroke-dasharray:none;stroke-dashoffset:0;stroke-opacity:1;color-rendering:auto;image-rendering:auto;shape-rendering:auto;text-rendering:auto;enable-background:accumulate"
             inkscape:connector-curvature="0" />
          <path
             id="path4538-6-5"
             d="m 1.9999989,309.64997 c -0.729103,0 -1.33150503,0.51555 -1.46875003,1.20312 -3.98919597,0.0264 -7.84923107,1.79684 -10.90820287,5.26368 a 0.50207555,0.50207555 0 1 0 0.7519534,0.66406 c 2.9179408,-3.30701 6.5173305,-4.92969 10.24609347,-4.92969 0.02011,0 0.04043,0.004 0.06055,0.004 0.252203,0.47168 0.74407703,0.79493 1.31835603,0.79493 0.463133,0 0.871757,-0.21123 1.146484,-0.53906 2.920278,0.57088 5.848826,2.11999 8.5039071,4.69922 a 0.50112229,0.50112229 0 1 0 0.701171,-0.71485 c -2.7258461,-2.64797 -5.7754781,-4.29949 -8.8515621,-4.93945 8e-6,-0.002 0,-0.004 0,-0.006 0,-0.83097 -0.669013,-1.49996 -1.5,-1.49996 z"
             style="color:#000000;font-style:normal;font-variant:normal;font-weight:normal;font-stretch:normal;font-size:medium;line-height:normal;font-family:sans-serif;font-variant-ligatures:normal;font-variant-position:normal;font-variant-caps:normal;font-variant-numeric:normal;font-variant-alternates:normal;font-feature-settings:normal;text-indent:0;text-align:start;text-decoration:none;text-decoration-line:none;text-decoration-style:solid;text-decoration-color:#000000;letter-spacing:normal;word-spacing:normal;text-transform:none;writing-mode:lr-tb;direction:ltr;text-orientation:mixed;dominant-baseline:auto;baseline-shift:baseline;text-anchor:start;white-space:normal;shape-padding:0;clip-rule:nonzero;display:inline;overflow:visible;visibility:visible;opacity:1;isolation:auto;mix-blend-mode:normal;color-interpolation:sRGB;color-interpolation-filters:linearRGB;solid-color:#000000;solid-opacity:1;vector-effect:none;fill:url(#linearGradient4563);fill-opacity:1;fill-rule:nonzero;stroke:none;stroke-width:0.99999994;stroke-linecap:round;stroke-linejoin:round;stroke-miterlimit:4;stroke-dasharray:none;stroke-dashoffset:0;stroke-opacity:1;color-rendering:auto;image-rendering:auto;shape-rendering:auto;text-rendering:auto;enable-background:accumulate"
             inkscape:connector-curvature="0" />
          <path
             inkscape:connector-curvature="0"
             id="path4538-6-5-3"
             d="m 13.99775,307.14801 c -3.222223,0 -5.8733011,2.14099 -7.3154531,4.89418 -1.442151,2.7532 -1.721699,6.18074 -0.110729,8.86568 a 0.50006747,0.50006747 0 1 0 0.8563,-0.51674 c -1.389029,-2.31503 -1.167593,-5.38707 0.140256,-7.88387 1.307848,-2.49679 3.6518491,-4.3553 6.4296261,-4.3553 a 0.501978,0.501978 0 1 0 0,-1.00395 z"
             style="color:#000000;font-style:normal;font-variant:normal;font-weight:normal;font-stretch:normal;font-size:medium;line-height:normal;font-family:sans-serif;font-variant-ligatures:normal;font-variant-position:normal;font-variant-caps:normal;font-variant-numeric:normal;font-variant-alternates:normal;font-feature-settings:normal;text-indent:0;text-align:start;text-decoration:none;text-decoration-line:none;text-decoration-style:solid;text-decoration-color:#000000;letter-spacing:normal;word-spacing:normal;text-transform:none;writing-mode:lr-tb;direction:ltr;text-orientation:mixed;dominant-baseline:auto;baseline-shift:baseline;text-anchor:start;white-space:normal;shape-padding:0;clip-rule:nonzero;display:inline;overflow:visible;visibility:visible;opacity:1;isolation:auto;mix-blend-mode:normal;color-interpolation:sRGB;color-interpolation-filters:linearRGB;solid-color:#000000;solid-opacity:1;vector-effect:none;fill:url(#linearGradient4607);fill-opacity:1;fill-rule:nonzero;stroke:none;stroke-width:0.99999994;stroke-linecap:round;stroke-linejoin:miter;stroke-miterlimit:4;stroke-dasharray:none;stroke-dashoffset:0;stroke-opacity:1;color-rendering:auto;image-rendering:auto;shape-rendering:auto;text-rendering:auto;enable-background:accumulate" />
          <path
             id="path4538-6-5-3-5"
             d="m 9.9902329,298.14216 a 0.50004996,0.50004996 0 0 0 -0.339843,0.15429 c -2.693823,2.69383 -2.856668,7.005 -1.0625,10.36914 -0.05229,0.15293 -0.08789,0.3133 -0.08789,0.48438 0,0.82835 0.664875,1.49575 1.492188,1.5 0.9935191,1.08794 2.2492261,1.96263 3.7480461,2.4707 a 0.50004996,0.50004996 0 1 0 0.324219,-0.94531 c -1.196769,-0.40568 -2.209478,-1.08758 -3.044922,-1.92773 0.294586,-0.27355 0.480469,-0.66209 0.480469,-1.09766 0,-0.83101 -0.669,-1.5 -1.5000001,-1.5 -0.246751,0 -0.474776,0.0652 -0.679688,0.16992 -1.397076,-2.95156 -1.199646,-6.58355 1.0312501,-8.81445 a 0.50004996,0.50004996 0 0 0 -0.3613291,-0.86328 z"
             style="color:#000000;font-style:normal;font-variant:normal;font-weight:normal;font-stretch:normal;font-size:medium;line-height:normal;font-family:sans-serif;font-variant-ligatures:normal;font-variant-position:normal;font-variant-caps:normal;font-variant-numeric:normal;font-variant-alternates:normal;font-feature-settings:normal;text-indent:0;text-align:start;text-decoration:none;text-decoration-line:none;text-decoration-style:solid;text-decoration-color:#000000;letter-spacing:normal;word-spacing:normal;text-transform:none;writing-mode:lr-tb;direction:ltr;text-orientation:mixed;dominant-baseline:auto;baseline-shift:baseline;text-anchor:start;white-space:normal;shape-padding:0;clip-rule:nonzero;display:inline;overflow:visible;visibility:visible;opacity:1;isolation:auto;mix-blend-mode:normal;color-interpolation:sRGB;color-interpolation-filters:linearRGB;solid-color:#000000;solid-opacity:1;vector-effect:none;fill:url(#linearGradient4619);fill-opacity:1;fill-rule:nonzero;stroke:none;stroke-width:0.99999994;stroke-linecap:round;stroke-linejoin:miter;stroke-miterlimit:4;stroke-dasharray:none;stroke-dashoffset:0;stroke-opacity:1;color-rendering:auto;image-rendering:auto;shape-rendering:auto;text-rendering:auto;enable-background:accumulate"
             inkscape:connector-curvature="0" />
        </g>
      </g>
      <g
         transform="translate(9.1909074,-1.338607)"
         id="g3302">
        <path
           inkscape:connector-curvature="0"
           style="opacity:1;vector-effect:none;fill:#be011e;fill-opacity:1;stroke:none;stroke-width:0.59164834;stroke-linecap:round;stroke-linejoin:round;stroke-miterlimit:4;stroke-dasharray:none;stroke-dashoffset:0;stroke-opacity:1"
           d="m -3.1054908,5.0427736 c 1.3192125,0 2.38124997,1.0620375 2.38124997,2.38125 0,1.3192125 -1.06203747,2.38125 -2.38124997,2.38125 -1.3192125,0 -2.38125,-1.0620375 -2.38125,-2.38125 0,-1.3192125 1.0620375,-2.38125 2.38125,-2.38125 z"
           id="rect843" />
        <path
           inkscape:connector-curvature="0"
           style="opacity:1;vector-effect:none;fill:url(#linearGradient1501);fill-opacity:1;stroke:none;stroke-width:0.52590966;stroke-linecap:round;stroke-linejoin:round;stroke-miterlimit:4;stroke-dasharray:none;stroke-dashoffset:0;stroke-opacity:1"
           d="m -3.1054908,5.307357 c 1.1726334,0 2.11666667,0.9440333 2.11666667,2.1166666 0,1.1726334 -0.94403327,2.1166667 -2.11666667,2.1166667 -1.1726333,0 -2.1166666,-0.9440333 -2.1166666,-2.1166667 0,-1.1726333 0.9440333,-2.1166666 2.1166666,-2.1166666 z"
           id="rect843-6" />
      </g>
      <path
         sodipodi:nodetypes="ccccccsssccssscc"
         inkscape:connector-curvature="0"
         id="path872-1-3"
         d="m 5.8208326,4.4979167 v 1.3229167 h 0.529166 V 4.4979167 Z M 5.5562493,4.6043692 C 4.7950829,4.834353 4.2333326,5.5118424 4.2333326,6.3500001 c 0,1.0260541 0.8260291,1.8520833 1.852083,1.8520833 1.026055,0 1.852083,-0.8260292 1.852083,-1.8520833 0,-0.8381577 -0.561749,-1.5156471 -1.322916,-1.7456309 v 0.5353685 c 0.467104,0.2037822 0.793751,0.6663928 0.793751,1.2102624 0,0.7328958 -0.590022,1.3229166 -1.322918,1.3229166 -0.7328955,0 -1.3229164,-0.5900208 -1.3229164,-1.3229166 0,-0.5438696 0.3266461,-1.0064802 0.7937501,-1.2102624 z"
         style="opacity:1;fill:#be011e;fill-opacity:1;stroke:none;stroke-width:0.49388888;stroke-linecap:round;stroke-linejoin:round;stroke-miterlimit:4;stroke-dasharray:none;stroke-opacity:1;paint-order:stroke markers fill" />
      <path
         sodipodi:nodetypes="ccccccsssccssscc"
         inkscape:connector-curvature="0"
         id="path872-1"
         d="M 5.8208333,4.2333333 V 5.55625 h 0.529166 V 4.2333333 Z M 5.5562503,4.3397858 C 4.7950839,4.5697696 4.2333336,5.247259 4.2333336,6.0854167 4.2333336,7.1114708 5.0593627,7.9375 6.085417,7.9375 7.111471,7.9375 7.9375,7.1114708 7.9375,6.0854167 7.9375,5.247259 7.37575,4.5697696 6.614584,4.3397858 v 0.5353685 c 0.467104,0.2037821 0.79375,0.6663928 0.79375,1.2102624 0,0.7328958 -0.590021,1.3229166 -1.322917,1.3229166 -0.7328959,0 -1.3229168,-0.5900208 -1.3229168,-1.3229166 0,-0.5438696 0.3266461,-1.0064803 0.7937501,-1.2102624 z"
         style="opacity:1;fill:#ffeaed;fill-opacity:1;stroke:none;stroke-width:0.49388888;stroke-linecap:round;stroke-linejoin:round;stroke-miterlimit:4;stroke-dasharray:none;stroke-opacity:1;paint-order:stroke markers fill" />
    </g>
  </g>
</svg>
