<?xml version="1.0" encoding="UTF-8" standalone="no"?>
<!-- Created with Inkscape (http://www.inkscape.org/) -->

<svg
   width="32"
   height="32"
   viewBox="0 0 32 32"
   version="1.1"
   id="svg8"
   inkscape:version="1.2 (dc2aedaf03, 2022-05-15)"
   sodipodi:docname="yast-software.svg"
   xml:space="preserve"
   xmlns:inkscape="http://www.inkscape.org/namespaces/inkscape"
   xmlns:sodipodi="http://sodipodi.sourceforge.net/DTD/sodipodi-0.dtd"
   xmlns:xlink="http://www.w3.org/1999/xlink"
   xmlns="http://www.w3.org/2000/svg"
   xmlns:svg="http://www.w3.org/2000/svg"
   xmlns:rdf="http://www.w3.org/1999/02/22-rdf-syntax-ns#"
   xmlns:cc="http://creativecommons.org/ns#"
   xmlns:dc="http://purl.org/dc/elements/1.1/"><title
     id="title7895">Antu icon Theme</title><defs
     id="defs2"><linearGradient
       inkscape:collect="always"
       id="linearGradient4961"><stop
         style="stop-color:#009e90;stop-opacity:1;"
         offset="0"
         id="stop4957" /><stop
         style="stop-color:#59bdb4;stop-opacity:1;"
         offset="1"
         id="stop4959" /></linearGradient><linearGradient
       inkscape:collect="always"
       id="linearGradient1929"><stop
         style="stop-color:#d0a679;stop-opacity:1;"
         offset="0"
         id="stop1925" /><stop
         style="stop-color:#d9b389;stop-opacity:1;"
         offset="1"
         id="stop1927" /></linearGradient><style
       id="current-color-scheme"
       type="text/css">
      .ColorScheme-Text {
        color:#122036;
      }
      </style><style
       id="current-color-scheme-2"
       type="text/css">
      .ColorScheme-Text {
        color:#122036;
      }
      </style><style
       type="text/css"
       id="current-color-scheme-60">
      .ColorScheme-Text {
        color:#122036;
      }
      </style><style
       id="current-color-scheme-6"
       type="text/css">
      .ColorScheme-Text {
        color:#122036;
      }
      </style><style
       id="current-color-scheme-2-6"
       type="text/css">
      .ColorScheme-Text {
        color:#122036;
      }
      </style><style
       type="text/css"
       id="current-color-scheme-606">
      .ColorScheme-Text {
        color:#36404d;
      }
      </style><style
       id="current-color-scheme-06"
       type="text/css">
      .ColorScheme-Text {
        color:#122036;
      }
      </style><style
       type="text/css"
       id="current-color-scheme-23">
      .ColorScheme-Text {
        color:#122036;
      }
      </style><style
       id="current-color-scheme-5"
       type="text/css">
      .ColorScheme-Text {
        color:#122036;
      }
      </style><style
       id="current-color-scheme-2-2"
       type="text/css">
      .ColorScheme-Text {
        color:#122036;
      }
      </style><style
       id="current-color-scheme-1"
       type="text/css">
      .ColorScheme-Text {
        color:#122036;
      }
      </style><style
       type="text/css"
       id="current-color-scheme-10">
      .ColorScheme-Text {
        color:#122036;
      }
      </style><style
       id="current-color-scheme-0"
       type="text/css">
      .ColorScheme-Text {
        color:#122036;
      }
      </style><style
       id="current-color-scheme-26"
       type="text/css">
      .ColorScheme-Text {
        color:#122036;
      }
      </style><style
       id="current-color-scheme-67"
       type="text/css">
      .ColorScheme-Text {
        color:#122036;
      }
      </style><style
       type="text/css"
       id="current-color-scheme-3">
      .ColorScheme-Text {
        color:#122036;
      }
      </style><style
       id="current-color-scheme-6-6"
       type="text/css">
      .ColorScheme-Text {
        color:#122036;
      }
      </style><style
       id="current-color-scheme-60-1"
       type="text/css">
      .ColorScheme-Text {
        color:#122036;
      }
      </style><style
       id="current-color-scheme-9"
       type="text/css">
      .ColorScheme-Text {
        color:#122036;
      }
      </style><style
       type="text/css"
       id="current-color-scheme-8">
      .ColorScheme-Text {
        color:#122036;
      }
      </style><style
       id="current-color-scheme-35"
       type="text/css">
      .ColorScheme-Text {
        color:#36404d;
      }
      </style><linearGradient
       inkscape:collect="always"
       xlink:href="#linearGradient1929"
       id="linearGradient1931"
       x1="-55"
       y1="317.82855"
       x2="-55"
       y2="296.82855"
       gradientUnits="userSpaceOnUse"
       gradientTransform="translate(63,-5.17857)" /><linearGradient
       inkscape:collect="always"
       xlink:href="#linearGradient4961"
       id="linearGradient4963"
       x1="22"
       y1="300.64999"
       x2="22"
       y2="284.64999"
       gradientUnits="userSpaceOnUse" /></defs><sodipodi:namedview
     id="base"
     pagecolor="#ffffff"
     bordercolor="#666666"
     borderopacity="1.0"
     inkscape:pageopacity="0.0"
     inkscape:pageshadow="2"
     inkscape:zoom="16"
     inkscape:cx="25.40625"
     inkscape:cy="14.65625"
     inkscape:document-units="px"
     inkscape:current-layer="layer1"
     showgrid="true"
     units="px"
     inkscape:window-width="2160"
     inkscape:window-height="1335"
     inkscape:window-x="0"
     inkscape:window-y="0"
     inkscape:window-maximized="1"
     objecttolerance="10"
     gridtolerance="10"
     guidetolerance="10"
     inkscape:snap-bbox="true"
     inkscape:bbox-paths="true"
     inkscape:bbox-nodes="true"
     inkscape:snap-bbox-edge-midpoints="true"
     inkscape:snap-bbox-midpoints="true"
     inkscape:object-paths="true"
     inkscape:snap-intersection-paths="true"
     inkscape:showpageshadow="2"
     inkscape:pagecheckerboard="0"
     inkscape:deskcolor="#d1d1d1"><inkscape:grid
       type="xygrid"
       id="grid7897"
       empspacing="4" /></sodipodi:namedview><metadata
     id="metadata5"><rdf:RDF><cc:Work
         rdf:about=""><dc:format>image/svg+xml</dc:format><dc:type
           rdf:resource="http://purl.org/dc/dcmitype/StillImage" /><dc:title>Antu icon Theme</dc:title></cc:Work></rdf:RDF></metadata><g
     inkscape:label="Capa 1"
     inkscape:groupmode="layer"
     id="layer1"
     transform="translate(0,-282.64999)"><path
       id="rect843-2"
       d="m 1.6,290.64999 h 20.8 c 0.8864,0 1.6,0.7136 1.6,1.6 v 20.8 c 0,0.8864 -0.7136,1.6 -1.6,1.6 H 1.6 c -0.8864,0 -1.6,-0.7136 -1.6,-1.6 v -20.8 c 0,-0.8864 0.7136,-1.6 1.6,-1.6 z"
       style="fill:#806956;fill-opacity:1;stroke:none;stroke-width:1.91451;stroke-linecap:round;stroke-linejoin:round;stroke-miterlimit:4;stroke-dasharray:none;stroke-opacity:1"
       inkscape:connector-curvature="0" /><path
       sodipodi:nodetypes="ssccccsssssss"
       id="rect843-3-8"
       d="M 1.785714,291.64999 C 1.350429,291.64999 1,292.00043 1,292.43571 v 7.21428 h 17 v 6 H 1 v 7.21429 c 0,0.43528 0.350429,0.78571 0.785714,0.78571 H 22.214286 C 22.649571,313.64999 23,313.29956 23,312.86428 v -20.42857 c 0,-0.43528 -0.350429,-0.78572 -0.785714,-0.78572 z"
       style="fill:url(#linearGradient1931);fill-opacity:1;stroke:none;stroke-width:1.75497;stroke-linecap:round;stroke-linejoin:round;stroke-miterlimit:4;stroke-dasharray:none;stroke-opacity:1"
       inkscape:connector-curvature="0" /><path
       sodipodi:nodetypes="sssssssss"
       id="rect841-4"
       d="m 4,293.64999 h 16 c 0.554,0 1,0.446 1,1 v 16.1 c 0,0.554 -0.446,1 -1,1 H 4 c -0.554,0 -1,-0.446 -1,-1 v -16.1 c 0,-0.554 0.446,-1 1,-1 z"
       style="fill:#ffffff;fill-opacity:1;stroke:none;stroke-width:6;stroke-linecap:round;stroke-linejoin:round;stroke-miterlimit:4;stroke-dasharray:none;stroke-dashoffset:0;stroke-opacity:1;paint-order:stroke markers fill"
       inkscape:connector-curvature="0" /><path
       sodipodi:nodetypes="ccccccccccccccc"
       id="rect860-7"
       d="m 5.000008,295.64999 -4e-6,5 h 6.999992 l 4e-6,-5 z m 1,1 H 11 v 1 H 6.000008 Z m 0,2 h 2 v 1 h -2 z"
       style="fill:#242833;fill-opacity:1;stroke:none;stroke-width:6;stroke-linecap:round;stroke-linejoin:round;stroke-miterlimit:4;stroke-dasharray:none;stroke-dashoffset:0;stroke-opacity:1;paint-order:stroke markers fill"
       inkscape:connector-curvature="0" /><path
       sodipodi:nodetypes="cccccccccc"
       id="rect860-7-3"
       d="m 12.000008,303.64999 -1.2e-5,3 h 6.999992 l 1.2e-5,-3 z m 0.999992,1 h 2 v 1 h -2 z"
       style="fill:#23a79b;fill-opacity:1;stroke:none;stroke-width:6;stroke-linecap:round;stroke-linejoin:round;stroke-miterlimit:4;stroke-dasharray:none;stroke-dashoffset:0;stroke-opacity:1;paint-order:stroke markers fill"
       inkscape:connector-curvature="0" /><path
       sodipodi:nodetypes="ccccccccccccccccccccccccccccccccccc"
       inkscape:connector-curvature="0"
       id="rect883-8"
       d="m 4,307.64999 v 3 h 1 v -3 z m 2,2 v 1 h 2 v -1 z m 3,0 v 1 h 1 v -1 z m 2,-2 v 3 h 2 v -3 z m 3,0 v 3 h 2 v -3 z m 3,0 v 3 h 1 v -3 z m 2,0 v 3 h 1 v -3 z"
       style="fill:#242833;fill-opacity:1;stroke:none;stroke-width:6;stroke-linecap:round;stroke-linejoin:round;stroke-miterlimit:4;stroke-dasharray:none;stroke-dashoffset:0;stroke-opacity:1;paint-order:stroke markers fill" /><path
       sodipodi:nodetypes="csccccccccsc"
       inkscape:connector-curvature="0"
       id="path904-0"
       d="m 8.001748,301.65018 c 0.553999,0 1,0.44603 1,0.99999 v 2 h 1 c 0.89067,3.2e-4 1.336636,1.07707 0.707031,1.70706 l -2,1.99998 c -0.390529,0.39038 -1.023532,0.39038 -1.414061,0 l -2,-1.99998 c -0.629624,-0.62999 -0.183652,-1.70675 0.70703,-1.70707 h 1 v -2 c 0,-0.55396 0.446002,-0.99999 1,-0.99998 z"
       style="color:#122036;fill:#242833;fill-opacity:1;stroke:none;stroke-width:1" /><path
       style="fill:#0f6070;fill-opacity:0.99607843;stroke:none;stroke-width:1.3179;stroke-linecap:round;stroke-linejoin:round;stroke-miterlimit:4;stroke-dasharray:none;stroke-opacity:1"
       d="m 22,282.64999 c 5.54,0 10,4.46 10,10 0,5.54 -4.46,10 -10,10 -5.54,0 -10,-4.46 -10,-10 0,-5.54 4.46,-10 10,-10 z"
       id="rect903"
       inkscape:connector-curvature="0" /><path
       style="fill:url(#linearGradient4963);fill-opacity:1;stroke:none;stroke-width:1.18611;stroke-linecap:round;stroke-linejoin:round;stroke-miterlimit:4;stroke-dasharray:none;stroke-opacity:1"
       d="m 22,283.64999 c 4.986,0 9,4.014 9,9 0,4.986 -4.014,9 -9,9 -4.986,0 -9,-4.014 -9,-9 0,-4.986 4.014,-9 9,-9 z"
       id="rect903-2"
       inkscape:connector-curvature="0" /><path
       id="path929-7-0-3"
       style="fill:#147580;fill-opacity:1;stroke:none;stroke-width:0.705094px;stroke-linecap:butt;stroke-linejoin:miter;stroke-opacity:1"
       d="m 19.818359,287.63489 c -0.267662,-2.7e-4 -0.539744,0.004 -0.818359,0.0151 v 1.99997 l -1,-0.99999 c -2.749585,3.51379 -2.582472,7.06704 0,11.00002 4.67263,-3.50805 8.069948,1.35983 11,-4.00003 -6.49972,2.28658 -9,-1.58978 -9,-3 3.094243,3.88902 6.525475,2.73846 9,1.00003 -0.413498,-4.30704 -3.631887,-5.94036 -8.914063,-6.01172 -0.08804,-9.4e-4 -0.178356,-0.002 -0.267579,-0.002 z m 5.128907,2.01366 c 0.0172,-4.2e-4 0.03541,0 0.05273,0 1.107994,0 2,0.892 2,2.00001 0,1.10801 -0.892006,2.00001 -2,2.00001 -1.107994,0 -2,-0.892 -2,-2.00001 0,-1.0907 0.863391,-1.97273 1.947265,-2.00001 z m 0.02733,1.00002 c -0.541938,0.0151 -0.97461,0.45464 -0.97461,0.99999 0,0.554 0.446003,0.99999 1,0.99999 0.553998,0 1,-0.44599 1,-0.99999 0,-0.554 -0.446002,-0.99999 -1,-0.99999 -0.0087,0 -0.01678,-2.3e-4 -0.0254,0 z" /><path
       id="path929-7-0"
       style="fill:#e1fff9;fill-opacity:1;stroke:none;stroke-width:0.705094px;stroke-linecap:butt;stroke-linejoin:miter;stroke-opacity:1"
       d="m 19.818359,286.63489 c -0.267662,-2.7e-4 -0.539744,0.004 -0.818359,0.0151 v 1.99997 l -1,-0.99999 c -2.749585,3.51379 -2.582472,7.06704 0,11.00002 4.67263,-3.50805 8.069948,1.35983 11,-4.00003 -6.49972,2.28658 -9,-1.58978 -9,-3 3.094243,3.88902 6.525475,2.73846 9,1.00003 -0.413498,-4.30704 -3.631887,-5.94036 -8.914063,-6.01172 -0.08804,-9.4e-4 -0.178356,-0.002 -0.267579,-0.002 z m 5.128907,2.01366 c 0.0172,-4.2e-4 0.03541,0 0.05273,0 1.107994,0 2,0.892 2,2.00001 0,1.10801 -0.892006,2.00001 -2,2.00001 -1.107994,0 -2,-0.892 -2,-2.00001 0,-1.0907 0.863391,-1.97273 1.947265,-2.00001 z m 0.02733,1.00002 c -0.541938,0.0151 -0.97461,0.45464 -0.97461,0.99999 0,0.554 0.446003,0.99999 1,0.99999 0.553998,0 1,-0.44599 1,-0.99999 0,-0.554 -0.446002,-0.99999 -1,-0.99999 -0.0087,0 -0.01678,-2.3e-4 -0.0254,0 z" /></g></svg>
