<?xml version="1.0" encoding="UTF-8" standalone="no"?>
<svg
   height="32"
   viewBox="0 0 8.4666664 8.4666669"
   width="32"
   version="1.1"
   id="svg6"
   sodipodi:docname="yast-addon-extension.svg"
   inkscape:version="1.2 (dc2aedaf03, 2022-05-15)"
   xml:space="preserve"
   xmlns:inkscape="http://www.inkscape.org/namespaces/inkscape"
   xmlns:sodipodi="http://sodipodi.sourceforge.net/DTD/sodipodi-0.dtd"
   xmlns:xlink="http://www.w3.org/1999/xlink"
   xmlns="http://www.w3.org/2000/svg"
   xmlns:svg="http://www.w3.org/2000/svg"
   xmlns:rdf="http://www.w3.org/1999/02/22-rdf-syntax-ns#"
   xmlns:cc="http://creativecommons.org/ns#"
   xmlns:dc="http://purl.org/dc/elements/1.1/"><metadata
     id="metadata10"><rdf:RDF><cc:Work
         rdf:about=""><dc:format>image/svg+xml</dc:format><dc:type
           rdf:resource="http://purl.org/dc/dcmitype/StillImage" /><dc:title /></cc:Work></rdf:RDF></metadata><sodipodi:namedview
     pagecolor="#ffffff"
     bordercolor="#666666"
     borderopacity="1"
     objecttolerance="10"
     gridtolerance="10"
     guidetolerance="10"
     inkscape:pageopacity="0"
     inkscape:pageshadow="2"
     inkscape:window-width="2160"
     inkscape:window-height="1335"
     id="namedview8"
     showgrid="true"
     inkscape:zoom="14.75"
     inkscape:cx="31.830508"
     inkscape:cy="7.559322"
     inkscape:window-x="0"
     inkscape:window-y="0"
     inkscape:window-maximized="1"
     inkscape:current-layer="g6871"
     inkscape:snap-bbox="true"
     inkscape:bbox-nodes="true"
     inkscape:showpageshadow="2"
     inkscape:pagecheckerboard="0"
     inkscape:deskcolor="#d1d1d1"><inkscape:grid
       type="xygrid"
       id="grid821" /></sodipodi:namedview><defs
     id="defs2"><linearGradient
       inkscape:collect="always"
       id="linearGradient1842"><stop
         style="stop-color:#1f9b6b;stop-opacity:1;"
         offset="0"
         id="stop1838" /><stop
         style="stop-color:#24b27b;stop-opacity:1;"
         offset="1"
         id="stop1840" /></linearGradient><style
       type="text/css"
       id="current-color-scheme">
      .ColorScheme-Text {
        color:#36404d;
      }
      </style><linearGradient
       inkscape:collect="always"
       xlink:href="#linearGradient1842"
       id="linearGradient1844"
       x1="14"
       y1="23"
       x2="14"
       y2="3"
       gradientUnits="userSpaceOnUse" /></defs><g
     id="g6871"
     transform="translate(7.8567796,-2.1346046)"><path
       style="fill:#00663c;fill-opacity:1;stroke:none;stroke-width:1.99999988;stroke-linecap:round;stroke-linejoin:round;stroke-miterlimit:4;stroke-dasharray:none;stroke-opacity:1"
       d="M 13.5 1 C 11.561 1 10 2.561 10 4.5 L 10 5 L 5.1230469 5 C 2.83902 5 1 6.83902 1 9.1230469 L 1 16 L 3.5 16 C 4.1924997 16 4.8176565 16.278594 5.2695312 16.730469 C 5.7214061 17.182344 6 17.8075 6 18.5 C 6 19.1925 5.7214061 19.817656 5.2695312 20.269531 C 4.8176565 20.721406 4.1924997 21 3.5 21 L 1 21 L 1 26.876953 C 1 29.16098 2.83902 31 5.1230469 31 L 11 31 L 11 28.5 C 11 27.8075 11.278594 27.182344 11.730469 26.730469 C 12.182344 26.278594 12.8075 26 13.5 26 C 14.1925 26 14.817656 26.278594 15.269531 26.730469 C 15.721406 27.182344 16 27.8075 16 28.5 L 16 31 L 22.876953 31 C 25.16098 31 27 29.16098 27 26.876953 L 27 22 L 27.5 22 C 29.439 22 31 20.439 31 18.5 C 31 16.561 29.439 15 27.5 15 L 27 15 L 27 9.1230469 C 27 6.83902 25.16098 5 22.876953 5 L 17 5 L 17 4.5 C 17 2.561 15.439 1 13.5 1 z "
       id="rect824"
       transform="matrix(0.26458333,0,0,0.26458333,-7.8567796,2.1346046)" /><path
       style="fill:url(#linearGradient1844);fill-opacity:1;stroke:none;stroke-width:1.99999988;stroke-linecap:round;stroke-linejoin:round;stroke-miterlimit:4;stroke-dasharray:none;stroke-opacity:1"
       d="M 13.5 2 C 12.115 2 11 3.1150001 11 4.5 L 11 6 L 5 6 C 3.3380019 6 2 7.338 2 9 L 2 15 L 3.5 15 C 3.98475 15 4.4462188 15.096797 4.8652344 15.273438 C 5.28425 15.450078 5.66025 15.707125 5.9765625 16.023438 C 6.292875 16.33975 6.5499219 16.71575 6.7265625 17.134766 C 6.9032031 17.553781 7 18.01525 7 18.5 C 7 18.98475 6.9032031 19.446219 6.7265625 19.865234 C 6.5499219 20.28425 6.292875 20.66025 5.9765625 20.976562 C 5.66025 21.292875 5.28425 21.549922 4.8652344 21.726562 C 4.4462188 21.903203 3.98475 22 3.5 22 L 2 22 L 2 27 C 2 28.662002 3.3380019 30 5 30 L 10 30 L 10 28.5 C 10 28.01525 10.096797 27.553781 10.273438 27.134766 C 10.450077 26.71575 10.707125 26.339749 11.023438 26.023438 C 11.339749 25.707125 11.71575 25.450077 12.134766 25.273438 C 12.553781 25.096797 13.01525 25 13.5 25 C 13.98475 25 14.446219 25.096797 14.865234 25.273438 C 15.28425 25.450077 15.660251 25.707125 15.976562 26.023438 C 16.292875 26.339749 16.549923 26.71575 16.726562 27.134766 C 16.903203 27.553781 17 28.01525 17 28.5 L 17 30 L 23 30 C 24.662002 30 26 28.662002 26 27 L 26 21 L 27.5 21 C 28.885 21 30 19.885 30 18.5 C 30 17.115 28.885 16 27.5 16 L 26 16 L 26 9 C 26 7.338 24.662002 6 23 6 L 16 6 L 16 4.5 C 16 3.1150001 14.885 2 13.5 2 z "
       id="rect868"
       transform="matrix(0.26458333,0,0,0.26458333,-7.8567796,2.1346046)" /></g></svg>
