<?xml version="1.0" encoding="UTF-8" standalone="no"?>
<!-- Created with Inkscape (http://www.inkscape.org/) -->

<svg
   xmlns:dc="http://purl.org/dc/elements/1.1/"
   xmlns:cc="http://creativecommons.org/ns#"
   xmlns:rdf="http://www.w3.org/1999/02/22-rdf-syntax-ns#"
   xmlns:svg="http://www.w3.org/2000/svg"
   xmlns="http://www.w3.org/2000/svg"
   xmlns:xlink="http://www.w3.org/1999/xlink"
   xmlns:sodipodi="http://sodipodi.sourceforge.net/DTD/sodipodi-0.dtd"
   xmlns:inkscape="http://www.inkscape.org/namespaces/inkscape"
   width="32"
   height="32"
   viewBox="0 0 32 32"
   version="1.1"
   id="svg8"
   inkscape:version="0.92.2 2405546, 2018-03-11"
   sodipodi:docname="yast-firewall.svg">
  <title
     id="title7895">Antu icon Theme</title>
  <defs
     id="defs2">
    <linearGradient
       y2="288.98691"
       x2="8.4477682"
       y1="295.60147"
       x1="8.4477682"
       gradientTransform="matrix(3.7795275,0,0,3.7795275,-63.92857,-804.58391)"
       gradientUnits="userSpaceOnUse"
       id="linearGradient2237"
       xlink:href="#linearGradient6408-7"
       inkscape:collect="always" />
    <linearGradient
       inkscape:collect="always"
       id="linearGradient6408-7">
      <stop
         style="stop-color:#f34242;stop-opacity:1"
         offset="0"
         id="stop6404-3" />
      <stop
         style="stop-color:#ff6767;stop-opacity:1"
         offset="1"
         id="stop6406-6" />
    </linearGradient>
  </defs>
  <sodipodi:namedview
     id="base"
     pagecolor="#ffffff"
     bordercolor="#666666"
     borderopacity="1.0"
     inkscape:pageopacity="0.0"
     inkscape:pageshadow="2"
     inkscape:zoom="15.839192"
     inkscape:cx="21.07123"
     inkscape:cy="16.472203"
     inkscape:document-units="px"
     inkscape:current-layer="g2137"
     showgrid="true"
     units="px"
     inkscape:window-width="1360"
     inkscape:window-height="711"
     inkscape:window-x="0"
     inkscape:window-y="28"
     inkscape:window-maximized="1"
     objecttolerance="10"
     gridtolerance="10"
     guidetolerance="10"
     inkscape:snap-bbox="true"
     inkscape:bbox-paths="true"
     inkscape:bbox-nodes="true"
     inkscape:snap-bbox-edge-midpoints="true"
     inkscape:snap-bbox-midpoints="true"
     inkscape:object-paths="true"
     inkscape:snap-intersection-paths="true">
    <inkscape:grid
       type="xygrid"
       id="grid7897"
       empspacing="4" />
  </sodipodi:namedview>
  <metadata
     id="metadata5">
    <rdf:RDF>
      <cc:Work
         rdf:about="">
        <dc:format>image/svg+xml</dc:format>
        <dc:type
           rdf:resource="http://purl.org/dc/dcmitype/StillImage" />
        <dc:title>Antu icon Theme</dc:title>
      </cc:Work>
    </rdf:RDF>
  </metadata>
  <g
     inkscape:label="Capa 1"
     inkscape:groupmode="layer"
     id="layer1"
     transform="translate(0,-282.64999)">
    <g
       id="g2137"
       transform="translate(48)">
      <path
         sodipodi:nodetypes="sssssssss"
         inkscape:connector-curvature="0"
         style="opacity:1;fill:#b22c2c;fill-opacity:1;stroke:none;stroke-width:2.39314151;stroke-linecap:round;stroke-linejoin:round;stroke-miterlimit:4;stroke-dasharray:none;stroke-opacity:1"
         d="m -45,284.64999 h 25.999999 c 1.108001,0 2.000001,0.892 2.000001,2 v 24.99999 c 0,1.108 -0.892,2.00001 -2.000001,2.00001 H -45 c -1.108,0 -2,-0.89201 -2,-2.00001 v -24.99999 c 0,-1.108 0.892,-2 2,-2 z"
         id="rect843-37" />
      <path
         id="rect843-3-5"
         d="m -45,285.64999 c -0.554,0 -1,0.44601 -1,1 v 2 h 5 v -3 z m 5,0 v 3 h 5 v -3 z m 6,0 v 3 h 5 v -3 z m 6,0 v 3 h 4 v -3 z m 5,0 v 3 h 5 v -2 c 0,-0.55399 -0.445999,-1 -1,-1 z m -23,4 v 3 h 3 v -3 z m 4,0 v 3 h 4 v -3 z m 5,0 v 3 h 4 v -3 z m 5,0 v 3 h 4 v -3 z m 5,0 v 3 h 4 v -3 z m 5,0 v 3 h 4 v -3 z m -24,4 v 3 h 4 v -3 z m 5,0 v 3 h 5 v -3 z m 6,0 v 3 h 5 v -3 z m 6,0 v 3 h 4 v -3 z m 5,0 v 3 h 6 v -3 z m -22,4 v 3 h 2 v -3 z m 3,0 v 3 h 4 v -3 z m 5,0 v 3 h 5 v -3 z m 6,0 v 3 h 5 v -3 z m 6,0 v 3 h 4 v -3 z m 5,0 v 3 h 3 v -3 z m -25,4 v 3 h 5 v -3 z m 6,0 v 3 h 5 v -3 z m 6,0 v 3 h 5 v -3 z m 6,0 v 3 h 4 v -3 z m 5,0 v 3 h 5 v -3 z m -23,4 v 3 h 3 v -3 z m 4,0 v 3 h 5 v -3 z m 6,0 v 3 h 5 v -3 z m 6,0 v 3 h 5 v -3 z m 6,0 v 3 h 6 v -3 z m -22,4 v 2 c 0,0.55397 0.446,1 1,1 h 5 v -3 z m 7,0 v 3 h 5 v -3 z m 6,0 v 3 h 5 v -3 z m 6,0 v 3 h 4 v -3 z m 5,0 v 3 h 3 c 0.554001,0 1,-0.44603 1,-1 v -2 z"
         style="opacity:1;fill:url(#linearGradient2237);fill-opacity:1;stroke:none;stroke-width:2.23359871;stroke-linecap:round;stroke-linejoin:round;stroke-miterlimit:4;stroke-dasharray:none;stroke-opacity:1"
         inkscape:connector-curvature="0" />
      <path
         sodipodi:nodetypes="sscsssssscssssccssssccccss"
         id="rect869-1-1"
         d="m -32,291.64999 c -2.77,0 -5,2.23 -5,5 v 1 c -0.554,0 -1,0.446 -1,1 v 8 c 0,0.554 0.446,1 1,1 h 10 c 0.553998,0 1,-0.446 1,-1 v -8 c 0,-0.554 -0.446002,-1 -1,-1 v -1 c 0,-2.77 -2.23,-5 -5,-5 z m 0,2 c 1.662,0 3,1.338 3,3 v 1 h -6 v -1 c 0,-1.662 1.338,-3 3,-3 z m 0,6 c 1.108,0 2,0.892 2,2 0,0.74107 -0.404201,1.37905 -1,1.72461 v 2.27539 h -2 v -2.27539 c -0.595799,-0.34556 -1,-0.98354 -1,-1.72461 0,-1.108 0.892,-2 2,-2 z"
         style="opacity:0.97000002;fill:#801b20;fill-opacity:1;stroke:none;stroke-width:2;stroke-linecap:round;stroke-linejoin:round;stroke-miterlimit:4;stroke-dasharray:none;stroke-dashoffset:0;stroke-opacity:1"
         inkscape:connector-curvature="0" />
      <path
         sodipodi:nodetypes="sscsssssscssssccssssccccss"
         id="rect869-5"
         d="m -32,290.64999 c -2.77,0 -5,2.23 -5,5 v 1 c -0.554,0 -1,0.446 -1,1 v 8 c 0,0.554 0.446,1 1,1 h 10 c 0.553998,0 1,-0.446 1,-1 v -8 c 0,-0.554 -0.446002,-1 -1,-1 v -1 c 0,-2.77 -2.23,-5 -5,-5 z m 0,2 c 1.662,0 3,1.338 3,3 v 1 h -6 v -1 c 0,-1.662 1.338,-3 3,-3 z m 0,6 c 1.108,0 2,0.892 2,2 0,0.74107 -0.404201,1.37905 -1,1.72461 v 2.27539 h -2 v -2.27539 c -0.595799,-0.34556 -1,-0.98354 -1,-1.72461 0,-1.108 0.892,-2 2,-2 z"
         style="opacity:0.97000002;fill:#ffe9e9;fill-opacity:1;stroke:none;stroke-width:2;stroke-linecap:round;stroke-linejoin:round;stroke-miterlimit:4;stroke-dasharray:none;stroke-dashoffset:0;stroke-opacity:1"
         inkscape:connector-curvature="0" />
    </g>
  </g>
</svg>
