<?xml version="1.0" encoding="UTF-8" standalone="no"?>
<!-- Created with Inkscape (http://www.inkscape.org/) -->

<svg
   xmlns:dc="http://purl.org/dc/elements/1.1/"
   xmlns:cc="http://creativecommons.org/ns#"
   xmlns:rdf="http://www.w3.org/1999/02/22-rdf-syntax-ns#"
   xmlns:svg="http://www.w3.org/2000/svg"
   xmlns="http://www.w3.org/2000/svg"
   xmlns:xlink="http://www.w3.org/1999/xlink"
   xmlns:sodipodi="http://sodipodi.sourceforge.net/DTD/sodipodi-0.dtd"
   xmlns:inkscape="http://www.inkscape.org/namespaces/inkscape"
   width="32"
   height="32"
   viewBox="0 0 32 32"
   version="1.1"
   id="svg8"
   inkscape:version="0.92.2 2405546, 2018-03-11"
   sodipodi:docname="yast.svg">
  <title
     id="title7895">Antu icon Theme</title>
  <defs
     id="defs2">
    <linearGradient
       inkscape:collect="always"
       xlink:href="#linearGradient4846"
       id="linearGradient4599"
       x1="22"
       y1="26"
       x2="22"
       y2="19"
       gradientUnits="userSpaceOnUse"
       gradientTransform="translate(-94.000001,280.15)" />
    <linearGradient
       id="linearGradient4846"
       inkscape:collect="always">
      <stop
         id="stop4842"
         offset="0"
         style="stop-color:#e4efef;stop-opacity:1" />
      <stop
         id="stop4844"
         offset="1"
         style="stop-color:#fcfcfc;stop-opacity:1" />
    </linearGradient>
    <linearGradient
       inkscape:collect="always"
       xlink:href="#linearGradient825"
       id="linearGradient4577"
       x1="15"
       y1="14"
       x2="15"
       y2="5"
       gradientUnits="userSpaceOnUse"
       gradientTransform="translate(-84.000001,293.14999)" />
    <linearGradient
       inkscape:collect="always"
       xlink:href="#linearGradient7100"
       id="linearGradient2237"
       gradientUnits="userSpaceOnUse"
       gradientTransform="matrix(3.7795275,0,0,3.7795275,-99.928569,-800.58391)"
       x1="8.4477682"
       y1="295.60147"
       x2="8.4477673"
       y2="288.22623" />
    <linearGradient
       inkscape:collect="always"
       id="linearGradient7100">
      <stop
         style="stop-color:#f0f0f0;stop-opacity:1"
         offset="0"
         id="stop7096" />
      <stop
         style="stop-color:#ffffff;stop-opacity:1"
         offset="1"
         id="stop7098" />
    </linearGradient>
    <linearGradient
       inkscape:collect="always"
       id="linearGradient825">
      <stop
         style="stop-color:#1f996a;stop-opacity:1"
         offset="0"
         id="stop821" />
      <stop
         style="stop-color:#24b27b;stop-opacity:1"
         offset="1"
         id="stop823" />
    </linearGradient>
  </defs>
  <sodipodi:namedview
     id="base"
     pagecolor="#ffffff"
     bordercolor="#666666"
     borderopacity="1.0"
     inkscape:pageopacity="0.0"
     inkscape:pageshadow="2"
     inkscape:zoom="22.627417"
     inkscape:cx="9.947877"
     inkscape:cy="10.171452"
     inkscape:document-units="px"
     inkscape:current-layer="layer1"
     showgrid="true"
     units="px"
     inkscape:window-width="1360"
     inkscape:window-height="711"
     inkscape:window-x="0"
     inkscape:window-y="28"
     inkscape:window-maximized="1"
     objecttolerance="10"
     gridtolerance="10"
     guidetolerance="10"
     inkscape:snap-bbox="true"
     inkscape:bbox-nodes="true"
     inkscape:showpageshadow="false"
     inkscape:bbox-paths="true"
     inkscape:snap-bbox-edge-midpoints="true"
     inkscape:snap-bbox-midpoints="true"
     inkscape:object-paths="true"
     inkscape:snap-intersection-paths="true"
     inkscape:object-nodes="false"
     inkscape:snap-smooth-nodes="false"
     inkscape:snap-midpoints="false">
    <inkscape:grid
       type="xygrid"
       id="grid7897"
       empspacing="4" />
  </sodipodi:namedview>
  <metadata
     id="metadata5">
    <rdf:RDF>
      <cc:Work
         rdf:about="">
        <dc:format>image/svg+xml</dc:format>
        <dc:type
           rdf:resource="http://purl.org/dc/dcmitype/StillImage" />
        <dc:title>Antu icon Theme</dc:title>
      </cc:Work>
    </rdf:RDF>
  </metadata>
  <g
     inkscape:label="Capa 1"
     inkscape:groupmode="layer"
     id="layer1"
     transform="translate(0,-282.64999)">
    <g
       id="g5248"
       transform="translate(84,-4)">
      <path
         id="rect843"
         d="m -81,287.64999 25.999999,0 C -53.892,287.64999 -53,288.542 -53,289.65 l 0,25.99998 c 0,1.108 -0.892,2.00001 -2.000001,2.00001 l -25.999999,0 c -1.108,0 -2,-0.89201 -2,-2.00001 L -83,289.65 c 0,-1.108 0.892,-2.00001 2,-2.00001 z"
         style="opacity:1;fill:#7f9099;fill-opacity:1;stroke:none;stroke-width:2.39314151;stroke-linecap:round;stroke-linejoin:round;stroke-miterlimit:4;stroke-dasharray:none;stroke-opacity:1"
         inkscape:connector-curvature="0" />
      <path
         id="rect843-3"
         d="m -81,288.64999 c -0.554,0 -1,0.446 -1,1 l 0,26 c 0,0.55397 0.446,1 1,1 l 26,0 c 0.554001,0 1,-0.44603 1,-1 l 0,-26 c 0,-0.554 -0.445999,-1 -1,-1 l -26,0 z m 1.5,1 c 0.831,0 1.5,0.669 1.5,1.5 0,0.831 -0.669,1.5 -1.5,1.5 -0.831,0 -1.5,-0.669 -1.5,-1.5 0,-0.831 0.669,-1.5 1.5,-1.5 z m 23,0 c 0.831,0 1.5,0.669 1.5,1.5 0,0.831 -0.669,1.5 -1.5,1.5 -0.831,0 -1.5,-0.669 -1.5,-1.5 0,-0.831 0.669,-1.5 1.5,-1.5 z m -23,23 c 0.831,0 1.5,0.669 1.5,1.5 0,0.831 -0.669,1.5 -1.5,1.5 -0.831,0 -1.5,-0.669 -1.5,-1.5 0,-0.831 0.669,-1.5 1.5,-1.5 z m 23,0 c 0.831,0 1.5,0.669 1.5,1.5 0,0.831 -0.669,1.5 -1.5,1.5 -0.831,0 -1.5,-0.669 -1.5,-1.5 0,-0.831 0.669,-1.5 1.5,-1.5 z"
         style="opacity:1;fill:url(#linearGradient2237);fill-opacity:1.0;stroke:none;stroke-width:2.23359871;stroke-linecap:round;stroke-linejoin:round;stroke-miterlimit:4;stroke-dasharray:none;stroke-opacity:1"
         inkscape:connector-curvature="0" />
      <path
         id="rect4527"
         d="m -72.000001,296.64997 8,0 c 3.324,0 6,2.67602 6,6 0,3.32402 -2.676,6 -6,6 l -8,0 c -3.323999,0 -5.999999,-2.67598 -5.999999,-6 0,-3.32398 2.676,-6 5.999999,-6 z"
         style="fill:#00663c;fill-opacity:1;stroke:none;stroke-width:0.40000001;stroke-linecap:round;stroke-linejoin:round;stroke-miterlimit:4;stroke-dasharray:none;stroke-opacity:1"
         inkscape:connector-curvature="0" />
      <path
         id="rect4554"
         d="m -72.000001,297.64996 8,0 c 2.77,0 5,2.23 5,5.00001 0,2.77002 -2.23,5.00001 -5,5.00001 l -8,0 c -2.77,0 -5,-2.22999 -5,-5.00001 0,-2.77001 2.23,-5.00001 5,-5.00001 z"
         style="fill:url(#linearGradient4577);fill-opacity:1.0;stroke:none;stroke-width:0.40000001;stroke-linecap:round;stroke-linejoin:round;stroke-miterlimit:4;stroke-dasharray:none;stroke-opacity:1"
         inkscape:connector-curvature="0" />
      <path
         id="rect4529"
         d="m -72.000001,298.64998 c 2.216,0 4,1.78398 4,3.99999 0,2.21601 -1.784,3.99999 -4,3.99999 -2.216,0 -4,-1.78398 -4,-3.99999 0,-2.21601 1.784,-3.99999 4,-3.99999 z"
         style="fill:#00663c;fill-opacity:1;stroke:none;stroke-width:0.40000001;stroke-linecap:round;stroke-linejoin:round;stroke-miterlimit:4;stroke-dasharray:none;stroke-opacity:1"
         inkscape:connector-curvature="0" />
      <path
         id="rect4591"
         d="m -72.000001,299.64997 c 1.662,0 3,1.33799 3,3 0,1.66201 -1.338,3 -3,3 -1.662,0 -3,-1.33799 -3,-3 0,-1.66201 1.338,-3 3,-3 z"
         style="fill:url(#linearGradient4599);fill-opacity:1;stroke:none;stroke-width:0.40000001;stroke-linecap:round;stroke-linejoin:round;stroke-miterlimit:4;stroke-dasharray:none;stroke-opacity:1"
         inkscape:connector-curvature="0" />
    </g>
  </g>
</svg>
