<?xml version="1.0" encoding="UTF-8" standalone="no"?>
<!-- Created with Inkscape (http://www.inkscape.org/) -->

<svg
   xmlns:dc="http://purl.org/dc/elements/1.1/"
   xmlns:cc="http://creativecommons.org/ns#"
   xmlns:rdf="http://www.w3.org/1999/02/22-rdf-syntax-ns#"
   xmlns:svg="http://www.w3.org/2000/svg"
   xmlns="http://www.w3.org/2000/svg"
   xmlns:xlink="http://www.w3.org/1999/xlink"
   xmlns:sodipodi="http://sodipodi.sourceforge.net/DTD/sodipodi-0.dtd"
   xmlns:inkscape="http://www.inkscape.org/namespaces/inkscape"
   width="32"
   height="32"
   viewBox="0 0 32 32"
   version="1.1"
   id="svg8"
   inkscape:version="0.92.2 2405546, 2018-03-11"
   sodipodi:docname="yast-samba-client.svg">
  <title
     id="title7895">Antu icon Theme</title>
  <defs
     id="defs2">
    <linearGradient
       gradientTransform="matrix(3.7795275,0,0,3.7795275,-58.607118,-804.36957)"
       gradientUnits="userSpaceOnUse"
       y2="290.25311"
       x2="2.8064666"
       y1="297.66144"
       x1="2.8064666"
       id="linearGradient4543"
       xlink:href="#linearGradient4582"
       inkscape:collect="always" />
    <linearGradient
       inkscape:collect="always"
       id="linearGradient4582">
      <stop
         style="stop-color:#cee3e3;stop-opacity:1"
         offset="0"
         id="stop4578" />
      <stop
         style="stop-color:#fcfcfc;stop-opacity:1"
         offset="1"
         id="stop4580" />
    </linearGradient>
    <style
       id="current-color-scheme"
       type="text/css">
      .ColorScheme-Text {
        color:#122036;
      }
      </style>
  </defs>
  <sodipodi:namedview
     id="base"
     pagecolor="#ffffff"
     bordercolor="#666666"
     borderopacity="1.0"
     inkscape:pageopacity="0.0"
     inkscape:pageshadow="2"
     inkscape:zoom="11.2"
     inkscape:cx="9.1197494"
     inkscape:cy="25.765113"
     inkscape:document-units="px"
     inkscape:current-layer="layer1"
     showgrid="true"
     units="px"
     inkscape:window-width="1360"
     inkscape:window-height="711"
     inkscape:window-x="0"
     inkscape:window-y="28"
     inkscape:window-maximized="1"
     objecttolerance="10"
     gridtolerance="10"
     guidetolerance="10"
     inkscape:snap-bbox="true"
     inkscape:bbox-paths="true"
     inkscape:bbox-nodes="true"
     inkscape:snap-bbox-edge-midpoints="true"
     inkscape:snap-bbox-midpoints="true"
     inkscape:object-paths="true"
     inkscape:snap-intersection-paths="true">
    <inkscape:grid
       type="xygrid"
       id="grid7897"
       empspacing="4" />
  </sodipodi:namedview>
  <metadata
     id="metadata5">
    <rdf:RDF>
      <cc:Work
         rdf:about="">
        <dc:format>image/svg+xml</dc:format>
        <dc:type
           rdf:resource="http://purl.org/dc/dcmitype/StillImage" />
        <dc:title>Antu icon Theme</dc:title>
      </cc:Work>
    </rdf:RDF>
  </metadata>
  <g
     inkscape:label="Capa 1"
     inkscape:groupmode="layer"
     id="layer1"
     transform="translate(0,-282.64999)">
    <g
       id="g1837"
       transform="translate(64,-8)">
      <path
         inkscape:connector-curvature="0"
         style="fill:#90a4ae;fill-opacity:1;stroke:none;stroke-width:1.46965909;stroke-linecap:round;stroke-linejoin:round;stroke-miterlimit:4;stroke-dasharray:none;stroke-opacity:1"
         d="m -48,291.65003 c 8.31,0 15,6.68984 15,14.99992 0,8.30994 -6.69,15 -15,15 -8.309999,0 -15,-6.69006 -15,-15 0,-8.31008 6.690001,-14.99992 15,-14.99992 z"
         id="rect4496-6" />
      <path
         id="rect4570-9-6-0"
         d="m -48,292.64999 c -7.756001,0 -14,6.24396 -14,14 0,3.00156 0.94305,5.77052 2.539063,8.04492 a 0.50207555,0.50207555 0 0 1 0.08398,-0.57812 c 1.50533,-1.70605 3.206291,-2.99626 5.019531,-3.875 -0.277173,-1.33132 -0.373791,-2.67377 -0.265625,-4.00782 0.01865,-0.23004 0.05595,-0.45831 0.08594,-0.6875 -0.562709,-0.21588 -0.96289,-0.75602 -0.96289,-1.39648 0,-0.0328 0.0077,-0.0634 0.0098,-0.0957 -1.853725,-0.66169 -3.527004,-1.71255 -4.861332,-3.04688 a 0.50132771,0.50132771 0 0 1 0.708984,-0.70898 c 1.239973,1.23998 2.810199,2.21685 4.548828,2.82812 0.273364,-0.29224 0.660167,-0.47656 1.09375,-0.47656 0.04806,0 0.08991,0.019 0.136719,0.0234 0.711819,-2.05656 1.888062,-4.03848 3.519531,-5.86524 -0.09726,-0.199 -0.15625,-0.42091 -0.15625,-0.65816 0,-0.831 0.669,-1.5 1.5,-1.5 0.248922,0 0.479323,0.0654 0.685547,0.17187 0.631492,-0.54587 1.303073,-1.07445 2.025391,-1.58007 a 0.50004997,0.50004997 0 0 1 0.265624,-0.0977 0.50004997,0.50004997 0 0 1 0.310547,0.91602 c -0.684367,0.47905 -1.313792,0.98112 -1.910156,1.49414 0.07896,0.18278 0.123047,0.38328 0.123047,0.5957 0,0.831 -0.669,1.5 -1.5,1.5 -0.226778,0 -0.438515,-0.0532 -0.630859,-0.14258 -1.563916,1.75723 -2.66629,3.64836 -3.322266,5.59766 0.171855,0.17482 0.313606,0.38047 0.384766,0.62304 0.866258,0.1102 1.75251,0.13338 2.646484,0.0469 3.153096,-0.30513 6.39224,-1.8943 9.09375,-5.35156 0.346284,-0.74442 0.813045,-1.43638 1.408203,-2.04883 a 0.50004998,0.50004998 0 0 1 0.386719,-0.23242 0.50004998,0.50004998 0 0 1 0.01367,-0.002 0.50004998,0.50004998 0 0 1 0.496093,0.67969 0.50004996,0.50004996 0 0 1 -0.0098,0.0234 0.50004998,0.50004998 0 0 1 -0.03516,0.0664 c -0.440771,0.73469 -0.906415,1.40599 -1.388631,2.0293 -0.917387,2.09601 -0.765772,4.6771 0.277343,6.88086 0.204914,-0.10472 0.432937,-0.16992 0.679688,-0.16992 0.304448,0 0.586237,0.0914 0.822266,0.24609 0.969446,-0.46903 2.034788,-0.74804 3.175781,-0.74804 a 0.501978,0.501978 0 1 1 0,1.0039 c -0.911615,0 -1.769522,0.21702 -2.566406,0.57422 0.03989,0.13535 0.06836,0.27522 0.06836,0.42383 0,0.43557 -0.185883,0.82411 -0.480469,1.09766 0.835444,0.84015 1.848153,1.52205 3.044922,1.92773 a 0.50004996,0.50004996 0 0 1 0.355469,0.46289 C -34.207243,309.37421 -34,308.03803 -34,306.64999 c 0,-7.75604 -6.244001,-14 -14,-14 z m 13.419922,17.98828 c -0.03006,0.10191 -0.0595,0.20377 -0.0918,0.30469 a 0.50004996,0.50004996 0 0 0 0.0918,-0.30469 z m -0.0918,0.30469 a 0.50004996,0.50004996 0 0 1 -0.587891,0.17773 c -1.498817,-0.50807 -2.754524,-1.38276 -3.748043,-2.4707 -0.324747,-0.002 -0.622887,-0.10755 -0.867188,-0.2832 -0.607648,0.62649 -1.139908,1.34504 -1.556641,2.14062 -0.01623,0.031 -0.02707,0.0645 -0.04297,0.0957 1.674542,0.85488 3.302099,2.01166 4.826171,3.49219 a 0.50112229,0.50112229 0 0 1 0.115235,0.5918 c 0.795805,-1.13576 1.429039,-2.39319 1.861328,-3.74414 z m -1.861328,3.74414 c -0.03552,0.0507 -0.07516,0.0983 -0.111328,0.14844 a 0.50112229,0.50112229 0 0 0 0.111328,-0.14844 z m -0.111328,0.14844 a 0.50112229,0.50112229 0 0 1 -0.705078,-0.0254 c -1.445951,-1.40465 -2.974452,-2.49294 -4.53711,-3.29493 -0.88173,2.28107 -0.892786,4.86296 0.314453,6.875 a 0.50006747,0.50006747 0 0 1 -0.855468,0.51758 c -1.413672,-2.35611 -1.37129,-5.28386 -0.365232,-7.82617 -1.013375,-0.44262 -2.037075,-0.77063 -3.060547,-0.9707 -0.274727,0.32783 -0.683351,0.53906 -1.146484,0.53906 -0.574279,0 -1.066156,-0.32324 -1.318359,-0.79492 -0.02012,0 -0.04044,-0.004 -0.06055,-0.004 -1.650123,0 -3.270663,0.3376 -4.822266,0.97851 0.355765,1.3243 0.911344,2.63703 1.6875,3.91602 0.160973,-0.0587 0.331894,-0.0957 0.513675,-0.0957 0.831,0 1.5,0.669 1.5,1.5 0,0.35177 -0.124878,0.67053 -0.326172,0.92578 0.638,0.7525 1.354239,1.48828 2.15625,2.20117 a 0.50004997,0.50004997 0 1 1 -0.664062,0.7461 c -0.872354,-0.77543 -1.652068,-1.58129 -2.34375,-2.41016 -0.104078,0.0227 -0.211189,0.0371 -0.322266,0.0371 -0.831,0 -1.5,-0.669 -1.5,-1.5 0,-0.28231 0.08226,-0.54254 0.216797,-0.76758 -0.830011,-1.3453 -1.433109,-2.73419 -1.830078,-4.14062 -1.615144,0.81655 -3.140313,1.98479 -4.511719,3.53906 a 0.50207555,0.50207555 0 0 1 -0.728516,0.0566 c 2.537959,3.5202 6.663376,5.8125 11.353516,5.8125 4.691124,0 8.817649,-2.29299 11.355469,-5.81445 z m -22.816403,-0.14063 a 0.50207555,0.50207555 0 0 0 0.103515,0.13867 c -0.03372,-0.0468 -0.07036,-0.0914 -0.103515,-0.13867 z m 17.96289,-14.00586 c -2.550338,2.53351 -5.467868,3.80544 -8.326172,4.08203 -0.943595,0.0913 -1.877902,0.0667 -2.791015,-0.043 -0.166534,0.401 -0.501932,0.71027 -0.917969,0.84571 -0.03416,0.24669 -0.07369,0.49283 -0.09375,0.74023 -0.09515,1.17353 -0.0236,2.35571 0.201172,3.5332 1.596276,-0.63682 3.262669,-0.98292 4.957031,-0.99414 0.137245,-0.68757 0.739647,-1.20312 1.46875,-1.20312 0.830987,0 1.5,0.66903 1.5,1.5 0,0.002 8e-6,0.004 0,0.006 1.048405,0.21811 2.092559,0.5631 3.123047,1.01562 0.02135,-0.0421 0.0367,-0.0871 0.05859,-0.1289 0.488901,-0.93335 1.127213,-1.78646 1.86914,-2.51953 -0.03052,-0.11965 -0.05078,-0.24371 -0.05078,-0.37309 0,-0.17108 0.0356,-0.33144 0.08789,-0.48438 -0.98583,-1.84847 -1.377007,-3.98165 -1.085937,-5.97656 z"
         style="fill:url(#linearGradient4543);fill-opacity:1;stroke:none;stroke-width:1.40220487;stroke-linecap:round;stroke-linejoin:round;stroke-miterlimit:4;stroke-dasharray:none;stroke-opacity:1"
         inkscape:connector-curvature="0" />
      <path
         id="rect875-2"
         d="m -55,299.64999 h 7 v 7 h -7 z"
         style="opacity:1;vector-effect:none;fill:#cc0120;fill-opacity:1;stroke:none;stroke-width:4;stroke-linecap:round;stroke-linejoin:round;stroke-miterlimit:4;stroke-dasharray:none;stroke-dashoffset:0;stroke-opacity:1"
         inkscape:connector-curvature="0" />
      <path
         id="rect875-2-7"
         d="m -48,299.64999 h 7 v 7 h -7 z"
         style="opacity:1;vector-effect:none;fill:#00804b;fill-opacity:0.98941806;stroke:none;stroke-width:4;stroke-linecap:round;stroke-linejoin:round;stroke-miterlimit:4;stroke-dasharray:none;stroke-dashoffset:0;stroke-opacity:1"
         inkscape:connector-curvature="0" />
      <path
         id="rect875-2-0"
         d="m -55,306.64999 h 7 v 7 h -7 z"
         style="opacity:1;vector-effect:none;fill:#1670d9;fill-opacity:0.98039216;stroke:none;stroke-width:4;stroke-linecap:round;stroke-linejoin:round;stroke-miterlimit:4;stroke-dasharray:none;stroke-dashoffset:0;stroke-opacity:1"
         inkscape:connector-curvature="0" />
      <path
         id="rect875-2-7-9"
         d="m -48,306.64999 h 7 v 7 h -7 z"
         style="opacity:1;vector-effect:none;fill:#ff9a0a;fill-opacity:1;stroke:none;stroke-width:4;stroke-linecap:round;stroke-linejoin:round;stroke-miterlimit:4;stroke-dasharray:none;stroke-dashoffset:0;stroke-opacity:1"
         inkscape:connector-curvature="0" />
      <path
         id="rect875-2-3"
         d="m -54,300.64999 h 5 v 5 h -5 z"
         style="opacity:1;vector-effect:none;fill:#fb3854;fill-opacity:1;stroke:none;stroke-width:4;stroke-linecap:round;stroke-linejoin:round;stroke-miterlimit:4;stroke-dasharray:none;stroke-dashoffset:0;stroke-opacity:1"
         inkscape:connector-curvature="0" />
      <path
         id="rect875-2-3-6"
         d="m -47,300.64999 h 5 v 5 h -5 z"
         style="opacity:1;vector-effect:none;fill:#28c488;fill-opacity:1;stroke:none;stroke-width:4;stroke-linecap:round;stroke-linejoin:round;stroke-miterlimit:4;stroke-dasharray:none;stroke-dashoffset:0;stroke-opacity:1"
         inkscape:connector-curvature="0" />
      <path
         id="rect875-2-3-0"
         d="m -54,307.64999 h 5 v 5 h -5 z"
         style="opacity:1;vector-effect:none;fill:#09a1fa;fill-opacity:1;stroke:none;stroke-width:4;stroke-linecap:round;stroke-linejoin:round;stroke-miterlimit:4;stroke-dasharray:none;stroke-dashoffset:0;stroke-opacity:1"
         inkscape:connector-curvature="0" />
      <path
         id="rect875-2-3-62"
         d="m -47,307.64999 h 5 v 5 h -5 z"
         style="opacity:1;vector-effect:none;fill:#ffc900;fill-opacity:1;stroke:none;stroke-width:4;stroke-linecap:round;stroke-linejoin:round;stroke-miterlimit:4;stroke-dasharray:none;stroke-dashoffset:0;stroke-opacity:1"
         inkscape:connector-curvature="0" />
    </g>
  </g>
</svg>
