<?xml version="1.0" encoding="UTF-8" standalone="no"?>
<!-- Created with Inkscape (http://www.inkscape.org/) -->

<svg
   width="24"
   height="24"
   viewBox="0 0 6.3499999 6.35"
   version="1.1"
   id="svg5"
   inkscape:version="1.2 (dc2aedaf03, 2022-05-15)"
   sodipodi:docname="preferences-desktop-launch-feedback.svg"
   xml:space="preserve"
   xmlns:inkscape="http://www.inkscape.org/namespaces/inkscape"
   xmlns:sodipodi="http://sodipodi.sourceforge.net/DTD/sodipodi-0.dtd"
   xmlns:xlink="http://www.w3.org/1999/xlink"
   xmlns="http://www.w3.org/2000/svg"
   xmlns:svg="http://www.w3.org/2000/svg"><sodipodi:namedview
     id="namedview7"
     pagecolor="#ffffff"
     bordercolor="#000000"
     borderopacity="0.25"
     inkscape:showpageshadow="false"
     inkscape:pageopacity="0.0"
     inkscape:pagecheckerboard="0"
     inkscape:deskcolor="#d1d1d1"
     inkscape:document-units="px"
     showgrid="true"
     inkscape:zoom="13.455444"
     inkscape:cx="36.08205"
     inkscape:cy="25.974617"
     inkscape:window-width="2160"
     inkscape:window-height="1335"
     inkscape:window-x="0"
     inkscape:window-y="0"
     inkscape:window-maximized="1"
     inkscape:current-layer="layer1-6"><inkscape:grid
       type="xygrid"
       id="grid3636" /></sodipodi:namedview><defs
     id="defs2"><linearGradient
       inkscape:collect="always"
       id="linearGradient9253"><stop
         style="stop-color:#9bd4e3;stop-opacity:1;"
         offset="0"
         id="stop9249" /><stop
         style="stop-color:#9bd4e3;stop-opacity:0;"
         offset="1"
         id="stop9251" /></linearGradient><linearGradient
       inkscape:collect="always"
       id="linearGradient9245"><stop
         style="stop-color:#9bd4e3;stop-opacity:1;"
         offset="0"
         id="stop9241" /><stop
         style="stop-color:#9bd4e3;stop-opacity:0;"
         offset="1"
         id="stop9243" /></linearGradient><linearGradient
       inkscape:collect="always"
       id="linearGradient9237"><stop
         style="stop-color:#9bd4e3;stop-opacity:1;"
         offset="0"
         id="stop9233" /><stop
         style="stop-color:#9bd4e3;stop-opacity:0;"
         offset="1"
         id="stop9235" /></linearGradient><linearGradient
       inkscape:collect="always"
       id="linearGradient9229"><stop
         style="stop-color:#9bd4e3;stop-opacity:1;"
         offset="0"
         id="stop9225" /><stop
         style="stop-color:#9bd4e3;stop-opacity:0;"
         offset="1"
         id="stop9227" /></linearGradient><linearGradient
       inkscape:collect="always"
       id="linearGradient9221"><stop
         style="stop-color:#9bd4e3;stop-opacity:1;"
         offset="0"
         id="stop9217" /><stop
         style="stop-color:#9bd4e3;stop-opacity:0;"
         offset="1"
         id="stop9219" /></linearGradient><linearGradient
       inkscape:collect="always"
       id="linearGradient9211"><stop
         style="stop-color:#9bd4e3;stop-opacity:1;"
         offset="0"
         id="stop9207" /><stop
         style="stop-color:#9bd4e3;stop-opacity:0;"
         offset="1"
         id="stop9209" /></linearGradient><linearGradient
       inkscape:collect="always"
       id="linearGradient8302"><stop
         style="stop-color:#9bd4e3;stop-opacity:1;"
         offset="0"
         id="stop8298" /><stop
         style="stop-color:#9bd4e3;stop-opacity:0;"
         offset="1"
         id="stop8300" /></linearGradient><linearGradient
       inkscape:collect="always"
       id="linearGradient8294"><stop
         style="stop-color:#9bd4e3;stop-opacity:1;"
         offset="0"
         id="stop8290" /><stop
         style="stop-color:#9bd4e3;stop-opacity:0;"
         offset="1"
         id="stop8292" /></linearGradient><linearGradient
       inkscape:collect="always"
       id="linearGradient7458"><stop
         style="stop-color:#9bd4e3;stop-opacity:0;"
         offset="0"
         id="stop7454" /><stop
         style="stop-color:#9bd4e3;stop-opacity:1;"
         offset="1"
         id="stop7456" /></linearGradient><linearGradient
       inkscape:collect="always"
       id="linearGradient6208"><stop
         style="stop-color:#ffffff;stop-opacity:0;"
         offset="0"
         id="stop6204" /><stop
         style="stop-color:#cfe9f1;stop-opacity:1;"
         offset="1"
         id="stop6206" /></linearGradient><linearGradient
       inkscape:collect="always"
       id="linearGradient3583"><stop
         style="stop-color:#9bd4e3;stop-opacity:1;"
         offset="0"
         id="stop3579" /><stop
         style="stop-color:#f7fafc;stop-opacity:1;"
         offset="1"
         id="stop3581" /></linearGradient><style
       type="text/css"
       id="current-color-scheme">
      .ColorScheme-Text {
        color:#36404d;
      }
      </style><style
       type="text/css"
       id="current-color-scheme-67">
      .ColorScheme-Text {
        color:#122036;
      }
      </style><style
       type="text/css"
       id="current-color-scheme-7">
      .ColorScheme-Text {
        color:#122036;
      }
      </style><style
       type="text/css"
       id="current-color-scheme-5">
      .ColorScheme-Text {
        color:#122036;
      }
      </style><style
       type="text/css"
       id="current-color-scheme-6">
      .ColorScheme-Text {
        color:#122036;
      }
      </style><style
       type="text/css"
       id="current-color-scheme-1">
      .ColorScheme-Text {
        color:#122036;
      }
      </style><style
       id="current-color-scheme-10"
       type="text/css">
      .ColorScheme-Text {
        color:#122036;
      }
      </style><style
       id="current-color-scheme-5-7"
       type="text/css">
      .ColorScheme-Text {
        color:#122036;
      }
      </style><style
       id="current-color-scheme-1-2"
       type="text/css">
      .ColorScheme-Text {
        color:#122036;
      }
      </style><style
       type="text/css"
       id="current-color-scheme-10-9">
      .ColorScheme-Text {
        color:#122036;
      }
      </style><linearGradient
       inkscape:collect="always"
       id="linearGradient2125"><stop
         style="stop-color:#1082c4;stop-opacity:1;"
         offset="0"
         id="stop2121" /><stop
         style="stop-color:#052f47;stop-opacity:1;"
         offset="1"
         id="stop2123" /></linearGradient><style
       id="current-color-scheme-53"
       type="text/css">
      .ColorScheme-Text {
        color:#122036;
      }
      </style><style
       id="current-color-scheme-6-5"
       type="text/css">
      .ColorScheme-Text {
        color:#122036;
      }
      </style><linearGradient
       inkscape:collect="always"
       xlink:href="#linearGradient2125"
       id="linearGradient2127"
       x1="3.175"
       y1="5.0270834"
       x2="3.175"
       y2="0.79374999"
       gradientUnits="userSpaceOnUse"
       gradientTransform="translate(1.25e-8,0.26458333)" /><style
       type="text/css"
       id="current-color-scheme-9">
      .ColorScheme-Text {
        color:#36404d;
      }
      </style><style
       id="current-color-scheme-3"
       type="text/css">
      .ColorScheme-Text {
        color:#36404d;
      }
      </style><linearGradient
       inkscape:collect="always"
       xlink:href="#linearGradient3583"
       id="linearGradient3585"
       x1="3.175"
       y1="4.7624998"
       x2="3.175"
       y2="1.5875"
       gradientUnits="userSpaceOnUse" /><linearGradient
       inkscape:collect="always"
       xlink:href="#linearGradient6208"
       id="linearGradient6210"
       x1="1.3229166"
       y1="3.7041667"
       x2="1.3229166"
       y2="3.175"
       gradientUnits="userSpaceOnUse" /><linearGradient
       inkscape:collect="always"
       xlink:href="#linearGradient8294"
       id="linearGradient8296"
       x1="2.1166666"
       y1="2.1166666"
       x2="2.1166666"
       y2="1.3229166"
       gradientUnits="userSpaceOnUse" /><linearGradient
       inkscape:collect="always"
       xlink:href="#linearGradient8302"
       id="linearGradient8304"
       x1="4.4979167"
       y1="1.5875"
       x2="4.4979167"
       y2="2.3812499"
       gradientUnits="userSpaceOnUse" /><linearGradient
       inkscape:collect="always"
       xlink:href="#linearGradient7458"
       id="linearGradient8308"
       gradientUnits="userSpaceOnUse"
       x1="1.5875"
       y1="3.175"
       x2="1.5875"
       y2="2.3812499" /><linearGradient
       inkscape:collect="always"
       xlink:href="#linearGradient9211"
       id="linearGradient9215"
       x1="4.7624998"
       y1="2.6458333"
       x2="4.7624998"
       y2="3.175"
       gradientUnits="userSpaceOnUse" /><linearGradient
       inkscape:collect="always"
       xlink:href="#linearGradient9221"
       id="linearGradient9223"
       x1="1.3229166"
       y1="4.4979167"
       x2="1.3229166"
       y2="5.2916665"
       gradientUnits="userSpaceOnUse" /><linearGradient
       inkscape:collect="always"
       xlink:href="#linearGradient9229"
       id="linearGradient9231"
       x1="2.1166666"
       y1="4.7624998"
       x2="2.1166666"
       y2="5.2916665"
       gradientUnits="userSpaceOnUse" /><linearGradient
       inkscape:collect="always"
       xlink:href="#linearGradient9237"
       id="linearGradient9239"
       x1="4.4979167"
       y1="4.7624998"
       x2="4.4979167"
       y2="5.2916665"
       gradientUnits="userSpaceOnUse" /><linearGradient
       inkscape:collect="always"
       xlink:href="#linearGradient9245"
       id="linearGradient9247"
       x1="5.2916665"
       y1="4.2333331"
       x2="5.2916665"
       y2="5.0270834"
       gradientUnits="userSpaceOnUse" /><linearGradient
       inkscape:collect="always"
       xlink:href="#linearGradient9253"
       id="linearGradient9255"
       x1="5.2916665"
       y1="3.175"
       x2="5.2916665"
       y2="3.4395833"
       gradientUnits="userSpaceOnUse" /></defs><g
     inkscape:label="Capa 1"
     inkscape:groupmode="layer"
     id="layer1"><g
       inkscape:label="Capa 1"
       id="layer1-6"><path
         id="rect1345"
         style="opacity:1;fill:#131427;fill-opacity:1;stroke-width:0.529167;stroke-linecap:round;stroke-linejoin:round;stroke-miterlimit:1.8;paint-order:fill markers stroke;stop-color:#000000"
         d="m 0.79375,0.52916645 4.7625,2.3e-7 c 0.1465792,1e-8 0.2645833,0.11800417 0.2645833,0.26458331 V 5.5562498 c 0,0.1465792 -0.1180041,0.2645833 -0.2645833,0.2645833 l -4.76250001,-2e-7 c -0.14657918,0 -0.26458335,-0.1180041 -0.26458335,-0.2645833 l 10e-9,-4.76249981 c 0,-0.14657916 0.11800417,-0.26458335 0.26458335,-0.26458334 z"
         sodipodi:nodetypes="sssssssss" /><path
         id="rect1345-7"
         style="fill:url(#linearGradient2127);fill-opacity:1;stroke-width:0.529167;stroke-linecap:round;stroke-linejoin:round;stroke-miterlimit:1.8;paint-order:fill markers stroke;stop-color:#000000"
         d="M 0.79375002,0.79374999 H 5.5562501 V 5.55625 H 0.79375002 Z"
         sodipodi:nodetypes="ccccc" /><path
         id="path3184"
         style="color:#000000;fill:url(#linearGradient3585);stroke-linecap:round;stroke-linejoin:round;stroke-miterlimit:1.8;paint-order:fill markers stroke;fill-opacity:1"
         d="M 3.1760335,1.3234334 C 3.1059136,1.3229758 3.038386,1.3501651 2.9884481,1.3993977 2.3805077,1.8514801 2.3808451,2.3806978 2.383317,3.0303059 L 1.7053223,3.4835083 c -0.1106879,0.073989 -0.149238,0.2187713 -0.089917,0.3379639 l 0.2640665,0.5291666 c 0.04471,0.089617 0.1360124,0.1460735 0.2361613,0.1462444 h 0.3653524 l 0.1932699,0.3829222 c 0.04471,0.089616 0.1360124,0.14659 0.2361613,0.1467611 H 3.4401001 C 3.540249,5.0263951 3.6315534,4.9694215 3.6762614,4.8798054 L 3.8674642,4.4968832 H 4.2328165 C 4.3329654,4.4967119 4.4242699,4.440255 4.4689778,4.3506388 L 4.7345947,3.8214722 c 0.05932,-0.1191936 0.020773,-0.263976 -0.089917,-0.3379639 L 3.9516968,3.0225545 C 3.9683667,2.3807589 3.9681764,1.851594 3.363619,1.4014648 3.313999,1.3515159 3.2464384,1.3234941 3.1760335,1.3234334 Z"
         sodipodi:nodetypes="cccccccccccccccccccc" /><g
         id="path6065"><path
           style="color:#000000;fill:#131427;stroke-width:0.264583;stroke-linecap:round;stroke-linejoin:round;stroke-miterlimit:1.8;-inkscape-stroke:none;paint-order:fill markers stroke"
           d="M 5.1593751,4.3656248 V 4.8947915"
           id="path6069" /></g><path
         id="rect6171"
         style="opacity:1;fill:url(#linearGradient9239);stroke-width:0.264583;stroke-linecap:round;stroke-linejoin:round;stroke-miterlimit:1.8;paint-order:fill markers stroke;stop-color:#000000;fill-opacity:1"
         d="m 4.3656248,4.7624998 c 0.07329,0 0.1322916,0.059002 0.1322916,0.1322917 v 0.2645833 c 0,0.07329 -0.059002,0.1322916 -0.1322916,0.1322916 -0.07329,0 -0.1322917,-0.059002 -0.1322917,-0.1322916 V 4.8947915 c 0,-0.07329 0.059002,-0.1322917 0.1322917,-0.1322917 z" /><path
         id="rect6173"
         style="opacity:1;fill:url(#linearGradient9247);stroke-width:0.264583;stroke-linecap:round;stroke-linejoin:round;stroke-miterlimit:1.8;paint-order:fill markers stroke;stop-color:#000000;fill-opacity:1"
         d="m 5.1593751,4.2333331 c 0.073289,0 0.1322916,0.059002 0.1322916,0.1322917 v 0.5291666 c 0,0.07329 -0.059002,0.1322917 -0.1322916,0.1322917 -0.07329,0 -0.1322917,-0.059002 -0.1322917,-0.1322917 V 4.3656248 c 0,-0.07329 0.059002,-0.1322917 0.1322917,-0.1322917 z" /><path
         id="rect6175"
         style="opacity:1;fill:url(#linearGradient9231);stroke-width:0.264583;stroke-linecap:round;stroke-linejoin:round;stroke-miterlimit:1.8;paint-order:fill markers stroke;stop-color:#000000;fill-opacity:1"
         d="m 2.2489582,4.7624998 c 0.07329,0 0.1322917,0.059002 0.1322917,0.1322917 0,0.073289 -0.059002,0.1322916 -0.1322917,0.1322916 -0.07329,0 -0.1322916,-0.059002 -0.1322916,-0.1322916 0,-0.07329 0.059002,-0.1322917 0.1322916,-0.1322917 z" /><path
         id="rect6180"
         style="opacity:1;fill:url(#linearGradient9223);stroke-width:0.264583;stroke-linecap:round;stroke-linejoin:round;stroke-miterlimit:1.8;paint-order:fill markers stroke;stop-color:#000000;fill-opacity:1"
         d="m 1.4552083,4.4979167 c 0.07329,0 0.1322916,0.059002 0.1322916,0.1322917 V 5.159375 c 0,0.07329 -0.059002,0.1322917 -0.1322916,0.1322917 -0.07329,0 -0.1322917,-0.059002 -0.1322917,-0.1322917 V 4.6302084 c 0,-0.07329 0.059002,-0.1322917 0.1322917,-0.1322917 z" /><path
         id="rect6182"
         style="opacity:1;fill:url(#linearGradient6210);stroke-width:0.264583;stroke-linecap:round;stroke-linejoin:round;stroke-miterlimit:1.8;paint-order:fill markers stroke;stop-color:#000000;fill-opacity:1.0"
         d="m 1.1906249,3.175 c 0.07329,0 0.1322917,0.059002 0.1322917,0.1322916 v 0.2645833 c 0,0.07329 -0.059002,0.1322917 -0.1322917,0.1322917 -0.07329,0 -0.1322916,-0.059002 -0.1322916,-0.1322917 V 3.3072916 C 1.0583333,3.234002 1.1173354,3.175 1.1906249,3.175 Z" /><path
         id="rect6184"
         style="opacity:1;fill:url(#linearGradient9255);stroke-width:0.264583;stroke-linecap:round;stroke-linejoin:round;stroke-miterlimit:1.8;paint-order:fill markers stroke;stop-color:#000000;fill-opacity:1"
         d="m 5.1593751,3.175 c 0.073289,0 0.1322916,0.059002 0.1322916,0.1322916 0,0.07329 -0.059002,0.1322917 -0.1322916,0.1322917 -0.07329,0 -0.1322917,-0.059002 -0.1322917,-0.1322917 0,-0.07329 0.059002,-0.1322916 0.1322917,-0.1322916 z" /><path
         id="rect6186"
         style="opacity:1;fill:url(#linearGradient8308);stroke-width:0.264583;stroke-linecap:round;stroke-linejoin:round;stroke-miterlimit:1.8;paint-order:fill markers stroke;stop-color:#000000;fill-opacity:1"
         d="m 1.7197916,2.3812499 c 0.07329,0 0.1322917,0.059002 0.1322917,0.1322917 v 0.5291666 c 0,0.07329 -0.059002,0.1322917 -0.1322917,0.1322917 -0.07329,0 -0.1322916,-0.059002 -0.1322916,-0.1322917 V 2.5135416 c 0,-0.07329 0.059002,-0.1322917 0.1322916,-0.1322917 z" /><path
         id="rect6188"
         style="opacity:1;fill:url(#linearGradient8304);fill-opacity:1;stroke-width:0.264583;stroke-linecap:round;stroke-linejoin:round;stroke-miterlimit:1.8;paint-order:fill markers stroke;stop-color:#000000"
         d="m 4.3656248,1.5875 c 0.07329,0 0.1322916,0.059002 0.1322916,0.1322916 v 0.5291667 c 0,0.07329 -0.059002,0.1322917 -0.1322916,0.1322917 -0.07329,0 -0.1322918,-0.059002 -0.1322917,-0.1322917 4e-7,-0.4716538 2e-7,-0.4885317 0,-0.5291667 -3e-7,-0.07329 0.059002,-0.1322916 0.1322917,-0.1322916 z"
         sodipodi:nodetypes="sssssss" /><path
         id="rect6190"
         style="opacity:1;fill:url(#linearGradient9215);stroke-width:0.264583;stroke-linecap:round;stroke-linejoin:round;stroke-miterlimit:1.8;paint-order:fill markers stroke;stop-color:#000000;fill-opacity:1"
         d="m 4.6302084,2.6458333 c 0.07329,0 0.1322916,0.059002 0.1322916,0.1322916 v 0.2645833 c 0,0.07329 -0.059002,0.1322917 -0.1322916,0.1322917 -0.07329,0 -0.1322917,-0.059002 -0.1322917,-0.1322917 V 2.7781249 c 0,-0.07329 0.059002,-0.1322916 0.1322917,-0.1322916 z" /><path
         id="rect6192"
         style="opacity:1;fill:url(#linearGradient8296);stroke-width:0.264583;stroke-linecap:round;stroke-linejoin:round;stroke-miterlimit:1.8;paint-order:fill markers stroke;stop-color:#000000;fill-opacity:1"
         d="m 2.2489582,1.5875 c 0.07329,0 0.1322917,0.059002 0.1322917,0.1322916 0,0.07329 -0.059002,0.1322917 -0.1322917,0.1322917 -0.07329,0 -0.1322916,-0.059002 -0.1322916,-0.1322917 0,-0.07329 0.059002,-0.1322916 0.1322916,-0.1322916 z" /></g></g></svg>
