<?xml version="1.0" encoding="UTF-8" standalone="no"?>
<!-- Created with Inkscape (http://www.inkscape.org/) -->

<svg
   width="24"
   height="24"
   viewBox="0 0 6.3499999 6.35"
   version="1.1"
   id="svg5"
   inkscape:version="1.2 (dc2aedaf03, 2022-05-15)"
   sodipodi:docname="preferences-desktop-default-applications.svg"
   xml:space="preserve"
   xmlns:inkscape="http://www.inkscape.org/namespaces/inkscape"
   xmlns:sodipodi="http://sodipodi.sourceforge.net/DTD/sodipodi-0.dtd"
   xmlns:xlink="http://www.w3.org/1999/xlink"
   xmlns="http://www.w3.org/2000/svg"
   xmlns:svg="http://www.w3.org/2000/svg"><sodipodi:namedview
     id="namedview7"
     pagecolor="#ffffff"
     bordercolor="#000000"
     borderopacity="0.25"
     inkscape:showpageshadow="false"
     inkscape:pageopacity="0.0"
     inkscape:pagecheckerboard="0"
     inkscape:deskcolor="#d1d1d1"
     inkscape:document-units="px"
     showgrid="true"
     inkscape:zoom="4.7572178"
     inkscape:cx="-1.0510345"
     inkscape:cy="19.864552"
     inkscape:window-width="2160"
     inkscape:window-height="1335"
     inkscape:window-x="0"
     inkscape:window-y="0"
     inkscape:window-maximized="1"
     inkscape:current-layer="layer1"><inkscape:grid
       type="xygrid"
       id="grid3636" /></sodipodi:namedview><defs
     id="defs2"><linearGradient
       inkscape:collect="always"
       id="linearGradient7174"><stop
         style="stop-color:#f3f5f6;stop-opacity:1;"
         offset="0"
         id="stop7170" /><stop
         style="stop-color:#c8d3d4;stop-opacity:1;"
         offset="1"
         id="stop7172" /></linearGradient><linearGradient
       inkscape:collect="always"
       id="linearGradient6614"><stop
         style="stop-color:#c8d3d4;stop-opacity:1;"
         offset="0"
         id="stop6610" /><stop
         style="stop-color:#f3f5f6;stop-opacity:1;"
         offset="1"
         id="stop6612" /></linearGradient><linearGradient
       inkscape:collect="always"
       id="linearGradient3333"><stop
         style="stop-color:#5e6a73;stop-opacity:1;"
         offset="0"
         id="stop3329" /><stop
         style="stop-color:#475057;stop-opacity:1;"
         offset="1"
         id="stop3331" /></linearGradient><linearGradient
       inkscape:collect="always"
       id="linearGradient4533"><stop
         style="stop-color:#475057;stop-opacity:1;"
         offset="0"
         id="stop4529" /><stop
         style="stop-color:#5e6a73;stop-opacity:1;"
         offset="1"
         id="stop4531" /></linearGradient><linearGradient
       inkscape:collect="always"
       id="linearGradient4111"><stop
         style="stop-color:#c9d4d5;stop-opacity:1;"
         offset="0"
         id="stop4107" /><stop
         style="stop-color:#f2f4f5;stop-opacity:1;"
         offset="1"
         id="stop4109" /></linearGradient><style
       type="text/css"
       id="current-color-scheme">
      .ColorScheme-Text {
        color:#36404d;
      }
      </style><style
       type="text/css"
       id="current-color-scheme-67">
      .ColorScheme-Text {
        color:#122036;
      }
      </style><style
       type="text/css"
       id="current-color-scheme-7">
      .ColorScheme-Text {
        color:#122036;
      }
      </style><style
       type="text/css"
       id="current-color-scheme-5">
      .ColorScheme-Text {
        color:#122036;
      }
      </style><style
       type="text/css"
       id="current-color-scheme-6">
      .ColorScheme-Text {
        color:#122036;
      }
      </style><style
       type="text/css"
       id="current-color-scheme-1">
      .ColorScheme-Text {
        color:#122036;
      }
      </style><style
       id="current-color-scheme-10"
       type="text/css">
      .ColorScheme-Text {
        color:#122036;
      }
      </style><style
       id="current-color-scheme-5-7"
       type="text/css">
      .ColorScheme-Text {
        color:#122036;
      }
      </style><style
       id="current-color-scheme-1-2"
       type="text/css">
      .ColorScheme-Text {
        color:#122036;
      }
      </style><style
       type="text/css"
       id="current-color-scheme-10-9">
      .ColorScheme-Text {
        color:#122036;
      }
      </style><linearGradient
       inkscape:collect="always"
       xlink:href="#linearGradient4111"
       id="linearGradient4113"
       x1="3.175"
       y1="5.0270834"
       x2="3.175"
       y2="1.0583333"
       gradientUnits="userSpaceOnUse" /><linearGradient
       inkscape:collect="always"
       xlink:href="#linearGradient4533"
       id="linearGradient4535"
       x1="1.0583333"
       y1="3.96875"
       x2="1.0583333"
       y2="2.6458333"
       gradientUnits="userSpaceOnUse"
       gradientTransform="matrix(2.6666665,0,0,2.6666665,0.35277783,-5.2916663)" /><style
       type="text/css"
       id="current-color-scheme-675">
      .ColorScheme-Text {
        color:#122036;
      }
      </style><style
       type="text/css"
       id="current-color-scheme-7-3">
      .ColorScheme-Text {
        color:#122036;
      }
      </style><style
       type="text/css"
       id="current-color-scheme-5-5">
      .ColorScheme-Text {
        color:#122036;
      }
      </style><linearGradient
       inkscape:collect="always"
       xlink:href="#linearGradient3333"
       id="linearGradient3335"
       x1="3.175"
       y1="5.0270834"
       x2="3.175"
       y2="1.3229166"
       gradientUnits="userSpaceOnUse"
       gradientTransform="matrix(1.125,0,0,1.125,-0.39687499,-0.39687499)" /><linearGradient
       inkscape:collect="always"
       xlink:href="#linearGradient6614"
       id="linearGradient6616"
       x1="3.175"
       y1="4.4979167"
       x2="3.175"
       y2="1.8520833"
       gradientUnits="userSpaceOnUse" /><linearGradient
       inkscape:collect="always"
       xlink:href="#linearGradient7174"
       id="linearGradient7176"
       x1="3.175"
       y1="3.96875"
       x2="3.175"
       y2="2.3812499"
       gradientUnits="userSpaceOnUse" /></defs><g
     inkscape:label="Capa 1"
     inkscape:groupmode="layer"
     id="layer1"><path
       id="rect1728"
       style="opacity:1;fill:#90a4ae;stroke-width:0.529167;stroke-linecap:round;stroke-linejoin:round;stroke-miterlimit:1.8;paint-order:fill markers stroke;stop-color:#000000"
       d="m 1.0583333,0.52916664 h 4.2333332 c 0.2931583,0 0.5291666,0.23600832 0.5291666,0.52916666 v 4.2333332 c 0,0.2931583 -0.2360083,0.5291666 -0.5291666,0.5291666 H 1.0583333 c -0.29315834,0 -0.52916666,-0.2360083 -0.52916666,-0.5291666 V 1.0583333 c 0,-0.29315834 0.23600832,-0.52916666 0.52916666,-0.52916666 z" /><path
       id="rect1728-7"
       style="fill:url(#linearGradient4113);stroke-width:0.529167;stroke-linecap:round;stroke-linejoin:round;stroke-miterlimit:1.8;paint-order:fill markers stroke;stop-color:#000000"
       d="m 1.0583333,0.79374999 c -0.14657898,0 -0.26458331,0.11800433 -0.26458331,0.26458331 v 4.2333333 c 0,0.146579 0.11800433,0.2645834 0.26458331,0.2645834 H 5.2916666 C 5.4382457,5.55625 5.55625,5.4382456 5.55625,5.2916666 V 1.0583333 c 0,-0.14657898 -0.1180043,-0.26458331 -0.2645834,-0.26458331 z"
       sodipodi:nodetypes="sssssssss" /><path
       id="rect2556-5"
       style="fill:url(#linearGradient3335);fill-opacity:1;stroke-width:1.19062;stroke-linecap:round;stroke-linejoin:round;stroke-miterlimit:1.8;paint-order:fill markers stroke;stop-color:#000000"
       d="m 3.1750001,0.79374997 c 1.3192124,0 2.3812499,1.06203743 2.3812499,2.38125013 0,1.3192124 -1.0620375,2.3812499 -2.3812499,2.3812499 -1.3192126,0 -2.38125013,-1.0620375 -2.38125013,-2.3812499 0,-1.3192127 1.06203753,-2.38125012 2.38125013,-2.38125013 z" /><path
       id="rect2556-5-5"
       style="fill:url(#linearGradient4535);stroke-width:1.05833;stroke-linecap:round;stroke-linejoin:round;stroke-miterlimit:1.8;paint-order:fill markers stroke;stop-color:#000000"
       d="m 3.1749999,1.0583333 c 1.1726333,0 2.1166667,0.9440334 2.1166667,2.1166666 0,1.1726333 -0.9440334,2.1166667 -2.1166667,2.1166667 -1.1726332,0 -2.1166666,-0.9440334 -2.1166666,-2.1166667 0,-1.1726332 0.9440334,-2.1166666 2.1166666,-2.1166666 z" /><path
       id="path6374"
       style="color:#000000;fill:url(#linearGradient6616);stroke-linecap:round;stroke-linejoin:round;stroke-miterlimit:1.8;paint-order:fill markers stroke;fill-opacity:1"
       d="M 2.38125 1.5875 C 2.2883351 1.5877109 2.2020413 1.6364081 2.1543904 1.7161743 L 1.3596069 3.0385742 C 1.309647 3.1221731 1.309647 3.226793 1.3596069 3.3103922 L 2.1543904 4.6343424 C 2.2025224 4.7133593 2.288728 4.7616683 2.38125 4.7614664 L 3.96875 4.7614664 C 4.0612719 4.7616683 4.1474773 4.7133594 4.1956095 4.6343424 L 4.988326 3.3103922 C 5.0382859 3.2267933 5.0382859 3.1221734 4.988326 3.0385742 L 4.1956095 1.7161743 C 4.1479587 1.6364081 4.061665 1.5877109 3.96875 1.5875 L 2.38125 1.5875 z M 3.1610473 2.6458333 C 3.1655993 2.6457188 3.1704194 2.6458333 3.175 2.6458333 C 3.468158 2.6458333 3.7041666 2.881842 3.7041666 3.175 C 3.7041666 3.468158 3.468158 3.7041666 3.175 3.7041666 C 2.881842 3.7041666 2.6458333 3.468158 2.6458333 3.175 C 2.6458333 2.8864225 2.8742709 2.6530503 3.1610473 2.6458333 z " /><path
       id="rect6460-7"
       style="fill:url(#linearGradient7176);fill-opacity:1;stroke:none;stroke-width:0.352778;stroke-linecap:round;stroke-linejoin:round;stroke-miterlimit:1.8;stroke-dasharray:none;stroke-opacity:1;paint-order:fill markers stroke;stop-color:#000000"
       d="M 3.1543294 2.38125 C 2.7241647 2.3920755 2.38125 2.7421338 2.38125 3.175 C 2.38125 3.6147371 2.7352629 3.96875 3.175 3.96875 C 3.6147371 3.96875 3.96875 3.6147371 3.96875 3.175 C 3.96875 2.7352629 3.6147371 2.38125 3.175 2.38125 C 3.1681291 2.38125 3.1611574 2.3810781 3.1543294 2.38125 z M 3.1610473 2.6458333 C 3.1655993 2.6457188 3.1704194 2.6458333 3.175 2.6458333 C 3.468158 2.6458333 3.7041666 2.881842 3.7041666 3.175 C 3.7041666 3.468158 3.468158 3.7041666 3.175 3.7041666 C 2.881842 3.7041666 2.6458333 3.468158 2.6458333 3.175 C 2.6458333 2.8864225 2.8742709 2.6530503 3.1610473 2.6458333 z " /></g></svg>
