<?xml version="1.0" encoding="UTF-8" standalone="no"?>
<!-- Created with Inkscape (http://www.inkscape.org/) -->

<svg
   width="24"
   height="24"
   viewBox="0 0 6.3499999 6.35"
   version="1.1"
   id="svg5"
   inkscape:version="1.2 (dc2aedaf03, 2022-05-15)"
   sodipodi:docname="preferences-desktop-activities.svg"
   xml:space="preserve"
   xmlns:inkscape="http://www.inkscape.org/namespaces/inkscape"
   xmlns:sodipodi="http://sodipodi.sourceforge.net/DTD/sodipodi-0.dtd"
   xmlns:xlink="http://www.w3.org/1999/xlink"
   xmlns="http://www.w3.org/2000/svg"
   xmlns:svg="http://www.w3.org/2000/svg"><sodipodi:namedview
     id="namedview7"
     pagecolor="#ffffff"
     bordercolor="#000000"
     borderopacity="0.25"
     inkscape:showpageshadow="false"
     inkscape:pageopacity="0.0"
     inkscape:pagecheckerboard="0"
     inkscape:deskcolor="#d1d1d1"
     inkscape:document-units="px"
     showgrid="true"
     inkscape:zoom="19.028871"
     inkscape:cx="2.2597241"
     inkscape:cy="10.063655"
     inkscape:window-width="2160"
     inkscape:window-height="1335"
     inkscape:window-x="0"
     inkscape:window-y="0"
     inkscape:window-maximized="1"
     inkscape:current-layer="layer1"><inkscape:grid
       type="xygrid"
       id="grid3636" /></sodipodi:namedview><defs
     id="defs2"><linearGradient
       inkscape:collect="always"
       id="linearGradient7277"><stop
         style="stop-color:#6bda24;stop-opacity:1;"
         offset="0"
         id="stop7273" /><stop
         style="stop-color:#a0ea1e;stop-opacity:1;"
         offset="1"
         id="stop7275" /></linearGradient><linearGradient
       inkscape:collect="always"
       id="linearGradient6596"><stop
         style="stop-color:#de3f33;stop-opacity:1;"
         offset="0"
         id="stop6592" /><stop
         style="stop-color:#f16055;stop-opacity:1;"
         offset="1"
         id="stop6594" /></linearGradient><linearGradient
       inkscape:collect="always"
       id="linearGradient4533"><stop
         style="stop-color:#1076ed;stop-opacity:1;"
         offset="0"
         id="stop4529" /><stop
         style="stop-color:#34affa;stop-opacity:1;"
         offset="1"
         id="stop4531" /></linearGradient><linearGradient
       inkscape:collect="always"
       id="linearGradient4111"><stop
         style="stop-color:#e5efef;stop-opacity:1;"
         offset="0"
         id="stop4107" /><stop
         style="stop-color:#fcfcfc;stop-opacity:1;"
         offset="1"
         id="stop4109" /></linearGradient><style
       type="text/css"
       id="current-color-scheme">
      .ColorScheme-Text {
        color:#36404d;
      }
      </style><style
       type="text/css"
       id="current-color-scheme-67">
      .ColorScheme-Text {
        color:#122036;
      }
      </style><style
       type="text/css"
       id="current-color-scheme-7">
      .ColorScheme-Text {
        color:#122036;
      }
      </style><style
       type="text/css"
       id="current-color-scheme-5">
      .ColorScheme-Text {
        color:#122036;
      }
      </style><style
       type="text/css"
       id="current-color-scheme-6">
      .ColorScheme-Text {
        color:#122036;
      }
      </style><style
       type="text/css"
       id="current-color-scheme-1">
      .ColorScheme-Text {
        color:#122036;
      }
      </style><style
       id="current-color-scheme-10"
       type="text/css">
      .ColorScheme-Text {
        color:#122036;
      }
      </style><style
       id="current-color-scheme-5-7"
       type="text/css">
      .ColorScheme-Text {
        color:#122036;
      }
      </style><style
       id="current-color-scheme-1-2"
       type="text/css">
      .ColorScheme-Text {
        color:#122036;
      }
      </style><style
       type="text/css"
       id="current-color-scheme-10-9">
      .ColorScheme-Text {
        color:#122036;
      }
      </style><linearGradient
       inkscape:collect="always"
       xlink:href="#linearGradient4111"
       id="linearGradient4113"
       x1="3.175"
       y1="5.0270834"
       x2="3.175"
       y2="1.0583333"
       gradientUnits="userSpaceOnUse" /><linearGradient
       inkscape:collect="always"
       xlink:href="#linearGradient4533"
       id="linearGradient4535"
       x1="1.0583333"
       y1="3.96875"
       x2="1.0583333"
       y2="2.6458333"
       gradientUnits="userSpaceOnUse" /><linearGradient
       inkscape:collect="always"
       xlink:href="#linearGradient6596"
       id="linearGradient6244"
       gradientUnits="userSpaceOnUse"
       x1="1.0583333"
       y1="3.96875"
       x2="1.0583333"
       y2="2.6458333"
       gradientTransform="translate(2.1166667)" /><linearGradient
       inkscape:collect="always"
       xlink:href="#linearGradient7277"
       id="linearGradient6787"
       gradientUnits="userSpaceOnUse"
       gradientTransform="translate(4.2333332)"
       x1="1.0583333"
       y1="3.96875"
       x2="1.0583333"
       y2="2.6458333" /></defs><g
     inkscape:label="Capa 1"
     inkscape:groupmode="layer"
     id="layer1"><path
       id="rect1728"
       style="opacity:1;fill:#90a4ae;stroke-width:0.529167;stroke-linecap:round;stroke-linejoin:round;stroke-miterlimit:1.8;paint-order:fill markers stroke;stop-color:#000000"
       d="m 1.0583333,0.52916664 h 4.2333332 c 0.2931583,0 0.5291666,0.23600832 0.5291666,0.52916666 v 4.2333332 c 0,0.2931583 -0.2360083,0.5291666 -0.5291666,0.5291666 H 1.0583333 c -0.29315834,0 -0.52916666,-0.2360083 -0.52916666,-0.5291666 V 1.0583333 c 0,-0.29315834 0.23600832,-0.52916666 0.52916666,-0.52916666 z" /><path
       id="rect1728-7"
       style="fill:url(#linearGradient4113);stroke-width:0.529167;stroke-linecap:round;stroke-linejoin:round;stroke-miterlimit:1.8;paint-order:fill markers stroke;stop-color:#000000"
       d="m 1.0583333,0.79374999 h 4.2333341 c 0.1465792,0 0.2645834,0.11800416 0.2645834,0.26458331 v 4.2333332 c 0,0.1465791 -0.1180042,0.2645833 -0.2645834,0.2645833 H 1.0583333 c -0.14657915,0 -0.26458331,-0.1180042 -0.26458331,-0.2645833 V 1.0583333 c 0,-0.14657915 0.11800416,-0.26458331 0.26458331,-0.26458331 z" /><path
       id="rect2556"
       style="opacity:1;fill:#b22c2c;stroke-width:0.529167;stroke-linecap:round;stroke-linejoin:round;stroke-miterlimit:1.8;paint-order:fill markers stroke;stop-color:#000000"
       d="m 3.1749998,2.1166666 c 0.5863167,0 1.0583333,0.4720166 1.0583333,1.0583332 0,0.5863167 -0.4720166,1.0583333 -1.0583333,1.0583333 -0.5863166,0 -1.0583332,-0.4720166 -1.0583332,-1.0583333 0,-0.5863166 0.4720166,-1.0583332 1.0583332,-1.0583332 z" /><path
       id="rect2556-5"
       style="fill:#0a5dbf;stroke-width:0.529167;stroke-linecap:round;stroke-linejoin:round;stroke-miterlimit:1.8;paint-order:fill markers stroke;stop-color:#000000"
       d="m 1.0583334,2.1166668 c 0.5863166,0 1.0583332,0.4720166 1.0583332,1.0583333 0,0.5863166 -0.4720166,1.0583332 -1.0583332,1.0583332 C 0.47201674,4.2333333 9.4595336e-8,3.7613167 9.4595336e-8,3.1750001 9.4595336e-8,2.5886834 0.47201674,2.1166668 1.0583334,2.1166668 Z" /><path
       id="rect2556-5-5"
       style="fill:url(#linearGradient4535);stroke-width:0.396875;stroke-linecap:round;stroke-linejoin:round;stroke-miterlimit:1.8;paint-order:fill markers stroke;stop-color:#000000"
       d="m 1.0583333,2.3812499 c 0.4397375,0 0.79375,0.3540125 0.79375,0.79375 0,0.4397375 -0.3540125,0.79375 -0.79375,0.79375 -0.43973749,0 -0.79374998,-0.3540125 -0.79374998,-0.79375 0,-0.4397375 0.35401249,-0.79375 0.79374998,-0.79375 z" /><path
       id="rect2556-5-5-2"
       style="fill:url(#linearGradient6244);stroke-width:0.396875;stroke-linecap:round;stroke-linejoin:round;stroke-miterlimit:1.8;paint-order:fill markers stroke;stop-color:#000000"
       d="m 3.1749999,2.3812499 c 0.4397375,0 0.79375,0.3540125 0.79375,0.79375 0,0.4397375 -0.3540125,0.79375 -0.79375,0.79375 -0.4397375,0 -0.79375,-0.3540125 -0.79375,-0.79375 0,-0.4397375 0.3540125,-0.79375 0.79375,-0.79375 z" /><path
       id="rect2556-3"
       style="fill:#56b21d;stroke-width:0.529167;stroke-linecap:round;stroke-linejoin:round;stroke-miterlimit:1.8;paint-order:fill markers stroke;stop-color:#000000"
       d="m 5.2916669,2.1166668 c 0.5863166,0 1.0583332,0.4720166 1.0583332,1.0583333 0,0.5863166 -0.4720166,1.0583332 -1.0583332,1.0583332 -0.5863167,0 -1.0583333,-0.4720166 -1.0583333,-1.0583332 0,-0.5863167 0.4720166,-1.0583333 1.0583333,-1.0583333 z" /><path
       id="rect2556-5-5-2-9"
       style="fill:url(#linearGradient6787);stroke-width:0.396875;stroke-linecap:round;stroke-linejoin:round;stroke-miterlimit:1.8;paint-order:fill markers stroke;stop-color:#000000"
       d="m 5.2916667,2.3812499 c 0.4397375,0 0.79375,0.3540125 0.79375,0.79375 0,0.4397375 -0.3540125,0.79375 -0.79375,0.79375 -0.4397375,0 -0.79375,-0.3540125 -0.79375,-0.79375 0,-0.4397375 0.3540125,-0.79375 0.79375,-0.79375 z" /></g></svg>
