<?xml version="1.0" encoding="UTF-8" standalone="no"?>
<!-- Created with Inkscape (http://www.inkscape.org/) -->

<svg
   width="24"
   height="24"
   viewBox="0 0 6.3499999 6.35"
   version="1.1"
   id="svg5"
   inkscape:version="1.2 (dc2aedaf03, 2022-05-15)"
   sodipodi:docname="preferences-desktop-accessibility.svg"
   xml:space="preserve"
   xmlns:inkscape="http://www.inkscape.org/namespaces/inkscape"
   xmlns:sodipodi="http://sodipodi.sourceforge.net/DTD/sodipodi-0.dtd"
   xmlns:xlink="http://www.w3.org/1999/xlink"
   xmlns="http://www.w3.org/2000/svg"
   xmlns:svg="http://www.w3.org/2000/svg"><sodipodi:namedview
     id="namedview7"
     pagecolor="#ffffff"
     bordercolor="#000000"
     borderopacity="0.25"
     inkscape:showpageshadow="false"
     inkscape:pageopacity="0.0"
     inkscape:pagecheckerboard="0"
     inkscape:deskcolor="#d1d1d1"
     inkscape:document-units="px"
     showgrid="true"
     inkscape:zoom="13.455444"
     inkscape:cx="12.559972"
     inkscape:cy="16.461738"
     inkscape:window-width="2160"
     inkscape:window-height="1335"
     inkscape:window-x="0"
     inkscape:window-y="0"
     inkscape:window-maximized="1"
     inkscape:current-layer="layer1"><inkscape:grid
       type="xygrid"
       id="grid3636" /></sodipodi:namedview><defs
     id="defs2"><linearGradient
       inkscape:collect="always"
       id="linearGradient16188"><stop
         style="stop-color:#3a94da;stop-opacity:1;"
         offset="0"
         id="stop16184" /><stop
         style="stop-color:#42b3f2;stop-opacity:1;"
         offset="1"
         id="stop16186" /></linearGradient><style
       type="text/css"
       id="current-color-scheme">
      .ColorScheme-Text {
        color:#36404d;
      }
      </style><style
       type="text/css"
       id="current-color-scheme-67">
      .ColorScheme-Text {
        color:#122036;
      }
      </style><style
       type="text/css"
       id="current-color-scheme-7">
      .ColorScheme-Text {
        color:#122036;
      }
      </style><style
       type="text/css"
       id="current-color-scheme-5">
      .ColorScheme-Text {
        color:#122036;
      }
      </style><style
       type="text/css"
       id="current-color-scheme-6">
      .ColorScheme-Text {
        color:#122036;
      }
      </style><style
       type="text/css"
       id="current-color-scheme-1">
      .ColorScheme-Text {
        color:#122036;
      }
      </style><style
       id="current-color-scheme-10"
       type="text/css">
      .ColorScheme-Text {
        color:#122036;
      }
      </style><style
       id="current-color-scheme-5-7"
       type="text/css">
      .ColorScheme-Text {
        color:#122036;
      }
      </style><style
       id="current-color-scheme-1-2"
       type="text/css">
      .ColorScheme-Text {
        color:#122036;
      }
      </style><style
       type="text/css"
       id="current-color-scheme-10-9">
      .ColorScheme-Text {
        color:#122036;
      }
      </style><linearGradient
       inkscape:collect="always"
       xlink:href="#linearGradient16188"
       id="linearGradient16190"
       x1="-0.79374999"
       y1="5.8208332"
       x2="-0.79374999"
       y2="1.5875"
       gradientUnits="userSpaceOnUse"
       gradientTransform="translate(3.96875,-0.52916651)" /></defs><g
     inkscape:label="Capa 1"
     inkscape:groupmode="layer"
     id="layer1"><path
       id="rect15701"
       style="opacity:1;fill:#1b7ecc;stroke-width:0.529167;stroke-linecap:round;stroke-linejoin:round;stroke-miterlimit:1.8;paint-order:fill markers stroke;stop-color:#000000;fill-opacity:1"
       d="m 3.1749999,0.52916664 c 1.4657916,0 2.6458332,1.18004166 2.6458332,2.64583326 0,1.4657916 -1.1800416,2.6458332 -2.6458332,2.6458332 -1.4657916,0 -2.64583326,-1.1800416 -2.64583326,-2.6458332 0,-1.4657916 1.18004166,-2.64583326 2.64583326,-2.64583326 z" /><path
       id="rect15701-2"
       style="fill:url(#linearGradient16190);stroke-width:0.47625;stroke-linecap:round;stroke-linejoin:round;stroke-miterlimit:1.8;paint-order:fill markers stroke;stop-color:#000000"
       d="m 3.175,0.79374999 c 1.3192124,0 2.3812499,1.06203741 2.3812499,2.38124991 0,1.3192124 -1.0620375,2.3812499 -2.3812499,2.3812499 -1.3192125,0 -2.38124995,-1.0620375 -2.38124995,-2.3812499 0,-1.3192125 1.06203745,-2.38124991 2.38124995,-2.38124991 z" /><path
       id="rect3977-3"
       style="fill:#1b7ecc;fill-opacity:1;stroke-width:0.529167;stroke-linecap:round;stroke-linejoin:round;stroke-miterlimit:1.8;paint-order:fill markers stroke;stop-color:#000000"
       d="M 2.896464,1.8520833 C 2.6096875,1.8593033 2.3812499,2.0926725 2.3812499,2.38125 c 0,0.1965657 0.106289,0.3676256 0.2645834,0.4588867 V 3.2199584 C 2.3370264,3.3285509 2.1166666,3.6219031 2.1166666,3.9687499 c 0,0.4397367 0.3540133,0.79375 0.79375,0.79375 0.4328657,0 0.7829244,-0.3429151 0.7937501,-0.7730794 V 4.4979166 H 3.9687499 4.2333332 V 4.2333333 H 3.9687499 v -0.79375 H 3.5031453 C 3.3622177,3.2817151 3.1589015,3.1807332 2.9310872,3.1749999 H 3.7041666 V 2.9104166 H 2.9243692 C 3.2111456,2.9031966 3.4395833,2.6698274 3.4395833,2.38125 c 0,-0.2931581 -0.2360087,-0.5291667 -0.5291667,-0.5291667 -0.00458,0 -0.0094,-1.146e-4 -0.013953,0 z m 0,1.5875 h 0.013953 c 0.2931577,0 0.5291667,0.2360089 0.5291667,0.5291666 0,0.2931579 -0.236009,0.5291667 -0.5291667,0.5291667 -0.2931577,0 -0.5291667,-0.2360088 -0.5291667,-0.5291667 0,-0.2885771 0.2284378,-0.5219496 0.5152137,-0.5291666 z m 0.7627441,0.2645833 h 0.044958 V 3.9480794 C 3.7020161,3.8626114 3.6861141,3.7807481 3.6592081,3.7041666 Z" /><path
       id="rect3977"
       style="opacity:1;fill:#ffffff;fill-opacity:1;stroke-width:0.529167;stroke-linecap:round;stroke-linejoin:round;stroke-miterlimit:1.8;paint-order:fill markers stroke;stop-color:#000000"
       d="m 2.896464,1.5875509 c -0.2867765,0.00722 -0.5152141,0.2405892 -0.5152141,0.5291667 0,0.1965657 0.106289,0.3676256 0.2645834,0.4588867 V 2.955426 C 2.3370264,3.0640185 2.1166666,3.3573707 2.1166666,3.7042175 c 0,0.4397367 0.3540133,0.79375 0.79375,0.79375 0.4328657,0 0.7829244,-0.3429151 0.7937501,-0.7730794 V 4.2333842 H 3.9687499 4.2333332 V 3.9688009 H 3.9687499 v -0.79375 H 3.5031453 C 3.3622177,3.0171827 3.1589015,2.9162008 2.9310872,2.9104675 H 3.7041666 V 2.6458842 H 2.9243692 c 0.2867764,-0.00722 0.5152141,-0.2405892 0.5152141,-0.5291666 0,-0.2931581 -0.2360087,-0.5291667 -0.5291667,-0.5291667 -0.00458,0 -0.0094,-1.146e-4 -0.013953,0 z m 0,1.5875 h 0.013953 c 0.2931577,0 0.5291667,0.2360089 0.5291667,0.5291666 0,0.2931579 -0.236009,0.5291667 -0.5291667,0.5291667 -0.2931577,0 -0.5291667,-0.2360088 -0.5291667,-0.5291667 0,-0.2885771 0.2284378,-0.5219496 0.5152137,-0.5291666 z m 0.7627441,0.2645833 h 0.044958 V 3.683547 C 3.7020161,3.598079 3.6861141,3.5162157 3.6592081,3.4396342 Z" /></g></svg>
