<?xml version="1.0" encoding="UTF-8" standalone="no"?>
<!-- Created with Inkscape (http://www.inkscape.org/) -->

<svg
   width="24"
   height="24"
   viewBox="0 0 6.3499999 6.35"
   version="1.1"
   id="svg5"
   inkscape:version="1.2 (dc2aedaf03, 2022-05-15)"
   sodipodi:docname="preferences-desktop-gestures-screenedges.svg"
   xml:space="preserve"
   xmlns:inkscape="http://www.inkscape.org/namespaces/inkscape"
   xmlns:sodipodi="http://sodipodi.sourceforge.net/DTD/sodipodi-0.dtd"
   xmlns:xlink="http://www.w3.org/1999/xlink"
   xmlns="http://www.w3.org/2000/svg"
   xmlns:svg="http://www.w3.org/2000/svg"><sodipodi:namedview
     id="namedview7"
     pagecolor="#ffffff"
     bordercolor="#000000"
     borderopacity="0.25"
     inkscape:showpageshadow="false"
     inkscape:pageopacity="0.0"
     inkscape:pagecheckerboard="0"
     inkscape:deskcolor="#d1d1d1"
     inkscape:document-units="px"
     showgrid="true"
     inkscape:zoom="13.455444"
     inkscape:cx="32.291763"
     inkscape:cy="21.069539"
     inkscape:window-width="2160"
     inkscape:window-height="1335"
     inkscape:window-x="0"
     inkscape:window-y="0"
     inkscape:window-maximized="1"
     inkscape:current-layer="layer1"><inkscape:grid
       type="xygrid"
       id="grid271" /></sodipodi:namedview><defs
     id="defs2"><linearGradient
       id="linearGradient5124"
       gradientUnits="userSpaceOnUse"
       x1="6.9150009"
       x2="6.9150009"
       y1="18.041945"
       y2="9.8719463"
       gradientTransform="matrix(0.26458333,0,0,0.26458333,1.8295938,4.3404147)"><stop
         offset="0"
         stop-color="#eff0f1"
         id="stop5120"
         style="stop-color:#33518f;stop-opacity:1;" /><stop
         offset="1"
         stop-color="#fcfcfc"
         id="stop5122" /></linearGradient><linearGradient
       inkscape:collect="always"
       id="linearGradient2125"><stop
         style="stop-color:#326fef;stop-opacity:1;"
         offset="0"
         id="stop2121" /><stop
         style="stop-color:#5694fb;stop-opacity:1;"
         offset="1"
         id="stop2123" /></linearGradient><style
       id="current-color-scheme"
       type="text/css">
      .ColorScheme-Text {
        color:#122036;
      }
      </style><style
       id="current-color-scheme-6"
       type="text/css">
      .ColorScheme-Text {
        color:#122036;
      }
      </style><linearGradient
       inkscape:collect="always"
       xlink:href="#linearGradient2125"
       id="linearGradient2127"
       x1="3.175"
       y1="5.0270834"
       x2="3.175"
       y2="0.79374999"
       gradientUnits="userSpaceOnUse"
       gradientTransform="translate(1.25e-8,0.26458333)" /><style
       type="text/css"
       id="current-color-scheme-67">
      .ColorScheme-Text {
        color:#36404d;
      }
      </style><linearGradient
       id="h"
       gradientUnits="userSpaceOnUse"
       x1="6.9150009"
       x2="6.9150009"
       y1="18.041945"
       y2="9.8719463"
       gradientTransform="matrix(0.26458333,0,0,0.26458333,1.8295938,4.3404147)"><stop
         offset="0"
         stop-color="#eff0f1"
         id="stop2818" /><stop
         offset="1"
         stop-color="#fcfcfc"
         id="stop2820" /></linearGradient><linearGradient
       inkscape:collect="always"
       xlink:href="#h"
       id="linearGradient5004"
       gradientUnits="userSpaceOnUse"
       gradientTransform="matrix(0.25907794,0,0,0.25907794,0.32514272,-0.44093786)"
       x1="6.9150009"
       y1="18.041945"
       x2="6.9150009"
       y2="9.8719463" /></defs><g
     inkscape:label="Capa 1"
     inkscape:groupmode="layer"
     id="layer1"><path
       id="rect1345"
       style="opacity:1;fill:#33518f;fill-opacity:1;stroke-width:0.529167;stroke-linecap:round;stroke-linejoin:round;stroke-miterlimit:1.8;paint-order:fill markers stroke;stop-color:#000000"
       d="m 0.52916663,0.52916645 5.29166657,2.3e-7 c 0.1465792,1e-8 0.2645833,0.11800417 0.2645833,0.26458331 V 5.5562498 c 0,0.1465792 -0.1180041,0.2645833 -0.2645833,0.2645833 l -5.29166658,-2e-7 c -0.14657918,0 -0.26458335,-0.1180041 -0.26458335,-0.2645833 l 10e-9,-4.76249981 c 0,-0.14657916 0.11800417,-0.26458334 0.26458335,-0.26458334 z"
       sodipodi:nodetypes="sssssssss" /><path
       id="rect1345-7"
       style="fill:url(#linearGradient2127);fill-opacity:1;stroke-width:0.529167;stroke-linecap:round;stroke-linejoin:round;stroke-miterlimit:1.8;paint-order:fill markers stroke;stop-color:#000000"
       d="M 0.52916665,0.79374999 H 5.8208333 V 5.55625 H 0.52916665 Z"
       sodipodi:nodetypes="ccccc" /><path
       id="path5002-2"
       style="fill:#33518f;fill-opacity:1;stroke-width:0.979193"
       d="M 0.79374997,1.3229167 V 2.38125 L 1.3229167,1.8520834 1.8520833,1.3229167 Z m 3.70416663,0 L 5.0270833,1.8520834 5.55625,2.38125 V 1.3229167 Z M 2.6458333,2.38125 A 0.2645834,0.2645834 0 0 0 2.38125,2.6458334 0.2645834,0.2645834 0 0 0 2.6458333,2.9104167 0.2645834,0.2645834 0 0 0 2.9104166,2.6458334 0.2645834,0.2645834 0 0 0 2.6458333,2.38125 Z m 0.79375,0 L 3.175,2.6458334 3.7041666,3.175 3.175,3.7041667 3.4395833,3.96875 4.2333333,3.175 Z M 2.38125,3.175 A 0.26458332,0.26458332 0 0 0 2.1166666,3.4395834 0.26458332,0.26458332 0 0 0 2.38125,3.7041667 0.26458332,0.26458332 0 0 0 2.6458333,3.4395834 0.26458332,0.26458332 0 0 0 2.38125,3.175 Z M 2.9104166,3.96875 A 0.26458334,0.26458334 0 0 0 2.6458333,4.2333334 0.26458334,0.26458334 0 0 0 2.9104166,4.4979167 0.26458334,0.26458334 0 0 0 3.175,4.2333334 0.26458334,0.26458334 0 0 0 2.9104166,3.96875 Z M 0.79374997,4.4979167 V 5.55625 H 1.8520833 L 1.3229167,5.0270834 Z m 4.76250003,0 L 5.0270833,5.0270834 4.4979166,5.55625 H 5.55625 Z" /><path
       id="path5002"
       style="fill:url(#linearGradient5004);stroke-width:0.979193"
       d="M 0.79374999 1.0583333 L 0.79374999 2.1166666 L 1.3229167 1.5875 L 1.8520833 1.0583333 L 0.79374999 1.0583333 z M 4.4979166 1.0583333 L 5.0270833 1.5875 L 5.55625 2.1166666 L 5.55625 1.0583333 L 4.4979166 1.0583333 z M 2.6458333 2.1166666 A 0.2645834 0.2645834 0 0 0 2.38125 2.38125 A 0.2645834 0.2645834 0 0 0 2.6458333 2.6458333 A 0.2645834 0.2645834 0 0 0 2.9104166 2.38125 A 0.2645834 0.2645834 0 0 0 2.6458333 2.1166666 z M 3.4395833 2.1166666 L 3.175 2.38125 L 3.7041666 2.9104166 L 3.175 3.4395833 L 3.4395833 3.7041666 L 4.2333333 2.9104166 L 3.4395833 2.1166666 z M 2.38125 2.9104166 A 0.26458332 0.26458332 0 0 0 2.1166666 3.175 A 0.26458332 0.26458332 0 0 0 2.38125 3.4395833 A 0.26458332 0.26458332 0 0 0 2.6458333 3.175 A 0.26458332 0.26458332 0 0 0 2.38125 2.9104166 z M 2.9104166 3.7041666 A 0.26458334 0.26458334 0 0 0 2.6458333 3.96875 A 0.26458334 0.26458334 0 0 0 2.9104166 4.2333333 A 0.26458334 0.26458334 0 0 0 3.175 3.96875 A 0.26458334 0.26458334 0 0 0 2.9104166 3.7041666 z M 0.79374999 4.2333333 L 0.79374999 5.2916666 L 1.8520833 5.2916666 L 1.3229167 4.7625 L 0.79374999 4.2333333 z M 5.55625 4.2333333 L 5.0270833 4.7625 L 4.4979166 5.2916666 L 5.55625 5.2916666 L 5.55625 4.2333333 z " /></g></svg>
