<?xml version="1.0" encoding="UTF-8" standalone="no"?>
<!-- Created with Inkscape (http://www.inkscape.org/) -->

<svg
   width="24"
   height="24"
   viewBox="0 0 6.3499999 6.35"
   version="1.1"
   id="svg5"
   inkscape:version="1.2 (dc2aedaf03, 2022-05-15)"
   sodipodi:docname="preferences-devices-cpu.svg"
   xml:space="preserve"
   xmlns:inkscape="http://www.inkscape.org/namespaces/inkscape"
   xmlns:sodipodi="http://sodipodi.sourceforge.net/DTD/sodipodi-0.dtd"
   xmlns:xlink="http://www.w3.org/1999/xlink"
   xmlns="http://www.w3.org/2000/svg"
   xmlns:svg="http://www.w3.org/2000/svg"><sodipodi:namedview
     id="namedview7"
     pagecolor="#ffffff"
     bordercolor="#000000"
     borderopacity="0.25"
     inkscape:showpageshadow="false"
     inkscape:pageopacity="0.0"
     inkscape:pagecheckerboard="0"
     inkscape:deskcolor="#d1d1d1"
     inkscape:document-units="px"
     showgrid="true"
     inkscape:zoom="26.910887"
     inkscape:cx="27.98124"
     inkscape:cy="17.372151"
     inkscape:window-width="2160"
     inkscape:window-height="1335"
     inkscape:window-x="0"
     inkscape:window-y="0"
     inkscape:window-maximized="1"
     inkscape:current-layer="layer1"><inkscape:grid
       type="xygrid"
       id="grid271" /></sodipodi:namedview><defs
     id="defs2"><linearGradient
       inkscape:collect="always"
       id="linearGradient4671"><stop
         style="stop-color:#218ce5;stop-opacity:1;"
         offset="0"
         id="stop4667" /><stop
         style="stop-color:#2db0f8;stop-opacity:1;"
         offset="1"
         id="stop4669" /></linearGradient><linearGradient
       inkscape:collect="always"
       id="linearGradient2125"><stop
         style="stop-color:#252a34;stop-opacity:1;"
         offset="0"
         id="stop2121" /><stop
         style="stop-color:#353d4b;stop-opacity:1;"
         offset="1"
         id="stop2123" /></linearGradient><style
       id="current-color-scheme"
       type="text/css">
      .ColorScheme-Text {
        color:#122036;
      }
      </style><style
       id="current-color-scheme-6"
       type="text/css">
      .ColorScheme-Text {
        color:#122036;
      }
      </style><linearGradient
       inkscape:collect="always"
       xlink:href="#linearGradient2125"
       id="linearGradient2127"
       x1="3.175"
       y1="4.2333331"
       x2="3.175"
       y2="1.3229166"
       gradientUnits="userSpaceOnUse" /><linearGradient
       inkscape:collect="always"
       xlink:href="#linearGradient4671"
       id="linearGradient4673"
       x1="3.175"
       y1="3.96875"
       x2="3.175"
       y2="2.1166666"
       gradientUnits="userSpaceOnUse"
       gradientTransform="translate(5e-8,0.26458335)" /></defs><g
     inkscape:label="Capa 1"
     inkscape:groupmode="layer"
     id="layer1"><path
       id="rect1345"
       style="opacity:1;fill:#15151a;fill-opacity:1;stroke-width:0.529167;stroke-linecap:round;stroke-linejoin:round;stroke-miterlimit:1.8;paint-order:fill markers stroke;stop-color:#000000"
       d="m 0.79374996,0.52916646 4.76249994,2.3e-7 c 0.1465792,10e-9 0.2645833,0.11800417 0.2645833,0.26458335 V 5.5562498 c 0,0.1465792 -0.1180041,0.2645833 -0.2645833,0.2645833 l -4.76249994,-2e-7 c -0.14657918,0 -0.26458335,-0.1180041 -0.26458335,-0.2645833 V 0.79374981 c 0,-0.14657918 0.11800417,-0.26458336 0.26458335,-0.26458335 z"
       sodipodi:nodetypes="sssssssss" /><path
       id="rect1345-7"
       style="fill:url(#linearGradient2127);fill-opacity:1;stroke-width:0.529167;stroke-linecap:round;stroke-linejoin:round;stroke-miterlimit:1.8;paint-order:fill markers stroke;stop-color:#000000"
       d="M 0.79374999,0.79375002 H 5.55625 V 5.55625 H 0.79374999 Z"
       sodipodi:nodetypes="ccccc" /><path
       id="rect1345-7-3"
       style="fill:#16161a;fill-opacity:1;stroke-width:0.293981;stroke-linecap:round;stroke-linejoin:round;stroke-miterlimit:1.8;paint-order:fill markers stroke;stop-color:#000000"
       d="M 1.8520833,1.8520833 H 4.4979166 V 4.4979166 H 1.8520833 Z"
       sodipodi:nodetypes="ccccc" /><path
       id="rect1345-7-3-5"
       style="fill:url(#linearGradient4673);fill-opacity:1;stroke-width:0.235185;stroke-linecap:round;stroke-linejoin:round;stroke-miterlimit:1.8;paint-order:fill markers stroke;stop-color:#000000"
       d="M 2.1166666,2.1166666 H 4.2333332 V 4.2333332 H 2.1166666 Z"
       sodipodi:nodetypes="ccccc" /><path
       id="rect3612-7"
       style="fill:#16161a;fill-opacity:1;stroke-width:0.529167;stroke-linecap:round;stroke-linejoin:round;stroke-miterlimit:1.8;paint-order:fill markers stroke;stop-color:#000000"
       d="M 2.1166666,1.3229167 V 1.5875001 H 2.38125 V 1.3229167 Z M 2.38125,1.5875001 V 1.8520834 H 2.6458333 V 1.5875001 Z m 0.2645833,0 H 2.9104166 V 1.3229167 H 2.6458333 Z m 0.2645833,0 V 1.8520834 H 3.175 V 1.5875001 Z m 0.2645834,0 H 3.4395833 V 1.3229167 H 3.175 Z m 0.2645833,0 V 1.8520834 H 3.7041666 V 1.5875001 Z m 0.2645833,0 H 3.96875 V 1.3229167 H 3.7041666 Z m 0.2645834,0 V 1.8520834 H 4.2333333 V 1.5875001 Z m 0.2645833,0 H 4.4979166 V 1.3229167 H 4.2333333 Z m 0.2645833,0 V 1.8520834 H 4.7625 V 1.5875001 Z m -2.38125,0 H 1.8520833 V 1.8520834 H 2.1166666 Z M 1.0583333,2.38125 V 2.6458334 H 1.3229167 V 2.38125 Z M 1.3229167,2.6458334 V 2.9104167 H 1.5875 V 2.6458334 Z m 0,0.2645833 H 1.0583333 V 3.175 h 0.2645834 z m 0,0.2645833 V 3.4395834 H 1.5875 V 3.175 Z m 0,0.2645834 H 1.0583333 v 0.2645833 h 0.2645834 z m 0,0.2645833 V 3.96875 H 1.5875 V 3.7041667 Z m 0,0.2645833 H 1.0583333 V 4.2333334 H 1.3229167 Z M 1.0583333,4.4979167 V 5.55625 H 2.1166666 L 1.5875,5.0270834 Z m 1.5875,0.5291667 V 5.2916667 H 2.9104166 V 5.0270834 Z M 2.9104166,5.2916667 V 5.55625 H 3.175 V 5.2916667 Z m 0.2645834,0 H 3.4395833 V 5.0270834 H 3.175 Z m 0.2645833,0 V 5.55625 H 3.7041666 V 5.2916667 Z m 0.2645833,0 H 3.96875 V 5.0270834 H 3.7041666 Z m 0.2645834,0 V 5.55625 H 4.2333333 V 5.2916667 Z m 0.2645833,0 H 4.4979166 V 5.0270834 H 4.2333333 Z m 0.2645833,0 V 5.55625 H 4.7625 V 5.2916667 Z m 0.2645834,0 H 5.0270833 V 5.0270834 H 4.7625 Z m 0.2645833,0 V 5.55625 H 5.2916666 V 5.2916667 Z m -2.38125,0 H 2.38125 V 5.55625 h 0.2645833 z" /><path
       id="rect3612"
       style="opacity:1;fill:#d9dce2;stroke-width:0.529167;stroke-linecap:round;stroke-linejoin:round;stroke-miterlimit:1.8;paint-order:fill markers stroke;stop-color:#000000;fill-opacity:1"
       d="M 2.1166666 1.0583333 L 2.1166666 1.3229167 L 2.38125 1.3229167 L 2.38125 1.0583333 L 2.1166666 1.0583333 z M 2.38125 1.3229167 L 2.38125 1.5875 L 2.6458333 1.5875 L 2.6458333 1.3229167 L 2.38125 1.3229167 z M 2.6458333 1.3229167 L 2.9104166 1.3229167 L 2.9104166 1.0583333 L 2.6458333 1.0583333 L 2.6458333 1.3229167 z M 2.9104166 1.3229167 L 2.9104166 1.5875 L 3.175 1.5875 L 3.175 1.3229167 L 2.9104166 1.3229167 z M 3.175 1.3229167 L 3.4395833 1.3229167 L 3.4395833 1.0583333 L 3.175 1.0583333 L 3.175 1.3229167 z M 3.4395833 1.3229167 L 3.4395833 1.5875 L 3.7041666 1.5875 L 3.7041666 1.3229167 L 3.4395833 1.3229167 z M 3.7041666 1.3229167 L 3.96875 1.3229167 L 3.96875 1.0583333 L 3.7041666 1.0583333 L 3.7041666 1.3229167 z M 3.96875 1.3229167 L 3.96875 1.5875 L 4.2333333 1.5875 L 4.2333333 1.3229167 L 3.96875 1.3229167 z M 4.2333333 1.3229167 L 4.4979166 1.3229167 L 4.4979166 1.0583333 L 4.2333333 1.0583333 L 4.2333333 1.3229167 z M 4.4979166 1.3229167 L 4.4979166 1.5875 L 4.7625 1.5875 L 4.7625 1.3229167 L 4.4979166 1.3229167 z M 2.1166666 1.3229167 L 1.8520833 1.3229167 L 1.8520833 1.5875 L 2.1166666 1.5875 L 2.1166666 1.3229167 z M 1.0583333 2.1166666 L 1.0583333 2.38125 L 1.3229167 2.38125 L 1.3229167 2.1166666 L 1.0583333 2.1166666 z M 1.3229167 2.38125 L 1.3229167 2.6458333 L 1.5875 2.6458333 L 1.5875 2.38125 L 1.3229167 2.38125 z M 1.3229167 2.6458333 L 1.0583333 2.6458333 L 1.0583333 2.9104166 L 1.3229167 2.9104166 L 1.3229167 2.6458333 z M 1.3229167 2.9104166 L 1.3229167 3.175 L 1.5875 3.175 L 1.5875 2.9104166 L 1.3229167 2.9104166 z M 1.3229167 3.175 L 1.0583333 3.175 L 1.0583333 3.4395833 L 1.3229167 3.4395833 L 1.3229167 3.175 z M 1.3229167 3.4395833 L 1.3229167 3.7041666 L 1.5875 3.7041666 L 1.5875 3.4395833 L 1.3229167 3.4395833 z M 1.3229167 3.7041666 L 1.0583333 3.7041666 L 1.0583333 3.96875 L 1.3229167 3.96875 L 1.3229167 3.7041666 z M 1.0583333 4.2333333 L 1.0583333 5.2916666 L 2.1166666 5.2916666 L 1.5875 4.7625 L 1.0583333 4.2333333 z M 2.6458333 4.7625 L 2.6458333 5.0270833 L 2.9104166 5.0270833 L 2.9104166 4.7625 L 2.6458333 4.7625 z M 2.9104166 5.0270833 L 2.9104166 5.2916666 L 3.175 5.2916666 L 3.175 5.0270833 L 2.9104166 5.0270833 z M 3.175 5.0270833 L 3.4395833 5.0270833 L 3.4395833 4.7625 L 3.175 4.7625 L 3.175 5.0270833 z M 3.4395833 5.0270833 L 3.4395833 5.2916666 L 3.7041666 5.2916666 L 3.7041666 5.0270833 L 3.4395833 5.0270833 z M 3.7041666 5.0270833 L 3.96875 5.0270833 L 3.96875 4.7625 L 3.7041666 4.7625 L 3.7041666 5.0270833 z M 3.96875 5.0270833 L 3.96875 5.2916666 L 4.2333333 5.2916666 L 4.2333333 5.0270833 L 3.96875 5.0270833 z M 4.2333333 5.0270833 L 4.4979166 5.0270833 L 4.4979166 4.7625 L 4.2333333 4.7625 L 4.2333333 5.0270833 z M 4.4979166 5.0270833 L 4.4979166 5.2916666 L 4.7625 5.2916666 L 4.7625 5.0270833 L 4.4979166 5.0270833 z M 4.7625 5.0270833 L 5.0270833 5.0270833 L 5.0270833 4.7625 L 4.7625 4.7625 L 4.7625 5.0270833 z M 5.0270833 5.0270833 L 5.0270833 5.2916666 L 5.2916666 5.2916666 L 5.2916666 5.0270833 L 5.0270833 5.0270833 z M 2.6458333 5.0270833 L 2.38125 5.0270833 L 2.38125 5.2916666 L 2.6458333 5.2916666 L 2.6458333 5.0270833 z " /></g></svg>
