<?xml version="1.0" encoding="UTF-8" standalone="no"?>
<!-- Created with Inkscape (http://www.inkscape.org/) -->

<svg
   width="24"
   height="24"
   viewBox="0 0 6.3499999 6.35"
   version="1.1"
   id="svg5"
   inkscape:version="1.2 (dc2aedaf03, 2022-05-15)"
   sodipodi:docname="preferences-desktop-font.svg"
   xml:space="preserve"
   xmlns:inkscape="http://www.inkscape.org/namespaces/inkscape"
   xmlns:sodipodi="http://sodipodi.sourceforge.net/DTD/sodipodi-0.dtd"
   xmlns:xlink="http://www.w3.org/1999/xlink"
   xmlns="http://www.w3.org/2000/svg"
   xmlns:svg="http://www.w3.org/2000/svg"><sodipodi:namedview
     id="namedview7"
     pagecolor="#ffffff"
     bordercolor="#000000"
     borderopacity="0.25"
     inkscape:showpageshadow="false"
     inkscape:pageopacity="0.0"
     inkscape:pagecheckerboard="0"
     inkscape:deskcolor="#d1d1d1"
     inkscape:document-units="px"
     showgrid="true"
     inkscape:zoom="9.5144355"
     inkscape:cx="3.2056552"
     inkscape:cy="12.349655"
     inkscape:window-width="2160"
     inkscape:window-height="1335"
     inkscape:window-x="0"
     inkscape:window-y="0"
     inkscape:window-maximized="1"
     inkscape:current-layer="layer1"><inkscape:grid
       type="xygrid"
       id="grid3636" /></sodipodi:namedview><defs
     id="defs2"><linearGradient
       inkscape:collect="always"
       id="linearGradient1871"><stop
         style="stop-color:#475057;stop-opacity:1;"
         offset="0"
         id="stop1867" /><stop
         style="stop-color:#5e6a73;stop-opacity:1;"
         offset="1"
         id="stop1869" /></linearGradient><style
       type="text/css"
       id="current-color-scheme">
      .ColorScheme-Text {
        color:#36404d;
      }
      </style><style
       type="text/css"
       id="current-color-scheme-67">
      .ColorScheme-Text {
        color:#122036;
      }
      </style><style
       type="text/css"
       id="current-color-scheme-7">
      .ColorScheme-Text {
        color:#122036;
      }
      </style><style
       type="text/css"
       id="current-color-scheme-5">
      .ColorScheme-Text {
        color:#122036;
      }
      </style><style
       type="text/css"
       id="current-color-scheme-6">
      .ColorScheme-Text {
        color:#122036;
      }
      </style><style
       type="text/css"
       id="current-color-scheme-1">
      .ColorScheme-Text {
        color:#122036;
      }
      </style><style
       id="current-color-scheme-10"
       type="text/css">
      .ColorScheme-Text {
        color:#122036;
      }
      </style><style
       id="current-color-scheme-5-7"
       type="text/css">
      .ColorScheme-Text {
        color:#122036;
      }
      </style><style
       id="current-color-scheme-1-2"
       type="text/css">
      .ColorScheme-Text {
        color:#122036;
      }
      </style><style
       type="text/css"
       id="current-color-scheme-10-9">
      .ColorScheme-Text {
        color:#122036;
      }
      </style><linearGradient
       inkscape:collect="always"
       xlink:href="#linearGradient1871"
       id="linearGradient2352"
       gradientUnits="userSpaceOnUse"
       x1="3.175"
       y1="5.2916665"
       x2="3.175"
       y2="1.0583333"
       gradientTransform="translate(0.26510604,-1.2815076e-4)" /></defs><g
     inkscape:label="Capa 1"
     inkscape:groupmode="layer"
     id="layer1"><g
       id="rect1384-1"
       transform="translate(-0.79374994,0.26458327)"><g
         id="path1840-7"><path
           style="color:#000000;fill:#343b40;fill-opacity:1;stroke-linecap:round;stroke-linejoin:round;stroke-miterlimit:1.8;-inkscape-stroke:none;paint-order:fill markers stroke"
           d="M 2.1157533,0.26419078 C 1.9695829,0.26362915 1.8506454,0.38169206 1.8501283,0.52786266 v 0.265625 0.26367184 c -5.647e-4,0.1469339 0.1186911,0.2661897 0.265625,0.265625 l 0.5286457,-3.906e-4 0.00196,3.438806 -0.2640624,3.906e-4 C 2.2353597,4.7610258 2.1161039,4.8802816 2.1166686,5.0272155 v 0.2647136 c 5.171e-4,0.1461706 0.1194546,0.2642335 0.265625,0.2636719 H 4.2338561 C 4.3792644,5.5550864 4.4970134,5.4373374 4.497528,5.2919291 V 5.0272155 C 4.4980896,4.8810451 4.3800267,4.7621076 4.2338561,4.7615905 H 3.9701842 l -0.00143,-1.3217468 h 0.2636719 c 6.5e-4,2.4e-6 0.0013,2.4e-6 0.00195,0 5.042e-4,0.1446527 0.1170738,0.2620923 0.2617188,0.2636719 h 0.265625 C 4.9071251,3.7030027 5.0248759,3.5852532 5.0253905,3.4398437 V 2.38125 C 5.0259521,2.2350796 4.9078893,2.1161422 4.7617187,2.115625 H 4.4960937 C 4.3499231,2.1161421 4.2318602,2.2350796 4.2324218,2.38125 H 3.9687499 L 3.9682272,1.3227845 h 1.0566406 v 0.2636719 c -5.647e-4,0.1469339 0.1186911,0.2661897 0.265625,0.265625 H 5.8197897 C 5.9659603,1.8515643 6.0840232,1.7326268 6.0834616,1.5864564 V 1.0571595 0.79348766 0.52786264 C 6.082947,0.38245436 5.965198,0.26470533 5.8197897,0.26419076 l -3.4403645,2e-8 z m 0.7942707,0.52890628 0.7925782,3.906e-4 C 3.5571939,0.79400226 3.439445,0.91175116 3.4389304,1.0571595 l 5.227e-4,1.5877624 C 3.4388915,2.7910923 3.5569543,2.9100297 3.7031249,2.9105469 3.5577167,2.9110615 3.4399677,3.0288105 3.4394531,3.1742187 l 0.00143,1.5873718 c 1.994e-4,0.2206499 0.1477179,0.4041764 0.2773437,0.46875 0.1296258,0.064574 0.2519531,0.060547 0.2519531,0.060547 L 2.646356,5.2904969 c 0.2206499,0 0.6687596,-0.1477179 0.7333333,-0.2773437 C 3.4442633,4.8835274 3.4402363,4.7612 3.4402363,4.7612 L 3.4382793,1.0567689 C 3.4377648,0.91136056 3.0554324,0.79361166 2.910024,0.79309706 Z m 2.1148438,3.906e-4 H 5.5541647 V 1.0571595 1.3227845 C 5.5541647,1.1022986 5.4060734,0.91866076 5.276821,0.85403456 5.1475685,0.78940826 5.0248678,0.79348766 5.0248678,0.79348766 Z M 4.4960937,2.7542969 v 0.2402343 c -0.00652,-0.00379 -0.00723,-0.020227 -0.013672,-0.023437 -0.1286759,-0.0641 -0.2482365,-0.060603 -0.25,-0.060547 0.1239387,0 0.1776735,-0.091993 0.263672,-0.1562503 z"
           id="path2884"
           sodipodi:nodetypes="cccccccccccccccccccccccccccccccccccccccccccccssccscccccccscccccc" /><path
           style="color:#000000;fill:url(#linearGradient2352);stroke-width:0.529167;stroke-linecap:round;stroke-linejoin:round;stroke-miterlimit:1.8;paint-order:fill markers stroke"
           d="m 2.1152324,0.52864396 v 0.2645834 0.26458324 l 0.7941404,-3.906e-4 0.00196,3.7045612 c 0,0 9.764e-4,0.2641919 -0.2645833,0.2645833 L 2.3817727,5.0269551 V 5.2915385 H 4.233856 V 5.0269551 H 3.9692727 c 0,0 -0.2645834,9.768e-4 -0.2645834,-0.2645833 L 3.703255,3.174349 h 0.5291667 c 0,0 0.2645833,-9.77e-4 0.2645833,0.2645833 H 4.7615883 V 2.380599 H 4.497005 c 0,0 9.769e-4,0.2645833 -0.2645833,0.2645833 H 3.703255 L 3.7027323,1.0578106 H 5.025649 c 0,0 0.2645833,3e-7 0.2645833,0.2645833 V 1.5869773 H 5.819399 V 1.0578106 0.79322736 0.52864394 l -3.4395833,2e-8 z"
           id="path2882"
           sodipodi:nodetypes="cccccscccccsccccccscccsccccccc" /></g></g></g></svg>
