<?xml version="1.0" encoding="UTF-8" standalone="no"?>
<!-- Created with Inkscape (http://www.inkscape.org/) -->

<svg
   width="24"
   height="24"
   viewBox="0 0 6.3499999 6.35"
   version="1.1"
   id="svg5"
   inkscape:version="1.2 (dc2aedaf03, 2022-05-15)"
   sodipodi:docname="preferences-desktop-theme-windowdecorations.svg"
   xml:space="preserve"
   xmlns:inkscape="http://www.inkscape.org/namespaces/inkscape"
   xmlns:sodipodi="http://sodipodi.sourceforge.net/DTD/sodipodi-0.dtd"
   xmlns:xlink="http://www.w3.org/1999/xlink"
   xmlns="http://www.w3.org/2000/svg"
   xmlns:svg="http://www.w3.org/2000/svg"><sodipodi:namedview
     id="namedview7"
     pagecolor="#ffffff"
     bordercolor="#000000"
     borderopacity="0.25"
     inkscape:showpageshadow="false"
     inkscape:pageopacity="0.0"
     inkscape:pagecheckerboard="0"
     inkscape:deskcolor="#d1d1d1"
     inkscape:document-units="px"
     showgrid="true"
     inkscape:zoom="13.455444"
     inkscape:cx="3.3072116"
     inkscape:cy="6.1313473"
     inkscape:window-width="2160"
     inkscape:window-height="1335"
     inkscape:window-x="0"
     inkscape:window-y="0"
     inkscape:window-maximized="1"
     inkscape:current-layer="layer1"><inkscape:grid
       type="xygrid"
       id="grid271" /></sodipodi:namedview><defs
     id="defs2"><linearGradient
       inkscape:collect="always"
       id="linearGradient3913"><stop
         style="stop-color:#248ec4;stop-opacity:1;"
         offset="0"
         id="stop3909" /><stop
         style="stop-color:#2fb7f9;stop-opacity:1;"
         offset="1"
         id="stop3911" /></linearGradient><linearGradient
       inkscape:collect="always"
       id="linearGradient3711"><stop
         style="stop-color:#495259;stop-opacity:1;"
         offset="0"
         id="stop3707" /><stop
         style="stop-color:#5d6971;stop-opacity:1;"
         offset="1"
         id="stop3709" /></linearGradient><linearGradient
       inkscape:collect="always"
       id="linearGradient2125"><stop
         style="stop-color:#cee3e3;stop-opacity:1;"
         offset="0"
         id="stop2121" /><stop
         style="stop-color:#eff5f5;stop-opacity:1;"
         offset="1"
         id="stop2123" /></linearGradient><style
       id="current-color-scheme"
       type="text/css">
      .ColorScheme-Text {
        color:#122036;
      }
      </style><style
       id="current-color-scheme-6"
       type="text/css">
      .ColorScheme-Text {
        color:#122036;
      }
      </style><linearGradient
       inkscape:collect="always"
       xlink:href="#linearGradient2125"
       id="linearGradient2127"
       x1="3.175"
       y1="5.0270834"
       x2="3.175"
       y2="0.79374999"
       gradientUnits="userSpaceOnUse"
       gradientTransform="translate(1.25e-8,0.26458333)" /><style
       type="text/css"
       id="current-color-scheme-67">
      .ColorScheme-Text {
        color:#36404d;
      }
      </style><linearGradient
       inkscape:collect="always"
       xlink:href="#linearGradient3913"
       id="linearGradient3713"
       x1="3.175"
       y1="2.1166666"
       x2="3.175"
       y2="0.52916664"
       gradientUnits="userSpaceOnUse" /><style
       type="text/css"
       id="current-color-scheme-675">
      .ColorScheme-Text {
        color:#36404d;
      }
      </style><linearGradient
       inkscape:collect="always"
       xlink:href="#linearGradient3711"
       id="linearGradient2545"
       gradientUnits="userSpaceOnUse"
       x1="3.175"
       y1="2.1166666"
       x2="3.175"
       y2="0.52916664"
       gradientTransform="matrix(-1,0,0,1,6.3499998,3.625e-8)" /></defs><g
     inkscape:label="Capa 1"
     inkscape:groupmode="layer"
     id="layer1"><path
       id="rect1345"
       style="opacity:1;fill:#90a4ae;fill-opacity:1;stroke-width:0.529167;stroke-linecap:round;stroke-linejoin:round;stroke-miterlimit:1.8;paint-order:fill markers stroke;stop-color:#000000"
       d="m 0.52916663,0.52916645 5.29166657,2.3e-7 c 0.1465792,1e-8 0.2645833,0.11800417 0.2645833,0.26458331 V 5.5562498 c 0,0.1465792 -0.1180041,0.2645833 -0.2645833,0.2645833 l -5.29166658,-2e-7 c -0.14657918,0 -0.26458335,-0.1180041 -0.26458335,-0.2645833 l 10e-9,-4.76249981 c 0,-0.14657916 0.11800417,-0.26458334 0.26458335,-0.26458334 z"
       sodipodi:nodetypes="sssssssss" /><path
       id="rect1345-7"
       style="fill:url(#linearGradient2127);fill-opacity:1;stroke-width:0.529167;stroke-linecap:round;stroke-linejoin:round;stroke-miterlimit:1.8;paint-order:fill markers stroke;stop-color:#000000"
       d="M 0.52916665,0.79374999 H 5.8208333 V 5.55625 H 0.52916665 Z"
       sodipodi:nodetypes="ccccc" /><path
       id="rect3250"
       style="opacity:1;fill:#115799;fill-opacity:1;stroke-width:0.529167;stroke-linecap:round;stroke-linejoin:round;stroke-miterlimit:1.8;paint-order:fill markers stroke;stop-color:#000000"
       d="m 0.52916666,0.52916666 c -0.14657888,0 -0.26458333,0.11800445 -0.26458333,0.26458333 V 2.38125 2.6458333 H 0.52916666 2.9104166 3.175 V 2.38125 0.79374999 0.52916666 H 2.9104166 Z"
       sodipodi:nodetypes="sscccccccccs" /><path
       id="rect3252"
       style="opacity:1;fill:url(#linearGradient3713);fill-opacity:1;stroke-width:0.529167;stroke-linecap:round;stroke-linejoin:round;stroke-miterlimit:1.8;paint-order:fill markers stroke;stop-color:#000000"
       d="m 0.52916664,0.79374999 2.38124996,2e-8 V 2.38125 H 0.52916664 Z"
       sodipodi:nodetypes="ccccc" /><path
       id="rect3250-6"
       style="fill:#343b40;fill-opacity:1;stroke-width:0.529167;stroke-linecap:round;stroke-linejoin:round;stroke-miterlimit:1.8;paint-order:fill markers stroke;stop-color:#000000"
       d="M 3.175,0.52916666 V 0.79374999 2.38125 2.6458333 h 0.2645833 2.38125 0.2645833 V 2.38125 0.79374999 c 0,-0.14657886 -0.1180045,-0.26458333 -0.2645833,-0.26458333 h -2.38125 z"
       sodipodi:nodetypes="ccccccccsscc" /><path
       id="rect3252-2"
       style="fill:url(#linearGradient2545);fill-opacity:1;stroke-width:0.529167;stroke-linecap:round;stroke-linejoin:round;stroke-miterlimit:1.8;paint-order:fill markers stroke;stop-color:#000000"
       d="M 5.8208332,0.79375001 H 3.4395833 V 2.38125 h 2.3812499 z"
       sodipodi:nodetypes="ccccc" /><path
       id="rect5847"
       style="opacity:1;fill:#343b40;stroke-width:0.529167;stroke-linecap:round;stroke-linejoin:round;stroke-miterlimit:1.8;paint-order:fill markers stroke;stop-color:#000000"
       d="m 5.0270833,1.0583333 c 0.2931584,0 0.5291667,0.2360083 0.5291667,0.5291666 0,0.2931583 -0.2360083,0.5291667 -0.5291667,0.5291667 -0.2931583,0 -0.5291666,-0.2360084 -0.5291666,-0.5291667 0,-0.2931583 0.2360083,-0.5291666 0.5291666,-0.5291666 z" /><path
       id="rect5849"
       style="opacity:1;fill:#f1f1f1;stroke-width:0.529167;stroke-linecap:round;stroke-linejoin:round;stroke-miterlimit:1.8;paint-order:fill markers stroke;stop-color:#000000"
       d="m 5.0270831,1.3229166 c 0.1465792,0 0.2645833,0.1180042 0.2645833,0.2645833 0,0.1465792 -0.1180041,0.2645834 -0.2645833,0.2645834 -0.1465791,0 -0.2645833,-0.1180042 -0.2645833,-0.2645834 0,-0.1465791 0.1180042,-0.2645833 0.2645833,-0.2645833 z" /><path
       id="rect5847-9"
       style="fill:#115799;stroke-width:0.529167;stroke-linecap:round;stroke-linejoin:round;stroke-miterlimit:1.8;paint-order:fill markers stroke;stop-color:#000000;fill-opacity:1"
       d="m 1.3229166,1.0583334 c 0.2931584,0 0.5291667,0.2360083 0.5291667,0.5291666 0,0.2931583 -0.2360083,0.5291667 -0.5291667,0.5291667 -0.2931583,0 -0.52916661,-0.2360084 -0.52916661,-0.5291667 0,-0.2931583 0.23600831,-0.5291666 0.52916661,-0.5291666 z" /><path
       id="rect5849-1"
       style="fill:#f1f1f1;stroke-width:0.529167;stroke-linecap:round;stroke-linejoin:round;stroke-miterlimit:1.8;paint-order:fill markers stroke;stop-color:#000000"
       d="m 1.3229164,1.3229167 c 0.1465792,0 0.2645833,0.1180042 0.2645833,0.2645833 0,0.1465792 -0.1180041,0.2645834 -0.2645833,0.2645834 -0.1465791,0 -0.2645833,-0.1180042 -0.2645833,-0.2645834 0,-0.1465791 0.1180042,-0.2645833 0.2645833,-0.2645833 z" /></g></svg>
