<?xml version="1.0" encoding="UTF-8" standalone="no"?>
<!-- Created with Inkscape (http://www.inkscape.org/) -->

<svg
   width="24"
   height="24"
   viewBox="0 0 6.3499999 6.35"
   version="1.1"
   id="svg5"
   inkscape:version="1.2 (dc2aedaf03, 2022-05-15)"
   sodipodi:docname="preferences-desktop.svg"
   xml:space="preserve"
   xmlns:inkscape="http://www.inkscape.org/namespaces/inkscape"
   xmlns:sodipodi="http://sodipodi.sourceforge.net/DTD/sodipodi-0.dtd"
   xmlns:xlink="http://www.w3.org/1999/xlink"
   xmlns="http://www.w3.org/2000/svg"
   xmlns:svg="http://www.w3.org/2000/svg"><sodipodi:namedview
     id="namedview7"
     pagecolor="#ffffff"
     bordercolor="#000000"
     borderopacity="0.25"
     inkscape:showpageshadow="false"
     inkscape:pageopacity="0.0"
     inkscape:pagecheckerboard="0"
     inkscape:deskcolor="#d1d1d1"
     inkscape:document-units="px"
     showgrid="true"
     inkscape:zoom="26.910888"
     inkscape:cx="21.348236"
     inkscape:cy="13.507544"
     inkscape:window-width="2160"
     inkscape:window-height="1335"
     inkscape:window-x="0"
     inkscape:window-y="0"
     inkscape:window-maximized="1"
     inkscape:current-layer="layer1"><inkscape:grid
       type="xygrid"
       id="grid271" /></sodipodi:namedview><defs
     id="defs2"><linearGradient
       id="linearGradient5124"
       gradientUnits="userSpaceOnUse"
       x1="6.9150009"
       x2="6.9150009"
       y1="18.041945"
       y2="9.8719463"
       gradientTransform="matrix(0.26458333,0,0,0.26458333,1.8295938,4.3404147)"><stop
         offset="0"
         stop-color="#eff0f1"
         id="stop5120"
         style="stop-color:#33518f;stop-opacity:1;" /><stop
         offset="1"
         stop-color="#fcfcfc"
         id="stop5122" /></linearGradient><style
       id="current-color-scheme"
       type="text/css">
      .ColorScheme-Text {
        color:#122036;
      }
      </style><style
       id="current-color-scheme-6"
       type="text/css">
      .ColorScheme-Text {
        color:#122036;
      }
      </style><style
       type="text/css"
       id="current-color-scheme-67">
      .ColorScheme-Text {
        color:#36404d;
      }
      </style><linearGradient
       id="h"
       gradientUnits="userSpaceOnUse"
       x1="6.9150009"
       x2="6.9150009"
       y1="18.041945"
       y2="9.8719463"
       gradientTransform="matrix(0.26458333,0,0,0.26458333,1.8295938,4.3404147)"><stop
         offset="0"
         stop-color="#eff0f1"
         id="stop2818" /><stop
         offset="1"
         stop-color="#fcfcfc"
         id="stop2820" /></linearGradient><linearGradient
       inkscape:collect="always"
       id="linearGradient2125-7"><stop
         style="stop-color:#0f75ed;stop-opacity:1;"
         offset="0"
         id="stop2121-9" /><stop
         style="stop-color:#36b2fb;stop-opacity:1;"
         offset="1"
         id="stop2123-2" /></linearGradient><style
       id="current-color-scheme-0"
       type="text/css">
      .ColorScheme-Text {
        color:#122036;
      }
      </style><style
       id="current-color-scheme-6-2"
       type="text/css">
      .ColorScheme-Text {
        color:#122036;
      }
      </style><linearGradient
       inkscape:collect="always"
       xlink:href="#linearGradient2125-7"
       id="linearGradient2127-9"
       x1="3.175"
       y1="5.0270834"
       x2="3.175"
       y2="0.79374999"
       gradientUnits="userSpaceOnUse"
       gradientTransform="translate(1.25e-8,0.26458333)" /><style
       type="text/css"
       id="current-color-scheme-67-3">
      .ColorScheme-Text {
        color:#36404d;
      }
      </style></defs><g
     inkscape:label="Capa 1"
     inkscape:groupmode="layer"
     id="layer1"><g
       inkscape:label="Capa 1"
       id="layer1-7"><path
         id="rect1345-5"
         style="opacity:1;fill:#0b63cc;fill-opacity:1;stroke-width:0.529167;stroke-linecap:round;stroke-linejoin:round;stroke-miterlimit:1.8;paint-order:fill markers stroke;stop-color:#000000"
         d="m 0.52916663,0.52916645 5.29166657,2.3e-7 c 0.1465792,1e-8 0.2645833,0.11800417 0.2645833,0.26458331 V 5.5562498 c 0,0.1465792 -0.1180041,0.2645833 -0.2645833,0.2645833 l -5.29166658,-2e-7 c -0.14657918,0 -0.26458335,-0.1180041 -0.26458335,-0.2645833 l 10e-9,-4.76249981 c 0,-0.14657916 0.11800417,-0.26458334 0.26458335,-0.26458334 z"
         sodipodi:nodetypes="sssssssss" /><path
         id="rect1345-7-9"
         style="fill:url(#linearGradient2127-9);fill-opacity:1;stroke-width:0.529167;stroke-linecap:round;stroke-linejoin:round;stroke-miterlimit:1.8;paint-order:fill markers stroke;stop-color:#000000"
         d="M 0.52916665,0.79374999 H 5.8208333 V 5.55625 H 0.52916665 Z"
         sodipodi:nodetypes="ccccc" /><path
         id="path5002-2-2"
         style="fill:#0b63cc;fill-opacity:1;stroke-width:0.979193"
         d="M 2.6458333,2.1166667 C 2.499708,2.1166668 2.38125,2.2351248 2.38125,2.3812501 c 10e-8,0.1461253 0.118458,0.2645832 0.2645833,0.2645833 0.1461253,-10e-8 0.2645832,-0.118458 0.2645833,-0.2645833 0,-0.1461253 -0.118458,-0.2645833 -0.2645833,-0.2645834 z m 0.79375,0 L 3.175,2.3812501 3.7041666,2.9104167 3.175,3.4395834 l 0.2645833,0.2645833 0.79375,-0.79375 z M 2.38125,2.9104167 c -0.1461254,0 -0.2645834,0.118458 -0.2645834,0.2645834 0,0.1461254 0.118458,0.2645833 0.2645834,0.2645833 0.1461253,0 0.2645833,-0.118458 0.2645833,-0.2645833 0,-0.1461254 -0.1184579,-0.2645834 -0.2645833,-0.2645834 z m 0.5291666,0.79375 c -0.1461254,0 -0.2645833,0.118458 -0.2645833,0.2645834 0,0.1461253 0.118458,0.2645833 0.2645833,0.2645833 C 3.056542,4.2333334 3.175,4.1148755 3.175,3.9687501 3.175,3.8226247 3.056542,3.7041667 2.9104166,3.7041667 Z"
         sodipodi:nodetypes="ssssscccccccssssssssss" /><path
         id="path5002-28"
         style="fill:#f4fdfe;fill-opacity:1;stroke-width:0.979193"
         d="M 2.6458333,1.8520833 C 2.499708,1.8520834 2.38125,1.9705414 2.38125,2.1166667 c 10e-8,0.1461253 0.118458,0.2645832 0.2645833,0.2645833 0.1461253,-1e-7 0.2645832,-0.118458 0.2645833,-0.2645833 0,-0.1461253 -0.118458,-0.2645833 -0.2645833,-0.2645834 z m 0.79375,0 L 3.175,2.1166667 3.7041666,2.6458333 3.175,3.175 l 0.2645833,0.2645833 0.79375,-0.79375 z M 2.38125,2.6458333 c -0.1461254,0 -0.2645834,0.118458 -0.2645834,0.2645834 0,0.1461254 0.118458,0.2645833 0.2645834,0.2645833 0.1461253,0 0.2645833,-0.118458 0.2645833,-0.2645833 0,-0.1461254 -0.1184579,-0.2645834 -0.2645833,-0.2645834 z m 0.5291666,0.79375 c -0.1461254,0 -0.2645833,0.118458 -0.2645833,0.2645834 0,0.1461253 0.118458,0.2645833 0.2645833,0.2645833 C 3.056542,3.96875 3.175,3.8502921 3.175,3.7041667 3.175,3.5580413 3.056542,3.4395833 2.9104166,3.4395833 Z"
         sodipodi:nodetypes="ssssscccccccssssssssss" /><path
         id="rect1374"
         style="opacity:1;fill:#f4fdfe;fill-opacity:1;stroke-width:0.529167;stroke-linecap:round;stroke-linejoin:round;stroke-miterlimit:1.8;paint-order:fill markers stroke;stop-color:#000000"
         d="M 0.52916683,4.7625 H 5.8208333 l -2e-7,0.7937497 H 0.52916664 Z"
         sodipodi:nodetypes="ccccc" /></g></g></svg>
