<?xml version="1.0" encoding="UTF-8" standalone="no"?>
<!-- Created with Inkscape (http://www.inkscape.org/) -->

<svg
   width="24"
   height="24"
   viewBox="0 0 6.3499999 6.35"
   version="1.1"
   id="svg5"
   inkscape:version="1.2 (dc2aedaf03, 2022-05-15)"
   sodipodi:docname="preferences-desktop-virtual.svg"
   xml:space="preserve"
   xmlns:inkscape="http://www.inkscape.org/namespaces/inkscape"
   xmlns:sodipodi="http://sodipodi.sourceforge.net/DTD/sodipodi-0.dtd"
   xmlns:xlink="http://www.w3.org/1999/xlink"
   xmlns="http://www.w3.org/2000/svg"
   xmlns:svg="http://www.w3.org/2000/svg"><sodipodi:namedview
     id="namedview7"
     pagecolor="#ffffff"
     bordercolor="#000000"
     borderopacity="0.25"
     inkscape:showpageshadow="false"
     inkscape:pageopacity="0.0"
     inkscape:pagecheckerboard="0"
     inkscape:deskcolor="#d1d1d1"
     inkscape:document-units="px"
     showgrid="true"
     inkscape:zoom="26.910888"
     inkscape:cx="8.2680289"
     inkscape:cy="16.889075"
     inkscape:window-width="2160"
     inkscape:window-height="1335"
     inkscape:window-x="0"
     inkscape:window-y="0"
     inkscape:window-maximized="1"
     inkscape:current-layer="layer1"><inkscape:grid
       type="xygrid"
       id="grid271" /></sodipodi:namedview><defs
     id="defs2"><linearGradient
       inkscape:collect="always"
       id="linearGradient7887"><stop
         style="stop-color:#02b3fe;stop-opacity:1;"
         offset="0"
         id="stop7883" /><stop
         style="stop-color:#1584f3;stop-opacity:1;"
         offset="1"
         id="stop7885" /></linearGradient><linearGradient
       inkscape:collect="always"
       id="linearGradient5570"><stop
         style="stop-color:#2dd769;stop-opacity:1;"
         offset="0"
         id="stop5566" /><stop
         style="stop-color:#58f991;stop-opacity:1;"
         offset="1"
         id="stop5568" /></linearGradient><linearGradient
       inkscape:collect="always"
       id="linearGradient2125"><stop
         style="stop-color:#20252f;stop-opacity:1;"
         offset="0"
         id="stop2121" /><stop
         style="stop-color:#0a0b0d;stop-opacity:1;"
         offset="1"
         id="stop2123" /></linearGradient><style
       id="current-color-scheme"
       type="text/css">
      .ColorScheme-Text {
        color:#122036;
      }
      </style><style
       id="current-color-scheme-6"
       type="text/css">
      .ColorScheme-Text {
        color:#122036;
      }
      </style><linearGradient
       inkscape:collect="always"
       xlink:href="#linearGradient2125"
       id="linearGradient2127"
       x1="3.175"
       y1="5.0270834"
       x2="3.175"
       y2="0.79374999"
       gradientUnits="userSpaceOnUse"
       gradientTransform="translate(1.25e-8,0.26458333)" /><style
       type="text/css"
       id="current-color-scheme-67">
      .ColorScheme-Text {
        color:#36404d;
      }
      </style><linearGradient
       inkscape:collect="always"
       xlink:href="#linearGradient5570"
       id="linearGradient5572"
       x1="4.7624998"
       y1="4.2333331"
       x2="4.7624998"
       y2="1.8520833"
       gradientUnits="userSpaceOnUse" /><linearGradient
       inkscape:collect="always"
       xlink:href="#linearGradient7887"
       id="linearGradient7889"
       x1="1.8520833"
       y1="2.6458333"
       x2="1.8520833"
       y2="1.3229166"
       gradientUnits="userSpaceOnUse"
       gradientTransform="translate(0,-3.7041666)" /></defs><g
     inkscape:label="Capa 1"
     inkscape:groupmode="layer"
     id="layer1"><path
       id="rect1345"
       style="opacity:1;fill:#000000;fill-opacity:1;stroke-width:0.529167;stroke-linecap:round;stroke-linejoin:round;stroke-miterlimit:1.8;paint-order:fill markers stroke;stop-color:#000000"
       d="m 0.52916662,0.26458312 5.29166658,2.3e-7 c 0.1465792,10e-9 0.2645833,0.11800417 0.2645833,0.26458331 V 5.8208331 c 0,0.1465792 -0.1180041,0.2645833 -0.2645833,0.2645833 l -5.29166659,-2e-7 c -0.14657918,0 -0.26458335,-0.1180041 -0.26458335,-0.2645833 l 10e-9,-5.29166644 c 0,-0.14657916 0.11800417,-0.26458334 0.26458335,-0.26458334 z"
       sodipodi:nodetypes="sssssssss" /><path
       id="rect1345-7"
       style="fill:url(#linearGradient2127);fill-opacity:1;stroke-width:0.529167;stroke-linecap:round;stroke-linejoin:round;stroke-miterlimit:1.8;paint-order:fill markers stroke;stop-color:#000000"
       d="M 0.52916664,0.52916666 H 5.8208333 V 5.8208333 H 0.52916664 Z"
       sodipodi:nodetypes="ccccc" /><path
       id="rect2793"
       style="opacity:1;fill:url(#linearGradient7889);stroke-width:0.529167;stroke-linecap:round;stroke-linejoin:round;stroke-miterlimit:1.8;paint-order:fill markers stroke;stop-color:#000000"
       transform="scale(1,-1)"
       d="m 1.0583333,-2.6458333 h 1.8520832 c 0.1465792,0 0.2645834,0.1180042 0.2645834,0.2645834 v 1.3229166 c 0,0.1465792 -0.1180042,0.26458337 -0.2645834,0.26458337 H 1.0583333 c -0.14657914,0 -0.26458331,-0.11800417 -0.26458331,-0.26458337 v -1.3229166 c 0,-0.1465792 0.11800417,-0.2645834 0.26458331,-0.2645834 z" /><path
       id="rect3606"
       style="opacity:1;fill:#ffd800;stroke-width:0.529167;stroke-linecap:round;stroke-linejoin:round;stroke-miterlimit:1.8;paint-order:fill markers stroke;stop-color:#000000"
       d="m 1.3229166,3.4395833 h 1.5874996 c 0.1465792,0 0.2645834,0.1180042 0.2645834,0.2645834 v 1.3229165 c 0,0.1465791 -0.1180042,0.2645833 -0.2645834,0.2645833 H 1.3229166 c -0.1465791,0 -0.2645833,-0.1180042 -0.2645833,-0.2645833 V 3.7041667 c 0,-0.1465792 0.1180042,-0.2645834 0.2645833,-0.2645834 z" /><path
       id="rect3936"
       style="opacity:1;fill:url(#linearGradient5572);stroke-width:0.529167;stroke-linecap:round;stroke-linejoin:round;stroke-miterlimit:1.8;paint-order:fill markers stroke;stop-color:#000000"
       d="m 3.96875,1.5875 h 1.3229166 c 0.1465792,0 0.2645834,0.1180041 0.2645834,0.2645833 v 2.3812499 c 0,0.1465792 -0.1180042,0.2645834 -0.2645834,0.2645834 H 3.96875 c -0.1465792,0 -0.2645833,-0.1180042 -0.2645833,-0.2645834 V 1.8520833 C 3.7041667,1.7055041 3.8221708,1.5875 3.96875,1.5875 Z" /><path
       id="rect4680"
       style="opacity:1;fill:#1a9946;stroke-width:0.529167;stroke-linecap:round;stroke-linejoin:round;stroke-miterlimit:1.8;paint-order:fill markers stroke;stop-color:#000000"
       d="m 4.6302083,3.7041667 c 0.3664479,0 0.6614583,0.2950104 0.6614583,0.6614583 0,0.3664479 -0.2950104,0.6614583 -0.6614583,0.6614583 -0.3664479,0 -0.6614583,-0.2950104 -0.6614583,-0.6614583 0,-0.3664479 0.2950104,-0.6614583 0.6614583,-0.6614583 z" /><path
       id="rect5156"
       style="opacity:1;fill:#d1ebe4;stroke-width:0.529167;stroke-linecap:round;stroke-linejoin:round;stroke-miterlimit:1.8;paint-order:fill markers stroke;stop-color:#000000"
       d="m 4.6302081,3.96875 h 2e-7 c 0.2198687,0 0.396875,0.1770062 0.396875,0.396875 0,0.2198687 -0.1770063,0.396875 -0.396875,0.396875 h -2e-7 c -0.2198687,0 -0.396875,-0.1770063 -0.396875,-0.396875 0,-0.2198688 0.1770063,-0.396875 0.396875,-0.396875 z" /><path
       id="rect4680-6"
       style="fill:#1471da;fill-opacity:1;stroke-width:0.529167;stroke-linecap:round;stroke-linejoin:round;stroke-miterlimit:1.8;paint-order:fill markers stroke;stop-color:#000000"
       d="m 1.9843752,1.5875 c 0.3664479,0 0.6614583,0.2950104 0.6614583,0.6614583 0,0.3664479 -0.2950104,0.6614583 -0.6614583,0.6614583 -0.3664479,0 -0.6614583,-0.2950104 -0.6614583,-0.6614583 0,-0.3664479 0.2950104,-0.6614583 0.6614583,-0.6614583 z" /><path
       id="rect5156-7"
       style="fill:#d2e4ff;fill-opacity:1;stroke-width:0.529167;stroke-linecap:round;stroke-linejoin:round;stroke-miterlimit:1.8;paint-order:fill markers stroke;stop-color:#000000"
       d="m 1.9843751,1.8520833 h 10e-8 c 0.2198687,0 0.396875,0.1770062 0.396875,0.396875 0,0.2198687 -0.1770063,0.396875 -0.396875,0.396875 h -10e-8 C 1.7645063,2.6458333 1.5875,2.468827 1.5875,2.2489583 c 0,-0.2198688 0.1770063,-0.396875 0.3968751,-0.396875 z" /><path
       id="rect10289"
       style="opacity:1;fill:#e69315;stroke-width:0.529167;stroke-linecap:round;stroke-linejoin:round;stroke-miterlimit:1.8;paint-order:fill markers stroke;stop-color:#000000"
       d="M 1.8520834,4.4979167 H 2.38125 c 0.1465792,0 0.2645834,0.1180042 0.2645834,0.2645833 V 5.2916666 C 2.6458334,5.4382458 2.5278292,5.55625 2.38125,5.55625 H 1.8520834 c -0.1465791,0 -0.2645833,-0.1180042 -0.2645833,-0.2645834 V 4.7625 c 0,-0.1465791 0.1180042,-0.2645833 0.2645833,-0.2645833 z" /><path
       id="rect10291"
       style="opacity:1;fill:#ffffff;stroke-width:0.529167;stroke-linecap:round;stroke-linejoin:round;stroke-miterlimit:1.8;paint-order:fill markers stroke;stop-color:#000000"
       d="M 1.8520833,4.7624998 H 2.38125 V 5.2916664 H 1.8520833 Z" /></g></svg>
