<?xml version="1.0" encoding="UTF-8" standalone="no"?>
<!-- Created with Inkscape (http://www.inkscape.org/) -->

<svg
   width="24"
   height="24"
   viewBox="0 0 6.3499999 6.35"
   version="1.1"
   id="svg5"
   inkscape:version="1.2 (dc2aedaf03, 2022-05-15)"
   sodipodi:docname="preferences-web-browser-shortcuts.svg"
   xml:space="preserve"
   xmlns:inkscape="http://www.inkscape.org/namespaces/inkscape"
   xmlns:sodipodi="http://sodipodi.sourceforge.net/DTD/sodipodi-0.dtd"
   xmlns:xlink="http://www.w3.org/1999/xlink"
   xmlns="http://www.w3.org/2000/svg"
   xmlns:svg="http://www.w3.org/2000/svg"><sodipodi:namedview
     id="namedview7"
     pagecolor="#ffffff"
     bordercolor="#000000"
     borderopacity="0.25"
     inkscape:showpageshadow="false"
     inkscape:pageopacity="0.0"
     inkscape:pagecheckerboard="0"
     inkscape:deskcolor="#d1d1d1"
     inkscape:document-units="px"
     showgrid="true"
     inkscape:zoom="19.028871"
     inkscape:cx="-4.0727587"
     inkscape:cy="12.848897"
     inkscape:window-width="2160"
     inkscape:window-height="1335"
     inkscape:window-x="0"
     inkscape:window-y="0"
     inkscape:window-maximized="1"
     inkscape:current-layer="layer1"><inkscape:grid
       type="xygrid"
       id="grid3636" /></sodipodi:namedview><defs
     id="defs2"><linearGradient
       inkscape:collect="always"
       id="linearGradient4533"><stop
         style="stop-color:#1076ed;stop-opacity:1;"
         offset="0"
         id="stop4529" /><stop
         style="stop-color:#34affa;stop-opacity:1;"
         offset="1"
         id="stop4531" /></linearGradient><linearGradient
       inkscape:collect="always"
       id="linearGradient4111"><stop
         style="stop-color:#5c647d;stop-opacity:1;"
         offset="0"
         id="stop4107" /><stop
         style="stop-color:#727b97;stop-opacity:1;"
         offset="1"
         id="stop4109" /></linearGradient><style
       type="text/css"
       id="current-color-scheme">
      .ColorScheme-Text {
        color:#36404d;
      }
      </style><style
       type="text/css"
       id="current-color-scheme-67">
      .ColorScheme-Text {
        color:#122036;
      }
      </style><style
       type="text/css"
       id="current-color-scheme-7">
      .ColorScheme-Text {
        color:#122036;
      }
      </style><style
       type="text/css"
       id="current-color-scheme-5">
      .ColorScheme-Text {
        color:#122036;
      }
      </style><style
       type="text/css"
       id="current-color-scheme-6">
      .ColorScheme-Text {
        color:#122036;
      }
      </style><style
       type="text/css"
       id="current-color-scheme-1">
      .ColorScheme-Text {
        color:#122036;
      }
      </style><style
       id="current-color-scheme-10"
       type="text/css">
      .ColorScheme-Text {
        color:#122036;
      }
      </style><style
       id="current-color-scheme-5-7"
       type="text/css">
      .ColorScheme-Text {
        color:#122036;
      }
      </style><style
       id="current-color-scheme-1-2"
       type="text/css">
      .ColorScheme-Text {
        color:#122036;
      }
      </style><style
       type="text/css"
       id="current-color-scheme-10-9">
      .ColorScheme-Text {
        color:#122036;
      }
      </style><linearGradient
       inkscape:collect="always"
       xlink:href="#linearGradient4111"
       id="linearGradient4113"
       x1="3.175"
       y1="5.0270834"
       x2="3.175"
       y2="1.0583333"
       gradientUnits="userSpaceOnUse" /><linearGradient
       inkscape:collect="always"
       xlink:href="#linearGradient4533"
       id="linearGradient4535"
       x1="1.0583332"
       y1="4.1671877"
       x2="1.0583333"
       y2="2.6458333"
       gradientUnits="userSpaceOnUse"
       gradientTransform="matrix(1.5,0,0,1.5,3.0427085,-3.0427082)" /><linearGradient
       id="linearGradient4656"
       inkscape:collect="always"><stop
         id="stop4652"
         offset="0"
         style="stop-color:#e4e4e4;stop-opacity:1" /><stop
         id="stop4654"
         offset="1"
         style="stop-color:#fbfbfb;stop-opacity:1" /></linearGradient><linearGradient
       inkscape:collect="always"
       xlink:href="#linearGradient4656"
       id="linearGradient5475"
       gradientUnits="userSpaceOnUse"
       gradientTransform="matrix(0.26458333,0,0,0.26458333,-1.5874999,-75.313643)"
       x1="23"
       y1="293.64999"
       x2="23"
       y2="290.64999" /></defs><g
     inkscape:label="Capa 1"
     inkscape:groupmode="layer"
     id="layer1"><path
       id="rect1728"
       style="opacity:1;fill:#363c4d;stroke-width:0.529167;stroke-linecap:round;stroke-linejoin:round;stroke-miterlimit:1.8;paint-order:fill markers stroke;stop-color:#000000;fill-opacity:1"
       d="m 1.0583333,0.52916664 h 4.2333332 c 0.2931583,0 0.5291666,0.23600832 0.5291666,0.52916666 v 4.2333332 c 0,0.2931583 -0.2360083,0.5291666 -0.5291666,0.5291666 H 1.0583333 c -0.29315834,0 -0.52916666,-0.2360083 -0.52916666,-0.5291666 V 1.0583333 c 0,-0.29315834 0.23600832,-0.52916666 0.52916666,-0.52916666 z" /><path
       id="rect1728-7"
       style="fill:url(#linearGradient4113);stroke-width:0.529167;stroke-linecap:round;stroke-linejoin:round;stroke-miterlimit:1.8;paint-order:fill markers stroke;stop-color:#000000"
       d="m 1.0583333,0.79374999 h 4.2333341 c 0.1465792,0 0.2645834,0.11800416 0.2645834,0.26458331 v 4.2333332 c 0,0.1465791 -0.1180042,0.2645833 -0.2645834,0.2645833 H 1.0583333 c -0.14657915,0 -0.26458331,-0.1180042 -0.26458331,-0.2645833 V 1.0583333 c 0,-0.14657915 0.11800416,-0.26458331 0.26458331,-0.26458331 z" /><path
       id="rect1465"
       style="opacity:1;fill:#484f66;fill-opacity:1;stroke-width:0.529167;stroke-linecap:round;stroke-linejoin:round;stroke-miterlimit:1.8;paint-order:fill markers stroke;stop-color:#000000"
       d="M 2.2318994,1.8522105 C 1.87343,1.8612305 1.5874943,2.1529479 1.5874943,2.5136688 c 0,0.3664463 0.2950125,0.6614583 0.6614581,0.6614583 h 0.01705 0.379822 v 0.5291667 h -0.379822 -0.01705 c -0.3664456,0 -0.6614581,0.295012 -0.6614581,0.6614583 0,0.3607209 0.2859357,0.6524384 0.6444051,0.6614584 0.0057,1.43e-4 0.01135,0 0.01705,0 0.366449,0 0.661459,-0.2950119 0.661459,-0.6614584 0,-0.00573 1.43e-4,-0.011363 0,-0.017053 V 3.9688773 l 0.5291842,-6.36e-5 v 0.3798218 c -1.43e-4,0.00569 0,0.011323 0,0.017053 0,0.3664465 0.29501,0.6614584 0.661458,0.6614584 0.0057,0 0.01135,1.43e-4 0.01705,0 0.358471,-0.00902 0.644405,-0.3007375 0.644405,-0.6614584 0,-0.3664463 -0.295011,-0.6614583 -0.661458,-0.6614583 h -0.01705 -0.379822 V 3.1750635 h 0.379822 0.01705 c 0.366447,0 0.661458,-0.295012 0.661458,-0.6614583 0,-0.3607209 -0.285934,-0.6524386 -0.644405,-0.6614583 -0.0057,-1.43e-4 -0.01135,0 -0.01705,0 -0.366448,0 -0.661458,0.295012 -0.661458,0.6614583 0,0.00573 -1.43e-4,0.011363 0,0.017053 V 2.91048 l -0.5291842,6.36e-5 V 2.5307218 c 1.43e-4,-0.00569 0,-0.011327 0,-0.017053 0,-0.3664463 -0.295011,-0.6614583 -0.661459,-0.6614583 -0.0057,0 -0.01136,-1.432e-4 -0.01705,0 z m 0.0067,0.2645833 c 0.0034,-8.59e-5 0.0069,0 0.01033,0 0.219869,0 0.396875,0.1770069 0.396875,0.396875 0,0.00344 8.6e-5,0.00692 0,0.010335 v 0.38654 h -0.386539 c -0.0034,8.59e-5 -0.0069,0 -0.01034,0 -0.2198673,0 -0.3968747,-0.1770069 -0.3968747,-0.396875 0,-0.2164327 0.1714577,-0.3914622 0.3865397,-0.396875 z m 1.8521012,-6.36e-5 c 0.0034,-8.59e-5 0.0069,0 0.01033,0 0.0034,0 0.0069,-8.59e-5 0.01033,0 0.21511,0.00541 0.386568,0.1804423 0.386568,0.396875 0,0.2198681 -0.177007,0.396875 -0.396875,0.396875 -0.0034,0 -0.0069,8.59e-5 -0.01033,0 H 3.7041786 V 2.5239405 c 0,-0.00341 0,-0.0069 0,-0.010335 0,-0.2164327 0.171457,-0.3914622 0.38654,-0.396875 z m -1.1803072,1.0583969 0.5291842,-6.36e-5 v 0.5291667 l -0.5291842,6.36e-5 z m -0.671794,0.79375 c -0.00339,2.543e-4 0.0069,0 0.01033,0 0.0034,0 0.0069,-8.59e-5 0.01034,0 h 0.386539 v 0.3865397 c 0,0.00341 0,0.0069 0,0.010335 0,0.2198681 -0.177006,0.396875 -0.396875,0.396875 -0.0034,0 -0.0069,8.59e-5 -0.01033,0 -0.2150818,-0.00541 -0.3865397,-0.1804423 -0.3865397,-0.396875 0,-0.2164325 0.1714582,-0.3914622 0.3865397,-0.396875 z m 1.4655612,-6.36e-5 h 0.38654 c 0.0034,0 0.0069,0 0.01033,0 0.219868,0 0.396875,0.1770071 0.396875,0.396875 0,0.2164327 -0.171458,0.391465 -0.38654,0.396875 -0.0034,8.59e-5 -0.0069,0 -0.01033,0 -0.219869,0 -0.396875,-0.1770069 -0.396875,-0.396875 0,-0.00344 -8.6e-5,-0.00693 0,-0.010335 z"
       sodipodi:nodetypes="sssccccsssssccccsscssccccsssssccccsssssscccssssccsscccssccsccsssccsscssccsssssccscs" /><path
       id="rect1465-1"
       style="fill:#ffffff;fill-opacity:1;stroke-width:0.529167;stroke-linecap:round;stroke-linejoin:round;stroke-miterlimit:1.8;paint-order:fill markers stroke;stop-color:#000000"
       d="M 2.2319051,1.5875636 C 1.8734357,1.5965836 1.5875,1.888301 1.5875,2.2490219 c 0,0.3664463 0.2950125,0.6614583 0.6614581,0.6614583 h 0.01705 0.379822 v 0.5291667 h -0.379822 -0.01705 c -0.3664456,0 -0.6614581,0.295012 -0.6614581,0.6614583 0,0.3607209 0.2859357,0.6524384 0.6444051,0.6614584 0.0057,1.43e-4 0.01135,0 0.01705,0 0.366449,0 0.661459,-0.2950119 0.661459,-0.6614584 0,-0.00573 1.43e-4,-0.011363 0,-0.017053 V 3.7042304 l 0.5291842,-6.36e-5 v 0.3798218 c -1.43e-4,0.00569 0,0.011323 0,0.017053 0,0.3664465 0.29501,0.6614584 0.661458,0.6614584 0.0057,0 0.01135,1.43e-4 0.01705,0 0.358471,-0.00902 0.644405,-0.3007375 0.644405,-0.6614584 0,-0.3664463 -0.295011,-0.6614583 -0.661458,-0.6614583 h -0.01705 -0.379822 V 2.9104166 h 0.379822 0.01705 c 0.366447,0 0.661458,-0.295012 0.661458,-0.6614583 0,-0.3607209 -0.285934,-0.6524386 -0.644405,-0.6614583 -0.0057,-1.43e-4 -0.01135,0 -0.01705,0 -0.366448,0 -0.661458,0.295012 -0.661458,0.6614583 0,0.00573 -1.43e-4,0.011363 0,0.017053 v 0.3798218 l -0.5291842,6.36e-5 V 2.2660749 c 1.43e-4,-0.00569 0,-0.011327 0,-0.017053 0,-0.3664463 -0.295011,-0.6614583 -0.661459,-0.6614583 -0.0057,0 -0.01136,-1.432e-4 -0.01705,0 z m 0.0067,0.2645833 c 0.0034,-8.59e-5 0.0069,0 0.01033,0 0.219869,0 0.396875,0.1770069 0.396875,0.396875 0,0.00344 8.6e-5,0.00692 0,0.010335 v 0.38654 h -0.386539 c -0.0034,8.59e-5 -0.0069,0 -0.01034,0 -0.2198673,0 -0.3968747,-0.1770069 -0.3968747,-0.396875 0,-0.2164327 0.1714577,-0.3914622 0.3865397,-0.396875 z m 1.8521012,-6.36e-5 c 0.0034,-8.59e-5 0.0069,0 0.01033,0 0.0034,0 0.0069,-8.59e-5 0.01033,0 0.21511,0.00541 0.386568,0.1804423 0.386568,0.396875 0,0.2198681 -0.177007,0.396875 -0.396875,0.396875 -0.0034,0 -0.0069,8.59e-5 -0.01033,0 H 3.7041843 V 2.2592936 c 0,-0.00341 0,-0.0069 0,-0.010335 0,-0.2164327 0.171457,-0.3914622 0.38654,-0.396875 z m -1.1803072,1.0583969 0.5291842,-6.36e-5 v 0.5291667 l -0.5291842,6.36e-5 z m -0.671794,0.79375 c -0.00339,2.543e-4 0.0069,0 0.01033,0 0.0034,0 0.0069,-8.59e-5 0.01034,0 h 0.386539 v 0.3865397 c 0,0.00341 0,0.0069 0,0.010335 0,0.2198681 -0.177006,0.396875 -0.396875,0.396875 -0.0034,0 -0.0069,8.59e-5 -0.01033,0 -0.2150818,-0.00541 -0.3865397,-0.1804423 -0.3865397,-0.396875 0,-0.2164325 0.1714582,-0.3914622 0.3865397,-0.396875 z m 1.4655612,-6.36e-5 h 0.38654 c 0.0034,0 0.0069,0 0.01033,0 0.219868,0 0.396875,0.1770071 0.396875,0.396875 0,0.2164327 -0.171458,0.391465 -0.38654,0.396875 -0.0034,8.59e-5 -0.0069,0 -0.01033,0 -0.219869,0 -0.396875,-0.1770069 -0.396875,-0.396875 0,-0.00344 -8.6e-5,-0.00693 0,-0.010335 z"
       sodipodi:nodetypes="sssccccsssssccccsscssccccsssssccccsssssscccssssccsscccssccsccsssccsscssccsssssccscs" /><path
       id="rect2556-5"
       style="fill:#0c3996;fill-opacity:1;stroke-width:0.727605;stroke-linecap:round;stroke-linejoin:round;stroke-miterlimit:1.8;paint-order:fill markers stroke;stop-color:#000000"
       d="m 4.6302084,0.26458331 c 0.8061854,0 1.4552082,0.64902288 1.4552082,1.45520839 0,0.8061854 -0.6490228,1.4552082 -1.4552082,1.4552082 C 3.8240229,3.1749999 3.175,2.5259771 3.175,1.7197917 3.175,0.91360619 3.8240229,0.26458331 4.6302084,0.26458331 Z" /><path
       id="rect2556-5-5"
       style="fill:url(#linearGradient4535);stroke-width:0.595312;stroke-linecap:round;stroke-linejoin:round;stroke-miterlimit:1.8;paint-order:fill markers stroke;stop-color:#000000"
       d="m 4.6302084,0.52916666 c 0.6596063,0 1.1906249,0.53101874 1.1906249,1.19062504 0,0.6596063 -0.5310186,1.1906251 -1.1906249,1.1906251 -0.6596062,0 -1.190625,-0.5310188 -1.190625,-1.1906251 0,-0.6596063 0.5310188,-1.19062504 1.190625,-1.19062504 z" /><path
       sodipodi:nodetypes="ccccccc"
       style="fill:#0c3996;fill-opacity:1;stroke:none;stroke-width:0.132292px;stroke-linecap:butt;stroke-linejoin:miter;stroke-opacity:1"
       d="M 4.4979166,3.175 5.2916666,2.1166666 4.7625,1.5875 l 0,-0.79375001 -0.79375,1.05833331 0.5291666,0.5291666 z"
       id="path4614-7-4-0-6"
       inkscape:connector-curvature="0" /><path
       sodipodi:nodetypes="ccccccc"
       style="fill:url(#linearGradient5475);fill-opacity:1;stroke:none;stroke-width:0.132292px;stroke-linecap:butt;stroke-linejoin:miter;stroke-opacity:1"
       d="M 4.4979166,2.9104166 5.2916666,1.8520833 4.7625,1.3229167 4.7625,0.52916666 3.96875,1.5875 4.4979166,2.1166666 Z"
       id="path4614-7-4-0"
       inkscape:connector-curvature="0" /></g></svg>
