<?xml version="1.0" encoding="UTF-8" standalone="no"?>
<!-- Created with Inkscape (http://www.inkscape.org/) -->

<svg
   width="24"
   height="24"
   viewBox="0 0 6.3499999 6.35"
   version="1.1"
   id="svg5"
   inkscape:version="1.2 (dc2aedaf03, 2022-05-15)"
   sodipodi:docname="preferences-system-windows-behavior.svg"
   xml:space="preserve"
   xmlns:inkscape="http://www.inkscape.org/namespaces/inkscape"
   xmlns:sodipodi="http://sodipodi.sourceforge.net/DTD/sodipodi-0.dtd"
   xmlns:xlink="http://www.w3.org/1999/xlink"
   xmlns="http://www.w3.org/2000/svg"
   xmlns:svg="http://www.w3.org/2000/svg"><sodipodi:namedview
     id="namedview7"
     pagecolor="#ffffff"
     bordercolor="#000000"
     borderopacity="0.25"
     inkscape:showpageshadow="false"
     inkscape:pageopacity="0.0"
     inkscape:pagecheckerboard="0"
     inkscape:deskcolor="#d1d1d1"
     inkscape:document-units="px"
     showgrid="true"
     inkscape:zoom="107.64355"
     inkscape:cx="13.893076"
     inkscape:cy="16.094787"
     inkscape:window-width="2160"
     inkscape:window-height="1335"
     inkscape:window-x="0"
     inkscape:window-y="0"
     inkscape:window-maximized="1"
     inkscape:current-layer="layer1"><inkscape:grid
       type="xygrid"
       id="grid271" /></sodipodi:namedview><defs
     id="defs2"><linearGradient
       inkscape:collect="always"
       id="linearGradient3711"><stop
         style="stop-color:#495259;stop-opacity:1;"
         offset="0"
         id="stop3707" /><stop
         style="stop-color:#5d6971;stop-opacity:1;"
         offset="1"
         id="stop3709" /></linearGradient><linearGradient
       inkscape:collect="always"
       id="linearGradient2125"><stop
         style="stop-color:#cee3e3;stop-opacity:1;"
         offset="0"
         id="stop2121" /><stop
         style="stop-color:#eff5f5;stop-opacity:1;"
         offset="1"
         id="stop2123" /></linearGradient><style
       id="current-color-scheme"
       type="text/css">
      .ColorScheme-Text {
        color:#122036;
      }
      </style><style
       id="current-color-scheme-6"
       type="text/css">
      .ColorScheme-Text {
        color:#122036;
      }
      </style><linearGradient
       inkscape:collect="always"
       xlink:href="#linearGradient2125"
       id="linearGradient2127"
       x1="3.175"
       y1="5.0270834"
       x2="3.175"
       y2="0.79374999"
       gradientUnits="userSpaceOnUse"
       gradientTransform="translate(1.25e-8,0.26458333)" /><style
       type="text/css"
       id="current-color-scheme-67">
      .ColorScheme-Text {
        color:#36404d;
      }
      </style><style
       type="text/css"
       id="current-color-scheme-675">
      .ColorScheme-Text {
        color:#36404d;
      }
      </style><linearGradient
       inkscape:collect="always"
       xlink:href="#linearGradient3711"
       id="linearGradient2545"
       gradientUnits="userSpaceOnUse"
       x1="3.175"
       y1="2.1166666"
       x2="3.175"
       y2="0.52916664"
       gradientTransform="matrix(-1,0,0,1,6.3499998,3.625e-8)" /><linearGradient
       inkscape:collect="always"
       xlink:href="#linearGradient4533"
       id="linearGradient4535"
       x1="1.0583332"
       y1="4.1671877"
       x2="1.0583333"
       y2="2.6458333"
       gradientUnits="userSpaceOnUse"
       gradientTransform="matrix(1.3333334,0,0,1.3333334,1.7638889,-0.26458334)" /><linearGradient
       inkscape:collect="always"
       id="linearGradient4533"><stop
         style="stop-color:#4d575e;stop-opacity:1;"
         offset="0"
         id="stop4529" /><stop
         style="stop-color:#59646c;stop-opacity:1;"
         offset="1"
         id="stop4531" /></linearGradient><style
       type="text/css"
       id="current-color-scheme-3">
      .ColorScheme-Text {
        color:#36404d;
      }
      </style><style
       type="text/css"
       id="current-color-scheme-67-6">
      .ColorScheme-Text {
        color:#122036;
      }
      </style><style
       type="text/css"
       id="current-color-scheme-7">
      .ColorScheme-Text {
        color:#122036;
      }
      </style><style
       type="text/css"
       id="current-color-scheme-5">
      .ColorScheme-Text {
        color:#122036;
      }
      </style><style
       type="text/css"
       id="current-color-scheme-6-0">
      .ColorScheme-Text {
        color:#122036;
      }
      </style><style
       type="text/css"
       id="current-color-scheme-1">
      .ColorScheme-Text {
        color:#122036;
      }
      </style><style
       id="current-color-scheme-10"
       type="text/css">
      .ColorScheme-Text {
        color:#122036;
      }
      </style><style
       id="current-color-scheme-5-7"
       type="text/css">
      .ColorScheme-Text {
        color:#122036;
      }
      </style><style
       id="current-color-scheme-1-2"
       type="text/css">
      .ColorScheme-Text {
        color:#122036;
      }
      </style><style
       type="text/css"
       id="current-color-scheme-10-9">
      .ColorScheme-Text {
        color:#122036;
      }
      </style><style
       type="text/css"
       id="current-color-scheme-675-2">
      .ColorScheme-Text {
        color:#122036;
      }
      </style><style
       type="text/css"
       id="current-color-scheme-7-3">
      .ColorScheme-Text {
        color:#122036;
      }
      </style><style
       type="text/css"
       id="current-color-scheme-5-5">
      .ColorScheme-Text {
        color:#122036;
      }
      </style></defs><g
     inkscape:label="Capa 1"
     inkscape:groupmode="layer"
     id="layer1"><path
       id="rect1345"
       style="opacity:1;fill:#90a4ae;fill-opacity:1;stroke-width:0.529167;stroke-linecap:round;stroke-linejoin:round;stroke-miterlimit:1.8;paint-order:fill markers stroke;stop-color:#000000"
       d="m 0.52916663,0.52916645 5.29166657,2.3e-7 c 0.1465792,1e-8 0.2645833,0.11800417 0.2645833,0.26458331 V 5.5562498 c 0,0.1465792 -0.1180041,0.2645833 -0.2645833,0.2645833 l -5.29166658,-2e-7 c -0.14657918,0 -0.26458335,-0.1180041 -0.26458335,-0.2645833 l 10e-9,-4.76249981 c 0,-0.14657916 0.11800417,-0.26458334 0.26458335,-0.26458334 z"
       sodipodi:nodetypes="sssssssss" /><path
       id="rect1345-7"
       style="fill:url(#linearGradient2127);fill-opacity:1;stroke-width:0.529167;stroke-linecap:round;stroke-linejoin:round;stroke-miterlimit:1.8;paint-order:fill markers stroke;stop-color:#000000"
       d="M 0.52916665,0.79374999 H 5.8208333 V 5.55625 H 0.52916665 Z"
       sodipodi:nodetypes="ccccc" /><path
       id="rect3250"
       style="opacity:1;fill:#343b40;fill-opacity:1;stroke-width:0.529167;stroke-linecap:round;stroke-linejoin:round;stroke-miterlimit:1.8;paint-order:fill markers stroke;stop-color:#000000"
       d="m 0.52916666,0.52916666 c -0.14657873,0 -0.26458333,0.1180046 -0.26458333,0.26458333 l -2e-8,1.32291671 V 2.38125 H 0.52916664 2.6458333 2.9104166 3.175 5.8208333 6.0854166 V 2.1166667 l 0,-1.32291671 c 0,-0.14657871 -0.1180047,-0.26458333 -0.2645833,-0.26458333 H 3.175 2.9104166 2.6458333 Z"
       sodipodi:nodetypes="sscccccccccsscccs" /><path
       id="rect3252-2"
       style="fill:url(#linearGradient2545);fill-opacity:1;stroke-width:0.529167;stroke-linecap:round;stroke-linejoin:round;stroke-miterlimit:1.8;paint-order:fill markers stroke;stop-color:#000000"
       d="m 0.52916666,0.79374999 -2e-8,1.32291671 H 2.9104166 5.8208333 l 0,-1.32291671 H 2.9104166 Z"
       sodipodi:nodetypes="ccccccc" /><path
       id="rect2556-5"
       style="fill:#343b40;fill-opacity:1;stroke-width:0.661459;stroke-linecap:round;stroke-linejoin:round;stroke-miterlimit:1.8;paint-order:fill markers stroke;stop-color:#000000"
       d="m 3.1749999,2.6458334 c 0.7328959,0 1.3229166,0.5900209 1.3229166,1.3229168 0,0.7328958 -0.5900207,1.3229166 -1.3229166,1.3229166 -0.7328959,0 -1.3229167,-0.5900208 -1.3229167,-1.3229166 0,-0.7328959 0.5900208,-1.3229168 1.3229167,-1.3229168 z" /><path
       id="rect2556-5-5"
       style="fill:url(#linearGradient4535);stroke-width:0.529166;stroke-linecap:round;stroke-linejoin:round;stroke-miterlimit:1.8;paint-order:fill markers stroke;stop-color:#000000"
       d="m 3.175,2.9104166 c 0.5863167,0 1.0583332,0.4720166 1.0583332,1.0583334 0,0.5863167 -0.4720165,1.0583334 -1.0583332,1.0583334 -0.5863167,0 -1.0583334,-0.4720167 -1.0583334,-1.0583334 0,-0.5863168 0.4720167,-1.0583334 1.0583334,-1.0583334 z" /><path
       id="path6374-0-2"
       style="color:#000000;fill:#343b40;fill-opacity:1;stroke-width:0.500163;stroke-linecap:round;stroke-linejoin:round;stroke-miterlimit:1.8;paint-order:fill markers stroke"
       d="m 2.7786864,3.4393187 c -0.04647,1.055e-4 -0.089634,0.024461 -0.1134666,0.064357 L 2.2676993,4.1650914 c -0.024988,0.041813 -0.024988,0.094139 0,0.135953 l 0.3975209,0.6621905 c 0.024073,0.039521 0.06719,0.063684 0.1134665,0.063584 h 0.7940079 c 0.046279,1.009e-4 0.089393,-0.024061 0.113463,-0.063584 L 4.0826494,4.3010452 c 0.02498,-0.041813 0.02498,-0.094139 0,-0.135953 L 3.6861618,3.5036768 c -0.023832,-0.039897 -0.066988,-0.064252 -0.113463,-0.064357 z m 0.3900254,0.5293389 c 0.0023,-5.72e-5 0.0047,0 0.00698,0 0.1466265,0 0.2646687,0.1180422 0.2646687,0.2646695 0,0.1466266 -0.1180422,0.2646695 -0.2646687,0.2646695 -0.1466267,0 -0.2646691,-0.1180423 -0.2646691,-0.2646695 0,-0.1443357 0.1142565,-0.2610599 0.2576912,-0.2646695 z" /><path
       id="path6374-0"
       style="color:#000000;fill:#f3f4f4;fill-opacity:1;stroke-width:0.500163;stroke-linecap:round;stroke-linejoin:round;stroke-miterlimit:1.8;paint-order:fill markers stroke"
       d="m 2.7779946,3.1748277 c -0.04647,1.055e-4 -0.089634,0.024461 -0.1134666,0.064357 L 2.2670075,3.9006004 c -0.024988,0.041813 -0.024988,0.094139 0,0.135953 l 0.3975209,0.6621905 c 0.024073,0.039521 0.06719,0.063684 0.1134665,0.063584 h 0.7940079 c 0.046279,1.009e-4 0.089393,-0.024061 0.113463,-0.063584 L 4.0819576,4.0365542 c 0.02498,-0.041813 0.02498,-0.094139 0,-0.135953 L 3.68547,3.2391858 C 3.6616376,3.1992889 3.6184816,3.1749338 3.572007,3.1748288 Z M 3.16802,3.7041666 c 0.0023,-5.72e-5 0.0047,0 0.00698,0 0.1466265,0 0.2646687,0.1180422 0.2646687,0.2646695 0,0.1466266 -0.1180422,0.2646695 -0.2646687,0.2646695 -0.1466267,0 -0.2646691,-0.1180423 -0.2646691,-0.2646695 0,-0.1443357 0.1142565,-0.2610599 0.2576912,-0.2646695 z" /></g></svg>
