<?xml version="1.0" encoding="UTF-8" standalone="no"?>
<!-- Created with Inkscape (http://www.inkscape.org/) -->

<svg
   width="24"
   height="24"
   viewBox="0 0 6.3499999 6.35"
   version="1.1"
   id="svg5"
   inkscape:version="1.2 (dc2aedaf03, 2022-05-15)"
   sodipodi:docname="preferences-desktop-filter.svg"
   xml:space="preserve"
   xmlns:inkscape="http://www.inkscape.org/namespaces/inkscape"
   xmlns:sodipodi="http://sodipodi.sourceforge.net/DTD/sodipodi-0.dtd"
   xmlns:xlink="http://www.w3.org/1999/xlink"
   xmlns="http://www.w3.org/2000/svg"
   xmlns:svg="http://www.w3.org/2000/svg"><sodipodi:namedview
     id="namedview7"
     pagecolor="#ffffff"
     bordercolor="#000000"
     borderopacity="0.25"
     inkscape:showpageshadow="false"
     inkscape:pageopacity="0.0"
     inkscape:pagecheckerboard="0"
     inkscape:deskcolor="#d1d1d1"
     inkscape:document-units="px"
     showgrid="true"
     inkscape:zoom="38.057742"
     inkscape:cx="13.729138"
     inkscape:cy="12.021207"
     inkscape:window-width="2160"
     inkscape:window-height="1335"
     inkscape:window-x="0"
     inkscape:window-y="0"
     inkscape:window-maximized="1"
     inkscape:current-layer="layer1"><inkscape:grid
       type="xygrid"
       id="grid3636" /></sodipodi:namedview><defs
     id="defs2"><linearGradient
       inkscape:collect="always"
       id="linearGradient3408"><stop
         style="stop-color:#dfe5e8;stop-opacity:1;"
         offset="0"
         id="stop3404" /><stop
         style="stop-color:#a5b7c0;stop-opacity:1;"
         offset="1"
         id="stop3406" /></linearGradient><linearGradient
       inkscape:collect="always"
       id="linearGradient2365"><stop
         style="stop-color:#cfd8dc;stop-opacity:1;"
         offset="0"
         id="stop2361" /><stop
         style="stop-color:#eaeef0;stop-opacity:1;"
         offset="1"
         id="stop2363" /></linearGradient><linearGradient
       inkscape:collect="always"
       id="linearGradient1736"><stop
         style="stop-color:#cfd8dc;stop-opacity:1;"
         offset="0"
         id="stop1732" /><stop
         style="stop-color:#eceff1;stop-opacity:1;"
         offset="1"
         id="stop1734" /></linearGradient><style
       type="text/css"
       id="current-color-scheme">
      .ColorScheme-Text {
        color:#36404d;
      }
      </style><style
       type="text/css"
       id="current-color-scheme-67">
      .ColorScheme-Text {
        color:#122036;
      }
      </style><style
       type="text/css"
       id="current-color-scheme-7">
      .ColorScheme-Text {
        color:#122036;
      }
      </style><style
       type="text/css"
       id="current-color-scheme-5">
      .ColorScheme-Text {
        color:#122036;
      }
      </style><style
       type="text/css"
       id="current-color-scheme-6">
      .ColorScheme-Text {
        color:#122036;
      }
      </style><style
       type="text/css"
       id="current-color-scheme-1">
      .ColorScheme-Text {
        color:#122036;
      }
      </style><style
       id="current-color-scheme-10"
       type="text/css">
      .ColorScheme-Text {
        color:#122036;
      }
      </style><style
       id="current-color-scheme-5-7"
       type="text/css">
      .ColorScheme-Text {
        color:#122036;
      }
      </style><style
       id="current-color-scheme-1-2"
       type="text/css">
      .ColorScheme-Text {
        color:#122036;
      }
      </style><style
       type="text/css"
       id="current-color-scheme-10-9">
      .ColorScheme-Text {
        color:#122036;
      }
      </style><style
       type="text/css"
       id="current-color-scheme-3">
      .ColorScheme-Text {
        color:#122036;
      }
      </style><style
       type="text/css"
       id="current-color-scheme-7-6">
      .ColorScheme-Text {
        color:#122036;
      }
      </style><style
       type="text/css"
       id="current-color-scheme-5-75">
      .ColorScheme-Text {
        color:#122036;
      }
      </style><clipPath
       clipPathUnits="userSpaceOnUse"
       id="clipPath920"><rect
         style="opacity:1;fill:#90a4ae;fill-opacity:1;stroke:none;stroke-width:2;stroke-linecap:round;stroke-linejoin:round;stroke-miterlimit:4;stroke-dasharray:none;stroke-dashoffset:0;stroke-opacity:1"
         id="rect922"
         width="8"
         height="8"
         x="40"
         y="1030.3622"
         ry="1" /></clipPath><linearGradient
       inkscape:collect="always"
       xlink:href="#linearGradient1736"
       id="linearGradient1738"
       x1="3.175"
       y1="3.96875"
       x2="3.175"
       y2="2.6458333"
       gradientUnits="userSpaceOnUse" /><linearGradient
       inkscape:collect="always"
       xlink:href="#linearGradient2365"
       id="linearGradient2367"
       x1="3.175"
       y1="5.2916665"
       x2="3.175"
       y2="4.4979167"
       gradientUnits="userSpaceOnUse" /><linearGradient
       inkscape:collect="always"
       xlink:href="#linearGradient3408"
       id="linearGradient3410"
       x1="3.175"
       y1="2.1166666"
       x2="3.175"
       y2="1.0583333"
       gradientUnits="userSpaceOnUse" /></defs><g
     inkscape:label="Capa 1"
     inkscape:groupmode="layer"
     id="layer1"><g
       id="rect1444"><path
         style="color:#000000;fill:#607d8b;stroke-linecap:round;stroke-linejoin:round;stroke-miterlimit:1.8;-inkscape-stroke:none;paint-order:fill markers stroke"
         d="m 3.1757813,3.4394531 c -0.2885816,0 -0.5292969,0.2407153 -0.5292969,0.5292969 v 1.3222656 c 0,0.2885816 0.2407153,0.5292969 0.5292969,0.5292969 0.2885815,0 0.5292968,-0.2407153 0.5292968,-0.5292969 V 3.96875 c 0,-0.2885816 -0.2407153,-0.5292969 -0.5292968,-0.5292969 z"
         id="path1615" /><path
         style="color:#000000;fill:url(#linearGradient2367);stroke-width:0.529167;stroke-linecap:round;stroke-linejoin:round;stroke-miterlimit:1.8;-inkscape-stroke:none;paint-order:fill markers stroke;fill-opacity:1"
         d="m 3.1749999,3.7041667 c 0.1465792,0 0.2645833,0.1180041 0.2645833,0.2645833 v 1.3229167 c 0,0.1465791 -0.1180041,0.2645833 -0.2645833,0.2645833 -0.1465791,0 -0.2645833,-0.1180042 -0.2645833,-0.2645833 V 3.96875 c 0,-0.1465792 0.1180042,-0.2645833 0.2645833,-0.2645833 z"
         id="path1613" /></g><g
       id="rect1623" /><g
       id="path1701"><path
         style="color:#000000;fill:#607d8b;stroke-linecap:round;stroke-linejoin:round;stroke-miterlimit:1.8;-inkscape-stroke:none;paint-order:fill markers stroke"
         d="M 1.0585937,1.3222656 A 0.26460996,0.26460996 0 0 0 0.79296875,1.5878906 V 2.9101563 A 0.26460996,0.26460996 0 0 0 0.92773438,3.140625 L 2.7792969,4.1992187 a 0.26460996,0.26460996 0 0 0 0.1308594,0.033203 H 3.4394531 A 0.26460996,0.26460996 0 0 0 3.5703125,4.1992187 L 5.4238281,3.140625 A 0.26460996,0.26460996 0 0 0 5.5566406,2.9101563 V 1.5878906 a 0.26460996,0.26460996 0 0 0 -0.265625,-0.265625 z m 0.2636719,0.5292969 h 3.7050781 v 0.90625 L 3.3691406,3.7050781 H 2.9804688 L 1.3222656,2.7578125 Z"
         id="path1707" /><path
         style="color:#000000;fill:url(#linearGradient1738);stroke-width:0.529167;stroke-linecap:round;stroke-linejoin:round;stroke-miterlimit:1.8;-inkscape-stroke:none;paint-order:fill markers stroke;fill-opacity:1"
         d="M 1.0583333,1.5875 V 2.9104166 L 2.9104166,3.96875 H 3.4395833 L 5.2916666,2.9104166 V 1.5875 Z"
         id="path1705" /></g><g
       id="path1597"><path
         style="color:#000000;fill:#607d8b;stroke-linecap:round;stroke-linejoin:round;stroke-miterlimit:1.8;-inkscape-stroke:none;paint-order:fill markers stroke"
         d="m 3.1757813,0.52148437 c -0.6099327,0 -1.1637416,0.0898725 -1.5878907,0.24804688 C 1.3758161,0.84861843 1.1943521,0.94372813 1.0507812,1.0703125 0.90721038,1.1968969 0.79296875,1.3730523 0.79296875,1.5800781 c 0,0.2070259 0.11424163,0.3831813 0.25781245,0.5097657 0.1435709,0.1265843 0.3250349,0.221694 0.5371094,0.3007812 0.4241491,0.1581744 0.977958,0.2480469 1.5878907,0.2480469 0.6099326,0 1.1617884,-0.089872 1.5859374,-0.2480469 C 4.9737933,2.3115378 5.1552573,2.2164281 5.2988281,2.0898438 5.442399,1.9632594 5.5566406,1.787104 5.5566406,1.5800781 5.5566406,1.3730523 5.442399,1.1968969 5.2988281,1.0703125 5.1552573,0.94372813 4.9737933,0.84861843 4.7617187,0.76953125 4.3375697,0.6113569 3.7857139,0.52148438 3.1757813,0.52148437 Z m 0,0.54296873 c 0.5551941,0 1.0570908,0.088277 1.3964843,0.2148438 0.1696968,0.063284 0.2972503,0.1375561 0.3671875,0.1992187 0.069937,0.061663 0.074219,0.091338 0.074219,0.1015625 0,0.010225 -0.00428,0.041853 -0.074219,0.1035156 -0.069937,0.061663 -0.1974907,0.1359352 -0.3671875,0.1992188 -0.3393935,0.1265672 -0.8412902,0.2128906 -1.3964843,0.2128906 -0.5551942,0 -1.059044,-0.086323 -1.3984376,-0.2128906 C 1.607647,1.8195289 1.4800935,1.7452564 1.4101562,1.6835937 1.340219,1.6219311 1.3378906,1.5903028 1.3378906,1.5800781 c 0,-0.010225 0.00233,-0.0399 0.072266,-0.1015625 C 1.4800935,1.416853 1.607647,1.3425805 1.7773437,1.2792969 2.1167373,1.1527297 2.6205871,1.0644531 3.1757813,1.0644531 Z"
         id="path1621" /><path
         style="color:#000000;fill:url(#linearGradient3410);stroke-width:0.543198;stroke-linecap:round;stroke-linejoin:round;stroke-miterlimit:1.8;-inkscape-stroke:none;paint-order:fill markers stroke;fill-opacity:1"
         d="M 5.2846508,1.5804844 A 2.1096509,0.78673434 0 0 1 3.175,2.3672187 2.1096509,0.78673434 0 0 1 1.0653491,1.5804844 2.1096509,0.78673434 0 0 1 3.175,0.79375005 2.1096509,0.78673434 0 0 1 5.2846508,1.5804844 Z"
         id="path1619" /></g></g></svg>
