<?xml version="1.0" encoding="UTF-8" standalone="no"?>
<!-- Created with Inkscape (http://www.inkscape.org/) -->

<svg
   width="24"
   height="24"
   viewBox="0 0 6.3499999 6.35"
   version="1.1"
   id="svg5"
   inkscape:version="1.2 (dc2aedaf03, 2022-05-15)"
   sodipodi:docname="preferences-system-network-share-windows.svg"
   xml:space="preserve"
   xmlns:inkscape="http://www.inkscape.org/namespaces/inkscape"
   xmlns:sodipodi="http://sodipodi.sourceforge.net/DTD/sodipodi-0.dtd"
   xmlns:xlink="http://www.w3.org/1999/xlink"
   xmlns="http://www.w3.org/2000/svg"
   xmlns:svg="http://www.w3.org/2000/svg"><sodipodi:namedview
     id="namedview7"
     pagecolor="#ffffff"
     bordercolor="#000000"
     borderopacity="0.25"
     inkscape:showpageshadow="false"
     inkscape:pageopacity="0.0"
     inkscape:pagecheckerboard="0"
     inkscape:deskcolor="#d1d1d1"
     inkscape:document-units="px"
     showgrid="true"
     inkscape:zoom="26.910887"
     inkscape:cx="16.33168"
     inkscape:cy="15.514167"
     inkscape:window-width="2160"
     inkscape:window-height="1335"
     inkscape:window-x="0"
     inkscape:window-y="0"
     inkscape:window-maximized="1"
     inkscape:current-layer="layer1-7"><inkscape:grid
       type="xygrid"
       id="grid3636" /></sodipodi:namedview><defs
     id="defs2"><linearGradient
       inkscape:collect="always"
       id="linearGradient5245"><stop
         style="stop-color:#d1e4e4;stop-opacity:1;"
         offset="0"
         id="stop5241" /><stop
         style="stop-color:#fbfbfb;stop-opacity:1;"
         offset="1"
         id="stop5243" /></linearGradient><style
       type="text/css"
       id="current-color-scheme">
      .ColorScheme-Text {
        color:#36404d;
      }
      </style><style
       type="text/css"
       id="current-color-scheme-67">
      .ColorScheme-Text {
        color:#122036;
      }
      </style><style
       type="text/css"
       id="current-color-scheme-7">
      .ColorScheme-Text {
        color:#122036;
      }
      </style><style
       type="text/css"
       id="current-color-scheme-5">
      .ColorScheme-Text {
        color:#122036;
      }
      </style><style
       type="text/css"
       id="current-color-scheme-6">
      .ColorScheme-Text {
        color:#122036;
      }
      </style><style
       type="text/css"
       id="current-color-scheme-1">
      .ColorScheme-Text {
        color:#122036;
      }
      </style><style
       id="current-color-scheme-10"
       type="text/css">
      .ColorScheme-Text {
        color:#122036;
      }
      </style><style
       id="current-color-scheme-5-7"
       type="text/css">
      .ColorScheme-Text {
        color:#122036;
      }
      </style><style
       id="current-color-scheme-1-2"
       type="text/css">
      .ColorScheme-Text {
        color:#122036;
      }
      </style><style
       type="text/css"
       id="current-color-scheme-10-9">
      .ColorScheme-Text {
        color:#122036;
      }
      </style><style
       type="text/css"
       id="current-color-scheme-3">
      .ColorScheme-Text {
        color:#36404d;
      }
      </style><style
       type="text/css"
       id="current-color-scheme-67-5">
      .ColorScheme-Text {
        color:#122036;
      }
      </style><style
       type="text/css"
       id="current-color-scheme-7-6">
      .ColorScheme-Text {
        color:#122036;
      }
      </style><style
       type="text/css"
       id="current-color-scheme-5-2">
      .ColorScheme-Text {
        color:#122036;
      }
      </style><style
       type="text/css"
       id="current-color-scheme-6-9">
      .ColorScheme-Text {
        color:#122036;
      }
      </style><style
       type="text/css"
       id="current-color-scheme-1-1">
      .ColorScheme-Text {
        color:#122036;
      }
      </style><style
       id="current-color-scheme-10-2"
       type="text/css">
      .ColorScheme-Text {
        color:#122036;
      }
      </style><style
       id="current-color-scheme-5-7-7"
       type="text/css">
      .ColorScheme-Text {
        color:#122036;
      }
      </style><style
       id="current-color-scheme-1-2-0"
       type="text/css">
      .ColorScheme-Text {
        color:#122036;
      }
      </style><style
       type="text/css"
       id="current-color-scheme-10-9-9">
      .ColorScheme-Text {
        color:#122036;
      }
      </style><style
       type="text/css"
       id="current-color-scheme-18">
      .ColorScheme-Text {
        color:#36404d;
      }
      </style><style
       id="current-color-scheme-6-7"
       type="text/css">
      .ColorScheme-Text {
        color:#36404d;
      }
      </style><style
       id="current-color-scheme-62"
       type="text/css">
      .ColorScheme-Text {
        color:#36404d;
      }
      </style><style
       id="current-color-scheme-0"
       type="text/css">
      .ColorScheme-Text {
        color:#122036;
      }
      </style><style
       type="text/css"
       id="current-color-scheme-1-92">
      .ColorScheme-Text {
        color:#122036;
      }
      </style><style
       type="text/css"
       id="current-color-scheme-3-0">
      .ColorScheme-Text {
        color:#122036;
      }
      </style><style
       id="current-color-scheme-1-7"
       type="text/css">
      .ColorScheme-Text {
        color:#122036;
      }
      </style><style
       id="current-color-scheme-06"
       type="text/css">
      .ColorScheme-Text {
        color:#122036;
      }
      </style><style
       type="text/css"
       id="current-color-scheme-1-1-2">
      .ColorScheme-Text {
        color:#122036;
      }
      </style><style
       type="text/css"
       id="current-color-scheme-56">
      .ColorScheme-Text {
        color:#36404d;
      }
      </style><style
       type="text/css"
       id="current-color-scheme-0-2">
      .ColorScheme-Text {
        color:#122036;
      }
      </style><style
       id="current-color-scheme-1-9"
       type="text/css">
      .ColorScheme-Text {
        color:#122036;
      }
      </style><style
       id="current-color-scheme-3-1"
       type="text/css">
      .ColorScheme-Text {
        color:#122036;
      }
      </style><style
       type="text/css"
       id="current-color-scheme-1-7-2">
      .ColorScheme-Text {
        color:#122036;
      }
      </style><style
       type="text/css"
       id="current-color-scheme-06-7">
      .ColorScheme-Text {
        color:#122036;
      }
      </style><style
       id="current-color-scheme-1-1-0"
       type="text/css">
      .ColorScheme-Text {
        color:#122036;
      }
      </style><style
       id="current-color-scheme-5-37"
       type="text/css">
      .ColorScheme-Text {
        color:#36404d;
      }
      </style><style
       type="text/css"
       id="current-color-scheme-3-6">
      .ColorScheme-Text {
        color:#36404d;
      }
      </style><style
       id="current-color-scheme-9"
       type="text/css">
      .ColorScheme-Text {
        color:#36404d;
      }
      </style><style
       type="text/css"
       id="current-color-scheme-4">
      .ColorScheme-Text {
        color:#122036;
      }
      </style><style
       id="current-color-scheme-7-5"
       type="text/css">
      .ColorScheme-Text {
        color:#36404d;
      }
      </style><style
       type="text/css"
       id="current-color-scheme-91">
      .ColorScheme-Text {
        color:#122036;
      }
      </style><style
       type="text/css"
       id="current-color-scheme-7-27">
      .ColorScheme-Text {
        color:#122036;
      }
      </style><style
       type="text/css"
       id="current-color-scheme-5-09">
      .ColorScheme-Text {
        color:#122036;
      }
      </style><style
       type="text/css"
       id="current-color-scheme-0-3">
      .ColorScheme-Text {
        color:#122036;
      }
      </style><style
       type="text/css"
       id="current-color-scheme-7-9">
      .ColorScheme-Text {
        color:#122036;
      }
      </style><style
       type="text/css"
       id="current-color-scheme-5-3">
      .ColorScheme-Text {
        color:#122036;
      }
      </style><style
       type="text/css"
       id="current-color-scheme-79">
      .ColorScheme-Text {
        color:#122036;
      }
      </style><style
       type="text/css"
       id="current-color-scheme-7-2">
      .ColorScheme-Text {
        color:#122036;
      }
      </style><style
       type="text/css"
       id="current-color-scheme-5-0">
      .ColorScheme-Text {
        color:#122036;
      }
      </style><style
       type="text/css"
       id="current-color-scheme-062">
      .ColorScheme-Text {
        color:#122036;
      }
      </style><style
       id="current-color-scheme-1-6"
       type="text/css">
      .ColorScheme-Text {
        color:#122036;
      }
      </style><style
       type="text/css"
       id="current-color-scheme-37">
      .ColorScheme-Text {
        color:#122036;
      }
      </style><style
       id="current-color-scheme-1-5"
       type="text/css">
      .ColorScheme-Text {
        color:#122036;
      }
      </style><style
       type="text/css"
       id="current-color-scheme-19">
      .ColorScheme-Text {
        color:#122036;
      }
      </style><style
       id="current-color-scheme-5-4"
       type="text/css">
      .ColorScheme-Text {
        color:#122036;
      }
      </style><style
       id="current-color-scheme-2"
       type="text/css">
      .ColorScheme-Text {
        color:#122036;
      }
      </style><style
       id="current-color-scheme-1-78"
       type="text/css">
      .ColorScheme-Text {
        color:#122036;
      }
      </style><style
       type="text/css"
       id="current-color-scheme-10-92">
      .ColorScheme-Text {
        color:#122036;
      }
      </style><style
       id="current-color-scheme-0-4"
       type="text/css">
      .ColorScheme-Text {
        color:#122036;
      }
      </style><style
       id="current-color-scheme-35"
       type="text/css">
      .ColorScheme-Text {
        color:#36404d;
      }
      </style><style
       type="text/css"
       id="current-color-scheme-4-6">
      .ColorScheme-Text {
        color:#122036;
      }
      </style><style
       type="text/css"
       id="current-color-scheme-6-2">
      .ColorScheme-Text {
        color:#122036;
      }
      </style><linearGradient
       inkscape:collect="always"
       xlink:href="#linearGradient5245"
       id="linearGradient5247"
       x1="3.4395833"
       y1="5.2916665"
       x2="3.175"
       y2="1.0583333"
       gradientUnits="userSpaceOnUse" /><style
       id="current-color-scheme-675"
       type="text/css">
      .ColorScheme-Text {
        color:#122036;
      }
      </style><style
       id="current-color-scheme-629"
       type="text/css">
      .ColorScheme-Text {
        color:#36404d;
      }
      </style><style
       type="text/css"
       id="current-color-scheme-3-12">
      .ColorScheme-Text {
        color:#122036;
      }
      </style></defs><g
     inkscape:label="Capa 1"
     inkscape:groupmode="layer"
     id="layer1"><g
       inkscape:label="Capa 1"
       id="layer1-3"><path
         id="rect15701"
         style="opacity:1;fill:#1466b2;fill-opacity:1;stroke-width:0.529167;stroke-linecap:round;stroke-linejoin:round;stroke-miterlimit:1.8;paint-order:fill markers stroke;stop-color:#000000"
         d="m 3.1749999,0.52916664 c 1.4657916,0 2.6458332,1.18004166 2.6458332,2.64583326 0,1.4657916 -1.1800416,2.6458332 -2.6458332,2.6458332 -1.4657916,0 -2.64583326,-1.1800416 -2.64583326,-2.6458332 0,-1.4657916 1.18004166,-2.64583326 2.64583326,-2.64583326 z" /><path
         id="rect15701-2"
         style="fill:url(#linearGradient5247);stroke-width:0.47625;stroke-linecap:round;stroke-linejoin:round;stroke-miterlimit:1.8;paint-order:fill markers stroke;stop-color:#000000;fill-opacity:1"
         d="m 3.175,0.79374999 c 1.3192124,0 2.3812499,1.06203741 2.3812499,2.38124991 0,1.3192124 -1.0620375,2.3812499 -2.3812499,2.3812499 -1.3192125,0 -2.38124995,-1.0620375 -2.38124995,-2.3812499 0,-1.3192125 1.06203745,-2.38124991 2.38124995,-2.38124991 z" /><path
         id="path1450"
         style="opacity:1;fill:#90a4ae;fill-opacity:1;stroke-width:0.793748;stroke-linecap:round;stroke-linejoin:round;stroke-miterlimit:1.8;paint-order:fill markers stroke;stop-color:#000000"
         d="M 2.9042155 0.66197509 A 0.1322915 0.1322915 0 0 0 2.8127482 0.70486653 C 2.6163435 0.91887698 2.4498892 1.1262125 2.3104533 1.3275675 A 0.39687499 0.39687499 0 0 1 2.3099365 1.3275675 A 0.39687499 0.39687499 0 0 0 2.2489583 1.3229167 A 0.39687499 0.39687499 0 0 0 1.8520833 1.7197917 A 0.39687499 0.39687499 0 0 0 1.9440674 1.9735229 C 1.841741 2.2062192 1.7758748 2.4302743 1.7420125 2.6463501 A 0.39687499 0.39687499 0 0 0 1.7197917 2.6458333 A 0.39687499 0.39687499 0 0 0 1.3999145 2.8080973 C 1.2193742 2.7263599 1.0390688 2.6341873 0.85937906 2.5311116 A 0.1322915 0.1322915 0 0 0 0.75964355 2.5176758 A 0.1322915 0.1322915 0 0 0 0.67954508 2.5802042 A 0.1322915 0.1322915 0 0 0 0.72863769 2.7595215 C 0.92611162 2.8727987 1.1244552 2.9743447 1.3234334 3.0633789 A 0.39687499 0.39687499 0 0 0 1.7197917 3.4395833 A 0.39687499 0.39687499 0 0 0 1.7559652 3.4375162 C 1.7612369 3.4644253 1.7673412 3.4909638 1.7735351 3.5176147 C 1.8495777 3.8448067 1.9894601 4.1497223 2.1652425 4.440039 A 0.39687499 0.39687499 0 0 0 2.1171834 4.619873 C 1.9110235 4.6985659 1.7107506 4.7952248 1.5177368 4.9139119 A 0.1322915 0.1322915 0 0 0 1.4748454 5.0958129 A 0.1322915 0.1322915 0 0 0 1.6562296 5.1407714 C 1.8303533 5.0337003 2.0119309 4.9450259 2.1998657 4.8725708 A 0.39687499 0.39687499 0 0 0 2.5135416 5.0270833 A 0.39687499 0.39687499 0 0 0 2.5709025 5.0224324 C 2.7329011 5.2324713 2.9040966 5.4373716 3.0721639 5.6404825 A 0.1322915 0.1322915 0 0 0 3.2597493 5.6580525 A 0.1322915 0.1322915 0 0 0 3.2773193 5.4725341 C 3.1179047 5.2798799 2.9588194 5.087985 2.8091308 4.8947916 A 0.39687499 0.39687499 0 0 0 2.9073161 4.6751668 C 3.3692301 4.5882911 3.8583602 4.567573 4.3630411 4.5795654 C 4.4460649 4.754524 4.5417173 4.9276192 4.6503621 5.09788 A 0.1322915 0.1322915 0 0 0 4.8338134 5.1387044 A 0.1322915 0.1322915 0 0 0 4.8730875 4.9552531 C 4.7959901 4.8344311 4.7262198 4.71242 4.6627644 4.5899007 C 4.8671044 4.5993858 5.073533 4.6127988 5.2813313 4.628658 A 0.1322915 0.1322915 0 0 0 5.4239583 4.5077352 A 0.1322915 0.1322915 0 0 0 5.3009684 4.3651082 C 5.044675 4.3455479 4.7884022 4.3291259 4.5340901 4.3196329 C 4.4379523 4.0969464 4.3639345 3.8712915 4.3123982 3.6431884 A 0.39687499 0.39687499 0 0 0 4.4503743 3.4943603 C 4.8898228 3.4056792 5.289516 3.2461969 5.6291137 3.021521 A 0.1322915 0.1322915 0 0 0 5.665804 2.8380696 A 0.1322915 0.1322915 0 0 0 5.4823527 2.8008626 C 5.1975756 2.9892695 4.8605398 3.1285902 4.4865478 3.2132405 A 0.39687499 0.39687499 0 0 0 4.2245483 2.9300537 C 4.2113354 2.3404809 4.3420415 1.7344423 4.6193562 1.11156 A 0.1322915 0.1322915 0 0 0 4.5506266 0.93741047 A 0.1322915 0.1322915 0 0 0 4.3769938 1.0040731 C 4.0863265 1.6569465 3.9500096 2.3037919 3.9646159 2.9347046 A 0.39687499 0.39687499 0 0 0 3.7041666 3.3072916 C 3.2042166 3.3191925 2.6655547 3.2462889 2.1151164 3.078365 A 0.39687499 0.39687499 0 0 0 2.1166666 3.0427083 A 0.39687499 0.39687499 0 0 0 1.9905762 2.7522868 C 2.0147971 2.5478276 2.0716681 2.3340859 2.1683431 2.1083984 A 0.39687499 0.39687499 0 0 0 2.2489583 2.1166666 A 0.39687499 0.39687499 0 0 0 2.6458333 1.7197917 A 0.39687499 0.39687499 0 0 0 2.5424804 1.4526245 C 2.6714392 1.2705318 2.8256288 1.0808822 3.0075683 0.88263346 A 0.1322915 0.1322915 0 0 0 2.9998169 0.69556477 A 0.1322915 0.1322915 0 0 0 2.9042155 0.66197509 z M 2.004012 3.3212443 C 2.6262633 3.5164396 3.2379428 3.5970141 3.8054524 3.571875 A 0.39687499 0.39687499 0 0 0 3.8059692 3.5723917 A 0.39687499 0.39687499 0 0 0 4.058667 3.7015828 C 4.1047506 3.9075429 4.1673509 4.1114055 4.2467692 4.3123982 C 3.9342321 4.3081238 3.6250535 4.3168315 3.3222778 4.3475382 C 3.1622206 4.3637708 3.0034001 4.3861536 2.8473714 4.4157511 A 0.39687499 0.39687499 0 0 0 2.5135416 4.2333333 A 0.39687499 0.39687499 0 0 0 2.3688476 4.260205 C 2.2151703 4.0008571 2.0956206 3.735543 2.0314005 3.4592204 C 2.020791 3.4135703 2.0117052 3.3676846 2.004012 3.3212443 z " /><path
         id="rect15701-28"
         style="fill:#90a4ae;fill-opacity:1;stroke-width:0.529167;stroke-linecap:round;stroke-linejoin:round;stroke-miterlimit:1.8;paint-order:fill markers stroke;stop-color:#000000"
         d="m 3.175,0.52916667 c -1.4657902,0 -2.64583341,1.18004323 -2.64583341,2.64583333 0,1.4657901 1.18004321,2.6458333 2.64583341,2.6458333 1.4657901,0 2.6458333,-1.1800432 2.6458333,-2.6458333 0,-1.4657901 -1.1800432,-2.64583333 -2.6458333,-2.64583333 z m 0,0.2645833 c 1.319211,0 2.3812499,1.06203883 2.3812499,2.38125003 0,1.3192111 -1.0620389,2.38125 -2.3812499,2.38125 -1.3192112,0 -2.38125001,-1.0620389 -2.38125001,-2.38125 0,-1.3192112 1.06203881,-2.38125003 2.38125001,-2.38125003 z" /><g
         id="g58460-3-0-7"
         transform="matrix(0.26458333,0,0,0.26458333,-60.589583,-13.758333)"><g
           inkscape:label="Capa 1"
           id="layer1-7"
           transform="matrix(3.7795276,0,0,3.7795276,248.64417,-1050.1043)"><g
             transform="translate(0.79596568,287.27765)"
             id="g2612"><path
               inkscape:connector-curvature="0"
               style="fill:#cc0120;fill-opacity:1;stroke:none;stroke-width:0.529167;stroke-linecap:round;stroke-linejoin:round;stroke-miterlimit:4;stroke-dasharray:none;stroke-opacity:1"
               d="m -4.1414018,6.1728584 h 1.3229166 V 7.495775 h -1.3229166 z"
               id="rect1875" /><path
               inkscape:connector-curvature="0"
               style="fill:#02814c;fill-opacity:1;stroke:none;stroke-width:0.529167;stroke-linecap:round;stroke-linejoin:round;stroke-miterlimit:4;stroke-dasharray:none;stroke-opacity:1"
               d="m -2.8184852,6.1728584 h 1.3229167 V 7.495775 h -1.3229167 z"
               id="rect1875-1" /><path
               inkscape:connector-curvature="0"
               style="fill:#1973da;fill-opacity:1;stroke:none;stroke-width:0.529167;stroke-linecap:round;stroke-linejoin:round;stroke-miterlimit:4;stroke-dasharray:none;stroke-opacity:1"
               d="m -4.1414018,7.495775 h 1.3229166 v 1.3229167 h -1.3229166 z"
               id="rect1875-5" /><path
               inkscape:connector-curvature="0"
               style="fill:#ff9a0a;fill-opacity:1;stroke:none;stroke-width:0.529167;stroke-linecap:round;stroke-linejoin:round;stroke-miterlimit:4;stroke-dasharray:none;stroke-opacity:1"
               d="m -2.8184852,7.495775 h 1.3229167 v 1.3229167 h -1.3229167 z"
               id="rect1875-1-9" /><path
               inkscape:connector-curvature="0"
               style="fill:#fb3854;fill-opacity:1;stroke:none;stroke-width:0.529167;stroke-linecap:round;stroke-linejoin:round;stroke-miterlimit:4;stroke-dasharray:none;stroke-opacity:1"
               d="m -3.8768185,6.4374417 h 0.79375 v 0.79375 h -0.79375 z"
               id="rect1875-1-9-7" /><path
               inkscape:connector-curvature="0"
               style="fill:#ffc900;fill-opacity:1;stroke:none;stroke-width:0.529167;stroke-linecap:round;stroke-linejoin:round;stroke-miterlimit:4;stroke-dasharray:none;stroke-opacity:1"
               d="m -2.5539018,7.7603584 h 0.79375 v 0.79375 h -0.79375 z"
               id="rect1875-1-9-7-7" /><path
               inkscape:connector-curvature="0"
               style="fill:#09a1fa;fill-opacity:1;stroke:none;stroke-width:0.529167;stroke-linecap:round;stroke-linejoin:round;stroke-miterlimit:4;stroke-dasharray:none;stroke-opacity:1"
               d="m -3.8768185,7.7603584 h 0.79375 v 0.79375 h -0.79375 z"
               id="rect1875-1-9-7-7-6" /><path
               inkscape:connector-curvature="0"
               style="fill:#28c488;fill-opacity:1;stroke:none;stroke-width:0.529167;stroke-linecap:round;stroke-linejoin:round;stroke-miterlimit:4;stroke-dasharray:none;stroke-opacity:1"
               d="m -2.5539018,6.4374417 h 0.79375 v 0.79375 h -0.79375 z"
               id="rect1875-1-9-7-7-7" /></g></g></g></g></g></svg>
