<?xml version="1.0" encoding="UTF-8" standalone="no"?>
<!-- Created with Inkscape (http://www.inkscape.org/) -->

<svg
   width="24"
   height="24"
   viewBox="0 0 6.3499999 6.35"
   version="1.1"
   id="svg5"
   inkscape:version="1.2 (dc2aedaf03, 2022-05-15)"
   sodipodi:docname="preferences-web-browser-cache.svg"
   xml:space="preserve"
   xmlns:inkscape="http://www.inkscape.org/namespaces/inkscape"
   xmlns:sodipodi="http://sodipodi.sourceforge.net/DTD/sodipodi-0.dtd"
   xmlns:xlink="http://www.w3.org/1999/xlink"
   xmlns="http://www.w3.org/2000/svg"
   xmlns:svg="http://www.w3.org/2000/svg"><sodipodi:namedview
     id="namedview7"
     pagecolor="#ffffff"
     bordercolor="#000000"
     borderopacity="0.25"
     inkscape:showpageshadow="false"
     inkscape:pageopacity="0.0"
     inkscape:pagecheckerboard="0"
     inkscape:deskcolor="#d1d1d1"
     inkscape:document-units="px"
     showgrid="true"
     inkscape:zoom="19.028871"
     inkscape:cx="9.8008968"
     inkscape:cy="15.949449"
     inkscape:window-width="2160"
     inkscape:window-height="1335"
     inkscape:window-x="0"
     inkscape:window-y="0"
     inkscape:window-maximized="1"
     inkscape:current-layer="layer1"><inkscape:grid
       type="xygrid"
       id="grid3636" /></sodipodi:namedview><defs
     id="defs2"><linearGradient
       inkscape:collect="always"
       id="linearGradient7505"><stop
         style="stop-color:#c4c4c4;stop-opacity:1;"
         offset="0"
         id="stop7501" /><stop
         style="stop-color:#a7a7a7;stop-opacity:1;"
         offset="1"
         id="stop7503" /></linearGradient><linearGradient
       inkscape:collect="always"
       id="linearGradient7283"><stop
         style="stop-color:#d1d1d1;stop-opacity:1;"
         offset="0"
         id="stop7279" /><stop
         style="stop-color:#e1e1e1;stop-opacity:1;"
         offset="1"
         id="stop7281" /></linearGradient><linearGradient
       inkscape:collect="always"
       id="linearGradient6722"><stop
         style="stop-color:#cecece;stop-opacity:1;"
         offset="0"
         id="stop6718" /><stop
         style="stop-color:#e1e1e1;stop-opacity:1;"
         offset="1"
         id="stop6720" /></linearGradient><linearGradient
       inkscape:collect="always"
       id="linearGradient6437"><stop
         style="stop-color:#cccccc;stop-opacity:1;"
         offset="0"
         id="stop6433" /><stop
         style="stop-color:#e4e4e4;stop-opacity:1;"
         offset="1"
         id="stop6435" /></linearGradient><style
       type="text/css"
       id="current-color-scheme">
      .ColorScheme-Text {
        color:#36404d;
      }
      </style><style
       type="text/css"
       id="current-color-scheme-67">
      .ColorScheme-Text {
        color:#122036;
      }
      </style><style
       type="text/css"
       id="current-color-scheme-7">
      .ColorScheme-Text {
        color:#122036;
      }
      </style><style
       type="text/css"
       id="current-color-scheme-5">
      .ColorScheme-Text {
        color:#122036;
      }
      </style><style
       type="text/css"
       id="current-color-scheme-6">
      .ColorScheme-Text {
        color:#122036;
      }
      </style><style
       type="text/css"
       id="current-color-scheme-1">
      .ColorScheme-Text {
        color:#122036;
      }
      </style><style
       id="current-color-scheme-10"
       type="text/css">
      .ColorScheme-Text {
        color:#122036;
      }
      </style><style
       id="current-color-scheme-5-7"
       type="text/css">
      .ColorScheme-Text {
        color:#122036;
      }
      </style><style
       id="current-color-scheme-1-2"
       type="text/css">
      .ColorScheme-Text {
        color:#122036;
      }
      </style><style
       type="text/css"
       id="current-color-scheme-10-9">
      .ColorScheme-Text {
        color:#122036;
      }
      </style><linearGradient
       inkscape:collect="always"
       xlink:href="#linearGradient6437"
       id="linearGradient6439"
       x1="3.175"
       y1="5.2916665"
       x2="3.175"
       y2="2.6458333"
       gradientUnits="userSpaceOnUse" /><linearGradient
       inkscape:collect="always"
       xlink:href="#linearGradient6722"
       id="linearGradient6724"
       x1="3.175"
       y1="2.1166666"
       x2="3.175"
       y2="1.5875"
       gradientUnits="userSpaceOnUse" /><linearGradient
       inkscape:collect="always"
       xlink:href="#linearGradient7283"
       id="linearGradient7285"
       x1="3.175"
       y1="1.3229166"
       x2="3.175"
       y2="0.79374999"
       gradientUnits="userSpaceOnUse" /><linearGradient
       inkscape:collect="always"
       xlink:href="#linearGradient7505"
       id="linearGradient7507"
       x1="3.175"
       y1="4.7624998"
       x2="3.175"
       y2="3.175"
       gradientUnits="userSpaceOnUse" /></defs><g
     inkscape:label="Capa 1"
     inkscape:groupmode="layer"
     id="layer1"><path
       id="rect1575"
       style="opacity:1;fill:#a6a6a6;stroke:none;stroke-width:0.529167;stroke-linecap:round;stroke-linejoin:round;stroke-miterlimit:1.8;paint-order:fill markers stroke;stop-color:#000000;fill-opacity:0.99215686"
       d="M 2.38125 0.52916666 C 2.2346711 0.52916666 2.1166666 0.64717111 2.1166666 0.79374999 L 2.1166666 1.3229167 L 1.3229167 1.3229167 C 1.1763377 1.3229167 1.0583333 1.4409211 1.0583333 1.5875 L 1.0583333 1.8520833 L 1.0583333 2.1166666 L 1.0583333 2.38125 L 1.3229167 2.38125 L 1.3229167 5.55625 C 1.3229167 5.7028288 1.4409211 5.8208333 1.5875 5.8208333 L 4.7625 5.8208333 C 4.9090788 5.8208333 5.0270833 5.7028288 5.0270833 5.55625 L 5.0270833 2.38125 L 5.2916666 2.38125 L 5.2916666 2.1166666 L 5.2916666 1.8520833 L 5.2916666 1.5875 C 5.2916666 1.4409211 5.1736621 1.3229167 5.0270833 1.3229167 L 4.2333333 1.3229167 L 4.2333333 0.79374999 C 4.2333333 0.64717111 4.1153288 0.52916666 3.96875 0.52916666 L 2.38125 0.52916666 z " /><rect
       style="opacity:1;fill:url(#linearGradient6724);fill-opacity:1;stroke:none;stroke-width:0.529167;stroke-linecap:round;stroke-linejoin:round;stroke-miterlimit:1.8;paint-order:fill markers stroke;stop-color:#000000"
       id="rect4393"
       width="3.7041667"
       height="0.52916664"
       x="1.3229166"
       y="1.5875" /><path
       id="rect5175"
       style="opacity:1;fill:url(#linearGradient6439);stroke-width:0.529167;stroke-linecap:round;stroke-linejoin:round;stroke-miterlimit:1.8;paint-order:fill markers stroke;stop-color:#000000"
       d="m 1.5875,2.3812499 h 3.1749999 v 3.175 H 1.5875 Z" /><path
       id="rect5177"
       style="opacity:1;fill:url(#linearGradient7285);fill-opacity:1;stroke:none;stroke-width:0.529167;stroke-linecap:round;stroke-linejoin:round;stroke-miterlimit:1.8;paint-order:fill markers stroke;stop-color:#000000"
       d="M 2.38125 0.79374999 L 2.38125 1.0583333 L 2.38125 1.3229167 L 2.6458333 1.3229167 L 2.6458333 1.0583333 L 3.7041666 1.0583333 L 3.7041666 1.3229167 L 3.96875 1.3229167 L 3.96875 1.0583333 L 3.96875 0.79374999 L 3.7041666 0.79374999 L 2.38125 0.79374999 z " /><path
       id="rect7494"
       style="opacity:1;fill:url(#linearGradient7507);fill-opacity:1;stroke:none;stroke-width:0.529167;stroke-linecap:round;stroke-linejoin:round;stroke-miterlimit:1.8;paint-order:fill markers stroke;stop-color:#000000"
       d="M 2.38125 2.9104166 C 2.234671 2.9104166 2.1166666 3.028421 2.1166666 3.175 L 2.1166666 4.7625 C 2.1166666 4.909079 2.234671 5.0270833 2.38125 5.0270833 C 2.527829 5.0270833 2.6458333 4.909079 2.6458333 4.7625 L 2.6458333 3.175 C 2.6458333 3.028421 2.527829 2.9104166 2.38125 2.9104166 z M 3.175 2.9104166 C 3.028421 2.9104166 2.9104166 3.028421 2.9104166 3.175 L 2.9104166 4.7625 C 2.9104166 4.909079 3.028421 5.0270833 3.175 5.0270833 C 3.321579 5.0270833 3.4395833 4.909079 3.4395833 4.7625 L 3.4395833 3.175 C 3.4395833 3.028421 3.321579 2.9104166 3.175 2.9104166 z M 3.96875 2.9104166 C 3.822171 2.9104166 3.7041666 3.028421 3.7041666 3.175 L 3.7041666 4.7625 C 3.7041666 4.909079 3.822171 5.0270833 3.96875 5.0270833 C 4.115329 5.0270833 4.2333333 4.909079 4.2333333 4.7625 L 4.2333333 3.175 C 4.2333333 3.028421 4.115329 2.9104166 3.96875 2.9104166 z " /></g></svg>
