<?xml version="1.0" encoding="UTF-8" standalone="no"?>
<!-- Created with Inkscape (http://www.inkscape.org/) -->

<svg
   width="24"
   height="24"
   viewBox="0 0 6.3499999 6.35"
   version="1.1"
   id="svg5"
   inkscape:version="1.2 (dc2aedaf03, 2022-05-15)"
   sodipodi:docname="preferences-desktop-emoticons.svg"
   xml:space="preserve"
   xmlns:inkscape="http://www.inkscape.org/namespaces/inkscape"
   xmlns:sodipodi="http://sodipodi.sourceforge.net/DTD/sodipodi-0.dtd"
   xmlns:xlink="http://www.w3.org/1999/xlink"
   xmlns="http://www.w3.org/2000/svg"
   xmlns:svg="http://www.w3.org/2000/svg"><sodipodi:namedview
     id="namedview7"
     pagecolor="#ffffff"
     bordercolor="#000000"
     borderopacity="0.25"
     inkscape:showpageshadow="false"
     inkscape:pageopacity="0.0"
     inkscape:pagecheckerboard="0"
     inkscape:deskcolor="#d1d1d1"
     inkscape:document-units="px"
     showgrid="true"
     inkscape:zoom="26.910889"
     inkscape:cx="15.477006"
     inkscape:cy="15.662805"
     inkscape:window-width="2160"
     inkscape:window-height="1335"
     inkscape:window-x="0"
     inkscape:window-y="0"
     inkscape:window-maximized="1"
     inkscape:current-layer="layer1"><inkscape:grid
       type="xygrid"
       id="grid3636" /></sodipodi:namedview><defs
     id="defs2"><linearGradient
       inkscape:collect="always"
       id="linearGradient16188"><stop
         style="stop-color:#ffce00;stop-opacity:1;"
         offset="0"
         id="stop16184" /><stop
         style="stop-color:#ffe100;stop-opacity:1;"
         offset="1"
         id="stop16186" /></linearGradient><style
       type="text/css"
       id="current-color-scheme">
      .ColorScheme-Text {
        color:#36404d;
      }
      </style><style
       type="text/css"
       id="current-color-scheme-67">
      .ColorScheme-Text {
        color:#122036;
      }
      </style><style
       type="text/css"
       id="current-color-scheme-7">
      .ColorScheme-Text {
        color:#122036;
      }
      </style><style
       type="text/css"
       id="current-color-scheme-5">
      .ColorScheme-Text {
        color:#122036;
      }
      </style><style
       type="text/css"
       id="current-color-scheme-6">
      .ColorScheme-Text {
        color:#122036;
      }
      </style><style
       type="text/css"
       id="current-color-scheme-1">
      .ColorScheme-Text {
        color:#122036;
      }
      </style><style
       id="current-color-scheme-10"
       type="text/css">
      .ColorScheme-Text {
        color:#122036;
      }
      </style><style
       id="current-color-scheme-5-7"
       type="text/css">
      .ColorScheme-Text {
        color:#122036;
      }
      </style><style
       id="current-color-scheme-1-2"
       type="text/css">
      .ColorScheme-Text {
        color:#122036;
      }
      </style><style
       type="text/css"
       id="current-color-scheme-10-9">
      .ColorScheme-Text {
        color:#122036;
      }
      </style><linearGradient
       inkscape:collect="always"
       xlink:href="#linearGradient16188"
       id="linearGradient16190"
       x1="-0.79374999"
       y1="5.8208332"
       x2="-0.79374999"
       y2="1.5875"
       gradientUnits="userSpaceOnUse"
       gradientTransform="translate(3.96875,-0.52916651)" /><style
       type="text/css"
       id="current-color-scheme-2">
      .ColorScheme-Text {
        color:#36404d;
      }
      </style><style
       type="text/css"
       id="current-color-scheme-67-9">
      .ColorScheme-Text {
        color:#122036;
      }
      </style><style
       type="text/css"
       id="current-color-scheme-7-1">
      .ColorScheme-Text {
        color:#122036;
      }
      </style><style
       type="text/css"
       id="current-color-scheme-5-2">
      .ColorScheme-Text {
        color:#122036;
      }
      </style><style
       type="text/css"
       id="current-color-scheme-6-7">
      .ColorScheme-Text {
        color:#122036;
      }
      </style><style
       type="text/css"
       id="current-color-scheme-1-0">
      .ColorScheme-Text {
        color:#122036;
      }
      </style><style
       id="current-color-scheme-10-93"
       type="text/css">
      .ColorScheme-Text {
        color:#122036;
      }
      </style><style
       id="current-color-scheme-5-7-6"
       type="text/css">
      .ColorScheme-Text {
        color:#122036;
      }
      </style><style
       id="current-color-scheme-1-2-0"
       type="text/css">
      .ColorScheme-Text {
        color:#122036;
      }
      </style><style
       type="text/css"
       id="current-color-scheme-10-9-6">
      .ColorScheme-Text {
        color:#122036;
      }
      </style><linearGradient
       id="b"
       gradientTransform="matrix(0.64285644,0,0,0.64285644,-246.50993,-330.86975)"
       gradientUnits="userSpaceOnUse"
       x2="0"
       y1="545.79797"
       y2="517.79797"><stop
         offset="0"
         stop-color="#fdc95f"
         id="stop4327" /><stop
         offset="1"
         stop-color="#fdd583"
         id="stop4329" /></linearGradient><linearGradient
       id="c"
       gradientUnits="userSpaceOnUse"
       x1="11"
       x2="11"
       xlink:href="#a"
       y1="11"
       y2="7" /><linearGradient
       id="a"><stop
         offset="0"
         stop-color="#814b13"
         id="stop4322" /><stop
         offset="1"
         stop-color="#9d5b17"
         id="stop4324" /></linearGradient><linearGradient
       id="d"
       gradientUnits="userSpaceOnUse"
       x1="11"
       x2="11"
       xlink:href="#a"
       y1="16"
       y2="13" /></defs><g
     inkscape:label="Capa 1"
     inkscape:groupmode="layer"
     id="layer1"><path
       id="rect15701"
       style="opacity:1;fill:#ff9600;stroke-width:0.529167;stroke-linecap:round;stroke-linejoin:round;stroke-miterlimit:1.8;paint-order:fill markers stroke;stop-color:#000000;fill-opacity:0.96078432"
       d="m 3.1749999,0.52916664 c 1.4657916,0 2.6458332,1.18004166 2.6458332,2.64583326 0,1.4657916 -1.1800416,2.6458332 -2.6458332,2.6458332 -1.4657916,0 -2.64583326,-1.1800416 -2.64583326,-2.6458332 0,-1.4657916 1.18004166,-2.64583326 2.64583326,-2.64583326 z" /><path
       id="rect15701-2"
       style="fill:url(#linearGradient16190);stroke-width:0.47625;stroke-linecap:round;stroke-linejoin:round;stroke-miterlimit:1.8;paint-order:fill markers stroke;stop-color:#000000"
       d="m 3.175,0.79374999 c 1.3192124,0 2.3812499,1.06203741 2.3812499,2.38124991 0,1.3192124 -1.0620375,2.3812499 -2.3812499,2.3812499 -1.3192125,0 -2.38124995,-1.0620375 -2.38124995,-2.3812499 0,-1.3192125 1.06203745,-2.38124991 2.38124995,-2.38124991 z" /><g
       transform="matrix(0.26458333,0,0,0.26458333,0.26561465,0.26458335)"
       id="g4342"><path
         id="rect5734"
         style="opacity:1;fill:#864e14;stroke-width:2;stroke-linecap:round;stroke-linejoin:round;stroke-miterlimit:1.8;paint-order:fill markers stroke;stop-color:#000000"
         d="m 7.4961023,7 c 0.831,0 1.5,0.669 1.5,1.5 0,0.831 -0.669,1.5 -1.5,1.5 -0.831,0 -1.5,-0.669 -1.5,-1.5 0,-0.831 0.669,-1.5 1.5,-1.5 z" /><path
         id="rect5736"
         style="opacity:1;fill:#864e14;stroke-width:2;stroke-linecap:round;stroke-linejoin:round;stroke-miterlimit:1.8;paint-order:fill markers stroke;stop-color:#000000"
         d="m 14.496102,7 c 0.831,0 1.5,0.669 1.5,1.5 0,0.831 -0.669,1.5 -1.5,1.5 -0.831,0 -1.5,-0.669 -1.5,-1.5 0,-0.831 0.669,-1.5 1.5,-1.5 z" /><path
         id="path6687"
         style="opacity:1;fill:#864e14;stroke-width:2;stroke-linecap:round;stroke-linejoin:round;stroke-miterlimit:1.8;paint-order:fill markers stroke;stop-color:#000000"
         d="M 7.9961021 13 L 6.9961021 13 A 4 4 0 0 0 8.9961021 16.464844 A 4 4 0 0 0 12.996102 16.464844 A 4 4 0 0 0 14.996102 13 L 13.996102 13 C 13.996102 13.051937 13.994778 13.103023 13.992196 13.154297 C 13.989614 13.205571 13.98558 13.256093 13.980477 13.306641 C 13.975374 13.357189 13.968507 13.409224 13.960946 13.458984 C 13.953385 13.508745 13.945513 13.556558 13.935555 13.605469 C 13.925597 13.65438 13.914645 13.703953 13.902352 13.751953 C 13.890059 13.799953 13.875902 13.847505 13.861337 13.894531 C 13.846771 13.941558 13.831238 13.987212 13.814462 14.033203 C 13.797685 14.079195 13.780653 14.125027 13.761727 14.169922 C 13.742801 14.214816 13.722193 14.258999 13.70118 14.302734 C 13.680167 14.34647 13.657812 14.389126 13.634774 14.431641 C 13.611736 14.474155 13.58751 14.517362 13.562508 14.558594 C 13.537507 14.599826 13.511287 14.6398 13.484383 14.679687 C 13.45748 14.719575 13.431095 14.758394 13.402352 14.796875 C 13.373609 14.835356 13.343029 14.873143 13.312508 14.910156 C 13.281988 14.947169 13.250995 14.984049 13.218758 15.019531 C 13.186522 15.055014 13.15304 15.089156 13.119149 15.123047 C 13.085258 15.156937 13.051116 15.19042 13.015633 15.222656 C 12.980151 15.254893 12.943271 15.285886 12.906258 15.316406 C 12.869246 15.346927 12.831458 15.377507 12.792977 15.40625 C 12.754496 15.434993 12.715677 15.461378 12.67579 15.488281 C 12.635902 15.515185 12.595928 15.541405 12.554696 15.566406 C 12.513464 15.591408 12.470258 15.615634 12.427743 15.638672 C 12.385228 15.66171 12.342572 15.684065 12.298837 15.705078 C 12.255101 15.726091 12.210919 15.746699 12.166024 15.765625 C 12.12113 15.784551 12.075297 15.801583 12.029305 15.818359 C 11.983314 15.835136 11.93766 15.850669 11.890633 15.865234 C 11.843607 15.8798 11.796055 15.893957 11.748055 15.90625 C 11.700056 15.918543 11.650482 15.929495 11.601571 15.939453 C 11.55266 15.949411 11.504847 15.957282 11.455087 15.964844 C 11.405326 15.972405 11.353291 15.979272 11.302743 15.984375 C 11.252195 15.989478 11.201673 15.993511 11.150399 15.996094 C 11.099125 15.998676 11.04804 16 10.996102 16 C 10.944165 16 10.893079 15.998676 10.841805 15.996094 C 10.790532 15.993511 10.74001 15.989478 10.689462 15.984375 C 10.638913 15.979272 10.586878 15.972405 10.537118 15.964844 C 10.487357 15.957282 10.439544 15.949411 10.390633 15.939453 C 10.341722 15.929495 10.292149 15.918543 10.244149 15.90625 C 10.196149 15.893957 10.148597 15.8798 10.101571 15.865234 C 10.054544 15.850669 10.00889 15.835136 9.962899 15.818359 C 9.9169076 15.801583 9.8710748 15.784551 9.8261803 15.765625 C 9.7812858 15.746699 9.7371034 15.726091 9.6933678 15.705078 C 9.6496322 15.684065 9.6069764 15.66171 9.5644615 15.638672 C 9.5219467 15.615634 9.4787406 15.591408 9.4375084 15.566406 C 9.3962762 15.541405 9.3563023 15.515185 9.3164146 15.488281 C 9.276527 15.461378 9.2377084 15.434993 9.1992271 15.40625 C 9.1607459 15.377507 9.1229588 15.346927 9.0859459 15.316406 C 9.048933 15.285886 9.0120536 15.254893 8.9765709 15.222656 C 8.9410882 15.19042 8.9069459 15.156937 8.8730553 15.123047 C 8.8391647 15.089156 8.8056825 15.055014 8.7734459 15.019531 C 8.7412093 14.984049 8.7102166 14.947169 8.6796959 14.910156 C 8.6491752 14.873143 8.6185951 14.835356 8.5898521 14.796875 C 8.5611092 14.758394 8.5347242 14.719575 8.5078209 14.679687 C 8.4809176 14.6398 8.4546976 14.599826 8.4296959 14.558594 C 8.4046941 14.517362 8.3804686 14.474155 8.3574303 14.431641 C 8.334392 14.389126 8.312037 14.34647 8.291024 14.302734 C 8.270011 14.258999 8.2494029 14.214816 8.2304771 14.169922 C 8.2115514 14.125027 8.1945194 14.079195 8.1777428 14.033203 C 8.1609661 13.987212 8.1454334 13.941558 8.1308678 13.894531 C 8.1163021 13.847505 8.1021449 13.799953 8.0898521 13.751953 C 8.0775594 13.703953 8.066607 13.65438 8.056649 13.605469 C 8.046691 13.556558 8.0388197 13.508745 8.0312584 13.458984 C 8.0236971 13.409224 8.0168299 13.357189 8.0117271 13.306641 C 8.0066244 13.256093 8.0025907 13.205571 8.0000084 13.154297 C 7.9974261 13.103023 7.9961021 13.051937 7.9961021 13 z " /></g></g></svg>
