<?xml version="1.0" encoding="UTF-8" standalone="no"?>
<!-- Created with Inkscape (http://www.inkscape.org/) -->

<svg
   width="24"
   height="24"
   viewBox="0 0 6.3499999 6.35"
   version="1.1"
   id="svg5"
   inkscape:version="1.2 (dc2aedaf03, 2022-05-15)"
   sodipodi:docname="preferences-desktop-color.svg"
   xml:space="preserve"
   xmlns:inkscape="http://www.inkscape.org/namespaces/inkscape"
   xmlns:sodipodi="http://sodipodi.sourceforge.net/DTD/sodipodi-0.dtd"
   xmlns:xlink="http://www.w3.org/1999/xlink"
   xmlns="http://www.w3.org/2000/svg"
   xmlns:svg="http://www.w3.org/2000/svg"><sodipodi:namedview
     id="namedview7"
     pagecolor="#ffffff"
     bordercolor="#000000"
     borderopacity="0.25"
     inkscape:showpageshadow="false"
     inkscape:pageopacity="0.0"
     inkscape:pagecheckerboard="0"
     inkscape:deskcolor="#d1d1d1"
     inkscape:document-units="px"
     showgrid="true"
     inkscape:zoom="19.028871"
     inkscape:cx="-7.5674484"
     inkscape:cy="11.272345"
     inkscape:window-width="2160"
     inkscape:window-height="1335"
     inkscape:window-x="0"
     inkscape:window-y="0"
     inkscape:window-maximized="1"
     inkscape:current-layer="layer1"><inkscape:grid
       type="xygrid"
       id="grid3636" /></sodipodi:namedview><defs
     id="defs2"><linearGradient
       inkscape:collect="always"
       id="linearGradient6306"><stop
         style="stop-color:#383940;stop-opacity:1;"
         offset="0"
         id="stop6302" /><stop
         style="stop-color:#383940;stop-opacity:1;"
         offset="1"
         id="stop6304" /></linearGradient><linearGradient
       inkscape:collect="always"
       id="linearGradient5617"><stop
         style="stop-color:#e0e6ff;stop-opacity:1;"
         offset="0"
         id="stop5613" /><stop
         style="stop-color:#f6fcff;stop-opacity:1;"
         offset="1"
         id="stop5615" /></linearGradient><linearGradient
       inkscape:collect="always"
       id="linearGradient3360"><stop
         style="stop-color:#ffcb00;stop-opacity:1;"
         offset="0"
         id="stop3356" /><stop
         style="stop-color:#ffe100;stop-opacity:1;"
         offset="1"
         id="stop3358" /></linearGradient><linearGradient
       inkscape:collect="always"
       id="linearGradient7277"><stop
         style="stop-color:#6bda24;stop-opacity:1;"
         offset="0"
         id="stop7273" /><stop
         style="stop-color:#a0ea1e;stop-opacity:1;"
         offset="1"
         id="stop7275" /></linearGradient><linearGradient
       inkscape:collect="always"
       id="linearGradient6596"><stop
         style="stop-color:#de3f33;stop-opacity:1;"
         offset="0"
         id="stop6592" /><stop
         style="stop-color:#f16055;stop-opacity:1;"
         offset="1"
         id="stop6594" /></linearGradient><linearGradient
       inkscape:collect="always"
       id="linearGradient4533"><stop
         style="stop-color:#1076ed;stop-opacity:1;"
         offset="0"
         id="stop4529" /><stop
         style="stop-color:#34affa;stop-opacity:1;"
         offset="1"
         id="stop4531" /></linearGradient><style
       type="text/css"
       id="current-color-scheme">
      .ColorScheme-Text {
        color:#36404d;
      }
      </style><style
       type="text/css"
       id="current-color-scheme-67">
      .ColorScheme-Text {
        color:#122036;
      }
      </style><style
       type="text/css"
       id="current-color-scheme-7">
      .ColorScheme-Text {
        color:#122036;
      }
      </style><style
       type="text/css"
       id="current-color-scheme-5">
      .ColorScheme-Text {
        color:#122036;
      }
      </style><style
       type="text/css"
       id="current-color-scheme-6">
      .ColorScheme-Text {
        color:#122036;
      }
      </style><style
       type="text/css"
       id="current-color-scheme-1">
      .ColorScheme-Text {
        color:#122036;
      }
      </style><style
       id="current-color-scheme-10"
       type="text/css">
      .ColorScheme-Text {
        color:#122036;
      }
      </style><style
       id="current-color-scheme-5-7"
       type="text/css">
      .ColorScheme-Text {
        color:#122036;
      }
      </style><style
       id="current-color-scheme-1-2"
       type="text/css">
      .ColorScheme-Text {
        color:#122036;
      }
      </style><style
       type="text/css"
       id="current-color-scheme-10-9">
      .ColorScheme-Text {
        color:#122036;
      }
      </style><linearGradient
       inkscape:collect="always"
       xlink:href="#linearGradient4533"
       id="linearGradient4535"
       x1="1.0583333"
       y1="3.96875"
       x2="1.0583333"
       y2="2.6458333"
       gradientUnits="userSpaceOnUse"
       gradientTransform="matrix(1.3333333,0,0,1.3333333,3.615972,-6.4398187)" /><linearGradient
       inkscape:collect="always"
       xlink:href="#linearGradient6596"
       id="linearGradient6244"
       gradientUnits="userSpaceOnUse"
       x1="1.0583333"
       y1="3.96875"
       x2="1.0583333"
       y2="2.6458333"
       gradientTransform="matrix(1.3333333,0,0,1.3333333,0.44097232,-6.6145831)" /><linearGradient
       inkscape:collect="always"
       xlink:href="#linearGradient7277"
       id="linearGradient6787"
       gradientUnits="userSpaceOnUse"
       gradientTransform="matrix(1.3333333,0,0,1.3333333,-2.4694447,-5.5562498)"
       x1="1.0583333"
       y1="3.96875"
       x2="1.0583333"
       y2="2.6458333" /><linearGradient
       inkscape:collect="always"
       xlink:href="#linearGradient3360"
       id="linearGradient1765"
       gradientUnits="userSpaceOnUse"
       gradientTransform="matrix(1.3333333,0,0,1.3333333,3.351389,0.52916671)"
       x1="1.0583333"
       y1="3.96875"
       x2="1.0583333"
       y2="2.6458333" /><linearGradient
       inkscape:collect="always"
       xlink:href="#linearGradient5617"
       id="linearGradient4505"
       gradientUnits="userSpaceOnUse"
       gradientTransform="matrix(1.3333333,0,0,1.3333333,1.7638889,-1.0583333)"
       x1="1.0583333"
       y1="3.96875"
       x2="1.0583333"
       y2="2.6458333" /><linearGradient
       inkscape:collect="always"
       xlink:href="#linearGradient6306"
       id="linearGradient6084"
       gradientUnits="userSpaceOnUse"
       gradientTransform="matrix(0.66666664,0,0,0.66666664,2.4694445,1.0583334)"
       x1="1.0583333"
       y1="3.96875"
       x2="1.0583333"
       y2="2.6458333" /></defs><g
     inkscape:label="Capa 1"
     inkscape:groupmode="layer"
     id="layer1"><g
       id="g4472"
       transform="translate(-0.52916637,6.7044021)"><path
         id="rect2556-5"
         style="fill:#0a5dbf;stroke-width:0.661459;stroke-linecap:round;stroke-linejoin:round;stroke-miterlimit:1.8;paint-order:fill markers stroke;stop-color:#000000"
         d="m 5.0270832,-3.5294019 c 0.7328958,0 1.3229166,0.5900208 1.3229166,1.3229167 0,0.7328958 -0.5900208,1.32291656 -1.3229166,1.32291656 -0.7328958,0 -1.3229167,-0.59002076 -1.3229167,-1.32291656 0,-0.7328959 0.5900209,-1.3229167 1.3229167,-1.3229167 z" /><path
         id="rect2556-5-5"
         style="fill:url(#linearGradient4535);stroke-width:0.529167;stroke-linecap:round;stroke-linejoin:round;stroke-miterlimit:1.8;paint-order:fill markers stroke;stop-color:#000000"
         d="m 5.027083,-3.2648188 c 0.5863167,0 1.0583334,0.4720167 1.0583334,1.0583333 0,0.5863167 -0.4720167,1.0583334 -1.0583334,1.0583334 -0.5863166,0 -1.0583333,-0.4720167 -1.0583333,-1.0583334 0,-0.5863166 0.4720167,-1.0583333 1.0583333,-1.0583333 z" /></g><g
       id="g4468"
       transform="translate(-2.9104167,-2.9104167)"><path
         id="rect2556-5-3"
         style="fill:#ff9a0a;fill-opacity:1;stroke-width:0.661459;stroke-linecap:round;stroke-linejoin:round;stroke-miterlimit:1.8;paint-order:fill markers stroke;stop-color:#000000"
         d="m 4.7625002,3.4395835 c 0.7328958,0 1.3229166,0.5900208 1.3229166,1.3229167 0,0.7328958 -0.5900208,1.3229165 -1.3229166,1.3229165 -0.7328958,0 -1.3229167,-0.5900207 -1.3229167,-1.3229165 0,-0.7328959 0.5900209,-1.3229167 1.3229167,-1.3229167 z" /><path
         id="rect2556-5-5-5"
         style="fill:url(#linearGradient1765);stroke-width:0.529167;stroke-linecap:round;stroke-linejoin:round;stroke-miterlimit:1.8;paint-order:fill markers stroke;stop-color:#000000"
         d="m 4.7625,3.7041666 c 0.5863167,0 1.0583334,0.4720167 1.0583334,1.0583333 0,0.5863167 -0.4720167,1.0583334 -1.0583334,1.0583334 -0.5863166,0 -1.0583333,-0.4720167 -1.0583333,-1.0583334 0,-0.5863166 0.4720167,-1.0583333 1.0583333,-1.0583333 z" /></g><g
       id="g4476"
       transform="translate(1.1875e-7,6.8791667)"><path
         id="rect2556"
         style="opacity:1;fill:#b22c2c;stroke-width:0.661459;stroke-linecap:round;stroke-linejoin:round;stroke-miterlimit:1.8;paint-order:fill markers stroke;stop-color:#000000"
         d="m 1.8520832,-3.7041667 c 0.7328959,0 1.3229167,0.5900208 1.3229167,1.3229166 0,0.7328959 -0.5900208,1.3229167 -1.3229167,1.3229167 -0.7328958,0 -1.32291658,-0.5900208 -1.32291658,-1.3229167 0,-0.7328958 0.59002078,-1.3229166 1.32291658,-1.3229166 z" /><path
         id="rect2556-5-5-2"
         style="fill:url(#linearGradient6244);stroke-width:0.529167;stroke-linecap:round;stroke-linejoin:round;stroke-miterlimit:1.8;paint-order:fill markers stroke;stop-color:#000000"
         d="m 1.8520833,-3.4395833 c 0.5863167,0 1.0583333,0.4720166 1.0583333,1.0583333 0,0.5863167 -0.4720166,1.0583333 -1.0583333,1.0583333 -0.5863167,0 -1.05833328,-0.4720166 -1.05833328,-1.0583333 0,-0.5863167 0.47201658,-1.0583333 1.05833328,-1.0583333 z" /></g><g
       id="g4480"
       transform="translate(5.5562501,3.175)"><path
         id="rect2556-3"
         style="fill:#56b21d;stroke-width:0.661459;stroke-linecap:round;stroke-linejoin:round;stroke-miterlimit:1.8;paint-order:fill markers stroke;stop-color:#000000"
         d="m -1.058333,-2.6458331 c 0.7328958,0 1.3229166,0.5900208 1.3229166,1.3229167 0,0.73289584 -0.5900208,1.32291664375 -1.3229166,1.32291664375 -0.7328959,0 -1.3229167,-0.59002080375 -1.3229167,-1.32291664375 0,-0.7328959 0.5900208,-1.3229167 1.3229167,-1.3229167 z" /><path
         id="rect2556-5-5-2-9"
         style="fill:url(#linearGradient6787);stroke-width:0.529167;stroke-linecap:round;stroke-linejoin:round;stroke-miterlimit:1.8;paint-order:fill markers stroke;stop-color:#000000"
         d="M -1.0583333,-2.38125 C -0.4720166,-2.38125 0,-1.9092333 0,-1.3229167 c 0,0.58631674 -0.4720166,1.05833334 -1.0583333,1.05833334 -0.5863166,0 -1.0583333,-0.4720166 -1.0583333,-1.05833334 0,-0.5863166 0.4720167,-1.0583333 1.0583333,-1.0583333 z" /></g><path
       id="rect2556-5-9"
       style="fill:#b3b7cc;stroke-width:0.661459;stroke-linecap:round;stroke-linejoin:round;stroke-miterlimit:1.8;paint-order:fill markers stroke;stop-color:#000000;fill-opacity:1"
       d="m 3.175,1.8520833 c 0.7328958,0 1.3229166,0.5900208 1.3229166,1.3229167 0,0.7328958 -0.5900208,1.3229166 -1.3229166,1.3229166 -0.7328958,0 -1.3229167,-0.5900208 -1.3229167,-1.3229166 0,-0.7328959 0.5900209,-1.3229167 1.3229167,-1.3229167 z" /><path
       id="rect2556-5-5-1"
       style="fill:url(#linearGradient4505);stroke-width:0.529167;stroke-linecap:round;stroke-linejoin:round;stroke-miterlimit:1.8;paint-order:fill markers stroke;stop-color:#000000"
       d="m 3.1749999,2.1166666 c 0.5863167,0 1.0583334,0.4720167 1.0583334,1.0583333 0,0.5863167 -0.4720167,1.0583334 -1.0583334,1.0583334 -0.5863166,0 -1.0583333,-0.4720167 -1.0583333,-1.0583334 0,-0.5863166 0.4720167,-1.0583333 1.0583333,-1.0583333 z" /><path
       id="rect2556-5-5-1-0"
       style="fill:url(#linearGradient6084);stroke-width:0.264583;stroke-linecap:round;stroke-linejoin:round;stroke-miterlimit:1.8;paint-order:fill markers stroke;stop-color:#000000"
       d="m 3.1749999,2.6458334 c 0.2931584,0 0.5291667,0.2360083 0.5291667,0.5291666 0,0.2931584 -0.2360083,0.5291667 -0.5291667,0.5291667 -0.2931583,0 -0.5291666,-0.2360083 -0.5291666,-0.5291667 0,-0.2931583 0.2360083,-0.5291666 0.5291666,-0.5291666 z" /></g></svg>
