<?xml version="1.0" encoding="UTF-8" standalone="no"?>
<!-- Created with Inkscape (http://www.inkscape.org/) -->

<svg
   width="24"
   height="24"
   viewBox="0 0 6.3499999 6.35"
   version="1.1"
   id="svg5"
   inkscape:version="1.2 (dc2aedaf03, 2022-05-15)"
   sodipodi:docname="preferences-desktop-effects.svg"
   xml:space="preserve"
   xmlns:inkscape="http://www.inkscape.org/namespaces/inkscape"
   xmlns:sodipodi="http://sodipodi.sourceforge.net/DTD/sodipodi-0.dtd"
   xmlns:xlink="http://www.w3.org/1999/xlink"
   xmlns="http://www.w3.org/2000/svg"
   xmlns:svg="http://www.w3.org/2000/svg"><sodipodi:namedview
     id="namedview7"
     pagecolor="#ffffff"
     bordercolor="#000000"
     borderopacity="0.25"
     inkscape:showpageshadow="false"
     inkscape:pageopacity="0.0"
     inkscape:pagecheckerboard="0"
     inkscape:deskcolor="#d1d1d1"
     inkscape:document-units="px"
     showgrid="true"
     inkscape:zoom="38.057743"
     inkscape:cx="20.823621"
     inkscape:cy="19.299621"
     inkscape:window-width="2160"
     inkscape:window-height="1335"
     inkscape:window-x="0"
     inkscape:window-y="0"
     inkscape:window-maximized="1"
     inkscape:current-layer="layer1-6"><inkscape:grid
       type="xygrid"
       id="grid3636" /></sodipodi:namedview><defs
     id="defs2"><style
       type="text/css"
       id="current-color-scheme">
      .ColorScheme-Text {
        color:#36404d;
      }
      </style><style
       type="text/css"
       id="current-color-scheme-67">
      .ColorScheme-Text {
        color:#122036;
      }
      </style><style
       type="text/css"
       id="current-color-scheme-7">
      .ColorScheme-Text {
        color:#122036;
      }
      </style><style
       type="text/css"
       id="current-color-scheme-5">
      .ColorScheme-Text {
        color:#122036;
      }
      </style><style
       type="text/css"
       id="current-color-scheme-6">
      .ColorScheme-Text {
        color:#122036;
      }
      </style><style
       type="text/css"
       id="current-color-scheme-1">
      .ColorScheme-Text {
        color:#122036;
      }
      </style><style
       id="current-color-scheme-10"
       type="text/css">
      .ColorScheme-Text {
        color:#122036;
      }
      </style><style
       id="current-color-scheme-5-7"
       type="text/css">
      .ColorScheme-Text {
        color:#122036;
      }
      </style><style
       id="current-color-scheme-1-2"
       type="text/css">
      .ColorScheme-Text {
        color:#122036;
      }
      </style><style
       type="text/css"
       id="current-color-scheme-10-9">
      .ColorScheme-Text {
        color:#122036;
      }
      </style><linearGradient
       inkscape:collect="always"
       id="linearGradient2125"><stop
         style="stop-color:#1077ed;stop-opacity:1;"
         offset="0"
         id="stop2121" /><stop
         style="stop-color:#34affa;stop-opacity:1;"
         offset="1"
         id="stop2123" /></linearGradient><style
       id="current-color-scheme-53"
       type="text/css">
      .ColorScheme-Text {
        color:#122036;
      }
      </style><style
       id="current-color-scheme-6-5"
       type="text/css">
      .ColorScheme-Text {
        color:#122036;
      }
      </style><linearGradient
       inkscape:collect="always"
       xlink:href="#linearGradient2125"
       id="linearGradient2127"
       x1="3.175"
       y1="5.0270834"
       x2="3.175"
       y2="0.79374999"
       gradientUnits="userSpaceOnUse"
       gradientTransform="translate(1.25e-8,0.26458333)" /><style
       type="text/css"
       id="current-color-scheme-9">
      .ColorScheme-Text {
        color:#36404d;
      }
      </style><style
       id="current-color-scheme-3"
       type="text/css">
      .ColorScheme-Text {
        color:#36404d;
      }
      </style></defs><g
     inkscape:label="Capa 1"
     inkscape:groupmode="layer"
     id="layer1"><g
       inkscape:label="Capa 1"
       id="layer1-6"><path
         id="rect1345"
         style="opacity:1;fill:#0a5dbf;fill-opacity:1;stroke-width:0.529167;stroke-linecap:round;stroke-linejoin:round;stroke-miterlimit:1.8;paint-order:fill markers stroke;stop-color:#000000"
         d="m 0.52916663,0.52916645 5.29166657,2.3e-7 c 0.1465792,1e-8 0.2645833,0.11800417 0.2645833,0.26458331 V 5.5562498 c 0,0.1465792 -0.1180041,0.2645833 -0.2645833,0.2645833 l -5.29166658,-2e-7 c -0.14657918,0 -0.26458335,-0.1180041 -0.26458335,-0.2645833 l 10e-9,-4.76249981 c 0,-0.14657916 0.11800417,-0.26458334 0.26458335,-0.26458334 z"
         sodipodi:nodetypes="sssssssss" /><path
         id="rect1345-7"
         style="fill:url(#linearGradient2127);fill-opacity:1;stroke-width:0.529167;stroke-linecap:round;stroke-linejoin:round;stroke-miterlimit:1.8;paint-order:fill markers stroke;stop-color:#000000"
         d="M 0.52916665,0.79374999 H 5.8208333 V 5.55625 H 0.52916665 Z"
         sodipodi:nodetypes="ccccc" /><path
         id="path3184-0"
         style="color:#000000;fill:#0a5dbf;fill-opacity:1;stroke-linecap:round;stroke-linejoin:round;stroke-miterlimit:1.8;paint-order:fill markers stroke"
         d="m 1.0583333,1.3229167 c -0.14657891,0 -0.26458331,0.1180044 -0.26458331,0.2645833 0,0.1465789 0.1180044,0.2645833 0.26458331,0.2645833 0.00229,0 0.00444,5.73e-5 0.00672,0 0.1433881,-0.00361 0.2578655,-0.1202947 0.2578655,-0.2645833 0,-0.1465789 -0.1180045,-0.2645833 -0.2645835,-0.2645833 z m 4.2333333,0 c -0.1465788,0 -0.2645833,0.1180044 -0.2645833,0.2645833 0,0.1442886 0.1144773,0.2609733 0.2578654,0.2645833 0.00228,5.73e-5 0.00443,0 0.00672,0 0.146579,0 0.2645834,-0.1180044 0.2645834,-0.2645833 0,-0.1465789 -0.1180044,-0.2645833 -0.2645834,-0.2645833 z M 1.8520833,1.5875 C 1.7055045,1.5875 1.5875,1.7055045 1.5875,1.8520833 c 0,0.1465789 0.1180045,0.2645834 0.2645833,0.2645834 0.00229,0 0.00444,5.72e-5 0.00672,0 C 2.0021913,2.1130567 2.1166687,1.9963719 2.1166687,1.8520833 2.1166687,1.7055045 1.9986643,1.5875 1.8520853,1.5875 Z m 2.6458333,0 c -0.1465789,0 -0.2645833,0.1180045 -0.2645833,0.2645833 0,0.1442886 0.1144773,0.2609734 0.2578654,0.2645834 0.00228,5.72e-5 0.00443,0 0.00672,0 0.1465789,0 0.2645834,-0.1180045 0.2645834,-0.2645834 C 4.7625021,1.7055045 4.6444976,1.5875 4.4979187,1.5875 Z M 3.1760335,1.5880168 C 3.1059136,1.5875591 3.038386,1.6147485 2.9884481,1.6639811 2.3805077,2.1160635 2.3808451,2.6452811 2.383317,3.2948893 L 1.7053223,3.7480916 c -0.1106879,0.073989 -0.149238,0.2187713 -0.089917,0.3379638 l 0.2640665,0.5291667 c 0.04471,0.089617 0.1360124,0.1460735 0.2361613,0.1462443 h 0.3653524 l 0.1932699,0.3829224 c 0.04471,0.089616 0.1360124,0.14659 0.2361613,0.1467611 H 3.4401001 C 3.540249,5.2909784 3.6315534,5.2340049 3.6762614,5.1443888 L 3.8674642,4.7614664 H 4.2328165 C 4.3329654,4.7612952 4.4242699,4.7048384 4.4689778,4.6152222 L 4.7345947,4.0860554 c 0.05932,-0.1191936 0.020773,-0.263976 -0.089917,-0.3379639 L 3.9516968,3.2871379 C 3.9683667,2.6453421 3.9681764,2.1161774 3.363619,1.6660482 3.313999,1.6160992 3.2464384,1.5880775 3.1760335,1.5880168 Z M 1.0583333,2.1166667 c -0.14657891,0 -0.26458331,0.1180044 -0.26458331,0.2645833 0,0.1465789 0.1180044,0.2645832 0.26458331,0.2645832 0.00229,0 0.00444,5.73e-5 0.00672,0 0.143388,-0.00361 0.2578654,-0.1202946 0.2578654,-0.2645832 0,-0.1465789 -0.1180045,-0.2645833 -0.2645834,-0.2645833 z m 4.2333333,0 c -0.1465788,0 -0.2645833,0.1180044 -0.2645833,0.2645833 0,0.1442886 0.1144773,0.2609733 0.2578654,0.2645832 0.00228,5.73e-5 0.00443,0 0.00672,0 0.146579,0 0.2645834,-0.1180043 0.2645834,-0.2645832 0,-0.1465789 -0.1180044,-0.2645833 -0.2645834,-0.2645833 z M 1.8520833,2.38125 C 1.7055045,2.38125 1.5875,2.4992545 1.5875,2.6458332 c 0,0.1465789 0.1180045,0.2645835 0.2645833,0.2645835 0.00229,0 0.00444,5.71e-5 0.00672,0 0.143388,-0.00361 0.2578654,-0.1202949 0.2578654,-0.2645835 0,-0.1465787 -0.1180044,-0.2645832 -0.2645834,-0.2645832 z m 2.6458333,0 c -0.1465789,0 -0.2645833,0.1180045 -0.2645833,0.2645832 0,0.1442886 0.1144773,0.2609734 0.2578654,0.2645835 0.00228,5.71e-5 0.00443,0 0.00672,0 0.1465789,0 0.2645834,-0.1180046 0.2645834,-0.2645835 0,-0.1465787 -0.1180045,-0.2645832 -0.2645834,-0.2645832 z M 1.0583333,2.9104167 c -0.14657891,0 -0.26458331,0.1180043 -0.26458331,0.2645832 0,0.1465788 0.1180044,0.2645833 0.26458331,0.2645833 0.00229,0 0.00444,5.73e-5 0.00672,0 0.143388,-0.00361 0.2578654,-0.1202948 0.2578654,-0.2645833 0,-0.1465789 -0.1180045,-0.2645832 -0.2645834,-0.2645832 z m 4.2333333,0 c -0.1465788,0 -0.2645833,0.1180043 -0.2645833,0.2645832 0,0.1442885 0.1144773,0.2609733 0.2578654,0.2645833 0.00228,5.73e-5 0.00443,0 0.00672,0 0.146579,0 0.2645834,-0.1180045 0.2645834,-0.2645833 0,-0.1465789 -0.1180044,-0.2645832 -0.2645834,-0.2645832 z"
         sodipodi:nodetypes="ssscssssssssssssscssssssssssccccccccccccccccccccssscssssssssssssscssssssssssssscssssssssss" /><path
         id="path3184"
         style="color:#000000;fill:#e6eef8;stroke-linecap:round;stroke-linejoin:round;stroke-miterlimit:1.8;paint-order:fill markers stroke"
         d="m 1.0583333,1.0583333 c -0.14657891,0 -0.26458331,0.1180045 -0.26458331,0.2645834 0,0.1465788 0.1180044,0.2645833 0.26458331,0.2645833 0.00229,0 0.00444,5.73e-5 0.00672,0 0.143388,-0.00361 0.2578654,-0.1202947 0.2578654,-0.2645833 0,-0.1465789 -0.1180045,-0.2645834 -0.2645834,-0.2645834 z m 4.2333333,0 c -0.1465788,0 -0.2645833,0.1180045 -0.2645833,0.2645834 0,0.1442886 0.1144773,0.2609733 0.2578654,0.2645833 0.00228,5.73e-5 0.00443,0 0.00672,0 0.146579,0 0.2645834,-0.1180045 0.2645834,-0.2645833 0,-0.1465789 -0.1180044,-0.2645834 -0.2645834,-0.2645834 z M 1.8520833,1.3229167 c -0.1465788,0 -0.2645833,0.1180044 -0.2645833,0.2645832 0,0.1465789 0.1180045,0.2645834 0.2645833,0.2645834 0.00229,0 0.00444,5.73e-5 0.00672,0 0.143388,-0.00361 0.2578654,-0.1202948 0.2578654,-0.2645834 0,-0.1465788 -0.1180044,-0.2645832 -0.2645834,-0.2645832 z m 2.6458333,0 c -0.1465789,0 -0.2645833,0.1180044 -0.2645833,0.2645832 0,0.1442886 0.1144773,0.2609734 0.2578654,0.2645834 0.00228,5.73e-5 0.00443,0 0.00672,0 0.1465789,0 0.2645834,-0.1180045 0.2645834,-0.2645834 0,-0.1465788 -0.1180045,-0.2645832 -0.2645834,-0.2645832 z M 3.1760335,1.3234334 C 3.1059136,1.3229758 3.038386,1.3501651 2.9884481,1.3993977 2.3805077,1.8514801 2.3808451,2.3806978 2.383317,3.0303059 L 1.7053223,3.4835083 c -0.1106879,0.073989 -0.149238,0.2187713 -0.089917,0.3379639 l 0.2640665,0.5291666 c 0.04471,0.089617 0.1360124,0.1460735 0.2361613,0.1462444 h 0.3653524 l 0.1932699,0.3829222 c 0.04471,0.089616 0.1360124,0.14659 0.2361613,0.1467611 H 3.4401001 C 3.540249,5.0263951 3.6315534,4.9694215 3.6762614,4.8798054 L 3.8674642,4.4968832 H 4.2328165 C 4.3329654,4.4967119 4.4242699,4.440255 4.4689778,4.3506388 L 4.7345947,3.8214722 c 0.05932,-0.1191936 0.020773,-0.263976 -0.089917,-0.3379639 L 3.9516968,3.0225545 C 3.9683667,2.3807589 3.9681764,1.851594 3.363619,1.4014648 3.313999,1.3515159 3.2464384,1.3234941 3.1760335,1.3234334 Z M 1.0583333,1.8520833 c -0.14657891,0 -0.26458331,0.1180044 -0.26458331,0.2645834 0,0.1465788 0.1180044,0.2645833 0.26458331,0.2645833 0.00229,0 0.00444,5.73e-5 0.00672,0 0.143388,-0.00361 0.2578654,-0.1202947 0.2578654,-0.2645833 0,-0.146579 -0.1180045,-0.2645834 -0.2645834,-0.2645834 z m 4.2333333,0 c -0.1465788,0 -0.2645833,0.1180044 -0.2645833,0.2645834 0,0.1442886 0.1144773,0.2609732 0.2578654,0.2645833 0.00228,5.73e-5 0.00443,0 0.00672,0 0.146579,0 0.2645834,-0.1180044 0.2645834,-0.2645833 0,-0.1465789 -0.1180044,-0.2645834 -0.2645834,-0.2645834 z M 1.8520833,2.1166667 C 1.7055045,2.1166667 1.5875,2.2346712 1.5875,2.38125 c 0,0.1465789 0.1180045,0.2645833 0.2645833,0.2645833 0.00229,0 0.00444,5.72e-5 0.00672,0 0.143388,-0.00361 0.2578654,-0.1202948 0.2578654,-0.2645834 0,-0.1465788 -0.1180044,-0.2645833 -0.2645834,-0.2645833 z m 2.6458333,0 c -0.1465789,0 -0.2645833,0.1180045 -0.2645833,0.2645833 0,0.1442885 0.1144773,0.2609734 0.2578654,0.2645833 0.00228,5.72e-5 0.00443,0 0.00672,0 0.1465789,0 0.2645834,-0.1180045 0.2645834,-0.2645834 0,-0.1465788 -0.1180045,-0.2645833 -0.2645834,-0.2645833 z M 1.0583333,2.6458333 c -0.14657891,0 -0.26458331,0.1180044 -0.26458331,0.2645833 0,0.1465788 0.1180044,0.2645833 0.26458331,0.2645833 0.00229,0 0.00444,5.73e-5 0.00672,0 0.143388,-0.00361 0.2578654,-0.1202948 0.2578654,-0.2645833 0,-0.1465788 -0.1180045,-0.2645833 -0.2645834,-0.2645833 z m 4.2333333,0 c -0.1465788,0 -0.2645833,0.1180044 -0.2645833,0.2645833 0,0.1442885 0.1144773,0.2609733 0.2578654,0.2645833 0.00228,5.73e-5 0.00443,0 0.00672,0 0.146579,0 0.2645834,-0.1180045 0.2645834,-0.2645833 0,-0.1465789 -0.1180044,-0.2645833 -0.2645834,-0.2645833 z"
         sodipodi:nodetypes="ssscssssssssssssscssssssssssccccccccccccccccccccssscssssssssssssscssssssssssssscssssssssss" /></g></g></svg>
