<?xml version="1.0" encoding="UTF-8" standalone="no"?>
<!-- Created with Inkscape (http://www.inkscape.org/) -->

<svg
   width="24"
   height="24"
   viewBox="0 0 6.3499999 6.35"
   version="1.1"
   id="svg5"
   inkscape:version="1.2 (dc2aedaf03, 2022-05-15)"
   sodipodi:docname="window-duplicate.svg"
   xml:space="preserve"
   xmlns:inkscape="http://www.inkscape.org/namespaces/inkscape"
   xmlns:sodipodi="http://sodipodi.sourceforge.net/DTD/sodipodi-0.dtd"
   xmlns:xlink="http://www.w3.org/1999/xlink"
   xmlns="http://www.w3.org/2000/svg"
   xmlns:svg="http://www.w3.org/2000/svg"><sodipodi:namedview
     id="namedview7"
     pagecolor="#ffffff"
     bordercolor="#000000"
     borderopacity="0.25"
     inkscape:showpageshadow="false"
     inkscape:pageopacity="0.0"
     inkscape:pagecheckerboard="0"
     inkscape:deskcolor="#d1d1d1"
     inkscape:document-units="px"
     showgrid="true"
     inkscape:zoom="38.057741"
     inkscape:cx="9.8534487"
     inkscape:cy="11.18038"
     inkscape:window-width="2160"
     inkscape:window-height="1335"
     inkscape:window-x="0"
     inkscape:window-y="0"
     inkscape:window-maximized="1"
     inkscape:current-layer="layer1"><inkscape:grid
       type="xygrid"
       id="grid271" /></sodipodi:namedview><defs
     id="defs2"><linearGradient
       inkscape:collect="always"
       id="linearGradient7449"><stop
         style="stop-color:#4d575f;stop-opacity:1;"
         offset="0"
         id="stop7445" /><stop
         style="stop-color:#5c6770;stop-opacity:1;"
         offset="1"
         id="stop7447" /></linearGradient><linearGradient
       inkscape:collect="always"
       id="linearGradient6199"><stop
         style="stop-color:#1985f1;stop-opacity:1;"
         offset="0"
         id="stop6195" /><stop
         style="stop-color:#33aefa;stop-opacity:1;"
         offset="1"
         id="stop6197" /></linearGradient><style
       id="current-color-scheme"
       type="text/css">
      .ColorScheme-Text {
        color:#122036;
      }
      </style><style
       id="current-color-scheme-6"
       type="text/css">
      .ColorScheme-Text {
        color:#122036;
      }
      </style><linearGradient
       inkscape:collect="always"
       xlink:href="#linearGradient6199"
       id="linearGradient6201"
       x1="3.4395833"
       y1="2.9104166"
       x2="3.4395833"
       y2="1.8520833"
       gradientUnits="userSpaceOnUse" /><linearGradient
       inkscape:collect="always"
       xlink:href="#linearGradient7449"
       id="linearGradient7451"
       x1="2.6458333"
       y1="1.8520833"
       x2="2.6458333"
       y2="0.79374999"
       gradientUnits="userSpaceOnUse" /></defs><g
     inkscape:label="Capa 1"
     inkscape:groupmode="layer"
     id="layer1"><path
       id="rect1345"
       style="opacity:1;fill:#90a4ae;stroke-width:0.529167;stroke-linecap:round;stroke-linejoin:round;stroke-miterlimit:1.8;paint-order:fill markers stroke;stop-color:#000000"
       d="M 0.52916663,0.52916643 H 5.2916664 c 0.1465792,0 0.2645833,0.11800417 0.2645833,0.26458335 V 4.4979162 c 0,0.1465792 -0.1180041,0.2645833 -0.2645833,0.2645833 H 0.52916663 c -0.14657918,0 -0.26458335,-0.1180041 -0.26458335,-0.2645833 V 0.79374978 c 0,-0.14657918 0.11800417,-0.26458335 0.26458335,-0.26458335 z" /><path
       id="rect1345-7"
       style="fill:#f1f6f6;stroke-width:0.529167;stroke-linecap:round;stroke-linejoin:round;stroke-miterlimit:1.8;paint-order:fill markers stroke;stop-color:#000000"
       d="M 0.52916675,0.79374999 H 5.2916665 V 4.4979164 H 0.52916675 Z" /><path
       id="rect2472"
       style="opacity:1;fill:#343b40;stroke-width:0.529167;stroke-linecap:round;stroke-linejoin:round;stroke-miterlimit:1.8;paint-order:fill markers stroke;stop-color:#000000"
       d="M 0.52916666 0.52916666 C 0.38258763 0.52916666 0.26458333 0.64717096 0.26458333 0.79374999 L 0.26458333 1.5875 L 0.26458333 1.8520833 L 0.26458333 2.1166666 L 0.52916666 2.1166666 L 5.2916666 2.1166666 L 5.55625 2.1166666 L 5.55625 1.8520833 L 5.55625 1.5875 L 5.55625 0.79374999 C 5.55625 0.64717096 5.4382457 0.52916666 5.2916666 0.52916666 L 0.52916666 0.52916666 z " /><path
       id="rect4184"
       style="opacity:1;fill:url(#linearGradient7451);stroke-width:0.529167;stroke-linecap:round;stroke-linejoin:round;stroke-miterlimit:1.8;paint-order:fill markers stroke;stop-color:#000000;fill-opacity:1"
       d="M 0.52916663,0.79374975 H 5.2916664 V 1.852083 H 0.52916663 Z" /><path
       id="rect1345-5"
       style="fill:#90a4ae;stroke-width:0.529167;stroke-linecap:round;stroke-linejoin:round;stroke-miterlimit:1.8;paint-order:fill markers stroke;stop-color:#000000"
       d="M 1.0583332,1.5874995 H 5.820833 c 0.1465792,0 0.2645833,0.1180042 0.2645833,0.2645834 v 3.7041664 c 0,0.1465792 -0.1180041,0.2645833 -0.2645833,0.2645833 H 1.0583332 c -0.14657916,0 -0.26458336,-0.1180041 -0.26458336,-0.2645833 V 1.8520829 c 0,-0.1465792 0.1180042,-0.2645834 0.26458336,-0.2645834 z" /><path
       id="rect1345-7-3"
       style="fill:#f1f6f6;stroke-width:0.529167;stroke-linecap:round;stroke-linejoin:round;stroke-miterlimit:1.8;paint-order:fill markers stroke;stop-color:#000000"
       d="M 1.0583333,1.8520831 H 5.8208331 V 5.5562495 H 1.0583333 Z" /><path
       id="rect2472-5"
       style="fill:#115799;fill-opacity:1;stroke-width:0.529167;stroke-linecap:round;stroke-linejoin:round;stroke-miterlimit:1.8;paint-order:fill markers stroke;stop-color:#000000"
       d="M 1.0583333 1.5875 C 0.91175431 1.5875 0.79374999 1.7055043 0.79374999 1.8520833 L 0.79374999 2.6458333 L 0.79374999 2.9104166 L 0.79374999 3.175 L 1.0583333 3.175 L 5.8208333 3.175 L 6.0854166 3.175 L 6.0854166 2.9104166 L 6.0854166 2.6458333 L 6.0854166 1.8520833 C 6.0854166 1.7055043 5.9674123 1.5875 5.8208333 1.5875 L 1.0583333 1.5875 z " /><path
       id="rect4184-2"
       style="fill:url(#linearGradient6201);fill-opacity:1;stroke-width:0.529167;stroke-linecap:round;stroke-linejoin:round;stroke-miterlimit:1.8;paint-order:fill markers stroke;stop-color:#000000"
       d="M 1.0583332,1.8520828 H 5.820833 V 2.9104161 H 1.0583332 Z" /></g></svg>
