<?xml version="1.0" encoding="UTF-8" standalone="no"?>
<!-- Created with Inkscape (http://www.inkscape.org/) -->

<svg
   width="64"
   height="64"
   viewBox="0 0 64 64"
   version="1.1"
   id="svg8"
   inkscape:version="1.2 (dc2aedaf03, 2022-05-15)"
   sodipodi:docname="alt-github.svg"
   xmlns:inkscape="http://www.inkscape.org/namespaces/inkscape"
   xmlns:sodipodi="http://sodipodi.sourceforge.net/DTD/sodipodi-0.dtd"
   xmlns:xlink="http://www.w3.org/1999/xlink"
   xmlns="http://www.w3.org/2000/svg"
   xmlns:svg="http://www.w3.org/2000/svg"
   xmlns:rdf="http://www.w3.org/1999/02/22-rdf-syntax-ns#"
   xmlns:cc="http://creativecommons.org/ns#"
   xmlns:dc="http://purl.org/dc/elements/1.1/">
  <title
     id="title7895">Antu icon Theme</title>
  <defs
     id="defs2">
    <linearGradient
       inkscape:collect="always"
       xlink:href="#linearGradient3169"
       id="linearGradient2539"
       gradientUnits="userSpaceOnUse"
       gradientTransform="translate(-33.0134,5.09842)"
       x1="32"
       y1="298.64999"
       x2="32"
       y2="279.64999" />
    <linearGradient
       inkscape:collect="always"
       id="linearGradient3169">
      <stop
         style="stop-color:#e7ebed;stop-opacity:1;"
         offset="0"
         id="stop3165" />
      <stop
         style="stop-color:#ffffff;stop-opacity:1"
         offset="1"
         id="stop3167" />
    </linearGradient>
    <linearGradient
       inkscape:collect="always"
       xlink:href="#linearGradient37989"
       id="linearGradient28750"
       gradientUnits="userSpaceOnUse"
       x1="18"
       y1="361.64999"
       x2="18"
       y2="346.64999" />
    <linearGradient
       id="linearGradient37989"
       inkscape:collect="always">
      <stop
         id="stop37985"
         offset="0"
         style="stop-color:#4b6781;stop-opacity:1;" />
      <stop
         id="stop37987"
         offset="1"
         style="stop-color:#30455c;stop-opacity:1;" />
    </linearGradient>
    <linearGradient
       inkscape:collect="always"
       xlink:href="#linearGradient37017"
       id="linearGradient28752"
       gradientUnits="userSpaceOnUse"
       x1="38"
       y1="404.64999"
       x2="38"
       y2="354.64999" />
    <linearGradient
       id="linearGradient37017"
       inkscape:collect="always">
      <stop
         id="stop37013"
         offset="0"
         style="stop-color:#466077;stop-opacity:1;" />
      <stop
         id="stop37015"
         offset="1"
         style="stop-color:#627c8a;stop-opacity:1;" />
    </linearGradient>
  </defs>
  <sodipodi:namedview
     id="base"
     pagecolor="#ffffff"
     bordercolor="#666666"
     borderopacity="1.0"
     inkscape:pageopacity="0.0"
     inkscape:pageshadow="2"
     inkscape:zoom="7.919596"
     inkscape:cx="31.946074"
     inkscape:cy="4.4825519"
     inkscape:document-units="px"
     inkscape:current-layer="g4898"
     showgrid="true"
     units="px"
     inkscape:window-width="2160"
     inkscape:window-height="1337"
     inkscape:window-x="0"
     inkscape:window-y="0"
     inkscape:window-maximized="1"
     objecttolerance="10"
     gridtolerance="10"
     guidetolerance="10"
     inkscape:snap-bbox="true"
     inkscape:bbox-paths="true"
     inkscape:bbox-nodes="true"
     inkscape:snap-bbox-edge-midpoints="true"
     inkscape:snap-bbox-midpoints="true"
     inkscape:object-paths="true"
     inkscape:snap-intersection-paths="true"
     inkscape:showpageshadow="false"
     inkscape:pagecheckerboard="0"
     inkscape:deskcolor="#d1d1d1">
    <inkscape:grid
       type="xygrid"
       id="grid7897"
       empspacing="4" />
  </sodipodi:namedview>
  <metadata
     id="metadata5">
    <rdf:RDF>
      <cc:Work
         rdf:about="">
        <dc:format>image/svg+xml</dc:format>
        <dc:type
           rdf:resource="http://purl.org/dc/dcmitype/StillImage" />
        <dc:title>Antu icon Theme</dc:title>
      </cc:Work>
    </rdf:RDF>
  </metadata>
  <g
     inkscape:label="Capa 1"
     inkscape:groupmode="layer"
     id="layer1"
     transform="translate(0,-250.64999)">
    <g
       id="g4898"
       transform="translate(33,-4.09842)">
      <g
         transform="translate(-39,-88.90159)"
         id="g1529-3-2">
        <path
           inkscape:connector-curvature="0"
           id="path1475-60-9"
           d="m 12,345.65 c -4,0 -6,3 -6,6 v 49 c 0,2.75269 2.2472973,5 5,5 h 54 c 2.752703,0 5,-2.24731 5,-5 v -42 c 0,-2.75271 -2.247297,-5 -5,-5 H 38 c -0.305556,0 -0.669523,-0.21927 -1.185547,-0.87109 -0.516024,-0.65182 -1.073964,-1.63475 -1.714844,-2.66016 -0.64088,-1.02541 -1.369755,-2.1008 -2.341797,-2.96484 C 31.785773,346.28987 30.516667,345.65 29,345.65 Z"
           style="color:#000000;font-style:normal;font-variant:normal;font-weight:normal;font-stretch:normal;font-size:medium;line-height:normal;font-family:sans-serif;font-variant-ligatures:normal;font-variant-position:normal;font-variant-caps:normal;font-variant-numeric:normal;font-variant-alternates:normal;font-feature-settings:normal;text-indent:0;text-align:start;text-decoration:none;text-decoration-line:none;text-decoration-style:solid;text-decoration-color:#000000;letter-spacing:normal;word-spacing:normal;text-transform:none;writing-mode:lr-tb;direction:ltr;text-orientation:mixed;dominant-baseline:auto;baseline-shift:baseline;text-anchor:start;white-space:normal;shape-padding:0;clip-rule:nonzero;display:inline;overflow:visible;visibility:visible;opacity:1;isolation:auto;mix-blend-mode:normal;color-interpolation:sRGB;color-interpolation-filters:linearRGB;solid-color:#000000;solid-opacity:1;vector-effect:none;fill:#223240;fill-opacity:1;fill-rule:nonzero;stroke:none;stroke-width:2;stroke-linecap:round;stroke-linejoin:round;stroke-miterlimit:4;stroke-dasharray:none;stroke-dashoffset:0;stroke-opacity:1;color-rendering:auto;image-rendering:auto;shape-rendering:auto;text-rendering:auto;enable-background:accumulate"
           sodipodi:nodetypes="ssssssssssssss" />
        <path
           sodipodi:nodetypes="sccssssssss"
           inkscape:connector-curvature="0"
           id="rect1374-3-6-0"
           d="m 12,346.64999 h 16.999999 c 5,0 6.000002,8 9.000002,8 H 65 c 2.216,0 4,1.784 4,4 v 42 c 0,2.216 -1.784,4 -4,4 H 11 c -2.2159999,0 -3.9999999,-1.784 -3.9999999,-4 l 3e-7,-48.97939 C 7.0000004,348.65 9,346.64999 12,346.64999 Z"
           style="opacity:1;vector-effect:none;fill:url(#linearGradient28750);fill-opacity:1;stroke:none;stroke-width:2;stroke-linecap:round;stroke-linejoin:round;stroke-miterlimit:4;stroke-dasharray:none;stroke-dashoffset:0;stroke-opacity:1" />
        <path
           inkscape:connector-curvature="0"
           id="path1453-2-2"
           d="m 38,353.65 c -1.194444,0 -2.080477,0.78073 -2.751953,1.62891 -0.671476,0.84818 -1.238536,1.86525 -1.847656,2.83984 -0.60912,0.97459 -1.255245,1.8992 -1.970703,2.53516 C 30.714228,361.28987 29.983333,361.65 29,361.65 H 11 c -2.7527027,0 -5,2.24729 -5,5 v 34 c 0,2.75269 2.2472973,5 5,5 h 54 c 2.752703,0 5,-2.24731 5,-5 v -42 c 0,-2.75271 -2.247297,-5 -5,-5 z"
           style="color:#000000;font-style:normal;font-variant:normal;font-weight:normal;font-stretch:normal;font-size:medium;line-height:normal;font-family:sans-serif;font-variant-ligatures:normal;font-variant-position:normal;font-variant-caps:normal;font-variant-numeric:normal;font-variant-alternates:normal;font-feature-settings:normal;text-indent:0;text-align:start;text-decoration:none;text-decoration-line:none;text-decoration-style:solid;text-decoration-color:#000000;letter-spacing:normal;word-spacing:normal;text-transform:none;writing-mode:lr-tb;direction:ltr;text-orientation:mixed;dominant-baseline:auto;baseline-shift:baseline;text-anchor:start;white-space:normal;shape-padding:0;clip-rule:nonzero;display:inline;overflow:visible;visibility:visible;opacity:1;isolation:auto;mix-blend-mode:normal;color-interpolation:sRGB;color-interpolation-filters:linearRGB;solid-color:#000000;solid-opacity:1;vector-effect:none;fill:#223240;fill-opacity:1;fill-rule:nonzero;stroke:none;stroke-width:2;stroke-linecap:round;stroke-linejoin:round;stroke-miterlimit:4;stroke-dasharray:none;stroke-dashoffset:0;stroke-opacity:1;color-rendering:auto;image-rendering:auto;shape-rendering:auto;text-rendering:auto;enable-background:accumulate" />
        <path
           sodipodi:nodetypes="sccssssssss"
           inkscape:connector-curvature="0"
           id="rect1374-4-4-6-8"
           d="m 11,362.64999 h 17.999999 c 5,0 6.000002,-8 9.000002,-8 H 65 c 2.216,0 4,1.784 4,4 v 42 c 0,2.216 -1.784,4 -4,4 H 11 c -2.2159999,0 -3.9999996,-1.784 -3.9999996,-4 v -34 c 0,-2.216 1.7839997,-4 3.9999996,-4 z"
           style="opacity:1;vector-effect:none;fill:url(#linearGradient28752);fill-opacity:1;stroke:none;stroke-width:2;stroke-linecap:round;stroke-linejoin:round;stroke-miterlimit:4;stroke-dasharray:none;stroke-dashoffset:0;stroke-opacity:1" />
      </g>
      <path
         inkscape:connector-curvature="0"
         style="opacity:1;fill:#35454d;fill-opacity:1;stroke:none;stroke-width:2;stroke-linecap:round;stroke-linejoin:round;stroke-miterlimit:4;stroke-dasharray:none;stroke-dashoffset:0;stroke-opacity:1"
         d="m -8.019528,282.748 c -0.544619,0.0107 -0.980518,0.45528 -0.980468,1 v 3.75781 c -0.633288,1.10101 -1,2.37585 -1,3.74219 0,3.00588 1.755381,5.58106 4.296874,6.77929 -1.398029,1.09661 -2.296875,2.79814 -2.296875,4.7207 v 0.20313 c -0.197399,-0.0676 -0.3923,-0.15803 -0.595702,-0.28516 -0.671735,-0.41983 -1.379819,-1.23892 -2.123047,-2.16797 -0.743228,-0.92902 -1.522526,-1.95954 -2.546875,-2.74609 -1.024349,-0.78656 -2.390543,-1.2922 -3.929687,-0.98437 a 1.0001,1.0001 0 1 0 0.390624,1.96093 c 0.960855,-0.19217 1.594662,0.0522 2.320313,0.60938 0.725651,0.5572 1.446353,1.4642 2.203125,2.41015 0.756772,0.94598 1.548688,1.93938 2.626953,2.61329 0.485662,0.30354 1.047953,0.51297 1.654296,0.60351 v 0.7832 4 c 0,0.55401 0.446,1 1,1 0.554,0 1,-0.44599 1,-1 v -1 -3 c 0,-0.277 0.112219,-0.52628 0.292969,-0.70703 0.18075,-0.18075 0.430031,-0.29297 0.707031,-0.29297 0.277,0 0.526281,0.11222 0.707031,0.29297 0.18075,0.18075 0.292969,0.43003 0.292969,0.70703 v 4 c 0,0.55401 0.446,1 1,1 0.554,0 1,-0.44599 1,-1 v -1 -5 c 0,-0.277 0.112219,-0.52628 0.292969,-0.70703 0.18075,-0.18075 0.430031,-0.29297 0.707031,-0.29297 0.277,0 0.526281,0.11222 0.707031,0.29297 0.18075,0.18075 0.292969,0.43003 0.292969,0.70703 v 5 1 c 0,0.55401 0.446,1 1,1 0.554,0 1,-0.44599 1,-1 v -1 -3.04492 c 0,-0.277 0.112219,-0.52628 0.292969,-0.70703 0.18075,-0.18075 0.430031,-0.29297 0.707031,-0.29297 0.277,0 0.526281,0.11222 0.707031,0.29297 0.18075,0.18075 0.292969,0.43003 0.292969,0.70703 v 4.04492 c 0,0.55401 0.446,1 1,1 0.554,0 1,-0.44599 1,-1 v -1 -4 -2 c 0,-1.92256 -0.898846,-3.62409 -2.296875,-4.7207 2.541494,-1.19823 4.296875,-3.77341 4.296875,-6.77929 0,-1.36634 -0.366712,-2.64118 -1,-3.74219 V 283.748 c 1.84e-4,-0.56391 -0.465631,-1.01646 -1.029297,-1 -0.117292,0.004 -0.232989,0.0283 -0.341797,0.0723 l -3.05664,1.22265 c -0.658591,-0.18797 -1.35174,-0.29492 -2.072266,-0.29492 h -3 c -0.720526,0 -1.413675,0.10696 -2.072266,0.29492 l -3.05664,-1.22266 c -0.124064,-0.05 -0.256892,-0.0746 -0.390625,-0.0723 z"
         id="rect4374-9-7-3-8" />
      <path
         inkscape:connector-curvature="0"
         style="opacity:1;fill:url(#linearGradient2539);fill-opacity:1;stroke:none;stroke-width:2;stroke-linecap:round;stroke-linejoin:round;stroke-miterlimit:4;stroke-dasharray:none;stroke-dashoffset:0;stroke-opacity:1"
         d="m -8.019528,281.74842 c -0.544619,0.0107 -0.980518,0.45528 -0.980468,1 v 3.75781 c -0.633288,1.10101 -1,2.37585 -1,3.74219 0,3.00588 1.755381,5.58106 4.296874,6.77929 -1.398029,1.09661 -2.296875,2.79814 -2.296875,4.7207 v 0.20313 c -0.197399,-0.0676 -0.3923,-0.15803 -0.595702,-0.28516 -0.671735,-0.41983 -1.379819,-1.23892 -2.123047,-2.16797 -0.743228,-0.92902 -1.522526,-1.95954 -2.546875,-2.74609 -1.024349,-0.78656 -2.390543,-1.2922 -3.929687,-0.98437 a 1.0001,1.0001 0 1 0 0.390624,1.96093 c 0.960855,-0.19217 1.594662,0.0522 2.320313,0.60938 0.725651,0.5572 1.446353,1.4642 2.203125,2.41015 0.756772,0.94598 1.548688,1.93938 2.626953,2.61329 0.485662,0.30354 1.047953,0.51297 1.654296,0.60351 v 0.7832 4 c 0,0.55401 0.446,1 1,1 0.554,0 1,-0.44599 1,-1 v -1 -3 c 0,-0.277 0.112219,-0.52628 0.292969,-0.70703 0.18075,-0.18075 0.430031,-0.29297 0.707031,-0.29297 0.277,0 0.526281,0.11222 0.707031,0.29297 0.18075,0.18075 0.292969,0.43003 0.292969,0.70703 v 4 c 0,0.55401 0.446,1 1,1 0.554,0 1,-0.44599 1,-1 v -1 -5 c 0,-0.277 0.112219,-0.52628 0.292969,-0.70703 0.18075,-0.18075 0.430031,-0.29297 0.707031,-0.29297 0.277,0 0.526281,0.11222 0.707031,0.29297 0.18075,0.18075 0.292969,0.43003 0.292969,0.70703 v 5 1 c 0,0.55401 0.446,1 1,1 0.554,0 1,-0.44599 1,-1 v -1 -3.04492 c 0,-0.277 0.112219,-0.52628 0.292969,-0.70703 0.18075,-0.18075 0.430031,-0.29297 0.707031,-0.29297 0.277,0 0.526281,0.11222 0.707031,0.29297 0.18075,0.18075 0.292969,0.43003 0.292969,0.70703 v 4.04492 c 0,0.55401 0.446,1 1,1 0.554,0 1,-0.44599 1,-1 v -1 -4 -2 c 0,-1.92256 -0.898846,-3.62409 -2.296875,-4.7207 2.541494,-1.19823 4.296875,-3.77341 4.296875,-6.77929 0,-1.36634 -0.366712,-2.64118 -1,-3.74219 v -3.75781 c 1.84e-4,-0.56391 -0.465631,-1.01646 -1.029297,-1 -0.117292,0.004 -0.232989,0.0283 -0.341797,0.0723 l -3.05664,1.22265 c -0.658591,-0.18797 -1.35174,-0.29492 -2.072266,-0.29492 h -3 c -0.720526,0 -1.413675,0.10696 -2.072266,0.29492 l -3.05664,-1.22266 c -0.124064,-0.05 -0.256892,-0.0746 -0.390625,-0.0723 z"
         id="rect4374-9-7-3" />
    </g>
  </g>
</svg>
