<?xml version="1.0" encoding="UTF-8" standalone="no"?>
<!-- Created with Inkscape (http://www.inkscape.org/) -->

<svg
   xmlns:dc="http://purl.org/dc/elements/1.1/"
   xmlns:cc="http://creativecommons.org/ns#"
   xmlns:rdf="http://www.w3.org/1999/02/22-rdf-syntax-ns#"
   xmlns:svg="http://www.w3.org/2000/svg"
   xmlns="http://www.w3.org/2000/svg"
   xmlns:xlink="http://www.w3.org/1999/xlink"
   xmlns:sodipodi="http://sodipodi.sourceforge.net/DTD/sodipodi-0.dtd"
   xmlns:inkscape="http://www.inkscape.org/namespaces/inkscape"
   width="64"
   height="64"
   viewBox="0 0 64 64"
   version="1.1"
   id="svg8"
   inkscape:version="0.92.2 2405546, 2018-03-11"
   sodipodi:docname="alt-videos.svg">
  <title
     id="title7895">Antu icon Theme</title>
  <defs
     id="defs2">
    <linearGradient
       gradientUnits="userSpaceOnUse"
       y2="280.6478"
       x2="28"
       y1="298.64999"
       x1="28"
       id="linearGradient5249"
       xlink:href="#linearGradient4631-3"
       inkscape:collect="always"
       gradientTransform="translate(-46,5.99998)" />
    <linearGradient
       id="linearGradient4631-3"
       inkscape:collect="always">
      <stop
         id="stop4627-7"
         offset="0"
         style="stop-color:#c9c8f9;stop-opacity:1" />
      <stop
         id="stop4629-1"
         offset="1"
         style="stop-color:#f5f2ff;stop-opacity:1" />
    </linearGradient>
    <linearGradient
       gradientTransform="translate(-52,-87.00002)"
       inkscape:collect="always"
       xlink:href="#linearGradient856"
       id="linearGradient972-09-2"
       x1="38"
       y1="404.64999"
       x2="38"
       y2="354.64999"
       gradientUnits="userSpaceOnUse" />
    <linearGradient
       inkscape:collect="always"
       id="linearGradient856">
      <stop
         style="stop-color:#6778d9;stop-opacity:1"
         offset="0"
         id="stop852" />
      <stop
         style="stop-color:#8997e5;stop-opacity:1"
         offset="1"
         id="stop854" />
    </linearGradient>
    <linearGradient
       gradientTransform="translate(-52,-87.00002)"
       inkscape:collect="always"
       xlink:href="#linearGradient3161"
       id="linearGradient940-4-5"
       x1="18"
       y1="361.64999"
       x2="18"
       y2="346.64999"
       gradientUnits="userSpaceOnUse" />
    <linearGradient
       inkscape:collect="always"
       id="linearGradient3161">
      <stop
         style="stop-color:#5c6bbf;stop-opacity:1"
         offset="0"
         id="stop3157" />
      <stop
         style="stop-color:#6a7ada;stop-opacity:1"
         offset="1"
         id="stop3159" />
    </linearGradient>
  </defs>
  <sodipodi:namedview
     id="base"
     pagecolor="#ffffff"
     bordercolor="#666666"
     borderopacity="1.0"
     inkscape:pageopacity="0.0"
     inkscape:pageshadow="2"
     inkscape:zoom="5.6"
     inkscape:cx="-4.9041006"
     inkscape:cy="32.573541"
     inkscape:document-units="px"
     inkscape:current-layer="layer1"
     showgrid="true"
     units="px"
     inkscape:window-width="1360"
     inkscape:window-height="711"
     inkscape:window-x="0"
     inkscape:window-y="28"
     inkscape:window-maximized="1"
     objecttolerance="10"
     gridtolerance="10"
     guidetolerance="10"
     inkscape:snap-bbox="true"
     inkscape:bbox-paths="true"
     inkscape:bbox-nodes="true"
     inkscape:snap-bbox-edge-midpoints="true"
     inkscape:snap-bbox-midpoints="true"
     inkscape:object-paths="true"
     inkscape:snap-intersection-paths="true"
     inkscape:showpageshadow="false">
    <inkscape:grid
       type="xygrid"
       id="grid7897"
       empspacing="4" />
  </sodipodi:namedview>
  <metadata
     id="metadata5">
    <rdf:RDF>
      <cc:Work
         rdf:about="">
        <dc:format>image/svg+xml</dc:format>
        <dc:type
           rdf:resource="http://purl.org/dc/dcmitype/StillImage" />
        <dc:title>Antu icon Theme</dc:title>
      </cc:Work>
    </rdf:RDF>
  </metadata>
  <g
     inkscape:label="Capa 1"
     inkscape:groupmode="layer"
     id="layer1"
     transform="translate(0,-250.64999)">
    <g
       id="g6701"
       transform="translate(46,-5.99999)">
      <path
         inkscape:connector-curvature="0"
         id="path1475-8-8"
         d="m -41,258.64998 c -2.752703,0 -5,2.24729 -5,5 v 50 c 0,2.75269 2.247297,5 5,5 h 54 c 2.752703,0 5,-2.24731 5,-5 v -42 c 0,-2.75271 -2.247297,-5 -5,-5 h -27 c -0.305556,0 -0.669523,-0.21927 -1.185547,-0.87109 -0.516024,-0.65182 -1.073964,-1.63475 -1.714844,-2.66016 -0.64088,-1.02541 -1.369755,-2.1008 -2.341797,-2.96484 -0.972039,-0.86404 -2.241145,-1.50391 -3.757812,-1.50391 z"
         style="color:#000000;font-style:normal;font-variant:normal;font-weight:normal;font-stretch:normal;font-size:medium;line-height:normal;font-family:sans-serif;font-variant-ligatures:normal;font-variant-position:normal;font-variant-caps:normal;font-variant-numeric:normal;font-variant-alternates:normal;font-feature-settings:normal;text-indent:0;text-align:start;text-decoration:none;text-decoration-line:none;text-decoration-style:solid;text-decoration-color:#000000;letter-spacing:normal;word-spacing:normal;text-transform:none;writing-mode:lr-tb;direction:ltr;text-orientation:mixed;dominant-baseline:auto;baseline-shift:baseline;text-anchor:start;white-space:normal;shape-padding:0;clip-rule:nonzero;display:inline;overflow:visible;visibility:visible;opacity:1;isolation:auto;mix-blend-mode:normal;color-interpolation:sRGB;color-interpolation-filters:linearRGB;solid-color:#000000;solid-opacity:1;vector-effect:none;fill:#3f4980;fill-opacity:1;fill-rule:nonzero;stroke:none;stroke-width:2;stroke-linecap:round;stroke-linejoin:round;stroke-miterlimit:4;stroke-dasharray:none;stroke-dashoffset:0;stroke-opacity:1;color-rendering:auto;image-rendering:auto;shape-rendering:auto;text-rendering:auto;enable-background:accumulate" />
      <path
         sodipodi:nodetypes="sccssssssss"
         inkscape:connector-curvature="0"
         id="rect1374-3-6-9"
         d="m -41,259.64997 h 17.999999 c 5,0 6.000002,8 9.000002,8 H 13 c 2.216,0 4,1.784 4,4 v 42 c 0,2.216 -1.784,4 -4,4 h -54 c -2.216,0 -4,-1.784 -4,-4 v -50 c 0,-2.216 1.784,-4 4,-4 z"
         style="opacity:1;vector-effect:none;fill:url(#linearGradient940-4-5);fill-opacity:1;stroke:none;stroke-width:2;stroke-linecap:round;stroke-linejoin:round;stroke-miterlimit:4;stroke-dasharray:none;stroke-dashoffset:0;stroke-opacity:1" />
      <path
         inkscape:connector-curvature="0"
         id="path1453-83-1"
         d="m -14,266.64998 c -1.194444,0 -2.080477,0.78073 -2.751953,1.62891 -0.671476,0.84818 -1.238536,1.86525 -1.847656,2.83984 -0.60912,0.97459 -1.255245,1.8992 -1.970703,2.53516 -0.71546,0.63596 -1.446355,0.99609 -2.429688,0.99609 h -18 c -2.752703,0 -5,2.24729 -5,5 v 34 c 0,2.75269 2.247297,5 5,5 h 54 c 2.752703,0 5,-2.24731 5,-5 v -42 c 0,-2.75271 -2.247297,-5 -5,-5 z"
         style="color:#000000;font-style:normal;font-variant:normal;font-weight:normal;font-stretch:normal;font-size:medium;line-height:normal;font-family:sans-serif;font-variant-ligatures:normal;font-variant-position:normal;font-variant-caps:normal;font-variant-numeric:normal;font-variant-alternates:normal;font-feature-settings:normal;text-indent:0;text-align:start;text-decoration:none;text-decoration-line:none;text-decoration-style:solid;text-decoration-color:#000000;letter-spacing:normal;word-spacing:normal;text-transform:none;writing-mode:lr-tb;direction:ltr;text-orientation:mixed;dominant-baseline:auto;baseline-shift:baseline;text-anchor:start;white-space:normal;shape-padding:0;clip-rule:nonzero;display:inline;overflow:visible;visibility:visible;opacity:1;isolation:auto;mix-blend-mode:normal;color-interpolation:sRGB;color-interpolation-filters:linearRGB;solid-color:#000000;solid-opacity:1;vector-effect:none;fill:#4b5799;fill-opacity:1;fill-rule:nonzero;stroke:none;stroke-width:2;stroke-linecap:round;stroke-linejoin:round;stroke-miterlimit:4;stroke-dasharray:none;stroke-dashoffset:0;stroke-opacity:1;color-rendering:auto;image-rendering:auto;shape-rendering:auto;text-rendering:auto;enable-background:accumulate" />
      <path
         sodipodi:nodetypes="sccssssssss"
         inkscape:connector-curvature="0"
         id="rect1374-4-4-83-5"
         d="m -41,275.64997 h 17.999999 c 5,0 6.000002,-8 9.000002,-8 H 13 c 2.216,0 4,1.784 4,4 v 42 c 0,2.216 -1.784,4 -4,4 h -54 c -2.216,0 -4,-1.784 -4,-4 v -34 c 0,-2.216 1.784,-4 4,-4 z"
         style="opacity:1;vector-effect:none;fill:url(#linearGradient972-09-2);fill-opacity:1;stroke:none;stroke-width:2;stroke-linecap:round;stroke-linejoin:round;stroke-miterlimit:4;stroke-dasharray:none;stroke-dashoffset:0;stroke-opacity:1" />
      <path
         sodipodi:nodetypes="sssssscccccccsss"
         inkscape:connector-curvature="0"
         id="rect4540-2"
         d="m -25,287.64778 c -1.108,0 -2,0.892 -2,2 v 14 c 0,1.108 0.892,2 2,2 h 14 c 1.108,0 2,-0.892 2,-2 v -4.77344 l 7.335938,6.52148 C -1.018907,305.96857 1.27e-4,305.51049 0,304.64778 v -16 c 1.84e-4,-0.56391 -0.465631,-1.01647 -1.029297,-1 -0.234597,0.007 -0.459295,0.0961 -0.634765,0.25195 L -9,294.42122 v -4.77344 c 0,-1.108 -0.892,-2 -2,-2 z"
         style="opacity:1;fill:#4b5799;fill-opacity:1;stroke:none;stroke-width:2;stroke-linecap:round;stroke-linejoin:round;stroke-miterlimit:4;stroke-dasharray:none;stroke-opacity:1" />
      <path
         sodipodi:nodetypes="sssssscccccccsss"
         inkscape:connector-curvature="0"
         id="rect4540"
         d="m -25,286.64778 c -1.108,0 -2,0.892 -2,2 v 14 c 0,1.108 0.892,2 2,2 h 14 c 1.108,0 2,-0.892 2,-2 v -4.77344 l 7.335938,6.52148 C -1.018907,304.96857 1.27e-4,304.51049 0,303.64778 v -16 c 1.84e-4,-0.56391 -0.465631,-1.01647 -1.029297,-1 -0.234597,0.007 -0.459295,0.0961 -0.634765,0.25195 L -9,293.42122 v -4.77344 c 0,-1.108 -0.892,-2 -2,-2 z"
         style="opacity:1;fill:url(#linearGradient5249);fill-opacity:1;stroke:none;stroke-width:2;stroke-linecap:round;stroke-linejoin:round;stroke-miterlimit:4;stroke-dasharray:none;stroke-opacity:1" />
    </g>
  </g>
</svg>
