<?xml version="1.0" encoding="UTF-8" standalone="no"?>
<!-- Created with Inkscape (http://www.inkscape.org/) -->

<svg
   width="64"
   height="64"
   viewBox="0 0 64 64"
   version="1.1"
   id="svg8"
   inkscape:version="1.2 (dc2aedaf03, 2022-05-15)"
   sodipodi:docname="alt-documents.svg"
   xmlns:inkscape="http://www.inkscape.org/namespaces/inkscape"
   xmlns:sodipodi="http://sodipodi.sourceforge.net/DTD/sodipodi-0.dtd"
   xmlns:xlink="http://www.w3.org/1999/xlink"
   xmlns="http://www.w3.org/2000/svg"
   xmlns:svg="http://www.w3.org/2000/svg"
   xmlns:rdf="http://www.w3.org/1999/02/22-rdf-syntax-ns#"
   xmlns:cc="http://creativecommons.org/ns#"
   xmlns:dc="http://purl.org/dc/elements/1.1/">
  <title
     id="title7895">Antu icon Theme</title>
  <defs
     id="defs2">
    <linearGradient
       gradientTransform="matrix(3.7795275,0,0,3.7795275,-69,-805.86971)"
       gradientUnits="userSpaceOnUse"
       y2="290.64999"
       x2="14.022917"
       y1="294.61874"
       x1="14.022917"
       id="linearGradient6997"
       xlink:href="#linearGradient4631-5"
       inkscape:collect="always" />
    <linearGradient
       id="linearGradient4631-5"
       inkscape:collect="always">
      <stop
         id="stop4627-78"
         offset="0"
         style="stop-color:#f2e9c2;stop-opacity:1" />
      <stop
         id="stop4629-5"
         offset="1"
         style="stop-color:#fffff2;stop-opacity:1" />
    </linearGradient>
    <linearGradient
       inkscape:collect="always"
       xlink:href="#linearGradient70577"
       id="linearGradient13286-6"
       gradientUnits="userSpaceOnUse"
       x1="18"
       y1="361.64999"
       x2="18"
       y2="346.64999" />
    <linearGradient
       id="linearGradient70577"
       inkscape:collect="always">
      <stop
         id="stop70573"
         offset="0"
         style="stop-color:#edb266;stop-opacity:1;" />
      <stop
         id="stop70575"
         offset="1"
         style="stop-color:#da8f33;stop-opacity:1;" />
    </linearGradient>
    <linearGradient
       inkscape:collect="always"
       xlink:href="#linearGradient69398"
       id="linearGradient13288-0"
       gradientUnits="userSpaceOnUse"
       x1="38"
       y1="404.64999"
       x2="38"
       y2="354.64999" />
    <linearGradient
       id="linearGradient69398"
       inkscape:collect="always">
      <stop
         id="stop69394"
         offset="0"
         style="stop-color:#f1a03b;stop-opacity:1;" />
      <stop
         id="stop69396"
         offset="1"
         style="stop-color:#f9b855;stop-opacity:1;" />
    </linearGradient>
  </defs>
  <sodipodi:namedview
     id="base"
     pagecolor="#ffffff"
     bordercolor="#666666"
     borderopacity="1.0"
     inkscape:pageopacity="0.0"
     inkscape:pageshadow="2"
     inkscape:zoom="5.6"
     inkscape:cx="-4.8214286"
     inkscape:cy="32.589286"
     inkscape:document-units="px"
     inkscape:current-layer="g3406"
     showgrid="true"
     units="px"
     inkscape:window-width="2160"
     inkscape:window-height="1337"
     inkscape:window-x="0"
     inkscape:window-y="0"
     inkscape:window-maximized="1"
     objecttolerance="10"
     gridtolerance="10"
     guidetolerance="10"
     inkscape:snap-bbox="true"
     inkscape:bbox-paths="true"
     inkscape:bbox-nodes="true"
     inkscape:snap-bbox-edge-midpoints="true"
     inkscape:snap-bbox-midpoints="true"
     inkscape:object-paths="true"
     inkscape:snap-intersection-paths="true"
     inkscape:showpageshadow="false"
     inkscape:pagecheckerboard="0"
     inkscape:deskcolor="#d1d1d1">
    <inkscape:grid
       type="xygrid"
       id="grid7897"
       empspacing="4" />
  </sodipodi:namedview>
  <metadata
     id="metadata5">
    <rdf:RDF>
      <cc:Work
         rdf:about="">
        <dc:format>image/svg+xml</dc:format>
        <dc:type
           rdf:resource="http://purl.org/dc/dcmitype/StillImage" />
        <dc:title>Antu icon Theme</dc:title>
      </cc:Work>
    </rdf:RDF>
  </metadata>
  <g
     inkscape:label="Capa 1"
     inkscape:groupmode="layer"
     id="layer1"
     transform="translate(0,-250.64999)">
    <g
       id="g3406"
       transform="translate(48,-6)">
      <g
         transform="translate(-54,-87.00001)"
         id="g1529-3-43">
        <path
           inkscape:connector-curvature="0"
           id="path1475-60-5"
           d="m 12,345.65 c -4,0 -6,3 -6,6 v 49 c 0,2.75269 2.2472973,5 5,5 h 54 c 2.752703,0 5,-2.24731 5,-5 v -42 c 0,-2.75271 -2.247297,-5 -5,-5 H 38 c -0.305556,0 -0.669523,-0.21927 -1.185547,-0.87109 -0.516024,-0.65182 -1.073964,-1.63475 -1.714844,-2.66016 -0.64088,-1.02541 -1.369755,-2.1008 -2.341797,-2.96484 C 31.785773,346.28987 30.516667,345.65 29,345.65 Z"
           style="color:#000000;font-style:normal;font-variant:normal;font-weight:normal;font-stretch:normal;font-size:medium;line-height:normal;font-family:sans-serif;font-variant-ligatures:normal;font-variant-position:normal;font-variant-caps:normal;font-variant-numeric:normal;font-variant-alternates:normal;font-feature-settings:normal;text-indent:0;text-align:start;text-decoration:none;text-decoration-line:none;text-decoration-style:solid;text-decoration-color:#000000;letter-spacing:normal;word-spacing:normal;text-transform:none;writing-mode:lr-tb;direction:ltr;text-orientation:mixed;dominant-baseline:auto;baseline-shift:baseline;text-anchor:start;white-space:normal;shape-padding:0;clip-rule:nonzero;display:inline;overflow:visible;visibility:visible;opacity:1;isolation:auto;mix-blend-mode:normal;color-interpolation:sRGB;color-interpolation-filters:linearRGB;solid-color:#000000;solid-opacity:1;vector-effect:none;fill:#b2752a;fill-opacity:1;fill-rule:nonzero;stroke:none;stroke-width:2;stroke-linecap:round;stroke-linejoin:round;stroke-miterlimit:4;stroke-dasharray:none;stroke-dashoffset:0;stroke-opacity:1;color-rendering:auto;image-rendering:auto;shape-rendering:auto;text-rendering:auto;enable-background:accumulate"
           sodipodi:nodetypes="ssssssssssssss" />
        <path
           sodipodi:nodetypes="sccssssssss"
           inkscape:connector-curvature="0"
           id="rect1374-3-6-1"
           d="m 12,346.64999 h 16.999999 c 5,0 6.000002,8 9.000002,8 H 65 c 2.216,0 4,1.784 4,4 v 42 c 0,2.216 -1.784,4 -4,4 H 11 c -2.2159999,0 -3.9999999,-1.784 -3.9999999,-4 l 3e-7,-48.97939 C 7.0000004,348.65 9,346.64999 12,346.64999 Z"
           style="opacity:1;vector-effect:none;fill:url(#linearGradient13286-6);fill-opacity:1;stroke:none;stroke-width:2;stroke-linecap:round;stroke-linejoin:round;stroke-miterlimit:4;stroke-dasharray:none;stroke-dashoffset:0;stroke-opacity:1" />
        <path
           inkscape:connector-curvature="0"
           id="path1453-2-7"
           d="m 38,353.65 c -1.194444,0 -2.080477,0.78073 -2.751953,1.62891 -0.671476,0.84818 -1.238536,1.86525 -1.847656,2.83984 -0.60912,0.97459 -1.255245,1.8992 -1.970703,2.53516 C 30.714228,361.28987 29.983333,361.65 29,361.65 H 11 c -2.7527027,0 -5,2.24729 -5,5 v 34 c 0,2.75269 2.2472973,5 5,5 h 54 c 2.752703,0 5,-2.24731 5,-5 v -42 c 0,-2.75271 -2.247297,-5 -5,-5 z"
           style="color:#000000;font-style:normal;font-variant:normal;font-weight:normal;font-stretch:normal;font-size:medium;line-height:normal;font-family:sans-serif;font-variant-ligatures:normal;font-variant-position:normal;font-variant-caps:normal;font-variant-numeric:normal;font-variant-alternates:normal;font-feature-settings:normal;text-indent:0;text-align:start;text-decoration:none;text-decoration-line:none;text-decoration-style:solid;text-decoration-color:#000000;letter-spacing:normal;word-spacing:normal;text-transform:none;writing-mode:lr-tb;direction:ltr;text-orientation:mixed;dominant-baseline:auto;baseline-shift:baseline;text-anchor:start;white-space:normal;shape-padding:0;clip-rule:nonzero;display:inline;overflow:visible;visibility:visible;opacity:1;isolation:auto;mix-blend-mode:normal;color-interpolation:sRGB;color-interpolation-filters:linearRGB;solid-color:#000000;solid-opacity:1;vector-effect:none;fill:#b2752a;fill-opacity:1;fill-rule:nonzero;stroke:none;stroke-width:2;stroke-linecap:round;stroke-linejoin:round;stroke-miterlimit:4;stroke-dasharray:none;stroke-dashoffset:0;stroke-opacity:1;color-rendering:auto;image-rendering:auto;shape-rendering:auto;text-rendering:auto;enable-background:accumulate" />
        <path
           sodipodi:nodetypes="sccssssssss"
           inkscape:connector-curvature="0"
           id="rect1374-4-4-6-4"
           d="m 11,362.64999 h 17.999999 c 5,0 6.000002,-8 9.000002,-8 H 65 c 2.216,0 4,1.784 4,4 v 42 c 0,2.216 -1.784,4 -4,4 H 11 c -2.2159999,0 -3.9999996,-1.784 -3.9999996,-4 v -34 c 0,-2.216 1.7839997,-4 3.9999996,-4 z"
           style="opacity:1;vector-effect:none;fill:url(#linearGradient13288-0);fill-opacity:1;stroke:none;stroke-width:2;stroke-linecap:round;stroke-linejoin:round;stroke-miterlimit:4;stroke-dasharray:none;stroke-dashoffset:0;stroke-opacity:1" />
      </g>
      <path
         sodipodi:nodetypes="sccssssss"
         inkscape:connector-curvature="0"
         id="rect6965"
         d="m -23.999955,285.64995 11.999954,5e-5 6,7 v 14.99995 c 0,1.10805 -0.892018,2.00005 -2.000043,2.00005 h -15.999911 c -1.108024,0 -2.000044,-0.89202 -2.000044,-2.00005 v -19.99993 c 0,-1.10805 0.89202,-2.00005 2.000044,-2.00007 z"
         style="opacity:1;fill:#cc8630;fill-opacity:1;stroke:none;stroke-width:2;stroke-linecap:round;stroke-linejoin:round;stroke-miterlimit:4;stroke-dasharray:none;stroke-opacity:1" />
      <path
         sodipodi:nodetypes="sccssssss"
         inkscape:connector-curvature="0"
         id="rect6965-6"
         d="m -23.999956,284.64995 11.999955,5e-5 6,7 v 14.99995 c 0,1.10804 -0.892018,2.00005 -2.000043,2.00005 h -15.999912 c -1.108025,-2e-5 -2.000043,-0.89202 -2.000043,-2.00007 V 286.65 c 0,-1.10805 0.892018,-2.00005 2.000043,-2.00005 z"
         style="opacity:1;fill:url(#linearGradient6997);fill-opacity:1;stroke:none;stroke-width:2;stroke-linecap:round;stroke-linejoin:round;stroke-miterlimit:4;stroke-dasharray:none;stroke-opacity:1" />
    </g>
  </g>
</svg>
