<?xml version="1.0" encoding="UTF-8" standalone="no"?>
<!-- Created with Inkscape (http://www.inkscape.org/) -->

<svg
   xmlns:dc="http://purl.org/dc/elements/1.1/"
   xmlns:cc="http://creativecommons.org/ns#"
   xmlns:rdf="http://www.w3.org/1999/02/22-rdf-syntax-ns#"
   xmlns:svg="http://www.w3.org/2000/svg"
   xmlns="http://www.w3.org/2000/svg"
   xmlns:xlink="http://www.w3.org/1999/xlink"
   xmlns:sodipodi="http://sodipodi.sourceforge.net/DTD/sodipodi-0.dtd"
   xmlns:inkscape="http://www.inkscape.org/namespaces/inkscape"
   width="64"
   height="64"
   viewBox="0 0 64 64"
   version="1.1"
   id="svg8"
   inkscape:version="0.91 r13725"
   sodipodi:docname="arch.svg">
  <title
     id="title7895">Antu icon Theme</title>
  <defs
     id="defs2">
    <linearGradient
       gradientUnits="userSpaceOnUse"
       y2="283.50626"
       x2="7.4083333"
       y1="295.14792"
       x1="7.4083333"
       id="linearGradient4616"
       xlink:href="#linearGradient4565"
       inkscape:collect="always"
       gradientTransform="matrix(3.7795275,0,0,3.7795275,-16,-799.86971)" />
    <linearGradient
       inkscape:collect="always"
       id="linearGradient4565">
      <stop
         style="stop-color:#1780f2;stop-opacity:1"
         offset="0"
         id="stop4561" />
      <stop
         style="stop-color:#02b3fe;stop-opacity:1"
         offset="1"
         id="stop4563" />
    </linearGradient>
  </defs>
  <sodipodi:namedview
     id="base"
     pagecolor="#ffffff"
     bordercolor="#666666"
     borderopacity="1.0"
     inkscape:pageopacity="0.0"
     inkscape:pageshadow="2"
     inkscape:zoom="1.4"
     inkscape:cx="62.079177"
     inkscape:cy="-24.323131"
     inkscape:document-units="px"
     inkscape:current-layer="layer1"
     showgrid="true"
     units="px"
     inkscape:window-width="1360"
     inkscape:window-height="697"
     inkscape:window-x="0"
     inkscape:window-y="0"
     inkscape:window-maximized="1"
     objecttolerance="10"
     gridtolerance="10"
     guidetolerance="10">
    <inkscape:grid
       type="xygrid"
       id="grid7897"
       empspacing="4" />
  </sodipodi:namedview>
  <metadata
     id="metadata5">
    <rdf:RDF>
      <cc:Work
         rdf:about="">
        <dc:format>image/svg+xml</dc:format>
        <dc:type
           rdf:resource="http://purl.org/dc/dcmitype/StillImage" />
        <dc:title>Antu icon Theme</dc:title>
      </cc:Work>
    </rdf:RDF>
  </metadata>
  <g
     inkscape:label="Capa 1"
     inkscape:groupmode="layer"
     id="layer1"
     transform="translate(0,-250.64999)">
    <g
       id="g1527"
       transform="translate(16,-8)">
      <path
         id="rect4593"
         d="m 16,260.64999 c 16.62,0 29.999999,13.37998 29.999999,30 0,16.61998 -13.379999,30 -29.999999,30 -16.619999,0 -29.999999,-13.38002 -29.999999,-30 0,-16.62002 13.38,-30 29.999999,-30 z"
         style="opacity:1;fill:#1463bf;fill-opacity:1;stroke:none;stroke-width:0.45000011;stroke-miterlimit:4;stroke-dasharray:none;stroke-opacity:1"
         inkscape:connector-curvature="0" />
      <path
         id="rect4593-5"
         d="m 16,261.64998 c 16.066,0 29.000001,12.93399 29.000001,29.00001 C 45.000001,306.716 32.066,319.65 16,319.65 c -16.066,0 -29,-12.934 -29,-29.00001 0,-16.06602 12.934,-29.00001 29,-29.00001 z"
         style="opacity:1;fill:url(#linearGradient4616);fill-opacity:1.0;stroke:none;stroke-width:0.43500012;stroke-miterlimit:4;stroke-dasharray:none;stroke-opacity:1"
         inkscape:connector-curvature="0" />
      <path
         inkscape:connector-curvature="0"
         id="path4199-2"
         d="M 16.000005,270.64998 C 11.25,287.27495 -3.0000055,308.64999 -3.0000055,308.64999 2.374654,305.06686 7.0185706,303.28192 11.551519,302.40169 a 4.7500026,5.9375031 0 0 1 -0.129897,-0.47777 4.7500026,5.9375031 0 0 1 -0.102051,-0.57521 4.7500026,5.9375031 0 0 1 -0.05567,-0.58911 4.7500026,5.9375031 0 0 1 -0.01394,-0.42212 4.7500026,5.9375031 0 0 1 0.02329,-0.59375 4.7500026,5.9375031 0 0 1 0.06959,-0.58447 4.7500026,5.9375031 0 0 1 0.120609,-0.57521 4.7500026,5.9375031 0 0 1 0.162344,-0.55666 4.7500026,5.9375031 0 0 1 0.204103,-0.53809 4.7500026,5.9375031 0 0 1 0.250486,-0.50561 4.7500026,5.9375031 0 0 1 0.287596,-0.47314 4.7500026,5.9375031 0 0 1 0.324712,-0.43139 4.7500026,5.9375031 0 0 1 0.352535,-0.39427 4.7500026,5.9375031 0 0 1 0.389651,-0.34329 4.7500026,5.9375031 0 0 1 0.412843,-0.29686 4.7500026,5.9375031 0 0 1 0.431394,-0.24122 4.7500026,5.9375031 0 0 1 0.449951,-0.18556 4.7500026,5.9375031 0 0 1 0.46387,-0.12984 4.7500026,5.9375031 0 0 1 0.47314,-0.0741 4.7500026,5.9375031 0 0 1 0.333985,-0.0148 4.7500026,5.9375031 0 0 1 0.473148,0.0278 4.7500026,5.9375031 0 0 1 0.468504,0.0929 4.7500026,5.9375031 0 0 1 0.463867,0.14398 4.7500026,5.9375031 0 0 1 0.445316,0.20393 4.7500026,5.9375031 0 0 1 0.426756,0.25975 4.7500026,5.9375031 0 0 1 0.403564,0.31081 4.7500026,5.9375031 0 0 1 0.38037,0.35718 4.7500026,5.9375031 0 0 1 0.347902,0.40356 4.7500026,5.9375031 0 0 1 0.310791,0.44532 4.7500026,5.9375031 0 0 1 0.278321,0.48243 4.7500026,5.9375031 0 0 1 0.236575,0.51486 4.7500026,5.9375031 0 0 1 0.190191,0.54274 4.7500026,5.9375031 0 0 1 0.153078,0.56591 4.7500026,5.9375031 0 0 1 0.10205,0.57522 4.7500026,5.9375031 0 0 1 0.05567,0.58911 4.7500026,5.9375031 0 0 1 0.01394,0.42211 4.7500026,5.9375031 0 0 1 -0.02328,0.59375 4.7500026,5.9375031 0 0 1 -0.06959,0.58447 4.7500026,5.9375031 0 0 1 -0.120608,0.5752 4.7500026,5.9375031 0 0 1 -0.08814,0.31079 c 4.532944,0.88021 9.176862,2.66517 14.55152,6.24828 0,0 -14.250008,-21.37499 -19.000008,-38.00001 z"
         style="fill:#1463bf;fill-opacity:1;fill-rule:evenodd;stroke:none;stroke-width:1px;stroke-linecap:butt;stroke-linejoin:miter;stroke-opacity:1" />
      <path
         inkscape:connector-curvature="0"
         id="path4199-2-9"
         d="m 16.000006,269.64964 c -4.750005,16.62497 -19.000011,38.00001 -19.000011,38.00001 5.374659,-3.58313 10.018576,-5.36807 14.551525,-6.2483 a 4.7500026,5.9375031 0 0 1 -0.129897,-0.47777 4.7500026,5.9375031 0 0 1 -0.102051,-0.57521 4.7500026,5.9375031 0 0 1 -0.05567,-0.58911 4.7500026,5.9375031 0 0 1 -0.01394,-0.42212 4.7500026,5.9375031 0 0 1 0.02329,-0.59375 4.7500026,5.9375031 0 0 1 0.06959,-0.58447 4.7500026,5.9375031 0 0 1 0.120609,-0.57521 4.7500026,5.9375031 0 0 1 0.162344,-0.55666 4.7500026,5.9375031 0 0 1 0.204103,-0.53809 4.7500026,5.9375031 0 0 1 0.250486,-0.50561 4.7500026,5.9375031 0 0 1 0.287596,-0.47314 4.7500026,5.9375031 0 0 1 0.324712,-0.43139 4.7500026,5.9375031 0 0 1 0.352534,-0.39427 4.7500026,5.9375031 0 0 1 0.389651,-0.34329 4.7500026,5.9375031 0 0 1 0.412844,-0.29686 4.7500026,5.9375031 0 0 1 0.431393,-0.24122 4.7500026,5.9375031 0 0 1 0.449952,-0.18556 4.7500026,5.9375031 0 0 1 0.46387,-0.12984 4.7500026,5.9375031 0 0 1 0.47314,-0.0741 4.7500026,5.9375031 0 0 1 0.333985,-0.0148 4.7500026,5.9375031 0 0 1 0.473147,0.0278 4.7500026,5.9375031 0 0 1 0.468504,0.0929 4.7500026,5.9375031 0 0 1 0.463867,0.14398 4.7500026,5.9375031 0 0 1 0.445316,0.20393 4.7500026,5.9375031 0 0 1 0.426756,0.25975 4.7500026,5.9375031 0 0 1 0.403564,0.31081 4.7500026,5.9375031 0 0 1 0.38037,0.35718 4.7500026,5.9375031 0 0 1 0.347902,0.40356 4.7500026,5.9375031 0 0 1 0.310791,0.44532 4.7500026,5.9375031 0 0 1 0.278321,0.48243 4.7500026,5.9375031 0 0 1 0.236575,0.51486 4.7500026,5.9375031 0 0 1 0.190191,0.54274 4.7500026,5.9375031 0 0 1 0.153078,0.56591 4.7500026,5.9375031 0 0 1 0.10205,0.57522 4.7500026,5.9375031 0 0 1 0.05567,0.58911 4.7500026,5.9375031 0 0 1 0.01394,0.42211 4.7500026,5.9375031 0 0 1 -0.02328,0.59375 4.7500026,5.9375031 0 0 1 -0.06959,0.58447 4.7500026,5.9375031 0 0 1 -0.120608,0.5752 4.7500026,5.9375031 0 0 1 -0.08814,0.31079 c 4.532944,0.88021 9.176862,2.66517 14.55152,6.24828 0,0 -14.250008,-21.37499 -19.000008,-38.00001 z"
         style="fill:#f1f9ff;fill-opacity:1;fill-rule:evenodd;stroke:none;stroke-width:1px;stroke-linecap:butt;stroke-linejoin:miter;stroke-opacity:1" />
    </g>
  </g>
</svg>
