<?xml version="1.0" encoding="UTF-8" standalone="no"?>
<!-- Created with Inkscape (http://www.inkscape.org/) -->

<svg
   width="64"
   height="64"
   viewBox="0 0 64 64"
   version="1.1"
   id="svg8"
   inkscape:version="1.2 (dc2aedaf03, 2022-05-15)"
   sodipodi:docname="folder-blender.svg"
   xml:space="preserve"
   xmlns:inkscape="http://www.inkscape.org/namespaces/inkscape"
   xmlns:sodipodi="http://sodipodi.sourceforge.net/DTD/sodipodi-0.dtd"
   xmlns:xlink="http://www.w3.org/1999/xlink"
   xmlns="http://www.w3.org/2000/svg"
   xmlns:svg="http://www.w3.org/2000/svg"
   xmlns:rdf="http://www.w3.org/1999/02/22-rdf-syntax-ns#"
   xmlns:cc="http://creativecommons.org/ns#"
   xmlns:dc="http://purl.org/dc/elements/1.1/"><title
     id="title7895">Antu icon Theme</title><defs
     id="defs2"><linearGradient
       inkscape:collect="always"
       id="linearGradient24489"><stop
         style="stop-color:#c0f6f9;stop-opacity:1;"
         offset="0"
         id="stop24485" /><stop
         style="stop-color:#e4f9fb;stop-opacity:1;"
         offset="1"
         id="stop24487" /></linearGradient><linearGradient
       inkscape:collect="always"
       xlink:href="#linearGradient10239"
       id="linearGradient940"
       x1="18"
       y1="361.64999"
       x2="18"
       y2="346.64999"
       gradientUnits="userSpaceOnUse" /><linearGradient
       id="linearGradient10239"
       inkscape:collect="always"><stop
         id="stop10235"
         offset="0"
         style="stop-color:#479df0;stop-opacity:1;" /><stop
         id="stop10237"
         offset="1"
         style="stop-color:#0e6fd8;stop-opacity:1;" /></linearGradient><linearGradient
       inkscape:collect="always"
       xlink:href="#linearGradient10231"
       id="linearGradient972"
       x1="38"
       y1="404.64999"
       x2="38"
       y2="354.64999"
       gradientUnits="userSpaceOnUse" /><linearGradient
       id="linearGradient10231"
       inkscape:collect="always"><stop
         id="stop10227"
         offset="0"
         style="stop-color:#3ea0f4;stop-opacity:1;" /><stop
         id="stop10229"
         offset="1"
         style="stop-color:#50c2f9;stop-opacity:1" /></linearGradient><linearGradient
       inkscape:collect="always"
       xlink:href="#linearGradient24489"
       id="linearGradient24491"
       x1="5.1302238"
       y1="7.6846085"
       x2="5.1302238"
       y2="1.0700252"
       gradientUnits="userSpaceOnUse" /></defs><sodipodi:namedview
     id="base"
     pagecolor="#ffffff"
     bordercolor="#666666"
     borderopacity="1.0"
     inkscape:pageopacity="0.0"
     inkscape:pageshadow="2"
     inkscape:zoom="15.999999"
     inkscape:cx="40.437503"
     inkscape:cy="34.156252"
     inkscape:document-units="px"
     inkscape:current-layer="layer1"
     showgrid="true"
     units="px"
     inkscape:window-width="2160"
     inkscape:window-height="1337"
     inkscape:window-x="0"
     inkscape:window-y="0"
     inkscape:window-maximized="1"
     objecttolerance="10"
     gridtolerance="10"
     guidetolerance="10"
     inkscape:snap-bbox="true"
     inkscape:bbox-paths="true"
     inkscape:bbox-nodes="true"
     inkscape:snap-bbox-edge-midpoints="true"
     inkscape:snap-bbox-midpoints="true"
     inkscape:showpageshadow="2"
     inkscape:pagecheckerboard="0"
     inkscape:deskcolor="#d1d1d1"><inkscape:grid
       type="xygrid"
       id="grid7897"
       empspacing="4" /></sodipodi:namedview><metadata
     id="metadata5"><rdf:RDF><cc:Work
         rdf:about=""><dc:format>image/svg+xml</dc:format><dc:type
           rdf:resource="http://purl.org/dc/dcmitype/StillImage" /><dc:title>Antu icon Theme</dc:title></cc:Work></rdf:RDF></metadata><g
     inkscape:label="Capa 1"
     inkscape:groupmode="layer"
     id="layer1"
     transform="translate(0,-250.64999)"><g
       transform="translate(-6,-93.00001)"
       id="g1529"><path
         inkscape:connector-curvature="0"
         id="path1475"
         d="m 12,345.65 c -4,0 -6,3 -6,6 v 49 c 0,2.75269 2.2472973,5 5,5 h 54 c 2.752703,0 5,-2.24731 5,-5 v -42 c 0,-2.75271 -2.247297,-5 -5,-5 H 38 c -0.305556,0 -0.669523,-0.21927 -1.185547,-0.87109 -0.516024,-0.65182 -1.073964,-1.63475 -1.714844,-2.66016 -0.64088,-1.02541 -1.369755,-2.1008 -2.341797,-2.96484 C 31.785773,346.28987 30.516667,345.65 29,345.65 Z"
         style="color:#000000;font-style:normal;font-variant:normal;font-weight:normal;font-stretch:normal;font-size:medium;line-height:normal;font-family:sans-serif;font-variant-ligatures:normal;font-variant-position:normal;font-variant-caps:normal;font-variant-numeric:normal;font-variant-alternates:normal;font-feature-settings:normal;text-indent:0;text-align:start;text-decoration:none;text-decoration-line:none;text-decoration-style:solid;text-decoration-color:#000000;letter-spacing:normal;word-spacing:normal;text-transform:none;writing-mode:lr-tb;direction:ltr;text-orientation:mixed;dominant-baseline:auto;baseline-shift:baseline;text-anchor:start;white-space:normal;shape-padding:0;clip-rule:nonzero;display:inline;overflow:visible;visibility:visible;opacity:1;isolation:auto;mix-blend-mode:normal;color-interpolation:sRGB;color-interpolation-filters:linearRGB;solid-color:#000000;solid-opacity:1;vector-effect:none;fill:#286bb2;fill-opacity:1;fill-rule:nonzero;stroke:none;stroke-width:2;stroke-linecap:round;stroke-linejoin:round;stroke-miterlimit:4;stroke-dasharray:none;stroke-dashoffset:0;stroke-opacity:1;color-rendering:auto;image-rendering:auto;shape-rendering:auto;text-rendering:auto;enable-background:accumulate"
         sodipodi:nodetypes="ssssssssssssss" /><path
         sodipodi:nodetypes="sccssssssss"
         inkscape:connector-curvature="0"
         id="rect1374-3"
         d="m 12,346.64999 h 16.999999 c 5,0 6.000002,8 9.000002,8 H 65 c 2.216,0 4,1.784 4,4 v 42 c 0,2.216 -1.784,4 -4,4 H 11 c -2.2159999,0 -3.9999999,-1.784 -3.9999999,-4 l 3e-7,-48.97939 C 7.0000004,348.65 9,346.64999 12,346.64999 Z"
         style="opacity:1;vector-effect:none;fill:url(#linearGradient940);fill-opacity:1;stroke:none;stroke-width:2;stroke-linecap:round;stroke-linejoin:round;stroke-miterlimit:4;stroke-dasharray:none;stroke-dashoffset:0;stroke-opacity:1" /><path
         inkscape:connector-curvature="0"
         id="path1453"
         d="m 38,353.65 c -1.194444,0 -2.080477,0.78073 -2.751953,1.62891 -0.671476,0.84818 -1.238536,1.86525 -1.847656,2.83984 -0.60912,0.97459 -1.255245,1.8992 -1.970703,2.53516 C 30.714228,361.28987 29.983333,361.65 29,361.65 H 11 c -2.7527027,0 -5,2.24729 -5,5 v 34 c 0,2.75269 2.2472973,5 5,5 h 54 c 2.752703,0 5,-2.24731 5,-5 v -42 c 0,-2.75271 -2.247297,-5 -5,-5 z"
         style="color:#000000;font-style:normal;font-variant:normal;font-weight:normal;font-stretch:normal;font-size:medium;line-height:normal;font-family:sans-serif;font-variant-ligatures:normal;font-variant-position:normal;font-variant-caps:normal;font-variant-numeric:normal;font-variant-alternates:normal;font-feature-settings:normal;text-indent:0;text-align:start;text-decoration:none;text-decoration-line:none;text-decoration-style:solid;text-decoration-color:#000000;letter-spacing:normal;word-spacing:normal;text-transform:none;writing-mode:lr-tb;direction:ltr;text-orientation:mixed;dominant-baseline:auto;baseline-shift:baseline;text-anchor:start;white-space:normal;shape-padding:0;clip-rule:nonzero;display:inline;overflow:visible;visibility:visible;opacity:1;isolation:auto;mix-blend-mode:normal;color-interpolation:sRGB;color-interpolation-filters:linearRGB;solid-color:#000000;solid-opacity:1;vector-effect:none;fill:#3182d9;fill-opacity:1;fill-rule:nonzero;stroke:none;stroke-width:2;stroke-linecap:round;stroke-linejoin:round;stroke-miterlimit:4;stroke-dasharray:none;stroke-dashoffset:0;stroke-opacity:1;color-rendering:auto;image-rendering:auto;shape-rendering:auto;text-rendering:auto;enable-background:accumulate" /><path
         sodipodi:nodetypes="sccssssssss"
         inkscape:connector-curvature="0"
         id="rect1374-4-4"
         d="m 11,362.64999 h 17.999999 c 5,0 6.000002,-8 9.000002,-8 H 65 c 2.216,0 4,1.784 4,4 v 42 c 0,2.216 -1.784,4 -4,4 H 11 c -2.2159999,0 -3.9999996,-1.784 -3.9999996,-4 v -34 c 0,-2.216 1.7839997,-4 3.9999996,-4 z"
         style="opacity:1;vector-effect:none;fill:url(#linearGradient972);fill-opacity:1;stroke:none;stroke-width:2;stroke-linecap:round;stroke-linejoin:round;stroke-miterlimit:4;stroke-dasharray:none;stroke-dashoffset:0;stroke-opacity:1" /></g><g
       id="g27390"
       transform="translate(-50,14.000082)"><g
         inkscape:label="Capa 1"
         id="layer1-8-3"
         transform="matrix(3.7795276,0,0,3.7795276,65.002755,260.64877)"
         style="fill:#3282d9;fill-opacity:1"><path
           id="rect8258-6"
           style="fill:#3282d9;fill-opacity:1;stroke:none;stroke-width:0.587964;stroke-linecap:round;stroke-linejoin:round;stroke-dasharray:none;stroke-opacity:1;stop-color:#000000"
           d="M 2.9148553,0.79355635 C 2.8554336,0.79312245 2.7961509,0.79936692 2.7381219,0.81215986 2.5321735,0.85793774 2.3529213,0.98382341 2.2399611,1.1620093 2.0049571,1.5320346 2.1143884,2.0225091 2.4843906,2.2575497 L 3.0952061,2.6461564 H 1.3221877 c -0.43797123,2.85e-4 -0.79294826,0.355262 -0.79323323,0.7932333 5.6987e-4,0.4377691 0.3554636,0.7924318 0.79323323,0.7927164 h 1.100708 L 1.1206496,5.1793351 C 0.76677656,5.4369001 0.68817622,5.9323135 0.94494974,6.286761 1.2026348,6.6419402 1.6996255,6.7206439 2.0544427,6.4624609 L 2.7329543,5.968951 c 0.2978811,1.1353425 1.3271534,1.9683553 2.5585001,1.9683553 1.4657857,0 2.6458333,-1.1800476 2.6458333,-2.6458333 0,-1.3229128 -0.8397749,-2.0714084 -1.6913696,-2.5223267 L 3.3355015,0.91757979 C 3.2097159,0.83755593 3.0639352,0.79457385 2.9148553,0.79355635 Z M 5.2914544,3.4393897 c 1.0260518,0 1.8520833,0.8260321 1.8520833,1.8520833 0,1.0260509 -0.8260315,1.8520833 -1.8520833,1.8520833 -1.026051,0 -1.8520833,-0.8260324 -1.8520833,-1.8520833 0,-1.0260512 0.8260323,-1.8520833 1.8520833,-1.8520833 z m 0,0.7937499 c -0.5863155,0 -1.0583333,0.4720179 -1.0583333,1.0583334 0,0.5863154 0.4720178,1.0583333 1.0583333,1.0583333 0.5863154,0 1.0583333,-0.4720179 1.0583333,-1.0583333 0,-0.5863155 -0.4720179,-1.0583334 -1.0583333,-1.0583334 z" /></g><g
         inkscape:label="Capa 1"
         id="layer1-8"
         transform="matrix(3.7795276,0,0,3.7795276,65.000802,259.65072)"><path
           id="rect8258"
           style="fill:url(#linearGradient24491);fill-opacity:1;stroke:none;stroke-width:0.587964;stroke-linecap:round;stroke-linejoin:round;stroke-dasharray:none;stroke-opacity:1;stop-color:#000000"
           d="M 2.9148553,0.79355635 C 2.8554336,0.79312245 2.7961509,0.79936692 2.7381219,0.81215986 2.5321735,0.85793774 2.3529213,0.98382341 2.2399611,1.1620093 2.0049571,1.5320346 2.1143884,2.0225091 2.4843906,2.2575497 L 3.0952061,2.6461564 H 1.3221877 c -0.43797123,2.85e-4 -0.79294826,0.355262 -0.79323323,0.7932333 5.6987e-4,0.4377691 0.3554636,0.7924318 0.79323323,0.7927164 h 1.100708 L 1.1206496,5.1793351 C 0.76677656,5.4369001 0.68817622,5.9323135 0.94494974,6.286761 1.2026348,6.6419402 1.6996255,6.7206439 2.0544427,6.4624609 L 2.7329543,5.968951 c 0.2978811,1.1353425 1.3271534,1.9683553 2.5585001,1.9683553 1.4657857,0 2.6458333,-1.1800476 2.6458333,-2.6458333 0,-1.3229128 -0.8397749,-2.0714084 -1.6913696,-2.5223267 L 3.3355015,0.91757979 C 3.2097159,0.83755593 3.0639352,0.79457385 2.9148553,0.79355635 Z M 5.2914544,3.4393897 c 1.0260518,0 1.8520833,0.8260321 1.8520833,1.8520833 0,1.0260509 -0.8260315,1.8520833 -1.8520833,1.8520833 -1.026051,0 -1.8520833,-0.8260324 -1.8520833,-1.8520833 0,-1.0260512 0.8260323,-1.8520833 1.8520833,-1.8520833 z m 0,0.7937499 c -0.5863155,0 -1.0583333,0.4720179 -1.0583333,1.0583334 0,0.5863154 0.4720178,1.0583333 1.0583333,1.0583333 0.5863154,0 1.0583333,-0.4720179 1.0583333,-1.0583333 0,-0.5863155 -0.4720179,-1.0583334 -1.0583333,-1.0583334 z" /></g></g></g></svg>
