<?xml version="1.0" encoding="UTF-8" standalone="no"?>
<!-- Created with Inkscape (http://www.inkscape.org/) -->

<svg
   xmlns:dc="http://purl.org/dc/elements/1.1/"
   xmlns:cc="http://creativecommons.org/ns#"
   xmlns:rdf="http://www.w3.org/1999/02/22-rdf-syntax-ns#"
   xmlns:svg="http://www.w3.org/2000/svg"
   xmlns="http://www.w3.org/2000/svg"
   xmlns:xlink="http://www.w3.org/1999/xlink"
   xmlns:sodipodi="http://sodipodi.sourceforge.net/DTD/sodipodi-0.dtd"
   xmlns:inkscape="http://www.inkscape.org/namespaces/inkscape"
   width="64"
   height="64"
   viewBox="0 0 64 64"
   version="1.1"
   id="svg8"
   inkscape:version="0.92.1 r"
   sodipodi:docname="folder.svg">
  <title
     id="title7895">Antu icon Theme</title>
  <defs
     id="defs2">
    <linearGradient
       gradientTransform="matrix(3.7795275,0,0,3.7795275,-24.924494,-799.79743)"
       inkscape:collect="always"
       xlink:href="#linearGradient8210"
       id="linearGradient8212"
       x1="-3.7241442"
       y1="285.07458"
       x2="-3.7241442"
       y2="281.37042"
       gradientUnits="userSpaceOnUse" />
    <linearGradient
       inkscape:collect="always"
       id="linearGradient8210">
      <stop
         style="stop-color:#3489e5;stop-opacity:1"
         offset="0"
         id="stop8206" />
      <stop
         style="stop-color:#3a98f2;stop-opacity:1"
         offset="1"
         id="stop8208" />
    </linearGradient>
    <linearGradient
       gradientTransform="matrix(3.7795275,0,0,3.7795275,-24.924494,-799.79743)"
       inkscape:collect="always"
       xlink:href="#linearGradient8202"
       id="linearGradient8204"
       x1="2.096689"
       y1="295.65793"
       x2="2.096689"
       y2="283.2225"
       gradientUnits="userSpaceOnUse" />
    <linearGradient
       inkscape:collect="always"
       id="linearGradient8202">
      <stop
         style="stop-color:#3c9af3;stop-opacity:1"
         offset="0"
         id="stop8198" />
      <stop
         style="stop-color:#51c5f9;stop-opacity:1"
         offset="1"
         id="stop8200" />
    </linearGradient>
  </defs>
  <sodipodi:namedview
     id="base"
     pagecolor="#ffffff"
     bordercolor="#666666"
     borderopacity="1.0"
     inkscape:pageopacity="0.0"
     inkscape:pageshadow="2"
     inkscape:zoom="3.959798"
     inkscape:cx="29.409906"
     inkscape:cy="16.647473"
     inkscape:document-units="px"
     inkscape:current-layer="layer1"
     showgrid="true"
     units="px"
     inkscape:window-width="1366"
     inkscape:window-height="697"
     inkscape:window-x="0"
     inkscape:window-y="0"
     inkscape:window-maximized="1"
     objecttolerance="10"
     gridtolerance="10"
     guidetolerance="10">
    <inkscape:grid
       type="xygrid"
       id="grid7897"
       empspacing="4" />
  </sodipodi:namedview>
  <metadata
     id="metadata5">
    <rdf:RDF>
      <cc:Work
         rdf:about="">
        <dc:format>image/svg+xml</dc:format>
        <dc:type
           rdf:resource="http://purl.org/dc/dcmitype/StillImage" />
        <dc:title>Antu icon Theme</dc:title>
      </cc:Work>
    </rdf:RDF>
  </metadata>
  <g
     inkscape:label="Capa 1"
     inkscape:groupmode="layer"
     id="layer1"
     transform="translate(0,-250.64999)">
    <g
       id="g5204"
       transform="translate(52.000001,-7.999995)">
      <path
         style="opacity:1;fill:#3182d9;fill-opacity:1;stroke:none;stroke-width:0.99999994;stroke-opacity:1"
         d="m -48.999993,262.64996 21.999988,8e-5 5.000012,6.99999 H 8.9999923 c 1.6620097,0 2.9999997,1.33799 2.9999997,3 v 9 c 0,1.66201 -1.33799,3 -2.9999997,3 H -48.999993 c -1.662009,0 -3,-1.33799 -3,-3 v -16.00006 c 0,-1.66201 1.337991,-3 3,-3.00001 z"
         id="rect9319-4"
         inkscape:connector-curvature="0"
         sodipodi:nodetypes="sccssssssss" />
      <path
         style="opacity:1;fill:url(#linearGradient8212);fill-opacity:1;stroke:none;stroke-width:0.99999994;stroke-opacity:1"
         d="m -49.000031,263.64999 21.000038,4e-5 6.999987,9.99998 -5.000012,7.00002 h -23.000013 c -1.108006,0 -2.000012,-0.892 -2.000012,-2 v -13.00006 c 0,-1.10797 0.892006,-1.99997 2.000012,-1.99998 z"
         id="rect9322-9"
         inkscape:connector-curvature="0"
         sodipodi:nodetypes="scccssss" />
      <path
         style="opacity:1;fill:#3182d9;fill-opacity:1;stroke:none;stroke-width:0.99999994;stroke-opacity:1"
         d="m -48.999993,277.64996 21,7e-5 4.999975,-8.00008 H 8.9999923 c 1.6620097,0 2.9999997,1.33799 2.9999997,3 v 43.00006 c 0,1.66201 -1.33799,3 -2.9999997,3 H -48.999993 c -1.662009,0 -3,-1.33799 -3,-3 v -35.00005 c 0,-1.66201 1.337991,-3 3,-3 z"
         id="rect9313-2"
         inkscape:connector-curvature="0"
         sodipodi:nodetypes="sccssssssss" />
      <path
         style="opacity:1;fill:url(#linearGradient8204);fill-opacity:1;stroke:none;stroke-width:0.99999994;stroke-opacity:1"
         d="m -49.000031,278.64999 22.000026,4e-5 5.000012,-8.00002 30.9999853,-4e-5 c 1.1080057,0 2.0000127,0.89201 2.0000127,2.00001 v 43.00003 c 0,1.10801 -0.892007,2.00001 -2.0000127,2.00001 H -49.000031 c -1.108006,0 -2.000012,-0.892 -2.000012,-2.00001 V 280.65 c 0,-1.10801 0.892006,-2.00002 2.000012,-2.00001 z"
         id="rect9315-0"
         inkscape:connector-curvature="0"
         sodipodi:nodetypes="sccssssssss" />
    </g>
  </g>
</svg>
