<?xml version="1.0" encoding="UTF-8" standalone="no"?>
<!-- Created with Inkscape (http://www.inkscape.org/) -->

<svg
   xmlns:dc="http://purl.org/dc/elements/1.1/"
   xmlns:cc="http://creativecommons.org/ns#"
   xmlns:rdf="http://www.w3.org/1999/02/22-rdf-syntax-ns#"
   xmlns:svg="http://www.w3.org/2000/svg"
   xmlns="http://www.w3.org/2000/svg"
   xmlns:xlink="http://www.w3.org/1999/xlink"
   xmlns:sodipodi="http://sodipodi.sourceforge.net/DTD/sodipodi-0.dtd"
   xmlns:inkscape="http://www.inkscape.org/namespaces/inkscape"
   width="64"
   height="64"
   viewBox="0 0 64 64"
   version="1.1"
   id="svg8"
   inkscape:version="0.92.1 r"
   sodipodi:docname="folder-download.svg">
  <title
     id="title7895">Antu icon Theme</title>
  <defs
     id="defs2">
    <linearGradient
       gradientTransform="matrix(3.7795275,0,0,3.7795275,15.075507,-803.79743)"
       inkscape:collect="always"
       xlink:href="#linearGradient8210"
       id="linearGradient8212"
       x1="-3.7241442"
       y1="285.07458"
       x2="-3.7241442"
       y2="281.37042"
       gradientUnits="userSpaceOnUse" />
    <linearGradient
       inkscape:collect="always"
       id="linearGradient8210">
      <stop
         style="stop-color:#3489e5;stop-opacity:1"
         offset="0"
         id="stop8206" />
      <stop
         style="stop-color:#3a98f2;stop-opacity:1"
         offset="1"
         id="stop8208" />
    </linearGradient>
    <linearGradient
       gradientTransform="matrix(3.7795275,0,0,3.7795275,15.075507,-803.79743)"
       inkscape:collect="always"
       xlink:href="#linearGradient8202"
       id="linearGradient8204"
       x1="2.096689"
       y1="295.65793"
       x2="2.096689"
       y2="283.2225"
       gradientUnits="userSpaceOnUse" />
    <linearGradient
       inkscape:collect="always"
       id="linearGradient8202">
      <stop
         style="stop-color:#3c9af3;stop-opacity:1"
         offset="0"
         id="stop8198" />
      <stop
         style="stop-color:#51c5f9;stop-opacity:1"
         offset="1"
         id="stop8200" />
    </linearGradient>
    <linearGradient
       gradientTransform="translate(-12,254.65)"
       inkscape:collect="always"
       xlink:href="#linearGradient4627"
       id="linearGradient5414"
       x1="32"
       y1="50"
       x2="32"
       y2="37"
       gradientUnits="userSpaceOnUse" />
    <linearGradient
       inkscape:collect="always"
       id="linearGradient4627">
      <stop
         style="stop-color:#c2f7f9;stop-opacity:1"
         offset="0"
         id="stop4623" />
      <stop
         style="stop-color:#e5fafb;stop-opacity:1"
         offset="1"
         id="stop4625" />
    </linearGradient>
  </defs>
  <sodipodi:namedview
     id="base"
     pagecolor="#ffffff"
     bordercolor="#666666"
     borderopacity="1.0"
     inkscape:pageopacity="0.0"
     inkscape:pageshadow="2"
     inkscape:zoom="3.959798"
     inkscape:cx="7.8562688"
     inkscape:cy="52.999847"
     inkscape:document-units="px"
     inkscape:current-layer="layer1"
     showgrid="true"
     units="px"
     inkscape:window-width="1366"
     inkscape:window-height="697"
     inkscape:window-x="0"
     inkscape:window-y="0"
     inkscape:window-maximized="1"
     objecttolerance="10"
     gridtolerance="10"
     guidetolerance="10">
    <inkscape:grid
       type="xygrid"
       id="grid7897"
       empspacing="4" />
  </sodipodi:namedview>
  <metadata
     id="metadata5">
    <rdf:RDF>
      <cc:Work
         rdf:about="">
        <dc:format>image/svg+xml</dc:format>
        <dc:type
           rdf:resource="http://purl.org/dc/dcmitype/StillImage" />
        <dc:title>Antu icon Theme</dc:title>
      </cc:Work>
    </rdf:RDF>
  </metadata>
  <g
     inkscape:label="Capa 1"
     inkscape:groupmode="layer"
     id="layer1"
     transform="translate(0,-250.64999)">
    <g
       id="g6054"
       transform="translate(11.999999,-3.999995)">
      <path
         sodipodi:nodetypes="sccssssssss"
         inkscape:connector-curvature="0"
         id="rect9319-4"
         d="m -8.999992,258.64996 21.999988,8e-5 5.000012,6.99999 h 30.999985 c 1.66201,0 3,1.33799 3,3 v 9 c 0,1.66201 -1.33799,3 -3,3 H -8.999992 c -1.662009,0 -3,-1.33799 -3,-3 v -16.00005 c 0,-1.66201 1.337991,-3 3,-3.00002 z"
         style="opacity:1;fill:#3182d9;fill-opacity:1;stroke:none;stroke-width:0.99999994;stroke-opacity:1" />
      <path
         sodipodi:nodetypes="scccssss"
         inkscape:connector-curvature="0"
         id="rect9322-9"
         d="m -9.00003,259.64999 21.000038,4e-5 6.999987,9.99999 -5.000012,7.00002 H -9.00003 c -1.108006,0 -2.000012,-0.892 -2.000012,-2 v -13.00006 c 0,-1.10797 0.892006,-1.99997 2.000012,-1.99999 z"
         style="opacity:1;fill:url(#linearGradient8212);fill-opacity:1;stroke:none;stroke-width:0.99999994;stroke-opacity:1" />
      <path
         sodipodi:nodetypes="sccssssssss"
         inkscape:connector-curvature="0"
         id="rect9313-2"
         d="m -8.999992,273.64996 21,7e-5 4.999975,-8.00008 h 32.00001 c 1.66201,0 3,1.33799 3,3 v 43.00006 c 0,1.66201 -1.33799,3 -3,3 H -8.999992 c -1.662009,0 -3,-1.33799 -3,-3 v -35.00005 c 0,-1.66201 1.337991,-3 3,-3 z"
         style="opacity:1;fill:#3182d9;fill-opacity:1;stroke:none;stroke-width:0.99999994;stroke-opacity:1" />
      <path
         sodipodi:nodetypes="sccssssssss"
         inkscape:connector-curvature="0"
         id="rect9315-0"
         d="m -9.00003,274.64999 22.000026,4e-5 5.000012,-8.00002 30.999985,-4e-5 c 1.108006,0 2.000013,0.89201 2.000013,2.00001 v 43.00003 c 0,1.10801 -0.892007,2.00001 -2.000013,2.00001 H -9.00003 c -1.108006,0 -2.000012,-0.892 -2.000012,-2.00001 V 276.65 c 0,-1.10801 0.892006,-2.00002 2.000012,-2.00001 z"
         style="opacity:1;fill:url(#linearGradient8204);fill-opacity:1;stroke:none;stroke-width:0.99999994;stroke-opacity:1" />
      <path
         id="rect5344-2"
         d="m 20,282.64999 c -6.648,0 -12,5.352 -12,12 0,6.64801 5.352,12 12,12 6.648,0 12,-5.35199 12,-12 0,-6.648 -5.352,-12 -12,-12 z m 0,6 c 1.108,0 2,0.892 2,2 v 4 h 2 a 1.0001,1.0001 0 0 1 0.707031,1.70703 l -4,4 a 1.0001,1.0001 0 0 1 -1.414062,0 l -4,-4 A 1.0001,1.0001 0 0 1 16,294.64999 h 2 v -4 c 0,-1.108 0.892,-2 2,-2 z"
         style="opacity:1;fill:#358bd9;fill-opacity:1;stroke:none;stroke-width:1.81422937;stroke-linecap:round;stroke-linejoin:round;stroke-miterlimit:4;stroke-dasharray:none;stroke-opacity:1"
         inkscape:connector-curvature="0" />
      <path
         id="rect5344"
         d="m 20,281.64999 c -6.648,0 -12,5.352 -12,12 0,6.64801 5.352,12 12,12 6.648,0 12,-5.35199 12,-12 0,-6.648 -5.352,-12 -12,-12 z m 0,6 c 1.108,0 2,0.892 2,2 v 4 h 2 a 1.0001,1.0001 0 0 1 0.707031,1.70703 l -4,4 a 1.0001,1.0001 0 0 1 -1.414062,0 l -4,-4 A 1.0001,1.0001 0 0 1 16,293.64999 h 2 v -4 c 0,-1.108 0.892,-2 2,-2 z"
         style="opacity:1;fill:url(#linearGradient5414);fill-opacity:1;stroke:none;stroke-width:1.81422937;stroke-linecap:round;stroke-linejoin:round;stroke-miterlimit:4;stroke-dasharray:none;stroke-opacity:1"
         inkscape:connector-curvature="0" />
    </g>
  </g>
</svg>
