<?xml version="1.0" encoding="UTF-8" standalone="no"?>
<!-- Created with Inkscape (http://www.inkscape.org/) -->

<svg
   xmlns:dc="http://purl.org/dc/elements/1.1/"
   xmlns:cc="http://creativecommons.org/ns#"
   xmlns:rdf="http://www.w3.org/1999/02/22-rdf-syntax-ns#"
   xmlns:svg="http://www.w3.org/2000/svg"
   xmlns="http://www.w3.org/2000/svg"
   xmlns:xlink="http://www.w3.org/1999/xlink"
   xmlns:sodipodi="http://sodipodi.sourceforge.net/DTD/sodipodi-0.dtd"
   xmlns:inkscape="http://www.inkscape.org/namespaces/inkscape"
   width="64"
   height="64"
   viewBox="0 0 64 64"
   version="1.1"
   id="svg8"
   inkscape:version="0.92.2 2405546, 2018-03-11"
   sodipodi:docname="folder-mega.svg">
  <title
     id="title7895">Antu icon Theme</title>
  <defs
     id="defs2">
    <linearGradient
       inkscape:collect="always"
       xlink:href="#linearGradient4631-59"
       id="linearGradient6790"
       gradientUnits="userSpaceOnUse"
       gradientTransform="matrix(0.5,0,0,0.5,26,161.325)"
       x1="-12"
       y1="291.64999"
       x2="-12"
       y2="243.64998" />
    <linearGradient
       id="linearGradient4631-59"
       inkscape:collect="always">
      <stop
         id="stop4627-49"
         offset="0"
         style="stop-color:#c2f0f2;stop-opacity:1" />
      <stop
         id="stop4629-0"
         offset="1"
         style="stop-color:#f2feff;stop-opacity:1" />
    </linearGradient>
    <linearGradient
       inkscape:collect="always"
       xlink:href="#linearGradient10231"
       id="linearGradient2675-5"
       gradientUnits="userSpaceOnUse"
       gradientTransform="translate(-55.00001,-79.00002)"
       x1="38"
       y1="404.64999"
       x2="38"
       y2="354.64999" />
    <linearGradient
       inkscape:collect="always"
       id="linearGradient10231">
      <stop
         style="stop-color:#3e9ff4;stop-opacity:1"
         offset="0"
         id="stop10227" />
      <stop
         style="stop-color:#50c2f9;stop-opacity:1"
         offset="1"
         id="stop10229" />
    </linearGradient>
    <linearGradient
       inkscape:collect="always"
       xlink:href="#linearGradient10239-1"
       id="linearGradient2673-0"
       gradientUnits="userSpaceOnUse"
       gradientTransform="translate(-55.00001,-79.00002)"
       x1="18"
       y1="361.64999"
       x2="18"
       y2="346.64999" />
    <linearGradient
       inkscape:collect="always"
       id="linearGradient10239-1">
      <stop
         style="stop-color:#348be7;stop-opacity:1"
         offset="0"
         id="stop10235-7" />
      <stop
         style="stop-color:#3997f1;stop-opacity:1"
         offset="1"
         id="stop10237-7" />
    </linearGradient>
  </defs>
  <sodipodi:namedview
     id="base"
     pagecolor="#ffffff"
     bordercolor="#666666"
     borderopacity="1.0"
     inkscape:pageopacity="0.0"
     inkscape:pageshadow="2"
     inkscape:zoom="5.6"
     inkscape:cx="-4.9041006"
     inkscape:cy="32.573541"
     inkscape:document-units="px"
     inkscape:current-layer="layer1"
     showgrid="true"
     units="px"
     inkscape:window-width="1360"
     inkscape:window-height="711"
     inkscape:window-x="0"
     inkscape:window-y="28"
     inkscape:window-maximized="1"
     objecttolerance="10"
     gridtolerance="10"
     guidetolerance="10"
     inkscape:snap-bbox="true"
     inkscape:bbox-paths="true"
     inkscape:bbox-nodes="true"
     inkscape:snap-bbox-edge-midpoints="true"
     inkscape:snap-bbox-midpoints="true"
     inkscape:object-paths="true"
     inkscape:snap-intersection-paths="true"
     inkscape:showpageshadow="false">
    <inkscape:grid
       type="xygrid"
       id="grid7897"
       empspacing="4" />
  </sodipodi:namedview>
  <metadata
     id="metadata5">
    <rdf:RDF>
      <cc:Work
         rdf:about="">
        <dc:format>image/svg+xml</dc:format>
        <dc:type
           rdf:resource="http://purl.org/dc/dcmitype/StillImage" />
        <dc:title>Antu icon Theme</dc:title>
      </cc:Work>
    </rdf:RDF>
  </metadata>
  <g
     inkscape:label="Capa 1"
     inkscape:groupmode="layer"
     id="layer1"
     transform="translate(0,-250.64999)">
    <g
       id="g8159"
       transform="translate(49.00001,-14)">
      <path
         style="color:#000000;font-style:normal;font-variant:normal;font-weight:normal;font-stretch:normal;font-size:medium;line-height:normal;font-family:sans-serif;font-variant-ligatures:normal;font-variant-position:normal;font-variant-caps:normal;font-variant-numeric:normal;font-variant-alternates:normal;font-feature-settings:normal;text-indent:0;text-align:start;text-decoration:none;text-decoration-line:none;text-decoration-style:solid;text-decoration-color:#000000;letter-spacing:normal;word-spacing:normal;text-transform:none;writing-mode:lr-tb;direction:ltr;text-orientation:mixed;dominant-baseline:auto;baseline-shift:baseline;text-anchor:start;white-space:normal;shape-padding:0;clip-rule:nonzero;display:inline;overflow:visible;visibility:visible;opacity:1;isolation:auto;mix-blend-mode:normal;color-interpolation:sRGB;color-interpolation-filters:linearRGB;solid-color:#000000;solid-opacity:1;vector-effect:none;fill:#286bb2;fill-opacity:1;fill-rule:nonzero;stroke:none;stroke-width:2;stroke-linecap:round;stroke-linejoin:round;stroke-miterlimit:4;stroke-dasharray:none;stroke-dashoffset:0;stroke-opacity:1;color-rendering:auto;image-rendering:auto;shape-rendering:auto;text-rendering:auto;enable-background:accumulate"
         d="m -44.00001,266.64998 c -2.7527,0 -5,2.24729 -5,5 V 321.65 c 0,2.7527 2.2473,5 5,5 h 54 c 2.7527,0 5,-2.2473 5,-5 v -42.00002 c 0,-2.75271 -2.2473,-5 -5,-5 h -27 c -0.30556,0 -0.66952,-0.21927 -1.18555,-0.87109 -0.51602,-0.65182 -1.07396,-1.63475 -1.71484,-2.66016 -0.64088,-1.02541 -1.36976,-2.1008 -2.3418,-2.96484 -0.97204,-0.86404 -2.24114,-1.50391 -3.75781,-1.50391 z"
         id="path1475-91-2-1"
         inkscape:connector-curvature="0" />
      <path
         style="opacity:1;vector-effect:none;fill:url(#linearGradient2673-0);fill-opacity:1;stroke:none;stroke-width:2;stroke-linecap:round;stroke-linejoin:round;stroke-miterlimit:4;stroke-dasharray:none;stroke-dashoffset:0;stroke-opacity:1"
         d="m -44.00001,267.64997 h 18 c 5,0 6,8 9,8 h 27 c 2.216,0 4,1.784 4,4 V 321.65 c 0,2.21601 -1.784,4 -4,4 h -54 c -2.216,0 -4,-1.78399 -4,-4 v -50.00003 c 0,-2.216 1.784,-4 4,-4 z"
         id="rect1374-3-07-2-7"
         inkscape:connector-curvature="0"
         sodipodi:nodetypes="sccssssssss" />
      <path
         style="color:#000000;font-style:normal;font-variant:normal;font-weight:normal;font-stretch:normal;font-size:medium;line-height:normal;font-family:sans-serif;font-variant-ligatures:normal;font-variant-position:normal;font-variant-caps:normal;font-variant-numeric:normal;font-variant-alternates:normal;font-feature-settings:normal;text-indent:0;text-align:start;text-decoration:none;text-decoration-line:none;text-decoration-style:solid;text-decoration-color:#000000;letter-spacing:normal;word-spacing:normal;text-transform:none;writing-mode:lr-tb;direction:ltr;text-orientation:mixed;dominant-baseline:auto;baseline-shift:baseline;text-anchor:start;white-space:normal;shape-padding:0;clip-rule:nonzero;display:inline;overflow:visible;visibility:visible;opacity:1;isolation:auto;mix-blend-mode:normal;color-interpolation:sRGB;color-interpolation-filters:linearRGB;solid-color:#000000;solid-opacity:1;vector-effect:none;fill:#3182d9;fill-opacity:1;fill-rule:nonzero;stroke:none;stroke-width:2;stroke-linecap:round;stroke-linejoin:round;stroke-miterlimit:4;stroke-dasharray:none;stroke-dashoffset:0;stroke-opacity:1;color-rendering:auto;image-rendering:auto;shape-rendering:auto;text-rendering:auto;enable-background:accumulate"
         d="m -17.00001,274.64998 c -1.19444,0 -2.08048,0.78073 -2.75195,1.62891 -0.67148,0.84818 -1.23854,1.86525 -1.84766,2.83984 -0.60912,0.97459 -1.25524,1.8992 -1.9707,2.53516 -0.71546,0.63596 -1.44636,0.99609 -2.42969,0.99609 h -18 c -2.7527,0 -5,2.24729 -5,5 V 321.65 c 0,2.7527 2.2473,5 5,5 h 54 c 2.7527,0 5,-2.2473 5,-5 v -42.00002 c 0,-2.75271 -2.2473,-5 -5,-5 z"
         id="path1453-5-8-5"
         inkscape:connector-curvature="0" />
      <path
         style="opacity:1;vector-effect:none;fill:url(#linearGradient2675-5);fill-opacity:1;stroke:none;stroke-width:2;stroke-linecap:round;stroke-linejoin:round;stroke-miterlimit:4;stroke-dasharray:none;stroke-dashoffset:0;stroke-opacity:1"
         d="m -44.00001,283.64997 h 18 c 5,0 6,-8 9,-8 h 27 c 2.216,0 4,1.784 4,4 V 321.65 c 0,2.21601 -1.784,4 -4,4 h -54 c -2.216,0 -4,-1.78399 -4,-4 v -34.00003 c 0,-2.216 1.784,-4 4,-4 z"
         id="rect1374-4-4-87-9-9"
         inkscape:connector-curvature="0"
         sodipodi:nodetypes="sccssssssss" />
      <g
         transform="translate(-37.00001,10)"
         id="g6054-7-7-5">
        <g
           id="g1529-2-8-3"
           transform="translate(-17.999999,-89.000015)" />
        <path
           sodipodi:nodetypes="sssssccccccccccccccc"
           id="rect4505-0-9-6-1-8"
           d="m 20.000001,283.64995 c -6.648,0 -12,5.352 -12,12 0,6.64799 5.352,12 12,12 6.648,0 12,-5.35201 12,-12 0,-6.648 -5.352,-12 -12,-12 z m -7,7.00001 h 3 l 4,4.00005 4,-4.00005 h 3 v 10 h -3 v -5.99995 l -3,3 h -1 -1 l -3,-3 v 5.99995 h -3 z"
           style="opacity:1;fill:#3182d9;fill-opacity:1;stroke:none;stroke-width:0.92582011;stroke-linecap:round;stroke-linejoin:round;stroke-miterlimit:4;stroke-dasharray:none;stroke-opacity:1"
           inkscape:connector-curvature="0" />
        <path
           sodipodi:nodetypes="sssssccccccccccccccc"
           id="rect4505-0-9-6-8"
           d="m 20,282.64999 c -6.648,0 -12,5.352 -12,12 0,6.64799 5.352,12 12,12 6.648,0 12,-5.35201 12,-12 0,-6.648 -5.352,-12 -12,-12 z m -6.999999,7.00002 h 3 L 20,293.65005 l 4.000001,-4.00004 h 3 v 10 h -3 l -1e-6,-5.99996 -3,3 h -1 -1 l -3,-3 1e-6,5.99996 h -3 z"
           style="opacity:1;fill:url(#linearGradient6790);fill-opacity:1;stroke:none;stroke-width:0.92582011;stroke-linecap:round;stroke-linejoin:round;stroke-miterlimit:4;stroke-dasharray:none;stroke-opacity:1"
           inkscape:connector-curvature="0" />
      </g>
    </g>
  </g>
</svg>
