<?xml version="1.0" encoding="UTF-8" standalone="no"?>
<!-- Created with Inkscape (http://www.inkscape.org/) -->

<svg
   width="64"
   height="64"
   viewBox="0 0 16.933333 16.933333"
   version="1.1"
   id="svg5"
   inkscape:version="1.2 (dc2aedaf03, 2022-05-15)"
   sodipodi:docname="folder-antu.svg"
   xmlns:inkscape="http://www.inkscape.org/namespaces/inkscape"
   xmlns:sodipodi="http://sodipodi.sourceforge.net/DTD/sodipodi-0.dtd"
   xmlns:xlink="http://www.w3.org/1999/xlink"
   xmlns="http://www.w3.org/2000/svg"
   xmlns:svg="http://www.w3.org/2000/svg">
  <sodipodi:namedview
     id="namedview7"
     pagecolor="#ffffff"
     bordercolor="#000000"
     borderopacity="0.25"
     inkscape:showpageshadow="false"
     inkscape:pageopacity="0.0"
     inkscape:pagecheckerboard="0"
     inkscape:deskcolor="#d1d1d1"
     inkscape:document-units="px"
     showgrid="true"
     inkscape:zoom="14.481547"
     inkscape:cx="40.05097"
     inkscape:cy="31.868142"
     inkscape:window-width="2160"
     inkscape:window-height="1337"
     inkscape:window-x="0"
     inkscape:window-y="0"
     inkscape:window-maximized="1"
     inkscape:current-layer="layer1">
    <inkscape:grid
       type="xygrid"
       id="grid290"
       originx="0"
       originy="0" />
  </sodipodi:namedview>
  <defs
     id="defs2">
    <linearGradient
       inkscape:collect="always"
       xlink:href="#linearGradient36600"
       id="linearGradient28872"
       gradientUnits="userSpaceOnUse"
       x1="18"
       y1="361.64999"
       x2="18"
       y2="346.64999"
       gradientTransform="matrix(0.26458333,0,0,0.26458333,-0.79375,-93.040728)" />
    <linearGradient
       id="linearGradient36600"
       inkscape:collect="always">
      <stop
         id="stop36596"
         offset="0"
         style="stop-color:#f46c62;stop-opacity:1;" />
      <stop
         id="stop36598"
         offset="1"
         style="stop-color:#ee4f45;stop-opacity:1;" />
    </linearGradient>
    <linearGradient
       inkscape:collect="always"
       xlink:href="#linearGradient1182"
       id="linearGradient1184"
       x1="45"
       y1="361.62939"
       x2="46"
       y2="340.62939"
       gradientUnits="userSpaceOnUse"
       gradientTransform="matrix(0.26458333,0,0,0.26458333,-2.6458333,-84.03944)" />
    <linearGradient
       inkscape:collect="always"
       id="linearGradient1182">
      <stop
         style="stop-color:#f5c4c4;stop-opacity:1;"
         offset="0"
         id="stop1178" />
      <stop
         style="stop-color:#fffdfd;stop-opacity:1;"
         offset="1"
         id="stop1180" />
    </linearGradient>
    <linearGradient
       inkscape:collect="always"
       xlink:href="#linearGradient4837"
       id="linearGradient4839"
       x1="42"
       y1="402.64999"
       x2="42"
       y2="355.64999"
       gradientUnits="userSpaceOnUse"
       gradientTransform="matrix(0.26458333,0,0,0.26458333,-0.79375,-93.040728)" />
    <linearGradient
       inkscape:collect="always"
       id="linearGradient4837">
      <stop
         style="stop-color:#f05548;stop-opacity:1;"
         offset="0"
         id="stop4833" />
      <stop
         style="stop-color:#fc6f63;stop-opacity:1;"
         offset="1"
         id="stop4835" />
    </linearGradient>
  </defs>
  <g
     inkscape:label="Capa 1"
     inkscape:groupmode="layer"
     id="layer1">
    <g
       id="g2840"
       transform="translate(-0.79374999,2.1166665)">
      <path
         inkscape:connector-curvature="0"
         id="path1475-1"
         d="M 2.38125,-1.5875 C 1.3229166,-1.5875 0.79374998,-0.79375 0.79374998,0 v 12.964583 c 0,0.728316 0.59459742,1.322917 1.32291662,1.322917 H 16.404166 c 0.72832,0 1.322917,-0.594601 1.322917,-1.322917 V 1.8520833 c 0,-0.7283212 -0.594597,-1.32291665 -1.322917,-1.32291665 H 9.2604165 c -0.080845,0 -0.1771446,-0.0580152 -0.3136759,-0.23047589 C 8.8102092,0.12623006 8.6625876,-0.13383684 8.4930214,-0.40514323 8.3234553,-0.67644962 8.1306071,-0.96097989 7.873421,-1.1895905 7.6162357,-1.4182011 7.2804514,-1.5875 6.8791666,-1.5875 Z"
         style="color:#000000;font-style:normal;font-variant:normal;font-weight:normal;font-stretch:normal;font-size:medium;line-height:normal;font-family:sans-serif;font-variant-ligatures:normal;font-variant-position:normal;font-variant-caps:normal;font-variant-numeric:normal;font-variant-alternates:normal;font-feature-settings:normal;text-indent:0;text-align:start;text-decoration:none;text-decoration-line:none;text-decoration-style:solid;text-decoration-color:#000000;letter-spacing:normal;word-spacing:normal;text-transform:none;writing-mode:lr-tb;direction:ltr;text-orientation:mixed;dominant-baseline:auto;baseline-shift:baseline;text-anchor:start;white-space:normal;shape-padding:0;clip-rule:nonzero;display:inline;overflow:visible;visibility:visible;isolation:auto;mix-blend-mode:normal;color-interpolation:sRGB;color-interpolation-filters:linearRGB;solid-color:#000000;solid-opacity:1;fill:#e53737;fill-opacity:1;fill-rule:nonzero;stroke:none;stroke-width:0.529167;stroke-linecap:round;stroke-linejoin:round;stroke-miterlimit:4;stroke-dasharray:none;stroke-dashoffset:0;stroke-opacity:1;color-rendering:auto;image-rendering:auto;shape-rendering:auto;text-rendering:auto;enable-background:accumulate"
         sodipodi:nodetypes="ssssssssssssss" />
      <path
         sodipodi:nodetypes="sccssssssss"
         inkscape:connector-curvature="0"
         id="rect1374-3-49"
         d="m 2.38125,-1.3229193 h 4.4979163 c 1.3229167,0 1.5875005,2.11666664 2.3812505,2.11666664 h 7.1437492 c 0.586317,0 1.058334,0.47201666 1.058334,1.05833336 V 12.964581 c 0,0.586316 -0.472017,1.058333 -1.058334,1.058333 H 2.1166666 c -0.5863166,0 -1.0583333,-0.472017 -1.0583333,-1.058333 l 1e-7,-12.95913059 C 1.0583334,-0.79375 1.5875,-1.3229193 2.38125,-1.3229193 Z"
         style="fill:url(#linearGradient28872);fill-opacity:1;stroke:none;stroke-width:0.529167;stroke-linecap:round;stroke-linejoin:round;stroke-miterlimit:4;stroke-dasharray:none;stroke-dashoffset:0;stroke-opacity:1" />
      <path
         inkscape:connector-curvature="0"
         id="path1453-2"
         d="m 9.2604165,0.52916665 c -0.3160299,0 -0.5504595,0.20656815 -0.7281208,0.43098244 C 8.3546343,1.1845634 8.2045997,1.4536631 8.0434367,1.7115234 7.8822737,1.9693837 7.7113198,2.2140201 7.5220215,2.3822845 7.3327227,2.5505489 7.1393401,2.6458333 6.8791666,2.6458333 h -4.7625 c -0.7283192,0 -1.32291662,0.5945955 -1.32291662,1.3229166 v 8.9958331 c 0,0.728316 0.59459742,1.322917 1.32291662,1.322917 H 16.404166 c 0.72832,0 1.322917,-0.594601 1.322917,-1.322917 V 1.8520833 c 0,-0.7283212 -0.594597,-1.32291665 -1.322917,-1.32291665 z"
         style="color:#000000;font-style:normal;font-variant:normal;font-weight:normal;font-stretch:normal;font-size:medium;line-height:normal;font-family:sans-serif;font-variant-ligatures:normal;font-variant-position:normal;font-variant-caps:normal;font-variant-numeric:normal;font-variant-alternates:normal;font-feature-settings:normal;text-indent:0;text-align:start;text-decoration:none;text-decoration-line:none;text-decoration-style:solid;text-decoration-color:#000000;letter-spacing:normal;word-spacing:normal;text-transform:none;writing-mode:lr-tb;direction:ltr;text-orientation:mixed;dominant-baseline:auto;baseline-shift:baseline;text-anchor:start;white-space:normal;shape-padding:0;clip-rule:nonzero;display:inline;overflow:visible;visibility:visible;isolation:auto;mix-blend-mode:normal;color-interpolation:sRGB;color-interpolation-filters:linearRGB;solid-color:#000000;solid-opacity:1;fill:#e53737;fill-opacity:1;fill-rule:nonzero;stroke:none;stroke-width:0.529167;stroke-linecap:round;stroke-linejoin:round;stroke-miterlimit:4;stroke-dasharray:none;stroke-dashoffset:0;stroke-opacity:1;color-rendering:auto;image-rendering:auto;shape-rendering:auto;text-rendering:auto;enable-background:accumulate" />
      <path
         sodipodi:nodetypes="sccssssssss"
         inkscape:connector-curvature="0"
         id="rect1374-4-4-0"
         d="m 2.1166666,2.910414 h 4.7624997 c 1.3229167,0 1.5875005,-2.11666666 2.3812505,-2.11666666 h 7.1437492 c 0.586317,0 1.058334,0.47201666 1.058334,1.05833336 V 12.964581 c 0,0.586316 -0.472017,1.058333 -1.058334,1.058333 H 2.1166666 c -0.5863166,0 -1.0583332,-0.472017 -1.0583332,-1.058333 V 3.9687473 c 0,-0.5863167 0.4720166,-1.0583333 1.0583332,-1.0583333 z"
         style="fill:url(#linearGradient4839);fill-opacity:1;stroke:none;stroke-width:0.529167;stroke-linecap:round;stroke-linejoin:round;stroke-miterlimit:4;stroke-dasharray:none;stroke-dashoffset:0;stroke-opacity:1" />
      <path
         id="path28045-2"
         style="fill:#e53737;fill-opacity:1;stroke-width:0.529167;stroke-linecap:round;stroke-linejoin:round;stop-color:#000000"
         d="m 9.2604166,5.0270823 -0.79375,1.3229167 -1.5875,-0.5291667 0.2645833,1.5875 -1.3229166,0.2645833 1.0583333,1.0583334 -1.0583333,1.0583333 1.3229166,0.2645837 -0.2645833,1.5875 1.5875,-0.529167 0.79375,1.322917 0.7937504,-1.322917 1.5875,0.529167 -0.264584,-1.5875 L 12.7,9.7895823 11.641667,8.731249 12.7,7.6729156 11.377083,7.4083323 l 0.264584,-1.5875 -1.5875,0.5291667 z"
         sodipodi:nodetypes="ccccccccccccccccccccc" />
      <path
         id="path28045"
         style="fill:url(#linearGradient1184);fill-opacity:1;stroke-width:0.529167;stroke-linecap:round;stroke-linejoin:round;stop-color:#000000"
         d="m 9.2604166,4.7679494 -0.79375,1.3229167 -1.5875,-0.5291667 0.2645833,1.5875 -1.3229166,0.2645833 1.0583333,1.0583333 -1.0583333,1.0583334 1.3229166,0.2645833 -0.2645833,1.5875003 1.5875,-0.529167 0.79375,1.322917 0.7937504,-1.322917 1.5875,0.529167 L 11.377083,9.7950327 12.7,9.5304494 11.641667,8.472116 12.7,7.4137827 11.377083,7.1491994 l 0.264584,-1.5875 -1.5875,0.5291667 z"
         sodipodi:nodetypes="ccccccccccccccccccccc" />
    </g>
  </g>
</svg>
