<?xml version="1.0" encoding="UTF-8" standalone="no"?>
<!-- Created with Inkscape (http://www.inkscape.org/) -->

<svg
   xmlns:dc="http://purl.org/dc/elements/1.1/"
   xmlns:cc="http://creativecommons.org/ns#"
   xmlns:rdf="http://www.w3.org/1999/02/22-rdf-syntax-ns#"
   xmlns:svg="http://www.w3.org/2000/svg"
   xmlns="http://www.w3.org/2000/svg"
   xmlns:xlink="http://www.w3.org/1999/xlink"
   xmlns:sodipodi="http://sodipodi.sourceforge.net/DTD/sodipodi-0.dtd"
   xmlns:inkscape="http://www.inkscape.org/namespaces/inkscape"
   width="64"
   height="64"
   viewBox="0 0 64 64"
   version="1.1"
   id="svg8"
   inkscape:version="0.92.2 2405546, 2018-03-11"
   sodipodi:docname="folder-unlocked.svg">
  <title
     id="title7895">Antu icon Theme</title>
  <defs
     id="defs2">
    <linearGradient
       gradientTransform="matrix(3.7795275,0,0,3.7795275,15.075507,-803.79743)"
       inkscape:collect="always"
       xlink:href="#linearGradient8210"
       id="linearGradient8212"
       x1="-3.7241442"
       y1="285.07458"
       x2="-3.7241442"
       y2="281.37042"
       gradientUnits="userSpaceOnUse" />
    <linearGradient
       gradientTransform="matrix(3.7795275,0,0,3.7795275,15.075507,-803.79743)"
       inkscape:collect="always"
       xlink:href="#linearGradient8202"
       id="linearGradient8204"
       x1="2.096689"
       y1="295.65793"
       x2="2.096689"
       y2="283.2225"
       gradientUnits="userSpaceOnUse" />
    <style
       type="text/css"
       id="current-color-scheme">
      .ColorScheme-Text {
        color:#122036;
      }
      </style>
    <style
       type="text/css"
       id="current-color-scheme-7">
      .ColorScheme-Text {
        color:#122036;
      }
      </style>
    <style
       type="text/css"
       id="current-color-scheme-5">
      .ColorScheme-Text {
        color:#122036;
      }
      </style>
    <style
       id="current-color-scheme-9"
       type="text/css">
      .ColorScheme-Text {
        color:#122036;
      }
      </style>
    <style
       id="current-color-scheme-1"
       type="text/css">
      .ColorScheme-Text {
        color:#122036;
      }
      </style>
    <style
       type="text/css"
       id="current-color-scheme-10">
      .ColorScheme-Text {
        color:#122036;
      }
      </style>
    <style
       id="current-color-scheme-6"
       type="text/css">
      .ColorScheme-Text {
        color:#122036;
      }
      </style>
    <style
       id="current-color-scheme-7-1"
       type="text/css">
      .ColorScheme-Text {
        color:#122036;
      }
      </style>
    <style
       id="current-color-scheme-5-2"
       type="text/css">
      .ColorScheme-Text {
        color:#122036;
      }
      </style>
    <style
       id="current-color-scheme-56"
       type="text/css">
      .ColorScheme-Text {
        color:#122036;
      }
      </style>
    <style
       id="current-color-scheme-7-2"
       type="text/css">
      .ColorScheme-Text {
        color:#122036;
      }
      </style>
    <style
       id="current-color-scheme-5-9"
       type="text/css">
      .ColorScheme-Text {
        color:#122036;
      }
      </style>
    <style
       type="text/css"
       id="current-color-scheme-9-1">
      .ColorScheme-Text {
        color:#122036;
      }
      </style>
    <style
       type="text/css"
       id="current-color-scheme-1-2">
      .ColorScheme-Text {
        color:#122036;
      }
      </style>
    <style
       id="current-color-scheme-10-7"
       type="text/css">
      .ColorScheme-Text {
        color:#122036;
      }
      </style>
    <style
       type="text/css"
       id="current-color-scheme-6-0">
      .ColorScheme-Text {
        color:#122036;
      }
      </style>
    <style
       type="text/css"
       id="current-color-scheme-7-1-9">
      .ColorScheme-Text {
        color:#122036;
      }
      </style>
    <style
       type="text/css"
       id="current-color-scheme-5-2-3">
      .ColorScheme-Text {
        color:#122036;
      }
      </style>
    <linearGradient
       inkscape:collect="always"
       id="linearGradient8210">
      <stop
         style="stop-color:#3489e5;stop-opacity:1"
         offset="0"
         id="stop8206" />
      <stop
         style="stop-color:#3a98f2;stop-opacity:1"
         offset="1"
         id="stop8208" />
    </linearGradient>
    <linearGradient
       inkscape:collect="always"
       id="linearGradient8202">
      <stop
         style="stop-color:#3c9af3;stop-opacity:1"
         offset="0"
         id="stop8198" />
      <stop
         style="stop-color:#51c5f9;stop-opacity:1"
         offset="1"
         id="stop8200" />
    </linearGradient>
    <linearGradient
       inkscape:collect="always"
       id="linearGradient4627">
      <stop
         style="stop-color:#c2f7f9;stop-opacity:1"
         offset="0"
         id="stop4623" />
      <stop
         style="stop-color:#e5fafb;stop-opacity:1"
         offset="1"
         id="stop4625" />
    </linearGradient>
    <linearGradient
       inkscape:collect="always"
       xlink:href="#linearGradient4627"
       id="linearGradient914"
       gradientUnits="userSpaceOnUse"
       gradientTransform="translate(0.9999997,-256.1857)"
       x1="31"
       y1="306.1857"
       x2="31"
       y2="285.1857" />
  </defs>
  <sodipodi:namedview
     id="base"
     pagecolor="#ffffff"
     bordercolor="#666666"
     borderopacity="1.0"
     inkscape:pageopacity="0.0"
     inkscape:pageshadow="2"
     inkscape:zoom="0.70710678"
     inkscape:cx="-18.545027"
     inkscape:cy="92.014901"
     inkscape:document-units="px"
     inkscape:current-layer="layer1"
     showgrid="true"
     units="px"
     inkscape:window-width="1360"
     inkscape:window-height="711"
     inkscape:window-x="0"
     inkscape:window-y="28"
     inkscape:window-maximized="1"
     objecttolerance="10"
     gridtolerance="10"
     guidetolerance="10"
     inkscape:snap-smooth-nodes="true"
     inkscape:object-nodes="true"
     inkscape:object-paths="true"
     inkscape:snap-intersection-paths="true"
     inkscape:snap-bbox="true"
     inkscape:bbox-paths="true"
     inkscape:bbox-nodes="true"
     inkscape:snap-bbox-edge-midpoints="true"
     inkscape:snap-bbox-midpoints="true">
    <inkscape:grid
       type="xygrid"
       id="grid7897"
       empspacing="4" />
  </sodipodi:namedview>
  <metadata
     id="metadata5">
    <rdf:RDF>
      <cc:Work
         rdf:about="">
        <dc:format>image/svg+xml</dc:format>
        <dc:type
           rdf:resource="http://purl.org/dc/dcmitype/StillImage" />
        <dc:title>Antu icon Theme</dc:title>
      </cc:Work>
    </rdf:RDF>
  </metadata>
  <g
     inkscape:label="Capa 1"
     inkscape:groupmode="layer"
     id="layer1"
     transform="translate(0,-250.64999)">
    <g
       id="g951">
      <g
         transform="translate(11.999999,-3.999995)"
         id="g6054">
        <path
           style="opacity:1;fill:#3182d9;fill-opacity:1;stroke:none;stroke-width:0.99999994;stroke-opacity:1"
           d="m -8.999992,258.64996 21.999988,8e-5 5.000012,6.99999 h 30.999985 c 1.66201,0 3,1.33799 3,3 v 9 c 0,1.66201 -1.33799,3 -3,3 H -8.999992 c -1.662009,0 -3,-1.33799 -3,-3 v -16.00005 c 0,-1.66201 1.337991,-3 3,-3.00002 z"
           id="rect9319-4"
           inkscape:connector-curvature="0"
           sodipodi:nodetypes="sccssssssss" />
        <path
           style="opacity:1;fill:url(#linearGradient8212);fill-opacity:1.0;stroke:none;stroke-width:0.99999994;stroke-opacity:1"
           d="m -9.00003,259.64999 21.000038,4e-5 6.999987,9.99999 -5.000012,7.00002 H -9.00003 c -1.108006,0 -2.000012,-0.892 -2.000012,-2 v -13.00006 c 0,-1.10797 0.892006,-1.99997 2.000012,-1.99999 z"
           id="rect9322-9"
           inkscape:connector-curvature="0"
           sodipodi:nodetypes="scccssss" />
        <path
           style="opacity:1;fill:#3182d9;fill-opacity:1;stroke:none;stroke-width:0.99999994;stroke-opacity:1"
           d="m -8.999992,273.64996 21,7e-5 4.999975,-8.00008 h 32.00001 c 1.66201,0 3,1.33799 3,3 v 43.00006 c 0,1.66201 -1.33799,3 -3,3 H -8.999992 c -1.662009,0 -3,-1.33799 -3,-3 v -35.00005 c 0,-1.66201 1.337991,-3 3,-3 z"
           id="rect9313-2"
           inkscape:connector-curvature="0"
           sodipodi:nodetypes="sccssssssss" />
        <path
           style="opacity:1;fill:url(#linearGradient8204);fill-opacity:1.0;stroke:none;stroke-width:0.99999994;stroke-opacity:1"
           d="m -9.00003,274.64999 22.000026,4e-5 5.000012,-8.00002 30.999985,-4e-5 c 1.108006,0 2.000013,0.89201 2.000013,2.00001 v 43.00003 c 0,1.10801 -0.892007,2.00001 -2.000013,2.00001 H -9.00003 c -1.108006,0 -2.000012,-0.892 -2.000012,-2.00001 V 276.65 c 0,-1.10801 0.892006,-2.00002 2.000012,-2.00001 z"
           id="rect9315-0"
           inkscape:connector-curvature="0"
           sodipodi:nodetypes="sccssssssss" />
      </g>
      <path
         id="rect4256-0-59"
         d="m 32,278.64999 c -3.522921,0 -6.29748,2.62086 -6.798828,6 h 3 c 0.450945,-1.71553 1.937895,-3 3.798828,-3 2.216,0 4,1.784 4,4 v 2 h -1 -6 -1 -3 -1 c -0.554,0 -1,0.446 -1,1 v 13 c 0,0.554 0.446,1 1,1 h 11 5 c 0.553994,0 1,-0.44601 1,-1 v -9 -4 c 0,-0.55399 -0.446006,-1 -1,-1 h -1 v -2 c 0,-3.878 -3.122,-7 -7,-7 z m -0.103516,13 h 0.207032 c 1.051116,0 1.896484,0.84537 1.896484,1.89648 v 0.20704 c 0,0.72373 -0.406988,1.342 -1,1.6621 v 3.23438 c 0,0.554 -0.446,1 -1,1 -0.554,0 -1,-0.446 -1,-1 v -3.23438 c -0.593012,-0.3201 -1,-0.93837 -1,-1.6621 v -0.20704 c 0,-1.05111 0.845368,-1.89648 1.896484,-1.89648 z"
         style="opacity:1;fill:#358bd9;fill-opacity:1;stroke:none;stroke-width:4;stroke-linecap:round;stroke-linejoin:round;stroke-miterlimit:4;stroke-dasharray:none;stroke-dashoffset:0;stroke-opacity:1"
         inkscape:connector-curvature="0" />
      <path
         id="rect4256-0"
         transform="translate(0,250.64999)"
         d="M 32 27 C 28.477079 27 25.70252 29.620865 25.201172 33 L 28.201172 33 C 28.652117 31.284471 30.139067 30 32 30 C 34.216 30 36 31.784 36 34 L 36 36 L 35 36 L 29 36 L 28 36 L 25 36 L 24 36 C 23.446 36 23 36.446 23 37 L 23 50 C 23 50.554 23.446 51 24 51 L 35 51 L 40 51 C 40.553994 51 41 50.553994 41 50 L 41 41 L 41 37 C 41 36.446006 40.553994 36 40 36 L 39 36 L 39 34 C 39 30.122 35.878 27 32 27 z M 31.896484 40 L 32.103516 40 C 33.154632 40 34 40.845374 34 41.896484 L 34 42.103516 C 34 42.827246 33.593012 43.445525 33 43.765625 L 33 47 C 33 47.554 32.554 48 32 48 C 31.446 48 31 47.554 31 47 L 31 43.765625 C 30.406988 43.445525 30 42.827246 30 42.103516 L 30 41.896484 C 30 40.845374 30.845368 40 31.896484 40 z "
         style="opacity:1;fill:url(#linearGradient914);fill-opacity:1;stroke:none;stroke-width:4;stroke-linecap:round;stroke-linejoin:round;stroke-miterlimit:4;stroke-dasharray:none;stroke-dashoffset:0;stroke-opacity:1" />
    </g>
  </g>
</svg>
