<?xml version="1.0" encoding="UTF-8" standalone="no"?>
<!-- Created with Inkscape (http://www.inkscape.org/) -->

<svg
   xmlns:dc="http://purl.org/dc/elements/1.1/"
   xmlns:cc="http://creativecommons.org/ns#"
   xmlns:rdf="http://www.w3.org/1999/02/22-rdf-syntax-ns#"
   xmlns:svg="http://www.w3.org/2000/svg"
   xmlns="http://www.w3.org/2000/svg"
   xmlns:xlink="http://www.w3.org/1999/xlink"
   xmlns:sodipodi="http://sodipodi.sourceforge.net/DTD/sodipodi-0.dtd"
   xmlns:inkscape="http://www.inkscape.org/namespaces/inkscape"
   width="64"
   height="64"
   viewBox="0 0 64 64"
   version="1.1"
   id="svg8"
   inkscape:version="0.92.2 2405546, 2018-03-11"
   sodipodi:docname="insync-folder.svg">
  <title
     id="title7895">Antu icon Theme</title>
  <defs
     id="defs2">
    <linearGradient
       gradientTransform="matrix(3.7795275,0,0,3.7795275,15.075507,-803.79743)"
       inkscape:collect="always"
       xlink:href="#linearGradient8210"
       id="linearGradient8212"
       x1="-3.7241442"
       y1="285.07458"
       x2="-3.7241442"
       y2="281.37042"
       gradientUnits="userSpaceOnUse" />
    <linearGradient
       inkscape:collect="always"
       id="linearGradient8210">
      <stop
         style="stop-color:#3489e5;stop-opacity:1"
         offset="0"
         id="stop8206" />
      <stop
         style="stop-color:#3a98f2;stop-opacity:1"
         offset="1"
         id="stop8208" />
    </linearGradient>
    <linearGradient
       gradientTransform="matrix(3.7795275,0,0,3.7795275,15.075507,-803.79743)"
       inkscape:collect="always"
       xlink:href="#linearGradient8202"
       id="linearGradient8204"
       x1="2.096689"
       y1="295.65793"
       x2="2.096689"
       y2="283.2225"
       gradientUnits="userSpaceOnUse" />
    <linearGradient
       inkscape:collect="always"
       id="linearGradient8202">
      <stop
         style="stop-color:#3c9af3;stop-opacity:1"
         offset="0"
         id="stop8198" />
      <stop
         style="stop-color:#51c5f9;stop-opacity:1"
         offset="1"
         id="stop8200" />
    </linearGradient>
    <style
       type="text/css"
       id="current-color-scheme">
      .ColorScheme-Text {
        color:#122036;
      }
      </style>
    <style
       type="text/css"
       id="current-color-scheme-7">
      .ColorScheme-Text {
        color:#122036;
      }
      </style>
    <style
       type="text/css"
       id="current-color-scheme-5">
      .ColorScheme-Text {
        color:#122036;
      }
      </style>
    <style
       id="current-color-scheme-9"
       type="text/css">
      .ColorScheme-Text {
        color:#122036;
      }
      </style>
    <style
       id="current-color-scheme-1"
       type="text/css">
      .ColorScheme-Text {
        color:#122036;
      }
      </style>
    <style
       type="text/css"
       id="current-color-scheme-10">
      .ColorScheme-Text {
        color:#122036;
      }
      </style>
    <style
       id="current-color-scheme-6"
       type="text/css">
      .ColorScheme-Text {
        color:#122036;
      }
      </style>
    <style
       id="current-color-scheme-7-1"
       type="text/css">
      .ColorScheme-Text {
        color:#122036;
      }
      </style>
    <style
       id="current-color-scheme-5-2"
       type="text/css">
      .ColorScheme-Text {
        color:#122036;
      }
      </style>
    <style
       type="text/css"
       id="current-color-scheme-3">
      .ColorScheme-Text {
        color:#122036;
      }
      </style>
    <style
       type="text/css"
       id="current-color-scheme-7-6">
      .ColorScheme-Text {
        color:#122036;
      }
      </style>
    <style
       type="text/css"
       id="current-color-scheme-5-0">
      .ColorScheme-Text {
        color:#122036;
      }
      </style>
    <style
       id="current-color-scheme-9-6"
       type="text/css">
      .ColorScheme-Text {
        color:#122036;
      }
      </style>
    <style
       id="current-color-scheme-1-2"
       type="text/css">
      .ColorScheme-Text {
        color:#122036;
      }
      </style>
    <style
       type="text/css"
       id="current-color-scheme-10-6">
      .ColorScheme-Text {
        color:#122036;
      }
      </style>
    <style
       id="current-color-scheme-6-1"
       type="text/css">
      .ColorScheme-Text {
        color:#122036;
      }
      </style>
    <style
       id="current-color-scheme-7-1-8"
       type="text/css">
      .ColorScheme-Text {
        color:#122036;
      }
      </style>
    <style
       id="current-color-scheme-5-2-7"
       type="text/css">
      .ColorScheme-Text {
        color:#122036;
      }
      </style>
    <style
       type="text/css"
       id="current-color-scheme-70">
      .ColorScheme-Text {
        color:#122036;
      }
      </style>
    <style
       type="text/css"
       id="current-color-scheme-36">
      .ColorScheme-Text {
        color:#122036;
      }
      </style>
    <style
       type="text/css"
       id="current-color-scheme-8">
      .ColorScheme-Text {
        color:#122036;
      }
      </style>
    <linearGradient
       inkscape:collect="always"
       id="linearGradient4631">
      <stop
         style="stop-color:#c2f0f2;stop-opacity:1"
         offset="0"
         id="stop4627" />
      <stop
         style="stop-color:#f2feff;stop-opacity:1"
         offset="1"
         id="stop4629" />
    </linearGradient>
    <linearGradient
       inkscape:collect="always"
       xlink:href="#linearGradient4631"
       id="linearGradient1048"
       x1="32"
       y1="48.999996"
       x2="32"
       y2="29.999994"
       gradientUnits="userSpaceOnUse" />
  </defs>
  <sodipodi:namedview
     id="base"
     pagecolor="#ffffff"
     bordercolor="#666666"
     borderopacity="1.0"
     inkscape:pageopacity="0.0"
     inkscape:pageshadow="2"
     inkscape:zoom="4"
     inkscape:cx="36.629721"
     inkscape:cy="22.393664"
     inkscape:document-units="px"
     inkscape:current-layer="layer1"
     showgrid="false"
     units="px"
     inkscape:window-width="1360"
     inkscape:window-height="711"
     inkscape:window-x="0"
     inkscape:window-y="28"
     inkscape:window-maximized="1"
     objecttolerance="10"
     gridtolerance="10"
     guidetolerance="10">
    <inkscape:grid
       type="xygrid"
       id="grid7897"
       empspacing="4" />
  </sodipodi:namedview>
  <metadata
     id="metadata5">
    <rdf:RDF>
      <cc:Work
         rdf:about="">
        <dc:format>image/svg+xml</dc:format>
        <dc:type
           rdf:resource="http://purl.org/dc/dcmitype/StillImage" />
        <dc:title>Antu icon Theme</dc:title>
      </cc:Work>
    </rdf:RDF>
  </metadata>
  <g
     inkscape:label="Capa 1"
     inkscape:groupmode="layer"
     id="layer1"
     transform="translate(0,-250.64999)">
    <g
       id="g6054"
       transform="translate(11.999999,-3.999995)">
      <path
         sodipodi:nodetypes="sccssssssss"
         inkscape:connector-curvature="0"
         id="rect9319-4"
         d="m -8.999992,258.64996 21.999988,8e-5 5.000012,6.99999 h 30.999985 c 1.66201,0 3,1.33799 3,3 v 9 c 0,1.66201 -1.33799,3 -3,3 H -8.999992 c -1.662009,0 -3,-1.33799 -3,-3 v -16.00005 c 0,-1.66201 1.337991,-3 3,-3.00002 z"
         style="opacity:1;fill:#3182d9;fill-opacity:1;stroke:none;stroke-width:0.99999994;stroke-opacity:1" />
      <path
         sodipodi:nodetypes="scccssss"
         inkscape:connector-curvature="0"
         id="rect9322-9"
         d="m -9.00003,259.64999 21.000038,4e-5 6.999987,9.99999 -5.000012,7.00002 H -9.00003 c -1.108006,0 -2.000012,-0.892 -2.000012,-2 v -13.00006 c 0,-1.10797 0.892006,-1.99997 2.000012,-1.99999 z"
         style="opacity:1;fill:url(#linearGradient8212);fill-opacity:1;stroke:none;stroke-width:0.99999994;stroke-opacity:1" />
      <path
         sodipodi:nodetypes="sccssssssss"
         inkscape:connector-curvature="0"
         id="rect9313-2"
         d="m -8.999992,273.64996 21,7e-5 4.999975,-8.00008 h 32.00001 c 1.66201,0 3,1.33799 3,3 v 43.00006 c 0,1.66201 -1.33799,3 -3,3 H -8.999992 c -1.662009,0 -3,-1.33799 -3,-3 v -35.00005 c 0,-1.66201 1.337991,-3 3,-3 z"
         style="opacity:1;fill:#3182d9;fill-opacity:1;stroke:none;stroke-width:0.99999994;stroke-opacity:1" />
      <path
         sodipodi:nodetypes="sccssssssss"
         inkscape:connector-curvature="0"
         id="rect9315-0"
         d="m -9.00003,274.64999 22.000026,4e-5 5.000012,-8.00002 30.999985,-4e-5 c 1.108006,0 2.000013,0.89201 2.000013,2.00001 v 43.00003 c 0,1.10801 -0.892007,2.00001 -2.000013,2.00001 H -9.00003 c -1.108006,0 -2.000012,-0.892 -2.000012,-2.00001 V 276.65 c 0,-1.10801 0.892006,-2.00002 2.000012,-2.00001 z"
         style="opacity:1;fill:url(#linearGradient8204);fill-opacity:1;stroke:none;stroke-width:0.99999994;stroke-opacity:1" />
      <path
         inkscape:connector-curvature="0"
         style="color:#000000;font-style:normal;font-variant:normal;font-weight:normal;font-stretch:normal;font-size:medium;line-height:normal;font-family:sans-serif;font-variant-ligatures:normal;font-variant-position:normal;font-variant-caps:normal;font-variant-numeric:normal;font-variant-alternates:normal;font-feature-settings:normal;text-indent:0;text-align:start;text-decoration:none;text-decoration-line:none;text-decoration-style:solid;text-decoration-color:#000000;letter-spacing:normal;word-spacing:normal;text-transform:none;writing-mode:lr-tb;direction:ltr;text-orientation:mixed;dominant-baseline:auto;baseline-shift:baseline;text-anchor:start;white-space:normal;shape-padding:0;clip-rule:nonzero;display:inline;overflow:visible;visibility:visible;opacity:1;isolation:auto;mix-blend-mode:normal;color-interpolation:sRGB;color-interpolation-filters:linearRGB;solid-color:#000000;solid-opacity:1;vector-effect:none;fill:#358bd9;fill-opacity:1;fill-rule:nonzero;stroke:none;stroke-width:2;stroke-linecap:round;stroke-linejoin:round;stroke-miterlimit:4;stroke-dasharray:none;stroke-dashoffset:0;stroke-opacity:1;color-rendering:auto;image-rendering:auto;shape-rendering:auto;text-rendering:auto;enable-background:accumulate"
         d="m 17.000001,284.64999 a 1.0001,1.0001 0 0 0 -0.84375,1.5371 l 7,11 a 1.0001,1.0001 0 0 0 0.84375,0.4629 h 6 a 1.0001,1.0001 0 0 0 0.84375,-1.53711 l -7,-11 a 1.0001,1.0001 0 0 0 -0.84375,-0.46289 z m -1.992188,2 a 1.0001,1.0001 0 0 0 -0.865234,0.48631 l -5.9999997,10 a 1.0001,1.0001 0 0 0 -0.03711,0.96094 l 3.0000007,6 a 1.0001,1.0001 0 0 0 1.751953,0.0664 l 5.999999,-10 a 1.0001,1.0001 0 0 0 0.03711,-0.96094 l -3,-6 a 1.0001,1.0001 0 0 0 -0.886719,-0.55273 z m 2.992188,12 a 1.0001,1.0001 0 0 0 -0.832031,0.44531 l -4,6 a 1.0001,1.0001 0 0 0 0.832031,1.55469 h 12 a 1.0001,1.0001 0 0 0 0.832031,-0.44532 l 4,-6 a 1.0001,1.0001 0 0 0 -0.832031,-1.55468 z"
         id="path1039-6" />
      <path
         style="color:#000000;font-style:normal;font-variant:normal;font-weight:normal;font-stretch:normal;font-size:medium;line-height:normal;font-family:sans-serif;font-variant-ligatures:normal;font-variant-position:normal;font-variant-caps:normal;font-variant-numeric:normal;font-variant-alternates:normal;font-feature-settings:normal;text-indent:0;text-align:start;text-decoration:none;text-decoration-line:none;text-decoration-style:solid;text-decoration-color:#000000;letter-spacing:normal;word-spacing:normal;text-transform:none;writing-mode:lr-tb;direction:ltr;text-orientation:mixed;dominant-baseline:auto;baseline-shift:baseline;text-anchor:start;white-space:normal;shape-padding:0;clip-rule:nonzero;display:inline;overflow:visible;visibility:visible;opacity:1;isolation:auto;mix-blend-mode:normal;color-interpolation:sRGB;color-interpolation-filters:linearRGB;solid-color:#000000;solid-opacity:1;vector-effect:none;fill:url(#linearGradient1048);fill-opacity:1;fill-rule:nonzero;stroke:none;stroke-width:2;stroke-linecap:round;stroke-linejoin:round;stroke-miterlimit:4;stroke-dasharray:none;stroke-dashoffset:0;stroke-opacity:1;color-rendering:auto;image-rendering:auto;shape-rendering:auto;text-rendering:auto;enable-background:accumulate"
         d="M 29 29 A 1.0001 1.0001 0 0 0 28.15625 30.537109 L 35.15625 41.537109 A 1.0001 1.0001 0 0 0 36 42 L 42 42 A 1.0001 1.0001 0 0 0 42.84375 40.462891 L 35.84375 29.462891 A 1.0001 1.0001 0 0 0 35 29 L 29 29 z M 27.007812 31 A 1.0001 1.0001 0 0 0 26.142578 31.486328 L 20.142578 41.486328 A 1.0001 1.0001 0 0 0 20.105469 42.447266 L 23.105469 48.447266 A 1.0001 1.0001 0 0 0 24.857422 48.513672 L 30.857422 38.513672 A 1.0001 1.0001 0 0 0 30.894531 37.552734 L 27.894531 31.552734 A 1.0001 1.0001 0 0 0 27.007812 31 z M 30 43 A 1.0001 1.0001 0 0 0 29.167969 43.445312 L 25.167969 49.445312 A 1.0001 1.0001 0 0 0 26 51 L 38 51 A 1.0001 1.0001 0 0 0 38.832031 50.554688 L 42.832031 44.554688 A 1.0001 1.0001 0 0 0 42 43 L 30 43 z "
         id="path1039"
         transform="translate(-11.999999,254.64999)" />
    </g>
  </g>
</svg>
