<?xml version="1.0" encoding="UTF-8" standalone="no"?>
<!-- Created with Inkscape (http://www.inkscape.org/) -->

<svg
   width="64"
   height="64"
   viewBox="0 0 64 64"
   version="1.1"
   id="svg8"
   inkscape:version="1.2 (dc2aedaf03, 2022-05-15)"
   sodipodi:docname="library-music.svg"
   xmlns:inkscape="http://www.inkscape.org/namespaces/inkscape"
   xmlns:sodipodi="http://sodipodi.sourceforge.net/DTD/sodipodi-0.dtd"
   xmlns:xlink="http://www.w3.org/1999/xlink"
   xmlns="http://www.w3.org/2000/svg"
   xmlns:svg="http://www.w3.org/2000/svg"
   xmlns:rdf="http://www.w3.org/1999/02/22-rdf-syntax-ns#"
   xmlns:cc="http://creativecommons.org/ns#"
   xmlns:dc="http://purl.org/dc/elements/1.1/">
  <title
     id="title7895">Antu icon Theme</title>
  <defs
     id="defs2">
    <linearGradient
       inkscape:collect="always"
       xlink:href="#linearGradient4627"
       id="linearGradient8037"
       gradientUnits="userSpaceOnUse"
       x1="6.6145835"
       y1="294.08963"
       x2="6.6145835"
       y2="290.38547"
       gradientTransform="matrix(3.7795275,0,0,3.7795275,-24,-807.30068)" />
    <linearGradient
       inkscape:collect="always"
       id="linearGradient4627">
      <stop
         style="stop-color:#c2f7f9;stop-opacity:1"
         offset="0"
         id="stop4623" />
      <stop
         style="stop-color:#ecfafb;stop-opacity:1"
         offset="1"
         id="stop4625" />
    </linearGradient>
    <linearGradient
       inkscape:collect="always"
       xlink:href="#linearGradient10239"
       id="linearGradient940"
       x1="18"
       y1="361.64999"
       x2="18"
       y2="346.64999"
       gradientUnits="userSpaceOnUse" />
    <linearGradient
       id="linearGradient10239"
       inkscape:collect="always">
      <stop
         id="stop10235"
         offset="0"
         style="stop-color:#479df0;stop-opacity:1;" />
      <stop
         id="stop10237"
         offset="1"
         style="stop-color:#0e6fd8;stop-opacity:1;" />
    </linearGradient>
    <linearGradient
       inkscape:collect="always"
       xlink:href="#linearGradient10231"
       id="linearGradient972"
       x1="38"
       y1="404.64999"
       x2="38"
       y2="354.64999"
       gradientUnits="userSpaceOnUse" />
    <linearGradient
       id="linearGradient10231"
       inkscape:collect="always">
      <stop
         id="stop10227"
         offset="0"
         style="stop-color:#3ea0f4;stop-opacity:1;" />
      <stop
         id="stop10229"
         offset="1"
         style="stop-color:#50c2f9;stop-opacity:1" />
    </linearGradient>
  </defs>
  <sodipodi:namedview
     id="base"
     pagecolor="#ffffff"
     bordercolor="#666666"
     borderopacity="1.0"
     inkscape:pageopacity="0.0"
     inkscape:pageshadow="2"
     inkscape:zoom="15.839192"
     inkscape:cx="25.885159"
     inkscape:cy="28.694646"
     inkscape:document-units="px"
     inkscape:current-layer="layer1"
     showgrid="true"
     units="px"
     inkscape:window-width="2160"
     inkscape:window-height="1337"
     inkscape:window-x="0"
     inkscape:window-y="0"
     inkscape:window-maximized="1"
     objecttolerance="10"
     gridtolerance="10"
     guidetolerance="10"
     inkscape:showpageshadow="2"
     inkscape:pagecheckerboard="0"
     inkscape:deskcolor="#d1d1d1">
    <inkscape:grid
       type="xygrid"
       id="grid7897"
       empspacing="4" />
  </sodipodi:namedview>
  <metadata
     id="metadata5">
    <rdf:RDF>
      <cc:Work
         rdf:about="">
        <dc:format>image/svg+xml</dc:format>
        <dc:type
           rdf:resource="http://purl.org/dc/dcmitype/StillImage" />
        <dc:title>Antu icon Theme</dc:title>
      </cc:Work>
    </rdf:RDF>
  </metadata>
  <g
     inkscape:label="Capa 1"
     inkscape:groupmode="layer"
     id="layer1"
     transform="translate(0,-250.64999)">
    <g
       transform="translate(-6,-93.00001)"
       id="g1529">
      <path
         inkscape:connector-curvature="0"
         id="path1475"
         d="m 12,345.65 c -4,0 -6,3 -6,6 v 49 c 0,2.75269 2.2472973,5 5,5 h 54 c 2.752703,0 5,-2.24731 5,-5 v -42 c 0,-2.75271 -2.247297,-5 -5,-5 H 38 c -0.305556,0 -0.669523,-0.21927 -1.185547,-0.87109 -0.516024,-0.65182 -1.073964,-1.63475 -1.714844,-2.66016 -0.64088,-1.02541 -1.369755,-2.1008 -2.341797,-2.96484 C 31.785773,346.28987 30.516667,345.65 29,345.65 Z"
         style="color:#000000;font-style:normal;font-variant:normal;font-weight:normal;font-stretch:normal;font-size:medium;line-height:normal;font-family:sans-serif;font-variant-ligatures:normal;font-variant-position:normal;font-variant-caps:normal;font-variant-numeric:normal;font-variant-alternates:normal;font-feature-settings:normal;text-indent:0;text-align:start;text-decoration:none;text-decoration-line:none;text-decoration-style:solid;text-decoration-color:#000000;letter-spacing:normal;word-spacing:normal;text-transform:none;writing-mode:lr-tb;direction:ltr;text-orientation:mixed;dominant-baseline:auto;baseline-shift:baseline;text-anchor:start;white-space:normal;shape-padding:0;clip-rule:nonzero;display:inline;overflow:visible;visibility:visible;opacity:1;isolation:auto;mix-blend-mode:normal;color-interpolation:sRGB;color-interpolation-filters:linearRGB;solid-color:#000000;solid-opacity:1;vector-effect:none;fill:#286bb2;fill-opacity:1;fill-rule:nonzero;stroke:none;stroke-width:2;stroke-linecap:round;stroke-linejoin:round;stroke-miterlimit:4;stroke-dasharray:none;stroke-dashoffset:0;stroke-opacity:1;color-rendering:auto;image-rendering:auto;shape-rendering:auto;text-rendering:auto;enable-background:accumulate"
         sodipodi:nodetypes="ssssssssssssss" />
      <path
         sodipodi:nodetypes="sccssssssss"
         inkscape:connector-curvature="0"
         id="rect1374-3"
         d="m 12,346.64999 h 16.999999 c 5,0 6.000002,8 9.000002,8 H 65 c 2.216,0 4,1.784 4,4 v 42 c 0,2.216 -1.784,4 -4,4 H 11 c -2.2159999,0 -3.9999999,-1.784 -3.9999999,-4 l 3e-7,-48.97939 C 7.0000004,348.65 9,346.64999 12,346.64999 Z"
         style="opacity:1;vector-effect:none;fill:url(#linearGradient940);fill-opacity:1;stroke:none;stroke-width:2;stroke-linecap:round;stroke-linejoin:round;stroke-miterlimit:4;stroke-dasharray:none;stroke-dashoffset:0;stroke-opacity:1" />
      <path
         inkscape:connector-curvature="0"
         id="path1453"
         d="m 38,353.65 c -1.194444,0 -2.080477,0.78073 -2.751953,1.62891 -0.671476,0.84818 -1.238536,1.86525 -1.847656,2.83984 -0.60912,0.97459 -1.255245,1.8992 -1.970703,2.53516 C 30.714228,361.28987 29.983333,361.65 29,361.65 H 11 c -2.7527027,0 -5,2.24729 -5,5 v 34 c 0,2.75269 2.2472973,5 5,5 h 54 c 2.752703,0 5,-2.24731 5,-5 v -42 c 0,-2.75271 -2.247297,-5 -5,-5 z"
         style="color:#000000;font-style:normal;font-variant:normal;font-weight:normal;font-stretch:normal;font-size:medium;line-height:normal;font-family:sans-serif;font-variant-ligatures:normal;font-variant-position:normal;font-variant-caps:normal;font-variant-numeric:normal;font-variant-alternates:normal;font-feature-settings:normal;text-indent:0;text-align:start;text-decoration:none;text-decoration-line:none;text-decoration-style:solid;text-decoration-color:#000000;letter-spacing:normal;word-spacing:normal;text-transform:none;writing-mode:lr-tb;direction:ltr;text-orientation:mixed;dominant-baseline:auto;baseline-shift:baseline;text-anchor:start;white-space:normal;shape-padding:0;clip-rule:nonzero;display:inline;overflow:visible;visibility:visible;opacity:1;isolation:auto;mix-blend-mode:normal;color-interpolation:sRGB;color-interpolation-filters:linearRGB;solid-color:#000000;solid-opacity:1;vector-effect:none;fill:#3182d9;fill-opacity:1;fill-rule:nonzero;stroke:none;stroke-width:2;stroke-linecap:round;stroke-linejoin:round;stroke-miterlimit:4;stroke-dasharray:none;stroke-dashoffset:0;stroke-opacity:1;color-rendering:auto;image-rendering:auto;shape-rendering:auto;text-rendering:auto;enable-background:accumulate" />
      <path
         sodipodi:nodetypes="sccssssssss"
         inkscape:connector-curvature="0"
         id="rect1374-4-4"
         d="m 11,362.64999 h 17.999999 c 5,0 6.000002,-8 9.000002,-8 H 65 c 2.216,0 4,1.784 4,4 v 42 c 0,2.216 -1.784,4 -4,4 H 11 c -2.2159999,0 -3.9999996,-1.784 -3.9999996,-4 v -34 c 0,-2.216 1.7839997,-4 3.9999996,-4 z"
         style="opacity:1;vector-effect:none;fill:url(#linearGradient972);fill-opacity:1;stroke:none;stroke-width:2;stroke-linecap:round;stroke-linejoin:round;stroke-miterlimit:4;stroke-dasharray:none;stroke-dashoffset:0;stroke-opacity:1" />
    </g>
    <g
       id="g9421"
       transform="translate(23.999999,-1.569155)">
      <path
         sodipodi:nodetypes="cccccssssccccccsssscccccccccccssssccc"
         inkscape:connector-curvature="0"
         id="rect4545"
         d="m 4.0000003,277.21923 -5.00000004,2.00002 v 2.00001 1.99997 2.34573 c -0.45556196,-0.21619 -0.96038596,-0.34583 -1.49999996,-0.34583 -1.939,0 -3.500001,1.56098 -3.500001,3.5 0,1.93901 1.561001,3.49999 3.500001,3.49999 1.93900296,0 3.621779,-1.5648 3.5,-3.49999 v -6.30078 l 3,-1.19921 z m 8.9999987,2.99989 -6.9999997,3 v 11.02344 c -1.009822,-0.64493 -2.207938,-1.02342 -3.5,-1.02342 -3.600998,0 -6.5,2.89898 -6.5,6.5 0,3.60098 2.899002,6.49999 6.5,6.49999 3.601002,0 6.5,-2.89901 6.5,-6.49999 0,-0.034 -0.0047,-0.0688 -0.0059,-0.10356 l 0.0059,0.004 v -9.40037 -2.00001 l 4.0000017,-2.00005 z m 8,8.0002 -5.000001,2.00001 v 1.99998 2.00001 2.34569 c -0.455562,-0.21619 -0.960386,-0.34583 -1.5,-0.34583 -1.938997,0 -3.499997,1.56099 -3.499997,3.5 0,1.93901 1.561,3.49999 3.499997,3.49999 1.939003,0 3.558845,-1.56189 3.500001,-3.49999 v -6.30078 l 3,-1.19924 z"
         style="opacity:1;fill:#3182d9;fill-opacity:1;stroke:none;stroke-width:1;stroke-opacity:1" />
      <path
         sodipodi:nodetypes="cccccssssccccccsssscccccccccccssssccc"
         inkscape:connector-curvature="0"
         id="rect4545-5"
         d="m 4.0000003,276.21928 -5.00000004,2.00002 v 2.00001 1.99997 2.34573 c -0.45556196,-0.21619 -0.96038596,-0.34583 -1.49999996,-0.34583 -1.939,0 -3.5,1.56099 -3.5,3.5 0,1.93901 1.561,3.49999 3.5,3.49999 1.93900296,0 3.5,-1.56098 3.5,-3.49999 v -6.30078 l 3,-1.1992 z M 13,279.21902 l -7.0000007,3 v 11.02344 c -1.009822,-0.64493 -2.207938,-1.02341 -3.5,-1.02341 -3.600998,0 -6.5,2.89897 -6.5,6.49999 0,3.60098 2.899002,6.49999 6.5,6.49999 3.601003,0 6.5,-2.89901 6.5,-6.49999 0,-0.034 -0.0047,-0.0688 -0.0059,-0.10356 l 0.0059,0.004 v -9.40037 -2.00001 L 13,285.21909 Z m 7.999999,8.00016 -5.000001,2.00002 v 1.99997 2.00001 2.34569 c -0.455562,-0.21619 -0.960386,-0.34582 -1.5,-0.34582 -1.938997,0 -3.499997,1.56098 -3.499997,3.49999 0,1.93901 1.561,3.49999 3.499997,3.49999 1.939003,0 3.540049,-1.5614 3.500001,-3.49999 v -6.30078 l 3,-1.19924 z"
         style="opacity:1;fill:url(#linearGradient8037);fill-opacity:1;stroke:none;stroke-width:1;stroke-opacity:1" />
    </g>
  </g>
</svg>
