<?xml version="1.0" encoding="UTF-8" standalone="no"?>
<!-- Created with Inkscape (http://www.inkscape.org/) -->

<svg
   xmlns:dc="http://purl.org/dc/elements/1.1/"
   xmlns:cc="http://creativecommons.org/ns#"
   xmlns:rdf="http://www.w3.org/1999/02/22-rdf-syntax-ns#"
   xmlns:svg="http://www.w3.org/2000/svg"
   xmlns="http://www.w3.org/2000/svg"
   xmlns:xlink="http://www.w3.org/1999/xlink"
   xmlns:sodipodi="http://sodipodi.sourceforge.net/DTD/sodipodi-0.dtd"
   xmlns:inkscape="http://www.inkscape.org/namespaces/inkscape"
   width="64"
   height="64"
   viewBox="0 0 64 64"
   version="1.1"
   id="svg8"
   inkscape:version="0.91 r13725"
   sodipodi:docname="manjaro.svg">
  <title
     id="title7895">Antu icon Theme</title>
  <defs
     id="defs2">
    <linearGradient
       gradientUnits="userSpaceOnUse"
       y2="281.125"
       x2="7.4083333"
       y1="295.94168"
       x1="7.4083333"
       id="linearGradient4616"
       xlink:href="#0"
       inkscape:collect="always"
       gradientTransform="matrix(3.7795275,0,0,3.7795275,-16,-799.86971)" />
    <linearGradient
       y2="518.14"
       x2="0"
       y1="545.14"
       gradientUnits="userSpaceOnUse"
       id="0">
      <stop
         id="stop4164"
         stop-color="#00a661" />
      <stop
         id="stop4166"
         stop-color="#37ce97"
         offset="1" />
    </linearGradient>
  </defs>
  <sodipodi:namedview
     id="base"
     pagecolor="#ffffff"
     bordercolor="#666666"
     borderopacity="1.0"
     inkscape:pageopacity="0.0"
     inkscape:pageshadow="2"
     inkscape:zoom="1"
     inkscape:cx="-129.00805"
     inkscape:cy="19.997755"
     inkscape:document-units="px"
     inkscape:current-layer="layer1"
     showgrid="false"
     units="px"
     inkscape:window-width="1360"
     inkscape:window-height="697"
     inkscape:window-x="0"
     inkscape:window-y="0"
     inkscape:window-maximized="1"
     objecttolerance="10"
     gridtolerance="10"
     guidetolerance="10"
     inkscape:snap-bbox="true"
     inkscape:bbox-nodes="true"
     inkscape:snap-bbox-edge-midpoints="true"
     inkscape:snap-bbox-midpoints="true"
     inkscape:bbox-paths="true">
    <inkscape:grid
       type="xygrid"
       id="grid7897"
       empspacing="4" />
  </sodipodi:namedview>
  <metadata
     id="metadata5">
    <rdf:RDF>
      <cc:Work
         rdf:about="">
        <dc:format>image/svg+xml</dc:format>
        <dc:type
           rdf:resource="http://purl.org/dc/dcmitype/StillImage" />
        <dc:title>Antu icon Theme</dc:title>
      </cc:Work>
    </rdf:RDF>
  </metadata>
  <g
     inkscape:label="Capa 1"
     inkscape:groupmode="layer"
     id="layer1"
     transform="translate(0,-250.64999)">
    <g
       id="g1527"
       transform="translate(16,-8)">
      <path
         id="rect4593"
         d="m 16,260.64999 c 16.62,0 29.999999,13.37998 29.999999,30 0,16.61998 -13.379999,30 -29.999999,30 -16.619999,0 -29.999999,-13.38002 -29.999999,-30 0,-16.62002 13.38,-30 29.999999,-30 z"
         style="opacity:1;fill:#008c52;fill-opacity:1;stroke:none;stroke-width:0.45000011;stroke-miterlimit:4;stroke-dasharray:none;stroke-opacity:1"
         inkscape:connector-curvature="0" />
      <path
         id="rect4593-5"
         d="m 16,261.64998 c 16.066,0 29.000001,12.93399 29.000001,29.00001 C 45.000001,306.716 32.066,319.65 16,319.65 c -16.066,0 -29,-12.934 -29,-29.00001 0,-16.06602 12.934,-29.00001 29,-29.00001 z"
         style="opacity:1;fill:url(#linearGradient4616);fill-opacity:1.0;stroke:none;stroke-width:0.43500012;stroke-miterlimit:4;stroke-dasharray:none;stroke-opacity:1"
         inkscape:connector-curvature="0" />
    </g>
    <path
       style="opacity:1;fill:#008c52;fill-opacity:1;stroke:none;stroke-width:2;stroke-linecap:round;stroke-linejoin:round;stroke-miterlimit:4;stroke-dasharray:none;stroke-opacity:1"
       d="m 18,267.64999 0,13 9,0 0,-4 10,0 0,-9 -10,0 z m 20,0 0,31 9,0 0,-31 z m -10,10 0,21 9,0 0,-21 z m -10,4 0,17 9,0 0,-17 z"
       id="rect4200"
       inkscape:connector-curvature="0"
       sodipodi:nodetypes="ccccccccccccccccccccccc" />
    <path
       style="opacity:1;fill:#edfaf5;fill-opacity:1;stroke:none;stroke-width:2;stroke-linecap:round;stroke-linejoin:round;stroke-miterlimit:4;stroke-dasharray:none;stroke-opacity:1"
       d="m 18,266.64999 0,13 9,0 0,-4 10,0 0,-9 -10,0 z m 20,0 0,31 9,0 0,-31 z m -10,10 0,21 9,0 0,-21 z m -10,4 0,17 9,0 0,-17 z"
       id="rect4200-7"
       inkscape:connector-curvature="0"
       sodipodi:nodetypes="ccccccccccccccccccccccc" />
  </g>
</svg>
