<?xml version="1.0" encoding="UTF-8" standalone="no"?>
<!-- Created with Inkscape (http://www.inkscape.org/) -->

<svg
   xmlns:dc="http://purl.org/dc/elements/1.1/"
   xmlns:cc="http://creativecommons.org/ns#"
   xmlns:rdf="http://www.w3.org/1999/02/22-rdf-syntax-ns#"
   xmlns:svg="http://www.w3.org/2000/svg"
   xmlns="http://www.w3.org/2000/svg"
   xmlns:xlink="http://www.w3.org/1999/xlink"
   xmlns:sodipodi="http://sodipodi.sourceforge.net/DTD/sodipodi-0.dtd"
   xmlns:inkscape="http://www.inkscape.org/namespaces/inkscape"
   width="64"
   height="64"
   viewBox="0 0 64 64"
   version="1.1"
   id="svg8"
   inkscape:version="0.91 r13725"
   sodipodi:docname="neon.svg">
  <title
     id="title7895">Antu icon Theme</title>
  <defs
     id="defs2">
    <linearGradient
       gradientUnits="userSpaceOnUse"
       y2="281.125"
       x2="7.4083333"
       y1="295.94168"
       x1="7.4083333"
       id="linearGradient4616"
       xlink:href="#linearGradient4737"
       inkscape:collect="always"
       gradientTransform="matrix(3.7795275,0,0,3.7795275,-16,-799.86971)" />
    <linearGradient
       inkscape:collect="always"
       id="linearGradient4367">
      <stop
         style="stop-color:#015680;stop-opacity:1"
         offset="0"
         id="stop4369" />
      <stop
         style="stop-color:#008059;stop-opacity:1"
         offset="1"
         id="stop4371" />
    </linearGradient>
    <linearGradient
       inkscape:collect="always"
       id="linearGradient4321">
      <stop
         style="stop-color:#daf1f7;stop-opacity:1"
         offset="0"
         id="stop4323" />
      <stop
         style="stop-color:#daf9f1;stop-opacity:1"
         offset="1"
         id="stop4325" />
    </linearGradient>
    <linearGradient
       inkscape:collect="always"
       id="linearGradient4737">
      <stop
         style="stop-color:#018ed7;stop-opacity:1"
         offset="0"
         id="stop4733" />
      <stop
         style="stop-color:#00dc9a;stop-opacity:1"
         offset="1"
         id="stop4735" />
    </linearGradient>
    <linearGradient
       inkscape:collect="always"
       xlink:href="#linearGradient4367"
       id="linearGradient4204"
       x1="16"
       y1="320.47144"
       x2="16"
       y2="258.64999"
       gradientUnits="userSpaceOnUse" />
    <linearGradient
       inkscape:collect="always"
       xlink:href="#linearGradient4367"
       id="linearGradient4426"
       x1="32"
       y1="304.98947"
       x2="32"
       y2="261.30035"
       gradientUnits="userSpaceOnUse" />
    <linearGradient
       inkscape:collect="always"
       xlink:href="#linearGradient4321"
       id="linearGradient4434"
       x1="32"
       y1="52"
       x2="32"
       y2="12"
       gradientUnits="userSpaceOnUse" />
  </defs>
  <sodipodi:namedview
     id="base"
     pagecolor="#ffffff"
     bordercolor="#666666"
     borderopacity="1.0"
     inkscape:pageopacity="0.0"
     inkscape:pageshadow="2"
     inkscape:zoom="3.959798"
     inkscape:cx="17.860965"
     inkscape:cy="-1.523095"
     inkscape:document-units="px"
     inkscape:current-layer="layer1"
     showgrid="true"
     units="px"
     inkscape:window-width="1360"
     inkscape:window-height="697"
     inkscape:window-x="0"
     inkscape:window-y="0"
     inkscape:window-maximized="1"
     objecttolerance="10"
     gridtolerance="10"
     guidetolerance="10">
    <inkscape:grid
       type="xygrid"
       id="grid7897"
       empspacing="4" />
  </sodipodi:namedview>
  <metadata
     id="metadata5">
    <rdf:RDF>
      <cc:Work
         rdf:about="">
        <dc:format>image/svg+xml</dc:format>
        <dc:type
           rdf:resource="http://purl.org/dc/dcmitype/StillImage" />
        <dc:title>Antu icon Theme</dc:title>
      </cc:Work>
    </rdf:RDF>
  </metadata>
  <g
     inkscape:label="Capa 1"
     inkscape:groupmode="layer"
     id="layer1"
     transform="translate(0,-250.64999)">
    <g
       id="g1527"
       transform="translate(16,-8)">
      <path
         id="rect4593"
         d="m 16,260.64999 c 16.62,0 29.999999,13.37998 29.999999,30 0,16.61998 -13.379999,30 -29.999999,30 -16.619999,0 -29.999999,-13.38002 -29.999999,-30 0,-16.62002 13.38,-30 29.999999,-30 z"
         style="opacity:1;fill:url(#linearGradient4204);fill-opacity:1;stroke:none;stroke-width:0.45000011;stroke-miterlimit:4;stroke-dasharray:none;stroke-opacity:1"
         inkscape:connector-curvature="0" />
      <path
         id="rect4593-5"
         d="m 16,261.64998 c 16.066,0 29.000001,12.93399 29.000001,29.00001 C 45.000001,306.716 32.066,319.65 16,319.65 c -16.066,0 -29,-12.934 -29,-29.00001 0,-16.06602 12.934,-29.00001 29,-29.00001 z"
         style="opacity:1;fill:url(#linearGradient4616);fill-opacity:1;stroke:none;stroke-width:0.43500012;stroke-miterlimit:4;stroke-dasharray:none;stroke-opacity:1"
         inkscape:connector-curvature="0" />
    </g>
    <path
       inkscape:connector-curvature="0"
       style="opacity:1;fill:url(#linearGradient4426);fill-opacity:1;stroke:none;stroke-width:2;stroke-linecap:round;stroke-linejoin:round;stroke-miterlimit:4;stroke-dasharray:none;stroke-opacity:1"
       d="m 32,259.64999 c -1.379493,0 -2.523724,0.92765 -2.876953,2.19141 -4.421822,0.57303 -8.421195,2.44659 -11.607422,5.23046 -0.445669,-0.26177 -0.959337,-0.42187 -1.515625,-0.42187 -1.661999,0 -3,1.338 -3,3 0,0.69949 0.248067,1.33268 0.646484,1.8418 -1.804296,2.72509 -3.014087,5.87833 -3.455078,9.28125 C 8.927654,281.12627 8,282.2705 8,283.64999 c 0,1.37949 0.927654,2.52372 2.191406,2.87695 0.440991,3.40292 1.650782,6.55616 3.455078,9.28125 C 13.248067,296.31731 13,296.9505 13,297.64999 c 0,1.662 1.338001,3 3,3 0.556288,0 1.069956,-0.1601 1.515625,-0.42188 3.186227,2.78388 7.1856,4.65744 11.607422,5.23047 0.353229,1.26376 1.49746,2.19141 2.876953,2.19141 1.379493,0 2.523724,-0.92765 2.876953,-2.19141 4.421822,-0.57303 8.421195,-2.44659 11.607422,-5.23047 0.445669,0.26178 0.959337,0.42188 1.515625,0.42188 1.661999,0 3,-1.338 3,-3 0,-0.69949 -0.248067,-1.33268 -0.646484,-1.8418 1.804296,-2.72509 3.014087,-5.87833 3.455078,-9.28125 C 55.072346,286.17371 56,285.02948 56,283.64999 c 0,-1.37949 -0.927654,-2.52372 -2.191406,-2.87695 -0.440991,-3.40292 -1.650782,-6.55616 -3.455078,-9.28125 C 50.751933,270.98267 51,270.34948 51,269.64999 c 0,-1.662 -1.338001,-3 -3,-3 -0.556288,0 -1.069956,0.1601 -1.515625,0.42187 -3.186227,-2.78387 -7.1856,-4.65743 -11.607422,-5.23046 C 34.523724,260.57764 33.379493,259.64999 32,259.64999 Z m -2.121094,5.125 c 0.542097,0.5411 1.291089,0.875 2.121094,0.875 0.830005,0 1.578997,-0.3339 2.121094,-0.875 4.206153,0.46393 7.980884,2.29509 10.894531,5.03516 0.07457,1.39952 1.090582,2.53744 2.435547,2.78515 1.839649,2.57177 3.058048,5.61731 3.423828,8.9336 -0.541104,0.54209 -0.875,1.29108 -0.875,2.12109 0,0.83001 0.333896,1.579 0.875,2.12109 -0.36578,3.31629 -1.584179,6.36183 -3.423828,8.9336 -1.344965,0.24771 -2.36098,1.38564 -2.435547,2.78515 -2.913647,2.74007 -6.688378,4.57123 -10.894531,5.03516 -0.542097,-0.5411 -1.291089,-0.875 -2.121094,-0.875 -0.830005,0 -1.578997,0.3339 -2.121094,0.875 -4.206153,-0.46393 -7.980884,-2.29509 -10.894531,-5.03516 -0.07457,-1.39951 -1.090582,-2.53744 -2.435547,-2.78515 C 14.709179,292.13291 13.49078,289.08737 13.125,285.77108 13.666104,285.22899 14,284.48 14,283.64999 c 0,-0.83001 -0.333896,-1.579 -0.875,-2.12109 0.36578,-3.31629 1.584179,-6.36183 3.423828,-8.9336 1.344965,-0.24771 2.36098,-1.38563 2.435547,-2.78515 2.913647,-2.74007 6.688378,-4.57123 10.894531,-5.03516 z M 32,268.64999 c -1.434045,0 -2.621644,0.99894 -2.921875,2.33984 C 23.294315,272.31031 19,277.45469 19,283.64999 c 0,6.1953 4.294315,11.33968 10.078125,12.66016 0.300231,1.34089 1.48783,2.33984 2.921875,2.33984 1.434045,0 2.621644,-0.99895 2.921875,-2.33984 C 40.705685,294.98967 45,289.84529 45,283.64999 45,277.45469 40.705685,272.31031 34.921875,270.98983 34.621644,269.64893 33.434045,268.64999 32,268.64999 Z m -2.023438,5.20508 c 0.533444,0.48939 1.239108,0.79492 2.023438,0.79492 0.78433,0 1.489994,-0.30553 2.023438,-0.79492 C 38.586366,274.7861 42,278.80398 42,283.64999 c 0,4.84601 -3.413634,8.86389 -7.976562,9.79492 C 33.489994,292.95552 32.78433,292.64999 32,292.64999 c -0.78433,0 -1.489994,0.30553 -2.023438,0.79492 C 25.413634,292.51388 22,288.496 22,283.64999 c 0,-4.84601 3.413634,-8.86389 7.976562,-9.79492 z M 32,278.64999 c -2.77,0 -5,2.23 -5,5 0,2.77 2.23,5 5,5 2.77,0 5,-2.23 5,-5 0,-2.77 -2.23,-5 -5,-5 z"
       id="rect4211-1-2-6" />
    <path
       style="opacity:1;fill:url(#linearGradient4434);fill-opacity:1;stroke:none;stroke-width:2;stroke-linecap:round;stroke-linejoin:round;stroke-miterlimit:4;stroke-dasharray:none;stroke-opacity:1"
       d="M 32 8 C 30.620507 8 29.476276 8.9276542 29.123047 10.191406 C 24.701225 10.764439 20.701852 12.637996 17.515625 15.421875 C 17.069956 15.160103 16.556288 15 16 15 C 14.338001 15 13 16.338 13 18 C 13 18.699492 13.248067 19.332683 13.646484 19.841797 C 11.842188 22.566889 10.632397 25.720133 10.191406 29.123047 C 8.9276542 29.476276 8 30.620507 8 32 C 8 33.379493 8.9276542 34.523724 10.191406 34.876953 C 10.632397 38.279867 11.842188 41.433111 13.646484 44.158203 C 13.248067 44.667317 13 45.300508 13 46 C 13 47.661999 14.338001 49 16 49 C 16.556288 49 17.069956 48.839897 17.515625 48.578125 C 20.701852 51.362004 24.701225 53.235561 29.123047 53.808594 C 29.476276 55.072346 30.620507 56 32 56 C 33.379493 56 34.523724 55.072346 34.876953 53.808594 C 39.298775 53.235561 43.298148 51.362004 46.484375 48.578125 C 46.930044 48.839897 47.443712 49 48 49 C 49.661999 49 51 47.661999 51 46 C 51 45.300508 50.751933 44.667317 50.353516 44.158203 C 52.157812 41.433111 53.367603 38.279867 53.808594 34.876953 C 55.072346 34.523724 56 33.379493 56 32 C 56 30.620507 55.072346 29.476276 53.808594 29.123047 C 53.367603 25.720133 52.157812 22.566889 50.353516 19.841797 C 50.751933 19.332683 51 18.699492 51 18 C 51 16.338 49.661999 15 48 15 C 47.443712 15 46.930044 15.160103 46.484375 15.421875 C 43.298148 12.637996 39.298775 10.764439 34.876953 10.191406 C 34.523724 8.9276542 33.379493 8 32 8 z M 29.878906 13.125 C 30.421003 13.666104 31.169995 14 32 14 C 32.830005 14 33.578997 13.666104 34.121094 13.125 C 38.327247 13.588931 42.101978 15.420088 45.015625 18.160156 C 45.090192 19.559676 46.106207 20.697603 47.451172 20.945312 C 49.290821 23.517082 50.50922 26.562619 50.875 29.878906 C 50.333896 30.421003 50 31.169995 50 32 C 50 32.830005 50.333896 33.578997 50.875 34.121094 C 50.50922 37.437381 49.290821 40.482918 47.451172 43.054688 C 46.106207 43.302397 45.090192 44.440325 45.015625 45.839844 C 42.101978 48.579912 38.327247 50.411069 34.121094 50.875 C 33.578997 50.333896 32.830005 50 32 50 C 31.169995 50 30.421003 50.333896 29.878906 50.875 C 25.672753 50.411069 21.898022 48.579912 18.984375 45.839844 C 18.909808 44.440325 17.893793 43.302397 16.548828 43.054688 C 14.709179 40.482918 13.49078 37.437381 13.125 34.121094 C 13.666104 33.578997 14 32.830005 14 32 C 14 31.169995 13.666104 30.421003 13.125 29.878906 C 13.49078 26.562619 14.709179 23.517082 16.548828 20.945312 C 17.893793 20.697603 18.909808 19.559676 18.984375 18.160156 C 21.898022 15.420088 25.672753 13.588931 29.878906 13.125 z M 32 17 C 30.565955 17 29.378356 17.998945 29.078125 19.339844 C 23.294315 20.660317 19 25.804699 19 32 C 19 38.195301 23.294315 43.339683 29.078125 44.660156 C 29.378356 46.001055 30.565955 47 32 47 C 33.434045 47 34.621644 46.001055 34.921875 44.660156 C 40.705685 43.339683 45 38.195301 45 32 C 45 25.804699 40.705685 20.660317 34.921875 19.339844 C 34.621644 17.998945 33.434045 17 32 17 z M 29.976562 22.205078 C 30.510006 22.694473 31.21567 23 32 23 C 32.78433 23 33.489994 22.694473 34.023438 22.205078 C 38.586366 23.136106 42 27.15399 42 32 C 42 36.84601 38.586366 40.863894 34.023438 41.794922 C 33.489994 41.305527 32.78433 41 32 41 C 31.21567 41 30.510006 41.305527 29.976562 41.794922 C 25.413634 40.863894 22 36.84601 22 32 C 22 27.15399 25.413634 23.136106 29.976562 22.205078 z M 32 27 C 29.23 27 27 29.23 27 32 C 27 34.77 29.23 37 32 37 C 34.77 37 37 34.77 37 32 C 37 29.23 34.77 27 32 27 z "
       transform="translate(0,250.64999)"
       id="rect4211-1-2" />
  </g>
</svg>
