<?xml version="1.0" encoding="UTF-8" standalone="no"?>
<!-- Created with Inkscape (http://www.inkscape.org/) -->

<svg
   xmlns:dc="http://purl.org/dc/elements/1.1/"
   xmlns:cc="http://creativecommons.org/ns#"
   xmlns:rdf="http://www.w3.org/1999/02/22-rdf-syntax-ns#"
   xmlns:svg="http://www.w3.org/2000/svg"
   xmlns="http://www.w3.org/2000/svg"
   xmlns:xlink="http://www.w3.org/1999/xlink"
   xmlns:sodipodi="http://sodipodi.sourceforge.net/DTD/sodipodi-0.dtd"
   xmlns:inkscape="http://www.inkscape.org/namespaces/inkscape"
   width="64"
   height="64"
   viewBox="0 0 64 64"
   version="1.1"
   id="svg8"
   inkscape:version="0.92.4 5da689c313, 2019-01-14"
   sodipodi:docname="start-here.svg">
  <title
     id="title7895">Antu icon Theme</title>
  <defs
     id="defs2">
    <linearGradient
       inkscape:collect="always"
       xlink:href="#linearGradient1042"
       id="linearGradient1101"
       x1="13.758333"
       y1="297.52914"
       x2="13.758333"
       y2="281.65414"
       gradientUnits="userSpaceOnUse" />
    <linearGradient
       id="linearGradient1042"
       inkscape:collect="always">
      <stop
         id="stop1038"
         offset="0"
         style="stop-color:#185c69;stop-opacity:1;" />
      <stop
         id="stop1040"
         offset="1"
         style="stop-color:#046679;stop-opacity:0.99056602" />
    </linearGradient>
    <linearGradient
       inkscape:collect="always"
       xlink:href="#linearGradient1026"
       id="linearGradient1091"
       x1="13.758333"
       y1="297.52914"
       x2="13.758333"
       y2="281.65414"
       gradientUnits="userSpaceOnUse" />
    <linearGradient
       id="linearGradient1026"
       inkscape:collect="always">
      <stop
         id="stop1022"
         offset="0"
         style="stop-color:#009e90;stop-opacity:1" />
      <stop
         id="stop1024"
         offset="1"
         style="stop-color:#5cc0b6;stop-opacity:0.97647059" />
    </linearGradient>
  </defs>
  <sodipodi:namedview
     id="base"
     pagecolor="#ffffff"
     bordercolor="#666666"
     borderopacity="1.0"
     inkscape:pageopacity="0.0"
     inkscape:pageshadow="2"
     inkscape:zoom="16"
     inkscape:cx="40.89798"
     inkscape:cy="34.131875"
     inkscape:document-units="px"
     inkscape:current-layer="layer1"
     showgrid="true"
     units="px"
     inkscape:window-width="1870"
     inkscape:window-height="1141"
     inkscape:window-x="50"
     inkscape:window-y="30"
     inkscape:window-maximized="1"
     objecttolerance="10"
     gridtolerance="10"
     guidetolerance="10">
    <inkscape:grid
       type="xygrid"
       id="grid7897"
       empspacing="4" />
  </sodipodi:namedview>
  <metadata
     id="metadata5">
    <rdf:RDF>
      <cc:Work
         rdf:about="">
        <dc:format>image/svg+xml</dc:format>
        <dc:type
           rdf:resource="http://purl.org/dc/dcmitype/StillImage" />
        <dc:title>Antu icon Theme</dc:title>
      </cc:Work>
    </rdf:RDF>
  </metadata>
  <g
     inkscape:label="Capa 1"
     inkscape:groupmode="layer"
     id="layer1"
     transform="translate(0,-250.64999)">
    <g
       id="g865"
       transform="translate(-160,-136)">
      <g
         transform="matrix(3.7795276,0,0,3.7795276,160,-671.86968)"
         id="layer1-7"
         inkscape:label="Capa 1">
        <g
           transform="translate(-5.2916668,-1.3229135)"
           id="g841">
          <path
             id="rect4593-9"
             d="m 13.758333,281.91874 c 4.397375,0 7.9375,3.54012 7.9375,7.9375 0,4.39737 -3.540125,7.9375 -7.9375,7.9375 -4.3973745,0 -7.9374994,-3.54013 -7.9374994,-7.9375 0,-4.39738 3.5401249,-7.9375 7.9374994,-7.9375 z"
             style="opacity:1;fill:url(#linearGradient1101);fill-opacity:1;stroke:none;stroke-width:0.11906253;stroke-miterlimit:4;stroke-dasharray:none;stroke-opacity:1"
             inkscape:connector-curvature="0" />
          <path
             id="rect4593-5-3"
             d="m 13.758333,282.18332 c 4.250796,0 7.672917,3.42212 7.672917,7.67292 0,4.2508 -3.422121,7.67292 -7.672917,7.67292 -4.2507956,0 -7.6729163,-3.42212 -7.6729163,-7.67292 0,-4.2508 3.4221207,-7.67292 7.6729163,-7.67292 z"
             style="opacity:1;fill:url(#linearGradient1091);fill-opacity:1;stroke:none;stroke-width:0.11509378;stroke-miterlimit:4;stroke-dasharray:none;stroke-opacity:1"
             inkscape:connector-curvature="0" />
        </g>
      </g>
      <g
         id="g869"
         transform="translate(0,-1.00013)">
        <path
           style="fill:#147580;fill-opacity:1;stroke:none;stroke-width:0.99999994px;stroke-linecap:butt;stroke-linejoin:miter;stroke-opacity:1"
           d="m 182,400.65011 v 6 l -7,-3 c -5.81093,11.63902 -4.83703,23.31035 0,35.00001 13.17102,-9.90932 30.52206,11.27679 38,-14.00001 -18.20748,6.71603 -23.15391,1.35345 -30,-8.00001 8.26042,8.03648 17.84965,10.6219 30,5.00001 -1,-13.00003 -8,-21 -31,-21 z m 15,3.99999 c 4.986,0 9,4.01401 9,9 0,4.98602 -4.014,9 -9,9 -4.986,0 -9,-4.01398 -9,-9 0,-4.98599 4.014,-9 9,-9 z m 0,2.00001 c -3.87799,0 -7,3.122 -7,6.99999 0,3.87798 3.12201,7.00002 7,7.00002 3.87799,0 7,-3.12204 7,-7.00002 0,-3.87799 -3.12201,-6.99999 -7,-6.99999 z m 2,3.99999 c 1.65686,0 3,0.89544 3,2.00001 0,1.10456 -1.34314,2.00001 -3,2.00001 -1.65685,0 -3,-0.89545 -3,-2.00001 0,-1.10457 1.34315,-2.00001 3,-2.00001 z"
           id="path1055-2"
           inkscape:connector-curvature="0"
           sodipodi:nodetypes="ccccccccsssssssssssssss" />
        <path
           style="fill:#e1fff9;fill-opacity:1;stroke:none;stroke-width:0.99999994px;stroke-linecap:butt;stroke-linejoin:miter;stroke-opacity:1"
           d="m 182,399.65005 v 6 l -7,-3 c -5.81093,11.63902 -4.83703,23.31034 0,35 13.17101,-9.90932 30.52206,11.2768 38,-14 -18.20748,6.71602 -23.15391,1.35346 -30,-8 8.26041,8.03648 17.84965,10.62189 30,5 -1,-13.00003 -8,-21 -31,-21 z m 15,4 c 4.986,0 9,4.014 9,9 0,4.986 -4.014,9 -9,9 -4.986,0 -9,-4.014 -9,-9 0,-4.986 4.014,-9 9,-9 z m 0,2 c -3.87799,0 -7,3.12201 -7,7 0,3.87799 3.12201,7 7,7 3.87799,0 7,-3.12201 7,-7 0,-3.87799 -3.12201,-7 -7,-7 z m 2,4 c 1.65685,0 3,0.89543 3,2 0,1.10457 -1.34315,2 -3,2 -1.65685,0 -3,-0.89543 -3,-2 0,-1.10457 1.34315,-2 3,-2 z"
           id="path1055"
           inkscape:connector-curvature="0"
           sodipodi:nodetypes="ccccccccsssssssssssssss" />
      </g>
    </g>
  </g>
</svg>
