<?xml version="1.0" encoding="UTF-8" standalone="no"?>
<!-- Created with Inkscape (http://www.inkscape.org/) -->

<svg
   xmlns:dc="http://purl.org/dc/elements/1.1/"
   xmlns:cc="http://creativecommons.org/ns#"
   xmlns:rdf="http://www.w3.org/1999/02/22-rdf-syntax-ns#"
   xmlns:svg="http://www.w3.org/2000/svg"
   xmlns="http://www.w3.org/2000/svg"
   xmlns:xlink="http://www.w3.org/1999/xlink"
   xmlns:sodipodi="http://sodipodi.sourceforge.net/DTD/sodipodi-0.dtd"
   xmlns:inkscape="http://www.inkscape.org/namespaces/inkscape"
   width="64"
   height="64"
   viewBox="0 0 64 64"
   version="1.1"
   id="svg8"
   inkscape:version="0.92.1 r"
   sodipodi:docname="start-here.svg">
  <title
     id="title7895">Antu icon Theme</title>
  <defs
     id="defs2">
    <linearGradient
       gradientTransform="matrix(3.7795275,0,0,3.7795275,-42.255089,-804.46032)"
       inkscape:collect="always"
       xlink:href="#linearGradient8202-4"
       id="linearGradient6940"
       x1="16.207075"
       y1="294.95782"
       x2="16.207075"
       y2="293.37033"
       gradientUnits="userSpaceOnUse" />
    <linearGradient
       inkscape:collect="always"
       id="linearGradient8202-4">
      <stop
         style="stop-color:#3790f2;stop-opacity:1"
         offset="0"
         id="stop8198-5" />
      <stop
         style="stop-color:#53c7f9;stop-opacity:1"
         offset="1"
         id="stop8200-0" />
    </linearGradient>
    <linearGradient
       gradientTransform="matrix(3.7795275,0,0,3.7795275,-42.255089,-804.46032)"
       inkscape:collect="always"
       xlink:href="#linearGradient6884"
       id="linearGradient6916"
       x1="16.207075"
       y1="292.04742"
       x2="16.207075"
       y2="290.45993"
       gradientUnits="userSpaceOnUse" />
    <linearGradient
       inkscape:collect="always"
       id="linearGradient6884">
      <stop
         style="stop-color:#2b73bf;stop-opacity:1"
         offset="0"
         id="stop6880" />
      <stop
         style="stop-color:#3b99f3;stop-opacity:1"
         offset="1"
         id="stop6882" />
    </linearGradient>
    <linearGradient
       gradientTransform="matrix(3.7795275,0,0,3.7795275,-42.255089,-804.46032)"
       inkscape:collect="always"
       xlink:href="#linearGradient8202-4"
       id="linearGradient6892"
       x1="16.207075"
       y1="289.13699"
       x2="16.207075"
       y2="287.5495"
       gradientUnits="userSpaceOnUse" />
    <linearGradient
       gradientTransform="matrix(3.7795275,0,0,3.7795275,-42.255089,-804.46032)"
       inkscape:collect="always"
       xlink:href="#linearGradient6884"
       id="linearGradient6878"
       x1="13.296659"
       y1="289.13699"
       x2="13.296659"
       y2="287.5495"
       gradientUnits="userSpaceOnUse" />
    <linearGradient
       gradientTransform="matrix(3.7795275,0,0,3.7795275,-42.255089,-804.46032)"
       inkscape:collect="always"
       xlink:href="#linearGradient8202-4"
       id="linearGradient6908"
       x1="13.296659"
       y1="292.04742"
       x2="13.296659"
       y2="290.45993"
       gradientUnits="userSpaceOnUse" />
    <linearGradient
       gradientTransform="matrix(3.7795275,0,0,3.7795275,-42.255089,-804.46032)"
       inkscape:collect="always"
       xlink:href="#linearGradient6884"
       id="linearGradient6932"
       x1="13.296659"
       y1="294.95782"
       x2="13.296659"
       y2="293.37033"
       gradientUnits="userSpaceOnUse" />
    <linearGradient
       gradientTransform="matrix(3.7795275,0,0,3.7795275,-42.255089,-804.46032)"
       inkscape:collect="always"
       xlink:href="#linearGradient8202-4"
       id="linearGradient6924"
       x1="10.386242"
       y1="294.95782"
       x2="10.386242"
       y2="293.37033"
       gradientUnits="userSpaceOnUse" />
    <linearGradient
       gradientTransform="matrix(3.7795275,0,0,3.7795275,-42.255089,-804.46032)"
       inkscape:collect="always"
       xlink:href="#linearGradient6884"
       id="linearGradient6900"
       x1="10.386242"
       y1="292.04742"
       x2="10.386242"
       y2="290.45993"
       gradientUnits="userSpaceOnUse" />
    <linearGradient
       gradientTransform="matrix(3.7795275,0,0,3.7795275,-42.255089,-804.46032)"
       inkscape:collect="always"
       xlink:href="#linearGradient8202-4"
       id="linearGradient6870"
       x1="10.386242"
       y1="289.13699"
       x2="10.386242"
       y2="287.5495"
       gradientUnits="userSpaceOnUse" />
    <linearGradient
       gradientUnits="userSpaceOnUse"
       y2="283.50626"
       x2="7.4083333"
       y1="295.14792"
       x1="7.4083333"
       id="linearGradient4616"
       xlink:href="#linearGradient4614-2"
       inkscape:collect="always"
       gradientTransform="matrix(3.7795275,0,0,3.7795275,-24,-794.17872)" />
    <linearGradient
       id="linearGradient4614-2"
       inkscape:collect="always">
      <stop
         id="stop4610-0"
         offset="0"
         style="stop-color:#c0f1f3;stop-opacity:1" />
      <stop
         id="stop4612-6"
         offset="1"
         style="stop-color:#effafb;stop-opacity:1" />
    </linearGradient>
  </defs>
  <sodipodi:namedview
     id="base"
     pagecolor="#ffffff"
     bordercolor="#666666"
     borderopacity="1.0"
     inkscape:pageopacity="0.0"
     inkscape:pageshadow="2"
     inkscape:zoom="7.919596"
     inkscape:cx="35.45579"
     inkscape:cy="29.295681"
     inkscape:document-units="px"
     inkscape:current-layer="layer1"
     showgrid="true"
     units="px"
     inkscape:window-width="1366"
     inkscape:window-height="697"
     inkscape:window-x="0"
     inkscape:window-y="0"
     inkscape:window-maximized="1"
     objecttolerance="10"
     gridtolerance="10"
     guidetolerance="10">
    <inkscape:grid
       type="xygrid"
       id="grid7897"
       empspacing="4" />
  </sodipodi:namedview>
  <metadata
     id="metadata5">
    <rdf:RDF>
      <cc:Work
         rdf:about="">
        <dc:format>image/svg+xml</dc:format>
        <dc:type
           rdf:resource="http://purl.org/dc/dcmitype/StillImage" />
        <dc:title>Antu icon Theme</dc:title>
      </cc:Work>
    </rdf:RDF>
  </metadata>
  <g
     inkscape:label="Capa 1"
     inkscape:groupmode="layer"
     id="layer1"
     transform="translate(0,-250.64999)">
    <g
       id="g7684"
       transform="translate(24,-13.69099)">
      <path
         id="rect4593"
         d="m 8,266.34098 c 16.62,0 29.999999,13.37998 29.999999,30 0,16.61998 -13.379999,30 -29.999999,30 -16.619999,0 -29.999999,-13.38002 -29.999999,-30 0,-16.62002 13.38,-30 29.999999,-30 z"
         style="opacity:1;fill:#b6e3e5;fill-opacity:1;stroke:none;stroke-width:0.45000011;stroke-miterlimit:4;stroke-dasharray:none;stroke-opacity:1"
         inkscape:connector-curvature="0" />
      <path
         id="rect4593-5"
         d="m 8,267.34097 c 16.066,0 29.000001,12.93399 29.000001,29.00001 0,16.06601 -12.934001,29.00001 -29.000001,29.00001 -16.066,0 -29,-12.934 -29,-29.00001 0,-16.06602 12.934,-29.00001 29,-29.00001 z"
         style="opacity:1;fill:url(#linearGradient4616);fill-opacity:1;stroke:none;stroke-width:0.43500012;stroke-miterlimit:4;stroke-dasharray:none;stroke-opacity:1"
         inkscape:connector-curvature="0" />
      <path
         id="rect4618"
         d="m -2.999998,281.34087 c 2.215998,0 3.999999,1.78397 3.999999,3.99998 v 4e-5 c 0,2.21601 -1.784001,3.99999 -3.999999,3.99999 -2.215999,0 -3.999996,-1.78398 -3.999996,-3.99999 v -4e-5 c 0,-2.21601 1.783997,-3.99998 3.999996,-3.99998 z"
         style="opacity:1;fill:url(#linearGradient6870);fill-opacity:1;stroke:none;stroke-width:0.30000004;stroke-miterlimit:4;stroke-dasharray:none;stroke-opacity:1"
         inkscape:connector-curvature="0" />
      <path
         id="rect4618-6"
         d="m 7.999988,281.34087 h 2.7e-5 c 2.215994,0 3.999983,1.78397 3.999983,3.99995 v 7e-5 c 0,2.21601 -1.783989,3.99999 -3.999983,3.99999 h -2.7e-5 c -2.215993,0 -3.999983,-1.78398 -3.999983,-3.99999 v -7e-5 c 0,-2.21598 1.78399,-3.99995 3.999983,-3.99995 z"
         style="opacity:1;fill:url(#linearGradient6878);fill-opacity:1;stroke:none;stroke-width:0.30000004;stroke-miterlimit:4;stroke-dasharray:none;stroke-opacity:1"
         inkscape:connector-curvature="0" />
      <path
         id="rect4618-2"
         d="m 18.999986,281.34087 h 2.6e-5 c 2.21599,0 3.999984,1.78397 3.999984,3.99995 v 7e-5 c 0,2.21601 -1.783994,3.99999 -3.999984,3.99999 h -2.6e-5 c -2.215994,0 -3.999984,-1.78398 -3.999984,-3.99999 v -7e-5 c 0,-2.21598 1.78399,-3.99995 3.999984,-3.99995 z"
         style="opacity:1;fill:url(#linearGradient6892);fill-opacity:1;stroke:none;stroke-width:0.30000004;stroke-miterlimit:4;stroke-dasharray:none;stroke-opacity:1"
         inkscape:connector-curvature="0" />
      <path
         id="rect4618-9"
         d="m -3.000013,292.3408 h 3.1e-5 c 2.215989,0 3.999983,1.78398 3.999983,3.99995 v 8e-5 c 0,2.21601 -1.783994,3.99999 -3.999983,3.99999 h -3.1e-5 c -2.215991,0 -3.999981,-1.78398 -3.999981,-3.99999 v -8e-5 c 0,-2.21597 1.78399,-3.99995 3.999981,-3.99995 z"
         style="opacity:1;fill:url(#linearGradient6900);fill-opacity:1;stroke:none;stroke-width:0.30000004;stroke-miterlimit:4;stroke-dasharray:none;stroke-opacity:1"
         inkscape:connector-curvature="0" />
      <path
         id="rect4618-6-1"
         d="m 7.999988,292.3408 h 2.7e-5 c 2.215994,0 3.999983,1.78398 3.999983,3.99995 v 8e-5 c 0,2.21601 -1.783989,3.99999 -3.999983,3.99999 h -2.7e-5 c -2.215993,0 -3.999983,-1.78398 -3.999983,-3.99999 v -8e-5 c 0,-2.21597 1.78399,-3.99995 3.999983,-3.99995 z"
         style="opacity:1;fill:url(#linearGradient6908);fill-opacity:1;stroke:none;stroke-width:0.30000004;stroke-miterlimit:4;stroke-dasharray:none;stroke-opacity:1"
         inkscape:connector-curvature="0" />
      <path
         id="rect4618-2-2"
         d="m 18.999982,292.3408 h 2.6e-5 c 2.21599,0 3.999984,1.78398 3.999984,3.99995 v 8e-5 c 0,2.21601 -1.783994,3.99999 -3.999984,3.99999 h -2.6e-5 c -2.215994,0 -3.999984,-1.78398 -3.999984,-3.99999 v -8e-5 c 0,-2.21597 1.78399,-3.99995 3.999984,-3.99995 z"
         style="opacity:1;fill:url(#linearGradient6916);fill-opacity:1;stroke:none;stroke-width:0.30000004;stroke-miterlimit:4;stroke-dasharray:none;stroke-opacity:1"
         inkscape:connector-curvature="0" />
      <path
         id="rect4618-7"
         d="m -3.000013,303.34085 h 3.1e-5 c 2.215989,0 3.999983,1.78398 3.999983,3.99999 v 4e-5 c 0,2.21601 -1.783994,3.99999 -3.999983,3.99999 h -3.1e-5 c -2.215991,0 -3.999981,-1.78398 -3.999981,-3.99999 v -4e-5 c 0,-2.21601 1.78399,-3.99999 3.999981,-3.99999 z"
         style="opacity:1;fill:url(#linearGradient6924);fill-opacity:1;stroke:none;stroke-width:0.30000004;stroke-miterlimit:4;stroke-dasharray:none;stroke-opacity:1"
         inkscape:connector-curvature="0" />
      <path
         id="rect4618-6-0"
         d="m 7.999988,303.34085 h 2.7e-5 c 2.215994,0 3.999983,1.78398 3.999983,3.99999 v 4e-5 c 0,2.21601 -1.783989,3.99999 -3.999983,3.99999 h -2.7e-5 c -2.215993,0 -3.999983,-1.78398 -3.999983,-3.99999 v -4e-5 c 0,-2.21601 1.78399,-3.99999 3.999983,-3.99999 z"
         style="opacity:1;fill:url(#linearGradient6932);fill-opacity:1;stroke:none;stroke-width:0.30000004;stroke-miterlimit:4;stroke-dasharray:none;stroke-opacity:1"
         inkscape:connector-curvature="0" />
      <path
         id="rect4618-2-9"
         d="m 18.999982,303.34085 h 2.6e-5 c 2.21599,0 3.999984,1.78398 3.999984,3.99999 v 4e-5 c 0,2.21601 -1.783994,3.99999 -3.999984,3.99999 h -2.6e-5 c -2.215994,0 -3.999984,-1.78398 -3.999984,-3.99999 v -4e-5 c 0,-2.21601 1.78399,-3.99999 3.999984,-3.99999 z"
         style="opacity:1;fill:url(#linearGradient6940);fill-opacity:1;stroke:none;stroke-width:0.30000004;stroke-miterlimit:4;stroke-dasharray:none;stroke-opacity:1"
         inkscape:connector-curvature="0" />
    </g>
  </g>
</svg>
