<?xml version="1.0" encoding="UTF-8" standalone="no"?>
<!-- Created with Inkscape (http://www.inkscape.org/) -->

<svg
   xmlns:dc="http://purl.org/dc/elements/1.1/"
   xmlns:cc="http://creativecommons.org/ns#"
   xmlns:rdf="http://www.w3.org/1999/02/22-rdf-syntax-ns#"
   xmlns:svg="http://www.w3.org/2000/svg"
   xmlns="http://www.w3.org/2000/svg"
   xmlns:xlink="http://www.w3.org/1999/xlink"
   xmlns:sodipodi="http://sodipodi.sourceforge.net/DTD/sodipodi-0.dtd"
   xmlns:inkscape="http://www.inkscape.org/namespaces/inkscape"
   width="64"
   height="64"
   viewBox="0 0 64 64"
   version="1.1"
   id="svg8"
   inkscape:version="0.92.2 2405546, 2018-03-11"
   sodipodi:docname="start-here-kde.svg">
  <title
     id="title7895">Antu icon Theme</title>
  <defs
     id="defs2">
    <linearGradient
       gradientUnits="userSpaceOnUse"
       y2="283.50626"
       x2="7.4083333"
       y1="295.14792"
       x1="7.4083333"
       id="linearGradient4616"
       xlink:href="#linearGradient4582"
       inkscape:collect="always"
       gradientTransform="matrix(3.7795275,0,0,3.7795275,-16,-799.86971)" />
    <linearGradient
       id="linearGradient4582"
       inkscape:collect="always">
      <stop
         id="stop4578"
         offset="0"
         style="stop-color:#e3e3e3;stop-opacity:1" />
      <stop
         id="stop4580"
         offset="1"
         style="stop-color:#fcfcfc;stop-opacity:1" />
    </linearGradient>
    <linearGradient
       id="linearGradient10239"
       inkscape:collect="always">
      <stop
         id="stop10235"
         offset="0"
         style="stop-color:#2f435a;stop-opacity:1" />
      <stop
         id="stop10237"
         offset="1"
         style="stop-color:#384d63;stop-opacity:1" />
    </linearGradient>
    <style
       id="current-color-scheme"
       type="text/css">
      .ColorScheme-Text {
        color:#122036;
      }
      </style>
    <style
       id="current-color-scheme-7"
       type="text/css">
      .ColorScheme-Text {
        color:#122036;
      }
      </style>
    <style
       id="current-color-scheme-5"
       type="text/css">
      .ColorScheme-Text {
        color:#122036;
      }
      </style>
    <style
       type="text/css"
       id="current-color-scheme-9">
      .ColorScheme-Text {
        color:#122036;
      }
      </style>
    <style
       type="text/css"
       id="current-color-scheme-1">
      .ColorScheme-Text {
        color:#122036;
      }
      </style>
    <style
       id="current-color-scheme-10"
       type="text/css">
      .ColorScheme-Text {
        color:#122036;
      }
      </style>
    <style
       type="text/css"
       id="current-color-scheme-6">
      .ColorScheme-Text {
        color:#122036;
      }
      </style>
    <style
       type="text/css"
       id="current-color-scheme-7-1">
      .ColorScheme-Text {
        color:#122036;
      }
      </style>
    <style
       type="text/css"
       id="current-color-scheme-5-2">
      .ColorScheme-Text {
        color:#122036;
      }
      </style>
    <linearGradient
       inkscape:collect="always"
       xlink:href="#linearGradient10239"
       id="linearGradient999"
       x1="421.57141"
       y1="529.29803"
       x2="421.55664"
       y2="495.29883"
       gradientUnits="userSpaceOnUse"
       gradientTransform="translate(4.02e-6,-2.0000093)" />
  </defs>
  <sodipodi:namedview
     id="base"
     pagecolor="#ffffff"
     bordercolor="#666666"
     borderopacity="1.0"
     inkscape:pageopacity="0.0"
     inkscape:pageshadow="2"
     inkscape:zoom="1"
     inkscape:cx="-59.343854"
     inkscape:cy="-76.467136"
     inkscape:document-units="px"
     inkscape:current-layer="layer1-3"
     showgrid="false"
     units="px"
     inkscape:window-width="1360"
     inkscape:window-height="711"
     inkscape:window-x="0"
     inkscape:window-y="28"
     inkscape:window-maximized="1"
     objecttolerance="10"
     gridtolerance="10"
     guidetolerance="10"
     inkscape:snap-bbox="true"
     inkscape:bbox-paths="true"
     inkscape:bbox-nodes="true"
     inkscape:snap-bbox-edge-midpoints="true"
     inkscape:snap-bbox-midpoints="true"
     inkscape:object-paths="true"
     inkscape:snap-intersection-paths="true"
     inkscape:snap-smooth-nodes="true">
    <inkscape:grid
       type="xygrid"
       id="grid7897"
       empspacing="4" />
  </sodipodi:namedview>
  <metadata
     id="metadata5">
    <rdf:RDF>
      <cc:Work
         rdf:about="">
        <dc:format>image/svg+xml</dc:format>
        <dc:type
           rdf:resource="http://purl.org/dc/dcmitype/StillImage" />
        <dc:title>Antu icon Theme</dc:title>
      </cc:Work>
    </rdf:RDF>
  </metadata>
  <g
     inkscape:label="Capa 1"
     inkscape:groupmode="layer"
     id="layer1"
     transform="translate(0,-250.64999)">
    <g
       id="g1527"
       transform="translate(16,-8)">
      <path
         id="rect4593"
         d="m 16,260.64999 c 16.62,0 29.999999,13.37998 29.999999,30 0,16.61998 -13.379999,30 -29.999999,30 -16.619999,0 -29.999999,-13.38002 -29.999999,-30 0,-16.62002 13.38,-30 29.999999,-30 z"
         style="opacity:1;fill:#9cbbcc;fill-opacity:1;stroke:none;stroke-width:0.45000011;stroke-miterlimit:4;stroke-dasharray:none;stroke-opacity:1"
         inkscape:connector-curvature="0" />
      <path
         id="rect4593-5"
         d="m 16,261.64998 c 16.066,0 29.000001,12.93399 29.000001,29.00001 C 45.000001,306.716 32.066,319.65 16,319.65 c -16.066,0 -29,-12.934 -29,-29.00001 0,-16.06602 12.934,-29.00001 29,-29.00001 z"
         style="opacity:1;fill:url(#linearGradient4616);fill-opacity:1.0;stroke:none;stroke-width:0.43500012;stroke-miterlimit:4;stroke-dasharray:none;stroke-opacity:1"
         inkscape:connector-curvature="0" />
      <g
         transform="translate(48,24)"
         id="layer1-6"
         inkscape:label="Capa 1">
        <g
           id="g946"
           transform="translate(-0.46474134,-0.99999689)">
          <g
             transform="translate(-448.10668,-247.64803)"
             id="layer1-3"
             inkscape:label="Capa 1">
            <path
               style="fill:#9cbbcc;fill-opacity:1;stroke-width:0.95999706"
               d="m 421.55579,494.298 c -0.25978,0.004 -0.50774,0.10921 -0.69141,0.29297 l -5,5 c -0.39037,0.39053 -0.39037,1.02353 0,1.41406 l 10.29297,10.29297 -10.29297,10.29297 c -0.39037,0.39053 -0.39037,1.02353 0,1.41406 l 5,5 c 0.39053,0.39037 1.02353,0.39037 1.41406,0 l 16,-16 c 0.39037,-0.39053 0.39037,-1.02353 0,-1.41406 l -16,-16 c -0.19132,-0.19141 -0.45205,-0.29712 -0.72265,-0.29297 z m -15.98438,4 c -1.662,0 -3,1.338 -3,3 0,1.662 1.338,3 3,3 1.662,0 3,-1.338 3,-3 0,-1.662 -1.338,-3 -3,-3 z m -4,12 c -2.76999,0 -5,2.23001 -5,5 0,2.76999 2.23001,5 5,5 2.76999,0 5,-2.23001 5,-5 0,-2.76999 -2.23001,-5 -5,-5 z m 7,15 c -3.878,0 -7,3.122 -7,7 0,3.878 3.122,7 7,7 3.878,0 7,-3.122 7,-7 0,-3.878 -3.122,-7 -7,-7 z"
               id="rect4119-3"
               inkscape:connector-curvature="0" />
            <path
               style="fill:#dd4d25;fill-opacity:1;stroke-width:0.95999706"
               d="m 405.57141,497.298 c 1.662,0 3,1.338 3,3 0,1.662 -1.338,3 -3,3 -1.662,0 -3,-1.338 -3,-3 0,-1.662 1.338,-3 3,-3 z"
               id="rect4119" />
            <flowRoot
               id="flowRoot4170"
               style="font-size:32.50000381px;line-height:125%;font-family:sans-serif"
               line-height="125%">
              <flowRegion
                 id="flowRegion4172">
                <rect
                   id="rect4174"
                   height="48.750004"
                   y="489.79807"
                   x="452.32144"
                   width="87.750008" />
              </flowRegion>
              <flowPara
                 id="flowPara4176">Plasm</flowPara>
            </flowRoot>
            <path
               style="fill:#008c52;fill-opacity:1;stroke-width:1.11110866"
               d="m 401.57139,509.298 h 4e-5 c 2.76999,0 4.99998,2.23 4.99998,4.99999 v 0 c 0,2.76999 -2.22999,4.99998 -4.99998,4.99998 h -4e-5 c -2.76999,0 -4.99998,-2.22999 -4.99998,-4.99998 v 0 c 0,-2.76999 2.22999,-4.99999 4.99998,-4.99999 z"
               id="rect4308" />
            <path
               style="fill:#1a6cb2;fill-opacity:1;stroke-width:1.07692349"
               d="m 408.57141,524.29803 c 3.878,0 7,3.122 7,7 0,3.878 -3.122,7 -7,7 -3.878,0 -7,-3.122 -7,-7 0,-3.878 3.122,-7 7,-7 z"
               id="rect4312" />
            <path
               style="fill:#26c186;fill-opacity:1;stroke-width:0.88888693"
               d="m 401.5714,510.298 h 2e-5 c 2.216,0 3.99999,1.784 3.99999,3.99999 v 0 c 0,2.21599 -1.78399,3.99999 -3.99999,3.99999 h -2e-5 c -2.21599,0 -3.99999,-1.784 -3.99999,-3.99999 v 0 c 0,-2.21599 1.784,-3.99999 3.99999,-3.99999 z"
               id="rect4308-6" />
            <path
               style="fill:#ff8b60;fill-opacity:1;stroke-width:0.63999802"
               d="m 405.57141,498.298 c 1.108,0 2,0.892 2,2 0,1.108 -0.892,2 -2,2 -1.108,0 -2,-0.892 -2,-2 0,-1.108 0.892,-2 2,-2 z"
               id="rect4119-7" />
            <path
               style="fill:#2aa9f6;fill-opacity:1;stroke-width:0.92307729"
               d="m 408.57141,525.29803 c 3.324,0 6,2.676 6,6 0,3.324 -2.676,6 -6,6 -3.324,0 -6,-2.676 -6,-6 0,-3.324 2.676,-6 6,-6 z"
               id="rect4312-5" />
            <path
               style="color:#000000;font-style:normal;font-variant:normal;font-weight:normal;font-stretch:normal;font-size:medium;line-height:normal;font-family:sans-serif;font-variant-ligatures:normal;font-variant-position:normal;font-variant-caps:normal;font-variant-numeric:normal;font-variant-alternates:normal;font-feature-settings:normal;text-indent:0;text-align:start;text-decoration:none;text-decoration-line:none;text-decoration-style:solid;text-decoration-color:#000000;letter-spacing:normal;word-spacing:normal;text-transform:none;writing-mode:lr-tb;direction:ltr;text-orientation:mixed;dominant-baseline:auto;baseline-shift:baseline;text-anchor:start;white-space:normal;shape-padding:0;clip-rule:nonzero;display:inline;overflow:visible;visibility:visible;opacity:1;isolation:auto;mix-blend-mode:normal;color-interpolation:sRGB;color-interpolation-filters:linearRGB;solid-color:#000000;solid-opacity:1;vector-effect:none;fill:#223240;fill-opacity:1;fill-rule:nonzero;stroke:none;stroke-width:2;stroke-linecap:round;stroke-linejoin:round;stroke-miterlimit:4;stroke-dasharray:none;stroke-dashoffset:0;stroke-opacity:1;color-rendering:auto;image-rendering:auto;shape-rendering:auto;text-rendering:auto;enable-background:accumulate"
               d="m 421.55598,493.29802 c -0.25978,0.004 -0.50774,0.10921 -0.69141,0.29297 l -5,5 c -0.39037,0.39053 -0.39037,1.02353 0,1.41406 l 10.29297,10.29297 -10.29297,10.29297 c -0.39037,0.39053 -0.39037,1.02353 0,1.41406 l 5,5 c 0.39053,0.39037 1.02354,0.39037 1.41407,0 l 16,-16 c 0.39037,-0.39053 0.39037,-1.02353 0,-1.41406 l -16,-16 c -0.19132,-0.19141 -0.45206,-0.29712 -0.72266,-0.29297 z"
               id="path914-3"
               inkscape:connector-curvature="0"
               sodipodi:nodetypes="ccccccccccccc" />
            <path
               style="fill:url(#linearGradient999);fill-opacity:1;stroke:none;stroke-width:2;stroke-linecap:round;stroke-linejoin:round;stroke-miterlimit:4;stroke-dasharray:none;stroke-opacity:1"
               d="m 416.57142,521.29802 5,5 16,-16 -16,-16 -5,5 11,11 z"
               id="path914"
               inkscape:connector-curvature="0" />
          </g>
        </g>
      </g>
    </g>
  </g>
</svg>
