<?xml version="1.0" encoding="UTF-8" standalone="no"?>
<!-- Created with Inkscape (http://www.inkscape.org/) -->

<svg
   width="64"
   height="64"
   viewBox="0 0 16.933333 16.933333"
   version="1.1"
   id="svg8"
   inkscape:version="1.2 (dc2aedaf03, 2022-05-15)"
   sodipodi:docname="ubuntu.svg"
   xml:space="preserve"
   xmlns:inkscape="http://www.inkscape.org/namespaces/inkscape"
   xmlns:sodipodi="http://sodipodi.sourceforge.net/DTD/sodipodi-0.dtd"
   xmlns:xlink="http://www.w3.org/1999/xlink"
   xmlns="http://www.w3.org/2000/svg"
   xmlns:svg="http://www.w3.org/2000/svg"
   xmlns:rdf="http://www.w3.org/1999/02/22-rdf-syntax-ns#"
   xmlns:cc="http://creativecommons.org/ns#"
   xmlns:dc="http://purl.org/dc/elements/1.1/"><defs
     id="defs2"><linearGradient
       gradientTransform="translate(22.301433,16.668742)"
       inkscape:collect="always"
       xlink:href="#linearGradient4622"
       id="linearGradient1053"
       x1="2.0402334"
       y1="296.47083"
       x2="2.0402334"
       y2="281.65417"
       gradientUnits="userSpaceOnUse" /><linearGradient
       id="linearGradient4622"
       inkscape:collect="always"><stop
         id="stop4618"
         offset="0"
         style="stop-color:#ff6a3e;stop-opacity:1" /><stop
         id="stop4620"
         offset="1"
         style="stop-color:#ff9065;stop-opacity:1" /></linearGradient></defs><sodipodi:namedview
     id="base"
     pagecolor="#ffffff"
     bordercolor="#666666"
     borderopacity="1.0"
     inkscape:pageopacity="0.0"
     inkscape:pageshadow="2"
     inkscape:zoom="7.919596"
     inkscape:cx="51.517779"
     inkscape:cy="47.919111"
     inkscape:document-units="px"
     inkscape:current-layer="g853"
     showgrid="true"
     units="px"
     inkscape:showpageshadow="false"
     inkscape:snap-bbox="true"
     inkscape:bbox-paths="true"
     inkscape:bbox-nodes="true"
     inkscape:snap-bbox-edge-midpoints="true"
     inkscape:snap-bbox-midpoints="true"
     inkscape:object-paths="true"
     inkscape:snap-intersection-paths="true"
     inkscape:window-width="2160"
     inkscape:window-height="1337"
     inkscape:window-x="0"
     inkscape:window-y="0"
     inkscape:window-maximized="1"
     inkscape:pagecheckerboard="0"
     inkscape:deskcolor="#d1d1d1"><inkscape:grid
       type="xygrid"
       id="grid815" /></sodipodi:namedview><metadata
     id="metadata5"><rdf:RDF><cc:Work
         rdf:about=""><dc:format>image/svg+xml</dc:format><dc:type
           rdf:resource="http://purl.org/dc/dcmitype/StillImage" /><dc:title /></cc:Work></rdf:RDF></metadata><g
     inkscape:label="Capa 1"
     inkscape:groupmode="layer"
     id="layer1"
     transform="translate(0,-280.06666)"><g
       id="g853"
       transform="translate(-15.875,-17.197913)"><path
         inkscape:connector-curvature="0"
         style="opacity:1;fill:#dd4d25;fill-opacity:1;stroke:none;stroke-width:0.11906253;stroke-miterlimit:4;stroke-dasharray:none;stroke-opacity:1"
         d="m 24.341666,297.79374 c 4.397375,0 7.9375,3.54012 7.9375,7.9375 0,4.39737 -3.540125,7.9375 -7.9375,7.9375 -4.397374,0 -7.937499,-3.54013 -7.937499,-7.9375 0,-4.39738 3.540125,-7.9375 7.937499,-7.9375 z"
         id="rect4593-9" /><path
         inkscape:connector-curvature="0"
         style="opacity:1;fill:url(#linearGradient1053);fill-opacity:1;stroke:none;stroke-width:0.11509378;stroke-miterlimit:4;stroke-dasharray:none;stroke-opacity:1"
         d="m 24.341666,298.05832 c 4.250796,0 7.672917,3.42212 7.672917,7.67292 0,4.2508 -3.422121,7.67292 -7.672917,7.67292 -4.250796,0 -7.672916,-3.42212 -7.672916,-7.67292 0,-4.2508 3.42212,-7.67292 7.672916,-7.67292 z"
         id="rect4593-5-3" /><path
         id="path141248-6"
         style="fill:#dd4d25;fill-opacity:1;stroke-width:0.446852;stroke-linecap:round;stroke-linejoin:round"
         d="m 26.19375,300.70416 a 1.5875,1.5875 0 0 0 -1.5875,1.5875 1.5875,1.5875 0 0 0 1.5875,1.5875 1.5875,1.5875 0 0 0 1.5875,-1.5875 1.5875,1.5875 0 0 0 -1.5875,-1.5875 z m -1.852084,0.26459 a 5.0270834,5.0270834 0 0 0 -4.689636,3.22564 2.1166666,2.1166666 0 0 1 0.219108,-0.0372 2.1166666,2.1166666 0 0 1 0.237195,-0.0134 2.1166666,2.1166666 0 0 1 0.237195,0.0134 2.1166666,2.1166666 0 0 1 0.233578,0.0398 2.1166666,2.1166666 0 0 1 0.228409,0.0656 2.1166666,2.1166666 0 0 1 0.214974,0.0894 3.7041667,3.7041667 0 0 1 3.055111,-2.04793 2.1166666,2.1166666 0 0 1 -5.17e-4,-0.0124 2.1166666,2.1166666 0 0 1 0.01344,-0.23719 2.1166666,2.1166666 0 0 1 0.03979,-0.23358 2.1166666,2.1166666 0 0 1 0.06563,-0.22841 2.1166666,2.1166666 0 0 1 0.09095,-0.21911 2.1166666,2.1166666 0 0 1 0.114722,-0.20774 2.1166666,2.1166666 0 0 1 0.134359,-0.18913 5.0270834,5.0270834 0 0 0 -0.194304,-0.008 z m 3.898987,1.85931 a 2.1166666,2.1166666 0 0 1 -0.0098,0.0382 2.1166666,2.1166666 0 0 1 -0.02377,0.0796 2.1166666,2.1166666 0 0 1 -0.02739,0.0785 2.1166666,2.1166666 0 0 1 -0.03049,0.077 2.1166666,2.1166666 0 0 1 -0.03307,0.0765 2.1166666,2.1166666 0 0 1 -0.03617,0.0749 2.1166666,2.1166666 0 0 1 -0.03927,0.0729 2.1166666,2.1166666 0 0 1 -0.04237,0.0718 2.1166666,2.1166666 0 0 1 -0.04444,0.0703 2.1166666,2.1166666 0 0 1 -0.04754,0.0682 2.1166666,2.1166666 0 0 1 -0.05013,0.0661 2.1166666,2.1166666 0 0 1 -0.05271,0.0641 2.1166666,2.1166666 0 0 1 -0.05529,0.062 2.1166666,2.1166666 0 0 1 -0.05788,0.0599 2.1166666,2.1166666 0 0 1 -0.05994,0.0579 2.1166666,2.1166666 0 0 1 -0.06201,0.0553 2.1166666,2.1166666 0 0 1 -0.06408,0.0527 2.1166666,2.1166666 0 0 1 -0.04858,0.0367 3.7041667,3.7041667 0 0 1 0.590145,2.00505 3.7041667,3.7041667 0 0 1 -0.590145,2.00505 2.1166666,2.1166666 0 0 1 0.04858,0.0367 2.1166666,2.1166666 0 0 1 0.06408,0.0527 2.1166666,2.1166666 0 0 1 0.06201,0.0553 2.1166666,2.1166666 0 0 1 0.05994,0.0579 2.1166666,2.1166666 0 0 1 0.05788,0.0599 2.1166666,2.1166666 0 0 1 0.05529,0.062 2.1166666,2.1166666 0 0 1 0.05271,0.0641 2.1166666,2.1166666 0 0 1 0.05013,0.0661 2.1166666,2.1166666 0 0 1 0.04754,0.0682 2.1166666,2.1166666 0 0 1 0.04444,0.0703 2.1166666,2.1166666 0 0 1 0.04237,0.0718 2.1166666,2.1166666 0 0 1 0.03927,0.0729 2.1166666,2.1166666 0 0 1 0.03617,0.0749 2.1166666,2.1166666 0 0 1 0.03307,0.0765 2.1166666,2.1166666 0 0 1 0.03049,0.077 2.1166666,2.1166666 0 0 1 0.02739,0.0786 2.1166666,2.1166666 0 0 1 0.02377,0.0796 2.1166666,2.1166666 0 0 1 0.0098,0.0382 5.0270834,5.0270834 0 0 0 1.128097,-3.16776 5.0270834,5.0270834 0 0 0 -1.128097,-3.16777 z m -8.13232,1.84485 a 1.5875,1.5875 0 0 0 -1.5875,1.5875 1.5875,1.5875 0 0 0 1.5875,1.5875 1.5875,1.5875 0 0 0 1.5875,-1.5875 1.5875,1.5875 0 0 0 -1.5875,-1.5875 z m 1.147734,3.36569 a 2.1166666,2.1166666 0 0 1 -0.04186,0.0264 2.1166666,2.1166666 0 0 1 -0.07183,0.0424 2.1166666,2.1166666 0 0 1 -0.07286,0.0393 2.1166666,2.1166666 0 0 1 -0.07493,0.0362 2.1166666,2.1166666 0 0 1 -0.07648,0.0331 2.1166666,2.1166666 0 0 1 -0.077,0.0305 2.1166666,2.1166666 0 0 1 -0.07855,0.0274 2.1166666,2.1166666 0 0 1 -0.07958,0.0238 2.1166666,2.1166666 0 0 1 -0.08061,0.0212 2.1166666,2.1166666 0 0 1 -0.08113,0.0176 2.1166666,2.1166666 0 0 1 -0.08165,0.015 2.1166666,2.1166666 0 0 1 -0.08268,0.0114 2.1166666,2.1166666 0 0 1 -0.08268,0.008 2.1166666,2.1166666 0 0 1 -0.08268,0.005 2.1166666,2.1166666 0 0 1 -0.0832,0.002 2.1166666,2.1166666 0 0 1 -0.19637,-0.0114 5.0270834,5.0270834 0 0 0 4.429703,2.6572 5.0270834,5.0270834 0 0 0 0.194304,-0.008 2.1166666,2.1166666 0 0 1 -0.134359,-0.18913 2.1166666,2.1166666 0 0 1 -0.114722,-0.20774 2.1166666,2.1166666 0 0 1 -0.09095,-0.21911 2.1166666,2.1166666 0 0 1 -0.06563,-0.22841 2.1166666,2.1166666 0 0 1 -0.03979,-0.23358 2.1166666,2.1166666 0 0 1 -0.01344,-0.23719 2.1166666,2.1166666 0 0 1 5.17e-4,-0.0124 3.7041667,3.7041667 0 0 1 -2.821533,-1.64899 z m 4.937683,0.0739 a 1.5875,1.5875 0 0 0 -1.5875,1.5875 1.5875,1.5875 0 0 0 1.5875,1.5875 1.5875,1.5875 0 0 0 1.5875,-1.5875 1.5875,1.5875 0 0 0 -1.5875,-1.5875 z" /><path
         id="path141248"
         style="fill:#ffffff;fill-opacity:1;stroke-width:0.446852;stroke-linecap:round;stroke-linejoin:round"
         d="m 26.19375,300.43957 a 1.5875,1.5875 0 0 0 -1.5875,1.5875 1.5875,1.5875 0 0 0 1.5875,1.5875 1.5875,1.5875 0 0 0 1.5875,-1.5875 1.5875,1.5875 0 0 0 -1.5875,-1.5875 z m -1.852084,0.26459 a 5.0270834,5.0270834 0 0 0 -4.689636,3.22564 2.1166666,2.1166666 0 0 1 0.219108,-0.0372 2.1166666,2.1166666 0 0 1 0.237195,-0.0134 2.1166666,2.1166666 0 0 1 0.237195,0.0134 2.1166666,2.1166666 0 0 1 0.233578,0.0398 2.1166666,2.1166666 0 0 1 0.228409,0.0656 2.1166666,2.1166666 0 0 1 0.214974,0.0894 3.7041667,3.7041667 0 0 1 3.055111,-2.04793 2.1166666,2.1166666 0 0 1 -5.17e-4,-0.0124 2.1166666,2.1166666 0 0 1 0.01344,-0.23719 2.1166666,2.1166666 0 0 1 0.03979,-0.23358 2.1166666,2.1166666 0 0 1 0.06563,-0.22841 2.1166666,2.1166666 0 0 1 0.09095,-0.21911 2.1166666,2.1166666 0 0 1 0.114722,-0.20774 2.1166666,2.1166666 0 0 1 0.134359,-0.18913 5.0270834,5.0270834 0 0 0 -0.194304,-0.008 z m 3.898987,1.85931 a 2.1166666,2.1166666 0 0 1 -0.0098,0.0382 2.1166666,2.1166666 0 0 1 -0.02377,0.0796 2.1166666,2.1166666 0 0 1 -0.02739,0.0785 2.1166666,2.1166666 0 0 1 -0.03049,0.077 2.1166666,2.1166666 0 0 1 -0.03307,0.0765 2.1166666,2.1166666 0 0 1 -0.03617,0.0749 2.1166666,2.1166666 0 0 1 -0.03927,0.0729 2.1166666,2.1166666 0 0 1 -0.04237,0.0718 2.1166666,2.1166666 0 0 1 -0.04444,0.0703 2.1166666,2.1166666 0 0 1 -0.04754,0.0682 2.1166666,2.1166666 0 0 1 -0.05013,0.0661 2.1166666,2.1166666 0 0 1 -0.05271,0.0641 2.1166666,2.1166666 0 0 1 -0.05529,0.062 2.1166666,2.1166666 0 0 1 -0.05788,0.0599 2.1166666,2.1166666 0 0 1 -0.05994,0.0579 2.1166666,2.1166666 0 0 1 -0.06201,0.0553 2.1166666,2.1166666 0 0 1 -0.06408,0.0527 2.1166666,2.1166666 0 0 1 -0.04858,0.0367 3.7041667,3.7041667 0 0 1 0.590145,2.00505 3.7041667,3.7041667 0 0 1 -0.590145,2.00505 2.1166666,2.1166666 0 0 1 0.04858,0.0367 2.1166666,2.1166666 0 0 1 0.06408,0.0527 2.1166666,2.1166666 0 0 1 0.06201,0.0553 2.1166666,2.1166666 0 0 1 0.05994,0.0579 2.1166666,2.1166666 0 0 1 0.05788,0.0599 2.1166666,2.1166666 0 0 1 0.05529,0.062 2.1166666,2.1166666 0 0 1 0.05271,0.0641 2.1166666,2.1166666 0 0 1 0.05013,0.0661 2.1166666,2.1166666 0 0 1 0.04754,0.0682 2.1166666,2.1166666 0 0 1 0.04444,0.0703 2.1166666,2.1166666 0 0 1 0.04237,0.0718 2.1166666,2.1166666 0 0 1 0.03927,0.0729 2.1166666,2.1166666 0 0 1 0.03617,0.0749 2.1166666,2.1166666 0 0 1 0.03307,0.0765 2.1166666,2.1166666 0 0 1 0.03049,0.077 2.1166666,2.1166666 0 0 1 0.02739,0.0786 2.1166666,2.1166666 0 0 1 0.02377,0.0796 2.1166666,2.1166666 0 0 1 0.0098,0.0382 5.0270834,5.0270834 0 0 0 1.128097,-3.16776 5.0270834,5.0270834 0 0 0 -1.128097,-3.16777 z m -8.13232,1.84485 a 1.5875,1.5875 0 0 0 -1.5875,1.5875 1.5875,1.5875 0 0 0 1.5875,1.5875 1.5875,1.5875 0 0 0 1.5875,-1.5875 1.5875,1.5875 0 0 0 -1.5875,-1.5875 z m 1.147734,3.36569 a 2.1166666,2.1166666 0 0 1 -0.04186,0.0264 2.1166666,2.1166666 0 0 1 -0.07183,0.0424 2.1166666,2.1166666 0 0 1 -0.07286,0.0393 2.1166666,2.1166666 0 0 1 -0.07493,0.0362 2.1166666,2.1166666 0 0 1 -0.07648,0.0331 2.1166666,2.1166666 0 0 1 -0.077,0.0305 2.1166666,2.1166666 0 0 1 -0.07855,0.0274 2.1166666,2.1166666 0 0 1 -0.07958,0.0238 2.1166666,2.1166666 0 0 1 -0.08061,0.0212 2.1166666,2.1166666 0 0 1 -0.08113,0.0176 2.1166666,2.1166666 0 0 1 -0.08165,0.015 2.1166666,2.1166666 0 0 1 -0.08268,0.0114 2.1166666,2.1166666 0 0 1 -0.08268,0.008 2.1166666,2.1166666 0 0 1 -0.08268,0.005 2.1166666,2.1166666 0 0 1 -0.0832,0.002 2.1166666,2.1166666 0 0 1 -0.19637,-0.0114 5.0270834,5.0270834 0 0 0 4.429703,2.6572 5.0270834,5.0270834 0 0 0 0.194304,-0.008 2.1166666,2.1166666 0 0 1 -0.134359,-0.18913 2.1166666,2.1166666 0 0 1 -0.114722,-0.20774 2.1166666,2.1166666 0 0 1 -0.09095,-0.21911 2.1166666,2.1166666 0 0 1 -0.06563,-0.22841 2.1166666,2.1166666 0 0 1 -0.03979,-0.23358 2.1166666,2.1166666 0 0 1 -0.01344,-0.23719 2.1166666,2.1166666 0 0 1 5.17e-4,-0.0124 3.7041667,3.7041667 0 0 1 -2.821533,-1.64899 z m 4.937683,0.0739 a 1.5875,1.5875 0 0 0 -1.5875,1.5875 1.5875,1.5875 0 0 0 1.5875,1.5875 1.5875,1.5875 0 0 0 1.5875,-1.5875 1.5875,1.5875 0 0 0 -1.5875,-1.5875 z" /></g></g></svg>
