<?xml version="1.0" encoding="UTF-8" standalone="no"?>
<!-- Created with Inkscape (http://www.inkscape.org/) -->

<svg
   xmlns:dc="http://purl.org/dc/elements/1.1/"
   xmlns:cc="http://creativecommons.org/ns#"
   xmlns:rdf="http://www.w3.org/1999/02/22-rdf-syntax-ns#"
   xmlns:svg="http://www.w3.org/2000/svg"
   xmlns="http://www.w3.org/2000/svg"
   xmlns:xlink="http://www.w3.org/1999/xlink"
   xmlns:sodipodi="http://sodipodi.sourceforge.net/DTD/sodipodi-0.dtd"
   xmlns:inkscape="http://www.inkscape.org/namespaces/inkscape"
   width="64"
   height="64"
   viewBox="0 0 64 64"
   version="1.1"
   id="svg8"
   inkscape:version="0.92.1 r"
   sodipodi:docname="user-trash-full.svg">
  <title
     id="title7895">Antu icon Theme</title>
  <defs
     id="defs2">
    <linearGradient
       id="linearGradient4518"
       inkscape:collect="always">
      <stop
         id="stop4514"
         offset="0"
         style="stop-color:#3b4a57;stop-opacity:0.65037596" />
      <stop
         id="stop4516"
         offset="1"
         style="stop-color:#455466;stop-opacity:1" />
    </linearGradient>
    <linearGradient
       id="linearGradient4512"
       inkscape:collect="always">
      <stop
         id="stop4508"
         offset="0"
         style="stop-color:#3b4a57;stop-opacity:0.65037596" />
      <stop
         id="stop4510"
         offset="1"
         style="stop-color:#455466;stop-opacity:1" />
    </linearGradient>
    <linearGradient
       gradientTransform="matrix(3.7795275,0,0,3.7795275,-24,-794.42615)"
       inkscape:collect="always"
       xlink:href="#linearGradient5654"
       id="linearGradient5664"
       x1="10.847917"
       y1="293.29581"
       x2="10.847917"
       y2="289.59164"
       gradientUnits="userSpaceOnUse" />
    <linearGradient
       inkscape:collect="always"
       id="linearGradient5654">
      <stop
         style="stop-color:#3b4a57;stop-opacity:0.65037596"
         offset="0"
         id="stop5650" />
      <stop
         style="stop-color:#455566;stop-opacity:1"
         offset="1"
         id="stop5652" />
    </linearGradient>
    <linearGradient
       gradientTransform="matrix(3.7795275,0,0,3.7795275,-24,-794.42615)"
       inkscape:collect="always"
       xlink:href="#linearGradient4518"
       id="linearGradient5666"
       x1="8.4666672"
       y1="293.29581"
       x2="8.4666672"
       y2="289.59164"
       gradientUnits="userSpaceOnUse" />
    <linearGradient
       gradientTransform="translate(-24,264.09348)"
       inkscape:collect="always"
       xlink:href="#linearGradient4512"
       id="linearGradient5656"
       x1="23.125"
       y1="49.75"
       x2="23"
       y2="36"
       gradientUnits="userSpaceOnUse" />
    <linearGradient
       gradientTransform="translate(-24,264.09348)"
       inkscape:collect="always"
       xlink:href="#linearGradient5645"
       id="linearGradient5647"
       x1="31.75"
       y1="57"
       x2="31.75"
       y2="22.75"
       gradientUnits="userSpaceOnUse" />
    <linearGradient
       inkscape:collect="always"
       id="linearGradient5645">
      <stop
         style="stop-color:#505d66;stop-opacity:1"
         offset="0"
         id="stop5641" />
      <stop
         style="stop-color:#607280;stop-opacity:1"
         offset="1"
         id="stop5643" />
    </linearGradient>
  </defs>
  <sodipodi:namedview
     id="base"
     pagecolor="#ffffff"
     bordercolor="#666666"
     borderopacity="1.0"
     inkscape:pageopacity="0.0"
     inkscape:pageshadow="2"
     inkscape:zoom="7.9195959"
     inkscape:cx="27.936985"
     inkscape:cy="22.089088"
     inkscape:document-units="px"
     inkscape:current-layer="layer1"
     showgrid="true"
     units="px"
     inkscape:window-width="1366"
     inkscape:window-height="697"
     inkscape:window-x="0"
     inkscape:window-y="0"
     inkscape:window-maximized="1"
     objecttolerance="10"
     gridtolerance="10"
     guidetolerance="10">
    <inkscape:grid
       type="xygrid"
       id="grid7897"
       empspacing="4" />
  </sodipodi:namedview>
  <metadata
     id="metadata5">
    <rdf:RDF>
      <cc:Work
         rdf:about="">
        <dc:format>image/svg+xml</dc:format>
        <dc:type
           rdf:resource="http://purl.org/dc/dcmitype/StillImage" />
        <dc:title>Antu icon Theme</dc:title>
      </cc:Work>
    </rdf:RDF>
  </metadata>
  <g
     inkscape:label="Capa 1"
     inkscape:groupmode="layer"
     id="layer1"
     transform="translate(0,-250.64999)">
    <g
       id="g6569"
       transform="translate(24,-13.44349)">
      <path
         inkscape:connector-curvature="0"
         id="rect5426"
         d="M -1.0000389,269.09355 H 11.000042 c 1.107978,0 1.99996,0.89197 1.99996,1.99997 v 15.00008 c 0,1.10797 -0.891982,1.99994 -1.99996,1.99994 H -1.0000389 c -1.107978,0 -1.9999601,-0.89197 -1.9999601,-1.99994 v -15.00008 c 0,-1.108 0.8919821,-1.99997 1.9999601,-1.99997 z"
         style="opacity:1;fill:#1774cc;fill-opacity:1;stroke:none;stroke-width:0.30000004;stroke-miterlimit:4;stroke-dasharray:none;stroke-opacity:1" />
      <path
         inkscape:connector-curvature="0"
         id="rect5434"
         d="m -1,270.09358 h 12 c 0.554,0 1,0.44598 1,0.99998 v 15 c 0,0.554 -0.446,0.99999 -1,0.99999 H -1 c -0.5539997,0 -0.9999999,-0.44599 -0.9999999,-0.99999 v -15 c 0,-0.554 0.4460002,-0.99998 0.9999999,-0.99998 z"
         style="opacity:1;fill:#2fb7fb;fill-opacity:1;stroke:none;stroke-width:0.30000004;stroke-miterlimit:4;stroke-dasharray:none;stroke-opacity:1" />
      <path
         inkscape:connector-curvature="0"
         id="rect5430"
         d="m 10.999962,272.09347 h 13.000076 c 1.10798,0 1.99996,0.89201 1.99996,1.99998 v 15.00011 c 0,1.10797 -0.89198,1.99998 -1.99996,1.99998 H 10.999962 c -1.107978,0 -1.99996,-0.89201 -1.99996,-1.99998 v -15.00011 c 0,-1.10797 0.891982,-1.99998 1.99996,-1.99998 z"
         style="opacity:1;fill:#d9ad00;fill-opacity:1;stroke:none;stroke-width:0.30000004;stroke-miterlimit:4;stroke-dasharray:none;stroke-opacity:1" />
      <path
         inkscape:connector-curvature="0"
         id="rect5424"
         d="M -6.0000427,276.09342 H 5.000037 c 1.107978,0 1.99996,0.89197 1.99996,1.99998 v 6.00007 c 0,1.10797 -0.891982,1.99994 -1.99996,1.99994 H -6.0000427 c -1.107978,0 -1.9999601,-0.89197 -1.9999601,-1.99994 v -6.00007 c 0,-1.10801 0.8919821,-1.99998 1.9999601,-1.99998 z"
         style="opacity:1;fill:#61cc1f;fill-opacity:1;stroke:none;stroke-width:0.30000004;stroke-miterlimit:4;stroke-dasharray:none;stroke-opacity:1" />
      <path
         inkscape:connector-curvature="0"
         id="rect5432"
         d="M -6.0000027,277.09345 H 4.999997 c 0.554,0 1,0.44598 1,0.99999 v 6 c 0,0.554 -0.446,0.99998 -1,0.99998 H -6.0000027 c -0.5540001,0 -1.0000002,-0.44598 -1.0000002,-0.99998 v -6 c 0,-0.55401 0.4460001,-0.99999 1.0000002,-0.99999 z"
         style="opacity:1;fill:#9ae81f;fill-opacity:1;stroke:none;stroke-width:0.30000004;stroke-miterlimit:4;stroke-dasharray:none;stroke-opacity:1" />
      <path
         inkscape:connector-curvature="0"
         id="rect5436"
         d="m 10.999999,273.0935 h 13.000002 c 0.553999,0 0.999998,0.44598 0.999998,0.99999 v 15.00003 c 0,0.55401 -0.445999,0.99999 -0.999998,0.99999 H 10.999999 c -0.554,0 -1,-0.44598 -1,-0.99999 v -15.00003 c 0,-0.55401 0.446,-0.99999 1,-0.99999 z"
         style="opacity:1;fill:#ffe000;fill-opacity:1;stroke:none;stroke-width:0.30000004;stroke-miterlimit:4;stroke-dasharray:none;stroke-opacity:1" />
      <path
         inkscape:connector-curvature="0"
         id="rect5428"
         d="m 9.99995,278.09359 h 8.000081 c 1.107976,0 1.99996,0.89197 1.99996,1.99993 v 8.00009 c 0,1.10797 -0.891984,1.99998 -1.99996,1.99998 H 9.99995 c -1.107978,0 -1.99996,-0.89201 -1.99996,-1.99998 v -8.00009 c 0,-1.10796 0.891982,-1.99993 1.99996,-1.99993 z"
         style="opacity:1;fill:#cc3434;fill-opacity:1;stroke:none;stroke-width:0.30000004;stroke-miterlimit:4;stroke-dasharray:none;stroke-opacity:1" />
      <path
         inkscape:connector-curvature="0"
         id="rect5438"
         d="m 9.999994,279.09346 h 7.999999 c 0.554003,0 1.000003,0.44602 1.000003,1.00003 v 7.99997 c 0,0.55401 -0.446,1.00003 -1.000003,1.00003 H 9.999994 c -0.554,0 -1,-0.44602 -1,-1.00003 v -7.99997 c 0,-0.55401 0.446,-1.00003 1,-1.00003 z"
         style="opacity:1;fill:#f64e4e;fill-opacity:1;stroke:none;stroke-width:0.30000004;stroke-miterlimit:4;stroke-dasharray:none;stroke-opacity:1" />
      <path
         id="rect5510"
         d="m -9,284.09348 c -1.107998,0 -2,0.892 -2,2 v 1 4 13 14 c 0,3.32401 2.675988,6 6,6 h 26 c 3.324012,0 6,-2.67599 6,-6 v -14 -13 -4 -1 c 0,-1.108 -0.892002,-2 -2,-2 z"
         style="opacity:1;fill:#455466;fill-opacity:1;stroke:none;stroke-width:2;stroke-linecap:round;stroke-linejoin:round;stroke-miterlimit:4;stroke-dasharray:none;stroke-opacity:1"
         inkscape:connector-curvature="0" />
      <path
         id="rect5539"
         d="m -9,285.09348 c -0.554,0 -1,0.446 -1,1 v 2 3 17 10 c 0,2.77 2.23,5 5,5 h 26 c 2.77,0 5,-2.23 5,-5 v -10 -17 -3 -2 c 0,-0.554 -0.446,-1 -1,-1 z"
         style="opacity:1;fill:url(#linearGradient5647);fill-opacity:1;stroke:none;stroke-width:2;stroke-linecap:round;stroke-linejoin:round;stroke-miterlimit:4;stroke-dasharray:none;stroke-opacity:1"
         inkscape:connector-curvature="0" />
      <path
         inkscape:connector-curvature="0"
         style="opacity:1;fill:url(#linearGradient5666);fill-opacity:1;stroke:none;stroke-width:2;stroke-linecap:round;stroke-linejoin:round;stroke-miterlimit:4;stroke-dasharray:none;stroke-opacity:1"
         d="m 8,291.09356 c 1.107999,0 2,0.89201 2,2.00001 v 20.99993 c 0,1.108 -0.892001,2.00001 -2,2.00001 -1.108001,0 -2,-0.89201 -2,-2.00001 v -20.99993 c 0,-1.108 0.891999,-2.00001 2,-2.00001 z"
         id="rect5609" />
      <path
         inkscape:connector-curvature="0"
         style="opacity:1;fill:url(#linearGradient5664);fill-opacity:1;stroke:none;stroke-width:2;stroke-linecap:round;stroke-linejoin:round;stroke-miterlimit:4;stroke-dasharray:none;stroke-opacity:1"
         d="m 17.000001,291.09356 c 1.107998,0 2.000001,0.89201 2.000001,2.00001 v 20.99993 c 0,1.108 -0.892003,2.00001 -2.000001,2.00001 -1.107999,0 -2.000002,-0.89201 -2.000002,-2.00001 v -20.99993 c 0,-1.108 0.892003,-2.00001 2.000002,-2.00001 z"
         id="rect5609-9" />
      <path
         inkscape:connector-curvature="0"
         style="opacity:1;fill:url(#linearGradient5656);fill-opacity:1;stroke:none;stroke-width:2;stroke-linecap:round;stroke-linejoin:round;stroke-miterlimit:4;stroke-dasharray:none;stroke-opacity:1"
         d="m -1,291.09348 c -1.108,0 -2,0.892 -2,2 v 21 c 0,1.108 0.892,2 2,2 1.108,0 2,-0.892 2,-2 v -21 c 0,-1.108 -0.892,-2 -2,-2 z"
         id="rect5609-3" />
    </g>
  </g>
</svg>
