<?xml version="1.0" encoding="UTF-8" standalone="no"?>
<!-- Created with Inkscape (http://www.inkscape.org/) -->

<svg
   xmlns:dc="http://purl.org/dc/elements/1.1/"
   xmlns:cc="http://creativecommons.org/ns#"
   xmlns:rdf="http://www.w3.org/1999/02/22-rdf-syntax-ns#"
   xmlns:svg="http://www.w3.org/2000/svg"
   xmlns="http://www.w3.org/2000/svg"
   xmlns:xlink="http://www.w3.org/1999/xlink"
   xmlns:sodipodi="http://sodipodi.sourceforge.net/DTD/sodipodi-0.dtd"
   xmlns:inkscape="http://www.inkscape.org/namespaces/inkscape"
   width="48"
   height="48"
   viewBox="0 0 48 48"
   version="1.1"
   id="svg8"
   inkscape:version="0.92.2 2405546, 2018-03-11"
   sodipodi:docname="application-pdf.svg">
  <title
     id="title7895">Antu icon Theme</title>
  <defs
     id="defs2">
    <linearGradient
       gradientTransform="translate(-59.999998,-53.999951)"
       y2="322.64999"
       x2="60"
       y1="362.64999"
       x1="60"
       gradientUnits="userSpaceOnUse"
       id="linearGradient6625"
       xlink:href="#linearGradient6408-4"
       inkscape:collect="always" />
    <linearGradient
       id="linearGradient6408-4"
       inkscape:collect="always">
      <stop
         id="stop6404-7"
         offset="0"
         style="stop-color:#f34242;stop-opacity:1" />
      <stop
         id="stop6406-6"
         offset="1"
         style="stop-color:#ff6767;stop-opacity:1" />
    </linearGradient>
  </defs>
  <sodipodi:namedview
     id="base"
     pagecolor="#ffffff"
     bordercolor="#666666"
     borderopacity="1.0"
     inkscape:pageopacity="0.0"
     inkscape:pageshadow="2"
     inkscape:zoom="5.6568544"
     inkscape:cx="40.778986"
     inkscape:cy="10.680716"
     inkscape:document-units="px"
     inkscape:current-layer="layer1"
     showgrid="true"
     units="px"
     inkscape:window-width="1360"
     inkscape:window-height="711"
     inkscape:window-x="0"
     inkscape:window-y="28"
     inkscape:window-maximized="1"
     objecttolerance="10"
     gridtolerance="10"
     guidetolerance="10"
     inkscape:snap-bbox="true"
     inkscape:bbox-paths="true"
     inkscape:bbox-nodes="true"
     inkscape:snap-bbox-edge-midpoints="true"
     inkscape:snap-bbox-midpoints="true"
     inkscape:object-paths="true"
     inkscape:snap-intersection-paths="true">
    <inkscape:grid
       type="xygrid"
       id="grid7897"
       empspacing="4" />
  </sodipodi:namedview>
  <metadata
     id="metadata5">
    <rdf:RDF>
      <cc:Work
         rdf:about="">
        <dc:format>image/svg+xml</dc:format>
        <dc:type
           rdf:resource="http://purl.org/dc/dcmitype/StillImage" />
        <dc:title>Antu icon Theme</dc:title>
      </cc:Work>
    </rdf:RDF>
  </metadata>
  <g
     inkscape:label="Capa 1"
     inkscape:groupmode="layer"
     id="layer1"
     transform="translate(0,-266.64999)">
    <g
       id="g1590"
       transform="translate(23.999999,1.999985)">
      <path
         style="opacity:1;vector-effect:none;fill:#b52d2d;fill-opacity:1;stroke:none;stroke-width:6;stroke-linecap:square;stroke-linejoin:round;stroke-miterlimit:18;stroke-dasharray:none;stroke-dashoffset:0;stroke-opacity:1;paint-order:markers stroke fill"
         d="m -15.999999,266.65 h 32 c 1.661998,0 3,1.33799 3,3 v 38.00001 c 0,1.66197 -1.338002,3 -3,3 h -32 c -1.662,0 -3,-1.33803 -3,-3 V 269.65 c 0,-1.66201 1.338,-3 3,-3 z"
         id="rect6397"
         inkscape:connector-curvature="0" />
      <path
         style="opacity:1;vector-effect:none;fill:url(#linearGradient6625);fill-opacity:1;stroke:none;stroke-width:6;stroke-linecap:square;stroke-linejoin:round;stroke-miterlimit:18;stroke-dasharray:none;stroke-dashoffset:0;stroke-opacity:1;paint-order:markers stroke fill"
         d="m -15.999999,267.64999 h 32 c 1.107999,0 1.999997,0.892 1.999997,2.00001 v 38.00001 c 0,1.10797 -0.891998,1.99998 -1.999997,1.99998 h -32 c -1.108,0 -2,-0.89201 -2,-1.99998 V 269.65 c 0,-1.10801 0.892,-2.00001 2,-2.00001 z"
         id="rect6399"
         inkscape:connector-curvature="0"
         sodipodi:nodetypes="sssssssss" />
      <path
         style="fill:#b52d2d;fill-opacity:1;stroke:none;stroke-width:0.99999994px;stroke-linecap:butt;stroke-linejoin:miter;stroke-opacity:1"
         d="M 11.999998,267.64999 C 6,280.65001 -4.999999,289.65001 -17.999999,293.65 v 3 0.99999 2.00001 0.99999 c 5,0 7.9999999,5.00001 7.9999999,10.00002 h 3.0000001 c 0,-6 -3.0000001,-12 -8,-13.00002 5.9999997,-0.99999 11,-3 15.999999,-6 -3,4.00002 -3.999999,16.00002 -3.999999,19.00002 H 11 c -6,-13.00002 -4,-24 6.999998,-34.00002 v -3 c -0.999998,0 -4.999997,3 -6,4.00002 -0.01323,-2.0457 3,-9 5.000002,-10.00002 h -4.124999 z"
         id="path965-9-2"
         inkscape:connector-curvature="0"
         sodipodi:nodetypes="cccccccccccccccccc" />
      <path
         style="fill:#ffffff;fill-opacity:1;stroke:none;stroke-width:0.99999994px;stroke-linecap:butt;stroke-linejoin:miter;stroke-opacity:1"
         d="m 11.999998,267.64999 c -5.999998,13.00002 -16.999997,21 -29.999997,25.00002 v 3 0.99999 2.00001 0.99999 c 4.999999,0 7.9999995,5.00001 7.9999995,9.99999 h 3.0000005 c 0,-6 -3.0000005,-12 -8,-12.99999 5.9999997,-0.99999 11,-3 15.999999,-6 -3,3.99999 -3.999999,15.99999 -3.999999,18.99999 H 11 C 5,296.65 7,285.64999 17.999998,275.65 v -3 c -0.999998,0 -4.999997,3 -6,3.99999 -0.01323,-2.04571 1.725631,-6.2654 4.000003,-9 z"
         id="path965-0"
         inkscape:connector-curvature="0"
         sodipodi:nodetypes="ccccccccccccccccc" />
    </g>
  </g>
</svg>
