<?xml version="1.0" encoding="UTF-8" standalone="no"?>
<!-- Created with Inkscape (http://www.inkscape.org/) -->

<svg
   xmlns:dc="http://purl.org/dc/elements/1.1/"
   xmlns:cc="http://creativecommons.org/ns#"
   xmlns:rdf="http://www.w3.org/1999/02/22-rdf-syntax-ns#"
   xmlns:svg="http://www.w3.org/2000/svg"
   xmlns="http://www.w3.org/2000/svg"
   xmlns:xlink="http://www.w3.org/1999/xlink"
   xmlns:sodipodi="http://sodipodi.sourceforge.net/DTD/sodipodi-0.dtd"
   xmlns:inkscape="http://www.inkscape.org/namespaces/inkscape"
   width="48"
   height="48"
   viewBox="0 0 48 48"
   version="1.1"
   id="svg8"
   inkscape:version="0.92.4 5da689c313, 2019-01-14"
   sodipodi:docname="application-x-bittorrent.svg">
  <title
     id="title7895">Antu icon Theme</title>
  <defs
     id="defs2">
    <style
       type="text/css"
       id="current-color-scheme">
      .ColorScheme-Text {
        color:#122036;
      }
      </style>
    <style
       id="current-color-scheme-53"
       type="text/css">
      .ColorScheme-Text {
        color:#122036;
      }
      </style>
    <style
       type="text/css"
       id="current-color-scheme-5">
      .ColorScheme-Text {
        color:#122036;
      }
      </style>
    <style
       type="text/css"
       id="current-color-scheme-2">
      .ColorScheme-Text {
        color:#122036;
      }
      </style>
    <style
       type="text/css"
       id="current-color-scheme-1">
      .ColorScheme-Text {
        color:#122036;
      }
      </style>
    <style
       id="current-color-scheme-10"
       type="text/css">
      .ColorScheme-Text {
        color:#122036;
      }
      </style>
    <style
       type="text/css"
       id="current-color-scheme-0">
      .ColorScheme-Text {
        color:#122036;
      }
      </style>
    <style
       type="text/css"
       id="current-color-scheme-26">
      .ColorScheme-Text {
        color:#122036;
      }
      </style>
    <style
       type="text/css"
       id="current-color-scheme-7">
      .ColorScheme-Text {
        color:#122036;
      }
      </style>
    <linearGradient
       id="linearGradient4902"
       inkscape:collect="always">
      <stop
         id="stop4898"
         offset="0"
         style="stop-color:#5563b2;stop-opacity:1" />
      <stop
         id="stop4900"
         offset="1"
         style="stop-color:#7986cb;stop-opacity:1" />
    </linearGradient>
    <linearGradient
       inkscape:collect="always"
       xlink:href="#linearGradient4902"
       id="linearGradient1016"
       x1="-11"
       y1="297.64999"
       x2="-11"
       y2="255.64999"
       gradientUnits="userSpaceOnUse" />
  </defs>
  <sodipodi:namedview
     id="base"
     pagecolor="#ffffff"
     bordercolor="#666666"
     borderopacity="1.0"
     inkscape:pageopacity="0.0"
     inkscape:pageshadow="2"
     inkscape:zoom="11.313709"
     inkscape:cx="27.466634"
     inkscape:cy="14.415387"
     inkscape:document-units="px"
     inkscape:current-layer="layer1"
     showgrid="true"
     units="px"
     inkscape:window-width="1920"
     inkscape:window-height="1049"
     inkscape:window-x="0"
     inkscape:window-y="0"
     inkscape:window-maximized="1"
     objecttolerance="10"
     gridtolerance="10"
     guidetolerance="10"
     inkscape:snap-bbox="true"
     inkscape:bbox-paths="true"
     inkscape:bbox-nodes="true"
     inkscape:snap-bbox-edge-midpoints="true"
     inkscape:snap-bbox-midpoints="true"
     inkscape:object-paths="true"
     inkscape:snap-intersection-paths="true">
    <inkscape:grid
       type="xygrid"
       id="grid7897"
       empspacing="4" />
  </sodipodi:namedview>
  <metadata
     id="metadata5">
    <rdf:RDF>
      <cc:Work
         rdf:about="">
        <dc:format>image/svg+xml</dc:format>
        <dc:type
           rdf:resource="http://purl.org/dc/dcmitype/StillImage" />
        <dc:title>Antu icon Theme</dc:title>
      </cc:Work>
    </rdf:RDF>
  </metadata>
  <g
     inkscape:label="Capa 1"
     inkscape:groupmode="layer"
     id="layer1"
     transform="translate(0,-266.64999)">
    <g
       transform="translate(35,14)"
       id="g1593">
      <path
         style="opacity:1;vector-effect:none;fill:#4a5599;fill-opacity:1;stroke:none;stroke-width:6;stroke-linecap:square;stroke-linejoin:round;stroke-miterlimit:18;stroke-dasharray:none;stroke-dashoffset:0;stroke-opacity:1;paint-order:markers stroke fill"
         d="M -27,254.64999 H 5.0000002 c 1.662,0 3,1.338 3,3 v 38 c 0,1.662 -1.338,3 -3,3 H -27 c -1.662,0 -3,-1.338 -3,-3 v -38 c 0,-1.662 1.338,-3 3,-3 z"
         id="rect6397-1-4"
         inkscape:connector-curvature="0" />
      <path
         style="opacity:1;vector-effect:none;fill:url(#linearGradient1016);fill-opacity:1;stroke:none;stroke-width:6;stroke-linecap:square;stroke-linejoin:round;stroke-miterlimit:18;stroke-dasharray:none;stroke-dashoffset:0;stroke-opacity:1;paint-order:markers stroke fill"
         d="M -27,255.64999 H 5.0000002 c 1.108,0 2,0.892 2,2 v 38 c 0,1.108 -0.892,2 -2,2 H -27 c -1.108,0 -2,-0.892 -2,-2 v -38 c 0,-1.108 0.892,-2 2,-2 z"
         id="rect6399-4-9"
         inkscape:connector-curvature="0"
         sodipodi:nodetypes="sssssssss" />
    </g>
    <path
       inkscape:connector-curvature="0"
       style="opacity:1;vector-effect:none;fill:#4a5599;fill-opacity:1;stroke:none;stroke-width:2;stroke-linecap:round;stroke-linejoin:round;stroke-miterlimit:4;stroke-dasharray:none;stroke-dashoffset:0;stroke-opacity:1;paint-order:normal"
       d="m 24.14453,286.65194 a 10,10 0 0 0 -7.216797,2.92774 10,10 0 0 0 -2.167968,10.89648 10,10 0 0 0 9.238281,6.17383 v -2 a 8,8 0 0 1 -0.798828,-0.0391 8,8 0 0 1 -0.791016,-0.12109 8,8 0 0 1 -0.773437,-0.19727 8,8 0 0 1 -0.751954,-0.27344 8,8 0 0 1 -0.720703,-0.34765 8,8 0 0 1 -0.68164,-0.41797 8,8 0 0 1 -0.636719,-0.48438 8,8 0 0 1 -0.583984,-0.54492 8,8 0 0 1 -0.529297,-0.60156 8,8 0 0 1 -0.464844,-0.65039 8,8 0 0 1 -0.396484,-0.69336 8,8 0 0 1 -0.261719,-0.56836 8,8 0 0 1 -0.269531,-0.75195 8,8 0 0 1 -0.191407,-0.77735 8,8 0 0 1 -0.113281,-0.79101 8,8 0 0 1 -0.03516,-0.79883 8,8 0 0 1 0.04687,-0.79883 8,8 0 0 1 0.125,-0.78906 8,8 0 0 1 0.203125,-0.77344 8,8 0 0 1 0.279297,-0.75 8,8 0 0 1 0.353515,-0.7168 8,8 0 0 1 0.421875,-0.67773 8,8 0 0 1 0.490235,-0.63477 8,8 0 0 1 0.423828,-0.45703 8,8 0 0 1 0.591797,-0.53711 8,8 0 0 1 0.644531,-0.47461 8,8 0 0 1 0.6875,-0.4082 8,8 0 0 1 0.724609,-0.33789 8,8 0 0 1 0.75586,-0.26172 8,8 0 0 1 0.777344,-0.1875 8,8 0 0 1 0.792968,-0.10742 8,8 0 0 1 0.798828,-0.0293 8,8 0 0 1 0.796875,0.0527 8,8 0 0 1 0.789063,0.13086 8,8 0 0 1 0.771484,0.20898 8,8 0 0 1 0.585938,0.2168 8,8 0 0 1 0.722656,0.3418 8,8 0 0 1 0.685547,0.41406 8,8 0 0 1 0.640625,0.47852 8,8 0 0 1 0.58789,0.54101 8,8 0 0 1 0.533204,0.59766 8,8 0 0 1 0.46875,0.64648 8,8 0 0 1 0.404296,0.68945 8,8 0 0 1 0.332032,0.72852 8,8 0 0 1 0.257812,0.75781 8,8 0 0 1 0.179688,0.77735 8,8 0 0 1 0.103515,0.79297 8,8 0 0 1 0.02344,0.625 h 2 a 10,10 0 0 0 -6.173821,-9.23828 10,10 0 0 0 -3.679688,-0.75977 z m -0.04492,2.99805 a 7,7 0 0 0 -5.050781,2.05078 7,7 0 0 0 -1.517578,7.62891 7,7 0 0 0 6.466797,4.32031 v -2 a 5,5 0 0 1 -0.5,-0.0254 5,5 0 0 1 -0.494141,-0.0742 5,5 0 0 1 -0.484375,-0.12305 5,5 0 0 1 -0.46875,-0.17187 5,5 0 0 1 -0.449219,-0.2168 5,5 0 0 1 -0.425781,-0.26172 5,5 0 0 1 -0.398437,-0.30273 5,5 0 0 1 -0.365235,-0.33984 5,5 0 0 1 -0.330078,-0.37696 5,5 0 0 1 -0.291015,-0.40625 5,5 0 0 1 -0.248047,-0.43359 5,5 0 0 1 -0.164063,-0.35352 5,5 0 0 1 -0.167968,-0.4707 5,5 0 0 1 -0.121094,-0.48633 5,5 0 0 1 -0.07031,-0.49414 5,5 0 0 1 -0.02148,-0.5 5,5 0 0 1 0.0293,-0.49805 5,5 0 0 1 0.07813,-0.49414 5,5 0 0 1 0.126953,-0.48242 5,5 0 0 1 0.173828,-0.46875 5,5 0 0 1 0.220703,-0.44922 5,5 0 0 1 0.265625,-0.42383 5,5 0 0 1 0.304688,-0.39453 5,5 0 0 1 0.265625,-0.28711 5,5 0 0 1 0.371093,-0.33593 5,5 0 0 1 0.402344,-0.29688 5,5 0 0 1 0.429688,-0.25391 5,5 0 0 1 0.453125,-0.21093 5,5 0 0 1 0.470703,-0.16407 5,5 0 0 1 0.486328,-0.11718 5,5 0 0 1 0.496094,-0.0684 5,5 0 0 1 0.498031,-0.0176 5,5 0 0 1 0.5,0.0332 5,5 0 0 1 0.492188,0.082 5,5 0 0 1 0.482422,0.13086 5,5 0 0 1 0.367187,0.13477 5,5 0 0 1 0.451172,0.21289 5,5 0 0 1 0.427735,0.25976 5,5 0 0 1 0.40039,0.29883 5,5 0 0 1 0.367188,0.33789 5,5 0 0 1 0.333984,0.37305 5,5 0 0 1 0.292969,0.40429 5,5 0 0 1 0.251953,0.43165 5,5 0 0 1 0.207031,0.45507 5,5 0 0 1 0.16211,0.47266 5,5 0 0 1 0.113281,0.48633 5,5 0 0 1 0.0625,0.49609 5,5 0 0 1 0.01563,0.39063 h 2 a 7,7 0 0 0 -4.320313,-6.4668 7,7 0 0 0 -2.578125,-0.5332 z m -0.04297,3 a 4,4 0 0 0 -2.886717,1.17188 4,4 0 0 0 -0.867188,4.35937 4,4 0 0 0 3.695313,2.46875 v -2 a 2,2 0 0 1 -0.199219,-0.01 2,2 0 0 1 -0.197266,-0.0293 2,2 0 0 1 -0.195312,-0.0508 2,2 0 0 1 -0.1875,-0.0684 2,2 0 0 1 -0.179688,-0.0859 2,2 0 0 1 -0.169921,-0.10547 2,2 0 0 1 -0.160157,-0.12109 2,2 0 0 1 -0.146484,-0.13672 2,2 0 0 1 -0.130859,-0.14844 2,2 0 0 1 -0.117188,-0.16406 2,2 0 0 1 -0.09961,-0.17383 2,2 0 0 1 -0.06445,-0.14062 2,2 0 0 1 -0.06641,-0.18946 2,2 0 0 1 -0.04883,-0.19336 2,2 0 0 1 -0.0293,-0.19726 2,2 0 0 1 -0.0078,-0.19922 2,2 0 0 1 0.01172,-0.20117 2,2 0 0 1 0.03125,-0.19727 2,2 0 0 1 0.05078,-0.19336 2,2 0 0 1 0.07031,-0.1875 2,2 0 0 1 0.08789,-0.17773 2,2 0 0 1 0.105469,-0.16992 2,2 0 0 1 0.123047,-0.15821 2,2 0 0 1 0.105468,-0.11523 2,2 0 0 1 0.148438,-0.13477 2,2 0 0 1 0.160156,-0.11718 2,2 0 0 1 0.171875,-0.10352 2,2 0 0 1 0.181641,-0.084 2,2 0 0 1 0.189453,-0.0664 2,2 0 0 1 0.193359,-0.0449 2,2 0 0 1 0.199219,-0.0273 2,2 0 0 1 0.199219,-0.008 2,2 0 0 1 0.199218,0.0137 2,2 0 0 1 0.197266,0.0312 2,2 0 0 1 0.19336,0.0527 2,2 0 0 1 0.146484,0.0547 2,2 0 0 1 0.179687,0.0859 2,2 0 0 1 0.171875,0.10352 2,2 0 0 1 0.160157,0.11914 2,2 0 0 1 0.146484,0.13476 2,2 0 0 1 0.132813,0.15039 2,2 0 0 1 0.11914,0.16016 2,2 0 0 1 0.09961,0.17383 2,2 0 0 1 0.08398,0.18164 2,2 0 0 1 0.06445,0.18945 2,2 0 0 1 0.04492,0.19531 2,2 0 0 1 0.02539,0.19727 2,2 0 0 1 0.0078,0.15627 h 2 a 4,4 0 0 0 -2.46875,-3.69531 4,4 0 0 0 -1.472656,-0.30469 z m -0.05664,6 v 2 h 18 v -2 z m 0,3 v 2 h 18 v -2 z m 0,3 v 2 h 18 v -2 z"
       id="path835-1" />
    <path
       style="opacity:1;vector-effect:none;fill:#eff0f6;fill-opacity:1;stroke:none;stroke-width:2;stroke-linecap:round;stroke-linejoin:round;stroke-miterlimit:4;stroke-dasharray:none;stroke-dashoffset:0;stroke-opacity:1;paint-order:normal"
       d="M 24.144531 19.001953 A 10 10 0 0 0 16.927734 21.929688 A 10 10 0 0 0 14.759766 32.826172 A 10 10 0 0 0 23.998047 39 L 23.998047 37 A 8 8 0 0 1 23.199219 36.960938 A 8 8 0 0 1 22.408203 36.839844 A 8 8 0 0 1 21.634766 36.642578 A 8 8 0 0 1 20.882812 36.369141 A 8 8 0 0 1 20.162109 36.021484 A 8 8 0 0 1 19.480469 35.603516 A 8 8 0 0 1 18.84375 35.119141 A 8 8 0 0 1 18.259766 34.574219 A 8 8 0 0 1 17.730469 33.972656 A 8 8 0 0 1 17.265625 33.322266 A 8 8 0 0 1 16.869141 32.628906 A 8 8 0 0 1 16.607422 32.060547 A 8 8 0 0 1 16.337891 31.308594 A 8 8 0 0 1 16.146484 30.53125 A 8 8 0 0 1 16.033203 29.740234 A 8 8 0 0 1 15.998047 28.941406 A 8 8 0 0 1 16.044922 28.142578 A 8 8 0 0 1 16.169922 27.353516 A 8 8 0 0 1 16.373047 26.580078 A 8 8 0 0 1 16.652344 25.830078 A 8 8 0 0 1 17.005859 25.113281 A 8 8 0 0 1 17.427734 24.435547 A 8 8 0 0 1 17.917969 23.800781 A 8 8 0 0 1 18.341797 23.34375 A 8 8 0 0 1 18.933594 22.806641 A 8 8 0 0 1 19.578125 22.332031 A 8 8 0 0 1 20.265625 21.923828 A 8 8 0 0 1 20.990234 21.585938 A 8 8 0 0 1 21.746094 21.324219 A 8 8 0 0 1 22.523438 21.136719 A 8 8 0 0 1 23.316406 21.029297 A 8 8 0 0 1 24.115234 21 A 8 8 0 0 1 24.912109 21.052734 A 8 8 0 0 1 25.701172 21.183594 A 8 8 0 0 1 26.472656 21.392578 A 8 8 0 0 1 27.058594 21.609375 A 8 8 0 0 1 27.78125 21.951172 A 8 8 0 0 1 28.466797 22.365234 A 8 8 0 0 1 29.107422 22.84375 A 8 8 0 0 1 29.695312 23.384766 A 8 8 0 0 1 30.228516 23.982422 A 8 8 0 0 1 30.697266 24.628906 A 8 8 0 0 1 31.101562 25.318359 A 8 8 0 0 1 31.433594 26.046875 A 8 8 0 0 1 31.691406 26.804688 A 8 8 0 0 1 31.871094 27.582031 A 8 8 0 0 1 31.974609 28.375 A 8 8 0 0 1 31.998047 29 L 33.998047 29 A 10 10 0 0 0 27.824219 19.761719 A 10 10 0 0 0 24.144531 19.001953 z M 24.099609 22 A 7 7 0 0 0 19.048828 24.050781 A 7 7 0 0 0 17.53125 31.679688 A 7 7 0 0 0 23.998047 36 L 23.998047 34 A 5 5 0 0 1 23.498047 33.974609 A 5 5 0 0 1 23.003906 33.900391 A 5 5 0 0 1 22.519531 33.777344 A 5 5 0 0 1 22.050781 33.605469 A 5 5 0 0 1 21.601562 33.388672 A 5 5 0 0 1 21.175781 33.126953 A 5 5 0 0 1 20.777344 32.824219 A 5 5 0 0 1 20.412109 32.484375 A 5 5 0 0 1 20.082031 32.107422 A 5 5 0 0 1 19.791016 31.701172 A 5 5 0 0 1 19.542969 31.267578 A 5 5 0 0 1 19.378906 30.914062 A 5 5 0 0 1 19.210938 30.443359 A 5 5 0 0 1 19.089844 29.957031 A 5 5 0 0 1 19.019531 29.462891 A 5 5 0 0 1 18.998047 28.962891 A 5 5 0 0 1 19.027344 28.464844 A 5 5 0 0 1 19.105469 27.970703 A 5 5 0 0 1 19.232422 27.488281 A 5 5 0 0 1 19.40625 27.019531 A 5 5 0 0 1 19.626953 26.570312 A 5 5 0 0 1 19.892578 26.146484 A 5 5 0 0 1 20.197266 25.751953 A 5 5 0 0 1 20.462891 25.464844 A 5 5 0 0 1 20.833984 25.128906 A 5 5 0 0 1 21.236328 24.832031 A 5 5 0 0 1 21.666016 24.578125 A 5 5 0 0 1 22.119141 24.367188 A 5 5 0 0 1 22.589844 24.203125 A 5 5 0 0 1 23.076172 24.085938 A 5 5 0 0 1 23.572266 24.017578 A 5 5 0 0 1 24.070312 24 A 5 5 0 0 1 24.570312 24.033203 A 5 5 0 0 1 25.0625 24.115234 A 5 5 0 0 1 25.544922 24.246094 A 5 5 0 0 1 25.912109 24.380859 A 5 5 0 0 1 26.363281 24.59375 A 5 5 0 0 1 26.791016 24.853516 A 5 5 0 0 1 27.191406 25.152344 A 5 5 0 0 1 27.558594 25.490234 A 5 5 0 0 1 27.892578 25.863281 A 5 5 0 0 1 28.185547 26.267578 A 5 5 0 0 1 28.4375 26.699219 A 5 5 0 0 1 28.644531 27.154297 A 5 5 0 0 1 28.806641 27.626953 A 5 5 0 0 1 28.919922 28.113281 A 5 5 0 0 1 28.982422 28.609375 A 5 5 0 0 1 28.998047 29 L 30.998047 29 A 7 7 0 0 0 26.677734 22.533203 A 7 7 0 0 0 24.099609 22 z M 24.056641 25 A 4 4 0 0 0 21.169922 26.171875 A 4 4 0 0 0 20.302734 30.53125 A 4 4 0 0 0 23.998047 33 L 23.998047 31 A 2 2 0 0 1 23.798828 30.990234 A 2 2 0 0 1 23.601562 30.960938 A 2 2 0 0 1 23.40625 30.910156 A 2 2 0 0 1 23.21875 30.841797 A 2 2 0 0 1 23.039062 30.755859 A 2 2 0 0 1 22.869141 30.650391 A 2 2 0 0 1 22.708984 30.529297 A 2 2 0 0 1 22.5625 30.392578 A 2 2 0 0 1 22.431641 30.244141 A 2 2 0 0 1 22.314453 30.080078 A 2 2 0 0 1 22.214844 29.90625 A 2 2 0 0 1 22.150391 29.765625 A 2 2 0 0 1 22.083984 29.576172 A 2 2 0 0 1 22.035156 29.382812 A 2 2 0 0 1 22.005859 29.185547 A 2 2 0 0 1 21.998047 28.986328 A 2 2 0 0 1 22.009766 28.785156 A 2 2 0 0 1 22.041016 28.587891 A 2 2 0 0 1 22.091797 28.394531 A 2 2 0 0 1 22.162109 28.207031 A 2 2 0 0 1 22.25 28.029297 A 2 2 0 0 1 22.355469 27.859375 A 2 2 0 0 1 22.478516 27.701172 A 2 2 0 0 1 22.583984 27.585938 A 2 2 0 0 1 22.732422 27.451172 A 2 2 0 0 1 22.892578 27.333984 A 2 2 0 0 1 23.064453 27.230469 A 2 2 0 0 1 23.246094 27.146484 A 2 2 0 0 1 23.435547 27.080078 A 2 2 0 0 1 23.628906 27.035156 A 2 2 0 0 1 23.828125 27.007812 A 2 2 0 0 1 24.027344 27 A 2 2 0 0 1 24.226562 27.013672 A 2 2 0 0 1 24.423828 27.044922 A 2 2 0 0 1 24.617188 27.097656 A 2 2 0 0 1 24.763672 27.152344 A 2 2 0 0 1 24.943359 27.238281 A 2 2 0 0 1 25.115234 27.341797 A 2 2 0 0 1 25.275391 27.460938 A 2 2 0 0 1 25.421875 27.595703 A 2 2 0 0 1 25.554688 27.746094 A 2 2 0 0 1 25.673828 27.90625 A 2 2 0 0 1 25.773438 28.080078 A 2 2 0 0 1 25.857422 28.261719 A 2 2 0 0 1 25.921875 28.451172 A 2 2 0 0 1 25.966797 28.646484 A 2 2 0 0 1 25.992188 28.84375 A 2 2 0 0 1 26 29 L 28 29 A 4 4 0 0 0 25.53125 25.304688 A 4 4 0 0 0 24.058594 25 L 24.056641 25 z M 24 31 L 24 33 L 42 33 L 42 31 L 24 31 z M 24 34 L 24 36 L 42 36 L 42 34 L 24 34 z M 24 37 L 24 39 L 42 39 L 42 37 L 24 37 z "
       transform="translate(0,266.64999)"
       id="path835" />
    <ellipse
       style="opacity:1;vector-effect:none;fill:#7caee6;fill-opacity:0.43043482;stroke:none;stroke-width:0;stroke-linecap:round;stroke-linejoin:round;stroke-miterlimit:4;stroke-dasharray:none;stroke-dashoffset:0;stroke-opacity:1;paint-order:normal"
       id="path835-3-6"
       cx="-19.142857"
       cy="312.64999"
       rx="5"
       ry="0"
       transform="scale(-1,1)" />
  </g>
</svg>
