<?xml version="1.0" encoding="UTF-8" standalone="no"?>
<!-- Created with Inkscape (http://www.inkscape.org/) -->

<svg
   width="48"
   height="48"
   viewBox="0 0 48 48"
   version="1.1"
   id="svg8"
   inkscape:version="1.2 (dc2aedaf03, 2022-05-15)"
   sodipodi:docname="image-bmp.svg"
   xml:space="preserve"
   xmlns:inkscape="http://www.inkscape.org/namespaces/inkscape"
   xmlns:sodipodi="http://sodipodi.sourceforge.net/DTD/sodipodi-0.dtd"
   xmlns:xlink="http://www.w3.org/1999/xlink"
   xmlns="http://www.w3.org/2000/svg"
   xmlns:svg="http://www.w3.org/2000/svg"
   xmlns:rdf="http://www.w3.org/1999/02/22-rdf-syntax-ns#"
   xmlns:cc="http://creativecommons.org/ns#"
   xmlns:dc="http://purl.org/dc/elements/1.1/"><title
     id="title7895">Antu icon Theme</title><defs
     id="defs2"><linearGradient
       inkscape:collect="always"
       id="linearGradient7654"><stop
         style="stop-color:#ce946e;stop-opacity:1;"
         offset="0"
         id="stop7650" /><stop
         style="stop-color:#f1b994;stop-opacity:1;"
         offset="1"
         id="stop7652" /></linearGradient><linearGradient
       inkscape:collect="always"
       id="linearGradient5438"><stop
         style="stop-color:#dab298;stop-opacity:1;"
         offset="0"
         id="stop5434" /><stop
         style="stop-color:#fad3ba;stop-opacity:1;"
         offset="1"
         id="stop5436" /></linearGradient><linearGradient
       inkscape:collect="always"
       id="linearGradient3774"><stop
         style="stop-color:#3891ed;stop-opacity:1;"
         offset="0"
         id="stop3770" /><stop
         style="stop-color:#46a4ff;stop-opacity:1;"
         offset="1"
         id="stop3772" /></linearGradient><linearGradient
       inkscape:collect="always"
       id="linearGradient3283"><stop
         style="stop-color:#e4efef;stop-opacity:1;"
         offset="0"
         id="stop3279" /><stop
         style="stop-color:#fcfcfc;stop-opacity:1;"
         offset="1"
         id="stop3281" /></linearGradient><style
       type="text/css"
       id="current-color-scheme">
      .ColorScheme-Text {
        color:#122036;
      }
      </style><style
       id="current-color-scheme-5"
       type="text/css">
      .ColorScheme-Text {
        color:#122036;
      }
      </style><style
       id="current-color-scheme-2"
       type="text/css">
      .ColorScheme-Text {
        color:#122036;
      }
      </style><style
       id="current-color-scheme-1"
       type="text/css">
      .ColorScheme-Text {
        color:#122036;
      }
      </style><style
       type="text/css"
       id="current-color-scheme-10">
      .ColorScheme-Text {
        color:#122036;
      }
      </style><style
       id="current-color-scheme-0"
       type="text/css">
      .ColorScheme-Text {
        color:#122036;
      }
      </style><style
       id="current-color-scheme-26"
       type="text/css">
      .ColorScheme-Text {
        color:#122036;
      }
      </style><style
       type="text/css"
       id="current-color-scheme-27">
      .ColorScheme-Text {
        color:#122036;
      }
      </style><style
       type="text/css"
       id="current-color-scheme-7">
      .ColorScheme-Text {
        color:#122036;
      }
      </style><style
       type="text/css"
       id="current-color-scheme-5-09">
      .ColorScheme-Text {
        color:#122036;
      }
      </style><style
       type="text/css"
       id="current-color-scheme-0-3">
      .ColorScheme-Text {
        color:#122036;
      }
      </style><style
       type="text/css"
       id="current-color-scheme-7-9">
      .ColorScheme-Text {
        color:#122036;
      }
      </style><style
       type="text/css"
       id="current-color-scheme-5-3">
      .ColorScheme-Text {
        color:#122036;
      }
      </style><style
       type="text/css"
       id="current-color-scheme-79">
      .ColorScheme-Text {
        color:#122036;
      }
      </style><style
       type="text/css"
       id="current-color-scheme-7-2">
      .ColorScheme-Text {
        color:#122036;
      }
      </style><style
       type="text/css"
       id="current-color-scheme-5-0">
      .ColorScheme-Text {
        color:#122036;
      }
      </style><linearGradient
       inkscape:collect="always"
       xlink:href="#linearGradient3283"
       id="linearGradient3285"
       x1="-19"
       y1="306.64999"
       x2="-19"
       y2="265.64999"
       gradientUnits="userSpaceOnUse" /><linearGradient
       inkscape:collect="always"
       xlink:href="#linearGradient3774"
       id="linearGradient3776"
       x1="23"
       y1="302.64999"
       x2="23"
       y2="273.64999"
       gradientUnits="userSpaceOnUse" /><linearGradient
       inkscape:collect="always"
       xlink:href="#linearGradient5438"
       id="linearGradient5440"
       x1="13"
       y1="303.64999"
       x2="13"
       y2="298.64999"
       gradientUnits="userSpaceOnUse" /><linearGradient
       inkscape:collect="always"
       xlink:href="#linearGradient7654"
       id="linearGradient7656"
       x1="30"
       y1="308.64999"
       x2="30"
       y2="297.64999"
       gradientUnits="userSpaceOnUse" /></defs><sodipodi:namedview
     id="base"
     pagecolor="#ffffff"
     bordercolor="#666666"
     borderopacity="1.0"
     inkscape:pageopacity="0.0"
     inkscape:pageshadow="2"
     inkscape:zoom="16"
     inkscape:cx="43.875"
     inkscape:cy="33.34375"
     inkscape:document-units="px"
     inkscape:current-layer="layer1"
     showgrid="true"
     units="px"
     inkscape:window-width="2160"
     inkscape:window-height="1337"
     inkscape:window-x="0"
     inkscape:window-y="0"
     inkscape:window-maximized="1"
     objecttolerance="10"
     gridtolerance="10"
     guidetolerance="10"
     inkscape:snap-bbox="true"
     inkscape:bbox-paths="true"
     inkscape:bbox-nodes="true"
     inkscape:snap-bbox-edge-midpoints="true"
     inkscape:snap-bbox-midpoints="true"
     inkscape:object-paths="true"
     inkscape:snap-intersection-paths="true"
     inkscape:showpageshadow="2"
     inkscape:pagecheckerboard="0"
     inkscape:deskcolor="#d1d1d1"><inkscape:grid
       type="xygrid"
       id="grid7897"
       empspacing="4" /></sodipodi:namedview><metadata
     id="metadata5"><rdf:RDF><cc:Work
         rdf:about=""><dc:format>image/svg+xml</dc:format><dc:type
           rdf:resource="http://purl.org/dc/dcmitype/StillImage" /><dc:title>Antu icon Theme</dc:title></cc:Work></rdf:RDF></metadata><g
     inkscape:label="Capa 1"
     inkscape:groupmode="layer"
     id="layer1"
     transform="translate(0,-266.64999)"><g
       id="g8745"
       transform="translate(44,4)"
       style="fill:#a3b7cc;fill-opacity:1"><path
         inkscape:connector-curvature="0"
         id="rect6397-1"
         d="m -36,264.64999 h 32 c 1.662,0 3,1.33798 3,3 v 38 c 0,1.66197 -1.338,3 -3,3 h -32 c -1.661998,0 -3,-1.33803 -3,-3 v -38 c 0,-1.66202 1.338002,-3 3,-3 z"
         style="opacity:1;vector-effect:none;fill:#90a4ae;fill-opacity:1;stroke:none;stroke-width:6;stroke-linecap:square;stroke-linejoin:round;stroke-miterlimit:18;stroke-dasharray:none;stroke-dashoffset:0;stroke-opacity:1;paint-order:markers stroke fill" /><path
         sodipodi:nodetypes="sssssssss"
         inkscape:connector-curvature="0"
         id="rect6399-4"
         d="m -36,265.64999 h 32 c 1.108001,0 2,0.892 2,2.00001 v 38.00001 c 0,1.10797 -0.891999,1.99997 -2,1.99997 h -32 c -1.107998,0 -2,-0.892 -2,-1.99997 V 267.65 c 0,-1.10801 0.892002,-2.00001 2,-2.00001 z"
         style="opacity:1;vector-effect:none;fill:url(#linearGradient3285);fill-opacity:1;stroke:none;stroke-width:6;stroke-linecap:square;stroke-linejoin:round;stroke-miterlimit:18;stroke-dasharray:none;stroke-dashoffset:0;stroke-opacity:1;paint-order:markers stroke fill" /></g><path
       id="rect4967"
       style="fill:url(#linearGradient3776);stroke-width:2;stroke-linecap:round;stroke-miterlimit:1.8;paint-order:fill markers stroke;stop-color:#000000;fill-opacity:1"
       d="M 8.9999961,271.64999 H 39.000004 c 0.553998,0 0.999996,0.446 0.999996,1 v 36 c 0,0.554 -0.445998,1 -0.999996,1 H 8.9999961 C 8.4459983,309.64999 8,309.20399 8,308.64999 v -36 c 0,-0.554 0.4459983,-1 0.9999961,-1 z" /><path
       id="rect5764-7"
       style="fill:url(#linearGradient5440);fill-opacity:1;stroke-width:2;stroke-linecap:round;stroke-miterlimit:1.8;paint-order:fill markers stroke;stop-color:#000000"
       d="m 40,303.64999 c -21,1 -20.494359,-10.74596 -32,-1 v 6 h 32 z"
       sodipodi:nodetypes="ccccc" /><path
       id="rect5764"
       style="fill:url(#linearGradient7656);fill-opacity:1;stroke-width:2;stroke-linecap:round;stroke-miterlimit:1.8;paint-order:fill markers stroke;stop-color:#000000"
       d="m 30,296.64999 c -6.153748,0.16605 -9,7 -22,7 v 3 2 c 0,0.554 0.4460027,1 1,1 h 30 c 0.553997,0 1,-0.446 1,-1 v -2 -4 c -5.416244,-5.34308 -6.994681,-6.08109 -10,-6 z"
       sodipodi:nodetypes="cccssssccc" /><path
       id="rect4753"
       style="fill:#222222;fill-opacity:0.30000001;stroke:none;stroke-width:2;stroke-linecap:round;stroke-miterlimit:1.8;paint-order:fill markers stroke;stop-color:#000000"
       d="M 9 271.64999 C 8.4460027 271.64999 8 272.09599 8 272.64999 L 8 308.64999 C 8 309.20399 8.4460027 309.64999 9 309.64999 L 39 309.64999 C 39.553997 309.64999 40 309.20399 40 308.64999 L 40 272.64999 C 40 272.09599 39.553997 271.64999 39 271.64999 L 9 271.64999 z M 9 272.64999 L 39 272.64999 L 39 308.64999 L 9 308.64999 L 9 272.64999 z " /><path
       id="rect8706-0-0-2"
       style="vector-effect:none;fill:#dae9f8;fill-opacity:1;stroke:none;stroke-width:3.33334;stroke-linecap:round;stroke-linejoin:round;stroke-miterlimit:4;stroke-dasharray:none;stroke-dashoffset:0;stroke-opacity:1;paint-order:stroke markers fill"
       d="M 16.296875,275.94687 C 14.370499,276.64063 13,278.47873 13,280.64999 c 0,2.77 2.230006,5 5,5 2.171253,0 4.009358,-1.3705 4.703125,-3.29687 -0.07042,0.0254 -0.141028,0.05 -0.212891,0.0723 -0.07838,0.0243 -0.158281,0.0479 -0.238281,0.0684 -0.08,0.0205 -0.160669,0.0381 -0.242187,0.0547 -0.08152,0.0166 -0.16316,0.0323 -0.246094,0.0449 -0.08293,0.0126 -0.167707,0.0227 -0.251953,0.0312 -0.08425,0.009 -0.16845,0.0152 -0.253907,0.0195 -0.08546,0.004 -0.17125,0.006 -0.257812,0.006 -0.08656,0 -0.172356,-0.002 -0.257812,-0.006 -0.08546,-0.004 -0.16966,-0.011 -0.253907,-0.0195 -0.08425,-0.009 -0.169019,-0.0186 -0.251953,-0.0312 -0.08293,-0.0126 -0.164575,-0.0283 -0.246094,-0.0449 -0.08152,-0.0166 -0.162188,-0.0342 -0.242187,-0.0547 -0.08,-0.0205 -0.159904,-0.0441 -0.238281,-0.0684 -0.07838,-0.0243 -0.15577,-0.0502 -0.232422,-0.0781 -0.07665,-0.028 -0.151739,-0.0583 -0.226563,-0.0899 -0.07482,-0.0315 -0.149763,-0.0646 -0.222656,-0.0996 -0.07289,-0.035 -0.143986,-0.071 -0.214844,-0.10937 -0.07086,-0.0384 -0.140264,-0.0794 -0.208984,-0.1211 -0.06872,-0.0417 -0.136646,-0.0841 -0.203125,-0.1289 -0.06648,-0.0448 -0.13313,-0.0908 -0.197266,-0.13867 -0.06414,-0.0479 -0.125812,-0.0976 -0.1875,-0.14844 -0.06169,-0.0509 -0.122503,-0.10448 -0.18164,-0.1582 -0.05914,-0.0537 -0.117344,-0.10758 -0.173828,-0.16407 -0.05648,-0.0565 -0.110335,-0.11469 -0.164063,-0.17383 -0.05373,-0.0591 -0.107335,-0.11995 -0.158203,-0.18164 -0.05087,-0.0617 -0.100533,-0.12336 -0.148438,-0.1875 -0.0479,-0.0641 -0.09383,-0.13078 -0.138672,-0.19726 -0.04484,-0.0665 -0.08724,-0.13441 -0.128906,-0.20313 -0.04167,-0.0687 -0.0827,-0.13812 -0.121094,-0.20898 -0.0384,-0.0709 -0.07435,-0.14195 -0.109374,-0.21484 -0.03502,-0.0729 -0.06807,-0.14784 -0.09961,-0.22266 -0.03154,-0.0748 -0.06188,-0.14991 -0.08984,-0.22656 -0.02796,-0.0767 -0.05385,-0.15405 -0.07813,-0.23243 -0.02428,-0.0784 -0.04787,-0.15828 -0.06836,-0.23828 -0.02049,-0.08 -0.03809,-0.16067 -0.05469,-0.24218 -0.0166,-0.0815 -0.03232,-0.16316 -0.04492,-0.2461 -0.0126,-0.0829 -0.02275,-0.1677 -0.03125,-0.25195 -0.0085,-0.0843 -0.01523,-0.16845 -0.01953,-0.25391 -0.0043,-0.0855 -0.0059,-0.17125 -0.0059,-0.25781 0,-0.0866 0.0016,-0.17236 0.0059,-0.25781 0.0043,-0.0855 0.01103,-0.16966 0.01953,-0.25391 0.0085,-0.0842 0.01865,-0.16902 0.03125,-0.25195 0.0126,-0.0829 0.02832,-0.16458 0.04492,-0.2461 0.0166,-0.0815 0.0342,-0.16218 0.05469,-0.24218 0.02049,-0.08 0.04408,-0.15991 0.06836,-0.23828 0.02226,-0.0719 0.04691,-0.14248 0.07227,-0.21289 z" /></g></svg>
