<?xml version="1.0" encoding="UTF-8" standalone="no"?>
<!-- Created with Inkscape (http://www.inkscape.org/) -->

<svg
   xmlns:dc="http://purl.org/dc/elements/1.1/"
   xmlns:cc="http://creativecommons.org/ns#"
   xmlns:rdf="http://www.w3.org/1999/02/22-rdf-syntax-ns#"
   xmlns:svg="http://www.w3.org/2000/svg"
   xmlns="http://www.w3.org/2000/svg"
   xmlns:xlink="http://www.w3.org/1999/xlink"
   xmlns:sodipodi="http://sodipodi.sourceforge.net/DTD/sodipodi-0.dtd"
   xmlns:inkscape="http://www.inkscape.org/namespaces/inkscape"
   width="48"
   height="48"
   viewBox="0 0 48 48"
   version="1.1"
   id="svg8"
   inkscape:version="0.92.2 2405546, 2018-03-11"
   sodipodi:docname="video-x-matroska.svg">
  <title
     id="title7895">Antu icon Theme</title>
  <defs
     id="defs2">
    <linearGradient
       gradientTransform="translate(-44,-17.896076)"
       inkscape:collect="always"
       xlink:href="#linearGradient4622"
       id="linearGradient6986"
       x1="24"
       y1="307.64999"
       x2="24"
       y2="273.64999"
       gradientUnits="userSpaceOnUse" />
    <linearGradient
       inkscape:collect="always"
       id="linearGradient4622">
      <stop
         style="stop-color:#ff6a3e;stop-opacity:1"
         offset="0"
         id="stop4618" />
      <stop
         style="stop-color:#ff9065;stop-opacity:1"
         offset="1"
         id="stop4620" />
    </linearGradient>
    <linearGradient
       gradientTransform="translate(-79.999997,-69.896046)"
       y2="322.64999"
       x2="60"
       y1="362.64999"
       x1="60"
       gradientUnits="userSpaceOnUse"
       id="linearGradient6625-7"
       xlink:href="#linearGradient4580"
       inkscape:collect="always" />
    <linearGradient
       id="linearGradient4580"
       inkscape:collect="always">
      <stop
         id="stop4576"
         offset="0"
         style="stop-color:#06111c;stop-opacity:1" />
      <stop
         id="stop4578-6"
         offset="1"
         style="stop-color:#15272f;stop-opacity:1" />
    </linearGradient>
  </defs>
  <sodipodi:namedview
     id="base"
     pagecolor="#ffffff"
     bordercolor="#666666"
     borderopacity="1.0"
     inkscape:pageopacity="0.0"
     inkscape:pageshadow="2"
     inkscape:zoom="8.0000002"
     inkscape:cx="21.866537"
     inkscape:cy="18.987607"
     inkscape:document-units="px"
     inkscape:current-layer="layer1"
     showgrid="true"
     units="px"
     inkscape:window-width="1360"
     inkscape:window-height="711"
     inkscape:window-x="0"
     inkscape:window-y="28"
     inkscape:window-maximized="1"
     objecttolerance="10"
     gridtolerance="10"
     guidetolerance="10"
     inkscape:snap-bbox="true"
     inkscape:bbox-paths="true"
     inkscape:bbox-nodes="true"
     inkscape:snap-bbox-edge-midpoints="true"
     inkscape:snap-bbox-midpoints="true"
     inkscape:object-paths="true"
     inkscape:snap-intersection-paths="true">
    <inkscape:grid
       type="xygrid"
       id="grid7897"
       empspacing="4" />
  </sodipodi:namedview>
  <metadata
     id="metadata5">
    <rdf:RDF>
      <cc:Work
         rdf:about="">
        <dc:format>image/svg+xml</dc:format>
        <dc:type
           rdf:resource="http://purl.org/dc/dcmitype/StillImage" />
        <dc:title>Antu icon Theme</dc:title>
      </cc:Work>
    </rdf:RDF>
  </metadata>
  <g
     inkscape:label="Capa 1"
     inkscape:groupmode="layer"
     id="layer1"
     transform="translate(0,-266.64999)">
    <g
       id="g7735"
       transform="translate(44,17.89608)">
      <path
         inkscape:connector-curvature="0"
         id="rect6397-1"
         d="m -36,250.75391 h 32 c 1.662,0 3,1.33798 3,3 v 38 c 0,1.66197 -1.338,3 -3,3 h -32 c -1.661998,0 -3,-1.33803 -3,-3 v -38 c 0,-1.66202 1.338002,-3 3,-3 z"
         style="opacity:1;vector-effect:none;fill:#01060b;fill-opacity:0.99215686;stroke:none;stroke-width:6;stroke-linecap:square;stroke-linejoin:round;stroke-miterlimit:18;stroke-dasharray:none;stroke-dashoffset:0;stroke-opacity:1;paint-order:markers stroke fill" />
      <path
         sodipodi:nodetypes="sssssssss"
         inkscape:connector-curvature="0"
         id="rect6399-4"
         d="m -36,251.75391 h 32 c 1.108001,0 2,0.892 2,2.00001 v 38.00001 c 0,1.10797 -0.891999,1.99997 -2,1.99997 h -32 c -1.107998,0 -2,-0.892 -2,-1.99997 v -38.00001 c 0,-1.10801 0.892002,-2.00001 2,-2.00001 z"
         style="opacity:1;vector-effect:none;fill:url(#linearGradient6625-7);fill-opacity:1;stroke:none;stroke-width:6;stroke-linecap:square;stroke-linejoin:round;stroke-miterlimit:18;stroke-dasharray:none;stroke-dashoffset:0;stroke-opacity:1;paint-order:markers stroke fill" />
      <rect
         ry="2"
         y="254.75392"
         x="-31"
         height="36"
         width="22"
         id="rect6978"
         style="opacity:1;vector-effect:none;fill:url(#linearGradient6986);fill-opacity:1;stroke:none;stroke-width:2;stroke-linecap:round;stroke-linejoin:round;stroke-miterlimit:4;stroke-dasharray:none;stroke-dashoffset:0;stroke-opacity:0.96078431" />
      <path
         id="path6994-7"
         d="m -25,265.75391 a 1.0001,1.0001 0 0 0 -1.009766,1 v 14 a 1.0001,1.0001 0 0 0 1.574219,0.81836 l 10,-7 a 1.0001,1.0001 0 0 0 0,-1.63868 l -10,-7 A 1.0001,1.0001 0 0 0 -25,265.75391 Z"
         style="color:#000000;font-style:normal;font-variant:normal;font-weight:normal;font-stretch:normal;font-size:medium;line-height:normal;font-family:sans-serif;font-variant-ligatures:normal;font-variant-position:normal;font-variant-caps:normal;font-variant-numeric:normal;font-variant-alternates:normal;font-feature-settings:normal;text-indent:0;text-align:start;text-decoration:none;text-decoration-line:none;text-decoration-style:solid;text-decoration-color:#000000;letter-spacing:normal;word-spacing:normal;text-transform:none;writing-mode:lr-tb;direction:ltr;text-orientation:mixed;dominant-baseline:auto;baseline-shift:baseline;text-anchor:start;white-space:normal;shape-padding:0;clip-rule:nonzero;display:inline;overflow:visible;visibility:visible;opacity:1;isolation:auto;mix-blend-mode:normal;color-interpolation:sRGB;color-interpolation-filters:linearRGB;solid-color:#000000;solid-opacity:1;vector-effect:none;fill:#dd4d25;fill-opacity:1;fill-rule:nonzero;stroke:none;stroke-width:2;stroke-linecap:round;stroke-linejoin:round;stroke-miterlimit:4;stroke-dasharray:none;stroke-dashoffset:0;stroke-opacity:1;color-rendering:auto;image-rendering:auto;shape-rendering:auto;text-rendering:auto;enable-background:accumulate"
         inkscape:connector-curvature="0" />
      <path
         id="path6994"
         d="m -24.990234,264.75391 a 1.0001,1.0001 0 0 0 -1.009766,1 v 14 a 1.0001,1.0001 0 0 0 1.574219,0.81836 l 10,-7 a 1.0001,1.0001 0 0 0 0,-1.63867 l -10,-7 a 1.0001,1.0001 0 0 0 -0.564453,-0.17969 z"
         style="color:#000000;font-style:normal;font-variant:normal;font-weight:normal;font-stretch:normal;font-size:medium;line-height:normal;font-family:sans-serif;font-variant-ligatures:normal;font-variant-position:normal;font-variant-caps:normal;font-variant-numeric:normal;font-variant-alternates:normal;font-feature-settings:normal;text-indent:0;text-align:start;text-decoration:none;text-decoration-line:none;text-decoration-style:solid;text-decoration-color:#000000;letter-spacing:normal;word-spacing:normal;text-transform:none;writing-mode:lr-tb;direction:ltr;text-orientation:mixed;dominant-baseline:auto;baseline-shift:baseline;text-anchor:start;white-space:normal;shape-padding:0;clip-rule:nonzero;display:inline;overflow:visible;visibility:visible;opacity:1;isolation:auto;mix-blend-mode:normal;color-interpolation:sRGB;color-interpolation-filters:linearRGB;solid-color:#000000;solid-opacity:1;vector-effect:none;fill:#ffffff;fill-opacity:1;fill-rule:nonzero;stroke:none;stroke-width:2;stroke-linecap:round;stroke-linejoin:round;stroke-miterlimit:4;stroke-dasharray:none;stroke-dashoffset:0;stroke-opacity:1;color-rendering:auto;image-rendering:auto;shape-rendering:auto;text-rendering:auto;enable-background:accumulate"
         inkscape:connector-curvature="0" />
      <path
         id="rect7021-6"
         d="m -35,256.75391 c -0.553998,0 -1,0.446 -1,1 v 3 c 0,0.554 0.446002,1 1,1 h 1 c 0.553998,0 1,-0.446 1,-1 v -3 c 0,-0.554 -0.446002,-1 -1,-1 z m 29,0 c -0.553998,0 -1,0.446 -1,1 v 3 c 0,0.554 0.446002,1 1,1 h 1 c 0.553998,0 1,-0.446 1,-1 v -3 c 0,-0.554 -0.446002,-1 -1,-1 z m -29,7 c -0.553998,0 -1,0.446 -1,1 v 3 c 0,0.554 0.446002,1 1,1 h 1 c 0.553998,0 1,-0.446 1,-1 v -3 c 0,-0.554 -0.446002,-1 -1,-1 z m 29,0 c -0.553998,0 -1,0.446 -1,1 v 3 c 0,0.554 0.446002,1 1,1 h 1 c 0.553998,0 1,-0.446 1,-1 v -3 c 0,-0.554 -0.446002,-1 -1,-1 z m -29,7 c -0.553998,0 -1,0.446 -1,1 v 3 c 0,0.554 0.446002,1 1,1 h 1 c 0.553998,0 1,-0.446 1,-1 v -3 c 0,-0.554 -0.446002,-1 -1,-1 z m 29,0 c -0.553998,0 -1,0.446 -1,1 v 3 c 0,0.554 0.446002,1 1,1 h 1 c 0.553998,0 1,-0.446 1,-1 v -3 c 0,-0.554 -0.446002,-1 -1,-1 z m -29,7 c -0.553998,0 -1,0.446 -1,1 v 3 c 0,0.554 0.446002,1 1,1 h 1 c 0.553998,0 1,-0.446 1,-1 v -3 c 0,-0.554 -0.446002,-1 -1,-1 z m 29,0 c -0.553998,0 -1,0.446 -1,1 v 3 c 0,0.554 0.446002,1 1,1 h 1 c 0.553998,0 1,-0.446 1,-1 v -3 c 0,-0.554 -0.446002,-1 -1,-1 z m -29,7 c -0.553998,0 -1,0.446 -1,1 v 3 c 0,0.554 0.446002,1 1,1 h 1 c 0.553998,0 1,-0.446 1,-1 v -3 c 0,-0.554 -0.446002,-1 -1,-1 z m 29,0 c -0.553998,0 -1,0.446 -1,1 v 3 c 0,0.554 0.446002,1 1,1 h 1 c 0.553998,0 1,-0.446 1,-1 v -3 c 0,-0.554 -0.446002,-1 -1,-1 z"
         style="opacity:1;vector-effect:none;fill:#02070c;fill-opacity:1;stroke:none;stroke-width:2;stroke-linecap:round;stroke-linejoin:round;stroke-miterlimit:4;stroke-dasharray:none;stroke-dashoffset:0;stroke-opacity:0.96078431"
         inkscape:connector-curvature="0" />
      <path
         id="rect7021"
         d="m -35,255.75391 c -0.553998,0 -1,0.446 -1,1 v 3 c 0,0.554 0.446002,1 1,1 h 1 c 0.553998,0 1,-0.446 1,-1 v -3 c 0,-0.554 -0.446002,-1 -1,-1 z m 29,0 c -0.553998,0 -1,0.446 -1,1 v 3 c 0,0.554 0.446002,1 1,1 h 1 c 0.553998,0 1,-0.446 1,-1 v -3 c 0,-0.554 -0.446002,-1 -1,-1 z m -29,7 c -0.553998,0 -1,0.446 -1,1 v 3 c 0,0.554 0.446002,1 1,1 h 1 c 0.553998,0 1,-0.446 1,-1 v -3 c 0,-0.554 -0.446002,-1 -1,-1 z m 29,0 c -0.553998,0 -1,0.446 -1,1 v 3 c 0,0.554 0.446002,1 1,1 h 1 c 0.553998,0 1,-0.446 1,-1 v -3 c 0,-0.554 -0.446002,-1 -1,-1 z m -29,7 c -0.553998,0 -1,0.446 -1,1 v 3 c 0,0.554 0.446002,1 1,1 h 1 c 0.553998,0 1,-0.446 1,-1 v -3 c 0,-0.554 -0.446002,-1 -1,-1 z m 29,0 c -0.553998,0 -1,0.446 -1,1 v 3 c 0,0.554 0.446002,1 1,1 h 1 c 0.553998,0 1,-0.446 1,-1 v -3 c 0,-0.554 -0.446002,-1 -1,-1 z m -29,7 c -0.553998,0 -1,0.446 -1,1 v 3 c 0,0.554 0.446002,1 1,1 h 1 c 0.553998,0 1,-0.446 1,-1 v -3 c 0,-0.554 -0.446002,-1 -1,-1 z m 29,0 c -0.553998,0 -1,0.446 -1,1 v 3 c 0,0.554 0.446002,1 1,1 h 1 c 0.553998,0 1,-0.446 1,-1 v -3 c 0,-0.554 -0.446002,-1 -1,-1 z m -29,7 c -0.553998,0 -1,0.446 -1,1 v 3 c 0,0.554 0.446002,1 1,1 h 1 c 0.553998,0 1,-0.446 1,-1 v -3 c 0,-0.554 -0.446002,-1 -1,-1 z m 29,0 c -0.553998,0 -1,0.446 -1,1 v 3 c 0,0.554 0.446002,1 1,1 h 1 c 0.553998,0 1,-0.446 1,-1 v -3 c 0,-0.554 -0.446002,-1 -1,-1 z"
         style="opacity:1;vector-effect:none;fill:#f1f2f3;fill-opacity:1;stroke:none;stroke-width:2;stroke-linecap:round;stroke-linejoin:round;stroke-miterlimit:4;stroke-dasharray:none;stroke-dashoffset:0;stroke-opacity:0.96078431"
         inkscape:connector-curvature="0" />
    </g>
  </g>
</svg>
