<?xml version="1.0" encoding="UTF-8" standalone="no"?>
<!-- Created with Inkscape (http://www.inkscape.org/) -->

<svg
   xmlns:dc="http://purl.org/dc/elements/1.1/"
   xmlns:cc="http://creativecommons.org/ns#"
   xmlns:rdf="http://www.w3.org/1999/02/22-rdf-syntax-ns#"
   xmlns:svg="http://www.w3.org/2000/svg"
   xmlns="http://www.w3.org/2000/svg"
   xmlns:xlink="http://www.w3.org/1999/xlink"
   xmlns:sodipodi="http://sodipodi.sourceforge.net/DTD/sodipodi-0.dtd"
   xmlns:inkscape="http://www.inkscape.org/namespaces/inkscape"
   width="32"
   height="32"
   viewBox="0 0 32 32"
   version="1.1"
   id="svg8"
   inkscape:version="0.92.2 2405546, 2018-03-11"
   sodipodi:docname="application-menu.svg">
  <title
     id="title7895">Antu icon Theme</title>
  <defs
     id="defs2">
    <linearGradient
       inkscape:collect="always"
       xlink:href="#linearGradient1289"
       id="linearGradient1208"
       gradientUnits="userSpaceOnUse"
       gradientTransform="matrix(1.25,0,0,-1.25,-17,313.64999)"
       x1="16"
       y1="19"
       x2="16"
       y2="13" />
    <linearGradient
       id="linearGradient1289"
       inkscape:collect="always">
      <stop
         id="stop1285"
         offset="0"
         style="stop-color:#94a1a1;stop-opacity:1" />
      <stop
         id="stop1287"
         offset="1"
         style="stop-color:#fcfcfc;stop-opacity:1" />
    </linearGradient>
    <linearGradient
       gradientTransform="translate(-13,-5)"
       inkscape:collect="always"
       xlink:href="#linearGradient4582"
       id="linearGradient1213"
       gradientUnits="userSpaceOnUse"
       x1="16"
       y1="305.64999"
       x2="16"
       y2="291.64999" />
    <linearGradient
       inkscape:collect="always"
       id="linearGradient4582">
      <stop
         style="stop-color:#e3e3e3;stop-opacity:1"
         offset="0"
         id="stop4578" />
      <stop
         style="stop-color:#fcfcfc;stop-opacity:1"
         offset="1"
         id="stop4580" />
    </linearGradient>
    <linearGradient
       gradientTransform="translate(-13,-5)"
       inkscape:collect="always"
       xlink:href="#linearGradient2166"
       id="linearGradient1581"
       x1="16"
       y1="310.64999"
       x2="16"
       y2="286.64999"
       gradientUnits="userSpaceOnUse" />
    <linearGradient
       inkscape:collect="always"
       id="linearGradient2166">
      <stop
         style="stop-color:#2c3240;stop-opacity:1"
         offset="0"
         id="stop2162" />
      <stop
         style="stop-color:#13151a;stop-opacity:1"
         offset="1"
         id="stop2164" />
    </linearGradient>
    <linearGradient
       gradientTransform="translate(-13,-5)"
       inkscape:collect="always"
       xlink:href="#linearGradient2172"
       id="linearGradient1283"
       x1="16"
       y1="309.64999"
       x2="16"
       y2="287.64999"
       gradientUnits="userSpaceOnUse" />
    <linearGradient
       inkscape:collect="always"
       id="linearGradient2172">
      <stop
         style="stop-color:#11151a;stop-opacity:1"
         offset="0"
         id="stop2168" />
      <stop
         style="stop-color:#353d4d;stop-opacity:1"
         offset="1"
         id="stop2170" />
    </linearGradient>
    <linearGradient
       y2="288.22623"
       x2="8.4477673"
       y1="295.60147"
       x1="8.4477682"
       gradientTransform="matrix(3.7795275,0,0,3.7795275,-28.928569,-809.58391)"
       gradientUnits="userSpaceOnUse"
       id="linearGradient2237-3"
       xlink:href="#linearGradient4582"
       inkscape:collect="always" />
  </defs>
  <sodipodi:namedview
     id="base"
     pagecolor="#ffffff"
     bordercolor="#666666"
     borderopacity="1.0"
     inkscape:pageopacity="0.0"
     inkscape:pageshadow="2"
     inkscape:zoom="11.2"
     inkscape:cx="21.295499"
     inkscape:cy="13.9675"
     inkscape:document-units="px"
     inkscape:current-layer="layer1"
     showgrid="true"
     units="px"
     inkscape:window-width="1360"
     inkscape:window-height="711"
     inkscape:window-x="0"
     inkscape:window-y="28"
     inkscape:window-maximized="1"
     objecttolerance="10"
     gridtolerance="10"
     guidetolerance="10"
     inkscape:snap-bbox="true"
     inkscape:bbox-paths="true"
     inkscape:bbox-nodes="true"
     inkscape:snap-bbox-edge-midpoints="true"
     inkscape:snap-bbox-midpoints="true"
     inkscape:object-paths="true"
     inkscape:snap-intersection-paths="true">
    <inkscape:grid
       type="xygrid"
       id="grid7897"
       empspacing="4" />
  </sodipodi:namedview>
  <metadata
     id="metadata5">
    <rdf:RDF>
      <cc:Work
         rdf:about="">
        <dc:format>image/svg+xml</dc:format>
        <dc:type
           rdf:resource="http://purl.org/dc/dcmitype/StillImage" />
        <dc:title>Antu icon Theme</dc:title>
      </cc:Work>
    </rdf:RDF>
  </metadata>
  <g
     inkscape:label="Capa 1"
     inkscape:groupmode="layer"
     id="layer1"
     transform="translate(0,-282.64999)">
    <g
       id="g1660"
       transform="translate(13,5)">
      <path
         id="rect843-6"
         d="M -10,278.64999 H 15.999999 C 17.108,278.64999 18,279.542 18,280.65 v 25.99998 c 0,1.108 -0.892,2.00001 -2.000001,2.00001 H -10 c -1.108,0 -2,-0.89201 -2,-2.00001 V 280.65 c 0,-1.108 0.892,-2.00001 2,-2.00001 z"
         style="opacity:1;fill:#7f9099;fill-opacity:1;stroke:none;stroke-width:2.39314151;stroke-linecap:round;stroke-linejoin:round;stroke-miterlimit:4;stroke-dasharray:none;stroke-opacity:1"
         inkscape:connector-curvature="0" />
      <path
         inkscape:connector-curvature="0"
         style="opacity:1;fill:url(#linearGradient2237-3);fill-opacity:1;stroke:none;stroke-width:2.23359871;stroke-linecap:round;stroke-linejoin:round;stroke-miterlimit:4;stroke-dasharray:none;stroke-opacity:1"
         d="m -10,279.64999 c -0.554,0 -1,0.446 -1,1 v 26 c 0,0.55397 0.446,1 1,1 h 26 c 0.554001,0 1,-0.44603 1,-1 v -26 c 0,-0.554 -0.445999,-1 -1,-1 z m 1.5,1 c 0.831,0 1.5,0.669 1.5,1.5 0,0.831 -0.669,1.5 -1.5,1.5 -0.831,0 -1.5,-0.669 -1.5,-1.5 0,-0.831 0.669,-1.5 1.5,-1.5 z m 23,0 c 0.831,0 1.5,0.669 1.5,1.5 0,0.831 -0.669,1.5 -1.5,1.5 -0.831,0 -1.5,-0.669 -1.5,-1.5 0,-0.831 0.669,-1.5 1.5,-1.5 z m -23,23 c 0.831,0 1.5,0.669 1.5,1.5 0,0.831 -0.669,1.5 -1.5,1.5 -0.831,0 -1.5,-0.669 -1.5,-1.5 0,-0.831 0.669,-1.5 1.5,-1.5 z m 23,0 c 0.831,0 1.5,0.669 1.5,1.5 0,0.831 -0.669,1.5 -1.5,1.5 -0.831,0 -1.5,-0.669 -1.5,-1.5 0,-0.831 0.669,-1.5 1.5,-1.5 z"
         id="rect843-3-6" />
      <path
         id="rect835"
         d="m 2.999986,306.64997 h 2.8e-5 C 10.202006,306.64997 16,300.85197 16,293.64998 16,286.44799 10.202006,280.64999 3.000014,280.64999 h -2.8e-5 c -7.2019924,0 -12.999986,5.798 -12.999986,12.99999 0,7.20199 5.7979936,12.99999 12.999986,12.99999 z"
         style="opacity:1;fill:url(#linearGradient1581);fill-opacity:1;stroke:none;stroke-width:2.16666675;stroke-linecap:round;stroke-linejoin:round;stroke-miterlimit:4;stroke-dasharray:none;stroke-dashoffset:0;stroke-opacity:1"
         inkscape:connector-curvature="0" />
      <path
         id="rect837"
         d="m 2.999986,281.64999 h 2.8e-5 c 6.647992,0 11.999986,5.352 11.999986,11.99999 0,6.64799 -5.351994,11.99999 -11.999986,11.99999 h -2.8e-5 C -3.6480064,305.64997 -9,300.29797 -9,293.64998 c 0,-6.64799 5.3519936,-11.99999 11.999986,-11.99999 z"
         style="opacity:1;fill:url(#linearGradient1283);fill-opacity:1;stroke:none;stroke-width:2.18181825;stroke-linecap:round;stroke-linejoin:round;stroke-miterlimit:4;stroke-dasharray:none;stroke-dashoffset:0;stroke-opacity:1"
         inkscape:connector-curvature="0" />
      <path
         style="opacity:1;fill:url(#linearGradient1208);fill-opacity:1;stroke:none;stroke-width:2.5;stroke-linecap:round;stroke-linejoin:round;stroke-miterlimit:4;stroke-dasharray:none;stroke-dashoffset:0;stroke-opacity:1"
         d="m 3,298.64999 c -2.769999,0 -5,-2.23 -5,-5 0,-2.77 2.230001,-5 5,-5 2.769999,0 5,2.23 5,5 0,2.77 -2.230001,5 -5,5 z m 0,-2 c 1.662,0 3,-1.338 3,-3 0,-1.662 -1.338,-3 -3,-3 -1.662,0 -3,1.338 -3,3 0,1.662 1.338,3 3,3 z"
         id="path1204"
         inkscape:connector-curvature="0" />
      <path
         style="color:#122036;fill:url(#linearGradient1213);fill-opacity:1;fill-rule:evenodd;stroke:none"
         d="m -1,285.64999 c -0.359147,-2.9e-4 -0.690953,0.19205 -0.869141,0.50391 l -3.9999996,7 c -0.175604,0.30741 -0.175604,0.68477 0,0.99218 l 3.9999996,7 c 0.178188,0.31186 0.509994,0.5042 0.869141,0.50391 h 8 c 0.359147,2.9e-4 0.690952,-0.19205 0.869141,-0.50391 l 4,-7 c 0.175604,-0.30741 0.175604,-0.68477 0,-0.99218 l -4,-7 C 7.690952,285.84204 7.359148,285.6497 7,285.64999 Z m 4,4 c 2.216,0 4,1.784 4,4 0,2.216 -1.784,4 -4,4 -2.216,0 -4,-1.784 -4,-4 0,-2.216 1.784,-4 4,-4 z"
         id="path825"
         inkscape:connector-curvature="0" />
    </g>
  </g>
</svg>
