<?xml version="1.0" encoding="UTF-8" standalone="no"?>
<!-- Created with Inkscape (http://www.inkscape.org/) -->

<svg
   xmlns:dc="http://purl.org/dc/elements/1.1/"
   xmlns:cc="http://creativecommons.org/ns#"
   xmlns:rdf="http://www.w3.org/1999/02/22-rdf-syntax-ns#"
   xmlns:svg="http://www.w3.org/2000/svg"
   xmlns="http://www.w3.org/2000/svg"
   xmlns:xlink="http://www.w3.org/1999/xlink"
   xmlns:sodipodi="http://sodipodi.sourceforge.net/DTD/sodipodi-0.dtd"
   xmlns:inkscape="http://www.inkscape.org/namespaces/inkscape"
   width="32"
   height="32"
   viewBox="0 0 32 32"
   version="1.1"
   id="svg8"
   inkscape:version="0.92.2 2405546, 2018-03-11"
   sodipodi:docname="document-open-recent.svg">
  <title
     id="title7895">Antu icon Theme</title>
  <defs
     id="defs2">
    <linearGradient
       inkscape:collect="always"
       xlink:href="#linearGradient4846"
       id="linearGradient1375"
       gradientUnits="userSpaceOnUse"
       gradientTransform="translate(-166.14286,35)"
       x1="143"
       y1="282.64999"
       x2="143"
       y2="267.64999" />
    <linearGradient
       inkscape:collect="always"
       id="linearGradient4846">
      <stop
         style="stop-color:#e4efef;stop-opacity:1"
         offset="0"
         id="stop4842" />
      <stop
         style="stop-color:#fcfcfc;stop-opacity:1"
         offset="1"
         id="stop4844" />
    </linearGradient>
    <linearGradient
       gradientTransform="translate(-167.14286,34)"
       inkscape:collect="always"
       xlink:href="#linearGradient4506"
       id="linearGradient1321"
       x1="143"
       y1="282.64999"
       x2="143"
       y2="267.64999"
       gradientUnits="userSpaceOnUse" />
    <linearGradient
       id="linearGradient4506"
       inkscape:collect="always">
      <stop
         id="stop4502"
         offset="0"
         style="stop-color:#252a34;stop-opacity:1" />
      <stop
         id="stop4504"
         offset="1"
         style="stop-color:#353d4b;stop-opacity:1" />
    </linearGradient>
    <linearGradient
       gradientTransform="matrix(3.7795275,0,0,3.7795275,-48.142857,-803.86971)"
       inkscape:collect="always"
       xlink:href="#linearGradient1143"
       id="linearGradient837-2"
       x1="4.2333336"
       y1="296.20624"
       x2="4.2333336"
       y2="289.59164"
       gradientUnits="userSpaceOnUse" />
    <linearGradient
       id="linearGradient1143"
       inkscape:collect="always">
      <stop
         id="stop1139"
         offset="0"
         style="stop-color:#f1efea;stop-opacity:1" />
      <stop
         id="stop1141"
         offset="1"
         style="stop-color:#fcfcfc;stop-opacity:1" />
    </linearGradient>
  </defs>
  <sodipodi:namedview
     id="base"
     pagecolor="#ffffff"
     bordercolor="#666666"
     borderopacity="1.0"
     inkscape:pageopacity="0.0"
     inkscape:pageshadow="2"
     inkscape:zoom="15.839192"
     inkscape:cx="17.089688"
     inkscape:cy="12.126379"
     inkscape:document-units="px"
     inkscape:current-layer="layer1"
     showgrid="true"
     units="px"
     inkscape:window-width="1360"
     inkscape:window-height="711"
     inkscape:window-x="0"
     inkscape:window-y="28"
     inkscape:window-maximized="1"
     objecttolerance="10"
     gridtolerance="10"
     guidetolerance="10"
     inkscape:snap-bbox="true"
     inkscape:bbox-paths="true"
     inkscape:bbox-nodes="true"
     inkscape:snap-bbox-edge-midpoints="true"
     inkscape:snap-bbox-midpoints="true"
     inkscape:object-paths="true"
     inkscape:snap-intersection-paths="true">
    <inkscape:grid
       type="xygrid"
       id="grid7897"
       empspacing="4" />
  </sodipodi:namedview>
  <metadata
     id="metadata5">
    <rdf:RDF>
      <cc:Work
         rdf:about="">
        <dc:format>image/svg+xml</dc:format>
        <dc:type
           rdf:resource="http://purl.org/dc/dcmitype/StillImage" />
        <dc:title>Antu icon Theme</dc:title>
      </cc:Work>
    </rdf:RDF>
  </metadata>
  <g
     inkscape:label="Capa 1"
     inkscape:groupmode="layer"
     id="layer1"
     transform="translate(0,-282.64999)">
    <g
       id="g1567"
       transform="translate(46.142857,-4)">
      <path
         id="rect827-0"
         d="m -43.142857,287.64999 h 22 c 1.108,0 2,0.892 2,2 v 26 c 0,1.108 -0.892,2 -2,2 h -22 c -1.108,0 -2,-0.892 -2,-2 v -26 c 0,-1.108 0.892,-2 2,-2 z"
         style="opacity:1;fill:#90a4ae;fill-opacity:1;stroke:none;stroke-width:1.99999988;stroke-linecap:round;stroke-linejoin:round;stroke-miterlimit:4;stroke-dasharray:none;stroke-opacity:1"
         inkscape:connector-curvature="0" />
      <path
         id="rect829-6"
         d="m -43.142857,288.64999 h 22 c 0.553999,0 1,0.446 1,1 v 26 c 0,0.554 -0.446001,1 -1,1 h -22 c -0.553999,0 -1,-0.446 -1,-1 v -26 c 0,-0.554 0.446001,-1 1,-1 z"
         style="opacity:1;fill:url(#linearGradient837-2);fill-opacity:1;stroke:none;stroke-width:1.99999988;stroke-linecap:round;stroke-linejoin:round;stroke-miterlimit:4;stroke-dasharray:none;stroke-opacity:1"
         inkscape:connector-curvature="0" />
      <path
         id="rect1562-9-8-8-6-2"
         d="m -40.142857,293.64999 v 2 h 6 v -2 z m 8,0 v 2 h 8 v -2 z m -8,4 v 2 h 16 v -2 z m 0,4 v 2 h 2 v -2 z m 4,0 v 2 h 6 6 v -2 h -6 z m -4,4 v 2 h 16 v -2 z m 0,4 v 2 h 9 v -2 z m 11,0 v 2 h 5 v -2 z"
         style="opacity:0.98000004;fill:#90a4ae;fill-opacity:1;stroke:none;stroke-width:2;stroke-linecap:square;stroke-linejoin:miter;stroke-miterlimit:4;stroke-dasharray:none;stroke-opacity:1;paint-order:stroke markers fill"
         inkscape:connector-curvature="0" />
      <path
         inkscape:connector-curvature="0"
         style="opacity:1;fill:#1f1f26;fill-opacity:1;stroke:none;stroke-width:0.80800003;stroke-linecap:round;stroke-linejoin:round;stroke-miterlimit:4;stroke-dasharray:none;stroke-opacity:1;paint-order:stroke markers fill"
         d="m -23.642857,299.64999 c 5.263,0 9.5,4.237 9.5,9.5 0,5.263 -4.237,9.5 -9.5,9.5 -5.263,0 -9.5,-4.237 -9.5,-9.5 0,-5.263 4.237,-9.5 9.5,-9.5 z"
         id="rect1311" />
      <path
         inkscape:connector-curvature="0"
         style="opacity:1;fill:url(#linearGradient1321);fill-opacity:1;stroke:none;stroke-width:0.80800003;stroke-linecap:round;stroke-linejoin:round;stroke-miterlimit:4;stroke-dasharray:none;stroke-opacity:1;paint-order:stroke markers fill"
         d="m -23.642857,300.64999 c 4.709,0 8.5,3.791 8.5,8.5 0,4.709 -3.791,8.5 -8.5,8.5 -4.709,0 -8.5,-3.791 -8.5,-8.5 0,-4.709 3.791,-8.5 8.5,-8.5 z"
         id="rect1313" />
      <path
         inkscape:connector-curvature="0"
         style="opacity:1;fill:url(#linearGradient1375);fill-opacity:1;stroke:none;stroke-width:0.80800003;stroke-linecap:round;stroke-linejoin:round;stroke-miterlimit:4;stroke-dasharray:none;stroke-opacity:1;paint-order:stroke markers fill"
         d="m -23.642857,301.64999 v 0 c 4.155,0 7.5,3.345 7.5,7.5 0,4.155 -3.345,7.5 -7.5,7.5 v 0 c -4.155,0 -7.5,-3.345 -7.5,-7.5 0,-4.155 3.345,-7.5 7.5,-7.5 z"
         id="rect1313-2" />
      <path
         style="opacity:1;fill:#f4203e;fill-opacity:1;stroke:none;stroke-width:0.80800003;stroke-linecap:round;stroke-linejoin:round;stroke-miterlimit:4;stroke-dasharray:none;stroke-opacity:1;paint-order:stroke markers fill"
         d="m -23.642857,309.55817 c 0.277,0 0.5,0.22299 0.5,0.49999 v 4.00003 c 0,0.27704 -0.22299,0.49999 -0.5,0.49999 -0.277,0 -0.5,-0.22299 -0.5,-0.49999 v -4.00003 c 0,-0.27704 0.22299,-0.49999 0.5,-0.49999 z"
         id="rect4633-2"
         inkscape:connector-curvature="0" />
      <path
         id="rect4598-8"
         d="m -23.642857,303.55819 c -0.277,0 -0.5,0.223 -0.5,0.5 v 3.5918 c -0.58192,0.206 -1,0.75396 -1,1.4082 0,0.831 0.669,1.5 1.5,1.5 0.6547,0 1.20254,-0.41743 1.4082,-1 h 2.68555 c 0.22507,0 0.40625,-0.18118 0.40625,-0.40625 v -0.1875 c 0,-0.22507 -0.18118,-0.40625 -0.40625,-0.40625 h -2.68555 c -0.15035,-0.4247 -0.4835,-0.75786 -0.9082,-0.9082 v -3.5918 c 0,-0.277 -0.223,-0.5 -0.5,-0.5 z m 0,5 c 0.277,0 0.5,0.223 0.5,0.5 0,0.277 -0.223,0.5 -0.5,0.5 -0.277,0 -0.5,-0.223 -0.5,-0.5 0,-0.277 0.223,-0.5 0.5,-0.5 z"
         style="opacity:1;fill:#292e39;fill-opacity:1;stroke:none;stroke-width:0.80800003;stroke-linecap:round;stroke-linejoin:round;stroke-miterlimit:4;stroke-dasharray:none;stroke-opacity:1;paint-order:stroke markers fill"
         inkscape:connector-curvature="0" />
    </g>
  </g>
</svg>
