<?xml version="1.0" encoding="UTF-8" standalone="no"?>
<!-- Created with Inkscape (http://www.inkscape.org/) -->

<svg
   xmlns:dc="http://purl.org/dc/elements/1.1/"
   xmlns:cc="http://creativecommons.org/ns#"
   xmlns:rdf="http://www.w3.org/1999/02/22-rdf-syntax-ns#"
   xmlns:svg="http://www.w3.org/2000/svg"
   xmlns="http://www.w3.org/2000/svg"
   xmlns:xlink="http://www.w3.org/1999/xlink"
   xmlns:sodipodi="http://sodipodi.sourceforge.net/DTD/sodipodi-0.dtd"
   xmlns:inkscape="http://www.inkscape.org/namespaces/inkscape"
   width="32"
   height="32"
   viewBox="0 0 32 32"
   version="1.1"
   id="svg8"
   inkscape:version="0.92.2 2405546, 2018-03-11"
   sodipodi:docname="go-home.svg">
  <title
     id="title7895">Antu icon Theme</title>
  <defs
     id="defs2">
    <linearGradient
       gradientTransform="translate(-14,7)"
       inkscape:collect="always"
       xlink:href="#linearGradient1004"
       id="linearGradient1412"
       x1="21"
       y1="307.64999"
       x2="21"
       y2="302.64999"
       gradientUnits="userSpaceOnUse" />
    <linearGradient
       id="linearGradient1004"
       inkscape:collect="always">
      <stop
         id="stop1000"
         offset="0"
         style="stop-color:#1899ff;stop-opacity:1" />
      <stop
         id="stop1002"
         offset="1"
         style="stop-color:#02b3fe;stop-opacity:1" />
    </linearGradient>
    <linearGradient
       inkscape:collect="always"
       xlink:href="#linearGradient4323"
       id="linearGradient973-5"
       x1="-71"
       y1="317.64999"
       x2="-71"
       y2="310.64999"
       gradientUnits="userSpaceOnUse"
       gradientTransform="translate(69.000001)" />
    <linearGradient
       inkscape:collect="always"
       id="linearGradient4323">
      <stop
         style="stop-color:#c19e72;stop-opacity:1;"
         offset="0"
         id="stop4325" />
      <stop
         style="stop-color:#d6af7f;stop-opacity:1"
         offset="1"
         id="stop4327" />
    </linearGradient>
    <linearGradient
       inkscape:collect="always"
       xlink:href="#linearGradient979"
       id="linearGradient981-8"
       x1="-74"
       y1="320.64999"
       x2="-74"
       y2="319.64999"
       gradientUnits="userSpaceOnUse"
       gradientTransform="translate(70)" />
    <linearGradient
       inkscape:collect="always"
       id="linearGradient979">
      <stop
         style="stop-color:#b3b1ab;stop-opacity:1;"
         offset="0"
         id="stop975" />
      <stop
         style="stop-color:#d9d6cf;stop-opacity:1"
         offset="1"
         id="stop977" />
    </linearGradient>
    <linearGradient
       gradientTransform="translate(-14,7)"
       inkscape:collect="always"
       xlink:href="#linearGradient4582-5"
       id="linearGradient1505"
       x1="16"
       y1="299.64999"
       x2="16"
       y2="286.64999"
       gradientUnits="userSpaceOnUse" />
    <linearGradient
       id="linearGradient4582-5"
       inkscape:collect="always">
      <stop
         id="stop4578-3"
         offset="0"
         style="stop-color:#5b637b;stop-opacity:1" />
      <stop
         id="stop4580-5"
         offset="1"
         style="stop-color:#727b97;stop-opacity:1" />
    </linearGradient>
    <linearGradient
       inkscape:collect="always"
       xlink:href="#linearGradient4582-5"
       id="linearGradient1495"
       x1="26"
       y1="294.64999"
       x2="26"
       y2="288.64999"
       gradientUnits="userSpaceOnUse"
       gradientTransform="translate(-15,7)" />
  </defs>
  <sodipodi:namedview
     id="base"
     pagecolor="#ffffff"
     bordercolor="#666666"
     borderopacity="1.0"
     inkscape:pageopacity="0.0"
     inkscape:pageshadow="2"
     inkscape:zoom="11.2"
     inkscape:cx="13.391636"
     inkscape:cy="14.855442"
     inkscape:document-units="px"
     inkscape:current-layer="layer1"
     showgrid="true"
     units="px"
     inkscape:window-width="1360"
     inkscape:window-height="711"
     inkscape:window-x="0"
     inkscape:window-y="28"
     inkscape:window-maximized="1"
     objecttolerance="10"
     gridtolerance="10"
     guidetolerance="10"
     inkscape:snap-bbox="true"
     inkscape:bbox-paths="true"
     inkscape:bbox-nodes="true"
     inkscape:snap-bbox-edge-midpoints="true"
     inkscape:snap-bbox-midpoints="true"
     inkscape:object-paths="true"
     inkscape:snap-intersection-paths="true">
    <inkscape:grid
       type="xygrid"
       id="grid7897"
       empspacing="4" />
  </sodipodi:namedview>
  <metadata
     id="metadata5">
    <rdf:RDF>
      <cc:Work
         rdf:about="">
        <dc:format>image/svg+xml</dc:format>
        <dc:type
           rdf:resource="http://purl.org/dc/dcmitype/StillImage" />
        <dc:title>Antu icon Theme</dc:title>
      </cc:Work>
    </rdf:RDF>
  </metadata>
  <g
     inkscape:label="Capa 1"
     inkscape:groupmode="layer"
     id="layer1"
     transform="translate(0,-282.64999)">
    <g
       id="g1464"
       transform="translate(14,-8.00002)">
      <path
         style="opacity:1;fill:#363c4d;fill-opacity:1;stroke:none;stroke-width:2;stroke-linecap:round;stroke-linejoin:round;stroke-miterlimit:4;stroke-dasharray:none;stroke-dashoffset:0;stroke-opacity:1"
         d="m 8.9999956,293.64999 h 3.0000084 c 0.553998,0 0.999996,0.446 0.999996,1 V 302.65 c 0,0.554 -0.445998,0.99999 -0.999996,0.99999 H 8.9999956 c -0.553998,0 -0.999996,-0.44599 -0.999996,-0.99999 v -8.00001 c 0,-0.554 0.445998,-1 0.999996,-1 z"
         id="rect1437"
         inkscape:connector-curvature="0"
         sodipodi:nodetypes="sssssssss" />
      <path
         style="opacity:1;fill:url(#linearGradient1495);fill-opacity:1;stroke:none;stroke-width:2;stroke-linecap:round;stroke-linejoin:round;stroke-miterlimit:4;stroke-dasharray:none;stroke-dashoffset:0;stroke-opacity:1"
         d="M 8.9999996,294.64999 H 12 v 8 H 8.9999996 Z"
         id="rect1439"
         inkscape:connector-curvature="0"
         sodipodi:nodetypes="ccccc" />
      <path
         style="opacity:1;fill:#c8c3b7;fill-opacity:1;stroke:none;stroke-width:2;stroke-linecap:round;stroke-linejoin:round;stroke-miterlimit:4;stroke-dasharray:none;stroke-dashoffset:0;stroke-opacity:1"
         d="m -8.0000039,302.64999 10.0000035,-11 10.0000044,11 c 0.74532,0.81985 1.999996,0.892 1.999996,2 v 15.00004 c 0,1.108 -0.891998,2 -1.999996,2 H -8.0000039 c -1.1079979,0 -1.9999961,-0.892 -1.9999961,-2 v -15.00004 c 0,-1.108 0.8919982,-2 1.9999961,-2 z"
         id="rect1076"
         inkscape:connector-curvature="0"
         sodipodi:nodetypes="scssssssss" />
      <path
         style="opacity:1;fill:#f2efe6;fill-opacity:1;stroke:none;stroke-width:2;stroke-linecap:round;stroke-linejoin:round;stroke-miterlimit:4;stroke-dasharray:none;stroke-dashoffset:0;stroke-opacity:1"
         d="m -8.0000039,303.64999 10.0000035,-11 10.0000044,11 c 0.372659,0.40993 0.999996,0.446 0.999996,1 v 15.00004 c 0,0.554 -0.445998,1 -0.999996,1 H -8.0000039 c -0.5539978,0 -0.9999961,-0.446 -0.9999961,-1 v -15.00004 c 0,-0.554 0.4459983,-1 0.9999961,-1 z"
         id="rect1078"
         inkscape:connector-curvature="0"
         sodipodi:nodetypes="scssssssss" />
      <path
         sodipodi:nodetypes="sssssssss"
         inkscape:connector-curvature="0"
         style="opacity:1;fill:#80684b;fill-opacity:1;stroke:none;stroke-width:0.80800003;stroke-linecap:round;stroke-linejoin:round;stroke-miterlimit:4;stroke-dasharray:none;stroke-opacity:1;paint-order:stroke markers fill"
         d="m -5,308.64999 h 5.99999962 c 0.55399998,0 0.99999998,0.446 0.99999998,1 v 9 c 0,0.554 -0.446,1 -0.99999998,1 H -5 c -0.554,0 -1,-0.446 -1,-1 v -9 c 0,-0.554 0.446,-1 1,-1 z"
         id="rect963-2" />
      <path
         style="opacity:1;fill:#8e8c87;fill-opacity:1;stroke:none;stroke-width:0.80800003;stroke-linecap:round;stroke-linejoin:round;stroke-miterlimit:4;stroke-dasharray:none;stroke-opacity:1;paint-order:stroke markers fill"
         d="m -6,318.64999 c -0.554,0 -1,0.446 -1,1 v 1 1 h 1 7.9999996 1 v -1 -1 c 0,-0.554 -0.445999,-1 -1,-1 z"
         id="rect938-2"
         inkscape:connector-curvature="0"
         sodipodi:nodetypes="ssccccccsss" />
      <path
         sodipodi:nodetypes="ccccc"
         inkscape:connector-curvature="0"
         style="opacity:1;fill:url(#linearGradient973-5);fill-opacity:1;stroke:none;stroke-width:0.80800003;stroke-linecap:round;stroke-linejoin:round;stroke-miterlimit:4;stroke-dasharray:none;stroke-opacity:1;paint-order:stroke markers fill"
         d="m -5,309.64999 h 6.0000006 v 9 H -5 Z"
         id="rect965-8" />
      <path
         inkscape:connector-curvature="0"
         style="opacity:1;fill:url(#linearGradient981-8);fill-opacity:1;stroke:none;stroke-width:0.80800003;stroke-linecap:round;stroke-linejoin:round;stroke-miterlimit:4;stroke-dasharray:none;stroke-opacity:1;paint-order:stroke markers fill"
         d="m -6,319.64999 h 7.9999996 v 1 H -6 Z"
         id="rect945-0"
         sodipodi:nodetypes="ccccc" />
      <path
         inkscape:connector-curvature="0"
         style="opacity:1;fill:#80684b;fill-opacity:1;stroke:none;stroke-width:0.80800003;stroke-linecap:round;stroke-linejoin:round;stroke-miterlimit:4;stroke-dasharray:none;stroke-opacity:1;paint-order:stroke markers fill"
         d="m -1.0000004,314.64999 c 0.55400002,0 1.00000002000897,0.446 1.00000002000897,1 0,0.554 -0.44600000000897,1 -1.00000002000897,1 -0.554,0 -1,-0.446 -1,-1 0,-0.554 0.446,-1 1,-1 z"
         id="rect985-5-9" />
      <path
         inkscape:connector-curvature="0"
         style="opacity:1;fill:#fffeff;fill-opacity:1;stroke:none;stroke-width:0.80800003;stroke-linecap:round;stroke-linejoin:round;stroke-miterlimit:4;stroke-dasharray:none;stroke-opacity:1;paint-order:stroke markers fill"
         d="m -1.0000004,313.64999 c 0.55400002,0 1.00000002000897,0.446 1.00000002000897,1 0,0.554 -0.44600000000897,1 -1.00000002000897,1 -0.554,0 -1,-0.446 -1,-1 0,-0.554 0.446,-1 1,-1 z"
         id="rect985-7" />
      <path
         style="opacity:1;fill:#1670d9;fill-opacity:0.98039216;stroke:none;stroke-width:2;stroke-linecap:round;stroke-linejoin:round;stroke-miterlimit:4;stroke-dasharray:none;stroke-dashoffset:0;stroke-opacity:1"
         d="m 3.9999956,308.64999 h 6.0000084 c 0.553998,0 0.999996,0.446 0.999996,1 V 314.65 c 0,0.554 -0.445998,0.99999 -0.999996,0.99999 H 3.9999956 c -0.553998,0 -0.999996,-0.44599 -0.999996,-0.99999 v -5.00001 c 0,-0.554 0.445998,-1 0.999996,-1 z"
         id="rect1372"
         inkscape:connector-curvature="0" />
      <path
         style="opacity:1;fill:url(#linearGradient1412);fill-opacity:1;stroke:none;stroke-width:2;stroke-linecap:round;stroke-linejoin:round;stroke-miterlimit:4;stroke-dasharray:none;stroke-dashoffset:0;stroke-opacity:1"
         d="m 3.9999996,309.64999 h 6 v 5 h -6 z"
         id="rect1389"
         inkscape:connector-curvature="0" />
      <path
         style="fill:none;stroke:#363c4d;stroke-width:2;stroke-linecap:round;stroke-linejoin:round;stroke-miterlimit:4;stroke-dasharray:none;stroke-opacity:1"
         d="m -13,306.64999 h 3 l 11.9999996,-11 12.0000004,11 h 3 l -15.0000004,-14 z"
         id="path1415"
         inkscape:connector-curvature="0"
         sodipodi:nodetypes="ccccccc" />
      <path
         style="fill:url(#linearGradient1505);fill-opacity:1;stroke:none;stroke-width:1px;stroke-linecap:butt;stroke-linejoin:miter;stroke-opacity:1"
         d="m -13,306.64999 h 3 l 11.9999996,-11 12.0000004,11 h 3 l -15.0000004,-14 z"
         id="path1435"
         inkscape:connector-curvature="0"
         sodipodi:nodetypes="ccccccc" />
    </g>
  </g>
</svg>
