<?xml version="1.0" encoding="UTF-8" standalone="no"?>
<!-- Created with Inkscape (http://www.inkscape.org/) -->

<svg
   xmlns:dc="http://purl.org/dc/elements/1.1/"
   xmlns:cc="http://creativecommons.org/ns#"
   xmlns:rdf="http://www.w3.org/1999/02/22-rdf-syntax-ns#"
   xmlns:svg="http://www.w3.org/2000/svg"
   xmlns="http://www.w3.org/2000/svg"
   xmlns:xlink="http://www.w3.org/1999/xlink"
   xmlns:sodipodi="http://sodipodi.sourceforge.net/DTD/sodipodi-0.dtd"
   xmlns:inkscape="http://www.inkscape.org/namespaces/inkscape"
   width="32"
   height="32"
   viewBox="0 0 32 32"
   version="1.1"
   id="svg8"
   inkscape:version="0.92.2 2405546, 2018-03-11"
   sodipodi:docname="view-right-close.svg">
  <title
     id="title7895">Antu icon Theme</title>
  <defs
     id="defs2">
    <linearGradient
       gradientTransform="translate(-53,-3)"
       inkscape:collect="always"
       xlink:href="#linearGradient4506"
       id="linearGradient2128"
       x1="-3"
       y1="293.64999"
       x2="-3"
       y2="288.64999"
       gradientUnits="userSpaceOnUse" />
    <linearGradient
       inkscape:collect="always"
       id="linearGradient4506">
      <stop
         style="stop-color:#252a34;stop-opacity:1"
         offset="0"
         id="stop4502" />
      <stop
         style="stop-color:#353d4b;stop-opacity:1"
         offset="1"
         id="stop4504" />
    </linearGradient>
    <linearGradient
       y2="2.3812633"
       x2="4.2333336"
       y1="7.6729302"
       x1="4.2333336"
       gradientTransform="matrix(3.7795275,0,0,3.7795275,-64,282.64994)"
       gradientUnits="userSpaceOnUse"
       id="linearGradient4759"
       xlink:href="#linearGradient4846"
       inkscape:collect="always" />
    <linearGradient
       id="linearGradient4846"
       inkscape:collect="always">
      <stop
         id="stop4842"
         offset="0"
         style="stop-color:#e4efef;stop-opacity:1" />
      <stop
         id="stop4844"
         offset="1"
         style="stop-color:#fcfcfc;stop-opacity:1" />
    </linearGradient>
  </defs>
  <sodipodi:namedview
     id="base"
     pagecolor="#ffffff"
     bordercolor="#666666"
     borderopacity="1.0"
     inkscape:pageopacity="0.0"
     inkscape:pageshadow="2"
     inkscape:zoom="5.6"
     inkscape:cx="25.444702"
     inkscape:cy="1.9854224"
     inkscape:document-units="px"
     inkscape:current-layer="layer1"
     showgrid="true"
     units="px"
     inkscape:window-width="1360"
     inkscape:window-height="711"
     inkscape:window-x="0"
     inkscape:window-y="28"
     inkscape:window-maximized="1"
     objecttolerance="10"
     gridtolerance="10"
     guidetolerance="10"
     inkscape:snap-bbox="true"
     inkscape:bbox-paths="true"
     inkscape:bbox-nodes="true"
     inkscape:snap-bbox-edge-midpoints="true"
     inkscape:snap-bbox-midpoints="true"
     inkscape:object-paths="true"
     inkscape:snap-intersection-paths="true">
    <inkscape:grid
       type="xygrid"
       id="grid7897"
       empspacing="4" />
  </sodipodi:namedview>
  <metadata
     id="metadata5">
    <rdf:RDF>
      <cc:Work
         rdf:about="">
        <dc:format>image/svg+xml</dc:format>
        <dc:type
           rdf:resource="http://purl.org/dc/dcmitype/StillImage" />
        <dc:title>Antu icon Theme</dc:title>
      </cc:Work>
    </rdf:RDF>
  </metadata>
  <g
     inkscape:label="Capa 1"
     inkscape:groupmode="layer"
     id="layer1"
     transform="translate(0,-282.64999)">
    <g
       id="g1437"
       transform="translate(64)">
      <path
         id="path12329"
         d="m -63,284.64999 c -0.55401,0 -1,0.446 -1,1 v 26 c 0,0.554 0.44599,1 1,1 h 30 c 0.55401,0 1,-0.446 1,-1 v -26 c 0,-0.554 -0.44599,-1 -1,-1 h -14 -3 z"
         style="fill:#90a4ae;fill-opacity:1;stroke-width:1.00000012"
         inkscape:connector-curvature="0" />
      <path
         style="fill:url(#linearGradient4759);fill-opacity:1;stroke-width:1.00000012"
         d="m -63,291.64999 v 20 h 14 v -20 z"
         id="path925"
         inkscape:connector-curvature="0"
         sodipodi:nodetypes="ccccc" />
      <path
         style="opacity:1;fill:#b3272d;fill-opacity:1;stroke:none;stroke-width:2;stroke-linecap:round;stroke-linejoin:round;stroke-miterlimit:4;stroke-dasharray:none;stroke-dashoffset:0;stroke-opacity:1"
         d="m -48,288.64999 c -0.553998,0 -1,0.446 -1,1 v 21 1 1 h 1 15 c 0.553998,0 1,-0.446 1,-1 v -22 c 0,-0.554 -0.446002,-1 -1,-1 z"
         id="rect1026"
         inkscape:connector-curvature="0" />
      <path
         style="fill:#fc413b;fill-opacity:1;stroke-width:1.00000012"
         d="m -48,291.64999 v 20 h 15 v -20 z"
         id="path13-5-2-9-4-2-6-6"
         inkscape:connector-curvature="0"
         sodipodi:nodetypes="ccccc" />
      <path
         id="rect1191"
         d="m -63,284.64999 c -0.554,0 -1,0.446 -1,1 v 5 1 h 1 30 1 v -1 -5 c 0,-0.554 -0.446,-1 -1,-1 z"
         style="opacity:1;fill:#1f1f26;fill-opacity:0.99215686;stroke:none;stroke-width:0.80800003;stroke-linecap:round;stroke-linejoin:round;stroke-miterlimit:4;stroke-dasharray:none;stroke-opacity:1;paint-order:stroke markers fill"
         inkscape:connector-curvature="0" />
      <path
         sodipodi:nodetypes="ccccc"
         id="rect4537-2"
         d="m -63,285.64999 v 5 h 30 v -5 z"
         style="fill:url(#linearGradient2128);fill-opacity:1;stroke:none;stroke-width:0.40000001;stroke-linecap:round;stroke-linejoin:round;stroke-miterlimit:4;stroke-dasharray:none;stroke-opacity:1"
         inkscape:connector-curvature="0" />
      <path
         style="opacity:1;fill:#223240;fill-opacity:1;stroke:none;stroke-width:2;stroke-linecap:round;stroke-linejoin:round;stroke-miterlimit:4;stroke-dasharray:none;stroke-dashoffset:0;stroke-opacity:1"
         d="M -59.000004,293.64999 H -57 l 1,1 h 3.000004 c 0.553998,0 0.999996,0.446 0.999996,1 V 299.65 c 0,0.554 -0.445998,0.99999 -0.999996,0.99999 h -6.000008 C -59.554002,300.64999 -60,300.204 -60,299.65 v -5.00001 c 0,-0.554 0.445998,-1 0.999996,-1 z"
         id="rect1104-8"
         inkscape:connector-curvature="0"
         sodipodi:nodetypes="sccssssssss" />
      <path
         style="opacity:1;fill:#637d8a;fill-opacity:1;stroke:none;stroke-width:2;stroke-linecap:round;stroke-linejoin:round;stroke-miterlimit:4;stroke-dasharray:none;stroke-dashoffset:0;stroke-opacity:1"
         d="m -59,296.64999 h 2 l 1,-1 h 3 v 4 h -6 z"
         id="rect1122"
         inkscape:connector-curvature="0"
         sodipodi:nodetypes="ccccccc" />
      <path
         style="opacity:1;fill:#223240;fill-opacity:1;stroke:none;stroke-width:2;stroke-linecap:round;stroke-linejoin:round;stroke-miterlimit:4;stroke-dasharray:none;stroke-dashoffset:0;stroke-opacity:1"
         d="m -59,302.64999 h 2.000004 l 1,1 h 3.000004 c 0.553998,0 0.999996,0.446 0.999996,1 V 308.65 c 0,0.554 -0.445998,0.99999 -0.999996,0.99999 H -59 c -0.553998,0 -0.999996,-0.44599 -0.999996,-0.99999 v -5.00001 c 0,-0.554 0.445998,-1 0.999996,-1 z"
         id="rect1104-8-2"
         inkscape:connector-curvature="0"
         sodipodi:nodetypes="sccssssssss" />
      <path
         style="opacity:1;fill:#637d8a;fill-opacity:1;stroke:none;stroke-width:2;stroke-linecap:round;stroke-linejoin:round;stroke-miterlimit:4;stroke-dasharray:none;stroke-dashoffset:0;stroke-opacity:1"
         d="m -58.999996,305.64999 h 2 l 1,-1 h 3 v 4 h -6 z"
         id="rect1122-7"
         inkscape:connector-curvature="0"
         sodipodi:nodetypes="ccccccc" />
      <path
         inkscape:connector-curvature="0"
         id="rect1144"
         d="m -45.000004,298.64999 h 9.000008 c 0.553998,0 0.999996,0.446 0.999996,1 V 302.65 c 0,0.554 -0.445998,0.99999 -0.999996,0.99999 h -9.000008 C -45.554002,303.64999 -46,303.204 -46,302.65 v -3.00001 c 0,-0.554 0.445998,-1 0.999996,-1 z"
         style="opacity:1;fill:#b3272d;fill-opacity:1;stroke:none;stroke-width:2;stroke-linecap:round;stroke-linejoin:round;stroke-miterlimit:4;stroke-dasharray:none;stroke-dashoffset:0;stroke-opacity:1" />
      <path
         inkscape:connector-curvature="0"
         id="rect1155"
         d="m -45,299.64999 h 9 v 3 h -9 z"
         style="opacity:1;fill:#f0f5f5;fill-opacity:1;stroke:none;stroke-width:2;stroke-linecap:round;stroke-linejoin:round;stroke-miterlimit:4;stroke-dasharray:none;stroke-dashoffset:0;stroke-opacity:1" />
    </g>
  </g>
</svg>
