<?xml version="1.0" encoding="UTF-8" standalone="no"?>
<!-- Created with Inkscape (http://www.inkscape.org/) -->

<svg
   xmlns:dc="http://purl.org/dc/elements/1.1/"
   xmlns:cc="http://creativecommons.org/ns#"
   xmlns:rdf="http://www.w3.org/1999/02/22-rdf-syntax-ns#"
   xmlns:svg="http://www.w3.org/2000/svg"
   xmlns="http://www.w3.org/2000/svg"
   xmlns:xlink="http://www.w3.org/1999/xlink"
   xmlns:sodipodi="http://sodipodi.sourceforge.net/DTD/sodipodi-0.dtd"
   xmlns:inkscape="http://www.inkscape.org/namespaces/inkscape"
   width="32"
   height="32"
   viewBox="0 0 32 32"
   version="1.1"
   id="svg8"
   inkscape:version="0.91 r13725"
   sodipodi:docname="application-epub+zip.svg">
  <title
     id="title7895">Antu icon Theme</title>
  <defs
     id="defs2">
    <linearGradient
       gradientTransform="matrix(3.7795275,0,0,3.7795275,105.53658,-733.17985)"
       inkscape:collect="always"
       xlink:href="#linearGradient4331"
       id="linearGradient837"
       x1="4.2333336"
       y1="296.20624"
       x2="4.2333336"
       y2="289.59164"
       gradientUnits="userSpaceOnUse" />
    <linearGradient
       id="linearGradient4331"
       inkscape:collect="always">
      <stop
         id="stop4333"
         offset="0"
         style="stop-color:#157367;stop-opacity:1;" />
      <stop
         id="stop4335"
         offset="1"
         style="stop-color:#1a8c7e;stop-opacity:1" />
    </linearGradient>
  </defs>
  <sodipodi:namedview
     id="base"
     pagecolor="#ffffff"
     bordercolor="#666666"
     borderopacity="1.0"
     inkscape:pageopacity="0.0"
     inkscape:pageshadow="2"
     inkscape:zoom="90.509667"
     inkscape:cx="8.8817494"
     inkscape:cy="2.0593254"
     inkscape:document-units="px"
     inkscape:current-layer="layer1"
     showgrid="true"
     units="px"
     inkscape:window-width="1360"
     inkscape:window-height="699"
     inkscape:window-x="0"
     inkscape:window-y="0"
     inkscape:window-maximized="1"
     objecttolerance="10"
     gridtolerance="10"
     guidetolerance="10"
     inkscape:snap-bbox="true"
     inkscape:bbox-paths="true"
     inkscape:bbox-nodes="true"
     inkscape:snap-bbox-edge-midpoints="true"
     inkscape:snap-bbox-midpoints="true"
     inkscape:object-paths="true"
     inkscape:snap-intersection-paths="true"
     inkscape:object-nodes="true">
    <inkscape:grid
       type="xygrid"
       id="grid7897"
       empspacing="4" />
  </sodipodi:namedview>
  <metadata
     id="metadata5">
    <rdf:RDF>
      <cc:Work
         rdf:about="">
        <dc:format>image/svg+xml</dc:format>
        <dc:type
           rdf:resource="http://purl.org/dc/dcmitype/StillImage" />
        <dc:title>Antu icon Theme</dc:title>
      </cc:Work>
    </rdf:RDF>
  </metadata>
  <g
     inkscape:label="Capa 1"
     inkscape:groupmode="layer"
     id="layer1"
     transform="translate(0,-282.64999)">
    <g
       id="g4379"
       transform="translate(-106.53658,-74.68986)">
      <path
         inkscape:connector-curvature="0"
         id="rect868"
         d="m 134.53658,359.33985 c -0.554,0 -1,0.446 -1,1 l 0,5 c 0,0.554 0.446,1 1,1 l 2,0 0,14 -2,0 c -0.554,0 -1,0.446 -1,1 l 0,5 c 0,0.554 0.446,1 1,1 l 2,0 c 0.554,0 1,-0.446 1,-1 l 0,-4 0,-1 0,-16 0,-2 0,-3 c 0,-0.554 -0.446,-1 -1,-1 z"
         style="opacity:0.98000004;fill:#90a4ae;fill-opacity:1;stroke:none;stroke-width:2;stroke-linecap:round;stroke-linejoin:round;stroke-miterlimit:4;stroke-dasharray:none;stroke-dashoffset:0;stroke-opacity:1" />
      <path
         inkscape:connector-curvature="0"
         id="rect870"
         d="m 134.53658,360.33985 0,3 0,2 0,16 0,3 0,2 2,0 0,-2 0,-3 0,-16 0,-2 0,-3 z"
         style="opacity:0.98000004;fill:#f3f7f7;fill-opacity:1;stroke:none;stroke-width:2;stroke-linecap:round;stroke-linejoin:round;stroke-miterlimit:4;stroke-dasharray:none;stroke-dashoffset:0;stroke-opacity:1" />
      <path
         inkscape:connector-curvature="0"
         style="fill:#90a4ae;fill-opacity:1;stroke:none;stroke-width:2;stroke-linecap:round;stroke-linejoin:round;stroke-miterlimit:4;stroke-dasharray:none;stroke-opacity:1"
         d="m 135.53658,362.33985 0,2 -6,0 0,-2 z m -7,0 0,2 -3,0 0,-2 z m -4,0 0,2 -4,0 0,-2 z m -5,0 0,2 -2,0 0,-2 z m 16,4 0,2 -3,0 0,-2 z m -4,0 0,2 -8,0 0,-2 z m -9,0 0,2 -2,0 0,-2 z m -3,0 0,2 -2,0 0,-2 z m 16,4 0,2 -5,0 0,-2 z m -6,0 0,2 -2,0 0,-2 z m -3,0 0,2 -4,0 0,-2 z m -5,0 0,2 -4,0 0,-2 z m 14,4 0,2 -2,0 0,-2 z m -3,0 0,2 -2,0 0,-2 z m -3,0 0,2 -5,0 0,-2 z m -6,0 0,2 -4,0 0,-2 z m 12,4 0,2 -6,0 0,-2 z m -7,0 0,2 -2,0 0,-2 z m -3,0 0,2 -3,0 0,-2 z m -4,0 0,2 -3,0 0,-2 z m 14,4 0,2 -3,0 0,-2 z m -4,0 0,2 -7,0 0,-2 z m -8,0 0,2 -2,0 0,-2 z m -3,0 0,2 -2,0 0,-2 z"
         id="rect969" />
      <path
         id="rect827"
         d="m 110.53658,358.33985 22,0 c 1.108,0 2,0.892 2,2 l 0,26 c 0,1.108 -0.892,2 -2,2 l -22,0 c -1.108,0 -2,-0.892 -2,-2 l 0,-26 c 0,-1.108 0.892,-2 2,-2 z"
         style="opacity:1;fill:#0e4d45;fill-opacity:1;stroke:none;stroke-width:1.99999988;stroke-linecap:round;stroke-linejoin:round;stroke-miterlimit:4;stroke-dasharray:none;stroke-opacity:1"
         inkscape:connector-curvature="0" />
      <path
         id="rect829"
         d="m 110.53658,359.33985 c -0.554,0 -1,0.446 -1,1 l 0,26 c 0,0.554 0.446,1 1,1 l 2,0 0,-28 z m 2,28 1,0 z m 1,0 19,0 c 0.554,0 1,-0.446 1,-1 l 0,-26 c 0,-0.554 -0.446,-1 -1,-1 l -19,0 z"
         style="opacity:1;fill:url(#linearGradient837);fill-opacity:1;stroke:none;stroke-width:1.99999988;stroke-linecap:round;stroke-linejoin:round;stroke-miterlimit:4;stroke-dasharray:none;stroke-opacity:1"
         inkscape:connector-curvature="0"
         sodipodi:nodetypes="ssssccsccccsssscc" />
      <path
         inkscape:connector-curvature="0"
         d="m 126.53658,362.33985 c -0.554,0 -1,0.44599 -1,1 l 0,5 0,2 0,4 3,-3 3,3 0,-4 0,-2 0,-5 c 0,-0.55401 -0.446,-1 -1,-1 z"
         style="color:#122036;fill:#075447;fill-opacity:1;stroke:none"
         class="ColorScheme-Text"
         id="path4148-6" />
      <path
         inkscape:connector-curvature="0"
         d="m 126.53658,361.33985 c -0.554,0 -1,0.44599 -1,1 l 0,5 0,2 0,4 3,-3 3,3 0,-4 0,-2 0,-5 c 0,-0.55401 -0.446,-1 -1,-1 z"
         style="color:#122036;fill:#ffffff;fill-opacity:1;stroke:none"
         class="ColorScheme-Text"
         id="path4148" />
    </g>
  </g>
</svg>
