<?xml version="1.0" encoding="UTF-8" standalone="no"?>
<!-- Created with Inkscape (http://www.inkscape.org/) -->

<svg
   xmlns:dc="http://purl.org/dc/elements/1.1/"
   xmlns:cc="http://creativecommons.org/ns#"
   xmlns:rdf="http://www.w3.org/1999/02/22-rdf-syntax-ns#"
   xmlns:svg="http://www.w3.org/2000/svg"
   xmlns="http://www.w3.org/2000/svg"
   xmlns:xlink="http://www.w3.org/1999/xlink"
   xmlns:sodipodi="http://sodipodi.sourceforge.net/DTD/sodipodi-0.dtd"
   xmlns:inkscape="http://www.inkscape.org/namespaces/inkscape"
   width="32"
   height="32"
   viewBox="0 0 32 32"
   version="1.1"
   id="svg8"
   inkscape:version="0.92.2 5c3e80d, 2017-08-06"
   sodipodi:docname="application-zip.svg">
  <title
     id="title7895">Antu icon Theme</title>
  <defs
     id="defs2">
    <linearGradient
       gradientUnits="userSpaceOnUse"
       y2="3.0000134"
       x2="16"
       y1="18.000013"
       x1="16"
       id="linearGradient4928"
       xlink:href="#linearGradient4926"
       inkscape:collect="always"
       gradientTransform="translate(2,278.64986)" />
    <linearGradient
       id="linearGradient4926"
       inkscape:collect="always">
      <stop
         id="stop4922"
         offset="0"
         style="stop-color:#212121;stop-opacity:1" />
      <stop
         id="stop4924"
         offset="1"
         style="stop-color:#2c2c2c;stop-opacity:1" />
    </linearGradient>
    <linearGradient
       gradientUnits="userSpaceOnUse"
       y2="289.59164"
       x2="4.2333336"
       y1="296.20624"
       x1="4.2333336"
       id="linearGradient837"
       xlink:href="#linearGradient4619"
       inkscape:collect="always"
       gradientTransform="matrix(3.7795275,0,0,3.7795275,2,-811.86966)" />
    <linearGradient
       inkscape:collect="always"
       id="linearGradient4619">
      <stop
         style="stop-color:#67d924;stop-opacity:1"
         offset="0"
         id="stop4615" />
      <stop
         style="stop-color:#a3eb1e;stop-opacity:1"
         offset="1"
         id="stop4617" />
    </linearGradient>
  </defs>
  <sodipodi:namedview
     id="base"
     pagecolor="#ffffff"
     bordercolor="#666666"
     borderopacity="1.0"
     inkscape:pageopacity="0.0"
     inkscape:pageshadow="2"
     inkscape:zoom="7.9999999"
     inkscape:cx="-8.5350262"
     inkscape:cy="18.477717"
     inkscape:document-units="px"
     inkscape:current-layer="layer1"
     showgrid="true"
     units="px"
     inkscape:window-width="1366"
     inkscape:window-height="697"
     inkscape:window-x="0"
     inkscape:window-y="0"
     inkscape:window-maximized="1"
     objecttolerance="10"
     gridtolerance="10"
     guidetolerance="10">
    <inkscape:grid
       type="xygrid"
       id="grid7897"
       empspacing="4" />
  </sodipodi:namedview>
  <metadata
     id="metadata5">
    <rdf:RDF>
      <cc:Work
         rdf:about="">
        <dc:format>image/svg+xml</dc:format>
        <dc:type
           rdf:resource="http://purl.org/dc/dcmitype/StillImage" />
        <dc:title>Antu icon Theme</dc:title>
      </cc:Work>
    </rdf:RDF>
  </metadata>
  <g
     inkscape:label="Capa 1"
     inkscape:groupmode="layer"
     id="layer1"
     transform="translate(0,-282.64999)">
    <g
       id="g1612"
       transform="translate(-1.9999995,4.000025)">
      <path
         inkscape:connector-curvature="0"
         style="opacity:1;fill:#56b21d;fill-opacity:0.98970588;stroke:none;stroke-width:1.99999988;stroke-linecap:round;stroke-linejoin:round;stroke-miterlimit:4;stroke-dasharray:none;stroke-opacity:1"
         d="M 7.0000001,279.64999 H 28.999999 c 1.108,0 2,0.89202 2,2.00001 v 26.00001 c 0,1.10797 -0.892,1.99998 -2,1.99998 H 7.0000001 C 5.892,309.64999 5,308.75798 5,307.65001 v -26 c 0,-1.108 0.892,-2.00001 2.0000001,-2.00002 z"
         id="rect827" />
      <path
         inkscape:connector-curvature="0"
         style="opacity:1;fill:url(#linearGradient837);fill-opacity:1;stroke:none;stroke-width:1.99999988;stroke-linecap:round;stroke-linejoin:round;stroke-miterlimit:4;stroke-dasharray:none;stroke-opacity:1"
         d="m 7,280.65001 h 21.999999 c 0.554,0 1,0.44599 1,1 v 26 c 0,0.55401 -0.446,1 -1,1 H 7 c -0.554,0 -1,-0.44599 -1,-1 v -26 c 0,-0.554 0.446,-1 1,-1 z"
         id="rect829" />
      <path
         sodipodi:nodetypes="cccsssccccccc"
         inkscape:connector-curvature="0"
         style="fill:#010102;fill-opacity:1;stroke:none;stroke-width:1.00157475;stroke-linecap:round;stroke-linejoin:round;stroke-miterlimit:4;stroke-dasharray:none;stroke-opacity:1"
         d="m 15,279.64994 v 5 1 13.00008 c 0,1.66202 1.338,3 3,3 1.662,0 3,-1.33798 3,-3 v -13.00008 -1 -5 h -1 -2 -2 z"
         id="rect4856" />
      <path
         style="fill:url(#linearGradient4928);fill-opacity:1;stroke:none;stroke-width:1.00157475;stroke-linecap:round;stroke-linejoin:round;stroke-miterlimit:4;stroke-dasharray:none;stroke-opacity:1"
         d="m 16,280.64991 v 2.99997 15.00008 c 0,1.108 0.892,2.00002 2,2.00002 1.108,0 2,-0.89202 2,-2.00002 v -15.00008 -2.99997 h -2 z"
         id="rect4917"
         inkscape:connector-curvature="0"
         sodipodi:nodetypes="ccssscccc" />
      <path
         id="path904"
         d="m 18,280.64999 v 1 h 1 v -1 z m 0,1 h -1 v 1 h 1 z m 0,1 v 1 h 1 v -1 z m 0,1 h -1 v 1 h 1 z m 0,1 v 1 h 1 v -1 z m 0,1 h -1 v 1 h 1 z m 0,1 v 1 h 1 v -1 z m 0,1 h -1 v 1 h 1 z m 0,1 v 1 h 1 v -1 z m 0,1 h -1 v 1 h 1 z m 0,1 v 1 h 1 v -1 z m 0,1 h -1 v 1 h 1 z m 0,1 v 1 h 1 v -1 z m 0,1 h -1 v 1 h 1 z m 0,1 v 1 h 1 v -1 z m 0,1 h -1 v 1 h 1 z m 0,1 v 1 h 1 v -1 z m 0,1 h -1 v 1 h 1 z m 0,1 v 1 h 1 v -1 z"
         style="fill:#fefefe;fill-opacity:1;stroke:none;stroke-width:1.00157475;stroke-linecap:round;stroke-linejoin:round;stroke-miterlimit:4;stroke-dasharray:none;stroke-opacity:1"
         inkscape:connector-curvature="0" />
    </g>
  </g>
</svg>
