<?xml version="1.0" encoding="UTF-8" standalone="no"?>
<!-- Created with Inkscape (http://www.inkscape.org/) -->

<svg
   width="32"
   height="32"
   viewBox="0 0 32 32"
   version="1.1"
   id="svg8"
   inkscape:version="1.2 (dc2aedaf03, 2022-05-15)"
   sodipodi:docname="application-atom+xml.svg"
   xmlns:inkscape="http://www.inkscape.org/namespaces/inkscape"
   xmlns:sodipodi="http://sodipodi.sourceforge.net/DTD/sodipodi-0.dtd"
   xmlns:xlink="http://www.w3.org/1999/xlink"
   xmlns="http://www.w3.org/2000/svg"
   xmlns:svg="http://www.w3.org/2000/svg"
   xmlns:rdf="http://www.w3.org/1999/02/22-rdf-syntax-ns#"
   xmlns:cc="http://creativecommons.org/ns#"
   xmlns:dc="http://purl.org/dc/elements/1.1/">
  <title
     id="title7895">Antu icon Theme</title>
  <defs
     id="defs2">
    <linearGradient
       gradientTransform="matrix(3.7795275,0,0,3.7795275,-26.125,-825.36964)"
       inkscape:collect="always"
       xlink:href="#linearGradient4622"
       id="linearGradient837-3"
       x1="4.2333336"
       y1="296.20624"
       x2="4.2333336"
       y2="289.59164"
       gradientUnits="userSpaceOnUse" />
    <linearGradient
       inkscape:collect="always"
       id="linearGradient4622">
      <stop
         style="stop-color:#ff6a3e;stop-opacity:1"
         offset="0"
         id="stop4618" />
      <stop
         style="stop-color:#ff9065;stop-opacity:1"
         offset="1"
         id="stop4620" />
    </linearGradient>
  </defs>
  <sodipodi:namedview
     id="base"
     pagecolor="#ffffff"
     bordercolor="#666666"
     borderopacity="1.0"
     inkscape:pageopacity="0.0"
     inkscape:pageshadow="2"
     inkscape:zoom="11.313708"
     inkscape:cx="8.0433397"
     inkscape:cy="14.009553"
     inkscape:document-units="px"
     inkscape:current-layer="g3238"
     showgrid="true"
     units="px"
     inkscape:window-width="2160"
     inkscape:window-height="1337"
     inkscape:window-x="0"
     inkscape:window-y="0"
     inkscape:window-maximized="1"
     objecttolerance="10"
     gridtolerance="10"
     guidetolerance="10"
     inkscape:showpageshadow="2"
     inkscape:pagecheckerboard="0"
     inkscape:deskcolor="#d1d1d1">
    <inkscape:grid
       type="xygrid"
       id="grid7897"
       empspacing="4" />
  </sodipodi:namedview>
  <metadata
     id="metadata5">
    <rdf:RDF>
      <cc:Work
         rdf:about="">
        <dc:format>image/svg+xml</dc:format>
        <dc:type
           rdf:resource="http://purl.org/dc/dcmitype/StillImage" />
        <dc:title>Antu icon Theme</dc:title>
      </cc:Work>
    </rdf:RDF>
  </metadata>
  <g
     inkscape:label="Capa 1"
     inkscape:groupmode="layer"
     id="layer1"
     transform="translate(0,-282.64999)">
    <g
       id="g5515"
       transform="translate(26.125,17.500005)">
      <path
         inkscape:connector-curvature="0"
         style="opacity:1;fill:#dd4d25;fill-opacity:1;stroke:none;stroke-width:1.99999988;stroke-linecap:round;stroke-linejoin:round;stroke-miterlimit:4;stroke-dasharray:none;stroke-opacity:1"
         d="M -21.125,266.15001 H 0.87499937 c 1.10800003,0 2.00000003,0.89202 2.00000003,2.00001 v 26.00001 c 0,1.10797 -0.892,1.99998 -2.00000003,1.99998 H -21.125 c -1.108,0 -2,-0.89201 -2,-1.99998 v -26 c 0,-1.108 0.892,-2.00001 2,-2.00002 z"
         id="rect827-8" />
      <path
         inkscape:connector-curvature="0"
         style="opacity:1;fill:url(#linearGradient837-3);fill-opacity:1;stroke:none;stroke-width:1.99999988;stroke-linecap:round;stroke-linejoin:round;stroke-miterlimit:4;stroke-dasharray:none;stroke-opacity:1"
         d="M -21.125,267.15003 H 0.87499937 c 0.55400003,0 1.00000003,0.44599 1.00000003,1 v 26 c 0,0.55401 -0.446,1 -1.00000003,1 H -21.125 c -0.554,0 -1,-0.44599 -1,-1 v -26 c 0,-0.554 0.446,-1 1,-1 z"
         id="rect829-6" />
      <g
         id="g3238"
         transform="translate(-34.542447,4.001705)">
        <path
           id="rect4815-3"
           style="fill:#dd4d25;fill-opacity:1;stroke:none;stroke-linecap:round;stroke-linejoin:round;stroke-miterlimit:1.8;paint-order:fill markers stroke;stop-color:#000000"
           d="m 17.417447,270.14828 v 3 a 12,12 0 0 1 12,12 h 3 a 15,15 0 0 0 -15,-15 z m 0,6 v 3 a 6,6 0 0 1 6,6 h 3 a 9,9 0 0 0 -9,-9 z m 0.5,6 c -1.384999,0 -2.5,1.115 -2.5,2.5 0,1.385 1.115001,2.5 2.5,2.5 1.384999,0 2.5,-1.115 2.5,-2.5 0,-1.385 -1.115001,-2.5 -2.5,-2.5 z" />
        <path
           id="rect4815"
           style="fill:#fff3f0;fill-opacity:1;stroke:none;stroke-linecap:round;stroke-linejoin:round;stroke-miterlimit:1.8;paint-order:fill markers stroke;stop-color:#000000"
           d="m 17.417447,269.14828 v 3 a 12,12 0 0 1 12,12 h 3 a 15,15 0 0 0 -15,-15 z m 0,6 v 3 a 6,6 0 0 1 6,6 h 3 a 9,9 0 0 0 -9,-9 z m 0.5,6 c -1.384999,0 -2.5,1.115 -2.5,2.5 0,1.385 1.115001,2.5 2.5,2.5 1.384999,0 2.5,-1.115 2.5,-2.5 0,-1.385 -1.115001,-2.5 -2.5,-2.5 z" />
      </g>
    </g>
  </g>
</svg>
