<?xml version="1.0" encoding="UTF-8" standalone="no"?>
<!-- Created with Inkscape (http://www.inkscape.org/) -->

<svg
   xmlns:dc="http://purl.org/dc/elements/1.1/"
   xmlns:cc="http://creativecommons.org/ns#"
   xmlns:rdf="http://www.w3.org/1999/02/22-rdf-syntax-ns#"
   xmlns:svg="http://www.w3.org/2000/svg"
   xmlns="http://www.w3.org/2000/svg"
   xmlns:xlink="http://www.w3.org/1999/xlink"
   xmlns:sodipodi="http://sodipodi.sourceforge.net/DTD/sodipodi-0.dtd"
   xmlns:inkscape="http://www.inkscape.org/namespaces/inkscape"
   width="32"
   height="32"
   viewBox="0 0 32 32"
   version="1.1"
   id="svg8"
   inkscape:version="0.91 r13725"
   sodipodi:docname="application-x-executable.svg">
  <title
     id="title7895">Antu icon Theme</title>
  <defs
     id="defs2">
    <linearGradient
       gradientTransform="matrix(3.7795275,0,0,3.7795275,-27.999999,-807.86969)"
       inkscape:collect="always"
       xlink:href="#linearGradient2126"
       id="linearGradient837-3"
       x1="4.2333336"
       y1="296.20624"
       x2="4.2333336"
       y2="289.59164"
       gradientUnits="userSpaceOnUse" />
    <style
       id="current-color-scheme"
       type="text/css">
      .ColorScheme-Text {
        color:#122036;
      }
      </style>
    <style
       id="current-color-scheme-7"
       type="text/css">
      .ColorScheme-Text {
        color:#122036;
      }
      </style>
    <style
       id="current-color-scheme-5"
       type="text/css">
      .ColorScheme-Text {
        color:#122036;
      }
      </style>
    <style
       id="current-color-scheme-0"
       type="text/css">
      .ColorScheme-Text {
        color:#122036;
      }
      </style>
    <style
       id="current-color-scheme-7-9"
       type="text/css">
      .ColorScheme-Text {
        color:#122036;
      }
      </style>
    <style
       id="current-color-scheme-5-3"
       type="text/css">
      .ColorScheme-Text {
        color:#122036;
      }
      </style>
    <linearGradient
       id="linearGradient4582-3"
       inkscape:collect="always">
      <stop
         id="stop4578-5"
         offset="0"
         style="stop-color:#c8c8c8;stop-opacity:1" />
      <stop
         id="stop4580-6"
         offset="1"
         style="stop-color:#f2f2f2;stop-opacity:1" />
    </linearGradient>
    <linearGradient
       gradientUnits="userSpaceOnUse"
       y2="289.14999"
       x2="16"
       y1="307.14999"
       x1="16"
       id="linearGradient986"
       xlink:href="#linearGradient4582-3"
       inkscape:collect="always" />
    <style
       id="current-color-scheme-79"
       type="text/css">
      .ColorScheme-Text {
        color:#122036;
      }
      </style>
    <style
       id="current-color-scheme-7-2"
       type="text/css">
      .ColorScheme-Text {
        color:#122036;
      }
      </style>
    <style
       id="current-color-scheme-5-0"
       type="text/css">
      .ColorScheme-Text {
        color:#122036;
      }
      </style>
    <linearGradient
       inkscape:collect="always"
       id="linearGradient2126">
      <stop
         style="stop-color:#475057;stop-opacity:1;"
         offset="0"
         id="stop2122" />
      <stop
         style="stop-color:#5e6a73;stop-opacity:1"
         offset="1"
         id="stop2124" />
    </linearGradient>
  </defs>
  <sodipodi:namedview
     id="base"
     pagecolor="#ffffff"
     bordercolor="#666666"
     borderopacity="1.0"
     inkscape:pageopacity="0.0"
     inkscape:pageshadow="2"
     inkscape:zoom="7.9999999"
     inkscape:cx="21.421254"
     inkscape:cy="10.141663"
     inkscape:document-units="px"
     inkscape:current-layer="layer1"
     showgrid="false"
     units="px"
     inkscape:window-width="1360"
     inkscape:window-height="699"
     inkscape:window-x="0"
     inkscape:window-y="0"
     inkscape:window-maximized="1"
     objecttolerance="10"
     gridtolerance="10"
     guidetolerance="10"
     inkscape:snap-bbox="true"
     inkscape:bbox-paths="true"
     inkscape:bbox-nodes="true"
     inkscape:snap-bbox-edge-midpoints="true"
     inkscape:snap-bbox-midpoints="true">
    <inkscape:grid
       type="xygrid"
       id="grid7897"
       empspacing="4" />
  </sodipodi:namedview>
  <metadata
     id="metadata5">
    <rdf:RDF>
      <cc:Work
         rdf:about="">
        <dc:format>image/svg+xml</dc:format>
        <dc:type
           rdf:resource="http://purl.org/dc/dcmitype/StillImage" />
        <dc:title>Antu icon Theme</dc:title>
      </cc:Work>
    </rdf:RDF>
  </metadata>
  <g
     inkscape:label="Capa 1"
     inkscape:groupmode="layer"
     id="layer1"
     transform="translate(0,-282.64999)">
    <g
       id="g9832"
       transform="translate(28,-2e-5)">
      <path
         inkscape:connector-curvature="0"
         style="opacity:1;fill:#343b40;fill-opacity:1;stroke:none;stroke-width:1.99999988;stroke-linecap:round;stroke-linejoin:round;stroke-miterlimit:4;stroke-dasharray:none;stroke-opacity:1"
         d="m -24,283.65001 24,0 c 1.108,0 2,0.89202 2,2.00001 l 0,26.00001 c 0,1.10797 -0.892,1.99998 -2,1.99998 l -24,0 c -1.108,0 -2,-0.89201 -2,-1.99998 l 0,-26 c 0,-1.108 0.892,-2 2,-2.00002 z"
         id="rect827-8"
         sodipodi:nodetypes="csssssssc" />
      <path
         inkscape:connector-curvature="0"
         style="opacity:1;fill:url(#linearGradient837-3);fill-opacity:1;stroke:none;stroke-width:1.99999988;stroke-linecap:round;stroke-linejoin:round;stroke-miterlimit:4;stroke-dasharray:none;stroke-opacity:1"
         d="m -24,284.65003 24,0 c 0.554,0 1,0.44599 1,1 l 0,26 c 0,0.55401 -0.446,1 -1,1 l -24,0 c -0.554,0 -1,-0.44599 -1,-1 l 0,-26 c 0,-0.55399 0.446,-1 1,-1 z"
         id="rect829-6"
         sodipodi:nodetypes="sssssssss" />
    </g>
    <g
       id="layer1-2"
       inkscape:label="Capa 1"
       transform="translate(-29,1)">
      <g
         transform="translate(65.333984,-7.66211)"
         inkscape:label="Capa 1"
         id="layer1-1">
        <g
           id="g1473"
           transform="translate(22,-8)" />
        <g
           id="g1006"
           transform="translate(-36.333984,7.16211)">
          <path
             inkscape:connector-curvature="0"
             id="rect945"
             d="m 15,289.14999 c -0.553999,0 -1,0.446 -1,1 l 0,2.29297 c -0.46663,0.13808 -0.914075,0.31806 -1.333984,0.54492 l -1.615235,-1.61523 c -0.391737,-0.39174 -1.022326,-0.39174 -1.4140622,0 l -1.4140626,1.41406 c -0.3917362,0.39174 -0.3917363,1.02233 0,1.41406 l 1.6152344,1.61524 c -0.2268643,0.4199 -0.4068415,0.86735 -0.5449218,1.33398 L 7,297.14999 c -0.554,0 -1,0.446 -1,1 l 0,2 c 0,0.554 0.446,1 1,1 l 2.2929688,0 c 0.1380803,0.46663 0.3180575,0.91408 0.5449218,1.33398 l -1.6152344,1.61524 c -0.3917369,0.39173 -0.3917369,1.02232 0,1.41406 l 1.4140626,1.41406 c 0.3917372,0.39174 1.0223242,0.39174 1.4140622,0 l 1.615235,-1.61523 c 0.419909,0.22686 0.867354,0.40684 1.333984,0.54492 l 0,2.29297 c 0,0.554 0.446001,1 1,1 l 2,0 c 0.553999,0 1,-0.446 1,-1 l 0,-2.29297 c 0.46663,-0.13808 0.914075,-0.31806 1.333984,-0.54492 l 1.615235,1.61523 c 0.391737,0.39174 1.022326,0.39174 1.414062,0 l 1.414063,-1.41406 c 0.391736,-0.39174 0.391736,-1.02233 0,-1.41406 l -1.615235,-1.61524 c 0.226865,-0.4199 0.406842,-0.86735 0.544922,-1.33398 l 2.292969,0 c 0.554,0 1,-0.446 1,-1 l 0,-2 c 0,-0.554 -0.446,-1 -1,-1 l -2.292969,0 c -0.13808,-0.46663 -0.318057,-0.91408 -0.544922,-1.33398 l 1.615235,-1.61524 c 0.391737,-0.39173 0.391737,-1.02232 0,-1.41406 l -1.414063,-1.41406 c -0.391737,-0.39174 -1.022324,-0.39174 -1.414062,0 l -1.615235,1.61523 C 18.914075,292.76102 18.46663,292.58104 18,292.44296 l 0,-2.29297 c 0,-0.554 -0.446001,-1 -1,-1 z m 1,6 c 2.216,0 4,1.784 4,4 0,2.216 -1.784,4 -4,4 -2.216,0 -4,-1.784 -4,-4 0,-2.216 1.784,-4 4,-4 z"
             style="opacity:0.97000002;fill:#343b40;fill-opacity:1;stroke:none;stroke-width:2;stroke-linecap:round;stroke-linejoin:round;stroke-miterlimit:4;stroke-dasharray:none;stroke-dashoffset:0;stroke-opacity:1" />
          <path
             inkscape:connector-curvature="0"
             id="rect945-1"
             d="m 15,288.14999 c -0.553999,0 -1,0.446 -1,1 l 0,2.29297 c -0.46663,0.13808 -0.914075,0.31806 -1.333984,0.54492 l -1.615235,-1.61523 c -0.391737,-0.39174 -1.022326,-0.39174 -1.414062,0 l -1.414063,1.41406 c -0.391736,0.39174 -0.3917361,1.02233 0,1.41406 l 1.615235,1.61524 c -0.226865,0.4199 -0.406842,0.86735 -0.544922,1.33398 l -2.292969,0 c -0.554,0 -1,0.446 -1,1 l 0,2 c 0,0.554 0.446,1 1,1 l 2.292969,0 c 0.13808,0.46663 0.318057,0.91408 0.544922,1.33398 l -1.615235,1.61524 c -0.3917367,0.39173 -0.3917367,1.02232 0,1.41406 l 1.414063,1.41406 c 0.391737,0.39174 1.022324,0.39174 1.414062,0 l 1.615235,-1.61523 c 0.419909,0.22686 0.867354,0.40684 1.333984,0.54492 l 0,2.29297 c 0,0.554 0.446001,1 1,1 l 2,0 c 0.553999,0 1,-0.446 1,-1 l 0,-2.29297 c 0.46663,-0.13808 0.914075,-0.31806 1.333984,-0.54492 l 1.615235,1.61523 c 0.391737,0.39174 1.022326,0.39174 1.414062,0 l 1.414063,-1.41406 c 0.391736,-0.39174 0.391736,-1.02233 0,-1.41406 l -1.615235,-1.61524 c 0.226865,-0.4199 0.406842,-0.86735 0.544922,-1.33398 l 2.292969,0 c 0.554,0 1,-0.446 1,-1 l 0,-2 c 0,-0.554 -0.446,-1 -1,-1 l -2.292969,0 c -0.13808,-0.46663 -0.318057,-0.91408 -0.544922,-1.33398 l 1.615235,-1.61524 c 0.391737,-0.39173 0.391737,-1.02232 0,-1.41406 l -1.414063,-1.41406 c -0.391737,-0.39174 -1.022324,-0.39174 -1.414062,0 l -1.615235,1.61523 C 18.914075,291.76102 18.46663,291.58104 18,291.44296 l 0,-2.29297 c 0,-0.554 -0.446001,-1 -1,-1 z m 1,6 c 2.216,0 4,1.784 4,4 0,2.216 -1.784,4 -4,4 -2.216,0 -4,-1.784 -4,-4 0,-2.216 1.784,-4 4,-4 z"
             style="opacity:0.97000002;fill:url(#linearGradient986);fill-opacity:1;stroke:none;stroke-width:2;stroke-linecap:round;stroke-linejoin:round;stroke-miterlimit:4;stroke-dasharray:none;stroke-dashoffset:0;stroke-opacity:1" />
        </g>
      </g>
    </g>
  </g>
</svg>
