<?xml version="1.0" encoding="UTF-8" standalone="no"?>
<!-- Created with Inkscape (http://www.inkscape.org/) -->

<svg
   xmlns:dc="http://purl.org/dc/elements/1.1/"
   xmlns:cc="http://creativecommons.org/ns#"
   xmlns:rdf="http://www.w3.org/1999/02/22-rdf-syntax-ns#"
   xmlns:svg="http://www.w3.org/2000/svg"
   xmlns="http://www.w3.org/2000/svg"
   xmlns:xlink="http://www.w3.org/1999/xlink"
   xmlns:sodipodi="http://sodipodi.sourceforge.net/DTD/sodipodi-0.dtd"
   xmlns:inkscape="http://www.inkscape.org/namespaces/inkscape"
   width="32"
   height="32"
   viewBox="0 0 32 32"
   version="1.1"
   id="svg8"
   inkscape:version="0.92.4 5da689c313, 2019-01-14"
   sodipodi:docname="application-x-bittorrent.svg">
  <title
     id="title7895">Antu icon Theme</title>
  <defs
     id="defs2">
    <linearGradient
       inkscape:collect="always"
       id="linearGradient835">
      <stop
         style="stop-color:#7986cb;stop-opacity:1;"
         offset="0"
         id="stop831" />
      <stop
         style="stop-color:#828fd9;stop-opacity:1"
         offset="1"
         id="stop833" />
    </linearGradient>
    <style
       id="current-color-scheme"
       type="text/css">
      .ColorScheme-Text {
        color:#122036;
      }
      </style>
    <style
       type="text/css"
       id="current-color-scheme-53">
      .ColorScheme-Text {
        color:#122036;
      }
      </style>
    <style
       id="current-color-scheme-5"
       type="text/css">
      .ColorScheme-Text {
        color:#122036;
      }
      </style>
    <style
       id="current-color-scheme-2"
       type="text/css">
      .ColorScheme-Text {
        color:#122036;
      }
      </style>
    <style
       id="current-color-scheme-1"
       type="text/css">
      .ColorScheme-Text {
        color:#122036;
      }
      </style>
    <style
       type="text/css"
       id="current-color-scheme-10">
      .ColorScheme-Text {
        color:#122036;
      }
      </style>
    <style
       id="current-color-scheme-0"
       type="text/css">
      .ColorScheme-Text {
        color:#122036;
      }
      </style>
    <style
       id="current-color-scheme-26"
       type="text/css">
      .ColorScheme-Text {
        color:#122036;
      }
      </style>
    <style
       id="current-color-scheme-7"
       type="text/css">
      .ColorScheme-Text {
        color:#122036;
      }
      </style>
    <linearGradient
       inkscape:collect="always"
       xlink:href="#linearGradient835"
       id="linearGradient837"
       x1="3"
       y1="317.39999"
       x2="3"
       y2="290.39999"
       gradientUnits="userSpaceOnUse" />
  </defs>
  <sodipodi:namedview
     id="base"
     pagecolor="#ffffff"
     bordercolor="#666666"
     borderopacity="1.0"
     inkscape:pageopacity="0.0"
     inkscape:pageshadow="2"
     inkscape:zoom="16"
     inkscape:cx="19.865331"
     inkscape:cy="11.673794"
     inkscape:document-units="px"
     inkscape:current-layer="g3958"
     showgrid="true"
     units="px"
     inkscape:window-width="1920"
     inkscape:window-height="1049"
     inkscape:window-x="0"
     inkscape:window-y="0"
     inkscape:window-maximized="1"
     objecttolerance="10"
     gridtolerance="10"
     guidetolerance="10"
     inkscape:snap-bbox="true"
     inkscape:bbox-paths="true"
     inkscape:bbox-nodes="true"
     inkscape:snap-bbox-edge-midpoints="true"
     inkscape:snap-bbox-midpoints="true">
    <inkscape:grid
       type="xygrid"
       id="grid7897"
       empspacing="4" />
  </sodipodi:namedview>
  <metadata
     id="metadata5">
    <rdf:RDF>
      <cc:Work
         rdf:about="">
        <dc:format>image/svg+xml</dc:format>
        <dc:type
           rdf:resource="http://purl.org/dc/dcmitype/StillImage" />
        <dc:title>Antu icon Theme</dc:title>
      </cc:Work>
    </rdf:RDF>
  </metadata>
  <g
     inkscape:label="Capa 1"
     inkscape:groupmode="layer"
     id="layer1"
     transform="translate(0,-282.64999)">
    <g
       id="g3958"
       transform="translate(12,-5.75)">
      <path
         inkscape:connector-curvature="0"
         style="opacity:1;fill:#4a5599;fill-opacity:1;stroke:none;stroke-width:1.99999988;stroke-linecap:round;stroke-linejoin:round;stroke-miterlimit:4;stroke-dasharray:none;stroke-opacity:1"
         d="M -6.9999995,289.39999 H 15 c 1.107999,0 2,0.892 2,2 v 26 c 0,1.108 -0.892001,2 -2,2 H -6.9999995 c -1.108,0 -2,-0.892 -2,-2 v -26 c 0,-1.108 0.892,-2 2,-2 z"
         id="rect827" />
      <path
         inkscape:connector-curvature="0"
         style="opacity:1;fill:url(#linearGradient837);fill-opacity:1;stroke:none;stroke-width:1.99999988;stroke-linecap:round;stroke-linejoin:round;stroke-miterlimit:4;stroke-dasharray:none;stroke-opacity:1"
         d="M -6.9999995,290.39999 H 15 c 0.553999,0 1,0.446 1,1 v 26 c 0,0.554 -0.446001,1 -1,1 H -6.9999995 c -0.554,0 -1,-0.446 -1,-1 v -26 c 0,-0.554 0.446,-1 1,-1 z"
         id="rect829" />
      <path
         inkscape:connector-curvature="0"
         style="opacity:1;vector-effect:none;fill:#4a5599;fill-opacity:1;stroke:none;stroke-width:2.01527119;stroke-linecap:round;stroke-linejoin:round;stroke-miterlimit:4;stroke-dasharray:none;stroke-dashoffset:0;stroke-opacity:1;paint-order:normal"
         d="m 4.117188,300.30057 a 8,8.0530043 0 0 0 -5.773438,2.35938 8,8.0530043 0 0 0 -1.734375,8.77539 A 8,8.0530043 0 0 0 4,316.40604 v -0.006 h 12 v -1 H 4 a 7,7.0463786 0 0 1 -0.699219,-0.0351 7,7.0463786 0 0 1 -0.691406,-0.10547 7,7.0463786 0 0 1 -0.677734,-0.17383 7,7.0463786 0 0 1 -0.658203,-0.24219 7,7.0463786 0 0 1 -0.628907,-0.30664 7,7.0463786 0 0 1 -0.597656,-0.36719 7,7.0463786 0 0 1 -0.556641,-0.42773 7,7.0463786 0 0 1 -0.511718,-0.47852 7,7.0463786 0 0 1 -0.460938,-0.52929 7,7.0463786 0 0 1 -0.408203,-0.57422 7,7.0463786 0 0 1 -0.347656,-0.61133 7,7.0463786 0 0 1 -0.228516,-0.49805 7,7.0463786 0 0 1 -0.236328,-0.66406 7,7.0463786 0 0 1 -0.167969,-0.68359 7,7.0463786 0 0 1 -0.09961,-0.69727 7,7.0463786 0 0 1 -0.0293,-0.70312 7,7.0463786 0 0 1 0.04102,-0.70313 7,7.0463786 0 0 1 0.109375,-0.69727 7,7.0463786 0 0 1 0.177734,-0.67968 7,7.0463786 0 0 1 0.244141,-0.66016 7,7.0463786 0 0 1 0.308594,-0.63281 7,7.0463786 0 0 1 0.371093,-0.59766 7,7.0463786 0 0 1 0.427735,-0.55664 7,7.0463786 0 0 1 0.371093,-0.4043 7,7.0463786 0 0 1 0.517578,-0.47265 7,7.0463786 0 0 1 0.564453,-0.41797 7,7.0463786 0 0 1 0.601563,-0.35938 7,7.0463786 0 0 1 0.634766,-0.29687 7,7.0463786 0 0 1 0.660156,-0.23242 7,7.0463786 0 0 1 0.679687,-0.16406 7,7.0463786 0 0 1 0.69336,-0.0957 7,7.0463786 0 0 1 0.699218,-0.0234 7,7.0463786 0 0 1 0.699219,0.0449 7,7.0463786 0 0 1 0.689453,0.11523 7,7.0463786 0 0 1 0.675782,0.18359 7,7.0463786 0 0 1 0.513672,0.19141 7,7.0463786 0 0 1 0.630859,0.30078 7,7.0463786 0 0 1 0.599609,0.36524 7,7.0463786 0 0 1 0.560547,0.42187 7,7.0463786 0 0 1 0.515625,0.47656 7,7.0463786 0 0 1 0.464844,0.52539 7,7.0463786 0 0 1 0.412109,0.57032 7,7.0463786 0 0 1 0.351563,0.60742 7,7.0463786 0 0 1 0.291015,0.64062 7,7.0463786 0 0 1 0.22461,0.66797 7,7.0463786 0 0 1 0.158203,0.68555 7,7.0463786 0 0 1 0.08984,0.69922 7,7.0463786 0 0 1 0.02149,0.54883 h 1 A 8,8.0530043 0 0 0 7.060547,300.91378 8,8.0530043 0 0 0 4.117188,300.3005 Z m -0.0293,2.02735 a 6,6.039753 0 0 0 -4.330076,1.76757 6,6.039753 0 0 0 -1.300781,6.58204 A 6,6.039753 0 0 0 4,314.40604 v -0.006 h 12 v -1 H 4 a 5,5.0331273 0 0 1 -0.5,-0.0254 5,5.0331273 0 0 1 -0.494141,-0.0742 5,5.0331273 0 0 1 -0.484375,-0.125 5,5.0331273 0 0 1 -0.46875,-0.17187 5,5.0331273 0 0 1 -0.449218,-0.22071 5,5.0331273 0 0 1 -0.425782,-0.26172 5,5.0331273 0 0 1 -0.398437,-0.30468 5,5.0331273 0 0 1 -0.365235,-0.34375 5,5.0331273 0 0 1 -0.330078,-0.37696 5,5.0331273 0 0 1 -0.291015,-0.41015 5,5.0331273 0 0 1 -0.248047,-0.43555 5,5.0331273 0 0 1 -0.164063,-0.35742 5,5.0331273 0 0 1 -0.167968,-0.47266 5,5.0331273 0 0 1 -0.121094,-0.48828 5,5.0331273 0 0 1 -0.07031,-0.49805 5,5.0331273 0 0 1 -0.02148,-0.5039 5,5.0331273 0 0 1 0.0293,-0.50196 5,5.0331273 0 0 1 0.07813,-0.49609 5,5.0331273 0 0 1 0.126953,-0.48633 5,5.0331273 0 0 1 0.173828,-0.47265 5,5.0331273 0 0 1 0.220703,-0.45118 5,5.0331273 0 0 1 0.265625,-0.42773 5,5.0331273 0 0 1 0.304688,-0.39648 5,5.0331273 0 0 1 0.265625,-0.28907 5,5.0331273 0 0 1 0.371094,-0.33789 5,5.0331273 0 0 1 0.402343,-0.29883 5,5.0331273 0 0 1 0.429688,-0.25585 5,5.0331273 0 0 1 0.453125,-0.2129 5,5.0331273 0 0 1 0.470703,-0.16601 5,5.0331273 0 0 1 0.486328,-0.11719 5,5.0331273 0 0 1 0.496094,-0.0684 5,5.0331273 0 0 1 0.498047,-0.0176 5,5.0331273 0 0 1 0.5,0.0332 5,5.0331273 0 0 1 0.492187,0.082 5,5.0331273 0 0 1 0.482422,0.13281 5,5.0331273 0 0 1 0.367187,0.13477 5,5.0331273 0 0 1 0.451172,0.2168 5,5.0331273 0 0 1 0.427735,0.25976 5,5.0331273 0 0 1 0.40039,0.30078 5,5.0331273 0 0 1 0.367188,0.33985 5,5.0331273 0 0 1 0.333984,0.375 5,5.0331273 0 0 1 0.292969,0.4082 5,5.0331273 0 0 1 0.251953,0.43359 5,5.0331273 0 0 1 0.207031,0.45899 5,5.0331273 0 0 1 0.16211,0.47656 5,5.0331273 0 0 1 0.113281,0.48828 5,5.0331273 0 0 1 0.0625,0.5 5,5.0331273 0 0 1 0.01562,0.39259 h 1 a 6,6.039753 0 0 0 -3.703128,-5.58004 6,6.039753 0 0 0 -2.208984,-0.45898 z m -0.0293,2.02734 A 4,4.0265021 0 0 0 1.171875,305.53299 4,4.0265021 0 0 0 0.304688,309.92167 4,4.0265021 0 0 0 4,312.40799 v -0.008 h 12 v -1 H 4 a 3,3.0198765 0 0 1 -0.298828,-0.0156 3,3.0198765 0 0 1 -0.296875,-0.0449 3,3.0198765 0 0 1 -0.291016,-0.0742 3,3.0198765 0 0 1 -0.28125,-0.10351 3,3.0198765 0 0 1 -0.269531,-0.13086 3,3.0198765 0 0 1 -0.255859,-0.1582 3,3.0198765 0 0 1 -0.240235,-0.18164 3,3.0198765 0 0 1 -0.21875,-0.20704 3,3.0198765 0 0 1 -0.197265,-0.22656 3,3.0198765 0 0 1 -0.173829,-0.24609 3,3.0198765 0 0 1 -0.15039,-0.26172 3,3.0198765 0 0 1 -0.09766,-0.21289 3,3.0198765 0 0 1 -0.101563,-0.28516 3,3.0198765 0 0 1 -0.07226,-0.29297 3,3.0198765 0 0 1 -0.04102,-0.29882 A 3,3.0198765 0 0 1 1,308.35905 a 3,3.0198765 0 0 1 0.01758,-0.30274 3,3.0198765 0 0 1 0.04687,-0.29687 3,3.0198765 0 0 1 0.07617,-0.29297 3,3.0198765 0 0 1 0.105469,-0.28125 3,3.0198765 0 0 1 0.130859,-0.27148 3,3.0198765 0 0 1 0.160156,-0.25586 3,3.0198765 0 0 1 0.181641,-0.24024 3,3.0198765 0 0 1 0.160156,-0.17187 3,3.0198765 0 0 1 0.222656,-0.20313 3,3.0198765 0 0 1 0.240235,-0.17969 3,3.0198765 0 0 1 0.257812,-0.15429 3,3.0198765 0 0 1 0.273438,-0.12696 3,3.0198765 0 0 1 0.283203,-0.0996 3,3.0198765 0 0 1 0.291016,-0.0703 3,3.0198765 0 0 1 0.296875,-0.041 3,3.0198765 0 0 1 0.298828,-0.01 3,3.0198765 0 0 1 0.300781,0.0195 3,3.0198765 0 0 1 0.294922,0.0488 3,3.0198765 0 0 1 0.289062,0.0801 3,3.0198765 0 0 1 0.220704,0.082 3,3.0198765 0 0 1 0.271484,0.12891 3,3.0198765 0 0 1 0.255859,0.15625 3,3.0198765 0 0 1 0.240235,0.17969 3,3.0198765 0 0 1 0.220703,0.20508 3,3.0198765 0 0 1 0.199219,0.22461 3,3.0198765 0 0 1 0.175781,0.24414 3,3.0198765 0 0 1 0.152343,0.26172 3,3.0198765 0 0 1 0.125,0.27343 3,3.0198765 0 0 1 0.0957,0.28711 3,3.0198765 0 0 1 0.06836,0.29297 3,3.0198765 0 0 1 0.03711,0.29883 3,3.0198765 0 0 1 0.0098,0.23636 h 1 A 4,4.0265021 0 0 0 5.53125,304.65959 4,4.0265021 0 0 0 4.058594,304.3549 Z"
         id="path835-6" />
      <path
         style="opacity:1;vector-effect:none;fill:#eff0f6;fill-opacity:1;stroke:none;stroke-width:2.01527119;stroke-linecap:round;stroke-linejoin:round;stroke-miterlimit:4;stroke-dasharray:none;stroke-dashoffset:0;stroke-opacity:1;paint-order:normal"
         d="M 16.117188 10.900391 A 8 8.0530043 0 0 0 10.34375 13.259766 A 8 8.0530043 0 0 0 8.609375 22.035156 A 8 8.0530043 0 0 0 16 27.005859 L 16 27 L 28 27 L 28 26 L 16 26 A 7 7.0463786 0 0 1 15.300781 25.964844 A 7 7.0463786 0 0 1 14.609375 25.859375 A 7 7.0463786 0 0 1 13.931641 25.685547 A 7 7.0463786 0 0 1 13.273438 25.443359 A 7 7.0463786 0 0 1 12.644531 25.136719 A 7 7.0463786 0 0 1 12.046875 24.769531 A 7 7.0463786 0 0 1 11.490234 24.341797 A 7 7.0463786 0 0 1 10.978516 23.863281 A 7 7.0463786 0 0 1 10.517578 23.333984 A 7 7.0463786 0 0 1 10.109375 22.759766 A 7 7.0463786 0 0 1 9.7617188 22.148438 A 7 7.0463786 0 0 1 9.5332031 21.650391 A 7 7.0463786 0 0 1 9.296875 20.986328 A 7 7.0463786 0 0 1 9.1289062 20.302734 A 7 7.0463786 0 0 1 9.0292969 19.605469 A 7 7.0463786 0 0 1 9 18.902344 A 7 7.0463786 0 0 1 9.0410156 18.199219 A 7 7.0463786 0 0 1 9.1503906 17.501953 A 7 7.0463786 0 0 1 9.328125 16.822266 A 7 7.0463786 0 0 1 9.5722656 16.162109 A 7 7.0463786 0 0 1 9.8808594 15.529297 A 7 7.0463786 0 0 1 10.251953 14.931641 A 7 7.0463786 0 0 1 10.679688 14.375 A 7 7.0463786 0 0 1 11.050781 13.970703 A 7 7.0463786 0 0 1 11.568359 13.498047 A 7 7.0463786 0 0 1 12.132812 13.080078 A 7 7.0463786 0 0 1 12.734375 12.720703 A 7 7.0463786 0 0 1 13.369141 12.423828 A 7 7.0463786 0 0 1 14.029297 12.191406 A 7 7.0463786 0 0 1 14.708984 12.027344 A 7 7.0463786 0 0 1 15.402344 11.931641 A 7 7.0463786 0 0 1 16.101562 11.908203 A 7 7.0463786 0 0 1 16.800781 11.953125 A 7 7.0463786 0 0 1 17.490234 12.068359 A 7 7.0463786 0 0 1 18.166016 12.251953 A 7 7.0463786 0 0 1 18.679688 12.443359 A 7 7.0463786 0 0 1 19.310547 12.744141 A 7 7.0463786 0 0 1 19.910156 13.109375 A 7 7.0463786 0 0 1 20.470703 13.53125 A 7 7.0463786 0 0 1 20.986328 14.007812 A 7 7.0463786 0 0 1 21.451172 14.533203 A 7 7.0463786 0 0 1 21.863281 15.103516 A 7 7.0463786 0 0 1 22.214844 15.710938 A 7 7.0463786 0 0 1 22.505859 16.351562 A 7 7.0463786 0 0 1 22.730469 17.019531 A 7 7.0463786 0 0 1 22.888672 17.705078 A 7 7.0463786 0 0 1 22.978516 18.404297 A 7 7.0463786 0 0 1 23 18.953125 L 24 18.953125 A 8 8.0530043 0 0 0 19.060547 11.513672 A 8 8.0530043 0 0 0 16.117188 10.900391 z M 16.087891 12.927734 A 6 6.039753 0 0 0 11.757812 14.695312 A 6 6.039753 0 0 0 10.457031 21.277344 A 6 6.039753 0 0 0 16 25.005859 L 16 25 L 28 25 L 28 24 L 16 24 A 5 5.0331273 0 0 1 15.5 23.974609 A 5 5.0331273 0 0 1 15.005859 23.900391 A 5 5.0331273 0 0 1 14.521484 23.775391 A 5 5.0331273 0 0 1 14.052734 23.603516 A 5 5.0331273 0 0 1 13.603516 23.382812 A 5 5.0331273 0 0 1 13.177734 23.121094 A 5 5.0331273 0 0 1 12.779297 22.816406 A 5 5.0331273 0 0 1 12.414062 22.472656 A 5 5.0331273 0 0 1 12.083984 22.095703 A 5 5.0331273 0 0 1 11.792969 21.685547 A 5 5.0331273 0 0 1 11.544922 21.25 A 5 5.0331273 0 0 1 11.380859 20.892578 A 5 5.0331273 0 0 1 11.212891 20.419922 A 5 5.0331273 0 0 1 11.091797 19.931641 A 5 5.0331273 0 0 1 11.021484 19.433594 A 5 5.0331273 0 0 1 11 18.929688 A 5 5.0331273 0 0 1 11.029297 18.427734 A 5 5.0331273 0 0 1 11.107422 17.931641 A 5 5.0331273 0 0 1 11.234375 17.445312 A 5 5.0331273 0 0 1 11.408203 16.972656 A 5 5.0331273 0 0 1 11.628906 16.521484 A 5 5.0331273 0 0 1 11.894531 16.09375 A 5 5.0331273 0 0 1 12.199219 15.697266 A 5 5.0331273 0 0 1 12.464844 15.408203 A 5 5.0331273 0 0 1 12.835938 15.070312 A 5 5.0331273 0 0 1 13.238281 14.771484 A 5 5.0331273 0 0 1 13.667969 14.515625 A 5 5.0331273 0 0 1 14.121094 14.302734 A 5 5.0331273 0 0 1 14.591797 14.136719 A 5 5.0331273 0 0 1 15.078125 14.019531 A 5 5.0331273 0 0 1 15.574219 13.951172 A 5 5.0331273 0 0 1 16.072266 13.933594 A 5 5.0331273 0 0 1 16.572266 13.966797 A 5 5.0331273 0 0 1 17.064453 14.048828 A 5 5.0331273 0 0 1 17.546875 14.181641 A 5 5.0331273 0 0 1 17.914062 14.316406 A 5 5.0331273 0 0 1 18.365234 14.533203 A 5 5.0331273 0 0 1 18.792969 14.792969 A 5 5.0331273 0 0 1 19.193359 15.09375 A 5 5.0331273 0 0 1 19.560547 15.433594 A 5 5.0331273 0 0 1 19.894531 15.808594 A 5 5.0331273 0 0 1 20.1875 16.216797 A 5 5.0331273 0 0 1 20.439453 16.650391 A 5 5.0331273 0 0 1 20.646484 17.109375 A 5 5.0331273 0 0 1 20.808594 17.585938 A 5 5.0331273 0 0 1 20.921875 18.074219 A 5 5.0331273 0 0 1 20.984375 18.574219 A 5 5.0331273 0 0 1 21 18.966797 L 22 18.966797 A 6 6.039753 0 0 0 18.296875 13.386719 A 6 6.039753 0 0 0 16.087891 12.927734 z M 16.058594 14.955078 A 4 4.0265021 0 0 0 13.171875 16.132812 A 4 4.0265021 0 0 0 12.304688 20.521484 A 4 4.0265021 0 0 0 16 23.007812 L 16 23 L 28 23 L 28 22 L 16 22 A 3 3.0198765 0 0 1 15.701172 21.984375 A 3 3.0198765 0 0 1 15.404297 21.939453 A 3 3.0198765 0 0 1 15.113281 21.865234 A 3 3.0198765 0 0 1 14.832031 21.761719 A 3 3.0198765 0 0 1 14.5625 21.630859 A 3 3.0198765 0 0 1 14.306641 21.472656 A 3 3.0198765 0 0 1 14.066406 21.291016 A 3 3.0198765 0 0 1 13.847656 21.083984 A 3 3.0198765 0 0 1 13.650391 20.857422 A 3 3.0198765 0 0 1 13.476562 20.611328 A 3 3.0198765 0 0 1 13.326172 20.349609 A 3 3.0198765 0 0 1 13.228516 20.136719 A 3 3.0198765 0 0 1 13.126953 19.851562 A 3 3.0198765 0 0 1 13.054688 19.558594 A 3 3.0198765 0 0 1 13.013672 19.259766 A 3 3.0198765 0 0 1 13 18.958984 A 3 3.0198765 0 0 1 13.017578 18.65625 A 3 3.0198765 0 0 1 13.064453 18.359375 A 3 3.0198765 0 0 1 13.140625 18.066406 A 3 3.0198765 0 0 1 13.246094 17.785156 A 3 3.0198765 0 0 1 13.376953 17.513672 A 3 3.0198765 0 0 1 13.537109 17.257812 A 3 3.0198765 0 0 1 13.71875 17.017578 A 3 3.0198765 0 0 1 13.878906 16.845703 A 3 3.0198765 0 0 1 14.101562 16.642578 A 3 3.0198765 0 0 1 14.341797 16.462891 A 3 3.0198765 0 0 1 14.599609 16.308594 A 3 3.0198765 0 0 1 14.873047 16.181641 A 3 3.0198765 0 0 1 15.15625 16.082031 A 3 3.0198765 0 0 1 15.447266 16.011719 A 3 3.0198765 0 0 1 15.744141 15.970703 A 3 3.0198765 0 0 1 16.042969 15.960938 A 3 3.0198765 0 0 1 16.34375 15.980469 A 3 3.0198765 0 0 1 16.638672 16.029297 A 3 3.0198765 0 0 1 16.927734 16.109375 A 3 3.0198765 0 0 1 17.148438 16.191406 A 3 3.0198765 0 0 1 17.419922 16.320312 A 3 3.0198765 0 0 1 17.675781 16.476562 A 3 3.0198765 0 0 1 17.916016 16.65625 A 3 3.0198765 0 0 1 18.136719 16.861328 A 3 3.0198765 0 0 1 18.335938 17.085938 A 3 3.0198765 0 0 1 18.511719 17.330078 A 3 3.0198765 0 0 1 18.664062 17.591797 A 3 3.0198765 0 0 1 18.789062 17.865234 A 3 3.0198765 0 0 1 18.884766 18.152344 A 3 3.0198765 0 0 1 18.953125 18.445312 A 3 3.0198765 0 0 1 18.990234 18.744141 A 3 3.0198765 0 0 1 19 18.980469 L 20 18.980469 A 4 4.0265021 0 0 0 17.53125 15.259766 A 4 4.0265021 0 0 0 16.058594 14.955078 z "
         transform="translate(-12,288.39999)"
         id="path835" />
    </g>
  </g>
</svg>
