<?xml version="1.0" encoding="UTF-8" standalone="no"?>
<!-- Created with Inkscape (http://www.inkscape.org/) -->

<svg
   xmlns:dc="http://purl.org/dc/elements/1.1/"
   xmlns:cc="http://creativecommons.org/ns#"
   xmlns:rdf="http://www.w3.org/1999/02/22-rdf-syntax-ns#"
   xmlns:svg="http://www.w3.org/2000/svg"
   xmlns="http://www.w3.org/2000/svg"
   xmlns:xlink="http://www.w3.org/1999/xlink"
   xmlns:sodipodi="http://sodipodi.sourceforge.net/DTD/sodipodi-0.dtd"
   xmlns:inkscape="http://www.inkscape.org/namespaces/inkscape"
   width="32"
   height="32"
   viewBox="0 0 32 32"
   version="1.1"
   id="svg8"
   inkscape:version="0.92.2 2405546, 2018-03-11"
   sodipodi:docname="application-x-executable.svg">
  <title
     id="title7895">Antu icon Theme</title>
  <defs
     id="defs2">
    <linearGradient
       gradientTransform="matrix(3.7795275,0,0,3.7795275,-27.999999,-807.86969)"
       inkscape:collect="always"
       xlink:href="#linearGradient2166"
       id="linearGradient837-3"
       x1="4.2333336"
       y1="296.20624"
       x2="4.2333336"
       y2="289.59164"
       gradientUnits="userSpaceOnUse" />
    <style
       id="current-color-scheme"
       type="text/css">
      .ColorScheme-Text {
        color:#122036;
      }
      </style>
    <style
       id="current-color-scheme-7"
       type="text/css">
      .ColorScheme-Text {
        color:#122036;
      }
      </style>
    <style
       id="current-color-scheme-5"
       type="text/css">
      .ColorScheme-Text {
        color:#122036;
      }
      </style>
    <style
       id="current-color-scheme-0"
       type="text/css">
      .ColorScheme-Text {
        color:#122036;
      }
      </style>
    <style
       id="current-color-scheme-7-9"
       type="text/css">
      .ColorScheme-Text {
        color:#122036;
      }
      </style>
    <style
       id="current-color-scheme-5-3"
       type="text/css">
      .ColorScheme-Text {
        color:#122036;
      }
      </style>
    <style
       id="current-color-scheme-79"
       type="text/css">
      .ColorScheme-Text {
        color:#122036;
      }
      </style>
    <style
       id="current-color-scheme-7-2"
       type="text/css">
      .ColorScheme-Text {
        color:#122036;
      }
      </style>
    <style
       id="current-color-scheme-5-0"
       type="text/css">
      .ColorScheme-Text {
        color:#122036;
      }
      </style>
    <linearGradient
       y2="13"
       x2="16"
       y1="19"
       x1="16"
       gradientTransform="matrix(1.25,0,0,-1.25,-17,313.64999)"
       gradientUnits="userSpaceOnUse"
       id="linearGradient1208"
       xlink:href="#linearGradient1289"
       inkscape:collect="always" />
    <linearGradient
       inkscape:collect="always"
       id="linearGradient1289">
      <stop
         style="stop-color:#94a1a1;stop-opacity:1"
         offset="0"
         id="stop1285" />
      <stop
         style="stop-color:#fcfcfc;stop-opacity:1"
         offset="1"
         id="stop1287" />
    </linearGradient>
    <linearGradient
       y2="291.64999"
       x2="16"
       y1="305.64999"
       x1="16"
       gradientUnits="userSpaceOnUse"
       id="linearGradient1213"
       xlink:href="#linearGradient4582"
       inkscape:collect="always"
       gradientTransform="translate(-13,-5)" />
    <linearGradient
       id="linearGradient4582"
       inkscape:collect="always">
      <stop
         id="stop4578"
         offset="0"
         style="stop-color:#e3e3e3;stop-opacity:1" />
      <stop
         id="stop4580"
         offset="1"
         style="stop-color:#fcfcfc;stop-opacity:1" />
    </linearGradient>
    <linearGradient
       id="linearGradient2166"
       inkscape:collect="always">
      <stop
         id="stop2162"
         offset="0"
         style="stop-color:#2c3240;stop-opacity:1" />
      <stop
         id="stop2164"
         offset="1"
         style="stop-color:#13151a;stop-opacity:1" />
    </linearGradient>
  </defs>
  <sodipodi:namedview
     id="base"
     pagecolor="#ffffff"
     bordercolor="#666666"
     borderopacity="1.0"
     inkscape:pageopacity="0.0"
     inkscape:pageshadow="2"
     inkscape:zoom="11.313708"
     inkscape:cx="16.731823"
     inkscape:cy="23.574075"
     inkscape:document-units="px"
     inkscape:current-layer="layer1"
     showgrid="false"
     units="px"
     inkscape:window-width="1360"
     inkscape:window-height="711"
     inkscape:window-x="0"
     inkscape:window-y="28"
     inkscape:window-maximized="1"
     objecttolerance="10"
     gridtolerance="10"
     guidetolerance="10"
     inkscape:snap-bbox="true"
     inkscape:bbox-paths="true"
     inkscape:bbox-nodes="true"
     inkscape:snap-bbox-edge-midpoints="true"
     inkscape:snap-bbox-midpoints="true">
    <inkscape:grid
       type="xygrid"
       id="grid7897"
       empspacing="4" />
  </sodipodi:namedview>
  <metadata
     id="metadata5">
    <rdf:RDF>
      <cc:Work
         rdf:about="">
        <dc:format>image/svg+xml</dc:format>
        <dc:type
           rdf:resource="http://purl.org/dc/dcmitype/StillImage" />
        <dc:title>Antu icon Theme</dc:title>
      </cc:Work>
    </rdf:RDF>
  </metadata>
  <g
     inkscape:label="Capa 1"
     inkscape:groupmode="layer"
     id="layer1"
     transform="translate(0,-282.64999)">
    <g
       id="g9832"
       transform="translate(28,-2e-5)">
      <path
         inkscape:connector-curvature="0"
         style="opacity:1;fill:#11151b;fill-opacity:1;stroke:none;stroke-width:1.99999988;stroke-linecap:round;stroke-linejoin:round;stroke-miterlimit:4;stroke-dasharray:none;stroke-opacity:1"
         d="m -24,283.65001 24,0 c 1.108,0 2,0.89202 2,2.00001 l 0,26.00001 c 0,1.10797 -0.892,1.99998 -2,1.99998 l -24,0 c -1.108,0 -2,-0.89201 -2,-1.99998 l 0,-26 c 0,-1.108 0.892,-2 2,-2.00002 z"
         id="rect827-8"
         sodipodi:nodetypes="csssssssc" />
      <path
         inkscape:connector-curvature="0"
         style="opacity:1;fill:url(#linearGradient837-3);fill-opacity:1.0;stroke:none;stroke-width:1.99999988;stroke-linecap:round;stroke-linejoin:round;stroke-miterlimit:4;stroke-dasharray:none;stroke-opacity:1"
         d="m -24,284.65003 24,0 c 0.554,0 1,0.44599 1,1 l 0,26 c 0,0.55401 -0.446,1 -1,1 l -24,0 c -0.554,0 -1,-0.44599 -1,-1 l 0,-26 c 0,-0.55399 0.446,-1 1,-1 z"
         id="rect829-6"
         sodipodi:nodetypes="sssssssss" />
    </g>
    <g
       id="layer1-2"
       inkscape:label="Capa 1"
       transform="translate(-29,1)">
      <g
         transform="translate(65.333984,-7.66211)"
         inkscape:label="Capa 1"
         id="layer1-1">
        <g
           id="g1473"
           transform="translate(22,-8)" />
        <g
           id="g1006"
           transform="translate(-36.333984,7.16211)" />
      </g>
    </g>
    <g
       id="layer1-6"
       inkscape:label="Capa 1">
      <g
         transform="translate(13,5)"
         id="g1660">
        <path
           inkscape:connector-curvature="0"
           id="path1204"
           d="m 3,298.64999 c -2.769999,0 -5,-2.23 -5,-5 0,-2.77 2.230001,-5 5,-5 2.769999,0 5,2.23 5,5 0,2.77 -2.230001,5 -5,5 z m 0,-2 c 1.662,0 3,-1.338 3,-3 0,-1.662 -1.338,-3 -3,-3 -1.662,0 -3,1.338 -3,3 0,1.662 1.338,3 3,3 z"
           style="opacity:1;fill:url(#linearGradient1208);fill-opacity:1;stroke:none;stroke-width:2.5;stroke-linecap:round;stroke-linejoin:round;stroke-miterlimit:4;stroke-dasharray:none;stroke-dashoffset:0;stroke-opacity:1" />
        <path
           inkscape:connector-curvature="0"
           id="path825"
           d="m -1,285.64999 c -0.359147,-2.9e-4 -0.690953,0.19205 -0.869141,0.50391 l -3.9999996,7 c -0.175604,0.30741 -0.175604,0.68477 0,0.99218 l 3.9999996,7 c 0.178188,0.31186 0.509994,0.5042 0.869141,0.50391 h 8 c 0.359147,2.9e-4 0.690952,-0.19205 0.869141,-0.50391 l 4,-7 c 0.175604,-0.30741 0.175604,-0.68477 0,-0.99218 l -4,-7 C 7.690952,285.84204 7.359148,285.6497 7,285.64999 Z m 4,4 c 2.216,0 4,1.784 4,4 0,2.216 -1.784,4 -4,4 -2.216,0 -4,-1.784 -4,-4 0,-2.216 1.784,-4 4,-4 z"
           style="color:#122036;fill:url(#linearGradient1213);fill-opacity:1;fill-rule:evenodd;stroke:none" />
      </g>
    </g>
  </g>
</svg>
