<?xml version="1.0" encoding="UTF-8" standalone="no"?>
<!-- Created with Inkscape (http://www.inkscape.org/) -->

<svg
   xmlns:dc="http://purl.org/dc/elements/1.1/"
   xmlns:cc="http://creativecommons.org/ns#"
   xmlns:rdf="http://www.w3.org/1999/02/22-rdf-syntax-ns#"
   xmlns:svg="http://www.w3.org/2000/svg"
   xmlns="http://www.w3.org/2000/svg"
   xmlns:xlink="http://www.w3.org/1999/xlink"
   xmlns:sodipodi="http://sodipodi.sourceforge.net/DTD/sodipodi-0.dtd"
   xmlns:inkscape="http://www.inkscape.org/namespaces/inkscape"
   width="32"
   height="32"
   viewBox="0 0 32 32"
   version="1.1"
   id="svg8"
   inkscape:version="0.91 r13725"
   sodipodi:docname="application-pkcs10.svg">
  <title
     id="title7895">Antu icon Theme</title>
  <defs
     id="defs2">
    <linearGradient
       inkscape:collect="always"
       id="linearGradient4582-3-0">
      <stop
         style="stop-color:#c8d3d4;stop-opacity:1"
         offset="0"
         id="stop4578-5-6" />
      <stop
         style="stop-color:#f3f5f6;stop-opacity:1"
         offset="1"
         id="stop4580-6-3" />
    </linearGradient>
    <linearGradient
       gradientTransform="matrix(3.7795275,0,0,3.7795275,0,-807.86971)"
       inkscape:collect="always"
       xlink:href="#linearGradient4582-3-0"
       id="linearGradient837-3-9-3"
       x1="4.2333331"
       y1="296.73541"
       x2="4.2333331"
       y2="289.0625"
       gradientUnits="userSpaceOnUse" />
  </defs>
  <sodipodi:namedview
     id="base"
     pagecolor="#ffffff"
     bordercolor="#666666"
     borderopacity="1.0"
     inkscape:pageopacity="0.0"
     inkscape:pageshadow="2"
     inkscape:zoom="11.313708"
     inkscape:cx="-10.635302"
     inkscape:cy="16.67159"
     inkscape:document-units="px"
     inkscape:current-layer="layer1"
     showgrid="true"
     units="px"
     inkscape:window-width="1360"
     inkscape:window-height="699"
     inkscape:window-x="0"
     inkscape:window-y="0"
     inkscape:window-maximized="1"
     objecttolerance="10"
     gridtolerance="10"
     guidetolerance="10">
    <inkscape:grid
       type="xygrid"
       id="grid7897"
       empspacing="4" />
  </sodipodi:namedview>
  <metadata
     id="metadata5">
    <rdf:RDF>
      <cc:Work
         rdf:about="">
        <dc:format>image/svg+xml</dc:format>
        <dc:type
           rdf:resource="http://purl.org/dc/dcmitype/StillImage" />
        <dc:title>Antu icon Theme</dc:title>
      </cc:Work>
    </rdf:RDF>
  </metadata>
  <g
     inkscape:label="Capa 1"
     inkscape:groupmode="layer"
     id="layer1"
     transform="translate(0,-282.64999)">
    <path
       id="rect827-8-4-5"
       d="m 5,283.64999 22,0 c 1.108,0 2,0.89202 2,2.00001 l 0,26.00001 c 0,1.10797 -0.892,1.99998 -2,1.99998 l -22,0 c -1.108,0 -2,-0.89201 -2,-1.99998 l 0,-26 c 0,-1.108 0.892,-2 2,-2.00002 z"
       style="opacity:1;fill:#546e7a;fill-opacity:1;stroke:none;stroke-width:1.99999988;stroke-linecap:round;stroke-linejoin:round;stroke-miterlimit:4;stroke-dasharray:none;stroke-opacity:1"
       inkscape:connector-curvature="0" />
    <path
       inkscape:connector-curvature="0"
       style="opacity:1;fill:url(#linearGradient837-3-9-3);fill-opacity:1;stroke:none;stroke-width:1.99999988;stroke-linecap:round;stroke-linejoin:round;stroke-miterlimit:4;stroke-dasharray:none;stroke-opacity:1"
       d="m 6,284.64999 0,1 0,1 2,0 0,-2 -2,0 z m 2,2 0,2 -2,0 0,-2 -1,0 -1,0 0,22 2,0 0,2 2,0 0,-2 2,0 0,2 2,0 0,-2 2,0 0,2 2,0 0,-2 2,0 0,2 2,0 0,-2 2,0 0,2 2,0 0,-2 2,0 0,2 1,0 1,0 0,-22 -2,0 0,-2 -2,0 0,2 -2,0 0,-2 -2,0 0,2 -2,0 0,-2 -2,0 0,2 -2,0 0,-2 -2,0 0,2 -2,0 0,-2 -2,0 z m 2,0 2,0 0,-2 -2,0 0,2 z m 4,0 2,0 0,-2 -2,0 0,2 z m 4,0 2,0 0,-2 -2,0 0,2 z m 4,0 2,0 0,-2 -2,0 0,2 z m 4,0 2,0 0,-1 c 0,-0.55401 -0.446,-1 -1,-1 l -1,0 0,2 z m 0,24 -2,0 0,2 2,0 0,-1 0,-1 z m -4,0 -2,0 0,2 2,0 0,-2 z m -4,0 -2,0 0,2 2,0 0,-2 z m -4,0 -2,0 0,2 2,0 0,-2 z m -4,0 -2,0 0,2 2,0 0,-2 z m -4,0 -2,0 0,1 c 0,0.55401 0.446,1 1,1 l 1,0 0,-2 z m 10,-18 c 2.216,0 4,1.784 4,4 l 0,1 c 0.554,0 1,0.446 1,1 l 0,1 0,1 0,1 0,1 0,1 0,1 c 0,0.554 -0.446,1 -1,1 l -1,0 -1,0 -6,0 c -0.554,0 -1,-0.446 -1,-1 l 0,-6 c 0,-0.554 0.446,-1 1,-1 l 0,-1 c 0,-2.216 1.784,-4 4,-4 z m 0,2 c -1.108,0 -2,0.892 -2,2 l 0,1 4,0 0,-1 c 0,-1.108 -0.892,-2 -2,-2 z m 0,4 c -1.108,0 -2,0.892 -2,2 0,0.741 0.4042,1.37901 1,1.72461 l 0,2.27539 2,0 0,-2.27539 c 0.5958,-0.3456 1,-0.98361 1,-1.72461 0,-1.108 -0.892,-2 -2,-2 z"
       id="rect829-6-77-3" />
  </g>
</svg>
