<?xml version="1.0" encoding="UTF-8" standalone="no"?>
<!-- Created with Inkscape (http://www.inkscape.org/) -->

<svg
   xmlns:dc="http://purl.org/dc/elements/1.1/"
   xmlns:cc="http://creativecommons.org/ns#"
   xmlns:rdf="http://www.w3.org/1999/02/22-rdf-syntax-ns#"
   xmlns:svg="http://www.w3.org/2000/svg"
   xmlns="http://www.w3.org/2000/svg"
   xmlns:xlink="http://www.w3.org/1999/xlink"
   xmlns:sodipodi="http://sodipodi.sourceforge.net/DTD/sodipodi-0.dtd"
   xmlns:inkscape="http://www.inkscape.org/namespaces/inkscape"
   width="32"
   height="32"
   viewBox="0 0 32 32"
   version="1.1"
   id="svg8"
   inkscape:version="0.92.2 5c3e80d, 2017-08-06"
   sodipodi:docname="application-x-bittorrent.svg">
  <title
     id="title7895">Antu icon Theme</title>
  <defs
     id="defs2">
    <linearGradient
       gradientTransform="matrix(3.7795275,0,0,3.7795275,-12,-802.11971)"
       inkscape:collect="always"
       xlink:href="#linearGradient4902"
       id="linearGradient837"
       x1="4.2333336"
       y1="296.20624"
       x2="4.2333336"
       y2="289.59164"
       gradientUnits="userSpaceOnUse" />
    <linearGradient
       id="linearGradient4902"
       inkscape:collect="always">
      <stop
         id="stop4898"
         offset="0"
         style="stop-color:#5563b2;stop-opacity:1" />
      <stop
         id="stop4900"
         offset="1"
         style="stop-color:#7986cb;stop-opacity:1" />
    </linearGradient>
  </defs>
  <sodipodi:namedview
     id="base"
     pagecolor="#ffffff"
     bordercolor="#666666"
     borderopacity="1.0"
     inkscape:pageopacity="0.0"
     inkscape:pageshadow="2"
     inkscape:zoom="7.9999999"
     inkscape:cx="-28.035026"
     inkscape:cy="18.477717"
     inkscape:document-units="px"
     inkscape:current-layer="layer1"
     showgrid="true"
     units="px"
     inkscape:window-width="1366"
     inkscape:window-height="697"
     inkscape:window-x="0"
     inkscape:window-y="0"
     inkscape:window-maximized="1"
     objecttolerance="10"
     gridtolerance="10"
     guidetolerance="10">
    <inkscape:grid
       type="xygrid"
       id="grid7897"
       empspacing="4" />
  </sodipodi:namedview>
  <metadata
     id="metadata5">
    <rdf:RDF>
      <cc:Work
         rdf:about="">
        <dc:format>image/svg+xml</dc:format>
        <dc:type
           rdf:resource="http://purl.org/dc/dcmitype/StillImage" />
        <dc:title>Antu icon Theme</dc:title>
      </cc:Work>
    </rdf:RDF>
  </metadata>
  <g
     inkscape:label="Capa 1"
     inkscape:groupmode="layer"
     id="layer1"
     transform="translate(0,-282.64999)">
    <g
       id="g3958"
       transform="translate(12,-5.75)">
      <path
         inkscape:connector-curvature="0"
         style="opacity:1;fill:#4a5599;fill-opacity:1;stroke:none;stroke-width:1.99999988;stroke-linecap:round;stroke-linejoin:round;stroke-miterlimit:4;stroke-dasharray:none;stroke-opacity:1"
         d="M -6.9999995,289.39999 H 15 c 1.107999,0 2,0.892 2,2 v 26 c 0,1.108 -0.892001,2 -2,2 H -6.9999995 c -1.108,0 -2,-0.892 -2,-2 v -26 c 0,-1.108 0.892,-2 2,-2 z"
         id="rect827" />
      <path
         inkscape:connector-curvature="0"
         style="opacity:1;fill:url(#linearGradient837);fill-opacity:1;stroke:none;stroke-width:1.99999988;stroke-linecap:round;stroke-linejoin:round;stroke-miterlimit:4;stroke-dasharray:none;stroke-opacity:1"
         d="M -6.9999995,290.39999 H 15 c 0.553999,0 1,0.446 1,1 v 26 c 0,0.554 -0.446001,1 -1,1 H -6.9999995 c -0.554,0 -1,-0.446 -1,-1 v -26 c 0,-0.554 0.446,-1 1,-1 z"
         id="rect829" />
      <path
         inkscape:connector-curvature="0"
         style="opacity:1;fill:#4a5599;fill-opacity:1;stroke:none;stroke-width:2.33333325;stroke-linecap:round;stroke-linejoin:round;stroke-miterlimit:4;stroke-dasharray:none;stroke-opacity:1"
         d="m 4.0000005,298.39999 c -3.878,0 -7,3.122 -7,7 0,3.878 3.122,7 7,7 3.878,0 7.0000005,-3.122 7.0000005,-7 0,-3.878 -3.1220005,-7 -7.0000005,-7 z m 0,3 c 0.553999,0 1,0.446 1,1 v 3 h 1 a 1.0001,1.0001 0 0 1 0.707031,1.70703 l -2,2 a 1.0001,1.0001 0 0 1 -1.414062,0 l -2,-2 a 1.0001,1.0001 0 0 1 0.707031,-1.70703 h 1 v -3 c 0,-0.554 0.446001,-1 1,-1 z"
         id="rect7658" />
      <path
         inkscape:connector-curvature="0"
         style="opacity:1;fill:#eff0f6;fill-opacity:1;stroke:none;stroke-width:2.33333325;stroke-linecap:round;stroke-linejoin:round;stroke-miterlimit:4;stroke-dasharray:none;stroke-opacity:1"
         d="m 4.0000005,297.39997 c -3.878,0 -7.0000001,3.12201 -7.0000001,6.99999 0,3.87802 3.1220001,7.00003 7.0000001,7.00003 3.878,0 7.0000005,-3.12201 7.0000005,-7.00003 0,-3.87798 -3.1220005,-6.99999 -7.0000005,-6.99999 z m 0,3 c 0.553999,0 1,0.44603 1,0.99999 v 3 h 1 a 1.0001,1.0001 0 0 1 0.707031,1.70706 l -2,1.99998 a 1.0001,1.0001 0 0 1 -1.414062,0 l -2,-1.99998 a 1.0001,1.0001 0 0 1 0.707031,-1.70706 h 1 v -3 c 0,-0.55396 0.446001,-0.99999 1,-0.99999 z"
         id="rect7658-0" />
    </g>
  </g>
</svg>
