<?xml version="1.0" encoding="UTF-8" standalone="no"?>
<svg
   xmlns:dc="http://purl.org/dc/elements/1.1/"
   xmlns:cc="http://creativecommons.org/ns#"
   xmlns:rdf="http://www.w3.org/1999/02/22-rdf-syntax-ns#"
   xmlns:svg="http://www.w3.org/2000/svg"
   xmlns="http://www.w3.org/2000/svg"
   xmlns:xlink="http://www.w3.org/1999/xlink"
   xmlns:sodipodi="http://sodipodi.sourceforge.net/DTD/sodipodi-0.dtd"
   xmlns:inkscape="http://www.inkscape.org/namespaces/inkscape"
   id="svg1399"
   version="1.1"
   viewBox="0 0 8.4666662 8.4666664"
   height="32"
   width="32"
   sodipodi:docname="image-bmp.svg"
   inkscape:version="0.92.4 5da689c313, 2019-01-14">
  <sodipodi:namedview
     pagecolor="#ffffff"
     bordercolor="#666666"
     borderopacity="1"
     objecttolerance="10"
     gridtolerance="10"
     guidetolerance="10"
     inkscape:pageopacity="0"
     inkscape:pageshadow="2"
     inkscape:window-width="1920"
     inkscape:window-height="1003"
     id="namedview30"
     showgrid="true"
     inkscape:zoom="3.6875"
     inkscape:cx="-33.715482"
     inkscape:cy="7.7287934"
     inkscape:window-x="0"
     inkscape:window-y="0"
     inkscape:window-maximized="1"
     inkscape:current-layer="g2395">
    <inkscape:grid
       type="xygrid"
       id="grid840" />
  </sodipodi:namedview>
  <defs
     id="defs1393">
    <linearGradient
       gradientTransform="matrix(0.26458332,0,0,0.26458332,-1.6692604,219.45491)"
       gradientUnits="userSpaceOnUse"
       y2="302.64999"
       x2="-8.999999"
       y1="309.64999"
       x1="-8.999999"
       id="linearGradient1620"
       xlink:href="#linearGradient1618" />
    <linearGradient
       id="linearGradient1618">
      <stop
         id="stop1614"
         offset="0"
         style="stop-color:#ce946e;stop-opacity:1" />
      <stop
         id="stop1616"
         offset="1"
         style="stop-color:#f3bc97;stop-opacity:1" />
    </linearGradient>
    <linearGradient
       gradientTransform="matrix(0.26458332,0,0,0.26458332,-1.6692604,219.45491)"
       gradientUnits="userSpaceOnUse"
       y2="304.64999"
       x2="-19"
       y1="308.64999"
       x1="-19"
       id="linearGradient1628"
       xlink:href="#linearGradient1626" />
    <linearGradient
       id="linearGradient1626">
      <stop
         id="stop1622"
         offset="0"
         style="stop-color:#d0a88e;stop-opacity:1" />
      <stop
         id="stop1624"
         offset="1"
         style="stop-color:#ffd8bf;stop-opacity:1" />
    </linearGradient>
    <linearGradient
       gradientUnits="userSpaceOnUse"
       y2="289.64999"
       x2="17"
       y1="306.64999"
       x1="17"
       id="linearGradient1612"
       xlink:href="#linearGradient1634"
       gradientTransform="matrix(0.26458332,0,0,0.26458332,-9.0775933,219.71949)" />
    <linearGradient
       id="linearGradient1634">
      <stop
         id="stop1630"
         offset="0"
         style="stop-color:#348be7;stop-opacity:1" />
      <stop
         id="stop1632"
         offset="1"
         style="stop-color:#46a4ff;stop-opacity:1" />
    </linearGradient>
    <linearGradient
       gradientTransform="translate(-9.077593,5.9706421)"
       xlink:href="#linearGradient4846"
       id="linearGradient837"
       x1="4.2333336"
       y1="296.20624"
       x2="4.2333336"
       y2="289.59164"
       gradientUnits="userSpaceOnUse" />
    <linearGradient
       id="linearGradient4846">
      <stop
         id="stop4842"
         offset="0"
         style="stop-color:#e4efef;stop-opacity:1" />
      <stop
         id="stop4844"
         offset="1"
         style="stop-color:#fcfcfc;stop-opacity:1" />
    </linearGradient>
  </defs>
  <metadata
     id="metadata1396">
    <rdf:RDF>
      <cc:Work
         rdf:about="">
        <dc:format>image/svg+xml</dc:format>
        <dc:type
           rdf:resource="http://purl.org/dc/dcmitype/StillImage" />
        <dc:title />
      </cc:Work>
    </rdf:RDF>
  </metadata>
  <g
     transform="translate(0,-288.53338)"
     id="layer1">
    <g
       transform="translate(9.0775932,-5.9705869)"
       id="g2395">
      <path
         style="opacity:1;fill:#90a4ae;fill-opacity:1;stroke:none;stroke-width:0.52916664;stroke-linecap:round;stroke-linejoin:round;stroke-miterlimit:4;stroke-dasharray:none;stroke-opacity:1"
         d="m -7.7546764,294.76855 h 5.8208328 c 0.2931583,0 0.5291666,0.23601 0.5291666,0.52917 v 6.87916 c 0,0.29316 -0.2360083,0.52917 -0.5291666,0.52917 h -5.8208328 c -0.2931583,0 -0.5291667,-0.23601 -0.5291667,-0.52917 v -6.87916 c 0,-0.29316 0.2360084,-0.52917 0.5291667,-0.52917 z"
         id="rect827" />
      <path
         style="opacity:1;fill:url(#linearGradient837);fill-opacity:1;stroke:none;stroke-width:0.52916664;stroke-linecap:round;stroke-linejoin:round;stroke-miterlimit:4;stroke-dasharray:none;stroke-opacity:1"
         d="m -7.7546764,295.03313 h 5.8208328 c 0.1465791,0 0.2645833,0.11801 0.2645833,0.26459 v 6.87916 c 0,0.14658 -0.1180042,0.26459 -0.2645833,0.26459 h -5.8208328 c -0.1465792,0 -0.2645833,-0.11801 -0.2645833,-0.26459 v -6.87916 c 0,-0.14658 0.1180041,-0.26459 0.2645833,-0.26459 z"
         id="rect829" />
      <path
         id="rect6732"
         d="m -7.4900934,295.5623 v 6.35 h 5.2916664 v -6.35 z"
         style="fill:url(#linearGradient1612);fill-opacity:1;stroke:none;stroke-width:0.21166666;stroke-linecap:round;stroke-linejoin:round;stroke-miterlimit:4;stroke-dasharray:none;stroke-opacity:1" />
      <path
         style="fill:url(#linearGradient1628);fill-opacity:1;stroke:none;stroke-width:0.26458332px;stroke-linecap:butt;stroke-linejoin:miter;stroke-opacity:1"
         d="m -7.4900934,300.58938 c 2.2647226,-1.51908 1.587488,0.79502 5.2916664,0 v 0.79375 h -5.2916664 z"
         id="path1528"
         inkscape:connector-curvature="0" />
      <path
         style="fill:url(#linearGradient1620);fill-opacity:1;stroke:none;stroke-width:0.26458332px;stroke-linecap:butt;stroke-linejoin:miter;stroke-opacity:1"
         d="m -2.1984267,300.58938 c -2.3812502,-2.64583 -2.9104168,0.52917 -5.2916667,0.52917 l -3e-7,0.79375 h 5.2916667 z"
         id="path1528-4"
         inkscape:connector-curvature="0"
         sodipodi:nodetypes="ccccc" />
      <path
         style="opacity:1;vector-effect:none;fill:#dae9f8;fill-opacity:1;stroke:none;stroke-width:0.52916664;stroke-linecap:round;stroke-linejoin:round;stroke-miterlimit:4;stroke-dasharray:none;stroke-dashoffset:0;stroke-opacity:1;paint-order:normal"
         d="m -5.7651342,296.36483 a 1.0583333,1.0583333 0 0 0 -0.9312092,1.04955 1.0583333,1.0583333 0 0 0 1.0583333,1.05834 1.0583333,1.0583333 0 0 0 0.920874,-0.53795 1.0583333,1.0583333 0 0 1 -0.052193,0.006 1.0583333,1.0583333 0 0 1 -0.074931,0.003 1.0583333,1.0583333 0 0 1 -0.10542,-0.005 1.0583333,1.0583333 0 0 1 -0.1049031,-0.016 1.0583333,1.0583333 0 0 1 -0.1023194,-0.0258 1.0583333,1.0583333 0 0 1 -0.099735,-0.0367 1.0583333,1.0583333 0 0 1 -0.095085,-0.046 1.0583333,1.0583333 0 0 1 -0.089917,-0.0553 1.0583333,1.0583333 0 0 1 -0.084233,-0.0641 1.0583333,1.0583333 0 0 1 -0.077515,-0.0718 1.0583333,1.0583333 0 0 1 -0.069763,-0.0796 1.0583333,1.0583333 0 0 1 -0.061495,-0.0858 1.0583333,1.0583333 0 0 1 -0.05271,-0.092 1.0583333,1.0583333 0 0 1 -0.043408,-0.0966 1.0583333,1.0583333 0 0 1 -0.033073,-0.10026 1.0583333,1.0583333 0 0 1 -0.023254,-0.10335 1.0583333,1.0583333 0 0 1 -0.01292,-0.1049 1.0583333,1.0583333 0 0 1 -0.00259,-0.0749 1.0583333,1.0583333 0 0 1 0.00517,-0.10542 1.0583333,1.0583333 0 0 1 0.016021,-0.10491 1.0583333,1.0583333 0 0 1 0.025839,-0.10231 1.0583333,1.0583333 0 0 1 0.03669,-0.0997 1.0583333,1.0583333 0 0 1 0.045992,-0.0951 1.0583333,1.0583333 0 0 1 0.00775,-0.0129 z"
         id="path1372" />
      <path
         style="fill:#000000;fill-opacity:0.20171676;stroke:none;stroke-width:0.21166666;stroke-linecap:round;stroke-linejoin:round;stroke-miterlimit:4;stroke-dasharray:none;stroke-opacity:1"
         d="m -7.4900934,295.5623 v 6.35 h 5.2916664 v -6.35 z m 0.2645833,0.26458 h 4.7624998 v 5.82084 h -4.7624998 z"
         id="rect6732-8" />
    </g>
  </g>
</svg>
