<?xml version="1.0" encoding="UTF-8" standalone="no"?>
<!-- Created with Inkscape (http://www.inkscape.org/) -->

<svg
   xmlns:dc="http://purl.org/dc/elements/1.1/"
   xmlns:cc="http://creativecommons.org/ns#"
   xmlns:rdf="http://www.w3.org/1999/02/22-rdf-syntax-ns#"
   xmlns:svg="http://www.w3.org/2000/svg"
   xmlns="http://www.w3.org/2000/svg"
   xmlns:xlink="http://www.w3.org/1999/xlink"
   xmlns:sodipodi="http://sodipodi.sourceforge.net/DTD/sodipodi-0.dtd"
   xmlns:inkscape="http://www.inkscape.org/namespaces/inkscape"
   width="32"
   height="32"
   viewBox="0 0 32 32"
   version="1.1"
   id="svg8"
   inkscape:version="0.92.2 5c3e80d, 2017-08-06"
   sodipodi:docname="video-x-msvideo.svg">
  <title
     id="title7895">Antu icon Theme</title>
  <defs
     id="defs2">
    <linearGradient
       gradientUnits="userSpaceOnUse"
       y2="289.59164"
       x2="4.2333336"
       y1="296.20624"
       x1="4.2333336"
       id="linearGradient837"
       xlink:href="#linearGradient4580"
       inkscape:collect="always"
       gradientTransform="matrix(3.7795275,0,0,3.7795275,-28,-826.24471)" />
    <linearGradient
       inkscape:collect="always"
       id="linearGradient4580">
      <stop
         style="stop-color:#06111c;stop-opacity:1"
         offset="0"
         id="stop4576" />
      <stop
         style="stop-color:#15272f;stop-opacity:1"
         offset="1"
         id="stop4578-6" />
    </linearGradient>
    <linearGradient
       inkscape:collect="always"
       xlink:href="#linearGradient842"
       id="linearGradient3347"
       gradientUnits="userSpaceOnUse"
       gradientTransform="translate(-55.958655,-27.37467)"
       x1="43.958656"
       y1="317.64966"
       x2="43.958656"
       y2="297.64966" />
    <linearGradient
       inkscape:collect="always"
       id="linearGradient842">
      <stop
         style="stop-color:#566066;stop-opacity:1"
         offset="0"
         id="stop838" />
      <stop
         style="stop-color:#6d7a81;stop-opacity:1"
         offset="1"
         id="stop840" />
    </linearGradient>
  </defs>
  <sodipodi:namedview
     id="base"
     pagecolor="#ffffff"
     bordercolor="#666666"
     borderopacity="1.0"
     inkscape:pageopacity="0.0"
     inkscape:pageshadow="2"
     inkscape:zoom="0.99999999"
     inkscape:cx="121.81934"
     inkscape:cy="193.51696"
     inkscape:document-units="px"
     inkscape:current-layer="layer1"
     showgrid="true"
     units="px"
     inkscape:window-width="1366"
     inkscape:window-height="697"
     inkscape:window-x="0"
     inkscape:window-y="0"
     inkscape:window-maximized="1"
     objecttolerance="10"
     gridtolerance="10"
     guidetolerance="10">
    <inkscape:grid
       type="xygrid"
       id="grid7897"
       empspacing="4" />
  </sodipodi:namedview>
  <metadata
     id="metadata5">
    <rdf:RDF>
      <cc:Work
         rdf:about="">
        <dc:format>image/svg+xml</dc:format>
        <dc:type
           rdf:resource="http://purl.org/dc/dcmitype/StillImage" />
        <dc:title>Antu icon Theme</dc:title>
      </cc:Work>
    </rdf:RDF>
  </metadata>
  <g
     inkscape:label="Capa 1"
     inkscape:groupmode="layer"
     id="layer1"
     transform="translate(0,-282.64999)">
    <g
       id="g1515"
       transform="translate(28,18.375)">
      <path
         id="rect827"
         d="m -23,265.27499 h 21.9999995 c 1.108,0 2,0.892 2,2 v 26 c 0,1.108 -0.892,2 -2,2 H -23 c -1.108,0 -2,-0.892 -2,-2 v -26 c 0,-1.108 0.892,-2 2,-2 z"
         style="opacity:1;fill:#02070c;fill-opacity:0.99215686;stroke:none;stroke-width:1.99999988;stroke-linecap:round;stroke-linejoin:round;stroke-miterlimit:4;stroke-dasharray:none;stroke-opacity:1"
         inkscape:connector-curvature="0" />
      <path
         id="rect829"
         d="m -23,266.27499 h 21.9999995 c 0.554,0 1,0.446 1,1 v 26 c 0,0.554 -0.446,1 -1,1 H -23 c -0.553999,0 -1,-0.446 -1,-1 v -26 c 0,-0.554 0.446001,-1 1,-1 z"
         style="opacity:1;fill:url(#linearGradient837);fill-opacity:1;stroke:none;stroke-width:1.99999988;stroke-linecap:round;stroke-linejoin:round;stroke-miterlimit:4;stroke-dasharray:none;stroke-opacity:1"
         inkscape:connector-curvature="0" />
      <path
         id="path1665-9-7-9-7"
         d="m -23,268.27499 v 4 h 2 v -4 z m 0,5 v 4 h 2 v -4 z m 0,5 v 4 h 2 v -4 z m 0,5 v 4 h 2 v -4 z m 0,5 v 4 h 2 v -4 z"
         style="opacity:1;fill:#03080d;fill-opacity:0.99215686;stroke:none;stroke-width:2.23359871;stroke-linecap:round;stroke-linejoin:round;stroke-miterlimit:4;stroke-dasharray:none;stroke-opacity:1"
         inkscape:connector-curvature="0"
         sodipodi:nodetypes="ccccccccccccccccccccccccc" />
      <path
         id="path1665-9-3-9"
         d="m -23,268.27499 v 3 h 2 v -3 z m 0,5 v 3 h 2 v -3 z m 0,5 v 3 h 2 v -3 z m 0,5 v 3 h 2 v -3 z m 0,5 v 3 h 2 v -3 z"
         style="opacity:1;fill:#f1f2f3;fill-opacity:1;stroke:none;stroke-width:2.23359871;stroke-linecap:round;stroke-linejoin:round;stroke-miterlimit:4;stroke-dasharray:none;stroke-opacity:1"
         inkscape:connector-curvature="0"
         sodipodi:nodetypes="ccccccccccccccccccccccccc" />
      <path
         id="path1665-9-7-9-7-2"
         d="m -2.9999995,268.27499 v 4 h 2 v -4 z m 0,5 v 4 h 2 v -4 z m 0,5 v 4 h 2 v -4 z m 0,5 v 4 h 2 v -4 z m 0,5 v 4 h 2 v -4 z"
         style="opacity:1;fill:#03080d;fill-opacity:0.99215686;stroke:none;stroke-width:2.23359871;stroke-linecap:round;stroke-linejoin:round;stroke-miterlimit:4;stroke-dasharray:none;stroke-opacity:1"
         inkscape:connector-curvature="0"
         sodipodi:nodetypes="ccccccccccccccccccccccccc" />
      <path
         id="path1665-9-3-9-0"
         d="m -2.9999995,268.27499 v 3 h 2 v -3 z m 0,5 v 3 h 2 v -3 z m 0,5 v 3 h 2 v -3 z m 0,5 v 3 h 2 v -3 z m 0,5 v 3 h 2 v -3 z"
         style="opacity:1;fill:#f1f2f3;fill-opacity:1;stroke:none;stroke-width:2.23359871;stroke-linecap:round;stroke-linejoin:round;stroke-miterlimit:4;stroke-dasharray:none;stroke-opacity:1"
         inkscape:connector-curvature="0"
         sodipodi:nodetypes="ccccccccccccccccccccccccc" />
      <path
         inkscape:connector-curvature="0"
         id="rect3210"
         d="m -18.000001,268.27499 h 12.0000025 c 0.553999,0 0.999999,0.446 0.999999,1 v 22 c 0,0.554 -0.446,1 -0.999999,1 H -18.000001 c -0.553999,0 -0.999999,-0.446 -0.999999,-1 v -22 c 0,-0.554 0.446,-1 0.999999,-1 z"
         style="fill:url(#linearGradient3347);fill-opacity:1.0;stroke:none;stroke-width:0.80000001;stroke-linecap:round;stroke-linejoin:round;stroke-miterlimit:4;stroke-dasharray:none;stroke-opacity:1" />
      <path
         style="color:#000000;font-style:normal;font-variant:normal;font-weight:normal;font-stretch:normal;font-size:medium;line-height:normal;font-family:sans-serif;font-variant-ligatures:normal;font-variant-position:normal;font-variant-caps:normal;font-variant-numeric:normal;font-variant-alternates:normal;font-feature-settings:normal;text-indent:0;text-align:start;text-decoration:none;text-decoration-line:none;text-decoration-style:solid;text-decoration-color:#000000;letter-spacing:normal;word-spacing:normal;text-transform:none;writing-mode:lr-tb;direction:ltr;text-orientation:mixed;dominant-baseline:auto;baseline-shift:baseline;text-anchor:start;white-space:normal;shape-padding:0;clip-rule:nonzero;display:inline;overflow:visible;visibility:visible;opacity:1;isolation:auto;mix-blend-mode:normal;color-interpolation:sRGB;color-interpolation-filters:linearRGB;solid-color:#000000;solid-opacity:1;vector-effect:none;fill:#394349;fill-opacity:1;fill-rule:nonzero;stroke:none;stroke-width:2;stroke-linecap:butt;stroke-linejoin:miter;stroke-miterlimit:4;stroke-dasharray:none;stroke-dashoffset:0;stroke-opacity:1;color-rendering:auto;image-rendering:auto;shape-rendering:auto;text-rendering:auto;enable-background:accumulate"
         d="m -15,276.27499 c -0.54768,0.01 -0.988264,0.4522 -0.988281,1 v 8 c 1.71e-4,0.7986 0.890134,1.2748 1.554688,0.832 l 6.0000005,-4 c 0.593588,-0.3959 0.593588,-1.2682 0,-1.6641 l -6.0000005,-4 c -0.16758,-0.1117 -0.364998,-0.1703 -0.566407,-0.1679 z"
         id="Triangle-1-28-9"
         inkscape:connector-curvature="0"
         sodipodi:nodetypes="cccccccc" />
      <path
         style="color:#000000;font-style:normal;font-variant:normal;font-weight:normal;font-stretch:normal;font-size:medium;line-height:normal;font-family:sans-serif;font-variant-ligatures:normal;font-variant-position:normal;font-variant-caps:normal;font-variant-numeric:normal;font-variant-alternates:normal;font-feature-settings:normal;text-indent:0;text-align:start;text-decoration:none;text-decoration-line:none;text-decoration-style:solid;text-decoration-color:#000000;letter-spacing:normal;word-spacing:normal;text-transform:none;writing-mode:lr-tb;direction:ltr;text-orientation:mixed;dominant-baseline:auto;baseline-shift:baseline;text-anchor:start;white-space:normal;shape-padding:0;clip-rule:nonzero;display:inline;overflow:visible;visibility:visible;opacity:1;isolation:auto;mix-blend-mode:normal;color-interpolation:sRGB;color-interpolation-filters:linearRGB;solid-color:#000000;solid-opacity:1;vector-effect:none;fill:#ffffff;fill-opacity:1;fill-rule:nonzero;stroke:none;stroke-width:2;stroke-linecap:butt;stroke-linejoin:miter;stroke-miterlimit:4;stroke-dasharray:none;stroke-dashoffset:0;stroke-opacity:1;color-rendering:auto;image-rendering:auto;shape-rendering:auto;text-rendering:auto;enable-background:accumulate"
         d="m -15.011718,275.27429 c -0.54768,0.006 -0.988264,0.45228 -0.988281,1 v 8 c 1.71e-4,0.79859 0.890134,1.27487 1.554687,0.83203 l 6.0000005,-4 c 0.593588,-0.39588 0.593588,-1.26818 0,-1.66406 l -6.0000005,-4 c -0.167579,-0.11175 -0.364998,-0.1703 -0.566406,-0.16797 z"
         id="Triangle-1-28"
         inkscape:connector-curvature="0"
         sodipodi:nodetypes="cccccccc" />
    </g>
    <path
       style="fill:#394349;fill-opacity:1;stroke:none;stroke-width:0.80000001;stroke-linecap:round;stroke-linejoin:round;stroke-miterlimit:4;stroke-dasharray:none;stroke-opacity:1"
       d="m 17,305.64999 v 2 h 2 v -2 z m 3,0 v 2 h 2 v -2 z m -3,3 v 2 h 2 v -2 z m 3,0 v 2 h 2 v -2 z"
       id="rect868"
       inkscape:connector-curvature="0" />
    <path
       inkscape:connector-curvature="0"
       style="fill:#ffffff;fill-opacity:1;stroke:none;stroke-width:0.80000001;stroke-linecap:round;stroke-linejoin:round;stroke-miterlimit:4;stroke-dasharray:none;stroke-opacity:1"
       d="m 17,304.64999 v 2 h 2 v -2 z m 3,0 v 2 h 2 v -2 z m -3,3 v 2 h 2 v -2 z m 3,0 v 2 h 2 v -2 z"
       id="rect868-0" />
  </g>
</svg>
