<svg 
    height="22" 
    viewBox="0 0 5.8208332 5.8208335"
    width="22" 
    xmlns="http://www.w3.org/2000/svg">
    <defs id="defs2">
    <style
       type="text/css"
       id="current-color-scheme">
      .ColorScheme-Text {
        color:#36404d;
      }
      </style>
    </defs>
    <path 
        d="m4 2c-.5540031 0-1 .4459969-1 1v14 3c0 .554003.4459969 1 1 1h14c.554003 0 1-.445997 1-1v-3-14c0-.5540031-.445997-1-1-1zm2 2c.5539994 0 1 .4459969 1 1s-.4460006 1-1 1-1-.4459969-1-1 .4460006-1 1-1zm10 0c.553999 0 1 .4459969 1 1s-.446001 1-1 1-1-.4459969-1-1 .446001-1 1-1zm-8 1h6v3h-6zm1 1v1h4v-1zm-3 3c.5539994 0 1 .4459969 1 1 0 .554003-.4460006 1-1 1s-1-.445997-1-1c0-.5540031.4460006-1 1-1zm10 0c.553999 0 1 .4459969 1 1 0 .554003-.446001 1-1 1s-1-.445997-1-1c0-.5540031.446001-1 1-1zm-10 5c.5539994 0 1 .445997 1 1s-.4460006 1-1 1-1-.445997-1-1 .4460006-1 1-1zm10 0c.553999 0 1 .445997 1 1s-.446001 1-1 1-1-.445997-1-1 .446001-1 1-1zm-10.9999998 4.000013h6.9999998v1 1h-1v-1h-1v1h-.9999998v-1h-1v1h-1v-1h-1v1h-1zm7.9999998 0h4v2h-1v-1h-1v1h-2v-1z" 
        fill="currentColor" 
        transform="matrix(.26458333 0 0 .26458333 0 -.000003)"
        style="fill:currentColor;fill-opacity:1;stroke:none"
        class="ColorScheme-Text"/>
</svg>
