<?xml version="1.0" encoding="UTF-8" standalone="no"?>
<!-- Created with Inkscape (http://www.inkscape.org/) -->

<svg
   xmlns:dc="http://purl.org/dc/elements/1.1/"
   xmlns:cc="http://creativecommons.org/ns#"
   xmlns:rdf="http://www.w3.org/1999/02/22-rdf-syntax-ns#"
   xmlns:svg="http://www.w3.org/2000/svg"
   xmlns="http://www.w3.org/2000/svg"
   xmlns:xlink="http://www.w3.org/1999/xlink"
   xmlns:sodipodi="http://sodipodi.sourceforge.net/DTD/sodipodi-0.dtd"
   xmlns:inkscape="http://www.inkscape.org/namespaces/inkscape"
   width="48"
   height="48"
   viewBox="0 0 48 48"
   version="1.1"
   id="svg8"
   inkscape:version="0.92.2 2405546, 2018-03-11"
   sodipodi:docname="accessories-dictionary.svg">
  <title
     id="title7895">Antu icon Theme</title>
  <defs
     id="defs2">
    <linearGradient
       inkscape:collect="always"
       xlink:href="#linearGradient4582"
       id="linearGradient959"
       x1="24"
       y1="309.27499"
       x2="24"
       y2="273.64999"
       gradientUnits="userSpaceOnUse"
       gradientTransform="translate(-2)" />
    <linearGradient
       id="linearGradient4582"
       inkscape:collect="always">
      <stop
         id="stop4578"
         offset="0"
         style="stop-color:#dd366b;stop-opacity:1" />
      <stop
         id="stop4580"
         offset="1"
         style="stop-color:#f25183;stop-opacity:1" />
    </linearGradient>
  </defs>
  <sodipodi:namedview
     id="base"
     pagecolor="#ffffff"
     bordercolor="#666666"
     borderopacity="1.0"
     inkscape:pageopacity="0.0"
     inkscape:pageshadow="2"
     inkscape:zoom="4.0000001"
     inkscape:cx="71.499937"
     inkscape:cy="-4.6908601"
     inkscape:document-units="px"
     inkscape:current-layer="g1066"
     showgrid="true"
     units="px"
     inkscape:window-width="1360"
     inkscape:window-height="711"
     inkscape:window-x="0"
     inkscape:window-y="28"
     inkscape:window-maximized="1"
     objecttolerance="10"
     gridtolerance="10"
     guidetolerance="10">
    <inkscape:grid
       type="xygrid"
       id="grid7897"
       empspacing="4" />
  </sodipodi:namedview>
  <metadata
     id="metadata5">
    <rdf:RDF>
      <cc:Work
         rdf:about="">
        <dc:format>image/svg+xml</dc:format>
        <dc:type
           rdf:resource="http://purl.org/dc/dcmitype/StillImage" />
        <dc:title>Antu icon Theme</dc:title>
      </cc:Work>
    </rdf:RDF>
  </metadata>
  <g
     inkscape:label="Capa 1"
     inkscape:groupmode="layer"
     id="layer1"
     transform="translate(0,-266.64999)">
    <g
       id="g1066">
      <g
         id="g1069">
        <path
           id="rect901"
           d="m 31.999996,270.64999 h 12.000008 c 1.107998,0 1.999996,0.892 1.999996,2 V 308.65 c 0,1.108 -0.891998,1.99999 -1.999996,1.99999 H 31.999996 C 30.891998,310.64999 30,309.758 30,308.65 v -36.00001 c 0,-1.108 0.891998,-2 1.999996,-2 z"
           style="opacity:1;fill:#90a4ae;fill-opacity:0.98039216;stroke:none;stroke-width:4;stroke-linecap:round;stroke-linejoin:round;stroke-miterlimit:4;stroke-dasharray:none;stroke-opacity:1" />
        <path
           id="rect903"
           d="m 32,271.64999 h 12 c 0.554,0 1,0.446 1,1 v 36 c 0,0.554 -0.446,1 -1,1 H 32 c -0.554,0 -1,-0.446 -1,-1 v -36 c 0,-0.554 0.446,-1 1,-1 z"
           style="opacity:1;fill:#f1f5f5;fill-opacity:1;stroke:none;stroke-width:4;stroke-linecap:round;stroke-linejoin:round;stroke-miterlimit:4;stroke-dasharray:none;stroke-opacity:1" />
        <path
           inkscape:connector-curvature="0"
           id="rect915"
           d="m 31,273.64999 v 2 h 12 v -2 z m 0,4 v 2 h 12 v -2 z m 0,4 v 2 h 12 v -2 z m 0,4 v 2 h 12 v -2 z m 0,4 v 2 h 12 v -2 z m 0,4 v 2 h 12 v -2 z m 0,4 v 2 h 12 v -2 z m 0,4 v 2 h 12 v -2 z m 0,4 v 2 h 12 v -2 z"
           style="opacity:1;fill:#90a4ae;fill-opacity:0.98039216;stroke:none;stroke-width:4;stroke-linecap:round;stroke-linejoin:round;stroke-miterlimit:4;stroke-dasharray:none;stroke-opacity:1" />
        <path
           inkscape:connector-curvature="0"
           id="rect900"
           d="m 6,268.64999 c -1.662,0 -3,1.338 -3,3 v 10 3 25 c 0,1.662 1.338,3 3,3 h 32 c 1.662,0 3,-1.338 3,-3 v -22 -3 -3 -10 c 0,-1.662 -1.338,-3 -3,-3 z"
           style="opacity:1;fill:#ba205b;fill-opacity:1;stroke:none;stroke-width:1;stroke-linecap:round;stroke-linejoin:round;stroke-miterlimit:4;stroke-dasharray:none;stroke-opacity:1" />
        <path
           inkscape:connector-curvature="0"
           id="rect900-3"
           d="m 6,269.64999 c -1.108,0 -2,0.892 -2,2 v 9 1 3 2 3 20 c 0,1.108 0.892,2 2,2 h 2 v -42 z m 3,0 v 42 h 29 c 1.108,0 2,-0.892 2,-2 v -20 -5 -3 -1 -9 c 0,-1.108 -0.892,-2 -2,-2 z"
           style="opacity:1;fill:url(#linearGradient959);fill-opacity:1;stroke:none;stroke-width:0.95454556;stroke-linecap:round;stroke-linejoin:round;stroke-miterlimit:4;stroke-dasharray:none;stroke-opacity:1" />
        <g
           style="fill:#ba205b;fill-opacity:1"
           inkscape:label="Capa 1"
           id="layer1-6-5-2"
           transform="matrix(1.4666667,0,0,1.4666667,1.266666,-146.37001)">
          <path
             sodipodi:nodetypes="ccccccccccccc"
             inkscape:connector-curvature="0"
             id="path1022-9"
             transform="matrix(0.68181817,0,0,0.68181817,-0.86363596,282.28636)"
             d="m 21,15 -8,16.999996 5,2 L 20,29 h 8 l 2,5 5,-2 -8,-17 z m 3,4 3,6 h -6 z"
             style="fill:#ba205b;fill-opacity:1;stroke:none;stroke-width:1px;stroke-linecap:butt;stroke-linejoin:miter;stroke-opacity:1" />
        </g>
        <g
           inkscape:label="Capa 1"
           id="layer1-6-5"
           transform="matrix(1.4666667,0,0,1.4666667,1.266666,-147.37001)">
          <path
             sodipodi:nodetypes="ccccccccccccc"
             inkscape:connector-curvature="0"
             id="path1022"
             transform="matrix(0.68181817,0,0,0.68181817,-0.86363596,282.28636)"
             d="m 21,15 -8,16.999996 5,2 L 20,29 h 8 l 2,5 5,-2 -8,-17 z m 3,4 3,6 h -6 z"
             style="fill:#ffffff;fill-opacity:1;stroke:none;stroke-width:1px;stroke-linecap:butt;stroke-linejoin:miter;stroke-opacity:1" />
        </g>
      </g>
    </g>
  </g>
</svg>
