<?xml version="1.0" encoding="UTF-8" standalone="no"?>
<!-- Created with Inkscape (http://www.inkscape.org/) -->

<svg
   width="48"
   height="48"
   viewBox="0 0 12.7 12.7"
   version="1.1"
   id="svg1866"
   inkscape:version="1.2 (dc2aedaf03, 2022-05-15)"
   sodipodi:docname="Anydesk48.svg"
   xmlns:inkscape="http://www.inkscape.org/namespaces/inkscape"
   xmlns:sodipodi="http://sodipodi.sourceforge.net/DTD/sodipodi-0.dtd"
   xmlns:xlink="http://www.w3.org/1999/xlink"
   xmlns="http://www.w3.org/2000/svg"
   xmlns:svg="http://www.w3.org/2000/svg">
  <sodipodi:namedview
     id="namedview1868"
     pagecolor="#ffffff"
     bordercolor="#000000"
     borderopacity="0.25"
     inkscape:showpageshadow="false"
     inkscape:pageopacity="0.0"
     inkscape:pagecheckerboard="0"
     inkscape:deskcolor="#d1d1d1"
     inkscape:document-units="px"
     showgrid="true"
     inkscape:zoom="13.455443"
     inkscape:cx="21.1067"
     inkscape:cy="23.150482"
     inkscape:window-width="2160"
     inkscape:window-height="1337"
     inkscape:window-x="0"
     inkscape:window-y="0"
     inkscape:window-maximized="1"
     inkscape:current-layer="layer1">
    <inkscape:grid
       type="xygrid"
       id="grid3439" />
  </sodipodi:namedview>
  <defs
     id="defs1863">
    <linearGradient
       gradientTransform="matrix(0.26458333,0,0,0.26458333,-7.14375,-73.461559)"
       inkscape:collect="always"
       xlink:href="#linearGradient4774"
       id="linearGradient2924"
       x1="24"
       y1="310.64999"
       x2="24"
       y2="270.64999"
       gradientUnits="userSpaceOnUse" />
    <linearGradient
       id="linearGradient4774"
       inkscape:collect="always">
      <stop
         id="stop4770"
         offset="0"
         style="stop-color:#f41e3d;stop-opacity:1" />
      <stop
         id="stop4772"
         offset="1"
         style="stop-color:#fc3a56;stop-opacity:1" />
    </linearGradient>
  </defs>
  <g
     inkscape:label="Capa 1"
     inkscape:groupmode="layer"
     id="layer1">
    <g
       id="g3485"
       transform="translate(7.1437501,2.9104168)">
      <path
         id="rect2850"
         d="m -5.0270833,-2.38125 h 8.4666665 c 0.879475,0 1.5875,0.708025 1.5875,1.58749998 V 7.6729165 c 0,0.879475 -0.708025,1.5875 -1.5875,1.5875 h -8.4666665 c -0.879475,0 -1.5875,-0.708025 -1.5875,-1.5875 v -8.46666652 c 0,-0.87947498 0.708025,-1.58749998 1.5875,-1.58749998 z"
         style="fill:#cc0120;fill-opacity:1;stroke:none;stroke-width:0.529167;stroke-linecap:round;stroke-linejoin:round;stroke-miterlimit:4;stroke-dasharray:none;stroke-dashoffset:0;stroke-opacity:1"
         inkscape:connector-curvature="0" />
      <path
         id="rect2850-9"
         d="m -5.0270833,-2.1166667 h 8.4666665 c 0.7328958,0 1.3229167,0.5900209 1.3229167,1.32291668 V 7.6729165 c 0,0.7328959 -0.5900209,1.3229167 -1.3229167,1.3229167 H -5.0270833 C -5.7599792,8.9958332 -6.35,8.4058124 -6.35,7.6729165 v -8.46666652 c 0,-0.73289578 0.5900208,-1.32291668 1.3229167,-1.32291668 z"
         style="fill:url(#linearGradient2924);fill-opacity:1;stroke:none;stroke-width:0.505113;stroke-linecap:round;stroke-linejoin:round;stroke-miterlimit:4;stroke-dasharray:none;stroke-dashoffset:0;stroke-opacity:1"
         inkscape:connector-curvature="0" />
      <path
         id="path10497-2-9"
         style="fill:#cc0120;fill-opacity:1;stroke-width:0.776112;stroke-linecap:round;stroke-linejoin:round"
         d="m -2.3812501,1.0583346 -2.6458334,2.6458333 2.6458334,2.6458334 2.64583333,-2.6458334 z m 3.17499992,6e-7 L -7.418245e-8,1.8520852 1.8520832,3.7041679 -7.418245e-8,5.5562518 0.79374982,6.3500019 3.4395833,3.7041679 Z"
         sodipodi:nodetypes="cccccccccccc" />
      <path
         id="path10497-2"
         style="fill:#ffebee;fill-opacity:1;stroke-width:0.776112;stroke-linecap:round;stroke-linejoin:round"
         d="M -2.3812501,0.79375113 -5.0270835,3.4395844 -2.3812501,6.0854178 0.26458323,3.4395844 Z m 3.17499992,5.8e-7 L -7.418245e-8,1.5875018 1.8520832,3.4395844 -7.418245e-8,5.2916684 0.79374982,6.0854184 3.4395833,3.4395844 Z"
         sodipodi:nodetypes="cccccccccccc" />
    </g>
  </g>
</svg>
