<?xml version="1.0" encoding="UTF-8" standalone="no"?>
<!-- Created with Inkscape (http://www.inkscape.org/) -->

<svg
   xmlns:dc="http://purl.org/dc/elements/1.1/"
   xmlns:cc="http://creativecommons.org/ns#"
   xmlns:rdf="http://www.w3.org/1999/02/22-rdf-syntax-ns#"
   xmlns:svg="http://www.w3.org/2000/svg"
   xmlns="http://www.w3.org/2000/svg"
   xmlns:xlink="http://www.w3.org/1999/xlink"
   xmlns:sodipodi="http://sodipodi.sourceforge.net/DTD/sodipodi-0.dtd"
   xmlns:inkscape="http://www.inkscape.org/namespaces/inkscape"
   width="48"
   height="48"
   viewBox="0 0 12.7 12.7"
   version="1.1"
   id="svg8"
   inkscape:version="0.92.3 (2405546, 2018-03-11)"
   sodipodi:docname="atom.svg">
  <defs
     id="defs2">
    <linearGradient
       inkscape:collect="always"
       xlink:href="#linearGradient4737"
       id="linearGradient864"
       x1="43.138718"
       y1="322.5177"
       x2="43.138718"
       y2="293.88132"
       gradientUnits="userSpaceOnUse" />
    <linearGradient
       id="linearGradient4543"
       inkscape:collect="always">
      <stop
         id="stop4539"
         offset="0"
         style="stop-color:#004a60;stop-opacity:1" />
      <stop
         id="stop4541"
         offset="1"
         style="stop-color:#007b60;stop-opacity:1" />
    </linearGradient>
    <linearGradient
       id="linearGradient4737"
       inkscape:collect="always">
      <stop
         id="stop4733"
         offset="0"
         style="stop-color:#018ed7;stop-opacity:1" />
      <stop
         id="stop4735"
         offset="1"
         style="stop-color:#00dc9a;stop-opacity:1" />
    </linearGradient>
    <linearGradient
       inkscape:collect="always"
       xlink:href="#linearGradient4543"
       id="linearGradient907"
       x1="43.820538"
       y1="323.19952"
       x2="43.138718"
       y2="293.19952"
       gradientUnits="userSpaceOnUse" />
    <linearGradient
       inkscape:collect="always"
       xlink:href="#linearGradient4543"
       id="linearGradient909"
       x1="43.820538"
       y1="323.19952"
       x2="43.138718"
       y2="293.19952"
       gradientUnits="userSpaceOnUse" />
  </defs>
  <sodipodi:namedview
     id="base"
     pagecolor="#ffffff"
     bordercolor="#666666"
     borderopacity="1.0"
     inkscape:pageopacity="0.0"
     inkscape:pageshadow="2"
     inkscape:zoom="1"
     inkscape:cx="7.8503099"
     inkscape:cy="131.16382"
     inkscape:document-units="px"
     inkscape:current-layer="g3067"
     showgrid="true"
     units="px"
     inkscape:showpageshadow="false"
     inkscape:snap-bbox="true"
     inkscape:bbox-paths="true"
     inkscape:bbox-nodes="true"
     inkscape:snap-bbox-edge-midpoints="true"
     inkscape:snap-bbox-midpoints="true"
     inkscape:object-paths="true"
     inkscape:snap-intersection-paths="true"
     inkscape:window-width="1874"
     inkscape:window-height="1141"
     inkscape:window-x="46"
     inkscape:window-y="30"
     inkscape:window-maximized="1">
    <inkscape:grid
       type="xygrid"
       id="grid815" />
  </sodipodi:namedview>
  <metadata
     id="metadata5">
    <rdf:RDF>
      <cc:Work
         rdf:about="">
        <dc:format>image/svg+xml</dc:format>
        <dc:type
           rdf:resource="http://purl.org/dc/dcmitype/StillImage" />
        <dc:title></dc:title>
      </cc:Work>
    </rdf:RDF>
  </metadata>
  <g
     inkscape:label="Capa 1"
     inkscape:groupmode="layer"
     id="layer1"
     transform="translate(0,-284.29999)">
    <g
       id="g2348"
       transform="matrix(0.38805556,0,0,0.38805556,-10.125636,173.43271)">
      <g
         id="g3067"
         transform="translate(-0.68181827,-6.1363724)">
        <path
           style="opacity:1;fill:url(#linearGradient909);fill-opacity:1;stroke:none;stroke-width:1.97685277;stroke-linecap:round;stroke-linejoin:round;stroke-miterlimit:4;stroke-dasharray:none;stroke-opacity:1"
           d="m 43.138718,293.19951 c 8.31,0 15,6.69 15,15 0,8.31 -6.69,15 -15,15 -8.31,0 -15,-6.69 -15,-15 0,-8.31 6.69,-15 15,-15 z"
           id="rect903-5-1"
           inkscape:connector-curvature="0" />
        <path
           style="opacity:1;fill:url(#linearGradient864);fill-opacity:1.0;stroke:none;stroke-width:1.88699567;stroke-linecap:round;stroke-linejoin:round;stroke-miterlimit:4;stroke-dasharray:none;stroke-opacity:1"
           d="m 43.138717,293.88132 c 7.932273,0 14.318182,6.38591 14.318182,14.31818 0,7.93227 -6.385909,14.31818 -14.318182,14.31818 -7.932272,0 -14.318181,-6.38591 -14.318181,-14.31818 0,-7.93227 6.385909,-14.31818 14.318181,-14.31818 z"
           id="rect903-2-4-94"
           inkscape:connector-curvature="0" />
        <path
           inkscape:connector-curvature="0"
           style="opacity:1;fill:url(#linearGradient907);fill-opacity:1;stroke:none;stroke-width:2;stroke-linecap:round;stroke-linejoin:round;stroke-miterlimit:4;stroke-dasharray:none;stroke-opacity:0.96078431;paint-order:fill markers stroke"
           d="m 40.609597,300.00897 v 0.001 c -1.194281,-0.0168 -2.144432,0.45646 -2.608753,1.29705 -0.508037,0.91973 -0.485572,2.06888 -0.241034,3.3252 -0.715124,0.17349 -1.381494,0.38833 -1.958896,0.65784 -0.94758,0.44231 -1.721876,1.03364 -2.056108,1.89631 -0.334229,0.86267 -0.09494,1.88269 0.628552,2.81916 a 0.68203056,0.68203056 0 1 0 1.078657,-0.83496 c -0.545499,-0.70608 -0.577082,-1.12595 -0.435457,-1.49148 0.141621,-0.36554 0.589408,-0.79308 1.360972,-1.15323 0.474319,-0.2214 1.062695,-0.406 1.713867,-0.56064 0.200799,0.66546 0.451006,1.35146 0.747071,2.04679 -0.864222,1.51613 -1.510719,3.04251 -1.767135,4.39719 -0.207942,1.0986 -0.177866,2.14218 0.395509,2.94567 0.573375,0.80348 1.637438,1.16156 2.958983,1.04803 a 0.6822109,0.6822109 0 1 0 -0.117187,-1.35834 c -1.048065,0.09 -1.48859,-0.14346 -1.731179,-0.4834 -0.242588,-0.33995 -0.337775,-0.99255 -0.166459,-1.89764 0.168559,-0.89052 0.582448,-1.97085 1.154563,-3.10014 0.647431,1.28501 1.398078,2.55239 2.186612,3.69407 0.893967,1.29434 1.824516,2.42266 2.716619,3.23198 0.892104,0.80932 1.73982,1.40957 2.72461,1.23446 0.492395,-0.0876 0.930316,-0.45144 1.169211,-0.91619 0.238898,-0.46474 0.345777,-1.02853 0.376865,-1.73784 0.06217,-1.41862 -0.205465,-3.44354 -0.890892,-6.3228 a 0.68188636,0.68188636 0 1 0 -1.326349,0.31694 c 0.669994,2.81444 0.906734,4.76541 0.854936,5.94727 -0.0259,0.59093 -0.12905,0.98125 -0.227717,1.1732 -0.09867,0.19194 -0.125197,0.18502 -0.193093,0.19709 -0.13579,0.0242 -0.799076,-0.20357 -1.571377,-0.90421 -0.772303,-0.70063 -1.660061,-1.76344 -2.511542,-2.99627 -0.922582,-1.33576 -1.798273,-2.87658 -2.490234,-4.37988 0.419877,-0.69474 0.879658,-1.38681 1.371626,-2.04412 0.144955,-0.19367 0.295047,-0.37997 0.44478,-0.5673 0.332528,-0.005 0.666173,-6.4e-4 1.000089,0.009 2.624702,0.0809 5.24521,0.63423 6.736949,1.53676 0.745869,0.45126 1.181949,0.95657 1.32635,1.48082 0.144398,0.52423 0.05188,1.16333 -0.551314,2.05078 a 0.68257049,0.68257049 0 0 0 1.129261,0.76705 c 0.750371,-1.10399 1.004435,-2.20567 0.736417,-3.17871 -0.268019,-0.97304 -1.002609,-1.72189 -1.933594,-2.28516 -1.834249,-1.10975 -4.542159,-1.62874 -7.27761,-1.72585 1.21905,-1.29573 2.44904,-2.27803 3.341176,-2.60476 0.647394,-0.23709 0.959947,-0.19428 1.241122,0.0919 0.281173,0.28616 0.589405,1.06355 0.600586,2.50621 a 0.68188636,0.68188636 0 1 0 1.363636,-0.0107 c -0.01251,-1.61401 -0.294257,-2.74014 -0.992098,-3.45037 -0.348921,-0.35511 -0.787283,-0.54686 -1.254439,-0.60458 -0.467156,-0.0577 -0.963298,0.0164 -1.427557,0.18644 -1.556038,0.56985 -3.197184,2.05491 -4.71147,3.88583 -0.836282,0.0306 -1.655141,0.10222 -2.431641,0.22105 -0.205395,-1.08799 -0.147048,-1.95506 0.09855,-2.39968 0.257458,-0.46609 0.650594,-0.71039 1.769797,-0.56862 a 0.68188636,0.68188636 0 1 0 0.171786,-1.35165 c -0.179874,-0.0228 -0.355401,-0.0349 -0.526012,-0.0373 z m -0.19842,5.58106 c -0.231883,0.31969 -0.456161,0.64371 -0.673828,0.97212 -0.109628,-0.29253 -0.205715,-0.57732 -0.2943,-0.8576 0.314026,-0.0459 0.638197,-0.083 0.968128,-0.11452 z m 3.068182,1.24645 c -0.944316,0 -1.704545,0.76022 -1.704545,1.70454 0,0.94431 0.760229,1.70455 1.704545,1.70455 0.944316,0 1.704545,-0.76024 1.704545,-1.70455 0,-0.94432 -0.760229,-1.70454 -1.704545,-1.70454 z"
           id="path822-3" />
        <path
           style="opacity:1;fill:#eefafa;fill-opacity:1;stroke:none;stroke-width:2.9333334;stroke-linecap:round;stroke-linejoin:round;stroke-miterlimit:4;stroke-dasharray:none;stroke-opacity:0.96078431;paint-order:fill markers stroke"
           d="M 20.291016 10.986328 L 20.291016 10.988281 C 18.539403 10.963641 17.145849 11.65776 16.464844 12.890625 C 15.719724 14.239562 15.752672 15.924975 16.111328 17.767578 C 15.06248 18.02203 14.085136 18.337141 13.238281 18.732422 C 11.848497 19.381143 10.712862 20.248423 10.222656 21.513672 C 9.7324525 22.778921 10.083411 24.274948 11.144531 25.648438 A 1.0003115 1.0003115 0 1 0 12.726562 24.423828 C 11.926497 23.388244 11.880175 22.772439 12.087891 22.236328 C 12.295603 21.700203 12.952356 21.073142 14.083984 20.544922 C 14.779652 20.220202 15.642603 19.949462 16.597656 19.722656 C 16.892161 20.698664 17.259131 21.704792 17.693359 22.724609 C 16.425834 24.948267 15.477639 27.186964 15.101562 29.173828 C 14.79658 30.785108 14.840691 32.315689 15.681641 33.494141 C 16.522591 34.672578 18.083217 35.197761 20.021484 35.03125 A 1.000576 1.000576 0 1 0 19.849609 33.039062 C 18.312447 33.171063 17.666343 32.828657 17.310547 32.330078 C 16.95475 31.831485 16.815143 30.87434 17.066406 29.546875 C 17.313626 28.240779 17.920664 26.656292 18.759766 25 C 19.709331 26.884681 20.81028 28.743505 21.966797 30.417969 C 23.277948 32.316334 24.642753 33.9712 25.951172 35.158203 C 27.259591 36.345206 28.502908 37.225578 29.947266 36.96875 C 30.669445 36.84027 31.31173 36.306633 31.662109 35.625 C 32.012492 34.943381 32.169249 34.116493 32.214844 33.076172 C 32.306026 30.995529 31.913496 28.025649 30.908203 23.802734 A 1.0001 1.0001 0 1 0 28.962891 24.267578 C 29.945549 28.395424 30.292767 31.25684 30.216797 32.990234 C 30.17881 33.856932 30.027523 34.429411 29.882812 34.710938 C 29.738097 34.992449 29.69919 34.982297 29.599609 35 C 29.400451 35.035493 28.427631 34.701433 27.294922 33.673828 C 26.162211 32.646237 24.860167 31.087448 23.611328 29.279297 C 22.258208 27.320182 20.973861 25.060309 19.958984 22.855469 C 20.574804 21.836517 21.24915 20.821477 21.970703 19.857422 C 22.183304 19.573373 22.403438 19.300141 22.623047 19.025391 C 23.110755 19.018057 23.6001 19.024455 24.089844 19.039062 C 27.939407 19.157716 31.782819 19.969258 33.970703 21.292969 C 35.064644 21.954817 35.704227 22.695944 35.916016 23.464844 C 36.127799 24.233714 35.992108 25.171063 35.107422 26.472656 A 1.0011034 1.0011034 0 0 0 36.763672 27.597656 C 37.864216 25.978471 38.236843 24.362672 37.84375 22.935547 C 37.450655 21.508422 36.373257 20.410114 35.007812 19.583984 C 32.31758 17.956351 28.345979 17.195162 24.333984 17.052734 C 26.121924 15.15233 27.925909 13.711626 29.234375 13.232422 C 30.183886 12.88469 30.642297 12.947471 31.054688 13.367188 C 31.467074 13.786888 31.919148 14.927067 31.935547 17.042969 A 1.0001 1.0001 0 1 0 33.935547 17.027344 C 33.917199 14.660129 33.503969 13.008468 32.480469 11.966797 C 31.968718 11.445969 31.325787 11.164734 30.640625 11.080078 C 29.955463 10.995451 29.227788 11.104138 28.546875 11.353516 C 26.264686 12.18931 23.857672 14.367385 21.636719 17.052734 C 20.410172 17.097614 19.209178 17.202669 18.070312 17.376953 C 17.769066 15.781234 17.854641 14.509531 18.214844 13.857422 C 18.592449 13.173823 19.169049 12.815508 20.810547 13.023438 A 1.0001 1.0001 0 1 0 21.0625 11.041016 C 20.798685 11.007576 20.541245 10.989848 20.291016 10.986328 z M 20 19.171875 C 19.659905 19.640754 19.330964 20.115988 19.011719 20.597656 C 18.850931 20.168612 18.710003 19.750921 18.580078 19.339844 C 19.04065 19.272524 19.5161 19.218119 20 19.171875 z M 24.5 21 C 23.115003 21 22 22.114997 22 23.5 C 22 24.884988 23.115003 26 24.5 26 C 25.884997 26 27 24.884988 27 23.5 C 27 22.114997 25.884997 21 24.5 21 z "
           transform="matrix(0.68181817,0,0,0.68181817,26.775082,291.83587)"
           id="path822" />
      </g>
    </g>
  </g>
</svg>
