<?xml version="1.0" encoding="UTF-8" standalone="no"?>
<!-- Created with Inkscape (http://www.inkscape.org/) -->

<svg
   xmlns:dc="http://purl.org/dc/elements/1.1/"
   xmlns:cc="http://creativecommons.org/ns#"
   xmlns:rdf="http://www.w3.org/1999/02/22-rdf-syntax-ns#"
   xmlns:svg="http://www.w3.org/2000/svg"
   xmlns="http://www.w3.org/2000/svg"
   xmlns:xlink="http://www.w3.org/1999/xlink"
   xmlns:sodipodi="http://sodipodi.sourceforge.net/DTD/sodipodi-0.dtd"
   xmlns:inkscape="http://www.inkscape.org/namespaces/inkscape"
   width="48"
   height="48"
   viewBox="0 0 48 48"
   version="1.1"
   id="svg8"
   inkscape:version="0.92.2 2405546, 2018-03-11"
   sodipodi:docname="chromium.svg"
   inkscape:export-filename="/home/fabian/Chromium48.png"
   inkscape:export-xdpi="96"
   inkscape:export-ydpi="96">
  <title
     id="title7895">Antu icon Theme</title>
  <defs
     id="defs2">
    <linearGradient
       inkscape:collect="always"
       id="linearGradient4657">
      <stop
         style="stop-color:#548ac6;stop-opacity:1"
         offset="0"
         id="stop4653" />
      <stop
         style="stop-color:#8fb5de;stop-opacity:1"
         offset="1"
         id="stop4655" />
    </linearGradient>
    <linearGradient
       id="linearGradient4582-3"
       inkscape:collect="always">
      <stop
         id="stop4578-5"
         offset="0"
         style="stop-color:#cee3e3;stop-opacity:1" />
      <stop
         id="stop4580-6"
         offset="1"
         style="stop-color:#fcfcfc;stop-opacity:1" />
    </linearGradient>
    <linearGradient
       inkscape:collect="always"
       id="linearGradient4673">
      <stop
         style="stop-color:#96b9d9;stop-opacity:1"
         offset="0"
         id="stop4669" />
      <stop
         style="stop-color:#cbdff0;stop-opacity:1"
         offset="1"
         id="stop4671" />
    </linearGradient>
    <linearGradient
       inkscape:collect="always"
       id="linearGradient4665">
      <stop
         style="stop-color:#71a3d6;stop-opacity:1"
         offset="0"
         id="stop4661" />
      <stop
         style="stop-color:#99d2f1;stop-opacity:1"
         offset="1"
         id="stop4663" />
    </linearGradient>
    <linearGradient
       inkscape:collect="always"
       id="linearGradient4649">
      <stop
         style="stop-color:#4071a0;stop-opacity:1"
         offset="0"
         id="stop4645" />
      <stop
         style="stop-color:#6c9ccc;stop-opacity:1"
         offset="1"
         id="stop4647" />
    </linearGradient>
    <linearGradient
       inkscape:collect="always"
       xlink:href="#linearGradient4582-3"
       id="linearGradient990"
       gradientUnits="userSpaceOnUse"
       gradientTransform="matrix(5.6692916,0,0,5.6692916,-52.312506,-1386.3795)"
       x1="13.460677"
       y1="297.13229"
       x2="13.460677"
       y2="294.48645" />
    <linearGradient
       inkscape:collect="always"
       xlink:href="#linearGradient4657"
       id="linearGradient992"
       gradientUnits="userSpaceOnUse"
       gradientTransform="matrix(7.5590553,0,0,7.5590553,-77.750002,-1945.3892)"
       x1="13.460677"
       y1="296.33853"
       x2="13.460677"
       y2="295.28021" />
    <linearGradient
       inkscape:collect="always"
       xlink:href="#linearGradient4649"
       id="linearGradient1284"
       x1="24"
       y1="28.000006"
       x2="24.324219"
       y2="3.0019531"
       gradientUnits="userSpaceOnUse" />
    <linearGradient
       inkscape:collect="always"
       xlink:href="#linearGradient4665"
       id="linearGradient1292"
       x1="16"
       y1="310.64999"
       x2="16"
       y2="282.64999"
       gradientUnits="userSpaceOnUse" />
    <linearGradient
       inkscape:collect="always"
       xlink:href="#linearGradient4673"
       id="linearGradient1300"
       x1="32"
       y1="40.000004"
       x2="32"
       y2="20.000006"
       gradientUnits="userSpaceOnUse" />
  </defs>
  <sodipodi:namedview
     id="base"
     pagecolor="#ffffff"
     bordercolor="#666666"
     borderopacity="1.0"
     inkscape:pageopacity="0.0"
     inkscape:pageshadow="2"
     inkscape:zoom="1"
     inkscape:cx="-48.871632"
     inkscape:cy="-70.552644"
     inkscape:document-units="px"
     inkscape:current-layer="g1535"
     showgrid="false"
     units="px"
     inkscape:window-width="1360"
     inkscape:window-height="711"
     inkscape:window-x="0"
     inkscape:window-y="28"
     inkscape:window-maximized="1"
     objecttolerance="10"
     gridtolerance="10"
     guidetolerance="10"
     inkscape:snap-bbox="true"
     inkscape:bbox-nodes="true"
     inkscape:bbox-paths="true"
     inkscape:snap-bbox-edge-midpoints="true"
     inkscape:snap-bbox-midpoints="true"
     inkscape:object-paths="true"
     inkscape:snap-intersection-paths="true"
     inkscape:object-nodes="true"
     inkscape:snap-smooth-nodes="false"
     inkscape:snap-midpoints="false"
     inkscape:showpageshadow="false">
    <inkscape:grid
       type="xygrid"
       id="grid7897"
       empspacing="4" />
  </sodipodi:namedview>
  <metadata
     id="metadata5">
    <rdf:RDF>
      <cc:Work
         rdf:about="">
        <dc:format>image/svg+xml</dc:format>
        <dc:type
           rdf:resource="http://purl.org/dc/dcmitype/StillImage" />
        <dc:title>Antu icon Theme</dc:title>
      </cc:Work>
    </rdf:RDF>
  </metadata>
  <g
     inkscape:label="Capa 1"
     inkscape:groupmode="layer"
     id="layer1"
     transform="translate(0,-266.64999)">
    <g
       id="g1535"
       transform="translate(35,-15.000005)">
      <g
         id="g911"
         transform="translate(-35,15)">
        <path
           style="opacity:1;fill:#7595b2;fill-opacity:0.98039216;stroke:none;stroke-width:14.09127808;stroke-linecap:round;stroke-linejoin:round;stroke-miterlimit:4;stroke-dasharray:none;stroke-opacity:1"
           d="m 43.424847,280.32162 a 22,22 0 0 1 -2.207467,24.0237 22,22 0 0 1 -22.911399,7.55504 L 24,290.64999 Z"
           id="path1246" />
        <path
           style="opacity:1;fill:url(#linearGradient1300);fill-opacity:1;stroke:none;stroke-width:13.45076561;stroke-linecap:round;stroke-linejoin:round;stroke-miterlimit:4;stroke-dasharray:none;stroke-opacity:1"
           d="M 42.541016 14.140625 L 39.044922 16 L 30 16 L 30 20.808594 L 24 24 L 18.564453 44.285156 A 21 21 0 0 0 40.435547 37.072266 A 21 21 0 0 0 42.541016 14.140625 z "
           transform="translate(0,266.64999)"
           id="path1246-8" />
        <path
           style="opacity:1;fill:#5985b2;fill-opacity:0.98039216;stroke:none;stroke-width:19.55555534;stroke-linecap:round;stroke-linejoin:round;stroke-miterlimit:4;stroke-dasharray:none;stroke-opacity:1"
           d="M 21.700373,312.52948 A 22,22 0 0 1 3.9019998,299.5982 22,22 0 0 1 6.2016263,277.71872 L 24,290.64999 Z"
           id="path1215" />
        <path
           style="opacity:1;fill:url(#linearGradient1292);fill-opacity:1;stroke:none;stroke-width:18.66666603;stroke-linecap:round;stroke-linejoin:round;stroke-miterlimit:4;stroke-dasharray:none;stroke-opacity:1"
           d="M 21.804902,311.53495 A 21,21 0 0 1 4.8155452,299.19146 21,21 0 0 1 7.0106433,278.3065 L 24,290.64999 Z"
           id="path1215-2" />
        <path
           style="opacity:1;fill:#2e5c91;fill-opacity:0.98039216;stroke:none;stroke-width:8.58792019;stroke-linecap:round;stroke-linejoin:round;stroke-miterlimit:4;stroke-dasharray:none;stroke-opacity:1"
           d="M 23.263672 2.0117188 C 16.012188 2.2531721 9.2599095 6.0746269 5.34375 12.341797 L 20 33 L 29 16.65625 L 43.673828 16.65625 L 43.794922 17 L 44.859375 17.005859 L 44.738281 16.65625 C 41.919003 8.69486 34.79017 3.0503294 26.394531 2.1308594 C 25.345076 2.0159256 24.299598 1.9772254 23.263672 2.0117188 z "
           transform="translate(0,266.64999)"
           id="path1194" />
        <path
           style="opacity:1;fill:url(#linearGradient1284);fill-opacity:1;stroke:none;stroke-width:8.19756031;stroke-linecap:round;stroke-linejoin:round;stroke-miterlimit:4;stroke-dasharray:none;stroke-opacity:1"
           d="M 24.324219 3.0019531 C 16.820149 2.872441 9.8244078 6.6895375 5.9726562 13.228516 L 20 33 L 29 16.646484 L 30 16.646484 L 30 17 L 43 17 L 43.669922 17 L 43.794922 17 L 43.669922 16.646484 C 40.834985 9.0641044 33.894294 3.7856081 25.830078 3.0800781 C 25.326065 3.0359825 24.82449 3.0105873 24.324219 3.0019531 z "
           transform="translate(0,266.64999)"
           id="path1194-2" />
        <g
           id="g1192">
          <path
             inkscape:connector-curvature="0"
             id="path1108-9-0"
             d="M 34,290.65004 A 10.000001,10.000001 0 0 1 23.999998,300.65002 10.000001,10.000001 0 0 1 14,290.65004 10.000001,10.000001 0 0 1 23.999998,280.64997 10.000001,10.000001 0 0 1 34,290.65004 Z"
             style="opacity:1;fill:#a9c1cc;fill-opacity:1;stroke:none;stroke-width:2.66666698;stroke-linecap:square;stroke-linejoin:miter;stroke-miterlimit:4;stroke-dasharray:none;stroke-opacity:1;paint-order:stroke markers fill" />
          <path
             inkscape:connector-curvature="0"
             id="path1108-2-7-2"
             d="m 33,290.65 a 9.0000001,9.0000001 0 0 1 -9.000002,9 9.0000001,9.0000001 0 0 1 -8.999998,-9 9.0000001,9.0000001 0 0 1 8.999998,-9 9.0000001,9.0000001 0 0 1 9.000002,9 z"
             style="opacity:0.98000004;fill:url(#linearGradient990);fill-opacity:1;stroke:none;stroke-width:2.40000033;stroke-linecap:square;stroke-linejoin:miter;stroke-miterlimit:4;stroke-dasharray:none;stroke-opacity:1;paint-order:stroke markers fill" />
          <path
             id="path1108-2-0-3-3"
             d="M 31,290.65004 A 6.9999986,6.9999986 0 0 1 23.999994,297.65001 6.9999986,6.9999986 0 0 1 17,290.65004 6.9999986,6.9999986 0 0 1 23.999994,283.64998 6.9999986,6.9999986 0 0 1 31,290.65004 Z"
             style="opacity:0.98000004;fill:#346ba6;fill-opacity:1;stroke:none;stroke-width:1.86666632;stroke-linecap:square;stroke-linejoin:miter;stroke-miterlimit:4;stroke-dasharray:none;stroke-opacity:1;paint-order:stroke markers fill"
             inkscape:connector-curvature="0" />
          <path
             id="path1108-2-0-2-6-7"
             d="m 30,290.65 a 5.9999998,5.9999998 0 0 1 -6,6 5.9999998,5.9999998 0 0 1 -6,-6 5.9999998,5.9999998 0 0 1 6,-6 5.9999998,5.9999998 0 0 1 6,6 z"
             style="opacity:0.98000004;fill:url(#linearGradient992);fill-opacity:1;stroke:none;stroke-width:1.60000002;stroke-linecap:square;stroke-linejoin:miter;stroke-miterlimit:4;stroke-dasharray:none;stroke-opacity:1;paint-order:stroke markers fill"
             inkscape:connector-curvature="0" />
        </g>
        <path
           style="opacity:1;fill:#99a8d3;fill-opacity:0.69791669;stroke:none;stroke-width:10.31066132;stroke-linecap:round;stroke-linejoin:round;stroke-miterlimit:4;stroke-dasharray:none;stroke-opacity:1"
           id="path1063-5"
           r="22"
           cy="290.64999"
           cx="24"
           d=""
           inkscape:connector-curvature="0" />
      </g>
    </g>
  </g>
</svg>
