<?xml version="1.0" encoding="UTF-8" standalone="no"?>
<!-- Created with Inkscape (http://www.inkscape.org/) -->

<svg
   xmlns:dc="http://purl.org/dc/elements/1.1/"
   xmlns:cc="http://creativecommons.org/ns#"
   xmlns:rdf="http://www.w3.org/1999/02/22-rdf-syntax-ns#"
   xmlns:svg="http://www.w3.org/2000/svg"
   xmlns="http://www.w3.org/2000/svg"
   xmlns:xlink="http://www.w3.org/1999/xlink"
   xmlns:sodipodi="http://sodipodi.sourceforge.net/DTD/sodipodi-0.dtd"
   xmlns:inkscape="http://www.inkscape.org/namespaces/inkscape"
   width="48"
   height="48"
   viewBox="0 0 48 48"
   version="1.1"
   id="svg8"
   inkscape:version="0.92.2 2405546, 2018-03-11"
   sodipodi:docname="deepin-movie.svg">
  <title
     id="title7895">Antu icon Theme</title>
  <defs
     id="defs2">
    <linearGradient
       inkscape:collect="always"
       id="linearGradient983">
      <stop
         style="stop-color:#1983f1;stop-opacity:1"
         offset="0"
         id="stop979" />
      <stop
         style="stop-color:#1fb5f9;stop-opacity:1"
         offset="1"
         id="stop981" />
    </linearGradient>
    <linearGradient
       inkscape:collect="always"
       xlink:href="#linearGradient983"
       id="linearGradient985"
       x1="48"
       y1="313.64999"
       x2="48"
       y2="275.64999"
       gradientUnits="userSpaceOnUse" />
  </defs>
  <sodipodi:namedview
     id="base"
     pagecolor="#ffffff"
     bordercolor="#666666"
     borderopacity="1.0"
     inkscape:pageopacity="0.0"
     inkscape:pageshadow="2"
     inkscape:zoom="5.6568542"
     inkscape:cx="37.742467"
     inkscape:cy="-2.3765546"
     inkscape:document-units="px"
     inkscape:current-layer="layer1"
     showgrid="true"
     units="px"
     inkscape:window-width="1360"
     inkscape:window-height="711"
     inkscape:window-x="0"
     inkscape:window-y="28"
     inkscape:window-maximized="1"
     objecttolerance="10"
     gridtolerance="10"
     guidetolerance="10"
     inkscape:snap-bbox="true"
     inkscape:bbox-nodes="true"
     inkscape:bbox-paths="true"
     inkscape:snap-bbox-edge-midpoints="true"
     inkscape:snap-bbox-midpoints="true"
     inkscape:object-paths="true"
     inkscape:snap-intersection-paths="true"
     inkscape:object-nodes="true"
     inkscape:snap-smooth-nodes="false"
     inkscape:snap-midpoints="false"
     inkscape:showpageshadow="false">
    <inkscape:grid
       type="xygrid"
       id="grid7897"
       empspacing="4" />
  </sodipodi:namedview>
  <metadata
     id="metadata5">
    <rdf:RDF>
      <cc:Work
         rdf:about="">
        <dc:format>image/svg+xml</dc:format>
        <dc:type
           rdf:resource="http://purl.org/dc/dcmitype/StillImage" />
        <dc:title>Antu icon Theme</dc:title>
      </cc:Work>
    </rdf:RDF>
  </metadata>
  <g
     inkscape:label="Capa 1"
     inkscape:groupmode="layer"
     id="layer1"
     transform="translate(0,-266.64999)">
    <g
       id="g1470">
      <g
         transform="translate(-24,-4.000005)"
         id="g5422">
        <g
           inkscape:label="Capa 1"
           id="layer1-3-2"
           transform="matrix(5.5433071,0,0,5.5433071,24.533333,-1328.2455)" />
        <path
           inkscape:connector-curvature="0"
           id="rect854"
           d="m 29,272.64999 h 38 c 1.662,0 3,1.338 3,3 v 38 c 0,1.662 -1.338,3 -3,3 H 29 c -1.662,0 -3,-1.338 -3,-3 v -38 c 0,-1.662 1.338,-3 3,-3 z"
           style="opacity:1;fill:#1466b2;fill-opacity:1;stroke:none;stroke-width:3.88529491;stroke-linecap:round;stroke-linejoin:round;stroke-miterlimit:4;stroke-dasharray:none;stroke-opacity:1" />
        <path
           inkscape:connector-curvature="0"
           id="rect854-2"
           d="m 29,273.64999 h 38 c 1.108,0 2,0.892 2,2 v 38 c 0,1.108 -0.892,2 -2,2 H 29 c -1.108,0 -2,-0.892 -2,-2 v -38 c 0,-1.108 0.892,-2 2,-2 z"
           style="opacity:1;fill:url(#linearGradient985);fill-opacity:1;stroke:none;stroke-width:3.70869064;stroke-linecap:round;stroke-linejoin:round;stroke-miterlimit:4;stroke-dasharray:none;stroke-opacity:1" />
      </g>
      <g
         inkscape:label="Capa 1"
         id="layer1-9-7"
         transform="matrix(1.4666667,0,0,1.4666667,0.5333328,-147.37001)">
        <path
           inkscape:connector-curvature="0"
           id="rect1189"
           d="m 3.7272729,287.7409 c -0.3777317,0 -0.6818182,0.30409 -0.6818182,0.68182 v 1.36364 c 0,0.37773 0.3040865,0.68182 0.6818182,0.68182 h 1.3636363 c 0.3777316,0 0.6818182,-0.30409 0.6818182,-0.68182 v -1.36364 c 0,-0.37773 -0.3040866,-0.68182 -0.6818182,-0.68182 z m 23.1818181,0 c -0.377731,0 -0.681819,0.30408 -0.681819,0.68182 v 1.36364 c 0,0.37773 0.304088,0.68182 0.681819,0.68182 h 1.363636 c 0.377732,0 0.681818,-0.30409 0.681818,-0.68182 v -1.36364 c 0,-0.37774 -0.304086,-0.68182 -0.681818,-0.68182 z m -23.1818181,4.09091 c -0.3777301,0 -0.6818182,0.30409 -0.6818182,0.68182 v 1.36364 c 0,0.37773 0.3040881,0.68181 0.6818182,0.68181 h 1.3636363 c 0.3777301,0 0.6818182,-0.30408 0.6818182,-0.68181 v -1.36364 c 0,-0.37773 -0.3040881,-0.68182 -0.6818182,-0.68182 z m 23.1818181,0 c -0.37773,0 -0.681819,0.30409 -0.681819,0.68182 v 1.36364 c 0,0.37773 0.304089,0.68181 0.681819,0.68181 h 1.363636 c 0.377731,0 0.681818,-0.30408 0.681818,-0.68181 v -1.36364 c 0,-0.37773 -0.304087,-0.68182 -0.681818,-0.68182 z m -23.1818181,4.09091 c -0.3777317,0 -0.6818182,0.30409 -0.6818182,0.68182 v 1.36363 c 0,0.37774 0.3040865,0.68182 0.6818182,0.68182 h 1.3636363 c 0.3777316,0 0.6818182,-0.30408 0.6818182,-0.68182 v -1.36363 c 0,-0.37773 -0.3040866,-0.68182 -0.6818182,-0.68182 z m 23.1818181,0 c -0.377731,0 -0.681819,0.30409 -0.681819,0.68182 v 1.36363 c 0,0.37773 0.304088,0.68182 0.681819,0.68182 h 1.363636 c 0.377732,0 0.681818,-0.30409 0.681818,-0.68182 v -1.36363 c 0,-0.37773 -0.304086,-0.68182 -0.681818,-0.68182 z m -23.1818181,4.09091 c -0.3777272,0 -0.6818182,0.30409 -0.6818182,0.68182 v 1.36363 c 0,0.37773 0.304091,0.68182 0.6818182,0.68182 h 1.3636363 c 0.3777272,0 0.6818182,-0.30409 0.6818182,-0.68182 v -1.36363 c 0,-0.37773 -0.304091,-0.68182 -0.6818182,-0.68182 z m 23.1818181,0 c -0.377728,0 -0.681819,0.3041 -0.681819,0.68182 v 1.36363 c 0,0.37773 0.304091,0.68182 0.681819,0.68182 h 1.363636 c 0.377728,0 0.681818,-0.30409 0.681818,-0.68182 v -1.36363 c 0,-0.37772 -0.30409,-0.68182 -0.681818,-0.68182 z m -23.1818181,4.09091 c -0.3777317,0 -0.6818182,0.30409 -0.6818182,0.68182 v 1.36363 c 0,0.37773 0.3040865,0.68182 0.6818182,0.68182 h 1.3636363 c 0.3777316,0 0.6818182,-0.30409 0.6818182,-0.68182 v -1.36363 c 0,-0.37773 -0.3040866,-0.68182 -0.6818182,-0.68182 z m 23.1818181,0 c -0.377731,0 -0.681819,0.30409 -0.681819,0.68182 v 1.36363 c 0,0.37773 0.304088,0.68182 0.681819,0.68182 h 1.363636 c 0.377732,0 0.681818,-0.30409 0.681818,-0.68182 v -1.36363 c 0,-0.37773 -0.304086,-0.68182 -0.681818,-0.68182 z m -23.1818181,4.09091 c -0.3777317,0 -0.6818182,0.30408 -0.6818182,0.68182 v 1.36363 c 0,0.37773 0.3040865,0.68182 0.6818182,0.68182 h 1.3636363 c 0.3777316,0 0.6818182,-0.30409 0.6818182,-0.68182 v -1.36363 c 0,-0.37774 -0.3040866,-0.68182 -0.6818182,-0.68182 z m 23.1818181,0 c -0.377731,0 -0.681819,0.30409 -0.681819,0.68182 v 1.36363 c 0,0.37773 0.304088,0.68182 0.681819,0.68182 h 1.363636 c 0.377732,0 0.681818,-0.30409 0.681818,-0.68182 v -1.36363 c 0,-0.37773 -0.304086,-0.68182 -0.681818,-0.68182 z"
           style="opacity:1;fill:#1466b2;fill-opacity:1;stroke:none;stroke-width:1.23966944;stroke-linecap:round;stroke-linejoin:round;stroke-miterlimit:4;stroke-dasharray:none;stroke-opacity:1" />
        <path
           id="rect1189-5"
           d="m 3.7272728,287.05909 c -0.3777316,0 -0.6818182,0.30408 -0.6818182,0.68182 v 1.36363 c 0,0.37773 0.3040866,0.68182 0.6818182,0.68182 h 1.3636363 c 0.3777316,0 0.6818182,-0.30409 0.6818182,-0.68182 v -1.36363 c 0,-0.37774 -0.3040866,-0.68182 -0.6818182,-0.68182 z m 23.1818182,0 c -0.377731,0 -0.681818,0.30408 -0.681818,0.68182 v 1.36363 c 0,0.37773 0.304087,0.68182 0.681818,0.68182 h 1.363636 c 0.377732,0 0.681818,-0.30409 0.681818,-0.68182 v -1.36363 c 0,-0.37774 -0.304086,-0.68182 -0.681818,-0.68182 z M 3.7272728,291.15 c -0.3777301,0 -0.6818182,0.30408 -0.6818182,0.68181 v 1.36364 c 0,0.37773 0.3040881,0.68182 0.6818182,0.68182 h 1.3636363 c 0.3777301,0 0.6818182,-0.30409 0.6818182,-0.68182 v -1.36364 c 0,-0.37773 -0.3040881,-0.68181 -0.6818182,-0.68181 z m 23.1818182,0 c -0.37773,0 -0.681818,0.30408 -0.681818,0.68181 v 1.36364 c 0,0.37773 0.304088,0.68182 0.681818,0.68182 h 1.363636 c 0.377731,0 0.681818,-0.30409 0.681818,-0.68182 v -1.36364 c 0,-0.37773 -0.304087,-0.68181 -0.681818,-0.68181 z m -23.1818182,4.09091 c -0.3777316,0 -0.6818182,0.30408 -0.6818182,0.68181 v 1.36364 c 0,0.37773 0.3040866,0.68182 0.6818182,0.68182 h 1.3636363 c 0.3777316,0 0.6818182,-0.30409 0.6818182,-0.68182 v -1.36364 c 0,-0.37773 -0.3040866,-0.68181 -0.6818182,-0.68181 z m 23.1818182,0 c -0.377731,0 -0.681818,0.30408 -0.681818,0.68181 v 1.36364 c 0,0.37773 0.304087,0.68182 0.681818,0.68182 h 1.363636 c 0.377732,0 0.681818,-0.30409 0.681818,-0.68182 v -1.36364 c 0,-0.37773 -0.304086,-0.68181 -0.681818,-0.68181 z m -23.1818182,4.0909 c -0.3777272,0 -0.6818182,0.3041 -0.6818182,0.68182 v 1.36364 c 0,0.37773 0.304091,0.68182 0.6818182,0.68182 h 1.3636363 c 0.3777272,0 0.6818182,-0.30409 0.6818182,-0.68182 v -1.36364 c 0,-0.37772 -0.304091,-0.68182 -0.6818182,-0.68182 z m 23.1818182,0 c -0.377727,0 -0.681818,0.3041 -0.681818,0.68182 v 1.36364 c 0,0.37773 0.304091,0.68182 0.681818,0.68182 h 1.363636 c 0.377728,0 0.681818,-0.30409 0.681818,-0.68182 v -1.36364 c 0,-0.37772 -0.30409,-0.68182 -0.681818,-0.68182 z m -23.1818182,4.09091 c -0.3777316,0 -0.6818182,0.30409 -0.6818182,0.68182 v 1.36364 c 0,0.37773 0.3040866,0.68182 0.6818182,0.68182 h 1.3636363 c 0.3777316,0 0.6818182,-0.30409 0.6818182,-0.68182 v -1.36364 c 0,-0.37773 -0.3040866,-0.68182 -0.6818182,-0.68182 z m 23.1818182,0 c -0.377731,0 -0.681818,0.30409 -0.681818,0.68182 v 1.36364 c 0,0.37773 0.304087,0.68182 0.681818,0.68182 h 1.363636 c 0.377732,0 0.681818,-0.30409 0.681818,-0.68182 v -1.36364 c 0,-0.37773 -0.304086,-0.68182 -0.681818,-0.68182 z m -23.1818182,4.09091 c -0.3777316,0 -0.6818182,0.30409 -0.6818182,0.68182 v 1.36364 c 0,0.37773 0.3040866,0.68181 0.6818182,0.68181 h 1.3636363 c 0.3777316,0 0.6818182,-0.30408 0.6818182,-0.68181 v -1.36364 c 0,-0.37773 -0.3040866,-0.68182 -0.6818182,-0.68182 z m 23.1818182,0 c -0.377731,0 -0.681818,0.30409 -0.681818,0.68182 v 1.36364 c 0,0.37773 0.304087,0.68181 0.681818,0.68181 h 1.363636 c 0.377732,0 0.681818,-0.30408 0.681818,-0.68181 v -1.36364 c 0,-0.37773 -0.304086,-0.68182 -0.681818,-0.68182 z"
           style="opacity:1;fill:#f1f2f3;fill-opacity:1;stroke:none;stroke-width:1.23966944;stroke-linecap:round;stroke-linejoin:round;stroke-miterlimit:4;stroke-dasharray:none;stroke-opacity:1"
           inkscape:connector-curvature="0" />
      </g>
      <path
         sodipodi:nodetypes="cccccccc"
         inkscape:connector-curvature="0"
         id="path1441-7"
         d="m 17.988343,282.64943 c -0.54768,0.006 -0.988264,0.45228 -0.988281,1 v 16 c 1.72e-4,0.79859 0.890135,1.27487 1.554688,0.83203 l 12,-8 c 0.593585,-0.39588 0.593585,-1.26818 0,-1.66406 l -12,-8 c -0.16758,-0.11175 -0.364998,-0.1703 -0.566407,-0.16797 z"
         style="color:#000000;font-style:normal;font-variant:normal;font-weight:normal;font-stretch:normal;font-size:medium;line-height:normal;font-family:sans-serif;font-variant-ligatures:normal;font-variant-position:normal;font-variant-caps:normal;font-variant-numeric:normal;font-variant-alternates:normal;font-feature-settings:normal;text-indent:0;text-align:start;text-decoration:none;text-decoration-line:none;text-decoration-style:solid;text-decoration-color:#000000;letter-spacing:normal;word-spacing:normal;text-transform:none;writing-mode:lr-tb;direction:ltr;text-orientation:mixed;dominant-baseline:auto;baseline-shift:baseline;text-anchor:start;white-space:normal;shape-padding:0;clip-rule:nonzero;display:inline;overflow:visible;visibility:visible;opacity:1;isolation:auto;mix-blend-mode:normal;color-interpolation:sRGB;color-interpolation-filters:linearRGB;solid-color:#000000;solid-opacity:1;vector-effect:none;fill:#1466b2;fill-opacity:1;fill-rule:nonzero;stroke:none;stroke-width:2;stroke-linecap:round;stroke-linejoin:round;stroke-miterlimit:4;stroke-dasharray:none;stroke-dashoffset:0;stroke-opacity:1;color-rendering:auto;image-rendering:auto;shape-rendering:auto;text-rendering:auto;enable-background:accumulate" />
      <path
         sodipodi:nodetypes="cccccccc"
         inkscape:connector-curvature="0"
         id="path1441"
         d="m 17.988343,281.64924 c -0.54768,0.006 -0.988264,0.45228 -0.988281,1 v 16 c 1.72e-4,0.79859 0.890135,1.27487 1.554688,0.83203 l 12,-8 c 0.593585,-0.39588 0.593585,-1.26818 0,-1.66406 l -12,-8 c -0.16758,-0.11175 -0.364998,-0.1703 -0.566407,-0.16797 z"
         style="color:#000000;font-style:normal;font-variant:normal;font-weight:normal;font-stretch:normal;font-size:medium;line-height:normal;font-family:sans-serif;font-variant-ligatures:normal;font-variant-position:normal;font-variant-caps:normal;font-variant-numeric:normal;font-variant-alternates:normal;font-feature-settings:normal;text-indent:0;text-align:start;text-decoration:none;text-decoration-line:none;text-decoration-style:solid;text-decoration-color:#000000;letter-spacing:normal;word-spacing:normal;text-transform:none;writing-mode:lr-tb;direction:ltr;text-orientation:mixed;dominant-baseline:auto;baseline-shift:baseline;text-anchor:start;white-space:normal;shape-padding:0;clip-rule:nonzero;display:inline;overflow:visible;visibility:visible;opacity:1;isolation:auto;mix-blend-mode:normal;color-interpolation:sRGB;color-interpolation-filters:linearRGB;solid-color:#000000;solid-opacity:1;vector-effect:none;fill:#ffffff;fill-opacity:1;fill-rule:nonzero;stroke:none;stroke-width:2;stroke-linecap:round;stroke-linejoin:round;stroke-miterlimit:4;stroke-dasharray:none;stroke-dashoffset:0;stroke-opacity:1;color-rendering:auto;image-rendering:auto;shape-rendering:auto;text-rendering:auto;enable-background:accumulate" />
    </g>
  </g>
</svg>
