<?xml version="1.0" encoding="UTF-8" standalone="no"?>
<!-- Created with Inkscape (http://www.inkscape.org/) -->

<svg
   xmlns:dc="http://purl.org/dc/elements/1.1/"
   xmlns:cc="http://creativecommons.org/ns#"
   xmlns:rdf="http://www.w3.org/1999/02/22-rdf-syntax-ns#"
   xmlns:svg="http://www.w3.org/2000/svg"
   xmlns="http://www.w3.org/2000/svg"
   xmlns:xlink="http://www.w3.org/1999/xlink"
   xmlns:sodipodi="http://sodipodi.sourceforge.net/DTD/sodipodi-0.dtd"
   xmlns:inkscape="http://www.inkscape.org/namespaces/inkscape"
   width="48"
   height="48"
   viewBox="0 0 48 48"
   version="1.1"
   id="svg8"
   inkscape:version="0.92.2 2405546, 2018-03-11"
   sodipodi:docname="firefox.svg">
  <title
     id="title7895">Antu icon Theme</title>
  <defs
     id="defs2">
    <linearGradient
       gradientTransform="translate(-104,3.999995)"
       inkscape:collect="always"
       xlink:href="#linearGradient4162"
       id="linearGradient1125"
       x1="68"
       y1="311.64999"
       x2="68"
       y2="305.64999"
       gradientUnits="userSpaceOnUse" />
    <linearGradient
       id="linearGradient4162"
       inkscape:collect="always">
      <stop
         id="stop4164"
         offset="0"
         style="stop-color:#801542;stop-opacity:1" />
      <stop
         id="stop4166"
         offset="1"
         style="stop-color:#ff7100;stop-opacity:1" />
    </linearGradient>
    <linearGradient
       gradientTransform="translate(-104,270.64999)"
       inkscape:collect="always"
       xlink:href="#linearGradient4162"
       id="linearGradient1258"
       gradientUnits="userSpaceOnUse"
       x1="68"
       y1="42"
       x2="68"
       y2="14.000005" />
    <linearGradient
       inkscape:collect="always"
       xlink:href="#linearGradient1074"
       id="linearGradient1260"
       gradientUnits="userSpaceOnUse"
       gradientTransform="translate(-146,1.000005)"
       x1="110"
       y1="312.64999"
       x2="110"
       y2="283.64999" />
    <linearGradient
       inkscape:collect="always"
       id="linearGradient1074">
      <stop
         style="stop-color:#ff9261;stop-opacity:1"
         offset="0"
         id="stop1068" />
      <stop
         style="stop-color:#ffb038;stop-opacity:1"
         offset="1"
         id="stop1072" />
    </linearGradient>
    <linearGradient
       gradientTransform="matrix(-1,0,0,1,32.00018,271.65075)"
       inkscape:collect="always"
       xlink:href="#linearGradient4162"
       id="linearGradient1183-9"
       x1="54"
       y1="23.000006"
       x2="54"
       y2="4.0000048"
       gradientUnits="userSpaceOnUse" />
    <linearGradient
       gradientTransform="matrix(0.23466667,0,0,0.23466667,-529.46491,1476.7907)"
       gradientUnits="userSpaceOnUse"
       y2="-5114.2363"
       x2="2102.8335"
       y1="-4960.8271"
       x1="2102.8335"
       id="linearGradient4836"
       xlink:href="#linearGradient1468"
       inkscape:collect="always" />
    <linearGradient
       inkscape:collect="always"
       id="linearGradient1468">
      <stop
         style="stop-color:#4d93f5;stop-opacity:1"
         offset="0"
         id="stop1464" />
      <stop
         style="stop-color:#61c4ff;stop-opacity:1"
         offset="1"
         id="stop1466" />
    </linearGradient>
    <linearGradient
       inkscape:collect="always"
       xlink:href="#linearGradient1066"
       id="linearGradient1206-2"
       x1="53.326771"
       y1="292.7023"
       x2="53"
       y2="275.64999"
       gradientUnits="userSpaceOnUse"
       gradientTransform="matrix(-1,0,0,1,30.00018,2.000775)" />
    <linearGradient
       inkscape:collect="always"
       id="linearGradient1066">
      <stop
         style="stop-color:#ff4b83;stop-opacity:1"
         offset="0"
         id="stop1060" />
      <stop
         id="stop1062"
         offset="0.57894808"
         style="stop-color:#ff9a5d;stop-opacity:1" />
      <stop
         style="stop-color:#ffd001;stop-opacity:1"
         offset="1"
         id="stop1064" />
    </linearGradient>
    <linearGradient
       inkscape:collect="always"
       xlink:href="#linearGradient4162"
       id="linearGradient1079"
       x1="68"
       y1="40.000004"
       x2="68"
       y2="15.000005"
       gradientUnits="userSpaceOnUse"
       gradientTransform="translate(-104,269.27315)" />
    <linearGradient
       inkscape:collect="always"
       xlink:href="#linearGradient1066"
       id="linearGradient1264"
       gradientUnits="userSpaceOnUse"
       gradientTransform="translate(-117.99754,-14.525105)"
       x1="82.25"
       y1="318.64999"
       x2="81.994675"
       y2="299.00797" />
    <linearGradient
       inkscape:collect="always"
       xlink:href="#linearGradient4162"
       id="linearGradient1183"
       x1="54"
       y1="23.000006"
       x2="54"
       y2="4.0000048"
       gradientUnits="userSpaceOnUse"
       gradientTransform="translate(-104.0001,271.65046)" />
    <linearGradient
       inkscape:collect="always"
       xlink:href="#linearGradient1066"
       id="linearGradient1262"
       gradientUnits="userSpaceOnUse"
       gradientTransform="translate(-102.0001,2.000485)"
       x1="53.326771"
       y1="292.7023"
       x2="53"
       y2="275.64999" />
  </defs>
  <sodipodi:namedview
     id="base"
     pagecolor="#ffffff"
     bordercolor="#666666"
     borderopacity="1.0"
     inkscape:pageopacity="0.0"
     inkscape:pageshadow="2"
     inkscape:zoom="1"
     inkscape:cx="55.915924"
     inkscape:cy="113.44649"
     inkscape:document-units="px"
     inkscape:current-layer="layer1"
     showgrid="false"
     units="px"
     inkscape:window-width="1360"
     inkscape:window-height="711"
     inkscape:window-x="0"
     inkscape:window-y="28"
     inkscape:window-maximized="1"
     objecttolerance="10"
     gridtolerance="10"
     guidetolerance="10"
     inkscape:snap-bbox="true"
     inkscape:bbox-paths="true"
     inkscape:bbox-nodes="true"
     inkscape:snap-bbox-edge-midpoints="true"
     inkscape:snap-bbox-midpoints="true"
     inkscape:object-paths="true"
     inkscape:snap-intersection-paths="true">
    <inkscape:grid
       type="xygrid"
       id="grid7897"
       empspacing="4" />
  </sodipodi:namedview>
  <metadata
     id="metadata5">
    <rdf:RDF>
      <cc:Work
         rdf:about="">
        <dc:format>image/svg+xml</dc:format>
        <dc:type
           rdf:resource="http://purl.org/dc/dcmitype/StillImage" />
        <dc:title>Antu icon Theme</dc:title>
      </cc:Work>
    </rdf:RDF>
  </metadata>
  <g
     inkscape:label="Capa 1"
     inkscape:groupmode="layer"
     id="layer1"
     transform="translate(0,-266.64999)">
    <g
       id="g2183"
       transform="translate(60,-3.999995)">
      <path
         inkscape:connector-curvature="0"
         id="rect4544"
         d="m -36.000024,272.65001 h 4.7e-5 c 12.187976,0 21.999977,9.81198 21.999977,21.99998 0,12.18797 -9.812001,21.99997 -21.999977,21.99997 h -4.7e-5 c -12.188,0 -21.999977,-9.812 -21.999977,-21.99997 0,-12.188 9.811977,-21.99998 21.999977,-21.99998 z"
         style="opacity:1;fill:#3b74b2;fill-opacity:1;stroke:none;stroke-width:0.30000001;stroke-miterlimit:4;stroke-dasharray:none;stroke-opacity:1" />
      <path
         inkscape:connector-curvature="0"
         id="rect4544-5"
         d="m -36.000024,273.64997 h 2.3e-5 c 11.633999,0 20.999992,9.36599 20.999992,20.99999 0,11.63401 -9.365993,21 -20.999992,21 h -2.3e-5 c -11.633999,0 -20.999992,-9.36599 -20.999992,-21 0,-11.634 9.365993,-20.99999 20.999992,-20.99999 z"
         style="opacity:1;fill:url(#linearGradient4836);fill-opacity:1;stroke:none;stroke-width:0.30000001;stroke-miterlimit:4;stroke-dasharray:none;stroke-opacity:1" />
      <path
         style="color:#000000;font-style:normal;font-variant:normal;font-weight:normal;font-stretch:normal;font-size:medium;line-height:normal;font-family:sans-serif;font-variant-ligatures:normal;font-variant-position:normal;font-variant-caps:normal;font-variant-numeric:normal;font-variant-alternates:normal;font-feature-settings:normal;text-indent:0;text-align:start;text-decoration:none;text-decoration-line:none;text-decoration-style:solid;text-decoration-color:#000000;letter-spacing:normal;word-spacing:normal;text-transform:none;writing-mode:lr-tb;direction:ltr;text-orientation:mixed;dominant-baseline:auto;baseline-shift:baseline;text-anchor:start;white-space:normal;shape-padding:0;clip-rule:nonzero;display:inline;overflow:visible;visibility:visible;opacity:1;isolation:auto;mix-blend-mode:normal;color-interpolation:sRGB;color-interpolation-filters:linearRGB;solid-color:#000000;solid-opacity:1;vector-effect:none;fill:url(#linearGradient1183);fill-opacity:1;fill-rule:nonzero;stroke:none;stroke-width:2;stroke-linecap:round;stroke-linejoin:round;stroke-miterlimit:4;stroke-dasharray:none;stroke-dashoffset:0;stroke-opacity:1;color-rendering:auto;image-rendering:auto;shape-rendering:auto;text-rendering:auto;enable-background:accumulate"
         d="m -49.980569,274.65046 a 1.0001,1.0001 0 0 0 -1.019531,1 v 6 14 a 1.0001,1.0001 0 0 0 1.582031,0.8125 l 14,-10 a 1.0001,1.0001 0 0 0 0,-1.62695 l -14,-10 a 1.0001,1.0001 0 0 0 -0.5625,-0.18555 z"
         id="path1174"
         inkscape:connector-curvature="0" />
      <path
         inkscape:connector-curvature="0"
         style="color:#000000;font-style:normal;font-variant:normal;font-weight:normal;font-stretch:normal;font-size:medium;line-height:normal;font-family:sans-serif;font-variant-ligatures:normal;font-variant-position:normal;font-variant-caps:normal;font-variant-numeric:normal;font-variant-alternates:normal;font-feature-settings:normal;text-indent:0;text-align:start;text-decoration:none;text-decoration-line:none;text-decoration-style:solid;text-decoration-color:#000000;letter-spacing:normal;word-spacing:normal;text-transform:none;writing-mode:lr-tb;direction:ltr;text-orientation:mixed;dominant-baseline:auto;baseline-shift:baseline;text-anchor:start;white-space:normal;shape-padding:0;clip-rule:nonzero;display:inline;overflow:visible;visibility:visible;opacity:1;isolation:auto;mix-blend-mode:normal;color-interpolation:sRGB;color-interpolation-filters:linearRGB;solid-color:#000000;solid-opacity:1;vector-effect:none;fill:url(#linearGradient1258);fill-opacity:1;fill-rule:nonzero;stroke:none;stroke-width:2;stroke-linecap:round;stroke-linejoin:round;stroke-miterlimit:4;stroke-dasharray:none;stroke-dashoffset:0;stroke-opacity:1;color-rendering:auto;image-rendering:auto;shape-rendering:auto;text-rendering:auto;enable-background:accumulate"
         d="m -35.990234,283.64999 a 1.0001,1.0001 0 0 0 -0.583985,0.17968 l -20,14 a 1.0001,1.0001 0 0 0 -0.02539,1.61915 l 20,15 a 1.0001,1.0001 0 0 0 1.199218,0 l 20,-15 a 1.0001,1.0001 0 0 0 -0.02539,-1.61915 l -20,-14 a 1.0001,1.0001 0 0 0 -0.564453,-0.17968 z"
         id="path1129" />
      <path
         style="fill:url(#linearGradient1260);fill-opacity:1;stroke:none;stroke-width:2;stroke-linecap:round;stroke-linejoin:round;stroke-miterlimit:4;stroke-dasharray:none;stroke-opacity:1"
         d="m -56,298.64999 20,15 20,-15 -20,-14 z"
         id="path928-0-8"
         inkscape:connector-curvature="0"
         sodipodi:nodetypes="ccccc" />
      <path
         inkscape:connector-curvature="0"
         style="color:#000000;font-style:normal;font-variant:normal;font-weight:normal;font-stretch:normal;font-size:medium;line-height:normal;font-family:sans-serif;font-variant-ligatures:normal;font-variant-position:normal;font-variant-caps:normal;font-variant-numeric:normal;font-variant-alternates:normal;font-feature-settings:normal;text-indent:0;text-align:start;text-decoration:none;text-decoration-line:none;text-decoration-style:solid;text-decoration-color:#000000;letter-spacing:normal;word-spacing:normal;text-transform:none;writing-mode:lr-tb;direction:ltr;text-orientation:mixed;dominant-baseline:auto;baseline-shift:baseline;text-anchor:start;white-space:normal;shape-padding:0;clip-rule:nonzero;display:inline;overflow:visible;visibility:visible;opacity:1;isolation:auto;mix-blend-mode:normal;color-interpolation:sRGB;color-interpolation-filters:linearRGB;solid-color:#000000;solid-opacity:1;vector-effect:none;fill:url(#linearGradient1183-9);fill-opacity:1;fill-rule:nonzero;stroke:none;stroke-width:2;stroke-linecap:round;stroke-linejoin:round;stroke-miterlimit:4;stroke-dasharray:none;stroke-dashoffset:0;stroke-opacity:1;color-rendering:auto;image-rendering:auto;shape-rendering:auto;text-rendering:auto;enable-background:accumulate"
         d="m -22.019351,274.65075 a 1.0001,1.0001 0 0 1 1.019531,1 v 6 14 a 1.0001,1.0001 0 0 1 -1.582031,0.8125 l -14,-10 a 1.0001,1.0001 0 0 1 0,-1.62695 l 14,-10 a 1.0001,1.0001 0 0 1 0.5625,-0.18555 z"
         id="path1174-9" />
      <path
         style="fill:url(#linearGradient1262);fill-opacity:1;stroke:none;stroke-width:2;stroke-linecap:round;stroke-linejoin:round;stroke-miterlimit:4;stroke-dasharray:none;stroke-opacity:1"
         d="m -50.0001,281.65046 v 14 l 14,-10 -14,-10 z"
         id="path928-9-3-7"
         inkscape:connector-curvature="0"
         sodipodi:nodetypes="ccccc" />
      <path
         style="fill:url(#linearGradient1206-2);fill-opacity:1;stroke:none;stroke-width:2;stroke-linecap:round;stroke-linejoin:round;stroke-miterlimit:4;stroke-dasharray:none;stroke-opacity:1"
         d="m -21.99982,281.65076 v 14 l -14,-10 14,-10 z"
         id="path928-9-3-7-2"
         inkscape:connector-curvature="0"
         sodipodi:nodetypes="ccccc" />
      <path
         style="color:#000000;font-style:normal;font-variant:normal;font-weight:normal;font-stretch:normal;font-size:medium;line-height:normal;font-family:sans-serif;font-variant-ligatures:normal;font-variant-position:normal;font-variant-caps:normal;font-variant-numeric:normal;font-variant-alternates:normal;font-feature-settings:normal;text-indent:0;text-align:start;text-decoration:none;text-decoration-line:none;text-decoration-style:solid;text-decoration-color:#000000;letter-spacing:normal;word-spacing:normal;text-transform:none;writing-mode:lr-tb;direction:ltr;text-orientation:mixed;dominant-baseline:auto;baseline-shift:baseline;text-anchor:start;white-space:normal;shape-padding:0;clip-rule:nonzero;display:inline;overflow:visible;visibility:visible;opacity:1;isolation:auto;mix-blend-mode:normal;color-interpolation:sRGB;color-interpolation-filters:linearRGB;solid-color:#000000;solid-opacity:1;vector-effect:none;fill:url(#linearGradient1079);fill-opacity:1;fill-rule:nonzero;stroke:none;stroke-width:2;stroke-linecap:round;stroke-linejoin:round;stroke-miterlimit:4;stroke-dasharray:none;stroke-dashoffset:0;stroke-opacity:1;color-rendering:auto;image-rendering:auto;shape-rendering:auto;text-rendering:auto;enable-background:accumulate"
         d="m -36.054688,282.66572 a 1.0001,1.0001 0 0 0 -0.552734,0.20119 l -13.996094,10.60936 A 1.0001,1.0001 0 0 0 -51,294.27315 v 3 a 1.0001,1.0001 0 0 0 1,1 c 3.666667,0 6.905479,1.83523 9.253906,4.46484 2.348428,2.62962 3.74525,6.04284 3.744141,8.92578 a 1.0001,1.0001 0 0 0 0.0059,0.0996 1.0001,1.0001 0 0 0 0.07813,0.28906 1.0001,1.0001 0 0 0 0.386719,0.44727 1.0001,1.0001 0 0 0 0.08789,0.0488 1.0001,1.0001 0 0 0 0.0918,0.0391 1.0001,1.0001 0 0 0 0.292968,0.0606 1.0001,1.0001 0 0 0 0.199219,-0.008 1.0001,1.0001 0 0 0 0.193359,-0.0488 1.0001,1.0001 0 0 0 0.0918,-0.0371 1.0001,1.0001 0 0 0 0.08789,-0.0469 1.0001,1.0001 0 0 0 0.230469,-0.19139 1.0001,1.0001 0 0 0 0.201171,-0.34375 1.0001,1.0001 0 0 0 0.05273,-0.29494 1.0001,1.0001 0 0 0 0,-0.0117 c 0.0011,-2.88325 1.398953,-6.29801 3.748047,-8.92773 2.349093,-2.62971 5.587239,-4.46484 9.253906,-4.46484 a 1.0001,1.0001 0 0 0 1,-1 v -3 a 1.0001,1.0001 0 0 0 -0.396484,-0.79688 L -35.398438,282.8669 a 1.0001,1.0001 0 0 0 -0.65625,-0.20118 z"
         id="path1069"
         inkscape:connector-curvature="0" />
      <path
         style="fill:url(#linearGradient1264);fill-opacity:1;stroke:none;stroke-width:2;stroke-linecap:round;stroke-linejoin:round;stroke-miterlimit:4;stroke-dasharray:none;stroke-opacity:1"
         d="m -49.99754,297.25801 c 8,0 14,8 13.99754,14.39198 0.0025,-6.39198 6.00246,-14.39198 14.00246,-14.39198 v -3 L -36,283.64999 -49.99754,294.25801 Z"
         id="path928-2-9-6"
         inkscape:connector-curvature="0"
         sodipodi:nodetypes="ccccccc" />
      <path
         inkscape:connector-curvature="0"
         style="opacity:1;vector-effect:none;fill:url(#linearGradient1125);fill-opacity:1;stroke:none;stroke-width:2;stroke-linecap:round;stroke-linejoin:round;stroke-miterlimit:4;stroke-dasharray:none;stroke-dashoffset:0;stroke-opacity:1"
         d="m -36,309.64999 c -1.662,0 -3,1.338 -3,3 0,1.66199 1.338,3 3,3 1.662,0 3,-1.33801 3,-3 0,-1.662 -1.338,-3 -3,-3 z"
         id="path1049" />
      <path
         inkscape:connector-curvature="0"
         style="opacity:1;vector-effect:none;fill:#ffffff;fill-opacity:1;stroke:none;stroke-width:2;stroke-linecap:round;stroke-linejoin:round;stroke-miterlimit:4;stroke-dasharray:none;stroke-dashoffset:0;stroke-opacity:1"
         d="m -36,310.64999 c 1.108,0 2,0.89199 2,2 0,1.108 -0.892,2 -2,2 -1.108,0 -2,-0.892 -2,-2 0,-1.10801 0.892,-2 2,-2 z"
         id="rect1002" />
    </g>
  </g>
</svg>
