<?xml version="1.0" encoding="UTF-8" standalone="no"?>
<!-- Created with Inkscape (http://www.inkscape.org/) -->

<svg
   xmlns:dc="http://purl.org/dc/elements/1.1/"
   xmlns:cc="http://creativecommons.org/ns#"
   xmlns:rdf="http://www.w3.org/1999/02/22-rdf-syntax-ns#"
   xmlns:svg="http://www.w3.org/2000/svg"
   xmlns="http://www.w3.org/2000/svg"
   xmlns:xlink="http://www.w3.org/1999/xlink"
   xmlns:sodipodi="http://sodipodi.sourceforge.net/DTD/sodipodi-0.dtd"
   xmlns:inkscape="http://www.inkscape.org/namespaces/inkscape"
   width="48"
   height="48"
   viewBox="0 0 12.7 12.7"
   version="1.1"
   id="svg8"
   inkscape:version="0.92.3 (2405546, 2018-03-11)"
   sodipodi:docname="gitkraken48.svg">
  <defs
     id="defs2">
    <style
       type="text/css"
       id="current-color-scheme">
      .ColorScheme-Text {
        color:#122036;
      }
      </style>
    <style
       id="current-color-scheme-5"
       type="text/css">
      .ColorScheme-Text {
        color:#122036;
      }
      </style>
    <style
       type="text/css"
       id="current-color-scheme-53">
      .ColorScheme-Text {
        color:#122036;
      }
      </style>
    <style
       type="text/css"
       id="current-color-scheme-2">
      .ColorScheme-Text {
        color:#122036;
      }
      </style>
    <style
       id="current-color-scheme-60"
       type="text/css">
      .ColorScheme-Text {
        color:#122036;
      }
      </style>
    <style
       type="text/css"
       id="current-color-scheme-6">
      .ColorScheme-Text {
        color:#122036;
      }
      </style>
    <style
       type="text/css"
       id="current-color-scheme-2-6">
      .ColorScheme-Text {
        color:#122036;
      }
      </style>
    <style
       type="text/css"
       id="current-color-scheme-29">
      .ColorScheme-Text {
        color:#122036;
      }
      </style>
    <style
       id="current-color-scheme-1"
       type="text/css">
      .ColorScheme-Text {
        color:#122036;
      }
      </style>
    <linearGradient
       id="linearGradient7100"
       inkscape:collect="always">
      <stop
         id="stop7096"
         offset="0"
         style="stop-color:#02ca56;stop-opacity:1" />
      <stop
         id="stop7098"
         offset="1"
         style="stop-color:#75d97d;stop-opacity:1" />
    </linearGradient>
    <linearGradient
       inkscape:collect="always"
       id="linearGradient4506">
      <stop
         style="stop-color:#252a34;stop-opacity:1"
         offset="0"
         id="stop4502" />
      <stop
         style="stop-color:#353d4b;stop-opacity:1"
         offset="1"
         id="stop4504" />
    </linearGradient>
    <linearGradient
       inkscape:collect="always"
       xlink:href="#linearGradient7100"
       id="linearGradient875"
       x1="0.79375142"
       y1="294.88333"
       x2="0.79375142"
       y2="286.15207"
       gradientUnits="userSpaceOnUse" />
    <linearGradient
       inkscape:collect="always"
       xlink:href="#linearGradient4506"
       id="linearGradient883"
       x1="43.138718"
       y1="321.83588"
       x2="43.138718"
       y2="294.56314"
       gradientUnits="userSpaceOnUse" />
  </defs>
  <sodipodi:namedview
     id="base"
     pagecolor="#ffffff"
     bordercolor="#666666"
     borderopacity="1.0"
     inkscape:pageopacity="0.0"
     inkscape:pageshadow="2"
     inkscape:zoom="15.839192"
     inkscape:cx="13.721161"
     inkscape:cy="25.518186"
     inkscape:document-units="px"
     inkscape:current-layer="g2400"
     showgrid="true"
     units="px"
     inkscape:showpageshadow="false"
     inkscape:snap-bbox="true"
     inkscape:bbox-paths="true"
     inkscape:bbox-nodes="true"
     inkscape:snap-bbox-edge-midpoints="true"
     inkscape:snap-bbox-midpoints="true"
     inkscape:object-paths="true"
     inkscape:snap-intersection-paths="true"
     inkscape:window-width="1874"
     inkscape:window-height="1141"
     inkscape:window-x="46"
     inkscape:window-y="30"
     inkscape:window-maximized="1">
    <inkscape:grid
       type="xygrid"
       id="grid815" />
  </sodipodi:namedview>
  <metadata
     id="metadata5">
    <rdf:RDF>
      <cc:Work
         rdf:about="">
        <dc:format>image/svg+xml</dc:format>
        <dc:type
           rdf:resource="http://purl.org/dc/dcmitype/StillImage" />
        <dc:title></dc:title>
      </cc:Work>
    </rdf:RDF>
  </metadata>
  <g
     inkscape:label="Capa 1"
     inkscape:groupmode="layer"
     id="layer1"
     transform="translate(0,-284.29999)">
    <g
       id="g2400"
       transform="translate(5.5562486,0.52915656)">
      <g
         transform="matrix(0.38805556,0,0,0.38805556,-15.946468,170.5223)"
         id="g3067">
        <path
           inkscape:connector-curvature="0"
           id="rect903-5-1"
           d="m 43.138718,293.19951 c 8.31,0 15,6.69 15,15 0,8.31 -6.69,15 -15,15 -8.31,0 -15,-6.69 -15,-15 0,-8.31 6.69,-15 15,-15 z"
           style="opacity:1;fill:#15151a;fill-opacity:1;stroke:none;stroke-width:1.97685277;stroke-linecap:round;stroke-linejoin:round;stroke-miterlimit:4;stroke-dasharray:none;stroke-opacity:1" />
        <path
           inkscape:connector-curvature="0"
           id="rect903-2-4-94"
           d="m 43.138717,293.88132 c 7.932273,0 14.318182,6.38591 14.318182,14.31818 0,7.93227 -6.385909,14.31818 -14.318182,14.31818 -7.932272,0 -14.318181,-6.38591 -14.318181,-14.31818 0,-7.93227 6.385909,-14.31818 14.318181,-14.31818 z"
           style="opacity:1;fill:url(#linearGradient883);fill-opacity:1;stroke:none;stroke-width:1.88699567;stroke-linecap:round;stroke-linejoin:round;stroke-miterlimit:4;stroke-dasharray:none;stroke-opacity:1" />
      </g>
      <path
         inkscape:connector-curvature="0"
         id="path1102-1"
         d="m 0.80822063,286.1526 c -0.460081,-2e-5 -0.8470225,0.31515 -1.2774413,0.8201 -0.4304187,0.50495 -0.92643523,1.23538 -1.58801683,2.20555 -0.1202129,0.17587 0.00608,0.41446 0.219108,0.41393 0.1433158,0 0.2837747,0.10065 0.4568198,0.34365 0.089828,0.12614 0.1801006,0.2838 0.2713012,0.4563 -0.1227643,0.13967 -0.199471,0.32103 -0.199471,0.52245 0,0.43974 0.35401253,0.79375 0.79375003,0.79375 0.037236,0 0.072677,-0.006 0.1085205,-0.0109 0.049151,0.0732 0.102032,0.14252 0.1560629,0.21032 v 0.9002 a 2.645833,2.645833 0 0 1 -1.57148043,-2.158 h -0.7968506 a 3.4395833,3.4395833 0 0 0 2.36833103,3.0024 v 0.55294 A 3.9687497,3.9687497 0 0 1 -3.1522611,290.65 H -3.941877 a 4.7624997,4.7624997 0 0 0 4.48448093,4.48448 v -0.79324 -0.52865 -0.79478 -0.54984 c 0.08412,0.0208 0.1715177,0.0341 0.2635498,0.0341 0.092783,0 0.1807234,-0.0134 0.26561677,-0.0346 v 0.54777 0.79685 0.52813 0.54312 0.25115 A 4.7624997,4.7624997 0 0 0 5.560385,290.65 H 4.7630179 a 3.9687497,3.9687497 0 0 1 -2.8974974,3.55017 v -0.54881 A 3.4395833,3.4395833 0 0 0 4.2354014,290.65 H 3.4395847 a 2.645833,2.645833 0 0 1 -1.5740642,2.15387 v -0.89607 c 0.054031,-0.0678 0.1069115,-0.1371 0.1560629,-0.21032 0.035844,0.005 0.071284,0.0109 0.1085202,0.0109 0.4397375,0 0.79375,-0.35401 0.79375,-0.79375 0,-0.20168 -0.076936,-0.38323 -0.1999877,-0.52297 0.090562,-0.17227 0.1800217,-0.32978 0.2697509,-0.45578 0.1730449,-0.243 0.3160879,-0.34417 0.4594037,-0.34417 0.2130298,5.3e-4 0.3388043,-0.23754 0.2185911,-0.41341 -0.6613348,-0.97012 -1.1577217,-1.70059 -1.5880165,-2.20555 -0.4302948,-0.50496 -0.8152934,-0.82009 -1.27537447,-0.8201 z m -1.3239501,4.23281 c 0.2931584,0 0.5291667,0.23601 0.5291667,0.52917 0,0.29316 -0.2360083,0.52917 -0.5291667,0.52917 -0.2931583,0 -0.52916663,-0.23601 -0.52916663,-0.52917 0,-0.29316 0.23600833,-0.52917 0.52916663,-0.52917 z m 2.64583307,0 c 0.2931583,0 0.5291669,0.23601 0.5291669,0.52917 0,0.29316 -0.2360086,0.52917 -0.5291669,0.52917 -0.2931581,0 -0.5291664,-0.23601 -0.5291664,-0.52917 0,-0.29316 0.2360083,-0.52917 0.5291664,-0.52917 z"
         style="color:#000000;font-style:normal;font-variant:normal;font-weight:normal;font-stretch:normal;font-size:medium;line-height:normal;font-family:sans-serif;font-variant-ligatures:normal;font-variant-position:normal;font-variant-caps:normal;font-variant-numeric:normal;font-variant-alternates:normal;font-feature-settings:normal;text-indent:0;text-align:start;text-decoration:none;text-decoration-line:none;text-decoration-style:solid;text-decoration-color:#000000;letter-spacing:normal;word-spacing:normal;text-transform:none;writing-mode:lr-tb;direction:ltr;text-orientation:mixed;dominant-baseline:auto;baseline-shift:baseline;text-anchor:start;white-space:normal;shape-padding:0;clip-rule:nonzero;display:inline;overflow:visible;visibility:visible;opacity:1;isolation:auto;mix-blend-mode:normal;color-interpolation:sRGB;color-interpolation-filters:linearRGB;solid-color:#000000;solid-opacity:1;vector-effect:none;fill:#15151a;fill-opacity:1;fill-rule:nonzero;stroke:none;stroke-width:0.52916664;stroke-linecap:round;stroke-linejoin:round;stroke-miterlimit:4;stroke-dasharray:none;stroke-dashoffset:0;stroke-opacity:1;color-rendering:auto;image-rendering:auto;shape-rendering:auto;text-rendering:auto;enable-background:accumulate" />
      <path
         inkscape:connector-curvature="0"
         id="path1102"
         d="m 0.80770247,285.888 c -0.460081,-2e-5 -0.8470225,0.31515 -1.2774414,0.8201 -0.4304186,0.50495 -0.92643507,1.23538 -1.58801667,2.20555 -0.1202129,0.17587 0.00608,0.41446 0.219108,0.41393 0.1433158,0 0.2837747,0.10065 0.4568198,0.34365 0.089828,0.12614 0.1801006,0.2838 0.2713011,0.4563 -0.1227642,0.13967 -0.1994709,0.32103 -0.1994709,0.52245 0,0.43974 0.35401247,0.79375 0.79374997,0.79375 0.037236,0 0.072677,-0.006 0.1085204,-0.0109 0.049151,0.0732 0.1020321,0.14252 0.1560629,0.21032 v 0.9002 a 2.645833,2.645833 0 0 1 -1.57148027,-2.158 h -0.7968506 a 3.4395833,3.4395833 0 0 0 2.36833087,3.0024 v 0.55294 A 3.9687497,3.9687497 0 0 1 -3.1527792,290.3854 h -0.7896159 a 4.7624997,4.7624997 0 0 0 4.48448077,4.48448 v -0.79324 -0.52865 -0.79478 -0.54984 c 0.08412,0.0208 0.1715178,0.0341 0.2635499,0.0341 0.092783,0 0.1807234,-0.0134 0.26561683,-0.0346 v 0.54777 0.79685 0.52813 0.54312 0.25115 a 4.7624997,4.7624997 0 0 0 4.4886143,-4.48449 h -0.797367 a 3.9687497,3.9687497 0 0 1 -2.8974973,3.55017 v -0.54881 A 3.4395833,3.4395833 0 0 0 4.2348832,290.3854 H 3.4390666 a 2.645833,2.645833 0 0 1 -1.5740642,2.15387 v -0.89607 c 0.054031,-0.0678 0.1069115,-0.1371 0.1560629,-0.21032 0.035844,0.005 0.071284,0.0109 0.1085202,0.0109 0.4397375,0 0.79375,-0.35401 0.79375,-0.79375 0,-0.20168 -0.076936,-0.38323 -0.1999877,-0.52297 0.090562,-0.17227 0.1800217,-0.32978 0.2697509,-0.45578 0.1730449,-0.243 0.3160879,-0.34417 0.4594037,-0.34417 0.2130298,5.3e-4 0.3388042,-0.23754 0.2185911,-0.41341 -0.6613348,-0.97012 -1.1577217,-1.70059 -1.5880165,-2.20555 -0.4302948,-0.50496 -0.8152934,-0.82009 -1.27537453,-0.8201 z m -1.3239501,4.23281 c 0.2931583,0 0.5291667,0.23601 0.5291667,0.52917 0,0.29316 -0.2360084,0.52917 -0.5291667,0.52917 -0.2931583,0 -0.52916667,-0.23601 -0.52916667,-0.52917 0,-0.29316 0.23600837,-0.52917 0.52916667,-0.52917 z m 2.64583313,0 c 0.2931583,0 0.5291669,0.23601 0.5291669,0.52917 0,0.29316 -0.2360086,0.52917 -0.5291669,0.52917 -0.2931581,0 -0.5291664,-0.23601 -0.5291664,-0.52917 0,-0.29316 0.2360083,-0.52917 0.5291664,-0.52917 z"
         style="color:#000000;font-style:normal;font-variant:normal;font-weight:normal;font-stretch:normal;font-size:medium;line-height:normal;font-family:sans-serif;font-variant-ligatures:normal;font-variant-position:normal;font-variant-caps:normal;font-variant-numeric:normal;font-variant-alternates:normal;font-feature-settings:normal;text-indent:0;text-align:start;text-decoration:none;text-decoration-line:none;text-decoration-style:solid;text-decoration-color:#000000;letter-spacing:normal;word-spacing:normal;text-transform:none;writing-mode:lr-tb;direction:ltr;text-orientation:mixed;dominant-baseline:auto;baseline-shift:baseline;text-anchor:start;white-space:normal;shape-padding:0;clip-rule:nonzero;display:inline;overflow:visible;visibility:visible;opacity:1;isolation:auto;mix-blend-mode:normal;color-interpolation:sRGB;color-interpolation-filters:linearRGB;solid-color:#000000;solid-opacity:1;vector-effect:none;fill:url(#linearGradient875);fill-opacity:1;fill-rule:nonzero;stroke:none;stroke-width:0.52916664;stroke-linecap:round;stroke-linejoin:round;stroke-miterlimit:4;stroke-dasharray:none;stroke-dashoffset:0;stroke-opacity:1;color-rendering:auto;image-rendering:auto;shape-rendering:auto;text-rendering:auto;enable-background:accumulate" />
    </g>
  </g>
</svg>
