<?xml version="1.0" encoding="UTF-8" standalone="no"?>
<!-- Created with Inkscape (http://www.inkscape.org/) -->

<svg
   width="48"
   height="48"
   viewBox="0 0 48 48"
   version="1.1"
   id="svg8"
   inkscape:version="1.2 (dc2aedaf03, 2022-05-15)"
   sodipodi:docname="google-chrome-beta.svg"
   xmlns:inkscape="http://www.inkscape.org/namespaces/inkscape"
   xmlns:sodipodi="http://sodipodi.sourceforge.net/DTD/sodipodi-0.dtd"
   xmlns:xlink="http://www.w3.org/1999/xlink"
   xmlns="http://www.w3.org/2000/svg"
   xmlns:svg="http://www.w3.org/2000/svg"
   xmlns:rdf="http://www.w3.org/1999/02/22-rdf-syntax-ns#"
   xmlns:cc="http://creativecommons.org/ns#"
   xmlns:dc="http://purl.org/dc/elements/1.1/">
  <title
     id="title7895">Antu icon Theme</title>
  <defs
     id="defs2">
    <linearGradient
       inkscape:collect="always"
       xlink:href="#linearGradient4506"
       id="linearGradient1284"
       x1="24"
       y1="20.250006"
       x2="24.324219"
       y2="3.0019531"
       gradientUnits="userSpaceOnUse" />
    <linearGradient
       inkscape:collect="always"
       xlink:href="#linearGradient4506"
       id="linearGradient1292"
       x1="16"
       y1="310.64999"
       x2="16"
       y2="282.64999"
       gradientUnits="userSpaceOnUse" />
    <linearGradient
       inkscape:collect="always"
       xlink:href="#linearGradient2126"
       id="linearGradient1300"
       x1="32"
       y1="40.000004"
       x2="32"
       y2="20.000006"
       gradientUnits="userSpaceOnUse" />
    <linearGradient
       inkscape:collect="always"
       id="linearGradient2126">
      <stop
         style="stop-color:#475057;stop-opacity:1;"
         offset="0"
         id="stop2122" />
      <stop
         style="stop-color:#5e6a73;stop-opacity:1"
         offset="1"
         id="stop2124" />
    </linearGradient>
    <linearGradient
       id="linearGradient4506"
       inkscape:collect="always">
      <stop
         id="stop4502"
         offset="0"
         style="stop-color:#252a34;stop-opacity:1" />
      <stop
         id="stop4504"
         offset="1"
         style="stop-color:#353d4b;stop-opacity:1" />
    </linearGradient>
    <linearGradient
       inkscape:collect="always"
       xlink:href="#linearGradient4582-3"
       id="linearGradient990"
       gradientUnits="userSpaceOnUse"
       gradientTransform="matrix(6.9291341,0,0,6.9291341,-69.270839,-1759.0527)"
       x1="13.460677"
       y1="297.13229"
       x2="13.460677"
       y2="294.48645" />
    <linearGradient
       id="linearGradient4582-3"
       inkscape:collect="always">
      <stop
         id="stop4578-5"
         offset="0"
         style="stop-color:#cee3e3;stop-opacity:1" />
      <stop
         id="stop4580-6"
         offset="1"
         style="stop-color:#fcfcfc;stop-opacity:1" />
    </linearGradient>
    <linearGradient
       inkscape:collect="always"
       xlink:href="#linearGradient4680"
       id="linearGradient992"
       gradientUnits="userSpaceOnUse"
       gradientTransform="matrix(10.07874,0,0,10.07874,-111.66667,-2690.7355)"
       x1="13.460677"
       y1="296.33853"
       x2="13.460677"
       y2="295.28021" />
    <linearGradient
       id="linearGradient4680"
       inkscape:collect="always">
      <stop
         id="stop4676"
         offset="0"
         style="stop-color:#0e73ec;stop-opacity:1" />
      <stop
         id="stop4678"
         offset="1"
         style="stop-color:#36b1fb;stop-opacity:1" />
    </linearGradient>
  </defs>
  <sodipodi:namedview
     id="base"
     pagecolor="#ffffff"
     bordercolor="#666666"
     borderopacity="1.0"
     inkscape:pageopacity="0.0"
     inkscape:pageshadow="2"
     inkscape:zoom="15.999999"
     inkscape:cx="18.312501"
     inkscape:cy="16.843751"
     inkscape:document-units="px"
     inkscape:current-layer="g911"
     showgrid="false"
     units="px"
     inkscape:window-width="2160"
     inkscape:window-height="1337"
     inkscape:window-x="0"
     inkscape:window-y="0"
     inkscape:window-maximized="1"
     objecttolerance="10"
     gridtolerance="10"
     guidetolerance="10"
     inkscape:snap-bbox="true"
     inkscape:bbox-nodes="true"
     inkscape:bbox-paths="true"
     inkscape:snap-bbox-edge-midpoints="true"
     inkscape:snap-bbox-midpoints="true"
     inkscape:object-paths="true"
     inkscape:snap-intersection-paths="true"
     inkscape:object-nodes="true"
     inkscape:snap-smooth-nodes="false"
     inkscape:snap-midpoints="false"
     inkscape:showpageshadow="false"
     inkscape:pagecheckerboard="0"
     inkscape:deskcolor="#d1d1d1">
    <inkscape:grid
       type="xygrid"
       id="grid7897"
       empspacing="4" />
  </sodipodi:namedview>
  <metadata
     id="metadata5">
    <rdf:RDF>
      <cc:Work
         rdf:about="">
        <dc:format>image/svg+xml</dc:format>
        <dc:type
           rdf:resource="http://purl.org/dc/dcmitype/StillImage" />
        <dc:title>Antu icon Theme</dc:title>
      </cc:Work>
    </rdf:RDF>
  </metadata>
  <g
     inkscape:label="Capa 1"
     inkscape:groupmode="layer"
     id="layer1"
     transform="translate(0,-266.64999)">
    <g
       id="g1535"
       transform="translate(35,-15.000005)">
      <g
         id="g911"
         transform="translate(-35,15)">
        <path
           style="opacity:1;fill:#03080d;fill-opacity:0.98039216;stroke:none;stroke-width:14.09127808;stroke-linecap:round;stroke-linejoin:round;stroke-miterlimit:4;stroke-dasharray:none;stroke-opacity:1"
           d="m 43.424847,280.32162 a 22,22 0 0 1 -2.207467,24.0237 22,22 0 0 1 -22.911399,7.55504 L 24,290.64999 Z"
           id="path1246" />
        <path
           style="opacity:1;fill:url(#linearGradient1300);fill-opacity:1.0;stroke:none;stroke-width:13.45076561;stroke-linecap:round;stroke-linejoin:round;stroke-miterlimit:4;stroke-dasharray:none;stroke-opacity:1"
           d="M 42.541016 14.140625 L 39.044922 16 L 30 16 L 30 20.808594 L 24 24 L 18.564453 44.285156 A 21 21 0 0 0 40.435547 37.072266 A 21 21 0 0 0 42.541016 14.140625 z "
           transform="translate(0,266.64999)"
           id="path1246-8" />
        <path
           style="opacity:1;fill:#03080d;fill-opacity:0.98039216;stroke:none;stroke-width:19.55555534;stroke-linecap:round;stroke-linejoin:round;stroke-miterlimit:4;stroke-dasharray:none;stroke-opacity:1"
           d="M 21.700373,312.52948 A 22,22 0 0 1 3.9019998,299.5982 22,22 0 0 1 6.2016263,277.71872 L 24,290.64999 Z"
           id="path1215" />
        <path
           style="opacity:1;fill:url(#linearGradient1292);fill-opacity:1.0;stroke:none;stroke-width:18.66666603;stroke-linecap:round;stroke-linejoin:round;stroke-miterlimit:4;stroke-dasharray:none;stroke-opacity:1"
           d="M 21.804902,311.53495 A 21,21 0 0 1 4.8155452,299.19146 21,21 0 0 1 7.0106433,278.3065 L 24,290.64999 Z"
           id="path1215-2" />
        <path
           style="opacity:1;fill:#03080d;fill-opacity:0.98039216;stroke:none;stroke-width:8.58792019;stroke-linecap:round;stroke-linejoin:round;stroke-miterlimit:4;stroke-dasharray:none;stroke-opacity:1"
           d="M 23.263672 2.0117188 C 16.012188 2.2531721 9.2599095 6.0746269 5.34375 12.341797 L 20 33 L 29 16.65625 L 43.673828 16.65625 L 43.794922 17 L 44.859375 17.005859 L 44.738281 16.65625 C 41.919003 8.69486 34.79017 3.0503294 26.394531 2.1308594 C 25.345076 2.0159256 24.299598 1.9772254 23.263672 2.0117188 z "
           transform="translate(0,266.64999)"
           id="path1194" />
        <path
           style="opacity:1;fill:url(#linearGradient1284);fill-opacity:1;stroke:none;stroke-width:8.19756031;stroke-linecap:round;stroke-linejoin:round;stroke-miterlimit:4;stroke-dasharray:none;stroke-opacity:1"
           d="M 24.324219 3.0019531 C 16.820149 2.872441 9.8244078 6.6895375 5.9726562 13.228516 L 20 33 L 29 16.646484 L 30 16.646484 L 30 17 L 43 17 L 43.669922 17 L 43.794922 17 L 43.669922 16.646484 C 40.834985 9.0641044 33.894294 3.7856081 25.830078 3.0800781 C 25.326065 3.0359825 24.82449 3.0105873 24.324219 3.0019531 z "
           transform="translate(0,266.64999)"
           id="path1194-2" />
        <path
           style="opacity:1;fill:#99a8d3;fill-opacity:0.69791669;stroke:none;stroke-width:10.31066132;stroke-linecap:round;stroke-linejoin:round;stroke-miterlimit:4;stroke-dasharray:none;stroke-opacity:1"
           id="path1063-5"
           r="22"
           cy="290.64999"
           cx="24"
           d=""
           inkscape:connector-curvature="0" />
        <g
           id="g6432"
           transform="translate(1.3124986,5.0624988)">
          <g
             id="g1192"
             transform="translate(-1.3124986,-5.0624988)">
            <path
               inkscape:connector-curvature="0"
               id="path1108-9-0"
               d="M 36,290.65005 A 12.000001,12.000001 0 0 1 23.999998,302.65003 12.000001,12.000001 0 0 1 12,290.65005 12.000001,12.000001 0 0 1 23.999998,278.64996 12.000001,12.000001 0 0 1 36,290.65005 Z"
               style="opacity:1;fill:#a9c1cc;fill-opacity:1;stroke:none;stroke-width:3.2;stroke-linecap:square;stroke-linejoin:miter;stroke-miterlimit:4;stroke-dasharray:none;stroke-opacity:1;paint-order:stroke markers fill" />
            <path
               inkscape:connector-curvature="0"
               id="path1108-2-7-2"
               d="m 35,290.64999 a 11,11 0 0 1 -11.000002,11 11,11 0 0 1 -10.999998,-11 11,11 0 0 1 10.999998,-11 11,11 0 0 1 11.000002,11 z"
               style="opacity:0.98;fill:url(#linearGradient990);fill-opacity:1;stroke:none;stroke-width:2.93333;stroke-linecap:square;stroke-linejoin:miter;stroke-miterlimit:4;stroke-dasharray:none;stroke-opacity:1;paint-order:stroke markers fill" />
            <path
               id="path1108-2-0-3-3"
               d="M 33,290.65005 A 8.9999982,8.9999982 0 0 1 23.999992,299.65001 8.9999982,8.9999982 0 0 1 15,290.65005 8.9999982,8.9999982 0 0 1 23.999992,281.64998 8.9999982,8.9999982 0 0 1 33,290.65005 Z"
               style="opacity:0.98;fill:#1950c0;fill-opacity:1;stroke:none;stroke-width:2.4;stroke-linecap:square;stroke-linejoin:miter;stroke-miterlimit:4;stroke-dasharray:none;stroke-opacity:1;paint-order:stroke markers fill"
               inkscape:connector-curvature="0" />
            <path
               id="path1108-2-0-2-6-7"
               d="m 32,290.64999 a 7.9999997,7.9999997 0 0 1 -8,8 7.9999997,7.9999997 0 0 1 -8,-8 7.9999997,7.9999997 0 0 1 8,-8 7.9999997,7.9999997 0 0 1 8,8 z"
               style="opacity:0.98;fill:url(#linearGradient992);fill-opacity:1;stroke:none;stroke-width:2.13333;stroke-linecap:square;stroke-linejoin:miter;stroke-miterlimit:4;stroke-dasharray:none;stroke-opacity:1;paint-order:stroke markers fill"
               inkscape:connector-curvature="0" />
          </g>
        </g>
      </g>
    </g>
  </g>
</svg>
