<?xml version="1.0" encoding="UTF-8" standalone="no"?>
<!-- Created with Inkscape (http://www.inkscape.org/) -->

<svg
   xmlns:dc="http://purl.org/dc/elements/1.1/"
   xmlns:cc="http://creativecommons.org/ns#"
   xmlns:rdf="http://www.w3.org/1999/02/22-rdf-syntax-ns#"
   xmlns:svg="http://www.w3.org/2000/svg"
   xmlns="http://www.w3.org/2000/svg"
   xmlns:xlink="http://www.w3.org/1999/xlink"
   xmlns:sodipodi="http://sodipodi.sourceforge.net/DTD/sodipodi-0.dtd"
   xmlns:inkscape="http://www.inkscape.org/namespaces/inkscape"
   width="48"
   height="48"
   viewBox="0 0 48 48"
   version="1.1"
   id="svg8"
   inkscape:version="0.92.2 2405546, 2018-03-11"
   sodipodi:docname="accessories-calculator.svg">
  <title
     id="title7895">Antu icon Theme</title>
  <defs
     id="defs2">
    <linearGradient
       id="linearGradient4622"
       inkscape:collect="always">
      <stop
         id="stop4618"
         offset="0"
         style="stop-color:#ff6a3e;stop-opacity:1" />
      <stop
         id="stop4620"
         offset="1"
         style="stop-color:#ff9065;stop-opacity:1" />
    </linearGradient>
    <linearGradient
       inkscape:collect="always"
       xlink:href="#linearGradient4622"
       id="linearGradient959"
       x1="24"
       y1="309.27499"
       x2="24"
       y2="285.14999"
       gradientUnits="userSpaceOnUse" />
  </defs>
  <sodipodi:namedview
     id="base"
     pagecolor="#ffffff"
     bordercolor="#666666"
     borderopacity="1.0"
     inkscape:pageopacity="0.0"
     inkscape:pageshadow="2"
     inkscape:zoom="181.01934"
     inkscape:cx="6.5133566"
     inkscape:cy="29.611259"
     inkscape:document-units="px"
     inkscape:current-layer="g1066"
     showgrid="true"
     units="px"
     inkscape:window-width="1360"
     inkscape:window-height="711"
     inkscape:window-x="0"
     inkscape:window-y="28"
     inkscape:window-maximized="1"
     objecttolerance="10"
     gridtolerance="10"
     guidetolerance="10">
    <inkscape:grid
       type="xygrid"
       id="grid7897"
       empspacing="4" />
  </sodipodi:namedview>
  <metadata
     id="metadata5">
    <rdf:RDF>
      <cc:Work
         rdf:about="">
        <dc:format>image/svg+xml</dc:format>
        <dc:type
           rdf:resource="http://purl.org/dc/dcmitype/StillImage" />
        <dc:title>Antu icon Theme</dc:title>
      </cc:Work>
    </rdf:RDF>
  </metadata>
  <g
     inkscape:label="Capa 1"
     inkscape:groupmode="layer"
     id="layer1"
     transform="translate(0,-266.64999)">
    <g
       id="g1066">
      <path
         style="opacity:1;fill:#dd4d25;fill-opacity:1;stroke:none;stroke-width:1;stroke-linecap:round;stroke-linejoin:round;stroke-miterlimit:4;stroke-dasharray:none;stroke-opacity:1"
         d="m 8,284.64999 h 35 v 3 22 c 0,1.662 -1.338,3 -3,3 H 8 c -1.662,0 -3,-1.338 -3,-3 v -25 z"
         id="rect900"
         inkscape:connector-curvature="0"
         sodipodi:nodetypes="cccsssscc" />
      <path
         style="opacity:1;fill:url(#linearGradient959);fill-opacity:1;stroke:none;stroke-width:0.95454556;stroke-linecap:round;stroke-linejoin:round;stroke-miterlimit:4;stroke-dasharray:none;stroke-opacity:1"
         d="m 8,284.64999 h 32 2 v 25 c 0,1.108 -0.892,2 -2,2 H 8 c -1.108,0 -2,-0.892 -2,-2 v -23 -2 z"
         id="rect900-3"
         inkscape:connector-curvature="0"
         sodipodi:nodetypes="cccssssccc" />
      <path
         id="rect900-6"
         transform="translate(0,266.64999)"
         d="M 8 2 C 6.338 2 5 3.338 5 5 L 5 15 L 5 18 L 8 18 L 40 18 L 43 18 L 43 15 L 43 5 C 43 3.338 41.662 2 40 2 L 8 2 z "
         style="opacity:1;fill:#010102;fill-opacity:1;stroke:none;stroke-width:1;stroke-linecap:round;stroke-linejoin:round;stroke-miterlimit:4;stroke-dasharray:none;stroke-opacity:1" />
      <path
         id="rect900-3-0"
         transform="translate(0,266.64999)"
         d="M 8 3 C 6.892 3 6 3.892 6 5 L 6 14 L 6 15 L 6 17 L 8 17 L 40 17 L 42 17 L 42 15 L 42 14 L 42 5 C 42 3.892 41.108 3 40 3 L 8 3 z "
         style="opacity:1;fill:#2c2c2c;fill-opacity:1;stroke:none;stroke-width:0.95454556;stroke-linecap:round;stroke-linejoin:round;stroke-miterlimit:4;stroke-dasharray:none;stroke-opacity:1" />
      <path
         inkscape:connector-curvature="0"
         id="rect961-6"
         d="m 16.5,288.64999 c -0.831,0 -1.5,0.669 -1.5,1.5 v 1.5 h -1.5 c -0.831,0 -1.5,0.669 -1.5,1.5 0,0.831 0.669,1.5 1.5,1.5 H 15 v 1.5 c 0,0.831 0.669,1.5 1.5,1.5 0.831,0 1.5,-0.669 1.5,-1.5 v -1.5 h 1.5 c 0.831,0 1.5,-0.669 1.5,-1.5 0,-0.831 -0.669,-1.5 -1.5,-1.5 H 18 v -1.5 c 0,-0.831 -0.669,-1.5 -1.5,-1.5 z m 15.5,1 c -1.662,0 -3,1.338 -3,3 0,1.662 1.338,3 3,3 1.662,0 3,-1.338 3,-3 0,-1.662 -1.338,-3 -3,-3 z m -3.5,12 c -0.831,0 -1.5,0.669 -1.5,1.5 0,0.831 0.669,1.5 1.5,1.5 h 6 c 0.831,0 1.5,-0.669 1.5,-1.5 0,-0.831 -0.669,-1.5 -1.5,-1.5 z m -15,3 c -0.831,0 -1.5,0.669 -1.5,1.5 0,0.831 0.669,1.5 1.5,1.5 h 6 c 0.831,0 1.5,-0.669 1.5,-1.5 0,-0.831 -0.669,-1.5 -1.5,-1.5 z m 15,2 c -0.831,0 -1.5,0.669 -1.5,1.5 0,0.831 0.669,1.5 1.5,1.5 h 6 c 0.831,0 1.5,-0.669 1.5,-1.5 0,-0.831 -0.669,-1.5 -1.5,-1.5 z"
         style="opacity:1;fill:#dd4d25;fill-opacity:1;stroke:none;stroke-width:1;stroke-linecap:round;stroke-linejoin:round;stroke-miterlimit:4;stroke-dasharray:none;stroke-opacity:1"
         sodipodi:nodetypes="sscssscssscssscssssssssssssssssssssssssssss" />
      <path
         inkscape:connector-curvature="0"
         id="rect961"
         d="m 16.5,287.64999 c -0.831,0 -1.5,0.669 -1.5,1.5 v 1.5 h -1.5 c -0.831,0 -1.5,0.669 -1.5,1.5 0,0.831 0.669,1.5 1.5,1.5 H 15 v 1.5 c 0,0.831 0.669,1.5 1.5,1.5 0.831,0 1.5,-0.669 1.5,-1.5 v -1.5 h 1.5 c 0.831,0 1.5,-0.669 1.5,-1.5 0,-0.831 -0.669,-1.5 -1.5,-1.5 H 18 v -1.5 c 0,-0.831 -0.669,-1.5 -1.5,-1.5 z m 15.5,1 c -1.662,0 -3,1.338 -3,3 0,1.662 1.338,3 3,3 1.662,0 3,-1.338 3,-3 0,-1.662 -1.338,-3 -3,-3 z m -3.5,12 c -0.831,0 -1.5,0.669 -1.5,1.5 0,0.831 0.669,1.5 1.5,1.5 h 6 c 0.831,0 1.5,-0.669 1.5,-1.5 0,-0.831 -0.669,-1.5 -1.5,-1.5 z m -15,3 c -0.831,0 -1.5,0.669 -1.5,1.5 0,0.831 0.669,1.5 1.5,1.5 h 6 c 0.831,0 1.5,-0.669 1.5,-1.5 0,-0.831 -0.669,-1.5 -1.5,-1.5 z m 15,2 c -0.831,0 -1.5,0.669 -1.5,1.5 0,0.831 0.669,1.5 1.5,1.5 h 6 c 0.831,0 1.5,-0.669 1.5,-1.5 0,-0.831 -0.669,-1.5 -1.5,-1.5 z"
         style="opacity:1;fill:#feffff;fill-opacity:1;stroke:none;stroke-width:1;stroke-linecap:round;stroke-linejoin:round;stroke-miterlimit:4;stroke-dasharray:none;stroke-opacity:1"
         sodipodi:nodetypes="sscssscssscssscssssssssssssssssssssssssssss" />
      <path
         id="rect989-2-6"
         d="m 24,273.64999 c -0.554,0 -1,0.446 -1,1 0,0.554 0.446,1 1,1 h 2 v 1 H 24.984375 C 24.439031,276.64999 24,277.08902 24,277.63436 v 0.0312 c 0,0.54535 0.439031,0.98438 0.984375,0.98438 H 26 v 1 h -2 c -0.554,0 -1,0.446 -1,1 0,0.554 0.446,1 1,1 h 3 c 0.554,0 1,-0.446 1,-1 v -2.98438 -0.0312 -2.98437 c 0,-0.554 -0.446,-1 -1,-1 z m 8.984375,0 C 32.439031,273.64999 32,274.08902 32,274.63436 v 6.03125 c 0,0.54535 0.439031,0.98438 0.984375,0.98438 h 0.03125 C 33.560969,281.64999 34,281.21096 34,280.66561 v -6.03125 c 0,-0.54534 -0.439031,-0.98437 -0.984375,-0.98437 z m 3,0 C 35.439031,273.64999 35,274.08902 35,274.63436 v 3.03125 c 0,0.54535 0.439031,0.98438 0.984375,0.98438 H 36.015625 38 v 2.01562 c 0,0.54535 0.439031,0.98438 0.984375,0.98438 h 0.03125 C 39.560969,281.64999 40,281.21096 40,280.66561 v -3 -0.0312 -3 c 0,-0.54534 -0.439031,-0.98437 -0.984375,-0.98437 h -0.03125 C 38.439031,273.64999 38,274.08902 38,274.63436 v 2.01563 h -1 v -2.01563 c 0,-0.54534 -0.439031,-0.98437 -0.984375,-0.98437 z m -6,6 C 29.439031,279.64999 29,280.08902 29,280.63436 v 0.0312 c 0,0.54535 0.439031,0.98438 0.984375,0.98438 h 0.03125 C 30.560969,281.64999 31,281.21096 31,280.66561 v -0.0312 c 0,-0.54534 -0.439031,-0.98437 -0.984375,-0.98437 z"
         style="opacity:1;fill:#010102;fill-opacity:1;stroke:none;stroke-width:1;stroke-linecap:round;stroke-linejoin:round;stroke-miterlimit:4;stroke-dasharray:none;stroke-opacity:1"
         inkscape:connector-curvature="0" />
      <path
         id="rect989-2"
         d="m 24,272.64999 c -0.554,0 -1,0.446 -1,1 0,0.554 0.446,1 1,1 h 2 v 1 H 24.984375 C 24.439031,275.64999 24,276.08902 24,276.63436 v 0.0312 c 0,0.54535 0.439031,0.98438 0.984375,0.98438 H 26 v 1 h -2 c -0.554,0 -1,0.446 -1,1 0,0.554 0.446,1 1,1 h 3 c 0.554,0 1,-0.446 1,-1 v -2.98438 -0.0312 -2.98437 c 0,-0.554 -0.446,-1 -1,-1 z m 8.984375,0 C 32.439031,272.64999 32,273.08902 32,273.63436 v 6.03125 c 0,0.54535 0.439031,0.98438 0.984375,0.98438 h 0.03125 C 33.560969,280.64999 34,280.21096 34,279.66561 v -6.03125 c 0,-0.54534 -0.439031,-0.98437 -0.984375,-0.98437 z m 3,0 C 35.439031,272.64999 35,273.08902 35,273.63436 v 3.03125 c 0,0.54535 0.439031,0.98438 0.984375,0.98438 H 36.015625 38 v 2.01562 c 0,0.54535 0.439031,0.98438 0.984375,0.98438 h 0.03125 C 39.560969,280.64999 40,280.21096 40,279.66561 v -3 -0.0312 -3 c 0,-0.54534 -0.439031,-0.98437 -0.984375,-0.98437 h -0.03125 C 38.439031,272.64999 38,273.08902 38,273.63436 v 2.01563 h -1 v -2.01563 c 0,-0.54534 -0.439031,-0.98437 -0.984375,-0.98437 z m -6,6 C 29.439031,278.64999 29,279.08902 29,279.63436 v 0.0312 c 0,0.54535 0.439031,0.98438 0.984375,0.98438 h 0.03125 C 30.560969,280.64999 31,280.21096 31,279.66561 v -0.0312 c 0,-0.54534 -0.439031,-0.98437 -0.984375,-0.98437 z"
         style="opacity:1;fill:#feffff;fill-opacity:1;stroke:none;stroke-width:1;stroke-linecap:round;stroke-linejoin:round;stroke-miterlimit:4;stroke-dasharray:none;stroke-opacity:1"
         inkscape:connector-curvature="0" />
    </g>
  </g>
</svg>
