<?xml version="1.0" encoding="UTF-8" standalone="no"?>
<!-- Created with Inkscape (http://www.inkscape.org/) -->

<svg
   xmlns:dc="http://purl.org/dc/elements/1.1/"
   xmlns:cc="http://creativecommons.org/ns#"
   xmlns:rdf="http://www.w3.org/1999/02/22-rdf-syntax-ns#"
   xmlns:svg="http://www.w3.org/2000/svg"
   xmlns="http://www.w3.org/2000/svg"
   xmlns:xlink="http://www.w3.org/1999/xlink"
   xmlns:sodipodi="http://sodipodi.sourceforge.net/DTD/sodipodi-0.dtd"
   xmlns:inkscape="http://www.inkscape.org/namespaces/inkscape"
   width="48"
   height="48"
   viewBox="0 0 48 48"
   version="1.1"
   id="svg8"
   inkscape:version="0.92.4 5da689c313, 2019-01-14"
   sodipodi:docname="kdevelop48.svg">
  <title
     id="title7895">Antu icon Theme</title>
  <defs
     id="defs2">
    <linearGradient
       gradientTransform="matrix(3.7795276,0,0,-3.7795276,-324,1353.1696)"
       inkscape:collect="always"
       xlink:href="#linearGradient4565"
       id="linearGradient9532-3"
       x1="84.666664"
       y1="274.77496"
       x2="84.666664"
       y2="282.77863"
       gradientUnits="userSpaceOnUse" />
    <linearGradient
       gradientTransform="translate(-0.928572,1e-5)"
       gradientUnits="userSpaceOnUse"
       y2="278.64999"
       x2="-27.071428"
       y1="314.64999"
       x1="-27.071428"
       id="linearGradient14815"
       xlink:href="#linearGradient977"
       inkscape:collect="always" />
    <style
       type="text/css"
       id="current-color-scheme">
      .ColorScheme-Text {
        color:#122036;
      }
      </style>
    <style
       id="current-color-scheme-1"
       type="text/css">
      .ColorScheme-Text {
        color:#122036;
      }
      </style>
    <style
       type="text/css"
       id="current-color-scheme-3">
      .ColorScheme-Text {
        color:#122036;
      }
      </style>
    <style
       type="text/css"
       id="current-color-scheme-5">
      .ColorScheme-Text {
        color:#122036;
      }
      </style>
    <style
       id="current-color-scheme-1-4"
       type="text/css">
      .ColorScheme-Text {
        color:#122036;
      }
      </style>
    <linearGradient
       id="linearGradient4565"
       inkscape:collect="always">
      <stop
         id="stop4561"
         offset="0"
         style="stop-color:#1780f2;stop-opacity:1" />
      <stop
         id="stop4563"
         offset="1"
         style="stop-color:#02b3fe;stop-opacity:1" />
    </linearGradient>
    <style
       id="current-color-scheme-70"
       type="text/css">
      .ColorScheme-Text {
        color:#36404d;
      }
      </style>
    <style
       type="text/css"
       id="current-color-scheme-6">
      .ColorScheme-Text {
        color:#36404d;
      }
      </style>
    <style
       type="text/css"
       id="current-color-scheme-62">
      .ColorScheme-Text {
        color:#36404d;
      }
      </style>
    <style
       type="text/css"
       id="current-color-scheme-0">
      .ColorScheme-Text {
        color:#122036;
      }
      </style>
    <style
       id="current-color-scheme-1-93"
       type="text/css">
      .ColorScheme-Text {
        color:#122036;
      }
      </style>
    <style
       id="current-color-scheme-3-60"
       type="text/css">
      .ColorScheme-Text {
        color:#122036;
      }
      </style>
    <style
       type="text/css"
       id="current-color-scheme-1-7">
      .ColorScheme-Text {
        color:#122036;
      }
      </style>
    <style
       type="text/css"
       id="current-color-scheme-06">
      .ColorScheme-Text {
        color:#122036;
      }
      </style>
    <style
       id="current-color-scheme-1-1"
       type="text/css">
      .ColorScheme-Text {
        color:#122036;
      }
      </style>
    <style
       id="current-color-scheme-56"
       type="text/css">
      .ColorScheme-Text {
        color:#36404d;
      }
      </style>
    <style
       id="current-color-scheme-0-2"
       type="text/css">
      .ColorScheme-Text {
        color:#122036;
      }
      </style>
    <style
       type="text/css"
       id="current-color-scheme-1-9">
      .ColorScheme-Text {
        color:#122036;
      }
      </style>
    <style
       type="text/css"
       id="current-color-scheme-3-1">
      .ColorScheme-Text {
        color:#122036;
      }
      </style>
    <style
       id="current-color-scheme-1-7-2"
       type="text/css">
      .ColorScheme-Text {
        color:#122036;
      }
      </style>
    <style
       id="current-color-scheme-06-7"
       type="text/css">
      .ColorScheme-Text {
        color:#122036;
      }
      </style>
    <style
       type="text/css"
       id="current-color-scheme-1-1-0">
      .ColorScheme-Text {
        color:#122036;
      }
      </style>
    <style
       type="text/css"
       id="current-color-scheme-5-6">
      .ColorScheme-Text {
        color:#36404d;
      }
      </style>
    <style
       id="current-color-scheme-3-6"
       type="text/css">
      .ColorScheme-Text {
        color:#36404d;
      }
      </style>
    <style
       type="text/css"
       id="current-color-scheme-9">
      .ColorScheme-Text {
        color:#36404d;
      }
      </style>
    <style
       id="current-color-scheme-4"
       type="text/css">
      .ColorScheme-Text {
        color:#122036;
      }
      </style>
    <style
       type="text/css"
       id="current-color-scheme-7">
      .ColorScheme-Text {
        color:#36404d;
      }
      </style>
    <style
       id="current-color-scheme-91"
       type="text/css">
      .ColorScheme-Text {
        color:#122036;
      }
      </style>
    <style
       id="current-color-scheme-7-27"
       type="text/css">
      .ColorScheme-Text {
        color:#122036;
      }
      </style>
    <style
       id="current-color-scheme-5-09"
       type="text/css">
      .ColorScheme-Text {
        color:#122036;
      }
      </style>
    <style
       id="current-color-scheme-0-3"
       type="text/css">
      .ColorScheme-Text {
        color:#122036;
      }
      </style>
    <style
       id="current-color-scheme-7-9"
       type="text/css">
      .ColorScheme-Text {
        color:#122036;
      }
      </style>
    <style
       id="current-color-scheme-5-3"
       type="text/css">
      .ColorScheme-Text {
        color:#122036;
      }
      </style>
    <style
       id="current-color-scheme-79"
       type="text/css">
      .ColorScheme-Text {
        color:#122036;
      }
      </style>
    <style
       id="current-color-scheme-7-2"
       type="text/css">
      .ColorScheme-Text {
        color:#122036;
      }
      </style>
    <style
       id="current-color-scheme-5-0"
       type="text/css">
      .ColorScheme-Text {
        color:#122036;
      }
      </style>
    <style
       id="current-color-scheme-062"
       type="text/css">
      .ColorScheme-Text {
        color:#122036;
      }
      </style>
    <style
       type="text/css"
       id="current-color-scheme-1-6">
      .ColorScheme-Text {
        color:#122036;
      }
      </style>
    <style
       id="current-color-scheme-37"
       type="text/css">
      .ColorScheme-Text {
        color:#122036;
      }
      </style>
    <style
       type="text/css"
       id="current-color-scheme-1-5">
      .ColorScheme-Text {
        color:#122036;
      }
      </style>
    <style
       id="current-color-scheme-19"
       type="text/css">
      .ColorScheme-Text {
        color:#122036;
      }
      </style>
    <style
       type="text/css"
       id="current-color-scheme-5-4">
      .ColorScheme-Text {
        color:#122036;
      }
      </style>
    <style
       type="text/css"
       id="current-color-scheme-2">
      .ColorScheme-Text {
        color:#122036;
      }
      </style>
    <style
       type="text/css"
       id="current-color-scheme-1-78">
      .ColorScheme-Text {
        color:#122036;
      }
      </style>
    <style
       id="current-color-scheme-10"
       type="text/css">
      .ColorScheme-Text {
        color:#122036;
      }
      </style>
    <style
       type="text/css"
       id="current-color-scheme-0-4">
      .ColorScheme-Text {
        color:#122036;
      }
      </style>
    <style
       id="current-color-scheme-36"
       type="text/css">
      .ColorScheme-Text {
        color:#122036;
      }
      </style>
    <style
       type="text/css"
       id="current-color-scheme-1-75">
      .ColorScheme-Text {
        color:#122036;
      }
      </style>
    <linearGradient
       inkscape:collect="always"
       id="linearGradient977">
      <stop
         style="stop-color:#20252f;stop-opacity:1"
         offset="0"
         id="stop973" />
      <stop
         style="stop-color:#0a0b0d;stop-opacity:1"
         offset="1"
         id="stop975" />
    </linearGradient>
  </defs>
  <sodipodi:namedview
     id="base"
     pagecolor="#ffffff"
     bordercolor="#666666"
     borderopacity="1.0"
     inkscape:pageopacity="0.0"
     inkscape:pageshadow="2"
     inkscape:zoom="8.0000002"
     inkscape:cx="66.247414"
     inkscape:cy="1.2500743"
     inkscape:document-units="px"
     inkscape:current-layer="g4434"
     showgrid="true"
     units="px"
     inkscape:window-width="1920"
     inkscape:window-height="1049"
     inkscape:window-x="0"
     inkscape:window-y="0"
     inkscape:window-maximized="1"
     objecttolerance="10"
     gridtolerance="10"
     guidetolerance="10"
     inkscape:snap-bbox="true"
     inkscape:bbox-paths="true"
     inkscape:bbox-nodes="true"
     inkscape:snap-bbox-edge-midpoints="true"
     inkscape:snap-bbox-midpoints="true"
     inkscape:object-paths="true"
     inkscape:snap-intersection-paths="true">
    <inkscape:grid
       type="xygrid"
       id="grid7897"
       empspacing="4" />
  </sodipodi:namedview>
  <metadata
     id="metadata5">
    <rdf:RDF>
      <cc:Work
         rdf:about="">
        <dc:format>image/svg+xml</dc:format>
        <dc:type
           rdf:resource="http://purl.org/dc/dcmitype/StillImage" />
        <dc:title>Antu icon Theme</dc:title>
      </cc:Work>
    </rdf:RDF>
  </metadata>
  <g
     inkscape:label="Capa 1"
     inkscape:groupmode="layer"
     id="layer1"
     transform="translate(0,-266.64999)">
    <g
       id="g4434"
       transform="translate(36,12)">
      <g
         inkscape:label="Capa 1"
         id="layer1-6"
         transform="translate(-36,-12)">
        <g
           id="g15463"
           transform="translate(36,-4)">
          <path
             style="opacity:1;fill:#1a1a1a;fill-opacity:1;stroke:none;stroke-width:0.99999994;stroke-opacity:1"
             d="M 2 3 C 0.891994 3 0 3.892 0 5 L 0 9 L 0 10 L 0 11 L 0 13 L 0 43 C 0 44.10801 0.891994 45 2 45 L 46 45 C 47.108006 45 48 44.10801 48 43 L 48 13 L 48 5 C 48 3.892 47.107968 3 46 3 L 19.976562 3 L 2 3 z "
             transform="translate(-36,270.64999)"
             id="rect9183-4-4" />
          <path
             inkscape:connector-curvature="0"
             style="opacity:0.98999999;fill:url(#linearGradient9532-3);fill-opacity:1.0;stroke:none;stroke-width:0.99999994;stroke-opacity:1"
             d="m -11.999996,314.64997 -1.000004,2e-5 10e-7,-40 H 10 c 0,0 1,0 1,1 l 6e-6,38 c 0,0.55396 -0.446,0.99998 -1.000003,0.99998 v 0 H 6.000004 Z"
             id="rect9179-4-3"
             sodipodi:nodetypes="cccccssccc" />
          <path
             id="rect14807"
             d="m -34,274.64999 c -0.554,0 -1,0.446 -1,1 v 38 c 0,0.554 0.446,1 1,1 h 17 2 1 v -1 -7 -32 c -1.023342,0 0,0 -1,0 z"
             style="opacity:1;vector-effect:none;fill:url(#linearGradient14815);fill-opacity:1.0;stroke:none;stroke-width:2;stroke-linecap:round;stroke-linejoin:round;stroke-miterlimit:4;stroke-dasharray:none;stroke-dashoffset:0;stroke-opacity:1;paint-order:markers stroke fill"
             inkscape:connector-curvature="0"
             sodipodi:nodetypes="sssscccccccs" />
        </g>
      </g>
      <path
         style="opacity:1;fill:#32ff3f;fill-opacity:1;stroke:none;stroke-width:6;stroke-linecap:round;stroke-linejoin:round;stroke-miterlimit:4;stroke-dasharray:none;stroke-dashoffset:0;stroke-opacity:1;paint-order:stroke markers fill"
         d="M 3 6 L 3 7 L 2 7 L 2 8 L 3 8 L 3 9 L 2 9 L 2 10 L 3 10 L 3 11 L 4 11 L 4 10 L 5 10 L 5 11 L 6 11 L 6 10 L 7 10 L 7 9 L 6 9 L 6 8 L 7 8 L 7 7 L 6 7 L 6 6 L 5 6 L 5 7 L 4 7 L 4 6 L 3 6 z M 4 8 L 5 8 L 5 9 L 4 9 L 4 8 z M 8 10 L 8 11 L 12 11 L 12 10 L 8 10 z M 2 12 L 2 13 L 4 13 L 4 12 L 2 12 z M 5 12 L 5 13 L 7 13 L 7 12 L 5 12 z M 8 12 L 8 13 L 10 13 L 10 12 L 8 12 z M 11 12 L 11 13 L 15 13 L 15 12 L 11 12 z M 16 12 L 16 13 L 18 13 L 18 12 L 16 12 z M 2 14 L 2 15 L 7 15 L 7 14 L 2 14 z M 8 14 L 8 15 L 9 15 L 9 14 L 8 14 z M 10 14 L 10 15 L 14 15 L 14 14 L 10 14 z M 15 14 L 15 15 L 19 15 L 19 14 L 15 14 z M 2 16 L 2 17 L 6 17 L 6 16 L 2 16 z M 7 16 L 7 17 L 8 17 L 8 16 L 7 16 z M 9 16 L 9 17 L 13 17 L 13 16 L 9 16 z M 14 16 L 14 17 L 17 17 L 17 16 L 14 16 z M 18 16 L 18 17 L 20 17 L 20 16 L 18 16 z M 2 18 L 2 19 L 3 19 L 3 18 L 2 18 z M 4 18 L 4 19 L 7 19 L 7 18 L 4 18 z M 8 18 L 8 19 L 10 19 L 10 18 L 8 18 z M 11 18 L 11 19 L 16 19 L 16 18 L 11 18 z M 18 18 L 18 19 L 21 19 L 21 18 L 18 18 z M 2 20 L 2 21 L 5 21 L 5 20 L 2 20 z M 6.546875 20 L 6.546875 21 L 8 21 L 8 20 L 6.546875 20 z M 9 20 L 9 21 L 13 21 L 13 20 L 9 20 z M 14 20 L 14 21 L 19 21 L 19 20 L 14 20 z M 20 20 L 20 21 L 21 21 L 21 20 L 20 20 z M 2 22 L 2 23 L 3 23 L 3 22 L 2 22 z M 4 22 L 4 23 L 7 23 L 7 22 L 4 22 z M 8 22 L 8 23 L 12 23 L 12 22 L 8 22 z M 13 22 L 13 23 L 14 23 L 14 22 L 13 22 z M 15 22 L 15 23 L 19 23 L 19 22 L 15 22 z M 20 22 L 20 23 L 21 23 L 21 22 L 20 22 z M 2 24 L 2 25 L 8 25 L 8 24 L 2 24 z M 9 24 L 9 25 L 10 25 L 10 24 L 9 24 z M 11 24 L 11 25 L 13 25 L 13 24 L 11 24 z M 14 24 L 14 25 L 17 25 L 17 24 L 14 24 z M 18 24 L 18 25 L 21 25 L 21 24 L 18 24 z M 2 26 L 2 27 L 5 27 L 5 26 L 2 26 z M 6 26 L 6 27 L 9 27 L 9 26 L 6 26 z M 10 26 L 10 27 L 13 27 L 13 26 L 10 26 z M 14 26 L 14 27 L 15 27 L 15 26 L 14 26 z M 16 26 L 16 27 L 20 27 L 20 26 L 16 26 z M 2 28 L 2 29 L 3 29 L 3 28 L 2 28 z M 4 28 L 4 29 L 11 29 L 11 28 L 4 28 z M 12 28 L 12 29 L 13 29 L 13 28 L 12 28 z M 14 28 L 14 29 L 17 29 L 17 28 L 14 28 z M 18 28 L 18 29 L 21 29 L 21 28 L 18 28 z M 3 30 L 3 31 L 8 31 L 8 30 L 3 30 z M 9 30 L 9 31 L 15 31 L 15 30 L 9 30 z M 16 30 L 16 31 L 17 31 L 17 30 L 16 30 z M 18 30 L 18 31 L 20 31 L 20 30 L 18 30 z M 2 32 L 2 33 L 4 33 L 4 32 L 2 32 z M 5 32 L 5 33 L 7 33 L 7 32 L 5 32 z M 8 32 L 8 33 L 12 33 L 12 32 L 8 32 z M 13 32 L 13 33 L 16 33 L 16 32 L 13 32 z M 17 32 L 17 33 L 18 33 L 18 32 L 17 32 z M 2 34 L 2 35 L 9 35 L 9 34 L 2 34 z M 10 34 L 10 35 L 15 35 L 15 34 L 10 34 z M 16 34 L 16 35 L 21 35 L 21 34 L 16 34 z M 2 36 L 2 37 L 3 37 L 3 36 L 2 36 z M 4 36 L 4 37 L 7 37 L 7 36 L 4 36 z M 8 36 L 8 37 L 13 37 L 13 36 L 8 36 z M 14 36 L 14 37 L 18 37 L 18 36 L 14 36 z M 19 36 L 19 37 L 21 37 L 21 36 L 19 36 z M 2 38 L 2 39 L 8 39 L 8 38 L 2 38 z M 9 38 L 9 39 L 16 39 L 16 38 L 9 38 z M 17 38 L 17 39 L 20 39 L 20 38 L 17 38 z M 2 40 L 2 41 L 4 41 L 4 40 L 2 40 z M 5 40 L 5 41 L 6 41 L 6 40 L 5 40 z M 7 40 L 7 41 L 13 41 L 13 40 L 7 40 z M 14 40 L 14 41 L 18 41 L 18 40 L 14 40 z M 19 40 L 19 41 L 21 41 L 21 40 L 19 40 z M 2 42 L 2 43 L 10 43 L 10 42 L 2 42 z M 11 42 L 11 43 L 16 43 L 16 42 L 11 42 z M 17 42 L 17 43 L 19 43 L 19 42 L 17 42 z M 20 42 L 20 43 L 21 43 L 21 42 L 20 42 z "
         transform="translate(-36,254.64999)"
         id="rect1017-0" />
      <g
         style="fill:#ffffff;fill-opacity:1"
         inkscape:label="Capa 1"
         id="layer1-3"
         transform="matrix(3.7795276,0,0,3.7795276,-58.000001,-830.8699)">
        <g
           style="fill:#ffffff;fill-opacity:1"
           id="g1554"
           transform="translate(6.3807229,-15.907587)" />
        <g
           style="fill:#ffffff;fill-opacity:1"
           transform="matrix(0.26458333,0,0,0.26458333,10.847917,215.86557)"
           id="layer1-5"
           inkscape:label="Capa 1">
          <g
             style="fill:#ffffff;fill-opacity:1"
             transform="translate(56,8)"
             id="g19473" />
        </g>
      </g>
      <path
         style="fill:#1973db;fill-opacity:1;stroke-width:0.63999802"
         d="m 1.986329,270.64996 a 1.0001,1.0001 0 0 0 -0.69336,0.29291 l -2,2.00002 a 1.0001,1.0001 0 0 0 0,1.41403 l 4.292969,4.29298 -4.292969,4.29297 a 1.0001,1.0001 0 0 0 0,1.41408 l 2,1.99997 a 1.0001,1.0001 0 0 0 1.414063,0 l 7,-6.99999 a 1.0001,1.0001 0 0 0 0,-1.41407 l -7,-6.99999 A 1.0001,1.0001 0 0 0 1.986329,270.64996 Z M -7,271.64999 c -1.107999,0 -2,0.89196 -2,1.99997 10e-7,1.10801 0.892001,2.00001 2,2.00001 1.108001,0 2,-0.892 2,-2.00001 0,-1.10801 -0.891999,-1.99997 -2,-1.99997 z m -2,4.99997 c -1.661993,0 -3,1.33799 -3,3 10e-7,1.66201 1.338007,3 3,3 1.661994,0 3,-1.33799 3,-3 1e-6,-1.66201 -1.338006,-3 -3,-3 z m 4,6 c -2.216,0 -4,1.78401 -4,4.00002 0,2.21602 1.784,3.99999 4,3.99999 2.216001,0 4,-1.78397 4,-3.99999 0,-2.21601 -1.783999,-4.00002 -4,-4.00002 z"
         id="rect4119-2"
         inkscape:connector-curvature="0" />
      <g
         transform="matrix(3.7795275,0,0,3.7795275,-11.586165,-831.86967)"
         id="layer1-59"
         inkscape:label="Capa 1">
        <g
           transform="translate(1.5875225,-1.8520664)"
           id="g1482">
          <g
             transform="translate(1.9616264,3.7041779)"
             id="layer1-6-2"
             inkscape:label="Capa 1">
            <g
               transform="translate(-6.1949598,-1.3229379)"
               id="g3883">
              <path
                 style="fill:#d7f0fe;fill-opacity:1;stroke-width:0.16933282"
                 d="m 6.2369174,290.91457 a 0.2646098,0.2646098 0 0 0 -0.1834515,0.0775 l -0.5291667,0.52917 a 0.2646098,0.2646098 0 0 0 0,0.37413 l 1.1358481,1.13585 -1.1358481,1.13585 a 0.2646098,0.2646098 0 0 0 0,0.37414 l 0.5291667,0.52916 a 0.2646098,0.2646098 0 0 0 0.3741375,0 l 1.8520834,-1.85208 a 0.2646098,0.2646098 0 0 0 0,-0.37414 l -1.8520834,-1.85208 a 0.2646098,0.2646098 0 0 0 -0.190686,-0.0775 z m -2.3776329,0.26459 c -0.2931581,0 -0.5291667,0.236 -0.5291667,0.52916 3e-7,0.29316 0.2360086,0.52917 0.5291667,0.52917 0.2931586,0 0.5291667,-0.23601 0.5291667,-0.52917 0,-0.29316 -0.2360081,-0.52916 -0.5291667,-0.52916 z m -0.5291667,1.32291 c -0.4397357,0 -0.79375,0.35401 -0.79375,0.79375 3e-7,0.43974 0.3540143,0.79375 0.79375,0.79375 0.4397359,0 0.79375,-0.35401 0.79375,-0.79375 3e-7,-0.43974 -0.3540141,-0.79375 -0.79375,-0.79375 z m 1.0583334,1.5875 c -0.5863167,0 -1.0583334,0.47202 -1.0583334,1.05834 0,0.58632 0.4720167,1.05833 1.0583334,1.05833 0.5863169,0 1.0583333,-0.47201 1.0583333,-1.05833 0,-0.58632 -0.4720164,-1.05834 -1.0583333,-1.05834 z"
                 id="rect4119"
                 inkscape:connector-curvature="0" />
            </g>
          </g>
        </g>
      </g>
    </g>
  </g>
</svg>
