<?xml version="1.0" encoding="UTF-8" standalone="no"?>
<!-- Created with Inkscape (http://www.inkscape.org/) -->

<svg
   width="48"
   height="48"
   viewBox="0 0 48 48"
   version="1.1"
   id="svg8"
   inkscape:version="1.2 (dc2aedaf03, 2022-05-15)"
   sodipodi:docname="deepin-appstore.svg"
   xml:space="preserve"
   xmlns:inkscape="http://www.inkscape.org/namespaces/inkscape"
   xmlns:sodipodi="http://sodipodi.sourceforge.net/DTD/sodipodi-0.dtd"
   xmlns:xlink="http://www.w3.org/1999/xlink"
   xmlns="http://www.w3.org/2000/svg"
   xmlns:svg="http://www.w3.org/2000/svg"
   xmlns:rdf="http://www.w3.org/1999/02/22-rdf-syntax-ns#"
   xmlns:cc="http://creativecommons.org/ns#"
   xmlns:dc="http://purl.org/dc/elements/1.1/"><title
     id="title7895">Antu icon Theme</title><defs
     id="defs2"><linearGradient
       inkscape:collect="always"
       xlink:href="#linearGradient6408"
       id="linearGradient985"
       x1="48"
       y1="313.64999"
       x2="48"
       y2="275.64999"
       gradientUnits="userSpaceOnUse"
       gradientTransform="translate(-60,-16.000005)" /><linearGradient
       inkscape:collect="always"
       id="linearGradient6408"><stop
         style="stop-color:#cfa578;stop-opacity:1"
         offset="0"
         id="stop6404" /><stop
         style="stop-color:#d9b389;stop-opacity:1"
         offset="1"
         id="stop6406" /></linearGradient><linearGradient
       gradientTransform="translate(2.0002948,1.9998901)"
       gradientUnits="userSpaceOnUse"
       y2="286.64999"
       x2="32"
       y1="310.64999"
       x1="32"
       id="linearGradient1043"
       xlink:href="#linearGradient825"
       inkscape:collect="always" /><linearGradient
       inkscape:collect="always"
       id="linearGradient825"><stop
         style="stop-color:#127aed;stop-opacity:1;"
         offset="0"
         id="stop821" /><stop
         style="stop-color:#36b2fa;stop-opacity:1;"
         offset="1"
         id="stop823" /></linearGradient></defs><sodipodi:namedview
     id="base"
     pagecolor="#ffffff"
     bordercolor="#666666"
     borderopacity="1.0"
     inkscape:pageopacity="0.0"
     inkscape:pageshadow="2"
     inkscape:zoom="45.254834"
     inkscape:cx="24.096873"
     inkscape:cy="19.235514"
     inkscape:document-units="px"
     inkscape:current-layer="layer1"
     showgrid="true"
     units="px"
     inkscape:window-width="2160"
     inkscape:window-height="1335"
     inkscape:window-x="0"
     inkscape:window-y="0"
     inkscape:window-maximized="1"
     objecttolerance="10"
     gridtolerance="10"
     guidetolerance="10"
     inkscape:snap-bbox="true"
     inkscape:bbox-paths="true"
     inkscape:bbox-nodes="true"
     inkscape:snap-bbox-edge-midpoints="true"
     inkscape:snap-bbox-midpoints="true"
     inkscape:object-paths="true"
     inkscape:snap-intersection-paths="true"
     inkscape:showpageshadow="2"
     inkscape:pagecheckerboard="0"
     inkscape:deskcolor="#d1d1d1"><inkscape:grid
       type="xygrid"
       id="grid7897"
       empspacing="4" /></sodipodi:namedview><metadata
     id="metadata5"><rdf:RDF><cc:Work
         rdf:about=""><dc:format>image/svg+xml</dc:format><dc:type
           rdf:resource="http://purl.org/dc/dcmitype/StillImage" /><dc:title>Antu icon Theme</dc:title></cc:Work></rdf:RDF></metadata><g
     inkscape:label="Capa 1"
     inkscape:groupmode="layer"
     id="layer1"
     transform="translate(0,-266.64999)"><g
       id="g1591"
       transform="translate(34,10)"><path
         id="rect854"
         d="M -31,256.64999 H 7 c 1.662,0 3,1.338 3,3 v 38 c 0,1.66199 -1.338,3 -3,3 h -38 c -1.662,0 -3,-1.33801 -3,-3 v -38 c 0,-1.662 1.338,-3 3,-3 z"
         style="opacity:1;fill:#806956;fill-opacity:1;stroke:none;stroke-width:3.88529491;stroke-linecap:round;stroke-linejoin:round;stroke-miterlimit:4;stroke-dasharray:none;stroke-opacity:1"
         inkscape:connector-curvature="0" /><path
         id="rect854-2"
         d="m -31,257.64999 c -1.108,0 -2,0.89199 -2,2 v 15 H 5 l -1,2 1,2 -1,2 1,2 h -38 v 15 c 0,1.108 0.892,2 2,2 H 7 c 1.108,0 2,-0.892 2,-2 v -38 c 0,-1.10801 -0.892,-2 -2,-2 z"
         style="opacity:1;fill:url(#linearGradient985);fill-opacity:1;stroke:none;stroke-width:3.70869064;stroke-linecap:round;stroke-linejoin:round;stroke-miterlimit:4;stroke-dasharray:none;stroke-opacity:1"
         inkscape:connector-curvature="0" /><path
         id="rect896"
         d="m -24,262.64999 h 23 c 0.554,0 1,0.446 1,1 v 30 c 0,0.554 -0.446,1 -1,1 h -23 c -0.554,0 -1,-0.446 -1,-1 v -30 c 0,-0.554 0.446,-1 1,-1 z"
         style="opacity:1;fill:#ffffff;fill-opacity:1;stroke:none;stroke-width:2;stroke-linecap:round;stroke-linejoin:round;stroke-miterlimit:4;stroke-dasharray:none;stroke-dashoffset:0;stroke-opacity:1"
         inkscape:connector-curvature="0" /><path
         inkscape:connector-curvature="0"
         id="rect883-2"
         d="m -23,289.64999 v 3 h 1 v -3 z m 2,0 v 3 h 2 v -3 z m 3,0 v 3 h 1 v -3 z m 2,0 v 3 h 2 v -3 z m 3,0 v 3 h 2 v -3 z m 3,0 v 3 h 1 v -3 z m 2,0 v 3 h 1 v -3 z m 2,0 v 3 h 2 v -3 z m 3,0 v 3 h 1 v -3 z"
         style="opacity:1;fill:#242833;fill-opacity:1;stroke:none;stroke-width:6;stroke-linecap:round;stroke-linejoin:round;stroke-miterlimit:4;stroke-dasharray:none;stroke-dashoffset:0;stroke-opacity:1;paint-order:stroke markers fill" /><path
         sodipodi:nodetypes="csccccccccsc"
         inkscape:connector-curvature="0"
         id="path904-3"
         d="m -5,264.64999 c 0.553999,0 1,0.44603 1,1 v 2 h 1 c 0.89067,3.1e-4 1.336636,1.07706 0.707031,1.70706 l -2,1.99998 c -0.39053,0.39037 -1.023532,0.39037 -1.414062,0 l -2,-1.99998 C -8.336654,268.72705 -7.890682,267.6503 -7,267.64998 h 1 v -2 c 0,-0.55396 0.446001,-0.99999 1,-0.99999 z"
         style="color:#122036;fill:#242833;fill-opacity:1;stroke:none" /></g><path
       inkscape:connector-curvature="0"
       id="rect992"
       d="m 34.000295,286.64988 c 7.756,0 14,6.244 14,14 v 4e-5 c 0,7.756 -6.244,14 -14,14 -7.756,0 -14,-6.244 -14,-14 v -4e-5 c 0,-7.756 6.244,-14 14,-14 z"
       style="opacity:1;fill:#0a5dbf;fill-opacity:1;stroke:none;stroke-width:2;stroke-linecap:round;stroke-linejoin:round;stroke-miterlimit:4;stroke-dasharray:none;stroke-opacity:1" /><path
       inkscape:connector-curvature="0"
       id="rect992-2"
       d="m 34.000295,287.64988 c 7.202,0 13,5.798 13,13 v 4e-5 c 0,7.202 -5.798,13 -13,13 -7.202,0 -13,-5.798 -13,-13 v -4e-5 c 0,-7.202 5.798,-13 13,-13 z"
       style="opacity:1;fill:url(#linearGradient1043);fill-opacity:1;stroke:none;stroke-width:1.85714281;stroke-linecap:round;stroke-linejoin:round;stroke-miterlimit:4;stroke-dasharray:none;stroke-opacity:1" /><path
       inkscape:connector-curvature="0"
       style="opacity:1;fill:#0a5dbf;fill-opacity:1;stroke:none;stroke-width:0.99999994;stroke-opacity:1"
       d="m 34.000295,292.64989 c -4.986,0 -9,4.01401 -9,9 0,4.98599 4.014,9 9,9 4.986,0 9,-4.01401 9,-9 0,-4.98599 -4.014,-9 -9,-9 z m 0,3.99999 c 1.108,0 2,0.89201 2,2.00001 v 3 h 1 a 1.0001,1.0001 0 0 1 0.70703,1.70703 l -3,3 a 1.0001,1.0001 0 0 1 -1.41406,0 l -3,-3 a 1.0001,1.0001 0 0 1 0.70703,-1.70703 h 1 v -3 c 0,-1.108 0.892,-2.00001 2,-2.00001 z"
       id="path7212-4-6-3-2" /><path
       inkscape:connector-curvature="0"
       style="opacity:1;fill:#f6fbff;fill-opacity:1;stroke:none;stroke-width:0.99999994;stroke-opacity:1"
       d="m 34.000295,291.6499 c -4.986,0 -9,4.01401 -9,9 0,4.98599 4.014,9 9,9 4.986,0 9,-4.01401 9,-9 0,-4.98599 -4.014,-9 -9,-9 z m 0,3.99999 c 1.108,0 2,0.89201 2,2.00001 v 3 h 1 a 1.0001,1.0001 0 0 1 0.70703,1.70703 l -3,3 a 1.0001,1.0001 0 0 1 -1.41406,0 l -3,-3 a 1.0001,1.0001 0 0 1 0.70703,-1.70703 h 1 v -3 c 0,-1.108 0.892,-2.00001 2,-2.00001 z"
       id="path7212-4-6-3" /><g
       inkscape:label="Capa 1"
       id="layer1-9"
       transform="matrix(3.7795277,0,0,3.7795277,-31.998448,-809.86868)"><g
         id="g3883"
         transform="translate(9.6238659,-4.0302467)"><path
           inkscape:connector-curvature="0"
           id="rect4308-6"
           d="m 2.2819717,293.09246 h 2.7e-6 c 0.2931582,0 0.5291653,0.23601 0.5291653,0.52917 v 0 c 0,0.29315 -0.2360071,0.52916 -0.5291653,0.52916 h -2.7e-6 c -0.293157,0 -0.5291653,-0.23601 -0.5291653,-0.52916 v 0 c 0,-0.29316 0.2360083,-0.52917 0.5291653,-0.52917 z"
           style="fill:#242833;fill-opacity:1;stroke-width:0.117592" /><path
           inkscape:connector-curvature="0"
           id="rect4119-7"
           d="m 2.8111399,292.03413 c 0.1465789,0 0.2645832,0.118 0.2645832,0.26458 0,0.14658 -0.1180043,0.26458 -0.2645832,0.26458 -0.1465793,0 -0.2645834,-0.118 -0.2645834,-0.26458 0,-0.14658 0.1180041,-0.26458 0.2645834,-0.26458 z"
           style="fill:#242833;fill-opacity:1;stroke-width:0.0846664" /><path
           inkscape:connector-curvature="0"
           id="rect4312-5"
           d="m 3.0757243,294.67996 c 0.4397375,0 0.79375,0.35402 0.79375,0.79375 0,0.43974 -0.3540125,0.79375 -0.79375,0.79375 -0.4397375,0 -0.79375,-0.35401 -0.79375,-0.79375 0,-0.43973 0.3540125,-0.79375 0.79375,-0.79375 z"
           style="fill:#242833;fill-opacity:1;stroke-width:0.122115" /><path
           inkscape:connector-curvature="0"
           id="path916-7"
           d="m 3.6048896,294.41538 0.79375,0.79376 1.8520833,-1.85209 -1.8520833,-1.85208 -0.79375,0.79375 1.0583333,1.05833 z"
           style="fill:#242833;fill-opacity:1;stroke:none;stroke-width:0.529167;stroke-linecap:round;stroke-linejoin:round;stroke-miterlimit:4;stroke-dasharray:none;stroke-opacity:1"
           sodipodi:nodetypes="ccccccc" /></g></g></g></svg>
