<?xml version="1.0" encoding="UTF-8" standalone="no"?>
<!-- Created with Inkscape (http://www.inkscape.org/) -->

<svg
   xmlns:dc="http://purl.org/dc/elements/1.1/"
   xmlns:cc="http://creativecommons.org/ns#"
   xmlns:rdf="http://www.w3.org/1999/02/22-rdf-syntax-ns#"
   xmlns:svg="http://www.w3.org/2000/svg"
   xmlns="http://www.w3.org/2000/svg"
   xmlns:xlink="http://www.w3.org/1999/xlink"
   xmlns:sodipodi="http://sodipodi.sourceforge.net/DTD/sodipodi-0.dtd"
   xmlns:inkscape="http://www.inkscape.org/namespaces/inkscape"
   width="48"
   height="48"
   viewBox="0 0 48 48"
   version="1.1"
   id="svg8"
   inkscape:version="0.92.2 2405546, 2018-03-11"
   sodipodi:docname="noc.svg">
  <title
     id="title7895">Antu icon Theme</title>
  <defs
     id="defs2">
    <linearGradient
       gradientTransform="matrix(0.23466667,0,0,0.23466667,-445.46491,1476.7907)"
       gradientUnits="userSpaceOnUse"
       y2="-5114.2363"
       x2="2102.8335"
       y1="-4960.8271"
       x1="2102.8335"
       id="linearGradient4836"
       xlink:href="#linearGradient4902-2"
       inkscape:collect="always" />
    <linearGradient
       id="linearGradient4902-2"
       inkscape:collect="always">
      <stop
         id="stop4898-0"
         offset="0"
         style="stop-color:#0d72ec;stop-opacity:1" />
      <stop
         id="stop4900-2"
         offset="1"
         style="stop-color:#36b2fb;stop-opacity:1" />
    </linearGradient>
  </defs>
  <sodipodi:namedview
     id="base"
     pagecolor="#ffffff"
     bordercolor="#666666"
     borderopacity="1.0"
     inkscape:pageopacity="0.0"
     inkscape:pageshadow="2"
     inkscape:zoom="3.9999998"
     inkscape:cx="56.39775"
     inkscape:cy="-20.573509"
     inkscape:document-units="px"
     inkscape:current-layer="g5422"
     showgrid="false"
     units="px"
     inkscape:window-width="1360"
     inkscape:window-height="711"
     inkscape:window-x="0"
     inkscape:window-y="28"
     inkscape:window-maximized="1"
     objecttolerance="10"
     gridtolerance="10"
     guidetolerance="10"
     inkscape:snap-bbox="true"
     inkscape:bbox-nodes="true"
     inkscape:bbox-paths="true"
     inkscape:snap-bbox-edge-midpoints="true"
     inkscape:snap-bbox-midpoints="true"
     inkscape:object-paths="true"
     inkscape:snap-intersection-paths="true"
     inkscape:object-nodes="false"
     inkscape:snap-smooth-nodes="false"
     inkscape:snap-midpoints="false"
     inkscape:showpageshadow="false">
    <inkscape:grid
       type="xygrid"
       id="grid7897"
       empspacing="4" />
  </sodipodi:namedview>
  <metadata
     id="metadata5">
    <rdf:RDF>
      <cc:Work
         rdf:about="">
        <dc:format>image/svg+xml</dc:format>
        <dc:type
           rdf:resource="http://purl.org/dc/dcmitype/StillImage" />
        <dc:title>Antu icon Theme</dc:title>
      </cc:Work>
    </rdf:RDF>
  </metadata>
  <g
     inkscape:label="Capa 1"
     inkscape:groupmode="layer"
     id="layer1"
     transform="translate(0,-266.64999)">
    <g
       id="g1535"
       transform="translate(35,-15.000005)">
      <g
         id="g911"
         transform="translate(-35,15)">
        <g
           id="g5422"
           transform="translate(-24,-4)">
          <path
             inkscape:connector-curvature="0"
             id="rect4544"
             d="m 47.999976,272.65002 4.7e-5,0 C 60.187999,272.65002 70,282.462 70,294.65 c 0,12.18797 -9.812001,21.99997 -21.999977,21.99997 l -4.7e-5,0 c -12.188,0 -21.999977,-9.812 -21.999977,-21.99997 0,-12.188 9.811977,-21.99998 21.999977,-21.99998 z"
             style="opacity:1;fill:#0e44b2;fill-opacity:1;stroke:none;stroke-width:0.30000001;stroke-miterlimit:4;stroke-dasharray:none;stroke-opacity:1" />
          <path
             inkscape:connector-curvature="0"
             id="rect4544-5"
             d="m 47.999976,273.64998 2.3e-5,0 c 11.633999,0 20.999992,9.36599 20.999992,20.99999 0,11.63401 -9.365993,21 -20.999992,21 l -2.3e-5,0 c -11.633999,0 -20.999992,-9.36599 -20.999992,-21 0,-11.634 9.365993,-20.99999 20.999992,-20.99999 z"
             style="opacity:1;fill:url(#linearGradient4836);fill-opacity:1.0;stroke:none;stroke-width:0.30000001;stroke-miterlimit:4;stroke-dasharray:none;stroke-opacity:1" />
          <g
             id="g973"
             transform="translate(0.999555)">
            <path
               inkscape:connector-curvature="0"
               id="path954-1"
               d="m 44.817383,282.91367 a 13,13 0 0 0 -10.460938,12.73632 13,13 0 0 0 13,13 13,13 0 0 0 12.287109,-8.79687 12,12 0 0 1 -1.076171,0.35937 12,12 0 0 1 -1.171876,0.26368 12,12 0 0 1 -1.189453,0.14453 12,12 0 0 1 -0.849609,0.0293 12,12 0 0 1 -1.197266,-0.0605 12,12 0 0 1 -1.1875,-0.17774 12,12 0 0 1 -1.162109,-0.29687 12,12 0 0 1 -1.126953,-0.41211 12,12 0 0 1 -1.080078,-0.52148 12,12 0 0 1 -1.021485,-0.62696 12,12 0 0 1 -0.955078,-0.72656 12,12 0 0 1 -0.876953,-0.81641 12,12 0 0 1 -0.792969,-0.90234 12,12 0 0 1 -0.697265,-0.9746 12,12 0 0 1 -0.597656,-1.04102 12,12 0 0 1 -0.488282,-1.09571 12,12 0 0 1 -0.378906,-1.13672 12,12 0 0 1 -0.263672,-1.17187 12,12 0 0 1 -0.144531,-1.18946 12,12 0 0 1 -0.0293,-0.84961 12,12 0 0 1 0.06055,-1.19726 12,12 0 0 1 0.177734,-1.1875 12,12 0 0 1 0.296875,-1.1621 12,12 0 0 1 0.41211,-1.12696 12,12 0 0 1 0.513672,-1.0625 z"
               style="opacity:1;fill:#0e44b2;fill-opacity:1;stroke:none;stroke-width:3.3565855;stroke-linecap:round;stroke-linejoin:round;stroke-miterlimit:4;stroke-dasharray:none;stroke-opacity:1" />
            <path
               inkscape:connector-curvature="0"
               id="path954"
               d="m 44.817383,281.91367 a 13,13 0 0 0 -10.460938,12.73632 13,13 0 0 0 13,13 13,13 0 0 0 12.287109,-8.79687 12,12 0 0 1 -1.076171,0.35937 12,12 0 0 1 -1.171876,0.26368 12,12 0 0 1 -1.189453,0.14453 12,12 0 0 1 -0.849609,0.0293 12,12 0 0 1 -1.197266,-0.0605 12,12 0 0 1 -1.1875,-0.17774 12,12 0 0 1 -1.162109,-0.29687 12,12 0 0 1 -1.126953,-0.41211 12,12 0 0 1 -1.080078,-0.52149 12,12 0 0 1 -1.021485,-0.62695 12,12 0 0 1 -0.955078,-0.72656 12,12 0 0 1 -0.876953,-0.81641 12,12 0 0 1 -0.792969,-0.90234 12,12 0 0 1 -0.697265,-0.97461 12,12 0 0 1 -0.597656,-1.04102 12,12 0 0 1 -0.488282,-1.0957 12,12 0 0 1 -0.378906,-1.13672 12,12 0 0 1 -0.263672,-1.17187 12,12 0 0 1 -0.144531,-1.18946 12,12 0 0 1 -0.0293,-0.84961 12,12 0 0 1 0.06055,-1.19726 12,12 0 0 1 0.177734,-1.1875 12,12 0 0 1 0.296875,-1.16211 12,12 0 0 1 0.41211,-1.12695 12,12 0 0 1 0.513672,-1.0625 z"
               style="opacity:1;fill:#e5fafb;fill-opacity:1;stroke:none;stroke-width:3.3565855;stroke-linecap:round;stroke-linejoin:round;stroke-miterlimit:4;stroke-dasharray:none;stroke-opacity:1" />
          </g>
        </g>
      </g>
    </g>
  </g>
</svg>
