<?xml version="1.0" encoding="UTF-8" standalone="no"?>
<!-- Created with Inkscape (http://www.inkscape.org/) -->

<svg
   xmlns:dc="http://purl.org/dc/elements/1.1/"
   xmlns:cc="http://creativecommons.org/ns#"
   xmlns:rdf="http://www.w3.org/1999/02/22-rdf-syntax-ns#"
   xmlns:svg="http://www.w3.org/2000/svg"
   xmlns="http://www.w3.org/2000/svg"
   xmlns:xlink="http://www.w3.org/1999/xlink"
   xmlns:sodipodi="http://sodipodi.sourceforge.net/DTD/sodipodi-0.dtd"
   xmlns:inkscape="http://www.inkscape.org/namespaces/inkscape"
   width="48"
   height="48"
   viewBox="0 0 48 48"
   version="1.1"
   id="svg8"
   inkscape:version="0.92.2 2405546, 2018-03-11"
   sodipodi:docname="plasma-search.svg">
  <title
     id="title7895">Antu icon Theme</title>
  <defs
     id="defs2">
    <linearGradient
       gradientTransform="matrix(0.23466667,0,0,0.23466667,-445.46491,1476.7907)"
       gradientUnits="userSpaceOnUse"
       y2="-5114.2363"
       x2="2102.8335"
       y1="-4960.8271"
       x1="2102.8335"
       id="linearGradient4836"
       xlink:href="#linearGradient4587"
       inkscape:collect="always" />
    <linearGradient
       inkscape:collect="always"
       id="linearGradient4587">
      <stop
         style="stop-color:#1b87f2;stop-opacity:1"
         offset="0"
         id="stop4583" />
      <stop
         style="stop-color:#30bafc;stop-opacity:1"
         offset="1"
         id="stop4585" />
    </linearGradient>
  </defs>
  <sodipodi:namedview
     id="base"
     pagecolor="#ffffff"
     bordercolor="#666666"
     borderopacity="1.0"
     inkscape:pageopacity="0.0"
     inkscape:pageshadow="2"
     inkscape:zoom="8"
     inkscape:cx="22.827043"
     inkscape:cy="24.58453"
     inkscape:document-units="px"
     inkscape:current-layer="g5422"
     showgrid="true"
     units="px"
     inkscape:window-width="1360"
     inkscape:window-height="711"
     inkscape:window-x="0"
     inkscape:window-y="28"
     inkscape:window-maximized="1"
     objecttolerance="10"
     gridtolerance="10"
     guidetolerance="10"
     inkscape:snap-bbox="true"
     inkscape:bbox-nodes="true"
     inkscape:bbox-paths="true"
     inkscape:snap-bbox-edge-midpoints="true"
     inkscape:snap-bbox-midpoints="true"
     inkscape:object-paths="true"
     inkscape:snap-intersection-paths="true"
     inkscape:object-nodes="true"
     inkscape:snap-smooth-nodes="false"
     inkscape:snap-midpoints="false"
     inkscape:showpageshadow="false">
    <inkscape:grid
       type="xygrid"
       id="grid7897"
       empspacing="4" />
  </sodipodi:namedview>
  <metadata
     id="metadata5">
    <rdf:RDF>
      <cc:Work
         rdf:about="">
        <dc:format>image/svg+xml</dc:format>
        <dc:type
           rdf:resource="http://purl.org/dc/dcmitype/StillImage" />
        <dc:title>Antu icon Theme</dc:title>
      </cc:Work>
    </rdf:RDF>
  </metadata>
  <g
     inkscape:label="Capa 1"
     inkscape:groupmode="layer"
     id="layer1"
     transform="translate(0,-266.64999)">
    <g
       id="g1535"
       transform="translate(35,-15.000005)">
      <g
         id="g911"
         transform="translate(-35,15)">
        <g
           id="g5422"
           transform="translate(-24,-4)">
          <path
             inkscape:connector-curvature="0"
             id="rect4544"
             d="m 47.999976,272.65002 4.7e-5,0 C 60.187999,272.65002 70,282.462 70,294.65 c 0,12.18797 -9.812001,21.99997 -21.999977,21.99997 l -4.7e-5,0 c -12.188,0 -21.999977,-9.812 -21.999977,-21.99997 0,-12.188 9.811977,-21.99998 21.999977,-21.99998 z"
             style="opacity:1;fill:#115799;fill-opacity:1;stroke:none;stroke-width:0.30000001;stroke-miterlimit:4;stroke-dasharray:none;stroke-opacity:1" />
          <path
             inkscape:connector-curvature="0"
             id="rect4544-5"
             d="m 47.999976,273.64998 2.3e-5,0 c 11.633999,0 20.999992,9.36599 20.999992,20.99999 0,11.63401 -9.365993,21 -20.999992,21 l -2.3e-5,0 c -11.633999,0 -20.999992,-9.36599 -20.999992,-21 0,-11.634 9.365993,-20.99999 20.999992,-20.99999 z"
             style="opacity:1;fill:url(#linearGradient4836);fill-opacity:1.0;stroke:none;stroke-width:0.30000001;stroke-miterlimit:4;stroke-dasharray:none;stroke-opacity:1" />
          <g
             transform="matrix(5.5433071,0,0,5.5433071,24.533333,-1328.2455)"
             id="layer1-3-2"
             inkscape:label="Capa 1" />
          <path
             inkscape:connector-curvature="0"
             style="opacity:1;fill:#1466b2;fill-opacity:1;stroke:none;stroke-width:3.56167555;stroke-linecap:round;stroke-linejoin:round;stroke-miterlimit:4;stroke-dasharray:none;stroke-opacity:1"
             d="m 46,283.64999 c -5.54,0 -10,4.46 -10,10 0,5.54 4.46,10 10,10 2.043813,0 3.937456,-0.60998 5.517578,-1.65429 l 4.06836,4.06836 a 2.0002,2.0002 0 1 0 2.828124,-2.82813 l -4.068359,-4.06836 C 55.390017,297.58745 56,295.69381 56,293.64999 c 0,-5.54 -4.46,-10 -10,-10 z m 0,5 c 2.77,0 5,2.23 5,5 0,2.77 -2.23,5 -5,5 -2.77,0 -5,-2.23 -5,-5 0,-2.77 2.23,-5 5,-5 z"
             id="rect890-0-9" />
          <path
             style="opacity:1;fill:#ffffff;fill-opacity:1;stroke:none;stroke-width:3.56167555;stroke-linecap:round;stroke-linejoin:round;stroke-miterlimit:4;stroke-dasharray:none;stroke-opacity:1"
             d="M 22 12 C 16.46 12 12 16.46 12 22 C 12 27.54 16.46 32 22 32 C 24.043813 32 25.937456 31.390017 27.517578 30.345703 L 31.585938 34.414062 A 2.0002 2.0002 0 1 0 34.414062 31.585938 L 30.345703 27.517578 C 31.390017 25.937456 32 24.043813 32 22 C 32 16.46 27.54 12 22 12 z M 22 17 C 24.77 17 27 19.23 27 22 C 27 24.77 24.77 27 22 27 C 19.23 27 17 24.77 17 22 C 17 19.23 19.23 17 22 17 z "
             transform="translate(24,270.64999)"
             id="rect890-0" />
        </g>
      </g>
    </g>
  </g>
</svg>
