<?xml version="1.0" encoding="UTF-8" standalone="no"?>
<!-- Created with Inkscape (http://www.inkscape.org/) -->

<svg
   xmlns:dc="http://purl.org/dc/elements/1.1/"
   xmlns:cc="http://creativecommons.org/ns#"
   xmlns:rdf="http://www.w3.org/1999/02/22-rdf-syntax-ns#"
   xmlns:svg="http://www.w3.org/2000/svg"
   xmlns="http://www.w3.org/2000/svg"
   xmlns:xlink="http://www.w3.org/1999/xlink"
   xmlns:sodipodi="http://sodipodi.sourceforge.net/DTD/sodipodi-0.dtd"
   xmlns:inkscape="http://www.inkscape.org/namespaces/inkscape"
   width="48"
   height="48"
   viewBox="0 0 48 48"
   version="1.1"
   id="svg8"
   inkscape:version="0.92.2 2405546, 2018-03-11"
   sodipodi:docname="preferences-desktop-sound.svg">
  <title
     id="title7895">Antu icon Theme</title>
  <defs
     id="defs2">
    <linearGradient
       inkscape:collect="always"
       id="linearGradient1437">
      <stop
         style="stop-color:#3573f0;stop-opacity:1"
         offset="0"
         id="stop1433" />
      <stop
         style="stop-color:#5694fb;stop-opacity:1"
         offset="1"
         id="stop1435" />
    </linearGradient>
    <linearGradient
       inkscape:collect="always"
       id="linearGradient983">
      <stop
         style="stop-color:#06111c;stop-opacity:1"
         offset="0"
         id="stop979" />
      <stop
         style="stop-color:#15272f;stop-opacity:1"
         offset="1"
         id="stop981" />
    </linearGradient>
    <linearGradient
       inkscape:collect="always"
       xlink:href="#linearGradient983"
       id="linearGradient985"
       x1="48"
       y1="313.64999"
       x2="48"
       y2="275.64999"
       gradientUnits="userSpaceOnUse" />
    <linearGradient
       inkscape:collect="always"
       xlink:href="#linearGradient1437"
       id="linearGradient1439"
       x1="24"
       y1="41"
       x2="24"
       y2="8"
       gradientUnits="userSpaceOnUse" />
  </defs>
  <sodipodi:namedview
     id="base"
     pagecolor="#ffffff"
     bordercolor="#666666"
     borderopacity="1.0"
     inkscape:pageopacity="0.0"
     inkscape:pageshadow="2"
     inkscape:zoom="8"
     inkscape:cx="8.7659799"
     inkscape:cy="11.982365"
     inkscape:document-units="px"
     inkscape:current-layer="layer1"
     showgrid="true"
     units="px"
     inkscape:window-width="1360"
     inkscape:window-height="711"
     inkscape:window-x="0"
     inkscape:window-y="28"
     inkscape:window-maximized="1"
     objecttolerance="10"
     gridtolerance="10"
     guidetolerance="10"
     inkscape:snap-bbox="true"
     inkscape:bbox-nodes="true"
     inkscape:bbox-paths="true"
     inkscape:snap-bbox-edge-midpoints="true"
     inkscape:snap-bbox-midpoints="true"
     inkscape:object-paths="true"
     inkscape:snap-intersection-paths="true"
     inkscape:object-nodes="true"
     inkscape:snap-smooth-nodes="false"
     inkscape:snap-midpoints="false"
     inkscape:showpageshadow="false">
    <inkscape:grid
       type="xygrid"
       id="grid7897"
       empspacing="4" />
  </sodipodi:namedview>
  <metadata
     id="metadata5">
    <rdf:RDF>
      <cc:Work
         rdf:about="">
        <dc:format>image/svg+xml</dc:format>
        <dc:type
           rdf:resource="http://purl.org/dc/dcmitype/StillImage" />
        <dc:title>Antu icon Theme</dc:title>
      </cc:Work>
    </rdf:RDF>
  </metadata>
  <g
     inkscape:label="Capa 1"
     inkscape:groupmode="layer"
     id="layer1"
     transform="translate(0,-266.64999)">
    <g
       id="g1470">
      <g
         transform="translate(-24,-4.000005)"
         id="g5422">
        <g
           inkscape:label="Capa 1"
           id="layer1-3-2"
           transform="matrix(5.5433071,0,0,5.5433071,24.533333,-1328.2455)" />
        <path
           inkscape:connector-curvature="0"
           id="rect854"
           d="m 29,272.64999 h 38 c 1.662,0 3,1.338 3,3 v 38 c 0,1.662 -1.338,3 -3,3 H 29 c -1.662,0 -3,-1.338 -3,-3 v -38 c 0,-1.662 1.338,-3 3,-3 z"
           style="opacity:1;fill:#02070c;fill-opacity:0.99215686;stroke:none;stroke-width:3.88529491;stroke-linecap:round;stroke-linejoin:round;stroke-miterlimit:4;stroke-dasharray:none;stroke-opacity:1" />
        <path
           inkscape:connector-curvature="0"
           id="rect854-2"
           d="m 29,273.64999 h 38 c 1.108,0 2,0.892 2,2 v 38 c 0,1.108 -0.892,2 -2,2 H 29 c -1.108,0 -2,-0.892 -2,-2 v -38 c 0,-1.108 0.892,-2 2,-2 z"
           style="opacity:1;fill:url(#linearGradient985);fill-opacity:1;stroke:none;stroke-width:3.70869064;stroke-linecap:round;stroke-linejoin:round;stroke-miterlimit:4;stroke-dasharray:none;stroke-opacity:1" />
      </g>
      <g
         inkscape:label="Capa 1"
         id="layer1-9-7"
         transform="matrix(1.4666667,0,0,1.4666667,0.5333328,-147.37001)">
        <path
           inkscape:connector-curvature="0"
           id="rect1189"
           d="m 3.7272729,287.7409 c -0.3777317,0 -0.6818182,0.30409 -0.6818182,0.68182 v 1.36364 c 0,0.37773 0.3040865,0.68182 0.6818182,0.68182 h 1.3636363 c 0.3777316,0 0.6818182,-0.30409 0.6818182,-0.68182 v -1.36364 c 0,-0.37773 -0.3040866,-0.68182 -0.6818182,-0.68182 z m 23.1818181,0 c -0.377731,0 -0.681819,0.30408 -0.681819,0.68182 v 1.36364 c 0,0.37773 0.304088,0.68182 0.681819,0.68182 h 1.363636 c 0.377732,0 0.681818,-0.30409 0.681818,-0.68182 v -1.36364 c 0,-0.37774 -0.304086,-0.68182 -0.681818,-0.68182 z m -23.1818181,4.09091 c -0.3777301,0 -0.6818182,0.30409 -0.6818182,0.68182 v 1.36364 c 0,0.37773 0.3040881,0.68181 0.6818182,0.68181 h 1.3636363 c 0.3777301,0 0.6818182,-0.30408 0.6818182,-0.68181 v -1.36364 c 0,-0.37773 -0.3040881,-0.68182 -0.6818182,-0.68182 z m 23.1818181,0 c -0.37773,0 -0.681819,0.30409 -0.681819,0.68182 v 1.36364 c 0,0.37773 0.304089,0.68181 0.681819,0.68181 h 1.363636 c 0.377731,0 0.681818,-0.30408 0.681818,-0.68181 v -1.36364 c 0,-0.37773 -0.304087,-0.68182 -0.681818,-0.68182 z m -23.1818181,4.09091 c -0.3777317,0 -0.6818182,0.30409 -0.6818182,0.68182 v 1.36363 c 0,0.37774 0.3040865,0.68182 0.6818182,0.68182 h 1.3636363 c 0.3777316,0 0.6818182,-0.30408 0.6818182,-0.68182 v -1.36363 c 0,-0.37773 -0.3040866,-0.68182 -0.6818182,-0.68182 z m 23.1818181,0 c -0.377731,0 -0.681819,0.30409 -0.681819,0.68182 v 1.36363 c 0,0.37773 0.304088,0.68182 0.681819,0.68182 h 1.363636 c 0.377732,0 0.681818,-0.30409 0.681818,-0.68182 v -1.36363 c 0,-0.37773 -0.304086,-0.68182 -0.681818,-0.68182 z m -23.1818181,4.09091 c -0.3777272,0 -0.6818182,0.30409 -0.6818182,0.68182 v 1.36363 c 0,0.37773 0.304091,0.68182 0.6818182,0.68182 h 1.3636363 c 0.3777272,0 0.6818182,-0.30409 0.6818182,-0.68182 v -1.36363 c 0,-0.37773 -0.304091,-0.68182 -0.6818182,-0.68182 z m 23.1818181,0 c -0.377728,0 -0.681819,0.3041 -0.681819,0.68182 v 1.36363 c 0,0.37773 0.304091,0.68182 0.681819,0.68182 h 1.363636 c 0.377728,0 0.681818,-0.30409 0.681818,-0.68182 v -1.36363 c 0,-0.37772 -0.30409,-0.68182 -0.681818,-0.68182 z m -23.1818181,4.09091 c -0.3777317,0 -0.6818182,0.30409 -0.6818182,0.68182 v 1.36363 c 0,0.37773 0.3040865,0.68182 0.6818182,0.68182 h 1.3636363 c 0.3777316,0 0.6818182,-0.30409 0.6818182,-0.68182 v -1.36363 c 0,-0.37773 -0.3040866,-0.68182 -0.6818182,-0.68182 z m 23.1818181,0 c -0.377731,0 -0.681819,0.30409 -0.681819,0.68182 v 1.36363 c 0,0.37773 0.304088,0.68182 0.681819,0.68182 h 1.363636 c 0.377732,0 0.681818,-0.30409 0.681818,-0.68182 v -1.36363 c 0,-0.37773 -0.304086,-0.68182 -0.681818,-0.68182 z m -23.1818181,4.09091 c -0.3777317,0 -0.6818182,0.30408 -0.6818182,0.68182 v 1.36363 c 0,0.37773 0.3040865,0.68182 0.6818182,0.68182 h 1.3636363 c 0.3777316,0 0.6818182,-0.30409 0.6818182,-0.68182 v -1.36363 c 0,-0.37774 -0.3040866,-0.68182 -0.6818182,-0.68182 z m 23.1818181,0 c -0.377731,0 -0.681819,0.30409 -0.681819,0.68182 v 1.36363 c 0,0.37773 0.304088,0.68182 0.681819,0.68182 h 1.363636 c 0.377732,0 0.681818,-0.30409 0.681818,-0.68182 v -1.36363 c 0,-0.37773 -0.304086,-0.68182 -0.681818,-0.68182 z"
           style="opacity:1;fill:#01060b;fill-opacity:0.99215686;stroke:none;stroke-width:1.23966944;stroke-linecap:round;stroke-linejoin:round;stroke-miterlimit:4;stroke-dasharray:none;stroke-opacity:1" />
        <path
           id="rect1189-5"
           d="m 3.7272728,287.05909 c -0.3777316,0 -0.6818182,0.30408 -0.6818182,0.68182 v 1.36363 c 0,0.37773 0.3040866,0.68182 0.6818182,0.68182 h 1.3636363 c 0.3777316,0 0.6818182,-0.30409 0.6818182,-0.68182 v -1.36363 c 0,-0.37774 -0.3040866,-0.68182 -0.6818182,-0.68182 z m 23.1818182,0 c -0.377731,0 -0.681818,0.30408 -0.681818,0.68182 v 1.36363 c 0,0.37773 0.304087,0.68182 0.681818,0.68182 h 1.363636 c 0.377732,0 0.681818,-0.30409 0.681818,-0.68182 v -1.36363 c 0,-0.37774 -0.304086,-0.68182 -0.681818,-0.68182 z M 3.7272728,291.15 c -0.3777301,0 -0.6818182,0.30408 -0.6818182,0.68181 v 1.36364 c 0,0.37773 0.3040881,0.68182 0.6818182,0.68182 h 1.3636363 c 0.3777301,0 0.6818182,-0.30409 0.6818182,-0.68182 v -1.36364 c 0,-0.37773 -0.3040881,-0.68181 -0.6818182,-0.68181 z m 23.1818182,0 c -0.37773,0 -0.681818,0.30408 -0.681818,0.68181 v 1.36364 c 0,0.37773 0.304088,0.68182 0.681818,0.68182 h 1.363636 c 0.377731,0 0.681818,-0.30409 0.681818,-0.68182 v -1.36364 c 0,-0.37773 -0.304087,-0.68181 -0.681818,-0.68181 z m -23.1818182,4.09091 c -0.3777316,0 -0.6818182,0.30408 -0.6818182,0.68181 v 1.36364 c 0,0.37773 0.3040866,0.68182 0.6818182,0.68182 h 1.3636363 c 0.3777316,0 0.6818182,-0.30409 0.6818182,-0.68182 v -1.36364 c 0,-0.37773 -0.3040866,-0.68181 -0.6818182,-0.68181 z m 23.1818182,0 c -0.377731,0 -0.681818,0.30408 -0.681818,0.68181 v 1.36364 c 0,0.37773 0.304087,0.68182 0.681818,0.68182 h 1.363636 c 0.377732,0 0.681818,-0.30409 0.681818,-0.68182 v -1.36364 c 0,-0.37773 -0.304086,-0.68181 -0.681818,-0.68181 z m -23.1818182,4.0909 c -0.3777272,0 -0.6818182,0.3041 -0.6818182,0.68182 v 1.36364 c 0,0.37773 0.304091,0.68182 0.6818182,0.68182 h 1.3636363 c 0.3777272,0 0.6818182,-0.30409 0.6818182,-0.68182 v -1.36364 c 0,-0.37772 -0.304091,-0.68182 -0.6818182,-0.68182 z m 23.1818182,0 c -0.377727,0 -0.681818,0.3041 -0.681818,0.68182 v 1.36364 c 0,0.37773 0.304091,0.68182 0.681818,0.68182 h 1.363636 c 0.377728,0 0.681818,-0.30409 0.681818,-0.68182 v -1.36364 c 0,-0.37772 -0.30409,-0.68182 -0.681818,-0.68182 z m -23.1818182,4.09091 c -0.3777316,0 -0.6818182,0.30409 -0.6818182,0.68182 v 1.36364 c 0,0.37773 0.3040866,0.68182 0.6818182,0.68182 h 1.3636363 c 0.3777316,0 0.6818182,-0.30409 0.6818182,-0.68182 v -1.36364 c 0,-0.37773 -0.3040866,-0.68182 -0.6818182,-0.68182 z m 23.1818182,0 c -0.377731,0 -0.681818,0.30409 -0.681818,0.68182 v 1.36364 c 0,0.37773 0.304087,0.68182 0.681818,0.68182 h 1.363636 c 0.377732,0 0.681818,-0.30409 0.681818,-0.68182 v -1.36364 c 0,-0.37773 -0.304086,-0.68182 -0.681818,-0.68182 z m -23.1818182,4.09091 c -0.3777316,0 -0.6818182,0.30409 -0.6818182,0.68182 v 1.36364 c 0,0.37773 0.3040866,0.68181 0.6818182,0.68181 h 1.3636363 c 0.3777316,0 0.6818182,-0.30408 0.6818182,-0.68181 v -1.36364 c 0,-0.37773 -0.3040866,-0.68182 -0.6818182,-0.68182 z m 23.1818182,0 c -0.377731,0 -0.681818,0.30409 -0.681818,0.68182 v 1.36364 c 0,0.37773 0.304087,0.68181 0.681818,0.68181 h 1.363636 c 0.377732,0 0.681818,-0.30408 0.681818,-0.68181 v -1.36364 c 0,-0.37773 -0.304086,-0.68182 -0.681818,-0.68182 z"
           style="opacity:1;fill:#f1f2f3;fill-opacity:1;stroke:none;stroke-width:1.23966944;stroke-linecap:round;stroke-linejoin:round;stroke-miterlimit:4;stroke-dasharray:none;stroke-opacity:1"
           inkscape:connector-curvature="0" />
      </g>
      <path
         id="rect1364-6"
         transform="translate(0,266.64999)"
         d="M 12 6 C 11.445994 6 11 6.4459945 11 7 L 11 22 C 11 22.554006 11.445994 23 12 23 L 36 23 C 36.554006 23 37 22.554006 37 22 L 37 7 C 37 6.4459945 36.554006 6 36 6 L 12 6 z M 12 25 C 11.445994 25 11 25.445994 11 26 L 11 41 C 11 41.554006 11.445994 42 12 42 L 36 42 C 36.554006 42 37 41.554006 37 41 L 37 26 C 37 25.445994 36.554006 25 36 25 L 12 25 z "
         style="opacity:1;fill:url(#linearGradient1439);fill-opacity:1;stroke:none;stroke-width:2;stroke-linecap:round;stroke-linejoin:round;stroke-miterlimit:4;stroke-dasharray:none;stroke-opacity:1" />
    </g>
    <g
       id="layer1-3"
       inkscape:label="Capa 1"
       transform="translate(4,5)">
      <g
         transform="translate(46.390235,-26)"
         id="g9699">
        <path
           id="rect4619"
           transform="translate(-50.390235,282.64999)"
           d="m 26,18 -6,2 v 5 3.275391 C 19.528743,28.108741 19.029737,28 18.5,28 16.007001,28 14,30.007 14,32.5 14,34.993 16.007001,37 18.5,37 20.992999,37 23,34.993 23,32.5 V 24 l 3,-1 z m 8,9 -5,2 v 2 2 2.345703 C 28.544438,35.129513 28.039614,35 27.5,35 25.561,35 24,36.56099 24,38.5 24,40.43901 25.561,42 27.5,42 29.439003,42 31,40.43901 31,38.5 V 32.199219 L 34,31 Z"
           style="opacity:1;fill:#1664eb;fill-opacity:1;stroke:none;stroke-width:0.99999994;stroke-opacity:1"
           inkscape:connector-curvature="0" />
        <path
           id="rect4619-3"
           d="m 26,17 -6,2 v 5 3.275391 C 19.528743,27.108744 19.029737,27 18.5,27 16.007001,27 14,29.007001 14,31.5 14,33.992999 16.007001,36 18.5,36 20.992999,36 23,33.992999 23,31.5 V 23 l 3,-1 z m 8,9 -5,2 v 2 2 2.345703 C 28.544438,34.129513 28.039614,34 27.5,34 25.561,34 24,35.56099 24,37.5 24,39.43901 25.561,41 27.5,41 29.439003,41 31,39.43901 31,37.5 V 31.199219 L 34,30 Z"
           style="opacity:1;fill:#f7faff;fill-opacity:1;stroke:none;stroke-width:0.99999994;stroke-opacity:1"
           inkscape:connector-curvature="0"
           transform="translate(-50.390235,282.64999)" />
      </g>
    </g>
  </g>
</svg>
