<?xml version="1.0" encoding="UTF-8" standalone="no"?>
<!-- Created with Inkscape (http://www.inkscape.org/) -->

<svg
   xmlns:dc="http://purl.org/dc/elements/1.1/"
   xmlns:cc="http://creativecommons.org/ns#"
   xmlns:rdf="http://www.w3.org/1999/02/22-rdf-syntax-ns#"
   xmlns:svg="http://www.w3.org/2000/svg"
   xmlns="http://www.w3.org/2000/svg"
   xmlns:xlink="http://www.w3.org/1999/xlink"
   xmlns:sodipodi="http://sodipodi.sourceforge.net/DTD/sodipodi-0.dtd"
   xmlns:inkscape="http://www.inkscape.org/namespaces/inkscape"
   width="48"
   height="48"
   viewBox="0 0 48 48"
   version="1.1"
   id="svg8"
   inkscape:version="0.92.3 (2405546, 2018-03-11)"
   sodipodi:docname="preferences-desktop-default-applications.svg">
  <title
     id="title7895">Antu icon Theme</title>
  <defs
     id="defs2">
    <linearGradient
       gradientTransform="matrix(1.4999999,0,0,1.4999999,-35.999998,-153.32499)"
       inkscape:collect="always"
       xlink:href="#linearGradient2126"
       id="linearGradient1283-0"
       x1="16"
       y1="309.64999"
       x2="16"
       y2="287.64999"
       gradientUnits="userSpaceOnUse" />
    <linearGradient
       inkscape:collect="always"
       id="linearGradient2126">
      <stop
         style="stop-color:#475057;stop-opacity:1;"
         offset="0"
         id="stop2122" />
      <stop
         style="stop-color:#5e6a73;stop-opacity:1"
         offset="1"
         id="stop2124" />
    </linearGradient>
    <linearGradient
       gradientTransform="translate(-36,270.65)"
       gradientUnits="userSpaceOnUse"
       y2="12.999996"
       x2="24"
       y1="34.999996"
       x1="24"
       id="linearGradient1810-4"
       xlink:href="#linearGradient4582-3"
       inkscape:collect="always" />
    <linearGradient
       inkscape:collect="always"
       id="linearGradient4582-3">
      <stop
         style="stop-color:#c8d3d4;stop-opacity:1"
         offset="0"
         id="stop4578-5" />
      <stop
         style="stop-color:#f3f5f6;stop-opacity:1"
         offset="1"
         id="stop4580-6" />
    </linearGradient>
    <linearGradient
       inkscape:collect="always"
       xlink:href="#linearGradient1289"
       id="linearGradient1208-68"
       gradientUnits="userSpaceOnUse"
       gradientTransform="matrix(1.75,0,0,-1.75,-4,52.00001)"
       x1="16"
       y1="19"
       x2="16"
       y2="13" />
    <linearGradient
       inkscape:collect="always"
       id="linearGradient1289">
      <stop
         style="stop-color:#94a1a1;stop-opacity:1"
         offset="0"
         id="stop1285" />
      <stop
         style="stop-color:#fcfcfc;stop-opacity:1"
         offset="1"
         id="stop1287" />
    </linearGradient>
    <linearGradient
       gradientTransform="matrix(1.4615385,0,0,1.4615385,-35.384614,-141.83845)"
       inkscape:collect="always"
       xlink:href="#linearGradient4498"
       id="linearGradient1581-5"
       x1="16"
       y1="310.64999"
       x2="16"
       y2="286.64999"
       gradientUnits="userSpaceOnUse" />
    <linearGradient
       id="linearGradient4498"
       inkscape:collect="always">
      <stop
         id="stop4494"
         offset="0"
         style="stop-color:#5e6a73;stop-opacity:1" />
      <stop
         id="stop4496"
         offset="1"
         style="stop-color:#475057;stop-opacity:1" />
    </linearGradient>
    <linearGradient
       inkscape:collect="always"
       xlink:href="#linearGradient4582-3"
       id="linearGradient985-6"
       x1="48"
       y1="313.64999"
       x2="48"
       y2="275.64999"
       gradientUnits="userSpaceOnUse"
       gradientTransform="translate(-60)" />
  </defs>
  <sodipodi:namedview
     id="base"
     pagecolor="#ffffff"
     bordercolor="#666666"
     borderopacity="1.0"
     inkscape:pageopacity="0.0"
     inkscape:pageshadow="2"
     inkscape:zoom="45.254835"
     inkscape:cx="22.105371"
     inkscape:cy="22.302116"
     inkscape:document-units="px"
     inkscape:current-layer="layer1"
     showgrid="true"
     units="px"
     inkscape:window-width="1874"
     inkscape:window-height="1141"
     inkscape:window-x="46"
     inkscape:window-y="30"
     inkscape:window-maximized="1"
     objecttolerance="10"
     gridtolerance="10"
     guidetolerance="10"
     inkscape:snap-bbox="true"
     inkscape:bbox-paths="true"
     inkscape:bbox-nodes="true"
     inkscape:snap-bbox-edge-midpoints="true"
     inkscape:snap-bbox-midpoints="true"
     inkscape:object-paths="true"
     inkscape:snap-intersection-paths="true">
    <inkscape:grid
       type="xygrid"
       id="grid7897"
       empspacing="4" />
  </sodipodi:namedview>
  <metadata
     id="metadata5">
    <rdf:RDF>
      <cc:Work
         rdf:about="">
        <dc:format>image/svg+xml</dc:format>
        <dc:type
           rdf:resource="http://purl.org/dc/dcmitype/StillImage" />
        <dc:title>Antu icon Theme</dc:title>
      </cc:Work>
    </rdf:RDF>
  </metadata>
  <g
     inkscape:label="Capa 1"
     inkscape:groupmode="layer"
     id="layer1"
     transform="translate(0,-266.64999)">
    <g
       id="g5202"
       transform="translate(36,-4)">
      <path
         id="rect854-9"
         d="M -31,272.64999 H 7 c 1.662,0 3,1.338 3,3 v 38 c 0,1.662 -1.338,3 -3,3 h -38 c -1.662,0 -3,-1.338 -3,-3 v -38 c 0,-1.662 1.338,-3 3,-3 z"
         style="opacity:1;fill:#73818c;fill-opacity:1;stroke:none;stroke-width:3.88529491;stroke-linecap:round;stroke-linejoin:round;stroke-miterlimit:4;stroke-dasharray:none;stroke-opacity:1"
         inkscape:connector-curvature="0" />
      <path
         id="rect854-2-9"
         d="m -31,273.64999 c -1.108,0 -2,0.892 -2,2 v 38 c 0,1.108 0.892,2 2,2 H 7 c 1.108,0 2,-0.892 2,-2 v -38 c 0,-1.108 -0.892,-2 -2,-2 z m 2,2 c 1.108,0 2,0.892 2,2 0,1.108 -0.892,2 -2,2 -1.108,0 -2,-0.892 -2,-2 0,-1.108 0.892,-2 2,-2 z m 34,0 c 1.108,0 2,0.892 2,2 0,1.108 -0.892,2 -2,2 -1.108,0 -2,-0.892 -2,-2 0,-1.108 0.892,-2 2,-2 z m -34,34 c 1.108,0 2,0.892 2,2 0,1.108 -0.892,2 -2,2 -1.108,0 -2,-0.892 -2,-2 0,-1.108 0.892,-2 2,-2 z m 34,0 c 1.108,0 2,0.892 2,2 0,1.108 -0.892,2 -2,2 -1.108,0 -2,-0.892 -2,-2 0,-1.108 0.892,-2 2,-2 z"
         style="opacity:1;fill:url(#linearGradient985-6);fill-opacity:1;stroke:none;stroke-width:3.70869064;stroke-linecap:round;stroke-linejoin:round;stroke-miterlimit:4;stroke-dasharray:none;stroke-opacity:1"
         inkscape:connector-curvature="0" />
      <path
         inkscape:connector-curvature="0"
         style="opacity:1;fill:url(#linearGradient1581-5);fill-opacity:1;stroke:none;stroke-width:3.16666698;stroke-linecap:round;stroke-linejoin:round;stroke-miterlimit:4;stroke-dasharray:none;stroke-dashoffset:0;stroke-opacity:1"
         d="m -12.00002,313.64997 h 4.1e-5 C -1.473991,313.64997 7,305.17597 7,294.64998 7,284.12401 -1.473991,275.65 -11.999979,275.65 h -4.1e-5 C -22.526009,275.65 -31,284.12401 -31,294.64998 c 0,10.52599 8.473991,18.99999 18.99998,18.99999 z"
         id="rect835-0" />
      <path
         inkscape:connector-curvature="0"
         style="opacity:1;fill:url(#linearGradient1283-0);fill-opacity:1;stroke:none;stroke-width:3.27272749;stroke-linecap:round;stroke-linejoin:round;stroke-miterlimit:4;stroke-dasharray:none;stroke-dashoffset:0;stroke-opacity:1"
         d="m -12.000021,276.65001 h 4.2e-5 C -2.027991,276.65001 6,284.678 6,294.64998 c 0,9.97199 -8.027991,17.99999 -17.999979,17.99999 h -4.2e-5 c -9.971988,0 -17.999979,-8.028 -17.999979,-17.99999 0,-9.97198 8.027991,-17.99997 17.999979,-17.99997 z"
         id="rect837-8" />
      <path
         style="opacity:1;fill:url(#linearGradient1208-68);fill-opacity:1;stroke:none;stroke-width:3.5;stroke-linecap:round;stroke-linejoin:round;stroke-miterlimit:4;stroke-dasharray:none;stroke-dashoffset:0;stroke-opacity:1"
         d="M 24 17 C 20.122002 17 17 20.12202 17 24 C 17 27.878 20.122002 31 24 31 C 27.877999 31 31 27.878 31 24 C 31 20.12202 27.877999 17 24 17 z M 24 20 C 26.216 20 28 21.784 28 24 C 28 26.216 26.216 28 24 28 C 21.784 28 20 26.216 20 24 C 20 21.784 21.784 20 24 20 z "
         transform="translate(-36,270.64999)"
         id="path1204-1" />
      <path
         inkscape:connector-curvature="0"
         style="color:#000000;font-style:normal;font-variant:normal;font-weight:normal;font-stretch:normal;font-size:medium;line-height:normal;font-family:sans-serif;font-variant-ligatures:normal;font-variant-position:normal;font-variant-caps:normal;font-variant-numeric:normal;font-variant-alternates:normal;font-feature-settings:normal;text-indent:0;text-align:start;text-decoration:none;text-decoration-line:none;text-decoration-style:solid;text-decoration-color:#000000;letter-spacing:normal;word-spacing:normal;text-transform:none;writing-mode:lr-tb;direction:ltr;text-orientation:mixed;dominant-baseline:auto;baseline-shift:baseline;text-anchor:start;white-space:normal;shape-padding:0;clip-rule:nonzero;display:inline;overflow:visible;visibility:visible;opacity:1;isolation:auto;mix-blend-mode:normal;color-interpolation:sRGB;color-interpolation-filters:linearRGB;solid-color:#000000;solid-opacity:1;vector-effect:none;fill:url(#linearGradient1810-4);fill-opacity:1;fill-rule:nonzero;stroke:none;stroke-width:2;stroke-linecap:round;stroke-linejoin:round;stroke-miterlimit:4;stroke-dasharray:none;stroke-dashoffset:0;stroke-opacity:1;color-rendering:auto;image-rendering:auto;shape-rendering:auto;text-rendering:auto;enable-background:accumulate"
         d="m -19.001953,282.64999 a 1.0001,1.0001 0 0 0 -0.875,0.52149 l -6.001953,11 a 1.0001,1.0001 0 0 0 0,0.95703 l 6.001953,11 a 1.0001,1.0001 0 0 0 0.875,0.52148 h 14.003906 a 1.0001,1.0001 0 0 0 0.875,-0.52148 l 6.001953,-11 a 1.0001,1.0001 0 0 0 0,-0.95703 l -6.001953,-11 a 1.0001,1.0001 0 0 0 -0.875,-0.52149 z m 7.001953,6 c 3.324,0 6,2.67601 6,6 0,3.324 -2.676,6 -6,6 -3.324,0 -6,-2.676 -6,-6 0,-3.32399 2.676,-6 6,-6 z"
         id="path1801-3" />
    </g>
  </g>
</svg>
