<?xml version="1.0" encoding="UTF-8" standalone="no"?>
<!-- Created with Inkscape (http://www.inkscape.org/) -->

<svg
   xmlns:dc="http://purl.org/dc/elements/1.1/"
   xmlns:cc="http://creativecommons.org/ns#"
   xmlns:rdf="http://www.w3.org/1999/02/22-rdf-syntax-ns#"
   xmlns:svg="http://www.w3.org/2000/svg"
   xmlns="http://www.w3.org/2000/svg"
   xmlns:xlink="http://www.w3.org/1999/xlink"
   xmlns:sodipodi="http://sodipodi.sourceforge.net/DTD/sodipodi-0.dtd"
   xmlns:inkscape="http://www.inkscape.org/namespaces/inkscape"
   width="48"
   height="48"
   viewBox="0 0 12.7 12.7"
   version="1.1"
   id="svg1399"
   inkscape:version="0.92.4 5da689c313, 2019-01-14"
   sodipodi:docname="preferences-system-windows-move.svg">
  <defs
     id="defs1393">
    <linearGradient
       gradientTransform="matrix(3.7795276,0,0,-3.7795276,-324,1353.1696)"
       inkscape:collect="always"
       xlink:href="#linearGradient4846"
       id="linearGradient9532-3"
       x1="83.872917"
       y1="274.77496"
       x2="83.937119"
       y2="283.77081"
       gradientUnits="userSpaceOnUse" />
    <linearGradient
       id="linearGradient4846"
       inkscape:collect="always">
      <stop
         id="stop4842"
         offset="0"
         style="stop-color:#e4efef;stop-opacity:1" />
      <stop
         id="stop4844"
         offset="1"
         style="stop-color:#fcfcfc;stop-opacity:1" />
    </linearGradient>
    <linearGradient
       gradientTransform="matrix(3.7795276,0,0,-3.7795276,30.857142,1308.5982)"
       gradientUnits="userSpaceOnUse"
       y2="273.56546"
       x2="-11.339285"
       y1="271.44879"
       x1="-11.339285"
       id="linearGradient7718"
       xlink:href="#linearGradient2126"
       inkscape:collect="always" />
    <linearGradient
       id="linearGradient2126"
       inkscape:collect="always">
      <stop
         id="stop2122"
         offset="0"
         style="stop-color:#475057;stop-opacity:1;" />
      <stop
         id="stop2124"
         offset="1"
         style="stop-color:#5e6a73;stop-opacity:1" />
    </linearGradient>
    <linearGradient
       inkscape:collect="always"
       xlink:href="#linearGradient4846"
       id="linearGradient940"
       x1="-4.9913263"
       y1="297.68283"
       x2="-7.9017429"
       y2="291.862"
       gradientUnits="userSpaceOnUse" />
  </defs>
  <sodipodi:namedview
     id="base"
     pagecolor="#ffffff"
     bordercolor="#666666"
     borderopacity="1.0"
     inkscape:pageopacity="0.0"
     inkscape:pageshadow="2"
     inkscape:zoom="15.839192"
     inkscape:cx="23.407294"
     inkscape:cy="20.547144"
     inkscape:document-units="px"
     inkscape:current-layer="layer1"
     showgrid="true"
     inkscape:showpageshadow="false"
     units="px"
     inkscape:window-width="1920"
     inkscape:window-height="999"
     inkscape:window-x="0"
     inkscape:window-y="0"
     inkscape:window-maximized="1">
    <inkscape:grid
       type="xygrid"
       id="grid822" />
  </sodipodi:namedview>
  <metadata
     id="metadata1396">
    <rdf:RDF>
      <cc:Work
         rdf:about="">
        <dc:format>image/svg+xml</dc:format>
        <dc:type
           rdf:resource="http://purl.org/dc/dcmitype/StillImage" />
        <dc:title />
      </cc:Work>
    </rdf:RDF>
  </metadata>
  <g
     inkscape:label="Capa 1"
     inkscape:groupmode="layer"
     id="layer1"
     transform="translate(0,-284.30005)">
    <g
       transform="matrix(0.26458333,0,0,0.26458333,9.5249996,212.69057)"
       id="g15463">
      <path
         sodipodi:nodetypes="sccssssssss"
         inkscape:connector-curvature="0"
         id="rect9183-4-4-7"
         d="m -33.999989,273.65001 h 17.975774 5.024239 21.000002 c 1.107968,0 1.999975,0.89197 1.999975,1.99997 v 37.99998 c 0,1.10801 -0.892007,2.00001 -2.000013,2.00001 h -43.999977 c -1.108006,0 -2.000012,-0.892 -2.000012,-2.00001 v -37.99998 c 0,-1.108 0.892006,-1.99997 2.000012,-1.99997 z"
         style="opacity:1;fill:#90a4ae;fill-opacity:1;stroke:none;stroke-width:0.99999994;stroke-opacity:1" />
      <path
         sodipodi:nodetypes="csccssccc"
         id="rect9179-4-3-5"
         d="m -33.999996,314.64997 c -0.554004,0.003 -0.999999,-0.44602 -0.999999,-0.99998 l -4e-6,-33 h 46.000001 l 4e-6,33 c 0,0.55396 -0.446,0.99998 -1.000003,0.99998 h -22 -3.999999 z"
         style="opacity:0.98999999;fill:url(#linearGradient9532-3);fill-opacity:1;stroke:none;stroke-width:0.99999994;stroke-opacity:1"
         inkscape:connector-curvature="0" />
      <path
         style="opacity:1;vector-effect:none;fill:#343b40;fill-opacity:1;stroke:none;stroke-width:2;stroke-linecap:round;stroke-linejoin:round;stroke-miterlimit:4;stroke-dasharray:none;stroke-dashoffset:0;stroke-opacity:1;paint-order:markers stroke fill"
         d="m -34,273.64999 c -1.107992,0 -2,0.89201 -2,2 v 5 1 2 h 2 44 2 v -2 -1 -5 c 0,-1.10799 -0.892008,-2 -2,-2 z"
         id="rect14800-3"
         inkscape:connector-curvature="0"
         sodipodi:nodetypes="ssccccccccsss" />
      <path
         sodipodi:nodetypes="cccsssscccccc"
         id="rect4523-5"
         d="m -34.999999,282.64998 v -2 -4 -1 c 0,-0.554 0.446001,-1 1,-1 h 44.000001 c 0.554003,0 1,0.446 1,1 v 1 4 2 h -1 -44.000001 z"
         style="opacity:0.98999999;fill:url(#linearGradient7718);fill-opacity:1;stroke:none;stroke-width:0.30000001;stroke-miterlimit:4;stroke-dasharray:none;stroke-opacity:1"
         inkscape:connector-curvature="0" />
    </g>
    <g
       id="g2151"
       transform="translate(12.664243,-5.180695)">
      <path
         inkscape:connector-curvature="0"
         id="path883"
         d="m -7.9167291,291.59788 c -0.1401352,0.008 -0.2496709,0.1237 -0.2495971,0.26406 v 5.29115 c 1.405e-4,0.17567 0.1680041,0.30243 0.3369305,0.25425 l 1.7022215,-0.48576 0.9487794,0.94775 c 0.1666306,0.1656 0.4508733,0.0484 0.451652,-0.18655 v -1.46038 l 1.2236979,-0.97927 c 0.1345216,-0.1082 0.1308245,-0.3139 -0.00723,-0.41754 l -4.2328177,-3.175 c -0.049856,-0.0375 -0.1113515,-0.0562 -0.1736328,-0.0527 z m 4.5129029,3.96823 v 0.26458 h 2.1166671 v -0.26458 z m -0.79375,0.52917 v 0.26458 h 2.3812501 v -0.26458 z m -0.2645833,0.52916 v 0.26459 h 1.8520834 v -0.26459 z m 0,0.52917 v 0.26458 h 1.3229167 v -0.26458 z m 0,0.52917 v 0.26458 h 2.3812504 v -0.26458 z"
         style="color:#000000;font-style:normal;font-variant:normal;font-weight:normal;font-stretch:normal;font-size:medium;line-height:normal;font-family:sans-serif;font-variant-ligatures:normal;font-variant-position:normal;font-variant-caps:normal;font-variant-numeric:normal;font-variant-alternates:normal;font-feature-settings:normal;text-indent:0;text-align:start;text-decoration:none;text-decoration-line:none;text-decoration-style:solid;text-decoration-color:#000000;letter-spacing:normal;word-spacing:normal;text-transform:none;writing-mode:lr-tb;direction:ltr;text-orientation:mixed;dominant-baseline:auto;baseline-shift:baseline;text-anchor:start;white-space:normal;shape-padding:0;clip-rule:nonzero;display:inline;overflow:visible;visibility:visible;opacity:1;isolation:auto;mix-blend-mode:normal;color-interpolation:sRGB;color-interpolation-filters:linearRGB;solid-color:#000000;solid-opacity:1;vector-effect:none;fill:#1f1f26;fill-opacity:1;fill-rule:nonzero;stroke:none;stroke-width:0.52916664;stroke-linecap:round;stroke-linejoin:round;stroke-miterlimit:4;stroke-dasharray:none;stroke-dashoffset:0;stroke-opacity:1;color-rendering:auto;image-rendering:auto;shape-rendering:auto;text-rendering:auto;enable-background:accumulate" />
      <path
         sodipodi:nodetypes="ccccccc"
         inkscape:connector-curvature="0"
         id="path883-7"
         d="m -7.9017426,291.86194 v 5.29167 l 1.8520831,-0.52917 1.0583333,1.05834 v -1.5875 l 1.3229167,-1.05834 z"
         style="fill:url(#linearGradient940);fill-opacity:1;stroke:none;stroke-width:0.52916664;stroke-linecap:round;stroke-linejoin:round;stroke-miterlimit:4;stroke-dasharray:none;stroke-opacity:1" />
    </g>
    <g
       transform="matrix(0.26458333,0,0,0.26458333,-2.6125e-7,213.74891)"
       id="layer1-6"
       inkscape:label="Capa 1" />
  </g>
</svg>
