<?xml version="1.0" encoding="UTF-8" standalone="no"?>
<!-- Created with Inkscape (http://www.inkscape.org/) -->

<svg
   xmlns:dc="http://purl.org/dc/elements/1.1/"
   xmlns:cc="http://creativecommons.org/ns#"
   xmlns:rdf="http://www.w3.org/1999/02/22-rdf-syntax-ns#"
   xmlns:svg="http://www.w3.org/2000/svg"
   xmlns="http://www.w3.org/2000/svg"
   xmlns:xlink="http://www.w3.org/1999/xlink"
   xmlns:sodipodi="http://sodipodi.sourceforge.net/DTD/sodipodi-0.dtd"
   xmlns:inkscape="http://www.inkscape.org/namespaces/inkscape"
   width="48"
   height="48"
   viewBox="0 0 12.7 12.7"
   version="1.1"
   id="svg1399"
   inkscape:version="0.92.4 5da689c313, 2019-01-14"
   sodipodi:docname="preferences-virtualization-vm.svg">
  <defs
     id="defs1393">
    <linearGradient
       gradientTransform="translate(-11.90625,-2.6458332)"
       inkscape:collect="always"
       xlink:href="#linearGradient4902"
       id="linearGradient1018"
       x1="8.7312498"
       y1="296.47089"
       x2="8.9958334"
       y2="289.32715"
       gradientUnits="userSpaceOnUse" />
    <linearGradient
       id="linearGradient4902"
       inkscape:collect="always">
      <stop
         id="stop4898"
         offset="0"
         style="stop-color:#0d72ec;stop-opacity:1" />
      <stop
         id="stop4900"
         offset="1"
         style="stop-color:#36b2fb;stop-opacity:1" />
    </linearGradient>
    <linearGradient
       gradientTransform="translate(-11.90625,-2.6458332)"
       inkscape:collect="always"
       xlink:href="#linearGradient1500"
       id="linearGradient1026"
       x1="5.5562501"
       y1="295.94171"
       x2="5.5562501"
       y2="285.09381"
       gradientUnits="userSpaceOnUse" />
    <linearGradient
       inkscape:collect="always"
       id="linearGradient1500">
      <stop
         style="stop-color:#262626;stop-opacity:1"
         offset="0"
         id="stop1496" />
      <stop
         style="stop-color:#333333;stop-opacity:1"
         offset="1"
         id="stop1498" />
    </linearGradient>
  </defs>
  <sodipodi:namedview
     id="base"
     pagecolor="#ffffff"
     bordercolor="#666666"
     borderopacity="1.0"
     inkscape:pageopacity="0.0"
     inkscape:pageshadow="2"
     inkscape:zoom="7.9195959"
     inkscape:cx="13.187041"
     inkscape:cy="22.195546"
     inkscape:document-units="px"
     inkscape:current-layer="layer1"
     showgrid="true"
     inkscape:showpageshadow="false"
     units="px"
     inkscape:window-width="1920"
     inkscape:window-height="999"
     inkscape:window-x="0"
     inkscape:window-y="0"
     inkscape:window-maximized="1">
    <inkscape:grid
       type="xygrid"
       id="grid1923" />
  </sodipodi:namedview>
  <metadata
     id="metadata1396">
    <rdf:RDF>
      <cc:Work
         rdf:about="">
        <dc:format>image/svg+xml</dc:format>
        <dc:type
           rdf:resource="http://purl.org/dc/dcmitype/StillImage" />
        <dc:title />
      </cc:Work>
    </rdf:RDF>
  </metadata>
  <g
     inkscape:label="Capa 1"
     inkscape:groupmode="layer"
     id="layer1"
     transform="translate(0,-284.30005)">
    <g
       id="g897"
       transform="translate(11.90625,2.64582)">
      <path
         inkscape:connector-curvature="0"
         id="rect18678-7-3"
         d="m -10.583333,282.18339 h 10.05416701 c 0.439737,0 0.79375,0.35401 0.79375,0.79375 v 10.05417 c 0,0.43973 -0.354013,0.79375 -0.79375,0.79375 H -10.583333 c -0.439738,0 -0.79375,-0.35402 -0.79375,-0.79375 v -10.05417 c 0,-0.43974 0.354012,-0.79375 0.79375,-0.79375 z"
         style="opacity:1;vector-effect:none;fill:#1a1a1a;fill-opacity:1;stroke:none;stroke-width:0.52916664;stroke-linecap:round;stroke-linejoin:round;stroke-miterlimit:4;stroke-dasharray:none;stroke-dashoffset:0;stroke-opacity:1;paint-order:markers stroke fill" />
      <path
         inkscape:connector-curvature="0"
         id="rect18695-6"
         d="m -10.583333,282.44797 h 10.05416701 c 0.293158,0 0.529166000625003,0.23601 0.529166000625003,0.52917 v 10.05417 c 0,0.29315 -0.236008000625003,0.52916 -0.529166000625003,0.52916 H -10.583333 c -0.293159,0 -0.529167,-0.23601 -0.529167,-0.52916 v -10.05417 c 0,-0.29316 0.236008,-0.52917 0.529167,-0.52917 z"
         style="opacity:1;vector-effect:none;fill:url(#linearGradient1026);fill-opacity:1;stroke:none;stroke-width:0.52916664;stroke-linecap:round;stroke-linejoin:round;stroke-miterlimit:4;stroke-dasharray:none;stroke-dashoffset:0;stroke-opacity:1;paint-order:markers stroke fill" />
      <path
         inkscape:connector-curvature="0"
         id="rect18678-75"
         d="m -10.318751,282.97714 h 9.52500201 c 0.146579,0 0.264583,0.118 0.264583,0.26458 v 7.93751 c 0,0.14658 -0.118004,0.26458 -0.264583,0.26458 H -10.318751 c -0.146579,0 -0.264582,-0.118 -0.264582,-0.26458 v -7.93751 c 0,-0.14658 0.118003,-0.26458 0.264582,-0.26458 z"
         style="opacity:1;vector-effect:none;fill:#1a1a1a;fill-opacity:1;stroke:none;stroke-width:0.52916664;stroke-linecap:round;stroke-linejoin:round;stroke-miterlimit:4;stroke-dasharray:none;stroke-dashoffset:0;stroke-opacity:1;paint-order:markers stroke fill" />
      <path
         inkscape:connector-curvature="0"
         id="rect18676-3"
         d="m -10.31875,283.24172 h 9.52500001 v 7.9375 H -10.31875 Z"
         style="opacity:1;vector-effect:none;fill:#f1f1f1;fill-opacity:1;stroke:none;stroke-width:0.52916664;stroke-linecap:round;stroke-linejoin:round;stroke-miterlimit:4;stroke-dasharray:none;stroke-dashoffset:0;stroke-opacity:1;paint-order:markers stroke fill" />
      <path
         inkscape:connector-curvature="0"
         style="opacity:1;vector-effect:none;fill:#1a1a1a;fill-opacity:1;stroke:none;stroke-width:0.52916664;stroke-linecap:round;stroke-linejoin:round;stroke-miterlimit:4;stroke-dasharray:none;stroke-dashoffset:0;stroke-opacity:1;paint-order:markers stroke fill"
         d="m -9.260417,291.97297 h 0.7937501 c 0.2931589,0 0.529167,0.23601 0.529167,0.52917 0,0.29316 -0.2360081,0.52917 -0.529167,0.52917 H -9.260417 c -0.293158,0 -0.529166,-0.23601 -0.529166,-0.52917 0,-0.29316 0.236008,-0.52917 0.529166,-0.52917 z"
         id="rect19838-5" />
      <path
         inkscape:connector-curvature="0"
         style="opacity:1;vector-effect:none;fill:#1e8df2;fill-opacity:1;stroke:none;stroke-width:0.52916664;stroke-linecap:round;stroke-linejoin:round;stroke-miterlimit:4;stroke-dasharray:none;stroke-dashoffset:0;stroke-opacity:1;paint-order:markers stroke fill"
         d="m -9.260417,292.23756 h 0.7937501 c 0.1465789,0 0.2645839,0.118 0.2645839,0.26458 0,0.14658 -0.118005,0.26458 -0.2645839,0.26458 H -9.260417 c -0.146579,0 -0.264583,-0.118 -0.264583,-0.26458 0,-0.14658 0.118004,-0.26458 0.264583,-0.26458 z"
         id="rect19840-6" />
      <path
         inkscape:connector-curvature="0"
         style="opacity:1;vector-effect:none;fill:#1a1a1a;fill-opacity:1;stroke:none;stroke-width:0.52916664;stroke-linecap:round;stroke-linejoin:round;stroke-miterlimit:4;stroke-dasharray:none;stroke-dashoffset:0;stroke-opacity:1;paint-order:markers stroke fill"
         d="m -9.260417,291.97297 c 0.293159,0 0.529167,0.23601 0.529167,0.52917 0,0.29316 -0.236008,0.52917 -0.529167,0.52917 -0.293158,0 -0.529166,-0.23601 -0.529166,-0.52917 0,-0.29316 0.236008,-0.52917 0.529166,-0.52917 z"
         id="rect19842-2" />
      <path
         inkscape:connector-curvature="0"
         style="opacity:1;vector-effect:none;fill:#e7f0f6;fill-opacity:1;stroke:none;stroke-width:0.52916664;stroke-linecap:round;stroke-linejoin:round;stroke-miterlimit:4;stroke-dasharray:none;stroke-dashoffset:0;stroke-opacity:1;paint-order:markers stroke fill"
         d="m -9.260417,292.23756 c 0.146579,0 0.264584,0.118 0.264584,0.26458 0,0.14658 -0.118005,0.26458 -0.264584,0.26458 -0.146579,0 -0.264583,-0.118 -0.264583,-0.26458 0,-0.14658 0.118004,-0.26458 0.264583,-0.26458 z"
         id="rect19844-9" />
      <path
         id="rect1104-8-27-4-1"
         d="m -9.525,283.77089 c -0.146579,0 -0.264583,0.11801 -0.264583,0.26459 v 1.32291 c 0,0.14658 0.118004,0.26459 0.264583,0.26459 h 1.5875001 c 0.1465786,0 0.2645833,-0.11801 0.2645833,-0.26459 v -1.05833 c 0,-0.14658 -0.1180047,-0.26458 -0.2645833,-0.26458 H -8.73125 l -0.264583,-0.26459 z m 0,2.38125 c -0.146579,0 -0.264583,0.11801 -0.264583,0.26459 v 1.32291 c 0,0.14658 0.118004,0.26459 0.264583,0.26459 h 1.5875001 c 0.1465786,0 0.2645833,-0.11801 0.2645833,-0.26459 v -1.05833 c 0,-0.14658 -0.1180047,-0.26458 -0.2645833,-0.26458 H -8.73125 l -0.264583,-0.26459 z m 0,2.38125 c -0.146579,0 -0.264583,0.11801 -0.264583,0.26459 v 1.32291 c 0,0.14658 0.118004,0.26459 0.264583,0.26459 h 1.5875001 c 0.1465786,0 0.2645833,-0.11801 0.2645833,-0.26459 v -1.05833 c 0,-0.14658 -0.1180047,-0.26458 -0.2645833,-0.26458 H -8.73125 l -0.264583,-0.26459 z"
         style="opacity:1;fill:#223240;fill-opacity:1;stroke:none;stroke-width:0.52916682;stroke-linecap:round;stroke-linejoin:round;stroke-miterlimit:4;stroke-dasharray:none;stroke-dashoffset:0;stroke-opacity:1"
         inkscape:connector-curvature="0" />
      <path
         id="rect1122-2-5-2"
         d="m -8.73125,284.30006 -0.264583,0.26458 H -9.525 v 0.79375 h 1.5875001 v -1.05833 z m 0,2.38125 -0.264583,0.26458 H -9.525 v 0.79375 h 1.5875001 v -1.05833 z m 0,2.38125 -0.264583,0.26458 H -9.525 v 0.79375 h 1.5875001 v -1.05833 z"
         style="opacity:1;fill:#637d8a;fill-opacity:1;stroke:none;stroke-width:0.52916682;stroke-linecap:round;stroke-linejoin:round;stroke-miterlimit:4;stroke-dasharray:none;stroke-dashoffset:0;stroke-opacity:1"
         inkscape:connector-curvature="0" />
      <path
         id="rect912-4-7"
         d="m -7.1437499,283.77089 c -0.1465787,0 -0.2645834,0.11801 -0.2645834,0.26459 v 0.26458 c 0,0.14658 0.1180047,0.26458 0.2645834,0.26458 h 1.3229166 c 0.1465787,0 0.2645834,-0.118 0.2645834,-0.26458 v -0.26458 c 0,-0.14658 -0.1180047,-0.26459 -0.2645834,-0.26459 z m 0,1.05834 c -0.1465787,0 -0.2645834,0.118 -0.2645834,0.26458 v 0.26458 c 0,0.14658 0.1180047,0.26459 0.2645834,0.26459 h 2.1166666 c 0.1465787,0 0.2645834,-0.11801 0.2645834,-0.26459 v -0.26458 c 0,-0.14658 -0.1180047,-0.26458 -0.2645834,-0.26458 z m 0,1.32291 c -0.1465787,0 -0.2645834,0.11801 -0.2645834,0.26459 v 0.26458 c 0,0.14658 0.1180047,0.26458 0.2645834,0.26458 h 3.96875 c 0.1465786,0 0.2645833,-0.118 0.2645833,-0.26458 v -0.26458 c 0,-0.14658 -0.1180047,-0.26459 -0.2645833,-0.26459 z m 0,1.05834 c -0.1465787,0 -0.2645834,0.118 -0.2645834,0.26458 v 0.26458 c 0,0.14658 0.1180047,0.26459 0.2645834,0.26459 h 2.1166666 c 0.1465787,0 0.2645834,-0.11801 0.2645834,-0.26459 v -0.26458 c 0,-0.14658 -0.1180047,-0.26458 -0.2645834,-0.26458 z m 0,1.32291 c -0.1465787,0 -0.2645834,0.11801 -0.2645834,0.26459 v 0.26458 c 0,0.14658 0.1180047,0.26458 0.2645834,0.26458 h 1.3229166 c 0.1465787,0 0.2645834,-0.118 0.2645834,-0.26458 v -0.26458 c 0,-0.14658 -0.1180047,-0.26459 -0.2645834,-0.26459 z m 0,1.05834 c -0.1465787,0 -0.2645834,0.118 -0.2645834,0.26458 v 0.26458 c 0,0.14658 0.1180047,0.26459 0.2645834,0.26459 h 2.1166666 c 0.1465787,0 0.2645834,-0.11801 0.2645834,-0.26459 v -0.26458 c 0,-0.14658 -0.1180047,-0.26458 -0.2645834,-0.26458 z"
         style="opacity:1;fill:#223240;fill-opacity:1;stroke:none;stroke-width:0.52916682;stroke-linecap:round;stroke-linejoin:round;stroke-miterlimit:4;stroke-dasharray:none;stroke-dashoffset:0;stroke-opacity:1"
         inkscape:connector-curvature="0" />
      <path
         id="rect914-7-0"
         d="m -7.1437499,284.03548 v 0.26458 h 1.3229166 v -0.26458 z m 0,1.05833 v 0.26458 h 2.1166666 v -0.26458 z m 0,1.32292 v 0.26458 h 3.96875 v -0.26458 z m 0,1.05833 v 0.26458 h 2.1166666 v -0.26458 z m 0,1.32292 v 0.26458 h 1.3229166 v -0.26458 z m 0,1.05833 v 0.26458 h 2.1166666 v -0.26458 z"
         style="opacity:1;fill:#637d8a;fill-opacity:1;stroke:none;stroke-width:0.52916682;stroke-linecap:round;stroke-linejoin:round;stroke-miterlimit:4;stroke-dasharray:none;stroke-dashoffset:0;stroke-opacity:1"
         inkscape:connector-curvature="0" />
      <path
         inkscape:connector-curvature="0"
         style="fill:#0e44b2;fill-opacity:1;stroke:none;stroke-width:0.38884729;stroke-linecap:round;stroke-linejoin:round;stroke-miterlimit:4;stroke-dasharray:none;stroke-opacity:1"
         d="m -3.1749999,286.41675 c 2.19868891,0 3.96875091,1.77002 3.96875091,3.96873 0,2.19867 -1.770062,3.96875 -3.96875091,3.96875 -2.1986873,0 -3.9687503,-1.77008 -3.9687503,-3.96875 0,-2.19871 1.770063,-3.96873 3.9687503,-3.96873 z"
         id="rect4496-2-5-9" />
      <path
         inkscape:connector-curvature="0"
         style="fill:url(#linearGradient1018);fill-opacity:1;stroke:none;stroke-width:0.37100008;stroke-linecap:round;stroke-linejoin:round;stroke-miterlimit:4;stroke-dasharray:none;stroke-opacity:1"
         d="m -3.1749999,286.68132 c 2.0521089,0 3.70416791,1.65204 3.70416791,3.70416 0,2.05212 -1.65205901,3.70419 -3.70416791,3.70419 -2.0521081,0 -3.7041662,-1.65207 -3.7041662,-3.70419 0,-2.05212 1.6520581,-3.70416 3.7041662,-3.70416 z"
         id="rect4570-9-6-3-6-3" />
      <path
         id="path1020-3"
         class="ColorScheme-Text"
         style="color:#36404d;fill:#0e44b2;fill-opacity:1;fill-rule:evenodd;stroke:none;stroke-width:0.26458332"
         d="m -4.2332325,288.53338 c -0.095024,-8e-5 -0.1827924,0.0508 -0.229938,0.13333 l -1.0582327,1.85208 c -0.046462,0.0813 -0.046462,0.18118 0,0.26251 l 1.0582327,1.85209 c 0.047146,0.0825 0.1349137,0.1334 0.229938,0.13332 h 2.1164656 c 0.09502,8e-5 0.1827919,-0.0508 0.229938,-0.13332 l 1.05823191,-1.85209 c 0.04646,-0.0813 0.04646,-0.18117 0,-0.26251 l -1.05823191,-1.85208 c -0.04715,-0.0825 -0.1349129,-0.13341 -0.229938,-0.13333 z m 1.0582326,1.32292 c 0.4396959,0 0.7936751,0.35401 0.7936751,0.79375 0,0.43973 -0.3539792,0.79375 -0.7936751,0.79375 -0.4396955,0 -0.7936744,-0.35402 -0.7936744,-0.79375 0,-0.43974 0.3539789,-0.79375 0.7936744,-0.79375 z"
         inkscape:connector-curvature="0" />
      <path
         inkscape:connector-curvature="0"
         d="m -4.2332322,288.26883 c -0.095024,-8e-5 -0.1827924,0.0508 -0.229938,0.13333 l -1.0582328,1.85208 c -0.046462,0.0813 -0.046462,0.18118 0,0.26251 l 1.0582328,1.85209 c 0.047146,0.0825 0.1349137,0.1334 0.229938,0.13332 h 2.1164653 c 0.095024,8e-5 0.1827927,-0.0508 0.2299391,-0.13332 l 1.05823181,-1.85209 c 0.04646,-0.0813 0.04646,-0.18117 0,-0.26251 l -1.05823181,-1.85208 c -0.047147,-0.0825 -0.1349145,-0.13341 -0.2299391,-0.13333 z m 1.0582328,1.32292 c 0.4396957,0 0.7936746,0.35401 0.7936746,0.79375 0,0.43973 -0.3539789,0.79375 -0.7936746,0.79375 -0.4396957,0 -0.7936746,-0.35402 -0.7936746,-0.79375 0,-0.43974 0.3539789,-0.79375 0.7936746,-0.79375 z"
         style="color:#36404d;fill:#e7f0f6;fill-opacity:1;fill-rule:evenodd;stroke:none;stroke-width:0.26458332"
         class="ColorScheme-Text"
         id="path1020-6" />
    </g>
  </g>
</svg>
