<?xml version="1.0" encoding="UTF-8" standalone="no"?>
<!-- Created with Inkscape (http://www.inkscape.org/) -->

<svg
   xmlns:dc="http://purl.org/dc/elements/1.1/"
   xmlns:cc="http://creativecommons.org/ns#"
   xmlns:rdf="http://www.w3.org/1999/02/22-rdf-syntax-ns#"
   xmlns:svg="http://www.w3.org/2000/svg"
   xmlns="http://www.w3.org/2000/svg"
   xmlns:xlink="http://www.w3.org/1999/xlink"
   xmlns:sodipodi="http://sodipodi.sourceforge.net/DTD/sodipodi-0.dtd"
   xmlns:inkscape="http://www.inkscape.org/namespaces/inkscape"
   width="48"
   height="48"
   viewBox="0 0 12.7 12.7"
   version="1.1"
   id="svg1399"
   inkscape:version="0.92.4 5da689c313, 2019-01-14"
   sodipodi:docname="preferences-web-browser-adblock.svg">
  <defs
     id="defs1393">
    <style
       id="current-color-scheme"
       type="text/css">
      .ColorScheme-Text {
        color:#36404d;
      }
      </style>
    <style
       type="text/css"
       id="current-color-scheme-3">
      .ColorScheme-Text {
        color:#122036;
      }
      </style>
    <style
       id="current-color-scheme-5"
       type="text/css">
      .ColorScheme-Text {
        color:#122036;
      }
      </style>
    <style
       id="current-color-scheme-2"
       type="text/css">
      .ColorScheme-Text {
        color:#122036;
      }
      </style>
    <style
       id="current-color-scheme-1"
       type="text/css">
      .ColorScheme-Text {
        color:#122036;
      }
      </style>
    <style
       type="text/css"
       id="current-color-scheme-10">
      .ColorScheme-Text {
        color:#122036;
      }
      </style>
    <style
       id="current-color-scheme-0"
       type="text/css">
      .ColorScheme-Text {
        color:#122036;
      }
      </style>
    <style
       id="current-color-scheme-26"
       type="text/css">
      .ColorScheme-Text {
        color:#122036;
      }
      </style>
    <style
       id="current-color-scheme-6"
       type="text/css">
      .ColorScheme-Text {
        color:#36404d;
      }
      </style>
    <style
       type="text/css"
       id="current-color-scheme-3-7">
      .ColorScheme-Text {
        color:#122036;
      }
      </style>
    <style
       id="current-color-scheme-5-5"
       type="text/css">
      .ColorScheme-Text {
        color:#122036;
      }
      </style>
    <style
       id="current-color-scheme-2-3"
       type="text/css">
      .ColorScheme-Text {
        color:#122036;
      }
      </style>
    <style
       id="current-color-scheme-1-5"
       type="text/css">
      .ColorScheme-Text {
        color:#122036;
      }
      </style>
    <style
       type="text/css"
       id="current-color-scheme-10-6">
      .ColorScheme-Text {
        color:#122036;
      }
      </style>
    <style
       id="current-color-scheme-0-2"
       type="text/css">
      .ColorScheme-Text {
        color:#122036;
      }
      </style>
    <style
       id="current-color-scheme-26-9"
       type="text/css">
      .ColorScheme-Text {
        color:#122036;
      }
      </style>
    <style
       type="text/css"
       id="current-color-scheme-27">
      .ColorScheme-Text {
        color:#122036;
      }
      </style>
    <style
       id="current-color-scheme-1-0"
       type="text/css">
      .ColorScheme-Text {
        color:#122036;
      }
      </style>
    <style
       id="current-color-scheme-6-9"
       type="text/css">
      .ColorScheme-Text {
        color:#36404d;
      }
      </style>
    <style
       id="current-color-scheme-5-3"
       type="text/css">
      .ColorScheme-Text {
        color:#36404d;
      }
      </style>
    <style
       id="current-color-scheme-60"
       type="text/css">
      .ColorScheme-Text {
        color:#36404d;
      }
      </style>
    <style
       id="current-color-scheme-53"
       type="text/css">
      .ColorScheme-Text {
        color:#122036;
      }
      </style>
    <style
       type="text/css"
       id="current-color-scheme-1-5-6">
      .ColorScheme-Text {
        color:#122036;
      }
      </style>
    <linearGradient
       id="linearGradient4774"
       inkscape:collect="always">
      <stop
         id="stop4770"
         offset="0"
         style="stop-color:#f41e3d;stop-opacity:1" />
      <stop
         id="stop4772"
         offset="1"
         style="stop-color:#fc3a56;stop-opacity:1" />
    </linearGradient>
    <linearGradient
       inkscape:collect="always"
       xlink:href="#linearGradient4774"
       id="linearGradient899"
       x1="-4.2723589"
       y1="301.61765"
       x2="-4.2429037"
       y2="290.50836"
       gradientUnits="userSpaceOnUse" />
  </defs>
  <sodipodi:namedview
     id="base"
     pagecolor="#ffffff"
     bordercolor="#666666"
     borderopacity="1.0"
     inkscape:pageopacity="0.0"
     inkscape:pageshadow="2"
     inkscape:zoom="15.839192"
     inkscape:cx="14.311685"
     inkscape:cy="26.492171"
     inkscape:document-units="mm"
     inkscape:current-layer="layer1"
     showgrid="false"
     inkscape:showpageshadow="false"
     units="px"
     inkscape:window-width="1920"
     inkscape:window-height="999"
     inkscape:window-x="0"
     inkscape:window-y="0"
     inkscape:window-maximized="1" />
  <metadata
     id="metadata1396">
    <rdf:RDF>
      <cc:Work
         rdf:about="">
        <dc:format>image/svg+xml</dc:format>
        <dc:type
           rdf:resource="http://purl.org/dc/dcmitype/StillImage" />
        <dc:title />
      </cc:Work>
    </rdf:RDF>
  </metadata>
  <g
     inkscape:label="Capa 1"
     inkscape:groupmode="layer"
     id="layer1"
     transform="translate(0,-284.30005)">
    <g
       id="g4028"
       transform="translate(10.592904,-5.41456)">
      <path
         inkscape:connector-curvature="0"
         id="rect4544-5-5-9-9"
         d="m -4.2429069,290.24378 h 6.6e-6 c 3.2247404,0 5.82083,2.59609 5.82083,5.82083 0,3.22474 -2.5960896,5.82083 -5.82083,5.82083 h -6.6e-6 c -3.2247409,0 -5.8208301,-2.59609 -5.8208301,-5.82083 0,-3.22474 2.5960892,-5.82083 5.8208301,-5.82083 z"
         style="opacity:1;fill:#d90122;fill-opacity:1;stroke:none;stroke-width:0.08315477;stroke-miterlimit:4;stroke-dasharray:none;stroke-opacity:1" />
      <path
         inkscape:connector-curvature="0"
         id="rect4544-5-5-9"
         d="m -4.2429037,290.50837 h 6.1e-6 c 3.0781617,0 5.5562473,2.47808 5.5562473,5.55624 0,3.07817 -2.4780856,5.55625 -5.5562473,5.55625 h -6.1e-6 c -3.0781617,0 -5.5562471,-2.47808 -5.5562471,-5.55625 0,-3.07816 2.4780854,-5.55624 5.5562471,-5.55624 z"
         style="opacity:1;fill:url(#linearGradient899);fill-opacity:1;stroke:none;stroke-width:0.07937501;stroke-miterlimit:4;stroke-dasharray:none;stroke-opacity:1" />
      <path
         id="path1818"
         d="m -3.8542967,290.54764 c -0.1156869,-0.008 -0.2260711,-0.0337 -0.3436485,-0.0346 -0.287528,0.27023 -0.6091171,0.53952 -0.8474935,0.8108 -0.039132,-0.0128 -0.079973,-0.0217 -0.1235067,-0.0217 -0.2198687,0 -0.396875,0.17701 -0.396875,0.39688 0,0.072 0.020519,0.13829 0.053744,0.19637 -0.5242144,0.69199 -0.896843,1.38209 -1.1472166,2.06241 -0.031908,-0.005 -0.063901,-0.01 -0.097152,-0.01 -0.2273073,0 -0.4267309,0.11366 -0.5457032,0.28732 -0.5324022,-0.25434 -1.0891302,-0.63791 -1.6557129,-1.08831 -0.046837,0.0757 -0.083886,0.15752 -0.1271241,0.23565 0.5717709,0.44978 1.136202,0.83521 1.6805176,1.09347 -0.00872,0.043 -0.013435,0.0877 -0.013435,0.13333 0,0.2836 0.1775989,0.52262 0.427364,0.61701 -0.093281,0.59801 -0.098887,1.18305 -0.029456,1.74718 0.034082,0.27692 0.085315,0.54891 0.1514121,0.81494 -0.6443542,0.30451 -1.3251091,0.7652 -2.0257163,1.31103 0.015695,0.0241 0.025286,0.0522 0.041341,0.076 0.033324,0.0494 0.078315,0.0892 0.1131713,0.13746 0.675481,-0.52729 1.3289759,-0.972 1.9430338,-1.26659 0.1901849,0.65941 0.4708187,1.27984 0.8061524,1.85208 -0.064374,0.0705 -0.1043863,0.16374 -0.1043863,0.26717 0,0.21986 0.1770062,0.39687 0.396875,0.39687 0.043533,0 0.084375,-0.009 0.1235067,-0.0217 0.2618914,0.37336 0.5455875,0.71268 0.8366416,1.03043 0.1558777,0.0139 0.3062052,0.0457 0.4656045,0.0465 -0.3764407,-0.38145 -0.758725,-0.76295 -1.0914063,-1.2392 0.039141,-0.0615 0.062528,-0.13427 0.062528,-0.2129 0,-0.21987 -0.1770063,-0.39688 -0.396875,-0.39688 -0.019148,0 -0.037402,0.003 -0.055811,0.006 -0.33459,-0.56933 -0.6137738,-1.18594 -0.7989173,-1.83968 0.7255343,-0.31807 1.4110705,-0.48231 2.0655071,-0.52451 0.069645,0.29085 0.3285069,0.50643 0.6413045,0.50643 0.2864887,0 0.5272712,-0.18132 0.6196004,-0.43512 0.4700384,0.0852 0.9264423,0.23173 1.3720093,0.4315 -0.243736,1.03308 -0.1097788,2.13247 0.2583821,3.01274 0.078133,-0.0425 0.1588246,-0.0805 0.234611,-0.12661 -0.3289043,-0.80814 -0.4572238,-1.82478 -0.2490803,-2.76986 0.64592463,0.3194 1.26573913,0.76996 1.87740503,1.26814 0.03075,-0.0429 0.07071,-0.0782 0.100252,-0.12195 0.01996,-0.0296 0.03176,-0.0646 0.05116,-0.0946 -0.6339652,-0.51521 -1.2800364,-0.98303 -1.96112103,-1.31362 0.1318459,-0.45204 0.3445788,-0.88061 0.65215673,-1.25832 0.1063291,0.0527 0.2247669,0.0848 0.3519164,0.0848 0.041133,0 0.080476,-0.006 0.1198894,-0.0119 0.00132,0.002 0.0023,0.004 0.00362,0.006 0.3111611,0.43562 0.8284855,0.79503 1.46037647,1.10381 0.0254,-0.083 0.0549,-0.16392 0.07648,-0.24857 -0.54910597,-0.27412 -0.99997697,-0.58483 -1.27640837,-0.95136 0.2436854,-0.1352 0.4097954,-0.39192 0.4097954,-0.69143 0,-0.0647 -0.0098,-0.12643 -0.02429,-0.18655 0.290318,-0.14824 0.633464,-0.25781 1.00252297,-0.34727 -0.01242,-0.0863 -0.01004,-0.17708 -0.02635,-0.262 -0.39435397,0.0944 -0.76257597,0.21137 -1.07641997,0.37156 -0.140469,-0.22178 -0.3861803,-0.36949 -0.6692101,-0.36949 -0.059912,0 -0.1175819,0.008 -0.1736328,0.0202 -0.014822,-0.13814 -0.024805,-0.27718 -0.024805,-0.41702 0,-0.87413 0.2637993,-1.68707 0.5183145,-2.36678 -0.03295,-0.0347 -0.05763,-0.0768 -0.091465,-0.11059 -0.055394,-0.0554 -0.1236887,-0.0963 -0.1813843,-0.14935 -0.62473103,1.15233 -1.68020633,2.20697 -3.06286223,2.6324 -0.7613144,0.23425 -1.6176604,0.27932 -2.5460976,0.0532 0.00175,-0.0197 0.00568,-0.0388 0.00568,-0.0589 0,-0.24102 -0.1287663,-0.44923 -0.320394,-0.56483 0.2388312,-0.64977 0.5954766,-1.31104 1.0996745,-1.97714 0.045489,0.0181 0.094679,0.0284 0.1467612,0.0284 0.2198688,0 0.396875,-0.177 0.396875,-0.39687 0,-0.0797 -0.023926,-0.15343 -0.064079,-0.21549 0.2757308,-0.31165 0.6373111,-0.62378 0.9818523,-0.93586 z m 3.12642413,2.33629 c -0.1540293,0.53435 -0.27336833,1.12569 -0.27336833,1.72548 0,0.17396 0.014626,0.34833 0.037207,0.52193 -0.2212316,0.14057 -0.3684529,0.38607 -0.3684529,0.66869 0,0.21882 0.087701,0.41635 0.2299602,0.55966 -0.3179215,0.39127 -0.5417291,0.83247 -0.6821289,1.29501 -0.4538509,-0.20021 -0.9206447,-0.3483 -1.4035321,-0.43512 -0.018756,-0.3494 -0.3035974,-0.6258 -0.6578409,-0.6258 -0.3291343,0 -0.598727,0.23844 -0.6506062,0.55242 -0.6773278,0.0435 -1.3835618,0.21185 -2.1249349,0.53227 -0.058447,-0.24156 -0.1051438,-0.48694 -0.135909,-0.73691 -0.066503,-0.54033 -0.060474,-1.10031 0.027388,-1.67328 0.2423785,-0.01 0.4484918,-0.14795 0.5555219,-0.34933 0.9786387,0.24132 1.8884688,0.19845 2.6980263,-0.0506 1.1429582,-0.35168 2.0807477,-1.09816 2.7486695,-1.98438 z"
         style="opacity:1;vector-effect:none;fill:#fee7ea;fill-opacity:1;stroke:none;stroke-width:0.26458332;stroke-linecap:round;stroke-linejoin:round;stroke-miterlimit:4;stroke-dasharray:none;stroke-dashoffset:0;stroke-opacity:1"
         inkscape:connector-curvature="0" />
      <path
         inkscape:connector-curvature="0"
         style="opacity:1;fill:#d90122;fill-opacity:1;stroke:#d90122;stroke-width:0.52916667;stroke-linecap:round;stroke-linejoin:round;stroke-miterlimit:4;stroke-dasharray:none;stroke-opacity:0.97391301"
         d="m -4.6409799,293.15421 c -0.2198688,0 -0.396875,0.177 -0.396875,0.39687 v 2.24896 c -0.091929,0 -0.1796529,0.0149 -0.2645833,0.0367 v -1.4919 c 0,-0.21987 -0.1770066,-0.39687 -0.396875,-0.39687 -0.2198685,0 -0.396875,0.177 -0.396875,0.39687 v 2.51354 0.1323 0.0904 l -0.3767212,-0.37672 a 0.39691469,0.39691469 0 0 0 -0.2847374,-0.12041 0.39691469,0.39691469 0 0 0 -0.276469,0.68161 l 1.0009727,1.00098 c 0.1443136,0.4125 0.5323123,0.70848 0.9952882,0.70848 h 1.8520831 c 0.5863145,0 1.0583336,-0.47202 1.0583336,-1.05833 v -1.05834 -1.98437 c 0,-0.21987 -0.1770066,-0.39688 -0.3968753,-0.39688 -0.2198685,0 -0.396875,0.17701 -0.396875,0.39688 v 0.96273 c -0.084931,-0.0218 -0.1726541,-0.0367 -0.2645833,-0.0367 v -1.71979 c 0,-0.21987 -0.1770066,-0.39688 -0.396875,-0.39688 -0.2198685,0 -0.396875,0.17701 -0.396875,0.39688 v 1.71979 h -0.2645834 v -2.24896 c 0,-0.21987 -0.1770062,-0.39687 -0.3968747,-0.39687 z"
         id="rect3357-9" />
      <path
         inkscape:connector-curvature="0"
         style="opacity:1;fill:#fffdfe;fill-opacity:1;stroke:none;stroke-width:0.52916664;stroke-linecap:square;stroke-linejoin:miter;stroke-miterlimit:4;stroke-dasharray:none;stroke-opacity:1"
         d="m -4.6398364,293.15421 c -0.2198687,0 -0.396875,0.177 -0.396875,0.39687 v 2.24896 c -0.091929,0 -0.1796529,0.0149 -0.2645833,0.0367 v -1.4919 c 0,-0.21987 -0.1770065,-0.39687 -0.396875,-0.39687 -0.2198685,0 -0.396875,0.177 -0.396875,0.39687 v 2.51354 0.1323 0.0904 l -0.3767212,-0.37672 a 0.39691469,0.39691469 0 0 0 -0.2847371,-0.12041 0.39691469,0.39691469 0 0 0 -0.276469,0.68161 l 1.0009725,1.00098 c 0.1443135,0.4125 0.5323123,0.70848 0.9952881,0.70848 h 1.8520834 c 0.5863145,0 1.0583333,-0.47202 1.0583333,-1.05833 v -1.05834 -1.98437 c 0,-0.21987 -0.1770065,-0.39688 -0.396875,-0.39688 -0.2198685,0 -0.396875,0.17701 -0.396875,0.39688 v 0.96273 c -0.08493,-0.0218 -0.1726541,-0.0367 -0.2645833,-0.0367 v -1.71979 c 0,-0.21987 -0.1770066,-0.39688 -0.396875,-0.39688 -0.2198685,0 -0.396875,0.17701 -0.396875,0.39688 v 1.71979 h -0.2645834 v -2.24896 c 0,-0.21987 -0.1770062,-0.39687 -0.396875,-0.39687 z"
         id="rect3357" />
    </g>
  </g>
</svg>
