<?xml version="1.0" encoding="UTF-8" standalone="no"?>
<!-- Created with Inkscape (http://www.inkscape.org/) -->

<svg
   xmlns:dc="http://purl.org/dc/elements/1.1/"
   xmlns:cc="http://creativecommons.org/ns#"
   xmlns:rdf="http://www.w3.org/1999/02/22-rdf-syntax-ns#"
   xmlns:svg="http://www.w3.org/2000/svg"
   xmlns="http://www.w3.org/2000/svg"
   xmlns:xlink="http://www.w3.org/1999/xlink"
   xmlns:sodipodi="http://sodipodi.sourceforge.net/DTD/sodipodi-0.dtd"
   xmlns:inkscape="http://www.inkscape.org/namespaces/inkscape"
   width="48"
   height="48"
   viewBox="0 0 48 48"
   version="1.1"
   id="svg8"
   inkscape:version="0.92.2 2405546, 2018-03-11"
   sodipodi:docname="preferences-desktop-font-installer.svg">
  <title
     id="title7895">Antu icon Theme</title>
  <defs
     id="defs2">
    <linearGradient
       gradientTransform="translate(-132,260.75481)"
       inkscape:collect="always"
       xlink:href="#linearGradient2126"
       id="linearGradient7825"
       x1="116"
       y1="47.999996"
       x2="116"
       y2="11.999996"
       gradientUnits="userSpaceOnUse" />
    <linearGradient
       inkscape:collect="always"
       id="linearGradient2126">
      <stop
         style="stop-color:#475057;stop-opacity:1;"
         offset="0"
         id="stop2122" />
      <stop
         style="stop-color:#5e6a73;stop-opacity:1"
         offset="1"
         id="stop2124" />
    </linearGradient>
    <style
       id="current-color-scheme"
       type="text/css">
      .ColorScheme-Text {
        color:#122036;
      }
      </style>
    <linearGradient
       gradientUnits="userSpaceOnUse"
       y2="37"
       x2="32"
       y1="50"
       x1="32"
       id="linearGradient5414"
       xlink:href="#linearGradient2927"
       inkscape:collect="always"
       gradientTransform="translate(4.0003036,263.6499)" />
    <linearGradient
       id="linearGradient2927"
       inkscape:collect="always">
      <stop
         id="stop2923"
         offset="0"
         style="stop-color:#dcffe9;stop-opacity:1" />
      <stop
         id="stop2925"
         offset="1"
         style="stop-color:#ffffff;stop-opacity:1" />
    </linearGradient>
    <linearGradient
       inkscape:collect="always"
       xlink:href="#linearGradient961"
       id="linearGradient8628-9"
       gradientUnits="userSpaceOnUse"
       gradientTransform="matrix(0.91666667,0,0,0.91666667,6.666667,266.9)"
       x1="32"
       y1="50"
       x2="32"
       y2="37" />
    <linearGradient
       id="linearGradient961"
       inkscape:collect="always">
      <stop
         id="stop957"
         offset="0"
         style="stop-color:#29b672;stop-opacity:1" />
      <stop
         id="stop959"
         offset="1"
         style="stop-color:#56d38c;stop-opacity:1" />
    </linearGradient>
  </defs>
  <sodipodi:namedview
     id="base"
     pagecolor="#ffffff"
     bordercolor="#666666"
     borderopacity="1.0"
     inkscape:pageopacity="0.0"
     inkscape:pageshadow="2"
     inkscape:zoom="4"
     inkscape:cx="17.550776"
     inkscape:cy="-1.7865451"
     inkscape:document-units="px"
     inkscape:current-layer="layer1"
     showgrid="true"
     units="px"
     inkscape:window-width="1360"
     inkscape:window-height="711"
     inkscape:window-x="0"
     inkscape:window-y="28"
     inkscape:window-maximized="1"
     objecttolerance="10"
     gridtolerance="10"
     guidetolerance="10"
     inkscape:snap-bbox="true"
     inkscape:bbox-paths="true"
     inkscape:bbox-nodes="true"
     inkscape:snap-bbox-edge-midpoints="true"
     inkscape:snap-bbox-midpoints="true"
     inkscape:object-paths="true"
     inkscape:snap-intersection-paths="true">
    <inkscape:grid
       type="xygrid"
       id="grid7897"
       empspacing="4" />
  </sodipodi:namedview>
  <metadata
     id="metadata5">
    <rdf:RDF>
      <cc:Work
         rdf:about="">
        <dc:format>image/svg+xml</dc:format>
        <dc:type
           rdf:resource="http://purl.org/dc/dcmitype/StillImage" />
        <dc:title>Antu icon Theme</dc:title>
      </cc:Work>
    </rdf:RDF>
  </metadata>
  <g
     inkscape:label="Capa 1"
     inkscape:groupmode="layer"
     id="layer1"
     transform="translate(0,-266.64999)">
    <g
       id="g8685">
      <g
         transform="translate(41,0.89518)"
         id="g8425">
        <path
           style="opacity:1;vector-effect:none;fill:#343b40;fill-opacity:1;stroke:none;stroke-width:6;stroke-linecap:square;stroke-linejoin:round;stroke-miterlimit:18;stroke-dasharray:none;stroke-dashoffset:0;stroke-opacity:1;paint-order:markers stroke fill"
           d="m -39,268.75481 v 12 h 6 v -2 c 0,0 0.06758,-3 3.125,-3 H -21 v 27 c 0,0 0.0111,3 -3,3 h -3 v 6 h 20 v -6 h -3 c 0,0 -3,0.0111 -3,-3 v -27 h 9 c 0,0 3,0 3,3 v 2 h 6 v -12 H 4 -1 -33 Z"
           id="rect7744"
           inkscape:connector-curvature="0"
           sodipodi:nodetypes="cccccccccccccccccccccccc" />
        <path
           style="opacity:1;vector-effect:none;fill:url(#linearGradient7825);fill-opacity:1;stroke:none;stroke-width:6;stroke-linecap:square;stroke-linejoin:round;stroke-miterlimit:18;stroke-dasharray:none;stroke-dashoffset:0;stroke-opacity:1;paint-order:markers stroke fill"
           d="m -38,269.75481 v 10 h 4 v -1 c 0,0 0,-4 4,-4 h 10 v 28 c 0,0 0.0148,4 -4,4 h -2 v 4 h 6 6 6 v -4 h -2 c 0,0 -4,0.0148 -4,-4 v -28 h 10 c 0,0 4,-0.0148 4,4 v 1 h 4 v -10 H 3 -34 Z"
           id="rect7776"
           inkscape:connector-curvature="0"
           sodipodi:nodetypes="ccccccccccccccccccccccccc" />
      </g>
      <path
         id="path8535"
         d="m 36.000304,290.64989 c -6.648,0 -12,5.35199 -12,12 0,6.64801 5.352,12 12,12 6.648,0 12,-5.35199 12,-12 0,-6.64801 -5.352,-12 -12,-12 z"
         style="opacity:1;fill:#278c5a;fill-opacity:1;stroke:none;stroke-width:1.81422937;stroke-linecap:round;stroke-linejoin:round;stroke-miterlimit:4;stroke-dasharray:none;stroke-opacity:1" />
      <path
         id="path8535-4"
         d="m 36,291.64999 c -6.094,0 -11,4.90599 -11,11 0,6.09401 4.906,11 11,11 6.094,0 11,-4.90599 11,-11 0,-6.09401 -4.906,-11 -11,-11 z"
         style="opacity:1;fill:url(#linearGradient8628-9);fill-opacity:1.0;stroke:none;stroke-width:1.66304362;stroke-linecap:round;stroke-linejoin:round;stroke-miterlimit:4;stroke-dasharray:none;stroke-opacity:1"
         inkscape:connector-curvature="0" />
      <path
         id="rect5344-7"
         d="m 36,297.64999 c 1.108,0 2,0.89199 2,2 v 4 h 2 a 1.0001,1.0001 0 0 1 0.707031,1.70702 l -4,4 a 1.0001,1.0001 0 0 1 -1.414062,0 l -4,-4 A 1.0001,1.0001 0 0 1 32,303.64999 h 2 v -4 c 0,-1.10801 0.892,-2 2,-2 z"
         style="opacity:1;fill:#278c5a;fill-opacity:1;stroke:none;stroke-width:1.81422937;stroke-linecap:round;stroke-linejoin:round;stroke-miterlimit:4;stroke-dasharray:none;stroke-opacity:1"
         inkscape:connector-curvature="0" />
      <path
         id="rect5344"
         d="m 36.000304,296.64989 c 1.108,0 2,0.89199 2,2 v 4 h 2 a 1.0001,1.0001 0 0 1 0.707031,1.70702 l -4,4 a 1.0001,1.0001 0 0 1 -1.414062,0 l -4,-4 a 1.0001,1.0001 0 0 1 0.707031,-1.70702 h 2 v -4 c 0,-1.10801 0.892,-2 2,-2 z"
         style="opacity:1;fill:url(#linearGradient5414);fill-opacity:1.0;stroke:none;stroke-width:1.81422937;stroke-linecap:round;stroke-linejoin:round;stroke-miterlimit:4;stroke-dasharray:none;stroke-opacity:1" />
    </g>
  </g>
</svg>
