<?xml version="1.0" encoding="UTF-8" standalone="no"?>
<!-- Created with Inkscape (http://www.inkscape.org/) -->

<svg
   xmlns:dc="http://purl.org/dc/elements/1.1/"
   xmlns:cc="http://creativecommons.org/ns#"
   xmlns:rdf="http://www.w3.org/1999/02/22-rdf-syntax-ns#"
   xmlns:svg="http://www.w3.org/2000/svg"
   xmlns="http://www.w3.org/2000/svg"
   xmlns:xlink="http://www.w3.org/1999/xlink"
   xmlns:sodipodi="http://sodipodi.sourceforge.net/DTD/sodipodi-0.dtd"
   xmlns:inkscape="http://www.inkscape.org/namespaces/inkscape"
   width="48"
   height="48"
   viewBox="0 0 12.7 12.7"
   version="1.1"
   id="svg1399"
   inkscape:version="0.92.4 5da689c313, 2019-01-14"
   sodipodi:docname="preferences-desktop-user-password.svg">
  <defs
     id="defs1393">
    <linearGradient
       id="linearGradient4506"
       inkscape:collect="always">
      <stop
         id="stop4502"
         offset="0"
         style="stop-color:#252a34;stop-opacity:1" />
      <stop
         id="stop4504"
         offset="1"
         style="stop-color:#353d4b;stop-opacity:1" />
    </linearGradient>
    <linearGradient
       inkscape:collect="always"
       id="linearGradient4582">
      <stop
         style="stop-color:#cee3e3;stop-opacity:1"
         offset="0"
         id="stop4578" />
      <stop
         style="stop-color:#fcfcfc;stop-opacity:1"
         offset="1"
         id="stop4580" />
    </linearGradient>
    <linearGradient
       id="linearGradient4894"
       inkscape:collect="always">
      <stop
         id="stop4890"
         offset="0"
         style="stop-color:#306dee;stop-opacity:1" />
      <stop
         id="stop4892"
         offset="1"
         style="stop-color:#5795fb;stop-opacity:1" />
    </linearGradient>
    <linearGradient
       inkscape:collect="always"
       xlink:href="#linearGradient4894"
       id="linearGradient870"
       x1="-4.5152082"
       y1="301.00909"
       x2="-4.6053643"
       y2="290.36844"
       gradientUnits="userSpaceOnUse" />
    <linearGradient
       inkscape:collect="always"
       xlink:href="#linearGradient4506"
       id="linearGradient878"
       x1="-4.4111218"
       y1="299.0881"
       x2="-4.3097215"
       y2="292.39117"
       gradientUnits="userSpaceOnUse" />
    <linearGradient
       inkscape:collect="always"
       xlink:href="#linearGradient4582"
       id="linearGradient886"
       x1="-4.3562236"
       y1="300.17392"
       x2="-4.2465153"
       y2="291.23709"
       gradientUnits="userSpaceOnUse" />
  </defs>
  <sodipodi:namedview
     id="base"
     pagecolor="#ffffff"
     bordercolor="#666666"
     borderopacity="1.0"
     inkscape:pageopacity="0.0"
     inkscape:pageshadow="2"
     inkscape:zoom="15.839192"
     inkscape:cx="13.698611"
     inkscape:cy="21.101748"
     inkscape:document-units="mm"
     inkscape:current-layer="layer1"
     showgrid="false"
     inkscape:showpageshadow="false"
     units="px"
     inkscape:window-width="1920"
     inkscape:window-height="999"
     inkscape:window-x="0"
     inkscape:window-y="0"
     inkscape:window-maximized="1" />
  <metadata
     id="metadata1396">
    <rdf:RDF>
      <cc:Work
         rdf:about="">
        <dc:format>image/svg+xml</dc:format>
        <dc:type
           rdf:resource="http://purl.org/dc/dcmitype/StillImage" />
        <dc:title />
      </cc:Work>
    </rdf:RDF>
  </metadata>
  <g
     inkscape:label="Capa 1"
     inkscape:groupmode="layer"
     id="layer1"
     transform="translate(0,-284.30005)">
    <g
       id="g1521"
       transform="translate(10.659721,-5.1807057)">
      <path
         style="opacity:1;fill:#33518f;fill-opacity:1;stroke:none;stroke-width:0.52916664;stroke-linecap:round;stroke-linejoin:round;stroke-miterlimit:4;stroke-dasharray:none;stroke-opacity:1;paint-order:stroke fill markers"
         d="M -9.8659714,290.27451 H 1.2465284 c 0.4397375,0 0.79375,0.35401 0.79375,0.79375 v 9.525 c 0,0.43973 -0.3540125,0.79375 -0.79375,0.79375 H -9.8659714 c -0.4397376,0 -0.7937496,-0.35402 -0.7937496,-0.79375 v -9.525 c 0,-0.43974 0.354012,-0.79375 0.7937496,-0.79375 z"
         id="rect847" />
      <path
         style="opacity:1;fill:url(#linearGradient870);fill-opacity:1;stroke:none;stroke-width:0.52916664;stroke-linecap:round;stroke-linejoin:round;stroke-miterlimit:4;stroke-dasharray:none;stroke-opacity:1;paint-order:stroke fill markers"
         d="M -9.8659711,290.53909 H 1.2465292 c 0.2931583,0 0.5291666,0.23601 0.5291666,0.52917 v 9.525 c 0,0.29315 -0.2360083,0.52916 -0.5291666,0.52916 H -9.8659711 c -0.2931579,0 -0.5291669,-0.23601 -0.5291669,-0.52916 v -9.525 c 0,-0.29316 0.236009,-0.52917 0.5291669,-0.52917 z"
         id="rect849" />
      <path
         style="opacity:1;fill:#33518f;fill-opacity:1;stroke:none;stroke-width:0.52916664;stroke-linecap:round;stroke-linejoin:round;stroke-miterlimit:4;stroke-dasharray:none;stroke-opacity:1;paint-order:stroke fill markers"
         d="M -9.6013873,291.06827 H 0.98194626 c 0.14657914,0 0.26458334,0.118 0.26458334,0.26458 v 8.99583 c 0,0.14658 -0.1180042,0.26459 -0.26458334,0.26459 H -9.6013873 c -0.1465792,0 -0.2645833,-0.11801 -0.2645833,-0.26459 v -8.99583 c 0,-0.14658 0.1180041,-0.26458 0.2645833,-0.26458 z"
         id="rect851" />
      <path
         style="opacity:1;fill:url(#linearGradient886);fill-opacity:1;stroke:none;stroke-width:0.52916664;stroke-linecap:round;stroke-linejoin:round;stroke-miterlimit:4;stroke-dasharray:none;stroke-opacity:1;paint-order:stroke fill markers"
         d="M -9.601388,291.33286 H 0.98194504 v 8.99583 H -9.601388 Z"
         id="rect855" />
      <path
         id="path2130-3"
         d="m -4.3097216,292.39116 c -0.7328959,0 -1.3229167,0.59002 -1.3229167,1.32292 0,0.7329 0.5900208,1.32292 1.3229167,1.32292 0.7328958,0 1.3229166,-0.59002 1.3229166,-1.32292 0,-0.7329 -0.5900208,-1.32292 -1.3229166,-1.32292 z m 0,3.175 a 2.1166667,2.1166667 0 0 0 -2.1166667,2.11667 h 2.1166667 2.1166666 a 2.1166667,2.1166667 0 0 0 -2.1166666,-2.11667 z m -3.175,2.64584 v 1.05833 h 6.35 V 298.212 Z m 0.2645833,0.26458 h 0.5291667 v 0.52917 h -0.5291667 z m 0.79375,0 h 1.0583333 v 0.52917 h -1.0583333 z m 1.3229167,0 h 1.3229166 v 0.52917 h -1.3229166 z m 1.5875,0 h 0.5291666 v 0.52917 h -0.5291666 z m 0.79375,0 h 1.3229166 v 0.52917 h -1.3229166 z"
         style="color:#36404d;fill:url(#linearGradient878);fill-opacity:1;stroke:none;stroke-width:0.26458332"
         inkscape:connector-curvature="0" />
    </g>
  </g>
</svg>
