<?xml version="1.0" encoding="UTF-8" standalone="no"?>
<!-- Created with Inkscape (http://www.inkscape.org/) -->

<svg
   xmlns:dc="http://purl.org/dc/elements/1.1/"
   xmlns:cc="http://creativecommons.org/ns#"
   xmlns:rdf="http://www.w3.org/1999/02/22-rdf-syntax-ns#"
   xmlns:svg="http://www.w3.org/2000/svg"
   xmlns="http://www.w3.org/2000/svg"
   xmlns:xlink="http://www.w3.org/1999/xlink"
   xmlns:sodipodi="http://sodipodi.sourceforge.net/DTD/sodipodi-0.dtd"
   xmlns:inkscape="http://www.inkscape.org/namespaces/inkscape"
   width="48"
   height="48"
   viewBox="0 0 12.7 12.7"
   version="1.1"
   id="svg1399"
   inkscape:version="0.92.4 5da689c313, 2019-01-14"
   sodipodi:docname="preferences-desktop-gestures-screenedges.svg">
  <defs
     id="defs1393">
    <linearGradient
       gradientTransform="matrix(0.26458333,0,0,0.26458333,-10.893582,219.09664)"
       inkscape:collect="always"
       xlink:href="#linearGradient4902"
       id="linearGradient904"
       x1="22"
       y1="306.64999"
       x2="22"
       y2="270.64999"
       gradientUnits="userSpaceOnUse" />
    <linearGradient
       id="linearGradient4902"
       inkscape:collect="always">
      <stop
         id="stop4898"
         offset="0"
         style="stop-color:#0d72ec;stop-opacity:1" />
      <stop
         id="stop4900"
         offset="1"
         style="stop-color:#36b2fb;stop-opacity:1" />
    </linearGradient>
  </defs>
  <sodipodi:namedview
     id="base"
     pagecolor="#ffffff"
     bordercolor="#666666"
     borderopacity="1.0"
     inkscape:pageopacity="0.0"
     inkscape:pageshadow="2"
     inkscape:zoom="7.9195959"
     inkscape:cx="-15.98796"
     inkscape:cy="-0.67020984"
     inkscape:document-units="mm"
     inkscape:current-layer="layer1"
     showgrid="false"
     inkscape:showpageshadow="false"
     units="px"
     inkscape:window-width="1920"
     inkscape:window-height="999"
     inkscape:window-x="0"
     inkscape:window-y="0"
     inkscape:window-maximized="1" />
  <metadata
     id="metadata1396">
    <rdf:RDF>
      <cc:Work
         rdf:about="">
        <dc:format>image/svg+xml</dc:format>
        <dc:type
           rdf:resource="http://purl.org/dc/dcmitype/StillImage" />
        <dc:title></dc:title>
      </cc:Work>
    </rdf:RDF>
  </metadata>
  <g
     inkscape:label="Capa 1"
     inkscape:groupmode="layer"
     id="layer1"
     transform="translate(0,-284.30005)">
    <g
       id="g1525"
       transform="translate(10.893582,-5.347735)">
      <path
         sodipodi:nodetypes="sccssssssss"
         inkscape:connector-curvature="0"
         id="rect9183-4-4"
         d="m -10.364413,290.44154 h 4.7560905 1.3293299 5.5562501 c 0.29315,0 0.529161,0.236 0.529161,0.52916 v 10.05416 c 0,0.29316 -0.236011,0.52917 -0.529171,0.52917 H -10.364413 c -0.29316,0 -0.529169,-0.23601 -0.529169,-0.52917 V 290.9707 c 0,-0.29316 0.236009,-0.52916 0.529169,-0.52916 z"
         style="opacity:1;fill:#0a5dbf;fill-opacity:1;stroke:none;stroke-width:0.26458332;stroke-opacity:1" />
      <path
         inkscape:connector-curvature="0"
         id="path931"
         d="m -7.7185822,290.70612 a 2.9104167,2.9104167 0 0 1 -0.01447,0.29042 2.9104167,2.9104167 0 0 1 -0.043408,0.28784 2.9104167,2.9104167 0 0 1 -0.072347,0.28163 2.9104167,2.9104167 0 0 1 -0.099735,0.27337 2.9104167,2.9104167 0 0 1 -0.1260904,0.262 2.9104167,2.9104167 0 0 1 -0.1524455,0.24805 2.9104167,2.9104167 0 0 1 -0.1756998,0.23151 2.9104167,2.9104167 0 0 1 -0.1984375,0.2129 2.9104167,2.9104167 0 0 1 -0.2185913,0.19224 2.9104167,2.9104167 0 0 1 -0.2366781,0.16898 2.9104167,2.9104167 0 0 1 -0.252181,0.1447 2.9104167,2.9104167 0 0 1 -0.2656169,0.11885 2.9104167,2.9104167 0 0 1 -0.2759521,0.092 2.9104167,2.9104167 0 0 1 -0.2842202,0.0636 2.9104167,2.9104167 0 0 1 -0.288871,0.0351 2.9104167,2.9104167 0 0 1 -0.205672,0.007 v 6.08542 h 9.73480551 a 2.9104167,2.9104167 0 0 1 0.034106,-0.0558 2.9104167,2.9104167 0 0 1 0.1757,-0.23151 2.9104167,2.9104167 0 0 1 0.198438,-0.21291 2.9104167,2.9104167 0 0 1 0.218591,-0.19223 2.9104167,2.9104167 0 0 1 0.236678,-0.16898 2.9104167,2.9104167 0 0 1 0.252181,-0.1447 2.9104167,2.9104167 0 0 1 0.265617,-0.11885 2.9104167,2.9104167 0 0 1 0.275952,-0.092 2.9104167,2.9104167 0 0 1 0.28421999,-0.0636 2.9104167,2.9104167 0 0 1 0.288872,-0.0351 2.9104167,2.9104167 0 0 1 0.205672,-0.007 v -7.40833 c 0,-0.14657 -0.118003,-0.26458 -0.264583,-0.26458 h -5.8208337 -1.0583334 z"
         style="opacity:0.98999999;fill:url(#linearGradient904);fill-opacity:1;stroke:none;stroke-width:0.26458332;stroke-opacity:1" />
      <path
         inkscape:connector-curvature="0"
         id="path860"
         d="m -10.364416,290.70612 c -0.146578,0 -0.264583,0.118 -0.264583,0.26458 v 2.11667 0.26458 a 2.6458333,2.6458333 0 0 0 0.187069,-0.007 2.6458333,2.6458333 0 0 0 0.262516,-0.0315 2.6458333,2.6458333 0 0 0 0.2583822,-0.0584 2.6458333,2.6458333 0 0 0 0.2506307,-0.0832 2.6458333,2.6458333 0 0 0 0.2413289,-0.108 2.6458333,2.6458333 0 0 0 0.2294434,-0.13177 2.6458333,2.6458333 0 0 0 0.2154907,-0.15348 2.6458333,2.6458333 0 0 0 0.1984375,-0.17467 2.6458333,2.6458333 0 0 0 0.1803508,-0.19378 2.6458333,2.6458333 0 0 0 0.1601969,-0.21033 2.6458333,2.6458333 0 0 0 0.1379761,-0.22531 2.6458333,2.6458333 0 0 0 0.1152386,-0.23823 2.6458333,2.6458333 0 0 0 0.090434,-0.24856 2.6458333,2.6458333 0 0 0 0.065629,-0.25631 2.6458333,2.6458333 0 0 0 0.039274,-0.26149 2.6458333,2.6458333 0 0 0 0.013436,-0.26406 h -0.2645837 -0.2645833 z"
         style="opacity:0.98999999;fill:#b7cfec;fill-opacity:1;stroke:none;stroke-width:0.07937501;stroke-miterlimit:4;stroke-dasharray:none;stroke-opacity:1" />
      <path
         inkscape:connector-curvature="0"
         id="path858"
         d="m 1.5418345,298.64362 a 2.6458333,2.6458333 0 0 0 -0.187069,0.007 2.6458333,2.6458333 0 0 0 -0.262516,0.0315 2.6458333,2.6458333 0 0 0 -0.25838199,0.0584 2.6458333,2.6458333 0 0 0 -0.250631,0.0832 2.6458333,2.6458333 0 0 0 -0.241329,0.108 2.6458333,2.6458333 0 0 0 -0.229443,0.13177 2.6458333,2.6458333 0 0 0 -0.215491,0.15348 2.6458333,2.6458333 0 0 0 -0.198437,0.17467 2.6458333,2.6458333 0 0 0 -0.180351,0.19378 2.6458333,2.6458333 0 0 0 -0.160197,0.21033 2.6458333,2.6458333 0 0 0 -0.137976,0.22531 2.6458333,2.6458333 0 0 0 -0.1152387,0.23823 2.6458333,2.6458333 0 0 0 -0.090434,0.24856 2.6458333,2.6458333 0 0 0 -0.065629,0.25631 2.6458333,2.6458333 0 0 0 -0.039274,0.26149 2.6458333,2.6458333 0 0 0 -0.013435,0.26406 h 0.26458273 0.264584 1.85208297 c 0.146578,0 0.264583,-0.118 0.264583,-0.26458 v -2.11667 z"
         style="opacity:0.98999999;fill:#b7cfec;fill-opacity:1;stroke:none;stroke-width:0.07937501;stroke-miterlimit:4;stroke-dasharray:none;stroke-opacity:1" />
      <path
         inkscape:connector-curvature="0"
         id="path957"
         d="m -10.628999,299.70195 v 0.52917 0.52916 0.26459 c 0,0.14658 0.118005,0.26458 0.264583,0.26458 h 8.9958338 a 2.9104167,2.9104167 0 0 1 0.01447,-0.29042 2.9104167,2.9104167 0 0 1 0.043408,-0.28784 2.9104167,2.9104167 0 0 1 0.072347,-0.28163 2.9104167,2.9104167 0 0 1 0.099735,-0.27337 2.9104167,2.9104167 0 0 1 0.1260904,-0.262 2.9104167,2.9104167 0 0 1 0.11833911,-0.19224 H -10.364416 Z"
         style="opacity:0.98999999;fill:#e6eef8;fill-opacity:1;stroke:none;stroke-width:0.07937501;stroke-miterlimit:4;stroke-dasharray:none;stroke-opacity:1" />
      <path
         id="path953-5"
         d="m -3.7498322,292.5582 a 0.26460979,0.26460979 0 0 0 -0.1834513,0.0775 l -0.5291666,0.52916 a 0.26460979,0.26460979 0 0 0 0,0.37414 l 1.135848,1.13585 -1.135848,1.13585 a 0.26460979,0.26460979 0 0 0 0,0.37413 l 0.5291666,0.52917 a 0.26460979,0.26460979 0 0 0 0.3741373,0 l 1.8520833,-1.85208 a 0.26460979,0.26460979 0 0 0 0,-0.37414 l -1.8520833,-1.85208 a 0.26460979,0.26460979 0 0 0 -0.190686,-0.0775 z m -2.3776327,0.52917 c -0.2931586,0 -0.5291666,0.236 -0.5291666,0.52916 0,0.29316 0.236008,0.52917 0.5291666,0.52917 0.2931584,0 0.5291667,-0.23601 0.5291667,-0.52917 0,-0.29316 -0.2360083,-0.52916 -0.5291667,-0.52916 z m -0.5291666,1.5875 c -0.4397359,0 -0.79375,0.35401 -0.79375,0.79375 0,0.43973 0.3540141,0.79375 0.79375,0.79375 0.4397362,0 0.79375,-0.35402 0.79375,-0.79375 0,-0.43974 -0.3540138,-0.79375 -0.79375,-0.79375 z m 1.0583333,1.85208 c -0.5863164,0 -1.0583333,0.47202 -1.0583333,1.05833 0,0.58632 0.4720169,1.05834 1.0583333,1.05834 0.5863169,0 1.0583333,-0.47202 1.0583333,-1.05834 0,-0.58631 -0.4720164,-1.05833 -1.0583333,-1.05833 z"
         style="opacity:0.98999999;fill:#0b63cc;fill-opacity:1;stroke:none;stroke-width:0.07937501;stroke-miterlimit:4;stroke-dasharray:none;stroke-opacity:1"
         inkscape:connector-curvature="0" />
      <path
         inkscape:connector-curvature="0"
         id="path953"
         d="m -3.7534496,292.29362 a 0.26460979,0.26460979 0 0 0 -0.1834513,0.0775 l -0.5291666,0.52917 a 0.26460979,0.26460979 0 0 0 0,0.37414 l 1.135848,1.13584 -1.135848,1.13585 a 0.26460979,0.26460979 0 0 0 0,0.37414 l 0.5291666,0.52917 a 0.26460979,0.26460979 0 0 0 0.3741373,0 l 1.8520833,-1.85209 a 0.26460979,0.26460979 0 0 0 0,-0.37413 l -1.8520833,-1.85209 a 0.26460979,0.26460979 0 0 0 -0.190686,-0.0775 z m -2.3776326,0.52916 c -0.2931586,0 -0.5291667,0.23601 -0.5291667,0.52917 0,0.29316 0.2360081,0.52917 0.5291667,0.52917 0.2931583,0 0.5291666,-0.23601 0.5291666,-0.52917 0,-0.29316 -0.2360083,-0.52917 -0.5291666,-0.52917 z m -0.5291667,1.5875 c -0.4397359,0 -0.79375,0.35402 -0.79375,0.79375 0,0.43974 0.3540141,0.79375 0.79375,0.79375 0.4397362,0 0.79375,-0.35401 0.79375,-0.79375 0,-0.43973 -0.3540138,-0.79375 -0.79375,-0.79375 z m 1.0583333,1.85209 c -0.5863164,0 -1.0583333,0.47201 -1.0583333,1.05833 0,0.58632 0.4720169,1.05833 1.0583333,1.05833 0.586317,0 1.0583334,-0.47201 1.0583334,-1.05833 0,-0.58632 -0.4720164,-1.05833 -1.0583334,-1.05833 z"
         style="opacity:0.98999999;fill:#e6eef8;fill-opacity:1;stroke:none;stroke-width:0.07937501;stroke-miterlimit:4;stroke-dasharray:none;stroke-opacity:1" />
    </g>
  </g>
</svg>
