<?xml version="1.0" encoding="UTF-8" standalone="no"?>
<!-- Created with Inkscape (http://www.inkscape.org/) -->

<svg
   xmlns:dc="http://purl.org/dc/elements/1.1/"
   xmlns:cc="http://creativecommons.org/ns#"
   xmlns:rdf="http://www.w3.org/1999/02/22-rdf-syntax-ns#"
   xmlns:svg="http://www.w3.org/2000/svg"
   xmlns="http://www.w3.org/2000/svg"
   xmlns:xlink="http://www.w3.org/1999/xlink"
   xmlns:sodipodi="http://sodipodi.sourceforge.net/DTD/sodipodi-0.dtd"
   xmlns:inkscape="http://www.inkscape.org/namespaces/inkscape"
   width="48"
   height="48"
   viewBox="0 0 48 48"
   version="1.1"
   id="svg8"
   inkscape:version="0.92.1 r"
   sodipodi:docname="user-trash.svg">
  <title
     id="title7895">Antu icon Theme</title>
  <defs
     id="defs2">
    <linearGradient
       inkscape:collect="always"
       id="linearGradient4513">
      <stop
         style="stop-color:#a6a6a6;stop-opacity:0.3019608"
         offset="0"
         id="stop4509" />
      <stop
         style="stop-color:#a6a6a6;stop-opacity:1"
         offset="1"
         id="stop4511" />
    </linearGradient>
    <linearGradient
       gradientUnits="userSpaceOnUse"
       y2="18"
       x2="24"
       y1="44"
       x1="24"
       id="linearGradient4728"
       xlink:href="#linearGradient4569"
       inkscape:collect="always"
       gradientTransform="translate(-2.9130658,259.64999)" />
    <linearGradient
       id="linearGradient4569"
       inkscape:collect="always">
      <stop
         id="stop4565"
         offset="0"
         style="stop-color:#cdcdcd;stop-opacity:1" />
      <stop
         id="stop4567"
         offset="1"
         style="stop-color:#e5e5e5;stop-opacity:1" />
    </linearGradient>
    <linearGradient
       gradientUnits="userSpaceOnUse"
       y2="11"
       x2="22"
       y1="16"
       x1="22"
       id="linearGradient4737"
       xlink:href="#linearGradient4569"
       inkscape:collect="always"
       gradientTransform="translate(-2.9130658,259.64999)" />
    <linearGradient
       gradientUnits="userSpaceOnUse"
       y2="5"
       x2="24"
       y1="10"
       x1="24"
       id="linearGradient4745"
       xlink:href="#linearGradient4560"
       inkscape:collect="always"
       gradientTransform="translate(-2.9130658,259.64999)" />
    <linearGradient
       id="linearGradient4560"
       inkscape:collect="always">
      <stop
         id="stop4556"
         offset="0"
         style="stop-color:#d0d0d0;stop-opacity:1" />
      <stop
         id="stop4558"
         offset="1"
         style="stop-color:#e4e4e4;stop-opacity:1" />
    </linearGradient>
    <linearGradient
       inkscape:collect="always"
       xlink:href="#linearGradient4513"
       id="linearGradient4547"
       x1="24"
       y1="303.64999"
       x2="24"
       y2="296.64999"
       gradientUnits="userSpaceOnUse"
       gradientTransform="translate(0,-266.64999)" />
  </defs>
  <sodipodi:namedview
     id="base"
     pagecolor="#ffffff"
     bordercolor="#666666"
     borderopacity="1.0"
     inkscape:pageopacity="0.0"
     inkscape:pageshadow="2"
     inkscape:zoom="8"
     inkscape:cx="7.9476013"
     inkscape:cy="17.108618"
     inkscape:document-units="px"
     inkscape:current-layer="layer1"
     showgrid="true"
     units="px"
     inkscape:window-width="1366"
     inkscape:window-height="697"
     inkscape:window-x="0"
     inkscape:window-y="0"
     inkscape:window-maximized="1"
     objecttolerance="10"
     gridtolerance="10"
     guidetolerance="10">
    <inkscape:grid
       type="xygrid"
       id="grid7897"
       empspacing="4" />
  </sodipodi:namedview>
  <metadata
     id="metadata5">
    <rdf:RDF>
      <cc:Work
         rdf:about="">
        <dc:format>image/svg+xml</dc:format>
        <dc:type
           rdf:resource="http://purl.org/dc/dcmitype/StillImage" />
        <dc:title>Antu icon Theme</dc:title>
      </cc:Work>
    </rdf:RDF>
  </metadata>
  <g
     inkscape:label="Capa 1"
     inkscape:groupmode="layer"
     id="layer1"
     transform="translate(0,-266.64999)">
    <g
       id="g6935"
       transform="translate(2.9130659,7)">
      <path
         id="rect4627"
         d="m 17.086934,263.64999 c -1.661979,0 -3,1.33803 -3,3 v 3 H 8.0869342 c -1.662,0 -3,1.33803 -3,3 v 1 3 h 2 v 14 10 c 0,2.21601 1.783987,4 3.9999998,4 h 20 c 2.216013,0 4,-1.78399 4,-4 v -22 -2 h 2 v -3 -1 c 0,-1.66197 -1.337999,-3 -3,-3 h -6 v -3 c 0,-1.66197 -1.338021,-3 -3,-3 z m 1,4 h 6 v 2 h -6 z"
         style="opacity:1;fill:#a6a6a6;fill-opacity:1;stroke:none;stroke-width:1.99999988;stroke-linecap:round;stroke-linejoin:round;stroke-miterlimit:4;stroke-dasharray:none;stroke-opacity:1"
         inkscape:connector-curvature="0" />
      <path
         id="rect4639"
         d="m 8.0869342,276.64999 v 4 7 13 c 0,1.66198 1.338021,3 2.9999998,3 h 20 c 1.661979,0 3,-1.33802 3,-3 v -13 -7 -4 z"
         style="opacity:1;fill:url(#linearGradient4728);fill-opacity:1;stroke:none;stroke-width:1.99999988;stroke-linecap:round;stroke-linejoin:round;stroke-miterlimit:4;stroke-dasharray:none;stroke-opacity:1"
         inkscape:connector-curvature="0" />
      <path
         id="rect4643"
         d="m 8.0869342,270.64999 c -1.107975,0 -2,0.89202 -2,2 v 1 2 h 2 25.9999998 2 v -2 -1 c 0,-1.10798 -0.892025,-2 -2,-2 z"
         style="opacity:1;fill:url(#linearGradient4737);fill-opacity:1;stroke:none;stroke-width:1.99999988;stroke-linecap:round;stroke-linejoin:round;stroke-miterlimit:4;stroke-dasharray:none;stroke-opacity:1"
         inkscape:connector-curvature="0" />
      <path
         id="rect4647"
         d="m 17.086934,264.64999 c -1.108026,0 -2,0.89197 -2,2 v 1 2 h 2 v -3 h 8 v 3 h 2 v -2 -1 c 0,-1.10803 -0.891974,-2 -2,-2 z"
         style="opacity:1;fill:url(#linearGradient4745);fill-opacity:1;stroke:none;stroke-width:1.99999988;stroke-linecap:round;stroke-linejoin:round;stroke-miterlimit:4;stroke-dasharray:none;stroke-opacity:1"
         inkscape:connector-curvature="0" />
    </g>
    <g
       id="g4594">
      <path
         style="opacity:1;fill:url(#linearGradient4547);fill-opacity:1;stroke:none;stroke-width:2;stroke-linecap:round;stroke-linejoin:round;stroke-miterlimit:4;stroke-dasharray:none;stroke-opacity:1"
         d="M 17.5 21 C 16.669 21 16 21.669 16 22.5 L 16 37.5 C 16 38.331 16.669 39 17.5 39 C 18.331 39 19 38.331 19 37.5 L 19 22.5 C 19 21.669 18.331 21 17.5 21 z M 23.5 21 C 22.669 21 22 21.669 22 22.5 L 22 37.5 C 22 38.331 22.669 39 23.5 39 C 24.331 39 25 38.331 25 37.5 L 25 22.5 C 25 21.669 24.331 21 23.5 21 z M 29.5 21 C 28.669 21 28 21.669 28 22.5 L 28 37.5 C 28 38.331 28.669 39 29.5 39 C 30.331 39 31 38.331 31 37.5 L 31 22.5 C 31 21.669 30.331 21 29.5 21 z "
         transform="translate(0,266.64999)"
         id="rect4510" />
    </g>
  </g>
</svg>
