<?xml version="1.0" encoding="UTF-8" standalone="no"?>
<!-- Created with Inkscape (http://www.inkscape.org/) -->

<svg
   xmlns:dc="http://purl.org/dc/elements/1.1/"
   xmlns:cc="http://creativecommons.org/ns#"
   xmlns:rdf="http://www.w3.org/1999/02/22-rdf-syntax-ns#"
   xmlns:svg="http://www.w3.org/2000/svg"
   xmlns="http://www.w3.org/2000/svg"
   xmlns:xlink="http://www.w3.org/1999/xlink"
   xmlns:sodipodi="http://sodipodi.sourceforge.net/DTD/sodipodi-0.dtd"
   xmlns:inkscape="http://www.inkscape.org/namespaces/inkscape"
   width="48"
   height="48"
   viewBox="0 0 48 48"
   version="1.1"
   id="svg8"
   inkscape:version="0.92.2 2405546, 2018-03-11"
   sodipodi:docname="48px.svg">
  <title
     id="title7895">Antu icon Theme</title>
  <defs
     id="defs2">
    <linearGradient
       inkscape:collect="always"
       xlink:href="#linearGradient4846"
       id="linearGradient985"
       x1="48"
       y1="313.64999"
       x2="48"
       y2="275.64999"
       gradientUnits="userSpaceOnUse"
       gradientTransform="matrix(0.95238095,0,0,0.95238095,-57.714286,-1.96904)" />
    <linearGradient
       id="linearGradient4846"
       inkscape:collect="always">
      <stop
         id="stop4842"
         offset="0"
         style="stop-color:#e4efef;stop-opacity:1" />
      <stop
         id="stop4844"
         offset="1"
         style="stop-color:#fcfcfc;stop-opacity:1" />
    </linearGradient>
    <linearGradient
       inkscape:collect="always"
       xlink:href="#linearGradient4902"
       id="linearGradient3248"
       x1="-19"
       y1="312.64999"
       x2="-19"
       y2="300.64999"
       gradientUnits="userSpaceOnUse"
       gradientTransform="translate(-11,-28.00002)" />
    <linearGradient
       id="linearGradient4902"
       inkscape:collect="always">
      <stop
         id="stop4898"
         offset="0"
         style="stop-color:#0d72ec;stop-opacity:1" />
      <stop
         id="stop4900"
         offset="1"
         style="stop-color:#36b2fb;stop-opacity:1" />
    </linearGradient>
    <linearGradient
       inkscape:collect="always"
       xlink:href="#linearGradient1078"
       id="linearGradient3248-1"
       x1="-19"
       y1="312.64999"
       x2="-19"
       y2="300.64999"
       gradientUnits="userSpaceOnUse"
       gradientTransform="translate(6,-28.00003)" />
    <linearGradient
       id="linearGradient1078"
       inkscape:collect="always">
      <stop
         id="stop1074"
         offset="0"
         style="stop-color:#de3f33;stop-opacity:1" />
      <stop
         id="stop1076"
         offset="1"
         style="stop-color:#f26156;stop-opacity:1" />
    </linearGradient>
    <linearGradient
       inkscape:collect="always"
       xlink:href="#linearGradient4619"
       id="linearGradient3248-1-9"
       x1="-19"
       y1="312.64999"
       x2="-19"
       y2="300.64999"
       gradientUnits="userSpaceOnUse"
       gradientTransform="translate(23,-28.00004)" />
    <linearGradient
       inkscape:collect="always"
       id="linearGradient4619">
      <stop
         style="stop-color:#67d924;stop-opacity:1"
         offset="0"
         id="stop4615" />
      <stop
         style="stop-color:#a3eb1e;stop-opacity:1"
         offset="1"
         id="stop4617" />
    </linearGradient>
  </defs>
  <sodipodi:namedview
     id="base"
     pagecolor="#ffffff"
     bordercolor="#666666"
     borderopacity="1.0"
     inkscape:pageopacity="0.0"
     inkscape:pageshadow="2"
     inkscape:zoom="5.6568544"
     inkscape:cx="-9.7905113"
     inkscape:cy="38.487199"
     inkscape:document-units="px"
     inkscape:current-layer="layer1"
     showgrid="true"
     units="px"
     inkscape:window-width="1360"
     inkscape:window-height="711"
     inkscape:window-x="0"
     inkscape:window-y="28"
     inkscape:window-maximized="1"
     objecttolerance="10"
     gridtolerance="10"
     guidetolerance="10"
     inkscape:snap-bbox="true"
     inkscape:bbox-paths="true"
     inkscape:bbox-nodes="true"
     inkscape:snap-bbox-edge-midpoints="true"
     inkscape:snap-bbox-midpoints="true"
     inkscape:object-paths="true"
     inkscape:snap-intersection-paths="true">
    <inkscape:grid
       type="xygrid"
       id="grid7897"
       empspacing="4" />
  </sodipodi:namedview>
  <metadata
     id="metadata5">
    <rdf:RDF>
      <cc:Work
         rdf:about="">
        <dc:format>image/svg+xml</dc:format>
        <dc:type
           rdf:resource="http://purl.org/dc/dcmitype/StillImage" />
        <dc:title>Antu icon Theme</dc:title>
      </cc:Work>
    </rdf:RDF>
  </metadata>
  <g
     inkscape:label="Capa 1"
     inkscape:groupmode="layer"
     id="layer1"
     transform="translate(0,-266.64999)">
    <g
       id="g3976"
       transform="translate(36,12)">
      <path
         inkscape:connector-curvature="0"
         style="opacity:1;fill:#90a4ae;fill-opacity:1;stroke:none;stroke-width:3.70869064;stroke-linecap:round;stroke-linejoin:round;stroke-miterlimit:4;stroke-dasharray:none;stroke-opacity:1"
         d="M -30.136364,257.64999 H 6.136364 C 7.722818,257.64999 9,258.92717 9,260.51363 v 36.27272 c 0,1.58646 -1.277182,2.86364 -2.863636,2.86364 H -30.136364 C -31.722818,299.64999 -33,298.37281 -33,296.78635 v -36.27272 c 0,-1.58646 1.277182,-2.86364 2.863636,-2.86364 z"
         id="rect854" />
      <path
         inkscape:connector-curvature="0"
         style="opacity:1;fill:url(#linearGradient985);fill-opacity:1;stroke:none;stroke-width:3.53208637;stroke-linecap:round;stroke-linejoin:round;stroke-miterlimit:4;stroke-dasharray:none;stroke-opacity:1"
         d="M -30.095238,258.64999 H 6.095238 C 7.150476,258.64999 8,259.49951 8,260.55475 v 36.19048 c 0,1.05524 -0.849524,1.90476 -1.904762,1.90476 H -30.095238 C -31.150476,298.64999 -32,297.80047 -32,296.74523 v -36.19048 c 0,-1.05524 0.849524,-1.90476 1.904762,-1.90476 z"
         id="rect854-2" />
      <path
         id="rect3204"
         d="m -29,271.65 c 3.878,0 7,3.122 7,7 0,3.878 -3.122,7 -7,7 -3.878,0 -7,-3.122 -7,-7 0,-3.878 3.122,-7 7,-7 z"
         style="opacity:1;vector-effect:none;fill:#0a5dbf;fill-opacity:1;stroke:none;stroke-width:2.16024685;stroke-linecap:round;stroke-linejoin:round;stroke-miterlimit:4;stroke-dasharray:none;stroke-dashoffset:0;stroke-opacity:1"
         inkscape:connector-curvature="0" />
      <path
         id="rect3204-9"
         d="m 5,271.65 c 3.878,0 7,3.122 7,7 0,3.878 -3.122,7 -7,7 -3.878,0 -7,-3.122 -7,-7 0,-3.878 3.122,-7 7,-7 z"
         style="opacity:1;vector-effect:none;fill:#56b21d;fill-opacity:1;stroke:none;stroke-width:2.16024685;stroke-linecap:round;stroke-linejoin:round;stroke-miterlimit:4;stroke-dasharray:none;stroke-dashoffset:0;stroke-opacity:1"
         inkscape:connector-curvature="0" />
      <path
         id="rect3204-4"
         d="m -12,271.65 c 3.878,0 7,3.122 7,7 0,3.878 -3.122,7 -7,7 -3.878,0 -7,-3.122 -7,-7 0,-3.878 3.122,-7 7,-7 z"
         style="opacity:1;vector-effect:none;fill:#b22c2c;fill-opacity:1;stroke:none;stroke-width:2.16024685;stroke-linecap:round;stroke-linejoin:round;stroke-miterlimit:4;stroke-dasharray:none;stroke-dashoffset:0;stroke-opacity:1"
         inkscape:connector-curvature="0" />
      <path
         id="rect3204-8"
         d="m -29,272.65 c 3.324,0 6,2.676 6,6 0,3.324 -2.676,6 -6,6 -3.324,0 -6,-2.676 -6,-6 0,-3.324 2.676,-6 6,-6 z"
         style="opacity:1;vector-effect:none;fill:url(#linearGradient3248);fill-opacity:1;stroke:none;stroke-width:1.85164011;stroke-linecap:round;stroke-linejoin:round;stroke-miterlimit:4;stroke-dasharray:none;stroke-dashoffset:0;stroke-opacity:1"
         inkscape:connector-curvature="0" />
      <path
         id="rect3204-8-3"
         d="m -12,272.65 c 3.324,0 6,2.676 6,6 0,3.324 -2.676,6 -6,6 -3.324,0 -6,-2.676 -6,-6 0,-3.324 2.676,-6 6,-6 z"
         style="opacity:1;vector-effect:none;fill:url(#linearGradient3248-1);fill-opacity:1;stroke:none;stroke-width:1.85164011;stroke-linecap:round;stroke-linejoin:round;stroke-miterlimit:4;stroke-dasharray:none;stroke-dashoffset:0;stroke-opacity:1"
         inkscape:connector-curvature="0" />
      <path
         id="rect3204-8-3-8"
         d="m 5,272.65 c 3.324,0 6,2.676 6,6 0,3.324 -2.676,6 -6,6 -3.324,0 -6,-2.676 -6,-6 0,-3.324 2.676,-6 6,-6 z"
         style="opacity:1;vector-effect:none;fill:url(#linearGradient3248-1-9);fill-opacity:1;stroke:none;stroke-width:1.85164011;stroke-linecap:round;stroke-linejoin:round;stroke-miterlimit:4;stroke-dasharray:none;stroke-dashoffset:0;stroke-opacity:1"
         inkscape:connector-curvature="0" />
    </g>
  </g>
</svg>
