<?xml version="1.0" encoding="UTF-8" standalone="no"?>
<!-- Created with Inkscape (http://www.inkscape.org/) -->

<svg
   xmlns:dc="http://purl.org/dc/elements/1.1/"
   xmlns:cc="http://creativecommons.org/ns#"
   xmlns:rdf="http://www.w3.org/1999/02/22-rdf-syntax-ns#"
   xmlns:svg="http://www.w3.org/2000/svg"
   xmlns="http://www.w3.org/2000/svg"
   xmlns:xlink="http://www.w3.org/1999/xlink"
   xmlns:sodipodi="http://sodipodi.sourceforge.net/DTD/sodipodi-0.dtd"
   xmlns:inkscape="http://www.inkscape.org/namespaces/inkscape"
   width="48"
   height="48"
   viewBox="0 0 12.7 12.7"
   version="1.1"
   id="svg1399"
   inkscape:version="0.92.4 5da689c313, 2019-01-14"
   sodipodi:docname="preferences-desktop-effects.svg">
  <defs
     id="defs1393">
    <linearGradient
       inkscape:collect="always"
       xlink:href="#linearGradient4902"
       id="linearGradient869"
       x1="-5.1574335"
       y1="300.81903"
       x2="-4.916472"
       y2="290.25931"
       gradientUnits="userSpaceOnUse" />
    <linearGradient
       inkscape:collect="always"
       id="linearGradient4902">
      <stop
         style="stop-color:#0d72ec;stop-opacity:1"
         offset="0"
         id="stop4898" />
      <stop
         style="stop-color:#36b2fb;stop-opacity:1"
         offset="1"
         id="stop4900" />
    </linearGradient>
  </defs>
  <sodipodi:namedview
     id="base"
     pagecolor="#ffffff"
     bordercolor="#666666"
     borderopacity="1.0"
     inkscape:pageopacity="0.0"
     inkscape:pageshadow="2"
     inkscape:zoom="7.9195959"
     inkscape:cx="-15.98796"
     inkscape:cy="-0.67020984"
     inkscape:document-units="mm"
     inkscape:current-layer="layer1"
     showgrid="false"
     inkscape:showpageshadow="false"
     units="px"
     inkscape:window-width="1920"
     inkscape:window-height="999"
     inkscape:window-x="0"
     inkscape:window-y="0"
     inkscape:window-maximized="1" />
  <metadata
     id="metadata1396">
    <rdf:RDF>
      <cc:Work
         rdf:about="">
        <dc:format>image/svg+xml</dc:format>
        <dc:type
           rdf:resource="http://purl.org/dc/dcmitype/StillImage" />
        <dc:title></dc:title>
      </cc:Work>
    </rdf:RDF>
  </metadata>
  <g
     inkscape:label="Capa 1"
     inkscape:groupmode="layer"
     id="layer1"
     transform="translate(0,-284.30005)">
    <g
       id="g1483"
       transform="translate(10.526086,-5.4145566)">
      <g
         transform="translate(0.80180836,0.33409165)"
         id="g1548">
        <path
           sodipodi:nodetypes="sccssssssss"
           inkscape:connector-curvature="0"
           id="rect9183-4-4"
           d="m -10.798726,290.17427 h 4.7560905 1.3293299 5.55625012 c 0.29314998,0 0.52916098,0.236 0.52916098,0.52916 v 10.05416 c 0,0.29316 -0.236011,0.52917 -0.52917098,0.52917 H -10.798726 c -0.29316,0 -0.529169,-0.23601 -0.529169,-0.52917 v -10.05416 c 0,-0.29316 0.236009,-0.52916 0.529169,-0.52916 z"
           style="opacity:1;fill:#0a5dbf;fill-opacity:1;stroke:none;stroke-width:0.26458332;stroke-opacity:1" />
        <path
           sodipodi:nodetypes="csccssccc"
           id="rect9179-4-3"
           d="m -10.798727,290.43885 c -0.146581,-7.9e-4 -0.264584,0.11801 -0.264584,0.26458 l -10e-7,8.73125 H 1.1075215 l 2e-6,-8.73125 c 0,-0.14657 -0.11800498,-0.26458 -0.26458498,-0.26458 H -4.9778944 -6.0362275 Z"
           style="opacity:0.98999999;fill:url(#linearGradient869);fill-opacity:1;stroke:none;stroke-width:0.26458332;stroke-opacity:1"
           inkscape:connector-curvature="0" />
        <path
           id="rect4523"
           d="m -11.063312,299.43468 v 0.52917 0.52916 0.26459 c 0,0.14658 0.118005,0.26458 0.264584,0.26458 H 0.84293852 c 0.14658,0 0.26458298,-0.118 0.26458298,-0.26458 v -0.26459 -0.52916 -0.52917 H 0.84293852 -10.798728 Z"
           style="opacity:0.98999999;fill:#e6eef8;fill-opacity:1;stroke:none;stroke-width:0.07937501;stroke-miterlimit:4;stroke-dasharray:none;stroke-opacity:1"
           inkscape:connector-curvature="0"
           sodipodi:nodetypes="cccsssscccccc" />
        <path
           inkscape:connector-curvature="0"
           style="opacity:1;fill:#0b63cc;fill-opacity:1;stroke:none;stroke-width:1.05833328;stroke-linecap:round;stroke-linejoin:round;stroke-miterlimit:4;stroke-dasharray:none;stroke-opacity:1"
           d="m -4.8228663,291.4972 a 0.26460979,0.26460979 0 0 0 -0.1829345,0.0775 c -1.0925503,1.09255 -1.3801883,2.46188 -1.3942306,3.7884 l -1.2676226,1.52084 a 0.26460979,0.26460979 0 0 0 -0.03359,0.28784 l 0.5291667,1.05833 a 0.26460979,0.26460979 0 0 0 0.236678,0.14624 h 0.9167399 l 0.4506185,0.67593 a 0.26460979,0.26460979 0 0 0 0.2201416,0.11782 h 1.0583333 a 0.26460979,0.26460979 0 0 0 0.2201415,-0.11782 l 0.450619,-0.67592 h 0.9167398 a 0.26460979,0.26460979 0 0 0 0.2366782,-0.14624 l 0.5291667,-1.05833 a 0.26460979,0.26460979 0 0 0 -0.03359,-0.28784 l -1.2676227,-1.52084 c -0.014041,-1.32652 -0.3016801,-2.69585 -1.3942304,-3.7884 a 0.26460979,0.26460979 0 0 0 -0.1912027,-0.0775 z m 0.00414,2.38125 c 0.4397372,0 0.79375,0.35401 0.79375,0.79375 0,0.43974 -0.3540128,0.79375 -0.79375,0.79375 -0.439737,0 -0.79375,-0.35401 -0.79375,-0.79375 0,-0.43974 0.354013,-0.79375 0.79375,-0.79375 z m -3.7083018,0.26458 c -0.14658,0 -0.264584,0.118 -0.264584,0.26458 0,0.14658 0.118004,0.26459 0.264584,0.26459 0.1465788,0 0.2645829,-0.11801 0.2645829,-0.26459 0,-0.14658 -0.1180041,-0.26458 -0.2645829,-0.26458 z m 7.4083335,0 c -0.1465789,0 -0.2645838,0.118 -0.2645838,0.26458 0,0.14659 0.1180049,0.26459 0.2645838,0.26459 0.1465792,0 0.2645831,-0.118 0.2645831,-0.26459 0,-0.14658 -0.1180039,-0.26458 -0.2645831,-0.26458 z m -8.4666672,0.52917 c -0.146579,0 -0.264583,0.11801 -0.264583,0.26458 0,0.14658 0.118004,0.26458 0.264583,0.26458 0.1465787,0 0.2645837,-0.118 0.2645837,-0.26458 0,-0.14657 -0.118005,-0.26458 -0.2645837,-0.26458 z m 9.52500029,0 c -0.1465789,0 -0.2645831,0.118 -0.2645831,0.26458 0,0.14658 0.1180042,0.26458 0.2645831,0.26458 0.1465789,0 0.2645831,-0.118 0.2645831,-0.26458 0,-0.14658 -0.1180042,-0.26458 -0.2645831,-0.26458 z m -8.46666659,0.52916 c -0.14658,0 -0.264584,0.11801 -0.264584,0.26459 0,0.14658 0.118004,0.26458 0.264584,0.26458 0.1465788,0 0.2645829,-0.118 0.2645829,-0.26458 0,-0.14658 -0.1180041,-0.26459 -0.2645829,-0.26459 z m 7.4083335,0 c -0.1465789,0 -0.2645838,0.11801 -0.2645838,0.26459 0,0.14658 0.1180049,0.26458 0.2645838,0.26458 0.1465792,0 0.2645831,-0.118 0.2645831,-0.26458 0,-0.14658 -0.1180039,-0.26459 -0.2645831,-0.26459 z m -8.4666672,0.52917 c -0.146579,0 -0.264583,0.11801 -0.264583,0.26458 0,0.14659 0.118004,0.26459 0.264583,0.26459 0.1465787,0 0.2645837,-0.118 0.2645837,-0.26459 0,-0.14657 -0.118005,-0.26458 -0.2645837,-0.26458 z m 9.52500029,0 c -0.1465789,0 -0.2645831,0.118 -0.2645831,0.26458 0,0.14659 0.1180042,0.26459 0.2645831,0.26459 0.1465789,0 0.2645831,-0.118 0.2645831,-0.26459 0,-0.14658 -0.1180042,-0.26458 -0.2645831,-0.26458 z m -8.46666659,0.52917 c -0.14658,0 -0.264584,0.118 -0.264584,0.26458 0,0.14658 0.118004,0.26458 0.264584,0.26458 0.1465788,0 0.2645829,-0.118 0.2645829,-0.26458 0,-0.14658 -0.1180041,-0.26458 -0.2645829,-0.26458 z m 7.4083335,0 c -0.1465789,0 -0.2645838,0.118 -0.2645838,0.26458 0,0.14658 0.1180049,0.26458 0.2645838,0.26458 0.1465792,0 0.2645831,-0.118 0.2645831,-0.26458 0,-0.14658 -0.1180039,-0.26458 -0.2645831,-0.26458 z m -8.4666672,0.52916 c -0.146579,0 -0.264583,0.11801 -0.264583,0.26459 0,0.14657 0.118004,0.26458 0.264583,0.26458 0.1465787,0 0.2645837,-0.11801 0.2645837,-0.26458 0,-0.14658 -0.118005,-0.26459 -0.2645837,-0.26459 z m 9.52500029,0 c -0.1465789,0 -0.2645831,0.11801 -0.2645831,0.26459 0,0.14658 0.1180042,0.26458 0.2645831,0.26458 0.1465789,0 0.2645831,-0.118 0.2645831,-0.26458 0,-0.14658 -0.1180042,-0.26459 -0.2645831,-0.26459 z m -8.46666659,0.52917 c -0.14658,0 -0.264584,0.11801 -0.264584,0.26458 0,0.14659 0.118004,0.26459 0.264584,0.26459 0.1465788,0 0.2645829,-0.118 0.2645829,-0.26459 0,-0.14657 -0.1180041,-0.26458 -0.2645829,-0.26458 z m 7.4083335,0 c -0.1465789,0 -0.2645838,0.118 -0.2645838,0.26458 0,0.14659 0.1180049,0.26459 0.2645838,0.26459 0.1465792,0 0.2645831,-0.118 0.2645831,-0.26459 0,-0.14658 -0.1180039,-0.26458 -0.2645831,-0.26458 z"
           id="rect918-3" />
        <path
           inkscape:connector-curvature="0"
           style="opacity:1;fill:#e6eef8;fill-opacity:1;stroke:none;stroke-width:1.05833328;stroke-linecap:round;stroke-linejoin:round;stroke-miterlimit:4;stroke-dasharray:none;stroke-opacity:1"
           d="m -4.8228663,291.2326 a 0.26460979,0.26460979 0 0 0 -0.1829345,0.0775 c -1.0925503,1.09255 -1.3801882,2.46188 -1.3942304,3.7884 l -1.2676227,1.52084 a 0.26460979,0.26460979 0 0 0 -0.03359,0.28784 l 0.5291666,1.05833 a 0.26460979,0.26460979 0 0 0 0.236678,0.14624 h 0.91674 l 0.4506185,0.67593 a 0.26460979,0.26460979 0 0 0 0.2201415,0.11782 h 1.0583333 a 0.26460979,0.26460979 0 0 0 0.2201416,-0.11782 l 0.4506189,-0.67592 h 0.9167399 a 0.26460979,0.26460979 0 0 0 0.236678,-0.14624 l 0.5291667,-1.05833 a 0.26460979,0.26460979 0 0 0 -0.03359,-0.28784 l -1.2676228,-1.52084 c -0.014041,-1.32652 -0.30168,-2.69585 -1.3942303,-3.7884 a 0.26460979,0.26460979 0 0 0 -0.1912027,-0.0775 z m 0.00414,2.38125 c 0.4397372,0 0.79375,0.35401 0.79375,0.79375 0,0.43974 -0.3540128,0.79375 -0.79375,0.79375 -0.439737,0 -0.79375,-0.35401 -0.79375,-0.79375 0,-0.43974 0.354013,-0.79375 0.79375,-0.79375 z m -3.7083021,0.26458 c -0.1465794,0 -0.2645833,0.118 -0.2645833,0.26458 0,0.14658 0.1180039,0.26459 0.2645833,0.26459 0.1465792,0 0.2645833,-0.11801 0.2645833,-0.26459 0,-0.14658 -0.1180041,-0.26458 -0.2645833,-0.26458 z m 7.4083339,0 c -0.146579,0 -0.2645839,0.118 -0.2645839,0.26458 0,0.14659 0.1180049,0.26459 0.2645839,0.26459 0.14657902,0 0.26458302,-0.118 0.26458302,-0.26459 0,-0.14658 -0.118004,-0.26458 -0.26458302,-0.26458 z m -8.4666672,0.52917 c -0.1465791,0 -0.2645833,0.11801 -0.2645833,0.26458 0,0.14658 0.1180042,0.26458 0.2645833,0.26458 0.1465792,0 0.2645834,-0.118 0.2645834,-0.26458 0,-0.14657 -0.1180042,-0.26458 -0.2645834,-0.26458 z m 9.52500022,0 c -0.146579,0 -0.264583,0.118 -0.264583,0.26458 0,0.14658 0.118004,0.26458 0.264583,0.26458 0.146579,0 0.264583,-0.118 0.264583,-0.26458 0,-0.14658 -0.118004,-0.26458 -0.264583,-0.26458 z m -8.46666692,0.52916 c -0.1465794,0 -0.2645833,0.11801 -0.2645833,0.26459 0,0.14658 0.1180039,0.26458 0.2645833,0.26458 0.1465792,0 0.2645833,-0.118 0.2645833,-0.26458 0,-0.14658 -0.1180041,-0.26459 -0.2645833,-0.26459 z m 7.4083339,0 c -0.146579,0 -0.2645839,0.11801 -0.2645839,0.26459 0,0.14658 0.1180049,0.26458 0.2645839,0.26458 0.14657902,0 0.26458302,-0.118 0.26458302,-0.26458 0,-0.14658 -0.118004,-0.26459 -0.26458302,-0.26459 z m -8.4666672,0.52917 c -0.1465791,0 -0.2645833,0.11801 -0.2645833,0.26458 0,0.14659 0.1180042,0.26459 0.2645833,0.26459 0.1465792,0 0.2645834,-0.118 0.2645834,-0.26459 0,-0.14657 -0.1180042,-0.26458 -0.2645834,-0.26458 z m 9.52500022,0 c -0.146579,0 -0.264583,0.118 -0.264583,0.26458 0,0.14659 0.118004,0.26459 0.264583,0.26459 0.146579,0 0.264583,-0.118 0.264583,-0.26459 0,-0.14658 -0.118004,-0.26458 -0.264583,-0.26458 z m -8.46666692,0.52917 c -0.1465794,0 -0.2645833,0.118 -0.2645833,0.26458 0,0.14658 0.1180039,0.26458 0.2645833,0.26458 0.1465792,0 0.2645833,-0.118 0.2645833,-0.26458 0,-0.14658 -0.1180041,-0.26458 -0.2645833,-0.26458 z m 7.4083339,0 c -0.146579,0 -0.2645839,0.118 -0.2645839,0.26458 0,0.14658 0.1180049,0.26458 0.2645839,0.26458 0.14657902,0 0.26458302,-0.118 0.26458302,-0.26458 0,-0.14658 -0.118004,-0.26458 -0.26458302,-0.26458 z m -8.4666672,0.52916 c -0.1465791,0 -0.2645833,0.11801 -0.2645833,0.26459 0,0.14657 0.1180042,0.26458 0.2645833,0.26458 0.1465792,0 0.2645834,-0.11801 0.2645834,-0.26458 0,-0.14658 -0.1180042,-0.26459 -0.2645834,-0.26459 z m 9.52500022,0 c -0.146579,0 -0.264583,0.11801 -0.264583,0.26459 0,0.14658 0.118004,0.26458 0.264583,0.26458 0.146579,0 0.264583,-0.118 0.264583,-0.26458 0,-0.14658 -0.118004,-0.26459 -0.264583,-0.26459 z m -8.46666692,0.52917 c -0.1465794,0 -0.2645833,0.11801 -0.2645833,0.26458 0,0.14659 0.1180039,0.26459 0.2645833,0.26459 0.1465792,0 0.2645833,-0.118 0.2645833,-0.26459 0,-0.14657 -0.1180041,-0.26458 -0.2645833,-0.26458 z m 7.4083339,0 c -0.146579,0 -0.2645839,0.118 -0.2645839,0.26458 0,0.14659 0.1180049,0.26459 0.2645839,0.26459 0.14657902,0 0.26458302,-0.118 0.26458302,-0.26459 0,-0.14658 -0.118004,-0.26458 -0.26458302,-0.26458 z"
           id="rect918" />
      </g>
    </g>
  </g>
</svg>
