<?xml version="1.0" encoding="UTF-8" standalone="no"?>
<!-- Created with Inkscape (http://www.inkscape.org/) -->

<svg
   xmlns:dc="http://purl.org/dc/elements/1.1/"
   xmlns:cc="http://creativecommons.org/ns#"
   xmlns:rdf="http://www.w3.org/1999/02/22-rdf-syntax-ns#"
   xmlns:svg="http://www.w3.org/2000/svg"
   xmlns="http://www.w3.org/2000/svg"
   xmlns:xlink="http://www.w3.org/1999/xlink"
   xmlns:sodipodi="http://sodipodi.sourceforge.net/DTD/sodipodi-0.dtd"
   xmlns:inkscape="http://www.inkscape.org/namespaces/inkscape"
   width="48"
   height="48"
   viewBox="0 0 48 48"
   version="1.1"
   id="svg8"
   inkscape:version="0.92.2 2405546, 2018-03-11"
   sodipodi:docname="preferences-system-time.svg">
  <title
     id="title7895">Antu icon Theme</title>
  <defs
     id="defs2">
    <linearGradient
       inkscape:collect="always"
       id="linearGradient4846">
      <stop
         style="stop-color:#e4efef;stop-opacity:1"
         offset="0"
         id="stop4842" />
      <stop
         style="stop-color:#fcfcfc;stop-opacity:1"
         offset="1"
         id="stop4844" />
    </linearGradient>
    <linearGradient
       inkscape:collect="always"
       id="linearGradient4564">
      <stop
         style="stop-color:#ef0b2c;stop-opacity:1"
         offset="0"
         id="stop4560" />
      <stop
         style="stop-color:#fc3a56;stop-opacity:1"
         offset="1"
         id="stop4562" />
    </linearGradient>
    <linearGradient
       inkscape:collect="always"
       id="linearGradient4506">
      <stop
         style="stop-color:#252a34;stop-opacity:1"
         offset="0"
         id="stop4502" />
      <stop
         style="stop-color:#353d4b;stop-opacity:1"
         offset="1"
         id="stop4504" />
    </linearGradient>
    <linearGradient
       gradientUnits="userSpaceOnUse"
       y2="290.5177"
       x2="2.8064666"
       y1="297.39685"
       x1="2.8064666"
       id="linearGradient4508"
       xlink:href="#linearGradient4506"
       inkscape:collect="always"
       gradientTransform="matrix(3.7795275,0,0,3.7795275,5.392882,-812.36957)" />
    <linearGradient
       gradientUnits="userSpaceOnUse"
       y2="290.5177"
       x2="2.8064666"
       y1="297.39685"
       x1="2.8064666"
       id="linearGradient4508-9"
       xlink:href="#linearGradient4846"
       inkscape:collect="always"
       gradientTransform="matrix(3.2395877,0,0,3.2395877,6.908205,-653.65036)" />
    <linearGradient
       gradientTransform="matrix(3.7795275,0,0,3.7795275,-33.928569,-798.58391)"
       gradientUnits="userSpaceOnUse"
       y2="288.98691"
       x2="8.7123508"
       y1="294.54315"
       x1="8.7123508"
       id="linearGradient852"
       xlink:href="#linearGradient4846"
       inkscape:collect="always" />
    <linearGradient
       gradientTransform="translate(18,-288.64999)"
       gradientUnits="userSpaceOnUse"
       y2="290.64999"
       x2="-2"
       y1="298.64999"
       x1="-2"
       id="linearGradient890"
       xlink:href="#linearGradient4564"
       inkscape:collect="always" />
  </defs>
  <sodipodi:namedview
     id="base"
     pagecolor="#ffffff"
     bordercolor="#666666"
     borderopacity="1.0"
     inkscape:pageopacity="0.0"
     inkscape:pageshadow="2"
     inkscape:zoom="4.0000001"
     inkscape:cx="12.845614"
     inkscape:cy="5.8826337"
     inkscape:document-units="px"
     inkscape:current-layer="layer1"
     showgrid="true"
     units="px"
     inkscape:window-width="1360"
     inkscape:window-height="711"
     inkscape:window-x="0"
     inkscape:window-y="28"
     inkscape:window-maximized="1"
     objecttolerance="10"
     gridtolerance="10"
     guidetolerance="10"
     inkscape:snap-bbox="true"
     inkscape:bbox-paths="true"
     inkscape:bbox-nodes="true"
     inkscape:snap-bbox-edge-midpoints="true"
     inkscape:snap-bbox-midpoints="true"
     inkscape:object-paths="true"
     inkscape:snap-intersection-paths="true">
    <inkscape:grid
       type="xygrid"
       id="grid7897"
       empspacing="4" />
  </sodipodi:namedview>
  <metadata
     id="metadata5">
    <rdf:RDF>
      <cc:Work
         rdf:about="">
        <dc:format>image/svg+xml</dc:format>
        <dc:type
           rdf:resource="http://purl.org/dc/dcmitype/StillImage" />
        <dc:title>Antu icon Theme</dc:title>
      </cc:Work>
    </rdf:RDF>
  </metadata>
  <g
     inkscape:label="Capa 1"
     inkscape:groupmode="layer"
     id="layer1"
     transform="translate(0,-266.64999)">
    <g
       transform="translate(1,-15)"
       id="layer1-9"
       inkscape:label="Capa 1">
      <g
         transform="translate(18,-6)"
         id="g2981">
        <path
           id="rect843"
           d="m -15,289.64999 h 26 c 1.108,0 2,0.892 2,2 v 26 c 0,1.108 -0.892,2 -2,2 h -26 c -1.108,0 -2,-0.892 -2,-2 v -26 c 0,-1.108 0.892,-2 2,-2 z"
           style="opacity:1;fill:#90a4ae;fill-opacity:1;stroke:none;stroke-width:2.39314151;stroke-linecap:round;stroke-linejoin:round;stroke-miterlimit:4;stroke-dasharray:none;stroke-opacity:1"
           inkscape:connector-curvature="0" />
        <path
           id="rect843-3"
           d="m -15,290.64999 h 26 c 0.553999,0 1,0.446 1,1 v 26 c 0,0.554 -0.446001,1 -1,1 h -26 c -0.554,0 -1,-0.446 -1,-1 v -26 c 0,-0.554 0.446,-1 1,-1 z"
           style="opacity:1;fill:url(#linearGradient852);fill-opacity:1;stroke:none;stroke-width:2.23359871;stroke-linecap:round;stroke-linejoin:round;stroke-miterlimit:4;stroke-dasharray:none;stroke-opacity:1"
           inkscape:connector-curvature="0" />
        <path
           sodipodi:nodetypes="ssccccccccsss"
           inkscape:connector-curvature="0"
           id="rect875"
           transform="translate(-18,288.64999)"
           d="M 3,1 C 1.8920022,1 1,1.8920022 1,3 v 3 2 2 h 2 26 2 V 8 6 3 C 31,1.8920022 30.107998,1 29,1 Z"
           style="opacity:0.98000004;fill:#bd0420;fill-opacity:1;stroke:none;stroke-width:2;stroke-linecap:round;stroke-linejoin:round;stroke-miterlimit:4;stroke-dasharray:none;stroke-dashoffset:0;stroke-opacity:1" />
        <path
           sodipodi:nodetypes="ssccccccccsss"
           inkscape:connector-curvature="0"
           id="rect882"
           transform="translate(-18,288.64999)"
           d="M 3,2 C 2.4460021,2 2,2.4460021 2,3 v 3 2 1 h 1 26 1 V 8 6 3 C 30,2.4460021 29.553998,2 29,2 Z"
           style="opacity:0.98000004;fill:url(#linearGradient890);fill-opacity:1;stroke:none;stroke-width:2;stroke-linecap:round;stroke-linejoin:round;stroke-miterlimit:4;stroke-dasharray:none;stroke-dashoffset:0;stroke-opacity:1" />
      </g>
    </g>
    <g
       transform="translate(15,-1)"
       id="layer1-8"
       inkscape:label="Capa 1">
      <g
         id="g6308">
        <path
           inkscape:connector-curvature="0"
           style="fill:#1f1f26;fill-opacity:1;stroke:none;stroke-width:1.46965909;stroke-linecap:round;stroke-linejoin:round;stroke-miterlimit:4;stroke-dasharray:none;stroke-opacity:1"
           d="m 16,283.65003 c 8.31,0 15,6.68984 15,14.99992 0,8.30994 -6.69,15 -15,15 -8.309999,0 -15,-6.69006 -15,-15 0,-8.31008 6.690001,-14.99992 15,-14.99992 z"
           id="rect4496" />
        <path
           inkscape:connector-curvature="0"
           style="fill:url(#linearGradient4508);fill-opacity:1;stroke:none;stroke-width:1.40220487;stroke-linecap:round;stroke-linejoin:round;stroke-miterlimit:4;stroke-dasharray:none;stroke-opacity:1"
           d="M 16.000001,284.64998 C 23.756,284.64998 30,290.89391 30,298.64995 30,306.406 23.756,312.65004 16.000001,312.65004 8.244,312.65004 2,306.406 2,298.64995 2,290.89391 8.244,284.64998 16.000001,284.64998 Z"
           id="rect4570-9-6" />
        <path
           inkscape:connector-curvature="0"
           style="fill:url(#linearGradient4508-9);fill-opacity:1;stroke:none;stroke-width:1.20188725;stroke-linecap:round;stroke-linejoin:round;stroke-miterlimit:4;stroke-dasharray:none;stroke-opacity:1"
           d="m 16.000001,286.64999 c 6.647984,0 11.999971,5.35193 11.999971,11.99996 0,6.648 -5.351987,12.00004 -11.999971,12.00004 -6.6479859,0 -11.999973,-5.35204 -11.999973,-12.00004 0,-6.64803 5.3519871,-11.99996 11.999973,-11.99996 z"
           id="rect4570-9-6-2" />
        <path
           sodipodi:nodetypes="sscscsssccsssccsssssss"
           id="rect5668-9"
           d="m 16,289.46835 c -0.554,0 -1,0.446 -1,1 v 6.18164 c -1.164689,0.41156 -2,1.50928 -2,2.81836 0,1.30909 0.835311,2.4068 2,2.81836 v 5.36328 c 0,0.55401 0.446,1 1,1 0.554,0 1,-0.44599 1,-1 v -5.35742 c 0.848629,-0.30177 1.517526,-0.9729 1.818359,-1.82422 H 23 c 0.554,0 1,-0.446 1,-1 0,-0.554 -0.446,-1 -1,-1 H 18.818359 C 18.517751,297.61766 17.850699,296.95062 17,296.64999 v -6.18164 c 0,-0.554 -0.445999,-1 -1,-1 z m 0,8 c 0.554001,0 1,0.446 1,1 0,0.554 -0.445999,1 -1,1 -0.554,0 -1,-0.446 -1,-1 0,-0.554 0.446,-1 1,-1 z"
           style="opacity:1;fill:#c3cccc;fill-opacity:1;stroke:none;stroke-width:0.80800003;stroke-linecap:round;stroke-linejoin:round;stroke-miterlimit:4;stroke-dasharray:none;stroke-opacity:1;paint-order:stroke markers fill"
           inkscape:connector-curvature="0" />
        <path
           inkscape:connector-curvature="0"
           style="opacity:1;fill:#f4203e;fill-opacity:1;stroke:none;stroke-width:0.80800003;stroke-linecap:round;stroke-linejoin:round;stroke-miterlimit:4;stroke-dasharray:none;stroke-opacity:1;paint-order:stroke markers fill"
           d="m 15.999999,299.65005 c 0.554,0 1,0.44598 1,0.99998 v 6 c 0,0.55401 -0.446,1.00003 -1,1.00003 -0.554,0 -1,-0.44602 -1,-1.00003 v -6 c 0,-0.554 0.446,-0.99998 1,-0.99998 z"
           id="rect5668" />
        <path
           inkscape:connector-curvature="0"
           style="opacity:1;fill:#252a34;fill-opacity:1;stroke:none;stroke-width:0.80800003;stroke-linecap:round;stroke-linejoin:round;stroke-miterlimit:4;stroke-dasharray:none;stroke-opacity:1;paint-order:stroke markers fill"
           d="M 15.999999,288.65 C 15.445999,288.65 15,289.09599 15,289.64999 v 6.18164 c -1.164689,0.41156 -2.000001,1.50928 -2.000001,2.81836 0,1.66201 1.338,3 3,3 1.309083,0 2.406799,-0.83531 2.818359,-1.99998 h 4.181641 c 0.554,0 1,-0.44602 1,-1.00002 0,-0.554 -0.446,-0.99999 -1,-0.99999 h -4.181641 c -0.300608,-0.85069 -0.96766,-1.51774 -1.818359,-1.81837 v -6.18164 c 0,-0.554 -0.445999,-0.99999 -1,-0.99999 z m 0,9 c 0.554001,0 1,0.44599 1,0.99999 0,0.554 -0.445999,1.00002 -1,1.00002 -0.554,0 -0.999999,-0.44602 -0.999999,-1.00002 0,-0.554 0.445999,-0.99999 0.999999,-0.99999 z"
           id="rect5658" />
      </g>
    </g>
  </g>
</svg>
