<?xml version="1.0" encoding="UTF-8" standalone="no"?>
<!-- Created with Inkscape (http://www.inkscape.org/) -->

<svg
   xmlns:dc="http://purl.org/dc/elements/1.1/"
   xmlns:cc="http://creativecommons.org/ns#"
   xmlns:rdf="http://www.w3.org/1999/02/22-rdf-syntax-ns#"
   xmlns:svg="http://www.w3.org/2000/svg"
   xmlns="http://www.w3.org/2000/svg"
   xmlns:xlink="http://www.w3.org/1999/xlink"
   xmlns:sodipodi="http://sodipodi.sourceforge.net/DTD/sodipodi-0.dtd"
   xmlns:inkscape="http://www.inkscape.org/namespaces/inkscape"
   width="48"
   height="48"
   viewBox="0 0 12.7 12.7"
   version="1.1"
   id="svg1399"
   inkscape:version="0.92.4 5da689c313, 2019-01-14"
   sodipodi:docname="preferences-system-network-ethernet.svg">
  <defs
     id="defs1393">
    <linearGradient
       id="linearGradient4582-9"
       inkscape:collect="always">
      <stop
         id="stop4578-1"
         offset="0"
         style="stop-color:#cee3e3;stop-opacity:1" />
      <stop
         id="stop4580-2"
         offset="1"
         style="stop-color:#fcfcfc;stop-opacity:1" />
    </linearGradient>
    <linearGradient
       id="linearGradient4627"
       inkscape:collect="always">
      <stop
         id="stop4623"
         offset="0"
         style="stop-color:#ffc900;stop-opacity:1" />
      <stop
         id="stop4625"
         offset="1"
         style="stop-color:#ffe200;stop-opacity:1" />
    </linearGradient>
    <linearGradient
       inkscape:collect="always"
       id="linearGradient4766-0">
      <stop
         style="stop-color:#3a4354;stop-opacity:1"
         offset="0"
         id="stop4762" />
      <stop
         id="stop4828"
         offset="0.42857143"
         style="stop-color:#15181e;stop-opacity:1;" />
      <stop
         style="stop-color:#090a0c;stop-opacity:1"
         offset="1"
         id="stop4764" />
    </linearGradient>
    <linearGradient
       inkscape:collect="always"
       xlink:href="#linearGradient4582-9"
       id="linearGradient869"
       x1="-4.2277222"
       y1="301.49396"
       x2="-4.341115"
       y2="290.509"
       gradientUnits="userSpaceOnUse" />
    <linearGradient
       inkscape:collect="always"
       xlink:href="#linearGradient4766-0"
       id="linearGradient879"
       x1="-3.986763"
       y1="301.22467"
       x2="-4.0670824"
       y2="290.66495"
       gradientUnits="userSpaceOnUse" />
    <linearGradient
       inkscape:collect="always"
       xlink:href="#linearGradient4627"
       id="linearGradient887"
       x1="-4.5395522"
       y1="293.61316"
       x2="-4.4072609"
       y2="291.63351"
       gradientUnits="userSpaceOnUse" />
  </defs>
  <sodipodi:namedview
     id="base"
     pagecolor="#ffffff"
     bordercolor="#666666"
     borderopacity="1.0"
     inkscape:pageopacity="0.0"
     inkscape:pageshadow="2"
     inkscape:zoom="11.2"
     inkscape:cx="10.251504"
     inkscape:cy="16.730333"
     inkscape:document-units="mm"
     inkscape:current-layer="g1592"
     showgrid="false"
     inkscape:showpageshadow="false"
     units="px"
     inkscape:window-width="1920"
     inkscape:window-height="999"
     inkscape:window-x="0"
     inkscape:window-y="0"
     inkscape:window-maximized="1" />
  <metadata
     id="metadata1396">
    <rdf:RDF>
      <cc:Work
         rdf:about="">
        <dc:format>image/svg+xml</dc:format>
        <dc:type
           rdf:resource="http://purl.org/dc/dcmitype/StillImage" />
        <dc:title />
      </cc:Work>
    </rdf:RDF>
  </metadata>
  <g
     inkscape:label="Capa 1"
     inkscape:groupmode="layer"
     id="layer1"
     transform="translate(0,-284.30005)">
    <g
       id="g1592"
       transform="translate(10.492678,-5.481375)">
      <path
         sodipodi:nodetypes="sssssssss"
         inkscape:connector-curvature="0"
         id="rect18678-7"
         d="m -9.6989277,290.31059 h 11.1125 c 0.439737,0 0.79375,0.35401 0.79375,0.79375 v 10.05417 c 0,0.43973 -0.354013,0.79375 -0.79375,0.79375 h -11.1125 c -0.4397373,0 -0.7937503,-0.35402 -0.7937503,-0.79375 v -10.05417 c 0,-0.43974 0.354013,-0.79375 0.7937503,-0.79375 z"
         style="opacity:1;vector-effect:none;fill:#90a4ae;fill-opacity:1;stroke:none;stroke-width:0.52916664;stroke-linecap:round;stroke-linejoin:round;stroke-miterlimit:4;stroke-dasharray:none;stroke-dashoffset:0;stroke-opacity:1;paint-order:markers stroke fill" />
      <path
         sodipodi:nodetypes="sssssssss"
         inkscape:connector-curvature="0"
         id="rect18695"
         d="m -9.6989277,290.57517 h 11.1125 c 0.293158,0 0.529167,0.23601 0.529167,0.52917 v 10.05417 c 0,0.29315 -0.236009,0.52916 -0.529167,0.52916 h -11.1125 c -0.2931583,0 -0.5291663,-0.23601 -0.5291663,-0.52916 v -10.05417 c 0,-0.29316 0.236008,-0.52917 0.5291663,-0.52917 z"
         style="opacity:1;vector-effect:none;fill:url(#linearGradient869);fill-opacity:1;stroke:none;stroke-width:0.52916664;stroke-linecap:round;stroke-linejoin:round;stroke-miterlimit:4;stroke-dasharray:none;stroke-dashoffset:0;stroke-opacity:1;paint-order:markers stroke fill" />
      <path
         sodipodi:nodetypes="sscssccsscsscsscsssscsscsscssccsscsss"
         inkscape:connector-curvature="0"
         id="rect840"
         d="m -9.4343444,291.10434 c -0.1465786,0 -0.2645833,0.118 -0.2645833,0.26458 v 0.79375 c -0.1465786,0 -0.2645833,0.11801 -0.2645833,0.26459 v 0.79375 c 0,0.14658 0.1180047,0.26458 0.2645833,0.26458 v 1.05833 c -0.1465786,0 -0.2645833,0.11801 -0.2645833,0.26459 v 0.79375 c 0,0.14658 0.1180047,0.26458 0.2645833,0.26458 v 3.70417 c 0,0.14658 0.1180047,0.26458 0.2645833,0.26458 h 1.8520834 v 0.52917 c 0,0.14658 0.1180047,0.26458 0.2645833,0.26458 h 1.0583333 v 0.52917 c 0,0.14658 0.1180047,0.26458 0.2645834,0.26458 h 3.7041666 c 0.1465787,0 0.2645834,-0.118 0.2645834,-0.26458 v -0.52917 h 1.3229166 c 0.1465787,0 0.2645837,-0.118 0.2645837,-0.26458 v -0.52917 h 1.5875 c 0.146578,0 0.264583,-0.118 0.264583,-0.26458 v -3.70417 c 0.146579,0 0.264583,-0.118 0.264583,-0.26458 v -0.79375 c 0,-0.14658 -0.118004,-0.26459 -0.264583,-0.26459 v -1.05833 c 0.146579,0 0.264583,-0.118 0.264583,-0.26458 v -0.79375 c 0,-0.14658 -0.118004,-0.26459 -0.264583,-0.26459 v -0.79375 c 0,-0.14658 -0.118005,-0.26458 -0.264583,-0.26458 z"
         style="opacity:1;fill:url(#linearGradient879);fill-opacity:1;stroke:none;stroke-width:0.52916664;stroke-linecap:round;stroke-linejoin:round;stroke-miterlimit:4;stroke-dasharray:none;stroke-opacity:1" />
      <path
         id="path978"
         d="m -9.169761,291.63351 v 1.71979 c 0,0.21987 0.1770062,0.39687 0.396875,0.39687 0.2198687,0 0.396875,-0.177 0.396875,-0.39687 v -1.71979 z m 1.3229166,0 v 1.71979 c 0,0.21987 0.1770063,0.39687 0.396875,0.39687 0.2198688,0 0.396875,-0.177 0.396875,-0.39687 v -1.71979 z m 1.3229167,0 v 1.71979 c 0,0.21987 0.1770062,0.39687 0.396875,0.39687 0.2198687,0 0.396875,-0.177 0.396875,-0.39687 v -1.71979 z m 1.3229167,0 v 1.71979 c 0,0.21987 0.1770062,0.39687 0.396875,0.39687 0.2198687,0 0.396875,-0.177 0.396875,-0.39687 v -1.71979 z m 1.3229166,0 v 1.71979 c 0,0.21987 0.1770063,0.39687 0.396875,0.39687 0.2198688,0 0.396875,-0.177 0.396875,-0.39687 v -1.71979 z m 1.3229167,0 v 1.71979 c 0,0.21987 0.1770062,0.39687 0.396875,0.39687 0.2198688,0 0.396875,-0.177 0.396875,-0.39687 v -1.71979 z m 1.3229167,0 v 1.71979 c 0,0.21987 0.1770062,0.39687 0.396875,0.39687 0.2198687,0 0.3968753,-0.177 0.3968753,-0.39687 v -1.71979 z m 1.3229163,0 v 1.71979 c 0,0.21987 0.177007,0.39687 0.396875,0.39687 0.219869,0 0.396875,-0.177 0.396875,-0.39687 v -1.71979 z"
         style="opacity:1;vector-effect:none;fill:url(#linearGradient887);fill-opacity:1;stroke:none;stroke-width:0.52916664;stroke-linecap:round;stroke-linejoin:round;stroke-miterlimit:4;stroke-dasharray:none;stroke-dashoffset:0;stroke-opacity:1"
         inkscape:connector-curvature="0" />
    </g>
  </g>
</svg>
