<?xml version="1.0" encoding="UTF-8" standalone="no"?>
<!-- Created with Inkscape (http://www.inkscape.org/) -->

<svg
   xmlns:dc="http://purl.org/dc/elements/1.1/"
   xmlns:cc="http://creativecommons.org/ns#"
   xmlns:rdf="http://www.w3.org/1999/02/22-rdf-syntax-ns#"
   xmlns:svg="http://www.w3.org/2000/svg"
   xmlns="http://www.w3.org/2000/svg"
   xmlns:xlink="http://www.w3.org/1999/xlink"
   xmlns:sodipodi="http://sodipodi.sourceforge.net/DTD/sodipodi-0.dtd"
   xmlns:inkscape="http://www.inkscape.org/namespaces/inkscape"
   width="48"
   height="48"
   viewBox="0 0 12.7 12.7"
   version="1.1"
   id="svg1399"
   inkscape:version="0.92.4 5da689c313, 2019-01-14"
   sodipodi:docname="preferences-desktop-theme-windowdecorations.svg">
  <defs
     id="defs1393">
    <linearGradient
       inkscape:collect="always"
       xlink:href="#linearGradient4582-3"
       id="linearGradient875"
       x1="-7.7883258"
       y1="302.91299"
       x2="-7.8780932"
       y2="294.45578"
       gradientUnits="userSpaceOnUse" />
    <linearGradient
       id="linearGradient4582-3"
       inkscape:collect="always">
      <stop
         id="stop4578-5"
         offset="0"
         style="stop-color:#c8d3d4;stop-opacity:1" />
      <stop
         id="stop4580-6"
         offset="1"
         style="stop-color:#f3f5f6;stop-opacity:1" />
    </linearGradient>
    <linearGradient
       inkscape:collect="always"
       xlink:href="#linearGradient2126"
       id="linearGradient891"
       x1="-4.3912649"
       y1="294.4841"
       x2="-4.4054394"
       y2="292.33435"
       gradientUnits="userSpaceOnUse" />
    <linearGradient
       id="linearGradient2126"
       inkscape:collect="always">
      <stop
         id="stop2122"
         offset="0"
         style="stop-color:#475057;stop-opacity:1;" />
      <stop
         id="stop2124"
         offset="1"
         style="stop-color:#5e6a73;stop-opacity:1" />
    </linearGradient>
    <linearGradient
       inkscape:collect="always"
       xlink:href="#linearGradient2118"
       id="linearGradient883"
       x1="-8.5442781"
       y1="294.55496"
       x2="-8.629323"
       y2="292.31073"
       gradientUnits="userSpaceOnUse" />
    <linearGradient
       inkscape:collect="always"
       id="linearGradient2118">
      <stop
         style="stop-color:#238abf;stop-opacity:1"
         offset="0"
         id="stop2114" />
      <stop
         style="stop-color:#30b9fc;stop-opacity:1"
         offset="1"
         id="stop2116" />
    </linearGradient>
  </defs>
  <sodipodi:namedview
     id="base"
     pagecolor="#ffffff"
     bordercolor="#666666"
     borderopacity="1.0"
     inkscape:pageopacity="0.0"
     inkscape:pageshadow="2"
     inkscape:zoom="7.9195959"
     inkscape:cx="-15.98796"
     inkscape:cy="-0.67020984"
     inkscape:document-units="mm"
     inkscape:current-layer="layer1"
     showgrid="false"
     inkscape:showpageshadow="false"
     units="px"
     inkscape:window-width="1920"
     inkscape:window-height="999"
     inkscape:window-x="0"
     inkscape:window-y="0"
     inkscape:window-maximized="1" />
  <metadata
     id="metadata1396">
    <rdf:RDF>
      <cc:Work
         rdf:about="">
        <dc:format>image/svg+xml</dc:format>
        <dc:type
           rdf:resource="http://purl.org/dc/dcmitype/StillImage" />
        <dc:title></dc:title>
      </cc:Work>
    </rdf:RDF>
  </metadata>
  <g
     inkscape:label="Capa 1"
     inkscape:groupmode="layer"
     id="layer1"
     transform="translate(0,-284.30005)">
    <g
       id="g1549"
       transform="translate(10.993808,-5.481374)">
      <g
         transform="translate(2.1381563,-1.570211)"
         id="g1553">
        <path
           style="opacity:1;fill:#90a4ae;fill-opacity:1;stroke:none;stroke-width:0.26458332;stroke-opacity:1"
           d="m -12.602795,293.7329 h 4.7560902 1.3293299 5.5562501 c 0.29315,0 0.529161,0.236 0.529161,0.52915 v 8.46667 c 0,0.29316 -0.236011,0.52916 -0.529171,0.52916 H -12.602795 c -0.29316,0 -0.52917,-0.236 -0.52917,-0.52916 v -8.46667 c 0,-0.29315 0.23601,-0.52915 0.52917,-0.52915 z"
           id="rect9183-4-4"
           inkscape:connector-curvature="0"
           sodipodi:nodetypes="sccssssssss" />
        <path
           inkscape:connector-curvature="0"
           style="opacity:0.98999999;fill:url(#linearGradient875);fill-opacity:1;stroke:none;stroke-width:0.26458332;stroke-opacity:1"
           d="m -12.602797,302.9933 c -0.14658,8e-4 -0.264583,-0.11801 -0.264583,-0.26458 l -10e-7,-8.73125 h 12.1708332 l 2e-6,8.73125 c 0,0.14657 -0.118005,0.26458 -0.264585,0.26458 h -5.8208329 -1.0583331 z"
           id="rect9179-4-3"
           sodipodi:nodetypes="csccssccc" />
        <path
           style="opacity:1;vector-effect:none;fill:#343b40;fill-opacity:1;stroke:none;stroke-width:0.52916664;stroke-linecap:round;stroke-linejoin:round;stroke-miterlimit:4;stroke-dasharray:none;stroke-dashoffset:0;stroke-opacity:1;paint-order:markers stroke fill"
           d="m -6.7819645,292.14539 v 0.52917 1.32291 0.26459 0.52916 h 0.5291666 0.2645834 5.0270837 0.529166 v -0.52916 -0.26459 -1.32291 c 0,-0.29316 -0.23601,-0.52917 -0.529166,-0.52917 h -5.0270837 -0.2645834 z"
           id="rect14800"
           inkscape:connector-curvature="0"
           sodipodi:nodetypes="cccccccccccssccc" />
        <path
           style="opacity:0.98999999;fill:url(#linearGradient891);fill-opacity:1;stroke:none;stroke-width:0.07937501;stroke-miterlimit:4;stroke-dasharray:none;stroke-opacity:1"
           d="m -6.5173812,292.40997 v 0.26459 0.26458 1.05833 0.52917 h 0.2645833 0.5291667 4.7625004 0.264583 v -0.52917 -1.05833 -0.26458 c 0,-0.14658 -0.118003,-0.26459 -0.264583,-0.26459 h -4.7625004 -0.5291667 z"
           id="rect4523"
           inkscape:connector-curvature="0"
           sodipodi:nodetypes="cccccccccccssccc" />
        <path
           inkscape:connector-curvature="0"
           style="opacity:1;vector-effect:none;fill:#115799;fill-opacity:1;stroke:none;stroke-width:0.52916664;stroke-linecap:round;stroke-linejoin:round;stroke-miterlimit:4;stroke-dasharray:none;stroke-dashoffset:0;stroke-opacity:1;paint-order:markers stroke fill"
           d="m -6.7819645,292.14539 v 0.52917 1.32291 0.26459 0.52916 h -0.5291667 -0.79375 -4.4979168 -0.529167 v -0.52916 -0.26459 -1.32291 c 0,-0.29316 0.236011,-0.52917 0.529167,-0.52917 h 4.4979168 0.79375 z"
           id="rect14800-6"
           sodipodi:nodetypes="cccccccccccssccc" />
        <path
           inkscape:connector-curvature="0"
           style="opacity:0.98999999;fill:url(#linearGradient883);fill-opacity:1;stroke:none;stroke-width:0.07937501;stroke-miterlimit:4;stroke-dasharray:none;stroke-opacity:1"
           d="m -7.0465479,292.40997 v 0.26459 0.26458 1.05833 0.52917 h -0.2645833 -1.0583333 -4.2333335 -0.264583 v -0.52917 -1.05833 -0.26458 c 0,-0.14658 0.118003,-0.26459 0.264583,-0.26459 h 4.2333335 1.0583333 z"
           id="rect4523-7"
           sodipodi:nodetypes="cccccccccccssccc" />
        <path
           inkscape:connector-curvature="0"
           style="opacity:1;fill:#115799;fill-opacity:1;stroke:none;stroke-width:0;stroke-linecap:round;stroke-linejoin:round;stroke-miterlimit:4;stroke-dasharray:none;stroke-opacity:1;paint-order:stroke fill markers"
           d="m -11.809048,292.67456 c 0.439738,0 0.79375,0.35401 0.79375,0.79375 0,0.43973 -0.354012,0.79375 -0.79375,0.79375 -0.439737,0 -0.79375,-0.35402 -0.79375,-0.79375 0,-0.43974 0.354013,-0.79375 0.79375,-0.79375 z"
           id="rect874" />
        <path
           inkscape:connector-curvature="0"
           style="opacity:1;fill:#f1f1f1;fill-opacity:1;stroke:none;stroke-width:0;stroke-linecap:round;stroke-linejoin:round;stroke-miterlimit:4;stroke-dasharray:none;stroke-opacity:1;paint-order:stroke fill markers"
           d="m -11.809048,292.93914 h 1e-6 c 0.293158,0 0.529166,0.23601 0.529166,0.52917 0,0.29316 -0.236008,0.52916 -0.529166,0.52916 h -1e-6 c -0.293159,0 -0.529167,-0.236 -0.529167,-0.52916 0,-0.29316 0.236008,-0.52917 0.529167,-0.52917 z"
           id="rect876" />
        <path
           inkscape:connector-curvature="0"
           style="opacity:1;fill:#343b40;fill-opacity:1;stroke:none;stroke-width:0;stroke-linecap:round;stroke-linejoin:round;stroke-miterlimit:4;stroke-dasharray:none;stroke-opacity:1;paint-order:stroke fill markers"
           d="m -1.7548808,292.67456 c 0.439737,0 0.79375,0.35401 0.79375,0.79375 0,0.43973 -0.354013,0.79375 -0.79375,0.79375 -0.439738,0 -0.79375,-0.35402 -0.79375,-0.79375 0,-0.43974 0.354012,-0.79375 0.79375,-0.79375 z"
           id="rect874-5" />
        <path
           inkscape:connector-curvature="0"
           style="opacity:1;fill:#f1f1f1;fill-opacity:1;stroke:none;stroke-width:0;stroke-linecap:round;stroke-linejoin:round;stroke-miterlimit:4;stroke-dasharray:none;stroke-opacity:1;paint-order:stroke fill markers"
           d="m -1.7548818,292.93914 h 10e-7 c 0.293158,0 0.529166,0.23601 0.529166,0.52917 0,0.29316 -0.236008,0.52916 -0.529166,0.52916 h -10e-7 c -0.293158,0 -0.529166,-0.236 -0.529166,-0.52916 0,-0.29316 0.236008,-0.52917 0.529166,-0.52917 z"
           id="rect876-3" />
      </g>
    </g>
  </g>
</svg>
