<?xml version="1.0" encoding="UTF-8" standalone="no"?>
<!-- Created with Inkscape (http://www.inkscape.org/) -->

<svg
   xmlns:dc="http://purl.org/dc/elements/1.1/"
   xmlns:cc="http://creativecommons.org/ns#"
   xmlns:rdf="http://www.w3.org/1999/02/22-rdf-syntax-ns#"
   xmlns:svg="http://www.w3.org/2000/svg"
   xmlns="http://www.w3.org/2000/svg"
   xmlns:xlink="http://www.w3.org/1999/xlink"
   xmlns:sodipodi="http://sodipodi.sourceforge.net/DTD/sodipodi-0.dtd"
   xmlns:inkscape="http://www.inkscape.org/namespaces/inkscape"
   width="48"
   height="48"
   viewBox="0 0 48 48"
   version="1.1"
   id="svg8"
   inkscape:version="0.92.2 2405546, 2018-03-11"
   sodipodi:docname="preferences-system-bluetooth.svg">
  <title
     id="title7895">Antu icon Theme</title>
  <defs
     id="defs2">
    <linearGradient
       inkscape:collect="always"
       xlink:href="#linearGradient4565"
       id="linearGradient17834"
       x1="24"
       y1="309.64999"
       x2="24"
       y2="270.64999"
       gradientUnits="userSpaceOnUse" />
    <linearGradient
       id="linearGradient4565"
       inkscape:collect="always">
      <stop
         id="stop4561"
         offset="0"
         style="stop-color:#1780f2;stop-opacity:1" />
      <stop
         id="stop4563"
         offset="1"
         style="stop-color:#02b3fe;stop-opacity:1" />
    </linearGradient>
    <linearGradient
       inkscape:collect="always"
       xlink:href="#linearGradient7100-7"
       id="linearGradient17909"
       x1="23"
       y1="301.64999"
       x2="23"
       y2="278.64999"
       gradientUnits="userSpaceOnUse"
       gradientTransform="translate(3.4819679e-4,0.41385725)" />
    <linearGradient
       inkscape:collect="always"
       id="linearGradient7100-7">
      <stop
         style="stop-color:#f0f0f0;stop-opacity:1"
         offset="0"
         id="stop7096-2" />
      <stop
         style="stop-color:#ffffff;stop-opacity:1"
         offset="1"
         id="stop7098-2" />
    </linearGradient>
  </defs>
  <sodipodi:namedview
     id="base"
     pagecolor="#ffffff"
     bordercolor="#666666"
     borderopacity="1.0"
     inkscape:pageopacity="0.0"
     inkscape:pageshadow="2"
     inkscape:zoom="8.0000002"
     inkscape:cx="4.0750287"
     inkscape:cy="30.589266"
     inkscape:document-units="px"
     inkscape:current-layer="layer1"
     showgrid="true"
     units="px"
     inkscape:window-width="1360"
     inkscape:window-height="711"
     inkscape:window-x="0"
     inkscape:window-y="28"
     inkscape:window-maximized="1"
     objecttolerance="10"
     gridtolerance="10"
     guidetolerance="10"
     inkscape:snap-bbox="true"
     inkscape:bbox-paths="true"
     inkscape:bbox-nodes="true"
     inkscape:snap-bbox-edge-midpoints="true"
     inkscape:snap-bbox-midpoints="true"
     inkscape:object-paths="true"
     inkscape:snap-intersection-paths="true">
    <inkscape:grid
       type="xygrid"
       id="grid7897"
       empspacing="4" />
  </sodipodi:namedview>
  <metadata
     id="metadata5">
    <rdf:RDF>
      <cc:Work
         rdf:about="">
        <dc:format>image/svg+xml</dc:format>
        <dc:type
           rdf:resource="http://purl.org/dc/dcmitype/StillImage" />
        <dc:title>Antu icon Theme</dc:title>
      </cc:Work>
    </rdf:RDF>
  </metadata>
  <g
     inkscape:label="Capa 1"
     inkscape:groupmode="layer"
     id="layer1"
     transform="translate(0,-266.64999)">
    <g
       id="g18541"
       transform="translate(32,1.8093968)">
      <g
         id="g17917"
         transform="translate(-32,-1.8093968)">
        <path
           style="opacity:1;vector-effect:none;fill:#1463bf;fill-opacity:1;stroke:none;stroke-width:1;stroke-linecap:round;stroke-linejoin:round;stroke-miterlimit:4;stroke-dasharray:none;stroke-dashoffset:0;stroke-opacity:1;paint-order:markers stroke fill"
           d="m 24,268.64999 c 8.31,0 15,6.69 15,15 v 14 c 0,8.31 -6.69,15 -15,15 -8.31,0 -15,-6.69 -15,-15 v -14 c 0,-8.31 6.69,-15 15,-15 z"
           id="rect17794"
           inkscape:connector-curvature="0" />
        <path
           style="opacity:1;vector-effect:none;fill:url(#linearGradient17834);fill-opacity:1;stroke:none;stroke-width:1;stroke-linecap:round;stroke-linejoin:round;stroke-miterlimit:4;stroke-dasharray:none;stroke-dashoffset:0;stroke-opacity:1;paint-order:markers stroke fill"
           d="m 24,269.64999 c 7.756,0 14,6.244 14,14 v 14 c 0,7.756 -6.244,14 -14,14 -7.756,0 -14,-6.244 -14,-14 v -14 c 0,-7.756 6.244,-14 14,-14 z"
           id="rect17796"
           inkscape:connector-curvature="0" />
        <path
           style="color:#000000;font-style:normal;font-variant:normal;font-weight:normal;font-stretch:normal;font-size:medium;line-height:normal;font-family:sans-serif;font-variant-ligatures:normal;font-variant-position:normal;font-variant-caps:normal;font-variant-numeric:normal;font-variant-alternates:normal;font-feature-settings:normal;text-indent:0;text-align:start;text-decoration:none;text-decoration-line:none;text-decoration-style:solid;text-decoration-color:#000000;letter-spacing:normal;word-spacing:normal;text-transform:none;writing-mode:lr-tb;direction:ltr;text-orientation:mixed;dominant-baseline:auto;baseline-shift:baseline;text-anchor:start;white-space:normal;shape-padding:0;clip-rule:nonzero;display:inline;overflow:visible;visibility:visible;opacity:1;isolation:auto;mix-blend-mode:normal;color-interpolation:sRGB;color-interpolation-filters:linearRGB;solid-color:#000000;solid-opacity:1;vector-effect:none;fill:#1463bf;fill-opacity:1;fill-rule:nonzero;stroke:none;stroke-width:2;stroke-linecap:round;stroke-linejoin:round;stroke-miterlimit:4;stroke-dasharray:none;stroke-dashoffset:0;stroke-opacity:1;color-rendering:auto;image-rendering:auto;shape-rendering:auto;text-rendering:auto;enable-background:accumulate"
           d="m 23.000037,278.64967 a 1.0001,1.0001 0 0 0 -0.984375,1 v 9.58594 l -3.292969,-3.29297 a 1.0001,1.0001 0 0 0 -0.07422,-0.0664 1.0001,1.0001 0 0 0 -0.167968,-0.10742 1.0001,1.0001 0 0 0 -0.0918,-0.041 1.0001,1.0001 0 0 0 -0.392578,-0.0684 1.0001,1.0001 0 0 0 -0.197266,0.0254 1.0001,1.0001 0 0 0 -0.189453,0.0644 1.0001,1.0001 0 0 0 -0.171875,0.10156 1.0001,1.0001 0 0 0 -0.402344,0.66602 1.0001,1.0001 0 0 0 -0.0078,0.0996 1.0001,1.0001 0 0 0 0.03125,0.29882 1.0001,1.0001 0 0 0 0.03125,0.0937 1.0001,1.0001 0 0 0 0.144531,0.26172 1.0001,1.0001 0 0 0 0.06445,0.0762 1.0001,1.0001 0 0 0 0.0098,0.01 l 4.291015,4.29102 -4.28125,4.28125 a 1.0001,1.0001 0 0 0 -0.0098,0.01 1.0001,1.0001 0 0 0 -0.06445,0.0762 1.0001,1.0001 0 0 0 -0.05664,0.082 1.0001,1.0001 0 0 0 -0.04883,0.0859 1.0001,1.0001 0 0 0 -0.03906,0.0918 1.0001,1.0001 0 0 0 -0.03125,0.0957 1.0001,1.0001 0 0 0 -0.02148,0.0977 1.0001,1.0001 0 0 0 -0.0098,0.0996 1.0001,1.0001 0 0 0 0,0.0996 1.0001,1.0001 0 0 0 0.0078,0.0996 1.0001,1.0001 0 0 0 0.01953,0.0976 1.0001,1.0001 0 0 0 0.0293,0.0957 1.0001,1.0001 0 0 0 0.03711,0.0937 1.0001,1.0001 0 0 0 0.04687,0.0879 1.0001,1.0001 0 0 0 0.05664,0.082 1.0001,1.0001 0 0 0 0.671875,0.39258 1.0001,1.0001 0 0 0 0.201172,0.006 1.0001,1.0001 0 0 0 0.291015,-0.0645 1.0001,1.0001 0 0 0 0.333985,-0.21484 l 3.283203,-3.2832 v 9.58984 a 1.0001,1.0001 0 0 0 1.707031,0.70703 l 6,-6 a 1.0001,1.0001 0 0 0 0,-1.41406 l -5.292969,-5.29297 5.292969,-5.29297 a 1.0001,1.0001 0 0 0 0,-1.41406 l -6,-6 A 1.0001,1.0001 0 0 0 23,278.64999 Z m 1.015625,3.41406 3.585938,3.58594 -3.585938,3.58594 z m 0,12 3.585938,3.58594 -3.585938,3.58594 z"
           id="path17836"
           inkscape:connector-curvature="0" />
        <path
           style="color:#000000;font-style:normal;font-variant:normal;font-weight:normal;font-stretch:normal;font-size:medium;line-height:normal;font-family:sans-serif;font-variant-ligatures:normal;font-variant-position:normal;font-variant-caps:normal;font-variant-numeric:normal;font-variant-alternates:normal;font-feature-settings:normal;text-indent:0;text-align:start;text-decoration:none;text-decoration-line:none;text-decoration-style:solid;text-decoration-color:#000000;letter-spacing:normal;word-spacing:normal;text-transform:none;writing-mode:lr-tb;direction:ltr;text-orientation:mixed;dominant-baseline:auto;baseline-shift:baseline;text-anchor:start;white-space:normal;shape-padding:0;clip-rule:nonzero;display:inline;overflow:visible;visibility:visible;opacity:1;isolation:auto;mix-blend-mode:normal;color-interpolation:sRGB;color-interpolation-filters:linearRGB;solid-color:#000000;solid-opacity:1;vector-effect:none;fill:url(#linearGradient17909);fill-opacity:1;fill-rule:nonzero;stroke:none;stroke-width:2;stroke-linecap:round;stroke-linejoin:round;stroke-miterlimit:4;stroke-dasharray:none;stroke-dashoffset:0;stroke-opacity:1;color-rendering:auto;image-rendering:auto;shape-rendering:auto;text-rendering:auto;enable-background:accumulate"
           d="m 22.984723,277.64979 a 1.0001,1.0001 0 0 0 -0.984375,1 v 9.58594 l -3.292969,-3.29297 a 1.0001,1.0001 0 0 0 -0.07422,-0.0664 1.0001,1.0001 0 0 0 -0.167968,-0.10742 1.0001,1.0001 0 0 0 -0.0918,-0.041 1.0001,1.0001 0 0 0 -0.392578,-0.0684 1.0001,1.0001 0 0 0 -0.197266,0.0254 1.0001,1.0001 0 0 0 -0.189453,0.0644 1.0001,1.0001 0 0 0 -0.171875,0.10156 1.0001,1.0001 0 0 0 -0.402344,0.66602 1.0001,1.0001 0 0 0 -0.0078,0.0996 1.0001,1.0001 0 0 0 0.03125,0.29882 1.0001,1.0001 0 0 0 0.03125,0.0937 1.0001,1.0001 0 0 0 0.144531,0.26172 1.0001,1.0001 0 0 0 0.06445,0.0762 1.0001,1.0001 0 0 0 0.0098,0.01 l 4.291015,4.29102 -4.28125,4.28125 a 1.0001,1.0001 0 0 0 -0.0098,0.01 1.0001,1.0001 0 0 0 -0.06445,0.0762 1.0001,1.0001 0 0 0 -0.05664,0.082 1.0001,1.0001 0 0 0 -0.04883,0.0859 1.0001,1.0001 0 0 0 -0.03906,0.0918 1.0001,1.0001 0 0 0 -0.03125,0.0957 1.0001,1.0001 0 0 0 -0.02148,0.0977 1.0001,1.0001 0 0 0 -0.0098,0.0996 1.0001,1.0001 0 0 0 0,0.0996 1.0001,1.0001 0 0 0 0.0078,0.0996 1.0001,1.0001 0 0 0 0.01953,0.0976 1.0001,1.0001 0 0 0 0.0293,0.0957 1.0001,1.0001 0 0 0 0.03711,0.0937 1.0001,1.0001 0 0 0 0.04687,0.0879 1.0001,1.0001 0 0 0 0.05664,0.082 1.0001,1.0001 0 0 0 0.671875,0.39258 1.0001,1.0001 0 0 0 0.201172,0.006 1.0001,1.0001 0 0 0 0.291015,-0.0645 1.0001,1.0001 0 0 0 0.333985,-0.21484 l 3.283203,-3.2832 v 9.58984 a 1.0001,1.0001 0 0 0 1.707031,0.70703 l 6,-6 a 1.0001,1.0001 0 0 0 0,-1.41406 l -5.292969,-5.29297 5.292969,-5.29297 a 1.0001,1.0001 0 0 0 0,-1.41406 l -6,-6 a 1.0001,1.0001 0 0 0 -0.722656,-0.29297 z m 1.015625,3.41406 3.585938,3.58594 -3.585938,3.58594 z m 0,12 3.585938,3.58594 -3.585938,3.58594 z"
           id="path17836-9"
           inkscape:connector-curvature="0" />
      </g>
    </g>
  </g>
</svg>
