<?xml version="1.0" encoding="UTF-8" standalone="no"?>
<!-- Created with Inkscape (http://www.inkscape.org/) -->

<svg
   xmlns:dc="http://purl.org/dc/elements/1.1/"
   xmlns:cc="http://creativecommons.org/ns#"
   xmlns:rdf="http://www.w3.org/1999/02/22-rdf-syntax-ns#"
   xmlns:svg="http://www.w3.org/2000/svg"
   xmlns="http://www.w3.org/2000/svg"
   xmlns:xlink="http://www.w3.org/1999/xlink"
   xmlns:sodipodi="http://sodipodi.sourceforge.net/DTD/sodipodi-0.dtd"
   xmlns:inkscape="http://www.inkscape.org/namespaces/inkscape"
   width="48"
   height="48"
   viewBox="0 0 12.7 12.7"
   version="1.1"
   id="svg1399"
   inkscape:version="0.92.4 5da689c313, 2019-01-14"
   sodipodi:docname="preferences-system-splash.svg">
  <defs
     id="defs1393">
    <style
       type="text/css"
       id="current-color-scheme">
      .ColorScheme-Text {
        color:#122036;
      }
      </style>
    <style
       id="current-color-scheme-1"
       type="text/css">
      .ColorScheme-Text {
        color:#122036;
      }
      </style>
    <linearGradient
       inkscape:collect="always"
       id="linearGradient842">
      <stop
         style="stop-color:#566066;stop-opacity:1"
         offset="0"
         id="stop838" />
      <stop
         style="stop-color:#6d7a81;stop-opacity:1"
         offset="1"
         id="stop840" />
    </linearGradient>
    <linearGradient
       inkscape:collect="always"
       id="linearGradient850">
      <stop
         style="stop-color:#233a39;stop-opacity:1"
         offset="0"
         id="stop846" />
      <stop
         style="stop-color:#434d4d;stop-opacity:1"
         offset="1"
         id="stop848" />
    </linearGradient>
    <style
       id="current-color-scheme-5"
       type="text/css">
      .ColorScheme-Text {
        color:#122036;
      }
      </style>
    <style
       type="text/css"
       id="current-color-scheme-1-3">
      .ColorScheme-Text {
        color:#122036;
      }
      </style>
    <linearGradient
       inkscape:collect="always"
       xlink:href="#linearGradient842"
       id="linearGradient911"
       x1="6.4398184"
       y1="296.16248"
       x2="6.5441551"
       y2="284.87036"
       gradientUnits="userSpaceOnUse" />
    <linearGradient
       inkscape:collect="always"
       xlink:href="#linearGradient850"
       id="linearGradient919"
       x1="5.8805161"
       y1="295.36069"
       x2="5.8339272"
       y2="285.90601"
       gradientUnits="userSpaceOnUse" />
  </defs>
  <sodipodi:namedview
     id="base"
     pagecolor="#ffffff"
     bordercolor="#666666"
     borderopacity="1.0"
     inkscape:pageopacity="0.0"
     inkscape:pageshadow="2"
     inkscape:zoom="15.839192"
     inkscape:cx="37.055074"
     inkscape:cy="26.234027"
     inkscape:document-units="px"
     inkscape:current-layer="layer1"
     showgrid="false"
     inkscape:showpageshadow="false"
     units="px"
     inkscape:window-width="1920"
     inkscape:window-height="999"
     inkscape:window-x="0"
     inkscape:window-y="0"
     inkscape:window-maximized="1" />
  <metadata
     id="metadata1396">
    <rdf:RDF>
      <cc:Work
         rdf:about="">
        <dc:format>image/svg+xml</dc:format>
        <dc:type
           rdf:resource="http://purl.org/dc/dcmitype/StillImage" />
        <dc:title />
      </cc:Work>
    </rdf:RDF>
  </metadata>
  <g
     inkscape:label="Capa 1"
     inkscape:groupmode="layer"
     id="layer1"
     transform="translate(0,-284.30005)">
    <path
       inkscape:connector-curvature="0"
       id="rect18678-7"
       d="M 1.3229165,284.82921 H 11.377083 c 0.439737,0 0.79375,0.35401 0.79375,0.79375 v 10.05417 c 0,0.43973 -0.354013,0.79375 -0.79375,0.79375 H 1.3229165 c -0.439738,0 -0.79375,-0.35402 -0.79375,-0.79375 v -10.05417 c 0,-0.43974 0.354012,-0.79375 0.79375,-0.79375 z"
       style="opacity:1;vector-effect:none;fill:#394349;fill-opacity:1;stroke:none;stroke-width:0.52916664;stroke-linecap:round;stroke-linejoin:round;stroke-miterlimit:4;stroke-dasharray:none;stroke-dashoffset:0;stroke-opacity:1;paint-order:markers stroke fill" />
    <path
       inkscape:connector-curvature="0"
       id="rect18695"
       d="M 1.3229165,285.09379 H 11.377083 c 0.293159,0 0.529167,0.23602 0.529167,0.52918 v 10.05417 c 0,0.29315 -0.236008,0.52915 -0.529167,0.52915 H 1.3229165 c -0.2931589,0 -0.529167,-0.23601 -0.529167,-0.52915 v -10.05417 c 0,-0.29316 0.2360081,-0.52918 0.529167,-0.52918 z"
       style="opacity:1;vector-effect:none;fill:url(#linearGradient911);fill-opacity:1;stroke:none;stroke-width:0.52916664;stroke-linecap:round;stroke-linejoin:round;stroke-miterlimit:4;stroke-dasharray:none;stroke-dashoffset:0;stroke-opacity:1;paint-order:markers stroke fill" />
    <path
       inkscape:connector-curvature="0"
       id="rect18678"
       d="M 1.5874985,285.62296 H 11.1125 c 0.146579,0 0.264583,0.118 0.264583,0.26458 v 9.52501 c 0,0.14658 -0.118003,0.26459 -0.264583,0.26459 H 1.5874985 c -0.146579,0 -0.264582,-0.118 -0.264582,-0.26459 v -9.52501 c 0,-0.14657 0.118003,-0.26458 0.264582,-0.26458 z"
       style="opacity:1;vector-effect:none;fill:#232c2c;fill-opacity:1;stroke:none;stroke-width:0.52916664;stroke-linecap:round;stroke-linejoin:round;stroke-miterlimit:4;stroke-dasharray:none;stroke-dashoffset:0;stroke-opacity:1;paint-order:markers stroke fill"
       sodipodi:nodetypes="sssssssss" />
    <path
       inkscape:connector-curvature="0"
       id="rect18676"
       d="M 1.5874995,285.88754 H 11.1125 v 9.525 H 1.5874995 Z"
       style="opacity:1;vector-effect:none;fill:url(#linearGradient919);fill-opacity:1;stroke:none;stroke-width:0.52916664;stroke-linecap:round;stroke-linejoin:round;stroke-miterlimit:4;stroke-dasharray:none;stroke-dashoffset:0;stroke-opacity:1;paint-order:markers stroke fill"
       sodipodi:nodetypes="ccccc" />
    <path
       id="path1757-5"
       d="m 7.1401326,286.94589 c -0.06891,9e-4 -0.134729,0.0288 -0.183451,0.0775 l -0.5291667,0.52915 c -0.1032851,0.10334 -0.1032851,0.27081 0,0.37415 l 1.1358477,1.13585 -1.1358477,1.13585 c -0.1032851,0.10333 -0.1032851,0.2708 0,0.37412 l 0.5291667,0.52918 c 0.103328,0.10328 0.27081,0.10328 0.374138,0 l 1.852083,-1.85208 c 0.103284,-0.10332 0.103284,-0.27082 0,-0.37414 l -1.852083,-1.85206 c -0.05049,-0.0505 -0.119268,-0.0785 -0.190687,-0.0775 z m -2.3776323,0.26459 c -0.2931591,0 -0.5291666,0.236 -0.5291666,0.52916 0,0.29316 0.2360075,0.52917 0.5291666,0.52917 0.2931581,0 0.5291667,-0.23601 0.5291667,-0.52917 0,-0.29316 -0.2360086,-0.52916 -0.5291667,-0.52916 z m -0.5291666,1.58749 c -0.4397359,0 -0.79375,0.35402 -0.79375,0.79375 0,0.43973 0.3540141,0.79375 0.79375,0.79375 0.4397359,0 0.79375,-0.35402 0.79375,-0.79375 0,-0.43973 -0.3540141,-0.79375 -0.79375,-0.79375 z m 1.0583333,1.85208 c -0.5863159,0 -1.0583333,0.47202 -1.0583333,1.05834 0,0.58632 0.4720174,1.05833 1.0583333,1.05833 0.5863168,0 1.0583332,-0.47201 1.0583332,-1.05833 0,-0.58632 -0.4720164,-1.05834 -1.0583332,-1.05834 z m -2.3812501,3.70417 v 0.52916 h 6.8791664 v -0.52916 z"
       style="color:#36404d;fill:#232c2c;fill-opacity:1;stroke:none;stroke-width:0.16933286"
       inkscape:connector-curvature="0"
       sodipodi:nodetypes="ccccccccccccccsssssssssssssssccccc" />
    <path
       inkscape:connector-curvature="0"
       id="rect1825"
       d="m 2.9104165,294.08962 h 6.8791664 v 0.52918 H 2.9104165 Z"
       style="opacity:1;fill:#85919a;fill-opacity:1;stroke:none;stroke-width:0.52916664;stroke-linecap:round;stroke-linejoin:round;stroke-miterlimit:4;stroke-dasharray:none;stroke-opacity:1" />
    <path
       inkscape:connector-curvature="0"
       style="color:#36404d;fill:#ffffff;fill-opacity:1;stroke:none;stroke-width:0.16933285"
       d="m 7.1401324,286.68129 c -0.06891,9e-4 -0.1347292,0.0288 -0.1834512,0.0775 l -0.5291667,0.52916 c -0.1032851,0.10333 -0.1032851,0.27081 0,0.37414 l 1.1358481,1.13585 -1.1358481,1.13585 c -0.1032851,0.10333 -0.1032851,0.2708 0,0.37413 l 0.5291667,0.52917 c 0.103328,0.10328 0.2708103,0.10328 0.3741373,0 l 1.8520833,-1.85208 c 0.1032841,-0.10332 0.1032841,-0.27082 0,-0.37414 l -1.8520833,-1.85206 c -0.05049,-0.0505 -0.1192671,-0.0785 -0.1906861,-0.0775 z m -2.3776326,0.26459 c -0.2931591,0 -0.5291666,0.236 -0.5291666,0.52916 0,0.29316 0.2360075,0.52917 0.5291666,0.52917 0.2931581,0 0.5291667,-0.23601 0.5291667,-0.52917 0,-0.29316 -0.2360086,-0.52916 -0.5291667,-0.52916 z m -0.5291666,1.5875 c -0.4397359,0 -0.79375,0.35401 -0.79375,0.79375 0,0.43973 0.3540141,0.79375 0.79375,0.79375 0.4397359,0 0.79375,-0.35402 0.79375,-0.79375 0,-0.43974 -0.3540141,-0.79375 -0.79375,-0.79375 z m 1.0583333,1.85208 c -0.5863159,0 -1.0583333,0.47202 -1.0583333,1.05833 0,0.58632 0.4720174,1.05834 1.0583333,1.05834 0.5863169,0 1.0583333,-0.47202 1.0583333,-1.05834 0,-0.58631 -0.4720164,-1.05833 -1.0583333,-1.05833 z m -2.3812501,3.70417 v 0.52916 h 2.9104168 v -0.52916 z"
       id="path1757" />
  </g>
</svg>
