<?xml version="1.0" encoding="UTF-8" standalone="no"?>
<!-- Created with Inkscape (http://www.inkscape.org/) -->

<svg
   width="48"
   height="48"
   viewBox="0 0 48 48"
   version="1.1"
   id="svg8"
   inkscape:version="1.2 (dc2aedaf03, 2022-05-15)"
   sodipodi:docname="face-smile.svg"
   xml:space="preserve"
   xmlns:inkscape="http://www.inkscape.org/namespaces/inkscape"
   xmlns:sodipodi="http://sodipodi.sourceforge.net/DTD/sodipodi-0.dtd"
   xmlns:xlink="http://www.w3.org/1999/xlink"
   xmlns="http://www.w3.org/2000/svg"
   xmlns:svg="http://www.w3.org/2000/svg"
   xmlns:rdf="http://www.w3.org/1999/02/22-rdf-syntax-ns#"
   xmlns:cc="http://creativecommons.org/ns#"
   xmlns:dc="http://purl.org/dc/elements/1.1/"><title
     id="title7895">Antu icon Theme</title><defs
     id="defs2"><linearGradient
       inkscape:collect="always"
       id="linearGradient3798"><stop
         style="stop-color:#ffcb00;stop-opacity:1;"
         offset="0"
         id="stop3794" /><stop
         style="stop-color:#ffe200;stop-opacity:1;"
         offset="1"
         id="stop3796" /></linearGradient><style
       id="current-color-scheme"
       type="text/css">
      .ColorScheme-Text {
        color:#122036;
      }
      </style><style
       type="text/css"
       id="current-color-scheme-5">
      .ColorScheme-Text {
        color:#122036;
      }
      </style><style
       type="text/css"
       id="current-color-scheme-2">
      .ColorScheme-Text {
        color:#122036;
      }
      </style><style
       type="text/css"
       id="current-color-scheme-1">
      .ColorScheme-Text {
        color:#122036;
      }
      </style><style
       id="current-color-scheme-10"
       type="text/css">
      .ColorScheme-Text {
        color:#122036;
      }
      </style><style
       id="current-color-scheme-7"
       type="text/css">
      .ColorScheme-Text {
        color:#122036;
      }
      </style><style
       type="text/css"
       id="current-color-scheme-5-5">
      .ColorScheme-Text {
        color:#122036;
      }
      </style><style
       type="text/css"
       id="current-color-scheme-2-3">
      .ColorScheme-Text {
        color:#122036;
      }
      </style><style
       type="text/css"
       id="current-color-scheme-1-5">
      .ColorScheme-Text {
        color:#122036;
      }
      </style><style
       id="current-color-scheme-10-6"
       type="text/css">
      .ColorScheme-Text {
        color:#122036;
      }
      </style><style
       type="text/css"
       id="current-color-scheme-0">
      .ColorScheme-Text {
        color:#122036;
      }
      </style><style
       id="current-color-scheme-27"
       type="text/css">
      .ColorScheme-Text {
        color:#122036;
      }
      </style><style
       type="text/css"
       id="current-color-scheme-5-0">
      .ColorScheme-Text {
        color:#122036;
      }
      </style><style
       type="text/css"
       id="current-color-scheme-2-9">
      .ColorScheme-Text {
        color:#122036;
      }
      </style><style
       type="text/css"
       id="current-color-scheme-1-3">
      .ColorScheme-Text {
        color:#122036;
      }
      </style><style
       id="current-color-scheme-10-60"
       type="text/css">
      .ColorScheme-Text {
        color:#122036;
      }
      </style><style
       type="text/css"
       id="current-color-scheme-0-6">
      .ColorScheme-Text {
        color:#122036;
      }
      </style><style
       type="text/css"
       id="current-color-scheme-26">
      .ColorScheme-Text {
        color:#122036;
      }
      </style><style
       type="text/css"
       id="current-color-scheme-675">
      .ColorScheme-Text {
        color:#36404d;
      }
      </style><style
       type="text/css"
       id="current-color-scheme-67">
      .ColorScheme-Text {
        color:#122036;
      }
      </style><style
       type="text/css"
       id="current-color-scheme-7-3">
      .ColorScheme-Text {
        color:#122036;
      }
      </style><style
       type="text/css"
       id="current-color-scheme-5-56">
      .ColorScheme-Text {
        color:#122036;
      }
      </style><style
       type="text/css"
       id="current-color-scheme-6">
      .ColorScheme-Text {
        color:#122036;
      }
      </style><style
       type="text/css"
       id="current-color-scheme-1-29">
      .ColorScheme-Text {
        color:#122036;
      }
      </style><style
       id="current-color-scheme-10-1"
       type="text/css">
      .ColorScheme-Text {
        color:#122036;
      }
      </style><style
       id="current-color-scheme-5-7"
       type="text/css">
      .ColorScheme-Text {
        color:#122036;
      }
      </style><style
       id="current-color-scheme-1-2"
       type="text/css">
      .ColorScheme-Text {
        color:#122036;
      }
      </style><style
       type="text/css"
       id="current-color-scheme-10-9">
      .ColorScheme-Text {
        color:#122036;
      }
      </style><style
       type="text/css"
       id="current-color-scheme-2-2">
      .ColorScheme-Text {
        color:#36404d;
      }
      </style><style
       type="text/css"
       id="current-color-scheme-67-9">
      .ColorScheme-Text {
        color:#122036;
      }
      </style><style
       type="text/css"
       id="current-color-scheme-7-1">
      .ColorScheme-Text {
        color:#122036;
      }
      </style><style
       type="text/css"
       id="current-color-scheme-5-2">
      .ColorScheme-Text {
        color:#122036;
      }
      </style><style
       type="text/css"
       id="current-color-scheme-6-7">
      .ColorScheme-Text {
        color:#122036;
      }
      </style><style
       type="text/css"
       id="current-color-scheme-1-0">
      .ColorScheme-Text {
        color:#122036;
      }
      </style><style
       id="current-color-scheme-10-93"
       type="text/css">
      .ColorScheme-Text {
        color:#122036;
      }
      </style><style
       id="current-color-scheme-5-7-6"
       type="text/css">
      .ColorScheme-Text {
        color:#122036;
      }
      </style><style
       id="current-color-scheme-1-2-0"
       type="text/css">
      .ColorScheme-Text {
        color:#122036;
      }
      </style><style
       type="text/css"
       id="current-color-scheme-10-9-6">
      .ColorScheme-Text {
        color:#122036;
      }
      </style><linearGradient
       id="b"
       gradientTransform="matrix(0.64285644,0,0,0.64285644,-246.50993,-330.86975)"
       gradientUnits="userSpaceOnUse"
       x2="0"
       y1="545.79797"
       y2="517.79797"><stop
         offset="0"
         stop-color="#fdc95f"
         id="stop4327" /><stop
         offset="1"
         stop-color="#fdd583"
         id="stop4329" /></linearGradient><linearGradient
       id="c"
       gradientUnits="userSpaceOnUse"
       x1="11"
       x2="11"
       xlink:href="#a"
       y1="11"
       y2="7" /><linearGradient
       id="a"><stop
         offset="0"
         stop-color="#814b13"
         id="stop4322" /><stop
         offset="1"
         stop-color="#9d5b17"
         id="stop4324" /></linearGradient><linearGradient
       id="d"
       gradientUnits="userSpaceOnUse"
       x1="11"
       x2="11"
       xlink:href="#a"
       y1="16"
       y2="13" /><linearGradient
       inkscape:collect="always"
       xlink:href="#linearGradient3798"
       id="linearGradient3800"
       x1="3.175"
       y1="5.1152778"
       x2="3.175"
       y2="1.0583333"
       gradientUnits="userSpaceOnUse"
       gradientTransform="matrix(1.0227273,0,0,1.0227273,-0.07215913,-0.07215852)" /><style
       id="current-color-scheme-53"
       type="text/css">
      .ColorScheme-Text {
        color:#122036;
      }
      </style><style
       type="text/css"
       id="current-color-scheme-5-562">
      .ColorScheme-Text {
        color:#122036;
      }
      </style><style
       type="text/css"
       id="current-color-scheme-2-91">
      .ColorScheme-Text {
        color:#122036;
      }
      </style><style
       type="text/css"
       id="current-color-scheme-1-27">
      .ColorScheme-Text {
        color:#122036;
      }
      </style><style
       id="current-color-scheme-10-0"
       type="text/css">
      .ColorScheme-Text {
        color:#122036;
      }
      </style><style
       id="current-color-scheme-7-9"
       type="text/css">
      .ColorScheme-Text {
        color:#122036;
      }
      </style><style
       type="text/css"
       id="current-color-scheme-5-5-3">
      .ColorScheme-Text {
        color:#122036;
      }
      </style><style
       type="text/css"
       id="current-color-scheme-2-3-6">
      .ColorScheme-Text {
        color:#122036;
      }
      </style><style
       type="text/css"
       id="current-color-scheme-1-5-0">
      .ColorScheme-Text {
        color:#122036;
      }
      </style><style
       id="current-color-scheme-10-6-6"
       type="text/css">
      .ColorScheme-Text {
        color:#122036;
      }
      </style><style
       type="text/css"
       id="current-color-scheme-0-2">
      .ColorScheme-Text {
        color:#122036;
      }
      </style><style
       id="current-color-scheme-27-6"
       type="text/css">
      .ColorScheme-Text {
        color:#122036;
      }
      </style><style
       type="text/css"
       id="current-color-scheme-5-0-1">
      .ColorScheme-Text {
        color:#122036;
      }
      </style><style
       type="text/css"
       id="current-color-scheme-2-9-8">
      .ColorScheme-Text {
        color:#122036;
      }
      </style><style
       type="text/css"
       id="current-color-scheme-1-3-7">
      .ColorScheme-Text {
        color:#122036;
      }
      </style><style
       id="current-color-scheme-10-60-9"
       type="text/css">
      .ColorScheme-Text {
        color:#122036;
      }
      </style><style
       type="text/css"
       id="current-color-scheme-0-6-2">
      .ColorScheme-Text {
        color:#122036;
      }
      </style><style
       type="text/css"
       id="current-color-scheme-26-0">
      .ColorScheme-Text {
        color:#122036;
      }
      </style><style
       type="text/css"
       id="current-color-scheme-675-2">
      .ColorScheme-Text {
        color:#36404d;
      }
      </style><style
       type="text/css"
       id="current-color-scheme-67-3">
      .ColorScheme-Text {
        color:#122036;
      }
      </style><style
       type="text/css"
       id="current-color-scheme-7-3-7">
      .ColorScheme-Text {
        color:#122036;
      }
      </style><style
       type="text/css"
       id="current-color-scheme-5-56-5">
      .ColorScheme-Text {
        color:#122036;
      }
      </style><style
       type="text/css"
       id="current-color-scheme-6-9">
      .ColorScheme-Text {
        color:#122036;
      }
      </style><style
       type="text/css"
       id="current-color-scheme-1-29-2">
      .ColorScheme-Text {
        color:#122036;
      }
      </style><style
       id="current-color-scheme-10-1-2"
       type="text/css">
      .ColorScheme-Text {
        color:#122036;
      }
      </style><style
       id="current-color-scheme-5-7-8"
       type="text/css">
      .ColorScheme-Text {
        color:#122036;
      }
      </style><style
       id="current-color-scheme-1-2-9"
       type="text/css">
      .ColorScheme-Text {
        color:#122036;
      }
      </style><style
       type="text/css"
       id="current-color-scheme-10-9-7">
      .ColorScheme-Text {
        color:#122036;
      }
      </style><style
       type="text/css"
       id="current-color-scheme-2-2-3">
      .ColorScheme-Text {
        color:#36404d;
      }
      </style><style
       type="text/css"
       id="current-color-scheme-67-9-6">
      .ColorScheme-Text {
        color:#122036;
      }
      </style><style
       type="text/css"
       id="current-color-scheme-7-1-1">
      .ColorScheme-Text {
        color:#122036;
      }
      </style><style
       type="text/css"
       id="current-color-scheme-5-2-2">
      .ColorScheme-Text {
        color:#122036;
      }
      </style><style
       type="text/css"
       id="current-color-scheme-6-7-9">
      .ColorScheme-Text {
        color:#122036;
      }
      </style><style
       type="text/css"
       id="current-color-scheme-1-0-3">
      .ColorScheme-Text {
        color:#122036;
      }
      </style><style
       id="current-color-scheme-10-93-1"
       type="text/css">
      .ColorScheme-Text {
        color:#122036;
      }
      </style><style
       id="current-color-scheme-5-7-6-9"
       type="text/css">
      .ColorScheme-Text {
        color:#122036;
      }
      </style><style
       id="current-color-scheme-1-2-0-4"
       type="text/css">
      .ColorScheme-Text {
        color:#122036;
      }
      </style><style
       type="text/css"
       id="current-color-scheme-10-9-6-7">
      .ColorScheme-Text {
        color:#122036;
      }
      </style><linearGradient
       id="b-8"
       gradientTransform="matrix(0.64285644,0,0,0.64285644,-246.50993,-330.86975)"
       gradientUnits="userSpaceOnUse"
       x2="0"
       y1="545.79797"
       y2="517.79797"><stop
         offset="0"
         stop-color="#fdc95f"
         id="stop4327-4" /><stop
         offset="1"
         stop-color="#fdd583"
         id="stop4329-5" /></linearGradient></defs><sodipodi:namedview
     id="base"
     pagecolor="#ffffff"
     bordercolor="#666666"
     borderopacity="1.0"
     inkscape:pageopacity="0.0"
     inkscape:pageshadow="2"
     inkscape:zoom="11.313708"
     inkscape:cx="42.028661"
     inkscape:cy="42.912545"
     inkscape:document-units="px"
     inkscape:current-layer="g4342"
     showgrid="true"
     units="px"
     inkscape:window-width="2160"
     inkscape:window-height="1335"
     inkscape:window-x="0"
     inkscape:window-y="0"
     inkscape:window-maximized="1"
     objecttolerance="10"
     gridtolerance="10"
     guidetolerance="10"
     inkscape:snap-bbox="true"
     inkscape:bbox-nodes="true"
     inkscape:bbox-paths="true"
     inkscape:snap-bbox-edge-midpoints="true"
     inkscape:snap-bbox-midpoints="true"
     inkscape:object-paths="true"
     inkscape:snap-intersection-paths="true"
     inkscape:object-nodes="true"
     inkscape:snap-smooth-nodes="false"
     inkscape:snap-midpoints="false"
     inkscape:showpageshadow="false"
     inkscape:pagecheckerboard="0"
     inkscape:deskcolor="#d1d1d1"><inkscape:grid
       type="xygrid"
       id="grid7897"
       empspacing="4" /></sodipodi:namedview><metadata
     id="metadata5"><rdf:RDF><cc:Work
         rdf:about=""><dc:format>image/svg+xml</dc:format><dc:type
           rdf:resource="http://purl.org/dc/dcmitype/StillImage" /><dc:title>Antu icon Theme</dc:title></cc:Work></rdf:RDF></metadata><g
     inkscape:label="Capa 1"
     inkscape:groupmode="layer"
     id="layer1"
     transform="translate(0,-266.64999)"><g
       id="g1535"
       transform="translate(35,-15.000005)"><g
         id="g911"
         transform="translate(-35,15)"><g
           id="g5422"
           transform="translate(-24,-4)"><g
             inkscape:label="Capa 1"
             id="layer1-7"
             transform="matrix(8.314961,0,0,8.314961,21.6,268.24999)"><path
               id="rect15701"
               style="opacity:1;fill:#fc9102;fill-opacity:1;stroke-width:0.529167;stroke-linecap:round;stroke-linejoin:round;stroke-miterlimit:1.8;paint-order:fill markers stroke;stop-color:#000000"
               d="m 3.1749999,0.52916664 c 1.4657916,0 2.6458332,1.18004166 2.6458332,2.64583326 0,1.4657916 -1.1800416,2.6458332 -2.6458332,2.6458332 -1.4657916,0 -2.64583326,-1.1800416 -2.64583326,-2.6458332 0,-1.4657916 1.18004166,-2.64583326 2.64583326,-2.64583326 z" /><path
               id="rect15701-2"
               style="fill:url(#linearGradient3800);fill-opacity:1;stroke-width:0.505114;stroke-linecap:round;stroke-linejoin:round;stroke-miterlimit:1.8;paint-order:fill markers stroke;stop-color:#000000"
               d="m 3.1749998,0.64943239 c 1.3991647,0 2.5255681,1.12640331 2.5255681,2.52556801 0,1.3991647 -1.1264034,2.5255681 -2.5255681,2.5255681 -1.3991647,0 -2.52556802,-1.1264034 -2.52556802,-2.5255681 0,-1.3991647 1.12640332,-2.52556801 2.52556802,-2.52556801 z" /><g
               transform="matrix(0.26458333,0,0,0.26458333,0.26561465,0.08819438)"
               id="g4342"
               style="fill:#864e14;fill-opacity:1"><path
                 style="opacity:1;fill:#864e14;fill-opacity:1;stroke-width:2.12121;stroke-linecap:round;stroke-linejoin:round;stroke-miterlimit:1.8;paint-order:fill markers stroke;stop-color:#000000"
                 d="m 14.859738,6.666669 c -0.881364,0 -1.590909,0.7095463 -1.590909,1.5909091 0,0.8813628 0.709545,1.5909089 1.590909,1.5909089 0.881362,0 1.590909,-0.7095461 1.590909,-1.5909089 0,-0.8813628 -0.709547,-1.5909091 -1.590909,-1.5909091 z"
                 id="path2639" /><path
                 style="opacity:1;fill:#864e14;fill-opacity:1;stroke-width:2.12121;stroke-linecap:round;stroke-linejoin:round;stroke-miterlimit:1.8;paint-order:fill markers stroke;stop-color:#000000"
                 d="m 7.1324654,6.666669 c -0.8813627,0 -1.590909,0.7095463 -1.590909,1.590909 0,0.8813629 0.7095463,1.590909 1.590909,1.590909 0.8813628,0 1.5909091,-0.7095461 1.5909091,-1.590909 0,-0.8813627 -0.7095463,-1.590909 -1.5909091,-1.590909 z"
                 id="rect5734" /><path
                 id="path2695"
                 style="opacity:1;fill:#864e14;stroke-width:0.50505;stroke-linecap:round;stroke-linejoin:round;stroke-miterlimit:1.8;paint-order:fill markers stroke;stop-color:#000000"
                 d="M 7.8142836 13.484851 L 6.4506473 13.484851 A 4.5454545 4.5454545 0 0 0 8.7233745 17.421285 A 4.5454545 4.5454545 0 0 0 13.268829 17.421285 A 4.5454545 4.5454545 0 0 0 15.541556 13.484851 L 14.17792 13.484851 C 14.17792 13.539936 14.17622 13.594709 14.173481 13.649091 C 14.170742 13.703472 14.167352 13.757056 14.16194 13.810667 C 14.156528 13.864279 14.14954 13.917692 14.141521 13.970468 C 14.133501 14.023245 14.123673 14.075731 14.113112 14.127606 C 14.10255 14.179482 14.091526 14.231172 14.078488 14.282081 C 14.06545 14.332989 14.050435 14.383127 14.034987 14.433004 C 14.019538 14.482881 14.003064 14.532485 13.985271 14.581264 C 13.967477 14.630043 13.948525 14.678357 13.928452 14.725973 C 13.90838 14.773588 13.887706 14.819856 13.86542 14.866243 C 13.843133 14.912629 13.819719 14.958758 13.795285 15.003849 C 13.77085 15.048941 13.745452 15.093286 13.718935 15.137017 C 13.692418 15.180748 13.664905 15.224328 13.636372 15.266633 C 13.607838 15.308938 13.578078 15.35011 13.547593 15.390923 C 13.517108 15.431736 13.485858 15.471518 13.453488 15.510774 C 13.421118 15.55003 13.387359 15.588553 13.353168 15.626186 C 13.318978 15.663819 13.284354 15.701214 13.24841 15.737159 C 13.212465 15.773103 13.17507 15.807727 13.137437 15.841917 C 13.099804 15.876108 13.061281 15.909866 13.022025 15.942237 C 12.982769 15.974607 12.942988 16.005857 12.902174 16.036342 C 12.861361 16.066827 12.820189 16.096587 12.777884 16.12512 C 12.735579 16.153654 12.691999 16.181167 12.648268 16.207684 C 12.604537 16.234201 12.560192 16.259599 12.5151 16.284034 C 12.470009 16.308468 12.42388 16.331882 12.377494 16.354169 C 12.331107 16.376455 12.284839 16.397129 12.237224 16.417201 C 12.189608 16.437274 12.141294 16.456226 12.092515 16.474019 C 12.043736 16.491813 11.994132 16.508287 11.944255 16.523735 C 11.894378 16.539184 11.844241 16.554199 11.793332 16.567237 C 11.742423 16.580275 11.690733 16.591299 11.638857 16.60186 C 11.586982 16.612422 11.534496 16.62225 11.48172 16.630269 C 11.428943 16.638289 11.37553 16.645276 11.321918 16.650689 C 11.268307 16.656101 11.214723 16.659491 11.160342 16.66223 C 11.105961 16.664969 11.051187 16.666669 10.996102 16.666669 C 10.941017 16.666669 10.886243 16.664969 10.831862 16.66223 C 10.77748 16.659491 10.723897 16.656101 10.670285 16.650689 C 10.616673 16.645276 10.56326 16.638289 10.510484 16.630269 C 10.457708 16.62225 10.405221 16.612422 10.353346 16.60186 C 10.301471 16.591299 10.24978 16.580275 10.198872 16.567237 C 10.147963 16.554199 10.097825 16.539184 10.047948 16.523735 C 9.9980717 16.508287 9.9484672 16.491813 9.8996884 16.474019 C 9.8509096 16.456226 9.802595 16.437274 9.7549796 16.417201 C 9.7073642 16.397129 9.661096 16.376455 9.6147097 16.354169 C 9.5683235 16.331882 9.5221947 16.308468 9.4771032 16.284034 C 9.4320117 16.259599 9.3876667 16.234201 9.3439356 16.207684 C 9.3002045 16.181167 9.2566242 16.153654 9.2143191 16.12512 C 9.172014 16.096587 9.1308427 16.066827 9.0900293 16.036342 C 9.0492159 16.005857 9.0094346 15.974607 8.9701785 15.942237 C 8.9309224 15.909866 8.8923997 15.876108 8.8547666 15.841917 C 8.8171334 15.807727 8.7797381 15.773103 8.7437935 15.737159 C 8.707849 15.701214 8.6732254 15.663819 8.639035 15.626186 C 8.6048447 15.588553 8.5710859 15.55003 8.5387154 15.510774 C 8.506345 15.471518 8.4750953 15.431736 8.4446103 15.390923 C 8.4141254 15.35011 8.3843657 15.308938 8.3558319 15.266633 C 8.3272981 15.224328 8.299785 15.180748 8.273268 15.137017 C 8.246751 15.093286 8.2213531 15.048941 8.1969186 15.003849 C 8.172484 14.958758 8.1490701 14.912629 8.1267836 14.866243 C 8.1044971 14.819856 8.0838237 14.773588 8.063751 14.725973 C 8.0436782 14.678357 8.0247262 14.630043 8.0069328 14.581264 C 7.9891394 14.532485 7.9726653 14.482881 7.9572169 14.433004 C 7.9417684 14.383127 7.9267532 14.332989 7.9137154 14.282081 C 7.9006777 14.231172 7.8896534 14.179482 7.8790919 14.127606 C 7.8685304 14.075731 7.8587024 14.023245 7.8506828 13.970468 C 7.8426632 13.917692 7.8356758 13.864279 7.8302637 13.810667 C 7.8248517 13.757056 7.8214614 13.703472 7.8187226 13.649091 C 7.8159837 13.594709 7.8142836 13.539936 7.8142836 13.484851 z " /></g></g></g></g></g></g></svg>
