<?xml version="1.0" encoding="UTF-8" standalone="no"?>
<!-- Created with Inkscape (http://www.inkscape.org/) -->

<svg
   xmlns:dc="http://purl.org/dc/elements/1.1/"
   xmlns:cc="http://creativecommons.org/ns#"
   xmlns:rdf="http://www.w3.org/1999/02/22-rdf-syntax-ns#"
   xmlns:svg="http://www.w3.org/2000/svg"
   xmlns="http://www.w3.org/2000/svg"
   xmlns:xlink="http://www.w3.org/1999/xlink"
   xmlns:sodipodi="http://sodipodi.sourceforge.net/DTD/sodipodi-0.dtd"
   xmlns:inkscape="http://www.inkscape.org/namespaces/inkscape"
   width="48"
   height="48"
   viewBox="0 0 48 48"
   version="1.1"
   id="svg8"
   inkscape:version="0.92.2 2405546, 2018-03-11"
   sodipodi:docname="face-smile.svg">
  <title
     id="title7895">Antu icon Theme</title>
  <defs
     id="defs2">
    <linearGradient
       inkscape:collect="always"
       id="linearGradient1545">
      <stop
         style="stop-color:#e5e5e5;stop-opacity:1"
         offset="0"
         id="stop1541" />
      <stop
         style="stop-color:#fbfbfb;stop-opacity:1"
         offset="1"
         id="stop1543" />
    </linearGradient>
    <linearGradient
       inkscape:collect="always"
       id="linearGradient1529">
      <stop
         style="stop-color:#e5e5e5;stop-opacity:1"
         offset="0"
         id="stop1525" />
      <stop
         style="stop-color:#fbfbfb;stop-opacity:1"
         offset="1"
         id="stop1527" />
    </linearGradient>
    <linearGradient
       inkscape:collect="always"
       id="linearGradient1517">
      <stop
         style="stop-color:#21262f;stop-opacity:1"
         offset="0"
         id="stop1513" />
      <stop
         style="stop-color:#090a0c;stop-opacity:1"
         offset="1"
         id="stop1515" />
    </linearGradient>
    <linearGradient
       inkscape:collect="always"
       id="linearGradient1146">
      <stop
         style="stop-color:#ffce00;stop-opacity:1"
         offset="0"
         id="stop1142" />
      <stop
         style="stop-color:#ffe200;stop-opacity:1"
         offset="1"
         id="stop1144" />
    </linearGradient>
    <linearGradient
       inkscape:collect="always"
       id="linearGradient4766-0">
      <stop
         style="stop-color:#222731;stop-opacity:1"
         offset="0"
         id="stop4762" />
      <stop
         id="stop4828"
         offset="0.4999994"
         style="stop-color:#15181e;stop-opacity:1;" />
      <stop
         style="stop-color:#090a0c;stop-opacity:1"
         offset="1"
         id="stop4764" />
    </linearGradient>
    <linearGradient
       inkscape:collect="always"
       xlink:href="#linearGradient1146"
       id="linearGradient1148"
       x1="48"
       y1="291.64999"
       x2="48"
       y2="272.64999"
       gradientUnits="userSpaceOnUse" />
    <linearGradient
       inkscape:collect="always"
       xlink:href="#linearGradient4766-0"
       id="linearGradient1422"
       gradientUnits="userSpaceOnUse"
       gradientTransform="matrix(3.7795275,0,0,3.7751555,0,-806.57115)"
       x1="4.2333336"
       y1="295.67706"
       x2="4.2333336"
       y2="294.61874" />
    <linearGradient
       inkscape:collect="always"
       xlink:href="#linearGradient1517"
       id="linearGradient1519"
       x1="48"
       y1="311.64999"
       x2="48"
       y2="303.64999"
       gradientUnits="userSpaceOnUse" />
    <linearGradient
       inkscape:collect="always"
       xlink:href="#linearGradient1529"
       id="linearGradient1531"
       x1="40"
       y1="299.64999"
       x2="40"
       y2="289.64999"
       gradientUnits="userSpaceOnUse" />
    <linearGradient
       inkscape:collect="always"
       xlink:href="#linearGradient1529"
       id="linearGradient1539"
       x1="56"
       y1="299.64999"
       x2="56"
       y2="289.64999"
       gradientUnits="userSpaceOnUse" />
    <linearGradient
       inkscape:collect="always"
       xlink:href="#linearGradient1545"
       id="linearGradient1547"
       x1="15.951819"
       y1="295.46219"
       x2="14.999999"
       y2="283.31665"
       gradientUnits="userSpaceOnUse" />
  </defs>
  <sodipodi:namedview
     id="base"
     pagecolor="#ffffff"
     bordercolor="#666666"
     borderopacity="1.0"
     inkscape:pageopacity="0.0"
     inkscape:pageshadow="2"
     inkscape:zoom="11.313708"
     inkscape:cx="17.022476"
     inkscape:cy="33.944314"
     inkscape:document-units="px"
     inkscape:current-layer="g5422"
     showgrid="true"
     units="px"
     inkscape:window-width="1360"
     inkscape:window-height="711"
     inkscape:window-x="0"
     inkscape:window-y="28"
     inkscape:window-maximized="1"
     objecttolerance="10"
     gridtolerance="10"
     guidetolerance="10"
     inkscape:snap-bbox="true"
     inkscape:bbox-nodes="true"
     inkscape:bbox-paths="true"
     inkscape:snap-bbox-edge-midpoints="true"
     inkscape:snap-bbox-midpoints="true"
     inkscape:object-paths="true"
     inkscape:snap-intersection-paths="true"
     inkscape:object-nodes="true"
     inkscape:snap-smooth-nodes="false"
     inkscape:snap-midpoints="false"
     inkscape:showpageshadow="false">
    <inkscape:grid
       type="xygrid"
       id="grid7897"
       empspacing="4" />
  </sodipodi:namedview>
  <metadata
     id="metadata5">
    <rdf:RDF>
      <cc:Work
         rdf:about="">
        <dc:format>image/svg+xml</dc:format>
        <dc:type
           rdf:resource="http://purl.org/dc/dcmitype/StillImage" />
        <dc:title>Antu icon Theme</dc:title>
      </cc:Work>
    </rdf:RDF>
  </metadata>
  <g
     inkscape:label="Capa 1"
     inkscape:groupmode="layer"
     id="layer1"
     transform="translate(0,-266.64999)">
    <g
       id="g1535"
       transform="translate(35,-15.000005)">
      <g
         id="g911"
         transform="translate(-35,15)">
        <g
           id="g5422"
           transform="translate(-24,-4)">
          <g
             id="g1579"
             transform="translate(0,1)">
            <g
               inkscape:label="Capa 1"
               id="layer1-2-6"
               transform="matrix(1.5,0,0,1.5,24.000001,-153.32499)">
              <path
                 sodipodi:nodetypes="cccccccccccccccccccccccccc"
                 inkscape:connector-curvature="0"
                 id="path1510"
                 d="m 8.666666,299.31666 v -0.66667 H 4.0280373 l 3.3052954,-2 -5.3333334,-2.66667 h 5.3333334 l -4.6666667,-3.33333 6.704424,0.004 -3.3710906,-4.00389 4.6666666,2 v -4 l 3.333333,3.33333 v -3.33333 l 4,3.33333 4,-3.33333 v 4.03021 l 4,-3.36354 -2,6.66666 4.666667,-1.33333 -4,3.33333 3.333333,-1.1e-4 -2.666666,2.66667 2,2 -4.666667,1.1e-4 v 0.66667 z"
                 style="fill:#d90827;fill-opacity:1;stroke:none;stroke-width:0.66666669px;stroke-linecap:butt;stroke-linejoin:miter;stroke-opacity:1" />
              <path
                 sodipodi:nodetypes="cccccccccccccccccccccccccc"
                 inkscape:connector-curvature="0"
                 id="path1499"
                 d="m 10.666666,298.64999 v -0.66667 h -4 l 2.6666667,-1.33333 -4,-2 h 4.6666667 l -4,-3.33333 h 5.3333336 l -2.666667,-2.66667 3.333333,0.66667 v -2.66667 l 3.333334,3.33333 v -3.33333 l 2.666666,2.03021 3.333334,-2.03021 v 4 l 2.666666,-2 -2,4.02561 2.666667,-0.0256 -2,1.99999 3.333333,-3e-5 -2,2.00003 2,1.33333 -4,-3e-5 v 0.66667 z"
                 style="fill:#fa3753;fill-opacity:1;stroke:none;stroke-width:0.66666669px;stroke-linecap:butt;stroke-linejoin:miter;stroke-opacity:1" />
              <path
                 style="opacity:1;fill:#a3b9bf;fill-opacity:1;stroke:none;stroke-width:1.33333337;stroke-linecap:round;stroke-linejoin:round;stroke-miterlimit:4;stroke-dasharray:none;stroke-opacity:1"
                 d="m 14.999999,282.64999 c -1.93205,0 -3.503116,1.47826 -3.652344,3.36849 -0.115576,-0.0134 -0.228367,-0.0352 -0.347656,-0.0352 -1.662,0 -3,1.33602 -3,2.9961 v 0.008 c 0,0.424 0.089722,0.8252 0.247396,1.1901 -1.3070513,0.44976 -2.247396,1.67334 -2.247396,3.13542 v 0.008 c 0,1.84453 1.4866667,3.32943 3.3333334,3.32943 0.131744,0 0.26035,-0.01 0.3880206,-0.0247 0.600279,1.20134 1.838191,2.02474 3.278646,2.02474 1.420889,0 2.645985,-0.8005 3.255208,-1.97526 0.589951,0.40471 1.305278,0.64193 2.078125,0.64193 1.738277,0 3.183398,-1.19725 3.565104,-2.81381 1.217021,-0.37735 2.101563,-1.49431 2.101563,-2.83723 0,-0.96396 -0.460944,-1.80915 -1.166667,-2.35417 0.315322,-0.47449 0.5,-1.04296 0.5,-1.65755 v -0.008 c 0,-1.66007 -1.338,-2.99609 -3,-2.99609 -0.687724,0 -1.312781,0.23779 -1.817708,0.6237 -0.446668,-1.51921 -1.846318,-2.6237 -3.515625,-2.6237 z"
                 id="rect1426"
                 inkscape:connector-curvature="0" />
              <path
                 inkscape:connector-curvature="0"
                 style="opacity:1;fill:#32b000;fill-opacity:1;stroke:none;stroke-width:0.80800134;stroke-linecap:round;stroke-linejoin:round;stroke-miterlimit:4;stroke-dasharray:none;stroke-opacity:1;paint-order:stroke markers fill"
                 d="m 3.9999968,283.98332 c 1.108003,0 2.000002,0.89197 2.000002,1.99999 0,1.10802 -0.891999,2.00001 -2.000002,2.00001 -1.107998,0 -1.999997,-0.89199 -1.999997,-2.00001 0,-1.10802 0.891999,-1.99999 1.999997,-1.99999 z"
                 id="rect1226-7" />
              <path
                 inkscape:connector-curvature="0"
                 style="opacity:1;fill:#4afe16;fill-opacity:1;stroke:none;stroke-width:1.07732916;stroke-linecap:round;stroke-linejoin:round;stroke-miterlimit:4;stroke-dasharray:none;stroke-opacity:1;paint-order:stroke markers fill"
                 d="m 3.9999993,284.64999 c 0.738665,0 1.3333314,0.5947 1.3333314,1.33338 0,0.73866 -0.5946664,1.33329 -1.3333314,1.33329 -0.7386649,0 -1.3333353,-0.59463 -1.3333353,-1.33329 0,-0.73868 0.5946704,-1.33338 1.3333353,-1.33338 z"
                 id="rect1228-8" />
              <path
                 inkscape:connector-curvature="0"
                 style="opacity:1;fill:#ba008d;fill-opacity:1;stroke:none;stroke-width:0.80800134;stroke-linecap:round;stroke-linejoin:round;stroke-miterlimit:4;stroke-dasharray:none;stroke-opacity:1;paint-order:stroke markers fill"
                 d="m 28.666667,285.98332 c 1.108,0 1.999999,0.89201 1.999999,2.00001 0,1.10798 -0.891999,1.99999 -1.999999,1.99999 -1.108001,0 -2,-0.89201 -2,-1.99999 0,-1.108 0.891999,-2.00001 2,-2.00001 z"
                 id="rect1226-2-6" />
              <path
                 inkscape:connector-curvature="0"
                 style="opacity:1;fill:#ff17c8;fill-opacity:1;stroke:none;stroke-width:1.07734084;stroke-linecap:round;stroke-linejoin:round;stroke-miterlimit:4;stroke-dasharray:none;stroke-opacity:1;paint-order:stroke markers fill"
                 d="m 28.666665,286.64999 c 0.738668,0 1.333335,0.59465 1.333335,1.33332 0,0.73869 -0.594667,1.33335 -1.333335,1.33335 -0.738665,0 -1.333333,-0.59466 -1.333333,-1.33335 0,-0.73867 0.594668,-1.33332 1.333333,-1.33332 z"
                 id="rect1228-7-8" />
              <path
                 inkscape:connector-curvature="0"
                 style="opacity:1;fill:#0d72ec;fill-opacity:1;stroke:none;stroke-width:0.80800235;stroke-linecap:round;stroke-linejoin:round;stroke-miterlimit:4;stroke-dasharray:none;stroke-opacity:1;paint-order:stroke markers fill"
                 d="m 2.6666635,292.64999 c 1.108003,0 2.000002,0.89201 2.000002,2.00003 0,1.10799 -0.891999,1.99997 -2.000002,1.99997 -1.107998,0 -1.999997,-0.89198 -1.999997,-1.99997 0,-1.10802 0.891999,-2.00003 1.999997,-2.00003 z"
                 id="rect1226-2-3-8" />
              <path
                 style="opacity:1;fill:#0d72ec;fill-opacity:1;stroke:none;stroke-width:0.7182222;stroke-linecap:round;stroke-linejoin:round;stroke-miterlimit:4;stroke-dasharray:none;stroke-opacity:1;paint-order:stroke markers fill"
                 d="m 23.999999,282.64999 c 0.738667,0 1.333334,0.59468 1.333334,1.33335 0,0.73868 -0.594667,1.33332 -1.333334,1.33332 -0.738666,0 -1.333333,-0.59464 -1.333333,-1.33332 0,-0.73867 0.594667,-1.33335 1.333333,-1.33335 z"
                 id="rect1351-4"
                 inkscape:connector-curvature="0" />
              <path
                 style="opacity:1;fill:url(#linearGradient1547);fill-opacity:1;stroke:none;stroke-width:1.33333337;stroke-linecap:round;stroke-linejoin:round;stroke-miterlimit:4;stroke-dasharray:none;stroke-opacity:1"
                 d="m 14.999999,283.31666 c -1.662,0 -3,1.33601 -3,2.99609 v 0.008 c 0,0.20305 0.02172,0.40094 0.05989,0.59245 -0.318968,-0.16296 -0.675694,-0.26302 -1.059893,-0.26302 -1.2926666,0 -2.3333333,1.03956 -2.3333333,2.33073 v 0.005 c 0,0.65594 0.270668,1.24523 0.7044273,1.66797 -0.012897,-1.9e-4 -0.024819,-0.004 -0.037761,-0.004 -1.4773334,0 -2.6666667,1.18844 -2.6666667,2.66406 v 0.005 c 0,1.47564 1.1893333,2.66407 2.6666667,2.66407 0.2835193,0 0.5513573,-0.0556 0.807292,-0.13672 0.37015,1.2354 1.498971,2.13672 2.859375,2.13672 1.498923,0 2.723819,-1.08971 2.951823,-2.52083 0.547077,0.71814 1.404332,1.1875 2.38151,1.1875 1.559253,0 2.818482,-1.18034 2.970052,-2.69661 1.146694,-0.14911 2.029948,-1.11349 2.029948,-2.30079 v -0.005 c 0,-1.01239 -0.643564,-1.86174 -1.542968,-2.1849 0.530782,-0.4265 0.876302,-1.07344 0.876302,-1.8099 v -0.005 c 0,-1.29118 -1.040667,-2.33073 -2.333334,-2.33073 -0.710786,0 -1.337034,0.32141 -1.764322,0.81901 -0.19244,-0.0607 -0.391652,-0.10014 -0.598959,-0.1211 -0.150977,-1.5169 -1.410357,-2.69791 -2.970052,-2.69791 z"
                 id="rect1442"
                 inkscape:connector-curvature="0" />
              <path
                 style="opacity:1;fill:#37c8ff;fill-opacity:1;stroke:none;stroke-width:1.07734585;stroke-linecap:round;stroke-linejoin:round;stroke-miterlimit:4;stroke-dasharray:none;stroke-opacity:1;paint-order:stroke markers fill"
                 d="m 24,283.31666 c 0.36933,0 0.666666,0.29732 0.666666,0.66666 0,0.3694 -0.297333,0.66667 -0.666666,0.66667 -0.369335,0 -0.666667,-0.29732 -0.666667,-0.66667 0,-0.36939 0.297333,-0.66666 0.666667,-0.66666 z"
                 id="rect1353-3"
                 inkscape:connector-curvature="0" />
              <path
                 inkscape:connector-curvature="0"
                 id="rect1357-1"
                 d="m 28.666666,292.64999 c 0.738667,0 1.333334,0.59467 1.333334,1.33333 0,0.73867 -0.594667,1.33334 -1.333334,1.33334 -0.738666,0 -1.333333,-0.59467 -1.333333,-1.33334 0,-0.73866 0.594667,-1.33333 1.333333,-1.33333 z"
                 style="opacity:1;fill:#ff9117;fill-opacity:1;stroke:none;stroke-width:0.71822256;stroke-linecap:round;stroke-linejoin:round;stroke-miterlimit:4;stroke-dasharray:none;stroke-opacity:1;paint-order:stroke markers fill" />
              <path
                 inkscape:connector-curvature="0"
                 d=""
                 style="opacity:1;fill:url(#linearGradient1422);fill-opacity:1;stroke:none;stroke-width:0.88460761;stroke-linecap:round;stroke-linejoin:round;stroke-miterlimit:4;stroke-dasharray:none;stroke-opacity:1;paint-order:stroke markers fill"
                 id="path1361-49"
                 r="0.79374999"
                 cy="295.14789"
                 cx="4.2333331" />
              <path
                 id="rect1438"
                 d="m 22,293.47693 c 0,0 0,0 0,0 v 2.50641 c 0,0 0,0 0,0 0,0 0,0 0,0 v -2.50641 c 0,0 0,0 0,0 z"
                 style="opacity:1;fill:#053753;fill-opacity:1;stroke:none;stroke-width:1.33333325;stroke-linecap:round;stroke-linejoin:round;stroke-miterlimit:4;stroke-dasharray:none;stroke-opacity:1"
                 inkscape:connector-curvature="0" />
              <path
                 inkscape:connector-curvature="0"
                 style="opacity:1;fill:#37c8ff;fill-opacity:1;stroke:none;stroke-width:1.07733285;stroke-linecap:round;stroke-linejoin:round;stroke-miterlimit:4;stroke-dasharray:none;stroke-opacity:1;paint-order:stroke markers fill"
                 d="m 2.6666846,293.31666 c 0.7386663,0 1.3333314,0.59464 1.3333314,1.33332 0,0.73867 -0.5946651,1.33331 -1.3333314,1.33331 -0.7386649,-1e-5 -1.3333353,-0.59464 -1.3333353,-1.33332 0,-0.73868 0.5946704,-1.33332 1.3333353,-1.33331 z"
                 id="rect1228-7-6-2" />
              <path
                 inkscape:connector-curvature="0"
                 style="opacity:1;fill:#ffea5c;fill-opacity:1;stroke:none;stroke-width:1.07733333;stroke-linecap:round;stroke-linejoin:round;stroke-miterlimit:4;stroke-dasharray:none;stroke-opacity:1;paint-order:stroke markers fill"
                 d="m 28.666668,293.31666 c 0.369329,0 0.666664,0.29732 0.666664,0.66666 0,0.36939 -0.297332,0.66667 -0.666664,0.66667 -0.369336,0 -0.666668,-0.29732 -0.666668,-0.66667 0,-0.36938 0.297332,-0.66666 0.666668,-0.66666 z"
                 id="rect1359-0" />
            </g>
            <g
               transform="translate(0,23.000005)"
               id="g849">
              <path
                 id="path828"
                 transform="translate(24,247.64999)"
                 d="m 2,24 v 1 A 22,22 0 0 0 24,47 22,22 0 0 0 46,25 v -1 z"
                 style="opacity:1;fill:#ff9600;fill-opacity:0.96078431;stroke:none;stroke-width:2;stroke-linecap:round;stroke-linejoin:round;stroke-miterlimit:4;stroke-dasharray:none;stroke-opacity:1"
                 inkscape:connector-curvature="0" />
              <path
                 style="opacity:1;fill:url(#linearGradient1148);fill-opacity:1;stroke:none;stroke-width:1.90909088;stroke-linecap:round;stroke-linejoin:round;stroke-miterlimit:4;stroke-dasharray:none;stroke-opacity:1"
                 d="m 27,272.64999 a 21,21 0 0 0 21,21 21,21 0 0 0 21,-21 H 48 Z"
                 id="path828-3"
                 inkscape:connector-curvature="0" />
            </g>
            <path
               id="rect1150"
               d="m 40,288.64999 c 3.324,0 6,2.676 6,6 0,3.324 -2.676,6 -6,6 -3.324,0 -6,-2.676 -6,-6 0,-3.324 2.676,-6 6,-6 z"
               style="opacity:1;fill:#ff9600;fill-opacity:0.96078431;stroke:none;stroke-width:2;stroke-linecap:round;stroke-linejoin:round;stroke-miterlimit:4;stroke-dasharray:none;stroke-opacity:1"
               inkscape:connector-curvature="0" />
            <path
               id="rect1150-5"
               d="m 56,288.64999 c 3.324,0 6,2.676 6,6 0,3.324 -2.676,6 -6,6 -3.324,0 -6,-2.676 -6,-6 0,-3.324 2.676,-6 6,-6 z"
               style="opacity:1;fill:#ff9600;fill-opacity:0.96078431;stroke:none;stroke-width:2;stroke-linecap:round;stroke-linejoin:round;stroke-miterlimit:4;stroke-dasharray:none;stroke-opacity:1"
               inkscape:connector-curvature="0" />
            <path
               id="rect1150-0"
               d="m 40,289.64999 c 2.77,0 5,2.23 5,5 v 0 c 0,2.77 -2.23,5 -5,5 -2.77,0 -5,-2.23 -5,-5 v 0 c 0,-2.77 2.23,-5 5,-5 z"
               style="opacity:1;fill:url(#linearGradient1531);fill-opacity:1;stroke:none;stroke-width:2;stroke-linecap:round;stroke-linejoin:round;stroke-miterlimit:4;stroke-dasharray:none;stroke-opacity:1"
               inkscape:connector-curvature="0" />
            <path
               id="rect1182"
               d="m 56,289.64999 c 2.77,0 5,2.23 5,5 0,2.77 -2.23,5 -5,5 -2.77,0 -5,-2.23 -5,-5 0,-2.77 2.23,-5 5,-5 z"
               style="opacity:1;fill:url(#linearGradient1539);fill-opacity:1;stroke:none;stroke-width:2;stroke-linecap:round;stroke-linejoin:round;stroke-miterlimit:4;stroke-dasharray:none;stroke-opacity:1"
               inkscape:connector-curvature="0" />
            <path
               id="rect1184"
               d="m 40,292.64999 c 1.108,0 2,0.892 2,2 0,1.108 -0.892,2 -2,2 -1.108,0 -2,-0.892 -2,-2 0,-1.108 0.892,-2 2,-2 z"
               style="opacity:1;fill:#15181e;fill-opacity:1;stroke:none;stroke-width:2;stroke-linecap:round;stroke-linejoin:round;stroke-miterlimit:4;stroke-dasharray:none;stroke-opacity:1"
               inkscape:connector-curvature="0" />
            <path
               id="rect1186"
               d="m 56,292.64999 c 1.108,0 2,0.892 2,2 0,1.108 -0.892,2 -2,2 -1.108,0 -2,-0.892 -2,-2 0,-1.108 0.892,-2 2,-2 z"
               style="opacity:1;fill:#15181e;fill-opacity:1;stroke:none;stroke-width:2;stroke-linecap:round;stroke-linejoin:round;stroke-miterlimit:4;stroke-dasharray:none;stroke-opacity:1"
               inkscape:connector-curvature="0" />
            <path
               id="rect1188"
               d="m 48,303.64999 c 2.216,0 4,1.784 4,4 0,2.216 -1.784,4 -4,4 -2.216,0 -4,-1.784 -4,-4 0,-2.216 1.784,-4 4,-4 z"
               style="opacity:1;fill:url(#linearGradient1519);fill-opacity:1;stroke:none;stroke-width:2;stroke-linecap:round;stroke-linejoin:round;stroke-miterlimit:4;stroke-dasharray:none;stroke-opacity:1"
               inkscape:connector-curvature="0" />
          </g>
        </g>
      </g>
    </g>
  </g>
</svg>
