<?xml version="1.0" encoding="UTF-8" standalone="no"?>
<!-- Created with Inkscape (http://www.inkscape.org/) -->

<svg
   xmlns:dc="http://purl.org/dc/elements/1.1/"
   xmlns:cc="http://creativecommons.org/ns#"
   xmlns:rdf="http://www.w3.org/1999/02/22-rdf-syntax-ns#"
   xmlns:svg="http://www.w3.org/2000/svg"
   xmlns="http://www.w3.org/2000/svg"
   xmlns:xlink="http://www.w3.org/1999/xlink"
   xmlns:sodipodi="http://sodipodi.sourceforge.net/DTD/sodipodi-0.dtd"
   xmlns:inkscape="http://www.inkscape.org/namespaces/inkscape"
   width="32"
   height="32"
   viewBox="0 0 8.4666662 8.4666664"
   version="1.1"
   id="svg1399"
   inkscape:version="0.92.4 5da689c313, 2019-01-14"
   sodipodi:docname="system-help.svg">
  <defs
     id="defs1393">
    <style
       id="current-color-scheme"
       type="text/css">
      .ColorScheme-Text {
        color:#36404d;
      }
      </style>
    <linearGradient
       inkscape:collect="always"
       id="linearGradient4902-9">
      <stop
         style="stop-color:#5563b2;stop-opacity:1"
         offset="0"
         id="stop4898-2" />
      <stop
         style="stop-color:#7986cb;stop-opacity:1"
         offset="1"
         id="stop4900-2" />
    </linearGradient>
    <style
       id="current-color-scheme-7"
       type="text/css">
      .ColorScheme-Text {
        color:#36404d;
      }
      </style>
    <linearGradient
       inkscape:collect="always"
       xlink:href="#linearGradient4902-9"
       id="linearGradient870"
       x1="-4.0424514"
       y1="298.60214"
       x2="-4.0424514"
       y2="291.72299"
       gradientUnits="userSpaceOnUse" />
  </defs>
  <sodipodi:namedview
     id="base"
     pagecolor="#ffffff"
     bordercolor="#666666"
     borderopacity="1.0"
     inkscape:pageopacity="0.0"
     inkscape:pageshadow="2"
     inkscape:zoom="16"
     inkscape:cx="-1.1375406"
     inkscape:cy="16.509493"
     inkscape:document-units="px"
     inkscape:current-layer="layer1"
     showgrid="true"
     inkscape:showpageshadow="false"
     units="px"
     inkscape:window-width="1920"
     inkscape:window-height="991"
     inkscape:window-x="0"
     inkscape:window-y="0"
     inkscape:window-maximized="1"
     inkscape:snap-bbox="true">
    <inkscape:grid
       type="xygrid"
       id="grid1821" />
  </sodipodi:namedview>
  <metadata
     id="metadata1396">
    <rdf:RDF>
      <cc:Work
         rdf:about="">
        <dc:format>image/svg+xml</dc:format>
        <dc:type
           rdf:resource="http://purl.org/dc/dcmitype/StillImage" />
        <dc:title></dc:title>
      </cc:Work>
    </rdf:RDF>
  </metadata>
  <g
     inkscape:label="Capa 1"
     inkscape:groupmode="layer"
     id="layer1"
     transform="translate(0,-288.53338)">
    <g
       id="g1819"
       transform="translate(8.2757846,-2.3958568)"
       style="fill:#4a5599;fill-opacity:1">
      <path
         inkscape:connector-curvature="0"
         style="fill:#4a5599;fill-opacity:1;stroke:none;stroke-width:0.38884729;stroke-linecap:round;stroke-linejoin:round;stroke-miterlimit:4;stroke-dasharray:none;stroke-opacity:1"
         d="m -4.0424515,291.19383 c 2.1986874,0 3.9687499,1.77002 3.9687499,3.96873 0,2.19867 -1.7700625,3.96875 -3.9687499,3.96875 -2.1986872,0 -3.9687498,-1.77008 -3.9687498,-3.96875 0,-2.19871 1.7700626,-3.96873 3.9687498,-3.96873 z"
         id="rect4496" />
      <path
         inkscape:connector-curvature="0"
         style="fill:url(#linearGradient870);fill-opacity:1;stroke:none;stroke-width:0.37100002;stroke-linecap:round;stroke-linejoin:round;stroke-miterlimit:4;stroke-dasharray:none;stroke-opacity:1"
         d="m -4.0424512,291.4584 c 2.052108,0 3.7041662,1.65204 3.7041662,3.70416 0,2.05212 -1.6520582,3.70419 -3.7041662,3.70419 -2.0521085,0 -3.7041668,-1.65207 -3.7041668,-3.70419 0,-2.05212 1.6520583,-3.70416 3.7041668,-3.70416 z"
         id="rect4570-9-6" />
    </g>
    <path
       style="color:#000000;font-style:normal;font-variant:normal;font-weight:normal;font-stretch:normal;font-size:medium;line-height:normal;font-family:sans-serif;font-variant-ligatures:normal;font-variant-position:normal;font-variant-caps:normal;font-variant-numeric:normal;font-variant-alternates:normal;font-feature-settings:normal;text-indent:0;text-align:start;text-decoration:none;text-decoration-line:none;text-decoration-style:solid;text-decoration-color:#000000;letter-spacing:normal;word-spacing:normal;text-transform:none;writing-mode:lr-tb;direction:ltr;text-orientation:mixed;dominant-baseline:auto;baseline-shift:baseline;text-anchor:start;white-space:normal;shape-padding:0;clip-rule:nonzero;display:inline;overflow:visible;visibility:visible;opacity:1;isolation:auto;mix-blend-mode:normal;color-interpolation:sRGB;color-interpolation-filters:linearRGB;solid-color:#000000;solid-opacity:1;vector-effect:none;fill:#4a5599;fill-opacity:1;fill-rule:nonzero;stroke:none;stroke-width:0.52916664;stroke-linecap:round;stroke-linejoin:round;stroke-miterlimit:4;stroke-dasharray:none;stroke-dashoffset:0;stroke-opacity:1;paint-order:markers fill stroke;color-rendering:auto;image-rendering:auto;shape-rendering:auto;text-rendering:auto;enable-background:accumulate"
       d="m 4.2333331,290.12088 c -1.0197432,0 -1.8520831,0.83234 -1.8520831,1.85208 a 0.26460978,0.26460978 0 0 0 0.2645833,0.26458 h 0.7937498 a 0.26460978,0.26460978 0 0 0 0.2645835,-0.26458 c 0,-0.29538 0.2337821,-0.52917 0.5291665,-0.52917 0.2953845,0 0.5291667,0.23379 0.5291667,0.52917 0,0.20947 -0.056544,0.34116 -0.1555461,0.47646 -0.099003,0.1353 -0.2495926,0.26597 -0.4185791,0.41806 -0.3379726,0.30418 -0.7487915,0.73708 -0.7487915,1.48673 a 0.26460978,0.26460978 0 0 0 0.2645835,0.26458 h 0.7937498 a 0.26460978,0.26460978 0 0 0 0.2645834,-0.26458 c 0,-0.20946 0.056544,-0.34116 0.1555462,-0.47646 0.099003,-0.13531 0.2495926,-0.26597 0.4185791,-0.41806 0.3379725,-0.30417 0.7487914,-0.73707 0.7487914,-1.48673 0,-1.01974 -0.8323401,-1.85208 -1.8520834,-1.85208 z m -0.1322916,4.7625 c -0.3664478,0 -0.6614583,0.29501 -0.6614583,0.66145 0,0.36645 0.2950105,0.66146 0.6614583,0.66146 0.3664478,0 0.6614583,-0.29501 0.6614583,-0.66146 0,-0.36644 -0.2950105,-0.66145 -0.6614583,-0.66145 z"
       id="path944-7"
       inkscape:connector-curvature="0" />
    <path
       style="color:#000000;font-style:normal;font-variant:normal;font-weight:normal;font-stretch:normal;font-size:medium;line-height:normal;font-family:sans-serif;font-variant-ligatures:normal;font-variant-position:normal;font-variant-caps:normal;font-variant-numeric:normal;font-variant-alternates:normal;font-feature-settings:normal;text-indent:0;text-align:start;text-decoration:none;text-decoration-line:none;text-decoration-style:solid;text-decoration-color:#000000;letter-spacing:normal;word-spacing:normal;text-transform:none;writing-mode:lr-tb;direction:ltr;text-orientation:mixed;dominant-baseline:auto;baseline-shift:baseline;text-anchor:start;white-space:normal;shape-padding:0;clip-rule:nonzero;display:inline;overflow:visible;visibility:visible;opacity:1;isolation:auto;mix-blend-mode:normal;color-interpolation:sRGB;color-interpolation-filters:linearRGB;solid-color:#000000;solid-opacity:1;vector-effect:none;fill:#eff0f6;fill-opacity:1;fill-rule:nonzero;stroke:none;stroke-width:0.52916664;stroke-linecap:round;stroke-linejoin:round;stroke-miterlimit:4;stroke-dasharray:none;stroke-dashoffset:0;stroke-opacity:1;paint-order:markers fill stroke;color-rendering:auto;image-rendering:auto;shape-rendering:auto;text-rendering:auto;enable-background:accumulate"
       d="m 4.2333331,289.8563 c -1.0197433,0 -1.8520832,0.83234 -1.8520832,1.85208 a 0.26460978,0.26460978 0 0 0 0.2645833,0.26458 h 0.7937499 a 0.26460978,0.26460978 0 0 0 0.2645834,-0.26458 c 0,-0.29538 0.2337821,-0.52917 0.5291666,-0.52917 0.2953845,0 0.5291666,0.23379 0.5291666,0.52917 0,0.20947 -0.056544,0.34116 -0.1555461,0.47646 -0.099003,0.1353 -0.2495926,0.26597 -0.418579,0.41806 -0.3379727,0.30418 -0.7487915,0.73708 -0.7487915,1.48673 a 0.26460978,0.26460978 0 0 0 0.2645834,0.26458 h 0.7937499 a 0.26460978,0.26460978 0 0 0 0.2645833,-0.26458 c 0,-0.20946 0.056544,-0.34116 0.1555462,-0.47646 0.099003,-0.13531 0.2495926,-0.26597 0.418579,-0.41806 0.3379727,-0.30417 0.7487915,-0.73707 0.7487915,-1.48673 0,-1.01974 -0.83234,-1.85208 -1.8520833,-1.85208 z m -0.1322917,4.7625 c -0.3664478,0 -0.6614583,0.29501 -0.6614583,0.66145 0,0.36645 0.2950105,0.66146 0.6614583,0.66146 0.3664479,0 0.6614583,-0.29501 0.6614583,-0.66146 0,-0.36644 -0.2950104,-0.66145 -0.6614583,-0.66145 z"
       id="path944"
       inkscape:connector-curvature="0" />
  </g>
</svg>
