<?xml version="1.0" encoding="UTF-8" standalone="no"?>
<!-- Created with Inkscape (http://www.inkscape.org/) -->

<svg
   xmlns:dc="http://purl.org/dc/elements/1.1/"
   xmlns:cc="http://creativecommons.org/ns#"
   xmlns:rdf="http://www.w3.org/1999/02/22-rdf-syntax-ns#"
   xmlns:svg="http://www.w3.org/2000/svg"
   xmlns="http://www.w3.org/2000/svg"
   xmlns:xlink="http://www.w3.org/1999/xlink"
   xmlns:sodipodi="http://sodipodi.sourceforge.net/DTD/sodipodi-0.dtd"
   xmlns:inkscape="http://www.inkscape.org/namespaces/inkscape"
   width="48"
   height="48"
   viewBox="0 0 48 48"
   version="1.1"
   id="svg8"
   inkscape:version="0.92.4 5da689c313, 2019-01-14"
   sodipodi:docname="transmission.svg">
  <title
     id="title7895">Antu icon Theme</title>
  <defs
     id="defs2">
    <style
       id="current-color-scheme"
       type="text/css">
      .ColorScheme-Text {
        color:#122036;
      }
      </style>
    <style
       type="text/css"
       id="current-color-scheme-53">
      .ColorScheme-Text {
        color:#122036;
      }
      </style>
    <style
       id="current-color-scheme-5"
       type="text/css">
      .ColorScheme-Text {
        color:#122036;
      }
      </style>
    <style
       id="current-color-scheme-2"
       type="text/css">
      .ColorScheme-Text {
        color:#122036;
      }
      </style>
    <style
       id="current-color-scheme-1"
       type="text/css">
      .ColorScheme-Text {
        color:#122036;
      }
      </style>
    <style
       type="text/css"
       id="current-color-scheme-10">
      .ColorScheme-Text {
        color:#122036;
      }
      </style>
    <style
       id="current-color-scheme-0"
       type="text/css">
      .ColorScheme-Text {
        color:#122036;
      }
      </style>
    <style
       id="current-color-scheme-26"
       type="text/css">
      .ColorScheme-Text {
        color:#122036;
      }
      </style>
    <style
       id="current-color-scheme-7"
       type="text/css">
      .ColorScheme-Text {
        color:#122036;
      }
      </style>
    <style
       type="text/css"
       id="current-color-scheme-27">
      .ColorScheme-Text {
        color:#122036;
      }
      </style>
    <style
       id="current-color-scheme-53-0"
       type="text/css">
      .ColorScheme-Text {
        color:#122036;
      }
      </style>
    <style
       type="text/css"
       id="current-color-scheme-5-9">
      .ColorScheme-Text {
        color:#122036;
      }
      </style>
    <style
       type="text/css"
       id="current-color-scheme-2-3">
      .ColorScheme-Text {
        color:#122036;
      }
      </style>
    <style
       type="text/css"
       id="current-color-scheme-1-6">
      .ColorScheme-Text {
        color:#122036;
      }
      </style>
    <style
       id="current-color-scheme-10-0"
       type="text/css">
      .ColorScheme-Text {
        color:#122036;
      }
      </style>
    <style
       type="text/css"
       id="current-color-scheme-0-6">
      .ColorScheme-Text {
        color:#122036;
      }
      </style>
    <style
       type="text/css"
       id="current-color-scheme-26-2">
      .ColorScheme-Text {
        color:#122036;
      }
      </style>
    <style
       type="text/css"
       id="current-color-scheme-7-6">
      .ColorScheme-Text {
        color:#122036;
      }
      </style>
    <style
       id="current-color-scheme-75"
       type="text/css">
      .ColorScheme-Text {
        color:#122036;
      }
      </style>
    <style
       type="text/css"
       id="current-color-scheme-53-9">
      .ColorScheme-Text {
        color:#122036;
      }
      </style>
    <style
       id="current-color-scheme-5-2"
       type="text/css">
      .ColorScheme-Text {
        color:#122036;
      }
      </style>
    <style
       id="current-color-scheme-2-2"
       type="text/css">
      .ColorScheme-Text {
        color:#122036;
      }
      </style>
    <style
       id="current-color-scheme-1-8"
       type="text/css">
      .ColorScheme-Text {
        color:#122036;
      }
      </style>
    <style
       type="text/css"
       id="current-color-scheme-10-9">
      .ColorScheme-Text {
        color:#122036;
      }
      </style>
    <style
       id="current-color-scheme-0-7"
       type="text/css">
      .ColorScheme-Text {
        color:#122036;
      }
      </style>
    <style
       id="current-color-scheme-26-3"
       type="text/css">
      .ColorScheme-Text {
        color:#122036;
      }
      </style>
    <style
       id="current-color-scheme-7-61"
       type="text/css">
      .ColorScheme-Text {
        color:#122036;
      }
      </style>
    <style
       type="text/css"
       id="current-color-scheme-8">
      .ColorScheme-Text {
        color:#122036;
      }
      </style>
    <style
       id="current-color-scheme-53-4"
       type="text/css">
      .ColorScheme-Text {
        color:#122036;
      }
      </style>
    <style
       type="text/css"
       id="current-color-scheme-5-5">
      .ColorScheme-Text {
        color:#122036;
      }
      </style>
    <style
       type="text/css"
       id="current-color-scheme-2-0">
      .ColorScheme-Text {
        color:#122036;
      }
      </style>
    <style
       type="text/css"
       id="current-color-scheme-1-3">
      .ColorScheme-Text {
        color:#122036;
      }
      </style>
    <style
       id="current-color-scheme-10-6"
       type="text/css">
      .ColorScheme-Text {
        color:#122036;
      }
      </style>
    <style
       type="text/css"
       id="current-color-scheme-0-1">
      .ColorScheme-Text {
        color:#122036;
      }
      </style>
    <style
       type="text/css"
       id="current-color-scheme-26-0">
      .ColorScheme-Text {
        color:#122036;
      }
      </style>
    <style
       type="text/css"
       id="current-color-scheme-7-63">
      .ColorScheme-Text {
        color:#122036;
      }
      </style>
    <style
       id="current-color-scheme-53562"
       type="text/css">
      .ColorScheme-Text {
        color:#122036;
      }
      </style>
    <style
       type="text/css"
       id="current-color-scheme-53-91">
      .ColorScheme-Text {
        color:#122036;
      }
      </style>
    <style
       id="current-color-scheme-5-27"
       type="text/css">
      .ColorScheme-Text {
        color:#122036;
      }
      </style>
    <style
       id="current-color-scheme-2-09"
       type="text/css">
      .ColorScheme-Text {
        color:#122036;
      }
      </style>
    <style
       id="current-color-scheme-1-36"
       type="text/css">
      .ColorScheme-Text {
        color:#122036;
      }
      </style>
    <style
       type="text/css"
       id="current-color-scheme-10-06">
      .ColorScheme-Text {
        color:#122036;
      }
      </style>
    <style
       id="current-color-scheme-0-26"
       type="text/css">
      .ColorScheme-Text {
        color:#122036;
      }
      </style>
    <style
       id="current-color-scheme-26-1"
       type="text/css">
      .ColorScheme-Text {
        color:#122036;
      }
      </style>
    <style
       id="current-color-scheme-7-87"
       type="text/css">
      .ColorScheme-Text {
        color:#122036;
      }
      </style>
    <style
       type="text/css"
       id="current-color-scheme-535">
      .ColorScheme-Text {
        color:#122036;
      }
      </style>
    <style
       id="current-color-scheme-53-6"
       type="text/css">
      .ColorScheme-Text {
        color:#122036;
      }
      </style>
    <style
       type="text/css"
       id="current-color-scheme-5-2-9">
      .ColorScheme-Text {
        color:#122036;
      }
      </style>
    <style
       type="text/css"
       id="current-color-scheme-2-9">
      .ColorScheme-Text {
        color:#122036;
      }
      </style>
    <style
       type="text/css"
       id="current-color-scheme-1-1">
      .ColorScheme-Text {
        color:#122036;
      }
      </style>
    <style
       id="current-color-scheme-10-2"
       type="text/css">
      .ColorScheme-Text {
        color:#122036;
      }
      </style>
    <style
       type="text/css"
       id="current-color-scheme-0-7-2">
      .ColorScheme-Text {
        color:#122036;
      }
      </style>
    <style
       type="text/css"
       id="current-color-scheme-26-0-0">
      .ColorScheme-Text {
        color:#122036;
      }
      </style>
    <style
       type="text/css"
       id="current-color-scheme-7-9">
      .ColorScheme-Text {
        color:#122036;
      }
      </style>
    <style
       id="current-color-scheme-5356"
       type="text/css">
      .ColorScheme-Text {
        color:#122036;
      }
      </style>
    <style
       type="text/css"
       id="current-color-scheme-53-2">
      .ColorScheme-Text {
        color:#122036;
      }
      </style>
    <style
       id="current-color-scheme-5-9-2"
       type="text/css">
      .ColorScheme-Text {
        color:#122036;
      }
      </style>
    <style
       id="current-color-scheme-2-1"
       type="text/css">
      .ColorScheme-Text {
        color:#122036;
      }
      </style>
    <style
       id="current-color-scheme-1-2"
       type="text/css">
      .ColorScheme-Text {
        color:#122036;
      }
      </style>
    <style
       type="text/css"
       id="current-color-scheme-10-7">
      .ColorScheme-Text {
        color:#122036;
      }
      </style>
    <style
       id="current-color-scheme-0-0"
       type="text/css">
      .ColorScheme-Text {
        color:#122036;
      }
      </style>
    <style
       id="current-color-scheme-26-9"
       type="text/css">
      .ColorScheme-Text {
        color:#122036;
      }
      </style>
    <style
       id="current-color-scheme-7-3"
       type="text/css">
      .ColorScheme-Text {
        color:#122036;
      }
      </style>
    <linearGradient
       inkscape:collect="always"
       id="linearGradient835">
      <stop
         style="stop-color:#7986cb;stop-opacity:1;"
         offset="0"
         id="stop831" />
      <stop
         style="stop-color:#828fd9;stop-opacity:1"
         offset="1"
         id="stop833" />
    </linearGradient>
    <style
       id="current-color-scheme-9"
       type="text/css">
      .ColorScheme-Text {
        color:#122036;
      }
      </style>
    <style
       type="text/css"
       id="current-color-scheme-53-20">
      .ColorScheme-Text {
        color:#122036;
      }
      </style>
    <style
       id="current-color-scheme-5-23"
       type="text/css">
      .ColorScheme-Text {
        color:#122036;
      }
      </style>
    <style
       id="current-color-scheme-2-7"
       type="text/css">
      .ColorScheme-Text {
        color:#122036;
      }
      </style>
    <style
       id="current-color-scheme-1-5"
       type="text/css">
      .ColorScheme-Text {
        color:#122036;
      }
      </style>
    <style
       type="text/css"
       id="current-color-scheme-10-9-3">
      .ColorScheme-Text {
        color:#122036;
      }
      </style>
    <style
       id="current-color-scheme-0-2"
       type="text/css">
      .ColorScheme-Text {
        color:#122036;
      }
      </style>
    <style
       id="current-color-scheme-26-2-7"
       type="text/css">
      .ColorScheme-Text {
        color:#122036;
      }
      </style>
    <style
       id="current-color-scheme-7-8"
       type="text/css">
      .ColorScheme-Text {
        color:#122036;
      }
      </style>
    <linearGradient
       inkscape:collect="always"
       xlink:href="#linearGradient835"
       id="linearGradient978"
       x1="47.874985"
       y1="314.77499"
       x2="47.999977"
       y2="273.64999"
       gradientUnits="userSpaceOnUse" />
  </defs>
  <sodipodi:namedview
     id="base"
     pagecolor="#ffffff"
     bordercolor="#666666"
     borderopacity="1.0"
     inkscape:pageopacity="0.0"
     inkscape:pageshadow="2"
     inkscape:zoom="7.9999996"
     inkscape:cx="35.750596"
     inkscape:cy="13.007522"
     inkscape:document-units="px"
     inkscape:current-layer="g5422"
     showgrid="true"
     units="px"
     inkscape:window-width="1920"
     inkscape:window-height="1049"
     inkscape:window-x="0"
     inkscape:window-y="0"
     inkscape:window-maximized="1"
     objecttolerance="10"
     gridtolerance="10"
     guidetolerance="10"
     inkscape:snap-bbox="true"
     inkscape:bbox-nodes="true"
     inkscape:bbox-paths="true"
     inkscape:snap-bbox-edge-midpoints="true"
     inkscape:snap-bbox-midpoints="true"
     inkscape:object-paths="true"
     inkscape:snap-intersection-paths="true"
     inkscape:object-nodes="true"
     inkscape:snap-smooth-nodes="false"
     inkscape:snap-midpoints="false"
     inkscape:showpageshadow="false">
    <inkscape:grid
       type="xygrid"
       id="grid7897"
       empspacing="4" />
  </sodipodi:namedview>
  <metadata
     id="metadata5">
    <rdf:RDF>
      <cc:Work
         rdf:about="">
        <dc:format>image/svg+xml</dc:format>
        <dc:type
           rdf:resource="http://purl.org/dc/dcmitype/StillImage" />
        <dc:title>Antu icon Theme</dc:title>
      </cc:Work>
    </rdf:RDF>
  </metadata>
  <g
     inkscape:label="Capa 1"
     inkscape:groupmode="layer"
     id="layer1"
     transform="translate(0,-266.64999)">
    <g
       id="g1535"
       transform="translate(35,-15.000005)">
      <g
         id="g911"
         transform="translate(-35,15)">
        <g
           id="g5422"
           transform="translate(-24,-4)">
          <path
             inkscape:connector-curvature="0"
             id="rect4544"
             d="m 47.999976,272.65002 4.7e-5,0 C 60.187999,272.65002 70,282.462 70,294.65 c 0,12.18797 -9.812001,21.99997 -21.999977,21.99997 l -4.7e-5,0 c -12.188,0 -21.999977,-9.812 -21.999977,-21.99997 0,-12.188 9.811977,-21.99998 21.999977,-21.99998 z"
             style="opacity:1;fill:#4a5599;fill-opacity:1;stroke:none;stroke-width:0.30000001;stroke-miterlimit:4;stroke-dasharray:none;stroke-opacity:1" />
          <path
             inkscape:connector-curvature="0"
             id="rect4544-5"
             d="m 47.999976,273.64998 2.3e-5,0 c 11.633999,0 20.999992,9.36599 20.999992,20.99999 0,11.63401 -9.365993,21 -20.999992,21 l -2.3e-5,0 c -11.633999,0 -20.999992,-9.36599 -20.999992,-21 0,-11.634 9.365993,-20.99999 20.999992,-20.99999 z"
             style="opacity:1;fill:url(#linearGradient978);fill-opacity:1;stroke:none;stroke-width:0.30000001;stroke-miterlimit:4;stroke-dasharray:none;stroke-opacity:1" />
          <g
             transform="matrix(5.5433071,0,0,5.5433071,24.533333,-1328.2455)"
             id="layer1-3-2"
             inkscape:label="Capa 1" />
          <path
             inkscape:connector-curvature="0"
             style="opacity:1;vector-effect:none;fill:#4a5599;fill-opacity:1;stroke:none;stroke-width:2;stroke-linecap:round;stroke-linejoin:round;stroke-miterlimit:4;stroke-dasharray:none;stroke-dashoffset:0;stroke-opacity:1;paint-order:normal"
             d="m 48.189451,282.65199 c -3.513249,-0.0519 -6.897887,1.32058 -9.382812,3.80469 -3.717702,3.71848 -4.829286,9.31034 -2.816406,14.16798 2.011973,4.85764 6.751929,8.02508 12.009765,8.02539 h 16.462891 a 21,21 0 0 0 0.867187,-1.14258 21,21 0 0 0 0.525391,-0.85742 H 47.999998 c -0.366567,8e-5 -0.732909,-0.0182 -1.097656,-0.0547 -0.365141,-0.0365 -0.728222,-0.0913 -1.087891,-0.16406 -0.359152,-0.0733 -0.714414,-0.1646 -1.064453,-0.27344 -0.350472,-0.10834 -0.695303,-0.23415 -1.033203,-0.37696 -0.337811,-0.14226 -0.668302,-0.30131 -0.990234,-0.47656 -0.321918,-0.1763 -0.634808,-0.3686 -0.9375,-0.57618 -0.302546,-0.20664 -0.594573,-0.42827 -0.875,-0.66406 -0.28057,-0.23643 -0.549135,-0.48673 -0.804688,-0.75 -0.255819,-0.2631 -0.498304,-0.53884 -0.726562,-0.82617 -0.227663,-0.28735 -0.440823,-0.5859 -0.638672,-0.89453 -0.198056,-0.3084 -0.380577,-0.6265 -0.546875,-0.95312 -0.12993,-0.25563 -0.249812,-0.51626 -0.359375,-0.78125 -0.140219,-0.33868 -0.263416,-0.68417 -0.369141,-1.03515 -0.106256,-0.35081 -0.194906,-0.70675 -0.265625,-1.06641 -0.07024,-0.36046 -0.122391,-0.72418 -0.15625,-1.08984 -0.0339,-0.36489 -0.04954,-0.73122 -0.04687,-1.09766 0.0025,-0.36669 0.02338,-0.73305 0.0625,-1.09767 0.03981,-0.36464 0.09781,-0.72708 0.173828,-1.08593 0.07528,-0.35926 0.168494,-0.71452 0.279297,-1.06446 0.111029,-0.34929 0.239445,-0.69282 0.384766,-1.02929 0.144927,-0.33664 0.306582,-0.66583 0.484375,-0.98633 0.178314,-0.32071 0.372569,-0.6323 0.582031,-0.9336 0.209289,-0.30138 0.433529,-0.59211 0.671875,-0.87109 0.186403,-0.21715 0.381215,-0.42695 0.583984,-0.62891 0.259013,-0.25951 0.530833,-0.50591 0.814453,-0.73828 0.283868,-0.23205 0.579155,-0.44977 0.884766,-0.65234 0.305567,-0.20247 0.621067,-0.38956 0.945313,-0.56054 0.324712,-0.17151 0.657813,-0.32664 0.998047,-0.46483 0.339469,-0.13764 0.685603,-0.25824 1.037109,-0.36134 0.352278,-0.10309 0.709497,-0.18849 1.070312,-0.25585 0.36058,-0.0676 0.724315,-0.11717 1.089844,-0.14844 0.365008,-0.0313 0.73135,-0.0443 1.097656,-0.0391 0.366829,0.005 0.73317,0.0286 1.097657,0.0703 0.364097,0.0418 0.725875,0.10177 1.083984,0.17969 0.358739,0.0779 0.713347,0.17374 1.0625,0.28711 0.272013,0.0891 0.540448,0.18879 0.804688,0.29883 0.339021,0.14022 0.670815,0.29732 0.99414,0.4707 0.323084,0.17364 0.637277,0.36334 0.941406,0.56836 0.304411,0.20459 0.598396,0.42426 0.88086,0.65821 0.28176,0.23442 0.551627,0.48277 0.808594,0.74414 0.257664,0.26106 0.502111,0.53483 0.732421,0.82031 0.230222,0.28591 0.445984,0.58315 0.646485,0.89063 0.199935,0.30701 0.384409,0.62381 0.552734,0.94922 0.168921,0.32552 0.321453,0.65927 0.457031,1 0.135775,0.34087 0.254414,0.68831 0.355469,1.04103 0.10046,0.35241 0.183242,0.70963 0.248047,1.07031 0.06507,0.36135 0.112002,0.72575 0.140625,1.09179 0.02224,0.28526 0.0333,0.57129 0.0332,0.85742 h 2 c -3.2e-4,-5.25784 -3.167739,-9.99779 -8.025391,-12.00977 -1.518252,-0.62892 -3.141974,-0.96427 -4.785156,-0.98828 z m -0.04297,3 c -2.702399,-0.0394 -5.305677,1.01668 -7.216797,2.92775 -2.859465,2.85966 -3.715081,7.16008 -2.167969,10.89648 1.547535,3.73683 5.193682,6.17352 9.238281,6.17383 h 18.46094 a 21,21 0 0 0 0.878906,-1.82227 21,21 0 0 0 0.06445,-0.17773 H 47.999998 c -0.266762,3.1e-4 -0.53337,-0.0127 -0.798828,-0.0391 -0.265527,-0.0272 -0.529528,-0.0676 -0.791016,-0.12109 -0.260936,-0.0528 -0.519065,-0.11869 -0.773437,-0.19727 -0.255056,-0.0785 -0.50602,-0.16981 -0.751953,-0.27344 -0.245884,-0.10379 -0.486417,-0.21983 -0.720703,-0.34765 -0.234041,-0.12788 -0.461536,-0.26738 -0.681641,-0.41797 -0.220184,-0.15074 -0.43269,-0.31241 -0.636719,-0.48438 -0.203611,-0.1718 -0.39852,-0.35367 -0.583984,-0.54492 -0.186369,-0.19155 -0.363024,-0.39233 -0.529297,-0.60156 -0.165688,-0.20892 -0.320832,-0.42599 -0.464844,-0.65039 -0.143623,-0.22438 -0.275948,-0.45578 -0.396484,-0.69336 -0.09462,-0.18597 -0.181926,-0.37557 -0.261719,-0.56836 -0.10231,-0.24601 -0.192262,-0.49697 -0.269531,-0.75195 -0.07674,-0.25576 -0.140616,-0.5152 -0.191406,-0.77735 -0.05091,-0.26162 -0.08872,-0.52562 -0.113282,-0.79101 -0.025,-0.26553 -0.03678,-0.53213 -0.03516,-0.79883 0.0025,-0.26689 0.01794,-0.5335 0.04687,-0.79883 0.02849,-0.26495 0.07022,-0.5283 0.125,-0.78906 0.05477,-0.26104 0.122564,-0.51918 0.203125,-0.77344 0.08053,-0.2545 0.173744,-0.50482 0.279297,-0.75 0.105823,-0.24467 0.223808,-0.4839 0.353516,-0.7168 0.12926,-0.23279 0.270058,-0.45898 0.421875,-0.67773 0.152697,-0.21965 0.316309,-0.4315 0.490234,-0.63477 0.135283,-0.15779 0.276672,-0.31024 0.423828,-0.45703 0.188195,-0.18878 0.385706,-0.36804 0.591797,-0.53711 0.20679,-0.16885 0.421902,-0.32726 0.644531,-0.47461 0.222221,-0.14744 0.451674,-0.28367 0.6875,-0.4082 0.235753,-0.12463 0.477594,-0.23741 0.72461,-0.33789 0.247429,-0.0998 0.499701,-0.18714 0.755859,-0.26172 0.255829,-0.0754 0.515266,-0.138 0.777344,-0.1875 0.262368,-0.049 0.527018,-0.0849 0.792968,-0.10742 0.265622,-0.0231 0.532234,-0.0328 0.798829,-0.0293 0.266339,0.004 0.532292,0.0219 0.796875,0.0527 0.26504,0.0304 0.528387,0.0741 0.789062,0.13086 0.260484,0.0568 0.517968,0.12651 0.771484,0.20898 0.198067,0.0646 0.393521,0.13693 0.585938,0.2168 0.24643,0.10182 0.487617,0.21589 0.722656,0.3418 0.235285,0.12649 0.464089,0.26468 0.685547,0.41406 0.221384,0.14873 0.435194,0.30843 0.640625,0.47852 0.204851,0.17043 0.401059,0.35099 0.587891,0.54101 0.187604,0.19019 0.365557,0.38966 0.533203,0.59766 0.166913,0.20755 0.32336,0.42332 0.46875,0.64648 0.146167,0.22294 0.281104,0.45304 0.404297,0.68945 0.122765,0.23715 0.233584,0.48029 0.332031,0.72852 0.09853,0.24814 0.184574,0.50106 0.257812,0.75781 0.07279,0.25597 0.132755,0.51541 0.179688,0.77735 0.04768,0.26243 0.08225,0.52708 0.103516,0.79297 0.01594,0.20794 0.02378,0.41643 0.02344,0.625 h 2 c -3.2e-4,-4.0446 -2.436995,-7.69076 -6.173828,-9.23828 -1.167539,-0.48348 -2.416137,-0.74129 -3.679687,-0.75977 z m -0.04492,2.99804 c -1.891542,-0.027 -3.713461,0.71279 -5.050782,2.05078 -2.002201,2.00202 -2.60117,5.01305 -1.517578,7.62891 1.083701,2.61525 3.635912,4.32032 6.466797,4.32031 h 19.769531 a 21,21 0 0 0 0.291016,-0.79492 21,21 0 0 0 0.308594,-1.20508 H 47.999998 c -0.166987,-1.1e-4 -0.33386,-0.009 -0.5,-0.0254 -0.165845,-0.0165 -0.330765,-0.0412 -0.494141,-0.0742 -0.163409,-0.0329 -0.325069,-0.074 -0.484374,-0.12304 -0.159017,-0.0495 -0.315458,-0.10681 -0.46875,-0.17188 -0.153255,-0.0648 -0.30318,-0.13709 -0.449219,-0.21679 -0.146202,-0.0801 -0.288304,-0.16744 -0.425781,-0.26173 -0.137784,-0.0942 -0.270762,-0.19522 -0.398438,-0.30273 -0.127321,-0.10712 -0.249221,-0.22055 -0.365234,-0.33985 -0.116255,-0.12005 -0.22642,-0.24586 -0.330078,-0.37695 -0.103719,-0.13048 -0.200841,-0.26606 -0.291016,-0.40625 -0.08986,-0.14031 -0.172643,-0.28502 -0.248047,-0.43359 -0.05926,-0.11567 -0.113989,-0.23359 -0.164063,-0.35352 -0.0638,-0.154 -0.119859,-0.3111 -0.167968,-0.4707 -0.04847,-0.15999 -0.08888,-0.3223 -0.121094,-0.48633 -0.03164,-0.16344 -0.05511,-0.32836 -0.07031,-0.49414 -0.0155,-0.1662 -0.02267,-0.33308 -0.02148,-0.5 0.0015,-0.1664 0.01124,-0.33262 0.0293,-0.49805 0.01776,-0.16591 0.04384,-0.33083 0.07813,-0.49414 0.03425,-0.16282 0.07663,-0.32383 0.126953,-0.48242 0.05009,-0.15905 0.108103,-0.3155 0.173828,-0.46875 0.06602,-0.15333 0.139685,-0.30326 0.220703,-0.44922 0.08142,-0.14562 0.170067,-0.28707 0.265625,-0.42383 0.09494,-0.13649 0.196626,-0.26817 0.304688,-0.39453 0.08476,-0.0991 0.173373,-0.1949 0.265625,-0.28711 0.118011,-0.1181 0.241863,-0.23022 0.371094,-0.33593 0.129078,-0.10561 0.26336,-0.20469 0.402343,-0.29688 0.138915,-0.0917 0.28232,-0.17647 0.429688,-0.25391 0.147427,-0.0778 0.298661,-0.14822 0.453125,-0.21093 0.154075,-0.0625 0.311171,-0.11724 0.470703,-0.16407 0.160053,-0.0471 0.322363,-0.0863 0.486328,-0.11718 0.164118,-0.0311 0.329693,-0.0539 0.496094,-0.0684 0.165619,-0.0141 0.331842,-0.02 0.498047,-0.0176 0.167119,0.002 0.333992,0.0138 0.5,0.0332 0.165328,0.0191 0.32959,0.0465 0.492187,0.082 0.162888,0.0355 0.323899,0.0792 0.482422,0.13086 0.124108,0.0401 0.246598,0.0851 0.367188,0.13476 0.153838,0.0634 0.304417,0.13447 0.451172,0.21289 0.146826,0.0794 0.289582,0.16609 0.427734,0.25977 0.138358,0.0929 0.271991,0.19261 0.40039,0.29883 0.127943,0.10645 0.25049,0.21922 0.367188,0.33789 0.11749,0.11869 0.228958,0.24319 0.333984,0.37304 0.104328,0.12981 0.202105,0.26474 0.292969,0.4043 0.09112,0.13959 0.175216,0.28365 0.251953,0.43164 0.07655,0.14815 0.145651,0.30003 0.207032,0.45508 0.06188,0.15475 0.115983,0.3125 0.162109,0.47266 0.04581,0.16012 0.08364,0.32243 0.113281,0.48633 0.02908,0.16421 0.04995,0.32979 0.0625,0.49609 0.01028,0.12995 0.01553,0.26026 0.01563,0.39062 h 2 c 5e-6,-2.83088 -1.705064,-5.3831 -4.320312,-6.46679 -0.817938,-0.33919 -1.69278,-0.52013 -2.578145,-0.5332 z"
             id="path919-6" />
          <g
             transform="translate(6.9826797,20.663772)"
             id="layer1-6"
             inkscape:label="Capa 1">
            <g
               id="g1593"
               transform="translate(35,14)" />
            <ellipse
               transform="scale(-1,1)"
               ry="0"
               rx="5"
               cy="312.64999"
               cx="-19.142857"
               id="path835-3-6"
               style="opacity:1;vector-effect:none;fill:#7caee6;fill-opacity:0.43043482;stroke:none;stroke-width:0;stroke-linecap:round;stroke-linejoin:round;stroke-miterlimit:4;stroke-dasharray:none;stroke-dashoffset:0;stroke-opacity:1;paint-order:normal" />
            <g
               transform="translate(-17.987884,-0.04334017)"
               id="layer1-9"
               inkscape:label="Capa 1">
              <g
                 transform="translate(38,-6)"
                 id="g1769" />
              <g
                 transform="translate(29.007467,-25.6207)"
                 inkscape:label="Capa 1"
                 id="layer1-6-2">
                <g
                   id="g6054"
                   transform="translate(11.999999,-3.999995)">
                  <g
                     transform="translate(-17.999999,-89.000015)"
                     id="g1529" />
                  <g
                     transform="matrix(0.49206349,0,0,0.49206349,116.09574,162.59686)"
                     id="g858">
                    <path
                       style="opacity:1;vector-effect:none;fill:#eff0f6;fill-opacity:1;stroke:none;stroke-width:2;stroke-linecap:round;stroke-linejoin:round;stroke-miterlimit:4;stroke-dasharray:none;stroke-dashoffset:0;stroke-opacity:1;paint-order:normal"
                       d="M 24.191406 11.001953 C 20.678157 10.950075 17.293519 12.322532 14.808594 14.806641 C 11.090892 18.525115 9.9793078 24.116973 11.992188 28.974609 C 14.004161 33.83226 18.744117 36.999685 24.001953 37 L 40.464844 37 A 21 21 0 0 0 41.332031 35.857422 A 21 21 0 0 0 41.857422 35 L 24.001953 35 C 23.635386 35.000074 23.269044 34.981844 22.904297 34.945312 C 22.539156 34.908801 22.176075 34.854051 21.816406 34.78125 C 21.457254 34.707898 21.101992 34.616638 20.751953 34.507812 C 20.401481 34.399465 20.05665 34.273661 19.71875 34.130859 C 19.380939 33.988604 19.050448 33.82955 18.728516 33.654297 C 18.406598 33.478 18.093708 33.285702 17.791016 33.078125 C 17.48847 32.871478 17.196443 32.64985 16.916016 32.414062 C 16.635446 32.177636 16.366881 31.927327 16.111328 31.664062 C 15.855509 31.400966 15.613024 31.125226 15.384766 30.837891 C 15.157103 30.55054 14.943943 30.251991 14.746094 29.943359 C 14.548038 29.634964 14.365517 29.316856 14.199219 28.990234 C 14.069289 28.734602 13.949407 28.473985 13.839844 28.208984 C 13.699625 27.870297 13.576428 27.524812 13.470703 27.173828 C 13.364447 26.823007 13.275797 26.467096 13.205078 26.107422 C 13.134836 25.746976 13.082687 25.38324 13.048828 25.017578 C 13.014925 24.652703 12.999291 24.286362 13.001953 23.919922 C 13.004413 23.553221 13.025329 23.18688 13.064453 22.822266 C 13.104261 22.457617 13.162267 22.09518 13.238281 21.736328 C 13.313562 21.377073 13.406775 21.021811 13.517578 20.671875 C 13.628607 20.322584 13.757023 19.979051 13.902344 19.642578 C 14.047271 19.305938 14.208926 18.976751 14.386719 18.65625 C 14.565033 18.335538 14.759288 18.023952 14.96875 17.722656 C 15.178039 17.421267 15.402279 17.130539 15.640625 16.851562 C 15.827028 16.63441 16.02184 16.424614 16.224609 16.222656 C 16.483622 15.963142 16.755442 15.716742 17.039062 15.484375 C 17.32293 15.252318 17.618217 15.034599 17.923828 14.832031 C 18.229395 14.629547 18.544895 14.442467 18.869141 14.271484 C 19.193853 14.099976 19.526954 13.944832 19.867188 13.806641 C 20.206657 13.669006 20.552791 13.548416 20.904297 13.445312 C 21.256575 13.34222 21.613794 13.256826 21.974609 13.189453 C 22.335189 13.121834 22.698924 13.072291 23.064453 13.041016 C 23.429461 13.00972 23.795803 12.996688 24.162109 13.001953 C 24.528938 13.007071 24.895279 13.030539 25.259766 13.072266 C 25.623863 13.114042 25.985641 13.174035 26.34375 13.251953 C 26.702489 13.329866 27.057097 13.425691 27.40625 13.539062 C 27.678263 13.628166 27.946698 13.72785 28.210938 13.837891 C 28.549959 13.978114 28.881753 14.13521 29.205078 14.308594 C 29.528162 14.482233 29.842355 14.67192 30.146484 14.876953 C 30.450895 15.081529 30.74488 15.30121 31.027344 15.535156 C 31.309104 15.769575 31.578971 16.017932 31.835938 16.279297 C 32.093602 16.540351 32.338049 16.814129 32.568359 17.099609 C 32.798581 17.385513 33.014343 17.682759 33.214844 17.990234 C 33.414779 18.297238 33.599253 18.614042 33.767578 18.939453 C 33.936499 19.264958 34.089031 19.598709 34.224609 19.939453 C 34.360384 20.280315 34.479023 20.627753 34.580078 20.980469 C 34.680538 21.332885 34.76332 21.690104 34.828125 22.050781 C 34.893191 22.412138 34.940127 22.776527 34.96875 23.142578 C 34.990991 23.427842 35.002052 23.71387 35.001953 24 L 37.001953 24 C 37.001633 18.742164 33.834214 14.002208 28.976562 11.990234 C 27.45831 11.361318 25.834588 11.025966 24.191406 11.001953 z M 24.148438 14.001953 C 21.446039 13.962539 18.842761 15.018635 16.931641 16.929688 C 14.072176 19.789349 13.21656 24.089771 14.763672 27.826172 C 16.311207 31.563005 19.957354 33.999685 24.001953 34 L 42.462891 34 A 21 21 0 0 0 43.341797 32.177734 A 21 21 0 0 0 43.40625 32 L 24.001953 32 C 23.735191 32.000305 23.468583 31.987263 23.203125 31.960938 C 22.937598 31.933775 22.673597 31.89338 22.412109 31.839844 C 22.151173 31.786996 21.893044 31.721161 21.638672 31.642578 C 21.383616 31.564035 21.132652 31.472769 20.886719 31.369141 C 20.640835 31.26535 20.400302 31.149318 20.166016 31.021484 C 19.931975 30.893612 19.70448 30.754112 19.484375 30.603516 C 19.264191 30.452777 19.051685 30.291117 18.847656 30.119141 C 18.644045 29.947337 18.449136 29.765469 18.263672 29.574219 C 18.077303 29.382663 17.900648 29.181891 17.734375 28.972656 C 17.568687 28.763741 17.413543 28.546671 17.269531 28.322266 C 17.125908 28.097895 16.993583 27.866484 16.873047 27.628906 C 16.778428 27.442936 16.691121 27.253342 16.611328 27.060547 C 16.509018 26.81454 16.419066 26.563576 16.341797 26.308594 C 16.26506 26.052839 16.201181 25.793397 16.150391 25.53125 C 16.099477 25.26963 16.061668 25.005629 16.037109 24.740234 C 16.012113 24.474712 16.000329 24.208105 16.001953 23.941406 C 16.004413 23.674516 16.019895 23.407904 16.048828 23.142578 C 16.077319 22.877641 16.119047 22.61429 16.173828 22.353516 C 16.2286 22.092481 16.296392 21.834342 16.376953 21.580078 C 16.457479 21.325573 16.550697 21.075264 16.65625 20.830078 C 16.762073 20.585404 16.880058 20.346175 17.009766 20.113281 C 17.139026 19.880491 17.279824 19.654299 17.431641 19.435547 C 17.584338 19.215895 17.74795 19.004043 17.921875 18.800781 C 18.057158 18.642991 18.198547 18.490533 18.345703 18.34375 C 18.533898 18.154965 18.731409 17.975704 18.9375 17.806641 C 19.14429 17.637784 19.359402 17.47938 19.582031 17.332031 C 19.804252 17.184589 20.033705 17.048355 20.269531 16.923828 C 20.505284 16.799193 20.747125 16.686422 20.994141 16.585938 C 21.24157 16.486146 21.493842 16.398801 21.75 16.324219 C 22.005829 16.2488 22.265266 16.18622 22.527344 16.136719 C 22.789712 16.087709 23.054362 16.051853 23.320312 16.029297 C 23.585934 16.006219 23.852546 15.996457 24.119141 16 C 24.38548 16.004429 24.651433 16.021897 24.916016 16.052734 C 25.181056 16.083144 25.444403 16.126844 25.705078 16.183594 C 25.965562 16.240358 26.223046 16.310103 26.476562 16.392578 C 26.674629 16.457186 26.870083 16.529508 27.0625 16.609375 C 27.30893 16.711193 27.550117 16.825268 27.785156 16.951172 C 28.020441 17.077662 28.249245 17.215854 28.470703 17.365234 C 28.692087 17.513961 28.905897 17.673668 29.111328 17.84375 C 29.316179 18.014186 29.512387 18.194745 29.699219 18.384766 C 29.886823 18.574958 30.064776 18.774427 30.232422 18.982422 C 30.399335 19.189979 30.555782 19.405746 30.701172 19.628906 C 30.847339 19.851845 30.982276 20.081947 31.105469 20.318359 C 31.228234 20.555504 31.339053 20.798649 31.4375 21.046875 C 31.536031 21.295018 31.622074 21.547938 31.695312 21.804688 C 31.768104 22.060654 31.828067 22.320091 31.875 22.582031 C 31.922681 22.844463 31.957254 23.109118 31.978516 23.375 C 31.994458 23.582946 32.002298 23.791439 32.001953 24 L 34.001953 24 C 34.001633 19.9554 31.564958 16.309249 27.828125 14.761719 C 26.660586 14.278242 25.411988 14.020435 24.148438 14.001953 z M 24.103516 17 C 22.211974 16.973035 20.390055 17.712792 19.052734 19.050781 C 17.050533 21.052801 16.451564 24.063828 17.535156 26.679688 C 18.618857 29.294936 21.171068 31.00001 24.001953 31 L 43.771484 31 A 21 21 0 0 0 44.0625 30.205078 A 21 21 0 0 0 44.371094 29 L 24.001953 29 C 23.834966 28.999892 23.668093 28.991438 23.501953 28.974609 C 23.336108 28.958125 23.171188 28.933374 23.007812 28.900391 C 22.844403 28.867472 22.682743 28.826407 22.523438 28.777344 C 22.364421 28.727891 22.20798 28.670529 22.054688 28.605469 C 21.901433 28.540723 21.751508 28.468366 21.605469 28.388672 C 21.459267 28.308584 21.317165 28.221237 21.179688 28.126953 C 21.041904 28.032752 20.908926 27.93172 20.78125 27.824219 C 20.653929 27.717087 20.532029 27.603661 20.416016 27.484375 C 20.299761 27.364321 20.189596 27.238508 20.085938 27.107422 C 19.982219 26.976941 19.885097 26.841356 19.794922 26.701172 C 19.705066 26.560865 19.622279 26.416152 19.546875 26.267578 C 19.487616 26.151914 19.432886 26.033989 19.382812 25.914062 C 19.319012 25.760061 19.262953 25.60296 19.214844 25.443359 C 19.166375 25.283375 19.12596 25.121061 19.09375 24.957031 C 19.06211 24.793592 19.038637 24.628672 19.023438 24.462891 C 19.007937 24.296686 19.000772 24.129813 19.001953 23.962891 C 19.003429 23.79649 19.013191 23.630271 19.03125 23.464844 C 19.049013 23.29893 19.075093 23.134009 19.109375 22.970703 C 19.143623 22.807884 19.18601 22.646873 19.236328 22.488281 C 19.28642 22.329232 19.344431 22.172784 19.410156 22.019531 C 19.476176 21.866199 19.549841 21.716274 19.630859 21.570312 C 19.712276 21.424691 19.800926 21.283239 19.896484 21.146484 C 19.991423 21.009991 20.09311 20.878315 20.201172 20.751953 C 20.285935 20.652822 20.374545 20.557047 20.466797 20.464844 C 20.584808 20.346739 20.70866 20.234621 20.837891 20.128906 C 20.966969 20.0233 21.101251 19.924219 21.240234 19.832031 C 21.379149 19.740296 21.522554 19.655556 21.669922 19.578125 C 21.817349 19.5003 21.968583 19.429901 22.123047 19.367188 C 22.277122 19.304704 22.434218 19.249955 22.59375 19.203125 C 22.753803 19.155985 22.916113 19.116859 23.080078 19.085938 C 23.244196 19.054887 23.409771 19.032064 23.576172 19.017578 C 23.741791 19.003456 23.908014 18.997589 24.074219 19 C 24.241338 19.00246 24.408211 19.013767 24.574219 19.033203 C 24.739547 19.052344 24.903809 19.079702 25.066406 19.115234 C 25.229294 19.150761 25.390305 19.194457 25.548828 19.246094 C 25.672936 19.286197 25.795426 19.331166 25.916016 19.380859 C 26.069854 19.444272 26.220433 19.515325 26.367188 19.59375 C 26.514014 19.673144 26.65677 19.759841 26.794922 19.853516 C 26.93328 19.946388 27.066913 20.046127 27.195312 20.152344 C 27.323255 20.258792 27.445802 20.371563 27.5625 20.490234 C 27.67999 20.60893 27.791458 20.733431 27.896484 20.863281 C 28.000812 20.993083 28.098589 21.128019 28.189453 21.267578 C 28.280578 21.407167 28.364669 21.551231 28.441406 21.699219 C 28.517961 21.847364 28.587057 21.999248 28.648438 22.154297 C 28.710319 22.309051 28.764421 22.466796 28.810547 22.626953 C 28.856358 22.787076 28.894191 22.949385 28.923828 23.113281 C 28.952909 23.277498 28.973781 23.443072 28.986328 23.609375 C 28.996612 23.739329 29.001855 23.869638 29.001953 24 L 31.001953 24 C 31.001958 21.169114 29.296889 18.616899 26.681641 17.533203 C 25.863723 17.194009 24.988881 17.013074 24.103516 17 z "
                       transform="matrix(2.0322581,0,0,2.0322581,-248.13465,237.88271)"
                       id="path919" />
                  </g>
                </g>
              </g>
            </g>
          </g>
        </g>
      </g>
    </g>
  </g>
</svg>
