<?xml version="1.0" encoding="UTF-8" standalone="no"?>
<!-- Created with Inkscape (http://www.inkscape.org/) -->

<svg
   xmlns:dc="http://purl.org/dc/elements/1.1/"
   xmlns:cc="http://creativecommons.org/ns#"
   xmlns:rdf="http://www.w3.org/1999/02/22-rdf-syntax-ns#"
   xmlns:svg="http://www.w3.org/2000/svg"
   xmlns="http://www.w3.org/2000/svg"
   xmlns:xlink="http://www.w3.org/1999/xlink"
   xmlns:sodipodi="http://sodipodi.sourceforge.net/DTD/sodipodi-0.dtd"
   xmlns:inkscape="http://www.inkscape.org/namespaces/inkscape"
   width="48"
   height="48"
   viewBox="0 0 48 48"
   version="1.1"
   id="svg8"
   inkscape:version="0.92.3 (2405546, 2018-03-11)"
   sodipodi:docname="vokoscreen-48.svg">
  <title
     id="title7895">Antu icon Theme</title>
  <defs
     id="defs2">
    <style
       id="current-color-scheme"
       type="text/css">
      .ColorScheme-Text {
        color:#122036;
      }
      </style>
    <style
       type="text/css"
       id="current-color-scheme-53">
      .ColorScheme-Text {
        color:#122036;
      }
      </style>
    <style
       id="current-color-scheme-5"
       type="text/css">
      .ColorScheme-Text {
        color:#122036;
      }
      </style>
    <style
       id="current-color-scheme-2"
       type="text/css">
      .ColorScheme-Text {
        color:#122036;
      }
      </style>
    <style
       id="current-color-scheme-1"
       type="text/css">
      .ColorScheme-Text {
        color:#122036;
      }
      </style>
    <style
       type="text/css"
       id="current-color-scheme-10">
      .ColorScheme-Text {
        color:#122036;
      }
      </style>
    <style
       id="current-color-scheme-0"
       type="text/css">
      .ColorScheme-Text {
        color:#122036;
      }
      </style>
    <style
       id="current-color-scheme-26"
       type="text/css">
      .ColorScheme-Text {
        color:#122036;
      }
      </style>
    <style
       type="text/css"
       id="current-color-scheme-27">
      .ColorScheme-Text {
        color:#122036;
      }
      </style>
    <style
       id="current-color-scheme-53-0"
       type="text/css">
      .ColorScheme-Text {
        color:#122036;
      }
      </style>
    <style
       type="text/css"
       id="current-color-scheme-5-9">
      .ColorScheme-Text {
        color:#122036;
      }
      </style>
    <style
       type="text/css"
       id="current-color-scheme-2-3">
      .ColorScheme-Text {
        color:#122036;
      }
      </style>
    <style
       type="text/css"
       id="current-color-scheme-1-6">
      .ColorScheme-Text {
        color:#122036;
      }
      </style>
    <style
       id="current-color-scheme-10-0"
       type="text/css">
      .ColorScheme-Text {
        color:#122036;
      }
      </style>
    <style
       type="text/css"
       id="current-color-scheme-0-6">
      .ColorScheme-Text {
        color:#122036;
      }
      </style>
    <style
       type="text/css"
       id="current-color-scheme-26-2">
      .ColorScheme-Text {
        color:#122036;
      }
      </style>
    <style
       id="current-color-scheme-3"
       type="text/css">
      .ColorScheme-Text {
        color:#122036;
      }
      </style>
    <style
       type="text/css"
       id="current-color-scheme-53-7">
      .ColorScheme-Text {
        color:#122036;
      }
      </style>
    <style
       id="current-color-scheme-5-5"
       type="text/css">
      .ColorScheme-Text {
        color:#122036;
      }
      </style>
    <style
       id="current-color-scheme-2-9"
       type="text/css">
      .ColorScheme-Text {
        color:#122036;
      }
      </style>
    <style
       id="current-color-scheme-1-2"
       type="text/css">
      .ColorScheme-Text {
        color:#122036;
      }
      </style>
    <style
       type="text/css"
       id="current-color-scheme-10-2">
      .ColorScheme-Text {
        color:#122036;
      }
      </style>
    <style
       id="current-color-scheme-0-8"
       type="text/css">
      .ColorScheme-Text {
        color:#122036;
      }
      </style>
    <style
       id="current-color-scheme-26-9"
       type="text/css">
      .ColorScheme-Text {
        color:#122036;
      }
      </style>
    <linearGradient
       inkscape:collect="always"
       id="linearGradient4774">
      <stop
         style="stop-color:#f41e3d;stop-opacity:1"
         offset="0"
         id="stop4770" />
      <stop
         style="stop-color:#fc3a56;stop-opacity:1"
         offset="1"
         id="stop4772" />
    </linearGradient>
    <linearGradient
       id="linearGradient4562"
       inkscape:collect="always">
      <stop
         id="stop4558"
         offset="0"
         style="stop-color:#e3e3e3;stop-opacity:1" />
      <stop
         id="stop4560"
         offset="1"
         style="stop-color:#fbfbfb;stop-opacity:1" />
    </linearGradient>
    <linearGradient
       inkscape:collect="always"
       xlink:href="#linearGradient4562"
       id="linearGradient969"
       x1="12"
       y1="316.64999"
       x2="12"
       y2="309.64999"
       gradientUnits="userSpaceOnUse" />
    <linearGradient
       inkscape:collect="always"
       xlink:href="#linearGradient4774"
       id="linearGradient977"
       x1="12"
       y1="307.64999"
       x2="12"
       y2="277.64999"
       gradientUnits="userSpaceOnUse" />
  </defs>
  <sodipodi:namedview
     id="base"
     pagecolor="#ffffff"
     bordercolor="#666666"
     borderopacity="1.0"
     inkscape:pageopacity="0.0"
     inkscape:pageshadow="2"
     inkscape:zoom="2.8284273"
     inkscape:cx="141.21508"
     inkscape:cy="-19.1413"
     inkscape:document-units="px"
     inkscape:current-layer="g6256"
     showgrid="true"
     units="px"
     inkscape:window-width="1874"
     inkscape:window-height="1141"
     inkscape:window-x="46"
     inkscape:window-y="30"
     inkscape:window-maximized="1"
     objecttolerance="10"
     gridtolerance="10"
     guidetolerance="10"
     inkscape:snap-bbox="true"
     inkscape:bbox-paths="true"
     inkscape:bbox-nodes="true"
     inkscape:snap-bbox-edge-midpoints="true"
     inkscape:snap-bbox-midpoints="true"
     inkscape:object-paths="true"
     inkscape:snap-intersection-paths="true">
    <inkscape:grid
       type="xygrid"
       id="grid7897"
       empspacing="4" />
  </sodipodi:namedview>
  <metadata
     id="metadata5">
    <rdf:RDF>
      <cc:Work
         rdf:about="">
        <dc:format>image/svg+xml</dc:format>
        <dc:type
           rdf:resource="http://purl.org/dc/dcmitype/StillImage" />
        <dc:title>Antu icon Theme</dc:title>
      </cc:Work>
    </rdf:RDF>
  </metadata>
  <g
     inkscape:label="Capa 1"
     inkscape:groupmode="layer"
     id="layer1"
     transform="translate(0,-266.64999)">
    <g
       id="g6256"
       transform="translate(12,-6)">
      <path
         sodipodi:nodetypes="ssccssssccssssccsss"
         inkscape:connector-curvature="0"
         id="rect5395"
         d="m 8,307.64999 c -0.554,0 -1,0.446 -1,1 v 4 c 0,0 0,1 -1,1 H 4 c -0.554,0 -1,0.446 -1,1 v 2 c 0,0.554 0.446,1 1,1 h 4 7 4 c 0.554,0 1,-0.446 1,-1 v -2 c 0,-0.554 -0.446,-1 -1,-1 h -2 c 0,0 -1,0.004 -1,-1 v -4 c 0,-0.554 -0.446,-1 -1,-1 z"
         style="opacity:1;vector-effect:none;fill:#73818c;fill-opacity:1;stroke:none;stroke-width:6;stroke-linecap:square;stroke-linejoin:round;stroke-miterlimit:18;stroke-dasharray:none;stroke-dashoffset:0;stroke-opacity:1;paint-order:markers stroke fill" />
      <path
         sodipodi:nodetypes="ccccccccccccc"
         inkscape:connector-curvature="0"
         id="rect5401"
         d="m 8.000287,308.64999 v 4 c 0,0 0.0074,2 -2,2 h -2 v 2 h 4 7 4 v -2 h -2 c 0,0 -2,0.007 -2,-2 v -4 z"
         style="opacity:1;vector-effect:none;fill:url(#linearGradient969);fill-opacity:1;stroke:none;stroke-width:6;stroke-linecap:square;stroke-linejoin:round;stroke-miterlimit:18;stroke-dasharray:none;stroke-dashoffset:0;stroke-opacity:1;paint-order:markers stroke fill" />
      <path
         id="rect5391"
         d="M -7.9999986,275.64999 H 31.999999 c 1.108,0 2.000001,0.892 2.000001,2 v 30 c 0,1.108 -0.892001,2 -2.000001,2 H -7.9999986 c -1.1080008,0 -2.0000014,-0.892 -2.0000014,-2 v -30 c 0,-1.108 0.8920006,-2 2.0000014,-2 z"
         style="opacity:1;vector-effect:none;fill:#040405;fill-opacity:1;stroke:none;stroke-width:6;stroke-linecap:square;stroke-linejoin:round;stroke-miterlimit:18;stroke-dasharray:none;stroke-dashoffset:0;stroke-opacity:1;paint-order:markers stroke fill"
         inkscape:connector-curvature="0" />
      <path
         id="rect5393"
         d="m -7,277.64999 h 38 c 0.554,0 1,0.446 1,1 v 28 c 0,0.554 -0.446,1 -1,1 H -7 c -0.554,0 -1,-0.446 -1,-1 v -28 c 0,-0.554 0.446,-1 1,-1 z"
         style="opacity:1;vector-effect:none;fill:url(#linearGradient977);fill-opacity:1;stroke:none;stroke-width:6;stroke-linecap:square;stroke-linejoin:round;stroke-miterlimit:18;stroke-dasharray:none;stroke-dashoffset:0;stroke-opacity:1;paint-order:markers stroke fill"
         inkscape:connector-curvature="0" />
      <path
         inkscape:connector-curvature="0"
         style="opacity:1;fill:#d90122;fill-opacity:1;stroke:none;stroke-width:1.99999988;stroke-linecap:round;stroke-linejoin:round;stroke-miterlimit:4;stroke-dasharray:none;stroke-opacity:1"
         d="m -6,280.64999 v 2 2 h 2 v -2 h 2 v -2 h -2 z m 33.505859,0 c -1.385,0 -2.5,1.115 -2.5,2.5 0,1.385 1.115,2.5 2.5,2.5 1.385,0 2.5,-1.115 2.5,-2.5 0,-1.385 -1.115,-2.5 -2.5,-2.5 z m -22.5,8 c -0.554033,0 -1,0.44596 -1,1 v 8 c 0,0.554 0.445967,1 1,1 h 8 c 0.554033,0 1,-0.446 1,-1 v -2.58594 l 3.292969,3.29297 c 0.629995,0.62955 1.706681,0.18365 1.707031,-0.70703 v -8 c 1.84e-4,-0.56391 -0.465631,-1.01648 -1.029297,-1 -0.255008,0.008 -0.49746,0.11269 -0.677734,0.29297 l -3.292969,3.29297 v -2.58594 c 0,-0.55404 -0.445967,-1 -1,-1 z m -11,14 v 2 2 h 2.0000004 2 v -2 h -2 v -2 z m 34,0 v 2 h -2 v 2 h 2 2 v -2 -2 z"
         id="path912-6" />
      <g
         transform="translate(-8.004883,-7)"
         id="layer1-79"
         inkscape:label="Capa 1">
        <g
           transform="translate(1,-5)"
           id="g4150">
          <path
             inkscape:connector-curvature="0"
             id="path912"
             transform="translate(-4.995117,284.64999)"
             d="m 5.9941406,7 v 2 2 h 2 V 9 h 2 V 7 h -2 z M 39.5,7 C 38.115,7 37,8.115 37,9.5 37,10.885 38.115,12 39.5,12 40.885,12 42,10.885 42,9.5 42,8.115 40.885,7 39.5,7 Z M 17,15 c -0.554033,0 -1,0.44596 -1,1 v 8 c 0,0.554 0.445967,1 1,1 h 8 c 0.554033,0 1,-0.446 1,-1 v -2.585938 l 3.292969,3.292969 C 29.922964,25.336581 30.99965,24.89068 31,24 v -8 c 1.84e-4,-0.56391 -0.465631,-1.01648 -1.029297,-1 -0.255008,0.008 -0.49746,0.112689 -0.677734,0.292969 L 26,18.585938 V 16 c 0,-0.55404 -0.445967,-1 -1,-1 z M 6,29 v 2 2 h 2 2 V 31 H 8 v -2 z m 34,0 v 2 h -2 v 2 h 2 2 v -2 -2 z"
             style="opacity:1;fill:#ffffff;fill-opacity:1;stroke:none;stroke-width:1.99999988;stroke-linecap:round;stroke-linejoin:round;stroke-miterlimit:4;stroke-dasharray:none;stroke-opacity:1" />
        </g>
      </g>
    </g>
  </g>
</svg>
