<?xml version="1.0" encoding="UTF-8" standalone="no"?>
<!-- Created with Inkscape (http://www.inkscape.org/) -->

<svg
   xmlns:dc="http://purl.org/dc/elements/1.1/"
   xmlns:cc="http://creativecommons.org/ns#"
   xmlns:rdf="http://www.w3.org/1999/02/22-rdf-syntax-ns#"
   xmlns:svg="http://www.w3.org/2000/svg"
   xmlns="http://www.w3.org/2000/svg"
   xmlns:xlink="http://www.w3.org/1999/xlink"
   xmlns:sodipodi="http://sodipodi.sourceforge.net/DTD/sodipodi-0.dtd"
   xmlns:inkscape="http://www.inkscape.org/namespaces/inkscape"
   width="48"
   height="48"
   viewBox="0 0 48 48"
   version="1.1"
   id="svg8"
   inkscape:version="0.92.2 2405546, 2018-03-11"
   sodipodi:docname="vvave.svg">
  <title
     id="title7895">Antu icon Theme</title>
  <defs
     id="defs2">
    <linearGradient
       inkscape:collect="always"
       id="linearGradient983">
      <stop
         style="stop-color:#f06292;stop-opacity:1"
         offset="0"
         id="stop979" />
      <stop
         style="stop-color:#ff7ea9;stop-opacity:1"
         offset="1"
         id="stop981" />
    </linearGradient>
    <linearGradient
       inkscape:collect="always"
       xlink:href="#linearGradient983"
       id="linearGradient985"
       x1="48"
       y1="313.64999"
       x2="48"
       y2="275.64999"
       gradientUnits="userSpaceOnUse" />
  </defs>
  <sodipodi:namedview
     id="base"
     pagecolor="#ffffff"
     bordercolor="#666666"
     borderopacity="1.0"
     inkscape:pageopacity="0.0"
     inkscape:pageshadow="2"
     inkscape:zoom="1"
     inkscape:cx="235.65688"
     inkscape:cy="64.864863"
     inkscape:document-units="px"
     inkscape:current-layer="layer1"
     showgrid="false"
     units="px"
     inkscape:window-width="1360"
     inkscape:window-height="711"
     inkscape:window-x="0"
     inkscape:window-y="28"
     inkscape:window-maximized="1"
     objecttolerance="10"
     gridtolerance="10"
     guidetolerance="10"
     inkscape:snap-bbox="true"
     inkscape:bbox-nodes="true"
     inkscape:bbox-paths="true"
     inkscape:snap-bbox-edge-midpoints="true"
     inkscape:snap-bbox-midpoints="true"
     inkscape:object-paths="true"
     inkscape:snap-intersection-paths="true"
     inkscape:object-nodes="true"
     inkscape:snap-smooth-nodes="false"
     inkscape:snap-midpoints="false"
     inkscape:showpageshadow="false">
    <inkscape:grid
       type="xygrid"
       id="grid7897"
       empspacing="4" />
  </sodipodi:namedview>
  <metadata
     id="metadata5">
    <rdf:RDF>
      <cc:Work
         rdf:about="">
        <dc:format>image/svg+xml</dc:format>
        <dc:type
           rdf:resource="http://purl.org/dc/dcmitype/StillImage" />
        <dc:title>Antu icon Theme</dc:title>
      </cc:Work>
    </rdf:RDF>
  </metadata>
  <g
     inkscape:label="Capa 1"
     inkscape:groupmode="layer"
     id="layer1"
     transform="translate(0,-266.64999)">
    <g
       id="g5422"
       transform="translate(-24,-4.000005)">
      <g
         transform="matrix(5.5433071,0,0,5.5433071,24.533333,-1328.2455)"
         id="layer1-3-2"
         inkscape:label="Capa 1" />
      <path
         style="opacity:1;fill:#e91e63;fill-opacity:1;stroke:none;stroke-width:3.88529491;stroke-linecap:round;stroke-linejoin:round;stroke-miterlimit:4;stroke-dasharray:none;stroke-opacity:1"
         d="m 29,272.64999 h 38 c 1.662,0 3,1.338 3,3 v 38 c 0,1.662 -1.338,3 -3,3 H 29 c -1.662,0 -3,-1.338 -3,-3 v -38 c 0,-1.662 1.338,-3 3,-3 z"
         id="rect854"
         inkscape:connector-curvature="0" />
      <path
         style="opacity:1;fill:url(#linearGradient985);fill-opacity:1;stroke:none;stroke-width:3.70869064;stroke-linecap:round;stroke-linejoin:round;stroke-miterlimit:4;stroke-dasharray:none;stroke-opacity:1"
         d="m 29,273.64999 h 38 c 1.108,0 2,0.892 2,2 v 38 c 0,1.108 -0.892,2 -2,2 H 29 c -1.108,0 -2,-0.892 -2,-2 v -38 c 0,-1.108 0.892,-2 2,-2 z"
         id="rect854-2"
         inkscape:connector-curvature="0" />
    </g>
    <path
       inkscape:connector-curvature="0"
       style="opacity:1;fill:#e91e63;fill-opacity:1;stroke:none;stroke-width:2;stroke-linecap:round;stroke-linejoin:round;stroke-miterlimit:4;stroke-dasharray:none;stroke-opacity:1"
       d="m 17,274.64999 c -1.662,0 -3,1.338 -3,3 0,1.662 1.338,3 3,3 1.662,0 3,-1.338 3,-3 0,-1.662 -1.338,-3 -3,-3 z m 14,0 c -1.662,0 -3,1.338 -3,3 0,1.662 1.338,3 3,3 1.662,0 3,-1.338 3,-3 0,-1.662 -1.338,-3 -3,-3 z m -21,5 c -1.662,0 -3,1.338 -3,3 0,1.662 1.338,3 3,3 1.662,0 3,-1.338 3,-3 0,-1.662 -1.338,-3 -3,-3 z m 14,0 c -1.662,0 -3,1.338 -3,3 0,1.662 1.338,3 3,3 1.662,0 3,-1.338 3,-3 0,-1.662 -1.338,-3 -3,-3 z m 14,0 c -1.662,0 -3,1.338 -3,3 0,1.662 1.338,3 3,3 1.662,0 3,-1.338 3,-3 0,-1.662 -1.338,-3 -3,-3 z m -21,3 c -1.662,0 -3,1.338 -3,3 0,1.662 1.338,3 3,3 1.662,0 3,-1.338 3,-3 0,-1.662 -1.338,-3 -3,-3 z m 14,0 c -1.662,0 -3,1.338 -3,3 0,1.662 1.338,3 3,3 1.662,0 3,-1.338 3,-3 0,-1.662 -1.338,-3 -3,-3 z m -21,5 c -1.662,0 -3,1.338 -3,3 0,1.662 1.338,3 3,3 1.662,0 3,-1.338 3,-3 0,-1.662 -1.338,-3 -3,-3 z m 14,0 c -1.662,0 -3,1.338 -3,3 0,1.662 1.338,3 3,3 1.662,0 3,-1.338 3,-3 0,-1.662 -1.338,-3 -3,-3 z m 14,0 c -1.662,0 -3,1.338 -3,3 0,1.662 1.338,3 3,3 1.662,0 3,-1.338 3,-3 0,-1.662 -1.338,-3 -3,-3 z m -21,3 c -1.662,0 -3,1.338 -3,3 0,1.662 1.338,3 3,3 1.662,0 3,-1.338 3,-3 0,-1.662 -1.338,-3 -3,-3 z m 14,0 c -1.662,0 -3,1.338 -3,3 0,1.662 1.338,3 3,3 1.662,0 3,-1.338 3,-3 0,-1.662 -1.338,-3 -3,-3 z m -21,5 c -1.662,0 -3,1.338 -3,3 0,1.662 1.338,3 3,3 1.662,0 3,-1.338 3,-3 0,-1.662 -1.338,-3 -3,-3 z m 14,0 c -1.662,0 -3,1.338 -3,3 0,1.662 1.338,3 3,3 1.662,0 3,-1.338 3,-3 0,-1.662 -1.338,-3 -3,-3 z m 14,0 c -1.662,0 -3,1.338 -3,3 0,1.662 1.338,3 3,3 1.662,0 3,-1.338 3,-3 0,-1.662 -1.338,-3 -3,-3 z m -21,3 c -1.662,0 -3,1.338 -3,3 0,1.662 1.338,3 3,3 1.662,0 3,-1.338 3,-3 0,-1.662 -1.338,-3 -3,-3 z m 14,0 c -1.662,0 -3,1.338 -3,3 0,1.662 1.338,3 3,3 1.662,0 3,-1.338 3,-3 0,-1.662 -1.338,-3 -3,-3 z m -7,5 c -1.662,0 -3,1.338 -3,3 0,1.662 1.338,3 3,3 1.662,0 3,-1.338 3,-3 0,-1.662 -1.338,-3 -3,-3 z"
       id="rect923-8" />
    <path
       style="opacity:1;fill:#fce4ec;fill-opacity:1;stroke:none;stroke-width:2;stroke-linecap:round;stroke-linejoin:round;stroke-miterlimit:4;stroke-dasharray:none;stroke-opacity:1"
       d="M 17 7 C 15.338 7 14 8.338 14 10 C 14 11.662 15.338 13 17 13 C 18.662 13 20 11.662 20 10 C 20 8.338 18.662 7 17 7 z M 31 7 C 29.338 7 28 8.338 28 10 C 28 11.662 29.338 13 31 13 C 32.662 13 34 11.662 34 10 C 34 8.338 32.662 7 31 7 z M 10 12 C 8.338 12 7 13.338 7 15 C 7 16.662 8.338 18 10 18 C 11.662 18 13 16.662 13 15 C 13 13.338 11.662 12 10 12 z M 24 12 C 22.338 12 21 13.338 21 15 C 21 16.662 22.338 18 24 18 C 25.662 18 27 16.662 27 15 C 27 13.338 25.662 12 24 12 z M 38 12 C 36.338 12 35 13.338 35 15 C 35 16.662 36.338 18 38 18 C 39.662 18 41 16.662 41 15 C 41 13.338 39.662 12 38 12 z M 17 15 C 15.338 15 14 16.338 14 18 C 14 19.662 15.338 21 17 21 C 18.662 21 20 19.662 20 18 C 20 16.338 18.662 15 17 15 z M 31 15 C 29.338 15 28 16.338 28 18 C 28 19.662 29.338 21 31 21 C 32.662 21 34 19.662 34 18 C 34 16.338 32.662 15 31 15 z M 10 20 C 8.338 20 7 21.338 7 23 C 7 24.662 8.338 26 10 26 C 11.662 26 13 24.662 13 23 C 13 21.338 11.662 20 10 20 z M 24 20 C 22.338 20 21 21.338 21 23 C 21 24.662 22.338 26 24 26 C 25.662 26 27 24.662 27 23 C 27 21.338 25.662 20 24 20 z M 38 20 C 36.338 20 35 21.338 35 23 C 35 24.662 36.338 26 38 26 C 39.662 26 41 24.662 41 23 C 41 21.338 39.662 20 38 20 z M 17 23 C 15.338 23 14 24.338 14 26 C 14 27.662 15.338 29 17 29 C 18.662 29 20 27.662 20 26 C 20 24.338 18.662 23 17 23 z M 31 23 C 29.338 23 28 24.338 28 26 C 28 27.662 29.338 29 31 29 C 32.662 29 34 27.662 34 26 C 34 24.338 32.662 23 31 23 z M 10 28 C 8.338 28 7 29.338 7 31 C 7 32.662 8.338 34 10 34 C 11.662 34 13 32.662 13 31 C 13 29.338 11.662 28 10 28 z M 24 28 C 22.338 28 21 29.338 21 31 C 21 32.662 22.338 34 24 34 C 25.662 34 27 32.662 27 31 C 27 29.338 25.662 28 24 28 z M 38 28 C 36.338 28 35 29.338 35 31 C 35 32.662 36.338 34 38 34 C 39.662 34 41 32.662 41 31 C 41 29.338 39.662 28 38 28 z M 17 31 C 15.338 31 14 32.338 14 34 C 14 35.662 15.338 37 17 37 C 18.662 37 20 35.662 20 34 C 20 32.338 18.662 31 17 31 z M 31 31 C 29.338 31 28 32.338 28 34 C 28 35.662 29.338 37 31 37 C 32.662 37 34 35.662 34 34 C 34 32.338 32.662 31 31 31 z M 24 36 C 22.338 36 21 37.338 21 39 C 21 40.662 22.338 42 24 42 C 25.662 42 27 40.662 27 39 C 27 37.338 25.662 36 24 36 z "
       transform="translate(0,266.64999)"
       id="rect923" />
  </g>
</svg>
