<?xml version="1.0" encoding="UTF-8" standalone="no"?>
<!-- Created with Inkscape (http://www.inkscape.org/) -->

<svg
   xmlns:dc="http://purl.org/dc/elements/1.1/"
   xmlns:cc="http://creativecommons.org/ns#"
   xmlns:rdf="http://www.w3.org/1999/02/22-rdf-syntax-ns#"
   xmlns:svg="http://www.w3.org/2000/svg"
   xmlns="http://www.w3.org/2000/svg"
   xmlns:xlink="http://www.w3.org/1999/xlink"
   xmlns:sodipodi="http://sodipodi.sourceforge.net/DTD/sodipodi-0.dtd"
   xmlns:inkscape="http://www.inkscape.org/namespaces/inkscape"
   width="48"
   height="48"
   viewBox="0 0 48 48"
   version="1.1"
   id="svg8"
   inkscape:version="0.92.2 2405546, 2018-03-11"
   sodipodi:docname="window-duplicate.svg">
  <title
     id="title7895">Antu icon Theme</title>
  <defs
     id="defs2">
    <linearGradient
       id="linearGradient1076"
       inkscape:collect="always">
      <stop
         id="stop1072"
         offset="0"
         style="stop-color:#4d575f;stop-opacity:1" />
      <stop
         id="stop1074"
         offset="1"
         style="stop-color:#5c6870;stop-opacity:1" />
    </linearGradient>
    <linearGradient
       inkscape:collect="always"
       id="linearGradient1026">
      <stop
         style="stop-color:#e5f0f0;stop-opacity:1"
         offset="0"
         id="stop1022" />
      <stop
         style="stop-color:#fcfcfc;stop-opacity:1"
         offset="1"
         id="stop1024" />
    </linearGradient>
    <linearGradient
       inkscape:collect="always"
       id="linearGradient1018">
      <stop
         style="stop-color:#1883f0;stop-opacity:1"
         offset="0"
         id="stop1014" />
      <stop
         style="stop-color:#33acfa;stop-opacity:1"
         offset="1"
         id="stop1016" />
    </linearGradient>
    <linearGradient
       inkscape:collect="always"
       id="linearGradient1241">
      <stop
         style="stop-color:#dadada;stop-opacity:1"
         offset="0"
         id="stop1237" />
      <stop
         style="stop-color:#f5f5f5;stop-opacity:1"
         offset="1"
         id="stop1239" />
    </linearGradient>
    <linearGradient
       inkscape:collect="always"
       xlink:href="#linearGradient1241"
       id="linearGradient1243"
       x1="24"
       y1="310.64999"
       x2="24"
       y2="286.64999"
       gradientUnits="userSpaceOnUse" />
    <linearGradient
       inkscape:collect="always"
       xlink:href="#linearGradient1018"
       id="linearGradient1020"
       x1="28"
       y1="288.64999"
       x2="28"
       y2="279.64999"
       gradientUnits="userSpaceOnUse" />
    <linearGradient
       inkscape:collect="always"
       xlink:href="#linearGradient1026"
       id="linearGradient1028"
       x1="28"
       y1="313.64999"
       x2="28"
       y2="288.64999"
       gradientUnits="userSpaceOnUse" />
    <linearGradient
       gradientTransform="translate(-6,-12)"
       inkscape:collect="always"
       xlink:href="#linearGradient1076"
       id="linearGradient1020-7"
       x1="28"
       y1="287.64999"
       x2="28"
       y2="279.64999"
       gradientUnits="userSpaceOnUse" />
    <linearGradient
       gradientTransform="translate(-6,-12)"
       inkscape:collect="always"
       xlink:href="#linearGradient1026"
       id="linearGradient1028-3"
       x1="28"
       y1="313.64999"
       x2="28"
       y2="288.64999"
       gradientUnits="userSpaceOnUse" />
  </defs>
  <sodipodi:namedview
     id="base"
     pagecolor="#ffffff"
     bordercolor="#666666"
     borderopacity="1.0"
     inkscape:pageopacity="0.0"
     inkscape:pageshadow="2"
     inkscape:zoom="8"
     inkscape:cx="14.063711"
     inkscape:cy="25.999295"
     inkscape:document-units="px"
     inkscape:current-layer="layer1"
     showgrid="true"
     units="px"
     inkscape:window-width="1360"
     inkscape:window-height="711"
     inkscape:window-x="0"
     inkscape:window-y="28"
     inkscape:window-maximized="1"
     objecttolerance="10"
     gridtolerance="10"
     guidetolerance="10"
     inkscape:snap-bbox="true"
     inkscape:bbox-nodes="true"
     inkscape:bbox-paths="true"
     inkscape:snap-bbox-edge-midpoints="true"
     inkscape:snap-bbox-midpoints="true"
     inkscape:object-paths="true"
     inkscape:snap-intersection-paths="true"
     inkscape:object-nodes="true"
     inkscape:snap-smooth-nodes="false"
     inkscape:snap-midpoints="false"
     inkscape:showpageshadow="false"
     showborder="true"
     showguides="false">
    <inkscape:grid
       type="xygrid"
       id="grid7897"
       empspacing="4" />
  </sodipodi:namedview>
  <metadata
     id="metadata5">
    <rdf:RDF>
      <cc:Work
         rdf:about="">
        <dc:format>image/svg+xml</dc:format>
        <dc:type
           rdf:resource="http://purl.org/dc/dcmitype/StillImage" />
        <dc:title>Antu icon Theme</dc:title>
      </cc:Work>
    </rdf:RDF>
  </metadata>
  <g
     inkscape:label="Capa 1"
     inkscape:groupmode="layer"
     id="layer1"
     transform="translate(0,-266.64999)">
    <g
       id="g1082">
      <path
         inkscape:connector-curvature="0"
         id="rect905-6"
         d="m 1.999996,274.64999 h 38.000008 c 1.107998,0 1.999996,0.892 1.999996,2 V 300.65 c 0,1.108 -0.891998,1.99999 -1.999996,1.99999 H 1.999996 C 0.891998,302.64999 0,301.758 0,300.65 v -24.00001 c 0,-1.108 0.891998,-2 1.999996,-2 z"
         style="opacity:1;fill:#90a4ae;fill-opacity:1;stroke:none;stroke-width:2;stroke-linecap:round;stroke-linejoin:round;stroke-miterlimit:4;stroke-dasharray:none;stroke-opacity:1"
         sodipodi:nodetypes="sssssssss" />
      <path
         inkscape:connector-curvature="0"
         id="rect928-2"
         d="m 2,275.64999 h 38 c 0.554,0 1,0.446 1,1 v 24 c 0,0.554 -0.446,1 -1,1 H 2 c -0.554,0 -1,-0.446 -1,-1 v -24 c 0,-0.554 0.446,-1 1,-1 z"
         style="opacity:1;fill:url(#linearGradient1028-3);fill-opacity:1;stroke:none;stroke-width:2;stroke-linecap:round;stroke-linejoin:round;stroke-miterlimit:4;stroke-dasharray:none;stroke-opacity:1"
         sodipodi:nodetypes="sssssssss" />
      <path
         id="rect905-2-6"
         d="m 2,266.64999 c -1.107998,0 -2,0.892 -2,2 v 6 2 h 4 34 2 2 v -2 -1 -5 c 0,-1.108 -0.892002,-2 -2,-2 z"
         style="opacity:1;fill:#343b40;fill-opacity:1;stroke:none;stroke-width:2;stroke-linecap:round;stroke-linejoin:round;stroke-miterlimit:4;stroke-dasharray:none;stroke-opacity:1"
         inkscape:connector-curvature="0" />
      <path
         id="rect928-9-1"
         d="m 2,267.64999 c -0.554,0 -1,0.446 -1,1 v 6 1 h 4 32 3 1 v -1 -2 -4 c 0,-0.554 -0.446,-1 -1,-1 z"
         style="opacity:1;fill:url(#linearGradient1020-7);fill-opacity:1;stroke:none;stroke-width:2;stroke-linecap:round;stroke-linejoin:round;stroke-miterlimit:4;stroke-dasharray:none;stroke-opacity:1"
         inkscape:connector-curvature="0" />
    </g>
    <g
       id="g1088">
      <path
         inkscape:connector-curvature="0"
         id="rect905"
         d="m 7.999996,286.64999 h 38.000008 c 1.107998,0 1.999996,0.892 1.999996,2 V 312.65 c 0,1.108 -0.891998,1.99999 -1.999996,1.99999 H 7.999996 C 6.891998,314.64999 6,313.758 6,312.65 v -24.00001 c 0,-1.108 0.891998,-2 1.999996,-2 z"
         style="opacity:1;fill:#90a4ae;fill-opacity:1;stroke:none;stroke-width:2;stroke-linecap:round;stroke-linejoin:round;stroke-miterlimit:4;stroke-dasharray:none;stroke-opacity:1"
         sodipodi:nodetypes="sssssssss" />
      <path
         inkscape:connector-curvature="0"
         id="rect928"
         d="m 8,287.64999 h 38 c 0.554,0 1,0.446 1,1 v 24 c 0,0.554 -0.446,1 -1,1 H 8 c -0.554,0 -1,-0.446 -1,-1 v -24 c 0,-0.554 0.446,-1 1,-1 z"
         style="opacity:1;fill:url(#linearGradient1028);fill-opacity:1;stroke:none;stroke-width:2;stroke-linecap:round;stroke-linejoin:round;stroke-miterlimit:4;stroke-dasharray:none;stroke-opacity:1"
         sodipodi:nodetypes="sssssssss" />
      <path
         id="rect905-2"
         d="m 8,278.64999 c -1.107998,0 -2,0.892 -2,2 v 6 2 h 4 34 2 2 v -2 -1 -5 c 0,-1.108 -0.892002,-2 -2,-2 z"
         style="opacity:1;fill:#115799;fill-opacity:1;stroke:none;stroke-width:2;stroke-linecap:round;stroke-linejoin:round;stroke-miterlimit:4;stroke-dasharray:none;stroke-opacity:1"
         inkscape:connector-curvature="0" />
      <path
         id="rect928-9"
         d="m 8,279.64999 c -0.554,0 -1,0.446 -1,1 v 6 1 h 4 32 3 1 v -1 -2 -4 c 0,-0.554 -0.446,-1 -1,-1 z"
         style="opacity:1;fill:url(#linearGradient1020);fill-opacity:1;stroke:none;stroke-width:2;stroke-linecap:round;stroke-linejoin:round;stroke-miterlimit:4;stroke-dasharray:none;stroke-opacity:1"
         inkscape:connector-curvature="0" />
    </g>
  </g>
</svg>
