<?xml version="1.0" encoding="UTF-8" standalone="no"?>
<!-- Created with Inkscape (http://www.inkscape.org/) -->

<svg
   xmlns:dc="http://purl.org/dc/elements/1.1/"
   xmlns:cc="http://creativecommons.org/ns#"
   xmlns:rdf="http://www.w3.org/1999/02/22-rdf-syntax-ns#"
   xmlns:svg="http://www.w3.org/2000/svg"
   xmlns="http://www.w3.org/2000/svg"
   xmlns:xlink="http://www.w3.org/1999/xlink"
   xmlns:sodipodi="http://sodipodi.sourceforge.net/DTD/sodipodi-0.dtd"
   xmlns:inkscape="http://www.inkscape.org/namespaces/inkscape"
   width="48"
   height="48"
   viewBox="0 0 12.7 12.7"
   version="1.1"
   id="svg8"
   inkscape:version="0.92.3 (2405546, 2018-03-11)"
   sodipodi:docname="wine.svg">
  <defs
     id="defs2">
    <linearGradient
       gradientTransform="translate(-5.55625,-0.5291736)"
       inkscape:collect="always"
       xlink:href="#linearGradient4717"
       id="linearGradient994"
       x1="3.175"
       y1="296.20624"
       x2="3.175"
       y2="290.91458"
       gradientUnits="userSpaceOnUse" />
    <linearGradient
       id="linearGradient4717"
       inkscape:collect="always">
      <stop
         id="stop4713"
         offset="0"
         style="stop-color:#1a86f2;stop-opacity:1" />
      <stop
         id="stop4715"
         offset="1"
         style="stop-color:#31bbfc;stop-opacity:1" />
    </linearGradient>
    <linearGradient
       gradientTransform="translate(-5.55625,-0.5291736)"
       inkscape:collect="always"
       xlink:href="#linearGradient4619"
       id="linearGradient1010"
       x1="9.260417"
       y1="290.38541"
       x2="9.260417"
       y2="285.09375"
       gradientUnits="userSpaceOnUse" />
    <linearGradient
       id="linearGradient4619"
       inkscape:collect="always">
      <stop
         id="stop4615"
         offset="0"
         style="stop-color:#67d924;stop-opacity:1" />
      <stop
         id="stop4617"
         offset="1"
         style="stop-color:#a3eb1e;stop-opacity:1" />
    </linearGradient>
    <linearGradient
       gradientTransform="translate(-5.55625,-0.5291736)"
       inkscape:collect="always"
       xlink:href="#linearGradient4627"
       id="linearGradient1002"
       x1="9.260417"
       y1="296.20624"
       x2="9.260417"
       y2="290.91458"
       gradientUnits="userSpaceOnUse" />
    <linearGradient
       id="linearGradient4627"
       inkscape:collect="always">
      <stop
         id="stop4623"
         offset="0"
         style="stop-color:#ffc900;stop-opacity:1" />
      <stop
         id="stop4625"
         offset="1"
         style="stop-color:#ffe200;stop-opacity:1" />
    </linearGradient>
    <linearGradient
       gradientTransform="translate(-5.55625,-0.5291736)"
       inkscape:collect="always"
       xlink:href="#linearGradient4534"
       id="linearGradient1018"
       x1="2.9104166"
       y1="290.38541"
       x2="3.175"
       y2="284.82916"
       gradientUnits="userSpaceOnUse" />
    <linearGradient
       id="linearGradient4534"
       inkscape:collect="always">
      <stop
         id="stop4530"
         offset="0"
         style="stop-color:#d43434;stop-opacity:1" />
      <stop
         id="stop4532"
         offset="1"
         style="stop-color:#f84f4f;stop-opacity:1" />
    </linearGradient>
    <linearGradient
       inkscape:collect="always"
       xlink:href="#linearGradient4506"
       id="linearGradient949"
       x1="15.999999"
       y1="306.83179"
       x2="15.999999"
       y2="290.46817"
       gradientUnits="userSpaceOnUse"
       gradientTransform="matrix(0.38805556,0,0,0.38805556,-5.4151387,174.22803)" />
    <linearGradient
       inkscape:collect="always"
       id="linearGradient4506">
      <stop
         style="stop-color:#252a34;stop-opacity:1"
         offset="0"
         id="stop4502" />
      <stop
         style="stop-color:#353d4b;stop-opacity:1"
         offset="1"
         id="stop4504" />
    </linearGradient>
  </defs>
  <sodipodi:namedview
     id="base"
     pagecolor="#ffffff"
     bordercolor="#666666"
     borderopacity="1.0"
     inkscape:pageopacity="0.0"
     inkscape:pageshadow="2"
     inkscape:zoom="15.839192"
     inkscape:cx="5.6604779"
     inkscape:cy="23.438386"
     inkscape:document-units="px"
     inkscape:current-layer="layer1"
     showgrid="true"
     units="px"
     inkscape:showpageshadow="false"
     inkscape:snap-bbox="true"
     inkscape:bbox-paths="true"
     inkscape:bbox-nodes="true"
     inkscape:snap-bbox-edge-midpoints="true"
     inkscape:snap-bbox-midpoints="true"
     inkscape:object-paths="true"
     inkscape:snap-intersection-paths="true"
     inkscape:window-width="1874"
     inkscape:window-height="1141"
     inkscape:window-x="46"
     inkscape:window-y="30"
     inkscape:window-maximized="1">
    <inkscape:grid
       type="xygrid"
       id="grid815" />
  </sodipodi:namedview>
  <metadata
     id="metadata5">
    <rdf:RDF>
      <cc:Work
         rdf:about="">
        <dc:format>image/svg+xml</dc:format>
        <dc:type
           rdf:resource="http://purl.org/dc/dcmitype/StillImage" />
        <dc:title></dc:title>
      </cc:Work>
    </rdf:RDF>
  </metadata>
  <g
     inkscape:label="Capa 1"
     inkscape:groupmode="layer"
     id="layer1"
     transform="translate(0,-284.29999)">
    <g
       id="g2437"
       transform="translate(5.5562503,0.529165)">
      <path
         id="rect2538-2-1"
         d="m -4.4979166,295.94166 c -0.2931584,0 -0.5291667,-0.23601 -0.5291667,-0.52917 v -4.7625 -0.52916 h 0.5291667 4.76249997 c 0.293158,0 0.5291666,0.236 0.5291666,0.52916 v 4.7625 0.52917 h -0.5291666 z"
         style="opacity:1;fill:#115799;fill-opacity:1;stroke:none;stroke-width:0.52916676;stroke-linecap:round;stroke-linejoin:round;stroke-miterlimit:4;stroke-dasharray:none;stroke-opacity:1;paint-order:fill markers stroke"
         inkscape:connector-curvature="0" />
      <path
         id="rect2549-6-8"
         d="m -4.4979166,295.67707 c -0.1465792,0 -0.2645834,-0.118 -0.2645834,-0.26458 v -4.7625 -0.26458 h 0.2645834 4.76249997 c 0.1465791,0 0.2645833,0.118 0.2645833,0.26458 v 4.7625 0.26458 h -0.2645833 z"
         style="opacity:1;fill:url(#linearGradient994);fill-opacity:1;stroke:none;stroke-width:0.52916676;stroke-linecap:round;stroke-linejoin:round;stroke-miterlimit:4;stroke-dasharray:none;stroke-opacity:1;paint-order:fill markers stroke"
         inkscape:connector-curvature="0" />
      <path
         id="rect2538-2-7"
         d="m 6.0854177,284.29999 c 0.293157,0 0.529165,0.23601 0.529165,0.52917 v 4.7625 0.52916 H 6.0854177 1.3229164 c -0.2931578,0 -0.52916613,-0.23601 -0.52916613,-0.52916 v -4.7625 -0.52917 H 1.3229164 Z"
         style="opacity:1;fill:#56b21d;fill-opacity:1;stroke:none;stroke-width:0.52916676;stroke-linecap:round;stroke-linejoin:round;stroke-miterlimit:4;stroke-dasharray:none;stroke-opacity:1;paint-order:fill markers stroke"
         inkscape:connector-curvature="0" />
      <path
         id="rect2549-6-9"
         d="m 6.0854177,284.56457 c 0.146578,0 0.264582,0.11801 0.264582,0.26459 v 4.7625 0.26458 H 6.0854177 1.3229164 c -0.1465786,0 -0.2645828,-0.11801 -0.2645828,-0.26458 v -4.7625 -0.26459 h 0.2645828 z"
         style="opacity:1;fill:url(#linearGradient1010);fill-opacity:1;stroke:none;stroke-width:0.52916676;stroke-linecap:round;stroke-linejoin:round;stroke-miterlimit:4;stroke-dasharray:none;stroke-opacity:1;paint-order:fill markers stroke"
         inkscape:connector-curvature="0" />
      <path
         id="rect2538-2-1-2"
         d="m 6.0854177,295.94166 c 0.293157,0 0.529165,-0.23601 0.529165,-0.52917 v -4.7625 -0.52916 H 6.0854177 1.3229164 c -0.2931578,0 -0.52916613,0.236 -0.52916613,0.52916 v 4.7625 0.52917 H 1.3229164 Z"
         style="opacity:1;fill:#ff9a0a;fill-opacity:1;stroke:none;stroke-width:0.52916676;stroke-linecap:round;stroke-linejoin:round;stroke-miterlimit:4;stroke-dasharray:none;stroke-opacity:1;paint-order:fill markers stroke"
         inkscape:connector-curvature="0" />
      <path
         id="rect2549-6-8-0"
         d="m 6.0854177,295.67707 c 0.146578,0 0.264582,-0.118 0.264582,-0.26458 v -4.7625 -0.26458 H 6.0854177 1.3229164 c -0.1465786,0 -0.2645828,0.118 -0.2645828,0.26458 v 4.7625 0.26458 h 0.2645828 z"
         style="opacity:1;fill:url(#linearGradient1002);fill-opacity:1;stroke:none;stroke-width:0.52916676;stroke-linecap:round;stroke-linejoin:round;stroke-miterlimit:4;stroke-dasharray:none;stroke-opacity:1;paint-order:fill markers stroke"
         inkscape:connector-curvature="0" />
      <path
         inkscape:connector-curvature="0"
         id="rect2538-2"
         d="m -4.4979167,284.29999 c -0.2931583,0 -0.5291666,0.236 -0.5291666,0.52916 v 4.7625 0.52917 h 0.5291666 4.76250007 c 0.2931583,0 0.5291666,-0.23601 0.5291666,-0.52917 v -4.7625 -0.52916 h -0.5291666 z"
         style="opacity:1;fill:#992626;fill-opacity:1;stroke:none;stroke-width:0.52916664;stroke-linecap:round;stroke-linejoin:round;stroke-miterlimit:4;stroke-dasharray:none;stroke-opacity:1;paint-order:fill markers stroke" />
      <path
         inkscape:connector-curvature="0"
         id="rect2549-6"
         d="m -4.4979167,284.56457 c -0.1465791,0 -0.2645833,0.118 -0.2645833,0.26458 v 4.7625 0.26459 h 0.2645833 4.76250007 c 0.1465791,0 0.2645833,-0.11801 0.2645833,-0.26459 v -4.7625 -0.26458 h -0.2645833 z"
         style="opacity:1;fill:url(#linearGradient1018);fill-opacity:1;stroke:none;stroke-width:0.52916664;stroke-linecap:round;stroke-linejoin:round;stroke-miterlimit:4;stroke-dasharray:none;stroke-opacity:1;paint-order:fill markers stroke" />
      <path
         id="rect2538"
         d="m -2.1166666,286.68125 h 5.8208333 c 0.2931583,0 0.5291667,0.23601 0.5291667,0.52917 v 5.82083 c 0,0.29316 -0.2360084,0.52917 -0.5291667,0.52917 h -5.8208333 c -0.2931583,0 -0.5291667,-0.23601 -0.5291667,-0.52917 v -5.82083 c 0,-0.29316 0.2360084,-0.52917 0.5291667,-0.52917 z"
         style="opacity:1;fill:#03080d;fill-opacity:1;stroke:none;stroke-width:0.52916676;stroke-linecap:round;stroke-linejoin:round;stroke-miterlimit:4;stroke-dasharray:none;stroke-opacity:1;paint-order:fill markers stroke"
         inkscape:connector-curvature="0" />
      <path
         id="rect2549"
         d="M -2.1166664,286.94584 H 3.704167 c 0.1465791,0 0.2645833,0.118 0.2645833,0.26458 v 5.82083 c 0,0.14658 -0.1180042,0.26459 -0.2645833,0.26459 h -5.8208334 c -0.1465791,0 -0.2645833,-0.11801 -0.2645833,-0.26459 v -5.82083 c 0,-0.14658 0.1180042,-0.26458 0.2645833,-0.26458 z"
         style="opacity:1;fill:url(#linearGradient949);fill-opacity:1;stroke:none;stroke-width:0.52916676;stroke-linecap:round;stroke-linejoin:round;stroke-miterlimit:4;stroke-dasharray:none;stroke-opacity:1;paint-order:fill markers stroke"
         inkscape:connector-curvature="0" />
      <path
         inkscape:connector-curvature="0"
         id="path2699-2"
         d="m 2.38125,288.53331 -1.85208333,0.26459 v 1.32292 H 2.38125 Z m -2.11666663,0.26459 -1.32291637,0.26458 v 1.05834 h 1.32291637 z m -1.32291637,1.5875 v 1.05833 l 1.32291637,0.26458 v -1.32291 z m 1.58749967,0 v 1.32291 L 2.38125,291.97289 v -1.58749 z"
         style="fill:#03080d;fill-opacity:1;stroke-width:0.37598646;enable-background:new" />
      <path
         style="fill:#e5f3ff;fill-opacity:1;stroke-width:0.37598646;enable-background:new"
         d="m 2.38125,288.26873 -1.85208333,0.26459 v 1.32292 H 2.38125 Z m -2.11666663,0.26459 -1.32291667,0.26459 v 1.05833 h 1.32291667 z m -1.32291667,1.58751 v 1.05833 l 1.32291667,0.26457 v -1.3229 z m 1.58749997,0 v 1.3229 L 2.38125,291.70832 v -1.58749 z"
         id="path2699"
         inkscape:connector-curvature="0" />
    </g>
  </g>
</svg>
