<?xml version="1.0" encoding="UTF-8" standalone="no"?>
<!-- Created with Inkscape (http://www.inkscape.org/) -->

<svg
   width="48"
   height="48"
   viewBox="0 0 48 48"
   version="1.1"
   id="svg8"
   inkscape:version="1.2 (dc2aedaf03, 2022-05-15)"
   sodipodi:docname="wps-office-etmain.svg"
   xml:space="preserve"
   xmlns:inkscape="http://www.inkscape.org/namespaces/inkscape"
   xmlns:sodipodi="http://sodipodi.sourceforge.net/DTD/sodipodi-0.dtd"
   xmlns:xlink="http://www.w3.org/1999/xlink"
   xmlns="http://www.w3.org/2000/svg"
   xmlns:svg="http://www.w3.org/2000/svg"
   xmlns:rdf="http://www.w3.org/1999/02/22-rdf-syntax-ns#"
   xmlns:cc="http://creativecommons.org/ns#"
   xmlns:dc="http://purl.org/dc/elements/1.1/"><title
     id="title7895">Antu icon Theme</title><defs
     id="defs2"><linearGradient
       inkscape:collect="always"
       id="linearGradient983"><stop
         style="stop-color:#09cb58;stop-opacity:1"
         offset="0"
         id="stop979" /><stop
         style="stop-color:#75d97d;stop-opacity:1"
         offset="1"
         id="stop981" /></linearGradient><linearGradient
       inkscape:collect="always"
       xlink:href="#linearGradient983"
       id="linearGradient985"
       x1="48"
       y1="313.64999"
       x2="48"
       y2="275.64999"
       gradientUnits="userSpaceOnUse" /></defs><sodipodi:namedview
     id="base"
     pagecolor="#ffffff"
     bordercolor="#666666"
     borderopacity="1.0"
     inkscape:pageopacity="0.0"
     inkscape:pageshadow="2"
     inkscape:zoom="13.243928"
     inkscape:cx="31.486127"
     inkscape:cy="32.052425"
     inkscape:document-units="px"
     inkscape:current-layer="layer1"
     showgrid="true"
     units="px"
     inkscape:window-width="2160"
     inkscape:window-height="1337"
     inkscape:window-x="0"
     inkscape:window-y="0"
     inkscape:window-maximized="1"
     objecttolerance="10"
     gridtolerance="10"
     guidetolerance="10"
     inkscape:snap-bbox="true"
     inkscape:bbox-nodes="true"
     inkscape:bbox-paths="true"
     inkscape:snap-bbox-edge-midpoints="true"
     inkscape:snap-bbox-midpoints="true"
     inkscape:object-paths="true"
     inkscape:snap-intersection-paths="true"
     inkscape:object-nodes="true"
     inkscape:snap-smooth-nodes="false"
     inkscape:snap-midpoints="false"
     inkscape:showpageshadow="false"
     inkscape:pagecheckerboard="0"
     inkscape:deskcolor="#d1d1d1"><inkscape:grid
       type="xygrid"
       id="grid7897"
       empspacing="4" /></sodipodi:namedview><metadata
     id="metadata5"><rdf:RDF><cc:Work
         rdf:about=""><dc:format>image/svg+xml</dc:format><dc:type
           rdf:resource="http://purl.org/dc/dcmitype/StillImage" /><dc:title>Antu icon Theme</dc:title></cc:Work></rdf:RDF></metadata><g
     inkscape:label="Capa 1"
     inkscape:groupmode="layer"
     id="layer1"
     transform="translate(0,-266.64999)"><g
       id="g5422"
       transform="translate(-24,-4.000005)"><g
         transform="matrix(5.5433071,0,0,5.5433071,24.533333,-1328.2455)"
         id="layer1-3-2"
         inkscape:label="Capa 1" /><path
         style="opacity:1;fill:#269334;fill-opacity:1;stroke:none;stroke-width:3.88529491;stroke-linecap:round;stroke-linejoin:round;stroke-miterlimit:4;stroke-dasharray:none;stroke-opacity:1"
         d="m 29,272.64999 h 38 c 1.662,0 3,1.338 3,3 v 38 c 0,1.662 -1.338,3 -3,3 H 29 c -1.662,0 -3,-1.338 -3,-3 v -38 c 0,-1.662 1.338,-3 3,-3 z"
         id="rect854"
         inkscape:connector-curvature="0" /><path
         style="opacity:1;fill:url(#linearGradient985);fill-opacity:1;stroke:none;stroke-width:3.70869064;stroke-linecap:round;stroke-linejoin:round;stroke-miterlimit:4;stroke-dasharray:none;stroke-opacity:1"
         d="m 29,273.64999 h 38 c 1.108,0 2,0.892 2,2 v 38 c 0,1.108 -0.892,2 -2,2 H 29 c -1.108,0 -2,-0.892 -2,-2 v -38 c 0,-1.108 0.892,-2 2,-2 z"
         id="rect854-2"
         inkscape:connector-curvature="0" /></g><path
       id="rect1657-3"
       style="fill:#269334;fill-opacity:1;stroke:none;stroke-width:4;stroke-linecap:round;stroke-linejoin:round;stop-color:#000000"
       d="m 19,277.64999 c -4.431987,0 -8,3.56801 -8,8 0,4.43199 3.568013,8 8,8 h 1 8 1 c 0.103875,0 0.205545,0.005 0.306641,0.0156 0.101096,0.0102 0.201006,0.025 0.298828,0.0449 0.09782,0.0199 0.195009,0.0451 0.289062,0.0742 0.09405,0.0291 0.185602,0.0618 0.275391,0.0996 0.08979,0.0379 0.176689,0.0809 0.261719,0.12695 0.08503,0.0461 0.168271,0.0966 0.248047,0.15039 0.07977,0.0538 0.156442,0.11083 0.230468,0.17187 0.07403,0.0611 0.14511,0.12558 0.212891,0.19336 0.06778,0.0678 0.132318,0.13887 0.193359,0.21289 0.06104,0.074 0.118069,0.1507 0.171875,0.23047 0.05381,0.0798 0.104314,0.16302 0.150391,0.24805 0.04608,0.085 0.0891,0.17193 0.126953,0.26172 0.03785,0.0898 0.07048,0.18134 0.09961,0.27539 0.02913,0.094 0.0543,0.19124 0.07422,0.28906 0.01992,0.0978 0.03472,0.19773 0.04492,0.29883 0.01021,0.10117 0.01563,0.20277 0.01563,0.30664 0,0.10387 -0.0054,0.20554 -0.01563,0.30664 -0.01021,0.1011 -0.02501,0.20101 -0.04492,0.29883 -0.01992,0.0978 -0.04509,0.19501 -0.07422,0.28906 -0.02913,0.0941 -0.06176,0.1856 -0.09961,0.27539 -0.03785,0.0898 -0.08088,0.17669 -0.126953,0.26172 -0.04608,0.085 -0.09658,0.16827 -0.150391,0.24805 -0.05381,0.0798 -0.110833,0.15644 -0.171875,0.23047 -0.06104,0.074 -0.125578,0.14511 -0.193359,0.21289 -0.06778,0.0678 -0.138865,0.13231 -0.212891,0.19336 -0.07403,0.061 -0.150695,0.11806 -0.230468,0.17187 -0.07978,0.0538 -0.163018,0.10432 -0.248047,0.15039 -0.08503,0.0461 -0.17193,0.0891 -0.261719,0.12696 -0.08979,0.0379 -0.181338,0.0705 -0.275391,0.0996 -0.09405,0.0291 -0.19124,0.0543 -0.289062,0.0742 -0.09782,0.0199 -0.197732,0.0347 -0.298828,0.0449 -0.101096,0.0102 -0.202766,0.0156 -0.306641,0.0156 H 26.5 24 21.996094 21.580078 13.5 c -1.384999,0 -2.5,1.115 -2.5,2.5 0,1.385 1.115001,2.5 2.5,2.5 H 21.996094 29 c 4.431987,0 8,-3.56801 8,-8 0,-4.43199 -3.568013,-8 -8,-8 H 28 26.419922 20 19 c -0.103875,0 -0.205545,-0.005 -0.306641,-0.0156 -0.101096,-0.0102 -0.201006,-0.025 -0.298828,-0.0449 -0.09782,-0.0199 -0.195009,-0.0451 -0.289062,-0.0742 -0.09405,-0.0291 -0.185602,-0.0618 -0.275391,-0.0996 -0.08979,-0.0379 -0.176689,-0.0809 -0.261719,-0.12696 -0.08503,-0.0461 -0.168271,-0.0966 -0.248047,-0.15039 -0.07977,-0.0538 -0.156442,-0.11083 -0.230468,-0.17187 -0.07403,-0.0611 -0.14511,-0.12558 -0.212891,-0.19336 -0.06778,-0.0678 -0.132318,-0.13887 -0.193359,-0.21289 -0.06104,-0.074 -0.118069,-0.1507 -0.171875,-0.23047 -0.05381,-0.0798 -0.104314,-0.16302 -0.150391,-0.24805 -0.04608,-0.085 -0.0891,-0.17193 -0.126953,-0.26172 -0.03785,-0.0898 -0.07048,-0.18134 -0.09961,-0.27539 -0.02913,-0.094 -0.0543,-0.19124 -0.07422,-0.28906 -0.01992,-0.0978 -0.03472,-0.19773 -0.04492,-0.29883 C 16.005419,285.85553 16,285.75386 16,285.64999 c 0,-0.10387 0.0054,-0.20554 0.01563,-0.30664 0.01021,-0.1011 0.02501,-0.20101 0.04492,-0.29883 0.01992,-0.0978 0.04509,-0.19501 0.07422,-0.28906 0.02913,-0.0941 0.06176,-0.1856 0.09961,-0.27539 0.03785,-0.0898 0.08088,-0.17669 0.126953,-0.26172 0.04608,-0.085 0.09658,-0.16827 0.150391,-0.24805 0.05381,-0.0798 0.110833,-0.15644 0.171875,-0.23047 0.06104,-0.074 0.125578,-0.14511 0.193359,-0.21289 0.06778,-0.0678 0.138865,-0.13231 0.212891,-0.19336 0.07403,-0.061 0.150695,-0.11806 0.230468,-0.17187 0.07978,-0.0538 0.163018,-0.10432 0.248047,-0.15039 0.08503,-0.0461 0.17193,-0.0891 0.261719,-0.12695 0.08979,-0.0379 0.181338,-0.0705 0.275391,-0.0996 0.09405,-0.0291 0.19124,-0.0543 0.289062,-0.0742 0.09782,-0.0199 0.197732,-0.0347 0.298828,-0.0449 0.101096,-0.0102 0.202766,-0.0156 0.306641,-0.0156 H 21.5 24 26.003906 26.419922 33.5 c 1.384999,0 2.5,-1.115 2.5,-2.5 0,-1.385 -1.115001,-2.5 -2.5,-2.5 h -7.496094 z"
       sodipodi:nodetypes="sssccscssccccccccscssscccsccccccccsscsccccssscssscccscccccscscssssssssssssccscscccccsccccssscs" /><path
       id="rect1657"
       style="fill:#e3f8eb;fill-opacity:1;stroke:none;stroke-width:4;stroke-linecap:round;stroke-linejoin:round;stop-color:#000000"
       d="m 19,276.64999 c -4.431987,0 -8,3.56801 -8,8 0,4.43199 3.568013,8 8,8 h 1 8 1 c 0.103875,0 0.205545,0.005 0.306641,0.0156 0.101096,0.0102 0.201006,0.025 0.298828,0.0449 0.09782,0.0199 0.195009,0.0451 0.289062,0.0742 0.09405,0.0291 0.185602,0.0618 0.275391,0.0996 0.08979,0.0379 0.176689,0.0809 0.261719,0.12695 0.08503,0.0461 0.168271,0.0966 0.248047,0.15039 0.07977,0.0538 0.156442,0.11083 0.230468,0.17187 0.07403,0.0611 0.14511,0.12558 0.212891,0.19336 0.06778,0.0678 0.132318,0.13887 0.193359,0.21289 0.06104,0.074 0.118069,0.1507 0.171875,0.23047 0.05381,0.0798 0.104314,0.16302 0.150391,0.24805 0.04608,0.085 0.0891,0.17193 0.126953,0.26172 0.03785,0.0898 0.07048,0.18134 0.09961,0.27539 0.02913,0.094 0.0543,0.19124 0.07422,0.28906 0.01992,0.0978 0.03472,0.19773 0.04492,0.29883 0.01021,0.10117 0.01563,0.20277 0.01563,0.30664 0,0.10387 -0.0054,0.20554 -0.01563,0.30664 -0.01021,0.1011 -0.02501,0.20101 -0.04492,0.29883 -0.01992,0.0978 -0.04509,0.19501 -0.07422,0.28906 -0.02913,0.0941 -0.06176,0.1856 -0.09961,0.27539 -0.03785,0.0898 -0.08088,0.17669 -0.126953,0.26172 -0.04608,0.085 -0.09658,0.16827 -0.150391,0.24805 -0.05381,0.0798 -0.110833,0.15644 -0.171875,0.23047 -0.06104,0.074 -0.125578,0.14511 -0.193359,0.21289 -0.06778,0.0678 -0.138865,0.13231 -0.212891,0.19336 -0.07403,0.061 -0.150695,0.11806 -0.230468,0.17187 -0.07978,0.0538 -0.163018,0.10432 -0.248047,0.15039 -0.08503,0.0461 -0.17193,0.0891 -0.261719,0.12696 -0.08979,0.0379 -0.181338,0.0705 -0.275391,0.0996 -0.09405,0.0291 -0.19124,0.0543 -0.289062,0.0742 -0.09782,0.0199 -0.197732,0.0347 -0.298828,0.0449 -0.101096,0.0102 -0.202766,0.0156 -0.306641,0.0156 H 26.5 24 21.996094 21.580078 13.5 c -1.384999,0 -2.5,1.115 -2.5,2.5 0,1.385 1.115001,2.5 2.5,2.5 H 21.996094 29 c 4.431987,0 8,-3.56801 8,-8 0,-4.43199 -3.568013,-8 -8,-8 H 28 26.419922 20 19 c -0.103875,0 -0.205545,-0.005 -0.306641,-0.0156 -0.101096,-0.0102 -0.201006,-0.025 -0.298828,-0.0449 -0.09782,-0.0199 -0.195009,-0.0451 -0.289062,-0.0742 -0.09405,-0.0291 -0.185602,-0.0618 -0.275391,-0.0996 -0.08979,-0.0379 -0.176689,-0.0809 -0.261719,-0.12696 -0.08503,-0.0461 -0.168271,-0.0966 -0.248047,-0.15039 -0.07977,-0.0538 -0.156442,-0.11083 -0.230468,-0.17187 -0.07403,-0.0611 -0.14511,-0.12558 -0.212891,-0.19336 -0.06778,-0.0678 -0.132318,-0.13887 -0.193359,-0.21289 -0.06104,-0.074 -0.118069,-0.1507 -0.171875,-0.23047 -0.05381,-0.0798 -0.104314,-0.16302 -0.150391,-0.24805 -0.04608,-0.085 -0.0891,-0.17193 -0.126953,-0.26172 -0.03785,-0.0898 -0.07048,-0.18134 -0.09961,-0.27539 -0.02913,-0.094 -0.0543,-0.19124 -0.07422,-0.28906 -0.01992,-0.0978 -0.03472,-0.19773 -0.04492,-0.29883 C 16.005419,284.85553 16,284.75386 16,284.64999 c 0,-0.10387 0.0054,-0.20554 0.01563,-0.30664 0.01021,-0.1011 0.02501,-0.20101 0.04492,-0.29883 0.01992,-0.0978 0.04509,-0.19501 0.07422,-0.28906 0.02913,-0.0941 0.06176,-0.1856 0.09961,-0.27539 0.03785,-0.0898 0.08088,-0.17669 0.126953,-0.26172 0.04608,-0.085 0.09658,-0.16827 0.150391,-0.24805 0.05381,-0.0798 0.110833,-0.15644 0.171875,-0.23047 0.06104,-0.074 0.125578,-0.14511 0.193359,-0.21289 0.06778,-0.0678 0.138865,-0.13231 0.212891,-0.19336 0.07403,-0.061 0.150695,-0.11806 0.230468,-0.17187 0.07978,-0.0538 0.163018,-0.10432 0.248047,-0.15039 0.08503,-0.0461 0.17193,-0.0891 0.261719,-0.12695 0.08979,-0.0379 0.181338,-0.0705 0.275391,-0.0996 0.09405,-0.0291 0.19124,-0.0543 0.289062,-0.0742 0.09782,-0.0199 0.197732,-0.0347 0.298828,-0.0449 0.101096,-0.0102 0.202766,-0.0156 0.306641,-0.0156 H 21.5 24 26.003906 26.419922 33.5 c 1.384999,0 2.5,-1.115 2.5,-2.5 0,-1.385 -1.115001,-2.5 -2.5,-2.5 h -7.496094 z"
       sodipodi:nodetypes="sssccscssccccccccscssscccsccccccccsscsccccssscssscccscccccscscssssssssssssccscscccccsccccssscs" /></g></svg>
