<?xml version="1.0" encoding="UTF-8" standalone="no"?>
<!-- Created with Inkscape (http://www.inkscape.org/) -->

<svg
   width="48"
   height="48"
   viewBox="0 0 48 48"
   version="1.1"
   id="svg8"
   inkscape:version="1.2 (dc2aedaf03, 2022-05-15)"
   sodipodi:docname="wps-office-wpsmain.svg"
   xml:space="preserve"
   xmlns:inkscape="http://www.inkscape.org/namespaces/inkscape"
   xmlns:sodipodi="http://sodipodi.sourceforge.net/DTD/sodipodi-0.dtd"
   xmlns:xlink="http://www.w3.org/1999/xlink"
   xmlns="http://www.w3.org/2000/svg"
   xmlns:svg="http://www.w3.org/2000/svg"
   xmlns:rdf="http://www.w3.org/1999/02/22-rdf-syntax-ns#"
   xmlns:cc="http://creativecommons.org/ns#"
   xmlns:dc="http://purl.org/dc/elements/1.1/"><title
     id="title7895">Antu icon Theme</title><defs
     id="defs2"><linearGradient
       inkscape:collect="always"
       id="linearGradient983"><stop
         style="stop-color:#1982f1;stop-opacity:1"
         offset="0"
         id="stop979" /><stop
         style="stop-color:#1fb5f9;stop-opacity:1"
         offset="1"
         id="stop981" /></linearGradient><linearGradient
       inkscape:collect="always"
       xlink:href="#linearGradient983"
       id="linearGradient985"
       x1="48"
       y1="313.64999"
       x2="48"
       y2="275.64999"
       gradientUnits="userSpaceOnUse" /></defs><sodipodi:namedview
     id="base"
     pagecolor="#ffffff"
     bordercolor="#666666"
     borderopacity="1.0"
     inkscape:pageopacity="0.0"
     inkscape:pageshadow="2"
     inkscape:zoom="18.729742"
     inkscape:cx="36.412674"
     inkscape:cy="17.966077"
     inkscape:document-units="px"
     inkscape:current-layer="g911"
     showgrid="true"
     units="px"
     inkscape:window-width="2160"
     inkscape:window-height="1337"
     inkscape:window-x="0"
     inkscape:window-y="0"
     inkscape:window-maximized="1"
     objecttolerance="10"
     gridtolerance="10"
     guidetolerance="10"
     inkscape:snap-bbox="true"
     inkscape:bbox-nodes="true"
     inkscape:bbox-paths="true"
     inkscape:snap-bbox-edge-midpoints="true"
     inkscape:snap-bbox-midpoints="true"
     inkscape:object-paths="true"
     inkscape:snap-intersection-paths="true"
     inkscape:object-nodes="true"
     inkscape:snap-smooth-nodes="false"
     inkscape:snap-midpoints="false"
     inkscape:showpageshadow="false"
     inkscape:pagecheckerboard="0"
     inkscape:deskcolor="#d1d1d1"><inkscape:grid
       type="xygrid"
       id="grid7897"
       empspacing="4" /></sodipodi:namedview><metadata
     id="metadata5"><rdf:RDF><cc:Work
         rdf:about=""><dc:format>image/svg+xml</dc:format><dc:type
           rdf:resource="http://purl.org/dc/dcmitype/StillImage" /><dc:title>Antu icon Theme</dc:title></cc:Work></rdf:RDF></metadata><g
     inkscape:label="Capa 1"
     inkscape:groupmode="layer"
     id="layer1"
     transform="translate(0,-266.64999)"><g
       id="g1535"
       transform="translate(35,-15.000005)"><g
         id="g911"
         transform="translate(-35,15)"><g
           id="g5422"
           transform="translate(-24,-4)"><g
             transform="matrix(5.5433071,0,0,5.5433071,24.533333,-1328.2455)"
             id="layer1-3-2"
             inkscape:label="Capa 1" /><path
             style="opacity:1;fill:#1466b2;fill-opacity:1;stroke:none;stroke-width:3.88529491;stroke-linecap:round;stroke-linejoin:round;stroke-miterlimit:4;stroke-dasharray:none;stroke-opacity:1"
             d="m 29,272.64999 h 38 c 1.662,0 3,1.338 3,3 v 38 c 0,1.662 -1.338,3 -3,3 H 29 c -1.662,0 -3,-1.338 -3,-3 v -38 c 0,-1.662 1.338,-3 3,-3 z"
             id="rect854" /><path
             style="opacity:1;fill:url(#linearGradient985);fill-opacity:1;stroke:none;stroke-width:3.70869064;stroke-linecap:round;stroke-linejoin:round;stroke-miterlimit:4;stroke-dasharray:none;stroke-opacity:1"
             d="m 29,273.64999 h 38 c 1.108,0 2,0.892 2,2 v 38 c 0,1.108 -0.892,2 -2,2 H 29 c -1.108,0 -2,-0.892 -2,-2 v -38 c 0,-1.108 0.892,-2 2,-2 z"
             id="rect854-2" /></g><path
           id="rect1750-2"
           style="fill:#1466b2;fill-opacity:1;stroke-width:4;stroke-linecap:round;stroke-linejoin:round;stop-color:#000000"
           d="m 12.999928,279.65021 c -1.661999,0 -3,1.33801 -3,3 v 19 c 0,0.009 0.0019,0.0168 0.002,0.0254 a 3,3 0 0 0 0.002,0.0371 c 0.0044,0.2163 0.03061,0.42642 0.07813,0.62891 a 3,3 0 0 0 0.0078,0.0273 c 0.05167,0.21118 0.125208,0.41278 0.21875,0.60352 a 3,3 0 0 0 0.0098,0.0215 c 0.199419,0.39863 0.484466,0.74538 0.832032,1.01758 a 3,3 0 0 0 0.02148,0.0156 c 0.17188,0.13216 0.35793,0.24705 0.556641,0.33984 a 3,3 0 0 0 0.0078,0.004 c 0.197719,0.0916 0.406484,0.16384 0.625,0.21094 a 3,3 0 0 0 0.0078,0.002 c 0.203537,0.0433 0.414042,0.0664 0.630859,0.0664 0.0086,0 0.0168,-0.002 0.02539,-0.002 a 3,3 0 0 0 0.03711,-0.002 c 0.210063,-0.004 0.414219,-0.0292 0.611328,-0.0742 a 3,3 0 0 0 0.06836,-0.0176 c 0.200425,-0.0507 0.392374,-0.12033 0.574218,-0.20898 a 3,3 0 0 0 0.03516,-0.0176 c 0.209155,-0.1054 0.404732,-0.23343 0.582032,-0.38281 l 9.06631,-7.41794 9.066406,7.41797 c 0.011,0.009 0.02207,0.0182 0.0332,0.0273 0.168343,0.13774 0.352652,0.25661 0.548829,0.35547 a 3,3 0 0 0 0.03516,0.0176 c 0.181844,0.0887 0.373793,0.15823 0.574218,0.20898 a 3,3 0 0 0 0.06836,0.0176 c 0.197109,0.045 0.401265,0.0699 0.611328,0.0742 a 3,3 0 0 0 0.03711,0.002 c 0.0086,6e-5 0.01678,0.002 0.02539,0.002 0.2155,0 0.424558,-0.0236 0.626953,-0.0664 0.0012,-2.6e-4 0.0027,2.6e-4 0.0039,0 a 3,3 0 0 0 0.0078,-0.002 c 0.218516,-0.0471 0.427281,-0.11932 0.625,-0.21094 0.0013,-6.3e-4 0.0026,-0.001 0.0039,-0.002 a 3,3 0 0 0 0.0039,-0.002 c 0.198711,-0.0928 0.384761,-0.20768 0.556641,-0.33984 a 3,3 0 0 0 0.02148,-0.0156 c 0.236295,-0.18505 0.443852,-0.40333 0.615235,-0.65039 0.04454,-0.0642 0.08549,-0.13147 0.125,-0.19923 0.03602,-0.0618 0.06993,-0.12495 0.101562,-0.18945 0.0029,-0.006 0.0069,-0.0115 0.0098,-0.0176 a 3,3 0 0 0 0.0078,-0.0176 c 0.03098,-0.0653 0.05964,-0.13135 0.08594,-0.19921 0.02789,-0.072 0.05378,-0.14419 0.07617,-0.21875 4.05e-4,-0.001 0.0015,-0.003 0.002,-0.004 a 3,3 0 0 0 0.06055,-0.23634 c 0.0068,-0.0322 0.01179,-0.0651 0.01758,-0.0977 a 3,3 0 0 0 0.02734,-0.18946 c 0.0026,-0.0234 0.0057,-0.0467 0.0078,-0.0703 a 3,3 0 0 0 0.01172,-0.24025 c 1.08e-4,-0.0106 0.002,-0.0206 0.002,-0.0312 v -0.0645 -18.93555 c 0,-1.66199 -1.338001,-3 -3,-3 -1.661999,0 -3,1.33801 -3,3 v 12.66798 l -6.099609,-4.99023 a 3,3 0 0 0 -0.488282,-0.32423 3,3 0 0 0 -0.002,-0.002 3,3 0 0 0 -0.179687,-0.0742 3,3 0 0 0 -0.363281,-0.15039 3,3 0 0 0 -0.56836,-0.11328 3,3 0 0 0 -0.0098,0 3,3 0 0 0 -0.58789,0 3,3 0 0 0 -0.472656,0.0937 3,3 0 0 0 -0.0957,0.0195 3,3 0 0 0 -0.002,0 3,3 0 0 0 -0.361328,0.15039 3,3 0 0 0 -0.18164,0.0762 3,3 0 0 0 -0.199219,0.13281 3,3 0 0 0 -0.289063,0.19141 l -6.099557,4.99051 v -12.66797 c 0,-1.66199 -1.338001,-3 -3,-3 z" /><path
           id="rect1750"
           style="fill:#dff1fc;stroke-width:4;stroke-linecap:round;stroke-linejoin:round;stop-color:#000000;fill-opacity:1"
           d="M 13 278.64999 C 11.338001 278.64999 10 279.988 10 281.64999 L 10 300.64999 C 10 300.65861 10.001881 300.66679 10.001953 300.67539 A 3 3 0 0 0 10.003906 300.71249 C 10.008346 300.92879 10.034517 301.13891 10.082031 301.3414 A 3 3 0 0 0 10.089844 301.36874 C 10.141513 301.57992 10.215052 301.78152 10.308594 301.97226 A 3 3 0 0 0 10.318359 301.99374 C 10.517778 302.39237 10.802825 302.73912 11.150391 303.01132 A 3 3 0 0 0 11.171875 303.02695 C 11.343755 303.15911 11.529805 303.274 11.728516 303.36679 A 3 3 0 0 0 11.736328 303.3707 C 11.934047 303.46232 12.142812 303.53454 12.361328 303.58164 A 3 3 0 0 0 12.369141 303.58359 C 12.572678 303.62688 12.783183 303.64999 13 303.64999 C 13.008612 303.64999 13.016796 303.64811 13.025391 303.64804 A 3 3 0 0 0 13.0625 303.64609 C 13.272563 303.64178 13.476719 303.61687 13.673828 303.57187 A 3 3 0 0 0 13.742188 303.55429 C 13.942613 303.50354 14.134562 303.43396 14.316406 303.34531 A 3 3 0 0 0 14.351562 303.32773 C 14.560717 303.22233 14.756294 303.0943 14.933594 302.94492 L 24 295.52695 L 33.066406 302.94492 C 33.077408 302.95419 33.088473 302.96315 33.099609 302.97226 C 33.267952 303.11001 33.452261 303.22887 33.648438 303.32773 A 3 3 0 0 0 33.683594 303.34531 C 33.865438 303.43396 34.057387 303.50354 34.257812 303.55429 A 3 3 0 0 0 34.326172 303.57187 C 34.523281 303.61687 34.727437 303.64178 34.9375 303.64609 A 3 3 0 0 0 34.974609 303.64804 C 34.983204 303.64811 34.991388 303.64999 35 303.64999 C 35.2155 303.64999 35.424558 303.62637 35.626953 303.58359 C 35.62819 303.58333 35.629623 303.58385 35.630859 303.58359 A 3 3 0 0 0 35.638672 303.58164 C 35.857188 303.53454 36.065953 303.46232 36.263672 303.3707 C 36.264995 303.37008 36.266256 303.36936 36.267578 303.36874 A 3 3 0 0 0 36.271484 303.36679 C 36.470195 303.274 36.656245 303.15911 36.828125 303.02695 A 3 3 0 0 0 36.849609 303.01132 C 37.085904 302.82627 37.293461 302.60799 37.464844 302.36093 C 37.509386 302.29672 37.55033 302.22947 37.589844 302.16171 C 37.625867 302.09995 37.659773 302.03676 37.691406 301.97226 C 37.694354 301.96625 37.698263 301.96072 37.701172 301.95468 A 3 3 0 0 0 37.708984 301.9371 C 37.739967 301.87176 37.76862 301.80575 37.794922 301.73789 C 37.822811 301.66592 37.848704 301.5937 37.871094 301.51914 C 37.871499 301.51779 37.872643 301.51658 37.873047 301.51523 A 3 3 0 0 0 37.933594 301.2789 C 37.94041 301.24675 37.945388 301.21377 37.951172 301.18124 A 3 3 0 0 0 37.978516 300.99179 C 37.981162 300.96836 37.984221 300.94507 37.986328 300.92148 A 3 3 0 0 0 37.998047 300.68124 C 37.998155 300.67068 38 300.66059 38 300.64999 L 38 300.58554 L 38 281.64999 C 38 279.988 36.661999 278.64999 35 278.64999 C 33.338001 278.64999 32 279.988 32 281.64999 L 32 294.31796 L 25.900391 289.32773 A 3 3 0 0 0 25.412109 289.00351 A 3 3 0 0 0 25.410156 289.00156 A 3 3 0 0 0 25.230469 288.92734 A 3 3 0 0 0 24.867188 288.77695 A 3 3 0 0 0 24.298828 288.66367 A 3 3 0 0 0 24.289062 288.66367 A 3 3 0 0 0 23.701172 288.66367 A 3 3 0 0 0 23.228516 288.75742 A 3 3 0 0 0 23.132812 288.77695 A 3 3 0 0 0 23.130859 288.77695 A 3 3 0 0 0 22.769531 288.92734 A 3 3 0 0 0 22.587891 289.00351 A 3 3 0 0 0 22.388672 289.13632 A 3 3 0 0 0 22.099609 289.32773 L 16 294.31796 L 16 281.64999 C 16 279.988 14.661999 278.64999 13 278.64999 z " /><g
           id="path2058"><path
             style="color:#000000;fill:#5872d5;stroke-width:6;stroke-linecap:round;stroke-linejoin:round;-inkscape-stroke:none"
             d="m 13,300.64999 11,-9"
             id="path2511" /></g><g
           id="path2058-6" /></g></g></g></svg>
