<?xml version="1.0" encoding="UTF-8" standalone="no"?>
<!-- Created with Inkscape (http://www.inkscape.org/) -->

<svg
   xmlns:dc="http://purl.org/dc/elements/1.1/"
   xmlns:cc="http://creativecommons.org/ns#"
   xmlns:rdf="http://www.w3.org/1999/02/22-rdf-syntax-ns#"
   xmlns:svg="http://www.w3.org/2000/svg"
   xmlns="http://www.w3.org/2000/svg"
   xmlns:xlink="http://www.w3.org/1999/xlink"
   xmlns:sodipodi="http://sodipodi.sourceforge.net/DTD/sodipodi-0.dtd"
   xmlns:inkscape="http://www.inkscape.org/namespaces/inkscape"
   width="48"
   height="48"
   viewBox="0 0 12.7 12.7"
   version="1.1"
   id="svg1399"
   inkscape:version="0.92.4 5da689c313, 2019-01-14"
   sodipodi:docname="yast-nis-server.svg">
  <defs
     id="defs1393">
    <linearGradient
       inkscape:collect="always"
       xlink:href="#linearGradient4565"
       id="linearGradient1700"
       gradientUnits="userSpaceOnUse"
       gradientTransform="matrix(0.06208888,0,0,0.06208888,-135.90527,607.7729)"
       x1="2102.8335"
       y1="-4960.8271"
       x2="2102.8335"
       y2="-5114.2363" />
    <linearGradient
       inkscape:collect="always"
       id="linearGradient4565">
      <stop
         style="stop-color:#1780f2;stop-opacity:1"
         offset="0"
         id="stop4561" />
      <stop
         style="stop-color:#02b3fe;stop-opacity:1"
         offset="1"
         id="stop4563" />
    </linearGradient>
    <linearGradient
       gradientTransform="translate(-5.311982,-11.559396)"
       inkscape:collect="always"
       xlink:href="#linearGradient4582"
       id="linearGradient920"
       x1="2.3505275"
       y1="312.64304"
       x2="2.3505273"
       y2="305.23471"
       gradientUnits="userSpaceOnUse" />
    <linearGradient
       inkscape:collect="always"
       id="linearGradient4582">
      <stop
         style="stop-color:#5b637b;stop-opacity:1"
         offset="0"
         id="stop4578" />
      <stop
         style="stop-color:#727b97;stop-opacity:1"
         offset="1"
         id="stop4580" />
    </linearGradient>
  </defs>
  <sodipodi:namedview
     id="base"
     pagecolor="#ffffff"
     bordercolor="#666666"
     borderopacity="1.0"
     inkscape:pageopacity="0.0"
     inkscape:pageshadow="2"
     inkscape:zoom="7.9195959"
     inkscape:cx="19.486679"
     inkscape:cy="-1.5708746"
     inkscape:document-units="mm"
     inkscape:current-layer="layer1"
     showgrid="true"
     inkscape:showpageshadow="false"
     units="px"
     inkscape:window-width="1920"
     inkscape:window-height="999"
     inkscape:window-x="0"
     inkscape:window-y="0"
     inkscape:window-maximized="1">
    <inkscape:grid
       type="xygrid"
       id="grid2103" />
  </sodipodi:namedview>
  <metadata
     id="metadata1396">
    <rdf:RDF>
      <cc:Work
         rdf:about="">
        <dc:format>image/svg+xml</dc:format>
        <dc:type
           rdf:resource="http://purl.org/dc/dcmitype/StillImage" />
        <dc:title></dc:title>
      </cc:Work>
    </rdf:RDF>
  </metadata>
  <g
     inkscape:label="Capa 1"
     inkscape:groupmode="layer"
     id="layer1"
     transform="translate(0,-284.30005)">
    <g
       id="g2101"
       transform="translate(11.692705,-4.3481533)">
      <path
         style="opacity:1;fill:#1571da;fill-opacity:1;stroke:none;stroke-width:0.08315476;stroke-miterlimit:4;stroke-dasharray:none;stroke-opacity:1"
         d="m -5.3427077,289.17737 h 6.6e-6 c 3.2247404,0 5.82083005,2.59609 5.82083005,5.82083 0,3.22474 -2.59608965,5.82083 -5.82083005,5.82083 h -6.6e-6 c -3.2247409,0 -5.8208303,-2.59609 -5.8208303,-5.82083 0,-3.22474 2.5960894,-5.82083 5.8208303,-5.82083 z"
         id="rect4544-5-5-9-9"
         inkscape:connector-curvature="0" />
      <path
         style="opacity:1;fill:url(#linearGradient1700);fill-opacity:1;stroke:none;stroke-width:0.079375;stroke-miterlimit:4;stroke-dasharray:none;stroke-opacity:1"
         d="m -5.3427045,289.44196 h 6.1e-6 c 3.0781617,0 5.55624735,2.47808 5.55624735,5.55624 0,3.07817 -2.47808565,5.55625 -5.55624735,5.55625 h -6.1e-6 c -3.0781617,0 -5.5562475,-2.47808 -5.5562475,-5.55625 0,-3.07816 2.4780858,-5.55624 5.5562475,-5.55624 z"
         id="rect4544-5-5-9"
         inkscape:connector-curvature="0" />
      <path
         inkscape:connector-curvature="0"
         style="opacity:1;vector-effect:none;fill:#d7f0fe;fill-opacity:1;stroke:none;stroke-width:0.26458332;stroke-linecap:round;stroke-linejoin:round;stroke-miterlimit:4;stroke-dasharray:none;stroke-dashoffset:0;stroke-opacity:1"
         d="m -4.9540977,289.48123 c -0.1156867,-0.008 -0.2260709,-0.0337 -0.3436483,-0.0346 -0.287528,0.27023 -0.6091171,0.53952 -0.8474935,0.8108 -0.039132,-0.0128 -0.079973,-0.0217 -0.1235067,-0.0217 -0.2198687,0 -0.396875,0.17701 -0.396875,0.39688 0,0.072 0.020519,0.13829 0.053744,0.19637 -0.5242144,0.69199 -0.896843,1.38209 -1.1472166,2.06241 -0.031908,-0.005 -0.063901,-0.01 -0.097152,-0.01 -0.227307,0 -0.4267308,0.11366 -0.5457031,0.28732 -0.5324021,-0.25434 -1.0891301,-0.63791 -1.6557131,-1.08831 -0.04684,0.0757 -0.08389,0.15752 -0.127124,0.23565 0.5717711,0.44978 1.1362022,0.83521 1.6805177,1.09347 -0.00872,0.043 -0.013435,0.0877 -0.013435,0.13333 0,0.2836 0.1775991,0.52262 0.427364,0.61701 -0.093281,0.59801 -0.098887,1.18305 -0.029456,1.74718 0.034082,0.27692 0.085315,0.54891 0.1514121,0.81494 -0.6443542,0.30451 -1.3251091,0.7652 -2.0257163,1.31103 0.015695,0.0241 0.025286,0.0522 0.041341,0.076 0.033324,0.0494 0.078315,0.0892 0.1131713,0.13746 0.675481,-0.52729 1.3289759,-0.972 1.9430339,-1.26659 0.1901849,0.65941 0.4708186,1.27984 0.8061524,1.85208 -0.064374,0.0705 -0.1043864,0.16374 -0.1043864,0.26717 0,0.21986 0.1770063,0.39687 0.396875,0.39687 0.043533,0 0.084375,-0.009 0.1235067,-0.0217 0.2618915,0.37336 0.5455875,0.71268 0.8366414,1.03043 0.1558779,0.0139 0.3062052,0.0457 0.4656047,0.0465 -0.3764409,-0.38145 -0.758725,-0.76295 -1.0914062,-1.2392 0.039141,-0.0615 0.062528,-0.13427 0.062528,-0.2129 0,-0.21987 -0.1770062,-0.39688 -0.396875,-0.39688 -0.019148,0 -0.037402,0.003 -0.055811,0.006 -0.3345902,-0.56933 -0.6137738,-1.18594 -0.7989175,-1.83968 0.7255343,-0.31807 1.4110705,-0.48231 2.0655071,-0.52451 0.069645,0.29085 0.3285069,0.50643 0.6413045,0.50643 0.2864887,0 0.5272712,-0.18132 0.6196004,-0.43512 0.4700384,0.0852 0.9264423,0.23173 1.3720093,0.4315 -0.243736,1.03308 -0.1097788,2.13247 0.2583821,3.01274 0.078133,-0.0425 0.1588246,-0.0805 0.234611,-0.12661 -0.3289043,-0.80814 -0.4572238,-1.82478 -0.2490803,-2.76986 0.6459246,0.3194 1.2657391,0.76996 1.87740505,1.26814 0.03075,-0.0429 0.07071,-0.0782 0.100252,-0.12195 0.01996,-0.0296 0.03176,-0.0646 0.05116,-0.0946 -0.63396525,-0.51521 -1.28003645,-0.98303 -1.96112105,-1.31362 0.1318459,-0.45204 0.3445788,-0.88061 0.6521567,-1.25832 0.1063291,0.0527 0.2247669,0.0848 0.3519164,0.0848 0.041133,0 0.080476,-0.006 0.1198894,-0.0119 0.00132,0.002 0.0023,0.004 0.00362,0.006 0.3111611,0.43562 0.82848555,0.79503 1.46037655,1.10381 0.0254,-0.083 0.0548999975,-0.16392 0.07648,-0.24857 -0.549106,-0.27412 -0.999977,-0.58483 -1.27640835,-0.95136 0.2436853,-0.1352 0.40979535,-0.39192 0.40979535,-0.69143 0,-0.0647 -0.0098,-0.12643 -0.02429,-0.18655 0.290318,-0.14824 0.633464,-0.25781 1.002523,-0.34727 -0.01242,-0.0863 -0.01004,-0.17708 -0.02635,-0.262 -0.394354,0.0944 -0.762576,0.21137 -1.07642,0.37156 -0.14046905,-0.22178 -0.38617995,-0.36949 -0.66920975,-0.36949 -0.059912,0 -0.1175819,0.008 -0.1736328,0.0202 -0.014822,-0.13814 -0.024805,-0.27718 -0.024805,-0.41702 0,-0.87413 0.2637994,-1.68707 0.5183145,-2.36678 -0.032952,-0.0347 -0.057632,-0.0768 -0.091467,-0.11059 -0.055394,-0.0554 -0.1236887,-0.0963 -0.1813843,-0.14935 -0.624731,1.15233 -1.6802063,2.20697 -3.0628622,2.6324 -0.7613145,0.23425 -1.6176604,0.27932 -2.5460976,0.0532 0.00175,-0.0197 0.00568,-0.0388 0.00568,-0.0589 0,-0.24102 -0.1287664,-0.44923 -0.320394,-0.56483 0.2388311,-0.64977 0.5954765,-1.31104 1.0996744,-1.97714 0.045489,0.0181 0.094679,0.0284 0.1467612,0.0284 0.2198688,0 0.396875,-0.177 0.396875,-0.39687 0,-0.0797 -0.023926,-0.15343 -0.064079,-0.21549 0.2757308,-0.31165 0.6373112,-0.62378 0.9818524,-0.93586 z m 3.1264241,2.33629 c -0.1540293,0.53435 -0.2733683,1.12569 -0.2733683,1.72548 0,0.17396 0.014626,0.34833 0.037207,0.52193 -0.2212316,0.14057 -0.3684529,0.38607 -0.3684529,0.66869 0,0.21882 0.087701,0.41635 0.2299602,0.55966 -0.3179215,0.39127 -0.5417291,0.83247 -0.6821289,1.29501 -0.4538509,-0.20021 -0.9206447,-0.3483 -1.4035321,-0.43512 -0.018756,-0.3494 -0.3035974,-0.6258 -0.6578409,-0.6258 -0.3291343,0 -0.598727,0.23844 -0.6506062,0.55242 -0.6773278,0.0435 -1.3835618,0.21185 -2.1249349,0.53227 -0.058447,-0.24156 -0.1051438,-0.48694 -0.135909,-0.73691 -0.066503,-0.54033 -0.060474,-1.10031 0.027388,-1.67328 0.2423785,-0.01 0.4484918,-0.14795 0.5555218,-0.34933 0.9786387,0.24132 1.8884689,0.19845 2.6980264,-0.0506 1.1429582,-0.35168 2.0807476,-1.09816 2.7486695,-1.98438 z"
         id="path1818" />
      <path
         inkscape:connector-curvature="0"
         style="fill:#363c4d;fill-opacity:1;stroke:none;stroke-width:0.38884729;stroke-linecap:round;stroke-linejoin:round;stroke-miterlimit:4;stroke-dasharray:none;stroke-opacity:1"
         d="m -2.9614545,293.41075 c 2.19868845,0 3.9687504,1.77002 3.9687504,3.96873 0,2.19867 -1.77006195,3.96875 -3.9687504,3.96875 -2.1986872,0 -3.9687503,-1.77008 -3.9687503,-3.96875 0,-2.19871 1.7700631,-3.96873 3.9687503,-3.96873 z"
         id="rect4496-2-5" />
      <path
         inkscape:connector-curvature="0"
         style="fill:url(#linearGradient920);fill-opacity:1;stroke:none;stroke-width:0.37100008;stroke-linecap:round;stroke-linejoin:round;stroke-miterlimit:4;stroke-dasharray:none;stroke-opacity:1"
         d="m -2.9614545,293.67532 c 2.05210845,0 3.70416745,1.65204 3.70416745,3.70416 0,2.05212 -1.652059,3.70419 -3.70416745,3.70419 -2.0521081,0 -3.7041661,-1.65207 -3.7041661,-3.70419 0,-2.05212 1.652058,-3.70416 3.7041661,-3.70416 z"
         id="rect4570-9-6-3-6" />
      <path
         inkscape:connector-curvature="0"
         d="m -2.9614542,294.99821 c -0.7328959,0 -1.322917,0.59002 -1.322917,1.32291 0,0.7329 0.5900211,1.32292 1.322917,1.32292 0.7328958,0 1.3229164,-0.59002 1.3229164,-1.32292 0,-0.73289 -0.5900206,-1.32291 -1.3229164,-1.32291 z m 0,3.175 c -0.972837,0 -1.8520834,0.52916 -2.1166667,1.32291 0.5291667,0.52917 1.3018783,0.79375 2.1166667,0.79375 0.8147878,0 1.5875,-0.26458 2.11666615,-0.79375 -0.26458305,-0.79375 -1.14382975,-1.32291 -2.11666615,-1.32291 z"
         style="color:#36404d;fill:#484f66;fill-opacity:1;stroke:none;stroke-width:0.26458332"
         class="ColorScheme-Text"
         id="path913-5" />
      <path
         inkscape:connector-curvature="0"
         d="m -2.9614545,294.73366 c -0.7328958,0 -1.3229167,0.59002 -1.3229167,1.32291 0,0.7329 0.5900209,1.32292 1.3229167,1.32292 0.7328958,0 1.3229167,-0.59002 1.3229167,-1.32292 0,-0.73289 -0.5900209,-1.32291 -1.3229167,-1.32291 z m 0,3.175 c -0.9728367,0 -1.8520833,0.52916 -2.1166667,1.32291 0.5291667,0.52917 1.3018786,0.79375 2.1166667,0.79375 0.8147881,0 1.5875,-0.26458 2.11666645,-0.79375 -0.26458305,-0.79375 -1.14382975,-1.32291 -2.11666645,-1.32291 z"
         style="color:#36404d;fill:#ffffff;fill-opacity:1;stroke:none;stroke-width:0.26458332"
         class="ColorScheme-Text"
         id="path913" />
    </g>
  </g>
</svg>
