<?xml version="1.0" encoding="UTF-8" standalone="no"?>
<!-- Created with Inkscape (http://www.inkscape.org/) -->

<svg
   xmlns:dc="http://purl.org/dc/elements/1.1/"
   xmlns:cc="http://creativecommons.org/ns#"
   xmlns:rdf="http://www.w3.org/1999/02/22-rdf-syntax-ns#"
   xmlns:svg="http://www.w3.org/2000/svg"
   xmlns="http://www.w3.org/2000/svg"
   xmlns:xlink="http://www.w3.org/1999/xlink"
   xmlns:sodipodi="http://sodipodi.sourceforge.net/DTD/sodipodi-0.dtd"
   xmlns:inkscape="http://www.inkscape.org/namespaces/inkscape"
   width="48"
   height="48"
   viewBox="0 0 48 48"
   version="1.1"
   id="svg8"
   inkscape:version="0.92.2 2405546, 2018-03-11"
   sodipodi:docname="yast.svg">
  <title
     id="title7895">Antu icon Theme</title>
  <defs
     id="defs2">
    <linearGradient
       inkscape:collect="always"
       id="linearGradient1073">
      <stop
         style="stop-color:#e6e6e6;stop-opacity:1"
         offset="0"
         id="stop1069" />
      <stop
         style="stop-color:#f9f9f9;stop-opacity:1"
         offset="1"
         id="stop1071" />
    </linearGradient>
    <linearGradient
       inkscape:collect="always"
       id="linearGradient983">
      <stop
         style="stop-color:#e5e5e5;stop-opacity:1"
         offset="0"
         id="stop979" />
      <stop
         style="stop-color:#fbfbfb;stop-opacity:1"
         offset="1"
         id="stop981" />
    </linearGradient>
    <linearGradient
       inkscape:collect="always"
       xlink:href="#linearGradient983"
       id="linearGradient985"
       x1="48"
       y1="313.64999"
       x2="48"
       y2="275.64999"
       gradientUnits="userSpaceOnUse"
       gradientTransform="translate(-24,-270.64999)" />
    <linearGradient
       inkscape:collect="always"
       xlink:href="#linearGradient825"
       id="linearGradient1067"
       x1="-14"
       y1="313.64999"
       x2="-14"
       y2="297.64999"
       gradientUnits="userSpaceOnUse" />
    <linearGradient
       inkscape:collect="always"
       xlink:href="#linearGradient1073"
       id="linearGradient1075"
       x1="-5"
       y1="310.64999"
       x2="-5"
       y2="300.64999"
       gradientUnits="userSpaceOnUse" />
    <linearGradient
       id="linearGradient825"
       inkscape:collect="always">
      <stop
         id="stop821"
         offset="0"
         style="stop-color:#1f996a;stop-opacity:1" />
      <stop
         id="stop823"
         offset="1"
         style="stop-color:#24b27b;stop-opacity:1" />
    </linearGradient>
  </defs>
  <sodipodi:namedview
     id="base"
     pagecolor="#ffffff"
     bordercolor="#666666"
     borderopacity="1.0"
     inkscape:pageopacity="0.0"
     inkscape:pageshadow="2"
     inkscape:zoom="5.6568542"
     inkscape:cx="0.16249563"
     inkscape:cy="22.419463"
     inkscape:document-units="px"
     inkscape:current-layer="layer1"
     showgrid="true"
     units="px"
     inkscape:window-width="1360"
     inkscape:window-height="711"
     inkscape:window-x="0"
     inkscape:window-y="28"
     inkscape:window-maximized="1"
     objecttolerance="10"
     gridtolerance="10"
     guidetolerance="10"
     inkscape:snap-bbox="true"
     inkscape:bbox-nodes="true"
     inkscape:bbox-paths="true"
     inkscape:snap-bbox-edge-midpoints="true"
     inkscape:snap-bbox-midpoints="true"
     inkscape:object-paths="true"
     inkscape:snap-intersection-paths="true"
     inkscape:object-nodes="true"
     inkscape:snap-smooth-nodes="false"
     inkscape:snap-midpoints="false"
     inkscape:showpageshadow="false">
    <inkscape:grid
       type="xygrid"
       id="grid7897"
       empspacing="4" />
  </sodipodi:namedview>
  <metadata
     id="metadata5">
    <rdf:RDF>
      <cc:Work
         rdf:about="">
        <dc:format>image/svg+xml</dc:format>
        <dc:type
           rdf:resource="http://purl.org/dc/dcmitype/StillImage" />
        <dc:title>Antu icon Theme</dc:title>
      </cc:Work>
    </rdf:RDF>
  </metadata>
  <g
     inkscape:label="Capa 1"
     inkscape:groupmode="layer"
     id="layer1"
     transform="translate(0,-266.64999)">
    <g
       id="g1535"
       transform="matrix(-1,0,0,1,13,-15.000005)">
      <g
         id="g1089">
        <g
           id="g5422"
           transform="translate(-59,11)">
          <g
             transform="matrix(5.5433071,0,0,5.5433071,24.533333,-1328.2455)"
             id="layer1-3-2"
             inkscape:label="Capa 1" />
          <path
             inkscape:connector-curvature="0"
             style="opacity:1;fill:#7f9099;fill-opacity:1;stroke:none;stroke-width:3.88529491;stroke-linecap:round;stroke-linejoin:round;stroke-miterlimit:4;stroke-dasharray:none;stroke-opacity:1"
             d="m 29,272.64999 h 38 c 1.662,0 3,1.338 3,3 v 38 c 0,1.662 -1.338,3 -3,3 H 29 c -1.662,0 -3,-1.338 -3,-3 v -38 c 0,-1.662 1.338,-3 3,-3 z"
             id="rect854" />
          <path
             inkscape:connector-curvature="0"
             style="opacity:1;fill:url(#linearGradient985);fill-opacity:1;stroke:none;stroke-width:3.70869064;stroke-linecap:round;stroke-linejoin:round;stroke-miterlimit:4;stroke-dasharray:none;stroke-opacity:1"
             d="M 5,3 C 3.892,3 3,3.892 3,5 v 38 c 0,1.108 0.892,2 2,2 h 38 c 1.108,0 2,-0.892 2,-2 V 5 C 45,3.892 44.108,3 43,3 Z M 7,5 C 8.108,5 9,5.8919997 9,7 9,8.1080003 8.108,9 7,9 5.892,9 5,8.1080003 5,7 5,5.8919997 5.892,5 7,5 Z m 34,0 c 1.108,0 2,0.8919997 2,2 0,1.1080003 -0.892,2 -2,2 C 39.892,9 39,8.1080003 39,7 39,5.8919997 39.892,5 41,5 Z M 7,39 c 1.1079997,0 2,0.892 2,2 0,1.108 -0.8920003,2 -2,2 -1.1079997,0 -2,-0.892 -2,-2 0,-1.108 0.8920003,-2 2,-2 z m 34,0 c 1.108,0 2,0.892 2,2 0,1.108 -0.892,2 -2,2 -1.108,0 -2,-0.892 -2,-2 0,-1.108 0.892,-2 2,-2 z"
             transform="translate(24,270.64999)"
             id="rect854-2" />
        </g>
        <path
           id="rect980"
           d="m -17.000001,296.64999 h 12.000002 c 4.98599943,0 8.999999,4.014 8.999999,9 0,4.986 -4.01399957,9 -8.999999,9 h -12.000002 c -4.985999,0 -8.999999,-4.014 -8.999999,-9 0,-4.986 4.014,-9 8.999999,-9 z"
           style="opacity:1;fill:#00663c;fill-opacity:1;stroke:none;stroke-width:2;stroke-linecap:round;stroke-linejoin:round;stroke-miterlimit:4;stroke-dasharray:none;stroke-opacity:1"
           inkscape:connector-curvature="0" />
        <path
           id="rect982"
           d="m -17,297.64999 h 12 c 4.432,0 8,3.568 8,8 0,4.432 -3.568,8 -8,8 h -12 c -4.432,0 -8,-3.568 -8,-8 0,-4.432 3.568,-8 8,-8 z"
           style="opacity:1;fill:url(#linearGradient1067);fill-opacity:1;stroke:none;stroke-width:2;stroke-linecap:round;stroke-linejoin:round;stroke-miterlimit:4;stroke-dasharray:none;stroke-opacity:1"
           inkscape:connector-curvature="0" />
        <path
           id="rect984"
           d="m -5.0000005,298.64999 h 10e-7 c 3.8779997,0 6.9999995,3.122 6.9999995,7 0,3.878 -3.1219998,7 -6.9999995,7 h -10e-7 c -3.8779997,0 -6.9999995,-3.122 -6.9999995,-7 0,-3.878 3.1219998,-7 6.9999995,-7 z"
           style="opacity:1;fill:#00663c;fill-opacity:1;stroke:none;stroke-width:2;stroke-linecap:round;stroke-linejoin:round;stroke-miterlimit:4;stroke-dasharray:none;stroke-opacity:1"
           inkscape:connector-curvature="0" />
        <path
           id="rect986"
           d="m -5.0000005,299.64999 h 10e-7 c 3.3239997,0 5.9999995,2.676 5.9999995,6 0,3.324 -2.6759998,6 -5.9999995,6 h -10e-7 c -3.3239997,0 -5.9999995,-2.676 -5.9999995,-6 0,-3.324 2.6759998,-6 5.9999995,-6 z"
           style="opacity:1;fill:url(#linearGradient1075);fill-opacity:1;stroke:none;stroke-width:2;stroke-linecap:round;stroke-linejoin:round;stroke-miterlimit:4;stroke-dasharray:none;stroke-opacity:1"
           inkscape:connector-curvature="0" />
      </g>
    </g>
  </g>
</svg>
