<?xml version="1.0" encoding="UTF-8" standalone="no"?>
<!-- Created with Inkscape (http://www.inkscape.org/) -->

<svg
   xmlns:dc="http://purl.org/dc/elements/1.1/"
   xmlns:cc="http://creativecommons.org/ns#"
   xmlns:rdf="http://www.w3.org/1999/02/22-rdf-syntax-ns#"
   xmlns:svg="http://www.w3.org/2000/svg"
   xmlns="http://www.w3.org/2000/svg"
   xmlns:xlink="http://www.w3.org/1999/xlink"
   xmlns:sodipodi="http://sodipodi.sourceforge.net/DTD/sodipodi-0.dtd"
   xmlns:inkscape="http://www.inkscape.org/namespaces/inkscape"
   width="48"
   height="48"
   viewBox="0 0 48 48"
   version="1.1"
   id="svg8"
   inkscape:version="0.92.2 2405546, 2018-03-11"
   sodipodi:docname="preferences-other.svg">
  <title
     id="title7895">Antu icon Theme</title>
  <defs
     id="defs2">
    <linearGradient
       inkscape:collect="always"
       xlink:href="#linearGradient7100-7"
       id="linearGradient985-6-7"
       x1="48"
       y1="313.64999"
       x2="48"
       y2="275.64999"
       gradientUnits="userSpaceOnUse"
       gradientTransform="translate(-42.166369,4.000007)" />
    <linearGradient
       inkscape:collect="always"
       id="linearGradient7100-7">
      <stop
         style="stop-color:#f0f0f0;stop-opacity:1"
         offset="0"
         id="stop7096-2" />
      <stop
         style="stop-color:#ffffff;stop-opacity:1"
         offset="1"
         id="stop7098-2" />
    </linearGradient>
    <linearGradient
       gradientTransform="matrix(1.4666667,0,0,1.4666667,-3.6330372,-139.36999)"
       inkscape:collect="always"
       xlink:href="#linearGradient870"
       id="linearGradient16972-5"
       x1="6.4545465"
       y1="298.64999"
       x2="6.4545465"
       y2="292.51361"
       gradientUnits="userSpaceOnUse" />
    <linearGradient
       id="linearGradient870"
       inkscape:collect="always">
      <stop
         id="stop866"
         offset="0"
         style="stop-color:#b2b2b2;stop-opacity:1" />
      <stop
         id="stop868"
         offset="1"
         style="stop-color:#cccccc;stop-opacity:1" />
    </linearGradient>
    <linearGradient
       gradientTransform="matrix(1.4666667,0,0,1.4666667,-3.6330372,-139.37)"
       inkscape:collect="always"
       xlink:href="#linearGradient7100-7"
       id="linearGradient16972"
       x1="6.4545465"
       y1="306.14999"
       x2="6.4545465"
       y2="297.96817"
       gradientUnits="userSpaceOnUse" />
  </defs>
  <sodipodi:namedview
     id="base"
     pagecolor="#ffffff"
     bordercolor="#666666"
     borderopacity="1.0"
     inkscape:pageopacity="0.0"
     inkscape:pageshadow="2"
     inkscape:zoom="5.6568544"
     inkscape:cx="-9.7905113"
     inkscape:cy="38.487199"
     inkscape:document-units="px"
     inkscape:current-layer="layer1"
     showgrid="true"
     units="px"
     inkscape:window-width="1360"
     inkscape:window-height="711"
     inkscape:window-x="0"
     inkscape:window-y="28"
     inkscape:window-maximized="1"
     objecttolerance="10"
     gridtolerance="10"
     guidetolerance="10"
     inkscape:snap-bbox="true"
     inkscape:bbox-paths="true"
     inkscape:bbox-nodes="true"
     inkscape:snap-bbox-edge-midpoints="true"
     inkscape:snap-bbox-midpoints="true"
     inkscape:object-paths="true"
     inkscape:snap-intersection-paths="true">
    <inkscape:grid
       type="xygrid"
       id="grid7897"
       empspacing="4" />
  </sodipodi:namedview>
  <metadata
     id="metadata5">
    <rdf:RDF>
      <cc:Work
         rdf:about="">
        <dc:format>image/svg+xml</dc:format>
        <dc:type
           rdf:resource="http://purl.org/dc/dcmitype/StillImage" />
        <dc:title>Antu icon Theme</dc:title>
      </cc:Work>
    </rdf:RDF>
  </metadata>
  <g
     inkscape:label="Capa 1"
     inkscape:groupmode="layer"
     id="layer1"
     transform="translate(0,-266.64999)">
    <g
       id="g17733"
       transform="translate(18.166369,-8)">
      <path
         id="rect854-9-5"
         d="m -13.166369,276.64999 h 38 c 1.662,0 3,1.338 3,3 v 38 c 0,1.662 -1.338,3 -3,3 h -38 c -1.662,0 -3,-1.338 -3,-3 v -38 c 0,-1.662 1.338,-3 3,-3 z"
         style="opacity:1;fill:#949494;fill-opacity:1;stroke:none;stroke-width:3.88529491;stroke-linecap:round;stroke-linejoin:round;stroke-miterlimit:4;stroke-dasharray:none;stroke-opacity:1"
         inkscape:connector-curvature="0" />
      <path
         id="rect854-2-9-9"
         d="m -13.166369,277.65 c -1.108,0 -2,0.892 -2,2 v 38 c 0,1.108 0.892,2 2,2 h 38 c 1.108,0 2,-0.892 2,-2 v -38 c 0,-1.108 -0.892,-2 -2,-2 z m 2,2 c 1.108,0 1.9999999,0.892 1.9999999,2 0,1.108 -0.8919999,2 -1.9999999,2 -1.108,0 -2,-0.892 -2,-2 0,-1.108 0.892,-2 2,-2 z m 34,0 c 1.108,0 2,0.892 2,2 0,1.108 -0.892,2 -2,2 -1.108,0 -2,-0.892 -2,-2 0,-1.108 0.892,-2 2,-2 z m -34,34 c 1.108,0 1.9999999,0.892 1.9999999,2 0,1.108 -0.8919999,2 -1.9999999,2 -1.108,0 -2,-0.892 -2,-2 0,-1.108 0.892,-2 2,-2 z m 34,0 c 1.108,0 2,0.892 2,2 0,1.108 -0.892,2 -2,2 -1.108,0 -2,-0.892 -2,-2 0,-1.108 0.892,-2 2,-2 z"
         style="opacity:1;fill:url(#linearGradient985-6-7);fill-opacity:1;stroke:none;stroke-width:3.70869064;stroke-linecap:round;stroke-linejoin:round;stroke-miterlimit:4;stroke-dasharray:none;stroke-opacity:1"
         inkscape:connector-curvature="0" />
      <path
         id="rect16896"
         d="M -0.16637321,285.65 H 11.833635 c 0.553998,0 0.999996,0.446 0.999996,1 v 24.00001 c 0,0.554 -0.445998,0.99999 -0.999996,0.99999 H -0.16637321 c -0.553998,0 -0.99999599,-0.44599 -0.99999599,-0.99999 V 286.65 c 0,-0.554 0.44599799,-1 0.99999599,-1 z"
         style="opacity:1;vector-effect:none;fill:#949494;fill-opacity:1;stroke:none;stroke-width:1;stroke-linecap:round;stroke-linejoin:round;stroke-miterlimit:4;stroke-dasharray:none;stroke-dashoffset:0;stroke-opacity:1;paint-order:markers stroke fill"
         inkscape:connector-curvature="0" />
      <path
         id="rect16964"
         d="M -0.16636921,286.64999 H 11.833632 V 310.65 H -0.16636921 Z"
         style="opacity:1;vector-effect:none;fill:url(#linearGradient16972);fill-opacity:1;stroke:none;stroke-width:1;stroke-linecap:round;stroke-linejoin:round;stroke-miterlimit:4;stroke-dasharray:none;stroke-dashoffset:0;stroke-opacity:1;paint-order:markers stroke fill"
         inkscape:connector-curvature="0" />
      <path
         id="rect16964-0"
         d="M -0.16637021,286.64999 H 11.833631 V 299.65 H -0.16637021 Z"
         style="opacity:1;vector-effect:none;fill:url(#linearGradient16972-5);fill-opacity:1;stroke:none;stroke-width:1;stroke-linecap:round;stroke-linejoin:round;stroke-miterlimit:4;stroke-dasharray:none;stroke-dashoffset:0;stroke-opacity:1;paint-order:markers stroke fill"
         inkscape:connector-curvature="0" />
      <path
         id="rect16998"
         d="M -0.16636921,286.65 H 11.833631 v 2 H -0.16636921 Z"
         style="opacity:1;vector-effect:none;fill:#ededed;fill-opacity:1;stroke:none;stroke-width:1;stroke-linecap:round;stroke-linejoin:round;stroke-miterlimit:4;stroke-dasharray:none;stroke-dashoffset:0;stroke-opacity:1;paint-order:markers stroke fill"
         inkscape:connector-curvature="0" />
    </g>
  </g>
</svg>
