<?xml version="1.0" encoding="UTF-8" standalone="no"?>
<!-- Created with Inkscape (http://www.inkscape.org/) -->

<svg
   xmlns:dc="http://purl.org/dc/elements/1.1/"
   xmlns:cc="http://creativecommons.org/ns#"
   xmlns:rdf="http://www.w3.org/1999/02/22-rdf-syntax-ns#"
   xmlns:svg="http://www.w3.org/2000/svg"
   xmlns="http://www.w3.org/2000/svg"
   xmlns:xlink="http://www.w3.org/1999/xlink"
   xmlns:sodipodi="http://sodipodi.sourceforge.net/DTD/sodipodi-0.dtd"
   xmlns:inkscape="http://www.inkscape.org/namespaces/inkscape"
   width="48"
   height="48"
   viewBox="0 0 12.7 12.7"
   version="1.1"
   id="svg1399"
   inkscape:version="0.92.4 5da689c313, 2019-01-14"
   sodipodi:docname="yast-release-notes.svg">
  <defs
     id="defs1393">
    <style
       id="current-color-scheme"
       type="text/css">
      .ColorScheme-Text {
        color:#36404d;
      }
      </style>
    <style
       type="text/css"
       id="current-color-scheme-06">
      .ColorScheme-Text {
        color:#122036;
      }
      </style>
    <style
       id="current-color-scheme-23"
       type="text/css">
      .ColorScheme-Text {
        color:#122036;
      }
      </style>
    <style
       type="text/css"
       id="current-color-scheme-5">
      .ColorScheme-Text {
        color:#122036;
      }
      </style>
    <style
       type="text/css"
       id="current-color-scheme-2">
      .ColorScheme-Text {
        color:#122036;
      }
      </style>
    <style
       type="text/css"
       id="current-color-scheme-1">
      .ColorScheme-Text {
        color:#122036;
      }
      </style>
    <style
       id="current-color-scheme-10"
       type="text/css">
      .ColorScheme-Text {
        color:#122036;
      }
      </style>
    <style
       type="text/css"
       id="current-color-scheme-0">
      .ColorScheme-Text {
        color:#122036;
      }
      </style>
    <style
       type="text/css"
       id="current-color-scheme-26">
      .ColorScheme-Text {
        color:#122036;
      }
      </style>
    <style
       type="text/css"
       id="current-color-scheme-67">
      .ColorScheme-Text {
        color:#122036;
      }
      </style>
    <style
       id="current-color-scheme-3"
       type="text/css">
      .ColorScheme-Text {
        color:#122036;
      }
      </style>
    <style
       type="text/css"
       id="current-color-scheme-6">
      .ColorScheme-Text {
        color:#122036;
      }
      </style>
    <style
       type="text/css"
       id="current-color-scheme-60">
      .ColorScheme-Text {
        color:#122036;
      }
      </style>
    <style
       type="text/css"
       id="current-color-scheme-9">
      .ColorScheme-Text {
        color:#122036;
      }
      </style>
    <style
       id="current-color-scheme-8"
       type="text/css">
      .ColorScheme-Text {
        color:#122036;
      }
      </style>
    <linearGradient
       inkscape:collect="always"
       id="linearGradient825">
      <stop
         style="stop-color:#1f996a;stop-opacity:1"
         offset="0"
         id="stop821" />
      <stop
         style="stop-color:#24b27b;stop-opacity:1"
         offset="1"
         id="stop823" />
    </linearGradient>
    <linearGradient
       id="linearGradient4582"
       inkscape:collect="always">
      <stop
         id="stop4578"
         offset="0"
         style="stop-color:#cee3e3;stop-opacity:1" />
      <stop
         id="stop4580"
         offset="1"
         style="stop-color:#fcfcfc;stop-opacity:1" />
    </linearGradient>
    <linearGradient
       inkscape:collect="always"
       xlink:href="#linearGradient4582"
       id="linearGradient893"
       x1="-6.958241"
       y1="300.82712"
       x2="-6.958241"
       y2="290.77295"
       gradientUnits="userSpaceOnUse" />
    <linearGradient
       inkscape:collect="always"
       xlink:href="#linearGradient825"
       id="linearGradient901"
       x1="-2.1957409"
       y1="302.15002"
       x2="-2.1957409"
       y2="294.7417"
       gradientUnits="userSpaceOnUse" />
  </defs>
  <sodipodi:namedview
     id="base"
     pagecolor="#ffffff"
     bordercolor="#666666"
     borderopacity="1.0"
     inkscape:pageopacity="0.0"
     inkscape:pageshadow="2"
     inkscape:zoom="11.2"
     inkscape:cx="17.496484"
     inkscape:cy="8.6767902"
     inkscape:document-units="mm"
     inkscape:current-layer="g1685"
     showgrid="true"
     inkscape:showpageshadow="false"
     units="px"
     inkscape:window-width="1920"
     inkscape:window-height="999"
     inkscape:window-x="0"
     inkscape:window-y="0"
     inkscape:window-maximized="1">
    <inkscape:grid
       type="xygrid"
       id="grid1687" />
  </sodipodi:namedview>
  <metadata
     id="metadata1396">
    <rdf:RDF>
      <cc:Work
         rdf:about="">
        <dc:format>image/svg+xml</dc:format>
        <dc:type
           rdf:resource="http://purl.org/dc/dcmitype/StillImage" />
        <dc:title />
      </cc:Work>
    </rdf:RDF>
  </metadata>
  <g
     inkscape:label="Capa 1"
     inkscape:groupmode="layer"
     id="layer1"
     transform="translate(0,-284.30005)">
    <g
       id="g1685"
       transform="translate(10.926991,-5.41456)">
      <path
         inkscape:connector-curvature="0"
         id="rect896"
         d="M -10.662408,290.50836 H 1.5084258 c 0.146579,0 0.264583,0.118 0.264583,0.26458 v 10.58334 c 0,0.14658 -0.118004,0.26458 -0.264583,0.26458 H -10.662408 c -0.146579,0 -0.264583,-0.118 -0.264583,-0.26458 v -10.58334 c 0,-0.14658 0.118004,-0.26458 0.264583,-0.26458 z"
         style="opacity:1;fill:#90a4ae;fill-opacity:1;stroke:none;stroke-width:2.63588262;stroke-linecap:round;stroke-linejoin:round;stroke-miterlimit:4;stroke-dasharray:none;stroke-opacity:1" />
      <path
         inkscape:connector-curvature="0"
         id="rect900"
         d="M -10.397825,291.03753 H 1.2438418 v 10.05416 H -10.397825 Z"
         style="opacity:1;fill:url(#linearGradient893);fill-opacity:1;stroke:none;stroke-width:1.25223696;stroke-linecap:round;stroke-linejoin:round;stroke-miterlimit:4;stroke-dasharray:none;stroke-opacity:1" />
      <path
         sodipodi:nodetypes="cccccccccccccccccccccccccccccccccccccccccccccccccccccccccccccccccccccccccccccccccccccccccccccccccccccccccccccccccccccccccccccccccccccccccccccccccccccccccccccccccccccccccccccccccccccccccccccccccccccccccccccccccccccccccccccccccccccccccccccccccccccccccccccccccccccccccccccccccccccccccccccccccccccccccccccccccccccccccccccccccccccccccccccccccccccccccccccccccccccccccccccccccccccccccccccccc"
         inkscape:connector-curvature="0"
         id="rect4405-3"
         d="m -9.8686577,292.09584 v 0.52917 h 1.5875001 v -0.52917 z m 1.8520834,0 v 0.52917 h 0.5291667 v -0.52917 z m 0.79375,0 v 0.52917 h 1.3229172 v -0.52917 z m 1.5875003,0 v 0.52917 h 0.5291669 v -0.52917 z m 0.79375,0 v 0.52917 h 0.79375 v -0.52917 z m 1.0583328,0 v 0.52917 h 1.0583341 v -0.52917 z m 1.3229169,0 v 0.52917 h 2.11666711 v -0.52917 z m 2.38125011,0 v 0.52917 h 0.79375 v -0.52917 z m -9.78958351,0.79375 v 0.52918 h 2.3812501 v -0.52918 z m 2.6458334,0 v 0.52918 h 0.5291667 v -0.52918 z m 0.79375,0 v 0.52918 h 1.3229172 v -0.52918 z m 1.5875003,0 v 0.52918 h 0.5291669 v -0.52918 z m 0.79375,0 v 0.52918 h 0.79375 v -0.52918 z m 1.0583328,0 v 0.52918 h 1.3229169 v -0.52918 z m 1.5875,0 v 0.52918 h 0.52916701 v -0.52918 z m 0.79375001,0 v 0.52918 h 1.322917 v -0.52918 z m -9.26041651,0.79375 v 0.52918 h 0.7937501 v -0.52918 z m 1.0583335,0 v 0.52918 h 0.5291666 v -0.52918 z m 0.7937499,0 v 0.52918 h 1.3229167 v -0.52918 z m 1.5875,0 v 0.52918 h 0.5291672 v -0.52918 z m 0.7937503,0 v 0.52918 h 0.5291669 v -0.52918 z m 1.0583328,0 v 0.52918 h 0.5291672 v -0.52918 z m 0.79375,0 v 0.52918 h 1.0583341 v -0.52918 z m 1.5875,0 v 0.52918 h 0.5291669 v -0.52918 z m 0.79375,0 v 0.52918 h 2.11666701 v -0.52918 z m -8.4666665,0.79375 v 0.52918 h 1.5875001 v -0.52918 z m 1.8520834,0 v 0.52918 h 0.5291667 v -0.52918 z m 0.79375,0 v 0.52918 h 1.3229172 v -0.52918 z m 1.5875003,0 v 0.52918 h 0.5291669 v -0.52918 z m 0.79375,0 v 0.52918 h 1.0583328 v -0.52918 z m 1.3229169,0 v 0.52918 h 0.5291659 0.5291669 v -0.52918 h -0.5291669 z m 1.3229159,0 v 0.52918 h 1.32291701 v -0.52918 z m 1.58750001,0 v 0.52918 h 0.529167 v -0.52918 z m 0.79375,0 v 0.52918 h 0.529167 v -0.52918 z m -10.05416651,0.79375 v 0.52918 h 0.7937501 v -0.52918 z m 1.0583335,0 v 0.52918 h 1.3229166 v -0.52918 z m 1.5874999,0 v 0.52918 h 0.79375 v -0.52918 z m 1.0583334,0 v 0.52918 h 1.0583338 v -0.52918 z m 1.3229169,0 v 0.52918 h 0.5291669 v -0.52918 z m 0.79375,0 v 0.52918 h 1.0583328 1.3229169 v -0.52918 h -1.3229169 z m 2.6458328,0 v 0.52918 h 0.52916701 v -0.52918 z m 0.79375001,0 v 0.52918 h 1.322917 v -0.52918 z m -9.26041651,0.79375 v 0.52918 h 1.3229168 v -0.52918 z m 1.5875001,0 v 0.52918 h 0.5291667 v -0.52918 z m 0.79375,0 v 0.52918 h 1.0583333 v -0.52918 z m 1.3229167,0 v 0.52918 h 0.7937497 v -0.52918 z m 1.0583338,0 v 0.52918 h 1.3229159 v -0.52918 z m 1.5875,0 v 0.52918 h 0.5291659 v -0.52918 z m 2.1166659,0 v 0.52918 h 1.32291701 v -0.52918 z m 1.58750001,0 v 0.52918 h 0.529167 v -0.52918 z m -10.05416651,0.79375 v 0.52918 h 0.7937501 v -0.52918 z m 1.0583335,0 v 0.52918 h 1.0583333 v -0.52918 z m 1.3229166,0 v 0.52918 h 0.5291667 v -0.52918 z m 0.79375,0 v 0.52918 h 1.3229164 v -0.52918 z m 1.5875005,0 v 0.52918 h 0.5291659 v -0.52918 z m 0.79375,0 v 0.52918 h 1.3229159 v -0.52918 z m 3.175,0 v 0.52918 h 0.52916591 v -0.52918 z m 0.79374991,0 v 0.52918 h 1.058333 v -0.52918 z m -9.52500051,0.79375 v 0.52917 h 1.0583335 v -0.52917 z m 1.3229168,0 v 0.52917 h 0.5291666 v -0.52917 z m 1.0583333,0 v 0.52917 h 0.5291667 v -0.52917 z m 0.79375,0 v 0.52917 h 0.5291667 v -0.52917 z m 0.7937505,0 v 0.52917 h 1.3229159 v -0.52917 z m 1.5875,0 v 0.52917 h 0.5291659 v -0.52917 z m 3.175,0 v 0.52917 h 1.05833291 v -0.52917 z m 1.32291591,0 v 0.52917 h 0.529167 v -0.52917 z m -9.78958311,0.79375 v 0.52917 h 1.0583334 v -0.52917 z m 1.3229167,0 v 0.52917 h 0.5291667 v -0.52917 z m 0.79375,0 v 0.52917 h 1.3229167 v -0.52917 z m 1.5875005,0 v 0.52917 h 0.5291659 v -0.52917 z m 0.79375,0 v 0.52917 h 2.1166659 v -0.52917 z m -4.7625006,0.79375 v 0.52917 h 1.0583335 v -0.52917 z m 1.3229168,0 v 0.52917 h 0.79375 v -0.52917 z m 1.0583333,0 v 0.52917 h 0.5291667 v -0.52917 z m 0.79375,0 v 0.52917 h 1.3229164 v -0.52917 z m 1.5875005,0 v 0.52917 h 0.5291659 v -0.52917 z"
         style="opacity:1;fill:#90a4ae;fill-opacity:1;stroke:none;stroke-width:0.26458332;stroke-linecap:round;stroke-linejoin:round;stroke-miterlimit:4;stroke-dasharray:none;stroke-dashoffset:0;stroke-opacity:1" />
      <path
         inkscape:connector-curvature="0"
         style="fill:#00663c;fill-opacity:1;stroke:none;stroke-width:0.38884729;stroke-linecap:round;stroke-linejoin:round;stroke-miterlimit:4;stroke-dasharray:none;stroke-opacity:1"
         d="m -2.1957402,294.47714 c 2.19868771,0 3.9687497,1.77002 3.9687497,3.96873 0,2.19867 -1.77006199,3.96875 -3.9687497,3.96875 -2.1986872,0 -3.96875,-1.77008 -3.96875,-3.96875 0,-2.19871 1.7700628,-3.96873 3.96875,-3.96873 z"
         id="rect4496-2" />
      <path
         inkscape:connector-curvature="0"
         style="fill:url(#linearGradient901);fill-opacity:1;stroke:none;stroke-width:0.37100008;stroke-linecap:round;stroke-linejoin:round;stroke-miterlimit:4;stroke-dasharray:none;stroke-opacity:1"
         d="m -2.1957399,294.74171 c 2.05210841,0 3.7041664,1.65204 3.7041664,3.70416 0,2.05212 -1.65205799,3.70419 -3.7041664,3.70419 -2.0521086,0 -3.7041669,-1.65207 -3.7041669,-3.70419 0,-2.05212 1.6520583,-3.70416 3.7041669,-3.70416 z"
         id="rect4570-9-6-3" />
      <path
         sodipodi:nodetypes="ssssssscssscss"
         style="opacity:1;fill:#00663c;fill-opacity:1;stroke:none;stroke-width:0.52916664;stroke-linecap:round;stroke-linejoin:round;stroke-miterlimit:4;stroke-dasharray:none;stroke-opacity:1"
         d="m -2.195741,296.59378 c -0.293157,0 -0.529166,0.23601 -0.529166,0.52916 0,0.29316 0.236009,0.52917 0.529166,0.52917 0.293159,0 0.5291679,-0.23601 0.5291679,-0.52917 0,-0.29315 -0.2360089,-0.52916 -0.5291679,-0.52916 z m 0,1.5875 c -0.293157,0 -0.529166,0.23601 -0.529166,0.52916 v 0.79375 0.79375 c 0,0.29316 0.236009,0.52917 0.529166,0.52917 0.293159,0 0.5291679,-0.23601 0.5291679,-0.52917 v -0.79375 -0.79375 c 0,-0.29315 -0.2360089,-0.52916 -0.5291679,-0.52916 z"
         id="rect5924-9-2-3"
         inkscape:connector-curvature="0" />
      <path
         sodipodi:nodetypes="ssssssscssscss"
         style="opacity:1;fill:#ffffff;fill-opacity:1;stroke:none;stroke-width:0.52916664;stroke-linecap:round;stroke-linejoin:round;stroke-miterlimit:4;stroke-dasharray:none;stroke-opacity:1"
         d="m -2.195741,296.32919 c -0.2931572,0 -0.5291661,0.23601 -0.5291661,0.52916 0,0.29316 0.2360089,0.52917 0.5291661,0.52917 0.2931589,0 0.5291678,-0.23601 0.5291678,-0.52917 0,-0.29315 -0.2360089,-0.52916 -0.5291678,-0.52916 z m 0,1.5875 c -0.2931572,0 -0.5291661,0.23601 -0.5291661,0.52916 v 0.79375 0.79375 c 0,0.29316 0.2360089,0.52917 0.5291661,0.52917 0.2931589,0 0.5291678,-0.23601 0.5291678,-0.52917 v -0.79375 -0.79375 c 0,-0.29315 -0.2360089,-0.52916 -0.5291678,-0.52916 z"
         id="rect5924-9-2"
         inkscape:connector-curvature="0" />
    </g>
  </g>
</svg>
