<?xml version="1.0" encoding="UTF-8" standalone="no"?>
<svg
   xmlns:dc="http://purl.org/dc/elements/1.1/"
   xmlns:cc="http://creativecommons.org/ns#"
   xmlns:rdf="http://www.w3.org/1999/02/22-rdf-syntax-ns#"
   xmlns:svg="http://www.w3.org/2000/svg"
   xmlns="http://www.w3.org/2000/svg"
   xmlns:xlink="http://www.w3.org/1999/xlink"
   xmlns:sodipodi="http://sodipodi.sourceforge.net/DTD/sodipodi-0.dtd"
   xmlns:inkscape="http://www.inkscape.org/namespaces/inkscape"
   height="64"
   viewBox="0 0 16.933333 16.933333"
   width="64"
   version="1.1"
   id="svg6"
   sodipodi:docname="dialog-positive.svg"
   inkscape:version="0.92.4 5da689c313, 2019-01-14">
  <metadata
     id="metadata10">
    <rdf:RDF>
      <cc:Work
         rdf:about="">
        <dc:format>image/svg+xml</dc:format>
        <dc:type
           rdf:resource="http://purl.org/dc/dcmitype/StillImage" />
        <dc:title></dc:title>
      </cc:Work>
    </rdf:RDF>
  </metadata>
  <sodipodi:namedview
     pagecolor="#ffffff"
     bordercolor="#666666"
     borderopacity="1"
     objecttolerance="10"
     gridtolerance="10"
     guidetolerance="10"
     inkscape:pageopacity="0"
     inkscape:pageshadow="2"
     inkscape:window-width="1870"
     inkscape:window-height="1141"
     id="namedview8"
     showgrid="false"
     inkscape:zoom="10.429825"
     inkscape:cx="8.6909681"
     inkscape:cy="27.467665"
     inkscape:window-x="50"
     inkscape:window-y="30"
     inkscape:window-maximized="1"
     inkscape:current-layer="svg6"
     inkscape:snap-bbox="true"
     inkscape:bbox-nodes="true"
     inkscape:bbox-paths="true"
     inkscape:snap-bbox-edge-midpoints="true"
     inkscape:snap-bbox-midpoints="true" />
  <defs
     id="defs2">
    <style
       type="text/css"
       id="current-color-scheme">
      .ColorScheme-Text {
        color:#36404d;
      }
      </style>
    <linearGradient
       inkscape:collect="always"
       xlink:href="#linearGradient825"
       id="linearGradient8653"
       x1="-4.7582717"
       y1="14.509803"
       x2="-4.7582717"
       y2="-0.83603042"
       gradientUnits="userSpaceOnUse" />
    <linearGradient
       inkscape:collect="always"
       id="linearGradient825">
      <stop
         style="stop-color:#1f996a;stop-opacity:1"
         offset="0"
         id="stop821" />
      <stop
         style="stop-color:#24b27b;stop-opacity:1"
         offset="1"
         id="stop823" />
    </linearGradient>
  </defs>
  <g
     id="g9278"
     transform="translate(7.046061,-1.5158469)">
    <g
       id="g4918"
       transform="translate(6.4434607,3.1456264)">
      <path
         inkscape:connector-curvature="0"
         style="opacity:1;fill:#00804b;fill-opacity:1;stroke:none;stroke-width:0.11906253;stroke-miterlimit:4;stroke-dasharray:none;stroke-opacity:1"
         d="m -5.0228549,-1.100613 c 4.39737437,0 7.9374994,3.5401196 7.9374994,7.9374998 0,4.3973692 -3.54012503,7.9375002 -7.9374994,7.9375002 -4.3973747,0 -7.9375001,-3.540131 -7.9375001,-7.9375002 0,-4.3973802 3.5401254,-7.9374998 7.9375001,-7.9374998 z"
         id="rect4593" />
      <path
         inkscape:connector-curvature="0"
         style="opacity:1;fill:url(#linearGradient8653);fill-opacity:1;stroke:none;stroke-width:0.11509378;stroke-miterlimit:4;stroke-dasharray:none;stroke-opacity:1"
         d="m -5.0228549,-0.83603229 c 4.25079537,0 7.6729164,3.42211809 7.6729164,7.67291909 0,4.2507982 -3.42212103,7.6729192 -7.6729164,7.6729192 -4.2507958,0 -7.6729161,-3.422121 -7.6729161,-7.6729192 0,-4.250801 3.4221203,-7.67291909 7.6729161,-7.67291909 z"
         id="rect4593-5" />
      <path
         inkscape:connector-curvature="0"
         style="color:#000000;font-style:normal;font-variant:normal;font-weight:normal;font-stretch:normal;font-size:medium;line-height:normal;font-family:sans-serif;font-variant-ligatures:normal;font-variant-position:normal;font-variant-caps:normal;font-variant-numeric:normal;font-variant-alternates:normal;font-feature-settings:normal;text-indent:0;text-align:start;text-decoration:none;text-decoration-line:none;text-decoration-style:solid;text-decoration-color:#000000;letter-spacing:normal;word-spacing:normal;text-transform:none;writing-mode:lr-tb;direction:ltr;text-orientation:mixed;dominant-baseline:auto;baseline-shift:baseline;text-anchor:start;white-space:normal;shape-padding:0;clip-rule:nonzero;display:inline;overflow:visible;visibility:visible;opacity:1;isolation:auto;mix-blend-mode:normal;color-interpolation:sRGB;color-interpolation-filters:linearRGB;solid-color:#000000;solid-opacity:1;vector-effect:none;fill:#00804b;fill-opacity:1;fill-rule:nonzero;stroke:none;stroke-width:1.99999988;stroke-linecap:round;stroke-linejoin:round;stroke-miterlimit:4;stroke-dasharray:none;stroke-dashoffset:0;stroke-opacity:1;color-rendering:auto;image-rendering:auto;shape-rendering:auto;text-rendering:auto;enable-background:accumulate"
         d="m 45.107422,17.970703 c -1.176714,-0.02358 -2.300585,0.473881 -3.078125,1.357422 L 25.855469,37.193359 19.832031,31.169922 c -0.883664,-0.884578 -1.992647,-1.278642 -3.019531,-1.21875 -1.026884,0.05989 -1.954845,0.531334 -2.642578,1.21875 -0.687734,0.687416 -1.15617,1.607867 -1.216797,2.634766 -0.06062,1.026898 0.333133,2.134953 1.216797,3.019531 a 1.0001,1.0001 0 0 0 0,0.0078 l 9,8.998047 c 1.608385,1.608847 4.275331,1.539243 5.800781,-0.148437 L 47.957031,24.695312 v -0.0078 c 1.14598,-1.237259 1.323132,-2.937794 0.753907,-4.28125 -0.570178,-1.345703 -1.913517,-2.401583 -3.603516,-2.435547 z"
         transform="matrix(0.26458333,0,0,0.26458333,-13.489522,-1.6297795)"
         id="path821" />
    </g>
    <path
       inkscape:connector-curvature="0"
       style="color:#000000;font-style:normal;font-variant:normal;font-weight:normal;font-stretch:normal;font-size:medium;line-height:normal;font-family:sans-serif;font-variant-ligatures:normal;font-variant-position:normal;font-variant-caps:normal;font-variant-numeric:normal;font-variant-alternates:normal;font-feature-settings:normal;text-indent:0;text-align:start;text-decoration:none;text-decoration-line:none;text-decoration-style:solid;text-decoration-color:#000000;letter-spacing:normal;word-spacing:normal;text-transform:none;writing-mode:lr-tb;direction:ltr;text-orientation:mixed;dominant-baseline:auto;baseline-shift:baseline;text-anchor:start;white-space:normal;shape-padding:0;clip-rule:nonzero;display:inline;overflow:visible;visibility:visible;opacity:1;isolation:auto;mix-blend-mode:normal;color-interpolation:sRGB;color-interpolation-filters:linearRGB;solid-color:#000000;solid-opacity:1;vector-effect:none;fill:#f3fcf5;fill-opacity:1;fill-rule:nonzero;stroke:none;stroke-width:0.52916664;stroke-linecap:round;stroke-linejoin:round;stroke-miterlimit:4;stroke-dasharray:none;stroke-dashoffset:0;stroke-opacity:1;color-rendering:auto;image-rendering:auto;shape-rendering:auto;text-rendering:auto;enable-background:accumulate"
       d="m 4.8886107,6.0061161 c -0.311339,-0.00624 -0.608697,0.1253807 -0.814421,0.3591507 L -0.20513539,11.092111 -1.7988367,9.4984096 C -2.0326395,9.2643645 -2.3260579,9.1601028 -2.5977543,9.1759487 c -0.2716964,0.015849 -0.5172194,0.1405811 -0.6991821,0.3224609 -0.1819629,0.1818799 -0.3059033,0.4254156 -0.3219442,0.6971164 -0.016039,0.271701 0.088141,0.564872 0.3219442,0.798917 a 0.26460979,0.26460979 0 0 0 0,0.0021 l 2.38125001,2.380731 c 0.4255518,0.425675 1.1311813,0.40726 1.5347899,-0.03927 L 5.6425697,7.7853358 v -0.00212 c 0.303207,-0.3273551 0.350078,-0.777287 0.199471,-1.1327441 -0.15086,-0.3560498 -0.506285,-0.635418 -0.95343,-0.6444059 z"
       id="path821-8" />
  </g>
</svg>
