<?xml version="1.0" encoding="UTF-8" standalone="no"?>
<svg
   xmlns:dc="http://purl.org/dc/elements/1.1/"
   xmlns:cc="http://creativecommons.org/ns#"
   xmlns:rdf="http://www.w3.org/1999/02/22-rdf-syntax-ns#"
   xmlns:svg="http://www.w3.org/2000/svg"
   xmlns="http://www.w3.org/2000/svg"
   xmlns:xlink="http://www.w3.org/1999/xlink"
   xmlns:sodipodi="http://sodipodi.sourceforge.net/DTD/sodipodi-0.dtd"
   xmlns:inkscape="http://www.inkscape.org/namespaces/inkscape"
   height="64"
   viewBox="0 0 16.933333 16.933333"
   width="64"
   version="1.1"
   id="svg6"
   sodipodi:docname="security-high.svg"
   inkscape:version="0.92.4 5da689c313, 2019-01-14">
  <metadata
     id="metadata10">
    <rdf:RDF>
      <cc:Work
         rdf:about="">
        <dc:format>image/svg+xml</dc:format>
        <dc:type
           rdf:resource="http://purl.org/dc/dcmitype/StillImage" />
        <dc:title></dc:title>
      </cc:Work>
    </rdf:RDF>
  </metadata>
  <sodipodi:namedview
     pagecolor="#ffffff"
     bordercolor="#666666"
     borderopacity="1"
     objecttolerance="10"
     gridtolerance="10"
     guidetolerance="10"
     inkscape:pageopacity="0"
     inkscape:pageshadow="2"
     inkscape:window-width="1870"
     inkscape:window-height="1141"
     id="namedview8"
     showgrid="false"
     inkscape:zoom="10.429825"
     inkscape:cx="8.6909681"
     inkscape:cy="27.467665"
     inkscape:window-x="50"
     inkscape:window-y="30"
     inkscape:window-maximized="1"
     inkscape:current-layer="svg6"
     inkscape:snap-bbox="true"
     inkscape:bbox-nodes="true"
     inkscape:bbox-paths="true"
     inkscape:snap-bbox-edge-midpoints="true"
     inkscape:snap-bbox-midpoints="true" />
  <defs
     id="defs2">
    <style
       type="text/css"
       id="current-color-scheme">
      .ColorScheme-Text {
        color:#36404d;
      }
      </style>
    <linearGradient
       inkscape:collect="always"
       xlink:href="#linearGradient825"
       id="linearGradient7270"
       x1="-7.9375"
       y1="15.345833"
       x2="-7.9375"
       y2="0"
       gradientUnits="userSpaceOnUse" />
    <linearGradient
       inkscape:collect="always"
       id="linearGradient825">
      <stop
         style="stop-color:#1f996a;stop-opacity:1"
         offset="0"
         id="stop821" />
      <stop
         style="stop-color:#24b27b;stop-opacity:1"
         offset="1"
         id="stop823" />
    </linearGradient>
  </defs>
  <g
     id="g7899"
     transform="translate(6.6148058,-0.98311984)">
    <g
       id="g2981"
       transform="translate(9.7893607,1.7768695)">
      <path
         inkscape:connector-curvature="0"
         id="rect1160"
         d="m -14.2875,-0.26458333 c -0.586316,0 -1.058333,0.47201666 -1.058333,1.0583333 V 7.1437499 7.6729165 8.2020832 c 0,4.1042168 3.304117,7.4083338 7.4083332,7.4083338 4.1042168,0 7.40833277,-3.304117 7.40833277,-7.4083338 V 7.6729165 7.1437499 0.79374997 c 0,-0.58631664 -0.47201597,-1.0583333 -1.05833297,-1.0583333 h -6.3499998 z"
         style="fill:#00804b;fill-opacity:1;stroke:none;stroke-width:0.52916664;stroke-linecap:round;stroke-linejoin:round;stroke-miterlimit:4;stroke-dasharray:none;stroke-opacity:1" />
      <path
         inkscape:connector-curvature="0"
         id="rect1165-1"
         d="m -14.2875,0 c -0.439737,0 -0.79375,0.35401249 -0.79375,0.79374997 v 6.34999993 0.2645833 0.79375 c 0,3.9576378 3.186113,7.1437498 7.1437502,7.1437498 3.9576378,0 7.14374977,-3.186112 7.14374977,-7.1437498 V 7.4083332 7.1437499 0.79374997 C -0.79375003,0.35401249 -1.147762,0 -1.5875,0 h -6.3499998 z"
         style="fill:url(#linearGradient7270);fill-opacity:1;stroke:none;stroke-width:0.52916664;stroke-linecap:round;stroke-linejoin:round;stroke-miterlimit:4;stroke-dasharray:none;stroke-opacity:1" />
      <path
         id="rect1192"
         d="m -14.2875,0 c -0.439737,0 -0.79375,0.35401249 -0.79375,0.79374997 V 6.8791666 7.6729165 h 7.1437502 V 6.0854166 1.5875 0.79374997 0 h -0.79375 -1.3229162 z m 6.3500002,7.6729165 v 7.6729165 c 0.4947047,0 0.9774441,-0.04984 1.4433227,-0.144694 0.4658786,-0.09485 0.9149334,-0.234693 1.3425541,-0.414961 0.42762,-0.180269 0.833949,-0.401071 1.213879,-0.657324 0.37993,-0.256255 0.733458,-0.54794 1.056266,-0.870748 0.322808,-0.322809 0.614494,-0.676336 0.870748,-1.056267 0.256254,-0.37993 0.477056,-0.786259 0.657324,-1.213879 0.180268,-0.42762 0.320112,-0.876675 0.41496197,-1.3425541 0.09485,-0.4658786 0.144694,-0.948618 0.144694,-1.4433227 V 7.6729165 Z"
         style="fill:#56c197;fill-opacity:1;stroke:none;stroke-width:0.46645123;stroke-linecap:round;stroke-linejoin:round;stroke-miterlimit:4;stroke-dasharray:none;stroke-opacity:1"
         inkscape:connector-curvature="0" />
      <path
         inkscape:connector-curvature="0"
         id="path1297"
         d="M -4.209723,3.4312701 A 0.79382936,0.79382936 0 0 0 -4.821572,3.7005048 L -9.2889997,8.638188 -11.080105,6.8470832 a 0.79384727,0.79384727 0 1 0 -1.122929,1.1224101 l 2.3812503,2.3812507 a 0.79382936,0.79382936 0 0 0 1.1503173,-0.02894 L -3.644383,4.7655559 a 0.79382936,0.79382936 0 0 0 -0.56534,-1.3342858 z"
         style="color:#000000;font-style:normal;font-variant:normal;font-weight:normal;font-stretch:normal;font-size:medium;line-height:normal;font-family:sans-serif;font-variant-ligatures:normal;font-variant-position:normal;font-variant-caps:normal;font-variant-numeric:normal;font-variant-alternates:normal;font-feature-settings:normal;text-indent:0;text-align:start;text-decoration:none;text-decoration-line:none;text-decoration-style:solid;text-decoration-color:#000000;letter-spacing:normal;word-spacing:normal;text-transform:none;writing-mode:lr-tb;direction:ltr;text-orientation:mixed;dominant-baseline:auto;baseline-shift:baseline;text-anchor:start;white-space:normal;shape-padding:0;clip-rule:nonzero;display:inline;overflow:visible;visibility:visible;opacity:1;isolation:auto;mix-blend-mode:normal;color-interpolation:sRGB;color-interpolation-filters:linearRGB;solid-color:#000000;solid-opacity:1;vector-effect:none;fill:#00804b;fill-opacity:1;fill-rule:nonzero;stroke:none;stroke-width:1.58749998;stroke-linecap:round;stroke-linejoin:round;stroke-miterlimit:4;stroke-dasharray:none;stroke-dashoffset:0;stroke-opacity:1;color-rendering:auto;image-rendering:auto;shape-rendering:auto;text-rendering:auto;enable-background:accumulate" />
    </g>
    <path
       inkscape:connector-curvature="0"
       id="path1297-1"
       d="M 5.5796017,4.9435563 A 0.79382936,0.79382936 0 0 0 4.9677527,5.212791 L 0.50032531,10.150474 -1.29078,8.3593694 a 0.79384727,0.79384727 0 1 0 -1.1229289,1.1224101 l 2.38125021,2.3812525 a 0.79382936,0.79382936 0 0 0 1.15031729,-0.02894 l 5.0270831,-5.55625 a 0.79382936,0.79382936 0 0 0 -0.56534,-1.3342857 z"
       style="color:#000000;font-style:normal;font-variant:normal;font-weight:normal;font-stretch:normal;font-size:medium;line-height:normal;font-family:sans-serif;font-variant-ligatures:normal;font-variant-position:normal;font-variant-caps:normal;font-variant-numeric:normal;font-variant-alternates:normal;font-feature-settings:normal;text-indent:0;text-align:start;text-decoration:none;text-decoration-line:none;text-decoration-style:solid;text-decoration-color:#000000;letter-spacing:normal;word-spacing:normal;text-transform:none;writing-mode:lr-tb;direction:ltr;text-orientation:mixed;dominant-baseline:auto;baseline-shift:baseline;text-anchor:start;white-space:normal;shape-padding:0;clip-rule:nonzero;display:inline;overflow:visible;visibility:visible;opacity:1;isolation:auto;mix-blend-mode:normal;color-interpolation:sRGB;color-interpolation-filters:linearRGB;solid-color:#000000;solid-opacity:1;vector-effect:none;fill:#f3fcf5;fill-opacity:1;fill-rule:nonzero;stroke:none;stroke-width:1.58749998;stroke-linecap:round;stroke-linejoin:round;stroke-miterlimit:4;stroke-dasharray:none;stroke-dashoffset:0;stroke-opacity:1;color-rendering:auto;image-rendering:auto;shape-rendering:auto;text-rendering:auto;enable-background:accumulate" />
  </g>
</svg>
