<?xml version="1.0" encoding="UTF-8" standalone="no"?>
<!-- Created with Inkscape (http://www.inkscape.org/) -->

<svg
   xmlns:dc="http://purl.org/dc/elements/1.1/"
   xmlns:cc="http://creativecommons.org/ns#"
   xmlns:rdf="http://www.w3.org/1999/02/22-rdf-syntax-ns#"
   xmlns:svg="http://www.w3.org/2000/svg"
   xmlns="http://www.w3.org/2000/svg"
   xmlns:xlink="http://www.w3.org/1999/xlink"
   xmlns:sodipodi="http://sodipodi.sourceforge.net/DTD/sodipodi-0.dtd"
   xmlns:inkscape="http://www.inkscape.org/namespaces/inkscape"
   width="64"
   height="64"
   viewBox="0 0 64 64"
   version="1.1"
   id="svg8"
   inkscape:version="0.92.2 2405546, 2018-03-11"
   sodipodi:docname="accessories-dictionary.svg">
  <title
     id="title7895">Antu icon Theme</title>
  <defs
     id="defs2">
    <linearGradient
       inkscape:collect="always"
       id="linearGradient4582-5">
      <stop
         style="stop-color:#dd366b;stop-opacity:1"
         offset="0"
         id="stop4578-3" />
      <stop
         style="stop-color:#f25183;stop-opacity:1"
         offset="1"
         id="stop4580-5" />
    </linearGradient>
    <linearGradient
       inkscape:collect="always"
       xlink:href="#linearGradient4582-5"
       id="linearGradient908"
       x1="28"
       y1="60"
       x2="28"
       y2="4"
       gradientUnits="userSpaceOnUse" />
  </defs>
  <sodipodi:namedview
     id="base"
     pagecolor="#ffffff"
     bordercolor="#666666"
     borderopacity="1.0"
     inkscape:pageopacity="0.0"
     inkscape:pageshadow="2"
     inkscape:zoom="0.99999999"
     inkscape:cx="91.296188"
     inkscape:cy="107.70596"
     inkscape:document-units="px"
     inkscape:current-layer="layer1"
     showgrid="false"
     units="px"
     inkscape:window-width="1360"
     inkscape:window-height="711"
     inkscape:window-x="0"
     inkscape:window-y="28"
     inkscape:window-maximized="1"
     objecttolerance="10"
     gridtolerance="10"
     guidetolerance="10"
     inkscape:snap-bbox="true"
     inkscape:bbox-paths="true"
     inkscape:bbox-nodes="true"
     inkscape:snap-bbox-edge-midpoints="true"
     inkscape:snap-bbox-midpoints="true"
     inkscape:object-paths="true"
     inkscape:snap-intersection-paths="true"
     inkscape:showpageshadow="false"
     showborder="false">
    <inkscape:grid
       type="xygrid"
       id="grid7897"
       empspacing="4" />
  </sodipodi:namedview>
  <metadata
     id="metadata5">
    <rdf:RDF>
      <cc:Work
         rdf:about="">
        <dc:format>image/svg+xml</dc:format>
        <dc:type
           rdf:resource="http://purl.org/dc/dcmitype/StillImage" />
        <dc:title>Antu icon Theme</dc:title>
      </cc:Work>
    </rdf:RDF>
  </metadata>
  <g
     inkscape:label="Capa 1"
     inkscape:groupmode="layer"
     id="layer1"
     transform="translate(0,-250.64999)">
    <path
       style="opacity:1;vector-effect:none;fill:#90a4ae;fill-opacity:0.98039216;stroke:none;stroke-width:2;stroke-linecap:round;stroke-linejoin:round;stroke-miterlimit:4;stroke-dasharray:none;stroke-dashoffset:0;stroke-opacity:1"
       d="m 53,254.64999 h 6 c 1.662,0 3,1.338 3,3 V 307.65 c 0,1.662 -1.338,3 -3,3 h -6 c -1.662,0 -3,-1.338 -3,-3 v -50.00001 c 0,-1.662 1.338,-3 3,-3 z"
       id="rect887" />
    <path
       style="opacity:1;vector-effect:none;fill:#f1f5f5;fill-opacity:1;stroke:none;stroke-width:2;stroke-linecap:round;stroke-linejoin:round;stroke-miterlimit:4;stroke-dasharray:none;stroke-dashoffset:0;stroke-opacity:1"
       d="M 53 5 C 51.892 5 51 5.892 51 7 L 51 57 C 51 58.108 51.892 59 53 59 L 59 59 C 60.108 59 61 58.108 61 57 L 61 7 C 61 5.892 60.108 5 59 5 L 53 5 z M 53 7 L 59 7 L 59 9 L 53 9 L 53 7 z M 53 11 L 59 11 L 59 13 L 53 13 L 53 11 z M 53 15 L 59 15 L 59 17 L 53 17 L 53 15 z M 53 19 L 59 19 L 59 21 L 53 21 L 53 19 z M 53 23 L 59 23 L 59 25 L 53 25 L 53 23 z M 53 27 L 59 27 L 59 29 L 53 29 L 53 27 z M 53 31 L 59 31 L 59 33 L 53 33 L 53 31 z M 53 35 L 59 35 L 59 37 L 53 37 L 53 35 z M 53 39 L 59 39 L 59 41 L 53 41 L 53 39 z M 53 43 L 59 43 L 59 45 L 53 45 L 53 43 z M 53 47 L 59 47 L 59 49 L 53 49 L 53 47 z M 53 51 L 59 51 L 59 53 L 53 53 L 53 51 z M 53 55 L 59 55 L 59 57 L 53 57 L 53 55 z "
       transform="translate(0,250.64999)"
       id="rect889" />
    <path
       style="opacity:1;vector-effect:none;fill:#ba205b;fill-opacity:1;stroke:none;stroke-width:2;stroke-linecap:round;stroke-linejoin:round;stroke-miterlimit:4;stroke-dasharray:none;stroke-dashoffset:0;stroke-opacity:1"
       d="m 6,251.64999 h 45 c 2.216,0 4,1.784 4,4 v 54 c 0,2.216 -1.784,4 -4,4 H 6 c -2.216,0 -4,-1.784 -4,-4 v -54 c 0,-2.216 1.784,-4 4,-4 z"
       id="rect863" />
    <path
       style="opacity:1;vector-effect:none;fill:url(#linearGradient908);fill-opacity:1;stroke:none;stroke-width:2;stroke-linecap:round;stroke-linejoin:round;stroke-miterlimit:4;stroke-dasharray:none;stroke-dashoffset:0;stroke-opacity:1"
       d="M 6 2 C 4.338 2 3 3.338 3 5 L 3 59 C 3 60.662 4.338 62 6 62 L 9 62 L 9 59 L 9 5 L 9 2 L 6 2 z M 10 2 L 10 5 L 10 59 L 10 62 L 13 62 L 51 62 C 52.662 62 54 60.662 54 59 L 54 5 C 54 3.338 52.662 2 51 2 L 13 2 L 10 2 z "
       transform="translate(0,250.64999)"
       id="rect865" />
    <path
       style="fill:#ba205b;fill-opacity:1;stroke:none;stroke-width:1px;stroke-linecap:butt;stroke-linejoin:miter;stroke-opacity:1"
       d="m 27,269.64999 -11,24 7,3 3,-7 h 10 l 3,7 7,-3 -11,-24 z m 4,6 4,8 h -8 z"
       id="path1065-6"
       inkscape:connector-curvature="0"
       sodipodi:nodetypes="ccccccccccccc" />
    <path
       style="fill:#ffffff;fill-opacity:1;stroke:none;stroke-width:1px;stroke-linecap:butt;stroke-linejoin:miter;stroke-opacity:1"
       d="m 27,268.64999 -11,24 7,3 3,-7 h 10 l 3,7 7,-3 -11,-24 z m 4,6 4,8 h -8 z"
       id="path1065"
       inkscape:connector-curvature="0"
       sodipodi:nodetypes="ccccccccccccc" />
  </g>
</svg>
