<?xml version="1.0" encoding="UTF-8" standalone="no"?>
<!-- Created with Inkscape (http://www.inkscape.org/) -->

<svg
   xmlns:dc="http://purl.org/dc/elements/1.1/"
   xmlns:cc="http://creativecommons.org/ns#"
   xmlns:rdf="http://www.w3.org/1999/02/22-rdf-syntax-ns#"
   xmlns:svg="http://www.w3.org/2000/svg"
   xmlns="http://www.w3.org/2000/svg"
   xmlns:xlink="http://www.w3.org/1999/xlink"
   xmlns:sodipodi="http://sodipodi.sourceforge.net/DTD/sodipodi-0.dtd"
   xmlns:inkscape="http://www.inkscape.org/namespaces/inkscape"
   width="64"
   height="64"
   viewBox="0 0 16.933333 16.933333"
   version="1.1"
   id="svg8"
   inkscape:version="0.92.3 (2405546, 2018-03-11)"
   sodipodi:docname="androidstudio.svg">
  <defs
     id="defs2">
    <linearGradient
       inkscape:collect="always"
       xlink:href="#linearGradient4619"
       id="linearGradient995"
       x1="6.6145835"
       y1="295.41251"
       x2="6.6145835"
       y2="284.82916"
       gradientUnits="userSpaceOnUse" />
    <linearGradient
       inkscape:collect="always"
       id="linearGradient4619">
      <stop
         style="stop-color:#67d924;stop-opacity:1"
         offset="0"
         id="stop4615" />
      <stop
         style="stop-color:#a3eb1e;stop-opacity:1"
         offset="1"
         id="stop4617" />
    </linearGradient>
    <linearGradient
       inkscape:collect="always"
       xlink:href="#a"
       id="linearGradient1003"
       x1="6.8791666"
       y1="299.11667"
       x2="6.8791666"
       y2="290.91458"
       gradientUnits="userSpaceOnUse" />
    <linearGradient
       y2="1024.3622"
       y1="1049.3622"
       x2="16"
       x1="16"
       gradientUnits="userSpaceOnUse"
       id="a"
       gradientTransform="matrix(0.26458333,0,0,0.26458333,-8.414695,17.882162)">
      <stop
         id="stop2"
         stop-color="#4d4d4d"
         offset="0" />
      <stop
         id="stop4"
         stop-color="#1f1f1f"
         offset="1" />
    </linearGradient>
  </defs>
  <sodipodi:namedview
     id="base"
     pagecolor="#ffffff"
     bordercolor="#666666"
     borderopacity="1.0"
     inkscape:pageopacity="0.0"
     inkscape:pageshadow="2"
     inkscape:zoom="22.4"
     inkscape:cx="20.088762"
     inkscape:cy="26.282186"
     inkscape:document-units="px"
     inkscape:current-layer="layer1"
     showgrid="true"
     units="px"
     inkscape:showpageshadow="false"
     inkscape:snap-bbox="true"
     inkscape:bbox-paths="true"
     inkscape:bbox-nodes="true"
     inkscape:snap-bbox-edge-midpoints="true"
     inkscape:snap-bbox-midpoints="true"
     inkscape:object-paths="true"
     inkscape:snap-intersection-paths="true"
     inkscape:window-width="1874"
     inkscape:window-height="1141"
     inkscape:window-x="46"
     inkscape:window-y="30"
     inkscape:window-maximized="1">
    <inkscape:grid
       type="xygrid"
       id="grid815" />
  </sodipodi:namedview>
  <metadata
     id="metadata5">
    <rdf:RDF>
      <cc:Work
         rdf:about="">
        <dc:format>image/svg+xml</dc:format>
        <dc:type
           rdf:resource="http://purl.org/dc/dcmitype/StillImage" />
        <dc:title></dc:title>
      </cc:Work>
    </rdf:RDF>
  </metadata>
  <g
     inkscape:label="Capa 1"
     inkscape:groupmode="layer"
     id="layer1"
     transform="translate(0,-280.06666)">
    <g
       id="g1713"
       transform="translate(5.2916668,-0.78918888)">
      <g
         inkscape:label="Capa 1"
         id="layer1-5"
         transform="translate(-5.2916668,0.78918886)">
        <g
           id="g1846"
           transform="translate(1.8520835,-2.9058582)">
          <path
             id="path1051-2"
             d="m 1.0505818,283.49746 a 0.79382936,0.79382936 0 0 0 -0.60668128,1.30483 l 1.54460858,1.88826 c -0.9097203,1.06295 -1.45934248,2.44426 -1.45934248,3.95945 0,3.37132 2.71409578,6.08541 6.08541658,6.08541 3.3713208,0 6.0854168,-2.71409 6.0854168,-6.08541 0,-1.51519 -0.549622,-2.8965 -1.459343,-3.95945 l 1.544609,-1.88826 a 0.79382936,0.79382936 0 0 0 -0.630453,-1.30483 0.79382936,0.79382936 0 0 0 -0.598413,0.29972 l -1.497583,1.83038 c -0.9782428,-0.67055 -2.1635587,-1.06298 -3.4442338,-1.06298 -1.2806751,0 -2.465991,0.39243 -3.4442341,1.06298 l -1.4975829,-1.83038 a 0.79382936,0.79382936 0 0 0 -0.6221844,-0.29972 z"
             style="color:#000000;font-style:normal;font-variant:normal;font-weight:normal;font-stretch:normal;font-size:medium;line-height:normal;font-family:sans-serif;font-variant-ligatures:normal;font-variant-position:normal;font-variant-caps:normal;font-variant-numeric:normal;font-variant-alternates:normal;font-feature-settings:normal;text-indent:0;text-align:start;text-decoration:none;text-decoration-line:none;text-decoration-style:solid;text-decoration-color:#000000;letter-spacing:normal;word-spacing:normal;text-transform:none;writing-mode:lr-tb;direction:ltr;text-orientation:mixed;dominant-baseline:auto;baseline-shift:baseline;text-anchor:start;white-space:normal;shape-padding:0;clip-rule:nonzero;display:inline;overflow:visible;visibility:visible;opacity:1;isolation:auto;mix-blend-mode:normal;color-interpolation:sRGB;color-interpolation-filters:linearRGB;solid-color:#000000;solid-opacity:1;vector-effect:none;fill:#33691e;fill-opacity:1;fill-rule:nonzero;stroke:none;stroke-width:1.58749998;stroke-linecap:round;stroke-linejoin:round;stroke-miterlimit:4;stroke-dasharray:none;stroke-dashoffset:0;stroke-opacity:1;color-rendering:auto;image-rendering:auto;shape-rendering:auto;text-rendering:auto;enable-background:accumulate"
             inkscape:connector-curvature="0" />
          <path
             id="rect1034-2"
             d="m 1.0531657,283.76463 a 0.52921957,0.52921957 0 0 0 -0.40462648,0.87023 l 1.68723548,2.06241 c -0.9577168,1.03665 -1.54202468,2.42359 -1.54202468,3.95273 0,3.22474 2.59609178,5.82083 5.82083318,5.82083 3.2247418,0 5.8208328,-2.59609 5.8208328,-5.82083 0,-1.52914 -0.584308,-2.91608 -1.542024,-3.95273 l 1.687235,-2.06241 a 0.52921957,0.52921957 0 0 0 -0.420646,-0.86972 0.52921957,0.52921957 0 0 0 -0.398942,0.19948 l -1.654163,2.02209 c -0.9715437,-0.7274 -2.1798542,-1.15755 -3.4922928,-1.15755 -1.3124386,0 -2.5207491,0.43015 -3.4922933,1.15755 l -1.6541625,-2.02209 a 0.52921957,0.52921957 0 0 0 -0.4149617,-0.19999 z"
             style="opacity:1;fill:url(#linearGradient995);fill-opacity:1;stroke:none;stroke-width:0.56050497;stroke-linecap:round;stroke-linejoin:round;stroke-miterlimit:4;stroke-dasharray:none;stroke-opacity:1;paint-order:fill markers stroke"
             inkscape:connector-curvature="0" />
          <path
             id="rect874-3"
             d="m 0,290.91458 h 13.229166 c 0.439738,0 0.79375,0.35401 0.79375,0.79375 v 6.87917 c 0,0.43973 -0.354012,0.79375 -0.79375,0.79375 H 0 c -0.43973749,0 -0.79374998,-0.35402 -0.79374998,-0.79375 v -6.87917 c 0,-0.43974 0.35401249,-0.79375 0.79374998,-0.79375 z"
             style="opacity:1;fill:url(#linearGradient1003);fill-opacity:1;stroke:none;stroke-width:0.52916664;stroke-linecap:round;stroke-linejoin:round;stroke-miterlimit:4;stroke-dasharray:none;stroke-opacity:1;paint-order:fill markers stroke"
             inkscape:connector-curvature="0" />
          <path
             id="rect874"
             d="m 0,290.91458 c -0.43973749,0 -0.79374998,0.35401 -0.79374998,0.79375 v 6.87917 c 0,0.43973 0.35401249,0.79375 0.79374998,0.79375 h 13.229166 c 0.439738,0 0.79375,-0.35402 0.79375,-0.79375 v -6.87917 c 0,-0.43974 -0.354012,-0.79375 -0.79375,-0.79375 z m 0,0.26458 h 13.229166 c 0.293159,0 0.529167,0.23601 0.529167,0.52917 v 6.87917 c 0,0.29315 -0.236008,0.52916 -0.529167,0.52916 H 0 c -0.29315832,0 -0.52916665,-0.23601 -0.52916665,-0.52916 v -6.87917 c 0,-0.29316 0.23600833,-0.52917 0.52916665,-0.52917 z"
             style="opacity:1;fill:#030303;fill-opacity:1;stroke:none;stroke-width:0.52916664;stroke-linecap:round;stroke-linejoin:round;stroke-miterlimit:4;stroke-dasharray:none;stroke-opacity:1;paint-order:fill markers stroke"
             inkscape:connector-curvature="0" />
          <path
             id="rect842-9-6"
             d="m -0.52916665,291.70833 v 0.52917 H 13.758333 v -0.52917 z m 0,1.05833 v 0.52917 H 13.758333 v -0.52917 z m 0,1.05834 v 0.52916 H 13.758333 V 293.825 Z m 0,1.05833 v 0.52917 H 13.758333 v -0.52917 z m 0,1.05833 v 0.52917 H 13.758333 v -0.52917 z m 0,1.05834 v 0.52916 H 13.758333 V 297 Z m 0,1.05833 v 0.52917 H 13.758333 v -0.52917 z"
             style="opacity:1;fill:#0f0f0f;fill-opacity:0.39215686;stroke:none;stroke-width:0.52916664;stroke-linecap:round;stroke-linejoin:round;stroke-miterlimit:4;stroke-dasharray:none;stroke-opacity:1;paint-order:fill markers stroke"
             inkscape:connector-curvature="0" />
          <path
             sodipodi:nodetypes="ssssssssssssssssss"
             inkscape:connector-curvature="0"
             id="rect1111"
             d="m 4.3614908,287.73958 c -0.3640344,0 -0.6573242,0.29329 -0.6573242,0.65732 v 0.008 c 0,0.36403 0.2932898,0.65732 0.6573242,0.65732 h 0.00827 c 0.3640344,0 0.6573242,-0.29329 0.6573242,-0.65732 v -0.008 c 0,-0.36403 -0.2932898,-0.65732 -0.6573242,-0.65732 z m 4.4979166,0 c -0.3640344,0 -0.6573242,0.29329 -0.6573242,0.65732 v 0.008 c 0,0.36403 0.2932898,0.65732 0.6573242,0.65732 h 0.00827 c 0.3640346,0 0.6573246,-0.29329 0.6573246,-0.65732 v -0.008 c 0,-0.36403 -0.29329,-0.65732 -0.6573246,-0.65732 z"
             style="opacity:1;fill:#33691e;fill-opacity:1;stroke:none;stroke-width:1.58749998;stroke-linecap:round;stroke-linejoin:round;stroke-miterlimit:4;stroke-dasharray:none;stroke-opacity:1;paint-order:fill markers stroke" />
          <path
             id="rect925-7-6"
             d="m 0.52916662,291.70833 v 0.52917 H 0 v 0.52916 h 0.52916662 v 0.52917 H 0 v 0.52917 h 0.52916662 v 0.52916 H 1.0583333 V 293.825 H 1.5875 v 0.52916 H 2.1166666 V 293.825 h 0.5291667 v -0.52917 H 2.1166666 v -0.52917 H 2.6458333 V 292.2375 H 2.1166666 v -0.52917 H 1.5875 v 0.52917 H 1.0583333 v -0.52917 z m 0.52916668,1.05833 H 1.5875 v 0.52917 H 1.0583333 Z m 2.1166666,1.05834 v 0.52916 H 5.2916665 V 293.825 Z"
             style="opacity:1;fill:#32ff3f;fill-opacity:1;stroke:none;stroke-width:1.05833328;stroke-linecap:round;stroke-linejoin:round;stroke-miterlimit:4;stroke-dasharray:none;stroke-opacity:1"
             inkscape:connector-curvature="0" />
        </g>
      </g>
    </g>
  </g>
</svg>
