<?xml version="1.0" encoding="UTF-8" standalone="no"?>
<!-- Created with Inkscape (http://www.inkscape.org/) -->

<svg
   xmlns:dc="http://purl.org/dc/elements/1.1/"
   xmlns:cc="http://creativecommons.org/ns#"
   xmlns:rdf="http://www.w3.org/1999/02/22-rdf-syntax-ns#"
   xmlns:svg="http://www.w3.org/2000/svg"
   xmlns="http://www.w3.org/2000/svg"
   xmlns:xlink="http://www.w3.org/1999/xlink"
   xmlns:sodipodi="http://sodipodi.sourceforge.net/DTD/sodipodi-0.dtd"
   xmlns:inkscape="http://www.inkscape.org/namespaces/inkscape"
   width="64"
   height="64"
   viewBox="0 0 64 64"
   version="1.1"
   id="svg8"
   inkscape:version="0.92.2 2405546, 2018-03-11"
   sodipodi:docname="ark.svg">
  <title
     id="title7895">Antu icon Theme</title>
  <defs
     id="defs2">
    <linearGradient
       gradientTransform="translate(-92,8)"
       inkscape:collect="always"
       xlink:href="#linearGradient4902"
       id="linearGradient1149"
       x1="86"
       y1="308.64999"
       x2="86"
       y2="252.64999"
       gradientUnits="userSpaceOnUse" />
    <linearGradient
       inkscape:collect="always"
       id="linearGradient4902">
      <stop
         style="stop-color:#0d72ec;stop-opacity:1"
         offset="0"
         id="stop4898" />
      <stop
         style="stop-color:#36b2fb;stop-opacity:1"
         offset="1"
         id="stop4900" />
    </linearGradient>
  </defs>
  <sodipodi:namedview
     id="base"
     pagecolor="#ffffff"
     bordercolor="#666666"
     borderopacity="1.0"
     inkscape:pageopacity="0.0"
     inkscape:pageshadow="2"
     inkscape:zoom="1"
     inkscape:cx="70.221954"
     inkscape:cy="87.058299"
     inkscape:document-units="px"
     inkscape:current-layer="layer1"
     showgrid="false"
     units="px"
     inkscape:window-width="1360"
     inkscape:window-height="711"
     inkscape:window-x="0"
     inkscape:window-y="28"
     inkscape:window-maximized="1"
     objecttolerance="10"
     gridtolerance="10"
     guidetolerance="10"
     inkscape:snap-bbox="true"
     inkscape:bbox-paths="true"
     inkscape:bbox-nodes="true"
     inkscape:snap-bbox-edge-midpoints="true"
     inkscape:snap-bbox-midpoints="true"
     inkscape:object-paths="true"
     inkscape:snap-intersection-paths="true"
     inkscape:showpageshadow="false">
    <inkscape:grid
       type="xygrid"
       id="grid7897"
       empspacing="4" />
  </sodipodi:namedview>
  <metadata
     id="metadata5">
    <rdf:RDF>
      <cc:Work
         rdf:about="">
        <dc:format>image/svg+xml</dc:format>
        <dc:type
           rdf:resource="http://purl.org/dc/dcmitype/StillImage" />
        <dc:title>Antu icon Theme</dc:title>
      </cc:Work>
    </rdf:RDF>
  </metadata>
  <g
     inkscape:label="Capa 1"
     inkscape:groupmode="layer"
     id="layer1"
     transform="translate(0,-250.64999)">
    <g
       id="g1769"
       transform="translate(38,-6)">
      <path
         id="rect971"
         d="m -29,257.64999 h 46 c 2.216,0 4,1.784 4,4 v 54 c 0,2.216 -1.784,4 -4,4 h -46 c -2.216,0 -4,-1.784 -4,-4 v -54 c 0,-2.216 1.784,-4 4,-4 z"
         style="opacity:1;vector-effect:none;fill:#0c3996;fill-opacity:1;stroke:none;stroke-width:2;stroke-linecap:round;stroke-linejoin:round;stroke-miterlimit:4;stroke-dasharray:none;stroke-dashoffset:0;stroke-opacity:1"
         inkscape:connector-curvature="0"
         sodipodi:nodetypes="sssssssss" />
      <path
         id="rect971-2"
         d="m -29,258.64999 h 46 c 1.662,0 3,1.338 3,3 v 54 c 0,1.662 -1.338,3 -3,3 h -46 c -1.662,0 -3,-1.338 -3,-3 v -54 c 0,-1.662 1.338,-3 3,-3 z"
         style="opacity:1;vector-effect:none;fill:url(#linearGradient1149);fill-opacity:1;stroke:none;stroke-width:2;stroke-linecap:round;stroke-linejoin:round;stroke-miterlimit:4;stroke-dasharray:none;stroke-dashoffset:0;stroke-opacity:1"
         inkscape:connector-curvature="0"
         sodipodi:nodetypes="sssssssss" />
    </g>
    <path
       inkscape:connector-curvature="0"
       style="opacity:1;vector-effect:none;fill:#010102;fill-opacity:1;stroke:none;stroke-width:2;stroke-linecap:round;stroke-linejoin:round;stroke-miterlimit:4;stroke-dasharray:none;stroke-dashoffset:0;stroke-opacity:1"
       d="m 27,251.64999 v 5 10 12 c 0,2.77 2.23,5 5,5 2.77,0 5,-2.23 5,-5 v -12 -10 -5 h -5 z"
       id="rect1296" />
    <path
       inkscape:connector-curvature="0"
       style="opacity:1;vector-effect:none;fill:#0c3996;fill-opacity:1;stroke:none;stroke-width:2;stroke-linecap:round;stroke-linejoin:round;stroke-miterlimit:4;stroke-dasharray:none;stroke-dashoffset:0;stroke-opacity:1"
       d="m 30,282.64999 v 1.55078 c -1.192708,0.69084 -2,1.96625 -2,3.44922 0,2.216 1.784001,4 4,4 2.215999,0 4,-1.784 4,-4 0,-1.48297 -0.807292,-2.75838 -2,-3.44922 v -1.55078 z m 2,3 c 1.107999,0 2,0.892 2,2 0,1.108 -0.892001,2 -2,2 -1.107999,0 -2,-0.892 -2,-2 0,-1.108 0.892001,-2 2,-2 z"
       id="rect1177-6-3-0-7" />
    <path
       inkscape:connector-curvature="0"
       style="opacity:1;vector-effect:none;fill:#292929;fill-opacity:1;stroke:none;stroke-width:2;stroke-linecap:round;stroke-linejoin:round;stroke-miterlimit:4;stroke-dasharray:none;stroke-dashoffset:0;stroke-opacity:1"
       d="m 28,252.64999 v 4 12 10 c 0,2.216 1.784,4 4,4 2.216,0 4,-1.784 4,-4 v -10 -12 -4 h -4 z"
       id="rect1301" />
    <path
       style="opacity:1;vector-effect:none;fill:#010102;fill-opacity:1;stroke:none;stroke-width:2;stroke-linecap:round;stroke-linejoin:round;stroke-miterlimit:4;stroke-dasharray:none;stroke-dashoffset:0;stroke-opacity:1"
       d="m 32,253.64999 v 2 h 2 v -2 z m 0,2 h -2 v 2 h 2 z m 0,2 v 2 h 2 v -2 z m 0,2 h -2 v 2 h 2 z m 0,2 v 2 h 2 v -2 z m 0,2 h -2 v 2 h 2 z m 0,2 v 2 h 2 v -2 z m 0,2 h -2 v 2 h 2 z m 0,2 v 2 h 2 v -2 z m 0,2 h -2 v 2 h 2 z m 0,2 v 2 h 2 v -2 z m 0,2 h -2 v 2 h 2 z m 0,2 v 2 h 2 v -2 z m 0,2 h -2 v 2 h 2 z"
       id="path871"
       inkscape:connector-curvature="0" />
    <path
       inkscape:connector-curvature="0"
       style="opacity:1;vector-effect:none;fill:#f2f2f2;fill-opacity:1;stroke:none;stroke-width:2;stroke-linecap:round;stroke-linejoin:round;stroke-miterlimit:4;stroke-dasharray:none;stroke-dashoffset:0;stroke-opacity:1"
       d="m 32,252.64999 v 2 h 2 v -2 z m 0,2 h -2 v 2 h 2 z m 0,2 v 2 h 2 v -2 z m 0,2 h -2 v 2 h 2 z m 0,2 v 2 h 2 v -2 z m 0,2 h -2 v 2 h 2 z m 0,2 v 2 h 2 v -2 z m 0,2 h -2 v 2 h 2 z m 0,2 v 2 h 2 v -2 z m 0,2 h -2 v 2 h 2 z m 0,2 v 2 h 2 v -2 z m 0,2 h -2 v 2 h 2 z m 0,2 v 2 h 2 v -2 z m 0,2 h -2 v 2 h 2 z m 0,2 v 1 h -2 v 1.55078 c -1.192708,0.69084 -2,1.96625 -2,3.44922 0,2.216 1.784001,4 4,4 2.215999,0 4,-1.784 4,-4 0,-1.48297 -0.807292,-2.75838 -2,-3.44922 v -0.55078 -1 -1 z m 0,4 c 1.107999,0 2,0.892 2,2 0,1.108 -0.892001,2 -2,2 -1.107999,0 -2,-0.892 -2,-2 0,-1.108 0.892001,-2 2,-2 z"
       id="rect1177" />
  </g>
</svg>
