<?xml version="1.0" encoding="UTF-8" standalone="no"?>
<!-- Created with Inkscape (http://www.inkscape.org/) -->

<svg
   xmlns:dc="http://purl.org/dc/elements/1.1/"
   xmlns:cc="http://creativecommons.org/ns#"
   xmlns:rdf="http://www.w3.org/1999/02/22-rdf-syntax-ns#"
   xmlns:svg="http://www.w3.org/2000/svg"
   xmlns="http://www.w3.org/2000/svg"
   xmlns:xlink="http://www.w3.org/1999/xlink"
   xmlns:sodipodi="http://sodipodi.sourceforge.net/DTD/sodipodi-0.dtd"
   xmlns:inkscape="http://www.inkscape.org/namespaces/inkscape"
   width="64"
   height="64"
   viewBox="0 0 64 64"
   version="1.1"
   id="svg8"
   inkscape:version="0.92.2 2405546, 2018-03-11"
   sodipodi:docname="assistant.svg">
  <title
     id="title7895">Antu icon Theme</title>
  <defs
     id="defs2">
    <linearGradient
       id="linearGradient4506"
       inkscape:collect="always">
      <stop
         id="stop4502"
         offset="0"
         style="stop-color:#252a34;stop-opacity:1" />
      <stop
         id="stop4504"
         offset="1"
         style="stop-color:#353d4b;stop-opacity:1" />
    </linearGradient>
    <style
       type="text/css"
       id="current-color-scheme">
      .ColorScheme-Text {
        color:#122036;
      }
      </style>
    <style
       id="current-color-scheme-1"
       type="text/css">
      .ColorScheme-Text {
        color:#122036;
      }
      </style>
    <linearGradient
       inkscape:collect="always"
       xlink:href="#linearGradient4506"
       id="linearGradient977"
       x1="16"
       y1="56"
       x2="16"
       y2="8"
       gradientUnits="userSpaceOnUse" />
    <linearGradient
       inkscape:collect="always"
       xlink:href="#0"
       id="linearGradient991"
       x1="48"
       y1="306.64999"
       x2="48"
       y2="258.64999"
       gradientUnits="userSpaceOnUse" />
    <linearGradient
       y2="518.14001"
       x2="0"
       y1="545.14001"
       gradientUnits="userSpaceOnUse"
       id="0">
      <stop
         id="stop4164"
         stop-color="#00a661" />
      <stop
         id="stop4166"
         stop-color="#37ce97"
         offset="1" />
    </linearGradient>
  </defs>
  <sodipodi:namedview
     id="base"
     pagecolor="#ffffff"
     bordercolor="#666666"
     borderopacity="1.0"
     inkscape:pageopacity="0.0"
     inkscape:pageshadow="2"
     inkscape:zoom="5.656854"
     inkscape:cx="-11.775984"
     inkscape:cy="46.198062"
     inkscape:document-units="px"
     inkscape:current-layer="layer1"
     showgrid="true"
     units="px"
     inkscape:window-width="1360"
     inkscape:window-height="711"
     inkscape:window-x="0"
     inkscape:window-y="28"
     inkscape:window-maximized="1"
     objecttolerance="10"
     gridtolerance="10"
     guidetolerance="10">
    <inkscape:grid
       type="xygrid"
       id="grid7897"
       empspacing="4" />
  </sodipodi:namedview>
  <metadata
     id="metadata5">
    <rdf:RDF>
      <cc:Work
         rdf:about="">
        <dc:format>image/svg+xml</dc:format>
        <dc:type
           rdf:resource="http://purl.org/dc/dcmitype/StillImage" />
        <dc:title>Antu icon Theme</dc:title>
      </cc:Work>
    </rdf:RDF>
  </metadata>
  <g
     inkscape:label="Capa 1"
     inkscape:groupmode="layer"
     id="layer1"
     transform="translate(0,-250.64999)">
    <path
       style="opacity:1;fill:#03080d;fill-opacity:1;stroke:none;stroke-width:2.4440403;stroke-linecap:round;stroke-linejoin:round;stroke-miterlimit:4;stroke-dasharray:none;stroke-opacity:1"
       d="m 2,254.64999 h 60 c 1.108,0 2,0.892 2,2 v 52 c 0,1.108 -0.892,2 -2,2 H 2 c -1.108,0 -2,-0.892 -2,-2 v -52 c 0,-1.108 0.892,-2 2,-2 z"
       id="rect891" />
    <path
       style="opacity:1;vector-effect:none;fill:url(#linearGradient977);fill-opacity:1;stroke:none;stroke-width:2;stroke-linecap:round;stroke-linejoin:round;stroke-miterlimit:4;stroke-dasharray:none;stroke-dashoffset:0;stroke-opacity:1"
       d="M 2 5 C 1.446 5 1 5.446 1 6 L 1 58 C 1 58.554 1.446 59 2 59 L 28 59 L 28 5 L 2 5 z "
       id="rect910"
       transform="translate(0,250.64999)" />
    <path
       inkscape:connector-curvature="0"
       style="opacity:1;vector-effect:none;fill:url(#linearGradient991);fill-opacity:1.0;stroke:none;stroke-width:2;stroke-linecap:round;stroke-linejoin:round;stroke-miterlimit:4;stroke-dasharray:none;stroke-dashoffset:0;stroke-opacity:1"
       d="m 29,255.64999 h 33 c 0.554,0 1,0.446 1,1 v 52 c 0,0.554 -0.446,1 -1,1 H 29 v -1 -52 z"
       id="rect910-0"
       sodipodi:nodetypes="csssscccc" />
    <path
       style="opacity:1;fill:#edfaf5;fill-opacity:1;stroke:none;stroke-width:4;stroke-linecap:round;stroke-linejoin:round;stroke-miterlimit:4;stroke-dasharray:none;stroke-opacity:1"
       d="m 5.9999995,258.64999 v 2 H 4 v 2 h 1.9999995 v 2 H 4 v 2 h 1.9999995 v 2 h 2.000001 v -2 H 10 v 2 h 2 v -2 h 2.000002 v -2 H 12 v -2 h 2.000002 v -2 H 12 v -2 h -2 v 2 H 8.0000005 v -2 z m 2.000001,4 H 10 v 2 H 8.0000005 Z"
       id="rect925-7-6"
       inkscape:connector-curvature="0" />
    <g
       id="g1013"
       transform="translate(-3.0000045,3.000005)">
      <g
         id="g1126"
         transform="translate(-47.691653,-1.7711788)">
        <g
           inkscape:label="Capa 1"
           id="layer1-7"
           transform="translate(72.691657,-9.2288212)">
          <g
             id="g1535"
             transform="translate(35,-15.000005)">
            <g
               id="g911"
               transform="translate(-35,15)">
              <g
                 id="g5422"
                 transform="translate(-24,-4)">
                <path
                   inkscape:connector-curvature="0"
                   id="rect4212"
                   d="m 48,283.64999 c -1.662,0 -3,1.338 -3,3 0,1.662 1.338,3 3,3 1.662,0 3,-1.338 3,-3 0,-1.662 -1.338,-3 -3,-3 z m 0,9 c -1.662,0 -3,1.338 -3,3 v 9 c 0,1.662 1.338,3 3,3 1.662,0 3,-1.338 3,-3 v -9 c 0,-1.662 -1.338,-3 -3,-3 z"
                   style="opacity:1;fill:#039459;fill-opacity:1;stroke:none;stroke-width:2;stroke-linecap:round;stroke-linejoin:round;stroke-miterlimit:4;stroke-dasharray:none;stroke-dashoffset:0;stroke-opacity:1" />
                <path
                   inkscape:connector-curvature="0"
                   id="rect4212-5"
                   d="m 48,282.64999 c -1.662,0 -3,1.338 -3,3 0,1.662 1.338,3 3,3 1.662,0 3,-1.338 3,-3 0,-1.662 -1.338,-3 -3,-3 z m 0,9 c -1.662,0 -3,1.338 -3,3 v 9 c 0,1.662 1.338,3 3,3 1.662,0 3,-1.338 3,-3 v -9 c 0,-1.662 -1.338,-3 -3,-3 z"
                   style="opacity:1;fill:#edfaf5;fill-opacity:1;stroke:none;stroke-width:2;stroke-linecap:round;stroke-linejoin:round;stroke-miterlimit:4;stroke-dasharray:none;stroke-dashoffset:0;stroke-opacity:1" />
              </g>
            </g>
          </g>
        </g>
      </g>
    </g>
    <g
       id="layer1-2"
       inkscape:label="Capa 1"
       transform="translate(73,1.999995)" />
  </g>
</svg>
