<?xml version="1.0" encoding="UTF-8" standalone="no"?>
<!-- Created with Inkscape (http://www.inkscape.org/) -->

<svg
   xmlns:dc="http://purl.org/dc/elements/1.1/"
   xmlns:cc="http://creativecommons.org/ns#"
   xmlns:rdf="http://www.w3.org/1999/02/22-rdf-syntax-ns#"
   xmlns:svg="http://www.w3.org/2000/svg"
   xmlns="http://www.w3.org/2000/svg"
   xmlns:xlink="http://www.w3.org/1999/xlink"
   xmlns:sodipodi="http://sodipodi.sourceforge.net/DTD/sodipodi-0.dtd"
   xmlns:inkscape="http://www.inkscape.org/namespaces/inkscape"
   width="64"
   height="64"
   viewBox="0 0 64 64"
   version="1.1"
   id="svg8"
   inkscape:version="0.92.4 5da689c313, 2019-01-14"
   sodipodi:docname="maui-station.svg">
  <title
     id="title7895">Antu icon Theme</title>
  <defs
     id="defs2">
    <linearGradient
       inkscape:collect="always"
       xlink:href="#linearGradient856"
       id="linearGradient917"
       x1="32"
       y1="306.64999"
       x2="32"
       y2="258.64999"
       gradientUnits="userSpaceOnUse" />
    <linearGradient
       inkscape:collect="always"
       id="linearGradient856">
      <stop
         style="stop-color:#32abf9;stop-opacity:1"
         offset="0"
         id="stop852" />
      <stop
         style="stop-color:#1279ed;stop-opacity:1"
         offset="1"
         id="stop854" />
    </linearGradient>
  </defs>
  <sodipodi:namedview
     id="base"
     pagecolor="#ffffff"
     bordercolor="#666666"
     borderopacity="1.0"
     inkscape:pageopacity="0.0"
     inkscape:pageshadow="2"
     inkscape:zoom="11.313708"
     inkscape:cx="59.914255"
     inkscape:cy="37.444473"
     inkscape:document-units="px"
     inkscape:current-layer="layer1"
     showgrid="true"
     units="px"
     inkscape:window-width="1920"
     inkscape:window-height="991"
     inkscape:window-x="0"
     inkscape:window-y="0"
     inkscape:window-maximized="1"
     objecttolerance="10"
     gridtolerance="10"
     guidetolerance="10">
    <inkscape:grid
       type="xygrid"
       id="grid7897"
       empspacing="4" />
  </sodipodi:namedview>
  <metadata
     id="metadata5">
    <rdf:RDF>
      <cc:Work
         rdf:about="">
        <dc:format>image/svg+xml</dc:format>
        <dc:type
           rdf:resource="http://purl.org/dc/dcmitype/StillImage" />
        <dc:title>Antu icon Theme</dc:title>
      </cc:Work>
    </rdf:RDF>
  </metadata>
  <g
     inkscape:label="Capa 1"
     inkscape:groupmode="layer"
     id="layer1"
     transform="translate(0,-250.64999)">
    <path
       style="opacity:1;fill:#030303;fill-opacity:1;stroke:none;stroke-width:2.4440403;stroke-linecap:round;stroke-linejoin:round;stroke-miterlimit:4;stroke-dasharray:none;stroke-opacity:1"
       d="m 2,254.64999 h 60 c 1.108,0 2,0.892 2,2 v 52 c 0,1.108 -0.892,2 -2,2 H 2 c -1.108,0 -2,-0.892 -2,-2 v -52 c 0,-1.108 0.892,-2 2,-2 z"
       id="rect891" />
    <path
       style="opacity:1;fill:url(#linearGradient917);fill-opacity:1.0;stroke:none;stroke-width:2.28035069;stroke-linecap:round;stroke-linejoin:round;stroke-miterlimit:4;stroke-dasharray:none;stroke-opacity:1"
       d="m 3,256.64999 h 58 c 0.554,0 1,0.446 1,1 v 50 c 0,0.554 -0.446,1 -1,1 H 3 c -0.554,0 -1,-0.446 -1,-1 v -50 c 0,-0.554 0.446,-1 1,-1 z"
       id="rect891-9" />
    <path
       style="opacity:1;fill:#ffffff;fill-opacity:0.24347825;stroke:none;stroke-width:4;stroke-linecap:round;stroke-linejoin:round;stroke-miterlimit:4;stroke-dasharray:none;stroke-opacity:1"
       d="m 2,260.64999 v 4 h 60 v -4 z m 0,8 v 4 h 60 v -4 z m 0,8 v 4 h 60 v -4 z m 0,8 v 4 h 60 v -4 z m 0,8 v 4 h 60 v -4 z m 0,8 v 4 h 60 v -4 z"
       id="rect1052-1"
       inkscape:connector-curvature="0"
       sodipodi:nodetypes="cccccccccccccccccccccccccccccc" />
    <path
       style="opacity:1;fill:#0f1e2e;fill-opacity:1;stroke:none;stroke-width:4;stroke-linecap:round;stroke-linejoin:round;stroke-miterlimit:4;stroke-dasharray:none;stroke-opacity:1"
       d="m 8,260.64999 v 2 H 6 v 2 h 2 v 2 H 6 v 2 h 2 v 2 h 2 v -2 h 2 v 2 h 2 v -2 h 2 v -2 h -2 v -2 h 2 v -2 h -2 v -2 h -2 v 2 h -2 v -2 z m 2,4 h 2 v 2 h -2 z"
       id="rect925-7-7"
       inkscape:connector-curvature="0" />
  </g>
</svg>
