<?xml version="1.0" encoding="UTF-8" standalone="no"?>
<!-- Created with Inkscape (http://www.inkscape.org/) -->

<svg
   xmlns:dc="http://purl.org/dc/elements/1.1/"
   xmlns:cc="http://creativecommons.org/ns#"
   xmlns:rdf="http://www.w3.org/1999/02/22-rdf-syntax-ns#"
   xmlns:svg="http://www.w3.org/2000/svg"
   xmlns="http://www.w3.org/2000/svg"
   xmlns:xlink="http://www.w3.org/1999/xlink"
   xmlns:sodipodi="http://sodipodi.sourceforge.net/DTD/sodipodi-0.dtd"
   xmlns:inkscape="http://www.inkscape.org/namespaces/inkscape"
   width="64"
   height="64"
   viewBox="0 0 16.933333 16.933333"
   version="1.1"
   id="svg8"
   inkscape:version="0.92.3 (2405546, 2018-03-11)"
   sodipodi:docname="playonlinux.svg">
  <defs
     id="defs2">
    <linearGradient
       inkscape:collect="always"
       xlink:href="#linearGradient4627"
       id="linearGradient1780"
       x1="44.999996"
       y1="347.05917"
       x2="45"
       y2="328.00812"
       gradientUnits="userSpaceOnUse"
       gradientTransform="matrix(0.38805556,0,0,0.38805556,-12.435416,162.0417)" />
    <linearGradient
       id="linearGradient4627"
       inkscape:collect="always">
      <stop
         id="stop4623"
         offset="0"
         style="stop-color:#ffc900;stop-opacity:1" />
      <stop
         id="stop4625"
         offset="1"
         style="stop-color:#ffe200;stop-opacity:1" />
    </linearGradient>
    <linearGradient
       inkscape:collect="always"
       xlink:href="#linearGradient4717"
       id="linearGradient1772"
       x1="30"
       y1="347.09903"
       x2="30"
       y2="328.00812"
       gradientUnits="userSpaceOnUse"
       gradientTransform="matrix(0.38805556,0,0,0.38805556,-12.435416,162.0417)" />
    <linearGradient
       id="linearGradient4717"
       inkscape:collect="always">
      <stop
         id="stop4713"
         offset="0"
         style="stop-color:#1a86f2;stop-opacity:1" />
      <stop
         id="stop4715"
         offset="1"
         style="stop-color:#31bbfc;stop-opacity:1" />
    </linearGradient>
    <linearGradient
       inkscape:collect="always"
       xlink:href="#linearGradient4534"
       id="linearGradient1756"
       x1="41.590908"
       y1="326.6445"
       x2="41.590908"
       y2="307.55359"
       gradientUnits="userSpaceOnUse"
       gradientTransform="matrix(0.38805556,0,0,0.38805556,-12.435416,162.0417)" />
    <linearGradient
       id="linearGradient4534"
       inkscape:collect="always">
      <stop
         id="stop4530"
         offset="0"
         style="stop-color:#d43434;stop-opacity:1" />
      <stop
         id="stop4532"
         offset="1"
         style="stop-color:#f84f4f;stop-opacity:1" />
    </linearGradient>
    <linearGradient
       inkscape:collect="always"
       xlink:href="#linearGradient4619"
       id="linearGradient1744"
       x1="28.636362"
       y1="326.6445"
       x2="28.636362"
       y2="307.55359"
       gradientUnits="userSpaceOnUse"
       gradientTransform="matrix(0.38805556,0,0,0.38805556,-12.435416,162.0417)" />
    <linearGradient
       id="linearGradient4619"
       inkscape:collect="always">
      <stop
         id="stop4615"
         offset="0"
         style="stop-color:#67d924;stop-opacity:1" />
      <stop
         id="stop4617"
         offset="1"
         style="stop-color:#a3eb1e;stop-opacity:1" />
    </linearGradient>
  </defs>
  <sodipodi:namedview
     id="base"
     pagecolor="#ffffff"
     bordercolor="#666666"
     borderopacity="1.0"
     inkscape:pageopacity="0.0"
     inkscape:pageshadow="2"
     inkscape:zoom="11.2"
     inkscape:cx="11.774357"
     inkscape:cy="29.512999"
     inkscape:document-units="px"
     inkscape:current-layer="layer1"
     showgrid="true"
     units="px"
     inkscape:showpageshadow="false"
     inkscape:snap-bbox="true"
     inkscape:bbox-paths="true"
     inkscape:bbox-nodes="true"
     inkscape:snap-bbox-edge-midpoints="true"
     inkscape:snap-bbox-midpoints="true"
     inkscape:object-paths="true"
     inkscape:snap-intersection-paths="true"
     inkscape:window-width="1874"
     inkscape:window-height="1141"
     inkscape:window-x="46"
     inkscape:window-y="30"
     inkscape:window-maximized="1">
    <inkscape:grid
       type="xygrid"
       id="grid815" />
  </sodipodi:namedview>
  <metadata
     id="metadata5">
    <rdf:RDF>
      <cc:Work
         rdf:about="">
        <dc:format>image/svg+xml</dc:format>
        <dc:type
           rdf:resource="http://purl.org/dc/dcmitype/StillImage" />
        <dc:title></dc:title>
      </cc:Work>
    </rdf:RDF>
  </metadata>
  <g
     inkscape:label="Capa 1"
     inkscape:groupmode="layer"
     id="layer1"
     transform="translate(0,-280.06666)">
    <g
       id="g5801"
       transform="translate(6.0854164,-0.5136735)">
      <path
         style="opacity:1;fill:#56b21d;fill-opacity:1;stroke:none;stroke-width:0.13229166;stroke-linecap:round;stroke-linejoin:round;stroke-miterlimit:4;stroke-dasharray:none;stroke-opacity:1;paint-order:fill markers stroke"
         d="m -0.26458309,281.10949 c -1.46579191,0 -2.64583351,1.18004 -2.64583351,2.64583 -1.4657919,0 -2.6458333,1.18005 -2.6458333,2.64584 0,1.46579 1.1800414,2.64583 2.6458333,2.64583 h 5.2916665 v -5.29167 c 0,-1.46579 -1.1800416,-2.64583 -2.64583299,-2.64583 z"
         id="rect1379-4"
         inkscape:connector-curvature="0" />
      <path
         style="opacity:1;fill:url(#linearGradient1744);fill-opacity:1;stroke:none;stroke-width:0.11906251;stroke-linecap:round;stroke-linejoin:round;stroke-miterlimit:4;stroke-dasharray:none;stroke-opacity:1;paint-order:fill markers stroke"
         d="m -0.26458309,281.37407 c -1.31921271,0 -2.38125021,1.06204 -2.38125021,2.38125 v 0.28009 c -0.087008,-0.01 -0.1749475,-0.0155 -0.2645833,-0.0155 -1.3192122,0 -2.3812502,1.06204 -2.3812502,2.38125 0,1.31921 1.062038,2.38125 2.3812502,2.38125 h 0.2645833 0.7937503 3.9687496 v -5.02708 c 0,-1.31921 -1.0620375,-2.38125 -2.38124969,-2.38125 z"
         id="rect1379-3-31"
         inkscape:connector-curvature="0" />
      <path
         style="opacity:1;fill:#992626;fill-opacity:1;stroke:none;stroke-width:0.13229166;stroke-linecap:round;stroke-linejoin:round;stroke-miterlimit:4;stroke-dasharray:none;stroke-opacity:1;paint-order:fill markers stroke"
         d="m 5.0270831,281.10947 c 1.465792,0 2.645833,1.18004 2.645833,2.64583 1.465792,0 2.6458339,1.18004 2.6458339,2.64584 0,1.46579 -1.1800419,2.64583 -2.6458339,2.64583 H 2.3812499 v -5.29167 c 0,-1.46579 1.1800417,-2.64583 2.6458332,-2.64583 z"
         id="rect1379-6-2"
         inkscape:connector-curvature="0" />
      <path
         style="opacity:1;fill:url(#linearGradient1756);fill-opacity:1;stroke:none;stroke-width:0.11906251;stroke-linecap:round;stroke-linejoin:round;stroke-miterlimit:4;stroke-dasharray:none;stroke-opacity:1;paint-order:fill markers stroke"
         d="m 5.0270831,281.37406 c 1.319213,0 2.38125,1.06203 2.38125,2.38124 v 0.28009 c 0.08701,-0.01 0.174948,-0.0155 0.264583,-0.0155 1.319213,0 2.3812499,1.06204 2.3812499,2.38125 0,1.31922 -1.0620369,2.38125 -2.3812499,2.38125 H 7.4083331 6.6145831 2.645833 v -5.02708 c 0,-1.31921 1.0620375,-2.38125 2.3812501,-2.38125 z"
         id="rect1379-3-5-6"
         inkscape:connector-curvature="0" />
      <path
         style="opacity:1;fill:#115799;fill-opacity:1;stroke:none;stroke-width:0.13229166;stroke-linecap:round;stroke-linejoin:round;stroke-miterlimit:4;stroke-dasharray:none;stroke-opacity:1;paint-order:fill markers stroke"
         d="m -0.26458309,296.98451 c -1.46579191,0 -2.64583351,-1.18004 -2.64583351,-2.64583 -1.4657919,0 -2.6458333,-1.18005 -2.6458333,-2.64583 0,-1.4658 1.1800414,-2.64584 2.6458333,-2.64584 h 5.2916665 v 5.29167 c 0,1.46579 -1.1800416,2.64583 -2.64583299,2.64583 z"
         id="rect1379-69-6"
         inkscape:connector-curvature="0" />
      <path
         style="opacity:1;fill:url(#linearGradient1772);fill-opacity:1;stroke:none;stroke-width:0.11906251;stroke-linecap:round;stroke-linejoin:round;stroke-miterlimit:4;stroke-dasharray:none;stroke-opacity:1;paint-order:fill markers stroke"
         d="m -0.26458309,296.71993 c -1.31921271,0 -2.38125021,-1.06204 -2.38125021,-2.38125 v -0.28009 c -0.087008,0.01 -0.1749475,0.0155 -0.2645833,0.0155 -1.3192122,0 -2.3812502,-1.06204 -2.3812502,-2.38125 0,-1.31921 1.062038,-2.38125 2.3812502,-2.38125 h 0.2645833 0.7937503 3.9687496 v 5.02708 c 0,1.31921 -1.0620375,2.38125 -2.38124969,2.38125 z"
         id="rect1379-3-3-4"
         inkscape:connector-curvature="0" />
      <path
         style="opacity:1;fill:#ff9a0a;fill-opacity:1;stroke:none;stroke-width:0.13229166;stroke-linecap:round;stroke-linejoin:round;stroke-miterlimit:4;stroke-dasharray:none;stroke-opacity:1;paint-order:fill markers stroke"
         d="m 5.0270831,296.98453 c 1.465792,0 2.645833,-1.18004 2.645833,-2.64583 1.465792,0 2.6458339,-1.18004 2.6458339,-2.64584 0,-1.46579 -1.1800419,-2.64583 -2.6458339,-2.64583 H 2.3812499 v 5.29167 c 0,1.46579 1.1800417,2.64583 2.6458332,2.64583 z"
         id="rect1379-6-7-9"
         inkscape:connector-curvature="0" />
      <path
         style="opacity:1;fill:url(#linearGradient1780);fill-opacity:1;stroke:none;stroke-width:0.11906251;stroke-linecap:round;stroke-linejoin:round;stroke-miterlimit:4;stroke-dasharray:none;stroke-opacity:1;paint-order:fill markers stroke"
         d="m 5.0270831,296.71994 c 1.319213,0 2.38125,-1.06203 2.38125,-2.38124 v -0.28009 c 0.08701,0.01 0.174948,0.0155 0.264583,0.0155 1.319213,0 2.3812499,-1.06204 2.3812499,-2.38125 0,-1.31921 -1.0620369,-2.38125 -2.3812499,-2.38125 H 7.4083331 6.6145831 2.645833 v 5.02708 c 0,1.31921 1.0620375,2.38125 2.3812501,2.38125 z"
         id="rect1379-3-5-4-5"
         inkscape:connector-curvature="0" />
    </g>
  </g>
</svg>
