<?xml version="1.0" encoding="UTF-8" standalone="no"?>
<!-- Created with Inkscape (http://www.inkscape.org/) -->

<svg
   xmlns:dc="http://purl.org/dc/elements/1.1/"
   xmlns:cc="http://creativecommons.org/ns#"
   xmlns:rdf="http://www.w3.org/1999/02/22-rdf-syntax-ns#"
   xmlns:svg="http://www.w3.org/2000/svg"
   xmlns="http://www.w3.org/2000/svg"
   xmlns:xlink="http://www.w3.org/1999/xlink"
   xmlns:sodipodi="http://sodipodi.sourceforge.net/DTD/sodipodi-0.dtd"
   xmlns:inkscape="http://www.inkscape.org/namespaces/inkscape"
   width="64"
   height="64"
   viewBox="0 0 64 64"
   version="1.1"
   id="svg8"
   inkscape:version="0.92.2 2405546, 2018-03-11"
   sodipodi:docname="preferences-desktop-peripherals.svg">
  <title
     id="title7895">Antu icon Theme</title>
  <defs
     id="defs2">
    <linearGradient
       gradientUnits="userSpaceOnUse"
       y2="283.64999"
       x2="196"
       y1="319.64999"
       x1="196"
       id="linearGradient4122"
       xlink:href="#linearGradient4582-3"
       inkscape:collect="always"
       gradientTransform="translate(-208,-24)" />
    <linearGradient
       id="linearGradient4582-3"
       inkscape:collect="always">
      <stop
         id="stop4578-5"
         offset="0"
         style="stop-color:#cee3e3;stop-opacity:1" />
      <stop
         id="stop4580-6"
         offset="1"
         style="stop-color:#fcfcfc;stop-opacity:1" />
    </linearGradient>
    <linearGradient
       gradientUnits="userSpaceOnUse"
       y2="289.64999"
       x2="196"
       y1="293.64999"
       x1="196"
       id="linearGradient4131"
       xlink:href="#linearGradient902"
       inkscape:collect="always"
       gradientTransform="translate(-208,-24)" />
    <linearGradient
       inkscape:collect="always"
       id="linearGradient902">
      <stop
         style="stop-color:#363c4d;stop-opacity:1"
         offset="0"
         id="stop898" />
      <stop
         style="stop-color:#5c647c;stop-opacity:1"
         offset="1"
         id="stop900" />
    </linearGradient>
    <linearGradient
       gradientUnits="userSpaceOnUse"
       y2="275.64999"
       x2="48"
       y1="313.64999"
       x1="48"
       id="linearGradient985"
       xlink:href="#linearGradient4582"
       inkscape:collect="always" />
    <linearGradient
       id="linearGradient4582"
       inkscape:collect="always">
      <stop
         id="stop4578"
         offset="0"
         style="stop-color:#5b637b;stop-opacity:1" />
      <stop
         id="stop4580"
         offset="1"
         style="stop-color:#727b97;stop-opacity:1" />
    </linearGradient>
  </defs>
  <sodipodi:namedview
     id="base"
     pagecolor="#ffffff"
     bordercolor="#666666"
     borderopacity="1.0"
     inkscape:pageopacity="0.0"
     inkscape:pageshadow="2"
     inkscape:zoom="2.8284271"
     inkscape:cx="81.327544"
     inkscape:cy="-12.336301"
     inkscape:document-units="px"
     inkscape:current-layer="layer1"
     showgrid="true"
     units="px"
     inkscape:window-width="1360"
     inkscape:window-height="711"
     inkscape:window-x="0"
     inkscape:window-y="28"
     inkscape:window-maximized="1"
     objecttolerance="10"
     gridtolerance="10"
     guidetolerance="10"
     inkscape:snap-bbox="true"
     inkscape:bbox-paths="true"
     inkscape:bbox-nodes="true"
     inkscape:snap-bbox-edge-midpoints="true"
     inkscape:snap-bbox-midpoints="true"
     inkscape:object-paths="true"
     inkscape:snap-intersection-paths="true"
     inkscape:showpageshadow="false">
    <inkscape:grid
       type="xygrid"
       id="grid7897"
       empspacing="4" />
  </sodipodi:namedview>
  <metadata
     id="metadata5">
    <rdf:RDF>
      <cc:Work
         rdf:about="">
        <dc:format>image/svg+xml</dc:format>
        <dc:type
           rdf:resource="http://purl.org/dc/dcmitype/StillImage" />
        <dc:title>Antu icon Theme</dc:title>
      </cc:Work>
    </rdf:RDF>
  </metadata>
  <g
     inkscape:label="Capa 1"
     inkscape:groupmode="layer"
     id="layer1"
     transform="translate(0,-250.64999)">
    <g
       transform="translate(0,5e-6)"
       id="layer1-1"
       inkscape:label="Capa 1">
      <g
         transform="translate(-24,-4.000005)"
         id="g5422">
        <g
           inkscape:label="Capa 1"
           id="layer1-3-2"
           transform="matrix(5.5433071,0,0,5.5433071,24.533333,-1328.2455)" />
        <path
           inkscape:connector-curvature="0"
           id="rect854"
           d="m 29,272.64999 h 38 c 1.662,0 3,1.338 3,3 v 38 c 0,1.662 -1.338,3 -3,3 H 29 c -1.662,0 -3,-1.338 -3,-3 v -38 c 0,-1.662 1.338,-3 3,-3 z"
           style="opacity:1;fill:#363c4d;fill-opacity:1;stroke:none;stroke-width:3.88529491;stroke-linecap:round;stroke-linejoin:round;stroke-miterlimit:4;stroke-dasharray:none;stroke-opacity:1" />
        <path
           inkscape:connector-curvature="0"
           id="rect854-2"
           d="m 29,273.64999 h 38 c 1.108,0 2,0.892 2,2 v 38 c 0,1.108 -0.892,2 -2,2 H 29 c -1.108,0 -2,-0.892 -2,-2 v -38 c 0,-1.108 0.892,-2 2,-2 z"
           style="opacity:1;fill:url(#linearGradient985);fill-opacity:1;stroke:none;stroke-width:3.70869064;stroke-linecap:round;stroke-linejoin:round;stroke-miterlimit:4;stroke-dasharray:none;stroke-opacity:1" />
      </g>
      <g
         inkscape:label="Capa 1"
         id="layer1-6"
         transform="matrix(1.4666667,0,0,1.4666667,-0.46666729,-147.37001)" />
      <g
         inkscape:label="Capa 1"
         id="layer1-6-2"
         transform="matrix(-1.4666667,0,0,1.4666667,49.466667,-147.37001)" />
      <g
         inkscape:label="Capa 1"
         id="layer1-6-27"
         transform="matrix(1.4666667,0,0,-1.4666667,-0.46666729,729.66999)" />
      <g
         inkscape:label="Capa 1"
         id="layer1-6-2-3"
         transform="matrix(-1.4666667,0,0,-1.4666667,49.466667,729.66999)" />
      <path
         sodipodi:nodetypes="ssscccsssscccsssscccsssscccsssscsssssscsscccccscsssscssssc"
         inkscape:connector-curvature="0"
         id="rect993"
         d="m 15,277.64999 c -2.77,0 -5,2.23 -5,5 0,2.77 2.23,5 5,5 h 2 v 1 7 h -2 c -2.77,0 -5,2.23 -5,5 0,2.77 2.23,5 5,5 2.77,0 5,-2.23 5,-5 v -2 h 1 7 v 2 c 0,2.77 2.23,5 5,5 2.77,0 5,-2.23 5,-5 0,-2.77 -2.23,-5 -5,-5 h -2 v -1 -7 h 2 c 2.77,0 5,-2.23 5,-5 0,-2.77 -2.23,-5 -5,-5 -2.77,0 -5,2.23 -5,5 v 2 h -7 -1 v -2 c 0,-2.77 -2.23,-5 -5,-5 z m 0,3 c 1.108,0 2,0.892 2,2 v 2 h -2 c -1.108,0 -2,-0.892 -2,-2 0,-1.108 0.892,-2 2,-2 z m 18,0 c 1.108,0 2,0.892 2,2 0,1.108 -0.892,2 -2,2 h -2 v -2 c 0,-1.108 0.892,-2 2,-2 z m -13,7 h 8 v 8 h -8 z m -5,11 h 2 v 2 c 0,1.108 -0.892,2 -2,2 -1.108,0 -2,-0.892 -2,-2 0,-1.108 0.892,-2 2,-2 z m 16,0 h 2 c 1.108,0 2,0.892 2,2 0,1.108 -0.892,2 -2,2 -1.108,0 -2,-0.892 -2,-2 z"
         style="opacity:1;vector-effect:none;fill:#484f66;fill-opacity:1;stroke:none;stroke-width:2;stroke-linecap:round;stroke-linejoin:round;stroke-miterlimit:4;stroke-dasharray:none;stroke-dashoffset:0;stroke-opacity:1" />
      <path
         sodipodi:nodetypes="ssscccsssscccsssscccsssscccsssscsssssscsscccccscsssscssssc"
         id="rect993-9"
         d="m 15,276.64999 c -2.77,0 -5,2.23 -5,5 0,2.77 2.23,5 5,5 h 2 v 1 7 h -2 c -2.77,0 -5,2.23 -5,5 0,2.77 2.23,5 5,5 2.77,0 5,-2.23 5,-5 v -2 h 1 7 v 2 c 0,2.77 2.23,5 5,5 2.77,0 5,-2.23 5,-5 0,-2.77 -2.23,-5 -5,-5 h -2 v -1 -7 h 2 c 2.77,0 5,-2.23 5,-5 0,-2.77 -2.23,-5 -5,-5 -2.77,0 -5,2.23 -5,5 v 2 h -7 -1 v -2 c 0,-2.77 -2.23,-5 -5,-5 z m 0,3 c 1.108,0 2,0.892 2,2 v 2 h -2 c -1.108,0 -2,-0.892 -2,-2 0,-1.108 0.892,-2 2,-2 z m 18,0 c 1.108,0 2,0.892 2,2 0,1.108 -0.892,2 -2,2 h -2 v -2 c 0,-1.108 0.892,-2 2,-2 z m -13,7 h 8 v 8 h -8 z m -5,11 h 2 v 2 c 0,1.108 -0.892,2 -2,2 -1.108,0 -2,-0.892 -2,-2 0,-1.108 0.892,-2 2,-2 z m 16,0 h 2 c 1.108,0 2,0.892 2,2 0,1.108 -0.892,2 -2,2 -1.108,0 -2,-0.892 -2,-2 z"
         style="opacity:1;vector-effect:none;fill:#ffffff;fill-opacity:1;stroke:none;stroke-width:2;stroke-linecap:round;stroke-linejoin:round;stroke-miterlimit:4;stroke-dasharray:none;stroke-dashoffset:0;stroke-opacity:1"
         inkscape:connector-curvature="0" />
    </g>
    <g
       transform="translate(23,-16)"
       id="layer1-9"
       inkscape:label="Capa 1">
      <g
         transform="translate(36,14)"
         id="g4822">
        <path
           inkscape:connector-curvature="0"
           style="opacity:1;vector-effect:none;fill:#90a4ae;fill-opacity:1;stroke:none;stroke-width:2;stroke-linecap:round;stroke-linejoin:round;stroke-miterlimit:4;stroke-dasharray:none;stroke-dashoffset:0;stroke-opacity:1"
           d="m -12,254.64999 c 8.31,0 15,6.69 15,15 v 14 c 0,8.31 -6.69,15 -15,15 -8.31,0 -15,-6.69 -15,-15 v -14 c 0,-8.31 6.69,-15 15,-15 z"
           id="rect4106" />
        <path
           inkscape:connector-curvature="0"
           style="opacity:1;vector-effect:none;fill:url(#linearGradient4122);fill-opacity:1;stroke:none;stroke-width:2;stroke-linecap:round;stroke-linejoin:round;stroke-miterlimit:4;stroke-dasharray:none;stroke-dashoffset:0;stroke-opacity:1"
           d="m -12,255.64999 c 7.756,0 14,6.244 14,14 v 14 c 0,7.756 -6.244,14 -14,14 -7.756,0 -14,-6.244 -14,-14 v -14 c 0,-7.756 6.244,-14 14,-14 z"
           id="rect4108" />
        <path
           inkscape:connector-curvature="0"
           style="opacity:1;vector-effect:none;fill:url(#linearGradient4131);fill-opacity:1;stroke:none;stroke-width:2;stroke-linecap:round;stroke-linejoin:round;stroke-miterlimit:4;stroke-dasharray:none;stroke-dashoffset:0;stroke-opacity:1"
           d="m -12,264.64999 v 0 c 1.662,0 3,1.338 3,3 0,1.662 -1.338,3 -3,3 v 0 c -1.662,0 -3,-1.338 -3,-3 0,-1.662 1.338,-3 3,-3 z"
           id="rect4110" />
      </g>
    </g>
  </g>
</svg>
