<?xml version="1.0" encoding="UTF-8" standalone="no"?>
<!-- Created with Inkscape (http://www.inkscape.org/) -->

<svg
   xmlns:dc="http://purl.org/dc/elements/1.1/"
   xmlns:cc="http://creativecommons.org/ns#"
   xmlns:rdf="http://www.w3.org/1999/02/22-rdf-syntax-ns#"
   xmlns:svg="http://www.w3.org/2000/svg"
   xmlns="http://www.w3.org/2000/svg"
   xmlns:xlink="http://www.w3.org/1999/xlink"
   xmlns:sodipodi="http://sodipodi.sourceforge.net/DTD/sodipodi-0.dtd"
   xmlns:inkscape="http://www.inkscape.org/namespaces/inkscape"
   width="64"
   height="64"
   viewBox="0 0 64 64"
   version="1.1"
   id="svg8"
   inkscape:version="0.92.2 2405546, 2018-03-11"
   sodipodi:docname="amarok_change_language.svg">
  <title
     id="title7895">Antu icon Theme</title>
  <defs
     id="defs2">
    <linearGradient
       inkscape:collect="always"
       xlink:href="#linearGradient4602"
       id="linearGradient4928"
       x1="21.954546"
       y1="292.64999"
       x2="22"
       y2="252.64999"
       gradientUnits="userSpaceOnUse" />
    <linearGradient
       inkscape:collect="always"
       id="linearGradient4602">
      <stop
         style="stop-color:#228ee9;stop-opacity:1"
         offset="0"
         id="stop4598" />
      <stop
         style="stop-color:#2eb5fd;stop-opacity:1"
         offset="1"
         id="stop4600" />
    </linearGradient>
    <linearGradient
       gradientTransform="translate(54,34)"
       inkscape:collect="always"
       xlink:href="#linearGradient4656"
       id="linearGradient4928-8"
       x1="21.954546"
       y1="292.64999"
       x2="22"
       y2="252.64999"
       gradientUnits="userSpaceOnUse" />
    <linearGradient
       inkscape:collect="always"
       id="linearGradient4656">
      <stop
         style="stop-color:#e4e4e4;stop-opacity:1"
         offset="0"
         id="stop4652" />
      <stop
         style="stop-color:#fbfbfb;stop-opacity:1"
         offset="1"
         id="stop4654" />
    </linearGradient>
  </defs>
  <sodipodi:namedview
     id="base"
     pagecolor="#ffffff"
     bordercolor="#666666"
     borderopacity="1.0"
     inkscape:pageopacity="0.0"
     inkscape:pageshadow="2"
     inkscape:zoom="11.313708"
     inkscape:cx="46.752343"
     inkscape:cy="15.496557"
     inkscape:document-units="px"
     inkscape:current-layer="layer1"
     showgrid="true"
     units="px"
     inkscape:window-width="1360"
     inkscape:window-height="711"
     inkscape:window-x="0"
     inkscape:window-y="28"
     inkscape:window-maximized="1"
     objecttolerance="10"
     gridtolerance="10"
     guidetolerance="10"
     inkscape:snap-bbox="true"
     inkscape:bbox-paths="true"
     inkscape:bbox-nodes="true"
     inkscape:snap-bbox-edge-midpoints="true"
     inkscape:snap-bbox-midpoints="true"
     inkscape:object-paths="true"
     inkscape:snap-intersection-paths="true"
     inkscape:showpageshadow="false">
    <inkscape:grid
       type="xygrid"
       id="grid7897"
       empspacing="4" />
  </sodipodi:namedview>
  <metadata
     id="metadata5">
    <rdf:RDF>
      <cc:Work
         rdf:about="">
        <dc:format>image/svg+xml</dc:format>
        <dc:type
           rdf:resource="http://purl.org/dc/dcmitype/StillImage" />
        <dc:title>Antu icon Theme</dc:title>
      </cc:Work>
    </rdf:RDF>
  </metadata>
  <g
     inkscape:label="Capa 1"
     inkscape:groupmode="layer"
     id="layer1"
     transform="translate(0,-250.64999)">
    <g
       id="g5618"
       transform="translate(40,-4)">
      <g
         transform="translate(-74,-10)"
         id="g4959">
        <path
           inkscape:connector-curvature="0"
           style="opacity:1;vector-effect:none;fill:#666666;fill-opacity:1;stroke:none;stroke-width:2;stroke-linecap:round;stroke-linejoin:round;stroke-miterlimit:4;stroke-dasharray:none;stroke-dashoffset:0;stroke-opacity:1"
           d="m 58,285.64999 h 36 c 1.662,0 3,1.338 3,3 v 36 c 0,1.662 -1.338,3 -3,3 H 58 c -1.662,0 -3,-1.338 -3,-3 v -36 c 0,-1.662 1.338,-3 3,-3 z"
           id="rect4906-0" />
        <path
           inkscape:connector-curvature="0"
           style="opacity:1;vector-effect:none;fill:url(#linearGradient4928-8);fill-opacity:1;stroke:none;stroke-width:2;stroke-linecap:round;stroke-linejoin:round;stroke-miterlimit:4;stroke-dasharray:none;stroke-dashoffset:0;stroke-opacity:1"
           d="m 58,286.64999 h 36 c 1.108,0 2,0.892 2,2 v 36 c 0,1.108 -0.892,2 -2,2 H 58 c -1.108,0 -2,-0.892 -2,-2 v -36 c 0,-1.108 0.892,-2 2,-2 z"
           id="rect4908-3" />
      </g>
      <g
         transform="translate(-39,5)"
         id="g4904">
        <path
           style="opacity:1;vector-effect:none;fill:#cccccc;fill-opacity:1;stroke:none;stroke-width:2.30769229;stroke-linecap:round;stroke-linejoin:round;stroke-miterlimit:4;stroke-dasharray:none;stroke-dashoffset:0;stroke-opacity:1"
           d="m 37,277.64999 v 2 h -5 v 11 3 4 h 15 v 3 h -2 v -2 h -3 v 2 h -2 v -2 h -3 v 2 h -2 v -2 h -3 v 2 3 2 h 3 v -2 h 1 v 0 h 2 v 0 h 2 v 0 h 2 v 0 h 5 v 2 h -3 v 3 h 6 v -3 -12 H 35 v -2 h 15 v -12 h -8 v -2 z m -2,5 h 12 v 2 H 35 Z m 0,4 h 12 v 2 H 35 Z"
           id="rect4744-9-4"
           inkscape:connector-curvature="0"
           sodipodi:nodetypes="cccccccccccccccccccccccccccccccccccccccccccccccccccccccc" />
        <path
           style="opacity:1;vector-effect:none;fill:#666666;fill-opacity:1;stroke:none;stroke-width:2.30769229;stroke-linecap:round;stroke-linejoin:round;stroke-miterlimit:4;stroke-dasharray:none;stroke-dashoffset:0;stroke-opacity:1"
           d="m 37,276.64999 v 2 h -5 v 11 3 3 h 15 v 4 h -2 v -2 h -3 v 2 h -2 v -2 h -3 v 2 h -2 v -2 h -3 v 2 3 2 h 3 v -2 h 2 v 0 h 2 v 0 h 2 v 0 h 2 v 0 h 4 v 2 h -3 v 3 h 6 v -3 -12 H 35 v -2 h 15 v -12 h -8 v -2 z m -2,5 h 12 v 2 H 35 Z m 0,4 h 12 v 2 H 35 Z"
           id="rect4744-9-7"
           inkscape:connector-curvature="0"
           sodipodi:nodetypes="cccccccccccccccccccccccccccccccccccccccccccccccccccccccc" />
      </g>
      <g
         id="g4966"
         transform="translate(-40,4)">
        <path
           style="opacity:1;vector-effect:none;fill:#1a6cb2;fill-opacity:1;stroke:none;stroke-width:2;stroke-linecap:round;stroke-linejoin:round;stroke-miterlimit:4;stroke-dasharray:none;stroke-dashoffset:0;stroke-opacity:1"
           d="m 4,251.64999 h 36 c 1.662,0 3,1.338 3,3 v 36 c 0,1.662 -1.338,3 -3,3 H 4 c -1.662,0 -3,-1.338 -3,-3 v -36 c 0,-1.662 1.338,-3 3,-3 z"
           id="rect4906"
           inkscape:connector-curvature="0" />
        <path
           style="opacity:1;vector-effect:none;fill:url(#linearGradient4928);fill-opacity:1;stroke:none;stroke-width:2;stroke-linecap:round;stroke-linejoin:round;stroke-miterlimit:4;stroke-dasharray:none;stroke-dashoffset:0;stroke-opacity:1"
           d="m 4,252.64999 h 36 c 1.108,0 2,0.892 2,2 v 36 c 0,1.108 -0.892,2 -2,2 H 4 c -1.108,0 -2,-0.892 -2,-2 v -36 c 0,-1.108 0.892,-2 2,-2 z"
           id="rect4908"
           inkscape:connector-curvature="0" />
        <g
           id="g4706"
           transform="translate(-8.904762,-10)">
          <path
             sodipodi:nodetypes="ccccccccccccc"
             inkscape:connector-curvature="0"
             id="path1065-6"
             d="m 27,269.64999 -11,24 7,3 3,-7 h 10 l 3,7 7,-3 -11,-24 z m 4,6 4,8 h -8 z"
             style="fill:#1a6cb2;fill-opacity:1;stroke:none;stroke-width:1px;stroke-linecap:butt;stroke-linejoin:miter;stroke-opacity:1" />
          <path
             sodipodi:nodetypes="ccccccccccccc"
             inkscape:connector-curvature="0"
             id="path1065"
             d="m 27,268.64999 -11,24 7,3 3,-7 h 10 l 3,7 7,-3 -11,-24 z m 4,6 4,8 h -8 z"
             style="fill:#ffffff;fill-opacity:1;stroke:none;stroke-width:1px;stroke-linecap:butt;stroke-linejoin:miter;stroke-opacity:1" />
        </g>
      </g>
    </g>
  </g>
</svg>
