<?xml version="1.0" encoding="UTF-8" standalone="no"?>
<!-- Created with Inkscape (http://www.inkscape.org/) -->

<svg
   xmlns:dc="http://purl.org/dc/elements/1.1/"
   xmlns:cc="http://creativecommons.org/ns#"
   xmlns:rdf="http://www.w3.org/1999/02/22-rdf-syntax-ns#"
   xmlns:svg="http://www.w3.org/2000/svg"
   xmlns="http://www.w3.org/2000/svg"
   xmlns:xlink="http://www.w3.org/1999/xlink"
   xmlns:sodipodi="http://sodipodi.sourceforge.net/DTD/sodipodi-0.dtd"
   xmlns:inkscape="http://www.inkscape.org/namespaces/inkscape"
   width="64"
   height="64"
   viewBox="0 0 64 64"
   version="1.1"
   id="svg8"
   inkscape:version="0.92.2 2405546, 2018-03-11"
   sodipodi:docname="spectacle.svg">
  <title
     id="title7895">Antu icon Theme</title>
  <defs
     id="defs2">
    <linearGradient
       gradientTransform="translate(-4)"
       inkscape:collect="always"
       xlink:href="#linearGradient4902"
       id="linearGradient2808"
       x1="32"
       y1="306.64999"
       x2="32"
       y2="258.64999"
       gradientUnits="userSpaceOnUse" />
    <linearGradient
       id="linearGradient4902"
       inkscape:collect="always">
      <stop
         id="stop4898"
         offset="0"
         style="stop-color:#5563b2;stop-opacity:1" />
      <stop
         id="stop4900"
         offset="1"
         style="stop-color:#7986cb;stop-opacity:1" />
    </linearGradient>
  </defs>
  <sodipodi:namedview
     id="base"
     pagecolor="#ffffff"
     bordercolor="#666666"
     borderopacity="1.0"
     inkscape:pageopacity="0.0"
     inkscape:pageshadow="2"
     inkscape:zoom="5.6"
     inkscape:cx="-4.9041006"
     inkscape:cy="32.573541"
     inkscape:document-units="px"
     inkscape:current-layer="layer1"
     showgrid="true"
     units="px"
     inkscape:window-width="1360"
     inkscape:window-height="711"
     inkscape:window-x="0"
     inkscape:window-y="28"
     inkscape:window-maximized="1"
     objecttolerance="10"
     gridtolerance="10"
     guidetolerance="10"
     inkscape:snap-bbox="true"
     inkscape:bbox-paths="true"
     inkscape:bbox-nodes="true"
     inkscape:snap-bbox-edge-midpoints="true"
     inkscape:snap-bbox-midpoints="true"
     inkscape:object-paths="true"
     inkscape:snap-intersection-paths="true"
     inkscape:showpageshadow="false">
    <inkscape:grid
       type="xygrid"
       id="grid7897"
       empspacing="4" />
  </sodipodi:namedview>
  <metadata
     id="metadata5">
    <rdf:RDF>
      <cc:Work
         rdf:about="">
        <dc:format>image/svg+xml</dc:format>
        <dc:type
           rdf:resource="http://purl.org/dc/dcmitype/StillImage" />
        <dc:title>Antu icon Theme</dc:title>
      </cc:Work>
    </rdf:RDF>
  </metadata>
  <g
     inkscape:label="Capa 1"
     inkscape:groupmode="layer"
     id="layer1"
     transform="translate(0,-250.64999)">
    <g
       id="g4474"
       transform="translate(4)">
      <path
         inkscape:connector-curvature="0"
         style="opacity:1;vector-effect:none;fill:#4a5599;fill-opacity:1;stroke:none;stroke-width:4;stroke-linecap:round;stroke-linejoin:round;stroke-miterlimit:4;stroke-dasharray:none;stroke-dashoffset:0;stroke-opacity:1"
         d="m -1,254.64999 h 58 c 1.662,0 3,1.338 3,3 v 50 c 0,1.662 -1.338,3 -3,3 H -1 c -1.662,0 -3,-1.338 -3,-3 v -50 c 0,-1.662 1.338,-3 3,-3 z"
         id="rect2786" />
      <path
         inkscape:connector-curvature="0"
         style="opacity:1;vector-effect:none;fill:url(#linearGradient2808);fill-opacity:1;stroke:none;stroke-width:4;stroke-linecap:round;stroke-linejoin:round;stroke-miterlimit:4;stroke-dasharray:none;stroke-dashoffset:0;stroke-opacity:1"
         d="m -1,255.64999 h 58 c 1.108,0 2,0.892 2,2 v 50 c 0,1.108 -0.892,2 -2,2 H -1 c -1.108,0 -2,-0.892 -2,-2 v -50 c 0,-1.108 0.892,-2 2,-2 z"
         id="rect2788" />
      <path
         id="rect2812-9"
         d="m -1,258.64999 v 3 4 h 3 v -4 h 4 v -3 H 2 Z m 51,0 v 3 h 4 v 4 h 3 v -4 -3 h -3 z m -51,43 v 4 3 h 3 4 v -3 H 2 v -4 z m 55,0 v 4 h -4 v 3 h 4 3 v -3 -4 z"
         style="opacity:1;vector-effect:none;fill:#4a5599;fill-opacity:1;stroke:none;stroke-width:4;stroke-linecap:round;stroke-linejoin:round;stroke-miterlimit:4;stroke-dasharray:none;stroke-dashoffset:0;stroke-opacity:1"
         inkscape:connector-curvature="0" />
      <path
         id="rect2812"
         d="m -1,257.64999 v 3 4 h 3 v -4 h 4 v -3 H 2 Z m 51,0 v 3 h 4 v 4 h 3 v -4 -3 h -3 z m -51,43 v 4 3 h 3 4 v -3 H 2 v -4 z m 55,0 v 4 h -4 v 3 h 4 3 v -3 -4 z"
         style="opacity:1;vector-effect:none;fill:#ebecf4;fill-opacity:1;stroke:none;stroke-width:4;stroke-linecap:round;stroke-linejoin:round;stroke-miterlimit:4;stroke-dasharray:none;stroke-dashoffset:0;stroke-opacity:1"
         inkscape:connector-curvature="0" />
      <path
         id="path6165-9-7"
         d="m 19,271.64999 c -2.216,0 -4,1.784 -4,4 0,2.216 1.784,4 4,4 2.216,0 4,-1.784 4,-4 0,-2.216 -1.784,-4 -4,-4 z m 13.983368,11 c -0.276218,0.004 -0.538486,0.12204 -0.724609,0.32617 l -6.699219,7.36914 -3.808594,-4.35351 c -0.2011,-0.22952 -0.495985,-0.35467 -0.800781,-0.33985 -0.270747,0.0133 -0.524494,0.13596 -0.703125,0.33985 l -7,8 c -0.564875,0.64638 -0.106473,1.65725 0.751953,1.6582 h 14 14 c 0.842851,-9.1e-4 1.306666,-0.98007 0.773438,-1.63281 l -9,-11 c -0.193184,-0.23642 -0.483783,-0.37165 -0.789063,-0.36719 z"
         style="color:#000000;font-style:normal;font-variant:normal;font-weight:normal;font-stretch:normal;font-size:medium;line-height:normal;font-family:sans-serif;font-variant-ligatures:normal;font-variant-position:normal;font-variant-caps:normal;font-variant-numeric:normal;font-variant-alternates:normal;font-feature-settings:normal;text-indent:0;text-align:start;text-decoration:none;text-decoration-line:none;text-decoration-style:solid;text-decoration-color:#000000;letter-spacing:normal;word-spacing:normal;text-transform:none;writing-mode:lr-tb;direction:ltr;text-orientation:mixed;dominant-baseline:auto;baseline-shift:baseline;text-anchor:start;white-space:normal;shape-padding:0;clip-rule:nonzero;display:inline;overflow:visible;visibility:visible;opacity:1;isolation:auto;mix-blend-mode:normal;color-interpolation:sRGB;color-interpolation-filters:linearRGB;solid-color:#000000;solid-opacity:1;vector-effect:none;fill:#4a5599;fill-opacity:1;fill-rule:nonzero;stroke:none;stroke-width:2;stroke-linecap:butt;stroke-linejoin:miter;stroke-miterlimit:4;stroke-dasharray:none;stroke-dashoffset:0;stroke-opacity:1;color-rendering:auto;image-rendering:auto;shape-rendering:auto;text-rendering:auto;enable-background:accumulate"
         inkscape:connector-curvature="0"
         sodipodi:nodetypes="sssssccccccccccccc" />
      <path
         id="path6165-9"
         d="m 19.001016,270.64999 c -2.216,0 -4,1.784 -4,4 0,2.216 1.784,4 4,4 2.216,0 4.000001,-1.784 4.000001,-4 0,-2.216 -1.784001,-4 -4.000001,-4 z m 13.983369,11 c -0.276218,0.004 -0.538486,0.12204 -0.724609,0.32617 l -6.699219,7.36914 -3.808595,-4.35351 c -0.2011,-0.22952 -0.495985,-0.35467 -0.800781,-0.33985 -0.270747,0.0133 -0.524494,0.13596 -0.703125,0.33985 l -7,8 c -0.564875,0.64638 -0.106473,1.65725 0.751953,1.6582 H 28.00001 42.000009 c 0.842851,-9.1e-4 1.306666,-0.98007 0.773438,-1.63281 l -8.999999,-11 c -0.193184,-0.23642 -0.483783,-0.37165 -0.789063,-0.36719 z"
         style="color:#000000;font-style:normal;font-variant:normal;font-weight:normal;font-stretch:normal;font-size:medium;line-height:normal;font-family:sans-serif;font-variant-ligatures:normal;font-variant-position:normal;font-variant-caps:normal;font-variant-numeric:normal;font-variant-alternates:normal;font-feature-settings:normal;text-indent:0;text-align:start;text-decoration:none;text-decoration-line:none;text-decoration-style:solid;text-decoration-color:#000000;letter-spacing:normal;word-spacing:normal;text-transform:none;writing-mode:lr-tb;direction:ltr;text-orientation:mixed;dominant-baseline:auto;baseline-shift:baseline;text-anchor:start;white-space:normal;shape-padding:0;clip-rule:nonzero;display:inline;overflow:visible;visibility:visible;opacity:1;isolation:auto;mix-blend-mode:normal;color-interpolation:sRGB;color-interpolation-filters:linearRGB;solid-color:#000000;solid-opacity:1;vector-effect:none;fill:#ebecf4;fill-opacity:1;fill-rule:nonzero;stroke:none;stroke-width:2;stroke-linecap:butt;stroke-linejoin:miter;stroke-miterlimit:4;stroke-dasharray:none;stroke-dashoffset:0;stroke-opacity:1;color-rendering:auto;image-rendering:auto;shape-rendering:auto;text-rendering:auto;enable-background:accumulate"
         inkscape:connector-curvature="0"
         sodipodi:nodetypes="sssssccccccccccccc" />
    </g>
  </g>
</svg>
