<?xml version="1.0" encoding="UTF-8" standalone="no"?>
<!-- Created with Inkscape (http://www.inkscape.org/) -->

<svg
   xmlns:dc="http://purl.org/dc/elements/1.1/"
   xmlns:cc="http://creativecommons.org/ns#"
   xmlns:rdf="http://www.w3.org/1999/02/22-rdf-syntax-ns#"
   xmlns:svg="http://www.w3.org/2000/svg"
   xmlns="http://www.w3.org/2000/svg"
   xmlns:xlink="http://www.w3.org/1999/xlink"
   xmlns:sodipodi="http://sodipodi.sourceforge.net/DTD/sodipodi-0.dtd"
   xmlns:inkscape="http://www.inkscape.org/namespaces/inkscape"
   width="64"
   height="64"
   viewBox="0 0 16.933333 16.933333"
   version="1.1"
   id="svg8"
   inkscape:version="0.92.3 (2405546, 2018-03-11)"
   sodipodi:docname="sublime-text.svg">
  <defs
     id="defs2">
    <linearGradient
       id="linearGradient869"
       inkscape:collect="always">
      <stop
         id="stop865"
         offset="0"
         style="stop-color:#3f4a59;stop-opacity:1" />
      <stop
         id="stop867"
         offset="1"
         style="stop-color:#4c5a6b;stop-opacity:1" />
    </linearGradient>
    <linearGradient
       gradientTransform="matrix(0.26458333,0,0,0.26458333,-26.9875,214.01343)"
       inkscape:collect="always"
       xlink:href="#linearGradient833"
       id="linearGradient3415"
       x1="110"
       y1="289.64999"
       x2="110"
       y2="266.64999"
       gradientUnits="userSpaceOnUse" />
    <linearGradient
       gradientTransform="matrix(0.26458333,0,0,0.26458333,-26.9875,214.01343)"
       inkscape:collect="always"
       xlink:href="#linearGradient833"
       id="linearGradient3413"
       x1="99"
       y1="304.64999"
       x2="99"
       y2="290.64999"
       gradientUnits="userSpaceOnUse" />
    <linearGradient
       inkscape:collect="always"
       xlink:href="#linearGradient869"
       id="linearGradient3405"
       x1="30"
       y1="312.02499"
       x2="30"
       y2="253.64999"
       gradientUnits="userSpaceOnUse"
       gradientTransform="matrix(0.26458333,0,0,0.26458333,-6.3499999,214.27802)" />
    <linearGradient
       inkscape:collect="always"
       id="linearGradient833">
      <stop
         style="stop-color:#ff8b60;stop-opacity:1"
         offset="0"
         id="stop829" />
      <stop
         style="stop-color:#ffab8b;stop-opacity:1"
         offset="1"
         id="stop831" />
    </linearGradient>
  </defs>
  <sodipodi:namedview
     id="base"
     pagecolor="#ffffff"
     bordercolor="#666666"
     borderopacity="1.0"
     inkscape:pageopacity="0.0"
     inkscape:pageshadow="2"
     inkscape:zoom="11.2"
     inkscape:cx="-5.2262837"
     inkscape:cy="25.37106"
     inkscape:document-units="px"
     inkscape:current-layer="layer1"
     showgrid="true"
     units="px"
     inkscape:showpageshadow="false"
     inkscape:snap-bbox="true"
     inkscape:bbox-paths="true"
     inkscape:bbox-nodes="true"
     inkscape:snap-bbox-edge-midpoints="true"
     inkscape:snap-bbox-midpoints="true"
     inkscape:object-paths="true"
     inkscape:snap-intersection-paths="true"
     inkscape:window-width="1874"
     inkscape:window-height="1141"
     inkscape:window-x="46"
     inkscape:window-y="30"
     inkscape:window-maximized="1">
    <inkscape:grid
       type="xygrid"
       id="grid815" />
  </sodipodi:namedview>
  <metadata
     id="metadata5">
    <rdf:RDF>
      <cc:Work
         rdf:about="">
        <dc:format>image/svg+xml</dc:format>
        <dc:type
           rdf:resource="http://purl.org/dc/dcmitype/StillImage" />
        <dc:title />
      </cc:Work>
    </rdf:RDF>
  </metadata>
  <g
     inkscape:label="Capa 1"
     inkscape:groupmode="layer"
     id="layer1"
     transform="translate(0,-280.06666)">
    <g
       id="g5502"
       transform="translate(6.3500002,-0.5291685)">
      <path
         inkscape:connector-curvature="0"
         style="opacity:1;vector-effect:none;fill:#242a33;fill-opacity:1;stroke:none;stroke-width:0.60573131;stroke-linecap:round;stroke-linejoin:round;stroke-miterlimit:4;stroke-dasharray:none;stroke-dashoffset:0;stroke-opacity:1"
         d="M -5.0270832,280.86041 H 9.2604165 c 0.586317,0 1.0583325,0.47202 1.0583325,1.05833 v 14.2875 c 0,0.58632 -0.4720155,1.05834 -1.0583325,1.05834 H -5.0270832 c -0.5863167,0 -1.0583333,-0.47202 -1.0583333,-1.05834 v -14.2875 c 0,-0.58631 0.4720166,-1.05833 1.0583333,-1.05833 z"
         id="rect863" />
      <path
         inkscape:connector-curvature="0"
         style="opacity:1;vector-effect:none;fill:url(#linearGradient3405);fill-opacity:1;stroke:none;stroke-width:0.58619159;stroke-linecap:round;stroke-linejoin:round;stroke-miterlimit:4;stroke-dasharray:none;stroke-dashoffset:0;stroke-opacity:1"
         d="M -5.0270832,281.12499 H 9.2604165 c 0.439738,0 0.7937495,0.35402 0.7937495,0.79375 v 14.2875 c 0,0.43974 -0.3540115,0.79375 -0.7937495,0.79375 H -5.0270832 c -0.4397375,0 -0.79375,-0.35401 -0.79375,-0.79375 v -14.2875 c 0,-0.43973 0.3540125,-0.79375 0.79375,-0.79375 z"
         id="rect863-9" />
      <path
         id="path2655"
         d="m 3.7021002,287.47499 a 0.26460979,0.26460979 0 0 0 -0.1390094,0.0408 c -0.049086,0.031 -0.054261,0.0398 -0.084233,0.0651 -0.029972,0.0254 -0.067588,0.058 -0.1126543,0.0977 -0.090136,0.0794 -0.2098913,0.18678 -0.3498506,0.31316 -0.279916,0.25274 -0.6400271,0.58119 -0.9958044,0.90692 -0.6919277,0.63349 -1.33059225,1.22234 -1.36735875,1.25625 l -2.86029045,1.04025 a 0.26460979,0.26460979 0 0 0 -0.1741495,0.24856 v 3.70417 a 0.26460979,0.26460979 0 0 0 0.3503663,0.25011 l 8.4666674,-2.9104 a 0.26460979,0.26460979 0 0 0 0.1788,-0.25012 v -3.70416 a 0.26460979,0.26460979 0 0 0 -0.188619,-0.25373 l -2.6458333,-0.79375 a 0.26460979,0.26460979 0 0 0 -0.078031,-0.0109 z"
         style="color:#000000;font-style:normal;font-variant:normal;font-weight:normal;font-stretch:normal;font-size:medium;line-height:normal;font-family:sans-serif;font-variant-ligatures:normal;font-variant-position:normal;font-variant-caps:normal;font-variant-numeric:normal;font-variant-alternates:normal;font-feature-settings:normal;text-indent:0;text-align:start;text-decoration:none;text-decoration-line:none;text-decoration-style:solid;text-decoration-color:#000000;letter-spacing:normal;word-spacing:normal;text-transform:none;writing-mode:lr-tb;direction:ltr;text-orientation:mixed;dominant-baseline:auto;baseline-shift:baseline;text-anchor:start;white-space:normal;shape-padding:0;clip-rule:nonzero;display:inline;overflow:visible;visibility:visible;opacity:1;isolation:auto;mix-blend-mode:normal;color-interpolation:sRGB;color-interpolation-filters:linearRGB;solid-color:#000000;solid-opacity:1;vector-effect:none;fill:#ff6f47;fill-opacity:1;fill-rule:nonzero;stroke:none;stroke-width:0.52916664;stroke-linecap:round;stroke-linejoin:round;stroke-miterlimit:4;stroke-dasharray:none;stroke-dashoffset:0;stroke-opacity:1;color-rendering:auto;image-rendering:auto;shape-rendering:auto;text-rendering:auto;enable-background:accumulate"
         inkscape:connector-curvature="0" />
      <path
         sodipodi:nodetypes="ccccccc"
         inkscape:connector-curvature="0"
         id="path2607-6-2"
         d="m 6.3499995,292.2375 v -3.70417 l -2.6458329,-0.79375 c -0.1321514,0.0834 -2.91041665,2.64583 -2.91041665,2.64583 l -2.91041655,1.05834 v 3.70416 z"
         style="fill:url(#linearGradient3413);fill-opacity:1.0;stroke:none;stroke-width:0.52916664;stroke-linecap:round;stroke-linejoin:round;stroke-miterlimit:4;stroke-dasharray:none;stroke-opacity:1" />
      <path
         id="path2650"
         d="m 6.3422475,282.97708 a 0.26460979,0.26460979 0 0 0 -0.07803,0.0145 l -8.466666,2.91041 a 0.26460979,0.26460979 0 0 0 -0.1788004,0.25012 v 3.175 a 0.26460979,0.26460979 0 0 0 0.1788004,0.25011 l 8.466666,2.91042 a 0.26460979,0.26460979 0 0 0 0.350366,-0.25015 v -3.70416 a 0.26460979,0.26460979 0 0 0 -0.188619,-0.25373 l -1.800924,-0.54054 1.800924,-0.54002 a 0.26460979,0.26460979 0 0 0 0.188619,-0.25321 v -3.70417 a 0.26460979,0.26460979 0 0 0 -0.272336,-0.26458 z"
         style="color:#000000;font-style:normal;font-variant:normal;font-weight:normal;font-stretch:normal;font-size:medium;line-height:normal;font-family:sans-serif;font-variant-ligatures:normal;font-variant-position:normal;font-variant-caps:normal;font-variant-numeric:normal;font-variant-alternates:normal;font-feature-settings:normal;text-indent:0;text-align:start;text-decoration:none;text-decoration-line:none;text-decoration-style:solid;text-decoration-color:#000000;letter-spacing:normal;word-spacing:normal;text-transform:none;writing-mode:lr-tb;direction:ltr;text-orientation:mixed;dominant-baseline:auto;baseline-shift:baseline;text-anchor:start;white-space:normal;shape-padding:0;clip-rule:nonzero;display:inline;overflow:visible;visibility:visible;opacity:1;isolation:auto;mix-blend-mode:normal;color-interpolation:sRGB;color-interpolation-filters:linearRGB;solid-color:#000000;solid-opacity:1;vector-effect:none;fill:#ff6f47;fill-opacity:1;fill-rule:nonzero;stroke:none;stroke-width:0.52916664;stroke-linecap:round;stroke-linejoin:round;stroke-miterlimit:4;stroke-dasharray:none;stroke-dashoffset:0;stroke-opacity:1;color-rendering:auto;image-rendering:auto;shape-rendering:auto;text-rendering:auto;enable-background:accumulate"
         inkscape:connector-curvature="0" />
      <path
         inkscape:connector-curvature="0"
         id="path2607-3"
         d="m -2.1166666,286.15208 v 3.175 l 8.4666661,2.91042 v -3.70417 l -2.6458329,-0.79375 2.6458329,-0.79375 v -3.70417 z"
         style="fill:url(#linearGradient3415);fill-opacity:1.0;stroke:none;stroke-width:0.52916664;stroke-linecap:round;stroke-linejoin:round;stroke-miterlimit:4;stroke-dasharray:none;stroke-opacity:1" />
    </g>
  </g>
</svg>
