<?xml version="1.0" encoding="UTF-8" standalone="no"?>
<!-- Created with Inkscape (http://www.inkscape.org/) -->

<svg
   xmlns:dc="http://purl.org/dc/elements/1.1/"
   xmlns:cc="http://creativecommons.org/ns#"
   xmlns:rdf="http://www.w3.org/1999/02/22-rdf-syntax-ns#"
   xmlns:svg="http://www.w3.org/2000/svg"
   xmlns="http://www.w3.org/2000/svg"
   xmlns:xlink="http://www.w3.org/1999/xlink"
   xmlns:sodipodi="http://sodipodi.sourceforge.net/DTD/sodipodi-0.dtd"
   xmlns:inkscape="http://www.inkscape.org/namespaces/inkscape"
   width="64"
   height="64"
   viewBox="0 0 64 64"
   version="1.1"
   id="svg8"
   inkscape:version="0.92.2 2405546, 2018-03-11"
   sodipodi:docname="system-software-update.svg">
  <title
     id="title7895">Antu icon Theme</title>
  <defs
     id="defs2">
    <linearGradient
       inkscape:collect="always"
       id="linearGradient957">
      <stop
         style="stop-color:#04adfd;stop-opacity:1"
         offset="0"
         id="stop953" />
      <stop
         style="stop-color:#146ccc;stop-opacity:1"
         offset="1"
         id="stop955" />
    </linearGradient>
    <linearGradient
       inkscape:collect="always"
       xlink:href="#linearGradient957"
       id="linearGradient1237"
       x1="32"
       y1="40"
       x2="32"
       y2="25"
       gradientUnits="userSpaceOnUse"
       gradientTransform="translate(-39.999999,254.65001)" />
    <linearGradient
       gradientUnits="userSpaceOnUse"
       y2="245.47353"
       x2="-11.999999"
       y1="286.64999"
       x1="-11.999997"
       id="linearGradient4583"
       xlink:href="#linearGradient4582"
       inkscape:collect="always"
       gradientTransform="matrix(0.70833331,0,0,0.70833331,0.499999,97.77291)" />
    <linearGradient
       id="linearGradient4582"
       inkscape:collect="always">
      <stop
         id="stop4578"
         offset="0"
         style="stop-color:#cee3e3;stop-opacity:1" />
      <stop
         id="stop4580"
         offset="1"
         style="stop-color:#fcfcfc;stop-opacity:1" />
    </linearGradient>
    <linearGradient
       id="linearGradient4565"
       inkscape:collect="always">
      <stop
         id="stop4561"
         offset="0"
         style="stop-color:#1780f2;stop-opacity:1" />
      <stop
         id="stop4563"
         offset="1"
         style="stop-color:#02b3fe;stop-opacity:1" />
    </linearGradient>
    <linearGradient
       gradientTransform="matrix(0.32406341,0,0,0.32406341,-749.45133,1915.1295)"
       gradientUnits="userSpaceOnUse"
       y2="-5114.2363"
       x2="2102.8335"
       y1="-4960.8271"
       x1="2102.8335"
       id="linearGradient4836-7-0-5"
       xlink:href="#linearGradient4565"
       inkscape:collect="always" />
  </defs>
  <sodipodi:namedview
     id="base"
     pagecolor="#ffffff"
     bordercolor="#666666"
     borderopacity="1.0"
     inkscape:pageopacity="0.0"
     inkscape:pageshadow="2"
     inkscape:zoom="5.6568542"
     inkscape:cx="34.813858"
     inkscape:cy="28.418556"
     inkscape:document-units="px"
     inkscape:current-layer="g1880"
     showgrid="false"
     units="px"
     inkscape:window-width="1360"
     inkscape:window-height="711"
     inkscape:window-x="0"
     inkscape:window-y="28"
     inkscape:window-maximized="1"
     objecttolerance="10"
     gridtolerance="10"
     guidetolerance="10"
     inkscape:snap-bbox="true"
     inkscape:bbox-paths="true"
     inkscape:bbox-nodes="true"
     inkscape:snap-bbox-edge-midpoints="true"
     inkscape:snap-bbox-midpoints="true"
     inkscape:object-paths="true"
     inkscape:snap-intersection-paths="true"
     inkscape:showpageshadow="false">
    <inkscape:grid
       type="xygrid"
       id="grid7897"
       empspacing="4" />
  </sodipodi:namedview>
  <metadata
     id="metadata5">
    <rdf:RDF>
      <cc:Work
         rdf:about="">
        <dc:format>image/svg+xml</dc:format>
        <dc:type
           rdf:resource="http://purl.org/dc/dcmitype/StillImage" />
        <dc:title>Antu icon Theme</dc:title>
      </cc:Work>
    </rdf:RDF>
  </metadata>
  <g
     inkscape:label="Capa 1"
     inkscape:groupmode="layer"
     id="layer1"
     transform="translate(0,-250.64999)">
    <g
       id="layer1-2"
       inkscape:label="Capa 1">
      <g
         transform="translate(100)"
         id="g841">
        <path
           inkscape:connector-curvature="0"
           style="opacity:1;fill:#1570da;fill-opacity:0.98823529;stroke:none;stroke-width:0.42857137;stroke-miterlimit:4;stroke-dasharray:none;stroke-opacity:1"
           d="m -68,252.64999 c -2.0775,0 -4.104102,0.2091 -6.060547,0.60742 -0.489111,0.0996 -0.97508,0.21106 -1.455078,0.33399 -2.879308,0.73758 -5.589089,1.89083 -8.0625,3.39062 -0.412322,0.25002 -0.819873,0.50831 -1.21875,0.77734 C -92.77367,263.14015 -98,272.26306 -98,282.64999 c 0,6.23248 1.880976,12.0084 5.109375,16.79492 3.06e-4,4.6e-4 -3.06e-4,0.002 0,0.002 1.88308,2.7916 4.226658,5.24612 6.919922,7.25781 0.384812,0.28743 0.774951,0.56691 1.173828,0.83594 2.393611,1.61462 5.035306,2.89152 7.857422,3.76563 0.470266,0.14565 0.94383,0.27941 1.423828,0.40234 2.40054,0.6149 4.918091,0.94136 7.515625,0.94136 10.386906,0 19.509838,-5.22633 24.890625,-13.20313 3.06e-4,-4.5e-4 -3.06e-4,-0.002 0,-0.002 C -39.880972,294.65839 -38,288.88247 -38,282.64999 c 0,-10.38693 -5.226328,-19.50984 -13.203125,-24.89063 -4.54e-4,-3e-4 -0.0015,3.1e-4 -0.002,0 -2.791633,-1.88289 -5.920006,-3.30742 -9.279297,-4.16796 -6.12e-4,-1.6e-4 -0.0013,1.5e-4 -0.002,0 -2.399895,-0.61464 -4.916708,-0.94141 -7.513578,-0.94141 z"
           id="rect4544-5-5-7-9" />
        <path
           inkscape:connector-curvature="0"
           id="rect4544-5-5-6-1"
           d="m -68.000019,253.65001 h 3.2e-5 c 16.065993,0 28.999988,12.93399 28.999988,28.99998 0,16.06602 -12.933995,28.99999 -28.999988,28.99999 h -3.2e-5 C -84.066012,311.64998 -97,298.71601 -97,282.64999 c 0,-16.06599 12.933988,-28.99998 28.999981,-28.99998 z"
           style="opacity:1;fill:url(#linearGradient4836-7-0-5);fill-opacity:1;stroke:none;stroke-width:0.4142856;stroke-miterlimit:4;stroke-dasharray:none;stroke-opacity:1" />
        <path
           inkscape:connector-curvature="0"
           style="opacity:1;vector-effect:none;fill:#d7f0fe;fill-opacity:1;stroke:none;stroke-width:1;stroke-linecap:round;stroke-linejoin:round;stroke-miterlimit:4;stroke-dasharray:none;stroke-dashoffset:0;stroke-opacity:1"
           d="m -65.798828,253.87069 c -0.455469,-0.0345 -0.894229,-0.12331 -1.355469,-0.13672 -1.650418,1.37455 -3.417098,2.723 -4.777344,4.16211 -0.324721,-0.15369 -0.683984,-0.24609 -1.068359,-0.24609 -1.385,0 -2.5,1.115 -2.5,2.5 0,0.53041 0.165713,1.02008 0.445312,1.42383 -2.52354,3.31354 -4.37442,6.73502 -5.636718,10.17773 -0.260473,-0.0614 -0.52883,-0.10156 -0.808594,-0.10156 -1.161322,0 -2.178483,0.56784 -2.814453,1.43359 -2.684599,-1.28564 -5.518191,-3.1415 -8.441406,-5.38672 -0.173428,0.28733 -0.316848,0.59295 -0.480469,0.88672 2.912333,2.22188 5.751187,4.07804 8.457031,5.37305 C -84.914666,274.33025 -85,274.7285 -85,275.14999 c 0,1.60532 1.076316,2.93772 2.544922,3.35352 -0.437458,2.81337 -0.524423,5.60109 -0.291016,8.31445 0.123686,1.43785 0.335799,2.85535 0.625,4.24414 -3.46911,1.60825 -6.954201,4.028 -10.421875,6.93164 0.177985,0.28489 0.292968,0.61059 0.480469,0.88867 3.396551,-2.86667 6.800653,-5.24352 10.175781,-6.83008 0.90885,3.8238 2.422237,7.41279 4.371094,10.62696 C -77.816833,303.0922 -78,303.59751 -78,304.14999 c 0,1.385 1.115,2.5 2.5,2.5 0.237236,0 0.462541,-0.0423 0.679688,-0.10352 1.498434,1.86905 3.195155,3.46903 4.972656,4.91797 0.622941,0.0396 1.214382,0.18555 1.847656,0.18555 0.02876,0 0.05524,-0.008 0.08398,-0.008 -2.155845,-1.56947 -4.211996,-3.37558 -5.99414,-5.57422 0.552413,-0.45766 0.91016,-1.14098 0.91016,-1.91778 0,-1.385 -1.115,-2.5 -2.5,-2.5 -0.459065,0 -0.882984,0.13148 -1.251953,0.3457 -1.879979,-3.13589 -3.33828,-6.63475 -4.205078,-10.35742 4.065486,-1.78187 8.078193,-2.70238 11.966797,-2.89258 0.05145,1.61621 1.361086,2.9043 2.990234,2.9043 1.532008,0 2.775688,-1.14152 2.962891,-2.62109 2.953404,0.4272 5.808236,1.26679 8.52539,2.45703 -1.684712,5.19828 -1.597498,11.04755 0.15625,16.62695 0.29805,-0.15957 0.598982,-0.31285 0.890625,-0.48242 -1.623024,-5.29312 -1.694669,-10.82426 -0.130859,-15.73242 3.55763,1.68076 6.76529,4.10189 9.734375,6.84375 0.188104,-0.28232 0.307993,-0.6092 0.486328,-0.89844 -3.020395,-2.75736 -6.277802,-5.20304 -9.900391,-6.90039 0.150803,-0.41207 0.313236,-0.81945 0.486329,-1.2207 0.338053,-0.78368 0.72343,-1.54218 1.146484,-2.27735 0.359567,0.12412 0.739782,0.20508 1.142578,0.20508 0.561254,0 1.083512,-0.14211 1.552734,-0.375 2.204725,2.12971 5.057856,3.77256 8.167969,5.0918 0.111611,-0.31406 0.1939,-0.63999 0.294922,-0.95899 -2.9086,-1.2457 -5.564879,-2.77108 -7.619141,-4.71484 0.676401,-0.6374 1.103516,-1.53592 1.103516,-2.54297 0,-0.67696 -0.199097,-1.30147 -0.529297,-1.83594 2.169537,-1.97375 4.95151,-3.35532 8.060547,-4.32617 -0.05333,-0.33052 -0.03529,-0.68315 -0.09961,-1.00977 -3.314079,1.00749 -6.277213,2.47823 -8.595703,4.57813 -0.619654,-0.55808 -1.432515,-0.90625 -2.335937,-0.90625 -0.569418,0 -1.098005,0.14744 -1.572266,0.38672 -0.05989,-0.14829 -0.12501,-0.29464 -0.179687,-0.44531 -1.499914,-4.13326 -1.139316,-9.1817 2.068359,-15.14649 0.912298,-1.17483 1.610654,-2.39802 2.357422,-3.61133 -0.240904,-0.23344 -0.528431,-0.41367 -0.777344,-0.63867 -0.847519,1.23233 -1.750314,2.47918 -2.386718,3.6543 -3.453585,4.43427 -8.099454,8.36104 -13.789063,10.19922 -3.915515,1.26501 -8.342565,1.5376 -13.242187,0.32617 0.0048,-0.0757 0.02148,-0.14764 0.02148,-0.22461 0,-1.30845 -0.719208,-2.43253 -1.777344,-3.0332 1.215384,-3.32822 3.001907,-6.63877 5.44336,-9.85547 0.386063,0.24369 0.841808,0.38867 1.333984,0.38867 1.385,0 2.5,-1.115 2.5,-2.5 0,-0.63633 -0.242081,-1.21 -0.630859,-1.65039 1.518906,-1.59625 3.440715,-3.10993 5.332031,-4.62891 z m 13.214844,14.37696 c -1.87506,4.80747 -1.923563,9.05871 -0.607422,12.68554 0.08464,0.23324 0.181687,0.45989 0.277344,0.6875 -0.666953,0.63654 -1.085938,1.53028 -1.085938,2.5293 0,1.17378 0.57735,2.20358 1.458984,2.83789 -0.43264,0.75604 -0.821832,1.53743 -1.167968,2.33984 -0.171362,0.39725 -0.330099,0.80003 -0.480469,1.20704 -2.82513,-1.22962 -5.79816,-2.08935 -8.878906,-2.51758 -0.289541,-1.35535 -1.487399,-2.36719 -2.931641,-2.36719 -1.343625,0 -2.463325,0.88056 -2.847656,2.09375 -4.014411,0.17483 -8.15241,1.10109 -12.332032,2.9082 -0.260474,-1.28485 -0.456179,-2.59117 -0.570312,-3.91797 -0.226978,-2.63861 -0.149972,-5.35 0.271484,-8.08593 1.510068,-0.009 2.776336,-0.96889 3.259766,-2.31055 5.06229,1.24502 9.670456,0.97948 13.748047,-0.33789 4.693426,-1.51634 8.671983,-4.36923 11.886719,-7.75195 z"
           id="path1621-2" />
      </g>
    </g>
    <g
       id="g1880"
       transform="translate(40,-4)">
      <path
         id="path1052-7"
         d="m -8,268.64999 c -9.972,0 -18,8.028 -18,18 0,9.97198 8.028,18 18,18 9.972,0 18,-8.02802 18,-18 0,-9.972 -8.028,-18 -18,-18 z"
         style="opacity:1;fill:#1470db;fill-opacity:0.98823529;stroke:none;stroke-width:1.38873017;stroke-linecap:round;stroke-linejoin:round;stroke-miterlimit:4;stroke-dasharray:none;stroke-opacity:1"
         inkscape:connector-curvature="0" />
      <path
         inkscape:connector-curvature="0"
         style="opacity:1;fill:url(#linearGradient4583);fill-opacity:1;stroke:none;stroke-width:1.31157851;stroke-linecap:round;stroke-linejoin:round;stroke-miterlimit:4;stroke-dasharray:none;stroke-opacity:1"
         d="m -8,269.64999 c -9.418,0 -17,7.582 -17,17 0,9.41798 7.582,17 17,17 9.417999,0 16.999999,-7.58202 16.999999,-17 0,-9.418 -7.582,-17 -16.999999,-17 z"
         id="path1052" />
      <path
         inkscape:connector-curvature="0"
         id="rect1224"
         d="m -7.990234,276.65001 c -0.311688,-0.003 -0.607064,0.13903 -0.798828,0.38477 l -7,9 c -0.512433,0.6569 -0.04407,1.61565 0.789062,1.61523 h 4 v 6 c 0,1.662 1.338,3 3,3 1.662,0 3,-1.338 3,-3 v -6 h 4 c 0.83313,4.2e-4 1.301494,-0.95833 0.789062,-1.61523 l -7,-9 c -0.187547,-0.24032 -0.474465,-0.38199 -0.779296,-0.38477 z"
         style="opacity:0.98999999;vector-effect:none;fill:url(#linearGradient1237);fill-opacity:1.0;stroke:none;stroke-width:2;stroke-linecap:round;stroke-linejoin:round;stroke-miterlimit:4;stroke-dasharray:none;stroke-dashoffset:0;stroke-opacity:1" />
    </g>
  </g>
</svg>
