<?xml version="1.0" encoding="UTF-8" standalone="no"?>
<!-- Created with Inkscape (http://www.inkscape.org/) -->

<svg
   xmlns:dc="http://purl.org/dc/elements/1.1/"
   xmlns:cc="http://creativecommons.org/ns#"
   xmlns:rdf="http://www.w3.org/1999/02/22-rdf-syntax-ns#"
   xmlns:svg="http://www.w3.org/2000/svg"
   xmlns="http://www.w3.org/2000/svg"
   xmlns:xlink="http://www.w3.org/1999/xlink"
   xmlns:sodipodi="http://sodipodi.sourceforge.net/DTD/sodipodi-0.dtd"
   xmlns:inkscape="http://www.inkscape.org/namespaces/inkscape"
   width="64"
   height="64"
   viewBox="0 0 64 64"
   version="1.1"
   id="svg8"
   inkscape:version="0.92.2 5c3e80d, 2017-08-06"
   sodipodi:docname="system-file-manager.svg">
  <title
     id="title7895">Antu icon Theme</title>
  <defs
     id="defs2">
    <linearGradient
       y2="34.047237"
       x2="32"
       y1="48"
       x1="32"
       gradientUnits="userSpaceOnUse"
       id="linearGradient6058"
       xlink:href="#d-8-2"
       inkscape:collect="always"
       gradientTransform="translate(-35.999998,250.65)" />
    <linearGradient
       y2="517.62"
       y1="545.62"
       x2="0"
       gradientUnits="userSpaceOnUse"
       id="d-8-2">
      <stop
         id="stop9-5-9"
         stop-color="#e3e3e3"
         offset="0" />
      <stop
         id="stop11-8-1"
         stop-color="#fcf9f9"
         offset="1" />
    </linearGradient>
    <linearGradient
       gradientUnits="userSpaceOnUse"
       y2="281.37042"
       x2="-3.7241442"
       y1="285.07458"
       x1="-3.7241442"
       id="linearGradient8212"
       xlink:href="#d-8-2"
       inkscape:collect="always"
       gradientTransform="matrix(3.7795275,0,0,3.7795275,-8.924491,-807.79743)" />
    <linearGradient
       y2="517.62"
       y1="545.62"
       x2="0"
       gradientUnits="userSpaceOnUse"
       id="linearGradient2440">
      <stop
         id="stop2436"
         stop-color="#e3e3e3"
         offset="0" />
      <stop
         id="stop2438"
         stop-color="#fcf9f9"
         offset="1" />
    </linearGradient>
    <linearGradient
       gradientUnits="userSpaceOnUse"
       y2="283.2225"
       x2="2.096689"
       y1="295.65793"
       x1="2.096689"
       id="linearGradient8204"
       xlink:href="#linearGradient5837-3-1-6-3-9-6"
       inkscape:collect="always"
       gradientTransform="matrix(3.7795275,0,0,3.7795275,-8.924491,-807.79743)" />
    <linearGradient
       id="linearGradient5837-3-1-6-3-9-6"
       gradientUnits="userSpaceOnUse"
       y1="545.14001"
       x2="0"
       y2="518.14001">
      <stop
         style="stop-color:#0d89fc;stop-opacity:1"
         stop-color="#197ff1"
         id="stop5833-6-2-3-1-0" />
      <stop
         style="stop-color:#02bdff;stop-opacity:1"
         offset="1"
         stop-color="#21c6fb"
         id="stop5835-7-5-6-3-2-6" />
    </linearGradient>
  </defs>
  <sodipodi:namedview
     id="base"
     pagecolor="#ffffff"
     bordercolor="#666666"
     borderopacity="1.0"
     inkscape:pageopacity="0.0"
     inkscape:pageshadow="2"
     inkscape:zoom="3.959798"
     inkscape:cx="21.423188"
     inkscape:cy="10.681498"
     inkscape:document-units="px"
     inkscape:current-layer="layer1"
     showgrid="true"
     units="px"
     inkscape:window-width="1366"
     inkscape:window-height="697"
     inkscape:window-x="0"
     inkscape:window-y="0"
     inkscape:window-maximized="1"
     objecttolerance="10"
     gridtolerance="10"
     guidetolerance="10">
    <inkscape:grid
       type="xygrid"
       id="grid7897"
       empspacing="4" />
  </sodipodi:namedview>
  <metadata
     id="metadata5">
    <rdf:RDF>
      <cc:Work
         rdf:about="">
        <dc:format>image/svg+xml</dc:format>
        <dc:type
           rdf:resource="http://purl.org/dc/dcmitype/StillImage" />
        <dc:title>Antu icon Theme</dc:title>
      </cc:Work>
    </rdf:RDF>
  </metadata>
  <g
     inkscape:label="Capa 1"
     inkscape:groupmode="layer"
     id="layer1"
     transform="translate(0,-250.64999)">
    <g
       id="g3067"
       transform="translate(35.999997,5e-6)">
      <path
         sodipodi:nodetypes="sccssssssss"
         inkscape:connector-curvature="0"
         id="rect9319-4"
         d="m -32.99999,254.64996 21.999988,8e-5 5.000012,6.99999 h 30.999985 c 1.66201,0 3,1.33799 3,3 v 9 c 0,1.66201 -1.33799,3 -3,3 H -32.99999 c -1.662009,0 -3,-1.33799 -3,-3 v -16.00004 c 0,-1.66202 1.337991,-3 3,-3.00003 z"
         style="opacity:1;fill:#636e8c;fill-opacity:1;stroke:none;stroke-width:0.99999994;stroke-opacity:1" />
      <path
         sodipodi:nodetypes="scccssss"
         inkscape:connector-curvature="0"
         id="rect9322-9"
         d="m -33.000028,255.65 21.000038,3e-5 6.999987,9.99998 -5.000012,7.00002 h -23.000013 c -1.108006,0 -2.000012,-0.892 -2.000012,-2 v -13.00004 c 0,-1.10798 0.892006,-1.99997 2.000012,-1.99999 z"
         style="opacity:1;fill:url(#linearGradient8212);fill-opacity:1;stroke:none;stroke-width:0.99999994;stroke-opacity:1" />
      <path
         sodipodi:nodetypes="sccssssssss"
         inkscape:connector-curvature="0"
         id="rect9313-2"
         d="m -32.99999,269.64996 21,7e-5 4.999975,-8.00008 h 32.00001 c 1.66201,0 3,1.33799 3,3 v 43.00006 c 0,1.66201 -1.33799,3 -3,3 H -32.99999 c -1.662009,0 -3,-1.33799 -3,-3 v -35.00005 c 0,-1.66201 1.337991,-3 3,-3 z"
         style="opacity:1;fill:#1466b2;fill-opacity:1;stroke:none;stroke-width:0.99999994;stroke-opacity:1" />
      <path
         sodipodi:nodetypes="sccssssssss"
         inkscape:connector-curvature="0"
         id="rect9315-0"
         d="m -33.000028,270.64999 22.000026,4e-5 5.000012,-8.00002 30.999985,-4e-5 c 1.108006,0 2.000013,0.89201 2.000013,2.00001 v 43.00003 c 0,1.10801 -0.892007,2.00001 -2.000013,2.00001 h -58.000023 c -1.108006,0 -2.000012,-0.892 -2.000012,-2.00001 V 272.65 c 0,-1.10801 0.892006,-2.00002 2.000012,-2.00001 z"
         style="opacity:1;fill:url(#linearGradient8204);fill-opacity:1;stroke:none;stroke-width:0.99999994;stroke-opacity:1" />
      <path
         id="path6023-9"
         d="m -4.023436,277.64999 a 1.0001,1.0001 0 0 0 -0.71289,0.32423 l -11,12 a 1.0001,1.0001 0 0 0 0.736328,1.67577 h 2 v 9 c 0,0.554 0.446,1 1,1 h 15 c 0.554,0 1,-0.446 1,-1 v -9 h 2 A 1.0001,1.0001 0 0 0 6.76758,290.00936 L 4.96094,287.8414 C 4.97372,287.7773 5,287.71791 5,287.64999 v -5 c 0,-0.55399 -0.446,-1 -1,-1 H 3 c -0.554,0 -1,0.44601 -1,1 v 1.63867 l -5.23242,-6.2793 a 1.0001,1.0001 0 0 0 -0.791016,-0.35937 z"
         style="color:#000000;font-style:normal;font-variant:normal;font-weight:normal;font-stretch:normal;font-size:medium;line-height:normal;font-family:sans-serif;font-variant-ligatures:normal;font-variant-position:normal;font-variant-caps:normal;font-variant-numeric:normal;font-variant-alternates:normal;font-feature-settings:normal;text-indent:0;text-align:start;text-decoration:none;text-decoration-line:none;text-decoration-style:solid;text-decoration-color:#000000;letter-spacing:normal;word-spacing:normal;text-transform:none;writing-mode:lr-tb;direction:ltr;text-orientation:mixed;dominant-baseline:auto;baseline-shift:baseline;text-anchor:start;white-space:normal;shape-padding:0;clip-rule:nonzero;display:inline;overflow:visible;visibility:visible;opacity:1;isolation:auto;mix-blend-mode:normal;color-interpolation:sRGB;color-interpolation-filters:linearRGB;solid-color:#000000;solid-opacity:1;vector-effect:none;fill:#1466b2;fill-opacity:1;fill-rule:nonzero;stroke:none;stroke-width:2;stroke-linecap:butt;stroke-linejoin:miter;stroke-miterlimit:4;stroke-dasharray:none;stroke-dashoffset:0;stroke-opacity:1;color-rendering:auto;image-rendering:auto;shape-rendering:auto;text-rendering:auto;enable-background:accumulate"
         inkscape:connector-curvature="0" />
      <path
         id="path6023"
         d="m -4.023436,276.64999 a 1.0001,1.0001 0 0 0 -0.71289,0.32423 l -11,12 a 1.0001,1.0001 0 0 0 0.736328,1.67577 h 2 v 9 c 0,0.554 0.446,1 1,1 h 15 c 0.554,0 1,-0.446 1,-1 v -9 h 2 A 1.0001,1.0001 0 0 0 6.76758,289.00936 L 4.96094,286.8414 C 4.97372,286.7773 5,286.71791 5,286.64999 v -5 c 0,-0.55399 -0.446,-1 -1,-1 H 3 c -0.554,0 -1,0.44601 -1,1 v 1.63867 l -5.23242,-6.2793 a 1.0001,1.0001 0 0 0 -0.791016,-0.35937 z"
         style="color:#000000;font-style:normal;font-variant:normal;font-weight:normal;font-stretch:normal;font-size:medium;line-height:normal;font-family:sans-serif;font-variant-ligatures:normal;font-variant-position:normal;font-variant-caps:normal;font-variant-numeric:normal;font-variant-alternates:normal;font-feature-settings:normal;text-indent:0;text-align:start;text-decoration:none;text-decoration-line:none;text-decoration-style:solid;text-decoration-color:#000000;letter-spacing:normal;word-spacing:normal;text-transform:none;writing-mode:lr-tb;direction:ltr;text-orientation:mixed;dominant-baseline:auto;baseline-shift:baseline;text-anchor:start;white-space:normal;shape-padding:0;clip-rule:nonzero;display:inline;overflow:visible;visibility:visible;opacity:1;isolation:auto;mix-blend-mode:normal;color-interpolation:sRGB;color-interpolation-filters:linearRGB;solid-color:#000000;solid-opacity:1;vector-effect:none;fill:url(#linearGradient6058);fill-opacity:1;fill-rule:nonzero;stroke:none;stroke-width:2;stroke-linecap:butt;stroke-linejoin:miter;stroke-miterlimit:4;stroke-dasharray:none;stroke-dashoffset:0;stroke-opacity:1;color-rendering:auto;image-rendering:auto;shape-rendering:auto;text-rendering:auto;enable-background:accumulate"
         inkscape:connector-curvature="0" />
    </g>
  </g>
</svg>
