<?xml version="1.0" encoding="UTF-8" standalone="no"?>
<!-- Created with Inkscape (http://www.inkscape.org/) -->

<svg
   xmlns:dc="http://purl.org/dc/elements/1.1/"
   xmlns:cc="http://creativecommons.org/ns#"
   xmlns:rdf="http://www.w3.org/1999/02/22-rdf-syntax-ns#"
   xmlns:svg="http://www.w3.org/2000/svg"
   xmlns="http://www.w3.org/2000/svg"
   xmlns:xlink="http://www.w3.org/1999/xlink"
   xmlns:sodipodi="http://sodipodi.sourceforge.net/DTD/sodipodi-0.dtd"
   xmlns:inkscape="http://www.inkscape.org/namespaces/inkscape"
   width="64"
   height="64"
   viewBox="0 0 16.933333 16.933333"
   version="1.1"
   id="svg8"
   inkscape:version="0.92.3 (2405546, 2018-03-11)"
   sodipodi:docname="wine.svg">
  <defs
     id="defs2">
    <linearGradient
       inkscape:collect="always"
       xlink:href="#linearGradient4627"
       id="linearGradient3474"
       x1="24"
       y1="312.64999"
       x2="24"
       y2="299.64999"
       gradientUnits="userSpaceOnUse" />
    <linearGradient
       id="linearGradient4627"
       inkscape:collect="always">
      <stop
         id="stop4623"
         offset="0"
         style="stop-color:#ffc900;stop-opacity:1" />
      <stop
         id="stop4625"
         offset="1"
         style="stop-color:#ffe200;stop-opacity:1" />
    </linearGradient>
    <linearGradient
       inkscape:collect="always"
       xlink:href="#linearGradient4717"
       id="linearGradient3466"
       x1="6.499999"
       y1="313.14999"
       x2="6.499999"
       y2="299.14999"
       gradientUnits="userSpaceOnUse" />
    <linearGradient
       id="linearGradient4717"
       inkscape:collect="always">
      <stop
         id="stop4713"
         offset="0"
         style="stop-color:#1a86f2;stop-opacity:1" />
      <stop
         id="stop4715"
         offset="1"
         style="stop-color:#31bbfc;stop-opacity:1" />
    </linearGradient>
    <linearGradient
       inkscape:collect="always"
       xlink:href="#linearGradient4619"
       id="linearGradient3458"
       x1="25"
       y1="298.14999"
       x2="25"
       y2="284.14999"
       gradientUnits="userSpaceOnUse" />
    <linearGradient
       id="linearGradient4619"
       inkscape:collect="always">
      <stop
         id="stop4615"
         offset="0"
         style="stop-color:#67d924;stop-opacity:1" />
      <stop
         id="stop4617"
         offset="1"
         style="stop-color:#a3eb1e;stop-opacity:1" />
    </linearGradient>
    <linearGradient
       inkscape:collect="always"
       xlink:href="#linearGradient4534"
       id="linearGradient3450"
       x1="12"
       y1="30.999998"
       x2="12"
       y2="3.9999979"
       gradientUnits="userSpaceOnUse" />
    <linearGradient
       id="linearGradient4534"
       inkscape:collect="always">
      <stop
         id="stop4530"
         offset="0"
         style="stop-color:#d43434;stop-opacity:1" />
      <stop
         id="stop4532"
         offset="1"
         style="stop-color:#f84f4f;stop-opacity:1" />
    </linearGradient>
    <linearGradient
       inkscape:collect="always"
       xlink:href="#linearGradient4506"
       id="linearGradient3442"
       x1="15.5"
       y1="306.64999"
       x2="15.5"
       y2="290.14999"
       gradientUnits="userSpaceOnUse" />
    <linearGradient
       inkscape:collect="always"
       id="linearGradient4506">
      <stop
         style="stop-color:#252a34;stop-opacity:1"
         offset="0"
         id="stop4502" />
      <stop
         style="stop-color:#353d4b;stop-opacity:1"
         offset="1"
         id="stop4504" />
    </linearGradient>
  </defs>
  <sodipodi:namedview
     id="base"
     pagecolor="#ffffff"
     bordercolor="#666666"
     borderopacity="1.0"
     inkscape:pageopacity="0.0"
     inkscape:pageshadow="2"
     inkscape:zoom="11.2"
     inkscape:cx="11.774357"
     inkscape:cy="29.512999"
     inkscape:document-units="px"
     inkscape:current-layer="layer1"
     showgrid="true"
     units="px"
     inkscape:showpageshadow="false"
     inkscape:snap-bbox="true"
     inkscape:bbox-paths="true"
     inkscape:bbox-nodes="true"
     inkscape:snap-bbox-edge-midpoints="true"
     inkscape:snap-bbox-midpoints="true"
     inkscape:object-paths="true"
     inkscape:snap-intersection-paths="true"
     inkscape:window-width="1874"
     inkscape:window-height="1141"
     inkscape:window-x="46"
     inkscape:window-y="30"
     inkscape:window-maximized="1">
    <inkscape:grid
       type="xygrid"
       id="grid815" />
  </sodipodi:namedview>
  <metadata
     id="metadata5">
    <rdf:RDF>
      <cc:Work
         rdf:about="">
        <dc:format>image/svg+xml</dc:format>
        <dc:type
           rdf:resource="http://purl.org/dc/dcmitype/StillImage" />
        <dc:title></dc:title>
      </cc:Work>
    </rdf:RDF>
  </metadata>
  <g
     inkscape:label="Capa 1"
     inkscape:groupmode="layer"
     id="layer1"
     transform="translate(0,-280.06666)">
    <g
       id="g4208"
       transform="translate(3.1750001,-1.058337)">
      <g
         id="layer1-87-9"
         inkscape:label="Capa 1"
         transform="matrix(0.52916663,0,0,0.52916663,-3.1749994,131.55606)">
        <path
           inkscape:connector-curvature="0"
           style="opacity:1;fill:#ff9a0a;fill-opacity:1;stroke:none;stroke-width:1.15384614;stroke-linecap:round;stroke-linejoin:round;stroke-miterlimit:4;stroke-dasharray:none;stroke-opacity:1;paint-order:fill markers stroke"
           d="m 30,313.64998 c 0.554,0 1,-0.446 1,-1 v -1.5 -11.5 -1 h -1 -13.000001 -1 v 1 9.5 2 1.5 1 h 1 z"
           id="rect2538-9-8-2-6" />
        <path
           inkscape:connector-curvature="0"
           style="opacity:1;fill:url(#linearGradient3474);fill-opacity:1;stroke:none;stroke-width:1.16666675;stroke-linecap:round;stroke-linejoin:round;stroke-miterlimit:4;stroke-dasharray:none;stroke-opacity:1;paint-order:fill markers stroke"
           d="m 30,313.14998 c 0.277,0 0.5,-0.223 0.5,-0.5 v -10 -3 -0.5 h -0.5 -3.000001 -10 c -0.277,0 -0.5,0.223 -0.5,0.5 v 10.5 2.5 0.5 h 0.5 4 z"
           id="rect2549-4-4-0-1" />
        <path
           inkscape:connector-curvature="0"
           style="opacity:1;fill:#115799;fill-opacity:1;stroke:none;stroke-width:1.15384614;stroke-linecap:round;stroke-linejoin:round;stroke-miterlimit:4;stroke-dasharray:none;stroke-opacity:1;paint-order:fill markers stroke"
           d="m 1.9999991,313.64998 c -0.554,0 -1.0000001,-0.446 -1.0000001,-1 v -1.5 -11.5 -1 h 1.0000001 12.9999999 1 v 1 9.5 2 1.5 1 h -1 z"
           id="rect2538-9-8-5" />
        <path
           inkscape:connector-curvature="0"
           style="opacity:1;fill:url(#linearGradient3466);fill-opacity:1;stroke:none;stroke-width:1.16666675;stroke-linecap:round;stroke-linejoin:round;stroke-miterlimit:4;stroke-dasharray:none;stroke-opacity:1;paint-order:fill markers stroke"
           d="m 1.9999991,313.14998 c -0.277,0 -0.5,-0.223 -0.5,-0.5 v -10 -3 -0.5 h 0.5 3 9.9999999 c 0.277,0 0.5,0.223 0.5,0.5 v 10.5 2.5 0.5 h -0.5 -4 z"
           id="rect2549-4-4-5" />
        <path
           inkscape:connector-curvature="0"
           style="opacity:1;fill:#56b21d;fill-opacity:1;stroke:none;stroke-width:1.15384614;stroke-linecap:round;stroke-linejoin:round;stroke-miterlimit:4;stroke-dasharray:none;stroke-opacity:1;paint-order:fill markers stroke"
           d="m 29.999999,283.64998 c 0.554,0 1,0.446 1,1 v 1.5 11.5 1 h -1 -13 -1 v -1 -9.5 -2 -1.5 -1 h 1 z"
           id="rect2538-9-8-2" />
        <path
           inkscape:connector-curvature="0"
           style="opacity:1;fill:url(#linearGradient3458);fill-opacity:1;stroke:none;stroke-width:1.16666675;stroke-linecap:round;stroke-linejoin:round;stroke-miterlimit:4;stroke-dasharray:none;stroke-opacity:1;paint-order:fill markers stroke"
           d="m 29.999999,284.14998 c 0.277,0 0.5,0.223 0.5,0.5 v 10 3 0.5 h -0.5 -3 -10 c -0.277,0 -0.5,-0.223 -0.5,-0.5 v -10.5 -2.5 -0.5 h 0.5 4 z"
           id="rect2549-4-4-0" />
        <path
           inkscape:connector-curvature="0"
           style="opacity:1;fill:#992626;fill-opacity:1;stroke:none;stroke-width:2.30769229;stroke-linecap:round;stroke-linejoin:round;stroke-miterlimit:4;stroke-dasharray:none;stroke-opacity:1;paint-order:fill markers stroke"
           d="M 4,2 C 2.892,2 2,2.892 2,4 v 3 23 2 h 2 26 2 V 30 11 7 4 2 h -2 z"
           transform="matrix(0.50000001,0,0,0.50000001,-9.7143405e-7,282.64998)"
           id="rect2538-9-8" />
        <path
           inkscape:connector-curvature="0"
           style="opacity:1;fill:url(#linearGradient3450);fill-opacity:1;stroke:none;stroke-width:2.33333349;stroke-linecap:round;stroke-linejoin:round;stroke-miterlimit:4;stroke-dasharray:none;stroke-opacity:1;paint-order:fill markers stroke"
           d="M 4,3 C 3.446,3 3,3.446 3,4 v 20 6 1 h 1 6 20 c 0.554,0 1,-0.446 1,-1 V 9 4 3 h -1 -8 z"
           transform="matrix(0.50000001,0,0,0.50000001,-9.7143405e-7,282.64998)"
           id="rect2549-4-4" />
        <path
           id="rect2538-9"
           d="M 8.0153842,289.64996 H 23.984615 c 0.562523,0 1.015385,0.45286 1.015385,1.01539 v 15.96923 c 0,0.56252 -0.452862,1.01538 -1.015385,1.01538 H 8.0153842 c -0.5625231,0 -1.0153847,-0.45286 -1.0153847,-1.01538 v -15.96923 c 0,-0.56253 0.4528616,-1.01539 1.0153847,-1.01539 z"
           style="opacity:1;fill:#03080d;fill-opacity:1;stroke:none;stroke-width:1.38461542;stroke-linecap:round;stroke-linejoin:round;stroke-miterlimit:4;stroke-dasharray:none;stroke-opacity:1;paint-order:fill markers stroke"
           inkscape:connector-curvature="0" />
        <path
           id="rect2549-4"
           d="m 8.019444,290.14996 h 15.961111 c 0.287772,0 0.519445,0.23168 0.519445,0.51945 v 15.96111 c 0,0.28777 -0.231673,0.51944 -0.519445,0.51944 H 8.019444 c -0.2877722,0 -0.5194445,-0.23167 -0.5194445,-0.51944 v -15.96111 c 0,-0.28777 0.2316723,-0.51945 0.5194445,-0.51945 z"
           style="opacity:1;fill:url(#linearGradient3442);fill-opacity:1;stroke:none;stroke-width:1.41666675;stroke-linecap:round;stroke-linejoin:round;stroke-miterlimit:4;stroke-dasharray:none;stroke-opacity:1;paint-order:fill markers stroke"
           inkscape:connector-curvature="0" />
      </g>
      <path
         inkscape:connector-curvature="0"
         id="path2699-7-2"
         d="m 7.4083327,287.47498 -2.3812492,0.26458 v 1.85208 l 2.3812492,2e-5 z m -2.6458325,0.26458 -1.8520836,0.2646 v 1.58748 h 1.8520836 z m -1.8520836,2.11668 v 1.5875 l 1.8520836,0.26458 v -1.85208 z m 2.1166669,-2e-5 v 1.8521 l 2.3812492,0.26458 v -2.11664 z"
         style="fill:#03080d;fill-opacity:1;stroke-width:0.52059662;enable-background:new"
         sodipodi:nodetypes="cccccccccccccccccccc" />
      <path
         inkscape:connector-curvature="0"
         id="path2699-7"
         d="m 7.4083327,287.2104 -2.3812495,0.26458 -2e-7,1.85208 2.3812497,2e-5 z m -2.6458328,0.26458 -1.8520833,0.2646 v 1.58748 h 1.852083 z m -1.8520833,2.11668 v 1.5875 l 1.852083,0.26458 v -1.85208 z m 2.1166664,-2e-5 v 1.8521 l 2.3812497,0.26458 v -2.11664 z"
         style="fill:#e5f3ff;fill-opacity:1;stroke-width:0.52059662;enable-background:new"
         sodipodi:nodetypes="cccccccccccccccccccc" />
    </g>
  </g>
</svg>
