<?xml version="1.0" encoding="UTF-8" standalone="no"?>
<!-- Created with Inkscape (http://www.inkscape.org/) -->

<svg
   xmlns:dc="http://purl.org/dc/elements/1.1/"
   xmlns:cc="http://creativecommons.org/ns#"
   xmlns:rdf="http://www.w3.org/1999/02/22-rdf-syntax-ns#"
   xmlns:svg="http://www.w3.org/2000/svg"
   xmlns="http://www.w3.org/2000/svg"
   xmlns:xlink="http://www.w3.org/1999/xlink"
   xmlns:sodipodi="http://sodipodi.sourceforge.net/DTD/sodipodi-0.dtd"
   xmlns:inkscape="http://www.inkscape.org/namespaces/inkscape"
   width="64"
   height="64"
   viewBox="0 0 64 64"
   version="1.1"
   id="svg8"
   inkscape:version="0.92.3 (2405546, 2018-03-11)"
   sodipodi:docname="xorg-64.svg">
  <title
     id="title7895">Antu icon Theme</title>
  <defs
     id="defs2">
    <style
       id="current-color-scheme"
       type="text/css">
      .ColorScheme-Text {
        color:#122036;
      }
      </style>
    <style
       id="current-color-scheme-2"
       type="text/css">
      .ColorScheme-Text {
        color:#122036;
      }
      </style>
    <linearGradient
       id="linearGradient925"
       inkscape:collect="always">
      <stop
         id="stop921"
         offset="0"
         style="stop-color:#f8f9f9;stop-opacity:1" />
      <stop
         id="stop923"
         offset="1"
         style="stop-color:#94a1a1;stop-opacity:1" />
    </linearGradient>
    <linearGradient
       inkscape:collect="always"
       id="linearGradient868">
      <stop
         style="stop-color:#494949;stop-opacity:1"
         offset="0"
         id="stop864" />
      <stop
         style="stop-color:#222222;stop-opacity:1"
         offset="1"
         id="stop866" />
    </linearGradient>
    <linearGradient
       inkscape:collect="always"
       id="linearGradient4582-3">
      <stop
         style="stop-color:#c8d3d4;stop-opacity:1"
         offset="0"
         id="stop4578-5" />
      <stop
         style="stop-color:#f3f5f6;stop-opacity:1"
         offset="1"
         id="stop4580-6" />
    </linearGradient>
    <linearGradient
       inkscape:collect="always"
       xlink:href="#linearGradient868"
       id="linearGradient886"
       x1="32"
       y1="62"
       x2="32"
       y2="2"
       gradientUnits="userSpaceOnUse" />
    <linearGradient
       inkscape:collect="always"
       xlink:href="#linearGradient4582-3"
       id="linearGradient894"
       x1="32"
       y1="49.000008"
       x2="32"
       y2="15.000007"
       gradientUnits="userSpaceOnUse" />
    <linearGradient
       inkscape:collect="always"
       xlink:href="#linearGradient925"
       id="linearGradient902"
       x1="32"
       y1="40.000008"
       x2="32"
       y2="24.000008"
       gradientUnits="userSpaceOnUse" />
  </defs>
  <sodipodi:namedview
     id="base"
     pagecolor="#ffffff"
     bordercolor="#666666"
     borderopacity="1.0"
     inkscape:pageopacity="0.0"
     inkscape:pageshadow="2"
     inkscape:zoom="11.313708"
     inkscape:cx="36.701385"
     inkscape:cy="25.1745"
     inkscape:document-units="px"
     inkscape:current-layer="layer1"
     showgrid="true"
     units="px"
     inkscape:window-width="1874"
     inkscape:window-height="1141"
     inkscape:window-x="46"
     inkscape:window-y="30"
     inkscape:window-maximized="1"
     objecttolerance="10"
     gridtolerance="10"
     guidetolerance="10"
     inkscape:snap-bbox="true"
     inkscape:bbox-paths="true"
     inkscape:bbox-nodes="true"
     inkscape:snap-bbox-edge-midpoints="true"
     inkscape:snap-bbox-midpoints="true"
     inkscape:object-paths="true"
     inkscape:snap-intersection-paths="true"
     inkscape:showpageshadow="false">
    <inkscape:grid
       type="xygrid"
       id="grid7897"
       empspacing="4" />
  </sodipodi:namedview>
  <metadata
     id="metadata5">
    <rdf:RDF>
      <cc:Work
         rdf:about="">
        <dc:format>image/svg+xml</dc:format>
        <dc:type
           rdf:resource="http://purl.org/dc/dcmitype/StillImage" />
        <dc:title>Antu icon Theme</dc:title>
      </cc:Work>
    </rdf:RDF>
  </metadata>
  <g
     inkscape:label="Capa 1"
     inkscape:groupmode="layer"
     id="layer1"
     transform="translate(0,-250.64999)">
    <g
       transform="translate(8,-7.999995)"
       id="layer1-6"
       inkscape:label="Capa 1">
      <g
         transform="matrix(-1,0,0,1,13,-15.000005)"
         id="g1535" />
    </g>
    <g
       id="g1040">
      <path
         id="rect863"
         d="m 5,251.64999 h 54 c 2.216,0 4,1.784 4,4 v 54 c 0,2.216 -1.784,4 -4,4 H 5 c -2.216,0 -4,-1.784 -4,-4 v -54 c 0,-2.216 1.784,-4 4,-4 z"
         style="opacity:1;vector-effect:none;fill:#030303;fill-opacity:1;stroke:none;stroke-width:2.28937817;stroke-linecap:round;stroke-linejoin:round;stroke-miterlimit:4;stroke-dasharray:none;stroke-dashoffset:0;stroke-opacity:1" />
      <path
         sodipodi:nodetypes="sssssssss"
         inkscape:connector-curvature="0"
         id="rect863-9"
         transform="translate(0,250.64999)"
         d="M 5,2 C 3.338,2 2,3.338 2,5 v 54 c 0,1.662 1.338,3 3,3 h 54 c 1.662,0 3,-1.338 3,-3 V 5 C 62,3.338 60.662,2 59,2 Z"
         style="opacity:1;vector-effect:none;fill:url(#linearGradient886);fill-opacity:1;stroke:none;stroke-width:2.2155273;stroke-linecap:round;stroke-linejoin:round;stroke-miterlimit:4;stroke-dasharray:none;stroke-dashoffset:0;stroke-opacity:1" />
      <path
         style="opacity:1;fill:#1d1d1d;fill-opacity:1;stroke:none;stroke-width:4;stroke-linecap:round;stroke-linejoin:round;stroke-miterlimit:4;stroke-dasharray:none;stroke-opacity:1"
         d="M 2 6 L 2 10 L 62 10 L 62 6 L 2 6 z M 2 14 L 2 18 L 62 18 L 62 14 L 2 14 z M 2 22 L 2 26 L 26.839844 26 C 27.462677 25.464945 28.112188 24.950995 28.880859 24.626953 C 29.838609 24.223203 30.892 24 32 24 C 33.108 24 34.161391 24.223203 35.119141 24.626953 C 35.887812 24.950995 36.537323 25.464945 37.160156 26 L 62 26 L 62 22 L 2 22 z M 2 30 L 2 34 L 24.402344 34 C 24.230102 33.34507 24 32.710475 24 32 C 24 31.289525 24.230102 30.65493 24.402344 30 L 2 30 z M 39.597656 30 C 39.769898 30.65493 40 31.289525 40 32 C 40 32.710475 39.769898 33.34507 39.597656 34 L 62 34 L 62 30 L 39.597656 30 z M 2 38 L 2 42 L 62 42 L 62 38 L 37.160156 38 C 36.537323 38.535055 35.887812 39.049005 35.119141 39.373047 C 34.161391 39.776797 33.108 40 32 40 C 30.892 40 29.838609 39.776797 28.880859 39.373047 C 28.112188 39.049005 27.462677 38.535055 26.839844 38 L 2 38 z M 2 46 L 2 50 L 62 50 L 62 46 L 2 46 z M 2 54 L 2 58 L 62 58 L 62 54 L 2 54 z "
         transform="translate(0,250.64999)"
         id="path1166" />
      <path
         style="opacity:1;fill:#3c4f5e;fill-opacity:1;stroke:none;stroke-width:4;stroke-linecap:round;stroke-linejoin:round;stroke-miterlimit:4;stroke-dasharray:none;stroke-opacity:1"
         d="M 26.839844 38 C 27.462677 38.535055 28.112188 39.049005 28.880859 39.373047 C 29.838609 39.776797 30.892 40 32 40 C 33.108 40 34.161391 39.776797 35.119141 39.373047 C 35.887812 39.049005 36.537323 38.535055 37.160156 38 L 26.839844 38 z "
         id="path1158"
         transform="translate(0,250.64999)" />
      <path
         style="opacity:1;fill:#3c4f5e;fill-opacity:1;stroke:none;stroke-width:4;stroke-linecap:round;stroke-linejoin:round;stroke-miterlimit:4;stroke-dasharray:none;stroke-opacity:1"
         d="M 37.160156 26 C 36.537323 25.464945 35.887812 24.950995 35.119141 24.626953 C 34.161391 24.223203 33.108 24 32 24 C 30.892 24 29.838609 24.223203 28.880859 24.626953 C 28.112188 24.950995 27.462677 25.464945 26.839844 26 L 37.160156 26 z "
         id="path1152"
         transform="translate(0,250.64999)" />
    </g>
    <g
       transform="translate(5.5600003e-7,-13.499987)"
       id="layer1-3"
       inkscape:label="Capa 1">
      <g
         inkscape:label="Capa 1"
         id="layer1-6-6"
         transform="matrix(2,0,0,2,-7.1600002e-7,-314.65001)">
        <path
           style="opacity:1;fill:url(#linearGradient902);fill-opacity:1;stroke:none;stroke-width:2;stroke-linecap:round;stroke-linejoin:round;stroke-miterlimit:4;stroke-dasharray:none;stroke-opacity:1;paint-order:fill markers stroke"
           d="M 32 23 C 27.014 23 23 27.014 23 32 C 23 36.986 27.014 41 32 41 C 36.986 41 41 36.986 41 32 C 41 27.014 36.986 23 32 23 z M 32 27 C 34.77 27 37 29.23 37 32 C 37 34.77 34.77 37 32 37 C 29.23 37 27 34.77 27 32 C 27 29.23 29.23 27 32 27 z "
           transform="matrix(0.5,0,0,0.5,7.9999995e-8,289.39999)"
           id="rect1090" />
        <path
           style="color:#000000;font-style:normal;font-variant:normal;font-weight:normal;font-stretch:normal;font-size:medium;line-height:normal;font-family:sans-serif;font-variant-ligatures:normal;font-variant-position:normal;font-variant-caps:normal;font-variant-numeric:normal;font-variant-alternates:normal;font-feature-settings:normal;text-indent:0;text-align:start;text-decoration:none;text-decoration-line:none;text-decoration-style:solid;text-decoration-color:#000000;letter-spacing:normal;word-spacing:normal;text-transform:none;writing-mode:lr-tb;direction:ltr;text-orientation:mixed;dominant-baseline:auto;baseline-shift:baseline;text-anchor:start;white-space:normal;shape-padding:0;clip-rule:nonzero;display:inline;overflow:visible;visibility:visible;opacity:1;isolation:auto;mix-blend-mode:normal;color-interpolation:sRGB;color-interpolation-filters:linearRGB;solid-color:#000000;solid-opacity:1;vector-effect:none;fill:url(#linearGradient894);fill-opacity:1;fill-rule:nonzero;stroke:none;stroke-width:2;stroke-linecap:round;stroke-linejoin:round;stroke-miterlimit:4;stroke-dasharray:none;stroke-dashoffset:0;stroke-opacity:1;color-rendering:auto;image-rendering:auto;shape-rendering:auto;text-rendering:auto;enable-background:accumulate"
           d="M 22 15 A 1.0001 1.0001 0 0 0 21.128906 15.507812 L 12.128906 31.507812 A 1.0001 1.0001 0 0 0 12.128906 32.488281 L 21.128906 48.488281 A 1.0001 1.0001 0 0 0 22 49 L 42 49 A 1.0001 1.0001 0 0 0 42.871094 48.488281 L 51.871094 32.488281 A 1.0001 1.0001 0 0 0 51.871094 31.507812 L 42.871094 15.507812 A 1.0001 1.0001 0 0 0 42 15 L 22 15 z M 32 24 C 36.432 24 40 27.568 40 32 C 40 36.432 36.432 40 32 40 C 27.568 40 24 36.432 24 32 C 24 27.568 27.568 24 32 24 z "
           transform="matrix(0.5,0,0,0.5,7.9999995e-8,289.39999)"
           id="path1100" />
      </g>
    </g>
  </g>
</svg>
