<?xml version="1.0" encoding="UTF-8" standalone="no"?>
<!-- Created with Inkscape (http://www.inkscape.org/) -->

<svg
   xmlns:dc="http://purl.org/dc/elements/1.1/"
   xmlns:cc="http://creativecommons.org/ns#"
   xmlns:rdf="http://www.w3.org/1999/02/22-rdf-syntax-ns#"
   xmlns:svg="http://www.w3.org/2000/svg"
   xmlns="http://www.w3.org/2000/svg"
   xmlns:xlink="http://www.w3.org/1999/xlink"
   xmlns:sodipodi="http://sodipodi.sourceforge.net/DTD/sodipodi-0.dtd"
   xmlns:inkscape="http://www.inkscape.org/namespaces/inkscape"
   width="64"
   height="64"
   viewBox="0 0 64 64"
   version="1.1"
   id="svg8"
   inkscape:version="0.92.2 2405546, 2018-03-11"
   sodipodi:docname="yast-sw_single.svg">
  <title
     id="title7895">Antu icon Theme</title>
  <defs
     id="defs2">
    <linearGradient
       gradientUnits="userSpaceOnUse"
       y2="254.64999"
       x2="32"
       y1="310.64999"
       x1="32"
       id="linearGradient888-7"
       xlink:href="#linearGradient983"
       inkscape:collect="always"
       gradientTransform="matrix(0.99888888,0,0,0.99888888,0.03555592,0.31405194)" />
    <linearGradient
       id="linearGradient983"
       inkscape:collect="always">
      <stop
         id="stop979"
         offset="0"
         style="stop-color:#eeeade;stop-opacity:1" />
      <stop
         id="stop981"
         offset="1"
         style="stop-color:#fcfcfb;stop-opacity:1" />
    </linearGradient>
    <linearGradient
       inkscape:collect="always"
       xlink:href="#linearGradient1568"
       id="linearGradient4626"
       x1="20"
       y1="273.64999"
       x2="20"
       y2="253.64999"
       gradientUnits="userSpaceOnUse"
       gradientTransform="translate(-32,10.214285)" />
    <linearGradient
       id="linearGradient1568"
       inkscape:collect="always">
      <stop
         id="stop1564"
         offset="0"
         style="stop-color:#d9d6cf;stop-opacity:1" />
      <stop
         id="stop1566"
         offset="1"
         style="stop-color:#f2efe7;stop-opacity:1" />
    </linearGradient>
    <linearGradient
       inkscape:collect="always"
       xlink:href="#linearGradient1544"
       id="linearGradient4626-62"
       x1="20"
       y1="273.64999"
       x2="20"
       y2="253.64999"
       gradientUnits="userSpaceOnUse"
       gradientTransform="translate(-20,10.214285)" />
    <linearGradient
       id="linearGradient1544"
       inkscape:collect="always">
      <stop
         id="stop1540"
         offset="0"
         style="stop-color:#f41e3d;stop-opacity:1" />
      <stop
         id="stop1542"
         offset="1"
         style="stop-color:#fc3a56;stop-opacity:1" />
    </linearGradient>
    <linearGradient
       inkscape:collect="always"
       xlink:href="#linearGradient1568"
       id="linearGradient4626-2"
       x1="20"
       y1="273.64999"
       x2="20"
       y2="253.64999"
       gradientUnits="userSpaceOnUse"
       gradientTransform="translate(-8,10.214285)" />
    <linearGradient
       inkscape:collect="always"
       xlink:href="#linearGradient1544"
       id="linearGradient4626-29"
       x1="20"
       y1="273.64999"
       x2="20"
       y2="253.64999"
       gradientUnits="userSpaceOnUse"
       gradientTransform="translate(4,10.214285)" />
    <linearGradient
       inkscape:collect="always"
       xlink:href="#linearGradient1544"
       id="linearGradient4626-29-1"
       x1="20"
       y1="273.64999"
       x2="20"
       y2="253.64999"
       gradientUnits="userSpaceOnUse"
       gradientTransform="matrix(-1,0,0,1,-4,10.214285)" />
    <linearGradient
       gradientTransform="translate(-32,10.214285)"
       inkscape:collect="always"
       xlink:href="#linearGradient1427"
       id="linearGradient4315"
       x1="20.5"
       y1="308.64999"
       x2="21"
       y2="284.64999"
       gradientUnits="userSpaceOnUse" />
    <linearGradient
       id="linearGradient1427"
       inkscape:collect="always">
      <stop
         id="stop1423"
         offset="0"
         style="stop-color:#0090ff;stop-opacity:1" />
      <stop
         id="stop1425"
         offset="1"
         style="stop-color:#13befd;stop-opacity:1" />
    </linearGradient>
    <linearGradient
       gradientTransform="translate(-32,10.214285)"
       inkscape:collect="always"
       xlink:href="#linearGradient1501"
       id="linearGradient4280"
       x1="46"
       y1="299.64999"
       x2="46"
       y2="282.64999"
       gradientUnits="userSpaceOnUse" />
    <linearGradient
       id="linearGradient1501"
       inkscape:collect="always">
      <stop
         id="stop1497"
         offset="0"
         style="stop-color:#4db5f0;stop-opacity:1" />
      <stop
         id="stop1499"
         offset="1"
         style="stop-color:#6ccaf5;stop-opacity:1" />
    </linearGradient>
    <linearGradient
       gradientTransform="translate(-32,10.214285)"
       inkscape:collect="always"
       xlink:href="#linearGradient1417"
       id="linearGradient4303"
       x1="21"
       y1="311.64999"
       x2="21"
       y2="308.64999"
       gradientUnits="userSpaceOnUse" />
    <linearGradient
       id="linearGradient1417"
       inkscape:collect="always">
      <stop
         id="stop1413"
         offset="0"
         style="stop-color:#b8b6af;stop-opacity:1" />
      <stop
         id="stop1415"
         offset="1"
         style="stop-color:#d5d3cc;stop-opacity:1" />
    </linearGradient>
    <linearGradient
       inkscape:collect="always"
       xlink:href="#linearGradient1511"
       id="linearGradient4288"
       x1="34.033333"
       y1="300.91666"
       x2="34.033333"
       y2="292.84998"
       gradientUnits="userSpaceOnUse"
       gradientTransform="matrix(1.3636362,0,0,1.3636362,-33.409087,-103.47656)" />
    <linearGradient
       id="linearGradient1511"
       inkscape:collect="always">
      <stop
         id="stop1507"
         offset="0"
         style="stop-color:#2288be;stop-opacity:1" />
      <stop
         id="stop1509"
         offset="1"
         style="stop-color:#308fc2;stop-opacity:1" />
    </linearGradient>
    <linearGradient
       gradientTransform="translate(-32,10.214285)"
       inkscape:collect="always"
       xlink:href="#linearGradient1436"
       id="linearGradient4342"
       x1="24"
       y1="298.64999"
       x2="24"
       y2="295.64999"
       gradientUnits="userSpaceOnUse" />
    <linearGradient
       id="linearGradient1436"
       inkscape:collect="always">
      <stop
         id="stop1432"
         offset="0"
         style="stop-color:#f0ece2;stop-opacity:1" />
      <stop
         id="stop1434"
         offset="1"
         style="stop-color:#fbfdfd;stop-opacity:1" />
    </linearGradient>
  </defs>
  <sodipodi:namedview
     id="base"
     pagecolor="#ffffff"
     bordercolor="#666666"
     borderopacity="1.0"
     inkscape:pageopacity="0.0"
     inkscape:pageshadow="2"
     inkscape:zoom="1"
     inkscape:cx="-64.066209"
     inkscape:cy="-65.117208"
     inkscape:document-units="px"
     inkscape:current-layer="layer1"
     showgrid="true"
     units="px"
     inkscape:window-width="1360"
     inkscape:window-height="711"
     inkscape:window-x="0"
     inkscape:window-y="28"
     inkscape:window-maximized="1"
     objecttolerance="10"
     gridtolerance="10"
     guidetolerance="10"
     inkscape:snap-bbox="true"
     inkscape:bbox-paths="true"
     inkscape:bbox-nodes="true"
     inkscape:snap-bbox-edge-midpoints="true"
     inkscape:snap-bbox-midpoints="true"
     inkscape:object-paths="true"
     inkscape:snap-intersection-paths="true"
     inkscape:showpageshadow="false">
    <inkscape:grid
       type="xygrid"
       id="grid7897"
       empspacing="4" />
  </sodipodi:namedview>
  <metadata
     id="metadata5">
    <rdf:RDF>
      <cc:Work
         rdf:about="">
        <dc:format>image/svg+xml</dc:format>
        <dc:type
           rdf:resource="http://purl.org/dc/dcmitype/StillImage" />
        <dc:title>Antu icon Theme</dc:title>
      </cc:Work>
    </rdf:RDF>
  </metadata>
  <g
     inkscape:label="Capa 1"
     inkscape:groupmode="layer"
     id="layer1"
     transform="translate(0,-250.64999)">
    <g
       id="g5550"
       transform="translate(32,-10.214288)">
      <g
         inkscape:label="Capa 1"
         id="layer1-31"
         transform="matrix(0.96774194,0,0,0.96774194,-24.225806,16.461065)">
        <g
           transform="matrix(1.4666667,0,0,1.4666667,-0.46666729,-147.37001)"
           id="layer1-6-21"
           inkscape:label="Capa 1" />
        <g
           transform="matrix(-1.4666667,0,0,1.4666667,49.466667,-147.37001)"
           id="layer1-6-2"
           inkscape:label="Capa 1" />
        <g
           transform="matrix(1.4666667,0,0,-1.4666667,-0.46666729,729.66999)"
           id="layer1-6-27"
           inkscape:label="Capa 1" />
        <g
           transform="matrix(-1.4666667,0,0,-1.4666667,49.466667,729.66999)"
           id="layer1-6-2-3"
           inkscape:label="Capa 1" />
        <g
           inkscape:label="Capa 1"
           id="layer1-5"
           transform="translate(-6.9666667,2.9666603)">
          <path
             sodipodi:nodetypes="sssssssss"
             inkscape:connector-curvature="0"
             style="opacity:1;vector-effect:none;fill:#c8c3b7;fill-opacity:1;stroke:none;stroke-width:2.28937817;stroke-linecap:round;stroke-linejoin:round;stroke-miterlimit:4;stroke-dasharray:none;stroke-dashoffset:0;stroke-opacity:1"
             d="M 6.0333332,252.68332 H 57.966667 c 2.216,0 4,1.784 4,4 v 52.96667 c 0,2.216 -1.784,4 -4,4 H 6.0333332 c -2.216,0 -4,-1.784 -4,-4 v -52.96667 c 0,-2.216 1.784,-4 4,-4 z"
             id="rect863" />
          <path
             sodipodi:nodetypes="sssssssss"
             inkscape:connector-curvature="0"
             style="opacity:1;vector-effect:none;fill:url(#linearGradient888-7);fill-opacity:1;stroke:none;stroke-width:2.21306562;stroke-linecap:round;stroke-linejoin:round;stroke-miterlimit:4;stroke-dasharray:none;stroke-dashoffset:0;stroke-opacity:1"
             d="M 6.0633336,253.71666 H 57.936666 c 1.660154,0 2.996667,1.33651 2.996667,2.99666 v 52.90667 c 0,1.66016 -1.336513,2.99667 -2.996667,2.99667 H 6.0633336 c -1.6601534,0 -2.9966667,-1.33651 -2.9966667,-2.99667 v -52.90667 c 0,-1.66015 1.3365133,-2.99666 2.9966667,-2.99666 z"
             id="rect863-9" />
        </g>
      </g>
      <path
         id="rect4305"
         d="m -19,292.86428 h 15 c 1.108,0 2,0.892 2,2 v 23 c 0,1.108 -0.892,2 -2,2 h -15 c -1.108,0 -2,-0.892 -2,-2 v -23 c 0,-1.108 0.892,-2 2,-2 z"
         style="opacity:1;vector-effect:none;fill:#0082e5;fill-opacity:1;stroke:none;stroke-width:10;stroke-linecap:round;stroke-linejoin:round;stroke-miterlimit:4;stroke-dasharray:none;stroke-dashoffset:0;stroke-opacity:1"
         inkscape:connector-curvature="0" />
      <path
         id="rect4307"
         d="m -19,293.86428 h 15 c 0.554,0 1,0.446 1,1 v 23 c 0,0.554 -0.446,1 -1,1 h -15 c -0.554,0 -1,-0.446 -1,-1 v -23 c 0,-0.554 0.446,-1 1,-1 z"
         style="opacity:1;vector-effect:none;fill:url(#linearGradient4315);fill-opacity:1;stroke:none;stroke-width:10;stroke-linecap:round;stroke-linejoin:round;stroke-miterlimit:4;stroke-dasharray:none;stroke-dashoffset:0;stroke-opacity:1"
         inkscape:connector-curvature="0" />
      <path
         sodipodi:nodetypes="ssccccccccsss"
         inkscape:connector-curvature="0"
         id="rect4290"
         d="m -22,317.86428 c -0.553998,0 -1,0.446 -1,1 v 1 2 1 h 1 21 1 v -1 -2 -1 c 0,-0.554 -0.446002,-1 -1,-1 z"
         style="opacity:1;vector-effect:none;fill:#8e8c87;fill-opacity:1;stroke:none;stroke-width:10;stroke-linecap:round;stroke-linejoin:round;stroke-miterlimit:4;stroke-dasharray:none;stroke-dashoffset:0;stroke-opacity:1" />
      <path
         id="rect4223"
         d="m 6,291.86428 h 15 c 1.108,0 2,0.892 2,2 v 15 c 0,1.108 -0.892,2 -2,2 H 6 c -1.108,0 -2,-0.892 -2,-2 v -15 c 0,-1.108 0.892,-2 2,-2 z"
         style="opacity:1;vector-effect:none;fill:#0082e5;fill-opacity:1;stroke:none;stroke-width:10;stroke-linecap:round;stroke-linejoin:round;stroke-miterlimit:4;stroke-dasharray:none;stroke-dashoffset:0;stroke-opacity:1"
         inkscape:connector-curvature="0" />
      <path
         id="rect4223-2"
         d="m 6,292.86428 h 15 c 0.554,0 1,0.446 1,1 v 15 c 0,0.554 -0.446,1 -1,1 H 6 c -0.554,0 -1,-0.446 -1,-1 v -15 c 0,-0.554 0.446,-1 1,-1 z"
         style="opacity:1;vector-effect:none;fill:url(#linearGradient4280);fill-opacity:1;stroke:none;stroke-width:10;stroke-linecap:round;stroke-linejoin:round;stroke-miterlimit:4;stroke-dasharray:none;stroke-dashoffset:0;stroke-opacity:1"
         inkscape:connector-curvature="0" />
      <path
         id="rect4295"
         d="m -22,318.86428 h 21 v 3 h -21 z"
         style="opacity:1;vector-effect:none;fill:url(#linearGradient4303);fill-opacity:1;stroke:none;stroke-width:10;stroke-linecap:round;stroke-linejoin:round;stroke-miterlimit:4;stroke-dasharray:none;stroke-dashoffset:0;stroke-opacity:1"
         inkscape:connector-curvature="0" />
      <path
         id="rect4270"
         d="m 6,293.86428 h 15.000001 v 14.99999 H 6 Z"
         style="opacity:1;vector-effect:none;fill:#00598c;fill-opacity:1;stroke:none;stroke-width:10;stroke-linecap:round;stroke-linejoin:round;stroke-miterlimit:4;stroke-dasharray:none;stroke-dashoffset:0;stroke-opacity:1"
         inkscape:connector-curvature="0" />
      <path
         id="rect4272"
         d="M 7,294.86431 H 20.000002 V 307.8643 H 7 Z"
         style="opacity:1;vector-effect:none;fill:url(#linearGradient4288);fill-opacity:1;stroke:none;stroke-width:10;stroke-linecap:round;stroke-linejoin:round;stroke-miterlimit:4;stroke-dasharray:none;stroke-dashoffset:0;stroke-opacity:1"
         inkscape:connector-curvature="0" />
      <path
         id="rect4334-6"
         d="m -7.5,306.86428 c 0.831,0 1.5,0.669 1.5,1.5 0,0.831 -0.669,1.5 -1.5,1.5 -0.831,0 -1.5,-0.669 -1.5,-1.5 0,-0.831 0.669,-1.5 1.5,-1.5 z"
         style="opacity:1;vector-effect:none;fill:#0082e5;fill-opacity:1;stroke:none;stroke-width:10;stroke-linecap:round;stroke-linejoin:round;stroke-miterlimit:4;stroke-dasharray:none;stroke-dashoffset:0;stroke-opacity:1"
         inkscape:connector-curvature="0" />
      <path
         id="rect4334"
         d="m -7.5,305.86428 c 0.831,0 1.5,0.669 1.5,1.5 0,0.831 -0.669,1.5 -1.5,1.5 -0.831,0 -1.5,-0.669 -1.5,-1.5 0,-0.831 0.669,-1.5 1.5,-1.5 z"
         style="opacity:1;vector-effect:none;fill:url(#linearGradient4342);fill-opacity:1;stroke:none;stroke-width:10;stroke-linecap:round;stroke-linejoin:round;stroke-miterlimit:4;stroke-dasharray:none;stroke-dashoffset:0;stroke-opacity:1"
         inkscape:connector-curvature="0" />
      <g
         transform="translate(-33,10.214285)"
         id="g4557">
        <path
           id="rect4368"
           transform="translate(1,250.64999)"
           d="M 4,2 C 2.8920022,2 2,2.892 2,4 v 5 8.5 c 0,3.601 2.676,6.5 6,6.5 3.324,0 6,-2.899 6,-6.5 V 13 8.5 2 H 8 7 Z M 26,2 V 15 H 38 V 2 Z m 24,0 v 6.5 4.5 4.5 c 0,3.601 2.676,6.5 6,6.5 3.324,0 6,-2.899 6,-6.5 V 9 4 C 62,2.892 61.107998,2 60,2 h -3 -1 z"
           style="opacity:1;vector-effect:none;fill:#d90122;fill-opacity:1;stroke:none;stroke-width:10;stroke-linecap:round;stroke-linejoin:round;stroke-miterlimit:4;stroke-dasharray:none;stroke-dashoffset:0;stroke-opacity:1"
           inkscape:connector-curvature="0" />
        <path
           id="rect4368-5"
           transform="translate(1,250.64999)"
           d="m 14,2 v 2 5 4 4.5 c 0,3.601 2.676,6.5 6,6.5 3.324,0 6,-2.899 6,-6.5 V 13 8.5 2 Z m 24,0 v 2 5 6 2.5 c 0,3.601 2.676,6.5 6,6.5 3.324,0 6,-2.899 6,-6.5 V 15 13 8.5 2 H 40 Z"
           style="opacity:1;vector-effect:none;fill:#999999;fill-opacity:1;stroke:none;stroke-width:10;stroke-linecap:round;stroke-linejoin:round;stroke-miterlimit:4;stroke-dasharray:none;stroke-dashoffset:0;stroke-opacity:1"
           inkscape:connector-curvature="0" />
        <path
           inkscape:connector-curvature="0"
           style="opacity:1;vector-effect:none;fill:#d90122;fill-opacity:1;stroke:none;stroke-width:10;stroke-linecap:round;stroke-linejoin:round;stroke-miterlimit:4;stroke-dasharray:none;stroke-dashoffset:0;stroke-opacity:1"
           d="m 29,252.64999 c -1.107998,0 -2,0.892 -2,2 v 5 8.5 c 0,3.601 2.676,6.5 6,6.5 3.324,0 6,-2.899 6,-6.5 v -4.5 -4.5 -6.5 h -6 -1 z"
           id="rect4368-0" />
      </g>
      <path
         id="rect4618"
         d="m -17,263.86428 v 5 6 4 c 0,2.77 2.23,5 5,5 2.77,0 5,-2.23 5,-5 v -4 -6 -5 h -5 z"
         style="opacity:1;vector-effect:none;fill:url(#linearGradient4626);fill-opacity:1;stroke:none;stroke-width:10;stroke-linecap:round;stroke-linejoin:round;stroke-miterlimit:4;stroke-dasharray:none;stroke-dashoffset:0;stroke-opacity:1"
         inkscape:connector-curvature="0" />
      <path
         id="rect4618-7"
         d="m -5,263.86428 v 5 6 4 c 0,2.77 2.23,5 5,5 2.77,0 5,-2.23 5,-5 v -4 -6 -5 H 0 Z"
         style="opacity:1;vector-effect:none;fill:url(#linearGradient4626-62);fill-opacity:1;stroke:none;stroke-width:10;stroke-linecap:round;stroke-linejoin:round;stroke-miterlimit:4;stroke-dasharray:none;stroke-dashoffset:0;stroke-opacity:1"
         inkscape:connector-curvature="0" />
      <path
         id="rect4618-6"
         d="m 7,263.86428 v 5 6 4 c 0,2.77 2.23,5 5,5 2.77,0 5,-2.23 5,-5 v -4 -6 -5 h -5 z"
         style="opacity:1;vector-effect:none;fill:url(#linearGradient4626-2);fill-opacity:1;stroke:none;stroke-width:10;stroke-linecap:round;stroke-linejoin:round;stroke-miterlimit:4;stroke-dasharray:none;stroke-dashoffset:0;stroke-opacity:1"
         inkscape:connector-curvature="0" />
      <path
         sodipodi:nodetypes="cccssscccccc"
         id="rect4618-8"
         d="m 19,263.86428 v 5 6 4 c 0,2.77 2.23,5 5,5 2.77,0 5,-2.23 5,-5 v -4 -6 -4 c 0,0 0.0037,-1 -1,-1 h -4 z"
         style="opacity:1;vector-effect:none;fill:url(#linearGradient4626-29);fill-opacity:1;stroke:none;stroke-width:10;stroke-linecap:round;stroke-linejoin:round;stroke-miterlimit:4;stroke-dasharray:none;stroke-dashoffset:0;stroke-opacity:1"
         inkscape:connector-curvature="0" />
      <path
         sodipodi:nodetypes="cccssscccccc"
         id="rect4618-8-1"
         d="m -19,263.86428 v 5 6 4 c 0,2.77 -2.23,5 -5,5 -2.77,0 -5,-2.23 -5,-5 v -4 -6 -4 c 0,0 -0.0037,-1 1,-1 h 4 z"
         style="opacity:1;vector-effect:none;fill:url(#linearGradient4626-29-1);fill-opacity:1;stroke:none;stroke-width:10;stroke-linecap:round;stroke-linejoin:round;stroke-miterlimit:4;stroke-dasharray:none;stroke-dashoffset:0;stroke-opacity:1"
         inkscape:connector-curvature="0" />
    </g>
  </g>
</svg>
