<?xml version="1.0" encoding="UTF-8" standalone="no"?>
<!-- Created with Inkscape (http://www.inkscape.org/) -->

<svg
   xmlns:dc="http://purl.org/dc/elements/1.1/"
   xmlns:cc="http://creativecommons.org/ns#"
   xmlns:rdf="http://www.w3.org/1999/02/22-rdf-syntax-ns#"
   xmlns:svg="http://www.w3.org/2000/svg"
   xmlns="http://www.w3.org/2000/svg"
   xmlns:xlink="http://www.w3.org/1999/xlink"
   xmlns:sodipodi="http://sodipodi.sourceforge.net/DTD/sodipodi-0.dtd"
   xmlns:inkscape="http://www.inkscape.org/namespaces/inkscape"
   width="64"
   height="64"
   viewBox="0 0 64 64"
   version="1.1"
   id="svg8"
   inkscape:version="0.92.2 2405546, 2018-03-11"
   sodipodi:docname="yast-disk.svg">
  <title
     id="title7895">Antu icon Theme</title>
  <defs
     id="defs2">
    <linearGradient
       inkscape:collect="always"
       xlink:href="#linearGradient4506"
       id="linearGradient5894"
       x1="-8"
       y1="314.64999"
       x2="-8.0000038"
       y2="305.64996"
       gradientUnits="userSpaceOnUse"
       gradientTransform="translate(7.9999998,4)" />
    <linearGradient
       inkscape:collect="always"
       id="linearGradient4506">
      <stop
         style="stop-color:#252a34;stop-opacity:1"
         offset="0"
         id="stop4502" />
      <stop
         style="stop-color:#353d4b;stop-opacity:1"
         offset="1"
         id="stop4504" />
    </linearGradient>
    <linearGradient
       gradientTransform="translate(7.9999998,4)"
       inkscape:collect="always"
       xlink:href="#linearGradient1378"
       id="linearGradient5886"
       x1="-8"
       y1="306.64999"
       x2="-8"
       y2="258.64999"
       gradientUnits="userSpaceOnUse" />
    <linearGradient
       id="linearGradient1378"
       inkscape:collect="always">
      <stop
         id="stop1374"
         offset="0"
         style="stop-color:#cbcccc;stop-opacity:1" />
      <stop
         id="stop1376"
         offset="1"
         style="stop-color:#e5e6e6;stop-opacity:1" />
    </linearGradient>
    <linearGradient
       inkscape:collect="always"
       xlink:href="#linearGradient825"
       id="linearGradient6026"
       x1="14"
       y1="313.64999"
       x2="14"
       y2="312.64999"
       gradientUnits="userSpaceOnUse"
       gradientTransform="translate(8.9999998,4)" />
    <linearGradient
       inkscape:collect="always"
       id="linearGradient825">
      <stop
         style="stop-color:#1f996a;stop-opacity:1"
         offset="0"
         id="stop821" />
      <stop
         style="stop-color:#24b27b;stop-opacity:1"
         offset="1"
         id="stop823" />
    </linearGradient>
    <linearGradient
       gradientTransform="translate(-32,258.64999)"
       inkscape:collect="always"
       xlink:href="#linearGradient4627"
       id="linearGradient6018"
       x1="32"
       y1="62"
       x2="32"
       y2="59"
       gradientUnits="userSpaceOnUse" />
    <linearGradient
       inkscape:collect="always"
       id="linearGradient4627">
      <stop
         style="stop-color:#ffc900;stop-opacity:1"
         offset="0"
         id="stop4623" />
      <stop
         style="stop-color:#ffe200;stop-opacity:1"
         offset="1"
         id="stop4625" />
    </linearGradient>
  </defs>
  <sodipodi:namedview
     id="base"
     pagecolor="#ffffff"
     bordercolor="#666666"
     borderopacity="1.0"
     inkscape:pageopacity="0.0"
     inkscape:pageshadow="2"
     inkscape:zoom="1"
     inkscape:cx="92.530166"
     inkscape:cy="100.83018"
     inkscape:document-units="px"
     inkscape:current-layer="layer1"
     showgrid="true"
     units="px"
     inkscape:window-width="1360"
     inkscape:window-height="711"
     inkscape:window-x="0"
     inkscape:window-y="28"
     inkscape:window-maximized="1"
     objecttolerance="10"
     gridtolerance="10"
     guidetolerance="10"
     inkscape:snap-bbox="true"
     inkscape:bbox-paths="true"
     inkscape:bbox-nodes="true"
     inkscape:snap-bbox-edge-midpoints="true"
     inkscape:snap-bbox-midpoints="true"
     inkscape:object-paths="true"
     inkscape:snap-intersection-paths="true"
     inkscape:showpageshadow="false">
    <inkscape:grid
       type="xygrid"
       id="grid7897"
       empspacing="4" />
  </sodipodi:namedview>
  <metadata
     id="metadata5">
    <rdf:RDF>
      <cc:Work
         rdf:about="">
        <dc:format>image/svg+xml</dc:format>
        <dc:type
           rdf:resource="http://purl.org/dc/dcmitype/StillImage" />
        <dc:title>Antu icon Theme</dc:title>
      </cc:Work>
    </rdf:RDF>
  </metadata>
  <g
     inkscape:label="Capa 1"
     inkscape:groupmode="layer"
     id="layer1"
     transform="translate(0,-250.64999)">
    <g
       id="g6731"
       transform="translate(32,-7.999995)">
      <path
         id="rect5708"
         d="M -24.000004,308.64999 H 24 c 1.662,0 3,1.338 3,3 v 5.99999 c 0,1.662 -1.338,3 -3,3 h -48.000004 c -1.662,0 -3,-1.338 -3,-3 v -5.99999 c 0,-1.662 1.338,-3 3,-3 z"
         style="opacity:0.98999999;vector-effect:none;fill:#02070c;fill-opacity:0.98039216;stroke:none;stroke-width:2;stroke-linecap:round;stroke-linejoin:round;stroke-miterlimit:4;stroke-dasharray:none;stroke-dashoffset:0;stroke-opacity:1"
         inkscape:connector-curvature="0" />
      <path
         id="rect5710"
         d="m -24,309.64999 c -1.108,0 -2,0.892 -2,2 v 6 c 0,1.108 0.892,2 2,2 h 1 v -1 -2 c -0.0088,-0.55393 0.446,-1 1,-1 h 40 c 0.554,0 1,0.446 1,1 v 2 1 h 5 c 1.108,0 2,-0.892 2,-2 v -6 c 0,-1.108 -0.892,-2 -2,-2 z m 2,7 v 3 h 2 v -2 H 5.9999998 v 2 h 2 v -3 z m 30.9999998,0 v 3 h 1 v -2 H 13 h 1 3 v 2 h 1 v -3 z"
         style="opacity:0.98999999;vector-effect:none;fill:url(#linearGradient5894);fill-opacity:1;stroke:none;stroke-width:2;stroke-linecap:round;stroke-linejoin:round;stroke-miterlimit:4;stroke-dasharray:none;stroke-dashoffset:0;stroke-opacity:1"
         inkscape:connector-curvature="0" />
      <path
         sodipodi:nodetypes="sssssssss"
         inkscape:connector-curvature="0"
         id="rect5470"
         d="m -24,260.64999 h 48 c 1.662,0 3,1.33799 3,3 v 47 c 0,1.66201 -1.338,3 -3,3 h -48 c -1.662,0 -3,-1.33799 -3,-3 v -47 c 0,-1.66201 1.338,-3 3,-3 z"
         style="opacity:0.98999999;vector-effect:none;fill:#8b8c8c;fill-opacity:1;stroke:none;stroke-width:2;stroke-linecap:round;stroke-linejoin:round;stroke-miterlimit:4;stroke-dasharray:none;stroke-dashoffset:0;stroke-opacity:1" />
      <path
         sodipodi:nodetypes="sssssssss"
         inkscape:connector-curvature="0"
         id="rect5472"
         d="m -24,261.64999 h 48 c 1.108,0 2,0.892 2,2 v 47 c 0,1.108 -0.892,2 -2,2 h -48 c -1.108,0 -2,-0.892 -2,-2 v -47 c 0,-1.108 0.892,-2 2,-2 z"
         style="opacity:0.98999999;vector-effect:none;fill:url(#linearGradient5886);fill-opacity:1;stroke:none;stroke-width:2;stroke-linecap:round;stroke-linejoin:round;stroke-miterlimit:4;stroke-dasharray:none;stroke-dashoffset:0;stroke-opacity:1" />
      <path
         id="rect5896"
         d="m -22.5,263.64999 c 0.831,0 1.5,0.66899 1.5,1.5 0,0.831 -0.669,1.5 -1.5,1.5 -0.831,0 -1.5,-0.669 -1.5,-1.5 0,-0.83101 0.669,-1.5 1.5,-1.5 z"
         style="opacity:0.98999999;vector-effect:none;fill:#8b8c8c;fill-opacity:1;stroke:none;stroke-width:1.5;stroke-linecap:round;stroke-linejoin:round;stroke-miterlimit:4;stroke-dasharray:none;stroke-dashoffset:0;stroke-opacity:1"
         inkscape:connector-curvature="0" />
      <path
         id="rect5896-3"
         d="m -22.5,307.64999 c 0.831,0 1.5,0.669 1.5,1.5 0,0.831 -0.669,1.5 -1.5,1.5 -0.831,0 -1.5,-0.669 -1.5,-1.5 0,-0.831 0.669,-1.5 1.5,-1.5 z"
         style="opacity:0.98999999;vector-effect:none;fill:#8b8c8c;fill-opacity:1;stroke:none;stroke-width:1.5;stroke-linecap:round;stroke-linejoin:round;stroke-miterlimit:4;stroke-dasharray:none;stroke-dashoffset:0;stroke-opacity:1"
         inkscape:connector-curvature="0" />
      <path
         id="rect5896-9"
         d="m 22.5,263.64999 c 0.831,0 1.5,0.66899 1.5,1.5 0,0.831 -0.669,1.5 -1.5,1.5 -0.831,0 -1.5,-0.669 -1.5,-1.5 0,-0.83101 0.669,-1.5 1.5,-1.5 z"
         style="opacity:0.98999999;vector-effect:none;fill:#8b8c8c;fill-opacity:1;stroke:none;stroke-width:1.5;stroke-linecap:round;stroke-linejoin:round;stroke-miterlimit:4;stroke-dasharray:none;stroke-dashoffset:0;stroke-opacity:1"
         inkscape:connector-curvature="0" />
      <path
         id="rect5896-3-1"
         d="m 22.5,307.64999 c 0.831,0 1.5,0.669 1.5,1.5 0,0.831 -0.669,1.5 -1.5,1.5 -0.831,0 -1.5,-0.669 -1.5,-1.5 0,-0.831 0.669,-1.5 1.5,-1.5 z"
         style="opacity:0.98999999;vector-effect:none;fill:#8b8c8c;fill-opacity:1;stroke:none;stroke-width:1.5;stroke-linecap:round;stroke-linejoin:round;stroke-miterlimit:4;stroke-dasharray:none;stroke-dashoffset:0;stroke-opacity:1"
         inkscape:connector-curvature="0" />
      <path
         id="rect5931"
         d="M -15,267.64999 H -1.9933659e-7 v 5 H -15 Z"
         style="opacity:0.98999999;vector-effect:none;fill:#088250;fill-opacity:1;stroke:none;stroke-width:2;stroke-linecap:round;stroke-linejoin:round;stroke-miterlimit:4;stroke-dasharray:none;stroke-dashoffset:0;stroke-opacity:1"
         inkscape:connector-curvature="0" />
      <path
         id="rect5933"
         d="m -14,268.64999 h 12.9999998 v 3 H -14 Z"
         style="opacity:0.98999999;vector-effect:none;fill:#22b27b;fill-opacity:1;stroke:none;stroke-width:2;stroke-linecap:round;stroke-linejoin:round;stroke-miterlimit:4;stroke-dasharray:none;stroke-dashoffset:0;stroke-opacity:1"
         inkscape:connector-curvature="0" />
      <path
         id="rect5935"
         d="m -13,269.64999 h 3 v 1 h -3 z"
         style="opacity:0.98999999;vector-effect:none;fill:#052e1d;fill-opacity:1;stroke:none;stroke-width:2;stroke-linecap:round;stroke-linejoin:round;stroke-miterlimit:4;stroke-dasharray:none;stroke-dashoffset:0;stroke-opacity:1"
         inkscape:connector-curvature="0" />
      <path
         id="rect5937"
         d="m -9.0000002,269.64999 h 1 v 1 h -1 z"
         style="opacity:0.98999999;vector-effect:none;fill:#052e1d;fill-opacity:1;stroke:none;stroke-width:2;stroke-linecap:round;stroke-linejoin:round;stroke-miterlimit:4;stroke-dasharray:none;stroke-dashoffset:0;stroke-opacity:1"
         inkscape:connector-curvature="0" />
      <path
         id="rect5939"
         d="m -7.0000002,269.64999 h 1 v 1 h -1 z"
         style="opacity:0.98999999;vector-effect:none;fill:#052e1d;fill-opacity:1;stroke:none;stroke-width:2;stroke-linecap:round;stroke-linejoin:round;stroke-miterlimit:4;stroke-dasharray:none;stroke-dashoffset:0;stroke-opacity:1"
         inkscape:connector-curvature="0" />
      <path
         id="rect5941"
         d="m -5.0000002,269.64999 h 2 v 1 h -2 z"
         style="opacity:0.98999999;vector-effect:none;fill:#052e1d;fill-opacity:1;stroke:none;stroke-width:2;stroke-linecap:round;stroke-linejoin:round;stroke-miterlimit:4;stroke-dasharray:none;stroke-dashoffset:0;stroke-opacity:1"
         inkscape:connector-curvature="0" />
      <path
         inkscape:connector-curvature="0"
         id="rect5943"
         d="m 22.5,315.64999 c -0.831,0 -1.5,0.669 -1.5,1.5 0,0.831 0.669,1.5 1.5,1.5 0.831,0 1.5,-0.669 1.5,-1.5 0,-0.831 -0.669,-1.5 -1.5,-1.5 z"
         style="opacity:0.98999999;vector-effect:none;fill:url(#linearGradient6026);fill-opacity:1;stroke:none;stroke-width:2;stroke-linecap:round;stroke-linejoin:round;stroke-miterlimit:4;stroke-dasharray:none;stroke-dashoffset:0;stroke-opacity:1" />
      <path
         id="rect5962"
         d="m -19,318.64999 v 1 h 4 v -1 z m 5,0 v 1 h 4 v -1 z m 4.9999998,0 v 1 h 4 v -1 z m 5,0 v 1 H -1.9933659e-7 v -1 z m 5,0 v 1 h 4 v -1 z m 10.0000002,0 v 1 h 1 v -1 z m 2,0 v 1 h 1 v -1 z m 2,0 v 1 h 1 v -1 z"
         style="opacity:0.98999999;vector-effect:none;fill:url(#linearGradient6018);fill-opacity:1;stroke:none;stroke-width:2;stroke-linecap:round;stroke-linejoin:round;stroke-miterlimit:4;stroke-dasharray:none;stroke-dashoffset:0;stroke-opacity:1"
         inkscape:connector-curvature="0" />
      <path
         style="opacity:0.98999999;vector-effect:none;fill:#8b8c8c;fill-opacity:1;stroke:none;stroke-width:1.5;stroke-linecap:round;stroke-linejoin:round;stroke-miterlimit:4;stroke-dasharray:none;stroke-dashoffset:0;stroke-opacity:1"
         d="m -22.5,285.64999 c -0.831,0 -1.5,0.66899 -1.5,1.5 0,0.831 0.669,1.5 1.5,1.5 0.831,0 1.5,-0.669 1.5,-1.5 0,-0.83101 -0.669,-1.5 -1.5,-1.5 z m 45,0 c -0.831,0 -1.5,0.66899 -1.5,1.5 -1e-6,0.831 0.669,1.5 1.5,1.5 0.831,0 1.5,-0.669 1.5,-1.5 0,-0.83101 -0.669,-1.5 -1.5,-1.5 z"
         id="rect5896-36"
         inkscape:connector-curvature="0" />
    </g>
    <g
       id="g1094"
       transform="translate(0,-9.9999429)">
      <rect
         ry="0"
         y="276.64999"
         x="17"
         height="23.999996"
         width="30"
         id="rect4201-3"
         style="opacity:1;fill:#a9aaaa;fill-opacity:1;stroke:none;stroke-width:2;stroke-linecap:round;stroke-linejoin:round;stroke-miterlimit:4;stroke-dasharray:none;stroke-opacity:1" />
      <rect
         ry="0"
         y="277.64993"
         x="18"
         height="22.000053"
         width="28"
         id="rect4201"
         style="opacity:1;fill:#fafafa;fill-opacity:1;stroke:none;stroke-width:2;stroke-linecap:round;stroke-linejoin:round;stroke-miterlimit:4;stroke-dasharray:none;stroke-opacity:1" />
      <g
         inkscape:label="Capa 1"
         id="layer1-2"
         transform="translate(-42.928571,-19.928571)">
        <g
           id="g1591"
           transform="translate(36,12)">
          <path
             id="path1066"
             transform="translate(6.928571,258.57856)"
             d="m 20,29 v 7 h 8 8 v -7 h -8 z"
             style="opacity:1;fill:#fdd835;fill-opacity:1;stroke:none;stroke-width:6;stroke-linecap:round;stroke-linejoin:round;stroke-miterlimit:4;stroke-dasharray:none;stroke-dashoffset:0;stroke-opacity:1;paint-order:stroke markers fill"
             inkscape:connector-curvature="0" />
          <path
             id="path1064"
             transform="translate(6.928571,258.57856)"
             d="m 21,30 v 1 h 5 v -1 z m 6,0 v 1 h 4 v -1 z m 5,0 v 1 1 1 1 1 h 3 v -1 -1 -1 -1 -1 z m -11,2 v 1 h 2 v -1 z m 3,0 v 1 h 2 v -1 z m 3,0 v 1 h 1 v -1 z m 2,0 v 1 h 2 v -1 z m -8,2 v 1 h 5 v -1 z m 6,0 v 1 h 2 v -1 z m 3,0 v 1 h 1 v -1 z"
             style="opacity:1;fill:#242833;fill-opacity:1;stroke:none;stroke-width:6;stroke-linecap:round;stroke-linejoin:round;stroke-miterlimit:4;stroke-dasharray:none;stroke-dashoffset:0;stroke-opacity:1;paint-order:stroke markers fill"
             inkscape:connector-curvature="0" />
          <path
             id="rect883-2-7"
             transform="translate(6.928571,258.57856)"
             d="m 20,44 v 3 h 1 v -3 z m 2,0 v 3 h 2 v -3 z m 3,0 v 3 h 1 v -3 z m 2,0 v 3 h 2 v -3 z m 3,0 v 3 h 2 v -3 z m 3,0 v 3 h 1 v -3 z m 2,0 v 3 h 1 v -3 z m 2,0 v 3 h 2 v -3 z m 3,0 v 3 h 1 v -3 z m 2,0 v 3 h 2 v -3 z"
             style="opacity:1;fill:#242833;fill-opacity:1;stroke:none;stroke-width:6;stroke-linecap:round;stroke-linejoin:round;stroke-miterlimit:4;stroke-dasharray:none;stroke-dashoffset:0;stroke-opacity:1;paint-order:stroke markers fill"
             inkscape:connector-curvature="0" />
          <path
             sodipodi:nodetypes="cccccccccccccccccccc"
             inkscape:connector-curvature="0"
             id="rect877-3-0"
             d="m 50.928571,287.57856 v 1 h -6 v -1 z m 0,2 v 1 h -2 v -1 z m 0,2 v 1 h -4 v -1 z m 0,2 v 1 h -1 v -1 z"
             style="opacity:1;fill:#242833;fill-opacity:1;stroke:none;stroke-width:6;stroke-linecap:round;stroke-linejoin:round;stroke-miterlimit:4;stroke-dasharray:none;stroke-dashoffset:0;stroke-opacity:1;paint-order:stroke markers fill" />
        </g>
      </g>
    </g>
  </g>
</svg>
