<?xml version="1.0" encoding="UTF-8" standalone="no"?>
<!-- Created with Inkscape (http://www.inkscape.org/) -->

<svg
   xmlns:dc="http://purl.org/dc/elements/1.1/"
   xmlns:cc="http://creativecommons.org/ns#"
   xmlns:rdf="http://www.w3.org/1999/02/22-rdf-syntax-ns#"
   xmlns:svg="http://www.w3.org/2000/svg"
   xmlns="http://www.w3.org/2000/svg"
   xmlns:xlink="http://www.w3.org/1999/xlink"
   xmlns:sodipodi="http://sodipodi.sourceforge.net/DTD/sodipodi-0.dtd"
   xmlns:inkscape="http://www.inkscape.org/namespaces/inkscape"
   width="64"
   height="64"
   viewBox="0 0 64 64"
   version="1.1"
   id="svg8"
   inkscape:version="0.92.2 2405546, 2018-03-11"
   sodipodi:docname="yast-support.svg">
  <title
     id="title7895">Antu icon Theme</title>
  <defs
     id="defs2">
    <linearGradient
       gradientTransform="matrix(3.7795275,0,0,3.7795275,-40,-801.94114)"
       inkscape:collect="always"
       xlink:href="#linearGradient825"
       id="linearGradient4616"
       x1="7.4083333"
       y1="295.14792"
       x2="7.4083333"
       y2="283.50626"
       gradientUnits="userSpaceOnUse" />
    <linearGradient
       inkscape:collect="always"
       id="linearGradient825">
      <stop
         style="stop-color:#1f996a;stop-opacity:1"
         offset="0"
         id="stop821" />
      <stop
         style="stop-color:#24b27b;stop-opacity:1"
         offset="1"
         id="stop823" />
    </linearGradient>
  </defs>
  <sodipodi:namedview
     id="base"
     pagecolor="#ffffff"
     bordercolor="#666666"
     borderopacity="1.0"
     inkscape:pageopacity="0.0"
     inkscape:pageshadow="2"
     inkscape:zoom="5.6"
     inkscape:cx="-4.9041006"
     inkscape:cy="32.573541"
     inkscape:document-units="px"
     inkscape:current-layer="layer1"
     showgrid="true"
     units="px"
     inkscape:window-width="1360"
     inkscape:window-height="711"
     inkscape:window-x="0"
     inkscape:window-y="28"
     inkscape:window-maximized="1"
     objecttolerance="10"
     gridtolerance="10"
     guidetolerance="10"
     inkscape:snap-bbox="true"
     inkscape:bbox-paths="true"
     inkscape:bbox-nodes="true"
     inkscape:snap-bbox-edge-midpoints="true"
     inkscape:snap-bbox-midpoints="true"
     inkscape:object-paths="true"
     inkscape:snap-intersection-paths="true"
     inkscape:showpageshadow="false">
    <inkscape:grid
       type="xygrid"
       id="grid7897"
       empspacing="4" />
  </sodipodi:namedview>
  <metadata
     id="metadata5">
    <rdf:RDF>
      <cc:Work
         rdf:about="">
        <dc:format>image/svg+xml</dc:format>
        <dc:type
           rdf:resource="http://purl.org/dc/dcmitype/StillImage" />
        <dc:title>Antu icon Theme</dc:title>
      </cc:Work>
    </rdf:RDF>
  </metadata>
  <g
     inkscape:label="Capa 1"
     inkscape:groupmode="layer"
     id="layer1"
     transform="translate(0,-250.64999)">
    <g
       id="g3985"
       transform="translate(40,-5.92857)">
      <path
         inkscape:connector-curvature="0"
         style="opacity:1;fill:#00663c;fill-opacity:1;stroke:none;stroke-width:0.45000011;stroke-miterlimit:4;stroke-dasharray:none;stroke-opacity:1"
         d="m -8,258.57856 c 16.62,0 29.999999,13.37998 29.999999,30 0,16.61998 -13.379999,30 -29.999999,30 -16.619999,0 -29.999999,-13.38002 -29.999999,-30 0,-16.62002 13.38,-30 29.999999,-30 z"
         id="rect4593" />
      <path
         inkscape:connector-curvature="0"
         style="opacity:1;fill:url(#linearGradient4616);fill-opacity:1;stroke:none;stroke-width:0.43500012;stroke-miterlimit:4;stroke-dasharray:none;stroke-opacity:1"
         d="m -8,259.57855 c 16.066,0 29.000001,12.93399 29.000001,29.00001 0,16.06601 -12.934001,29.00001 -29.000001,29.00001 -16.066,0 -29,-12.934 -29,-29.00001 0,-16.06602 12.934,-29.00001 29,-29.00001 z"
         id="rect4593-5" />
      <path
         style="opacity:1;fill:#00663c;fill-opacity:1;stroke:none;stroke-width:2;stroke-linecap:round;stroke-linejoin:round;stroke-miterlimit:4;stroke-dasharray:none;stroke-dashoffset:0;stroke-opacity:1"
         d="m -8,273.57856 c -2.215998,0 -4,1.784 -4,4 0,2.216 1.784002,4 4,4 2.215998,0 4,-1.784 4,-4 0,-2.216 -1.784002,-4 -4,-4 z m 0,12 c -2.216,0 -4,1.784 -4,4 v 12 c 0,2.216 1.784,4 4,4 2.216,0 4,-1.784 4,-4 v -12 c 0,-2.216 -1.784,-4 -4,-4 z"
         id="rect4166"
         inkscape:connector-curvature="0" />
      <path
         inkscape:connector-curvature="0"
         style="opacity:1;fill:#f8fefa;fill-opacity:1;stroke:none;stroke-width:2;stroke-linecap:round;stroke-linejoin:round;stroke-miterlimit:4;stroke-dasharray:none;stroke-dashoffset:0;stroke-opacity:1"
         d="m -8,272.57856 c -2.215998,0 -4,1.784 -4,4 0,2.216 1.784002,4 4,4 2.215998,0 4,-1.784 4,-4 0,-2.216 -1.784002,-4 -4,-4 z m 0,12 c -2.216,0 -4,1.784 -4,4 v 12 c 0,2.216 1.784,4 4,4 2.216,0 4,-1.784 4,-4 v -12 c 0,-2.216 -1.784,-4 -4,-4 z"
         id="rect4166-3" />
    </g>
  </g>
</svg>
