<?xml version="1.0" encoding="UTF-8" standalone="no"?>
<!-- Created with Inkscape (http://www.inkscape.org/) -->

<svg
   width="96"
   height="96"
   viewBox="0 0 25.399999 25.4"
   version="1.1"
   id="svg5"
   xml:space="preserve"
   inkscape:version="1.2 (dc2aedaf03, 2022-05-15)"
   sodipodi:docname="elementaryos.svg"
   xmlns:inkscape="http://www.inkscape.org/namespaces/inkscape"
   xmlns:sodipodi="http://sodipodi.sourceforge.net/DTD/sodipodi-0.dtd"
   xmlns:xlink="http://www.w3.org/1999/xlink"
   xmlns="http://www.w3.org/2000/svg"
   xmlns:svg="http://www.w3.org/2000/svg"><sodipodi:namedview
     id="namedview7"
     pagecolor="#ffffff"
     bordercolor="#000000"
     borderopacity="0.25"
     inkscape:showpageshadow="false"
     inkscape:pageopacity="0.0"
     inkscape:pagecheckerboard="0"
     inkscape:deskcolor="#d1d1d1"
     inkscape:document-units="px"
     showgrid="true"
     inkscape:zoom="2.7786457"
     inkscape:cx="203.33646"
     inkscape:cy="105.26711"
     inkscape:window-width="2160"
     inkscape:window-height="1335"
     inkscape:window-x="0"
     inkscape:window-y="0"
     inkscape:window-maximized="1"
     inkscape:current-layer="layer1-6"><inkscape:grid
       type="xygrid"
       id="grid497" /></sodipodi:namedview><defs
     id="defs2"><linearGradient
       inkscape:collect="always"
       id="linearGradient1087"><stop
         style="stop-color:#3b9be7;stop-opacity:1;"
         offset="0"
         id="stop1083" /><stop
         style="stop-color:#5dc5eb;stop-opacity:1;"
         offset="1"
         id="stop1085" /></linearGradient><style
       type="text/css"
       id="current-color-scheme">
      .ColorScheme-Text {
        color:#122036;
      }
      </style><style
       id="current-color-scheme-75"
       type="text/css">
      .ColorScheme-Text {
        color:#122036;
      }
      </style><style
       id="current-color-scheme-7"
       type="text/css">
      .ColorScheme-Text {
        color:#122036;
      }
      </style><linearGradient
       inkscape:collect="always"
       xlink:href="#linearGradient1087"
       id="linearGradient1089"
       x1="39.333332"
       y1="403.64999"
       x2="39.333332"
       y2="346.98334"
       gradientUnits="userSpaceOnUse"
       gradientTransform="translate(-6,-93.00001)" /></defs><g
     inkscape:label="Capa 1"
     inkscape:groupmode="layer"
     id="layer1"><g
       inkscape:label="Capa 1"
       id="layer1-6"
       transform="matrix(0.39687499,0,0,0.39687499,6.9999996e-8,-99.476712)"><g
         id="path640"
         transform="translate(-6,-93.00001)" /><path
         id="rect312"
         style="fill:#1c71a7;fill-opacity:1;stroke-width:1.22666;stroke-linecap:round;stroke-linejoin:round;stroke-miterlimit:1.8;paint-order:fill markers stroke;stop-color:#000000"
         d="m 32,251.98333 c 16.989333,0 30.666666,13.67733 30.666666,30.66666 0,16.98934 -13.677333,30.66667 -30.666666,30.66667 -16.989333,0 -30.666666,-13.67733 -30.666666,-30.66667 0,-16.98933 13.677333,-30.66666 30.666666,-30.66666 z" /><path
         id="rect312-3"
         style="fill:url(#linearGradient1089);fill-opacity:1;stroke-width:1.19999;stroke-linecap:round;stroke-linejoin:round;stroke-miterlimit:1.8;paint-order:fill markers stroke;stop-color:#000000"
         d="m 32,252.64998 c 16.62,0 30,13.38 30,30 0,16.62 -13.38,30 -30,30 -16.62,0 -30,-13.38 -30,-30 0,-16.62 13.38,-30 30,-30 z" /><g
         transform="translate(-6,-93.00001)"
         id="g1529" /><path
         inkscape:connector-curvature="0"
         style="color:#000000;display:inline;overflow:visible;visibility:visible;fill:#1c71a7;fill-opacity:1;fill-rule:nonzero;stroke:none;stroke-width:0.561405;marker:none;enable-background:accumulate"
         id="path2993-5-6"
         d="m 32.000005,261.98332 c -11.78208,0 -21.33334,9.55127 -21.33334,21.33335 0,11.78209 9.55126,21.33334 21.33334,21.33334 11.78207,0 21.33333,-9.55125 21.33333,-21.33334 0,-11.78208 -9.55126,-21.33335 -21.33333,-21.33335 z m 0,1.77778 c 8.95768,0 16.50871,6.02301 18.82444,14.24001 -1.99453,4.11393 -4.83261,7.81795 -8.28888,10.81112 -1.66037,1.43786 -3.47313,2.71969 -5.47556,3.62222 -2.00243,0.90252 -4.20496,1.41464 -6.39778,1.28889 -1.64752,-0.0943 -3.27499,-0.55342 -4.71778,-1.35332 3.82365,-2.07191 7.27367,-4.8344 10.09778,-8.14225 1.85369,-2.17122 3.47553,-4.63871 4.1,-7.42444 0.31223,-1.39288 0.36515,-2.85162 0.0733,-4.24892 -0.29181,-1.39728 -0.93785,-2.72885 -1.91554,-3.76887 -0.95516,-1.01604 -2.20904,-1.73583 -3.55334,-2.10671 -1.3443,-0.37082 -2.77487,-0.39956 -4.14667,-0.14898 -2.74359,0.50137 -5.19313,2.09592 -7.15777,4.07555 -3.46298,3.48936 -5.60382,8.41295 -5.21111,13.31335 0.19635,2.45019 1.01744,4.85783 2.42444,6.87333 0.31406,0.44985 0.65933,0.87842 1.02889,1.28444 -2.0497,0.71733 -4.172006,1.22796 -6.324449,1.51556 -1.848024,-2.98614 -2.915557,-6.50578 -2.915557,-10.27558 0,-10.80023 8.755316,-19.55555 19.555556,-19.55555 z m 0.12444,3.95111 c 1.37468,0.002 2.7587,0.41805 3.85556,1.24667 0.98821,0.74656 1.72046,1.80867 2.13555,2.97556 0.4151,1.16689 0.52163,2.43404 0.38,3.66444 -0.28324,2.46079 -1.52465,4.71753 -3.02444,6.6889 -2.65558,3.49054 -6.18537,6.2843 -10.11112,8.24001 -0.40183,0.20009 -0.81003,0.39043 -1.22,0.57332 -0.85421,-0.74751 -1.58635,-1.63413 -2.14444,-2.62225 -1.16613,-2.06466 -1.55069,-4.51732 -1.32445,-6.87777 0.22625,-2.36042 1.03629,-4.63538 2.12445,-6.7422 1.26167,-2.44281 2.98143,-4.75662 5.38889,-6.08446 1.20373,-0.6639 2.56532,-1.06407 3.94,-1.06222 z m 19.25556,12.98667 c 0.11458,0.85638 0.17555,1.73008 0.17555,2.61779 0,10.80023 -8.75532,19.55556 -19.55556,19.55556 -6.06552,0 -11.48642,-2.76125 -15.073335,-7.09556 2.213945,-0.50284 4.377815,-1.22513 6.453335,-2.14445 0.90765,0.69127 1.91003,1.25818 2.97556,1.66667 3.06852,1.17642 6.55231,1.00618 9.65778,-0.0689 3.10547,-1.07508 5.85932,-3.00472 8.26,-5.24888 2.85983,-2.67344 5.27104,-5.82451 7.10667,-9.28225 z" /><path
         inkscape:connector-curvature="0"
         style="color:#000000;display:inline;overflow:visible;visibility:visible;fill:#eff9fd;fill-opacity:1;fill-rule:nonzero;stroke:none;stroke-width:0.561405;marker:none;enable-background:accumulate"
         id="path2993-5"
         d="m 32.000005,261.31664 c -11.78208,0 -21.33334,9.55127 -21.33334,21.33335 0,11.78209 9.55126,21.33334 21.33334,21.33334 11.78207,0 21.33333,-9.55125 21.33333,-21.33334 0,-11.78208 -9.55126,-21.33335 -21.33333,-21.33335 z m 0,1.77778 c 8.95768,0 16.50871,6.02301 18.82444,14.24001 -1.99453,4.11393 -4.83261,7.81795 -8.28888,10.81112 -1.66037,1.43786 -3.47313,2.71969 -5.47556,3.62222 -2.00243,0.90252 -4.20496,1.41464 -6.39778,1.28889 -1.64752,-0.0943 -3.27499,-0.55342 -4.71778,-1.35332 3.82365,-2.07191 7.27367,-4.8344 10.09778,-8.14225 1.85369,-2.17122 3.47553,-4.63871 4.1,-7.42444 0.31223,-1.39288 0.36515,-2.85162 0.0733,-4.24892 -0.29181,-1.39728 -0.93785,-2.72885 -1.91554,-3.76887 -0.95516,-1.01604 -2.20904,-1.73583 -3.55334,-2.10671 -1.3443,-0.37082 -2.77487,-0.39956 -4.14667,-0.14898 -2.74359,0.50137 -5.19313,2.09592 -7.15777,4.07555 -3.46298,3.48936 -5.60382,8.41295 -5.21111,13.31335 0.19635,2.45019 1.01744,4.85783 2.42444,6.87333 0.31406,0.44985 0.65933,0.87842 1.02889,1.28444 -2.0497,0.71733 -4.172006,1.22796 -6.324449,1.51556 -1.848024,-2.98614 -2.915557,-6.50578 -2.915557,-10.27558 0,-10.80023 8.755316,-19.55555 19.555556,-19.55555 z m 0.12444,3.95111 c 1.37468,0.002 2.7587,0.41805 3.85556,1.24667 0.98821,0.74656 1.72046,1.80867 2.13555,2.97556 0.4151,1.16689 0.52163,2.43404 0.38,3.66444 -0.28324,2.46079 -1.52465,4.71753 -3.02444,6.6889 -2.65558,3.49054 -6.18537,6.2843 -10.11112,8.24001 -0.40183,0.20009 -0.81003,0.39043 -1.22,0.57332 -0.85421,-0.74751 -1.58635,-1.63413 -2.14444,-2.62225 -1.16613,-2.06466 -1.55069,-4.51732 -1.32445,-6.87777 0.22625,-2.36042 1.03629,-4.63538 2.12445,-6.7422 1.26167,-2.44281 2.98143,-4.75662 5.38889,-6.08446 1.20373,-0.6639 2.56532,-1.06407 3.94,-1.06222 z m 19.25556,12.98667 c 0.11458,0.85638 0.17555,1.73008 0.17555,2.61779 0,10.80023 -8.75532,19.55556 -19.55556,19.55556 -6.06552,0 -11.48642,-2.76125 -15.073335,-7.09556 2.213945,-0.50284 4.377815,-1.22513 6.453335,-2.14445 0.90765,0.69127 1.91003,1.25818 2.97556,1.66667 3.06852,1.17642 6.55231,1.00618 9.65778,-0.0689 3.10547,-1.07508 5.85932,-3.00472 8.26,-5.24888 2.85983,-2.67344 5.27104,-5.82451 7.10667,-9.28225 z" /></g></g></svg>
