<?xml version="1.0" encoding="UTF-8" standalone="no"?>
<!-- Created with Inkscape (http://www.inkscape.org/) -->

<svg
   width="96"
   height="96"
   viewBox="0 0 25.399999 25.4"
   version="1.1"
   id="svg5"
   xml:space="preserve"
   inkscape:version="1.2 (dc2aedaf03, 2022-05-15)"
   sodipodi:docname="folder-kuyen.svg"
   xmlns:inkscape="http://www.inkscape.org/namespaces/inkscape"
   xmlns:sodipodi="http://sodipodi.sourceforge.net/DTD/sodipodi-0.dtd"
   xmlns:xlink="http://www.w3.org/1999/xlink"
   xmlns="http://www.w3.org/2000/svg"
   xmlns:svg="http://www.w3.org/2000/svg"><sodipodi:namedview
     id="namedview7"
     pagecolor="#ffffff"
     bordercolor="#000000"
     borderopacity="0.25"
     inkscape:showpageshadow="false"
     inkscape:pageopacity="0.0"
     inkscape:pagecheckerboard="0"
     inkscape:deskcolor="#d1d1d1"
     inkscape:document-units="px"
     showgrid="true"
     inkscape:zoom="6.7277216"
     inkscape:cx="66.144235"
     inkscape:cy="52.395153"
     inkscape:window-width="2160"
     inkscape:window-height="1335"
     inkscape:window-x="0"
     inkscape:window-y="0"
     inkscape:window-maximized="1"
     inkscape:current-layer="layer1-7"
     showguides="true"><inkscape:grid
       type="xygrid"
       id="grid497" /><sodipodi:guide
       position="54.504165,9.7895833"
       orientation="0,-1"
       id="guide10581"
       inkscape:locked="false" /></sodipodi:namedview><defs
     id="defs2"><linearGradient
       inkscape:collect="always"
       id="linearGradient4316"><stop
         style="stop-color:#9bd4e3;stop-opacity:1;"
         offset="0"
         id="stop4312" /><stop
         style="stop-color:#f3f9fb;stop-opacity:1;"
         offset="1"
         id="stop4314" /></linearGradient><linearGradient
       inkscape:collect="always"
       id="linearGradient5801"><stop
         style="stop-color:#0d73b7;stop-opacity:1;"
         offset="0"
         id="stop5797" /><stop
         style="stop-color:#0c517e;stop-opacity:1;"
         offset="1"
         id="stop5799" /></linearGradient><linearGradient
       inkscape:collect="always"
       id="linearGradient4750"><stop
         style="stop-color:#0c4a74;stop-opacity:1;"
         offset="0"
         id="stop4746" /><stop
         style="stop-color:#0c6097;stop-opacity:1;"
         offset="1"
         id="stop4748" /></linearGradient><linearGradient
       inkscape:collect="always"
       xlink:href="#linearGradient4750"
       id="linearGradient4752"
       x1="53.333332"
       y1="404.31668"
       x2="53.333332"
       y2="354.98334"
       gradientUnits="userSpaceOnUse"
       gradientTransform="translate(-6,-93.00001)" /><linearGradient
       inkscape:collect="always"
       xlink:href="#linearGradient5801"
       id="linearGradient5803"
       x1="19.333334"
       y1="361.64999"
       x2="19.333334"
       y2="346.98334"
       gradientUnits="userSpaceOnUse"
       gradientTransform="translate(-6,-93.00001)" /><style
       type="text/css"
       id="current-color-scheme">
      .ColorScheme-Text {
        color:#232629;
      }
      .ColorScheme-Highlight {
        color:#3daee9;
      }
      </style><style
       type="text/css"
       id="current-color-scheme-12">
      .ColorScheme-Text {
        color:#122036;
      }
      </style><style
       type="text/css"
       id="current-color-scheme-1">
      .ColorScheme-Text {
        color:#122036;
      }
      </style><style
       id="current-color-scheme-10"
       type="text/css">
      .ColorScheme-Text {
        color:#122036;
      }
      </style><style
       id="current-color-scheme-6"
       type="text/css">
      .ColorScheme-Text {
        color:#122036;
      }
      </style><style
       id="current-color-scheme-1-9"
       type="text/css">
      .ColorScheme-Text {
        color:#122036;
      }
      </style><style
       type="text/css"
       id="current-color-scheme-10-1">
      .ColorScheme-Text {
        color:#122036;
      }
      </style><style
       id="current-color-scheme-56"
       type="text/css">
      .ColorScheme-Text {
        color:#122036;
      }
      </style><style
       id="current-color-scheme-1-91"
       type="text/css">
      .ColorScheme-Text {
        color:#122036;
      }
      </style><style
       type="text/css"
       id="current-color-scheme-10-2">
      .ColorScheme-Text {
        color:#122036;
      }
      </style><style
       type="text/css"
       id="current-color-scheme-5">
      .ColorScheme-Text {
        color:#122036;
      }
      </style><style
       type="text/css"
       id="current-color-scheme-1-2">
      .ColorScheme-Text {
        color:#122036;
      }
      </style><style
       id="current-color-scheme-10-9"
       type="text/css">
      .ColorScheme-Text {
        color:#122036;
      }
      </style><style
       id="current-color-scheme-6-7"
       type="text/css">
      .ColorScheme-Text {
        color:#122036;
      }
      </style><style
       id="current-color-scheme-1-9-0"
       type="text/css">
      .ColorScheme-Text {
        color:#122036;
      }
      </style><style
       type="text/css"
       id="current-color-scheme-10-1-9">
      .ColorScheme-Text {
        color:#122036;
      }
      </style><style
       type="text/css"
       id="current-color-scheme-62">
      .ColorScheme-Text {
        color:#122036;
      }
      </style><style
       type="text/css"
       id="current-color-scheme-1-912">
      .ColorScheme-Text {
        color:#122036;
      }
      </style><style
       id="current-color-scheme-10-7"
       type="text/css">
      .ColorScheme-Text {
        color:#122036;
      }
      </style><style
       id="current-color-scheme-5-0"
       type="text/css">
      .ColorScheme-Text {
        color:#122036;
      }
      </style><style
       id="current-color-scheme-1-2-9"
       type="text/css">
      .ColorScheme-Text {
        color:#122036;
      }
      </style><style
       type="text/css"
       id="current-color-scheme-10-9-3">
      .ColorScheme-Text {
        color:#122036;
      }
      </style><style
       type="text/css"
       id="current-color-scheme-6-6">
      .ColorScheme-Text {
        color:#122036;
      }
      </style><style
       type="text/css"
       id="current-color-scheme-1-9-06">
      .ColorScheme-Text {
        color:#122036;
      }
      </style><style
       id="current-color-scheme-10-1-26"
       type="text/css">
      .ColorScheme-Text {
        color:#122036;
      }
      </style><style
       type="text/css"
       id="current-color-scheme-7">
      .ColorScheme-Text {
        color:#122036;
      }
      </style><style
       type="text/css"
       id="current-color-scheme-1-5">
      .ColorScheme-Text {
        color:#122036;
      }
      </style><style
       id="current-color-scheme-10-3"
       type="text/css">
      .ColorScheme-Text {
        color:#122036;
      }
      </style><style
       id="current-color-scheme-5-5"
       type="text/css">
      .ColorScheme-Text {
        color:#122036;
      }
      </style><style
       id="current-color-scheme-1-2-6"
       type="text/css">
      .ColorScheme-Text {
        color:#122036;
      }
      </style><style
       type="text/css"
       id="current-color-scheme-10-9-2">
      .ColorScheme-Text {
        color:#122036;
      }
      </style><style
       type="text/css"
       id="current-color-scheme-6-9">
      .ColorScheme-Text {
        color:#122036;
      }
      </style><style
       type="text/css"
       id="current-color-scheme-1-9-1">
      .ColorScheme-Text {
        color:#122036;
      }
      </style><style
       id="current-color-scheme-10-1-2"
       type="text/css">
      .ColorScheme-Text {
        color:#122036;
      }
      </style><style
       type="text/css"
       id="current-color-scheme-675">
      .ColorScheme-Text {
        color:#122036;
      }
      </style><style
       id="current-color-scheme-53"
       type="text/css">
      .ColorScheme-Text {
        color:#122036;
      }
      </style><style
       type="text/css"
       id="current-color-scheme-5-35">
      .ColorScheme-Text {
        color:#122036;
      }
      </style><style
       type="text/css"
       id="current-color-scheme-2">
      .ColorScheme-Text {
        color:#122036;
      }
      </style><style
       type="text/css"
       id="current-color-scheme-1-62">
      .ColorScheme-Text {
        color:#122036;
      }
      </style><style
       id="current-color-scheme-10-91"
       type="text/css">
      .ColorScheme-Text {
        color:#122036;
      }
      </style><style
       type="text/css"
       id="current-color-scheme-0">
      .ColorScheme-Text {
        color:#122036;
      }
      </style><style
       type="text/css"
       id="current-color-scheme-26">
      .ColorScheme-Text {
        color:#122036;
      }
      </style><style
       type="text/css"
       id="current-color-scheme-6-2">
      .ColorScheme-Text {
        color:#122036;
      }
      </style><style
       id="current-color-scheme-53-7"
       type="text/css">
      .ColorScheme-Text {
        color:#122036;
      }
      </style><style
       type="text/css"
       id="current-color-scheme-5-5-7">
      .ColorScheme-Text {
        color:#122036;
      }
      </style><style
       type="text/css"
       id="current-color-scheme-2-3">
      .ColorScheme-Text {
        color:#122036;
      }
      </style><style
       type="text/css"
       id="current-color-scheme-1-5-0">
      .ColorScheme-Text {
        color:#122036;
      }
      </style><style
       id="current-color-scheme-10-6"
       type="text/css">
      .ColorScheme-Text {
        color:#122036;
      }
      </style><style
       type="text/css"
       id="current-color-scheme-0-2">
      .ColorScheme-Text {
        color:#122036;
      }
      </style><style
       type="text/css"
       id="current-color-scheme-75">
      .ColorScheme-Text {
        color:#122036;
      }
      </style><style
       id="current-color-scheme-53-3"
       type="text/css">
      .ColorScheme-Text {
        color:#122036;
      }
      </style><style
       type="text/css"
       id="current-color-scheme-5-562">
      .ColorScheme-Text {
        color:#122036;
      }
      </style><style
       type="text/css"
       id="current-color-scheme-2-91">
      .ColorScheme-Text {
        color:#122036;
      }
      </style><style
       type="text/css"
       id="current-color-scheme-1-2-93">
      .ColorScheme-Text {
        color:#122036;
      }
      </style><style
       id="current-color-scheme-10-7-6"
       type="text/css">
      .ColorScheme-Text {
        color:#122036;
      }
      </style><style
       type="text/css"
       id="current-color-scheme-0-0">
      .ColorScheme-Text {
        color:#122036;
      }
      </style><style
       type="text/css"
       id="current-color-scheme-26-9">
      .ColorScheme-Text {
        color:#122036;
      }
      </style><style
       type="text/css"
       id="current-color-scheme-6-36">
      .ColorScheme-Text {
        color:#122036;
      }
      </style><style
       id="current-color-scheme-53-7-0"
       type="text/css">
      .ColorScheme-Text {
        color:#122036;
      }
      </style><style
       type="text/css"
       id="current-color-scheme-5-5-62">
      .ColorScheme-Text {
        color:#122036;
      }
      </style><style
       type="text/css"
       id="current-color-scheme-2-3-61">
      .ColorScheme-Text {
        color:#122036;
      }
      </style><style
       type="text/css"
       id="current-color-scheme-1-5-8">
      .ColorScheme-Text {
        color:#122036;
      }
      </style><style
       id="current-color-scheme-10-6-7"
       type="text/css">
      .ColorScheme-Text {
        color:#122036;
      }
      </style><style
       type="text/css"
       id="current-color-scheme-0-2-9">
      .ColorScheme-Text {
        color:#122036;
      }
      </style><style
       id="current-color-scheme-535"
       type="text/css">
      .ColorScheme-Text {
        color:#122036;
      }
      </style><style
       type="text/css"
       id="current-color-scheme-53-6">
      .ColorScheme-Text {
        color:#122036;
      }
      </style><style
       id="current-color-scheme-5-2"
       type="text/css">
      .ColorScheme-Text {
        color:#122036;
      }
      </style><style
       id="current-color-scheme-2-9"
       type="text/css">
      .ColorScheme-Text {
        color:#122036;
      }
      </style><style
       id="current-color-scheme-1-1"
       type="text/css">
      .ColorScheme-Text {
        color:#122036;
      }
      </style><style
       type="text/css"
       id="current-color-scheme-10-2-0">
      .ColorScheme-Text {
        color:#122036;
      }
      </style><style
       id="current-color-scheme-0-7"
       type="text/css">
      .ColorScheme-Text {
        color:#122036;
      }
      </style><style
       id="current-color-scheme-26-0"
       type="text/css">
      .ColorScheme-Text {
        color:#122036;
      }
      </style><style
       id="current-color-scheme-6-9-6"
       type="text/css">
      .ColorScheme-Text {
        color:#122036;
      }
      </style><style
       type="text/css"
       id="current-color-scheme-53-7-3">
      .ColorScheme-Text {
        color:#122036;
      }
      </style><style
       id="current-color-scheme-5-5-6"
       type="text/css">
      .ColorScheme-Text {
        color:#122036;
      }
      </style><style
       id="current-color-scheme-2-3-0"
       type="text/css">
      .ColorScheme-Text {
        color:#122036;
      }
      </style><style
       id="current-color-scheme-1-5-6"
       type="text/css">
      .ColorScheme-Text {
        color:#122036;
      }
      </style><style
       type="text/css"
       id="current-color-scheme-10-6-2">
      .ColorScheme-Text {
        color:#122036;
      }
      </style><style
       id="current-color-scheme-0-2-6"
       type="text/css">
      .ColorScheme-Text {
        color:#122036;
      }
      </style><style
       type="text/css"
       id="current-color-scheme-7-2">
      .ColorScheme-Text {
        color:#122036;
      }
      </style><style
       id="current-color-scheme-53-53"
       type="text/css">
      .ColorScheme-Text {
        color:#122036;
      }
      </style><style
       type="text/css"
       id="current-color-scheme-5-56">
      .ColorScheme-Text {
        color:#122036;
      }
      </style><style
       type="text/css"
       id="current-color-scheme-2-2">
      .ColorScheme-Text {
        color:#122036;
      }
      </style><style
       type="text/css"
       id="current-color-scheme-1-9-6">
      .ColorScheme-Text {
        color:#122036;
      }
      </style><style
       id="current-color-scheme-10-1-1"
       type="text/css">
      .ColorScheme-Text {
        color:#122036;
      }
      </style><style
       type="text/css"
       id="current-color-scheme-0-27">
      .ColorScheme-Text {
        color:#122036;
      }
      </style><style
       type="text/css"
       id="current-color-scheme-26-09">
      .ColorScheme-Text {
        color:#122036;
      }
      </style><style
       type="text/css"
       id="current-color-scheme-6-3">
      .ColorScheme-Text {
        color:#122036;
      }
      </style><style
       id="current-color-scheme-53-7-6"
       type="text/css">
      .ColorScheme-Text {
        color:#122036;
      }
      </style><style
       type="text/css"
       id="current-color-scheme-5-5-0">
      .ColorScheme-Text {
        color:#122036;
      }
      </style><style
       type="text/css"
       id="current-color-scheme-2-3-6">
      .ColorScheme-Text {
        color:#122036;
      }
      </style><style
       type="text/css"
       id="current-color-scheme-1-5-2">
      .ColorScheme-Text {
        color:#122036;
      }
      </style><style
       id="current-color-scheme-10-6-6"
       type="text/css">
      .ColorScheme-Text {
        color:#122036;
      }
      </style><style
       type="text/css"
       id="current-color-scheme-0-2-1">
      .ColorScheme-Text {
        color:#122036;
      }
      </style><style
       type="text/css"
       id="current-color-scheme-67">
      .ColorScheme-Text {
        color:#122036;
      }
      </style><style
       id="current-color-scheme-53-5"
       type="text/css">
      .ColorScheme-Text {
        color:#122036;
      }
      </style><style
       type="text/css"
       id="current-color-scheme-5-3">
      .ColorScheme-Text {
        color:#122036;
      }
      </style><style
       type="text/css"
       id="current-color-scheme-2-5">
      .ColorScheme-Text {
        color:#122036;
      }
      </style><style
       type="text/css"
       id="current-color-scheme-1-6">
      .ColorScheme-Text {
        color:#122036;
      }
      </style><style
       id="current-color-scheme-10-2-8"
       type="text/css">
      .ColorScheme-Text {
        color:#122036;
      }
      </style><style
       type="text/css"
       id="current-color-scheme-0-9">
      .ColorScheme-Text {
        color:#122036;
      }
      </style><style
       type="text/css"
       id="current-color-scheme-26-1">
      .ColorScheme-Text {
        color:#122036;
      }
      </style><linearGradient
       inkscape:collect="always"
       xlink:href="#linearGradient4316"
       id="linearGradient4318"
       x1="49.209431"
       y1="265.97217"
       x2="49.209431"
       y2="230.97217"
       gradientUnits="userSpaceOnUse"
       gradientTransform="translate(0,-1.000317)" /></defs><g
     inkscape:label="Capa 1"
     inkscape:groupmode="layer"
     id="layer1"><g
       inkscape:label="Capa 1"
       id="layer1-6"
       transform="matrix(0.39687499,0,0,0.39687499,6.9999996e-8,-99.476712)"><path
         id="rect1368-7"
         style="fill:#2d4266;fill-opacity:1;stroke-width:1.33333;stroke-linecap:round;stroke-linejoin:round;stroke-miterlimit:1.8;paint-order:fill markers stroke;stop-color:#000000"
         d="m 5.333339,252.64998 15.333328,1e-5 c 6,0 8.666666,8 13.333333,8 l 24.666662,-10e-6 c 2.954669,0 5.333338,2.37867 5.333338,5.33334 v 33.33335 c 0,2.95467 -2.378669,5.33334 -5.333338,5.33334 H 5.333339 C 2.3786696,304.65001 5e-7,302.27134 5e-7,299.31667 v -41.33335 c 0,-2.95467 2.3786691,-5.33334 5.3333385,-5.33334 z"
         sodipodi:nodetypes="sccssssssss" /><path
         id="rect1368-7-5"
         style="fill:url(#linearGradient5803);fill-opacity:1;stroke-width:1.33333;stroke-linecap:round;stroke-linejoin:round;stroke-miterlimit:1.8;paint-order:fill markers stroke;stop-color:#000000"
         d="m 5.333333,253.31667 15.333334,-10e-6 c 5.333333,0 8,8 13.333333,8 l 24.666668,10e-6 c 2.585333,0 4.666666,2.08133 4.666666,4.66667 v 33.33332 c 0,2.58533 -2.081333,4.66666 -4.666666,4.66666 H 5.333333 c -2.5853332,0 -4.6666665,-2.08133 -4.6666665,-4.66666 v -41.33332 c 0,-2.58534 2.0813333,-4.66667 4.6666665,-4.66667 z"
         sodipodi:nodetypes="sccssssssss" /><path
         id="rect1368"
         style="fill:#2d4266;fill-opacity:1;stroke-width:1.33333;stroke-linecap:round;stroke-linejoin:round;stroke-miterlimit:1.8;paint-order:fill markers stroke;stop-color:#000000"
         d="m 5.333339,268.64998 15.999994,10e-6 c 5.333334,0 7.333334,-8 12.666667,-8 l 24.666661,-10e-6 c 2.95467,0 5.333339,2.37867 5.333339,5.33334 v 41.33335 c 0,2.95467 -2.378669,5.33334 -5.333339,5.33334 H 5.333339 C 2.3786694,312.65001 -2e-7,310.27134 -2e-7,307.31667 v -33.33335 c 0,-2.95467 2.3786696,-5.33334 5.3333392,-5.33334 z"
         sodipodi:nodetypes="sccssssssss" /><path
         id="rect1590"
         style="fill:url(#linearGradient4752);fill-opacity:1;stroke-width:1.33333;stroke-linecap:round;stroke-linejoin:round;stroke-miterlimit:1.8;paint-order:fill markers stroke;stop-color:#000000"
         d="m 5.333333,269.31667 16,-10e-6 c 6,0 8,-8 12.666667,-8 l 24.666668,10e-6 c 2.585333,0 4.666666,2.08133 4.666666,4.66667 v 41.33332 c 0,2.58533 -2.081333,4.66666 -4.666666,4.66666 H 5.333333 c -2.5853333,0 -4.6666669,-2.08133 -4.6666669,-4.66666 v -33.33332 c 0,-2.58534 2.0813336,-4.66667 4.6666669,-4.66667 z"
         sodipodi:nodetypes="sccssssssss" /><g
         transform="translate(-6,-93.00001)"
         id="g1529" /><g
         inkscape:label="Capa 1"
         id="layer1-7"
         transform="matrix(0.66666667,0,0,0.66666667,-2.8062885,124.00188)"><g
           id="g5168"
           transform="translate(31.999998,24.000005)" /><path
           id="rect4243"
           style="fill:#2d4266;fill-opacity:1;stroke-width:2.04878;stroke-linecap:round;stroke-linejoin:round;stroke-miterlimit:1.8;paint-order:fill markers stroke;stop-color:#000000"
           d="m 44.209432,230.54248 c -7.642274,3.13444 -13,10.6321 -13,19.42968 0,11.63399 9.366012,21 21,21 9.388534,0 17.295763,-6.10167 20,-14.57031 -0.25319,0.10385 -0.507526,0.20663 -0.765625,0.30078 -0.32194,0.11744 -0.647376,0.22617 -0.976562,0.32813 -0.329186,0.10196 -0.662048,0.19715 -0.998047,0.2832 -0.335998,0.0861 -0.6752,0.16272 -1.017578,0.23242 -0.342378,0.0697 -0.686833,0.13262 -1.035156,0.18555 -0.348324,0.0529 -0.700851,0.0971 -1.054688,0.13281 -0.353836,0.0357 -0.709443,0.062 -1.068359,0.0801 -0.358916,0.0181 -0.720422,0.0273 -1.083985,0.0273 -0.363562,0 -0.725068,-0.009 -1.083984,-0.0273 -0.358916,-0.0181 -0.714523,-0.0444 -1.068359,-0.0801 -0.353837,-0.0357 -0.706364,-0.0799 -1.054688,-0.13281 -0.348323,-0.0529 -0.692778,-0.11584 -1.035156,-0.18555 -0.342378,-0.0697 -0.68158,-0.14637 -1.017578,-0.23242 -0.335999,-0.0861 -0.668861,-0.18124 -0.998047,-0.2832 -0.329186,-0.10196 -0.654622,-0.21069 -0.976563,-0.32813 -0.32194,-0.11743 -0.640816,-0.24252 -0.955078,-0.375 -0.314261,-0.13248 -0.623538,-0.27283 -0.929687,-0.41992 -0.306149,-0.14709 -0.608646,-0.30162 -0.90625,-0.46289 -0.297604,-0.16127 -0.590281,-0.32889 -0.878906,-0.50391 -0.288626,-0.17501 -0.574302,-0.3566 -0.853516,-0.54492 -0.279214,-0.18832 -0.552897,-0.38474 -0.822266,-0.58594 -0.269368,-0.2012 -0.533878,-0.40745 -0.792968,-0.62109 -0.259091,-0.21365 -0.51334,-0.4345 -0.761719,-0.66016 -0.248379,-0.22565 -0.491282,-0.45612 -0.728516,-0.69336 -0.237234,-0.23723 -0.467703,-0.48013 -0.693359,-0.72851 -0.225656,-0.24838 -0.446511,-0.50263 -0.660156,-0.76172 -0.213645,-0.25909 -0.419893,-0.5236 -0.621094,-0.79297 -0.201201,-0.26937 -0.397615,-0.54305 -0.585938,-0.82226 -0.188323,-0.27922 -0.369909,-0.56489 -0.544922,-0.85352 -0.175012,-0.28863 -0.342638,-0.5813 -0.503906,-0.87891 -0.161268,-0.2976 -0.3158,-0.6001 -0.46289,-0.90625 -0.147091,-0.30615 -0.287442,-0.61542 -0.419922,-0.92968 -0.132481,-0.31427 -0.257564,-0.63314 -0.375,-0.95508 -0.117437,-0.32194 -0.226166,-0.64738 -0.328125,-0.97656 -0.10196,-0.32919 -0.197154,-0.66205 -0.283203,-0.99805 -0.08605,-0.336 -0.162716,-0.6752 -0.232422,-1.01758 -0.06971,-0.34238 -0.132618,-0.68683 -0.185547,-1.03516 -0.05293,-0.34832 -0.09709,-0.70085 -0.132813,-1.05468 -0.03572,-0.35384 -0.062,-0.70945 -0.08008,-1.06836 -0.01808,-0.35892 -0.02734,-0.72042 -0.02734,-1.08399 0,-0.36356 0.0093,-0.72507 0.02734,-1.08398 0.01808,-0.35892 0.04436,-0.71452 0.08008,-1.06836 0.03572,-0.35384 0.07988,-0.70636 0.132813,-1.05469 0.05293,-0.34832 0.115841,-0.69278 0.185547,-1.03515 0.06971,-0.34238 0.146372,-0.68158 0.232422,-1.01758 0.08605,-0.336 0.181243,-0.66886 0.283203,-0.99805 0.01797,-0.058 0.04014,-0.11407 0.05859,-0.17187 z" /><path
           id="rect4243-9"
           style="fill:url(#linearGradient4318);fill-opacity:1;stroke-width:2.04878;stroke-linecap:round;stroke-linejoin:round;stroke-miterlimit:1.8;paint-order:fill markers stroke;stop-color:#000000"
           d="m 44.209432,229.54216 c -7.642274,3.13444 -13,10.6321 -13,19.42968 0,11.63399 9.366012,21 21,21 9.388534,0 17.295768,-6.10167 19.999998,-14.57031 -0.25319,0.10385 -0.50752,0.20663 -0.76562,0.30078 -0.32194,0.11744 -0.64738,0.22617 -0.97657,0.32813 -0.32918,0.10196 -0.66204,0.19715 -0.99804,0.2832 -0.336,0.0861 -0.6752,0.16272 -1.01758,0.23242 -0.34238,0.0697 -0.68683,0.13262 -1.03516,0.18555 -0.34832,0.0529 -0.70085,0.0971 -1.05468,0.13281 -0.35384,0.0357 -0.70945,0.062 -1.06836,0.0801 -0.35892,0.0181 -0.72043,0.0273 -1.08399,0.0273 -0.36356,0 -0.72507,-0.009 -1.08398,-0.0273 -0.35892,-0.0181 -0.71453,-0.0444 -1.06836,-0.0801 -0.353838,-0.0357 -0.706365,-0.0799 -1.054689,-0.13281 -0.348323,-0.0529 -0.692778,-0.11584 -1.035156,-0.18555 -0.342378,-0.0697 -0.68158,-0.14637 -1.017578,-0.23242 -0.335999,-0.0861 -0.668861,-0.18124 -0.998047,-0.2832 -0.329186,-0.10196 -0.654622,-0.21069 -0.976563,-0.32813 -0.32194,-0.11743 -0.640816,-0.24252 -0.955078,-0.375 -0.314261,-0.13248 -0.623538,-0.27283 -0.929687,-0.41992 -0.306149,-0.14709 -0.608646,-0.30162 -0.90625,-0.46289 -0.297604,-0.16127 -0.590281,-0.32889 -0.878906,-0.50391 -0.288626,-0.17501 -0.574302,-0.3566 -0.853516,-0.54492 -0.279214,-0.18832 -0.552897,-0.38474 -0.822266,-0.58594 -0.269368,-0.2012 -0.533878,-0.40745 -0.792968,-0.62109 -0.259091,-0.21365 -0.51334,-0.4345 -0.761719,-0.66016 -0.248379,-0.22565 -0.491282,-0.45612 -0.728516,-0.69336 -0.237234,-0.23723 -0.467703,-0.48013 -0.693359,-0.72851 -0.225656,-0.24838 -0.446511,-0.50263 -0.660156,-0.76172 -0.213645,-0.25909 -0.419893,-0.5236 -0.621094,-0.79297 -0.201201,-0.26937 -0.397615,-0.54305 -0.585938,-0.82226 -0.188323,-0.27922 -0.369909,-0.56489 -0.544922,-0.85352 -0.175012,-0.28863 -0.342638,-0.5813 -0.503906,-0.87891 -0.161268,-0.2976 -0.3158,-0.6001 -0.46289,-0.90625 -0.147091,-0.30615 -0.287442,-0.61542 -0.419922,-0.92968 -0.132481,-0.31427 -0.257564,-0.63314 -0.375,-0.95508 -0.117437,-0.32194 -0.226166,-0.64738 -0.328125,-0.97656 -0.10196,-0.32919 -0.197154,-0.66205 -0.283203,-0.99805 -0.08605,-0.336 -0.162716,-0.6752 -0.232422,-1.01758 -0.06971,-0.34238 -0.132618,-0.68683 -0.185547,-1.03516 -0.05293,-0.34832 -0.09709,-0.70085 -0.132813,-1.05468 -0.03572,-0.35384 -0.062,-0.70945 -0.08008,-1.06836 -0.01808,-0.35892 -0.02734,-0.72042 -0.02734,-1.08399 0,-0.36356 0.0093,-0.72507 0.02734,-1.08398 0.01808,-0.35892 0.04436,-0.71452 0.08008,-1.06836 0.03572,-0.35384 0.07988,-0.70636 0.132813,-1.05469 0.05293,-0.34832 0.115841,-0.69278 0.185547,-1.03515 0.06971,-0.34238 0.146372,-0.68158 0.232422,-1.01758 0.08605,-0.336 0.181243,-0.66886 0.283203,-0.99805 0.01797,-0.058 0.04014,-0.11407 0.05859,-0.17187 z" /></g></g></g></svg>
