<?xml version="1.0" encoding="UTF-8" standalone="no"?>
<!-- Created with Inkscape (http://www.inkscape.org/) -->

<svg
   width="96"
   height="96"
   viewBox="0 0 25.399999 25.4"
   version="1.1"
   id="svg5"
   xml:space="preserve"
   inkscape:version="1.2 (dc2aedaf03, 2022-05-15)"
   sodipodi:docname="folder-templates.svg"
   xmlns:inkscape="http://www.inkscape.org/namespaces/inkscape"
   xmlns:sodipodi="http://sodipodi.sourceforge.net/DTD/sodipodi-0.dtd"
   xmlns:xlink="http://www.w3.org/1999/xlink"
   xmlns="http://www.w3.org/2000/svg"
   xmlns:svg="http://www.w3.org/2000/svg"><sodipodi:namedview
     id="namedview7"
     pagecolor="#ffffff"
     bordercolor="#000000"
     borderopacity="0.25"
     inkscape:showpageshadow="false"
     inkscape:pageopacity="0.0"
     inkscape:pagecheckerboard="0"
     inkscape:deskcolor="#d1d1d1"
     inkscape:document-units="px"
     showgrid="true"
     inkscape:zoom="11.114583"
     inkscape:cx="76.476104"
     inkscape:cy="79.130274"
     inkscape:window-width="2160"
     inkscape:window-height="1335"
     inkscape:window-x="0"
     inkscape:window-y="0"
     inkscape:window-maximized="1"
     inkscape:current-layer="layer1-6"><inkscape:grid
       type="xygrid"
       id="grid497" /></sodipodi:namedview><defs
     id="defs2"><linearGradient
       inkscape:collect="always"
       id="linearGradient1133"><stop
         style="stop-color:#c4f1f3;stop-opacity:1;"
         offset="0"
         id="stop1129" /><stop
         style="stop-color:#f2feff;stop-opacity:1;"
         offset="1"
         id="stop1131" /></linearGradient><linearGradient
       inkscape:collect="always"
       id="linearGradient5801"><stop
         style="stop-color:#3694ee;stop-opacity:1;"
         offset="0"
         id="stop5797" /><stop
         style="stop-color:#2484e6;stop-opacity:1"
         offset="1"
         id="stop5799" /></linearGradient><linearGradient
       inkscape:collect="always"
       id="linearGradient4750"><stop
         style="stop-color:#41a4f4;stop-opacity:1;"
         offset="0"
         id="stop4746" /><stop
         style="stop-color:#50c1f9;stop-opacity:1;"
         offset="1"
         id="stop4748" /></linearGradient><linearGradient
       inkscape:collect="always"
       xlink:href="#linearGradient4750"
       id="linearGradient4752"
       x1="53.333332"
       y1="404.31668"
       x2="53.333332"
       y2="354.98334"
       gradientUnits="userSpaceOnUse"
       gradientTransform="translate(-6,-93.00001)" /><linearGradient
       inkscape:collect="always"
       xlink:href="#linearGradient5801"
       id="linearGradient5803"
       x1="19.333334"
       y1="361.64999"
       x2="19.333334"
       y2="346.98334"
       gradientUnits="userSpaceOnUse"
       gradientTransform="translate(-6,-93.00001)" /><style
       id="current-color-scheme"
       type="text/css">
      .ColorScheme-Text {
        color:#122036;
      }
      </style><style
       id="current-color-scheme-7"
       type="text/css">
      .ColorScheme-Text {
        color:#122036;
      }
      </style><style
       id="current-color-scheme-5"
       type="text/css">
      .ColorScheme-Text {
        color:#122036;
      }
      </style><style
       type="text/css"
       id="current-color-scheme-9">
      .ColorScheme-Text {
        color:#122036;
      }
      </style><style
       type="text/css"
       id="current-color-scheme-1">
      .ColorScheme-Text {
        color:#122036;
      }
      </style><style
       id="current-color-scheme-10"
       type="text/css">
      .ColorScheme-Text {
        color:#122036;
      }
      </style><style
       type="text/css"
       id="current-color-scheme-6">
      .ColorScheme-Text {
        color:#122036;
      }
      </style><style
       type="text/css"
       id="current-color-scheme-7-1">
      .ColorScheme-Text {
        color:#122036;
      }
      </style><style
       type="text/css"
       id="current-color-scheme-5-2">
      .ColorScheme-Text {
        color:#122036;
      }
      </style><style
       id="current-color-scheme-3"
       type="text/css">
      .ColorScheme-Text {
        color:#122036;
      }
      </style><style
       id="current-color-scheme-7-6"
       type="text/css">
      .ColorScheme-Text {
        color:#122036;
      }
      </style><style
       id="current-color-scheme-5-0"
       type="text/css">
      .ColorScheme-Text {
        color:#122036;
      }
      </style><style
       type="text/css"
       id="current-color-scheme-9-6">
      .ColorScheme-Text {
        color:#122036;
      }
      </style><style
       type="text/css"
       id="current-color-scheme-1-2">
      .ColorScheme-Text {
        color:#122036;
      }
      </style><style
       id="current-color-scheme-10-6"
       type="text/css">
      .ColorScheme-Text {
        color:#122036;
      }
      </style><style
       type="text/css"
       id="current-color-scheme-6-1">
      .ColorScheme-Text {
        color:#122036;
      }
      </style><style
       type="text/css"
       id="current-color-scheme-7-1-8">
      .ColorScheme-Text {
        color:#122036;
      }
      </style><style
       type="text/css"
       id="current-color-scheme-5-2-7">
      .ColorScheme-Text {
        color:#122036;
      }
      </style><style
       id="current-color-scheme-70"
       type="text/css">
      .ColorScheme-Text {
        color:#122036;
      }
      </style><style
       id="current-color-scheme-36"
       type="text/css">
      .ColorScheme-Text {
        color:#122036;
      }
      </style><style
       id="current-color-scheme-8"
       type="text/css">
      .ColorScheme-Text {
        color:#122036;
      }
      </style><linearGradient
       inkscape:collect="always"
       xlink:href="#linearGradient1133"
       id="linearGradient1135"
       x1="-64.315819"
       y1="291.4921"
       x2="-64.315819"
       y2="247.64996"
       gradientUnits="userSpaceOnUse" /></defs><g
     inkscape:label="Capa 1"
     inkscape:groupmode="layer"
     id="layer1"><g
       inkscape:label="Capa 1"
       id="layer1-6"
       transform="matrix(0.39687499,0,0,0.39687499,6.9999996e-8,-99.476712)"><path
         id="rect1368-7"
         style="fill:#286bb2;fill-opacity:1;stroke-width:1.33333;stroke-linecap:round;stroke-linejoin:round;stroke-miterlimit:1.8;paint-order:fill markers stroke;stop-color:#000000"
         d="m 5.333339,252.64998 15.333328,1e-5 c 6,0 8.666666,8 13.333333,8 l 24.666662,-10e-6 c 2.954669,0 5.333338,2.37867 5.333338,5.33334 v 33.33335 c 0,2.95467 -2.378669,5.33334 -5.333338,5.33334 H 5.333339 C 2.3786696,304.65001 5e-7,302.27134 5e-7,299.31667 v -41.33335 c 0,-2.95467 2.3786691,-5.33334 5.3333385,-5.33334 z"
         sodipodi:nodetypes="sccssssssss" /><path
         id="rect1368-7-5"
         style="fill:url(#linearGradient5803);fill-opacity:1;stroke-width:1.33333;stroke-linecap:round;stroke-linejoin:round;stroke-miterlimit:1.8;paint-order:fill markers stroke;stop-color:#000000"
         d="m 5.333333,253.31667 15.333334,-10e-6 c 5.333333,0 8,8 13.333333,8 l 24.666668,10e-6 c 2.585333,0 4.666666,2.08133 4.666666,4.66667 v 33.33332 c 0,2.58533 -2.081333,4.66666 -4.666666,4.66666 H 5.333333 c -2.5853332,0 -4.6666665,-2.08133 -4.6666665,-4.66666 v -41.33332 c 0,-2.58534 2.0813333,-4.66667 4.6666665,-4.66667 z"
         sodipodi:nodetypes="sccssssssss" /><path
         id="rect1368"
         style="fill:#3182d9;fill-opacity:1;stroke-width:1.33333;stroke-linecap:round;stroke-linejoin:round;stroke-miterlimit:1.8;paint-order:fill markers stroke;stop-color:#000000"
         d="m 5.333339,268.64998 15.999994,10e-6 c 5.333334,0 7.333334,-8 12.666667,-8 l 24.666661,-10e-6 c 2.95467,0 5.333339,2.37867 5.333339,5.33334 v 41.33335 c 0,2.95467 -2.378669,5.33334 -5.333339,5.33334 H 5.333339 C 2.3786694,312.65001 -2e-7,310.27134 -2e-7,307.31667 v -33.33335 c 0,-2.95467 2.3786696,-5.33334 5.3333392,-5.33334 z"
         sodipodi:nodetypes="sccssssssss" /><path
         id="rect1590"
         style="fill:url(#linearGradient4752);fill-opacity:1;stroke-width:1.33333;stroke-linecap:round;stroke-linejoin:round;stroke-miterlimit:1.8;paint-order:fill markers stroke;stop-color:#000000"
         d="m 5.333333,269.31667 16,-10e-6 c 6,0 8,-8 12.666667,-8 l 24.666668,10e-6 c 2.585333,0 4.666666,2.08133 4.666666,4.66667 v 41.33332 c 0,2.58533 -2.081333,4.66666 -4.666666,4.66666 H 5.333333 c -2.585333,0 -4.6666675,-2.08133 -4.6666675,-4.66666 v -33.33332 c 0,-2.58534 2.0813345,-4.66667 4.6666675,-4.66667 z"
         sodipodi:nodetypes="sccssssssss" /><g
         id="path640"
         transform="translate(-6,-93.00001)" /><g
         id="path432-3"
         transform="matrix(0.66666667,0,0,0.66666667,-41.445314,115.91978)" /><g
         id="path432-3-6"
         transform="matrix(0.66666667,0,0,0.66666667,-41.445314,115.91978)" /><path
         id="path4417-9"
         style="fill:#3182d9;fill-opacity:1;stroke-width:1.33333;stroke-linecap:round;stroke-linejoin:round;stroke-miterlimit:1.8;paint-order:fill markers stroke;stop-color:#000000"
         d="m 24,278.64999 c -1.107998,0 -2,0.892 -2,2 v 21.33333 c 0,1.108 0.892002,2.00001 2,2.00001 h 5.333334 v -2.66667 H 32 v -2.66667 h -2.666666 v -2.66667 H 32 v 2.66667 h 2.666667 v -2.66667 h 2.666667 v -2.66666 h -2.666667 v -2.66667 h 2.666667 v -2.66667 h -2.666667 v -2.66666 h 2.666667 v 2.66666 H 40 v -2.66666 h 2.666667 L 36,278.64999 Z m 16,9.33333 v 2.66667 h 2.666667 v -2.66667 z m 0,2.66667 h -2.666666 v 2.66667 H 40 Z m 0,2.66667 v 2.66666 h 2.666667 v -2.66666 z m 0,2.66666 h -2.666666 v 2.66667 H 40 Z m 0,2.66667 v 2.66667 h 2.666667 v -2.66667 z m 0,2.66667 h -2.666666 v 2.66667 H 40 Z m -2.666666,0 v -2.66667 h -2.666667 v 2.66667 z m -2.666667,0 H 32 v 2.66667 h 2.666667 z" /><g
         id="g5211"
         transform="matrix(0.51700659,0,0,0.51700659,102.58504,149.27999)"><g
           id="g39705"
           transform="translate(103.06765,-28.661305)" /><g
           transform="matrix(2,0,0,2,-88,-496.64999)"
           id="g1658" /><g
           id="g3922"
           transform="translate(-72.210554,2.5789484)"><path
             id="path4417"
             style="fill:url(#linearGradient1135);fill-opacity:1;stroke-width:2.57895;stroke-linecap:round;stroke-linejoin:round;stroke-miterlimit:1.8;paint-order:fill markers stroke;stop-color:#000000"
             d="m -79.78952,246.3605 c -2.143102,0 -3.868423,1.72532 -3.868423,3.86842 v 41.26317 c 0,2.1431 1.725321,3.86843 3.868423,3.86843 h 10.315794 v -5.1579 h 5.157896 v -5.1579 h -5.157896 v -5.1579 h 5.157896 v 5.1579 h 5.157897 v -5.1579 h 5.157897 v -5.15789 h -5.157897 v -5.1579 h 5.157897 v -5.1579 h -5.157897 v -5.15789 h 5.157897 v 5.15789 h 5.157897 v -5.15789 h 5.157897 L -56.578984,246.3605 Z m 30.947381,18.05263 v 5.1579 h 5.157897 v -5.1579 z m 0,5.1579 h -5.157897 v 5.1579 h 5.157897 z m 0,5.1579 v 5.15789 h 5.157897 v -5.15789 z m 0,5.15789 h -5.157897 v 5.1579 h 5.157897 z m 0,5.1579 v 5.1579 h 5.157897 v -5.1579 z m 0,5.1579 h -5.157897 v 5.1579 h 5.157897 z m -5.157897,0 v -5.1579 h -5.157897 v 5.1579 z m -5.157897,0 h -5.157897 v 5.1579 h 5.157897 z" /></g></g><g
         transform="translate(-6,-93.00001)"
         id="g1529" /></g></g></svg>
