<?xml version="1.0" encoding="UTF-8" standalone="no"?>
<svg
   xmlns:dc="http://purl.org/dc/elements/1.1/"
   xmlns:cc="http://creativecommons.org/ns#"
   xmlns:rdf="http://www.w3.org/1999/02/22-rdf-syntax-ns#"
   xmlns:svg="http://www.w3.org/2000/svg"
   xmlns="http://www.w3.org/2000/svg"
   xmlns:xlink="http://www.w3.org/1999/xlink"
   xmlns:sodipodi="http://sodipodi.sourceforge.net/DTD/sodipodi-0.dtd"
   xmlns:inkscape="http://www.inkscape.org/namespaces/inkscape"
   height="22"
   viewBox="0 0 22 22"
   width="22"
   id="svg2"
   version="1.1"
   inkscape:version="0.92.2 2405546, 2018-03-11"
   sodipodi:docname="system-switch-user.svg">
  <metadata
     id="metadata10">
    <rdf:RDF>
      <cc:Work
         rdf:about="">
        <dc:format>image/svg+xml</dc:format>
        <dc:type
           rdf:resource="http://purl.org/dc/dcmitype/StillImage" />
        <dc:title></dc:title>
      </cc:Work>
    </rdf:RDF>
  </metadata>
  <sodipodi:namedview
     pagecolor="#ffffff"
     bordercolor="#666666"
     borderopacity="1"
     objecttolerance="10"
     gridtolerance="10"
     guidetolerance="10"
     inkscape:pageopacity="0"
     inkscape:pageshadow="2"
     inkscape:window-width="1360"
     inkscape:window-height="711"
     id="namedview8"
     showgrid="true"
     inkscape:zoom="15.170655"
     inkscape:cx="8.0251058"
     inkscape:cy="6.9913306"
     inkscape:window-x="0"
     inkscape:window-y="28"
     inkscape:window-maximized="1"
     inkscape:current-layer="svg2"
     inkscape:snap-bbox="true"
     inkscape:bbox-paths="true"
     inkscape:bbox-nodes="true"
     inkscape:snap-bbox-edge-midpoints="true"
     inkscape:snap-bbox-midpoints="true"
     inkscape:object-paths="true"
     inkscape:snap-intersection-paths="true"
     inkscape:snap-smooth-nodes="true">
    <inkscape:grid
       type="xygrid"
       id="grid816" />
  </sodipodi:namedview>
  <defs
     id="defs2">
    <style
       type="text/css"
       id="current-color-scheme">
      .ColorScheme-Text {
        color:#122036;
      }
      </style>
    <linearGradient
       inkscape:collect="always"
       xlink:href="#linearGradient4622"
       id="linearGradient866"
       x1="26.508476"
       y1="16.254236"
       x2="26"
       y2="2.762711"
       gradientUnits="userSpaceOnUse"
       gradientTransform="matrix(1.2857143,0,0,1.2857143,-20.755449,0.4697341)" />
    <linearGradient
       inkscape:collect="always"
       id="linearGradient4622">
      <stop
         style="stop-color:#ff6a3e;stop-opacity:1"
         offset="0"
         id="stop4618" />
      <stop
         style="stop-color:#ff9065;stop-opacity:1"
         offset="1"
         id="stop4620" />
    </linearGradient>
  </defs>
  <g
     id="g1435"
     transform="translate(-2,-2)">
    <path
       inkscape:connector-curvature="0"
       id="rect843"
       d="M 13,3 C 18.54,3 23,7.46 23,13 23,18.54 18.54,23 13,23 7.46,23 3,18.54 3,13 3,7.46 7.46,3 13,3 Z"
       style="opacity:1;vector-effect:none;fill:#eb5227;fill-opacity:1;stroke:none;stroke-width:2.48461246;stroke-linecap:round;stroke-linejoin:round;stroke-miterlimit:4;stroke-dasharray:none;stroke-dashoffset:0;stroke-opacity:1" />
    <path
       inkscape:connector-curvature="0"
       id="rect843-6"
       d="m 13,4 c 4.986,0 9,4.014 9,9 0,4.986 -4.014,9 -9,9 C 8.014,22 4,17.986 4,13 4,8.014 8.014,4 13,4 Z"
       style="opacity:1;vector-effect:none;fill:url(#linearGradient866);fill-opacity:1;stroke:none;stroke-width:2.23615122;stroke-linecap:round;stroke-linejoin:round;stroke-miterlimit:4;stroke-dasharray:none;stroke-dashoffset:0;stroke-opacity:1" />
    <path
       sodipodi:nodetypes="ssssssccs"
       inkscape:connector-curvature="0"
       d="m 13,9.9999097 c -1.662,0 -3,1.3380003 -3,3.0000003 0,1.662 1.338,3 3,3 1.662,0 3,-1.338 3,-3 0,-1.662 -1.338,-3.0000003 -3,-3.0000003 z m 0,6.0000003 c -2.761424,0 -5,2.238576 -5,5 2.891099,1.314731 6.878188,1.352046 10,0 0,-2.761424 -2.238576,-5 -5,-5 z"
       style="color:#122036;fill:#eb5227;fill-opacity:1;stroke:none"
       class="ColorScheme-Text"
       id="path1379" />
    <path
       sodipodi:nodetypes="ssssssccs"
       inkscape:connector-curvature="0"
       d="m 13,8.9999097 c -1.662,0 -3,1.3380003 -3,3.0000003 0,1.662 1.338,3 3,3 1.662,0 3,-1.338 3,-3 0,-1.662 -1.338,-3.0000003 -3,-3.0000003 z m 0,6.0000003 c -2.761424,0 -5,2.238576 -5,5 2.891099,1.314731 6.878188,1.352046 10,0 0,-2.761424 -2.238576,-5 -5,-5 z"
       style="color:#122036;fill:#fff6f4;fill-opacity:1;stroke:none"
       class="ColorScheme-Text"
       id="path1379-8" />
  </g>
</svg>
