<?xml version="1.0" encoding="UTF-8" standalone="no"?>
<!-- Created with Inkscape (http://www.inkscape.org/) -->

<svg
   xmlns:dc="http://purl.org/dc/elements/1.1/"
   xmlns:cc="http://creativecommons.org/ns#"
   xmlns:rdf="http://www.w3.org/1999/02/22-rdf-syntax-ns#"
   xmlns:svg="http://www.w3.org/2000/svg"
   xmlns="http://www.w3.org/2000/svg"
   xmlns:xlink="http://www.w3.org/1999/xlink"
   xmlns:sodipodi="http://sodipodi.sourceforge.net/DTD/sodipodi-0.dtd"
   xmlns:inkscape="http://www.inkscape.org/namespaces/inkscape"
   width="32"
   height="32"
   viewBox="0 0 8.4666665 8.4666669"
   version="1.1"
   id="svg8"
   inkscape:version="0.92.2 5c3e80d, 2017-08-06"
   sodipodi:docname="amarok_change_language.svg">
  <defs
     id="defs2">
    <linearGradient
       inkscape:collect="always"
       xlink:href="#linearGradient4656"
       id="linearGradient4658"
       x1="22"
       y1="1049.3622"
       x2="22"
       y2="1030.3622"
       gradientUnits="userSpaceOnUse"
       gradientTransform="matrix(0.26458333,0,0,0.26458333,0,19.09166)" />
    <linearGradient
       inkscape:collect="always"
       id="linearGradient4656">
      <stop
         style="stop-color:#e4e4e4;stop-opacity:1"
         offset="0"
         id="stop4652" />
      <stop
         style="stop-color:#fbfbfb;stop-opacity:1"
         offset="1"
         id="stop4654" />
    </linearGradient>
    <linearGradient
       inkscape:collect="always"
       xlink:href="#linearGradient4602"
       id="linearGradient4604"
       x1="11"
       y1="1042.3622"
       x2="11"
       y2="1023.3622"
       gradientUnits="userSpaceOnUse"
       gradientTransform="matrix(0.26458333,0,0,0.26458333,0,18.033327)" />
    <linearGradient
       inkscape:collect="always"
       id="linearGradient4602">
      <stop
         style="stop-color:#228ee9;stop-opacity:1"
         offset="0"
         id="stop4598" />
      <stop
         style="stop-color:#2eb5fd;stop-opacity:1"
         offset="1"
         id="stop4600" />
    </linearGradient>
  </defs>
  <sodipodi:namedview
     id="base"
     pagecolor="#ffffff"
     bordercolor="#666666"
     borderopacity="1.0"
     inkscape:pageopacity="0.0"
     inkscape:pageshadow="2"
     inkscape:zoom="1"
     inkscape:cx="25.715657"
     inkscape:cy="55.07952"
     inkscape:document-units="px"
     inkscape:current-layer="layer1"
     showgrid="false"
     units="px"
     inkscape:window-width="1366"
     inkscape:window-height="697"
     inkscape:window-x="0"
     inkscape:window-y="0"
     inkscape:window-maximized="1">
    <inkscape:grid
       type="xygrid"
       id="grid15442" />
  </sodipodi:namedview>
  <metadata
     id="metadata5">
    <rdf:RDF>
      <cc:Work
         rdf:about="">
        <dc:format>image/svg+xml</dc:format>
        <dc:type
           rdf:resource="http://purl.org/dc/dcmitype/StillImage" />
        <dc:title />
      </cc:Work>
    </rdf:RDF>
  </metadata>
  <g
     inkscape:label="Capa 1"
     inkscape:groupmode="layer"
     id="layer1"
     transform="translate(0,-288.53332)">
    <path
       id="rect4491-3"
       d="m 2.9104167,291.44374 h 5.2916667 c 0.1465791,0 0.2645833,0.118 0.2645833,0.26458 v 5.02708 c 0,0.14658 -0.1180042,0.26459 -0.2645833,0.26459 H 2.9104167 c -0.1465792,0 -0.2645834,-0.11801 -0.2645834,-0.26459 v -5.02708 c 0,-0.14658 0.1180042,-0.26458 0.2645834,-0.26458 z"
       style="opacity:1;fill:#666666;fill-opacity:1;stroke:none;stroke-width:0.27543125;stroke-linecap:round;stroke-linejoin:round;stroke-miterlimit:4;stroke-dasharray:none;stroke-opacity:1"
       inkscape:connector-curvature="0" />
    <path
       id="rect4508"
       d="m 2.9104167,291.70832 h 5.2916667 v 5.02708 H 2.9104167 Z"
       style="opacity:1;fill:url(#linearGradient4658);fill-opacity:1;stroke:none;stroke-width:0.27543125;stroke-linecap:round;stroke-linejoin:round;stroke-miterlimit:4;stroke-dasharray:none;stroke-opacity:1"
       inkscape:connector-curvature="0" />
    <path
       inkscape:connector-curvature="0"
       id="rect4710-6-6"
       d="m 5.0270834,292.50207 v 0.26458 H 4.4979167 4.2333333 v 0.26458 0.26459 0.26458 0.26458 0.26459 1.05833 h 0.2645834 2.1166667 v 0.52917 H 6.0854167 v -0.26459 H 5.8208334 v 0.26459 H 5.2916667 v -0.26459 H 5.0270834 v 0.26459 H 4.4979167 v -0.26459 H 4.2333333 v 0.26459 0.26458 0.26458 h 0.2645834 v -0.26458 h 2.1166667 v 0.26458 H 6.0854167 v 0.26459 h 0.7937499 v -0.26459 -1.32291 H 4.4979167 v -0.26459 h 2.3812499 v -0.26458 -1.32292 -0.26458 H 5.55625 v -0.26458 z m -0.5291667,0.52916 h 2.1166667 v 0.26459 H 4.4979167 Z m 0,0.52917 h 2.1166667 v 0.26458 H 4.4979167 Z m 0,0.52917 h 2.1166667 v 0.26458 H 4.4979167 Z"
       style="opacity:1;fill:#cccccc;fill-opacity:1;stroke:none;stroke-width:0.27543125;stroke-linecap:round;stroke-linejoin:round;stroke-miterlimit:4;stroke-dasharray:none;stroke-opacity:1" />
    <path
       inkscape:connector-curvature="0"
       id="rect4710-6"
       d="m 5.0270834,292.23749 v 0.26458 H 4.4979167 4.2333333 v 0.26458 0.26459 0.26458 0.26458 0.26459 1.05833 h 0.2645834 2.1166667 v 0.52917 H 6.0854167 V 295.1479 H 5.8208334 v 0.26459 H 5.2916667 V 295.1479 H 5.0270834 v 0.26459 H 4.4979167 V 295.1479 H 4.2333333 v 0.26459 0.26458 0.26458 h 0.2645834 v -0.26458 h 2.1166667 v 0.26458 H 6.0854167 v 0.26459 h 0.79375 v -0.26459 -1.32291 h -2.38125 v -0.26459 h 2.38125 v -0.26458 -1.32292 -0.26458 H 5.55625 v -0.26458 z m -0.5291667,0.52916 h 2.1166667 v 0.26459 H 4.4979167 Z m 0,0.52917 h 2.1166667 v 0.26458 H 4.4979167 Z m 0,0.52917 h 2.1166667 v 0.26458 H 4.4979167 Z"
       style="opacity:1;fill:#666666;fill-opacity:1;stroke:none;stroke-width:0.27543125;stroke-linecap:round;stroke-linejoin:round;stroke-miterlimit:4;stroke-dasharray:none;stroke-opacity:1" />
    <path
       id="rect4491"
       d="M 0.2645834,288.53332 H 5.55625 c 0.1465792,0 0.2645834,0.118 0.2645834,0.26458 v 5.02709 c 0,0.14658 -0.1180042,0.26458 -0.2645834,0.26458 H 0.2645834 C 0.1180042,294.08957 0,293.97157 0,293.82499 v -5.02709 c 0,-0.14658 0.1180042,-0.26458 0.2645834,-0.26458 z"
       style="opacity:1;fill:#1a6cb2;fill-opacity:1;stroke:none;stroke-width:0.27543125;stroke-linecap:round;stroke-linejoin:round;stroke-miterlimit:4;stroke-dasharray:none;stroke-opacity:1"
       inkscape:connector-curvature="0" />
    <path
       id="rect4508-6"
       d="M 0.2645834,288.7979 H 5.55625 v 5.02709 H 0.2645834 Z"
       style="opacity:1;fill:url(#linearGradient4604);fill-opacity:1;stroke:none;stroke-width:0.27543125;stroke-linecap:round;stroke-linejoin:round;stroke-miterlimit:4;stroke-dasharray:none;stroke-opacity:1"
       inkscape:connector-curvature="0" />
    <path
       sodipodi:nodetypes="ccccccccccccc"
       inkscape:connector-curvature="0"
       id="path4764-3"
       d="m 2.38125,289.85624 -1.3229167,3.175 0.79375,0.26459 0.2645834,-0.79375 h 1.5874999 l 0.2645834,0.79375 0.79375,-0.26459 -1.3229167,-3.175 z m 0.5291667,0.79375 0.5291666,1.05834 H 2.38125 Z"
       style="fill:#1e7ccc;fill-opacity:1;stroke:none;stroke-width:0.26458335px;stroke-linecap:butt;stroke-linejoin:miter;stroke-opacity:1" />
    <path
       style="fill:#ffffff;fill-opacity:1;stroke:none;stroke-width:0.26458335px;stroke-linecap:butt;stroke-linejoin:miter;stroke-opacity:1"
       d="m 2.38125,289.59165 -1.3229167,3.175 0.79375,0.26459 0.2645834,-0.79375 h 1.5875 l 0.2645833,0.79375 0.79375,-0.26459 -1.3229167,-3.175 z m 0.5291667,0.79375 0.5291666,1.05834 H 2.38125 Z"
       id="path4764"
       inkscape:connector-curvature="0"
       sodipodi:nodetypes="ccccccccccccc" />
  </g>
</svg>
