<?xml version="1.0" encoding="UTF-8" standalone="no"?>
<!-- Created with Inkscape (http://www.inkscape.org/) -->

<svg
   xmlns:dc="http://purl.org/dc/elements/1.1/"
   xmlns:cc="http://creativecommons.org/ns#"
   xmlns:rdf="http://www.w3.org/1999/02/22-rdf-syntax-ns#"
   xmlns:svg="http://www.w3.org/2000/svg"
   xmlns="http://www.w3.org/2000/svg"
   xmlns:xlink="http://www.w3.org/1999/xlink"
   xmlns:sodipodi="http://sodipodi.sourceforge.net/DTD/sodipodi-0.dtd"
   xmlns:inkscape="http://www.inkscape.org/namespaces/inkscape"
   width="32"
   height="32"
   viewBox="0 0 8.4666662 8.4666664"
   version="1.1"
   id="svg1399"
   inkscape:version="0.92.4 5da689c313, 2019-01-14"
   sodipodi:docname="preferences-desktop-screensaver.svg">
  <defs
     id="defs1393">
    <linearGradient
       gradientTransform="translate(0.62072143,288.93567)"
       inkscape:collect="always"
       xlink:href="#b"
       id="linearGradient1328"
       x1="-4.8194361"
       y1="7.8786564"
       x2="-4.8306732"
       y2="3.3045037"
       gradientUnits="userSpaceOnUse" />
    <linearGradient
       gradientTransform="translate(-11.543946,1.96094)"
       id="b"
       gradientUnits="userSpaceOnUse"
       x1="27"
       x2="27"
       y1="304.64999"
       y2="287.64999">
      <stop
         offset="0"
         stop-color="#9bd4e3"
         id="stop10" />
      <stop
         offset="1"
         stop-color="#f7fafc"
         id="stop12" />
    </linearGradient>
    <linearGradient
       gradientTransform="translate(0.62072143,288.93567)"
       inkscape:collect="always"
       xlink:href="#linearGradient5643"
       id="linearGradient1320"
       x1="-4.9988151"
       y1="8.3262882"
       x2="-4.9808764"
       y2="2.9808078"
       gradientUnits="userSpaceOnUse" />
    <linearGradient
       id="linearGradient5643"
       gradientUnits="userSpaceOnUse"
       x1="-96"
       x2="-96"
       y1="400.64996"
       y2="372.65002"
       gradientTransform="translate(276,365.71217)">
      <stop
         style="stop-color:#1086c9;stop-opacity:1"
         offset="0"
         stop-color="#094b71"
         id="stop5645" />
      <stop
         offset="1"
         stop-color="#052f47"
         id="stop5647" />
    </linearGradient>
    <linearGradient
       gradientTransform="translate(0.62072143,288.93567)"
       inkscape:collect="always"
       xlink:href="#linearGradient1500"
       id="linearGradient1312"
       x1="-5.0674438"
       y1="9.9555082"
       x2="-5.1212568"
       y2="2.4574859"
       gradientUnits="userSpaceOnUse" />
    <linearGradient
       id="linearGradient1500"
       inkscape:collect="always">
      <stop
         id="stop1496"
         offset="0"
         style="stop-color:#262626;stop-opacity:1" />
      <stop
         id="stop1498"
         offset="1"
         style="stop-color:#333333;stop-opacity:1" />
    </linearGradient>
  </defs>
  <sodipodi:namedview
     id="base"
     pagecolor="#ffffff"
     bordercolor="#666666"
     borderopacity="1.0"
     inkscape:pageopacity="0.0"
     inkscape:pageshadow="2"
     inkscape:zoom="7.9195959"
     inkscape:cx="-15.98796"
     inkscape:cy="-0.67020984"
     inkscape:document-units="mm"
     inkscape:current-layer="layer1"
     showgrid="false"
     inkscape:showpageshadow="false"
     units="px"
     inkscape:window-width="1920"
     inkscape:window-height="1003"
     inkscape:window-x="0"
     inkscape:window-y="0"
     inkscape:window-maximized="1" />
  <metadata
     id="metadata1396">
    <rdf:RDF>
      <cc:Work
         rdf:about="">
        <dc:format>image/svg+xml</dc:format>
        <dc:type
           rdf:resource="http://purl.org/dc/dcmitype/StillImage" />
        <dc:title></dc:title>
      </cc:Work>
    </rdf:RDF>
  </metadata>
  <g
     inkscape:label="Capa 1"
     inkscape:groupmode="layer"
     id="layer1"
     transform="translate(0,-288.53338)">
    <g
       id="g1981"
       transform="translate(8.5096458,-2.4292667)">
      <path
         inkscape:connector-curvature="0"
         style="opacity:1;fill:#1a1a1a;fill-opacity:1;stroke:none;stroke-width:0.63318539;stroke-linecap:round;stroke-linejoin:round;stroke-miterlimit:4;stroke-dasharray:none;stroke-opacity:1"
         d="m -7.7158958,291.22723 h 6.87916663 c 0.2931584,0 0.5291667,0.23601 0.5291667,0.52917 v 6.87916 c 0,0.29316 -0.2360083,0.52917 -0.5291667,0.52917 H -7.7158958 c -0.2931584,0 -0.5291667,-0.23601 -0.5291667,-0.52917 v -6.87916 c 0,-0.29316 0.2360083,-0.52917 0.5291667,-0.52917 z"
         id="rect843" />
      <path
         inkscape:connector-curvature="0"
         style="opacity:1;fill:url(#linearGradient1312);fill-opacity:1;stroke:none;stroke-width:0.59097308;stroke-linecap:round;stroke-linejoin:round;stroke-miterlimit:4;stroke-dasharray:none;stroke-opacity:1"
         d="m -7.7158958,291.49181 h 6.87916663 c 0.1465789,0 0.2645834,0.11801 0.2645834,0.26459 v 6.87916 c 0,0.14658 -0.1180045,0.26459 -0.2645834,0.26459 H -7.7158958 c -0.1465792,0 -0.2645834,-0.11801 -0.2645834,-0.26459 v -6.87916 c 0,-0.14658 0.1180042,-0.26459 0.2645834,-0.26459 z"
         id="rect843-3" />
      <path
         inkscape:connector-curvature="0"
         style="opacity:1;fill:#1a1a1a;fill-opacity:1;stroke:none;stroke-width:0.52916664;stroke-linecap:round;stroke-linejoin:round;stroke-miterlimit:4;stroke-dasharray:none;stroke-opacity:1;paint-order:stroke markers fill"
         d="m -7.4513134,291.7564 h 6.350002 c 0.14657863,0 0.26458223,0.118 0.26458223,0.26458 v 5.29167 c 0,0.14658 -0.1180036,0.26458 -0.26458223,0.26458 h -6.350002 c -0.1465788,0 -0.2645824,-0.118 -0.2645824,-0.26458 v -5.29167 c 0,-0.14658 0.1180036,-0.26458 0.2645824,-0.26458 z"
         id="rect834" />
      <path
         inkscape:connector-curvature="0"
         style="opacity:1;fill:url(#linearGradient1320);fill-opacity:1;stroke:none;stroke-width:0.52916664;stroke-linecap:round;stroke-linejoin:round;stroke-miterlimit:4;stroke-dasharray:none;stroke-opacity:1;paint-order:stroke markers fill"
         d="m -7.445466,292.01514 h 6.35 v 5.29166 h -6.35 z"
         id="rect836" />
      <path
         id="rect1584"
         d="m -1.4981875,297.84181 c 0.2198687,0 0.396875,0.17701 0.396875,0.39688 0,0.21987 -0.1770063,0.39687 -0.396875,0.39687 -0.2198688,0 -0.396875,-0.177 -0.396875,-0.39687 0,-0.21987 0.1770062,-0.39688 0.396875,-0.39688 z"
         style="opacity:1;fill:#1a1a1a;fill-opacity:1;stroke:none;stroke-width:0.52916664;stroke-linecap:round;stroke-linejoin:round;stroke-miterlimit:4;stroke-dasharray:none;stroke-opacity:1;paint-order:stroke markers fill"
         inkscape:connector-curvature="0" />
      <path
         id="rect1586"
         d="m -1.4981875,298.1064 c 0.07329,0 0.1322917,0.059 0.1322917,0.13229 0,0.0733 -0.059002,0.13229 -0.1322917,0.13229 -0.07329,0 -0.1322917,-0.059 -0.1322917,-0.13229 0,-0.0733 0.059002,-0.13229 0.1322917,-0.13229 z"
         style="opacity:1;fill:#e7f0f6;fill-opacity:1;stroke:none;stroke-width:0.52916664;stroke-linecap:round;stroke-linejoin:round;stroke-miterlimit:4;stroke-dasharray:none;stroke-opacity:1;paint-order:stroke markers fill"
         inkscape:connector-curvature="0" />
      <path
         id="rect1584-6"
         d="m -2.5565208,297.84181 c 0.2198687,0 0.396875,0.17701 0.396875,0.39688 0,0.21987 -0.1770063,0.39687 -0.396875,0.39687 -0.2198688,0 -0.396875,-0.177 -0.396875,-0.39687 0,-0.21987 0.1770062,-0.39688 0.396875,-0.39688 z"
         style="opacity:1;fill:#1a1a1a;fill-opacity:1;stroke:none;stroke-width:0.52916664;stroke-linecap:round;stroke-linejoin:round;stroke-miterlimit:4;stroke-dasharray:none;stroke-opacity:1;paint-order:stroke markers fill"
         inkscape:connector-curvature="0" />
      <path
         id="rect1586-7"
         d="m -2.5565208,298.1064 c 0.073289,0 0.1322916,0.059 0.1322916,0.13229 0,0.0733 -0.059002,0.13229 -0.1322916,0.13229 -0.07329,0 -0.1322917,-0.059 -0.1322917,-0.13229 0,-0.0733 0.059002,-0.13229 0.1322917,-0.13229 z"
         style="opacity:1;fill:#e7f0f6;fill-opacity:1;stroke:none;stroke-width:0.52916664;stroke-linecap:round;stroke-linejoin:round;stroke-miterlimit:4;stroke-dasharray:none;stroke-opacity:1;paint-order:stroke markers fill"
         inkscape:connector-curvature="0" />
      <path
         inkscape:connector-curvature="0"
         style="fill:url(#linearGradient1328);fill-opacity:1;stroke:none;stroke-width:0.52916664;stroke-linecap:round;stroke-linejoin:round;stroke-miterlimit:4;stroke-dasharray:none;stroke-opacity:1"
         d="m -4.8197865,292.61768 a 2.1166667,2.1166667 0 0 0 -1.5673462,2.04329 2.1166667,2.1166667 0 0 0 2.1166667,2.11667 2.1166667,2.1166667 0 0 0 1.8722372,-1.13172 2.1166667,2.1166667 0 0 1 -0.1896526,0.0424 2.1166667,2.1166667 0 0 1 -0.2098063,0.0258 2.1166667,2.1166667 0 0 1 -0.1498616,0.005 2.1166667,2.1166667 0 0 1 -0.2113566,-0.0103 2.1166667,2.1166667 0 0 1 -0.2092897,-0.032 2.1166667,2.1166667 0 0 1 -0.2046385,-0.0522 2.1166667,2.1166667 0 0 1 -0.1989542,-0.0723 2.1166667,2.1166667 0 0 1 -0.1906863,-0.092 2.1166667,2.1166667 0 0 1 -0.1803506,-0.11058 2.1166667,2.1166667 0 0 1 -0.1684652,-0.12816 2.1166667,2.1166667 0 0 1 -0.1545125,-0.14418 2.1166667,2.1166667 0 0 1 -0.1400431,-0.15916 2.1166667,2.1166667 0 0 1 -0.12299,-0.17208 2.1166667,2.1166667 0 0 1 -0.104903,-0.18346 2.1166667,2.1166667 0 0 1 -0.086816,-0.19326 2.1166667,2.1166667 0 0 1 -0.066663,-0.20051 2.1166667,2.1166667 0 0 1 -0.045992,-0.20671 2.1166667,2.1166667 0 0 1 -0.025839,-0.2098 2.1166667,2.1166667 0 0 1 -0.00517,-0.14986 2.1166667,2.1166667 0 0 1 0.010335,-0.21136 2.1166667,2.1166667 0 0 1 0.032039,-0.20929 2.1166667,2.1166667 0 0 1 0.052193,-0.20464 2.1166667,2.1166667 0 0 1 0.072347,-0.19895 2.1166667,2.1166667 0 0 1 0.077514,-0.16072 z"
         id="path4700" />
    </g>
  </g>
</svg>
