<?xml version="1.0" encoding="UTF-8" standalone="no"?>
<svg
   height="32"
   viewBox="0 0 8.4666664 8.4666669"
   width="32"
   version="1.1"
   id="svg6"
   sodipodi:docname="preferences-desktop-gestures-screenedges.svg"
   inkscape:version="1.2 (dc2aedaf03, 2022-05-15)"
   xml:space="preserve"
   xmlns:inkscape="http://www.inkscape.org/namespaces/inkscape"
   xmlns:sodipodi="http://sodipodi.sourceforge.net/DTD/sodipodi-0.dtd"
   xmlns:xlink="http://www.w3.org/1999/xlink"
   xmlns="http://www.w3.org/2000/svg"
   xmlns:svg="http://www.w3.org/2000/svg"
   xmlns:rdf="http://www.w3.org/1999/02/22-rdf-syntax-ns#"
   xmlns:cc="http://creativecommons.org/ns#"
   xmlns:dc="http://purl.org/dc/elements/1.1/"><metadata
     id="metadata10"><rdf:RDF><cc:Work
         rdf:about=""><dc:format>image/svg+xml</dc:format><dc:type
           rdf:resource="http://purl.org/dc/dcmitype/StillImage" /><dc:title /></cc:Work></rdf:RDF></metadata><sodipodi:namedview
     pagecolor="#ffffff"
     bordercolor="#666666"
     borderopacity="1"
     objecttolerance="10"
     gridtolerance="10"
     guidetolerance="10"
     inkscape:pageopacity="0"
     inkscape:pageshadow="2"
     inkscape:window-width="2160"
     inkscape:window-height="1335"
     id="namedview8"
     showgrid="true"
     inkscape:zoom="20.85965"
     inkscape:cx="34.037004"
     inkscape:cy="15.700168"
     inkscape:window-x="0"
     inkscape:window-y="0"
     inkscape:window-maximized="1"
     inkscape:current-layer="svg6"
     inkscape:showpageshadow="2"
     inkscape:pagecheckerboard="0"
     inkscape:deskcolor="#d1d1d1"><inkscape:grid
       type="xygrid"
       id="grid396" /></sodipodi:namedview><defs
     id="defs2"><linearGradient
       inkscape:collect="always"
       id="linearGradient1871"><stop
         style="stop-color:#326fef;stop-opacity:1;"
         offset="0"
         id="stop1867" /><stop
         style="stop-color:#5694fb;stop-opacity:1;"
         offset="1"
         id="stop1869" /></linearGradient><style
       type="text/css"
       id="current-color-scheme">
      .ColorScheme-Text {
        color:#36404d;
      }
      </style><linearGradient
       inkscape:collect="always"
       xlink:href="#linearGradient1871"
       id="linearGradient1873"
       x1="-0.08520481"
       y1="5.4217162"
       x2="-0.08520481"
       y2="-0.39911723"
       gradientUnits="userSpaceOnUse" /></defs><g
     id="g889"
     transform="translate(4.0539548,1.7220339)"><path
       inkscape:connector-curvature="0"
       style="fill:#33518f;fill-opacity:1;stroke-width:0.26458341"
       d="m -3.7893715,-1.1928672 c -0.1465818,0 -0.2645833,0.1180042 -0.2645833,0.26458339 V 5.9508828 c 0,0.1465792 0.1180015,0.2645833 0.2645833,0.2645833 h 7.9375 c 0.1465816,0 0.2645833,-0.1180041 0.2645833,-0.2645833 v -6.87916661 c 0,-0.14657919 -0.118002,-0.26458339 -0.2645833,-0.26458339 h -3.70416657 -0.79375 z"
       id="path12329-7-3" /><path
       id="path1821"
       style="fill:url(#linearGradient1873);fill-opacity:1;stroke-width:0.264583"
       d="M -3.7893715,-0.9282839 V 1.1883827 1.4529661 3.3050494 4.627966 4.8925494 5.9508827 H 4.1481284 V 3.834216 3.3050494 -0.9282839 H 0.17937844 -0.34978822 -1.4081216 -1.6727049 Z" /><path
       id="path4783-5-3-5-3"
       style="fill:#33518f;fill-opacity:1;stroke-width:0.264583"
       d="M -3.5247881,-0.39911724 V 0.13004938 1.1883827 l 0.79375,-0.79374999 0.79375,-0.79374995 h -1.0583334 z m 5.8208333,0 0.79375,0.79374995 0.79375,0.79374999 V 0.13004938 -0.39911724 H 3.3543785 Z m -3.175,1.32291662 c -0.146579,0 -0.2645833,0.11800432 -0.2645833,0.26458332 0,0.146579 0.1180043,0.2645834 0.2645833,0.2645834 0.146579,0 0.2645833,-0.1180044 0.2645833,-0.2645834 0,-0.146579 -0.1180043,-0.26458332 -0.2645833,-0.26458332 z m 1.5875,0 -0.5291667,0.52916672 0.79375,0.79375 -0.79375,0.79375 0.5291667,0.5291666 0.79375,-0.79375 L 2.0314619,2.2467161 1.5022952,1.7175494 Z m -1.984375,1.32291672 c -0.2198687,0 -0.396875,0.1770064 -0.396875,0.396875 0,0.2198684 0.1770063,0.396875 0.396875,0.396875 0.2198685,0 0.396875,-0.1770066 0.396875,-0.396875 0,-0.2198686 -0.1770065,-0.396875 -0.396875,-0.396875 z m 0.9260417,1.3229166 c -0.2931581,0 -0.5291667,0.2360087 -0.5291667,0.5291667 0,0.293158 0.2360086,0.5291667 0.5291667,0.5291667 0.293158,0 0.5291666,-0.2360087 0.5291666,-0.5291667 0,-0.293158 -0.2360086,-0.5291667 -0.5291666,-0.5291667 z m -3.175,0.79375 v 1.0583334 0.5291666 h 0.5291666 1.0583334 l -0.79375,-0.79375 z m 7.4083333,0 -0.79375,0.79375 -0.79375,0.79375 H 3.3543785 3.8835452 V 5.4217161 Z" /><path
       id="path4783-5-3-5"
       style="fill:#ebf2fa;fill-opacity:1;stroke-width:0.264583"
       d="M -3.5247881 -0.66370057 L -3.5247881 -0.1345339 L -3.5247881 0.92379943 L -2.7310381 0.13004943 L -1.9372881 -0.66370057 L -2.9956215 -0.66370057 L -3.5247881 -0.66370057 z M 2.2960452 -0.66370057 L 3.0897952 0.13004943 L 3.8835452 0.92379943 L 3.8835452 -0.1345339 L 3.8835452 -0.66370057 L 3.3543785 -0.66370057 L 2.2960452 -0.66370057 z M -0.87895481 0.6592161 C -1.0255338 0.6592161 -1.1435381 0.77722037 -1.1435381 0.92379943 C -1.1435381 1.0703784 -1.0255338 1.1883828 -0.87895481 1.1883828 C -0.73237575 1.1883828 -0.61437147 1.0703784 -0.61437147 0.92379943 C -0.61437147 0.77722037 -0.73237575 0.6592161 -0.87895481 0.6592161 z M 0.70854519 0.6592161 L 0.17937852 1.1883828 L 0.97312852 1.9821328 L 0.17937852 2.7758828 L 0.70854519 3.3050494 L 1.5022952 2.5112994 L 2.0314619 1.9821328 L 1.5022952 1.4529661 L 0.70854519 0.6592161 z M -1.2758298 1.9821328 C -1.4956985 1.9821328 -1.6727048 2.1591392 -1.6727048 2.3790078 C -1.6727048 2.5988762 -1.4956985 2.7758828 -1.2758298 2.7758828 C -1.0559613 2.7758828 -0.87895481 2.5988762 -0.87895481 2.3790078 C -0.87895481 2.1591392 -1.0559613 1.9821328 -1.2758298 1.9821328 z M -0.34978814 3.3050494 C -0.64294625 3.3050494 -0.87895481 3.5410581 -0.87895481 3.8342161 C -0.87895481 4.1273741 -0.64294625 4.3633828 -0.34978814 4.3633828 C -0.056630134 4.3633828 0.17937852 4.1273741 0.17937852 3.8342161 C 0.17937852 3.5410581 -0.056630134 3.3050494 -0.34978814 3.3050494 z M -3.5247881 4.0987994 L -3.5247881 5.1571328 L -3.5247881 5.6862994 L -2.9956215 5.6862994 L -1.9372881 5.6862994 L -2.7310381 4.8925494 L -3.5247881 4.0987994 z M 3.8835452 4.0987994 L 3.0897952 4.8925494 L 2.2960452 5.6862994 L 3.3543785 5.6862994 L 3.8835452 5.6862994 L 3.8835452 5.1571328 L 3.8835452 4.0987994 z " /></g></svg>
