<?xml version="1.0" encoding="UTF-8" standalone="no"?>
<!-- Created with Inkscape (http://www.inkscape.org/) -->

<svg
   xmlns:dc="http://purl.org/dc/elements/1.1/"
   xmlns:cc="http://creativecommons.org/ns#"
   xmlns:rdf="http://www.w3.org/1999/02/22-rdf-syntax-ns#"
   xmlns:svg="http://www.w3.org/2000/svg"
   xmlns="http://www.w3.org/2000/svg"
   xmlns:xlink="http://www.w3.org/1999/xlink"
   xmlns:sodipodi="http://sodipodi.sourceforge.net/DTD/sodipodi-0.dtd"
   xmlns:inkscape="http://www.inkscape.org/namespaces/inkscape"
   width="32"
   height="32"
   viewBox="0 0 8.4666662 8.4666664"
   version="1.1"
   id="svg1399"
   inkscape:version="0.92.4 5da689c313, 2019-01-14"
   sodipodi:docname="preferences-desktop-user-password.svg">
  <defs
     id="defs1393">
    <linearGradient
       gradientTransform="matrix(0.26458333,0,0,0.26458333,-10.714619,293.66875)"
       inkscape:collect="always"
       xlink:href="#linearGradient4506"
       id="linearGradient970"
       x1="16"
       y1="24"
       x2="16"
       y2="9"
       gradientUnits="userSpaceOnUse" />
    <linearGradient
       inkscape:collect="always"
       id="linearGradient4506">
      <stop
         style="stop-color:#252a34;stop-opacity:1"
         offset="0"
         id="stop4502" />
      <stop
         style="stop-color:#353d4b;stop-opacity:1"
         offset="1"
         id="stop4504" />
    </linearGradient>
    <linearGradient
       gradientTransform="translate(-1.8174442,292.05434)"
       inkscape:collect="always"
       xlink:href="#linearGradient4582"
       id="linearGradient960"
       x1="-4.9284253"
       y1="8.4935732"
       x2="-4.9284253"
       y2="3.2019067"
       gradientUnits="userSpaceOnUse" />
    <linearGradient
       id="linearGradient4582"
       inkscape:collect="always">
      <stop
         id="stop4578"
         offset="0"
         style="stop-color:#cee3e3;stop-opacity:1" />
      <stop
         id="stop4580"
         offset="1"
         style="stop-color:#fcfcfc;stop-opacity:1" />
    </linearGradient>
    <linearGradient
       gradientTransform="translate(-1.8174442,292.05434)"
       inkscape:collect="always"
       xlink:href="#linearGradient4894"
       id="linearGradient952"
       x1="-4.6638417"
       y1="9.5519066"
       x2="-4.6638417"
       y2="2.4081569"
       gradientUnits="userSpaceOnUse" />
    <linearGradient
       inkscape:collect="always"
       id="linearGradient4894">
      <stop
         style="stop-color:#306dee;stop-opacity:1"
         offset="0"
         id="stop4890" />
      <stop
         style="stop-color:#5795fb;stop-opacity:1"
         offset="1"
         id="stop4892" />
    </linearGradient>
  </defs>
  <sodipodi:namedview
     id="base"
     pagecolor="#ffffff"
     bordercolor="#666666"
     borderopacity="1.0"
     inkscape:pageopacity="0.0"
     inkscape:pageshadow="2"
     inkscape:zoom="7.9195959"
     inkscape:cx="-15.98796"
     inkscape:cy="-0.67020984"
     inkscape:document-units="mm"
     inkscape:current-layer="layer1"
     showgrid="false"
     inkscape:showpageshadow="false"
     units="px"
     inkscape:window-width="1920"
     inkscape:window-height="1003"
     inkscape:window-x="0"
     inkscape:window-y="0"
     inkscape:window-maximized="1" />
  <metadata
     id="metadata1396">
    <rdf:RDF>
      <cc:Work
         rdf:about="">
        <dc:format>image/svg+xml</dc:format>
        <dc:type
           rdf:resource="http://purl.org/dc/dcmitype/StillImage" />
        <dc:title></dc:title>
      </cc:Work>
    </rdf:RDF>
  </metadata>
  <g
     inkscape:label="Capa 1"
     inkscape:groupmode="layer"
     id="layer1"
     transform="translate(0,-288.53338)">
    <g
       id="g1627"
       transform="translate(10.714619,-5.1353717)">
      <path
         id="rect2581-4"
         d="m -10.185453,294.19792 h 7.4083334 c 0.293158,0 0.5291666,0.23601 0.5291666,0.52917 v 6.35 c 0,0.29315 -0.2360086,0.52916 -0.5291666,0.52916 h -7.4083334 c -0.293158,0 -0.529166,-0.23601 -0.529166,-0.52916 v -6.35 c 0,-0.29316 0.236008,-0.52917 0.529166,-0.52917 z"
         style="opacity:1;vector-effect:none;fill:#33518f;fill-opacity:1;stroke:none;stroke-width:0.52916664;stroke-linecap:round;stroke-linejoin:round;stroke-miterlimit:4;stroke-dasharray:none;stroke-dashoffset:0;stroke-opacity:1"
         inkscape:connector-curvature="0" />
      <path
         id="rect2579-8"
         d="m -10.185453,294.46248 h 7.4083339 c 0.1465789,0 0.2645831,0.118 0.2645831,0.26458 v 6.35 c 0,0.14658 -0.1180042,0.26458 -0.2645831,0.26458 h -7.4083339 c -0.146579,0 -0.264583,-0.118 -0.264583,-0.26458 v -6.35 c 0,-0.14658 0.118004,-0.26458 0.264583,-0.26458 z"
         style="opacity:1;vector-effect:none;fill:url(#linearGradient952);fill-opacity:1;stroke:none;stroke-width:0.52916664;stroke-linecap:round;stroke-linejoin:round;stroke-miterlimit:4;stroke-dasharray:none;stroke-dashoffset:0;stroke-opacity:1"
         inkscape:connector-curvature="0" />
      <path
         id="rect2577-71"
         d="m -9.9208691,294.99165 h 6.8791664 v 5.82084 h -6.8791664 z"
         style="opacity:1;vector-effect:none;fill:#33518f;fill-opacity:1;stroke:none;stroke-width:0.52916664;stroke-linecap:round;stroke-linejoin:round;stroke-miterlimit:4;stroke-dasharray:none;stroke-dashoffset:0;stroke-opacity:1"
         inkscape:connector-curvature="0" />
      <path
         id="rect2577-7-7"
         d="m -9.6562857,295.25624 h 6.3499997 v 5.29167 h -6.3499997 z"
         style="opacity:1;vector-effect:none;fill:url(#linearGradient960);fill-opacity:1;stroke:none;stroke-width:0.52916664;stroke-linecap:round;stroke-linejoin:round;stroke-miterlimit:4;stroke-dasharray:none;stroke-dashoffset:0;stroke-opacity:1"
         inkscape:connector-curvature="0" />
      <path
         id="rect2598-2"
         d="m -6.481286,295.78542 a 0.79375,0.79375 0 0 0 -0.79375,0.79375 0.79375,0.79375 0 0 0 0.79375,0.79375 0.79375,0.79375 0 0 0 0.79375,-0.79375 0.79375,0.79375 0 0 0 -0.79375,-0.79375 z m -0.031006,1.8526 a 1.3229166,1.3229166 0 0 0 -0.6304524,0.17673 1.3229166,1.3229166 0 0 0 -0.6614583,1.14567 h 1.3229167 1.3229166 a 1.3229166,1.3229166 0 0 0 -0.6614583,-1.14567 1.3229166,1.3229166 0 0 0 -0.6924643,-0.17673 z m -2.3502441,1.58698 v 0.79375 H -4.100036 V 299.225 Z m 0.2645833,0.26458 h 0.5291667 v 0.26459 h -0.5291667 z m 0.7937501,0 h 1.3229167 v 0.26459 h -1.3229167 z m 1.5875,0 h 0.2645833 v 0.26459 h -0.2645833 z m 0.5291667,0 h 0.79375 v 0.26459 h -0.79375 z m 1.0583333,0 h 0.2645833 v 0.26459 h -0.2645833 z"
         style="opacity:1;vector-effect:none;fill:url(#linearGradient970);fill-opacity:1;stroke:none;stroke-width:0.52916664;stroke-linecap:round;stroke-linejoin:round;stroke-miterlimit:4;stroke-dasharray:none;stroke-dashoffset:0;stroke-opacity:1"
         inkscape:connector-curvature="0" />
    </g>
  </g>
</svg>
