<?xml version="1.0" encoding="UTF-8" standalone="no"?>
<!-- Created with Inkscape (http://www.inkscape.org/) -->

<svg
   xmlns:dc="http://purl.org/dc/elements/1.1/"
   xmlns:cc="http://creativecommons.org/ns#"
   xmlns:rdf="http://www.w3.org/1999/02/22-rdf-syntax-ns#"
   xmlns:svg="http://www.w3.org/2000/svg"
   xmlns="http://www.w3.org/2000/svg"
   xmlns:xlink="http://www.w3.org/1999/xlink"
   xmlns:sodipodi="http://sodipodi.sourceforge.net/DTD/sodipodi-0.dtd"
   xmlns:inkscape="http://www.inkscape.org/namespaces/inkscape"
   width="32"
   height="32"
   viewBox="0 0 32 32"
   version="1.1"
   id="svg8"
   inkscape:version="0.92.4 5da689c313, 2019-01-14"
   sodipodi:docname="preferences-system-network-ethernet.svg">
  <title
     id="title7895">Antu icon Theme</title>
  <defs
     id="defs2">
    <linearGradient
       inkscape:collect="always"
       id="linearGradient4627">
      <stop
         style="stop-color:#ffc900;stop-opacity:1"
         offset="0"
         id="stop4623" />
      <stop
         style="stop-color:#ffe200;stop-opacity:1"
         offset="1"
         id="stop4625" />
    </linearGradient>
    <linearGradient
       inkscape:collect="always"
       id="linearGradient4582">
      <stop
         style="stop-color:#cee3e3;stop-opacity:1"
         offset="0"
         id="stop4578" />
      <stop
         style="stop-color:#fcfcfc;stop-opacity:1"
         offset="1"
         id="stop4580" />
    </linearGradient>
    <linearGradient
       id="linearGradient4766-0"
       inkscape:collect="always">
      <stop
         id="stop4762"
         offset="0"
         style="stop-color:#222731;stop-opacity:1" />
      <stop
         style="stop-color:#15181e;stop-opacity:1;"
         offset="0.4999994"
         id="stop4828" />
      <stop
         id="stop4764"
         offset="1"
         style="stop-color:#090a0c;stop-opacity:1" />
    </linearGradient>
    <linearGradient
       inkscape:collect="always"
       xlink:href="#linearGradient4582"
       id="linearGradient874"
       x1="-3"
       y1="297.64999"
       x2="-3"
       y2="322.64999"
       gradientUnits="userSpaceOnUse" />
    <linearGradient
       inkscape:collect="always"
       xlink:href="#linearGradient4766-0"
       id="linearGradient882"
       x1="-3"
       y1="297.64999"
       x2="-3"
       y2="321.64999"
       gradientUnits="userSpaceOnUse" />
    <linearGradient
       inkscape:collect="always"
       xlink:href="#linearGradient4627"
       id="linearGradient890"
       x1="-3"
       y1="313.64999"
       x2="-3"
       y2="321.64999"
       gradientUnits="userSpaceOnUse" />
  </defs>
  <sodipodi:namedview
     id="base"
     pagecolor="#ffffff"
     bordercolor="#666666"
     borderopacity="1.0"
     inkscape:pageopacity="0.0"
     inkscape:pageshadow="2"
     inkscape:zoom="22.4"
     inkscape:cx="28.041552"
     inkscape:cy="13.793211"
     inkscape:document-units="px"
     inkscape:current-layer="g2206"
     showgrid="true"
     units="px"
     inkscape:window-width="1920"
     inkscape:window-height="1003"
     inkscape:window-x="0"
     inkscape:window-y="0"
     inkscape:window-maximized="1"
     objecttolerance="10"
     gridtolerance="10"
     guidetolerance="10"
     showguides="false">
    <inkscape:grid
       type="xygrid"
       id="grid7897"
       empspacing="4" />
  </sodipodi:namedview>
  <metadata
     id="metadata5">
    <rdf:RDF>
      <cc:Work
         rdf:about="">
        <dc:format>image/svg+xml</dc:format>
        <dc:type
           rdf:resource="http://purl.org/dc/dcmitype/StillImage" />
        <dc:title>Antu icon Theme</dc:title>
      </cc:Work>
    </rdf:RDF>
  </metadata>
  <g
     inkscape:label="Capa 1"
     inkscape:groupmode="layer"
     id="layer1"
     transform="translate(0,-282.64999)">
    <g
       id="g2206"
       transform="matrix(1,0,0,-1,19,608.29998)">
      <path
         inkscape:connector-curvature="0"
         style="opacity:1;fill:#94a7b1;fill-opacity:1;stroke:none;stroke-width:2.39314151;stroke-linecap:round;stroke-linejoin:round;stroke-miterlimit:4;stroke-dasharray:none;stroke-opacity:1"
         d="m -17,324.64999 h 28 c 1.108001,0 2,-0.89201 2,-2.00001 V 296.65 c 0,-1.108 -0.891999,-2.00001 -2,-2.00001 h -28 c -1.108,0 -2,0.89201 -2,2.00001 v 25.99998 c 0,1.108 0.892,2.00001 2,2.00001 z"
         id="rect843"
         sodipodi:nodetypes="sssssssss" />
      <path
         inkscape:connector-curvature="0"
         style="opacity:1;fill:url(#linearGradient874);fill-opacity:1;stroke:none;stroke-width:2.23359871;stroke-linecap:round;stroke-linejoin:round;stroke-miterlimit:4;stroke-dasharray:none;stroke-opacity:1"
         d="m -17,323.64996 h 28 c 0.554001,0 1,-0.44598 1,-0.99998 v -26.00001 c 0,-0.55397 -0.445999,-0.99999 -1,-0.99999 h -28 c -0.554,0 -1,0.44602 -1,0.99999 v 26.00001 c 0,0.554 0.446,0.99998 1,0.99998 z"
         id="rect843-3"
         sodipodi:nodetypes="sssssssss" />
      <path
         id="rect6007-7-5"
         d="m -15,321.64999 c -0.554,0 -1,-0.446 -1,-1 v -2 c -0.554,0 -1,-0.446 -1,-1 v -1 c 0,-0.554 0.446,-1 1,-1 v -3 c -0.554,0 -1,-0.446 -1,-1 v -1 c 0,-0.554 0.446,-1 1,-1 v -8 c 0,-0.554 0.446,-1 1,-1 h 4 v -1 c 0,-0.554 0.446002,-1 1,-1 h 2 c 0,-0.554 0.446,-1 1,-1 h 8 c 0.554,0 1,0.446 1,1 h 2 c 0,0 1,0 1,1 v 1 h 4 c 0.554,0 1,0.446 1,1 v 8 c 0.554,0 1,0.446 1,1 v 1 c 0,0.554 -0.446,1 -1,1 v 3 c 0.554,0 1,0.446 1,1 v 1 c 0,0.554 -0.446,1 -1,1 v 2 c 0,0 0,1 -1,1 z"
         style="opacity:1;fill:url(#linearGradient882);fill-opacity:1;stroke:none;stroke-width:0.99999994;stroke-linecap:round;stroke-linejoin:bevel;stroke-miterlimit:4;stroke-dasharray:none;stroke-opacity:1"
         inkscape:connector-curvature="0"
         sodipodi:nodetypes="sscssccsscsscsscsscsscsscssccsscsss" />
      <path
         style="opacity:1;fill:url(#linearGradient890);fill-opacity:1;stroke:none;stroke-width:2;stroke-linecap:round;stroke-linejoin:round;stroke-miterlimit:4;stroke-dasharray:none;stroke-opacity:1"
         d="m -14,320.64999 v -5 c 0,-0.554 0.446,-1 1,-1 0.554,0 1,0.446 1,1 v 5 z m 4,0 v -5 c 0,-0.554 0.446,-1 1,-1 0.554,0 1,0.446 1,1 v 5 z m 4,0 v -5 c 0,-0.554 0.446,-1 1,-1 0.554,0 1,0.446 1,1 v 5 z m 4,0 v -5 c 0,-0.554 0.446,-1 1,-1 0.554,0 1,0.446 1,1 v 5 z m 4,0 v -5 c 0,-0.554 0.446,-1 1,-1 0.554,0 1,0.446 1,1 v 5 z m 4,0 v -5 c 0,-0.554 0.446,-1 1,-1 0.554,0 1,0.446 1,1 v 5 z"
         id="path837"
         inkscape:connector-curvature="0" />
    </g>
  </g>
</svg>
