<?xml version="1.0" encoding="UTF-8" standalone="no"?>
<svg
   xmlns:dc="http://purl.org/dc/elements/1.1/"
   xmlns:cc="http://creativecommons.org/ns#"
   xmlns:rdf="http://www.w3.org/1999/02/22-rdf-syntax-ns#"
   xmlns:svg="http://www.w3.org/2000/svg"
   xmlns="http://www.w3.org/2000/svg"
   xmlns:xlink="http://www.w3.org/1999/xlink"
   xmlns:sodipodi="http://sodipodi.sourceforge.net/DTD/sodipodi-0.dtd"
   xmlns:inkscape="http://www.inkscape.org/namespaces/inkscape"
   height="32"
   viewBox="0 0 8.4666664 8.4666669"
   width="32"
   version="1.1"
   id="svg6"
   sodipodi:docname="preferences-desktop-theme-windowdecorations.svg"
   inkscape:version="0.92.4 5da689c313, 2019-01-14">
  <metadata
     id="metadata10">
    <rdf:RDF>
      <cc:Work
         rdf:about="">
        <dc:format>image/svg+xml</dc:format>
        <dc:type
           rdf:resource="http://purl.org/dc/dcmitype/StillImage" />
        <dc:title />
      </cc:Work>
    </rdf:RDF>
  </metadata>
  <sodipodi:namedview
     pagecolor="#ffffff"
     bordercolor="#666666"
     borderopacity="1"
     objecttolerance="10"
     gridtolerance="10"
     guidetolerance="10"
     inkscape:pageopacity="0"
     inkscape:pageshadow="2"
     inkscape:window-width="1920"
     inkscape:window-height="1003"
     id="namedview8"
     showgrid="true"
     inkscape:zoom="14.75"
     inkscape:cx="-4.4734711"
     inkscape:cy="9.8501134"
     inkscape:window-x="0"
     inkscape:window-y="0"
     inkscape:window-maximized="1"
     inkscape:current-layer="g6129">
    <inkscape:grid
       type="xygrid"
       id="grid6131" />
  </sodipodi:namedview>
  <defs
     id="defs2">
    <style
       type="text/css"
       id="current-color-scheme">
      .ColorScheme-Text {
        color:#36404d;
      }
      </style>
    <linearGradient
       inkscape:collect="always"
       id="linearGradient4582-3">
      <stop
         style="stop-color:#cee3e3;stop-opacity:1"
         offset="0"
         id="stop4578-5" />
      <stop
         style="stop-color:#fcfcfc;stop-opacity:1"
         offset="1"
         id="stop4580-6" />
    </linearGradient>
    <linearGradient
       id="linearGradient2118"
       inkscape:collect="always">
      <stop
         id="stop2114"
         offset="0"
         style="stop-color:#238abf;stop-opacity:1" />
      <stop
         id="stop2116"
         offset="1"
         style="stop-color:#30b9fc;stop-opacity:1" />
    </linearGradient>
    <linearGradient
       id="linearGradient2126"
       inkscape:collect="always">
      <stop
         id="stop2122"
         offset="0"
         style="stop-color:#475057;stop-opacity:1;" />
      <stop
         id="stop2124"
         offset="1"
         style="stop-color:#5e6a73;stop-opacity:1" />
    </linearGradient>
    <linearGradient
       inkscape:collect="always"
       xlink:href="#linearGradient2118"
       id="linearGradient876"
       x1="0.26458341"
       y1="3.1794844"
       x2="0.26458341"
       y2="1.0628178"
       gradientUnits="userSpaceOnUse" />
    <linearGradient
       inkscape:collect="always"
       xlink:href="#linearGradient2126"
       id="linearGradient884"
       x1="3.7041667"
       y1="3.1794844"
       x2="3.7041667"
       y2="1.0628178"
       gradientUnits="userSpaceOnUse" />
    <linearGradient
       inkscape:collect="always"
       xlink:href="#linearGradient4582-3"
       id="linearGradient892"
       x1="1.8520834"
       y1="7.9419847"
       x2="1.8520834"
       y2="3.4440677"
       gradientUnits="userSpaceOnUse" />
  </defs>
  <g
     id="g6129"
     transform="translate(2.1166666,-0.26906781)">
    <path
       inkscape:connector-curvature="0"
       style="opacity:1;fill:#90a4ae;fill-opacity:1;stroke:none;stroke-width:0.21378334;stroke-linecap:round;stroke-linejoin:round;stroke-miterlimit:4;stroke-dasharray:none;stroke-opacity:1;paint-order:stroke markers fill"
       d="M -1.587501,1.8565678 H 5.8208344 C 6.1139922,1.8565678 6.35,2.0925761 6.35,2.3857344 v 5.2916694 c 0,0.2931583 -0.2360078,0.529164 -0.5291656,0.529164 H -1.587501 c -0.2931578,0 -0.5291656,-0.2360057 -0.5291656,-0.529164 V 2.3857344 c 0,-0.2931583 0.2360078,-0.5291666 0.5291656,-0.5291666 z"
       id="rect941"
       sodipodi:nodetypes="sssssssss" />
    <path
       inkscape:connector-curvature="0"
       style="opacity:1;fill:url(#linearGradient892);fill-opacity:1;stroke:none;stroke-width:0.21378334;stroke-linecap:round;stroke-linejoin:round;stroke-miterlimit:4;stroke-dasharray:none;stroke-opacity:1;paint-order:stroke markers fill"
       d="m -1.5875,2.1211511 h 7.4083334 c 0.1465792,0 0.2645833,0.1180042 0.2645833,0.2645833 v 5.2916668 c 0,0.1465791 -0.1180041,0.2645833 -0.2645833,0.2645833 H -1.5875 c -0.1465791,0 -0.2645833,-0.1180042 -0.2645833,-0.2645833 V 2.3857344 c 0,-0.1465791 0.1180042,-0.2645833 0.2645833,-0.2645833 z"
       id="rect943"
       sodipodi:nodetypes="sssssssss" />
    <path
       sodipodi:nodetypes="cccccccccccssccc"
       id="rect5465-6"
       d="M 2.1166667,0.79823447 V 1.3274011 2.9149012 3.4440678 H 1.5875001 0.79375006 0.26458336 -1.5875 -2.1166666 V 2.9149012 2.3857345 1.3274011 c 0,-0.2931583 0.2360088,-0.52916663 0.5291666,-0.52916663 H 0.79375006 1.5875001 Z"
       style="fill:#115799;fill-opacity:1;stroke:none;stroke-width:0.52916664;stroke-linecap:round;stroke-linejoin:round;stroke-miterlimit:4;stroke-dasharray:none;stroke-opacity:1"
       inkscape:connector-curvature="0" />
    <path
       sodipodi:nodetypes="ssccccccs"
       inkscape:connector-curvature="0"
       id="path5448"
       d="m -1.5875,1.0628178 c -0.1465786,0 -0.2645833,0.1180042 -0.2645833,0.2645833 V 2.6503178 2.9149012 3.1794845 H -1.5875 1.8520834 V 1.0628178 Z"
       style="opacity:1;fill:url(#linearGradient876);fill-opacity:1;stroke:none;stroke-width:0.21378334;stroke-linecap:round;stroke-linejoin:round;stroke-miterlimit:4;stroke-dasharray:none;stroke-opacity:1;paint-order:stroke markers fill" />
    <path
       sodipodi:nodetypes="cccccccccccssccc"
       inkscape:connector-curvature="0"
       id="rect5465"
       d="M 2.1166667,0.79823447 V 1.3274011 2.9149012 3.4440678 H 2.6458334 3.4395834 3.9687501 5.8208334 6.35 V 2.9149012 2.3857345 1.3274011 C 6.35,1.0342434 6.1139912,0.79823447 5.8208334,0.79823447 h -2.38125 -0.79375 z"
       style="fill:#343b40;fill-opacity:1;stroke:none;stroke-width:0.52916664;stroke-linecap:round;stroke-linejoin:round;stroke-miterlimit:4;stroke-dasharray:none;stroke-opacity:1" />
    <path
       sodipodi:nodetypes="ccccccssc"
       inkscape:connector-curvature="0"
       id="rect868"
       d="M 2.3812501,1.0628178 V 3.1794845 H 5.8208334 6.0854167 V 2.9149012 2.6503178 1.3274011 c 0,-0.1465791 -0.1180047,-0.2645833 -0.2645833,-0.2645833 z"
       style="opacity:1;fill:url(#linearGradient884);fill-opacity:1;stroke:none;stroke-width:0.21378334;stroke-linecap:round;stroke-linejoin:round;stroke-miterlimit:4;stroke-dasharray:none;stroke-opacity:1;paint-order:stroke markers fill" />
    <path
       inkscape:connector-curvature="0"
       style="opacity:1;fill:#343b40;fill-opacity:1;stroke:none;stroke-width:0.14252223;stroke-linecap:round;stroke-linejoin:round;stroke-miterlimit:4;stroke-dasharray:none;stroke-opacity:1;paint-order:stroke markers fill"
       d="m 5.0270829,1.3274011 h 8e-7 c 0.4397375,0 0.7937497,0.3540125 0.7937497,0.7937501 0,0.4397375 -0.3540122,0.79375 -0.7937497,0.79375 h -8e-7 c -0.4397372,0 -0.7937495,-0.3540125 -0.7937495,-0.79375 0,-0.4397376 0.3540123,-0.7937501 0.7937495,-0.7937501 z"
       id="rect836" />
    <path
       inkscape:connector-curvature="0"
       style="opacity:1;fill:#115799;fill-opacity:1;stroke:none;stroke-width:0.14252223;stroke-linecap:round;stroke-linejoin:round;stroke-miterlimit:4;stroke-dasharray:none;stroke-opacity:1;paint-order:stroke markers fill"
       d="m -0.79375044,1.3274011 h 8e-7 c 0.4397375,0 0.793749701562499,0.3540125 0.793749701562499,0.7937501 0,0.4397375 -0.354012201562499,0.79375 -0.793749701562499,0.79375 h -8e-7 c -0.43973726,0 -0.79374946,-0.3540125 -0.79374946,-0.79375 0,-0.4397376 0.3540122,-0.7937501 0.79374946,-0.7937501 z"
       id="rect836-5" />
    <path
       inkscape:connector-curvature="0"
       style="opacity:1;fill:#f1f1f1;fill-opacity:1;stroke:none;stroke-width:0.14252222;stroke-linecap:round;stroke-linejoin:round;stroke-miterlimit:4;stroke-dasharray:none;stroke-opacity:1;paint-order:stroke markers fill"
       d="m -0.79374994,1.5919845 c 0.2931583,0 0.5291667,0.2360083 0.5291667,0.5291667 0,0.2931583 -0.2360084,0.5291666 -0.5291667,0.5291666 -0.29315826,0 -0.52916666,-0.2360083 -0.52916666,-0.5291666 0,-0.2931584 0.2360084,-0.5291667 0.52916666,-0.5291667 z"
       id="rect880" />
    <path
       inkscape:connector-curvature="0"
       style="opacity:1;fill:#ffffff;fill-opacity:1;stroke:none;stroke-width:0.14252222;stroke-linecap:round;stroke-linejoin:round;stroke-miterlimit:4;stroke-dasharray:none;stroke-opacity:1;paint-order:stroke markers fill"
       d="m 5.0270834,1.5919845 c 0.2931583,0 0.5291667,0.2360083 0.5291667,0.5291667 0,0.2931583 -0.2360084,0.5291666 -0.5291667,0.5291666 -0.2931583,0 -0.5291666,-0.2360083 -0.5291666,-0.5291666 0,-0.2931584 0.2360083,-0.5291667 0.5291666,-0.5291667 z"
       id="rect880-3" />
  </g>
</svg>
