<?xml version="1.0" encoding="UTF-8" standalone="no"?>
<svg
   xmlns:dc="http://purl.org/dc/elements/1.1/"
   xmlns:cc="http://creativecommons.org/ns#"
   xmlns:rdf="http://www.w3.org/1999/02/22-rdf-syntax-ns#"
   xmlns:svg="http://www.w3.org/2000/svg"
   xmlns="http://www.w3.org/2000/svg"
   xmlns:xlink="http://www.w3.org/1999/xlink"
   xmlns:sodipodi="http://sodipodi.sourceforge.net/DTD/sodipodi-0.dtd"
   xmlns:inkscape="http://www.inkscape.org/namespaces/inkscape"
   height="32"
   viewBox="0 0 8.4666664 8.4666669"
   width="32"
   version="1.1"
   id="svg6"
   sodipodi:docname="preferences-desktop-effects.svg"
   inkscape:version="0.92.4 5da689c313, 2019-01-14">
  <metadata
     id="metadata10">
    <rdf:RDF>
      <cc:Work
         rdf:about="">
        <dc:format>image/svg+xml</dc:format>
        <dc:type
           rdf:resource="http://purl.org/dc/dcmitype/StillImage" />
        <dc:title />
      </cc:Work>
    </rdf:RDF>
  </metadata>
  <sodipodi:namedview
     pagecolor="#ffffff"
     bordercolor="#666666"
     borderopacity="1"
     objecttolerance="10"
     gridtolerance="10"
     guidetolerance="10"
     inkscape:pageopacity="0"
     inkscape:pageshadow="2"
     inkscape:window-width="1920"
     inkscape:window-height="1003"
     id="namedview8"
     showgrid="true"
     inkscape:zoom="14.75"
     inkscape:cx="0.92346206"
     inkscape:cy="7.1553181"
     inkscape:window-x="0"
     inkscape:window-y="0"
     inkscape:window-maximized="1"
     inkscape:current-layer="svg6">
    <inkscape:grid
       type="xygrid"
       id="grid2515" />
  </sodipodi:namedview>
  <defs
     id="defs2">
    <style
       type="text/css"
       id="current-color-scheme">
      .ColorScheme-Text {
        color:#36404d;
      }
      </style>
    <style
       id="current-color-scheme-3"
       type="text/css">
      .ColorScheme-Text {
        color:#36404d;
      }
      </style>
    <linearGradient
       id="linearGradient4902"
       inkscape:collect="always">
      <stop
         id="stop4898"
         offset="0"
         style="stop-color:#0d72ec;stop-opacity:1" />
      <stop
         id="stop4900"
         offset="1"
         style="stop-color:#36b2fb;stop-opacity:1" />
    </linearGradient>
    <linearGradient
       inkscape:collect="always"
       xlink:href="#linearGradient4902"
       id="linearGradient875"
       x1="-4.8028603"
       y1="8.6505299"
       x2="-4.8028603"
       y2="2.3005295"
       gradientUnits="userSpaceOnUse" />
  </defs>
  <g
     id="g2513"
     transform="translate(8.7716101,-1.5067796)">
    <path
       id="path12329"
       d="m -8.5070268,2.0359463 c -0.1465818,0 -0.2645833,0.1180042 -0.2645833,0.2645834 v 6.8791666 c 0,0.1465792 0.1180015,0.2645833 0.2645833,0.2645833 h 7.93749997 c 0.1465816,0 0.2645833,-0.1180041 0.2645833,-0.2645833 V 2.3005297 c 0,-0.1465792 -0.118002,-0.2645834 -0.2645833,-0.2645834 h -3.70416657 -0.79375 z"
       style="fill:#0a5dbf;fill-opacity:1;stroke-width:0.26458338"
       inkscape:connector-curvature="0" />
    <path
       sodipodi:nodetypes="ccccccc"
       inkscape:connector-curvature="0"
       id="path13-5-2-9-4-2-6-6"
       d="m -8.5070268,2.3005297 0,6.0854166 h 7.93750002 l -5e-8,-6.0854166 H -4.5382768 -5.0674434 Z"
       style="fill:url(#linearGradient875);fill-opacity:1;stroke-width:0.26458338" />
    <path
       sodipodi:nodetypes="ccccc"
       id="rect4537-2"
       d="m -8.5070268,8.3859463 0,0.79375 h 7.93749997 l 5e-8,-0.79375 z"
       style="fill:#e6eef8;fill-opacity:1;stroke:none;stroke-width:0.10583334;stroke-linecap:round;stroke-linejoin:round;stroke-miterlimit:4;stroke-dasharray:none;stroke-opacity:1"
       inkscape:connector-curvature="0" />
    <path
       style="opacity:1;fill:#0b63cc;fill-opacity:1;stroke:none;stroke-width:1.58750021;stroke-linecap:round;stroke-linejoin:round;stroke-miterlimit:4;stroke-dasharray:none;stroke-dashoffset:0;stroke-opacity:1;paint-order:stroke markers fill"
       d="m -4.5382768,3.0942796 c -0.068733,0.00106 -0.1343385,0.028895 -0.1829345,0.077515 -0.5977123,0.5977096 -0.835896,1.6224898 -0.855245,2.4582477 L -6.333516,6.6397997 c -0.060031,0.08019 -0.069643,0.187403 -0.024805,0.2769856 l 0.2645833,0.5291667 c 0.044831,0.089635 0.1364566,0.1462521 0.2366781,0.1462442 h 0.6304525 l 0.1912028,0.3829225 c 0.044831,0.089636 0.1364565,0.1462521 0.236678,0.1462442 h 0.5291667 c 0.1002215,7.9e-6 0.191847,-0.056609 0.236678,-0.1462442 l 0.1912027,-0.3829225 h 0.6304526 c 0.1002215,7.9e-6 0.191847,-0.056609 0.236678,-0.1462442 L -2.709965,6.9167853 C -2.665139,6.8272023 -2.674752,6.7199896 -2.73477,6.6397997 L -3.4918291,5.630042 C -3.5111701,4.7942841 -3.7493618,3.7695039 -4.347074,3.1717943 c -0.05062,-0.050644 -0.1196066,-0.07861 -0.1912028,-0.077515 z m -2.3812499,1.0583333 c -0.1465791,0 -0.2645834,0.1180042 -0.2645834,0.2645833 0,0.1465792 0.1180043,0.2645834 0.2645834,0.2645834 0.1465792,0 0.2645833,-0.1180042 0.2645833,-0.2645834 0,-0.1465791 -0.1180041,-0.2645833 -0.2645833,-0.2645833 z m 4.7624999,0 c -0.1465792,0 -0.2645833,0.1180042 -0.2645833,0.2645833 0,0.1465792 0.1180041,0.2645834 0.2645833,0.2645834 0.1465792,0 0.2645833,-0.1180042 0.2645833,-0.2645834 0,-0.1465791 -0.1180041,-0.2645833 -0.2645833,-0.2645833 z m -5.5562499,0.5291667 c -0.1465792,0 -0.2645834,0.1180041 -0.2645834,0.2645833 0,0.1465792 0.1180042,0.2645833 0.2645834,0.2645833 0.1465792,0 0.2645833,-0.1180041 0.2645833,-0.2645833 0,-0.1465792 -0.1180041,-0.2645833 -0.2645833,-0.2645833 z m 3.179134,0 c 0.2922508,0 0.5291667,0.2369158 0.5291667,0.5291666 -2.6e-6,0.2922508 -0.2369159,0.5291667 -0.5291667,0.5291667 -0.2922508,0 -0.5291666,-0.2369159 -0.5291666,-0.5291667 0,-0.2922508 0.2369158,-0.5291666 0.5291666,-0.5291666 z m 3.1708659,0 c -0.1465792,0 -0.2645833,0.1180041 -0.2645833,0.2645833 0,0.1465792 0.1180041,0.2645833 0.2645833,0.2645833 0.1465791,0 0.2645833,-0.1180041 0.2645833,-0.2645833 0,-0.1465792 -0.1180042,-0.2645833 -0.2645833,-0.2645833 z m -5.5562499,0.5291666 c -0.1465791,0 -0.2645834,0.1180042 -0.2645834,0.2645834 0,0.1465791 0.1180043,0.2645833 0.2645834,0.2645833 0.1465792,0 0.2645833,-0.1180042 0.2645833,-0.2645833 0,-0.1465792 -0.1180041,-0.2645834 -0.2645833,-0.2645834 z m 4.7624999,0 c -0.1465792,0 -0.2645833,0.1180042 -0.2645833,0.2645834 0,0.1465791 0.1180041,0.2645833 0.2645833,0.2645833 0.1465792,0 0.2645833,-0.1180042 0.2645833,-0.2645833 0,-0.1465792 -0.1180041,-0.2645834 -0.2645833,-0.2645834 z m -5.5562499,0.5291667 c -0.1465792,0 -0.2645834,0.1180042 -0.2645834,0.2645833 0,0.1465792 0.1180042,0.2645834 0.2645834,0.2645834 0.1465792,0 0.2645833,-0.1180042 0.2645833,-0.2645834 0,-0.1465791 -0.1180041,-0.2645833 -0.2645833,-0.2645833 z m 6.3499999,0 c -0.1465792,0 -0.2645833,0.1180042 -0.2645833,0.2645833 0,0.1465792 0.1180041,0.2645834 0.2645833,0.2645834 0.1465791,0 0.2645833,-0.1180042 0.2645833,-0.2645834 0,-0.1465791 -0.1180042,-0.2645833 -0.2645833,-0.2645833 z m -5.5562499,0.5291667 c -0.1465791,0 -0.2645834,0.1180041 -0.2645834,0.2645833 0,0.1465792 0.1180043,0.2645833 0.2645834,0.2645833 0.1465792,0 0.2645833,-0.1180041 0.2645833,-0.2645833 0,-0.1465792 -0.1180041,-0.2645833 -0.2645833,-0.2645833 z m 4.7624999,0 c -0.1465792,0 -0.2645833,0.1180041 -0.2645833,0.2645833 0,0.1465792 0.1180041,0.2645833 0.2645833,0.2645833 0.1465792,0 0.2645833,-0.1180041 0.2645833,-0.2645833 0,-0.1465792 -0.1180041,-0.2645833 -0.2645833,-0.2645833 z"
       id="path847-0-5"
       inkscape:connector-curvature="0" />
    <path
       sodipodi:nodetypes="ssssssssssssssssssssssssssssssssssssssssssssssssss"
       inkscape:connector-curvature="0"
       id="path847-0"
       d="m -6.9195268,3.8880296 c -0.1465791,0 -0.2645833,0.1180042 -0.2645833,0.2645834 0,0.1465791 0.1180042,0.2645833 0.2645833,0.2645833 0.1465792,0 0.2645834,-0.1180042 0.2645834,-0.2645833 0,-0.1465792 -0.1180042,-0.2645834 -0.2645834,-0.2645834 z m 4.7625,0 c -0.1465791,0 -0.2645833,0.1180042 -0.2645833,0.2645834 0,0.1465791 0.1180042,0.2645833 0.2645833,0.2645833 0.1465792,0 0.2645834,-0.1180042 0.2645834,-0.2645833 0,-0.1465792 -0.1180042,-0.2645834 -0.2645834,-0.2645834 z m -5.55625,0.5291667 c -0.1465792,0 -0.2645833,0.1180042 -0.2645833,0.2645833 0,0.1465792 0.1180041,0.2645834 0.2645833,0.2645834 0.1465792,0 0.2645834,-0.1180042 0.2645834,-0.2645834 0,-0.1465791 -0.1180042,-0.2645833 -0.2645834,-0.2645833 z m 6.35,0 c -0.1465791,0 -0.2645833,0.1180042 -0.2645833,0.2645833 0,0.1465792 0.1180042,0.2645834 0.2645833,0.2645834 0.1465792,0 0.2645834,-0.1180042 0.2645834,-0.2645834 0,-0.1465791 -0.1180042,-0.2645833 -0.2645834,-0.2645833 z m -5.55625,0.5291667 c -0.1465791,0 -0.2645833,0.1180041 -0.2645833,0.2645833 0,0.1465792 0.1180042,0.2645833 0.2645833,0.2645833 0.1465792,0 0.2645834,-0.1180041 0.2645834,-0.2645833 0,-0.1465792 -0.1180042,-0.2645833 -0.2645834,-0.2645833 z m 4.7625,0 c -0.1465791,0 -0.2645833,0.1180041 -0.2645833,0.2645833 0,0.1465792 0.1180042,0.2645833 0.2645833,0.2645833 0.1465792,0 0.2645834,-0.1180041 0.2645834,-0.2645833 0,-0.1465792 -0.1180042,-0.2645833 -0.2645834,-0.2645833 z m -5.55625,0.5291666 c -0.1465792,0 -0.2645833,0.1180042 -0.2645833,0.2645834 0,0.1465791 0.1180041,0.2645833 0.2645833,0.2645833 0.1465792,0 0.2645834,-0.1180042 0.2645834,-0.2645833 0,-0.1465792 -0.1180042,-0.2645834 -0.2645834,-0.2645834 z m 6.35,0 c -0.1465791,0 -0.2645833,0.1180042 -0.2645833,0.2645834 0,0.1465791 0.1180042,0.2645833 0.2645833,0.2645833 0.1465792,0 0.2645834,-0.1180042 0.2645834,-0.2645833 0,-0.1465792 -0.1180042,-0.2645834 -0.2645834,-0.2645834 z m -5.55625,0.5291667 c -0.1465791,0 -0.2645833,0.1180042 -0.2645833,0.2645833 0,0.1465792 0.1180042,0.2645834 0.2645833,0.2645834 0.1465792,0 0.2645834,-0.1180042 0.2645834,-0.2645834 0,-0.1465791 -0.1180042,-0.2645833 -0.2645834,-0.2645833 z m 4.7625,0 c -0.1465791,0 -0.2645833,0.1180042 -0.2645833,0.2645833 0,0.1465792 0.1180042,0.2645834 0.2645833,0.2645834 0.1465792,0 0.2645834,-0.1180042 0.2645834,-0.2645834 0,-0.1465791 -0.1180042,-0.2645833 -0.2645834,-0.2645833 z"
       style="opacity:1;fill:#e6eef8;fill-opacity:1;stroke:none;stroke-width:1.58750021;stroke-linecap:round;stroke-linejoin:round;stroke-miterlimit:4;stroke-dasharray:none;stroke-dashoffset:0;stroke-opacity:1;paint-order:stroke markers fill" />
    <path
       inkscape:connector-curvature="0"
       style="color:#000000;font-style:normal;font-variant:normal;font-weight:normal;font-stretch:normal;font-size:medium;line-height:normal;font-family:sans-serif;text-indent:0;text-align:start;text-decoration:none;text-decoration-line:none;text-decoration-style:solid;text-decoration-color:#000000;letter-spacing:normal;word-spacing:normal;text-transform:none;writing-mode:lr-tb;direction:ltr;baseline-shift:baseline;text-anchor:start;white-space:normal;clip-rule:nonzero;display:inline;overflow:visible;visibility:visible;opacity:1;isolation:auto;mix-blend-mode:normal;color-interpolation:sRGB;color-interpolation-filters:linearRGB;solid-color:#000000;solid-opacity:1;fill:#e6eef8;fill-opacity:1;fill-rule:evenodd;stroke:none;stroke-width:0.52916664;stroke-linecap:round;stroke-linejoin:round;stroke-miterlimit:4;stroke-dasharray:none;stroke-dashoffset:0;stroke-opacity:1;color-rendering:auto;image-rendering:auto;shape-rendering:auto;text-rendering:auto;enable-background:accumulate"
       d="m -4.5382768,2.8296963 c -0.068733,0.00106 -0.1343395,0.028895 -0.1829355,0.077515 -0.5977123,0.5977096 -0.8358955,1.6224911 -0.8552445,2.458249 L -6.333517,6.3752161 c -0.060031,0.08019 -0.06963,0.1874044 -0.024792,0.276987 l 0.2645839,0.5291667 c 0.044831,0.089635 0.1364562,0.1462511 0.2366777,0.1462431 h 0.6304518 l 0.1912038,0.3829235 c 0.044831,0.089636 0.1364562,0.1462511 0.2366777,0.1462432 h 0.5291667 c 0.1002215,7.9e-6 0.1918467,-0.056608 0.2366777,-0.1462432 l 0.1912038,-0.3829235 h 0.63045 c 0.1002215,8e-6 0.1918467,-0.056608 0.2366777,-0.1462431 l 0.2645833,-0.5291667 c 0.044826,-0.089583 0.035227,-0.1967971 -0.024791,-0.276987 L -3.4918047,5.3654603 c -0.019341,-0.8357579 -0.2575322,-1.8605394 -0.8552445,-2.458249 -0.05062,-0.050644 -0.1196049,-0.07861 -0.1912011,-0.077515 z m 0.00413,1.5875 c 0.2922508,0 0.5291667,0.2369158 0.5291667,0.5291666 -2.5e-6,0.2922508 -0.2369184,0.5291667 -0.5291692,0.5291667 -0.2922508,0 -0.5291666,-0.2369159 -0.5291666,-0.5291667 0,-0.2922508 0.2369158,-0.5291666 0.5291666,-0.5291666 z"
       id="path4176-2-5" />
  </g>
</svg>
