<?xml version="1.0" encoding="UTF-8" standalone="no"?>
<!-- Created with Inkscape (http://www.inkscape.org/) -->

<svg
   width="32"
   height="32"
   viewBox="0 0 8.4666664 8.4666666"
   version="1.1"
   id="svg5"
   inkscape:version="1.2 (dc2aedaf03, 2022-05-15)"
   sodipodi:docname="preferences-desktop-navigation.svg"
   xml:space="preserve"
   xmlns:inkscape="http://www.inkscape.org/namespaces/inkscape"
   xmlns:sodipodi="http://sodipodi.sourceforge.net/DTD/sodipodi-0.dtd"
   xmlns:xlink="http://www.w3.org/1999/xlink"
   xmlns="http://www.w3.org/2000/svg"
   xmlns:svg="http://www.w3.org/2000/svg"><sodipodi:namedview
     id="namedview7"
     pagecolor="#ffffff"
     bordercolor="#000000"
     borderopacity="0.25"
     inkscape:showpageshadow="false"
     inkscape:pageopacity="0.0"
     inkscape:pagecheckerboard="0"
     inkscape:deskcolor="#d1d1d1"
     inkscape:document-units="px"
     showgrid="true"
     inkscape:zoom="28.963094"
     inkscape:cx="24.289532"
     inkscape:cy="18.799787"
     inkscape:window-width="2160"
     inkscape:window-height="1335"
     inkscape:window-x="0"
     inkscape:window-y="0"
     inkscape:window-maximized="1"
     inkscape:current-layer="g4707"><inkscape:grid
       type="xygrid"
       id="grid290"
       originx="0"
       originy="0" /></sodipodi:namedview><defs
     id="defs2"><linearGradient
       inkscape:collect="always"
       id="linearGradient1727"><stop
         style="stop-color:#252a34;stop-opacity:1;"
         offset="0"
         id="stop1723" /><stop
         style="stop-color:#353d4b;stop-opacity:1;"
         offset="1"
         id="stop1725" /></linearGradient><linearGradient
       inkscape:collect="always"
       xlink:href="#linearGradient1727"
       id="linearGradient1729"
       x1="3.96875"
       y1="6.3499999"
       x2="3.96875"
       y2="-0.5291664"
       gradientUnits="userSpaceOnUse" /></defs><g
     inkscape:label="Capa 1"
     inkscape:groupmode="layer"
     id="layer1"><g
       id="g4707"
       transform="translate(0.2645833,1.3229164)"><path
         id="path4628"
         d="m 3.96875,-1.0583225 c 2.1986874,0 3.9687499,1.77002014 3.9687499,3.9687288 0,2.1986716 -1.7700625,3.9687499 -3.9687499,3.9687499 C 1.7700627,6.8791562 0,5.1090779 0,2.9104063 0,0.71169764 1.7700627,-1.0583225 3.96875,-1.0583225 Z"
         style="fill:#1f1f26;fill-opacity:1;stroke:none;stroke-width:0.388848;stroke-linecap:round;stroke-linejoin:round;stroke-miterlimit:4;stroke-dasharray:none;stroke-opacity:1"
         inkscape:connector-curvature="0" /><path
         id="path4630"
         d="m 3.9687502,-0.79375241 c 2.0521081,0 3.7041664,1.65203979 3.7041664,3.70415871 0,2.0521215 -1.6520583,3.7041904 -3.7041664,3.7041904 -2.0521086,0 -3.70416687,-1.6520689 -3.70416687,-3.7041904 0,-2.05211892 1.65205827,-3.70415871 3.70416687,-3.70415871 z"
         style="fill:url(#linearGradient1729);fill-opacity:1;stroke:none;stroke-width:0.370999;stroke-linecap:round;stroke-linejoin:round;stroke-miterlimit:4;stroke-dasharray:none;stroke-opacity:1"
         inkscape:connector-curvature="0" /><path
         id="path4632"
         d="m 3.9687497,-0.52916643 c 1.9055294,0 3.4395835,1.53406473 3.4395835,3.43959383 0,1.9055318 -1.5340541,3.4395833 -3.4395835,3.4395833 -1.9055289,0 -3.43958304,-1.5340515 -3.43958304,-3.4395833 0,-1.9055291 1.53405414,-3.43959383 3.43958304,-3.43959383 z"
         style="fill:#1f1f26;fill-opacity:1;stroke:none;stroke-width:0.41711;stroke-linecap:round;stroke-linejoin:round;stroke-miterlimit:4;stroke-dasharray:none;stroke-opacity:1"
         inkscape:connector-curvature="0" /><path
         id="path4773"
         style="fill:#e1ebf2;fill-opacity:1;stroke:none;stroke-width:0.385024;stroke-linecap:round;stroke-linejoin:round;stroke-miterlimit:4;stroke-dasharray:none;stroke-opacity:1"
         d="M 3.7041666 -0.25373104 C 2.1572051 -0.1272307 0.93110196 1.0988736 0.80460206 2.6458335 L 1.3229167 2.6458335 C 1.3320778 2.6458335 1.3408723 2.6464837 1.3497884 2.6473838 C 1.3587045 2.6482839 1.367516 2.6492447 1.3761434 2.6510012 C 1.3847708 2.6527576 1.3936866 2.6551499 1.4019816 2.6577191 C 1.4102766 2.6602883 1.4183506 2.6631658 1.4262695 2.6665041 C 1.4341884 2.6698424 1.441508 2.6738092 1.4490072 2.6778729 C 1.4565063 2.6819366 1.4641923 2.6860466 1.471228 2.690792 C 1.4782638 2.6955375 1.4848532 2.7009114 1.4913818 2.7062949 C 1.4979105 2.7116785 1.5040074 2.7173702 1.5099853 2.7233482 C 1.5159633 2.7293261 1.5216551 2.735423 1.5270386 2.7419517 C 1.5324221 2.7484803 1.5377961 2.7550698 1.5425415 2.7621055 C 1.5472869 2.7691412 1.5513969 2.7768272 1.5554606 2.7843264 C 1.5595243 2.7918255 1.5634911 2.7991451 1.5668294 2.807064 C 1.5701677 2.8149829 1.5730452 2.823057 1.5756144 2.8313519 C 1.5781836 2.8396469 1.5805759 2.8485628 1.5823324 2.8571901 C 1.5840888 2.8658175 1.5850496 2.874629 1.5859497 2.8835451 C 1.5868498 2.8924612 1.5875 2.9012557 1.5875 2.9104168 C 1.5875 2.919578 1.5868498 2.9283725 1.5859497 2.9372886 C 1.5850496 2.9462047 1.5840888 2.9550162 1.5823324 2.9636436 C 1.5805759 2.9722709 1.5781836 2.9811868 1.5756144 2.9894818 C 1.5730452 2.9977768 1.5701677 3.0058508 1.5668294 3.0137697 C 1.5634911 3.0216886 1.5595243 3.0290082 1.5554606 3.0365073 C 1.5513969 3.0440065 1.5472869 3.0516925 1.5425415 3.0587282 C 1.5377961 3.0657639 1.5324221 3.0723533 1.5270386 3.078882 C 1.5216551 3.0854107 1.5159633 3.0915076 1.5099853 3.0974855 C 1.5040074 3.1034635 1.4979105 3.1091552 1.4913818 3.1145388 C 1.4848532 3.1199223 1.4782638 3.1252962 1.471228 3.1300417 C 1.4641923 3.1347871 1.4565063 3.1388971 1.4490072 3.1429608 C 1.441508 3.1470245 1.4341884 3.1509913 1.4262695 3.1543296 C 1.4183506 3.1576679 1.4102766 3.1605454 1.4019816 3.1631146 C 1.3936866 3.1656838 1.3847708 3.1680761 1.3761434 3.1698325 C 1.367516 3.171589 1.3587045 3.1725498 1.3497884 3.1734499 C 1.3408723 3.17435 1.3320778 3.1750002 1.3229167 3.1750002 L 0.80460206 3.1750002 C 0.93110196 4.7219621 2.1572051 5.9480644 3.7041666 6.0745647 L 3.7041666 5.5562501 C 3.7041666 5.5472321 3.7048435 5.5381599 3.7057169 5.5293784 C 3.7065904 5.5205969 3.7076291 5.5120434 3.7093343 5.5035402 C 3.7110394 5.4950369 3.7130404 5.4869188 3.7155354 5.4787355 C 3.7180305 5.4705522 3.7210773 5.4622691 3.7243204 5.4544476 C 3.7275636 5.446626 3.731223 5.439128 3.7351725 5.4317099 C 3.739122 5.4242918 3.7434775 5.4169788 3.7480916 5.4100058 C 3.7527057 5.4030329 3.7573241 5.396338 3.762561 5.389852 C 3.7677978 5.383366 3.7732796 5.3772058 3.7790974 5.3712485 C 3.7849153 5.3652912 3.7913439 5.3595822 3.797701 5.3541953 C 3.804058 5.3488084 3.8104835 5.3434671 3.817338 5.3386924 C 3.8241925 5.3339176 3.8312152 5.3298942 3.8385253 5.3257732 C 3.8458355 5.3216523 3.8535389 5.3178297 3.861263 5.3144044 C 3.868987 5.3109791 3.876938 5.3077906 3.8850341 5.3051027 C 3.8931303 5.3024147 3.9014124 5.3002936 3.9098388 5.2983847 C 3.9182653 5.2964758 3.926962 5.2948219 3.935677 5.2937339 C 3.944392 5.2926458 3.9530703 5.2918923 3.962032 5.2916668 C 3.964308 5.2916095 3.9664598 5.2916668 3.9687499 5.2916668 C 3.9779111 5.2916668 3.9867056 5.292317 3.9956217 5.2932171 C 4.0045378 5.2941172 4.0133493 5.295078 4.0219767 5.2968344 C 4.030604 5.2985909 4.0395199 5.3009832 4.0478149 5.3035524 C 4.0561099 5.3061216 4.0641839 5.3089991 4.0721028 5.3123374 C 4.0800217 5.3156757 4.0873413 5.3196425 4.0948404 5.3237062 C 4.1023396 5.3277699 4.1100256 5.3318799 4.1170613 5.3366253 C 4.124097 5.3413707 4.1306864 5.3467447 4.1372151 5.3521282 C 4.1437438 5.3575117 4.1498407 5.3632035 4.1558186 5.3691815 C 4.1617966 5.3751594 4.1674883 5.3812563 4.1728719 5.387785 C 4.1782554 5.3943136 4.1836293 5.400903 4.1883748 5.4079388 C 4.1931202 5.4149745 4.1972302 5.4226605 4.2012939 5.4301596 C 4.2053576 5.4376588 4.2093244 5.4449784 4.2126627 5.4528973 C 4.216001 5.4608162 4.2188785 5.4688902 4.2214477 5.4771852 C 4.2240169 5.4854802 4.2264092 5.494396 4.2281656 5.5030234 C 4.2299221 5.5116508 4.2308829 5.5204623 4.231783 5.5293784 C 4.2326831 5.5382945 4.2333333 5.547089 4.2333333 5.5562501 L 4.2333333 6.0745647 C 5.7802948 5.9480644 7.0063979 4.7219621 7.1328978 3.1750002 L 6.6145832 3.1750002 C 6.6054221 3.1750002 6.5966276 3.17435 6.5877115 3.1734499 C 6.5787954 3.1725498 6.5699839 3.171589 6.5613565 3.1698325 C 6.5527291 3.1680761 6.5438133 3.1656838 6.5355183 3.1631146 C 6.5272233 3.1605454 6.5191493 3.1576679 6.5112304 3.1543296 C 6.5033115 3.1509913 6.4959919 3.1470245 6.4884927 3.1429608 C 6.4809936 3.1388971 6.4733076 3.1347871 6.4662719 3.1300417 C 6.4592361 3.1252962 6.4526467 3.1199223 6.4461181 3.1145388 C 6.4395894 3.1091552 6.4334925 3.1034635 6.4275146 3.0974855 C 6.4215366 3.0915076 6.4158448 3.0854107 6.4104613 3.078882 C 6.4050778 3.0723533 6.3997038 3.0657639 6.3949584 3.0587282 C 6.390213 3.0516925 6.386103 3.0440065 6.3820393 3.0365073 C 6.3779756 3.0290082 6.3740088 3.0216886 6.3706705 3.0137697 C 6.3673322 3.0058508 6.3644547 2.9977768 6.3618855 2.9894818 C 6.3593163 2.9811868 6.356924 2.9722709 6.3551675 2.9636436 C 6.3534111 2.9550162 6.3524503 2.9462047 6.3515502 2.9372886 C 6.3506501 2.9283725 6.3499999 2.919578 6.3499999 2.9104168 C 6.3499999 2.9013988 6.3506767 2.8923266 6.3515502 2.8835451 C 6.3524237 2.8747636 6.3534624 2.8662102 6.3551675 2.8577069 C 6.3568727 2.8492036 6.3588737 2.8410855 6.3613687 2.8329022 C 6.3638638 2.8247189 6.3669105 2.8164358 6.3701537 2.8086143 C 6.3733969 2.8007927 6.3770563 2.7932948 6.3810058 2.7858767 C 6.3849553 2.7784585 6.3893108 2.7711455 6.3939249 2.7641725 C 6.3985389 2.7571996 6.4031574 2.7505047 6.4083943 2.7440187 C 6.4136311 2.7375327 6.4191129 2.7313726 6.4249307 2.7254152 C 6.4307486 2.7194579 6.4371772 2.7137489 6.4435342 2.708362 C 6.4498913 2.7029751 6.4563168 2.6976339 6.4631713 2.6928591 C 6.4700258 2.6880843 6.4770485 2.6840609 6.4843586 2.67994 C 6.4916688 2.675819 6.4993722 2.6719965 6.5070963 2.6685712 C 6.5148203 2.6651458 6.5227713 2.6619574 6.5308674 2.6592694 C 6.5389636 2.6565814 6.5472456 2.6544604 6.5556721 2.6525515 C 6.5640986 2.6506426 6.5727953 2.6489887 6.5815103 2.6479006 C 6.5902253 2.6468125 6.5989035 2.6460591 6.6078653 2.6458335 C 6.6101413 2.6457762 6.6122929 2.6458335 6.6145832 2.6458335 L 7.1328978 2.6458335 C 7.0063979 1.0988736 5.7802948 -0.1272307 4.2333333 -0.25373104 L 4.2333333 0.26458357 C 4.2333333 0.27374475 4.2326831 0.28253921 4.231783 0.29145531 C 4.2308829 0.30037142 4.2299221 0.30918293 4.2281656 0.31781029 C 4.2264092 0.32643766 4.2240169 0.33535355 4.2214477 0.34364851 C 4.2188785 0.35194347 4.216001 0.36001755 4.2126627 0.36793643 C 4.2093244 0.37585532 4.2053576 0.38317492 4.2012939 0.39067406 C 4.1972302 0.39817321 4.1931202 0.40585919 4.1883748 0.41289493 C 4.1836293 0.41993067 4.1782554 0.42652007 4.1728719 0.43304873 C 4.1674883 0.4395774 4.1617966 0.44567432 4.1558186 0.45165225 C 4.1498407 0.45763018 4.1437438 0.46332195 4.1372151 0.46870547 C 4.1306864 0.47408899 4.124097 0.47946296 4.1170613 0.4842084 C 4.1100256 0.48895385 4.1023396 0.49306381 4.0948404 0.49712751 C 4.0873413 0.50119121 4.0800217 0.50515803 4.0721028 0.50849632 C 4.0641839 0.51183462 4.0561099 0.5147121 4.0478149 0.51728132 C 4.0395199 0.51985054 4.030604 0.52224277 4.0219767 0.52399925 C 4.0133493 0.52575574 4.0045378 0.52671653 3.9956217 0.5276166 C 3.9867056 0.52851668 3.9779111 0.5291669 3.9687499 0.5291669 C 3.9595888 0.5291669 3.9507943 0.52851668 3.9418782 0.5276166 C 3.9329621 0.52671653 3.9241506 0.52575574 3.9155232 0.52399925 C 3.9068959 0.52224277 3.89798 0.51985054 3.889685 0.51728132 C 3.8813901 0.5147121 3.873316 0.51183462 3.8653971 0.50849632 C 3.8574782 0.50515803 3.8501586 0.50119121 3.8426595 0.49712751 C 3.8351603 0.49306381 3.8274743 0.48895385 3.8204386 0.4842084 C 3.8134029 0.47946296 3.8068134 0.47408899 3.8002848 0.46870547 C 3.7937561 0.46332195 3.7876592 0.45763018 3.7816813 0.45165225 C 3.7757033 0.44567432 3.7700116 0.4395774 3.764628 0.43304873 C 3.7592445 0.42652007 3.7538706 0.41993067 3.7491251 0.41289493 C 3.7443797 0.40585919 3.7402697 0.39817321 3.736206 0.39067406 C 3.7321423 0.38317492 3.7281755 0.37585532 3.7248372 0.36793643 C 3.7214989 0.36001755 3.7186214 0.35194347 3.7160522 0.34364851 C 3.713483 0.33535355 3.7110907 0.32643766 3.7093343 0.31781029 C 3.7075778 0.30918293 3.706617 0.30037142 3.7057169 0.29145531 C 3.7048168 0.28253921 3.7041666 0.27374475 3.7041666 0.26458357 L 3.7041666 -0.25373104 z " /><path
         id="path1344-0-7"
         style="fill:#c3cccc;fill-opacity:1;stroke:none;stroke-width:0.264583px;stroke-linecap:butt;stroke-linejoin:miter;stroke-opacity:1"
         d="M 5.55625,1.3229169 3.4395833,2.6458336 2.38125,5.0270835 4.4979166,3.7041669 Z" /><path
         sodipodi:nodetypes="ccccc"
         id="path1344-0"
         d="M 3.96875,2.9104169 3.4395833,2.3812502 2.38125,4.7625002 4.4979166,3.4395835 Z"
         style="fill:#1f1f26;fill-opacity:1;stroke:none;stroke-width:0.264583px;stroke-linecap:butt;stroke-linejoin:miter;stroke-opacity:1"
         inkscape:connector-curvature="0" /><path
         inkscape:connector-curvature="0"
         id="path1481"
         d="m 3.4395833,2.3812502 1.0583333,1.0583333 1.0583333,-2.38125 z"
         style="fill:#f4203e;fill-opacity:1;stroke:none;stroke-width:0.264583px;stroke-linecap:butt;stroke-linejoin:miter;stroke-opacity:1" /></g></g></svg>
