<?xml version="1.0" encoding="UTF-8" standalone="no"?>
<!-- Created with Inkscape (http://www.inkscape.org/) -->

<svg
   xmlns:dc="http://purl.org/dc/elements/1.1/"
   xmlns:cc="http://creativecommons.org/ns#"
   xmlns:rdf="http://www.w3.org/1999/02/22-rdf-syntax-ns#"
   xmlns:svg="http://www.w3.org/2000/svg"
   xmlns="http://www.w3.org/2000/svg"
   xmlns:xlink="http://www.w3.org/1999/xlink"
   xmlns:sodipodi="http://sodipodi.sourceforge.net/DTD/sodipodi-0.dtd"
   xmlns:inkscape="http://www.inkscape.org/namespaces/inkscape"
   width="32"
   height="32"
   viewBox="0 0 8.4666662 8.4666664"
   version="1.1"
   id="svg1399"
   inkscape:version="0.92.4 5da689c313, 2019-01-14"
   sodipodi:docname="preferences-desktop-virtual.svg">
  <defs
     id="defs1393">
    <linearGradient
       gradientTransform="translate(7.4971011,290.29288)"
       inkscape:collect="always"
       xlink:href="#linearGradient4627"
       id="linearGradient1001"
       x1="-7.3500352"
       y1="8.1168785"
       x2="-7.3500352"
       y2="5.7356286"
       gradientUnits="userSpaceOnUse" />
    <linearGradient
       id="linearGradient4627"
       inkscape:collect="always">
      <stop
         id="stop4623"
         offset="0"
         style="stop-color:#ffc900;stop-opacity:1" />
      <stop
         id="stop4625"
         offset="1"
         style="stop-color:#ffe200;stop-opacity:1" />
    </linearGradient>
    <linearGradient
       gradientTransform="translate(7.4971011,290.29288)"
       inkscape:collect="always"
       xlink:href="#linearGradient4587"
       id="linearGradient993"
       x1="-3.6458688"
       y1="7.0585451"
       x2="-3.6458688"
       y2="3.0897951"
       gradientUnits="userSpaceOnUse" />
    <linearGradient
       id="linearGradient4587"
       inkscape:collect="always">
      <stop
         id="stop4583"
         offset="0"
         style="stop-color:#29d465;stop-opacity:1" />
      <stop
         id="stop4585"
         offset="1"
         style="stop-color:#5bfb93;stop-opacity:1" />
    </linearGradient>
    <linearGradient
       gradientTransform="translate(7.4971011,290.29288)"
       inkscape:collect="always"
       xlink:href="#linearGradient4565"
       id="linearGradient985"
       x1="-7.8792019"
       y1="4.6772952"
       x2="-7.8792019"
       y2="2.5606287"
       gradientUnits="userSpaceOnUse" />
    <linearGradient
       id="linearGradient4565"
       inkscape:collect="always">
      <stop
         id="stop4561"
         offset="0"
         style="stop-color:#1780f2;stop-opacity:1" />
      <stop
         id="stop4563"
         offset="1"
         style="stop-color:#02b3fe;stop-opacity:1" />
    </linearGradient>
    <linearGradient
       gradientTransform="translate(7.4971011,290.29288)"
       inkscape:collect="always"
       xlink:href="#linearGradient977"
       id="linearGradient971"
       x1="-6.0271187"
       y1="9.1752119"
       x2="-6.0271187"
       y2="1.7668786"
       gradientUnits="userSpaceOnUse" />
    <linearGradient
       inkscape:collect="always"
       id="linearGradient977">
      <stop
         style="stop-color:#20252f;stop-opacity:1"
         offset="0"
         id="stop973" />
      <stop
         style="stop-color:#0a0b0d;stop-opacity:1"
         offset="1"
         id="stop975" />
    </linearGradient>
  </defs>
  <sodipodi:namedview
     id="base"
     pagecolor="#ffffff"
     bordercolor="#666666"
     borderopacity="1.0"
     inkscape:pageopacity="0.0"
     inkscape:pageshadow="2"
     inkscape:zoom="7.9195959"
     inkscape:cx="-15.98796"
     inkscape:cy="-0.67020984"
     inkscape:document-units="mm"
     inkscape:current-layer="layer1"
     showgrid="false"
     inkscape:showpageshadow="false"
     units="px"
     inkscape:window-width="1920"
     inkscape:window-height="1003"
     inkscape:window-x="0"
     inkscape:window-y="0"
     inkscape:window-maximized="1" />
  <metadata
     id="metadata1396">
    <rdf:RDF>
      <cc:Work
         rdf:about="">
        <dc:format>image/svg+xml</dc:format>
        <dc:type
           rdf:resource="http://purl.org/dc/dcmitype/StillImage" />
        <dc:title></dc:title>
      </cc:Work>
    </rdf:RDF>
  </metadata>
  <g
     inkscape:label="Capa 1"
     inkscape:groupmode="layer"
     id="layer1"
     transform="translate(0,-288.53338)">
    <g
       id="g1671"
       transform="translate(2.7633509,-2.9972167)">
      <path
         id="rect843"
         d="m -2.2341843,291.79518 h 7.4083337 c 0.2931583,0 0.5291664,0.23601 0.5291664,0.52917 v 6.87916 c 0,0.29316 -0.2360081,0.52917 -0.5291664,0.52917 h -7.4083337 c -0.2931586,0 -0.5291666,-0.23601 -0.5291666,-0.52917 v -6.87916 c 0,-0.29316 0.236008,-0.52917 0.5291666,-0.52917 z"
         style="opacity:1;fill:#000000;fill-opacity:1;stroke:none;stroke-width:0.63318539;stroke-linecap:round;stroke-linejoin:round;stroke-miterlimit:4;stroke-dasharray:none;stroke-opacity:1"
         inkscape:connector-curvature="0"
         sodipodi:nodetypes="sssssssss" />
      <path
         id="rect843-3"
         d="m -2.2341843,292.05977 h 7.4083337 c 0.1465791,0 0.2645833,0.118 0.2645833,0.26458 v 6.87917 c 0,0.14657 -0.1180042,0.26458 -0.2645833,0.26458 h -7.4083337 c -0.146579,0 -0.2645832,-0.11801 -0.2645832,-0.26458 v -6.87917 c 0,-0.14658 0.1180042,-0.26458 0.2645832,-0.26458 z"
         style="opacity:1;fill:url(#linearGradient971);fill-opacity:1;stroke:none;stroke-width:0.59097308;stroke-linecap:round;stroke-linejoin:round;stroke-miterlimit:4;stroke-dasharray:none;stroke-opacity:1"
         inkscape:connector-curvature="0"
         sodipodi:nodetypes="sssssssss" />
      <path
         sodipodi:nodetypes="sssssssss"
         inkscape:connector-curvature="0"
         style="fill:url(#linearGradient985);fill-opacity:1;stroke:none;stroke-width:0.52916664;stroke-linecap:round;stroke-linejoin:round;stroke-miterlimit:4;stroke-dasharray:none;stroke-opacity:1"
         d="m -1.7050185,292.58893 h 3.1750023 c 0.1465783,0 0.2645822,0.118 0.2645822,0.26458 v 1.85209 c 0,0.14658 -0.1180039,0.26458 -0.2645822,0.26458 h -3.1750023 c -0.1465786,0 -0.2645823,-0.118 -0.2645823,-0.26458 v -1.85209 c 0,-0.14658 0.1180037,-0.26458 0.2645823,-0.26458 z"
         id="rect1192" />
      <path
         inkscape:connector-curvature="0"
         style="fill:url(#linearGradient993);fill-opacity:1;stroke:none;stroke-width:0.52916664;stroke-linecap:round;stroke-linejoin:round;stroke-miterlimit:4;stroke-dasharray:none;stroke-opacity:1"
         d="m 2.792898,293.38268 h 1.8520858 c 0.1465786,0 0.2645822,0.118 0.2645822,0.26458 v 3.43959 c 0,0.14658 -0.1180036,0.26458 -0.2645822,0.26458 H 2.792898 c -0.1465783,0 -0.264582,-0.118 -0.264582,-0.26458 v -3.43959 c 0,-0.14658 0.1180037,-0.26458 0.264582,-0.26458 z"
         id="rect1192-8" />
      <path
         sodipodi:nodetypes="sssssssss"
         inkscape:connector-curvature="0"
         style="fill:url(#linearGradient1001);fill-opacity:1;stroke:none;stroke-width:0.52916664;stroke-linecap:round;stroke-linejoin:round;stroke-miterlimit:4;stroke-dasharray:none;stroke-opacity:1"
         d="M -0.91126814,296.02851 H 1.469983 c 0.1465786,0 0.2645822,0.11801 0.2645822,0.26459 v 2.11667 c 0,0.14658 -0.1180036,0.26458 -0.2645822,0.26458 h -2.38125114 c -0.14657856,0 -0.26458226,-0.118 -0.26458226,-0.26458 v -2.11667 c 0,-0.14658 0.1180037,-0.26459 0.26458226,-0.26459 z"
         id="rect1209" />
      <path
         inkscape:connector-curvature="0"
         style="fill:#1a9946;fill-opacity:1;stroke:none;stroke-width:0.52916664;stroke-linecap:round;stroke-linejoin:round;stroke-miterlimit:4;stroke-dasharray:none;stroke-opacity:1"
         d="m 3.7189405,296.55768 h 1.1e-6 c 0.3664473,0 0.6614578,0.29501 0.6614578,0.66146 0,0.36645 -0.2950105,0.66146 -0.6614578,0.66146 h -1.1e-6 c -0.3664477,0 -0.6614581,-0.29501 -0.6614581,-0.66146 0,-0.36645 0.2950104,-0.66146 0.6614581,-0.66146 z"
         id="rect1211" />
      <path
         inkscape:connector-curvature="0"
         style="fill:#d1ebe4;fill-opacity:1;stroke:none;stroke-width:0.52916664;stroke-linecap:round;stroke-linejoin:round;stroke-miterlimit:4;stroke-dasharray:none;stroke-opacity:1"
         d="m 3.718941,296.82226 c 0.2198688,0 0.396875,0.17701 0.396875,0.39688 0,0.21987 -0.1770062,0.39687 -0.396875,0.39687 -0.2198687,0 -0.396875,-0.177 -0.396875,-0.39687 0,-0.21987 0.1770063,-0.39688 0.396875,-0.39688 z"
         id="rect1213" />
      <path
         inkscape:connector-curvature="0"
         style="fill:#1570d9;fill-opacity:0.98039216;stroke:none;stroke-width:0.52916664;stroke-linecap:round;stroke-linejoin:round;stroke-miterlimit:4;stroke-dasharray:none;stroke-opacity:1"
         d="m -0.24980964,294.17643 h 1e-6 c 0.3664475,0 0.661458,0.29501 0.661458,0.66146 0,0.36645 -0.2950105,0.66146 -0.661458,0.66146 h -1e-6 c -0.3664477,0 -0.6614579,-0.29501 -0.6614579,-0.66146 0,-0.36645 0.2950102,-0.66146 0.6614579,-0.66146 z"
         id="rect1211-4" />
      <path
         inkscape:connector-curvature="0"
         style="fill:#d2e4ff;fill-opacity:1;stroke:none;stroke-width:0.52916664;stroke-linecap:round;stroke-linejoin:round;stroke-miterlimit:4;stroke-dasharray:none;stroke-opacity:1"
         d="m -0.24980914,294.44101 c 0.2198686,0 0.3968751,0.17701 0.3968751,0.39688 0,0.21987 -0.1770065,0.39687 -0.3968751,0.39687 -0.2198688,0 -0.396875,-0.177 -0.396875,-0.39687 0,-0.21987 0.1770062,-0.39688 0.396875,-0.39688 z"
         id="rect1213-5" />
      <path
         inkscape:connector-curvature="0"
         style="fill:#e59116;fill-opacity:0.96078431;stroke:none;stroke-width:0.52916664;stroke-linecap:round;stroke-linejoin:round;stroke-miterlimit:4;stroke-dasharray:none;stroke-opacity:1"
         d="m -0.11751764,297.61601 h 0.79375 c 0.1465792,0 0.2645834,0.11801 0.2645834,0.26459 v 0.79375 c 0,0.14658 -0.1180042,0.26458 -0.2645834,0.26458 h -0.79375 c -0.1465792,0 -0.2645834,-0.118 -0.2645834,-0.26458 v -0.79375 c 0,-0.14658 0.1180042,-0.26459 0.2645834,-0.26459 z"
         id="rect1211-0" />
      <path
         inkscape:connector-curvature="0"
         style="fill:#ffffff;fill-opacity:1;stroke:none;stroke-width:0.52916664;stroke-linecap:round;stroke-linejoin:round;stroke-miterlimit:4;stroke-dasharray:none;stroke-opacity:1"
         d="m -0.11751764,297.8806 h 0.79375 v 0.79375 h -0.79375 z"
         id="rect1213-3" />
    </g>
  </g>
</svg>
