<?xml version="1.0" encoding="UTF-8" standalone="no"?>
<!-- Created with Inkscape (http://www.inkscape.org/) -->

<svg
   xmlns:dc="http://purl.org/dc/elements/1.1/"
   xmlns:cc="http://creativecommons.org/ns#"
   xmlns:rdf="http://www.w3.org/1999/02/22-rdf-syntax-ns#"
   xmlns:svg="http://www.w3.org/2000/svg"
   xmlns="http://www.w3.org/2000/svg"
   xmlns:xlink="http://www.w3.org/1999/xlink"
   xmlns:sodipodi="http://sodipodi.sourceforge.net/DTD/sodipodi-0.dtd"
   xmlns:inkscape="http://www.inkscape.org/namespaces/inkscape"
   width="32"
   height="32"
   viewBox="0 0 8.4666662 8.4666664"
   version="1.1"
   id="svg1399"
   inkscape:version="0.92.4 5da689c313, 2019-01-14"
   sodipodi:docname="preferences-desktop-theme-global.svg">
  <defs
     id="defs1393">
    <linearGradient
       y2="1.0583466"
       x2="4.7624998"
       y1="6.6145968"
       x1="4.7624998"
       gradientTransform="translate(-8.2423758,291.06286)"
       gradientUnits="userSpaceOnUse"
       id="linearGradient4759"
       xlink:href="#linearGradient4506"
       inkscape:collect="always" />
    <linearGradient
       inkscape:collect="always"
       id="linearGradient4506">
      <stop
         style="stop-color:#252a34;stop-opacity:1"
         offset="0"
         id="stop4502" />
      <stop
         style="stop-color:#353d4b;stop-opacity:1"
         offset="1"
         id="stop4504" />
    </linearGradient>
  </defs>
  <sodipodi:namedview
     id="base"
     pagecolor="#ffffff"
     bordercolor="#666666"
     borderopacity="1.0"
     inkscape:pageopacity="0.0"
     inkscape:pageshadow="2"
     inkscape:zoom="7.9195959"
     inkscape:cx="-15.98796"
     inkscape:cy="-0.67020984"
     inkscape:document-units="mm"
     inkscape:current-layer="layer1"
     showgrid="false"
     inkscape:showpageshadow="false"
     units="px"
     inkscape:window-width="1920"
     inkscape:window-height="1003"
     inkscape:window-x="0"
     inkscape:window-y="0"
     inkscape:window-maximized="1" />
  <metadata
     id="metadata1396">
    <rdf:RDF>
      <cc:Work
         rdf:about="">
        <dc:format>image/svg+xml</dc:format>
        <dc:type
           rdf:resource="http://purl.org/dc/dcmitype/StillImage" />
        <dc:title></dc:title>
      </cc:Work>
    </rdf:RDF>
  </metadata>
  <g
     inkscape:label="Capa 1"
     inkscape:groupmode="layer"
     id="layer1"
     transform="translate(0,-288.53338)">
    <g
       id="g1475"
       transform="translate(8.2423763,-2.5294917)">
      <path
         id="path12329"
         d="m -7.977793,291.59204 c -0.1465818,0 -0.2645833,0.118 -0.2645833,0.26458 v 6.87917 c 0,0.14658 0.1180015,0.26458 0.2645833,0.26458 h 7.93750001 c 0.1465816,0 0.2645834,-0.118 0.2645834,-0.26458 v -6.87917 c 0,-0.14658 -0.1180021,-0.26458 -0.2645834,-0.26458 h -3.70416661 -0.79375 z"
         style="fill:#15151a;fill-opacity:1;stroke-width:0.26458338"
         inkscape:connector-curvature="0" />
      <path
         sodipodi:nodetypes="ccccccc"
         inkscape:connector-curvature="0"
         id="path13-5-2-9-4-2-6-6"
         d="m -7.977793,291.85662 v 5.82084 h 7.93750001 v -5.82084 H -4.009043 -4.5382096 Z"
         style="fill:url(#linearGradient4759);fill-opacity:1;stroke-width:0.26458338" />
      <path
         id="path4783-5"
         d="m -5.0673763,293.17954 c -0.1465792,0 -0.2645833,0.118 -0.2645833,0.26458 0,0.14658 0.1180041,0.26459 0.2645833,0.26459 0.1465792,0 0.2645833,-0.11801 0.2645833,-0.26459 0,-0.14658 -0.1180041,-0.26458 -0.2645833,-0.26458 z m 1.5875,0 -0.5291667,0.52917 0.79375,0.79375 -0.79375,0.79375 0.5291667,0.52916 0.79375,-0.79375 0.5291667,-0.52916 -0.5291667,-0.52917 z m -1.984375,1.32292 c -0.2198688,0 -0.396875,0.177 -0.396875,0.39687 0,0.21987 0.1770062,0.39688 0.396875,0.39688 0.2198687,0 0.396875,-0.17701 0.396875,-0.39688 0,-0.21987 -0.1770063,-0.39687 -0.396875,-0.39687 z m 0.7508587,1.32291 c -0.2931584,0 -0.5291667,0.23601 -0.5291667,0.52917 0,0.29316 0.2360083,0.52917 0.5291667,0.52917 0.2931583,0 0.5291666,-0.23601 0.5291666,-0.52917 0,-0.29316 -0.2360083,-0.52917 -0.5291666,-0.52917 z"
         style="fill:#1a1c21;fill-opacity:1;stroke-width:0.26458332"
         inkscape:connector-curvature="0" />
      <path
         id="rect4537-2"
         d="m -5.0673763,292.91496 c -0.1465792,0 -0.2645833,0.118 -0.2645833,0.26458 0,0.14658 0.1180041,0.26458 0.2645833,0.26458 0.1465792,0 0.2645833,-0.118 0.2645833,-0.26458 0,-0.14658 -0.1180041,-0.26458 -0.2645833,-0.26458 z m 1.5875,0 -0.5291667,0.52916 0.79375,0.79375 -0.79375,0.79375 0.5291667,0.52917 0.79375,-0.79375 0.5291667,-0.52917 -0.5291667,-0.52916 z m -1.984375,1.32291 c -0.2198688,0 -0.396875,0.17701 -0.396875,0.39688 0,0.21987 0.1770062,0.39687 0.396875,0.39687 0.2198687,0 0.396875,-0.177 0.396875,-0.39687 0,-0.21987 -0.1770063,-0.39688 -0.396875,-0.39688 z m 0.7508587,1.32292 c -0.2931584,0 -0.5291667,0.23601 -0.5291667,0.52917 0,0.29315 0.2360083,0.52916 0.5291667,0.52916 0.2931583,0 0.5291666,-0.23601 0.5291666,-0.52916 0,-0.29316 -0.2360083,-0.52917 -0.5291666,-0.52917 z m -3.2644004,2.11667 v 1.05833 h 7.93750001 v -1.05833 z"
         style="fill:#d9dce2;fill-opacity:1;stroke:none;stroke-width:0.10583334;stroke-linecap:round;stroke-linejoin:round;stroke-miterlimit:4;stroke-dasharray:none;stroke-opacity:1"
         inkscape:connector-curvature="0" />
    </g>
  </g>
</svg>
