<?xml version="1.0" encoding="UTF-8" standalone="no"?>
<!-- Created with Inkscape (http://www.inkscape.org/) -->

<svg
   xmlns:dc="http://purl.org/dc/elements/1.1/"
   xmlns:cc="http://creativecommons.org/ns#"
   xmlns:rdf="http://www.w3.org/1999/02/22-rdf-syntax-ns#"
   xmlns:svg="http://www.w3.org/2000/svg"
   xmlns="http://www.w3.org/2000/svg"
   xmlns:xlink="http://www.w3.org/1999/xlink"
   xmlns:sodipodi="http://sodipodi.sourceforge.net/DTD/sodipodi-0.dtd"
   xmlns:inkscape="http://www.inkscape.org/namespaces/inkscape"
   width="32"
   height="32"
   viewBox="0 0 8.4666662 8.4666664"
   version="1.1"
   id="svg1399"
   inkscape:version="0.92.4 5da689c313, 2019-01-14"
   sodipodi:docname="preferences-system-backup.svg">
  <defs
     id="defs1393">
    <linearGradient
       inkscape:collect="always"
       xlink:href="#linearGradient4506"
       id="linearGradient972"
       x1="-4.2512712"
       y1="7.3500352"
       x2="-4.2512712"
       y2="3.6458685"
       gradientUnits="userSpaceOnUse" />
    <linearGradient
       inkscape:collect="always"
       id="linearGradient4506">
      <stop
         style="stop-color:#252a34;stop-opacity:1"
         offset="0"
         id="stop4502" />
      <stop
         style="stop-color:#353d4b;stop-opacity:1"
         offset="1"
         id="stop4504" />
    </linearGradient>
    <linearGradient
       inkscape:collect="always"
       xlink:href="#linearGradient4846"
       id="linearGradient964"
       x1="-4.2512712"
       y1="7.0854521"
       x2="-4.2512712"
       y2="3.9104519"
       gradientUnits="userSpaceOnUse" />
    <linearGradient
       id="linearGradient4846"
       inkscape:collect="always">
      <stop
         id="stop4842"
         offset="0"
         style="stop-color:#e4efef;stop-opacity:1" />
      <stop
         id="stop4844"
         offset="1"
         style="stop-color:#fcfcfc;stop-opacity:1" />
    </linearGradient>
    <linearGradient
       y2="316.64999"
       x2="3"
       y1="319.64999"
       x1="3"
       gradientTransform="translate(-49,-16)"
       gradientUnits="userSpaceOnUse"
       id="linearGradient922"
       xlink:href="#linearGradient923"
       inkscape:collect="always" />
    <linearGradient
       id="linearGradient923"
       inkscape:collect="always">
      <stop
         id="stop919"
         offset="0"
         style="stop-color:#323232;stop-opacity:1" />
      <stop
         id="stop921"
         offset="1"
         style="stop-color:#484849;stop-opacity:1" />
    </linearGradient>
    <linearGradient
       inkscape:collect="always"
       xlink:href="#linearGradient914-9"
       id="linearGradient916-2"
       x1="3"
       y1="313.64999"
       x2="3"
       y2="293.64999"
       gradientUnits="userSpaceOnUse"
       gradientTransform="translate(-49,-16)" />
    <linearGradient
       inkscape:collect="always"
       id="linearGradient914-9">
      <stop
         style="stop-color:#dadbdb;stop-opacity:1"
         offset="0"
         id="stop910-1" />
      <stop
         style="stop-color:#e5e6e6;stop-opacity:1"
         offset="1"
         id="stop912-2" />
    </linearGradient>
    <linearGradient
       inkscape:collect="always"
       xlink:href="#linearGradient4627"
       id="linearGradient928"
       x1="16"
       y1="30"
       x2="16"
       y2="29"
       gradientUnits="userSpaceOnUse"
       gradientTransform="translate(-62,273.64999)" />
    <linearGradient
       inkscape:collect="always"
       id="linearGradient4627">
      <stop
         style="stop-color:#ffc900;stop-opacity:1"
         offset="0"
         id="stop4623" />
      <stop
         style="stop-color:#ffe200;stop-opacity:1"
         offset="1"
         id="stop4625" />
    </linearGradient>
  </defs>
  <sodipodi:namedview
     id="base"
     pagecolor="#ffffff"
     bordercolor="#666666"
     borderopacity="1.0"
     inkscape:pageopacity="0.0"
     inkscape:pageshadow="2"
     inkscape:zoom="7.9195959"
     inkscape:cx="-15.98796"
     inkscape:cy="-0.67020984"
     inkscape:document-units="mm"
     inkscape:current-layer="layer1"
     showgrid="false"
     inkscape:showpageshadow="false"
     units="px"
     inkscape:window-width="1920"
     inkscape:window-height="1003"
     inkscape:window-x="0"
     inkscape:window-y="0"
     inkscape:window-maximized="1" />
  <metadata
     id="metadata1396">
    <rdf:RDF>
      <cc:Work
         rdf:about="">
        <dc:format>image/svg+xml</dc:format>
        <dc:type
           rdf:resource="http://purl.org/dc/dcmitype/StillImage" />
        <dc:title></dc:title>
      </cc:Work>
    </rdf:RDF>
  </metadata>
  <g
     inkscape:label="Capa 1"
     inkscape:groupmode="layer"
     id="layer1"
     transform="translate(0,-288.53338)">
    <g
       id="g1665"
       transform="translate(7.9751067,-5.1353709)">
      <g
         inkscape:label="Capa 1"
         id="layer1-5"
         transform="matrix(0.26458333,0,0,0.26458333,-7.44594,219.14886)">
        <g
           id="g1577"
           transform="translate(60,7.999995)">
          <path
             inkscape:connector-curvature="0"
             style="fill:#181818;fill-opacity:1;stroke:none;stroke-width:2;stroke-linecap:round;stroke-linejoin:round;stroke-miterlimit:4;stroke-dasharray:none;stroke-dashoffset:0;stroke-opacity:1"
             d="m -58,295.64999 h 24 c 1.108,0 2,0.892 2,2 v 5 c 0,1.108 -0.892,2 -2,2 h -24 c -1.108,0 -2,-0.892 -2,-2 v -5 c 0,-1.108 0.892,-2 2,-2 z"
             id="rect842-1" />
          <path
             inkscape:connector-curvature="0"
             style="fill:url(#linearGradient922);fill-opacity:1;stroke:none;stroke-width:2;stroke-linecap:round;stroke-linejoin:round;stroke-miterlimit:4;stroke-dasharray:none;stroke-dashoffset:0;stroke-opacity:1"
             d="m -58,296.64999 c -0.554,0 -1,0.446 -1,1 v 5 c 0,0.554 0.446,1 1,1 h 1 v -2 h 19 v 2 h 4 c 0.554,0 1,-0.446 1,-1 v -5 c 0,-0.554 -0.446,-1 -1,-1 z"
             id="path1024-6" />
          <path
             inkscape:connector-curvature="0"
             style="fill:#a5a6a6;fill-opacity:1;stroke:none;stroke-width:2;stroke-linecap:round;stroke-linejoin:round;stroke-miterlimit:4;stroke-dasharray:none;stroke-dashoffset:0;stroke-opacity:1"
             d="m -58,274.64999 h 24 c 1.108,0 2,0.892 2,2 v 22 c 0,1.108 -0.892,2 -2,2 h -24 c -1.108,0 -2,-0.892 -2,-2 v -22 c 0,-1.108 0.892,-2 2,-2 z"
             id="rect838-8" />
          <path
             style="fill:url(#linearGradient916-2);fill-opacity:1;stroke:none;stroke-width:2;stroke-linecap:round;stroke-linejoin:round;stroke-miterlimit:4;stroke-dasharray:none;stroke-dashoffset:0;stroke-opacity:1"
             d="m -58,275.64999 c -0.554,0 -1,0.446 -1,1 v 22 c 0,0.554 0.446,1 1,1 h 24 c 0.554,0 1,-0.446 1,-1 v -22 c 0,-0.554 -0.446,-1 -1,-1 z m 1,1 c 0.554,0 1,0.446 1,1 0,0.554 -0.446,1 -1,1 -0.554,0 -1,-0.446 -1,-1 0,-0.554 0.446,-1 1,-1 z m 22,0 c 0.554,0 1,0.446 1,1 0,0.554 -0.446,1 -1,1 -0.554,0 -1,-0.446 -1,-1 0,-0.554 0.446,-1 1,-1 z m -22,9 c 0.554,0 1,0.446 1,1 0,0.554 -0.446,1 -1,1 -0.554,0 -1,-0.446 -1,-1 0,-0.554 0.446,-1 1,-1 z m 22,0 c 0.554,0 1,0.446 1,1 0,0.554 -0.446,1 -1,1 -0.554,0 -1,-0.446 -1,-1 0,-0.554 0.446,-1 1,-1 z m -22,11 c 0.554,0 1,0.446 1,1 0,0.554 -0.446,1 -1,1 -0.554,0 -1,-0.446 -1,-1 0,-0.554 0.446,-1 1,-1 z m 22,0 c 0.554,0 1,0.446 1,1 0,0.554 -0.446,1 -1,1 -0.554,0 -1,-0.446 -1,-1 0,-0.554 0.446,-1 1,-1 z"
             id="rect840-7"
             inkscape:connector-curvature="0"
             sodipodi:nodetypes="sssssssssssssssssssssssssssssssssssssss" />
          <path
             inkscape:connector-curvature="0"
             style="opacity:1;fill:url(#linearGradient928);fill-opacity:1;stroke:none;stroke-width:2;stroke-linecap:round;stroke-linejoin:round;stroke-miterlimit:4;stroke-dasharray:none;stroke-opacity:1"
             d="m -56,302.64999 v 1 h 2 v -1 z m 3,0 v 1 h 2 v -1 z m 3,0 v 1 h 2 v -1 z m 3,0 v 1 h 2 v -1 z m 3,0 v 1 h 2 v -1 z m 3,0 v 1 h 2 v -1 z"
             id="rect848-7" />
        </g>
      </g>
      <g
         transform="translate(0.50949797,291.87497)"
         id="g1613">
        <path
           inkscape:connector-curvature="0"
           style="fill:#1f1f26;fill-opacity:1;stroke:none;stroke-width:0.54652095;stroke-linecap:round;stroke-linejoin:round;stroke-miterlimit:4;stroke-dasharray:none;stroke-opacity:1"
           d="m -4.2512709,3.3812879 c 1.1726334,0 2.1166667,0.9440333 2.1166667,2.1166667 0,1.1726333 -0.9440333,2.1166666 -2.1166667,2.1166666 -1.1726333,0 -2.1166666,-0.9440333 -2.1166666,-2.1166666 0,-1.1726334 0.9440333,-2.1166667 2.1166666,-2.1166667 z"
           id="rect871" />
        <path
           inkscape:connector-curvature="0"
           style="fill:url(#linearGradient972);fill-opacity:1;stroke:none;stroke-width:0.47820586;stroke-linecap:round;stroke-linejoin:round;stroke-miterlimit:4;stroke-dasharray:none;stroke-opacity:1"
           d="m -4.2512711,3.6458712 c 1.0260541,0 1.8520833,0.8260292 1.8520833,1.8520834 0,1.0260541 -0.8260292,1.8520833 -1.8520833,1.8520833 -1.0260542,0 -1.8520834,-0.8260292 -1.8520834,-1.8520833 0,-1.0260542 0.8260292,-1.8520834 1.8520834,-1.8520834 z"
           id="rect871-2" />
        <path
           inkscape:connector-curvature="0"
           style="fill:url(#linearGradient964);fill-opacity:1;stroke:none;stroke-width:0.40989074;stroke-linecap:round;stroke-linejoin:round;stroke-miterlimit:4;stroke-dasharray:none;stroke-opacity:1"
           d="m -4.2512711,3.9104546 c 0.879475,0 1.5875,0.708025 1.5875,1.5875 0,0.879475 -0.708025,1.5875 -1.5875,1.5875 -0.879475,0 -1.5875,-0.708025 -1.5875,-1.5875 0,-0.879475 0.708025,-1.5875 1.5875,-1.5875 z"
           id="rect871-2-9" />
        <path
           inkscape:connector-curvature="0"
           style="fill:#f4203e;fill-opacity:1;stroke:none;stroke-width:0.52916664;stroke-linecap:round;stroke-linejoin:round;stroke-miterlimit:4;stroke-dasharray:none;stroke-opacity:1"
           d="m -4.468829,5.6483302 c -0.019414,0.03685 -0.047026,0.069503 -0.047026,0.1142051 v 0.79375 c 0,0.1465791 0.1180042,0.2645833 0.2645834,0.2645833 0.1465791,0 0.2645833,-0.1180042 0.2645833,-0.2645833 v -0.79375 c 0,-0.044529 -0.027752,-0.076941 -0.047026,-0.1136883 a 0.26458333,0.26458333 0 0 1 -0.014986,0.019637 0.26458333,0.26458333 0 0 1 -0.018087,0.019121 0.26458333,0.26458333 0 0 1 -0.020153,0.017571 0.26458333,0.26458333 0 0 1 -0.021188,0.015502 0.26458333,0.26458333 0 0 1 -0.023254,0.01292 0.26458333,0.26458333 0 0 1 -0.02377,0.010853 0.26458333,0.26458333 0 0 1 -0.025321,0.00827 0.26458333,0.26458333 0 0 1 -0.025839,0.0062 0.26458333,0.26458333 0 0 1 -0.026355,0.0031 0.26458333,0.26458333 0 0 1 -0.018604,5.128e-4 0.26458333,0.26458333 0 0 1 -0.026355,-0.00156 0.26458333,0.26458333 0 0 1 -0.026355,-0.00362 0.26458333,0.26458333 0 0 1 -0.025321,-0.00672 0.26458333,0.26458333 0 0 1 -0.024805,-0.00878 0.26458333,0.26458333 0 0 1 -0.02377,-0.011885 0.26458333,0.26458333 0 0 1 -0.022738,-0.013435 0.26458333,0.26458333 0 0 1 -0.021188,-0.016021 0.26458333,0.26458333 0 0 1 -0.019122,-0.018087 0.26458333,0.26458333 0 0 1 -0.017571,-0.020153 0.26458333,0.26458333 0 0 1 -0.010335,-0.013954 z"
           id="path961" />
        <path
           inkscape:connector-curvature="0"
           style="fill:#292e39;fill-opacity:1;stroke:none;stroke-width:0.13663024;stroke-linecap:round;stroke-linejoin:round;stroke-miterlimit:4;stroke-dasharray:none;stroke-opacity:1"
           d="m -4.2512711,4.1750353 c -0.1465792,0 -0.2645834,0.1180041 -0.2645834,0.2645833 v 0.6020305 c -0.1576385,0.09143 -0.2645833,0.2602281 -0.2645833,0.4563028 0,0.2931584 0.2360083,0.5291667 0.5291667,0.5291667 0.167083,0 0.313986,-0.078224 0.4108275,-0.1984375 h 0.3498495 c 0.1649315,0 0.2976563,-0.1327248 0.2976563,-0.2976563 0,-0.1649314 -0.1327248,-0.2976562 -0.2976563,-0.2976562 h -0.3043742 c -0.04616,-0.079586 -0.1121334,-0.14556 -0.1917195,-0.1917195 V 4.4396186 c 0,-0.1465792 -0.1180042,-0.2645833 -0.2645833,-0.2645833 z m 0,1.0583333 c 0.1465791,0 0.2645833,0.1180042 0.2645833,0.2645833 0,0.1465792 -0.1180042,0.2645834 -0.2645833,0.2645834 -0.1465792,0 -0.2645834,-0.1180042 -0.2645834,-0.2645834 0,-0.1465791 0.1180042,-0.2645833 0.2645834,-0.2645833 z"
           id="rect871-2-9-2" />
      </g>
    </g>
  </g>
</svg>
