<?xml version="1.0" encoding="UTF-8" standalone="no"?>
<!-- Created with Inkscape (http://www.inkscape.org/) -->

<svg
   width="32"
   height="32"
   viewBox="0 0 8.4666664 8.4666666"
   version="1.1"
   id="svg5"
   inkscape:version="1.2 (dc2aedaf03, 2022-05-15)"
   sodipodi:docname="yast-mail.svg"
   xml:space="preserve"
   xmlns:inkscape="http://www.inkscape.org/namespaces/inkscape"
   xmlns:sodipodi="http://sodipodi.sourceforge.net/DTD/sodipodi-0.dtd"
   xmlns:xlink="http://www.w3.org/1999/xlink"
   xmlns="http://www.w3.org/2000/svg"
   xmlns:svg="http://www.w3.org/2000/svg"><sodipodi:namedview
     id="namedview7"
     pagecolor="#ffffff"
     bordercolor="#000000"
     borderopacity="0.25"
     inkscape:showpageshadow="false"
     inkscape:pageopacity="0.0"
     inkscape:pagecheckerboard="0"
     inkscape:deskcolor="#d1d1d1"
     inkscape:document-units="px"
     showgrid="true"
     inkscape:zoom="10.24"
     inkscape:cx="38.52539"
     inkscape:cy="11.181641"
     inkscape:window-width="2160"
     inkscape:window-height="1335"
     inkscape:window-x="0"
     inkscape:window-y="0"
     inkscape:window-maximized="1"
     inkscape:current-layer="layer1"><inkscape:grid
       type="xygrid"
       id="grid290"
       originx="0"
       originy="0" /></sodipodi:namedview><defs
     id="defs2"><linearGradient
       inkscape:collect="always"
       id="linearGradient3632"><stop
         style="stop-color:#cfe3e3;stop-opacity:1;"
         offset="0"
         id="stop3628" /><stop
         style="stop-color:#fbfcfc;stop-opacity:1;"
         offset="1"
         id="stop3630" /></linearGradient><linearGradient
       inkscape:collect="always"
       id="linearGradient1035"><stop
         style="stop-color:#049f91;stop-opacity:1;"
         offset="0"
         id="stop1031" /><stop
         style="stop-color:#58bdb4;stop-opacity:1;"
         offset="1"
         id="stop1033" /></linearGradient><style
       type="text/css"
       id="current-color-scheme">
      .ColorScheme-Text {
        color:#36404d;
      }
      </style><style
       id="current-color-scheme-06"
       type="text/css">
      .ColorScheme-Text {
        color:#122036;
      }
      </style><style
       type="text/css"
       id="current-color-scheme-23">
      .ColorScheme-Text {
        color:#122036;
      }
      </style><style
       id="current-color-scheme-5"
       type="text/css">
      .ColorScheme-Text {
        color:#122036;
      }
      </style><style
       id="current-color-scheme-2"
       type="text/css">
      .ColorScheme-Text {
        color:#122036;
      }
      </style><style
       id="current-color-scheme-1"
       type="text/css">
      .ColorScheme-Text {
        color:#122036;
      }
      </style><style
       type="text/css"
       id="current-color-scheme-10">
      .ColorScheme-Text {
        color:#122036;
      }
      </style><style
       id="current-color-scheme-0"
       type="text/css">
      .ColorScheme-Text {
        color:#122036;
      }
      </style><style
       id="current-color-scheme-26"
       type="text/css">
      .ColorScheme-Text {
        color:#122036;
      }
      </style><style
       id="current-color-scheme-67"
       type="text/css">
      .ColorScheme-Text {
        color:#122036;
      }
      </style><style
       type="text/css"
       id="current-color-scheme-3">
      .ColorScheme-Text {
        color:#122036;
      }
      </style><style
       id="current-color-scheme-6"
       type="text/css">
      .ColorScheme-Text {
        color:#122036;
      }
      </style><style
       id="current-color-scheme-60"
       type="text/css">
      .ColorScheme-Text {
        color:#122036;
      }
      </style><style
       id="current-color-scheme-9"
       type="text/css">
      .ColorScheme-Text {
        color:#122036;
      }
      </style><style
       type="text/css"
       id="current-color-scheme-8">
      .ColorScheme-Text {
        color:#122036;
      }
      </style><style
       id="current-color-scheme-35"
       type="text/css">
      .ColorScheme-Text {
        color:#36404d;
      }
      </style><linearGradient
       inkscape:collect="always"
       xlink:href="#linearGradient1035"
       id="linearGradient1037"
       x1="4.2333384"
       y1="5.8208303"
       x2="4.2333384"
       y2="0.26458028"
       gradientUnits="userSpaceOnUse"
       gradientTransform="translate(-0.2645882,1.3229197)" /><linearGradient
       inkscape:collect="always"
       xlink:href="#linearGradient3632"
       id="linearGradient3634"
       x1="4.2333331"
       y1="7.6729164"
       x2="4.2333331"
       y2="1.0583333"
       gradientUnits="userSpaceOnUse" /></defs><g
     inkscape:label="Capa 1"
     inkscape:groupmode="layer"
     id="layer1"><path
       id="path5683"
       style="fill:#90a4ae;fill-opacity:1;stroke:#90a4ae;stroke-width:0.529167;stroke-linecap:round;stroke-linejoin:round;stroke-miterlimit:1.8;stroke-opacity:1;paint-order:fill markers stroke;stop-color:#000000"
       d="M 1.8763664,0.79375283 H 1.3229118 c -0.1465784,0 -0.2645834,0.11800416 -0.2645834,0.26458337 v 0.288872 c 0.00729,0.00265 0.015134,0.00373 0.02222,0.00672 0.023757,0.010001 0.046589,0.022463 0.067696,0.03669 0.021108,0.014235 0.040977,0.030126 0.058911,0.048059 0.017934,0.017939 0.033823,0.037804 0.048059,0.058912 0.014237,0.021114 0.026675,0.043939 0.03669,0.067696 0.010015,0.02376 0.017468,0.04853 0.022738,0.074414 0.00527,0.025876 0.00827,0.052615 0.00827,0.080097 0,0.027482 -0.003,0.054216 -0.00827,0.080097 -0.00527,0.025876 -0.012724,0.05066 -0.022738,0.074414 -0.010015,0.02376 -0.022455,0.04659 -0.03669,0.067696 -0.014237,0.021114 -0.030126,0.040979 -0.048059,0.058912 -0.017934,0.017939 -0.037804,0.033822 -0.058911,0.048059 -0.021108,0.014235 -0.04394,0.026675 -0.067696,0.03669 -0.00709,0.00299 -0.014928,0.00413 -0.02222,0.00672 v 0.5777446 c 0.00729,0.00265 0.015134,0.00373 0.02222,0.00672 0.023757,0.010001 0.046589,0.022463 0.067696,0.03669 0.021108,0.014235 0.040977,0.030125 0.058911,0.048059 0.017934,0.017939 0.033823,0.037804 0.048059,0.058912 0.014237,0.021114 0.026675,0.043939 0.03669,0.067696 0.010015,0.02376 0.017468,0.04853 0.022738,0.074414 0.00527,0.025876 0.00827,0.052615 0.00827,0.080097 0,0.027482 -0.003,0.054216 -0.00827,0.080097 -0.00527,0.025876 -0.012724,0.05066 -0.022738,0.074414 -0.010015,0.02376 -0.022455,0.04659 -0.03669,0.067696 -0.014237,0.021114 -0.030126,0.040979 -0.048059,0.058912 -0.017934,0.017939 -0.037804,0.033822 -0.058911,0.048059 -0.021108,0.014235 -0.04394,0.026675 -0.067696,0.03669 -0.00709,0.00299 -0.014928,0.00413 -0.02222,0.00672 v 0.5777441 c 0.00729,0.00265 0.015134,0.00373 0.02222,0.00672 0.023757,0.010001 0.046589,0.022463 0.067696,0.03669 0.021108,0.014235 0.040977,0.030126 0.058911,0.048059 0.017934,0.017939 0.033823,0.037804 0.048059,0.058912 0.014237,0.021114 0.026675,0.043939 0.03669,0.067696 0.010015,0.02376 0.017468,0.04853 0.022738,0.074414 0.00527,0.025876 0.00827,0.052615 0.00827,0.080097 0,0.027482 -0.003,0.054216 -0.00827,0.080097 -0.00527,0.025876 -0.012724,0.05066 -0.022738,0.074414 -0.010015,0.02376 -0.022455,0.046591 -0.03669,0.067696 -0.014237,0.021114 -0.030126,0.040979 -0.048059,0.058912 -0.017934,0.017939 -0.037804,0.033822 -0.058911,0.048059 -0.021108,0.014235 -0.04394,0.026675 -0.067696,0.03669 -0.00709,0.00299 -0.014928,0.00413 -0.02222,0.00672 v 0.5777442 c 0.00729,0.00265 0.015134,0.00373 0.02222,0.00672 0.023757,0.010001 0.046589,0.022463 0.067696,0.03669 0.021108,0.014234 0.040977,0.030125 0.058911,0.048059 0.017934,0.017939 0.033823,0.037804 0.048059,0.058912 0.014237,0.021114 0.026675,0.043939 0.03669,0.067696 0.010015,0.02376 0.017468,0.04853 0.022738,0.074414 0.00527,0.025876 0.00827,0.052615 0.00827,0.080097 0,0.027482 -0.003,0.054216 -0.00827,0.080097 -0.00527,0.025876 -0.012724,0.05066 -0.022738,0.074414 -0.010015,0.02376 -0.022455,0.046591 -0.03669,0.067696 -0.014237,0.021114 -0.030126,0.040979 -0.048059,0.058912 -0.017934,0.017939 -0.037804,0.033822 -0.058911,0.048059 -0.021108,0.014234 -0.04394,0.026675 -0.067696,0.03669 -0.00709,0.00299 -0.014928,0.00413 -0.02222,0.00672 v 0.5777442 c 0.00729,0.00265 0.015134,0.00373 0.02222,0.00672 0.023757,0.010001 0.046589,0.022463 0.067696,0.03669 0.021108,0.014235 0.040977,0.030125 0.058911,0.048059 0.017934,0.017939 0.033823,0.037804 0.048059,0.058912 0.014237,0.021114 0.026675,0.043939 0.03669,0.067696 0.010015,0.02376 0.017468,0.04853 0.022738,0.074414 0.00527,0.025876 0.00827,0.052615 0.00827,0.080097 0,0.027482 -0.003,0.054216 -0.00827,0.080097 -0.00527,0.025876 -0.012724,0.05066 -0.022738,0.074414 -0.010015,0.02376 -0.022455,0.04659 -0.03669,0.067696 -0.014237,0.021114 -0.030126,0.040979 -0.048059,0.058912 -0.017934,0.017939 -0.037804,0.033822 -0.058911,0.048059 -0.021108,0.014235 -0.04394,0.026675 -0.067696,0.03669 -0.00709,0.00299 -0.014928,0.00413 -0.02222,0.00672 v 0.2888721 c 0,0.1465791 0.118005,0.2645833 0.2645834,0.2645833 h 0.5534546 c 0.00259,-0.0073 0.00373,-0.015134 0.00672,-0.022225 0.010014,-0.02376 0.022455,-0.04659 0.03669,-0.067696 0.014237,-0.021114 0.030125,-0.040979 0.048059,-0.058912 0.017933,-0.017939 0.037804,-0.033822 0.058911,-0.048059 0.021108,-0.014235 0.04394,-0.026675 0.067696,-0.03669 0.023757,-0.010001 0.048532,-0.017462 0.074414,-0.022728 0.025882,-0.00527 0.052615,-0.00826 0.080098,-0.00826 0.027484,0 0.054216,0.00299 0.080098,0.00826 0.025882,0.00527 0.050657,0.012726 0.074414,0.022728 0.023757,0.010001 0.046589,0.022463 0.067696,0.03669 0.021106,0.014234 0.040977,0.030125 0.058911,0.048059 0.017934,0.017939 0.033823,0.037804 0.048059,0.058912 0.014237,0.021114 0.026675,0.043939 0.03669,0.067696 0.00299,0.00709 0.00414,0.014922 0.00672,0.022225 H 3.199285 c 0.00259,-0.0073 0.00373,-0.015134 0.00672,-0.022225 0.010015,-0.02376 0.022455,-0.04659 0.03669,-0.067696 0.014237,-0.021114 0.030126,-0.040979 0.048059,-0.058912 0.017934,-0.017939 0.037804,-0.033822 0.058911,-0.048059 0.021108,-0.014235 0.04394,-0.026675 0.067696,-0.03669 0.023757,-0.010001 0.048532,-0.017462 0.074414,-0.022728 0.025882,-0.00527 0.052615,-0.00826 0.080098,-0.00826 0.027484,0 0.054216,0.00299 0.080098,0.00826 0.025882,0.00527 0.050657,0.012726 0.074414,0.022728 0.023757,0.010001 0.046589,0.022463 0.067696,0.03669 0.021106,0.014234 0.040977,0.030125 0.058911,0.048059 0.017933,0.017939 0.033823,0.037804 0.048059,0.058912 0.014237,0.021114 0.026675,0.043939 0.03669,0.067696 0.00299,0.00709 0.00414,0.014922 0.00672,0.022225 h 0.5777425 c 0.00259,-0.0073 0.00373,-0.015134 0.00672,-0.022225 0.010014,-0.02376 0.022455,-0.04659 0.03669,-0.067696 0.014237,-0.021114 0.030126,-0.040979 0.048059,-0.058912 0.017933,-0.017939 0.037804,-0.033822 0.058911,-0.048059 0.021108,-0.014235 0.04394,-0.026675 0.067696,-0.03669 0.023757,-0.010001 0.048532,-0.017462 0.074414,-0.022728 0.025882,-0.00527 0.052615,-0.00826 0.080098,-0.00826 0.027484,0 0.054216,0.00299 0.080098,0.00826 0.025881,0.00527 0.050657,0.012726 0.074414,0.022728 0.023757,0.010001 0.046589,0.022463 0.067696,0.03669 0.021106,0.014234 0.040977,0.030125 0.058911,0.048059 0.017933,0.017939 0.033823,0.037804 0.048059,0.058912 0.014237,0.021114 0.026675,0.043939 0.03669,0.067696 0.00299,0.00709 0.00414,0.014922 0.00672,0.022225 H 5.845122 c 0.00259,-0.0073 0.00373,-0.015134 0.00672,-0.022225 0.010015,-0.02376 0.022455,-0.04659 0.03669,-0.067696 0.014237,-0.021114 0.030125,-0.040979 0.048059,-0.058912 0.017933,-0.017939 0.037804,-0.033822 0.058911,-0.048059 0.021109,-0.014235 0.04394,-0.026675 0.067696,-0.03669 0.023757,-0.010001 0.048532,-0.017462 0.074414,-0.022728 0.025881,-0.00527 0.052615,-0.00826 0.080098,-0.00826 0.027484,0 0.054216,0.00299 0.080098,0.00826 0.025882,0.00527 0.050657,0.012726 0.074414,0.022728 0.023757,0.010001 0.046589,0.022463 0.067696,0.03669 0.021106,0.014234 0.040977,0.030125 0.058911,0.048059 0.017933,0.017939 0.033823,0.037804 0.048059,0.058912 0.014237,0.021114 0.026675,0.043939 0.03669,0.067696 0.00299,0.00709 0.00414,0.014922 0.00672,0.022225 h 0.5534567 c 0.1465784,0 0.2645834,-0.1180042 0.2645834,-0.2645833 v -0.288865 c -0.00729,-0.00265 -0.015134,-0.00373 -0.02222,-0.00672 -0.023757,-0.010001 -0.046589,-0.022463 -0.067696,-0.03669 -0.021106,-0.014235 -0.040977,-0.030126 -0.058911,-0.048059 -0.017933,-0.017939 -0.033823,-0.037804 -0.048059,-0.058912 -0.014237,-0.021114 -0.026675,-0.043939 -0.03669,-0.067696 -0.010014,-0.02376 -0.017468,-0.04853 -0.022738,-0.074414 -0.00527,-0.025905 -0.00827,-0.052639 -0.00827,-0.080121 0,-0.027482 0.003,-0.054216 0.00827,-0.080097 0.00527,-0.025876 0.012724,-0.05066 0.022738,-0.074414 0.010014,-0.02376 0.022455,-0.04659 0.03669,-0.067696 0.014237,-0.021114 0.030125,-0.040979 0.048059,-0.058912 0.017933,-0.017939 0.037804,-0.033822 0.058911,-0.048059 0.021108,-0.014235 0.04394,-0.026675 0.067696,-0.03669 0.00709,-0.00299 0.014928,-0.00413 0.02222,-0.00672 V 6.061128 C 7.4010481,6.058478 7.3932041,6.057398 7.3861181,6.054408 7.3623611,6.044407 7.3395291,6.031945 7.3184221,6.017718 7.2973161,6.003484 7.2774451,5.987593 7.2595111,5.969659 7.2415781,5.95172 7.2256881,5.931855 7.2114521,5.910747 7.1972151,5.889633 7.1847771,5.866808 7.1747621,5.843051 7.1647481,5.819291 7.1572941,5.794521 7.1520241,5.768637 c -0.00527,-0.025876 -0.00827,-0.05261 -0.00827,-0.080092 0,-0.027482 0.003,-0.054216 0.00827,-0.080097 0.00527,-0.025876 0.012724,-0.05066 0.022738,-0.074414 0.010014,-0.02376 0.022455,-0.046591 0.03669,-0.067696 0.014237,-0.021114 0.030125,-0.040979 0.048059,-0.058912 0.017933,-0.017939 0.037804,-0.033822 0.058911,-0.048059 0.021108,-0.014235 0.04394,-0.026675 0.067696,-0.03669 0.00709,-0.00299 0.014928,-0.00413 0.02222,-0.00672 V 4.7382114 c -0.00729,-0.00265 -0.015134,-0.00373 -0.02222,-0.00672 -0.023767,-0.010002 -0.046599,-0.022464 -0.067706,-0.03669 -0.021106,-0.014235 -0.040977,-0.030125 -0.058911,-0.048059 -0.017933,-0.017939 -0.033823,-0.037804 -0.048059,-0.058912 -0.014237,-0.021114 -0.026675,-0.043939 -0.03669,-0.067696 -0.010014,-0.02376 -0.017468,-0.04853 -0.022738,-0.074414 -0.00527,-0.025876 -0.00827,-0.05261 -0.00827,-0.080092 0,-0.027482 0.003,-0.054216 0.00827,-0.080097 0.00527,-0.025876 0.012724,-0.05066 0.022738,-0.074414 0.010014,-0.02376 0.022455,-0.04659 0.03669,-0.067696 0.014237,-0.021114 0.030125,-0.040979 0.048059,-0.058912 0.017933,-0.017939 0.037804,-0.033822 0.058911,-0.048059 0.021108,-0.014235 0.04394,-0.026675 0.067696,-0.03669 0.00709,-0.00299 0.014928,-0.00413 0.02222,-0.00672 V 3.4152947 c -0.00729,-0.00265 -0.015134,-0.00373 -0.02222,-0.00672 -0.023757,-0.010001 -0.046589,-0.022463 -0.067696,-0.03669 -0.021106,-0.014234 -0.040977,-0.030125 -0.058911,-0.048059 -0.017933,-0.017939 -0.033823,-0.037804 -0.048059,-0.058912 -0.014237,-0.021114 -0.026675,-0.043939 -0.03669,-0.067696 -0.010014,-0.02376 -0.017468,-0.04853 -0.022738,-0.074414 -0.00527,-0.025876 -0.00827,-0.05261 -0.00827,-0.080092 0,-0.027482 0.003,-0.054216 0.00827,-0.080097 0.00527,-0.025876 0.012724,-0.05066 0.022738,-0.074414 0.010014,-0.02376 0.022455,-0.04659 0.03669,-0.067696 0.014237,-0.021114 0.030125,-0.040979 0.048059,-0.058912 0.017933,-0.017939 0.037804,-0.033822 0.058911,-0.048059 0.021108,-0.014235 0.04394,-0.026675 0.067696,-0.03669 0.00709,-0.00299 0.014928,-0.00413 0.02222,-0.00672 V 2.0923781 c -0.00729,-0.00265 -0.015134,-0.00373 -0.02222,-0.00672 -0.023757,-0.010002 -0.046589,-0.022464 -0.067696,-0.03669 -0.021106,-0.014235 -0.040977,-0.030126 -0.058911,-0.048059 -0.017933,-0.017939 -0.033823,-0.037804 -0.048059,-0.058912 -0.014237,-0.021114 -0.026675,-0.043939 -0.03669,-0.067696 -0.010014,-0.02376 -0.017468,-0.04853 -0.022738,-0.074414 -0.00527,-0.025876 -0.00827,-0.05261 -0.00827,-0.080092 0,-0.027482 0.003,-0.054216 0.00827,-0.080097 0.00527,-0.025876 0.012724,-0.05066 0.022738,-0.074414 0.010014,-0.02376 0.022455,-0.04659 0.03669,-0.067696 0.014238,-0.021114 0.030126,-0.040979 0.048059,-0.058912 0.017933,-0.017939 0.037804,-0.033822 0.058911,-0.048059 0.021108,-0.014235 0.04394,-0.026675 0.067696,-0.03669 0.00709,-0.00299 0.014928,-0.00413 0.02222,-0.00672 V 1.0583335 c 0,-0.14657913 -0.1180049,-0.2645833 -0.2645833,-0.2645833 H 6.5902899 c -0.00259,0.007302 -0.00373,0.0151342 -0.00672,0.022225 -0.010014,0.0237596 -0.022455,0.0465905 -0.03669,0.0676963 -0.014237,0.0211138 -0.030125,0.0409787 -0.048059,0.0589121 -0.017933,0.0179388 -0.037804,0.0338217 -0.058911,0.0480589 -0.021108,0.0142346 -0.04394,0.0266753 -0.067696,0.0366898 -0.023757,0.010001 -0.048532,0.017462 -0.074414,0.022728 -0.025882,0.00527 -0.052615,0.00825 -0.080098,0.00825 -0.027484,0 -0.054216,-0.00299 -0.080098,-0.00825 C 6.1117219,1.044795 6.0869469,1.0373335 6.0631899,1.0273323 6.0394329,1.017331 6.0166009,1.0048692 5.9954939,0.9906425 5.9743879,0.9764079 5.9545169,0.960517 5.9365829,0.9425836 5.9186499,0.9246448 5.9027599,0.9047799 5.8885239,0.8836715 5.8742869,0.8625578 5.8618489,0.8397322 5.8518339,0.8159752 5.8488439,0.8088842 5.8476939,0.8010527 5.8451139,0.7937502 H 5.2673738 c -0.00259,0.007302 -0.00373,0.0151342 -0.00672,0.022225 -0.010015,0.0237596 -0.022455,0.0465905 -0.03669,0.0676963 -0.014237,0.0211138 -0.030126,0.0409787 -0.048059,0.0589121 -0.017934,0.0179388 -0.037804,0.0338217 -0.058911,0.0480589 -0.021108,0.0142346 -0.04394,0.0266753 -0.067696,0.0366898 -0.023757,0.010001 -0.048532,0.017462 -0.074414,0.022728 -0.025882,0.00527 -0.052615,0.00825 -0.080098,0.00825 -0.027484,0 -0.054216,-0.00299 -0.080098,-0.00825 C 4.7888068,1.044795 4.7640308,1.0373335 4.7402738,1.0273323 4.7165168,1.017331 4.6936848,1.0048692 4.6725778,0.9906425 4.6514718,0.9764079 4.6316008,0.960517 4.6136668,0.9425836 4.5957338,0.9246448 4.5798438,0.9047799 4.5656078,0.8836715 4.5513708,0.8625578 4.5389328,0.8397322 4.5289178,0.8159752 4.5259278,0.8088842 4.5247778,0.8010527 4.5221978,0.7937502 H 3.9444576 c -0.00259,0.007302 -0.00373,0.0151342 -0.00672,0.022225 -0.010014,0.0237596 -0.022455,0.0465905 -0.03669,0.0676963 -0.014237,0.0211138 -0.030125,0.0409787 -0.048059,0.0589121 -0.017933,0.0179388 -0.037804,0.0338217 -0.058911,0.0480589 -0.021109,0.0142346 -0.04394,0.0266753 -0.067696,0.0366898 -0.023757,0.010001 -0.048532,0.017462 -0.074414,0.022728 -0.025881,0.00527 -0.052615,0.00825 -0.080098,0.00825 -0.027484,0 -0.054216,-0.00299 -0.080098,-0.00825 C 3.4658896,1.044795 3.4411146,1.0373335 3.4173576,1.0273323 3.3936006,1.017331 3.3707686,1.0048692 3.3496616,0.9906425 3.3285556,0.9764079 3.3086846,0.960517 3.2907506,0.9425836 3.2728176,0.9246448 3.2569276,0.9047799 3.2426916,0.8836715 3.2284546,0.8625578 3.2160166,0.8397322 3.2060016,0.8159752 3.2030116,0.8088842 3.2018616,0.8010527 3.1992816,0.7937502 H 2.6215415 c -0.00259,0.007302 -0.00373,0.0151342 -0.00672,0.022225 -0.010015,0.0237596 -0.022455,0.0465905 -0.03669,0.0676963 -0.014237,0.0211138 -0.030125,0.0409787 -0.048059,0.0589121 -0.017933,0.0179388 -0.037804,0.0338217 -0.058911,0.0480589 -0.021108,0.0142346 -0.04394,0.0266753 -0.067696,0.0366898 -0.023757,0.010001 -0.048532,0.017462 -0.074414,0.022728 -0.025881,0.00527 -0.052615,0.00825 -0.080098,0.00825 -0.027484,0 -0.054216,-0.00299 -0.080098,-0.00825 C 2.1429735,1.044795 2.1181985,1.0373335 2.0944415,1.0273323 2.0706845,1.017331 2.0478525,1.0048692 2.0267455,0.9906425 2.0056375,0.9764079 1.9857685,0.960517 1.9678345,0.9425836 1.9499015,0.9246448 1.9340115,0.9047799 1.9197755,0.8836715 1.9055385,0.8625578 1.8931005,0.8397322 1.8830855,0.8159752 c -0.00299,-0.007091 -0.00414,-0.0149225 -0.00672,-0.022225 z" /><path
       id="path5683-7"
       style="fill:url(#linearGradient3634);fill-opacity:1;stroke:none;stroke-width:0.529167;stroke-linecap:round;stroke-linejoin:round;stroke-miterlimit:1.8;stroke-opacity:1;paint-order:fill markers stroke;stop-color:#000000"
       d="M 1.8763664,0.79375283 H 1.3229118 c -0.1465784,0 -0.2645834,0.11800416 -0.2645834,0.26458337 v 0.288872 c 0.00729,0.00265 0.015134,0.00373 0.02222,0.00672 0.023757,0.010001 0.046589,0.022463 0.067696,0.03669 0.021108,0.014235 0.040977,0.030126 0.058911,0.048059 0.017934,0.017939 0.033823,0.037804 0.048059,0.058912 0.014237,0.021114 0.026675,0.043939 0.03669,0.067696 0.010015,0.02376 0.017468,0.04853 0.022738,0.074414 0.00527,0.025876 0.00827,0.052615 0.00827,0.080097 0,0.027482 -0.003,0.054216 -0.00827,0.080097 -0.00527,0.025876 -0.012724,0.05066 -0.022738,0.074414 -0.010015,0.02376 -0.022455,0.04659 -0.03669,0.067696 -0.014237,0.021114 -0.030126,0.040979 -0.048059,0.058912 -0.017934,0.017939 -0.037804,0.033822 -0.058911,0.048059 -0.021108,0.014235 -0.04394,0.026675 -0.067696,0.03669 -0.00709,0.00299 -0.014928,0.00413 -0.02222,0.00672 v 0.5777446 c 0.00729,0.00265 0.015134,0.00373 0.02222,0.00672 0.023757,0.010001 0.046589,0.022463 0.067696,0.03669 0.021108,0.014235 0.040977,0.030125 0.058911,0.048059 0.017934,0.017939 0.033823,0.037804 0.048059,0.058912 0.014237,0.021114 0.026675,0.043939 0.03669,0.067696 0.010015,0.02376 0.017468,0.04853 0.022738,0.074414 0.00527,0.025876 0.00827,0.052615 0.00827,0.080097 0,0.027482 -0.003,0.054216 -0.00827,0.080097 -0.00527,0.025876 -0.012724,0.05066 -0.022738,0.074414 -0.010015,0.02376 -0.022455,0.04659 -0.03669,0.067696 -0.014237,0.021114 -0.030126,0.040979 -0.048059,0.058912 -0.017934,0.017939 -0.037804,0.033822 -0.058911,0.048059 -0.021108,0.014235 -0.04394,0.026675 -0.067696,0.03669 -0.00709,0.00299 -0.014928,0.00413 -0.02222,0.00672 v 0.5777441 c 0.00729,0.00265 0.015134,0.00373 0.02222,0.00672 0.023757,0.010001 0.046589,0.022463 0.067696,0.03669 0.021108,0.014235 0.040977,0.030126 0.058911,0.048059 0.017934,0.017939 0.033823,0.037804 0.048059,0.058912 0.014237,0.021114 0.026675,0.043939 0.03669,0.067696 0.010015,0.02376 0.017468,0.04853 0.022738,0.074414 0.00527,0.025876 0.00827,0.052615 0.00827,0.080097 0,0.027482 -0.003,0.054216 -0.00827,0.080097 -0.00527,0.025876 -0.012724,0.05066 -0.022738,0.074414 -0.010015,0.02376 -0.022455,0.046591 -0.03669,0.067696 -0.014237,0.021114 -0.030126,0.040979 -0.048059,0.058912 -0.017934,0.017939 -0.037804,0.033822 -0.058911,0.048059 -0.021108,0.014235 -0.04394,0.026675 -0.067696,0.03669 -0.00709,0.00299 -0.014928,0.00413 -0.02222,0.00672 v 0.5777442 c 0.00729,0.00265 0.015134,0.00373 0.02222,0.00672 0.023757,0.010001 0.046589,0.022463 0.067696,0.03669 0.021108,0.014234 0.040977,0.030125 0.058911,0.048059 0.017934,0.017939 0.033823,0.037804 0.048059,0.058912 0.014237,0.021114 0.026675,0.043939 0.03669,0.067696 0.010015,0.02376 0.017468,0.04853 0.022738,0.074414 0.00527,0.025876 0.00827,0.052615 0.00827,0.080097 0,0.027482 -0.003,0.054216 -0.00827,0.080097 -0.00527,0.025876 -0.012724,0.05066 -0.022738,0.074414 -0.010015,0.02376 -0.022455,0.046591 -0.03669,0.067696 -0.014237,0.021114 -0.030126,0.040979 -0.048059,0.058912 -0.017934,0.017939 -0.037804,0.033822 -0.058911,0.048059 -0.021108,0.014234 -0.04394,0.026675 -0.067696,0.03669 -0.00709,0.00299 -0.014928,0.00413 -0.02222,0.00672 v 0.5777442 c 0.00729,0.00265 0.015134,0.00373 0.02222,0.00672 0.023757,0.010001 0.046589,0.022463 0.067696,0.03669 0.021108,0.014235 0.040977,0.030125 0.058911,0.048059 0.017934,0.017939 0.033823,0.037804 0.048059,0.058912 0.014237,0.021114 0.026675,0.043939 0.03669,0.067696 0.010015,0.02376 0.017468,0.04853 0.022738,0.074414 0.00527,0.025876 0.00827,0.052615 0.00827,0.080097 0,0.027482 -0.003,0.054216 -0.00827,0.080097 -0.00527,0.025876 -0.012724,0.05066 -0.022738,0.074414 -0.010015,0.02376 -0.022455,0.04659 -0.03669,0.067696 -0.014237,0.021114 -0.030126,0.040979 -0.048059,0.058912 -0.017934,0.017939 -0.037804,0.033822 -0.058911,0.048059 -0.021108,0.014235 -0.04394,0.026675 -0.067696,0.03669 -0.00709,0.00299 -0.014928,0.00413 -0.02222,0.00672 v 0.2888721 c 0,0.1465791 0.118005,0.2645833 0.2645834,0.2645833 h 0.5534546 c 0.00259,-0.0073 0.00373,-0.015134 0.00672,-0.022225 0.010014,-0.02376 0.022455,-0.04659 0.03669,-0.067696 0.014237,-0.021114 0.030125,-0.040979 0.048059,-0.058912 0.017933,-0.017939 0.037804,-0.033822 0.058911,-0.048059 0.021108,-0.014235 0.04394,-0.026675 0.067696,-0.03669 0.023757,-0.010001 0.048532,-0.017462 0.074414,-0.022728 0.025882,-0.00527 0.052615,-0.00826 0.080098,-0.00826 0.027484,0 0.054216,0.00299 0.080098,0.00826 0.025882,0.00527 0.050657,0.012726 0.074414,0.022728 0.023757,0.010001 0.046589,0.022463 0.067696,0.03669 0.021106,0.014234 0.040977,0.030125 0.058911,0.048059 0.017934,0.017939 0.033823,0.037804 0.048059,0.058912 0.014237,0.021114 0.026675,0.043939 0.03669,0.067696 0.00299,0.00709 0.00414,0.014922 0.00672,0.022225 H 3.199285 c 0.00259,-0.0073 0.00373,-0.015134 0.00672,-0.022225 0.010015,-0.02376 0.022455,-0.04659 0.03669,-0.067696 0.014237,-0.021114 0.030126,-0.040979 0.048059,-0.058912 0.017934,-0.017939 0.037804,-0.033822 0.058911,-0.048059 0.021108,-0.014235 0.04394,-0.026675 0.067696,-0.03669 0.023757,-0.010001 0.048532,-0.017462 0.074414,-0.022728 0.025882,-0.00527 0.052615,-0.00826 0.080098,-0.00826 0.027484,0 0.054216,0.00299 0.080098,0.00826 0.025882,0.00527 0.050657,0.012726 0.074414,0.022728 0.023757,0.010001 0.046589,0.022463 0.067696,0.03669 0.021106,0.014234 0.040977,0.030125 0.058911,0.048059 0.017933,0.017939 0.033823,0.037804 0.048059,0.058912 0.014237,0.021114 0.026675,0.043939 0.03669,0.067696 0.00299,0.00709 0.00414,0.014922 0.00672,0.022225 h 0.5777425 c 0.00259,-0.0073 0.00373,-0.015134 0.00672,-0.022225 0.010014,-0.02376 0.022455,-0.04659 0.03669,-0.067696 0.014237,-0.021114 0.030126,-0.040979 0.048059,-0.058912 0.017933,-0.017939 0.037804,-0.033822 0.058911,-0.048059 0.021108,-0.014235 0.04394,-0.026675 0.067696,-0.03669 0.023757,-0.010001 0.048532,-0.017462 0.074414,-0.022728 0.025882,-0.00527 0.052615,-0.00826 0.080098,-0.00826 0.027484,0 0.054216,0.00299 0.080098,0.00826 0.025881,0.00527 0.050657,0.012726 0.074414,0.022728 0.023757,0.010001 0.046589,0.022463 0.067696,0.03669 0.021106,0.014234 0.040977,0.030125 0.058911,0.048059 0.017933,0.017939 0.033823,0.037804 0.048059,0.058912 0.014237,0.021114 0.026675,0.043939 0.03669,0.067696 0.00299,0.00709 0.00414,0.014922 0.00672,0.022225 H 5.845122 c 0.00259,-0.0073 0.00373,-0.015134 0.00672,-0.022225 0.010015,-0.02376 0.022455,-0.04659 0.03669,-0.067696 0.014237,-0.021114 0.030125,-0.040979 0.048059,-0.058912 0.017933,-0.017939 0.037804,-0.033822 0.058911,-0.048059 0.021109,-0.014235 0.04394,-0.026675 0.067696,-0.03669 0.023757,-0.010001 0.048532,-0.017462 0.074414,-0.022728 0.025881,-0.00527 0.052615,-0.00826 0.080098,-0.00826 0.027484,0 0.054216,0.00299 0.080098,0.00826 0.025882,0.00527 0.050657,0.012726 0.074414,0.022728 0.023757,0.010001 0.046589,0.022463 0.067696,0.03669 0.021106,0.014234 0.040977,0.030125 0.058911,0.048059 0.017933,0.017939 0.033823,0.037804 0.048059,0.058912 0.014237,0.021114 0.026675,0.043939 0.03669,0.067696 0.00299,0.00709 0.00414,0.014922 0.00672,0.022225 h 0.5534567 c 0.1465784,0 0.2645834,-0.1180042 0.2645834,-0.2645833 v -0.288865 c -0.00729,-0.00265 -0.015134,-0.00373 -0.02222,-0.00672 -0.023757,-0.010001 -0.046589,-0.022463 -0.067696,-0.03669 -0.021106,-0.014235 -0.040977,-0.030126 -0.058911,-0.048059 -0.017933,-0.017939 -0.033823,-0.037804 -0.048059,-0.058912 -0.014237,-0.021114 -0.026675,-0.043939 -0.03669,-0.067696 -0.010014,-0.02376 -0.017468,-0.04853 -0.022738,-0.074414 -0.00527,-0.025905 -0.00827,-0.052639 -0.00827,-0.080121 0,-0.027482 0.003,-0.054216 0.00827,-0.080097 0.00527,-0.025876 0.012724,-0.05066 0.022738,-0.074414 0.010014,-0.02376 0.022455,-0.04659 0.03669,-0.067696 0.014237,-0.021114 0.030125,-0.040979 0.048059,-0.058912 0.017933,-0.017939 0.037804,-0.033822 0.058911,-0.048059 0.021108,-0.014235 0.04394,-0.026675 0.067696,-0.03669 0.00709,-0.00299 0.014928,-0.00413 0.02222,-0.00672 V 6.061128 C 7.4010481,6.058478 7.3932041,6.057398 7.3861181,6.054408 7.3623611,6.044407 7.3395291,6.031945 7.3184221,6.017718 7.2973161,6.003484 7.2774451,5.987593 7.2595111,5.969659 7.2415781,5.95172 7.2256881,5.931855 7.2114521,5.910747 7.1972151,5.889633 7.1847771,5.866808 7.1747621,5.843051 7.1647481,5.819291 7.1572941,5.794521 7.1520241,5.768637 c -0.00527,-0.025876 -0.00827,-0.05261 -0.00827,-0.080092 0,-0.027482 0.003,-0.054216 0.00827,-0.080097 0.00527,-0.025876 0.012724,-0.05066 0.022738,-0.074414 0.010014,-0.02376 0.022455,-0.046591 0.03669,-0.067696 0.014237,-0.021114 0.030125,-0.040979 0.048059,-0.058912 0.017933,-0.017939 0.037804,-0.033822 0.058911,-0.048059 0.021108,-0.014235 0.04394,-0.026675 0.067696,-0.03669 0.00709,-0.00299 0.014928,-0.00413 0.02222,-0.00672 V 4.7382114 c -0.00729,-0.00265 -0.015134,-0.00373 -0.02222,-0.00672 -0.023767,-0.010002 -0.046599,-0.022464 -0.067706,-0.03669 -0.021106,-0.014235 -0.040977,-0.030125 -0.058911,-0.048059 -0.017933,-0.017939 -0.033823,-0.037804 -0.048059,-0.058912 -0.014237,-0.021114 -0.026675,-0.043939 -0.03669,-0.067696 -0.010014,-0.02376 -0.017468,-0.04853 -0.022738,-0.074414 -0.00527,-0.025876 -0.00827,-0.05261 -0.00827,-0.080092 0,-0.027482 0.003,-0.054216 0.00827,-0.080097 0.00527,-0.025876 0.012724,-0.05066 0.022738,-0.074414 0.010014,-0.02376 0.022455,-0.04659 0.03669,-0.067696 0.014237,-0.021114 0.030125,-0.040979 0.048059,-0.058912 0.017933,-0.017939 0.037804,-0.033822 0.058911,-0.048059 0.021108,-0.014235 0.04394,-0.026675 0.067696,-0.03669 0.00709,-0.00299 0.014928,-0.00413 0.02222,-0.00672 V 3.4152947 c -0.00729,-0.00265 -0.015134,-0.00373 -0.02222,-0.00672 -0.023757,-0.010001 -0.046589,-0.022463 -0.067696,-0.03669 -0.021106,-0.014234 -0.040977,-0.030125 -0.058911,-0.048059 -0.017933,-0.017939 -0.033823,-0.037804 -0.048059,-0.058912 -0.014237,-0.021114 -0.026675,-0.043939 -0.03669,-0.067696 -0.010014,-0.02376 -0.017468,-0.04853 -0.022738,-0.074414 -0.00527,-0.025876 -0.00827,-0.05261 -0.00827,-0.080092 0,-0.027482 0.003,-0.054216 0.00827,-0.080097 0.00527,-0.025876 0.012724,-0.05066 0.022738,-0.074414 0.010014,-0.02376 0.022455,-0.04659 0.03669,-0.067696 0.014237,-0.021114 0.030125,-0.040979 0.048059,-0.058912 0.017933,-0.017939 0.037804,-0.033822 0.058911,-0.048059 0.021108,-0.014235 0.04394,-0.026675 0.067696,-0.03669 0.00709,-0.00299 0.014928,-0.00413 0.02222,-0.00672 V 2.0923781 c -0.00729,-0.00265 -0.015134,-0.00373 -0.02222,-0.00672 -0.023757,-0.010002 -0.046589,-0.022464 -0.067696,-0.03669 -0.021106,-0.014235 -0.040977,-0.030126 -0.058911,-0.048059 -0.017933,-0.017939 -0.033823,-0.037804 -0.048059,-0.058912 -0.014237,-0.021114 -0.026675,-0.043939 -0.03669,-0.067696 -0.010014,-0.02376 -0.017468,-0.04853 -0.022738,-0.074414 -0.00527,-0.025876 -0.00827,-0.05261 -0.00827,-0.080092 0,-0.027482 0.003,-0.054216 0.00827,-0.080097 0.00527,-0.025876 0.012724,-0.05066 0.022738,-0.074414 0.010014,-0.02376 0.022455,-0.04659 0.03669,-0.067696 0.014238,-0.021114 0.030126,-0.040979 0.048059,-0.058912 0.017933,-0.017939 0.037804,-0.033822 0.058911,-0.048059 0.021108,-0.014235 0.04394,-0.026675 0.067696,-0.03669 0.00709,-0.00299 0.014928,-0.00413 0.02222,-0.00672 V 1.0583335 c 0,-0.14657913 -0.1180049,-0.2645833 -0.2645833,-0.2645833 H 6.5902899 c -0.00259,0.007302 -0.00373,0.0151342 -0.00672,0.022225 -0.010014,0.0237596 -0.022455,0.0465905 -0.03669,0.0676963 -0.014237,0.0211138 -0.030125,0.0409787 -0.048059,0.0589121 -0.017933,0.0179388 -0.037804,0.0338217 -0.058911,0.0480589 -0.021108,0.0142346 -0.04394,0.0266753 -0.067696,0.0366898 -0.023757,0.010001 -0.048532,0.017462 -0.074414,0.022728 -0.025882,0.00527 -0.052615,0.00825 -0.080098,0.00825 -0.027484,0 -0.054216,-0.00299 -0.080098,-0.00825 C 6.1117219,1.044795 6.0869469,1.0373335 6.0631899,1.0273323 6.0394329,1.017331 6.0166009,1.0048692 5.9954939,0.9906425 5.9743879,0.9764079 5.9545169,0.960517 5.9365829,0.9425836 5.9186499,0.9246448 5.9027599,0.9047799 5.8885239,0.8836715 5.8742869,0.8625578 5.8618489,0.8397322 5.8518339,0.8159752 5.8488439,0.8088842 5.8476939,0.8010527 5.8451139,0.7937502 H 5.2673738 c -0.00259,0.007302 -0.00373,0.0151342 -0.00672,0.022225 -0.010015,0.0237596 -0.022455,0.0465905 -0.03669,0.0676963 -0.014237,0.0211138 -0.030126,0.0409787 -0.048059,0.0589121 -0.017934,0.0179388 -0.037804,0.0338217 -0.058911,0.0480589 -0.021108,0.0142346 -0.04394,0.0266753 -0.067696,0.0366898 -0.023757,0.010001 -0.048532,0.017462 -0.074414,0.022728 -0.025882,0.00527 -0.052615,0.00825 -0.080098,0.00825 -0.027484,0 -0.054216,-0.00299 -0.080098,-0.00825 C 4.7888068,1.044795 4.7640308,1.0373335 4.7402738,1.0273323 4.7165168,1.017331 4.6936848,1.0048692 4.6725778,0.9906425 4.6514718,0.9764079 4.6316008,0.960517 4.6136668,0.9425836 4.5957338,0.9246448 4.5798438,0.9047799 4.5656078,0.8836715 4.5513708,0.8625578 4.5389328,0.8397322 4.5289178,0.8159752 4.5259278,0.8088842 4.5247778,0.8010527 4.5221978,0.7937502 H 3.9444576 c -0.00259,0.007302 -0.00373,0.0151342 -0.00672,0.022225 -0.010014,0.0237596 -0.022455,0.0465905 -0.03669,0.0676963 -0.014237,0.0211138 -0.030125,0.0409787 -0.048059,0.0589121 -0.017933,0.0179388 -0.037804,0.0338217 -0.058911,0.0480589 -0.021109,0.0142346 -0.04394,0.0266753 -0.067696,0.0366898 -0.023757,0.010001 -0.048532,0.017462 -0.074414,0.022728 -0.025881,0.00527 -0.052615,0.00825 -0.080098,0.00825 -0.027484,0 -0.054216,-0.00299 -0.080098,-0.00825 C 3.4658896,1.044795 3.4411146,1.0373335 3.4173576,1.0273323 3.3936006,1.017331 3.3707686,1.0048692 3.3496616,0.9906425 3.3285556,0.9764079 3.3086846,0.960517 3.2907506,0.9425836 3.2728176,0.9246448 3.2569276,0.9047799 3.2426916,0.8836715 3.2284546,0.8625578 3.2160166,0.8397322 3.2060016,0.8159752 3.2030116,0.8088842 3.2018616,0.8010527 3.1992816,0.7937502 H 2.6215415 c -0.00259,0.007302 -0.00373,0.0151342 -0.00672,0.022225 -0.010015,0.0237596 -0.022455,0.0465905 -0.03669,0.0676963 -0.014237,0.0211138 -0.030125,0.0409787 -0.048059,0.0589121 -0.017933,0.0179388 -0.037804,0.0338217 -0.058911,0.0480589 -0.021108,0.0142346 -0.04394,0.0266753 -0.067696,0.0366898 -0.023757,0.010001 -0.048532,0.017462 -0.074414,0.022728 -0.025881,0.00527 -0.052615,0.00825 -0.080098,0.00825 -0.027484,0 -0.054216,-0.00299 -0.080098,-0.00825 C 2.1429735,1.044795 2.1181985,1.0373335 2.0944415,1.0273323 2.0706845,1.017331 2.0478525,1.0048692 2.0267455,0.9906425 2.0056375,0.9764079 1.9857685,0.960517 1.9678345,0.9425836 1.9499015,0.9246448 1.9340115,0.9047799 1.9197755,0.8836715 1.9055385,0.8625578 1.8931005,0.8397322 1.8830855,0.8159752 c -0.00299,-0.007091 -0.00414,-0.0149225 -0.00672,-0.022225 z" /><path
       id="rect5718"
       style="fill:#28596c;stroke-width:0.529167;stroke-linecap:round;stroke-linejoin:round;stroke-miterlimit:1.8;paint-order:fill markers stroke;stop-color:#000000"
       d="m 1.8520774,1.3229195 h 4.762502 c 0.1465787,0 0.2645823,0.1180041 0.2645823,0.2645833 v 5.5562499 c 0,0.1465792 -0.1180036,0.2645834 -0.2645823,0.2645834 h -4.762502 c -0.1465787,0 -0.2645823,-0.1180042 -0.2645823,-0.2645834 V 1.5875028 c 0,-0.1465792 0.1180036,-0.2645833 0.2645823,-0.2645833 z" /><path
       id="rect5718-6"
       style="fill:url(#linearGradient1037);fill-opacity:1;stroke-width:0.529167;stroke-linecap:round;stroke-linejoin:round;stroke-miterlimit:1.8;paint-order:fill markers stroke;stop-color:#000000"
       d="m 1.8520784,1.5875028 h 4.7625 v 5.5562499 h -4.7625 z" /><path
       id="rect11510"
       style="fill:#cff7f1;fill-opacity:1;stroke:none;stroke-width:0.529167;stroke-linecap:round;stroke-linejoin:round;stroke-miterlimit:1.8;stroke-opacity:1;paint-order:fill markers stroke;stop-color:#000000"
       d="m 5.277709,1.8520997 c -0.2081948,0.00524 -0.3854672,0.12982 -0.467155,0.30799 -0.054104,-0.0276 -0.115249,-0.0434 -0.1803507,-0.0434 -0.2198686,0 -0.396875,0.17701 -0.396875,0.39688 0,0.0515 0.00967,0.10115 0.027389,0.14624 -0.1686314,0.0458 -0.2919719,0.19941 -0.2919719,0.38293 0,0.21986 0.1770065,0.39687 0.396875,0.39687 h 0.7937501 c 0.020083,0 0.039645,-0.002 0.058911,-0.005 0.022587,0.003 0.045315,0.005 0.06873,0.005 h 0.5384684 c 0.2906378,0 0.5245158,-0.23388 0.5245158,-0.52451 v -0.009 c 0,-0.29063 -0.233878,-0.52451 -0.5245158,-0.52451 h -0.00465 c 0,-0.29316 -0.2360086,-0.52917 -0.5291667,-0.52917 -0.00458,0 -0.0094,-1.1e-4 -0.013953,0 z" /><path
       id="path929"
       style="fill:#28596c;fill-opacity:1;stroke:none;stroke-width:0.186556px;stroke-linecap:butt;stroke-linejoin:miter;stroke-opacity:1"
       d="m 3.6561025,2.9104297 c -0.070819,-7e-5 -0.1428074,10e-4 -0.2165242,0.004 v 0.52916 l -0.2645834,-0.26458 c -0.7274943,0.92969 -0.683279,1.86982 0,2.91042 1.2363,-0.92817 2.1351737,0.35979 2.9104166,-1.05834 -1.7197176,0.60499 -2.3812499,-0.42063 -2.3812499,-0.79375 0.8186851,1.02897 1.7265318,0.72455 2.3812499,0.26459 -0.1094046,-1.13957 -0.9609367,-1.57172 -2.3585123,-1.5906 -0.023293,-2.5e-4 -0.04719,-5e-4 -0.070797,-5.2e-4 z m 1.3570231,0.53278 c 0.00455,-1.1e-4 0.00937,0 0.013953,0 0.2931567,0 0.5291667,0.23601 0.5291667,0.52917 0,0.29316 -0.23601,0.52917 -0.5291667,0.52917 -0.2931567,0 -0.5291667,-0.23601 -0.5291667,-0.52917 0,-0.28858 0.2284389,-0.52195 0.5152137,-0.52917 z m 0.00723,0.26459 c -0.1433877,0.004 -0.2578654,0.12029 -0.2578654,0.26458 0,0.14658 0.1180048,0.26458 0.2645833,0.26458 0.1465785,0 0.2645833,-0.118 0.2645833,-0.26458 0,-0.14658 -0.1180048,-0.26458 -0.2645833,-0.26458 -0.00229,0 -0.00444,-6e-5 -0.00672,0 z" /><path
       id="rect11510-3"
       style="fill:#cff7f1;fill-opacity:1;stroke:none;stroke-width:0.529167;stroke-linecap:round;stroke-linejoin:round;stroke-miterlimit:1.8;stroke-opacity:1;paint-order:fill markers stroke;stop-color:#000000"
       d="m 3.4256251,5.2916697 c -0.2081948,0.005 -0.3854671,0.12982 -0.4671549,0.30799 -0.054104,-0.0275 -0.1152491,-0.0434 -0.1803508,-0.0434 -0.2198685,0 -0.396875,0.17701 -0.396875,0.39688 0,0.0515 0.00967,0.10115 0.027389,0.14624 -0.1686314,0.0458 -0.2919719,0.19941 -0.2919719,0.38293 0,0.21986 0.1770065,0.39687 0.3968751,0.39687 h 0.79375 c 0.020083,0 0.039645,-0.002 0.058911,-0.005 0.022587,0.003 0.045315,0.005 0.06873,0.005 H 3.973396 c 0.2906378,0 0.5245158,-0.23388 0.5245158,-0.52451 v -0.009 c 0,-0.29063 -0.233878,-0.52451 -0.5245158,-0.52451 h -0.00465 c 0,-0.29316 -0.2360086,-0.52917 -0.5291667,-0.52917 -0.00458,0 -0.0094,-1.1e-4 -0.013953,0 z" /></g></svg>
