<?xml version="1.0" encoding="UTF-8" standalone="no"?>
<!-- Created with Inkscape (http://www.inkscape.org/) -->

<svg
   width="32"
   height="32"
   viewBox="0 0 32 32"
   version="1.1"
   id="svg8"
   inkscape:version="1.2 (dc2aedaf03, 2022-05-15)"
   sodipodi:docname="preferences-desktop-font.svg"
   xml:space="preserve"
   xmlns:inkscape="http://www.inkscape.org/namespaces/inkscape"
   xmlns:sodipodi="http://sodipodi.sourceforge.net/DTD/sodipodi-0.dtd"
   xmlns:xlink="http://www.w3.org/1999/xlink"
   xmlns="http://www.w3.org/2000/svg"
   xmlns:svg="http://www.w3.org/2000/svg"
   xmlns:rdf="http://www.w3.org/1999/02/22-rdf-syntax-ns#"
   xmlns:cc="http://creativecommons.org/ns#"
   xmlns:dc="http://purl.org/dc/elements/1.1/"><title
     id="title7895">Antu icon Theme</title><defs
     id="defs2"><linearGradient
       gradientTransform="translate(-25,8)"
       inkscape:collect="always"
       xlink:href="#linearGradient2126"
       id="linearGradient1256"
       x1="16"
       y1="310.64999"
       x2="16"
       y2="290.64999"
       gradientUnits="userSpaceOnUse" /><linearGradient
       id="linearGradient2126"
       inkscape:collect="always"><stop
         id="stop2122"
         offset="0"
         style="stop-color:#475057;stop-opacity:1;" /><stop
         id="stop2124"
         offset="1"
         style="stop-color:#5e6a73;stop-opacity:1" /></linearGradient><style
       type="text/css"
       id="current-color-scheme">
      .ColorScheme-Text {
        color:#36404d;
      }
      </style><style
       type="text/css"
       id="current-color-scheme-67">
      .ColorScheme-Text {
        color:#122036;
      }
      </style><style
       type="text/css"
       id="current-color-scheme-7">
      .ColorScheme-Text {
        color:#122036;
      }
      </style><style
       type="text/css"
       id="current-color-scheme-5">
      .ColorScheme-Text {
        color:#122036;
      }
      </style><style
       type="text/css"
       id="current-color-scheme-6">
      .ColorScheme-Text {
        color:#122036;
      }
      </style><style
       type="text/css"
       id="current-color-scheme-1">
      .ColorScheme-Text {
        color:#122036;
      }
      </style><style
       id="current-color-scheme-10"
       type="text/css">
      .ColorScheme-Text {
        color:#122036;
      }
      </style><style
       id="current-color-scheme-5-7"
       type="text/css">
      .ColorScheme-Text {
        color:#122036;
      }
      </style><style
       id="current-color-scheme-1-2"
       type="text/css">
      .ColorScheme-Text {
        color:#122036;
      }
      </style><style
       type="text/css"
       id="current-color-scheme-10-9">
      .ColorScheme-Text {
        color:#122036;
      }
      </style></defs><sodipodi:namedview
     id="base"
     pagecolor="#ffffff"
     bordercolor="#666666"
     borderopacity="1.0"
     inkscape:pageopacity="0.0"
     inkscape:pageshadow="2"
     inkscape:zoom="22.4"
     inkscape:cx="25.513393"
     inkscape:cy="15.15625"
     inkscape:document-units="px"
     inkscape:current-layer="layer1"
     showgrid="true"
     units="px"
     inkscape:window-width="2160"
     inkscape:window-height="1335"
     inkscape:window-x="0"
     inkscape:window-y="0"
     inkscape:window-maximized="1"
     objecttolerance="10"
     gridtolerance="10"
     guidetolerance="10"
     inkscape:showpageshadow="2"
     inkscape:pagecheckerboard="0"
     inkscape:deskcolor="#d1d1d1"><inkscape:grid
       type="xygrid"
       id="grid7897"
       empspacing="4" /></sodipodi:namedview><metadata
     id="metadata5"><rdf:RDF><cc:Work
         rdf:about=""><dc:format>image/svg+xml</dc:format><dc:type
           rdf:resource="http://purl.org/dc/dcmitype/StillImage" /><dc:title>Antu icon Theme</dc:title></cc:Work></rdf:RDF></metadata><g
     inkscape:label="Capa 1"
     inkscape:groupmode="layer"
     id="layer1"
     transform="translate(0,-282.64999)"><g
       id="g2069"
       transform="translate(22,-8)"><g
         id="rect965"><path
           style="color:#000000;fill:#343b40;stroke-linecap:round;stroke-linejoin:round;-inkscape-stroke:none;paint-order:stroke markers fill;fill-opacity:1"
           d="m -15,293.65039 a 1.0001,1.0001 0 0 0 -1,1 v 3 a 1.0001,1.0001 0 0 0 1,1 h 3 v 18 a 1.0001,1.0001 0 0 0 0,0.004 c 0,0 -0.01451,0.0407 -0.01953,0.0508 -0.005,0.0101 0.189276,-0.0547 0.01953,-0.0547 h -2 a 1.0001,1.0001 0 0 0 -1,1 v 1 1 a 1.0001,1.0001 0 0 0 1,1 h 10 a 1.0001,1.0001 0 0 0 1,-1 v -1 -1 a 1.0001,1.0001 0 0 0 -1,-1 h -2 a 1.0001,1.0001 0 0 0 -0.00391,0 c 0,0 -0.040824,-0.0146 -0.050781,-0.0195 C -6.0646448,316.6259 -6,316.82039 -6,316.65039 v -6 h 2 v 1 a 1.0001,1.0001 0 0 0 1,1 h 2 a 1.0001,1.0001 0 0 0 1,-1 v -7 a 1.0001,1.0001 0 0 0 -1,-1 h -2 a 1.0001,1.0001 0 0 0 -1,1 v 1 a 1.0001,1.0001 0 0 0 0,0.004 c 0,0 -0.014512,0.0388 -0.019531,0.0488 -0.00502,0.0101 0.1892682,-0.0527 0.019531,-0.0527 h -2 v -7 h 6 v 2 a 1.0001,1.0001 0 0 0 1,1 h 3 a 1.0001,1.0001 0 0 0 1,-1 v -3 -1 -1 -1 a 1.0001,1.0001 0 0 0 -1,-1 H 3.0332031 3 Z m 1,2 H 3 v 1 1 2 H 2 v -1 c 0,-0.834 -0.5646453,-1.52744 -1.0546875,-1.77148 -0.4900422,-0.24404 -0.94921875,-0.22852 -0.94921875,-0.22852 H -7 a 1.0001,1.0001 0 0 0 -1,1 v 1 8 a 1.0001,1.0001 0 0 0 1,1 h 3 c 0.833952,0 1.5274265,-0.56476 1.7714844,-1.05469 0.2431085,-0.48801 0.2286318,-0.94175 0.2285156,-0.94531 v 5 c 0,-0.834 -0.5646453,-1.52744 -1.0546875,-1.77148 C -3.5428235,308.63581 -3.9964438,308.65027 -4,308.65039 h -3 a 1.0001,1.0001 0 0 0 -1,1 v 7 c 0,0.83401 0.5646453,1.52744 1.0546875,1.77148 0.488136,0.2431 0.9417563,0.22864 0.9453125,0.22852 h -6 c 0.833954,0 1.527427,-0.56476 1.771484,-1.05469 C -9.9844583,317.10578 -10,316.64648 -10,316.64648 v -18.99609 a 1.0001,1.0001 0 0 0 -1,-1 h -1 -2 z"
           id="path1442" /><path
           style="color:#000000;fill:url(#linearGradient1256);stroke-width:2;stroke-linecap:round;stroke-linejoin:round;-inkscape-stroke:none;paint-order:stroke markers fill"
           d="m -15,294.64999 v 3 h 3 1 v 19 c 0,0 0.0037,1 -1,1 h -2 v 1 1 h 10 v -1 -1 h -2 c 0,0 -1,0.004 -1,-1 v -7 h 3 c 0,0 1,-0.004 1,1 v 1 h 2 v -7 h -2 v 1 c 0,0 0.00369,1 -1,1 h -3 v -8 -1 h 7 c 0,0 1,-0.004 1,1 v 2 h 3 v -3 -1 -1 -1 H 3.0330378 3 Z"
           id="path1444" /></g></g></g></svg>
