<?xml version="1.0" encoding="UTF-8" standalone="no"?>
<!-- Created with Inkscape (http://www.inkscape.org/) -->

<svg
   xmlns:dc="http://purl.org/dc/elements/1.1/"
   xmlns:cc="http://creativecommons.org/ns#"
   xmlns:rdf="http://www.w3.org/1999/02/22-rdf-syntax-ns#"
   xmlns:svg="http://www.w3.org/2000/svg"
   xmlns="http://www.w3.org/2000/svg"
   xmlns:xlink="http://www.w3.org/1999/xlink"
   xmlns:sodipodi="http://sodipodi.sourceforge.net/DTD/sodipodi-0.dtd"
   xmlns:inkscape="http://www.inkscape.org/namespaces/inkscape"
   width="32"
   height="32"
   viewBox="0 0 32 32"
   version="1.1"
   id="svg8"
   inkscape:version="0.92.2 5c3e80d, 2017-08-06"
   sodipodi:docname="preferences-system-network-connection.svg">
  <title
     id="title7895">Antu icon Theme</title>
  <defs
     id="defs2">
    <linearGradient
       gradientTransform="translate(-19,293.64999)"
       inkscape:collect="always"
       xlink:href="#linearGradient4627"
       id="linearGradient1532"
       x1="16"
       y1="17"
       x2="16"
       y2="13"
       gradientUnits="userSpaceOnUse" />
    <linearGradient
       id="linearGradient4627"
       inkscape:collect="always">
      <stop
         id="stop4623"
         offset="0"
         style="stop-color:#ffc900;stop-opacity:1" />
      <stop
         id="stop4625"
         offset="1"
         style="stop-color:#ffe200;stop-opacity:1" />
    </linearGradient>
    <linearGradient
       inkscape:collect="always"
       xlink:href="#linearGradient4582"
       id="linearGradient2237"
       gradientUnits="userSpaceOnUse"
       gradientTransform="matrix(3.7795275,0,0,3.7795275,-34.928569,-793.58391)"
       x1="8.4477682"
       y1="295.60147"
       x2="8.4477682"
       y2="288.98691" />
    <linearGradient
       id="linearGradient4582"
       inkscape:collect="always">
      <stop
         id="stop4578"
         offset="0"
         style="stop-color:#cee3e3;stop-opacity:1" />
      <stop
         id="stop4580"
         offset="1"
         style="stop-color:#fcfcfc;stop-opacity:1" />
    </linearGradient>
    <linearGradient
       inkscape:collect="always"
       xlink:href="#linearGradient4766-0"
       id="linearGradient1044"
       x1="-18"
       y1="316.14999"
       x2="-18"
       y2="300.14999"
       gradientUnits="userSpaceOnUse"
       gradientTransform="translate(15,2.5)" />
    <linearGradient
       inkscape:collect="always"
       id="linearGradient4766-0">
      <stop
         style="stop-color:#222731;stop-opacity:1"
         offset="0"
         id="stop4762" />
      <stop
         id="stop4828"
         offset="0.4999994"
         style="stop-color:#15181e;stop-opacity:1;" />
      <stop
         style="stop-color:#090a0c;stop-opacity:1"
         offset="1"
         id="stop4764" />
    </linearGradient>
  </defs>
  <sodipodi:namedview
     id="base"
     pagecolor="#ffffff"
     bordercolor="#666666"
     borderopacity="1.0"
     inkscape:pageopacity="0.0"
     inkscape:pageshadow="2"
     inkscape:zoom="11.2"
     inkscape:cx="9.3390829"
     inkscape:cy="9.7934737"
     inkscape:document-units="px"
     inkscape:current-layer="layer1"
     showgrid="true"
     units="px"
     inkscape:window-width="1366"
     inkscape:window-height="697"
     inkscape:window-x="0"
     inkscape:window-y="0"
     inkscape:window-maximized="1"
     objecttolerance="10"
     gridtolerance="10"
     guidetolerance="10">
    <inkscape:grid
       type="xygrid"
       id="grid7897"
       empspacing="4" />
  </sodipodi:namedview>
  <metadata
     id="metadata5">
    <rdf:RDF>
      <cc:Work
         rdf:about="">
        <dc:format>image/svg+xml</dc:format>
        <dc:type
           rdf:resource="http://purl.org/dc/dcmitype/StillImage" />
        <dc:title>Antu icon Theme</dc:title>
      </cc:Work>
    </rdf:RDF>
  </metadata>
  <g
     inkscape:label="Capa 1"
     inkscape:groupmode="layer"
     id="layer1"
     transform="translate(0,-282.64999)">
    <g
       id="g2206"
       transform="translate(19,-11)">
      <path
         inkscape:connector-curvature="0"
         style="opacity:1;fill:#90a4ae;fill-opacity:1;stroke:none;stroke-width:2.39314151;stroke-linecap:round;stroke-linejoin:round;stroke-miterlimit:4;stroke-dasharray:none;stroke-opacity:1"
         d="M -16,294.64999 H 9.999999 C 11.108,294.64999 12,295.542 12,296.65 v 25.99998 c 0,1.108 -0.892,2.00001 -2.000001,2.00001 H -16 c -1.108,0 -2,-0.89201 -2,-2.00001 V 296.65 c 0,-1.108 0.892,-2.00001 2,-2.00001 z"
         id="rect843" />
      <path
         inkscape:connector-curvature="0"
         style="opacity:1;fill:url(#linearGradient2237);fill-opacity:1;stroke:none;stroke-width:2.23359871;stroke-linecap:round;stroke-linejoin:round;stroke-miterlimit:4;stroke-dasharray:none;stroke-opacity:1"
         d="M -16,295.65002 H 9.999999 C 10.554,295.65002 11,296.096 11,296.65 v 26.00001 C 11,323.20398 10.554,323.65 9.999999,323.65 H -16 c -0.554,0 -1,-0.44602 -1,-0.99999 V 296.65 c 0,-0.554 0.446,-0.99998 1,-0.99998 z"
         id="rect843-3" />
      <path
         id="rect6007-7-5"
         d="m -12,300.64999 c -0.554,0 -1,0.446 -1,1 v 2 c -0.554,0 -1,0.446 -1,1 v 1 c 0,0.554 0.446,1 1,1 v 3 c -0.554,0 -1,0.446 -1,1 v 1 c 0,0.554 0.446,1 1,1 v 4 c 0,0.554 0.446,1 1,1 h 4 v 1 c 0,0.554 0.446002,1 1,1 h 2 c 0,0.554 0.446,1 1,1 h 2 c 0.554,0 1,-0.446 1,-1 h 2 c 0.553998,0 1,-0.446 1,-1 v -1 h 4 c 0.554,0 1,-0.446 1,-1 v -4 c 0.554,0 1,-0.446 1,-1 v -1 c 0,-0.554 -0.446,-1 -1,-1 v -3 c 0.554,0 1,-0.446 1,-1 v -1 c 0,-0.554 -0.446,-1 -1,-1 v -2 c 0,-0.554 -0.446,-1 -1,-1 z"
         style="opacity:1;fill:url(#linearGradient1044);fill-opacity:1;stroke:none;stroke-width:0.99999994;stroke-linecap:round;stroke-linejoin:bevel;stroke-miterlimit:4;stroke-dasharray:none;stroke-opacity:1"
         inkscape:connector-curvature="0" />
      <path
         id="rect1352"
         d="m -9,303.64999 c -0.554,0 -1,0.446 -1,1 v 5 c 0,0.554 0.446,1 1,1 0.554,0 1,-0.446 1,-1 v -5 c 0,-0.554 -0.446,-1 -1,-1 z m 4,0 c -0.554,0 -1,0.446 -1,1 v 5 c 0,0.554 0.446,1 1,1 0.554,0 1,-0.446 1,-1 v -5 c 0,-0.554 -0.446,-1 -1,-1 z m 4,0 c -0.554,0 -1,0.446 -1,1 v 5 c 0,0.554 0.446,1 1,1 0.554,0 1,-0.446 1,-1 v -5 c 0,-0.554 -0.446,-1 -1,-1 z m 4,0 c -0.554,0 -1,0.446 -1,1 v 5 c 0,0.554 0.446,1 1,1 0.554,0 1,-0.446 1,-1 v -5 c 0,-0.554 -0.446,-1 -1,-1 z"
         style="opacity:1;fill:url(#linearGradient1532);fill-opacity:1;stroke:none;stroke-width:2;stroke-linecap:round;stroke-linejoin:round;stroke-miterlimit:4;stroke-dasharray:none;stroke-opacity:1"
         inkscape:connector-curvature="0" />
    </g>
  </g>
</svg>
