<?xml version="1.0" encoding="UTF-8" standalone="no"?>
<!-- Created with Inkscape (http://www.inkscape.org/) -->

<svg
   xmlns:dc="http://purl.org/dc/elements/1.1/"
   xmlns:cc="http://creativecommons.org/ns#"
   xmlns:rdf="http://www.w3.org/1999/02/22-rdf-syntax-ns#"
   xmlns:svg="http://www.w3.org/2000/svg"
   xmlns="http://www.w3.org/2000/svg"
   xmlns:sodipodi="http://sodipodi.sourceforge.net/DTD/sodipodi-0.dtd"
   xmlns:inkscape="http://www.inkscape.org/namespaces/inkscape"
   width="32"
   height="32"
   viewBox="0 0 32 32"
   version="1.1"
   id="svg8"
   inkscape:version="0.92.3 (2405546, 2018-03-11)"
   sodipodi:docname="kmix.svg">
  <title
     id="title7895">Antu icon Theme</title>
  <defs
     id="defs2">
    <style
       type="text/css"
       id="current-color-scheme">
      .ColorScheme-Text {
        color:#122036;
      }
      </style>
    <style
       id="current-color-scheme-5"
       type="text/css">
      .ColorScheme-Text {
        color:#122036;
      }
      </style>
    <style
       id="current-color-scheme-2"
       type="text/css">
      .ColorScheme-Text {
        color:#122036;
      }
      </style>
    <style
       id="current-color-scheme-1"
       type="text/css">
      .ColorScheme-Text {
        color:#122036;
      }
      </style>
    <style
       type="text/css"
       id="current-color-scheme-10">
      .ColorScheme-Text {
        color:#122036;
      }
      </style>
    <style
       id="current-color-scheme-0"
       type="text/css">
      .ColorScheme-Text {
        color:#122036;
      }
      </style>
    <style
       id="current-color-scheme-26"
       type="text/css">
      .ColorScheme-Text {
        color:#122036;
      }
      </style>
  </defs>
  <sodipodi:namedview
     id="base"
     pagecolor="#ffffff"
     bordercolor="#666666"
     borderopacity="1.0"
     inkscape:pageopacity="0.0"
     inkscape:pageshadow="2"
     inkscape:zoom="11.2"
     inkscape:cx="2.3351015"
     inkscape:cy="26.104308"
     inkscape:document-units="px"
     inkscape:current-layer="layer1"
     showgrid="true"
     units="px"
     inkscape:window-width="1874"
     inkscape:window-height="1141"
     inkscape:window-x="46"
     inkscape:window-y="30"
     inkscape:window-maximized="1"
     objecttolerance="10"
     gridtolerance="10"
     guidetolerance="10">
    <inkscape:grid
       type="xygrid"
       id="grid7897"
       empspacing="4" />
  </sodipodi:namedview>
  <metadata
     id="metadata5">
    <rdf:RDF>
      <cc:Work
         rdf:about="">
        <dc:format>image/svg+xml</dc:format>
        <dc:type
           rdf:resource="http://purl.org/dc/dcmitype/StillImage" />
        <dc:title>Antu icon Theme</dc:title>
      </cc:Work>
    </rdf:RDF>
  </metadata>
  <g
     inkscape:label="Capa 1"
     inkscape:groupmode="layer"
     id="layer1"
     transform="translate(0,-282.64999)">
    <g
       id="g2912"
       transform="translate(25,-9)">
      <path
         id="rect4496-6-7"
         d="m -9,292.64999 c -3.112159,0 -5.997254,0.93854 -8.388672,2.54883 -0.511124,-0.92057 -1.479668,-1.54883 -2.611328,-1.54883 -1.662,0 -3,1.338 -3,3 0,1.13166 0.628264,2.1002 1.548828,2.61133 C -23.061486,301.65272 -24,304.5378 -24,307.64999 c 0,3.11214 0.938514,5.99725 2.548828,8.38867 C -22.371736,316.54978 -23,317.51833 -23,318.64999 c 0,1.662 1.338,3 3,3 1.13166,0 2.100204,-0.62826 2.611328,-1.54883 2.391418,1.61032 5.276513,2.54883 8.388672,2.54883 3.11216,0 5.997254,-0.93851 8.388672,-2.54883 0.511123,0.92057 1.479668,1.54883 2.611328,1.54883 1.661999,0 3,-1.338 3,-3 0,-1.13166 -0.628264,-2.10021 -1.548828,-2.61133 C 5.061486,313.64724 6,310.76213 6,307.64999 6,304.5378 5.061486,301.65272 3.451172,299.26132 4.371736,298.75019 5,297.78165 5,296.64999 c 0,-1.662 -1.338,-3 -3,-3 -1.13166,0 -2.100205,0.62826 -2.611328,1.54883 C -3.002746,293.58853 -5.88784,292.64999 -9,292.64999 Z"
         style="fill:#36404d;fill-opacity:1;stroke:none;stroke-width:1.46965909;stroke-linecap:round;stroke-linejoin:round;stroke-miterlimit:4;stroke-dasharray:none;stroke-opacity:1"
         inkscape:connector-curvature="0" />
      <path
         id="rect4496-6-6"
         d="m -9.000001,293.64999 c -3.448715,0 -6.594481,1.23994 -9.029297,3.29297 0.01413,-0.0963 0.0293,-0.19262 0.0293,-0.29297 0,-1.108 -0.892,-2 -2,-2 -1.108,0 -2,0.892 -2,2 0,1.108 0.892,2 2,2 0.100348,0 0.196667,-0.0152 0.292969,-0.0293 -2.053053,2.4348 -3.292969,5.58055 -3.292969,9.0293 0,3.44869 1.239916,6.59448 3.292969,9.0293 -0.0963,-0.0141 -0.192621,-0.0293 -0.292969,-0.0293 -1.108,0 -2,0.892 -2,2 0,1.108 0.892,2 2,2 1.108,0 2,-0.892 2,-2 0,-0.10035 -0.01517,-0.19667 -0.0293,-0.29297 2.434815,2.05306 5.580582,3.29297 9.029297,3.29297 3.448714,0 6.59448,-1.23991 9.029296,-3.29297 -0.01413,0.0963 -0.0293,0.19262 -0.0293,0.29297 0,1.108 0.892,2 2,2 1.108,0 2,-0.892 2,-2 0,-1.108 -0.892,-2 -2,-2 -0.100348,0 -0.196667,0.0152 -0.292969,0.0293 2.053055,-2.43482 3.292972,-5.58061 3.292972,-9.0293 0,-3.44875 -1.239917,-6.5945 -3.292969,-9.0293 0.0963,0.0141 0.192621,0.0293 0.292969,0.0293 1.108,0 2,-0.892 2,-2 0,-1.108 -0.892,-2 -2,-2 -1.108,0 -2,0.892 -2,2 0,0.10035 0.01517,0.19667 0.0293,0.29297 -2.434819,-2.05303 -5.580585,-3.29297 -9.029299,-3.29297 z"
         style="fill:#4b6477;fill-opacity:1;stroke:none;stroke-width:1.37168181;stroke-linecap:round;stroke-linejoin:round;stroke-miterlimit:4;stroke-dasharray:none;stroke-opacity:1"
         inkscape:connector-curvature="0" />
      <path
         inkscape:connector-curvature="0"
         style="opacity:1;fill:#e6f5fe;fill-opacity:1;stroke:none;stroke-width:0.40400001;stroke-linecap:round;stroke-linejoin:round;stroke-miterlimit:4;stroke-dasharray:none;stroke-opacity:1;paint-order:stroke markers fill"
         d="m 2,295.64999 h 2e-6 c 0.553999,0 0.999999,0.446 0.999999,1 0,0.554 -0.446,1 -0.999999,1 H 2 c -0.554,0 -0.999999,-0.446 -0.999999,-1 0,-0.554 0.445999,-1 0.999999,-1 z"
         id="rect1228" />
      <path
         inkscape:connector-curvature="0"
         style="opacity:1;fill:#e6f5fe;fill-opacity:1;stroke:none;stroke-width:0.40400001;stroke-linecap:round;stroke-linejoin:round;stroke-miterlimit:4;stroke-dasharray:none;stroke-opacity:1;paint-order:stroke markers fill"
         d="m -20,295.64999 h 2e-6 c 0.554,0 0.999999,0.446 0.999999,1 0,0.554 -0.445999,1 -0.999999,1 H -20 c -0.553999,0 -0.999999,-0.446 -0.999999,-1 0,-0.554 0.446,-1 0.999999,-1 z"
         id="rect1228-5" />
      <path
         inkscape:connector-curvature="0"
         style="opacity:1;fill:#e6f5fe;fill-opacity:1;stroke:none;stroke-width:0.40400001;stroke-linecap:round;stroke-linejoin:round;stroke-miterlimit:4;stroke-dasharray:none;stroke-opacity:1;paint-order:stroke markers fill"
         d="m -20,317.64999 h 2e-6 c 0.554,0 0.999999,0.446 0.999999,1 0,0.554 -0.445999,1 -0.999999,1 H -20 c -0.553999,0 -0.999999,-0.446 -0.999999,-1 0,-0.554 0.446,-1 0.999999,-1 z"
         id="rect1228-0" />
      <path
         inkscape:connector-curvature="0"
         style="opacity:1;fill:#e6f5fe;fill-opacity:1;stroke:none;stroke-width:0.40400001;stroke-linecap:round;stroke-linejoin:round;stroke-miterlimit:4;stroke-dasharray:none;stroke-opacity:1;paint-order:stroke markers fill"
         d="m 2,317.64999 h 2e-6 c 0.553999,0 0.999999,0.446 0.999999,1 0,0.554 -0.446,1 -0.999999,1 H 2 c -0.554,0 -0.999999,-0.446 -0.999999,-1 0,-0.554 0.445999,-1 0.999999,-1 z"
         id="rect1228-6" />
      <path
         id="rect4570-9-6-0-7"
         d="M -8.999999,295.64996 C -2.352,295.64996 3,301.00191 3,307.64993 3,314.29798 -2.352,319.65001 -8.999999,319.65001 -15.648,319.65001 -21,314.29798 -21,307.64993 c 0,-6.64802 5.352,-11.99997 12.000001,-11.99997 z"
         style="fill:#36404d;fill-opacity:1;stroke:none;stroke-width:1.20188987;stroke-linecap:round;stroke-linejoin:round;stroke-miterlimit:4;stroke-dasharray:none;stroke-opacity:1"
         inkscape:connector-curvature="0" />
      <path
         inkscape:connector-curvature="0"
         style="fill:#ffd84d;fill-opacity:1;stroke:none;stroke-width:1.10173237;stroke-linecap:round;stroke-linejoin:round;stroke-miterlimit:4;stroke-dasharray:none;stroke-opacity:1"
         d="M -8.999999,296.64996 C -2.906,296.64996 2,301.55592 2,307.64994 2,313.74398 -2.906,318.65001 -8.999999,318.65001 -15.094,318.65001 -20,313.74398 -20,307.64994 c 0,-6.09402 4.906,-10.99998 11.000001,-10.99998 z"
         id="rect4570-9-6-0" />
      <path
         inkscape:connector-curvature="0"
         style="opacity:1;fill:#36404d;fill-opacity:1;stroke:none;stroke-width:0.80800003;stroke-linecap:round;stroke-linejoin:round;stroke-miterlimit:4;stroke-dasharray:none;stroke-opacity:1;paint-order:stroke markers fill"
         d="m -9,303.64999 c 2.216,0 4,1.784 4,4 0,2.216 -1.784,4 -4,4 -2.216,0 -4,-1.784 -4,-4 0,-2.216 1.784,-4 4,-4 z"
         id="rect949" />
      <path
         inkscape:connector-curvature="0"
         style="opacity:0.8;fill:#4b6477;fill-opacity:1;stroke:none;stroke-width:0.60600001;stroke-linecap:round;stroke-linejoin:round;stroke-miterlimit:4;stroke-dasharray:none;stroke-opacity:1;paint-order:stroke markers fill"
         d="m -9,304.64999 c 1.662,0 3,1.338 3,3 0,1.662 -1.338,3 -3,3 -1.662,0 -3,-1.338 -3,-3 0,-1.662 1.338,-3 3,-3 z"
         id="rect949-2" />
    </g>
  </g>
</svg>
