<svg
    height="16"
    viewBox="0 0 16 16"
    width="16"
    xmlns="http://www.w3.org/2000/svg">
    <defs id="defs2">
    <style
       type="text/css"
       id="current-color-scheme">
      .ColorScheme-Text {
        color:#36404d;
      }
      </style>
    </defs>
    <path 
        d="m4.0022042 294.76665c-1.108 0-2 .892-2 2s .892 2 2 2 1.9999998-.892 1.9999998-2-.8919998-2-1.9999998-2zm5.9824218 4c-.328101.006-.632467.17224-.814453.44531l-2.275391 3.41211-1.0917968-1.45703c-.183112-.24461-.467997-.39209-.773437-.40039-.324682-.009-.633479.14037-.828125.40039l-3 4c-.49391303.65949-.02316 1.59985.800781 1.59961h3.9999998 2 5.999999c.798589-.00017 1.274876-.89014.832031-1.55469l-4-6c-.188895-.28343-.509053-.45124-.849608-.44531z" 
        fill="currentColor" 
        transform="translate(0 -292.76665)"
        style="fill:currentColor;fill-opacity:1;stroke:none"
        class="ColorScheme-Text"/>
</svg>
