<svg 
    height="16"
    viewBox="0 0 16 16" 
    width="16" 
    xmlns="http://www.w3.org/2000/svg">
    <defs id="defs2">
    <style
       type="text/css"
       id="current-color-scheme">
      .ColorScheme-Text {
        color:#36404d;
      }
      </style>
    </defs>
    <path
        d="m-38.017578-28c-.328101.0058-.632468.172245-.814453.445312l-2 3c-.442842.664554.033444 1.554517.832031 1.554688h1v2c0 .554.446 1 1 1s1-.446 1-1v-2h1c .798587-.000171 1.274873-.890134.832031-1.554688l-2-3c-.188895-.283429-.509053-.451237-.849609-.445312zm-3.982422 6c-.554 0-1 .446-1 1v4c0 .554.446 1 1 1h8c .554 0 1-.446 1-1v-4c0-.554-.446508-1.023721-1-1h-2v2h1v2h-6v-2h1v-2z"
        fill="currentColor" 
        transform="matrix(1.000000009572 0 0 1.000000009572 46.00000036373 30.000079907234)"
        style="fill:currentColor;fill-opacity:1;stroke:none"
        class="ColorScheme-Text"/>
</svg>
