<svg 
    height="16"
    viewBox="0 0 16 16" 
    width="16"
    xmlns="http://www.w3.org/2000/svg">
    <defs id="defs2">
    <style
       type="text/css"
       id="current-color-scheme">
      .ColorScheme-Text {
        color:#36404d;
      }
      </style>
    </defs>
    <path 
        d="m4 2c-.554 0-1 .446-1 1v10c0 .554.446 1 1 1h1 1v-1h1v-1h1v-1h1v-1h1v-1h1v-1h1v-1h1v-1-1l-3-3zm8 6v1h1v-1zm0 1h-1v1h1zm0 1v1h1v-1zm0 1h-1v1h1zm0 1v1h1v-1zm0 1h-1v1h1zm-1 0v-1h-1v1zm-1 0h-1v1h1zm-1 0v-1h-1v1zm-1 0h-1v1h1zm1-1h1v-1h-1zm1-1h1v-1h-1z" 
        fill="currentColor"
        transform=""
        style="fill:currentColor;fill-opacity:1;stroke:none"
        class="ColorScheme-Text"/>
</svg>
