<svg
    height="16"
    viewBox="0 0 16 16"
    width="16" 
    xmlns="http://www.w3.org/2000/svg">
    <defs id="defs2">
    <style
       type="text/css"
       id="current-color-scheme">
      .ColorScheme-Text {
        color:#36404d;
      }
      </style>
    </defs>
    <path 
        d="m8 1c-3.878 0-7 3.12202-7 7 0 3.87802 3.122 7 7 7s7-3.12198 7-7c0-3.87798-3.122-7-7-7zm0 3c.554 0 1 .446 1 1v3h2c.554 0 1 .446 1 1s-.446 1-1 1h-3c-.554 0-1-.446-1-1v-4c0-.554.446-1 1-1z" fill="currentColor" 
        fill-opacity=".992157"
        style="fill:currentColor;fill-opacity:1;stroke:none"
        class="ColorScheme-Text"/>
</svg>
