<svg 
    height="16"
    viewBox="0 0 4.2333332 4.2333335" 
    width="16"
    xmlns="http://www.w3.org/2000/svg">
    <defs id="defs2">
    <style
       type="text/css"
       id="current-color-scheme">
      .ColorScheme-Text {
        color:#36404d;
      }
      </style>
    </defs>
    <path 
        d="m2 2c-.5540001 0-1 .4459969-1 1v4 7c0 .554003.4459999 1 1 1h12c.554 0 1-.445997 1-1v-9c0-.5540031-.446-1-1-1h-5c-1.9999997 0-1.0000001-2-4-2zm7 4v2h2v-2h2v7h-10v-5h3c2 0 1.0000101-1.9937638 3-2zm0 2h-2v2h2zm0 2v2h2v-2z"
        fill="currentColor"
        transform="scale(.26458333)"
        style="fill:currentColor;fill-opacity:1;stroke:none"
        class="ColorScheme-Text"/>
</svg>
