<svg 
    height="16" 
    viewBox="0 0 16 16"
    width="16"
    xmlns="http://www.w3.org/2000/svg">
    <defs id="defs2">
    <style
       type="text/css"
       id="current-color-scheme">
      .ColorScheme-Text {
        color:#36404d;
      }
      </style>
    </defs>
    <path 
        d="m8.0000002 2c-2.216 0-4 1.784-4 4v1c-.554 0-1 .4460005-1 1.0000005v5.9999995c0 .554.446 1 1 1h5.9999996v-1h1.0000002v-1h-1.0000002v-1h1.0000002v-1h1v-.999999h1v-2.0000005c0-.554-.446-1.0000005-1-1.0000005v-1c0-2.216-1.784-4-3.9999998-4zm3.9999998 9v1h1v-1zm0 1h-1v1h1zm0 1v1h1v-1zm0 1h-1v1h1zm-3.9999998-10c1.108 0 1.9999996.892 1.9999996 2v1h-3.9999996v-1c0-1.108.892-2 2-2zm0 4.0000005c1.108 0 1.9999996.892 1.9999996 2.0000005 0 .741069-.4042006 1.379048-.9999996 1.724608v2.275391h-2v-2.275391c-.595799-.34556-1-.983539-1-1.724608 0-1.1080005.892-2.0000005 2-2.0000005z" fill="currentColor"
        style="fill:currentColor;fill-opacity:1;stroke:none"
        class="ColorScheme-Text"/>
</svg>
