<?xml version="1.0" encoding="UTF-8" standalone="no"?>
<svg
   height="16"
   viewBox="0 0 16 16"
   width="16"
   version="1.1"
   id="svg6"
   sodipodi:docname="folder-kuyen.svg"
   inkscape:version="1.2 (dc2aedaf03, 2022-05-15)"
   xml:space="preserve"
   xmlns:inkscape="http://www.inkscape.org/namespaces/inkscape"
   xmlns:sodipodi="http://sodipodi.sourceforge.net/DTD/sodipodi-0.dtd"
   xmlns:xlink="http://www.w3.org/1999/xlink"
   xmlns="http://www.w3.org/2000/svg"
   xmlns:svg="http://www.w3.org/2000/svg"
   xmlns:rdf="http://www.w3.org/1999/02/22-rdf-syntax-ns#"
   xmlns:cc="http://creativecommons.org/ns#"
   xmlns:dc="http://purl.org/dc/elements/1.1/"><metadata
     id="metadata10"><rdf:RDF><cc:Work
         rdf:about=""><dc:format>image/svg+xml</dc:format><dc:type
           rdf:resource="http://purl.org/dc/dcmitype/StillImage" /></cc:Work></rdf:RDF></metadata><sodipodi:namedview
     pagecolor="#ffffff"
     bordercolor="#666666"
     borderopacity="1"
     objecttolerance="10"
     gridtolerance="10"
     guidetolerance="10"
     inkscape:pageopacity="0"
     inkscape:pageshadow="2"
     inkscape:window-width="2160"
     inkscape:window-height="1337"
     id="namedview8"
     showgrid="true"
     inkscape:zoom="32"
     inkscape:cx="13.96875"
     inkscape:cy="6.640625"
     inkscape:window-x="0"
     inkscape:window-y="0"
     inkscape:window-maximized="1"
     inkscape:current-layer="path6832-5-7-1-2-0-2-5-7-8"
     inkscape:showpageshadow="2"
     inkscape:pagecheckerboard="0"
     inkscape:deskcolor="#d1d1d1"
     showguides="true"><inkscape:grid
       type="xygrid"
       id="grid817" /><sodipodi:guide
       position="15,2"
       orientation="1,0"
       id="guide64440"
       inkscape:locked="false" /></sodipodi:namedview><defs
     id="defs2"><linearGradient
       inkscape:collect="always"
       id="linearGradient5330"><stop
         style="stop-color:#052f47;stop-opacity:1;"
         offset="0"
         id="stop5326" /><stop
         style="stop-color:#094a70;stop-opacity:1;"
         offset="1"
         id="stop5328" /></linearGradient><linearGradient
       inkscape:collect="always"
       id="linearGradient1435"><stop
         style="stop-color:#a7d9e6;stop-opacity:1;"
         offset="0"
         id="stop1431" /><stop
         style="stop-color:#f3f8fb;stop-opacity:1;"
         offset="1"
         id="stop1433" /></linearGradient><style
       type="text/css"
       id="current-color-scheme">
      .ColorScheme-Text {
        color:#122036;
      }
      </style><style
       id="current-color-scheme-675"
       type="text/css">
      .ColorScheme-Text {
        color:#122036;
      }
      </style><style
       id="current-color-scheme-1"
       type="text/css">
      .ColorScheme-Text {
        color:#122036;
      }
      </style><style
       type="text/css"
       id="current-color-scheme-10">
      .ColorScheme-Text {
        color:#122036;
      }
      </style><style
       type="text/css"
       id="current-color-scheme-5">
      .ColorScheme-Text {
        color:#122036;
      }
      </style><style
       type="text/css"
       id="current-color-scheme-1-2">
      .ColorScheme-Text {
        color:#122036;
      }
      </style><style
       id="current-color-scheme-10-9"
       type="text/css">
      .ColorScheme-Text {
        color:#122036;
      }
      </style><style
       id="current-color-scheme-9"
       type="text/css">
      .ColorScheme-Text {
        color:#122036;
      }
      </style><style
       id="current-color-scheme-2"
       type="text/css">
      .ColorScheme-Text {
        color:#122036;
      }
      </style><style
       id="current-color-scheme-4"
       type="text/css">
      .ColorScheme-Text {
        color:#122036;
      }
      </style><style
       id="current-color-scheme-7"
       type="text/css">
      .ColorScheme-Text {
        color:#122036;
      }
      </style><style
       id="current-color-scheme-5-0"
       type="text/css">
      .ColorScheme-Text {
        color:#122036;
      }
      </style><style
       type="text/css"
       id="current-color-scheme-9-6">
      .ColorScheme-Text {
        color:#122036;
      }
      </style><style
       type="text/css"
       id="current-color-scheme-1-29">
      .ColorScheme-Text {
        color:#122036;
      }
      </style><style
       id="current-color-scheme-10-90"
       type="text/css">
      .ColorScheme-Text {
        color:#122036;
      }
      </style><style
       type="text/css"
       id="current-color-scheme-6">
      .ColorScheme-Text {
        color:#122036;
      }
      </style><style
       type="text/css"
       id="current-color-scheme-7-1">
      .ColorScheme-Text {
        color:#122036;
      }
      </style><style
       type="text/css"
       id="current-color-scheme-5-2">
      .ColorScheme-Text {
        color:#122036;
      }
      </style><style
       id="current-color-scheme-67"
       type="text/css">
      .ColorScheme-Text {
        color:#122036;
      }
      </style><style
       type="text/css"
       id="current-color-scheme-3">
      .ColorScheme-Text {
        color:#122036;
      }
      </style><style
       type="text/css"
       id="current-color-scheme-7-5">
      .ColorScheme-Text {
        color:#122036;
      }
      </style><style
       type="text/css"
       id="current-color-scheme-5-6">
      .ColorScheme-Text {
        color:#122036;
      }
      </style><style
       id="current-color-scheme-9-9"
       type="text/css">
      .ColorScheme-Text {
        color:#122036;
      }
      </style><style
       id="current-color-scheme-1-8"
       type="text/css">
      .ColorScheme-Text {
        color:#122036;
      }
      </style><style
       type="text/css"
       id="current-color-scheme-10-7">
      .ColorScheme-Text {
        color:#122036;
      }
      </style><style
       id="current-color-scheme-6-2"
       type="text/css">
      .ColorScheme-Text {
        color:#122036;
      }
      </style><style
       id="current-color-scheme-7-1-8"
       type="text/css">
      .ColorScheme-Text {
        color:#122036;
      }
      </style><style
       id="current-color-scheme-5-2-2"
       type="text/css">
      .ColorScheme-Text {
        color:#122036;
      }
      </style><style
       id="current-color-scheme-13"
       type="text/css">
      .ColorScheme-Text {
        color:#122036;
      }
      </style><style
       id="current-color-scheme-7-2"
       type="text/css">
      .ColorScheme-Text {
        color:#122036;
      }
      </style><style
       id="current-color-scheme-5-1"
       type="text/css">
      .ColorScheme-Text {
        color:#122036;
      }
      </style><style
       type="text/css"
       id="current-color-scheme-9-5">
      .ColorScheme-Text {
        color:#122036;
      }
      </style><style
       type="text/css"
       id="current-color-scheme-1-9">
      .ColorScheme-Text {
        color:#122036;
      }
      </style><style
       id="current-color-scheme-10-91"
       type="text/css">
      .ColorScheme-Text {
        color:#122036;
      }
      </style><style
       type="text/css"
       id="current-color-scheme-6-4">
      .ColorScheme-Text {
        color:#122036;
      }
      </style><style
       type="text/css"
       id="current-color-scheme-7-1-9">
      .ColorScheme-Text {
        color:#122036;
      }
      </style><style
       type="text/css"
       id="current-color-scheme-5-2-1">
      .ColorScheme-Text {
        color:#122036;
      }
      </style><style
       id="current-color-scheme-42"
       type="text/css">
      .ColorScheme-Text {
        color:#122036;
      }
      </style><style
       type="text/css"
       id="current-color-scheme-3-9">
      .ColorScheme-Text {
        color:#122036;
      }
      </style><style
       type="text/css"
       id="current-color-scheme-7-6">
      .ColorScheme-Text {
        color:#122036;
      }
      </style><style
       type="text/css"
       id="current-color-scheme-5-10">
      .ColorScheme-Text {
        color:#122036;
      }
      </style><style
       id="current-color-scheme-9-4"
       type="text/css">
      .ColorScheme-Text {
        color:#122036;
      }
      </style><style
       id="current-color-scheme-1-22"
       type="text/css">
      .ColorScheme-Text {
        color:#122036;
      }
      </style><style
       type="text/css"
       id="current-color-scheme-10-2">
      .ColorScheme-Text {
        color:#122036;
      }
      </style><style
       id="current-color-scheme-6-0"
       type="text/css">
      .ColorScheme-Text {
        color:#122036;
      }
      </style><style
       id="current-color-scheme-7-1-5"
       type="text/css">
      .ColorScheme-Text {
        color:#122036;
      }
      </style><style
       id="current-color-scheme-5-2-5"
       type="text/css">
      .ColorScheme-Text {
        color:#122036;
      }
      </style><style
       id="current-color-scheme-0"
       type="text/css">
      .ColorScheme-Text {
        color:#122036;
      }
      </style><style
       type="text/css"
       id="current-color-scheme-3-4">
      .ColorScheme-Text {
        color:#122036;
      }
      </style><style
       type="text/css"
       id="current-color-scheme-7-0">
      .ColorScheme-Text {
        color:#122036;
      }
      </style><style
       type="text/css"
       id="current-color-scheme-5-9">
      .ColorScheme-Text {
        color:#122036;
      }
      </style><style
       id="current-color-scheme-9-1"
       type="text/css">
      .ColorScheme-Text {
        color:#122036;
      }
      </style><style
       id="current-color-scheme-1-96"
       type="text/css">
      .ColorScheme-Text {
        color:#122036;
      }
      </style><style
       type="text/css"
       id="current-color-scheme-10-25">
      .ColorScheme-Text {
        color:#122036;
      }
      </style><style
       id="current-color-scheme-6-44"
       type="text/css">
      .ColorScheme-Text {
        color:#122036;
      }
      </style><style
       id="current-color-scheme-7-1-99"
       type="text/css">
      .ColorScheme-Text {
        color:#122036;
      }
      </style><style
       id="current-color-scheme-5-2-3"
       type="text/css">
      .ColorScheme-Text {
        color:#122036;
      }
      </style><linearGradient
       inkscape:collect="always"
       xlink:href="#linearGradient1435"
       id="linearGradient1437"
       x1="6.7328124"
       y1="294.6257"
       x2="6.4682293"
       y2="291.97989"
       gradientUnits="userSpaceOnUse" /><linearGradient
       inkscape:collect="always"
       xlink:href="#linearGradient5330"
       id="linearGradient5332"
       x1="7.2619791"
       y1="294.89029"
       x2="7.2619791"
       y2="291.45071"
       gradientUnits="userSpaceOnUse" /></defs><g
     id="path6832-5-7-1-2-0-2-5-7-8"
     transform="matrix(3.7795275,0,0,3.7795275,-18.44685,-1100.546)"><g
       id="path67450-9"
       transform="matrix(1,0,0,-1,7.8127623e-4,586.60475)" /><path
       id="path1704"
       style="fill:#052f47;stroke:url(#linearGradient5332);stroke-width:0.529167;stroke-linecap:round;stroke-linejoin:round;stroke-miterlimit:1.8;paint-order:fill markers stroke;stop-color:#000000;stroke-opacity:1;fill-opacity:1"
       d="M 6.8206624 291.72615 A 1.5875001 1.5875001 0 0 0 5.4098958 293.3028 A 1.5875001 1.5875001 0 0 0 6.9973958 294.8903 A 1.5875001 1.5875001 0 0 0 8.4970459 293.82112 A 1.5875001 1.5875001 0 0 1 8.4391683 293.82732 A 1.5875001 1.5875001 0 0 1 8.3203125 293.83197 A 1.5875001 1.5875001 0 0 1 8.2014567 293.82732 A 1.5875001 1.5875001 0 0 1 8.0836345 293.8144 A 1.5875001 1.5875001 0 0 1 7.9668457 293.79218 A 1.5875001 1.5875001 0 0 1 7.8526408 293.76169 A 1.5875001 1.5875001 0 0 1 7.7405029 293.72241 A 1.5875001 1.5875001 0 0 1 7.6314657 293.67487 A 1.5875001 1.5875001 0 0 1 7.5265625 293.61906 A 1.5875001 1.5875001 0 0 1 7.4257935 293.55601 A 1.5875001 1.5875001 0 0 1 7.3307088 293.48573 A 1.5875001 1.5875001 0 0 1 7.2407918 293.40822 A 1.5875001 1.5875001 0 0 1 7.1565593 293.3245 A 1.5875001 1.5875001 0 0 1 7.0790446 293.23407 A 1.5875001 1.5875001 0 0 1 7.0087647 293.13899 A 1.5875001 1.5875001 0 0 1 6.9457194 293.03822 A 1.5875001 1.5875001 0 0 1 6.8899089 292.93331 A 1.5875001 1.5875001 0 0 1 6.8423665 292.82428 A 1.5875001 1.5875001 0 0 1 6.8030925 292.71266 A 1.5875001 1.5875001 0 0 1 6.7726034 292.59793 A 1.5875001 1.5875001 0 0 1 6.7503825 292.48115 A 1.5875001 1.5875001 0 0 1 6.7374634 292.36332 A 1.5875001 1.5875001 0 0 1 6.7328125 292.24447 A 1.5875001 1.5875001 0 0 1 6.7374634 292.12561 A 1.5875001 1.5875001 0 0 1 6.7503825 292.00779 A 1.5875001 1.5875001 0 0 1 6.7726034 291.891 A 1.5875001 1.5875001 0 0 1 6.8030925 291.7768 A 1.5875001 1.5875001 0 0 1 6.8206624 291.72615 z " /><path
       id="path1704-5"
       style="fill:url(#linearGradient1437);fill-opacity:1;stroke:none;stroke-width:0.529167;stroke-linecap:round;stroke-linejoin:round;stroke-miterlimit:1.8;stroke-opacity:1;paint-order:fill markers stroke;stop-color:#000000"
       d="m 6.8206624,291.72615 a 1.5875001,1.5875001 0 0 0 -1.4107666,1.57665 1.5875001,1.5875001 0 0 0 1.5875,1.5875 1.5875001,1.5875001 0 0 0 1.4996498,-1.06918 1.5875001,1.5875001 0 0 1 -0.05788,0.006 1.5875001,1.5875001 0 0 1 -0.118856,0.005 1.5875001,1.5875001 0 0 1 -0.118855,-0.005 1.5875001,1.5875001 0 0 1 -0.1178225,-0.0129 1.5875001,1.5875001 0 0 1 -0.1167888,-0.0222 1.5875001,1.5875001 0 0 1 -0.1142049,-0.0305 1.5875001,1.5875001 0 0 1 -0.1121379,-0.0393 1.5875001,1.5875001 0 0 1 -0.1090372,-0.0475 1.5875001,1.5875001 0 0 1 -0.1049032,-0.0558 1.5875001,1.5875001 0 0 1 -0.100769,-0.063 1.5875001,1.5875001 0 0 1 -0.095085,-0.0703 1.5875001,1.5875001 0 0 1 -0.089917,-0.0775 1.5875001,1.5875001 0 0 1 -0.084233,-0.0837 1.5875001,1.5875001 0 0 1 -0.077515,-0.0904 1.5875001,1.5875001 0 0 1 -0.07028,-0.0951 1.5875001,1.5875001 0 0 1 -0.063045,-0.10077 1.5875001,1.5875001 0 0 1 -0.05581,-0.10491 1.5875001,1.5875001 0 0 1 -0.047542,-0.10903 1.5875001,1.5875001 0 0 1 -0.039274,-0.11162 1.5875001,1.5875001 0 0 1 -0.030489,-0.11473 1.5875001,1.5875001 0 0 1 -0.022221,-0.11678 1.5875001,1.5875001 0 0 1 -0.012919,-0.11783 1.5875001,1.5875001 0 0 1 -0.00465,-0.11885 1.5875001,1.5875001 0 0 1 0.00465,-0.11886 1.5875001,1.5875001 0 0 1 0.012919,-0.11782 1.5875001,1.5875001 0 0 1 0.022221,-0.11679 1.5875001,1.5875001 0 0 1 0.030489,-0.1142 1.5875001,1.5875001 0 0 1 0.01757,-0.0506 z" /></g></svg>
