<svg
    height="16" 
    viewBox="0 0 16 16"
    width="16" 
    xmlns="http://www.w3.org/2000/svg">
    <defs id="defs2">
    <style
       type="text/css"
       id="current-color-scheme">
      .ColorScheme-Text {
        color:#36404d;
      }
      </style>
    </defs>
    <path 
        d="m8 2c-1.860933 0-3.347883 1.28447-3.798828 3h2.210937c.352968-.56361.871088-1 1.587891-1 1.108 0 2 .892 2 2v1h-3-1-2c-.554 0-1 .446-1 1v6c0 .554.446 1 1 1h6v-1h1v-1h-1v-1h1v-1h1v-1h1v-2c0-.554-.446-1-1-1v-1c0-2.216-1.784-4-4-4zm4 9v1h1v-1zm0 1h-1v1h1zm0 1v1h1v-1zm0 1h-1v1h1zm-4-6c1.108 0 2 .892 2 2 0 .74107-.404201 1.379049-1 1.724609v2.275391h-2v-2.275391c-.595799-.34556-1-.983539-1-1.724609 0-1.108.892-2 2-2z"
        fill="currentColor"
        style="fill:currentColor;fill-opacity:1;stroke:none"
        class="ColorScheme-Text"/>
</svg>
