<?xml version="1.0" encoding="UTF-8" standalone="no"?>
<svg
   height="16"
   viewBox="0 0 16 16"
   width="16"
   version="1.1"
   id="svg6"
   sodipodi:docname="folder-antu.svg"
   inkscape:version="1.2 (dc2aedaf03, 2022-05-15)"
   xml:space="preserve"
   xmlns:inkscape="http://www.inkscape.org/namespaces/inkscape"
   xmlns:sodipodi="http://sodipodi.sourceforge.net/DTD/sodipodi-0.dtd"
   xmlns:xlink="http://www.w3.org/1999/xlink"
   xmlns="http://www.w3.org/2000/svg"
   xmlns:svg="http://www.w3.org/2000/svg"
   xmlns:rdf="http://www.w3.org/1999/02/22-rdf-syntax-ns#"
   xmlns:cc="http://creativecommons.org/ns#"
   xmlns:dc="http://purl.org/dc/elements/1.1/"><metadata
     id="metadata10"><rdf:RDF><cc:Work
         rdf:about=""><dc:format>image/svg+xml</dc:format><dc:type
           rdf:resource="http://purl.org/dc/dcmitype/StillImage" /></cc:Work></rdf:RDF></metadata><sodipodi:namedview
     pagecolor="#ffffff"
     bordercolor="#666666"
     borderopacity="1"
     objecttolerance="10"
     gridtolerance="10"
     guidetolerance="10"
     inkscape:pageopacity="0"
     inkscape:pageshadow="2"
     inkscape:window-width="2160"
     inkscape:window-height="1337"
     id="namedview8"
     showgrid="true"
     inkscape:zoom="45.254834"
     inkscape:cx="8.3747959"
     inkscape:cy="7.6566406"
     inkscape:window-x="0"
     inkscape:window-y="0"
     inkscape:window-maximized="1"
     inkscape:current-layer="path6832-5-7-1-2-0-2-5-7-8"
     inkscape:showpageshadow="2"
     inkscape:pagecheckerboard="0"
     inkscape:deskcolor="#d1d1d1"
     showguides="true"><inkscape:grid
       type="xygrid"
       id="grid817" /><sodipodi:guide
       position="15,2"
       orientation="1,0"
       id="guide64440"
       inkscape:locked="false" /></sodipodi:namedview><defs
     id="defs2"><linearGradient
       inkscape:collect="always"
       id="linearGradient1953"><stop
         style="stop-color:#e75146;stop-opacity:1;"
         offset="0"
         id="stop1949" /><stop
         style="stop-color:#f86b5e;stop-opacity:1;"
         offset="1"
         id="stop1951" /></linearGradient><style
       type="text/css"
       id="current-color-scheme">
      .ColorScheme-Text {
        color:#122036;
      }
      </style><style
       id="current-color-scheme-675"
       type="text/css">
      .ColorScheme-Text {
        color:#122036;
      }
      </style><style
       id="current-color-scheme-1"
       type="text/css">
      .ColorScheme-Text {
        color:#122036;
      }
      </style><style
       type="text/css"
       id="current-color-scheme-10">
      .ColorScheme-Text {
        color:#122036;
      }
      </style><style
       type="text/css"
       id="current-color-scheme-5">
      .ColorScheme-Text {
        color:#122036;
      }
      </style><style
       type="text/css"
       id="current-color-scheme-1-2">
      .ColorScheme-Text {
        color:#122036;
      }
      </style><style
       id="current-color-scheme-10-9"
       type="text/css">
      .ColorScheme-Text {
        color:#122036;
      }
      </style><style
       id="current-color-scheme-9"
       type="text/css">
      .ColorScheme-Text {
        color:#122036;
      }
      </style><style
       id="current-color-scheme-2"
       type="text/css">
      .ColorScheme-Text {
        color:#122036;
      }
      </style><style
       id="current-color-scheme-4"
       type="text/css">
      .ColorScheme-Text {
        color:#122036;
      }
      </style><style
       id="current-color-scheme-7"
       type="text/css">
      .ColorScheme-Text {
        color:#122036;
      }
      </style><style
       id="current-color-scheme-5-0"
       type="text/css">
      .ColorScheme-Text {
        color:#122036;
      }
      </style><style
       type="text/css"
       id="current-color-scheme-9-6">
      .ColorScheme-Text {
        color:#122036;
      }
      </style><style
       type="text/css"
       id="current-color-scheme-1-29">
      .ColorScheme-Text {
        color:#122036;
      }
      </style><style
       id="current-color-scheme-10-90"
       type="text/css">
      .ColorScheme-Text {
        color:#122036;
      }
      </style><style
       type="text/css"
       id="current-color-scheme-6">
      .ColorScheme-Text {
        color:#122036;
      }
      </style><style
       type="text/css"
       id="current-color-scheme-7-1">
      .ColorScheme-Text {
        color:#122036;
      }
      </style><style
       type="text/css"
       id="current-color-scheme-5-2">
      .ColorScheme-Text {
        color:#122036;
      }
      </style><style
       id="current-color-scheme-67"
       type="text/css">
      .ColorScheme-Text {
        color:#122036;
      }
      </style><style
       type="text/css"
       id="current-color-scheme-3">
      .ColorScheme-Text {
        color:#122036;
      }
      </style><style
       type="text/css"
       id="current-color-scheme-7-5">
      .ColorScheme-Text {
        color:#122036;
      }
      </style><style
       type="text/css"
       id="current-color-scheme-5-6">
      .ColorScheme-Text {
        color:#122036;
      }
      </style><style
       id="current-color-scheme-9-9"
       type="text/css">
      .ColorScheme-Text {
        color:#122036;
      }
      </style><style
       id="current-color-scheme-1-8"
       type="text/css">
      .ColorScheme-Text {
        color:#122036;
      }
      </style><style
       type="text/css"
       id="current-color-scheme-10-7">
      .ColorScheme-Text {
        color:#122036;
      }
      </style><style
       id="current-color-scheme-6-2"
       type="text/css">
      .ColorScheme-Text {
        color:#122036;
      }
      </style><style
       id="current-color-scheme-7-1-8"
       type="text/css">
      .ColorScheme-Text {
        color:#122036;
      }
      </style><style
       id="current-color-scheme-5-2-2"
       type="text/css">
      .ColorScheme-Text {
        color:#122036;
      }
      </style><style
       id="current-color-scheme-13"
       type="text/css">
      .ColorScheme-Text {
        color:#122036;
      }
      </style><style
       id="current-color-scheme-7-2"
       type="text/css">
      .ColorScheme-Text {
        color:#122036;
      }
      </style><style
       id="current-color-scheme-5-1"
       type="text/css">
      .ColorScheme-Text {
        color:#122036;
      }
      </style><style
       type="text/css"
       id="current-color-scheme-9-5">
      .ColorScheme-Text {
        color:#122036;
      }
      </style><style
       type="text/css"
       id="current-color-scheme-1-9">
      .ColorScheme-Text {
        color:#122036;
      }
      </style><style
       id="current-color-scheme-10-91"
       type="text/css">
      .ColorScheme-Text {
        color:#122036;
      }
      </style><style
       type="text/css"
       id="current-color-scheme-6-4">
      .ColorScheme-Text {
        color:#122036;
      }
      </style><style
       type="text/css"
       id="current-color-scheme-7-1-9">
      .ColorScheme-Text {
        color:#122036;
      }
      </style><style
       type="text/css"
       id="current-color-scheme-5-2-1">
      .ColorScheme-Text {
        color:#122036;
      }
      </style><style
       id="current-color-scheme-42"
       type="text/css">
      .ColorScheme-Text {
        color:#122036;
      }
      </style><style
       type="text/css"
       id="current-color-scheme-3-9">
      .ColorScheme-Text {
        color:#122036;
      }
      </style><style
       type="text/css"
       id="current-color-scheme-7-6">
      .ColorScheme-Text {
        color:#122036;
      }
      </style><style
       type="text/css"
       id="current-color-scheme-5-10">
      .ColorScheme-Text {
        color:#122036;
      }
      </style><style
       id="current-color-scheme-9-4"
       type="text/css">
      .ColorScheme-Text {
        color:#122036;
      }
      </style><style
       id="current-color-scheme-1-22"
       type="text/css">
      .ColorScheme-Text {
        color:#122036;
      }
      </style><style
       type="text/css"
       id="current-color-scheme-10-2">
      .ColorScheme-Text {
        color:#122036;
      }
      </style><style
       id="current-color-scheme-6-0"
       type="text/css">
      .ColorScheme-Text {
        color:#122036;
      }
      </style><style
       id="current-color-scheme-7-1-5"
       type="text/css">
      .ColorScheme-Text {
        color:#122036;
      }
      </style><style
       id="current-color-scheme-5-2-5"
       type="text/css">
      .ColorScheme-Text {
        color:#122036;
      }
      </style><style
       id="current-color-scheme-0"
       type="text/css">
      .ColorScheme-Text {
        color:#122036;
      }
      </style><style
       type="text/css"
       id="current-color-scheme-3-4">
      .ColorScheme-Text {
        color:#122036;
      }
      </style><style
       type="text/css"
       id="current-color-scheme-7-0">
      .ColorScheme-Text {
        color:#122036;
      }
      </style><style
       type="text/css"
       id="current-color-scheme-5-9">
      .ColorScheme-Text {
        color:#122036;
      }
      </style><style
       id="current-color-scheme-9-1"
       type="text/css">
      .ColorScheme-Text {
        color:#122036;
      }
      </style><style
       id="current-color-scheme-1-96"
       type="text/css">
      .ColorScheme-Text {
        color:#122036;
      }
      </style><style
       type="text/css"
       id="current-color-scheme-10-25">
      .ColorScheme-Text {
        color:#122036;
      }
      </style><style
       id="current-color-scheme-6-44"
       type="text/css">
      .ColorScheme-Text {
        color:#122036;
      }
      </style><style
       id="current-color-scheme-7-1-99"
       type="text/css">
      .ColorScheme-Text {
        color:#122036;
      }
      </style><style
       id="current-color-scheme-5-2-3"
       type="text/css">
      .ColorScheme-Text {
        color:#122036;
      }
      </style><style
       id="current-color-scheme-6753"
       type="text/css">
      .ColorScheme-Text {
        color:#122036;
      }
      </style><style
       type="text/css"
       id="current-color-scheme-53">
      .ColorScheme-Text {
        color:#122036;
      }
      </style><style
       id="current-color-scheme-5-56"
       type="text/css">
      .ColorScheme-Text {
        color:#122036;
      }
      </style><style
       id="current-color-scheme-2-2"
       type="text/css">
      .ColorScheme-Text {
        color:#122036;
      }
      </style><style
       id="current-color-scheme-1-91"
       type="text/css">
      .ColorScheme-Text {
        color:#122036;
      }
      </style><style
       type="text/css"
       id="current-color-scheme-10-27">
      .ColorScheme-Text {
        color:#122036;
      }
      </style><style
       id="current-color-scheme-0-0"
       type="text/css">
      .ColorScheme-Text {
        color:#122036;
      }
      </style><style
       id="current-color-scheme-26"
       type="text/css">
      .ColorScheme-Text {
        color:#122036;
      }
      </style><style
       id="current-color-scheme-6-9"
       type="text/css">
      .ColorScheme-Text {
        color:#122036;
      }
      </style><style
       type="text/css"
       id="current-color-scheme-53-7">
      .ColorScheme-Text {
        color:#122036;
      }
      </style><style
       id="current-color-scheme-5-5"
       type="text/css">
      .ColorScheme-Text {
        color:#122036;
      }
      </style><style
       id="current-color-scheme-2-3"
       type="text/css">
      .ColorScheme-Text {
        color:#122036;
      }
      </style><style
       id="current-color-scheme-1-5"
       type="text/css">
      .ColorScheme-Text {
        color:#122036;
      }
      </style><style
       type="text/css"
       id="current-color-scheme-10-6">
      .ColorScheme-Text {
        color:#122036;
      }
      </style><style
       id="current-color-scheme-0-2"
       type="text/css">
      .ColorScheme-Text {
        color:#122036;
      }
      </style><style
       id="current-color-scheme-67-3"
       type="text/css">
      .ColorScheme-Text {
        color:#122036;
      }
      </style><linearGradient
       inkscape:collect="always"
       xlink:href="#linearGradient1953"
       id="linearGradient1955"
       x1="6.997396"
       y1="294.89029"
       x2="6.997396"
       y2="291.7153"
       gradientUnits="userSpaceOnUse" /></defs><g
     id="path6832-5-7-1-2-0-2-5-7-8"
     transform="matrix(3.7795275,0,0,3.7795275,-18.44685,-1100.546)"><g
       id="path67450"><path
         id="path70629"
         style="color:#000000;fill:#e53737;stroke-linecap:round;stroke-linejoin:round;stroke-miterlimit:1.8;-inkscape-stroke:none;paint-order:fill markers stroke;fill-opacity:1"
         d="M 6.9979126 291.18562 A 0.26460996 0.26460996 0 0 0 6.9374512 291.19337 C 6.9373744 291.19335 6.9343506 291.19285 6.9343506 291.19285 L 6.9260824 291.19699 A 0.26460996 0.26460996 0 0 0 6.8382324 291.24091 L 6.8289307 291.24556 L 6.830481 291.24763 A 0.26460996 0.26460996 0 0 0 6.7772542 291.30447 L 6.3602254 291.92872 L 6.3597087 291.92872 L 5.7587117 291.7277 A 0.26460996 0.26460996 0 0 0 5.7576782 291.72874 A 0.26460996 0.26460996 0 0 0 5.4238485 292.06463 L 5.5721598 292.50905 L 5.1453125 292.50905 A 0.26460996 0.26460996 0 0 0 5.1453125 292.50957 L 5.1442789 292.50957 A 0.26460996 0.26460996 0 0 0 4.9587606 292.9607 L 5.3008585 293.3028 L 4.9597941 293.64386 L 4.9587606 293.64438 A 0.26460996 0.26460996 0 0 0 5.1442789 294.09552 L 5.5721598 294.09552 L 5.4662231 294.41436 L 5.4243652 294.54045 L 5.4238485 294.54303 A 0.26460996 0.26460996 0 0 0 5.7576782 294.87686 L 5.7587117 294.87635 L 6.3591919 294.67584 L 6.7772542 295.30061 L 6.7772542 295.29854 L 6.7782878 295.30009 A 0.26460996 0.26460996 0 0 0 6.8470174 295.33678 L 6.8278971 295.35952 L 6.9338338 295.41223 C 6.9338338 295.41223 6.9607069 295.40574 6.9700073 295.40345 A 0.26460996 0.26460996 0 0 0 6.9989461 295.41895 A 0.26460996 0.26460996 0 0 0 7.075944 295.37709 C 7.1222204 295.36571 7.1720458 295.35332 7.1720622 295.35332 C 7.1721434 295.35324 7.1895605 295.33768 7.1932495 295.33368 C 7.2080065 295.31748 7.2078705 295.3163 7.2108195 295.3125 C 7.2167195 295.3045 7.2199374 295.29794 7.2263224 295.28924 C 7.2390864 295.27174 7.2580042 295.2474 7.2795492 295.2169 C 7.3226391 295.156 7.3811921 295.07306 7.4433635 294.98228 C 7.5190734 294.87174 7.5747099 294.77702 7.6387004 294.67584 L 7.6423177 294.67688 L 8.2360799 294.87686 A 0.26460996 0.26460996 0 0 0 8.5724935 294.54303 L 8.5719768 294.54148 A 0.26460996 0.26460996 0 0 0 8.5730103 294.54045 L 8.4246989 294.09552 L 8.8494792 294.09552 A 0.26460996 0.26460996 0 0 0 9.0375814 293.6449 A 0.26460996 0.26460996 0 0 0 9.0380982 293.64386 L 8.6960002 293.30177 L 8.8665324 293.13123 L 9.0370647 292.9607 L 9.0380982 292.96019 A 0.26460996 0.26460996 0 0 0 9.0380982 292.95967 A 0.26460996 0.26460996 0 0 0 8.8505127 292.50957 A 0.26460996 0.26460996 0 0 0 8.8505127 292.50905 L 8.4236654 292.50905 L 8.5724935 292.06463 A 0.26460996 0.26460996 0 0 0 8.5730103 292.06205 A 0.26460996 0.26460996 0 0 0 8.2376302 291.72822 A 0.26460996 0.26460996 0 0 0 8.2371135 291.7277 L 7.9988851 291.80832 L 7.6387004 291.92821 C 7.5749728 291.8274 7.51986 291.73246 7.444397 291.62228 C 7.3822256 291.5315 7.3231559 291.44909 7.2800659 291.38819 C 7.2585209 291.35769 7.24012 291.33334 7.227356 291.31584 C 7.220971 291.30714 7.217753 291.30007 7.211853 291.29207 C 7.208904 291.28827 7.20904 291.28708 7.194283 291.27088 C 7.1905941 291.26688 7.1726601 291.25133 7.1725789 291.25125 C 7.1725781 291.25125 7.167627 291.25027 7.1674113 291.25021 A 0.26460996 0.26460996 0 0 0 6.9979126 291.18562 z M 6.9958455 291.92769 L 7.3064209 292.39071 A 0.26460996 0.26460996 0 0 0 7.6092448 292.49613 L 7.6102783 292.49561 L 7.9022502 292.39846 L 7.8045817 292.6894 A 0.26460996 0.26460996 0 0 0 8.0567627 293.03925 L 8.2086914 293.03925 L 8.1720012 293.07646 L 8.1337606 293.1147 L 8.1327271 293.11521 A 0.26460996 0.26460996 0 0 0 8.1327271 293.49039 L 8.2081747 293.56583 L 8.0572795 293.56583 A 0.26460996 0.26460996 0 0 0 8.0552124 293.56842 A 0.26460996 0.26460996 0 0 0 7.8045817 293.9162 L 7.9017334 294.20559 L 7.6102783 294.10844 A 0.26460996 0.26460996 0 0 0 7.6082113 294.10895 A 0.26460996 0.26460996 0 0 0 7.2914347 294.23866 A 0.26460996 0.26460996 0 0 0 7.2888509 294.24228 L 6.9968791 294.67688 L 6.6883708 294.21437 A 0.26460996 0.26460996 0 0 0 6.6863037 294.21386 A 0.26460996 0.26460996 0 0 0 6.3870972 294.10895 A 0.26460996 0.26460996 0 0 0 6.3855469 294.10844 L 6.0925415 294.2061 L 6.1896932 293.9162 A 0.26460996 0.26460996 0 0 0 6.19021 293.91517 A 0.26460996 0.26460996 0 0 0 5.9421631 293.56842 A 0.26460996 0.26460996 0 0 0 5.940096 293.56583 L 5.7861002 293.56583 L 5.8615478 293.49039 A 0.26460996 0.26460996 0 0 0 5.8620646 293.48935 A 0.26460996 0.26460996 0 0 0 5.8620646 293.11573 A 0.26460996 0.26460996 0 0 0 5.8620646 293.1147 L 5.7871338 293.03925 L 5.9395793 293.03925 A 0.26460996 0.26460996 0 0 0 6.1896932 292.6894 A 0.26460996 0.26460996 0 0 0 6.19021 292.68888 L 6.0930583 292.39898 L 6.3845133 292.49613 A 0.26460996 0.26460996 0 0 0 6.6873372 292.39071 L 6.687854 292.38968 L 6.6883708 292.38968 L 6.9958455 291.92769 z " /></g><g
       id="path67450-9"
       transform="matrix(1,0,0,-1,7.8127623e-4,586.60475)" /><path
       style="color:#000000;fill:url(#linearGradient1955);stroke-width:0.529167;stroke-linecap:round;stroke-linejoin:round;stroke-miterlimit:1.8;-inkscape-stroke:none;paint-order:fill markers stroke;fill-opacity:1"
       d="m 6.9973965,291.45072 -0.529167,0.79375 -0.79375,-0.26459 0.264583,0.79375 H 5.1453434 l 0.5291671,0.52916 -0.5291671,0.52917 0.7937191,1e-5 -0.264583,0.79375 0.79375,-0.26459 0.529167,0.79375 c -0.01084,0.0212 0.440972,-0.61733 0.529166,-0.79375 l 0.79375,0.26459 -0.264583,-0.79375 h 0.793862 l -0.529167,-0.52917 0.529167,-0.52917 h -0.793862 l 0.264583,-0.79375 -0.79375,0.26459 z"
       id="path70627" /></g></svg>
