<svg 
    height="22" 
    viewBox="0 0 5.820833 5.8208331"
    width="22"
    xmlns="http://www.w3.org/2000/svg">
    <defs id="defs2">
    <style
       type="text/css"
       id="current-color-scheme">
      .ColorScheme-Text {
        color:#36404d;
      }
      </style>
    </defs>
    <path 
        d="m2.9222931 291.44487c-.7150087-.0104-1.4037932.269-1.909444.77463-.7565676.75662-.98294883 1.89444-.57360828 2.88303.40945178.9887 1.37416278 1.63341 2.44429508 1.63349v-.52916c-.070581.00006-.1411219-.003-.2113566-.0104-.070253-.007-.140104-.0179-.2092897-.032-.069039-.014-.1373367-.0314-.2046385-.0522-.067484-.0208-.1338855-.045-.1989544-.0724-.065057-.0275-.1286985-.0582-.190686-.092-.061923-.0338-.1221147-.0707-.1803506-.11059-.058257-.0399-.1144827-.0827-.1684652-.12816-.053873-.0455-.1054411-.0936-.1545124-.14418-.04931-.0507-.09605-.1038-.1400432-.15916-.043839-.0553-.084887-.11271-.1229899-.17208-.038-.0594-.073012-.12059-.10490308-.18345-.0250346-.0492-.0481346-.0994-.069247-.15038-.027069-.0651-.0508697-.13149-.071313-.19895-.0203031-.0677-.0372053-.13632-.050643-.20568-.0134708-.0692-.0234739-.13907-.029972-.20929-.006621-.0702-.009725-.14079-.0093-.21135.00060526-.0706.004744-.14116.012401-.21136.007541-.0701.0185787-.13977.033073-.20877.0144921-.0691.0324291-.13737.053744-.20464.0213062-.0673.0459693-.13357.073897-.19844.0279988-.0647.0592157-.12803.093534-.18965.0342-.0616.071453-.12144.1116211-.17932.040401-.0581.083691-.11417.129708-.16795.035794-.0417.073202-.0821.1121378-.12092.049793-.05.1020514-.0974.1565795-.14211.054713-.0447.1116284-.0866.1705323-.12558.058796-.039.1195052-.075.181901-.108.062377-.033.1263629-.0628.1917194-.0894.065465-.0264.1322114-.0496.199988-.0693.067688-.0199.1363309-.0365.2056722-.0496.069418-.013.1394409-.0224.2098062-.0284.070275-.006.1408151-.009.2113566-.008.070469.001.1408368.006.2108398.014.070124.008.1398024.0196.2087729.0346.06892.015.1370452.0335.2041218.0553.052404.0171.1041201.0363.1550294.0574.065201.0269.1290148.0571.1912028.0904.062253.0335.1227898.07.1813843.10955.058575.0393.1151449.0816.1694986.12661.0542.0451.1061136.0929.1555459.14314.049636.0503.096721.1031.1410769.15813.044163.0549.085556.112.1240235.17105.038674.059.074375.11987.1069699.18242.032482.0627.061802.12707.08785.19275.026069.0657.048836.13258.068213.20051.019258.0677.035125.13637.047542.20567.012621.0694.021762.13946.027388.20981.00422.055.00629.11018.0062.16536h.5291666c-.0000859-1.07013-.6447887-2.03484-1.633489-2.44429-.3089109-.12792-.6392691-.19614-.973584-.20103zm-.011885.79324c-.5004692-.007-.9825195.18859-1.3363526.5426-.5297488.5297-.68822582 1.32637-.4015258 2.01848.2867293.69195.9620022 1.14308 1.7110065 1.14308v-.52916c-.044186-.00012-.088339-.002-.1322915-.007-.04388-.004-.087515-.0109-.1307415-.0196-.043236-.009-.086009-.0196-.1281576-.0326-.042073-.0131-.083466-.0283-.1240234-.0455-.040549-.0171-.080217-.0363-.1188558-.0574-.038684-.0212-.076282-.0443-.1126547-.0693-.036455-.0249-.071639-.0517-.1054197-.0801-.033687-.0283-.065939-.0583-.096635-.0899-.030759-.0317-.059906-.065-.087333-.0997-.027441-.0345-.053139-.0704-.076998-.10748-.023774-.0371-.045678-.0754-.065629-.11472-.015679-.0306-.030159-.0618-.043408-.0935-.016881-.0408-.031713-.0823-.044442-.12454-.012824-.0423-.023517-.0853-.032039-.12867-.00837-.0433-.014583-.0869-.018603-.13075-.0041-.044-.006-.0881-.00568-.13229.0003891-.044.00298-.088.00775-.13177.0047-.0439.011604-.0875.020672-.13074.00907-.0431.020277-.0857.03359-.12764.013253-.0421.028603-.0835.045992-.12403.017469-.0406.036957-.0802.058394-.11885.021541-.0385.044997-.076.07028-.11214.025119-.0361.052024-.071.080615-.10439.022426-.0262.045871-.0516.07028-.076.031223-.0312.063993-.0609.098185-.0889.034151-.028.06968-.0542.1064534-.0786.036754-.0243.074697-.0467.1136884-.0672.039008-.0206.079021-.0392.1198892-.0558.040766-.0165.082331-.031.1245403-.0434.042347-.0125.085292-.0228.1286742-.031.043423-.008.087231-.0143.1312582-.0181.043813-.004.087791-.006.1317707-.005.04422.00079.088373.004.1322916.009.043742.005.087205.0123.1302247.0217.043097.009.085697.021.1276409.0346.032837.0106.065246.0225.097152.0357.040703.0168.080543.0356.1193726.0563.038847.021.076618.0439.1131716.0687.036608.0246.071965.051.1059365.0791.033852.0282.066276.058.097152.0894.031086.0314.060578.0643.088367.0987.027604.0343.053474.07.077515.10697.024111.0369.04636.075.066663.11421.020255.0392.038537.0794.054777.1204.016373.041.030688.0827.042892.12506.012128.0424.022131.0853.029972.12868.0077.0434.013216.0872.016536.13125.00273.0344.00411.0689.00414.10336h.5291678c.0000027-.74901-.4511319-1.42428-1.1430838-1.71101-.2164069-.0898-.4478761-.13762-.6821288-.14108zm-.011369.79375c-.2860336-.004-.5615516.10773-.7637772.31006-.3027106.30268-.3932688.75792-.2294434 1.15341.1638449.3954.5497152.65319.977718.65319v-.52916c-.017609-.00012-.035201-.001-.05271-.003-.01752-.002-.034939-.004-.052193-.008-.01744-.004-.034687-.008-.051676-.0134-.016827-.005-.033384-.0112-.049609-.0181-.016215-.007-.032082-.0144-.047543-.0227-.015442-.009-.030447-.0179-.044958-.0279-.014652-.01-.028794-.0206-.042375-.032-.013516-.0114-.026451-.0235-.038757-.0362-.012183-.0125-.023738-.0256-.034623-.0393-.011058-.0139-.021407-.0284-.031006-.0434-.00955-.0149-.018344-.0302-.026355-.046-.00616-.0122-.01185-.0246-.017052-.0372-.00669-.0164-.012556-.0331-.017571-.0501-.00516-.0168-.00947-.0339-.01292-.0512s-.00604-.0347-.00775-.0522c-.00156-.0175-.00225-.0351-.00206-.0527.0001392-.0178.00117-.0355.0031-.0532.00189-.0175.00465-.0349.00827-.0522s.00811-.0344.013436-.0512c.00537-.0168.011578-.0334.018603-.0496.00697-.016.014731-.0317.023254-.047.00854-.0155.017858-.0305.027905-.045.010145-.0145.02101-.0285.032556-.0419.0089-.0105.01821-.0207.027905-.0305.012486-.0125.025594-.0245.039274-.0357.013603-.011.027746-.0214.042375-.031.01469-.01.029868-.019.045475-.0274.015639-.008.031679-.0156.048059-.0222.016403-.007.033133-.0126.050126-.0176.016846-.005.03392-.009.05116-.0119.017442-.003.035034-.006.05271-.007.017526-.002.035118-.002.05271-.002.017626.00045.035218.002.05271.004.01752.002.034939.004.052193.008.017275.004.03435.008.05116.0139.013103.004.026032.009.038757.0145.016214.007.032081.0144.047542.0227.015607.008.030785.0175.045475.0274.01464.01.028783.0203.042375.0315.013504.0112.026439.0232.038757.0357.012372.0127.0241.026.03514.0398.011207.0136.021727.0278.031522.0424.00955.0149.018344.0302.026355.046.00821.0156.015621.0317.02222.0481.00652.0164.012207.0331.017052.0501.00482.017.00879.0343.011885.0517.0031.0173.00535.0347.00672.0522.00122.0137.00191.0275.00206.0413h.5291666c.0000009-.428-.2577919-.81388-.6531945-.97772-.1236162-.0513-.2558325-.0786-.3896403-.0806zm-.014986 1.5875v.52916l2.9367799-.00057v-.52916zm0 .79375v.52916l2.9367799-.00057v-.52916zm0 .79375v.52916l2.9367799-.00057v-.52916z" 
        fill="currentColor" 
        style="fill:currentColor;fill-opacity:1;stroke:none"
        class="ColorScheme-Text"
        transform="translate(0 -291.17921)"/>
</svg>
