<svg 
    height="22" 
    viewBox="0 0 22 22"
    width="22"
    xmlns="http://www.w3.org/2000/svg">
    <defs id="defs2">
    <style
       type="text/css"
       id="current-color-scheme">
      .ColorScheme-Text {
        color:#36404d;
      }
      </style>
    </defs>
    <path 
        d="m7.000005 3.0015427c-2.738294 0-4.945848 2.18039-4.996094 4.9062501-.0028.0312-.0041.0625-.0039.0937 0 .19419.01382.38395.03516.57226.167523 2.1192102 1.232482 4.1138392 2.683594 5.9277392 1.581261 1.97658 3.638974 3.76682 5.681641 5.29882.355407.26625.843811.26625 1.199218 0 2.042667-1.532 4.10038-3.32224 5.681641-5.298819 1.451112-1.8139 2.516071-3.80853 2.683594-5.9277402.02133-.18826.03515-.37802.03515-.57221-.000294-.0333-.0022-.0665-.0059-.0996-.05334-2.7230501-2.257816-4.9003901-4.9941-4.9003901-1.647081 0-3.090068.79987-4 2.02148-.909932-1.22161-2.352919-2.02148-4-2.02148z"
        fill="currentColor"
        style="fill:currentColor;fill-opacity:1;stroke:none"
        class="ColorScheme-Text"/>
</svg>

