<?xml version="1.0" encoding="UTF-8" standalone="no"?>
<!-- Created with Inkscape (http://www.inkscape.org/) -->

<svg
   width="22"
   height="22"
   viewBox="0 0 5.8208332 5.8208335"
   version="1.1"
   id="svg8"
   inkscape:version="1.2.1 (9c6d41e410, 2022-07-14)"
   sodipodi:docname="folder-antu.svg"
   xmlns:inkscape="http://www.inkscape.org/namespaces/inkscape"
   xmlns:sodipodi="http://sodipodi.sourceforge.net/DTD/sodipodi-0.dtd"
   xmlns="http://www.w3.org/2000/svg"
   xmlns:svg="http://www.w3.org/2000/svg"
   xmlns:rdf="http://www.w3.org/1999/02/22-rdf-syntax-ns#"
   xmlns:cc="http://creativecommons.org/ns#"
   xmlns:dc="http://purl.org/dc/elements/1.1/">
  <defs
     id="defs2" />
  <sodipodi:namedview
     id="base"
     pagecolor="#ffffff"
     bordercolor="#666666"
     borderopacity="1.0"
     inkscape:pageopacity="0.0"
     inkscape:pageshadow="2"
     inkscape:zoom="44.8"
     inkscape:cx="12.533482"
     inkscape:cy="11.573661"
     inkscape:document-units="px"
     inkscape:current-layer="path6832-5-7-1-2-0-2-5-7-8"
     showgrid="true"
     units="px"
     inkscape:showpageshadow="false"
     inkscape:snap-bbox="true"
     inkscape:bbox-paths="true"
     inkscape:bbox-nodes="true"
     inkscape:snap-bbox-edge-midpoints="true"
     inkscape:snap-bbox-midpoints="true"
     inkscape:object-paths="true"
     inkscape:snap-intersection-paths="true"
     inkscape:window-width="2160"
     inkscape:window-height="1335"
     inkscape:window-x="0"
     inkscape:window-y="0"
     inkscape:window-maximized="1"
     inkscape:pagecheckerboard="0"
     inkscape:deskcolor="#d1d1d1">
    <inkscape:grid
       type="xygrid"
       id="grid815" />
  </sodipodi:namedview>
  <metadata
     id="metadata5">
    <rdf:RDF>
      <cc:Work
         rdf:about="">
        <dc:format>image/svg+xml</dc:format>
        <dc:type
           rdf:resource="http://purl.org/dc/dcmitype/StillImage" />
      </cc:Work>
    </rdf:RDF>
  </metadata>
  <g
     inkscape:label="Capa 1"
     inkscape:groupmode="layer"
     id="layer1"
     transform="translate(0,-291.17916)">
    <g
       id="path6832-5-7-1-2-0-2-5-7-8"
       transform="translate(-4.2341145,0.47707667)">
      <path
         id="rect845"
         style="opacity:1;fill:#d72f4a;stroke-width:0.571566;stroke-linecap:round;stroke-linejoin:round;stroke-miterlimit:1.8;paint-order:fill markers stroke;stop-color:#000000;fill-opacity:1"
         d="M 7.1150756 290.96873 A 0.26460996 0.26460996 0 0 0 6.9569457 291.0447 L 6.2412271 291.76042 L 5.5570312 291.76042 C 5.4104465 291.76042 5.2924478 291.87842 5.2924478 292.025 L 5.2924478 292.70971 L 4.5762125 293.42595 A 0.26460996 0.26460996 0 0 0 4.5762125 293.79905 L 5.2924478 294.5158 L 5.2924478 295.2 C 5.2924478 295.34658 5.4104465 295.46458 5.5570312 295.46458 L 6.2401936 295.46458 L 6.9569457 296.18185 A 0.26460996 0.26460996 0 0 0 7.3321166 296.18185 L 8.0488687 295.46458 L 8.7320312 295.46458 C 8.8786158 295.46458 8.9966145 295.34658 8.9966145 295.2 L 8.9966145 294.5158 L 9.7128499 293.79905 A 0.26460996 0.26460996 0 0 0 9.7128499 293.42595 L 8.9966145 292.70971 L 8.9966145 292.025 C 8.9966145 291.87842 8.8786158 291.76042 8.7320312 291.76042 L 8.0478352 291.76042 L 7.3321166 291.0447 A 0.26460996 0.26460996 0 0 0 7.1150756 290.96873 z M 7.1445312 291.60539 L 7.2995605 291.76042 L 6.9895019 291.76042 L 7.1445312 291.60539 z M 5.2924478 293.45799 L 5.2924478 293.76908 L 5.1369018 293.61353 L 5.2924478 293.45799 z M 8.9966145 293.45799 L 9.1521606 293.61353 L 8.9966145 293.76908 L 8.9966145 293.45799 z M 6.9900186 295.46458 L 7.2990437 295.46458 L 7.1445312 295.6191 L 6.9900186 295.46458 z " />
      <path
         id="rect901"
         style="opacity:1;fill:#ff778a;stroke-width:0.529167;stroke-linecap:round;stroke-linejoin:round;stroke-miterlimit:1.8;paint-order:fill markers stroke;stop-color:#000000"
         d="M 7.1445312 291.23125 L 6.3507812 292.025 L 5.5570312 292.025 L 5.5570312 292.81875 L 4.7632812 293.6125 L 5.5570312 294.40625 L 5.5570312 295.2 L 6.3507812 295.2 L 7.1445312 295.99375 L 7.9382812 295.2 L 8.7320312 295.2 L 8.7320312 294.40625 L 9.5257812 293.6125 L 8.7320312 292.81875 L 8.7320312 292.025 L 7.9382812 292.025 L 7.1445312 291.23125 z " />
      <g
         id="path1257" />
    </g>
  </g>
</svg>
