<svg
    height="22"
    viewBox="0 0 22 22"
    width="22" 
    xmlns="http://www.w3.org/2000/svg">
    <defs id="defs2">
    <style
       type="text/css"
       id="current-color-scheme">
      .ColorScheme-Text {
        color:#36404d;
      }
      </style>
    </defs>
    <path 
        d="m11 2c-3.324 0-6 2.676-6 6-.553998 0-1 .446-1 1v10c0 .554.446002 1 1 1h7v-2h2v-2h2v-2h-2v-2h2v-2h2v-1c0-.554-.446002-1-1-1 0-3.324-2.676-6-6-6zm5 10v2h2v-2zm0 4v2h2v-2zm0 2h-2v2h2zm-5-13c1.662 0 3 1.338 3 3h-6c0-1.662 1.338-3 3-3zm0 6c1.107999 0 2 .892 2 2 0 .74107-.404202 1.379049-1 1.724609v2.275391c0 .554-.446 1-1 1s-1-.446-1-1v-2.275391c-.595798-.34556-1-.983539-1-1.724609 0-1.108.892001-2 2-2z"
        fill="currentColor"
        style="fill:currentColor;fill-opacity:1;stroke:none"
        class="ColorScheme-Text"/>
</svg>
