<svg 
    height="22" 
    viewBox="0 0 22 22" 
    width="22" 
    xmlns="http://www.w3.org/2000/svg">
    <defs id="defs2">
    <style
       type="text/css"
       id="current-color-scheme">
      .ColorScheme-Text {
        color:#36404d;
      }
      </style>
    </defs>
    <path 
        d="m5 3c-.554 0-1 .446-1 1v14c0 .55399.446 1 1 1h2v-2h2v-2h2v-2h2v-2h2v-2h2v-2l-4-4zm10 8v2h2v-2zm0 2h-2v2h2zm0 2v2h2v-2zm0 2h-2v2h2zm-2 0v-2h-2v2zm-2 0h-2v2h2z"
        fill="currentColor"
        transform=""
        style="fill:currentColor;fill-opacity:1;stroke:none"
        class="ColorScheme-Text"/>
</svg>
