<svg 
    height="22" 
    viewBox="0 0 5.8208332 5.8208335"
    width="22" 
    xmlns="http://www.w3.org/2000/svg">
    <defs id="defs2">
    <style
       type="text/css"
       id="current-color-scheme">
      .ColorScheme-Text {
        color:#36404d;
      }
      </style>
    </defs>
    <path
        d="m11.246094 3.0078125c-.637176-.0190581-1.2723895.0375611-1.8925784.1679687-1.6538371.3477166-3.2002157 1.2117571-4.3710937 2.546875-2.3417563 2.6702741-2.6387611 6.5787918-.7304688 9.5742188 1.9082926 2.995427 5.5746282 4.374724 8.9843749 3.380859 3.409748-.993826 5.765625-4.124121 5.765625-7.675781a1.0001001 1.0001001 0 0 0 -1.005859-1.0039061h-5.423828l2.294922-4.9179688a1.0001001 1.0001001 0 0 0 -.486329-1.328125c-1.005898-.469063-2.072806-.7123771-3.134765-.7441406zm-2.746094 3.9921875c.831 0 1.5.669 1.5 1.5s-.669 1.5-1.5 1.5-1.5-.669-1.5-1.5.669-1.5 1.5-1.5z" fill="currentColor"
        transform="scale(.26458333)"
        style="fill:currentColor;fill-opacity:1;stroke:none"
        class="ColorScheme-Text"/>
</svg>
