<svg height="22" viewBox="0 0 5.8208332 5.8208335" width="22" xmlns="http://www.w3.org/2000/svg"><path d="m-.53329994 292.76668c-.068717.001-.1343108.0289-.1828954.0775l-1.85168806 1.85208c-.1665339.16668-.048568.45156.1870287.45165h.2645269v1.5875c0 .14658.1179795.26458.2645268.26458h2.64526866c.1465474 0 .26452674-.118.26452674-.26458v-1.5875h.264527c.2355969-.00009.3535627-.28497.1870287-.45165l-.4515557-.45165v-.94878c0-.14658-.11797934-.26459-.26452674-.26459s-.2645269.11801-.2645269.26459v.41961l-.8710788-.87126c-.05061-.0507-.11958-.0786-.1911619-.0775z" fill="#f26a6a" transform="translate(3.439583 -291.972903)"/></svg>