<svg
    height="22"
    viewBox="0 0 22 22"
    width="22"
    xmlns="http://www.w3.org/2000/svg">
    <defs id="defs2">
    <style
       type="text/css"
       id="current-color-scheme">
      .ColorScheme-Text {
        color:#36404d;
      }
      </style>
    </defs>
    <path 
        d="m4.9775374 303.17915c-1.384989 0-2.5 1.115-2.5 2.5 0 1.38497 1.1076588 2.50001 2.4926478 2.50001s2.5073522-1.11504 2.5073522-2.50001c0-1.385-1.115011-2.5-2.5-2.5zm6.4404276 6.00002c-.304324.0189-.583683.17122-.759766.41995l-3.2343751 4.52148-1.154297-1.54102c-.18311-.24454-.467997-.39209-.773437-.40041-.32468-.008-.633479.14022-.828125.40041l-3.000001 4.00002c-.493912.65949-.02317 1.59984.800782 1.59957h6c .0048.00004.0089-.002.013678-.002h7.9843641c.814525.004 1.2924-.91634.820312-1.5801l-5.005854-6.99799c-.197265-.27855-.522458-.43619-.863278-.41994z" 
        fill="currentColor"
        transform="matrix(.99954516 0 0 1 1.5341275 -299.1791603)"
        style="fill:currentColor;fill-opacity:1;stroke:none"
        class="ColorScheme-Text"/>
</svg>
