<svg 
    height="22"
    viewBox="0 0 22 22" 
    width="22"
    xmlns="http://www.w3.org/2000/svg">
    <defs id="defs2">
    <style
       type="text/css"
       id="current-color-scheme">
      .ColorScheme-Text {
        color:#36404d;
      }
      </style>
    </defs>
    <path
        d="m11 294.17915c-4.432 0-8 3.56802-8 8 0 4.43202 3.568 8 8 8s8-3.56798 8-8c0-4.43198-3.568-8-8-8zm0 4.00048c.554 0 1 .446 1 1v3h1c .890637.00035 1.336587 1.07704.707031 1.70703l-2 2c-.39053.39037-1.023532.39037-1.414062 0l-2-2c-.629556-.62999-.183606-1.70668.707031-1.70703h1v-3c0-.554.446-1 1-1z" 
        fill="currentColor"
        transform="translate(0 -291.17915)"
        style="fill:currentColor;fill-opacity:1;stroke:none"
        class="ColorScheme-Text"/>
</svg>
