<svg 
    height="22" 
    viewBox="0 0 22 22" 
    width="22"
    xmlns="http://www.w3.org/2000/svg">
    <defs id="defs2">
    <style
       type="text/css"
       id="current-color-scheme">
      .ColorScheme-Text {
        color:#36404d;
      }
      </style>
    </defs>
    <path 
        d="m6.5019526 2.9999996c-.2768931-.0009899-.501927.2231-.501953.5v2.835938c-.628307.894069-1 1.983542-1 3.164062 0 2.3557804 1.469509 4.3502294 3.542969 5.1367194-.340139.53994-.542969 1.175351-.542969 1.863281 0 .0415.0103.0799.01172.121094h-.01172v.06445c-.683346-.28598-1.0428511-.743326-1.449219-1.285156-.343-.45733-.67282-1.007636-1.216797-1.509766-.5439756-.502137-1.361762-.890622-2.333984-.890622-1.3523231-.0191-1.3523231 2.01912 0 2 .527778 0 .7099916.111505.9785156.359375.268523.24786.5637031.697574.9707032 1.240234.5892362.78565 1.5310122 1.68456 3.0507812 2.125v1.275391h1v-.5-2c0-.277.223-.5.5-.5s.5000004.223.5000004.5v1.5 1h1v-.5-3c0-.277.223-.5.5-.5s.5.223.5.5v2.5 1h1v-.5-.5-1.5c0-.277.223-.5.5-.5s.5.223.5.5v1.5.5.5h1v-3.378906h-.01172c.0014-.0411.01172-.0796.01172-.121094 0-.68793-.20283-1.323341-.542969-1.863281 2.07346-.78649 3.542969-2.780939 3.542969-5.1367194 0-1.18052-.371693-2.269983-1-3.164062v-2.835938c.000109-.28235-.233413-.5087999-.515625-.5-.06258.002-.124196.01612-.181641.04102l-2.572265 1.101562c-.395961-.090004-.8065-.142582-1.230469-.142582h-2c-.423969 0-.8345084.05261-1.2304694.142578l-2.572265-1.101562c-.06169-.0266-.128114-.040616-.195313-.041016z" 
        fill="currentColor"
        style="fill:currentColor;fill-opacity:1;stroke:none"
        class="ColorScheme-Text"/>
</svg>
