<svg 
    height="22" 
    viewBox="0 0 22 22"
    width="22"
    xmlns="http://www.w3.org/2000/svg">
    <defs id="defs2">
    <style
       type="text/css"
       id="current-color-scheme">
      .ColorScheme-Text {
        color:#36404d;
      }
      </style>
    </defs>
    <path 
        d="m51.075994 285.45518c-.381998.005-.746843.15949-1.016927.42969l-2.933333 2.93333c-.572541.57277-.572541 1.50118 0 2.07396l6.296355 6.29636-6.296355 6.29635c-.572541.57277-.572541 1.50118 0 2.07396l2.933333 2.93333c.572777.57254 1.501181.57254 2.073958 0l10.266667-10.26667c.572535-.57278.572535-1.50118 0-2.07395l-10.266667-10.26667c-.279911-.28002-.661135-.43499-1.057031-.42969zm-13.179948 1.46601c-1.625067 0-2.933334 1.30827-2.933334 2.93334 0 1.62506 1.308267 2.93333 2.933334 2.93333s2.933333-1.30827 2.933333-2.93333c0-1.62507-1.308266-2.93334-2.933333-2.93334zm-2.933334 8.80001c-2.437591 0-4.4 1.9624-4.4 4.4 0 2.43758 1.962409 4.4 4.4 4.4 2.437592 0 4.400001-1.96242 4.400001-4.4 0-2.4376-1.962409-4.4-4.400001-4.4zm5.866667 10.26666c-3.250133 0-5.866667 2.61654-5.866667 5.86667 0 3.25015 2.616534 5.86667 5.866667 5.86667 3.250134 0 5.866667-2.61652 5.866667-5.86667 0-3.25013-2.616533-5.86667-5.866667-5.86667z" 
        fill="currentColor" 
        stroke-width=".938664" 
        transform="matrix(.68181817 0 0 .68181817 -20.838213 -194.62808)"
        style="fill:currentColor;fill-opacity:1;stroke:none"
        class="ColorScheme-Text"/>
</svg>
