<?xml version="1.0" encoding="UTF-8" standalone="no"?>
<!-- Created with Inkscape (http://www.inkscape.org/) -->

<svg
   width="32"
   height="32"
   viewBox="0 0 32 32"
   version="1.1"
   id="svg8"
   inkscape:version="1.2 (dc2aedaf03, 2022-05-15)"
   sodipodi:docname="applications-all.svg"
   xml:space="preserve"
   xmlns:inkscape="http://www.inkscape.org/namespaces/inkscape"
   xmlns:sodipodi="http://sodipodi.sourceforge.net/DTD/sodipodi-0.dtd"
   xmlns:xlink="http://www.w3.org/1999/xlink"
   xmlns="http://www.w3.org/2000/svg"
   xmlns:svg="http://www.w3.org/2000/svg"
   xmlns:rdf="http://www.w3.org/1999/02/22-rdf-syntax-ns#"
   xmlns:cc="http://creativecommons.org/ns#"
   xmlns:dc="http://purl.org/dc/elements/1.1/"><title
     id="title7895">Antu icon Theme</title><defs
     id="defs2"><linearGradient
       inkscape:collect="always"
       id="linearGradient1808"><stop
         style="stop-color:#2091f2;stop-opacity:1;"
         offset="0"
         id="stop1804" /><stop
         style="stop-color:#24b2ff;stop-opacity:1;"
         offset="1"
         id="stop1806" /></linearGradient><style
       id="current-color-scheme"
       type="text/css">
      .ColorScheme-Text {
        color:#122036;
      }
      </style><style
       id="current-color-scheme-2"
       type="text/css">
      .ColorScheme-Text {
        color:#122036;
      }
      </style><linearGradient
       inkscape:collect="always"
       xlink:href="#linearGradient1808"
       id="linearGradient1810"
       x1="-68"
       y1="316.64999"
       x2="-68"
       y2="288.64999"
       gradientUnits="userSpaceOnUse" /></defs><sodipodi:namedview
     id="base"
     pagecolor="#ffffff"
     bordercolor="#666666"
     borderopacity="1.0"
     inkscape:pageopacity="0.0"
     inkscape:pageshadow="2"
     inkscape:zoom="16"
     inkscape:cx="27.03125"
     inkscape:cy="18.90625"
     inkscape:document-units="px"
     inkscape:current-layer="g5248"
     showgrid="true"
     units="px"
     inkscape:window-width="2160"
     inkscape:window-height="1335"
     inkscape:window-x="0"
     inkscape:window-y="0"
     inkscape:window-maximized="1"
     objecttolerance="10"
     gridtolerance="10"
     guidetolerance="10"
     inkscape:snap-bbox="true"
     inkscape:bbox-nodes="true"
     inkscape:showpageshadow="false"
     inkscape:bbox-paths="true"
     inkscape:snap-bbox-edge-midpoints="true"
     inkscape:snap-bbox-midpoints="true"
     inkscape:object-paths="true"
     inkscape:snap-intersection-paths="true"
     inkscape:object-nodes="false"
     inkscape:snap-smooth-nodes="false"
     inkscape:snap-midpoints="false"
     inkscape:pagecheckerboard="0"
     inkscape:deskcolor="#d1d1d1"><inkscape:grid
       type="xygrid"
       id="grid7897"
       empspacing="4" /></sodipodi:namedview><metadata
     id="metadata5"><rdf:RDF><cc:Work
         rdf:about=""><dc:format>image/svg+xml</dc:format><dc:type
           rdf:resource="http://purl.org/dc/dcmitype/StillImage" /><dc:title>Antu icon Theme</dc:title></cc:Work></rdf:RDF></metadata><g
     inkscape:label="Capa 1"
     inkscape:groupmode="layer"
     id="layer1"
     transform="translate(0,-282.64999)"><g
       id="g5248"
       transform="translate(84,-4)"><path
         id="rect843"
         d="m -81,287.64999 25.999999,0 C -53.892,287.64999 -53,288.542 -53,289.65 l 0,25.99998 c 0,1.108 -0.892,2.00001 -2.000001,2.00001 l -25.999999,0 c -1.108,0 -2,-0.89201 -2,-2.00001 L -83,289.65 c 0,-1.108 0.892,-2.00001 2,-2.00001 z"
         style="opacity:1;fill:#1972bf;fill-opacity:1;stroke:none;stroke-width:2.39314151;stroke-linecap:round;stroke-linejoin:round;stroke-miterlimit:4;stroke-dasharray:none;stroke-opacity:1"
         inkscape:connector-curvature="0" /><path
         id="rect843-3"
         d="m -81,288.64999 c -0.554,0 -1,0.446 -1,1 v 26 c 0,0.55397 0.446,1 1,1 h 26 c 0.554001,0 1,-0.44603 1,-1 v -26 c 0,-0.554 -0.445999,-1 -1,-1 z"
         style="opacity:1;fill:url(#linearGradient1810);fill-opacity:1;stroke:none;stroke-width:2.2336;stroke-linecap:round;stroke-linejoin:round;stroke-miterlimit:4;stroke-dasharray:none;stroke-opacity:1"
         inkscape:connector-curvature="0"
         sodipodi:nodetypes="sssssssss" /><path
         id="rect509-1"
         style="fill:#1972bf;fill-opacity:1;stroke:none;stroke-width:2;stroke-linecap:round;stroke-linejoin:round;stroke-miterlimit:1.8;paint-order:fill markers stroke;stop-color:#000000"
         d="m -78,293.64999 v 9 h 9 v -9 z m 11,0 v 9 h 9 v -9 z m -9,2 h 5 v 5 h -5 z m -2,9 v 9 h 9 v -9 z m 11,0 v 9 h 9 v -9 z m 2,2 h 5 v 5 h -5 z" /><path
         id="rect509"
         style="fill:#ffffff;fill-opacity:1;stroke:none;stroke-width:2;stroke-linecap:round;stroke-linejoin:round;stroke-miterlimit:1.8;paint-order:fill markers stroke;stop-color:#000000"
         d="M -78 292.64999 L -78 301.64999 L -69 301.64999 L -69 292.64999 L -78 292.64999 z M -67 292.64999 L -67 301.64999 L -58 301.64999 L -58 292.64999 L -67 292.64999 z M -76 294.64999 L -71 294.64999 L -71 299.64999 L -76 299.64999 L -76 294.64999 z M -78 303.64999 L -78 312.64999 L -69 312.64999 L -69 303.64999 L -78 303.64999 z M -67 303.64999 L -67 312.64999 L -58 312.64999 L -58 303.64999 L -67 303.64999 z M -65 305.64999 L -60 305.64999 L -60 310.64999 L -65 310.64999 L -65 305.64999 z " /></g></g></svg>
