<?xml version="1.0" encoding="UTF-8" standalone="no"?>
<!-- Created with Inkscape (http://www.inkscape.org/) -->

<svg
   xmlns:dc="http://purl.org/dc/elements/1.1/"
   xmlns:cc="http://creativecommons.org/ns#"
   xmlns:rdf="http://www.w3.org/1999/02/22-rdf-syntax-ns#"
   xmlns:svg="http://www.w3.org/2000/svg"
   xmlns="http://www.w3.org/2000/svg"
   xmlns:xlink="http://www.w3.org/1999/xlink"
   xmlns:sodipodi="http://sodipodi.sourceforge.net/DTD/sodipodi-0.dtd"
   xmlns:inkscape="http://www.inkscape.org/namespaces/inkscape"
   width="32"
   height="32"
   viewBox="0 0 32 32"
   version="1.1"
   id="svg8"
   inkscape:version="0.91 r13725"
   sodipodi:docname="applications-education-science.svg">
  <title
     id="title7895">Antu icon Theme</title>
  <defs
     id="defs2">
    <linearGradient
       inkscape:collect="always"
       id="linearGradient4331">
      <stop
         style="stop-color:#157367;stop-opacity:1;"
         offset="0"
         id="stop4333" />
      <stop
         style="stop-color:#1a8c7e;stop-opacity:1"
         offset="1"
         id="stop4335" />
    </linearGradient>
    <linearGradient
       inkscape:collect="always"
       id="linearGradient4323">
      <stop
         style="stop-color:#c19e72;stop-opacity:1;"
         offset="0"
         id="stop4325" />
      <stop
         style="stop-color:#d6af7f;stop-opacity:1"
         offset="1"
         id="stop4327" />
    </linearGradient>
    <linearGradient
       inkscape:collect="always"
       xlink:href="#linearGradient4323"
       id="linearGradient4329"
       x1="-9"
       y1="318.64999"
       x2="-9"
       y2="294.64999"
       gradientUnits="userSpaceOnUse" />
    <linearGradient
       inkscape:collect="always"
       xlink:href="#linearGradient4331"
       id="linearGradient4337"
       x1="-9"
       y1="315.64999"
       x2="-9"
       y2="297.64999"
       gradientUnits="userSpaceOnUse" />
  </defs>
  <sodipodi:namedview
     id="base"
     pagecolor="#ffffff"
     bordercolor="#666666"
     borderopacity="1.0"
     inkscape:pageopacity="0.0"
     inkscape:pageshadow="2"
     inkscape:zoom="1"
     inkscape:cx="72.82255"
     inkscape:cy="78.609191"
     inkscape:document-units="px"
     inkscape:current-layer="g2369"
     showgrid="true"
     units="px"
     inkscape:window-width="1360"
     inkscape:window-height="697"
     inkscape:window-x="0"
     inkscape:window-y="0"
     inkscape:window-maximized="1"
     objecttolerance="10"
     gridtolerance="10"
     guidetolerance="10"
     inkscape:snap-bbox="true"
     inkscape:bbox-paths="true"
     inkscape:bbox-nodes="true"
     inkscape:snap-bbox-edge-midpoints="true"
     inkscape:snap-bbox-midpoints="true"
     inkscape:snap-intersection-paths="true"
     inkscape:object-nodes="true"
     inkscape:object-paths="true">
    <inkscape:grid
       type="xygrid"
       id="grid7897"
       empspacing="4" />
  </sodipodi:namedview>
  <metadata
     id="metadata5">
    <rdf:RDF>
      <cc:Work
         rdf:about="">
        <dc:format>image/svg+xml</dc:format>
        <dc:type
           rdf:resource="http://purl.org/dc/dcmitype/StillImage" />
        <dc:title>Antu icon Theme</dc:title>
      </cc:Work>
    </rdf:RDF>
  </metadata>
  <g
     inkscape:label="Capa 1"
     inkscape:groupmode="layer"
     id="layer1"
     transform="translate(0,-282.64999)">
    <g
       id="g2369"
       transform="translate(25,-8)">
      <path
         id="path12329"
         d="m -24,292.64999 c -0.55401,0 -1,0.446 -1,1 v 26 c 0,0.554 0.44599,1 1,1 H 6 c 0.55401,0 1,-0.446 1,-1 v -26 c 0,-0.554 -0.44599,-1 -1,-1 h -14 -3 z"
         style="fill:#80684b;fill-opacity:1;stroke-width:1.00000012"
         inkscape:connector-curvature="0" />
      <path
         style="opacity:1;fill:url(#linearGradient4329);fill-opacity:1;stroke:none;stroke-width:2;stroke-linecap:round;stroke-linejoin:round;stroke-miterlimit:4;stroke-dasharray:none;stroke-dashoffset:0;stroke-opacity:1"
         d="m -24,293.64999 30,0 0,26 -30,0 z"
         id="rect4209" />
      <path
         style="opacity:1;fill:#80684b;fill-opacity:1;stroke:none;stroke-width:2;stroke-linecap:round;stroke-linejoin:round;stroke-miterlimit:4;stroke-dasharray:none;stroke-dashoffset:0;stroke-opacity:1"
         d="m -22,295.64999 26,0 0,22 -26,0 z"
         id="rect4211" />
      <path
         style="opacity:1;fill:url(#linearGradient4337);fill-opacity:1;stroke:none;stroke-width:2;stroke-linecap:round;stroke-linejoin:round;stroke-miterlimit:4;stroke-dasharray:none;stroke-dashoffset:0;stroke-opacity:1"
         d="m -21,296.64999 24,0 0,20 -24,0 z"
         id="rect4213" />
      <path
         style="color:#000000;font-style:normal;font-variant:normal;font-weight:normal;font-stretch:normal;font-size:medium;line-height:normal;font-family:sans-serif;text-indent:0;text-align:start;text-decoration:none;text-decoration-line:none;text-decoration-style:solid;text-decoration-color:#000000;letter-spacing:normal;word-spacing:normal;text-transform:none;direction:ltr;block-progression:tb;writing-mode:lr-tb;baseline-shift:baseline;text-anchor:start;white-space:normal;clip-rule:nonzero;display:inline;overflow:visible;visibility:visible;opacity:1;isolation:auto;mix-blend-mode:normal;color-interpolation:sRGB;color-interpolation-filters:linearRGB;solid-color:#000000;solid-opacity:1;fill:#0e4d45;fill-opacity:1;fill-rule:evenodd;stroke:none;stroke-width:2;stroke-linecap:round;stroke-linejoin:round;stroke-miterlimit:4;stroke-dasharray:none;stroke-dashoffset:0;stroke-opacity:1;color-rendering:auto;image-rendering:auto;shape-rendering:auto;text-rendering:auto;enable-background:accumulate"
         d="M -14.015625,299.63607 A 1.0001,1.0001 0 0 0 -15,300.64975 c 0,1.5 -0.04242,3.37308 0.714844,5.03906 0.347261,0.76398 0.9159,1.4421 1.685547,1.96094 -0.769809,0.51885 -1.338239,1.19685 -1.685547,1.96093 C -15.042422,311.27666 -15,313.14975 -15,314.64975 a 1.0001,1.0001 0 1 0 2,0 l 8,0 a 1.0001,1.0001 0 1 0 2,0 c 0,-1.5 0.042422,-3.37309 -0.714844,-5.03907 -0.347308,-0.76408 -0.915738,-1.44208 -1.685547,-1.96093 0.769647,-0.51884 1.338286,-1.19696 1.685547,-1.96094 C -2.957578,304.02283 -3,302.14975 -3,300.64975 A 1.0001,1.0001 0 0 0 -4.015625,299.63607 1.0001,1.0001 0 0 0 -5,300.64975 l -8,0 a 1.0001,1.0001 0 0 0 -1.015625,-1.01368 z m 1.027344,2.01368 7.976562,0 c -0.00851,0.33849 -0.028675,0.67084 -0.054687,1 l -7.867188,0 c -0.02601,-0.32916 -0.04618,-0.66151 -0.05469,-1 z m 0.185547,2 7.605468,0 c -0.063977,0.35767 -0.142774,0.69917 -0.257812,1 l -7.089844,0 c -0.115038,-0.30083 -0.193835,-0.64233 -0.257812,-1 z m 0.822265,2 5.960938,0 c -0.523305,0.62256 -1.353077,1 -2.980469,1 -1.627392,0 -2.457164,-0.37744 -2.980469,-1 z m 2.980469,3 c 1.627392,0 2.457164,0.37743 2.980469,1 l -5.960938,0 c 0.523305,-0.62257 1.353077,-1 2.980469,-1 z m -3.544922,2 7.089844,0 c 0.115198,0.30103 0.193775,0.64199 0.257812,1 l -7.605468,0 c 0.06404,-0.35801 0.142613,-0.69897 0.257812,-1 z m -0.388672,2 7.867188,0 c 0.026012,0.32915 0.04618,0.6615 0.054687,1 l -7.976562,0 c 0.0085,-0.3385 0.02867,-0.67085 0.05469,-1 z"
         id="path4193"
         inkscape:connector-curvature="0" />
      <path
         style="color:#000000;font-style:normal;font-variant:normal;font-weight:normal;font-stretch:normal;font-size:medium;line-height:normal;font-family:sans-serif;text-indent:0;text-align:start;text-decoration:none;text-decoration-line:none;text-decoration-style:solid;text-decoration-color:#000000;letter-spacing:normal;word-spacing:normal;text-transform:none;direction:ltr;block-progression:tb;writing-mode:lr-tb;baseline-shift:baseline;text-anchor:start;white-space:normal;clip-rule:nonzero;display:inline;overflow:visible;visibility:visible;opacity:1;isolation:auto;mix-blend-mode:normal;color-interpolation:sRGB;color-interpolation-filters:linearRGB;solid-color:#000000;solid-opacity:1;fill:#ffffff;fill-opacity:1;fill-rule:evenodd;stroke:none;stroke-width:2;stroke-linecap:round;stroke-linejoin:round;stroke-miterlimit:4;stroke-dasharray:none;stroke-dashoffset:0;stroke-opacity:1;color-rendering:auto;image-rendering:auto;shape-rendering:auto;text-rendering:auto;enable-background:accumulate"
         d="M -14.015625,298.63609 A 1.0001,1.0001 0 0 0 -15,299.64977 c 0,1.5 -0.04242,3.37308 0.714844,5.03906 0.347261,0.76398 0.9159,1.4421 1.685547,1.96094 -0.769809,0.51885 -1.338239,1.19685 -1.685547,1.96093 C -15.042422,310.27668 -15,312.14977 -15,313.64977 a 1.0001,1.0001 0 1 0 2,0 l 8,0 a 1.0001,1.0001 0 1 0 2,0 c 0,-1.5 0.04242,-3.37309 -0.714844,-5.03907 -0.347308,-0.76408 -0.915738,-1.44208 -1.685547,-1.96093 0.769647,-0.51884 1.338286,-1.19696 1.685547,-1.96094 C -2.957578,303.02285 -3,301.14977 -3,299.64977 A 1.0001,1.0001 0 0 0 -4.015625,298.63609 1.0001,1.0001 0 0 0 -5,299.64977 l -8,0 a 1.0001,1.0001 0 0 0 -1.015625,-1.01368 z m 1.027344,2.01368 7.976562,0 c -0.0085,0.33849 -0.02867,0.67084 -0.05469,1 l -7.867188,0 c -0.02601,-0.32916 -0.04618,-0.66151 -0.05469,-1 z m 0.185547,2 7.605468,0 c -0.06398,0.35767 -0.142774,0.69917 -0.257812,1 l -7.089844,0 c -0.115038,-0.30083 -0.193835,-0.64233 -0.257812,-1 z m 0.822265,2 5.960938,0 c -0.523305,0.62256 -1.353077,1 -2.980469,1 -1.627392,0 -2.457164,-0.37744 -2.980469,-1 z m 2.980469,3 c 1.627392,0 2.457164,0.37743 2.980469,1 l -5.960938,0 c 0.523305,-0.62257 1.353077,-1 2.980469,-1 z m -3.544922,2 7.089844,0 c 0.115198,0.30103 0.193775,0.64199 0.257812,1 l -7.605468,0 c 0.06404,-0.35801 0.142613,-0.69897 0.257812,-1 z m -0.388672,2 7.867188,0 c 0.02601,0.32915 0.04618,0.6615 0.05469,1 l -7.976562,0 c 0.0085,-0.3385 0.02867,-0.67085 0.05469,-1 z"
         id="path4193-9"
         inkscape:connector-curvature="0" />
    </g>
  </g>
</svg>
