<?xml version="1.0" encoding="UTF-8" standalone="no"?>
<!-- Created with Inkscape (http://www.inkscape.org/) -->

<svg
   xmlns:dc="http://purl.org/dc/elements/1.1/"
   xmlns:cc="http://creativecommons.org/ns#"
   xmlns:rdf="http://www.w3.org/1999/02/22-rdf-syntax-ns#"
   xmlns:svg="http://www.w3.org/2000/svg"
   xmlns="http://www.w3.org/2000/svg"
   xmlns:xlink="http://www.w3.org/1999/xlink"
   xmlns:sodipodi="http://sodipodi.sourceforge.net/DTD/sodipodi-0.dtd"
   xmlns:inkscape="http://www.inkscape.org/namespaces/inkscape"
   width="32"
   height="32"
   viewBox="0 0 32 32"
   version="1.1"
   id="svg8"
   inkscape:version="0.91 r13725"
   sodipodi:docname="applications-education-language.svg">
  <title
     id="title7895">Antu icon Theme</title>
  <defs
     id="defs2">
    <linearGradient
       inkscape:collect="always"
       id="linearGradient4331">
      <stop
         style="stop-color:#157367;stop-opacity:1;"
         offset="0"
         id="stop4333" />
      <stop
         style="stop-color:#1a8c7e;stop-opacity:1"
         offset="1"
         id="stop4335" />
    </linearGradient>
    <linearGradient
       inkscape:collect="always"
       id="linearGradient4323">
      <stop
         style="stop-color:#c19e72;stop-opacity:1;"
         offset="0"
         id="stop4325" />
      <stop
         style="stop-color:#d6af7f;stop-opacity:1"
         offset="1"
         id="stop4327" />
    </linearGradient>
    <linearGradient
       inkscape:collect="always"
       xlink:href="#linearGradient4323"
       id="linearGradient4329"
       x1="-9"
       y1="318.64999"
       x2="-9"
       y2="294.64999"
       gradientUnits="userSpaceOnUse" />
    <linearGradient
       inkscape:collect="always"
       xlink:href="#linearGradient4331"
       id="linearGradient4337"
       x1="-9"
       y1="315.64999"
       x2="-9"
       y2="297.64999"
       gradientUnits="userSpaceOnUse" />
  </defs>
  <sodipodi:namedview
     id="base"
     pagecolor="#ffffff"
     bordercolor="#666666"
     borderopacity="1.0"
     inkscape:pageopacity="0.0"
     inkscape:pageshadow="2"
     inkscape:zoom="1"
     inkscape:cx="197.60381"
     inkscape:cy="72.45845"
     inkscape:document-units="px"
     inkscape:current-layer="g2369"
     showgrid="true"
     units="px"
     inkscape:window-width="1360"
     inkscape:window-height="697"
     inkscape:window-x="0"
     inkscape:window-y="0"
     inkscape:window-maximized="1"
     objecttolerance="10"
     gridtolerance="10"
     guidetolerance="10"
     inkscape:snap-bbox="true"
     inkscape:bbox-paths="true"
     inkscape:bbox-nodes="true"
     inkscape:snap-bbox-edge-midpoints="true"
     inkscape:snap-bbox-midpoints="true"
     inkscape:snap-intersection-paths="true"
     inkscape:object-nodes="true"
     inkscape:object-paths="true">
    <inkscape:grid
       type="xygrid"
       id="grid7897"
       empspacing="4" />
  </sodipodi:namedview>
  <metadata
     id="metadata5">
    <rdf:RDF>
      <cc:Work
         rdf:about="">
        <dc:format>image/svg+xml</dc:format>
        <dc:type
           rdf:resource="http://purl.org/dc/dcmitype/StillImage" />
        <dc:title>Antu icon Theme</dc:title>
      </cc:Work>
    </rdf:RDF>
  </metadata>
  <g
     inkscape:label="Capa 1"
     inkscape:groupmode="layer"
     id="layer1"
     transform="translate(0,-282.64999)">
    <g
       id="g2369"
       transform="translate(25,-8)">
      <path
         id="path12329"
         d="m -24,292.64999 c -0.55401,0 -1,0.446 -1,1 v 26 c 0,0.554 0.44599,1 1,1 H 6 c 0.55401,0 1,-0.446 1,-1 v -26 c 0,-0.554 -0.44599,-1 -1,-1 h -14 -3 z"
         style="fill:#80684b;fill-opacity:1;stroke-width:1.00000012"
         inkscape:connector-curvature="0" />
      <path
         style="opacity:1;fill:url(#linearGradient4329);fill-opacity:1;stroke:none;stroke-width:2;stroke-linecap:round;stroke-linejoin:round;stroke-miterlimit:4;stroke-dasharray:none;stroke-dashoffset:0;stroke-opacity:1"
         d="m -24,293.64999 30,0 0,26 -30,0 z"
         id="rect4209" />
      <path
         style="opacity:1;fill:#80684b;fill-opacity:1;stroke:none;stroke-width:2;stroke-linecap:round;stroke-linejoin:round;stroke-miterlimit:4;stroke-dasharray:none;stroke-dashoffset:0;stroke-opacity:1"
         d="m -22,295.64999 26,0 0,22 -26,0 z"
         id="rect4211" />
      <path
         style="opacity:1;fill:url(#linearGradient4337);fill-opacity:1;stroke:none;stroke-width:2;stroke-linecap:round;stroke-linejoin:round;stroke-miterlimit:4;stroke-dasharray:none;stroke-dashoffset:0;stroke-opacity:1"
         d="m -21,296.64999 24,0 0,20 -24,0 z"
         id="rect4213" />
      <g
         transform="matrix(3.7795274,0,0,3.7795272,-62.999998,-784.36954)"
         id="layer1-3"
         inkscape:label="Capa 1">
        <path
           style="fill:#0e4d45;fill-opacity:1;stroke:none;stroke-width:0.26458335px;stroke-linecap:butt;stroke-linejoin:miter;stroke-opacity:1"
           d="m 12.7,286.81352 -1.322917,3.175 0.79375,0.26459 0.264583,-0.79375 1.587501,0 0.264583,0.79375 0.79375,-0.26459 -1.322917,-3.175 z m 0.529166,0.79375 0.529167,1.05834 -1.058333,0 z"
           id="path4764-3"
           inkscape:connector-curvature="0"
           sodipodi:nodetypes="ccccccccccccc" />
        <path
           sodipodi:nodetypes="ccccccccccccc"
           inkscape:connector-curvature="0"
           id="path4764"
           d="m 12.7,286.54894 -1.322917,3.175 0.79375,0.26459 0.264584,-0.79375 1.587501,0 0.264583,0.79375 0.79375,-0.26459 -1.322917,-3.175 z m 0.529167,0.79375 0.529167,1.05834 -1.058334,0 z"
           style="fill:#ffffff;fill-opacity:1;stroke:none;stroke-width:0.26458335px;stroke-linecap:butt;stroke-linejoin:miter;stroke-opacity:1" />
        <path
           style="opacity:1;fill:#0e4d45;fill-opacity:1;stroke:none;stroke-width:0.27543125;stroke-linecap:round;stroke-linejoin:round;stroke-miterlimit:4;stroke-dasharray:none;stroke-opacity:1"
           d="m 15.610417,287.60729 0,0.26458 -0.529167,0 -0.264583,0 0,0.26458 0,0.26459 0,0.26458 0,0.26458 0,0.26459 0,0.52916 0.264583,0 1.852085,0 0,0.52917 -0.529167,0 0,-0.26459 -0.264583,0 0,0.26459 -0.264584,0 0,-0.26459 -0.264584,0 0,0.26459 -0.529167,0 0,-0.26459 -0.264583,0 0,0.26459 0,0.26458 0,0.26458 0.264583,0 0,-0.26458 1.852085,0 0,0.26458 -0.529167,0 0,0.26459 0.79375,0 0,-0.26459 0,-1.32291 -2.116668,0 0,-0.26459 2.116668,0 0,-0.26458 0,-0.79375 0,-0.26458 -1.322917,0 0,-0.26458 z m -0.529167,0.52916 1.852085,0 0,0.26459 -1.852085,0 z m 0,0.52917 1.852085,0 0,0.26458 -1.852085,0 z m 0,0.52917 1.852085,0 0,-0.26459 -1.852085,0 z"
           id="rect4710-6"
           inkscape:connector-curvature="0"
           sodipodi:nodetypes="cccccccccccccccccccccccccccccccccccccccccccccccccccccccccccc" />
        <path
           style="opacity:1;fill:#ffffff;fill-opacity:1;stroke:none;stroke-width:0.27543125;stroke-linecap:round;stroke-linejoin:round;stroke-miterlimit:4;stroke-dasharray:none;stroke-opacity:1"
           d="m 15.610417,287.34271 0,0.26458 -0.529167,0 -0.264583,0 0,0.26458 0,0.26459 0,0.26458 0,0.26458 0,0.26459 0,0.52916 0.264583,0 1.852085,0 0,0.52917 -0.529167,0 0,-0.26459 -0.264583,0 0,0.26459 -0.264584,0 0,-0.26459 -0.264584,0 0,0.26459 -0.529167,0 0,-0.26459 -0.264583,0 0,0.26459 0,0.26458 0,0.26458 0.264583,0 0,-0.26458 1.852085,0 0,0.26458 -0.529167,0 0,0.26459 0.79375,0 0,-0.26459 0,-1.32291 -2.116668,0 0,-0.26459 2.116668,0 0,-0.26458 0,-0.79375 0,-0.26458 -1.322917,0 0,-0.26458 z m -0.529167,0.52916 1.852085,0 0,0.26459 -1.852085,0 z m 0,0.52917 1.852085,0 0,0.26458 -1.852085,0 z m 0,0.52917 1.852085,0 0,-0.26459 -1.852085,0 z"
           id="rect4710-6-5"
           inkscape:connector-curvature="0"
           sodipodi:nodetypes="cccccccccccccccccccccccccccccccccccccccccccccccccccccccccccc" />
      </g>
    </g>
  </g>
</svg>
