<?xml version="1.0" encoding="UTF-8" standalone="no"?>
<!-- Created with Inkscape (http://www.inkscape.org/) -->

<svg
   xmlns:dc="http://purl.org/dc/elements/1.1/"
   xmlns:cc="http://creativecommons.org/ns#"
   xmlns:rdf="http://www.w3.org/1999/02/22-rdf-syntax-ns#"
   xmlns:svg="http://www.w3.org/2000/svg"
   xmlns="http://www.w3.org/2000/svg"
   xmlns:xlink="http://www.w3.org/1999/xlink"
   xmlns:sodipodi="http://sodipodi.sourceforge.net/DTD/sodipodi-0.dtd"
   xmlns:inkscape="http://www.inkscape.org/namespaces/inkscape"
   width="32"
   height="32"
   viewBox="0 0 32 32"
   version="1.1"
   id="svg8"
   inkscape:version="0.91 r13725"
   sodipodi:docname="applications-development-translation.svg">
  <title
     id="title7895">Antu icon Theme</title>
  <defs
     id="defs2">
    <linearGradient
       gradientTransform="translate(26,-5)"
       inkscape:collect="always"
       xlink:href="#linearGradient1492"
       id="linearGradient1494"
       x1="-13"
       y1="294.64999"
       x2="-13"
       y2="290.64999"
       gradientUnits="userSpaceOnUse" />
    <linearGradient
       inkscape:collect="always"
       id="linearGradient1492">
      <stop
         style="stop-color:#4c4c4c;stop-opacity:1;"
         offset="0"
         id="stop1488" />
      <stop
         style="stop-color:#595959;stop-opacity:1"
         offset="1"
         id="stop1490" />
    </linearGradient>
    <linearGradient
       gradientTransform="translate(0,282.64999)"
       inkscape:collect="always"
       xlink:href="#linearGradient4902"
       id="linearGradient1510"
       x1="24"
       y1="29"
       x2="24"
       y2="8"
       gradientUnits="userSpaceOnUse" />
    <linearGradient
       gradientTransform="translate(0,282.64999)"
       inkscape:collect="always"
       xlink:href="#linearGradient1500"
       id="linearGradient1502"
       x1="8"
       y1="28"
       x2="8"
       y2="9"
       gradientUnits="userSpaceOnUse" />
    <linearGradient
       inkscape:collect="always"
       id="linearGradient1500">
      <stop
         style="stop-color:#262626;stop-opacity:1"
         offset="0"
         id="stop1496" />
      <stop
         style="stop-color:#333333;stop-opacity:1"
         offset="1"
         id="stop1498" />
    </linearGradient>
    <linearGradient
       id="linearGradient4902"
       inkscape:collect="always">
      <stop
         id="stop4898"
         offset="0"
         style="stop-color:#0d72ec;stop-opacity:1" />
      <stop
         id="stop4900"
         offset="1"
         style="stop-color:#36b2fb;stop-opacity:1" />
    </linearGradient>
  </defs>
  <sodipodi:namedview
     id="base"
     pagecolor="#ffffff"
     bordercolor="#666666"
     borderopacity="1.0"
     inkscape:pageopacity="0.0"
     inkscape:pageshadow="2"
     inkscape:zoom="1"
     inkscape:cx="-266.88886"
     inkscape:cy="116.86262"
     inkscape:document-units="px"
     inkscape:current-layer="layer1"
     showgrid="false"
     units="px"
     inkscape:window-width="1360"
     inkscape:window-height="697"
     inkscape:window-x="0"
     inkscape:window-y="0"
     inkscape:window-maximized="1"
     objecttolerance="10"
     gridtolerance="10"
     guidetolerance="10"
     inkscape:snap-bbox="true"
     inkscape:bbox-paths="true"
     inkscape:snap-bbox-edge-midpoints="true"
     inkscape:snap-bbox-midpoints="true"
     inkscape:bbox-nodes="true"
     inkscape:object-paths="true"
     inkscape:object-nodes="true">
    <inkscape:grid
       type="xygrid"
       id="grid7897"
       empspacing="4" />
  </sodipodi:namedview>
  <metadata
     id="metadata5">
    <rdf:RDF>
      <cc:Work
         rdf:about="">
        <dc:format>image/svg+xml</dc:format>
        <dc:type
           rdf:resource="http://purl.org/dc/dcmitype/StillImage" />
        <dc:title>Antu icon Theme</dc:title>
      </cc:Work>
    </rdf:RDF>
  </metadata>
  <g
     inkscape:label="Capa 1"
     inkscape:groupmode="layer"
     id="layer1"
     transform="translate(0,-282.64999)">
    <path
       inkscape:connector-curvature="0"
       style="fill:#1a1a1a;fill-opacity:1;stroke-width:1.00000012"
       d="m 1,284.64999 c -0.55401,0 -1,0.446 -1,1 l 0,26 c 0,0.554 0.44599,1 1,1 l 30,0 c 0.55401,0 1,-0.446 1,-1 l 0,-26 c 0,-0.554 -0.44599,-1 -1,-1 l -14,0 -3,0 z"
       id="path12329" />
    <path
       style="fill:url(#linearGradient1502);fill-opacity:1;stroke-width:1.00000012"
       d="m 1,290.64999 0,21 13,0 0,-21 z"
       id="path1011"
       inkscape:connector-curvature="0"
       sodipodi:nodetypes="ccccc" />
    <path
       style="fill:url(#linearGradient1510);fill-opacity:1;stroke-width:1.00000012"
       d="m 15,290.64999 0,21 16,0 0,-21 z"
       id="path13-5-2-9-4-2-6-6"
       inkscape:connector-curvature="0"
       sodipodi:nodetypes="ccccc" />
    <path
       inkscape:connector-curvature="0"
       style="fill:url(#linearGradient1494);fill-opacity:1;stroke:none;stroke-width:0.40000001;stroke-linecap:round;stroke-linejoin:round;stroke-miterlimit:4;stroke-dasharray:none;stroke-opacity:1"
       d="m 1,285.64999 0,4 30,0 0,-4 z"
       id="rect4537-2"
       sodipodi:nodetypes="ccccc" />
    <path
       style="opacity:1;fill:#f5f5f5;fill-opacity:1;stroke:none;stroke-width:6;stroke-linecap:round;stroke-linejoin:round;stroke-miterlimit:4;stroke-dasharray:none;stroke-dashoffset:0;stroke-opacity:1;paint-order:stroke markers fill"
       d="M 3 10 L 3 11 L 2 11 L 2 12 L 3 12 L 3 13 L 2 13 L 2 14 L 3 14 L 3 15 L 4 15 L 4 14 L 5 14 L 5 15 L 6 15 L 6 14 L 7 14 L 7 13 L 6 13 L 6 12 L 7 12 L 7 11 L 6 11 L 6 10 L 5 10 L 5 11 L 4 11 L 4 10 L 3 10 z M 4 12 L 5 12 L 5 13 L 4 13 L 4 12 z M 8 14 L 8 15 L 12 15 L 12 14 L 8 14 z "
       transform="translate(0,282.64999)"
       id="rect1017" />
    <g
       transform="matrix(3.7795274,0,0,3.7795272,-15.392856,-806.33384)"
       id="layer1-0"
       inkscape:label="Capa 1">
      <path
         style="opacity:1;fill:#0e44b2;fill-opacity:1;stroke:none;stroke-width:0.27543125;stroke-linecap:round;stroke-linejoin:round;stroke-miterlimit:4;stroke-dasharray:none;stroke-opacity:1"
         d="m 9.6289441,291.302 0,0.26458 -0.5291667,0 -0.2645834,0 0,0.26458 0,0.26459 0,0.26458 0,0.26458 0,0.26459 0,1.05833 0.2645834,0 2.1166666,0 0,0.52917 -0.529167,0 0,-0.26459 -0.264583,0 0,0.26459 -0.5291666,0 0,-0.26459 -0.2645833,0 0,0.26459 -0.5291667,0 0,-0.26459 -0.2645834,0 0,0.26459 0,0.26458 0,0.26458 0.2645834,0 0,-0.26458 2.1166666,0 0,0.26458 -0.529167,0 0,0.26459 0.79375,0 0,-0.26459 0,-1.32291 -2.3812496,0 0,-0.26459 2.3812496,0 0,-0.26458 0,-1.32292 0,-0.26458 -1.322916,0 0,-0.26458 z m -0.5291667,0.52916 2.1166666,0 0,0.26459 -2.1166666,0 z m 0,0.52917 2.1166666,0 0,0.26458 -2.1166666,0 z m 0,0.52917 2.1166666,0 0,0.26458 -2.1166666,0 z"
         id="rect4710-6-6"
         inkscape:connector-curvature="0" />
      <path
         style="opacity:1;fill:#e7f0f6;fill-opacity:1;stroke:none;stroke-width:0.27543125;stroke-linecap:round;stroke-linejoin:round;stroke-miterlimit:4;stroke-dasharray:none;stroke-opacity:1"
         d="m 9.628944,291.03741 0,0.26458 -0.5291667,0 -0.2645834,0 0,0.26458 0,0.26459 0,0.26458 0,0.26458 0,0.26459 0,1.05833 0.2645834,0 2.1166667,0 0,0.52917 -0.529167,0 0,-0.26459 -0.264583,0 0,0.26459 -0.5291667,0 0,-0.26459 -0.2645833,0 0,0.26459 -0.5291667,0 0,-0.26459 -0.2645834,0 0,0.26459 0,0.26458 0,0.26458 0.2645834,0 0,-0.26458 2.1166667,0 0,0.26458 -0.529167,0 0,0.26459 0.79375,0 0,-0.26459 0,-1.32291 -2.3812497,0 0,-0.26459 2.3812497,0 0,-0.26458 0,-1.32292 0,-0.26458 -1.322916,0 0,-0.26458 z m -0.5291667,0.52916 2.1166667,0 0,0.26459 -2.1166667,0 z m 0,0.52917 2.1166667,0 0,0.26458 -2.1166667,0 z m 0,0.52917 2.1166667,0 0,0.26458 -2.1166667,0 z"
         id="rect4710-6"
         inkscape:connector-curvature="0" />
    </g>
  </g>
</svg>
