<?xml version="1.0" encoding="UTF-8" standalone="no"?>
<!-- Created with Inkscape (http://www.inkscape.org/) -->

<svg
   width="128"
   height="128"
   viewBox="0 0 33.866665 33.866665"
   version="1.1"
   id="svg1399"
   inkscape:version="1.2 (dc2aedaf03, 2022-05-15)"
   sodipodi:docname="application-atom+xml.svg"
   xml:space="preserve"
   xmlns:inkscape="http://www.inkscape.org/namespaces/inkscape"
   xmlns:sodipodi="http://sodipodi.sourceforge.net/DTD/sodipodi-0.dtd"
   xmlns:xlink="http://www.w3.org/1999/xlink"
   xmlns="http://www.w3.org/2000/svg"
   xmlns:svg="http://www.w3.org/2000/svg"
   xmlns:rdf="http://www.w3.org/1999/02/22-rdf-syntax-ns#"
   xmlns:cc="http://creativecommons.org/ns#"
   xmlns:dc="http://purl.org/dc/elements/1.1/"><defs
     id="defs1393"><linearGradient
       inkscape:collect="always"
       xlink:href="#linearGradient4622"
       id="linearGradient951"
       x1="176"
       y1="282.64999"
       x2="176"
       y2="170.64999"
       gradientUnits="userSpaceOnUse"
       gradientTransform="matrix(0.26458332,0,0,0.26458332,-50.809568,225.17215)" /><linearGradient
       id="linearGradient4622"
       inkscape:collect="always"><stop
         id="stop4618"
         offset="0"
         style="stop-color:#ff6a3e;stop-opacity:1" /><stop
         id="stop4620"
         offset="1"
         style="stop-color:#ff9065;stop-opacity:1" /></linearGradient></defs><sodipodi:namedview
     id="base"
     pagecolor="#ffffff"
     bordercolor="#666666"
     borderopacity="1.0"
     inkscape:pageopacity="0.0"
     inkscape:pageshadow="2"
     inkscape:zoom="8"
     inkscape:cx="61.625"
     inkscape:cy="68.8125"
     inkscape:document-units="px"
     inkscape:current-layer="layer1"
     showgrid="true"
     inkscape:showpageshadow="false"
     units="px"
     inkscape:window-width="2160"
     inkscape:window-height="1337"
     inkscape:window-x="0"
     inkscape:window-y="0"
     inkscape:window-maximized="1"
     inkscape:pagecheckerboard="0"
     inkscape:deskcolor="#d1d1d1"><inkscape:grid
       type="xygrid"
       id="grid1324" /></sodipodi:namedview><metadata
     id="metadata1396"><rdf:RDF><cc:Work
         rdf:about=""><dc:format>image/svg+xml</dc:format><dc:type
           rdf:resource="http://purl.org/dc/dcmitype/StillImage" /></cc:Work></rdf:RDF></metadata><g
     inkscape:label="Capa 1"
     inkscape:groupmode="layer"
     id="layer1"
     transform="translate(0,-263.13338)"><g
       id="g4310"
       transform="translate(21.176236,-5.0732475)"><path
         id="rect928"
         d="M -16.678319,268.47121 H 8.1925129 c 1.172633,0 2.1166661,0.94403 2.1166661,2.11667 v 29.10416 c 0,1.17264 -0.9440331,2.11667 -2.1166661,2.11667 H -16.678319 c -1.172634,0 -2.116667,-0.94403 -2.116667,-2.11667 v -29.10416 c 0,-1.17264 0.944033,-2.11667 2.116667,-2.11667 z"
         style="opacity:1;vector-effect:none;fill:#dd4d25;fill-opacity:1;stroke:none;stroke-width:0.60079932;stroke-linecap:round;stroke-linejoin:round;stroke-miterlimit:4;stroke-dasharray:none;stroke-dashoffset:0;stroke-opacity:1"
         inkscape:connector-curvature="0" /><path
         id="rect928-2"
         d="M -16.678319,268.73579 H 8.1925129 c 1.026054,0 1.8520831,0.82603 1.8520831,1.85209 v 29.10416 c 0,1.02606 -0.8260291,1.85209 -1.8520831,1.85209 H -16.678319 c -1.026055,0 -1.852084,-0.82603 -1.852084,-1.85209 v -29.10416 c 0,-1.02606 0.826029,-1.85209 1.852084,-1.85209 z"
         style="opacity:1;vector-effect:none;fill:url(#linearGradient951);fill-opacity:1;stroke:none;stroke-width:0.60079932;stroke-linecap:round;stroke-linejoin:round;stroke-miterlimit:4;stroke-dasharray:none;stroke-dashoffset:0;stroke-opacity:1"
         inkscape:connector-curvature="0" /></g><g
       id="g3188"
       transform="translate(-5.77983,-3.8190753)" /><g
       id="g2789"
       transform="translate(-0.7937496)"><path
         id="rect1391-7"
         style="fill:#dd4d25;fill-opacity:1;stroke:none;stroke-width:0.503969;stroke-linecap:round;stroke-miterlimit:1.8;paint-order:fill markers stroke;stop-color:#000000"
         d="m 10.054166,272.39379 v 2.11667 a 13.758332,13.758332 0 0 1 13.758333,13.75833 h 2.116666 a 15.874999,15.874999 0 0 0 -15.874999,-15.875 z m 0,5.29167 v 2.11667 a 8.4666662,8.4666662 0 0 1 8.466666,8.46666 h 2.116667 A 10.583333,10.583333 0 0 0 10.054166,277.68546 Z m 2.116667,5.55625 c -1.46579,0 -2.6458338,1.18004 -2.6458338,2.64583 0,1.46579 1.1800438,2.64584 2.6458338,2.64584 1.46579,0 2.645833,-1.18005 2.645833,-2.64584 0,-1.46579 -1.180043,-2.64583 -2.645833,-2.64583 z" /><path
         id="rect1391"
         style="fill:#fff3f0;fill-opacity:1;stroke:none;stroke-width:0.503969;stroke-linecap:round;stroke-miterlimit:1.8;paint-order:fill markers stroke;stop-color:#000000"
         d="m 10.054166,272.12921 v 2.11667 a 13.758332,13.758332 0 0 1 13.758333,13.75833 h 2.116666 a 15.874999,15.874999 0 0 0 -15.874999,-15.875 z m 0,5.29167 v 2.11667 a 8.4666662,8.4666662 0 0 1 8.466666,8.46666 h 2.116667 A 10.583333,10.583333 0 0 0 10.054166,277.42088 Z m 2.116667,5.55625 c -1.46579,0 -2.6458335,1.18004 -2.6458335,2.64583 0,1.46579 1.1800435,2.64584 2.6458335,2.64584 1.46579,0 2.645833,-1.18005 2.645833,-2.64584 0,-1.46579 -1.180043,-2.64583 -2.645833,-2.64583 z" /></g></g></svg>
