<?xml version="1.0" encoding="UTF-8" standalone="no"?>
<!-- Created with Inkscape (http://www.inkscape.org/) -->

<svg
   xmlns:dc="http://purl.org/dc/elements/1.1/"
   xmlns:cc="http://creativecommons.org/ns#"
   xmlns:rdf="http://www.w3.org/1999/02/22-rdf-syntax-ns#"
   xmlns:svg="http://www.w3.org/2000/svg"
   xmlns="http://www.w3.org/2000/svg"
   xmlns:xlink="http://www.w3.org/1999/xlink"
   xmlns:sodipodi="http://sodipodi.sourceforge.net/DTD/sodipodi-0.dtd"
   xmlns:inkscape="http://www.inkscape.org/namespaces/inkscape"
   width="128"
   height="128"
   viewBox="0 0 33.866665 33.866665"
   version="1.1"
   id="svg1399"
   inkscape:version="0.92.4 5da689c313, 2019-01-14"
   sodipodi:docname="application-x-bittorrent.svg">
  <defs
     id="defs1393">
    <style
       type="text/css"
       id="current-color-scheme">
      .ColorScheme-Text {
        color:#122036;
      }
      </style>
    <style
       id="current-color-scheme-53"
       type="text/css">
      .ColorScheme-Text {
        color:#122036;
      }
      </style>
    <style
       type="text/css"
       id="current-color-scheme-5">
      .ColorScheme-Text {
        color:#122036;
      }
      </style>
    <style
       type="text/css"
       id="current-color-scheme-2">
      .ColorScheme-Text {
        color:#122036;
      }
      </style>
    <style
       type="text/css"
       id="current-color-scheme-1">
      .ColorScheme-Text {
        color:#122036;
      }
      </style>
    <style
       id="current-color-scheme-10"
       type="text/css">
      .ColorScheme-Text {
        color:#122036;
      }
      </style>
    <style
       type="text/css"
       id="current-color-scheme-0">
      .ColorScheme-Text {
        color:#122036;
      }
      </style>
    <style
       type="text/css"
       id="current-color-scheme-26">
      .ColorScheme-Text {
        color:#122036;
      }
      </style>
    <style
       type="text/css"
       id="current-color-scheme-7">
      .ColorScheme-Text {
        color:#122036;
      }
      </style>
    <linearGradient
       id="linearGradient4902-3"
       inkscape:collect="always">
      <stop
         id="stop4898-6"
         offset="0"
         style="stop-color:#5563b2;stop-opacity:1" />
      <stop
         id="stop4900-7"
         offset="1"
         style="stop-color:#7986cb;stop-opacity:1" />
    </linearGradient>
    <linearGradient
       inkscape:collect="always"
       xlink:href="#linearGradient4902-3"
       id="linearGradient1048"
       x1="-4.432611"
       y1="300.51651"
       x2="-4.432611"
       y2="270.08945"
       gradientUnits="userSpaceOnUse" />
  </defs>
  <sodipodi:namedview
     id="base"
     pagecolor="#ffffff"
     bordercolor="#666666"
     borderopacity="1.0"
     inkscape:pageopacity="0.0"
     inkscape:pageshadow="2"
     inkscape:zoom="5.6"
     inkscape:cx="91.700508"
     inkscape:cy="6.9940687"
     inkscape:document-units="px"
     inkscape:current-layer="g5139"
     showgrid="true"
     inkscape:showpageshadow="false"
     units="px"
     inkscape:window-width="1920"
     inkscape:window-height="1049"
     inkscape:window-x="0"
     inkscape:window-y="0"
     inkscape:window-maximized="1"
     inkscape:snap-bbox="true"
     inkscape:bbox-paths="true"
     inkscape:bbox-nodes="true"
     inkscape:snap-bbox-edge-midpoints="true"
     inkscape:snap-bbox-midpoints="true">
    <inkscape:grid
       type="xygrid"
       id="grid5179" />
  </sodipodi:namedview>
  <metadata
     id="metadata1396">
    <rdf:RDF>
      <cc:Work
         rdf:about="">
        <dc:format>image/svg+xml</dc:format>
        <dc:type
           rdf:resource="http://purl.org/dc/dcmitype/StillImage" />
        <dc:title></dc:title>
      </cc:Work>
    </rdf:RDF>
  </metadata>
  <g
     inkscape:label="Capa 1"
     inkscape:groupmode="layer"
     id="layer1"
     transform="translate(0,-263.13338)">
    <g
       id="g5139"
       transform="translate(20.30761,-4.8393875)">
      <path
         id="rect928"
         d="M -15.809694,268.23735 H 9.0611389 c 1.1726331,0 2.1166661,0.94403 2.1166661,2.11667 v 29.10416 c 0,1.17264 -0.944033,2.11667 -2.1166661,2.11667 H -15.809694 c -1.172633,0 -2.116666,-0.94403 -2.116666,-2.11667 v -29.10416 c 0,-1.17264 0.944033,-2.11667 2.116666,-2.11667 z"
         style="opacity:1;vector-effect:none;fill:#4a5599;fill-opacity:1;stroke:none;stroke-width:0.60079932;stroke-linecap:round;stroke-linejoin:round;stroke-miterlimit:4;stroke-dasharray:none;stroke-dashoffset:0;stroke-opacity:1"
         inkscape:connector-curvature="0" />
      <path
         id="rect928-2"
         d="M -15.809694,268.50193 H 9.0611389 c 1.0260541,0 1.8520831,0.82603 1.8520831,1.85209 v 29.10416 c 0,1.02606 -0.826029,1.85209 -1.8520831,1.85209 H -15.809694 c -1.026054,0 -1.852083,-0.82603 -1.852083,-1.85209 v -29.10416 c 0,-1.02606 0.826029,-1.85209 1.852083,-1.85209 z"
         style="opacity:1;vector-effect:none;fill:url(#linearGradient1048);fill-opacity:1;stroke:none;stroke-width:0.60079932;stroke-linecap:round;stroke-linejoin:round;stroke-miterlimit:4;stroke-dasharray:none;stroke-dashoffset:0;stroke-opacity:1"
         inkscape:connector-curvature="0" />
      <path
         style="opacity:1;vector-effect:none;fill:#4a5599;fill-opacity:1;stroke:none;stroke-width:0.30574077;stroke-linecap:round;stroke-linejoin:round;stroke-miterlimit:4;stroke-dasharray:none;stroke-dashoffset:0;stroke-opacity:1;paint-order:normal"
         d="m -4.0636411,282.78996 c -1.930665,-0.0281 -3.790498,0.72646 -5.155758,2.09186 -2.0431009,2.04304 -2.6543549,5.11562 -1.5487419,7.78505 1.1057029,2.66954 3.7106549,4.4101 6.6001129,4.41006 H 10.913222 v -1.32291 H -4.1680281 c -0.194148,5e-5 -0.388177,-0.01 -0.581359,-0.0289 -0.193056,-0.0195 -0.385015,-0.0487 -0.575159,-0.0873 -0.190207,-0.0385 -0.378373,-0.0864 -0.56379,-0.14366 -0.185283,-0.0573 -0.367583,-0.12392 -0.54622,-0.19946 -0.178779,-0.0756 -0.353664,-0.16012 -0.523999,-0.25321 -0.170326,-0.093 -0.335897,-0.19437 -0.496093,-0.30387 -0.16012,-0.10967 -0.314653,-0.2273 -0.463021,-0.35243 -0.148456,-0.12494 -0.290571,-0.25723 -0.425814,-0.39635 -0.135193,-0.13925 -0.263339,-0.28516 -0.383956,-0.43718 -0.120648,-0.15205 -0.233617,-0.31003 -0.338481,-0.47336 -0.104996,-0.16335 -0.201752,-0.33186 -0.289904,-0.50488 -0.06873,-0.13493 -0.132168,-0.27251 -0.19017,-0.41238 -0.07422,-0.17939 -0.139408,-0.36238 -0.195337,-0.54828 -0.05607,-0.18583 -0.102808,-0.37434 -0.140043,-0.56483 -0.03714,-0.19039 -0.06473,-0.38252 -0.08268,-0.57567 -0.01796,-0.19325 -0.02623,-0.38728 -0.02481,-0.58136 0.0015,-0.19406 0.01272,-0.38792 0.03359,-0.58086 0.02072,-0.19293 0.05107,-0.38472 0.09095,-0.57463 0.04002,-0.18994 0.08952,-0.37776 0.148312,-0.56275 0.05857,-0.185 0.126347,-0.36696 0.203088,-0.54519 0.07703,-0.17816 0.162918,-0.35235 0.257349,-0.52193 0.09419,-0.1697 0.196811,-0.33458 0.307475,-0.49403 0.110763,-0.15931 0.229422,-0.31298 0.355533,-0.46044 0.09845,-0.11525 0.201365,-0.22661 0.308508,-0.33383 0.137241,-0.13716 0.281253,-0.26737 0.431499,-0.39015 0.150212,-0.1228 0.30647,-0.23801 0.468188,-0.3452 0.161854,-0.10734 0.328978,-0.20651 0.500745,-0.29714 0.171669,-0.0906 0.347761,-0.17249 0.527616,-0.24546 0.179806,-0.0729 0.363142,-0.13667 0.549321,-0.19121 0.186235,-0.0547 0.375089,-0.10007 0.565856,-0.13591 0.190636,-0.0358 0.38294,-0.062 0.576193,-0.0785 0.193321,-0.0166 0.387349,-0.0235 0.581359,-0.0207 0.194123,0.003 0.38798,0.0155 0.580844,0.0377 0.19284,0.0221 0.384455,0.0538 0.574125,0.0951 0.189666,0.0414 0.377141,0.0923 0.561723,0.15245 0.1441,0.0468 0.286319,0.0992 0.42633,0.15709 0.179234,0.0744 0.354636,0.15769 0.525549,0.2496 0.170953,0.0917 0.337214,0.19192 0.498161,0.30024 0.1609188,0.10844 0.3163144,0.22486 0.4656048,0.34882 0.1494509,0.12402 0.2926013,0.25544 0.4289144,0.39377 0.1361712,0.13816 0.2653511,0.28303 0.3870563,0.43408 0.1218104,0.15113 0.2359858,0.30825 0.342098,0.47078 0.105991,0.16261 0.2037816,0.33042 0.2930054,0.50281 0.08921,0.17226 0.1697538,0.34886 0.2413288,0.52915 0.071674,0.18039 0.1342808,0.36425 0.1875856,0.55089 0.05335,0.18664 0.09733,0.37583 0.131775,0.56689 0.034397,0.19087 0.059233,0.38335 0.074414,0.57671 0.011769,0.15112 0.017629,0.30265 0.017571,0.45422 h 1.3229166 c 4.08e-5,-2.88945 -1.7405373,-5.4944 -4.4100679,-6.6001 -0.83423,-0.34559 -1.726415,-0.52988 -2.629296,-0.54312 z m -0.02687,1.85208 c -1.430196,-0.021 -2.807978,0.53787 -3.819405,1.54926 -1.513566,1.51343 -1.966357,3.78963 -1.147217,5.76709 0.819134,1.97737 2.748778,3.2666 4.889107,3.26647 H 10.913222 v -1.32292 H -4.1680281 c -0.132363,7e-5 -0.264648,-0.006 -0.396358,-0.0196 -0.13165,-0.0132 -0.262554,-0.0331 -0.392224,-0.0594 -0.129715,-0.0263 -0.258033,-0.0591 -0.384473,-0.0982 -0.126383,-0.0391 -0.250734,-0.0844 -0.372587,-0.13591 -0.12183,-0.0516 -0.241007,-0.10915 -0.357084,-0.1726 -0.116036,-0.0634 -0.228831,-0.13256 -0.337964,-0.20722 -0.109364,-0.0748 -0.214916,-0.15497 -0.316259,-0.24029 -0.101076,-0.0852 -0.197832,-0.17541 -0.289905,-0.27027 -0.09225,-0.095 -0.179694,-0.19447 -0.262,-0.29817 -0.08215,-0.10358 -0.15907,-0.21121 -0.230476,-0.32247 -0.0715,-0.11136 -0.137382,-0.22622 -0.197405,-0.34416 -0.04689,-0.0922 -0.09016,-0.18611 -0.129707,-0.28164 -0.05064,-0.12224 -0.09514,-0.24694 -0.133325,-0.37362 -0.03826,-0.12666 -0.07017,-0.25515 -0.0956,-0.38499 -0.02531,-0.12989 -0.04411,-0.26097 -0.05633,-0.39274 -0.01229,-0.13175 -0.01798,-0.26404 -0.01705,-0.39636 9.79e-4,-0.13224 0.0086,-0.26435 0.02274,-0.39584 0.01411,-0.1317 0.03481,-0.26259 0.06201,-0.39222 0.02735,-0.12942 0.06115,-0.25739 0.101285,-0.38344 0.03995,-0.12608 0.08617,-0.25008 0.138493,-0.37155 0.05242,-0.12153 0.110889,-0.24037 0.175183,-0.35606 0.06427,-0.11574 0.134296,-0.22819 0.209807,-0.33693 0.07551,-0.10853 0.1564,-0.21321 0.242362,-0.31367 0.06711,-0.0787 0.137273,-0.1547 0.210323,-0.22789 0.09368,-0.0936 0.191993,-0.1824 0.294556,-0.26614 0.102468,-0.0836 0.209055,-0.16212 0.31936,-0.23513 0.110241,-0.0732 0.224071,-0.14077 0.341065,-0.20257 0.117022,-0.0618 0.237062,-0.11765 0.359668,-0.16743 0.122636,-0.0496 0.247677,-0.0931 0.374654,-0.13022 0.12688,-0.0372 0.255543,-0.0681 0.385506,-0.0925 0.130108,-0.0245 0.261358,-0.0424 0.393257,-0.0537 0.131804,-0.0113 0.264088,-0.0159 0.396359,-0.014 0.132286,0.002 0.264398,0.0103 0.395841,0.0253 0.131574,0.0151 0.262307,0.0369 0.391707,0.0651 0.129119,0.0282 0.256747,0.0629 0.382406,0.10387 0.09834,0.032 0.195396,0.0679 0.290938,0.10749 0.122296,0.0505 0.24199,0.10706 0.358635,0.1695 0.116521,0.0627 0.229833,0.13115 0.339514,0.20515 0.109835,0.0739 0.215904,0.15323 0.31781,0.23772 0.101731,0.0845 0.199177,0.17399 0.291972,0.2682 0.0929,0.0942 0.181036,0.19306 0.264066,0.2961 0.082987,0.10302 0.1607711,0.21012 0.2330611,0.3209 0.072347,0.11098 0.1390933,0.2255 0.1999877,0.34314 0.060926,0.11741 0.1159435,0.23779 0.1648478,0.36071 0.048784,0.12302 0.091384,0.2484 0.1276408,0.37568 0.036382,0.1271 0.066393,0.25593 0.089917,0.38603 0.023439,0.13033 0.040342,0.26175 0.050643,0.39377 0.00799,0.10298 0.011954,0.20624 0.011885,0.30954 h 1.3229153 c 1.275e-4,-2.14033 -1.2890899,-4.06996 -3.2664677,-4.8891 -0.617985,-0.2559 -1.278882,-0.39234 -1.947685,-0.40205 z m -0.02739,1.85209 c -0.929623,-0.0136 -1.825152,0.34973 -2.482536,1.00717 -0.983423,0.98375 -1.277515,2.46298 -0.745174,3.74809 0.532333,1.28525 1.786447,2.12331 3.177583,2.12339 H 10.913222 v -1.32292 H -4.1680281 c -0.07058,8e-5 -0.14112,-0.003 -0.211356,-0.0103 -0.07025,-0.007 -0.140104,-0.0179 -0.20929,-0.032 -0.06904,-0.014 -0.137336,-0.0314 -0.204638,-0.0522 -0.06748,-0.0208 -0.133884,-0.045 -0.198954,-0.0724 -0.06506,-0.0275 -0.128699,-0.0582 -0.190687,-0.092 -0.06192,-0.0338 -0.122114,-0.0707 -0.180351,-0.11059 -0.05826,-0.0399 -0.114482,-0.0827 -0.168465,-0.12815 -0.05387,-0.0455 -0.105441,-0.0936 -0.154512,-0.14418 -0.04931,-0.0507 -0.09605,-0.10381 -0.140043,-0.15917 -0.04384,-0.0553 -0.08489,-0.11271 -0.12299,-0.17208 -0.038,-0.0594 -0.07301,-0.12059 -0.104903,-0.18345 -0.02504,-0.0492 -0.04813,-0.0994 -0.06925,-0.15038 -0.02707,-0.0651 -0.05087,-0.13148 -0.07131,-0.19895 -0.0203,-0.0677 -0.03721,-0.13631 -0.05064,-0.20567 -0.01347,-0.0692 -0.02347,-0.13907 -0.02997,-0.20929 -0.0066,-0.0702 -0.0097,-0.1408 -0.0093,-0.21136 6.08e-4,-0.0706 0.0047,-0.14116 0.0124,-0.21136 0.0075,-0.0701 0.01858,-0.13977 0.03307,-0.20877 0.01449,-0.0691 0.03243,-0.13737 0.05374,-0.20464 0.02131,-0.0673 0.04597,-0.13357 0.0739,-0.19844 0.028,-0.0647 0.05922,-0.12803 0.09353,-0.18965 0.0342,-0.0616 0.07145,-0.12144 0.111621,-0.17932 0.0404,-0.0581 0.08369,-0.11416 0.129708,-0.16794 0.03579,-0.0417 0.0732,-0.0821 0.112138,-0.12093 0.04979,-0.05 0.102051,-0.0974 0.156579,-0.14211 0.05471,-0.0447 0.111628,-0.0866 0.170533,-0.12557 0.0588,-0.039 0.119505,-0.075 0.181901,-0.108 0.06238,-0.033 0.126362,-0.0628 0.191719,-0.0894 0.06546,-0.0264 0.132211,-0.0495 0.199988,-0.0692 0.06769,-0.0199 0.136331,-0.0365 0.205672,-0.0496 0.06942,-0.013 0.139441,-0.0224 0.209806,-0.0284 0.07028,-0.006 0.140816,-0.009 0.211357,-0.008 0.07047,0.001 0.140837,0.006 0.21084,0.014 0.07012,0.008 0.139802,0.0196 0.208773,0.0346 0.06892,0.015 0.137045,0.0335 0.204121,0.0553 0.05241,0.0171 0.10412,0.0363 0.15503,0.0574 0.0652,0.0269 0.129015,0.0571 0.191202,0.0904 0.06225,0.0335 0.12279,0.07 0.181385,0.10955 0.05858,0.0394 0.115144,0.0816 0.169498,0.12661 0.0542,0.0451 0.106114,0.0929 0.155547,0.14314 0.04964,0.0503 0.09672,0.1031 0.141076,0.15813 0.04416,0.0549 0.08555,0.112 0.124023,0.17105 0.03867,0.059 0.07438,0.11987 0.106971,0.18242 0.03248,0.0627 0.0618,0.12707 0.08785,0.19275 0.02607,0.0657 0.04883,0.13258 0.06821,0.20051 0.01926,0.0677 0.03512,0.13637 0.04754,0.20567 0.01262,0.0694 0.02176,0.13946 0.02739,0.20981 0.0042,0.055 0.0063,0.11018 0.0062,0.16536 h 1.3229167 c -8.13e-5,-1.39114 -0.8381287,-2.64524 -2.1233847,-3.17758 -0.401704,-0.1664 -0.831314,-0.25514 -1.266072,-0.26149 z"
         id="path932-9"
         inkscape:connector-curvature="0"
         sodipodi:nodetypes="cccccccccccccccccccccccccccccccccccccccccccccccccccccccccccccccccccccccccccccccccccccccccccccccccccccccccccccccccccccccccccccccccccccccccccccccccccccccccccccccccccccccccccccc" />
      <path
         style="opacity:1;vector-effect:none;fill:#eff0f6;fill-opacity:1;stroke:none;stroke-width:0.30574077;stroke-linecap:round;stroke-linejoin:round;stroke-miterlimit:4;stroke-dasharray:none;stroke-dashoffset:0;stroke-opacity:1;paint-order:normal"
         d="m -4.0636412,282.52538 c -1.9306652,-0.0281 -3.7904973,0.72646 -5.1557573,2.09186 -2.0431015,2.04304 -2.6543555,5.11562 -1.5487425,7.78506 1.1057027,2.66953 3.7106549,4.4101 6.6001135,4.41006 H 10.913222 v -1.32291 H -4.1680275 c -0.194148,5e-5 -0.388177,-0.01 -0.5813599,-0.0289 -0.1930553,-0.0195 -0.3850145,-0.0487 -0.5751586,-0.0873 -0.1902071,-0.0385 -0.3783722,-0.0864 -0.5637898,-0.14366 -0.1852829,-0.0573 -0.3675835,-0.12392 -0.5462198,-0.19947 -0.1787792,-0.0756 -0.353664,-0.16012 -0.5239991,-0.25321 -0.1703258,-0.093 -0.335897,-0.19437 -0.4960937,-0.30386 -0.1601195,-0.10968 -0.3146528,-0.22731 -0.4630208,-0.35243 -0.1484553,-0.12494 -0.2905707,-0.25723 -0.4258138,-0.39636 -0.1351933,-0.13924 -0.2633387,-0.28515 -0.3839559,-0.43718 -0.1206484,-0.15205 -0.2336165,-0.31003 -0.3384807,-0.47336 -0.1049959,-0.16335 -0.2017519,-0.33186 -0.2899047,-0.50488 -0.06873,-0.13493 -0.1321676,-0.2725 -0.1901693,-0.41238 -0.074215,-0.17939 -0.1394084,-0.36238 -0.1953368,-0.54828 -0.056069,-0.18583 -0.1028083,-0.37434 -0.1400431,-0.56483 -0.037136,-0.19039 -0.064731,-0.38252 -0.082682,-0.57567 -0.017955,-0.19325 -0.026234,-0.38728 -0.024805,-0.58136 0.00151,-0.19406 0.012719,-0.38791 0.03359,-0.58085 0.02072,-0.19294 0.051074,-0.38473 0.09095,-0.57464 0.040023,-0.18994 0.089522,-0.37776 0.1483114,-0.56275 0.058566,-0.185 0.126347,-0.36696 0.2030884,-0.54519 0.077027,-0.17816 0.1629174,-0.35235 0.2573485,-0.52193 0.094191,-0.1697 0.1968111,-0.33458 0.3074749,-0.49403 0.1107631,-0.15931 0.2294226,-0.31298 0.3555339,-0.46044 0.09845,-0.11525 0.2013648,-0.22661 0.3085081,-0.33383 0.1372402,-0.13716 0.2812526,-0.26737 0.4314983,-0.39015 0.1502122,-0.1228 0.3064701,-0.23801 0.4681884,-0.3452 0.1618533,-0.10734 0.3289774,-0.20651 0.5007446,-0.29714 0.1716696,-0.0906 0.3477617,-0.17249 0.5276165,-0.24546 0.179806,-0.0729 0.3631416,-0.13667 0.5493204,-0.19121 0.1862349,-0.0547 0.3750898,-0.10007 0.5658567,-0.13591 0.1906355,-0.0358 0.3829394,-0.062 0.5761924,-0.0785 0.1933209,-0.0166 0.3873497,-0.0235 0.5813596,-0.0207 0.1941224,0.003 0.3879792,0.0155 0.5808432,0.0377 0.1928408,0.0221 0.3844552,0.0538 0.5741252,0.0951 0.189666,0.0414 0.3771413,0.0923 0.5617228,0.15245 0.1441006,0.0468 0.2863191,0.0992 0.4263305,0.15709 0.1792341,0.0744 0.3546364,0.15769 0.5255493,0.2496 0.1709531,0.0917 0.3372141,0.19192 0.49816064,0.30024 0.16091879,0.10844 0.31631439,0.22486 0.46560473,0.34882 0.14945095,0.12402 0.29260138,0.25544 0.42891444,0.39377 0.13617124,0.13816 0.26535114,0.28303 0.38705629,0.43408 0.12181046,0.15113 0.23598583,0.30825 0.34209803,0.47078 0.10599102,0.16261 0.20378154,0.33042 0.29300537,0.50281 0.08921,0.17226 0.1697538,0.34886 0.2413288,0.52916 0.071674,0.18039 0.1342808,0.36424 0.1875857,0.55088 0.05335,0.18664 0.09733,0.37584 0.1317749,0.56689 0.034397,0.19087 0.059233,0.38335 0.074414,0.57671 0.011769,0.15112 0.01763,0.30265 0.01757,0.45423 h 1.3229166 c 4.18e-5,-2.88946 -1.7405363,-5.49441 -4.4100666,-6.60011 -0.8342302,-0.34559 -1.7264157,-0.52988 -2.6292968,-0.54312 z m -0.026872,1.85208 c -1.4301958,-0.021 -2.8079778,0.53787 -3.8194049,1.54926 -1.5135658,1.51343 -1.9663571,3.78963 -1.1472169,5.76709 0.8191346,1.97738 2.7487786,3.2666 4.8891071,3.26647 H 10.913222 v -1.32292 H -4.1680275 c -0.1323636,8e-5 -0.2646484,-0.006 -0.3963582,-0.0196 -0.1316498,-0.0132 -0.2625545,-0.0331 -0.3922242,-0.0594 -0.1297146,-0.0263 -0.2580327,-0.0591 -0.3844726,-0.0982 -0.126383,-0.0391 -0.250734,-0.0844 -0.372587,-0.13591 -0.1218301,-0.0516 -0.2410071,-0.10915 -0.3570841,-0.1726 -0.1160364,-0.0634 -0.2288317,-0.13256 -0.3379639,-0.20722 -0.1093642,-0.0748 -0.2149165,-0.15497 -0.3162596,-0.24029 -0.1010761,-0.0852 -0.1978316,-0.17541 -0.289905,-0.27027 -0.092252,-0.095 -0.1796941,-0.19447 -0.2619994,-0.29817 -0.082148,-0.10358 -0.1590699,-0.21121 -0.2304769,-0.32247 -0.071498,-0.11136 -0.137382,-0.22622 -0.1974041,-0.34416 -0.046888,-0.0922 -0.090157,-0.18611 -0.1297077,-0.28164 -0.050642,-0.12224 -0.095139,-0.24694 -0.1333251,-0.37362 -0.038264,-0.12666 -0.070171,-0.25515 -0.095601,-0.38499 -0.025312,-0.12989 -0.044111,-0.26097 -0.056327,-0.39274 -0.012288,-0.13175 -0.01798,-0.26404 -0.017053,-0.39636 9.79e-4,-0.13224 0.00857,-0.26435 0.022738,-0.39584 0.014113,-0.1317 0.034809,-0.26259 0.062012,-0.39222 0.027351,-0.12942 0.061155,-0.25739 0.1012859,-0.38344 0.039944,-0.12608 0.086166,-0.25008 0.1384927,-0.37155 0.052421,-0.12153 0.1108885,-0.24037 0.1751833,-0.35606 0.064272,-0.11574 0.134295,-0.22819 0.2098063,-0.33693 0.075512,-0.10853 0.1564003,-0.21321 0.2423623,-0.31367 0.067112,-0.0787 0.1372733,-0.1547 0.2103231,-0.22789 0.093684,-0.0936 0.1919925,-0.1824 0.2945556,-0.26614 0.1024686,-0.0836 0.209055,-0.16212 0.3193605,-0.23513 0.1102403,-0.0732 0.2240706,-0.14077 0.3410643,-0.20257 0.1170229,-0.0618 0.2370622,-0.11765 0.359668,-0.16743 0.1226362,-0.0496 0.247677,-0.0931 0.3746542,-0.13022 0.1268807,-0.0372 0.2555433,-0.0681 0.3855061,-0.0925 0.1301083,-0.0245 0.2613581,-0.0424 0.3932576,-0.0537 0.1318035,-0.0113 0.264088,-0.0159 0.3963583,-0.014 0.1322863,0.002 0.2643983,0.0103 0.3958415,0.0253 0.1315733,0.0151 0.2623065,0.0369 0.3917071,0.0651 0.1291185,0.0282 0.2567464,0.0629 0.3824057,0.10387 0.098343,0.032 0.1953964,0.0679 0.2909382,0.10749 0.1222957,0.0505 0.2419898,0.10706 0.3586345,0.1695 0.1165212,0.0627 0.229833,0.13115 0.3395141,0.20515 0.1098346,0.0739 0.2159042,0.15323 0.3178101,0.23772 0.1017307,0.0845 0.1991773,0.17399 0.2919719,0.2682 0.092904,0.0942 0.1810359,0.19306 0.2640666,0.2961 0.0829868,0.10302 0.16077062,0.21012 0.23306061,0.32091 0.0723469,0.11097 0.1390933,0.22549 0.19998768,0.34313 0.0609261,0.11741 0.11594359,0.2378 0.16484784,0.36071 0.0487841,0.12302 0.0913844,0.2484 0.12764082,0.37568 0.0363821,0.1271 0.066393,0.25594 0.089917,0.38603 0.0234394,0.13033 0.0403418,0.26175 0.0506428,0.39377 0.00799,0.10299 0.0119531,0.20624 0.0118851,0.30954 H 1.1236389 c 1.283e-4,-2.14033 -1.28908907,-4.06996 -3.2664671,-4.8891 -0.6179846,-0.2559 -1.2788817,-0.39234 -1.9476846,-0.40205 z m -0.027389,1.85209 c -0.9296225,-0.0136 -1.8251518,0.34973 -2.4825355,1.00717 -0.9834229,0.98375 -1.2775157,2.46298 -0.7451743,3.74809 0.5323331,1.28526 1.7864475,2.12331 3.1775837,2.12339 H 10.913222 v -1.32292 H -4.1680275 c -0.07058,9e-5 -0.1411203,-0.003 -0.2113565,-0.0103 -0.070253,-0.007 -0.1401038,-0.0179 -0.2092897,-0.032 -0.069039,-0.014 -0.1373367,-0.0314 -0.2046385,-0.0522 -0.067482,-0.0208 -0.1338837,-0.045 -0.1989542,-0.0724 -0.065057,-0.0275 -0.1286987,-0.0582 -0.1906863,-0.092 -0.061922,-0.0338 -0.1221145,-0.0707 -0.1803506,-0.11059 -0.058257,-0.0399 -0.1144828,-0.0827 -0.1684652,-0.12815 -0.053873,-0.0455 -0.1054412,-0.0936 -0.1545124,-0.14418 -0.04931,-0.0507 -0.09605,-0.10381 -0.1400432,-0.15917 -0.043839,-0.0553 -0.084887,-0.11271 -0.1229899,-0.17208 -0.038001,-0.0594 -0.073012,-0.12059 -0.1049031,-0.18345 -0.025035,-0.0492 -0.048134,-0.0994 -0.069247,-0.15038 -0.027069,-0.0651 -0.05087,-0.13148 -0.071313,-0.19895 -0.020303,-0.0677 -0.037205,-0.13631 -0.050643,-0.20567 -0.013471,-0.0692 -0.023474,-0.13907 -0.029973,-0.20929 -0.00662,-0.0702 -0.00973,-0.1408 -0.0093,-0.21136 6.085e-4,-0.0706 0.00475,-0.14116 0.012401,-0.21136 0.00754,-0.0701 0.018579,-0.13977 0.033073,-0.20877 0.014491,-0.0691 0.032428,-0.13737 0.053743,-0.20464 0.021307,-0.0673 0.04597,-0.13357 0.073897,-0.19844 0.027999,-0.0647 0.059215,-0.12803 0.093534,-0.18965 0.0342,-0.0616 0.071453,-0.12144 0.1116213,-0.17932 0.040401,-0.0581 0.083691,-0.11416 0.1297078,-0.16794 0.035794,-0.0417 0.073202,-0.0821 0.1121378,-0.12093 0.049793,-0.05 0.1020514,-0.0974 0.1565796,-0.14211 0.054713,-0.0447 0.1116282,-0.0866 0.1705322,-0.12557 0.058796,-0.039 0.1195051,-0.075 0.181901,-0.108 0.062377,-0.033 0.1263629,-0.0628 0.1917197,-0.0894 0.065465,-0.0264 0.1322112,-0.0495 0.1999877,-0.0692 0.067688,-0.0199 0.1363308,-0.0365 0.2056723,-0.0496 0.069418,-0.013 0.1394409,-0.0224 0.2098061,-0.0284 0.070275,-0.006 0.1408152,-0.009 0.2113568,-0.008 0.070469,10e-4 0.1408366,0.006 0.2108396,0.014 0.070124,0.008 0.1398023,0.0196 0.2087729,0.0346 0.068919,0.015 0.1370451,0.0335 0.2041218,0.0553 0.052405,0.0171 0.1041198,0.0363 0.1550294,0.0574 0.0652,0.0269 0.1290153,0.0571 0.1912027,0.0904 0.062253,0.0335 0.1227897,0.07 0.1813843,0.10955 0.058575,0.0394 0.1151443,0.0816 0.1694987,0.12661 0.0542,0.0451 0.106114,0.0929 0.1555462,0.14314 0.049636,0.0503 0.096721,0.1031 0.1410766,0.15813 0.044163,0.0549 0.085555,0.112 0.1240234,0.17105 0.038674,0.059 0.074375,0.11987 0.1069702,0.18242 0.032482,0.0627 0.061802,0.12707 0.08785,0.19275 0.026069,0.0657 0.048835,0.13258 0.068213,0.20051 0.019259,0.0677 0.035125,0.13637 0.047542,0.20567 0.012621,0.0694 0.021762,0.13946 0.027388,0.20981 0.00422,0.055 0.00629,0.11018 0.0062,0.16536 h 1.32291659 c -8.123e-5,-1.39114 -0.83812909,-2.64524 -2.12338459,-3.17758 -0.4017036,-0.1664 -0.8313145,-0.25514 -1.2660725,-0.26149 z"
         id="path932"
         inkscape:connector-curvature="0"
         sodipodi:nodetypes="cccccccccccccccccccccccccccccccccccccccccccccccccccccccccccccccccccccccccccccccccccccccccccccccccccccccccccccccccccccccccccccccccccccccccccccccccccccccccccccccccccccccccccccc" />
    </g>
  </g>
</svg>
