<?xml version="1.0" encoding="UTF-8" standalone="no"?>
<!-- Created with Inkscape (http://www.inkscape.org/) -->

<svg
   xmlns:dc="http://purl.org/dc/elements/1.1/"
   xmlns:cc="http://creativecommons.org/ns#"
   xmlns:rdf="http://www.w3.org/1999/02/22-rdf-syntax-ns#"
   xmlns:svg="http://www.w3.org/2000/svg"
   xmlns="http://www.w3.org/2000/svg"
   xmlns:xlink="http://www.w3.org/1999/xlink"
   xmlns:sodipodi="http://sodipodi.sourceforge.net/DTD/sodipodi-0.dtd"
   xmlns:inkscape="http://www.inkscape.org/namespaces/inkscape"
   width="128"
   height="128"
   viewBox="0 0 33.866665 33.866665"
   version="1.1"
   id="svg1399"
   inkscape:version="0.92.4 5da689c313, 2019-01-14"
   sodipodi:docname="application-pdf.svg">
  <defs
     id="defs1393">
    <linearGradient
       inkscape:collect="always"
       xlink:href="#linearGradient6408-4"
       id="linearGradient951"
       x1="176"
       y1="282.64999"
       x2="176"
       y2="170.64999"
       gradientUnits="userSpaceOnUse"
       gradientTransform="matrix(0.26458332,0,0,0.26458332,-47.568925,229.94959)" />
    <linearGradient
       id="linearGradient6408-4"
       inkscape:collect="always">
      <stop
         id="stop6404-7"
         offset="0"
         style="stop-color:#f34242;stop-opacity:1" />
      <stop
         id="stop6406-6"
         offset="1"
         style="stop-color:#ff6767;stop-opacity:1" />
    </linearGradient>
  </defs>
  <sodipodi:namedview
     id="base"
     pagecolor="#ffffff"
     bordercolor="#666666"
     borderopacity="1.0"
     inkscape:pageopacity="0.0"
     inkscape:pageshadow="2"
     inkscape:zoom="2.8"
     inkscape:cx="15.57078"
     inkscape:cy="116.0057"
     inkscape:document-units="px"
     inkscape:current-layer="g2642"
     showgrid="true"
     inkscape:showpageshadow="false"
     units="px"
     inkscape:window-width="1920"
     inkscape:window-height="1049"
     inkscape:window-x="0"
     inkscape:window-y="0"
     inkscape:window-maximized="1">
    <inkscape:grid
       type="xygrid"
       id="grid872" />
  </sodipodi:namedview>
  <metadata
     id="metadata1396">
    <rdf:RDF>
      <cc:Work
         rdf:about="">
        <dc:format>image/svg+xml</dc:format>
        <dc:type
           rdf:resource="http://purl.org/dc/dcmitype/StillImage" />
        <dc:title></dc:title>
      </cc:Work>
    </rdf:RDF>
  </metadata>
  <g
     inkscape:label="Capa 1"
     inkscape:groupmode="layer"
     id="layer1"
     transform="translate(0,-263.13338)">
    <g
       id="g2992"
       transform="translate(17.935593,-9.8506875)">
      <path
         id="rect928"
         d="m -13.437677,273.24865 h 24.870833 c 1.172633,0 2.116666,0.94403 2.116666,2.11667 v 29.10416 c 0,1.17264 -0.944033,2.11667 -2.116666,2.11667 h -24.870833 c -1.172633,0 -2.116666,-0.94403 -2.116666,-2.11667 v -29.10416 c 0,-1.17264 0.944033,-2.11667 2.116666,-2.11667 z"
         style="opacity:1;vector-effect:none;fill:#b62e2e;fill-opacity:1;stroke:none;stroke-width:0.60079932;stroke-linecap:round;stroke-linejoin:round;stroke-miterlimit:4;stroke-dasharray:none;stroke-dashoffset:0;stroke-opacity:1"
         inkscape:connector-curvature="0" />
      <path
         id="rect928-2"
         d="m -13.437677,273.51323 h 24.870833 c 1.026054,0 1.852083,0.82603 1.852083,1.85209 v 29.10416 c 0,1.02606 -0.826029,1.85209 -1.852083,1.85209 h -24.870833 c -1.026054,0 -1.852083,-0.82603 -1.852083,-1.85209 v -29.10416 c 0,-1.02606 0.826029,-1.85209 1.852083,-1.85209 z"
         style="opacity:1;vector-effect:none;fill:url(#linearGradient951);fill-opacity:1;stroke:none;stroke-width:0.60079932;stroke-linecap:round;stroke-linejoin:round;stroke-miterlimit:4;stroke-dasharray:none;stroke-dashoffset:0;stroke-opacity:1"
         inkscape:connector-curvature="0" />
    </g>
    <g
       transform="matrix(1.9999995,0,0,1.9999995,4.733333e-6,-296.99992)"
       id="layer1-6"
       inkscape:label="Capa 1">
      <g
         transform="translate(12.676161,-3.1546885)"
         id="g2642">
        <path
           style="fill:#b62e2e;fill-opacity:1;stroke:none;stroke-width:0.26458332px;stroke-linecap:butt;stroke-linejoin:miter;stroke-opacity:1"
           d="m -11.353246,295.52453 c 2.1099211,0.79079 2.9193331,2.7043 2.9104161,4.49792 h 1.5875007 c -0.071455,-1.97767 -0.5565775,-4.26331 -3.1749988,-5.29167 2.3354441,-0.17797 4.4555206,-1.04894 6.3499989,-2.64583 -0.9298439,1.64786 -1.8590251,4.176 -1.4552085,7.9375 h 5.42395777 c -1.38594207,-4.87629 -0.4655485,-8.93704 2.64583603,-12.7 v -2.11667 c -1.3610334,0.54886 -2.33846913,1.75754 -2.91041883,2.38125 0.4243474,-1.30056 0.7487381,-3.05895 1.71979383,-4.10104 H 0.15613127 c -2.54308327,5.07559 -6.62973657,8.16297 -11.50937727,9.39271 z"
           id="path1994-2-2"
           inkscape:connector-curvature="0"
           sodipodi:nodetypes="cccccccccccccc" />
        <path
           style="fill:#fff3f3;fill-opacity:1;stroke:none;stroke-width:0.26458332px;stroke-linecap:butt;stroke-linejoin:miter;stroke-opacity:1"
           d="m -11.353246,295.39224 c 2.1099216,0.79079 2.9193339,2.7043 2.9104168,4.49792 h 1.5875007 c -0.071455,-1.97767 -0.5565776,-4.26331 -3.1749995,-5.29167 2.3354447,-0.17797 4.4555212,-1.04894 6.3499995,-2.64583 -0.9298439,1.64786 -1.859025,4.176 -1.4552084,7.9375 h 5.42395784 c -1.38594214,-4.87629 -0.46554857,-8.93704 2.64583546,-12.7 v -2.11667 c -1.3610329,0.54886 -2.33846854,1.75754 -2.9104184,2.38125 0.42434745,-1.30056 0.74873721,-2.92666 1.7197929,-3.96875 H 0.15613088 c -2.54308328,5.07559 -6.62973548,8.03068 -11.50937688,9.26042 z"
           id="path1994-2"
           inkscape:connector-curvature="0"
           sodipodi:nodetypes="cccccccccccccc" />
      </g>
    </g>
  </g>
</svg>
