<?xml version="1.0" encoding="UTF-8" standalone="no"?>
<!-- Created with Inkscape (http://www.inkscape.org/) -->

<svg
   xmlns:dc="http://purl.org/dc/elements/1.1/"
   xmlns:cc="http://creativecommons.org/ns#"
   xmlns:rdf="http://www.w3.org/1999/02/22-rdf-syntax-ns#"
   xmlns:svg="http://www.w3.org/2000/svg"
   xmlns="http://www.w3.org/2000/svg"
   xmlns:xlink="http://www.w3.org/1999/xlink"
   xmlns:sodipodi="http://sodipodi.sourceforge.net/DTD/sodipodi-0.dtd"
   xmlns:inkscape="http://www.inkscape.org/namespaces/inkscape"
   width="128"
   height="128"
   viewBox="0 0 33.866665 33.866665"
   version="1.1"
   id="svg1399"
   inkscape:version="0.92.4 5da689c313, 2019-01-14"
   sodipodi:docname="audio-mp3.svg">
  <defs
     id="defs1393">
    <linearGradient
       inkscape:collect="always"
       xlink:href="#linearGradient4894"
       id="linearGradient951"
       x1="176"
       y1="282.64999"
       x2="176"
       y2="170.64999"
       gradientUnits="userSpaceOnUse"
       gradientTransform="matrix(0.26458332,0,0,0.26458332,-54.451115,226.07418)" />
    <linearGradient
       id="linearGradient4894"
       inkscape:collect="always">
      <stop
         id="stop4890"
         offset="0"
         style="stop-color:#306dee;stop-opacity:1" />
      <stop
         id="stop4892"
         offset="1"
         style="stop-color:#5795fb;stop-opacity:1" />
    </linearGradient>
  </defs>
  <sodipodi:namedview
     id="base"
     pagecolor="#ffffff"
     bordercolor="#666666"
     borderopacity="1.0"
     inkscape:pageopacity="0.0"
     inkscape:pageshadow="2"
     inkscape:zoom="2.8"
     inkscape:cx="15.327407"
     inkscape:cy="12.373623"
     inkscape:document-units="px"
     inkscape:current-layer="layer1"
     showgrid="false"
     inkscape:showpageshadow="false"
     units="px"
     inkscape:window-width="1920"
     inkscape:window-height="1049"
     inkscape:window-x="0"
     inkscape:window-y="0"
     inkscape:window-maximized="1" />
  <metadata
     id="metadata1396">
    <rdf:RDF>
      <cc:Work
         rdf:about="">
        <dc:format>image/svg+xml</dc:format>
        <dc:type
           rdf:resource="http://purl.org/dc/dcmitype/StillImage" />
        <dc:title></dc:title>
      </cc:Work>
    </rdf:RDF>
  </metadata>
  <g
     inkscape:label="Capa 1"
     inkscape:groupmode="layer"
     id="layer1"
     transform="translate(0,-263.13338)">
    <g
       id="g1545"
       transform="translate(24.817783,-5.9752775)">
      <path
         inkscape:connector-curvature="0"
         style="opacity:1;vector-effect:none;fill:#1e62df;fill-opacity:1;stroke:none;stroke-width:0.60079932;stroke-linecap:round;stroke-linejoin:round;stroke-miterlimit:4;stroke-dasharray:none;stroke-dashoffset:0;stroke-opacity:1"
         d="M -20.319867,269.37324 H 4.5509658 c 1.172633,0 2.116666,0.94403 2.116666,2.11667 v 29.10416 c 0,1.17264 -0.944033,2.11667 -2.116666,2.11667 H -20.319867 c -1.172633,0 -2.116666,-0.94403 -2.116666,-2.11667 v -29.10416 c 0,-1.17264 0.944033,-2.11667 2.116666,-2.11667 z"
         id="rect928" />
      <path
         inkscape:connector-curvature="0"
         style="opacity:1;vector-effect:none;fill:url(#linearGradient951);fill-opacity:1;stroke:none;stroke-width:0.60079932;stroke-linecap:round;stroke-linejoin:round;stroke-miterlimit:4;stroke-dasharray:none;stroke-dashoffset:0;stroke-opacity:1"
         d="M -20.319867,269.63782 H 4.5509658 c 1.026054,0 1.852083,0.82603 1.852083,1.85209 v 29.10416 c 0,1.02606 -0.826029,1.85209 -1.852083,1.85209 H -20.319867 c -1.026054,0 -1.852083,-0.82603 -1.852083,-1.85209 v -29.10416 c 0,-1.02606 0.826029,-1.85209 1.852083,-1.85209 z"
         id="rect928-2" />
      <path
         id="path946-5-6"
         d="m -16.615701,272.01905 c -0.439737,0 -0.793749,0.35402 -0.793749,0.79374 0,0.43974 0.354012,0.79376 0.793749,0.79376 0.439738,0 0.79375,-0.35402 0.79375,-0.79376 0,-0.43972 -0.354012,-0.79374 -0.79375,-0.79374 z m -2.645833,1.05834 c -0.439737,0 -0.79375,0.354 -0.79375,0.79374 0,0.43974 0.354013,0.79376 0.79375,0.79376 0.439737,0 0.79375,-0.35402 0.79375,-0.79376 0,-0.43974 -0.354013,-0.79374 -0.79375,-0.79374 z m 2.645833,1.5875 c -0.439737,0 -0.793749,0.354 -0.793749,0.79374 0,0.43974 0.354012,0.79376 0.793749,0.79376 0.439738,0 0.79375,-0.35402 0.79375,-0.79376 0,-0.43974 -0.354012,-0.79374 -0.79375,-0.79374 z m -2.645833,1.05832 c -0.439737,0 -0.79375,0.35402 -0.79375,0.79376 0,0.43974 0.354013,0.79374 0.79375,0.79374 0.439737,0 0.79375,-0.354 0.79375,-0.79374 0,-0.43974 -0.354013,-0.79376 -0.79375,-0.79376 z m 0,2.64584 c -0.439737,0 -0.79375,0.35402 -0.79375,0.79374 0,0.43974 0.354013,0.79376 0.79375,0.79376 0.439737,0 0.79375,-0.35402 0.79375,-0.79376 0,-0.43972 -0.354013,-0.79374 -0.79375,-0.79374 z"
         style="opacity:1;fill:#1e62df;fill-opacity:1;stroke:none;stroke-width:0.52916664;stroke-opacity:1"
         inkscape:connector-curvature="0" />
      <path
         id="path946-5"
         d="m -16.6157,271.75449 c -0.439737,0 -0.79375,0.354 -0.79375,0.79374 0,0.43974 0.354013,0.79376 0.79375,0.79376 0.439738,0 0.79375,-0.35402 0.79375,-0.79376 0,-0.43974 -0.354012,-0.79374 -0.79375,-0.79374 z m -2.645833,1.05832 c -0.439738,0 -0.793751,0.35402 -0.793751,0.79376 0,0.43974 0.354013,0.79374 0.793751,0.79374 0.439737,0 0.79375,-0.354 0.79375,-0.79374 0,-0.43974 -0.354013,-0.79376 -0.79375,-0.79376 z m 2.645833,1.5875 c -0.439737,0 -0.79375,0.35402 -0.79375,0.79376 0,0.43974 0.354013,0.79374 0.79375,0.79374 0.439738,0 0.79375,-0.354 0.79375,-0.79374 0,-0.43974 -0.354012,-0.79376 -0.79375,-0.79376 z m -2.645833,1.05834 c -0.439738,0 -0.793751,0.35402 -0.793751,0.79374 0,0.43974 0.354013,0.79376 0.793751,0.79376 0.439737,0 0.79375,-0.35402 0.79375,-0.79376 0,-0.43972 -0.354013,-0.79374 -0.79375,-0.79374 z m 0,2.64584 c -0.439738,0 -0.793751,0.354 -0.793751,0.79374 0,0.43974 0.354013,0.79376 0.793751,0.79376 0.439737,0 0.79375,-0.35402 0.79375,-0.79376 0,-0.43974 -0.354013,-0.79374 -0.79375,-0.79374 z"
         style="opacity:1;fill:#f7faff;fill-opacity:1;stroke:none;stroke-width:0.52916664;stroke-opacity:1"
         inkscape:connector-curvature="0" />
      <path
         id="path946-5-6-2"
         d="m 0.84679978,300.59407 c 0.43973802,0 0.79375002,-0.35402 0.79375002,-0.79376 0,-0.43972 -0.354012,-0.79374 -0.79375002,-0.79374 -0.439738,0 -0.79375,0.35402 -0.79375,0.79374 0,0.43974 0.354012,0.79376 0.79375,0.79376 z m 2.64583202,-1.05834 c 0.439738,0 0.79375,-0.354 0.79375,-0.79374 0,-0.43974 -0.354012,-0.79376 -0.79375,-0.79376 -0.439736,0 -0.793748,0.35402 -0.793748,0.79376 0,0.43974 0.354012,0.79374 0.793748,0.79374 z m -2.64583202,-1.5875 c 0.43973802,0 0.79375002,-0.354 0.79375002,-0.79374 0,-0.43974 -0.354012,-0.79376 -0.79375002,-0.79376 -0.439738,0 -0.79375,0.35402 -0.79375,0.79376 0,0.43974 0.354012,0.79374 0.79375,0.79374 z m 2.64583202,-1.05832 c 0.439738,0 0.79375,-0.35402 0.79375,-0.79376 0,-0.43974 -0.354012,-0.79374 -0.79375,-0.79374 -0.439736,0 -0.793748,0.354 -0.793748,0.79374 0,0.43974 0.354012,0.79376 0.793748,0.79376 z m 0,-2.64584 c 0.439738,0 0.79375,-0.35402 0.79375,-0.79376 0,-0.43972 -0.354012,-0.79374 -0.79375,-0.79374 -0.439736,0 -0.793748,0.35402 -0.793748,0.79374 0,0.43974 0.354012,0.79376 0.793748,0.79376 z"
         style="opacity:1;fill:#1e62df;fill-opacity:1;stroke:none;stroke-width:0.52916664;stroke-opacity:1"
         inkscape:connector-curvature="0" />
      <path
         id="path946-5-9"
         d="m 0.84679878,300.32949 c 0.43973802,0 0.79375002,-0.35402 0.79375002,-0.79376 0,-0.43974 -0.354012,-0.79374 -0.79375002,-0.79374 -0.439738,0 -0.79375,0.354 -0.79375,0.79374 0,0.43974 0.354012,0.79376 0.79375,0.79376 z m 2.64583202,-1.05834 c 0.439738,0 0.793751,-0.35402 0.793751,-0.79376 0,-0.43972 -0.354013,-0.79374 -0.793751,-0.79374 -0.439736,0 -0.793748,0.35402 -0.793748,0.79374 0,0.43974 0.354012,0.79376 0.793748,0.79376 z m -2.64583202,-1.5875 c 0.43973802,0 0.79375002,-0.35402 0.79375002,-0.79376 0,-0.43972 -0.354012,-0.79374 -0.79375002,-0.79374 -0.439738,0 -0.79375,0.35402 -0.79375,0.79374 0,0.43974 0.354012,0.79376 0.79375,0.79376 z m 2.64583202,-1.05834 c 0.439738,0 0.793751,-0.354 0.793751,-0.79374 0,-0.43974 -0.354013,-0.79376 -0.793751,-0.79376 -0.439736,0 -0.793748,0.35402 -0.793748,0.79376 0,0.43974 0.354012,0.79374 0.793748,0.79374 z m 0,-2.64582 c 0.439738,0 0.793751,-0.35402 0.793751,-0.79376 0,-0.43974 -0.354013,-0.79374 -0.793751,-0.79374 -0.439736,0 -0.793748,0.354 -0.793748,0.79374 0,0.43974 0.354012,0.79376 0.793748,0.79376 z"
         style="opacity:1;fill:#f7faff;fill-opacity:1;stroke:none;stroke-width:0.52916664;stroke-opacity:1"
         inkscape:connector-curvature="0" />
      <g
         inkscape:label="Capa 1"
         id="layer1-62"
         transform="matrix(0.26458332,0,0,0.26458332,-24.819075,216.15231)">
        <g
           transform="matrix(2,0,0,2,-12,-500.64999)"
           id="g1658" />
        <g
           id="g5226"
           transform="translate(43.999999,22)">
          <path
             sodipodi:nodetypes="cccssssccccccccccccssssccccccsssscccccc"
             inkscape:connector-curvature="0"
             id="path4658-1-2"
             d="m 12.999999,216.64995 -5.9999995,2 v 8.60156 c -0.750002,-0.38211 -1.597449,-0.60156 -2.5,-0.60156 -3.046998,0 -5.5,2.45294 -5.5,5.5 0,3.04694 2.453002,5.5 5.5,5.5 3.047002,0 5.5,-2.45302 5.5,-5.5 0,-0.0711 -0.0071,-0.14064 -0.0098,-0.21094 l 0.0098,0.0117 v -7.30078 -2 l 2.9999995,-1 z m 19,2 -14,5 v 4 6 11 l 0.03711,0.0684 C 16.009988,243.41415 13.599624,242.64999 11,242.64999 c -7.2019945,0 -12.9999995,5.79799 -12.9999995,13 0,7.202 5.798005,13 12.9999995,13 7.202,0 13,-5.798 13,-13 v -23 l 8,-3 z m 10,15 -6,2 v 8.60156 c -0.750002,-0.38211 -1.597449,-0.60156 -2.5,-0.60156 -3.046998,0 -5.5,2.45294 -5.5,5.5 0,3.04694 2.453002,5.5 5.5,5.5 3.047002,0 5.5,-2.45302 5.5,-5.5 0,-0.0711 -0.0071,-0.14064 -0.0098,-0.21094 l 0.0098,0.0117 v -7.30078 -2 l 3,-1 z"
             style="fill:#1e62df;fill-opacity:1;stroke:none;stroke-width:1px;stroke-linecap:butt;stroke-linejoin:miter;stroke-opacity:1" />
          <path
             sodipodi:nodetypes="cccssssccccccccccccssssccccccsssscccccc"
             inkscape:connector-curvature="0"
             id="path4658-1"
             d="m 12.999999,215.64995 -5.9999995,2 v 8.60156 c -0.750002,-0.38211 -1.597449,-0.60156 -2.5,-0.60156 -3.046998,0 -5.5,2.45294 -5.5,5.5 0,3.04694 2.453002,5.5 5.5,5.5 3.047002,0 5.5,-2.45302 5.5,-5.5 0,-0.0711 -0.0071,-0.14064 -0.0098,-0.21094 l 0.0098,0.0117 v -7.30078 -2 l 2.9999995,-1 z m 19,2 -14,5 v 4 6 11 l 0.03711,0.0684 C 16.009988,242.41415 13.599624,241.64999 11,241.64999 c -7.2019945,0 -12.9999995,5.79799 -12.9999995,13 0,7.202 5.798005,13 12.9999995,13 7.202,0 13,-5.798 13,-13 v -23 l 8,-3 z m 10.009766,14.71094 -6,2 v 8.60156 c -0.750002,-0.38211 -1.597449,-0.60156 -2.5,-0.60156 -3.046999,0 -5.5,2.45294 -5.5,5.5 0,3.04694 2.453001,5.5 5.5,5.5 3.047002,0 5.5,-2.45302 5.5,-5.5 0,-0.0711 -0.0071,-0.14064 -0.0098,-0.21094 l 0.0098,0.0117 v -7.30078 -2 l 3,-1 z"
             style="fill:#f7faff;fill-opacity:1;stroke:none;stroke-width:1px;stroke-linecap:butt;stroke-linejoin:miter;stroke-opacity:1" />
        </g>
      </g>
    </g>
  </g>
</svg>
