<?xml version="1.0" encoding="UTF-8" standalone="no"?>
<svg
   xmlns:dc="http://purl.org/dc/elements/1.1/"
   xmlns:cc="http://creativecommons.org/ns#"
   xmlns:rdf="http://www.w3.org/1999/02/22-rdf-syntax-ns#"
   xmlns:svg="http://www.w3.org/2000/svg"
   xmlns="http://www.w3.org/2000/svg"
   xmlns:xlink="http://www.w3.org/1999/xlink"
   xmlns:sodipodi="http://sodipodi.sourceforge.net/DTD/sodipodi-0.dtd"
   xmlns:inkscape="http://www.inkscape.org/namespaces/inkscape"
   height="22"
   viewBox="0 0 22 22"
   width="22"
   id="svg2"
   version="1.1"
   inkscape:version="0.91 r13725"
   sodipodi:docname="emblem-unlocked.svg">
  <metadata
     id="metadata10">
    <rdf:RDF>
      <cc:Work
         rdf:about="">
        <dc:format>image/svg+xml</dc:format>
        <dc:type
           rdf:resource="http://purl.org/dc/dcmitype/StillImage" />
        <dc:title />
      </cc:Work>
    </rdf:RDF>
  </metadata>
  <sodipodi:namedview
     pagecolor="#ffffff"
     bordercolor="#666666"
     borderopacity="1"
     objecttolerance="10"
     gridtolerance="10"
     guidetolerance="10"
     inkscape:pageopacity="0"
     inkscape:pageshadow="2"
     inkscape:window-width="1360"
     inkscape:window-height="697"
     id="namedview8"
     showgrid="true"
     inkscape:showpageshadow="false"
     inkscape:snap-bbox="true"
     inkscape:bbox-paths="true"
     inkscape:bbox-nodes="true"
     inkscape:snap-bbox-edge-midpoints="true"
     inkscape:snap-bbox-midpoints="true"
     inkscape:object-paths="true"
     inkscape:snap-intersection-paths="true"
     inkscape:object-nodes="true"
     inkscape:snap-smooth-nodes="false"
     inkscape:snap-midpoints="false"
     inkscape:zoom="5.6568542"
     inkscape:cx="-7.7142559"
     inkscape:cy="5.1268278"
     inkscape:window-x="0"
     inkscape:window-y="0"
     inkscape:window-maximized="1"
     inkscape:current-layer="g2289">
    <inkscape:grid
       type="xygrid"
       id="grid5653" />
  </sodipodi:namedview>
  <defs
     id="defs2">
    <style
       type="text/css"
       id="current-color-scheme">
      .ColorScheme-Text {
        color:#122036;
      }
      </style>
    <linearGradient
       inkscape:collect="always"
       xlink:href="#linearGradient4902"
       id="linearGradient5790"
       x1="29.333334"
       y1="308.64999"
       x2="29.333334"
       y2="278.64999"
       gradientUnits="userSpaceOnUse" />
    <style
       type="text/css"
       id="current-color-scheme-1">
      .ColorScheme-Text {
        color:#122036;
      }
      </style>
    <style
       id="current-color-scheme-10"
       type="text/css">
      .ColorScheme-Text {
        color:#122036;
      }
      </style>
    <style
       id="current-color-scheme-5"
       type="text/css">
      .ColorScheme-Text {
        color:#122036;
      }
      </style>
    <style
       id="current-color-scheme-1-2"
       type="text/css">
      .ColorScheme-Text {
        color:#122036;
      }
      </style>
    <style
       type="text/css"
       id="current-color-scheme-10-9">
      .ColorScheme-Text {
        color:#122036;
      }
      </style>
    <linearGradient
       inkscape:collect="always"
       id="linearGradient4902">
      <stop
         style="stop-color:#5563b2;stop-opacity:1"
         offset="0"
         id="stop4898" />
      <stop
         style="stop-color:#7986cb;stop-opacity:1"
         offset="1"
         id="stop4900" />
    </linearGradient>
  </defs>
  <g
     transform="translate(-18,-287.64999)"
     id="layer1-60"
     inkscape:label="Capa 1">
    <g
       transform="matrix(0.6,0,0,0.6,9.4,122.46)"
       id="g2289">
      <path
         style="opacity:1;fill:#4a5599;fill-opacity:1;stroke:none;stroke-width:3.33333349;stroke-linecap:round;stroke-linejoin:round;stroke-miterlimit:4;stroke-dasharray:none;stroke-opacity:1"
         d="m 18,276.98331 29.333332,0 c 1.108,0 2,0.892 2,2 l 0,29.33334 c 0,1.108 -0.892,2 -2,2 l -29.333332,0 c -1.108,0 -2,-0.892 -2,-2 l 0,-29.33334 c 0,-1.108 0.892,-2 2,-2 z"
         id="rect5697" />
      <path
         style="opacity:1;fill:url(#linearGradient5790);fill-opacity:1.0;stroke:none;stroke-width:2;stroke-linecap:round;stroke-linejoin:round;stroke-miterlimit:4;stroke-dasharray:none;stroke-opacity:1"
         d="m 18.666666,278.64999 28,0 c 0.554,0 1,0.446 1,1 l 0,28 c 0,0.554 -0.446,1 -1,1 l -28,0 c -0.554,0 -1,-0.446 -1,-1 l 0,-28 c 0,-0.554 0.446,-1 1,-1 z"
         id="rect5699" />
      <path
         inkscape:connector-curvature="0"
         style="opacity:1;fill:#4a5599;fill-opacity:1;stroke:none;stroke-width:2;stroke-linecap:round;stroke-linejoin:round;stroke-miterlimit:4;stroke-dasharray:none;stroke-opacity:1"
         d="m 32.666667,283.64998 c -3.101556,0 -5.579805,2.14079 -6.331381,5 l 3.684896,0 c 0.588281,-0.93936 1.451813,-1.66667 2.646485,-1.66667 1.846666,0 3.333333,1.48667 3.333333,3.33334 l 0,1.66666 -5,0 -1.666667,0 -3.333333,0 c -0.923333,0 -1.666667,0.74334 -1.666667,1.66667 l 0,10 c 0,0.92333 0.743334,1.66667 1.666667,1.66667 l 13.333333,0 C 40.256667,305.31665 41,304.57331 41,303.64998 l 0,-10 c 0,-0.92333 -0.743333,-1.66667 -1.666667,-1.66667 l 0,-1.66666 c 0,-3.69334 -2.973333,-6.66667 -6.666666,-6.66667 z m 0,10 c 1.846666,0 3.333333,1.48667 3.333333,3.33333 0,1.23512 -0.673668,2.29842 -1.666667,2.87435 l 0,3.79232 -3.333333,0 0,-3.79232 c -0.992998,-0.57593 -1.666667,-1.63923 -1.666667,-2.87435 0,-1.84666 1.486667,-3.33333 3.333334,-3.33333 z"
         id="rect4165-5" />
      <path
         style="opacity:1;fill:#ebecf4;fill-opacity:1;stroke:none;stroke-width:2;stroke-linecap:round;stroke-linejoin:round;stroke-miterlimit:4;stroke-dasharray:none;stroke-opacity:1"
         d="M 11 4 C 9.1390668 4 7.6521171 5.2844713 7.2011719 7 L 9.4121094 7 C 9.7650781 6.4363851 10.283197 6 11 6 C 12.108 6 13 6.8920001 13 8 L 13 9 L 10 9 L 9 9 L 7 9 C 6.4460001 9 6 9.4460001 6 10 L 6 16 C 6 16.554 6.4460001 17 7 17 L 15 17 C 15.554 17 16 16.554 16 16 L 16 10 C 16 9.4460001 15.554 9 15 9 L 15 8 C 15 5.7840001 13.216 4 11 4 z M 11 10 C 12.108 10 13 10.892 13 12 C 13 12.74107 12.595799 13.379048 12 13.724609 L 12 16 L 10 16 L 10 13.724609 C 9.4042011 13.379048 9 12.74107 9 12 C 9 10.892 9.892 10 11 10 z "
         id="rect4165"
         transform="matrix(1.6666667,0,0,1.6666667,14.333333,275.31665)" />
    </g>
  </g>
</svg>
