<?xml version="1.0" encoding="UTF-8" standalone="no"?>
<svg
   xmlns:dc="http://purl.org/dc/elements/1.1/"
   xmlns:cc="http://creativecommons.org/ns#"
   xmlns:rdf="http://www.w3.org/1999/02/22-rdf-syntax-ns#"
   xmlns:svg="http://www.w3.org/2000/svg"
   xmlns="http://www.w3.org/2000/svg"
   xmlns:xlink="http://www.w3.org/1999/xlink"
   xmlns:sodipodi="http://sodipodi.sourceforge.net/DTD/sodipodi-0.dtd"
   xmlns:inkscape="http://www.inkscape.org/namespaces/inkscape"
   height="22"
   viewBox="0 0 22 22"
   width="22"
   id="svg2"
   version="1.1"
   inkscape:version="0.91 r13725"
   sodipodi:docname="emblem-info.svg">
  <metadata
     id="metadata10">
    <rdf:RDF>
      <cc:Work
         rdf:about="">
        <dc:format>image/svg+xml</dc:format>
        <dc:type
           rdf:resource="http://purl.org/dc/dcmitype/StillImage" />
        <dc:title />
      </cc:Work>
    </rdf:RDF>
  </metadata>
  <sodipodi:namedview
     pagecolor="#ffffff"
     bordercolor="#666666"
     borderopacity="1"
     objecttolerance="10"
     gridtolerance="10"
     guidetolerance="10"
     inkscape:pageopacity="0"
     inkscape:pageshadow="2"
     inkscape:window-width="1360"
     inkscape:window-height="697"
     id="namedview8"
     showgrid="true"
     inkscape:showpageshadow="false"
     inkscape:snap-bbox="true"
     inkscape:bbox-paths="true"
     inkscape:bbox-nodes="true"
     inkscape:snap-bbox-edge-midpoints="true"
     inkscape:snap-bbox-midpoints="true"
     inkscape:object-paths="true"
     inkscape:snap-intersection-paths="true"
     inkscape:object-nodes="true"
     inkscape:snap-smooth-nodes="false"
     inkscape:snap-midpoints="false"
     inkscape:zoom="32.000001"
     inkscape:cx="14.627555"
     inkscape:cy="9.2159308"
     inkscape:window-x="0"
     inkscape:window-y="0"
     inkscape:window-maximized="1"
     inkscape:current-layer="g2289">
    <inkscape:grid
       type="xygrid"
       id="grid5653" />
  </sodipodi:namedview>
  <defs
     id="defs2">
    <style
       type="text/css"
       id="current-color-scheme">
      .ColorScheme-Text {
        color:#122036;
      }
      </style>
    <linearGradient
       inkscape:collect="always"
       xlink:href="#linearGradient4902"
       id="linearGradient5790"
       x1="29.333334"
       y1="308.64999"
       x2="29.333334"
       y2="278.64999"
       gradientUnits="userSpaceOnUse" />
    <style
       type="text/css"
       id="current-color-scheme-1">
      .ColorScheme-Text {
        color:#122036;
      }
      </style>
    <style
       id="current-color-scheme-10"
       type="text/css">
      .ColorScheme-Text {
        color:#122036;
      }
      </style>
    <linearGradient
       id="linearGradient4902"
       inkscape:collect="always">
      <stop
         id="stop4898"
         offset="0"
         style="stop-color:#0d72ec;stop-opacity:1" />
      <stop
         id="stop4900"
         offset="1"
         style="stop-color:#36b2fb;stop-opacity:1" />
    </linearGradient>
    <style
       id="current-color-scheme-5"
       type="text/css">
      .ColorScheme-Text {
        color:#122036;
      }
      </style>
    <style
       id="current-color-scheme-1-2"
       type="text/css">
      .ColorScheme-Text {
        color:#122036;
      }
      </style>
    <style
       type="text/css"
       id="current-color-scheme-10-9">
      .ColorScheme-Text {
        color:#122036;
      }
      </style>
    <style
       type="text/css"
       id="current-color-scheme-6">
      .ColorScheme-Text {
        color:#122036;
      }
      </style>
    <style
       type="text/css"
       id="current-color-scheme-1-9">
      .ColorScheme-Text {
        color:#122036;
      }
      </style>
    <style
       id="current-color-scheme-10-1"
       type="text/css">
      .ColorScheme-Text {
        color:#122036;
      }
      </style>
  </defs>
  <g
     transform="translate(-18,-287.64999)"
     id="layer1-60"
     inkscape:label="Capa 1">
    <g
       transform="matrix(0.6,0,0,0.6,9.4,122.46)"
       id="g2289">
      <path
         style="opacity:1;fill:#0e44b2;fill-opacity:1;stroke:none;stroke-width:2;stroke-linecap:round;stroke-linejoin:round;stroke-miterlimit:4;stroke-dasharray:none;stroke-opacity:1"
         d="m 32.666666,276.98331 c 9.233333,0 16.666666,7.43333 16.666666,16.66666 0,9.23334 -7.433333,16.66667 -16.666666,16.66667 C 23.433333,310.31664 16,302.88331 16,293.64997 c 0,-9.23333 7.433333,-16.66666 16.666666,-16.66666 z"
         id="rect5699-5" />
      <path
         style="opacity:1;fill:url(#linearGradient5790);fill-opacity:1;stroke:none;stroke-width:2;stroke-linecap:round;stroke-linejoin:round;stroke-miterlimit:4;stroke-dasharray:none;stroke-opacity:1"
         d="m 32.666666,278.64999 c 8.31,0 15,6.69 15,15 0,8.31 -6.69,15 -15,15 -8.31,0 -15,-6.69 -15,-15 0,-8.31 6.69,-15 15,-15 z"
         id="rect5699" />
      <g
         inkscape:label="Capa 1"
         id="layer1-60-1"
         transform="matrix(1.6666667,0,0,1.6666667,-15.666667,-204.10001)" />
      <path
         style="opacity:1;fill:#0e44b2;fill-opacity:1;stroke:none;stroke-width:2;stroke-linecap:round;stroke-linejoin:round;stroke-miterlimit:4;stroke-dasharray:none;stroke-dashoffset:0;stroke-opacity:1"
         d="M 11 5 C 9.8920027 5 9 5.8920027 9 7 C 9 8.1079973 9.8920027 9 11 9 C 12.107997 9 13 8.1079973 13 7 C 13 5.8920027 12.107997 5 11 5 z M 11 11 C 9.8920001 11 9 11.892 9 13 L 9 17 C 9 18.108 9.8920001 19 11 19 C 12.108 19 13 18.108 13 17 L 13 13 C 13 11.892 12.108 11 11 11 z "
         transform="matrix(1.6666667,0,0,1.6666667,14.333333,275.31665)"
         id="rect4153" />
      <path
         style="opacity:1;fill:#dceefd;fill-opacity:1;stroke:none;stroke-width:2;stroke-linecap:round;stroke-linejoin:round;stroke-miterlimit:4;stroke-dasharray:none;stroke-dashoffset:0;stroke-opacity:1"
         d="M 11 4 C 9.8920027 4 9 4.8920027 9 6 C 9 7.1079973 9.8920027 8 11 8 C 12.107997 8 13 7.1079973 13 6 C 13 4.8920027 12.107997 4 11 4 z M 11 10 C 9.8920001 10 9 10.892 9 12 L 9 16 C 9 17.108 9.8920001 18 11 18 C 12.108 18 13 17.108 13 16 L 13 12 C 13 10.892 12.108 10 11 10 z "
         transform="matrix(1.6666667,0,0,1.6666667,14.333333,275.31665)"
         id="rect4153-3" />
    </g>
  </g>
</svg>
