<?xml version="1.0" encoding="UTF-8" standalone="no"?>
<!-- Created with Inkscape (http://www.inkscape.org/) -->

<svg
   width="48"
   height="48"
   viewBox="0 0 48 48"
   version="1.1"
   id="svg8"
   inkscape:version="1.2 (dc2aedaf03, 2022-05-15)"
   sodipodi:docname="alt-documents.svg"
   xmlns:inkscape="http://www.inkscape.org/namespaces/inkscape"
   xmlns:sodipodi="http://sodipodi.sourceforge.net/DTD/sodipodi-0.dtd"
   xmlns:xlink="http://www.w3.org/1999/xlink"
   xmlns="http://www.w3.org/2000/svg"
   xmlns:svg="http://www.w3.org/2000/svg"
   xmlns:rdf="http://www.w3.org/1999/02/22-rdf-syntax-ns#"
   xmlns:cc="http://creativecommons.org/ns#"
   xmlns:dc="http://purl.org/dc/elements/1.1/">
  <title
     id="title7895">Antu icon Theme</title>
  <defs
     id="defs2">
    <linearGradient
       gradientTransform="matrix(3.7795276,0,0,3.7795276,-43.99999,-814.86961)"
       gradientUnits="userSpaceOnUse"
       y2="290.64999"
       x2="6.3499999"
       y1="293.03125"
       x1="6.3499999"
       id="linearGradient5401"
       xlink:href="#linearGradient4631-5"
       inkscape:collect="always" />
    <linearGradient
       id="linearGradient4631-5"
       inkscape:collect="always">
      <stop
         id="stop4627-78"
         offset="0"
         style="stop-color:#f2e9c2;stop-opacity:1" />
      <stop
         id="stop4629-5"
         offset="1"
         style="stop-color:#fffff2;stop-opacity:1" />
    </linearGradient>
    <linearGradient
       gradientTransform="translate(-48,-31.99805)"
       inkscape:collect="always"
       xlink:href="#linearGradient1536"
       id="linearGradient1823"
       gradientUnits="userSpaceOnUse"
       x1="28"
       y1="334.64804"
       x2="28.000002"
       y2="297.64999" />
    <linearGradient
       inkscape:collect="always"
       id="linearGradient1536">
      <stop
         style="stop-color:#f09d37;stop-opacity:1"
         offset="0"
         id="stop1532" />
      <stop
         style="stop-color:#f9b956;stop-opacity:1"
         offset="1"
         id="stop1534" />
    </linearGradient>
    <linearGradient
       gradientTransform="matrix(1.4999999,0,0,1.4999999,-133.12667,-142.18607)"
       inkscape:collect="always"
       xlink:href="#linearGradient3571"
       id="linearGradient1821"
       gradientUnits="userSpaceOnUse"
       x1="67.417786"
       y1="268.5574"
       x2="67.417786"
       y2="274.5574" />
    <linearGradient
       inkscape:collect="always"
       id="linearGradient3571">
      <stop
         style="stop-color:#d98e33;stop-opacity:1"
         offset="0"
         id="stop3567" />
      <stop
         style="stop-color:#f19f39;stop-opacity:1"
         offset="1"
         id="stop3569" />
    </linearGradient>
  </defs>
  <sodipodi:namedview
     id="base"
     pagecolor="#ffffff"
     bordercolor="#666666"
     borderopacity="1.0"
     inkscape:pageopacity="0.0"
     inkscape:pageshadow="2"
     inkscape:zoom="22.627418"
     inkscape:cx="19.003494"
     inkscape:cy="16.197164"
     inkscape:document-units="px"
     inkscape:current-layer="layer1"
     showgrid="true"
     units="px"
     inkscape:window-width="2160"
     inkscape:window-height="1337"
     inkscape:window-x="0"
     inkscape:window-y="0"
     inkscape:window-maximized="1"
     objecttolerance="10"
     gridtolerance="10"
     guidetolerance="10"
     inkscape:snap-bbox="true"
     inkscape:bbox-paths="true"
     inkscape:bbox-nodes="true"
     inkscape:snap-bbox-edge-midpoints="true"
     inkscape:snap-bbox-midpoints="true"
     inkscape:object-paths="true"
     inkscape:snap-intersection-paths="true"
     inkscape:showpageshadow="2"
     inkscape:pagecheckerboard="0"
     inkscape:deskcolor="#d1d1d1">
    <inkscape:grid
       type="xygrid"
       id="grid7897"
       empspacing="4" />
  </sodipodi:namedview>
  <metadata
     id="metadata5">
    <rdf:RDF>
      <cc:Work
         rdf:about="">
        <dc:format>image/svg+xml</dc:format>
        <dc:type
           rdf:resource="http://purl.org/dc/dcmitype/StillImage" />
        <dc:title>Antu icon Theme</dc:title>
      </cc:Work>
    </rdf:RDF>
  </metadata>
  <g
     inkscape:label="Capa 1"
     inkscape:groupmode="layer"
     id="layer1"
     transform="translate(0,-266.64999)">
    <g
       id="g14500"
       transform="translate(44,10)">
      <path
         inkscape:connector-curvature="0"
         style="color:#000000;font-style:normal;font-variant:normal;font-weight:normal;font-stretch:normal;font-size:medium;line-height:normal;font-family:sans-serif;font-variant-ligatures:normal;font-variant-position:normal;font-variant-caps:normal;font-variant-numeric:normal;font-variant-alternates:normal;font-feature-settings:normal;text-indent:0;text-align:start;text-decoration:none;text-decoration-line:none;text-decoration-style:solid;text-decoration-color:#000000;letter-spacing:normal;word-spacing:normal;text-transform:none;writing-mode:lr-tb;direction:ltr;text-orientation:mixed;dominant-baseline:auto;baseline-shift:baseline;text-anchor:start;white-space:normal;shape-padding:0;clip-rule:nonzero;display:inline;overflow:visible;visibility:visible;opacity:1;isolation:auto;mix-blend-mode:normal;color-interpolation:sRGB;color-interpolation-filters:linearRGB;solid-color:#000000;solid-opacity:1;vector-effect:none;fill:#b2752a;fill-opacity:1;fill-rule:nonzero;stroke:none;stroke-width:1.99999988;stroke-linecap:round;stroke-linejoin:round;stroke-miterlimit:4;stroke-dasharray:none;stroke-dashoffset:0;stroke-opacity:1;color-rendering:auto;image-rendering:auto;shape-rendering:auto;text-rendering:auto;enable-background:accumulate"
         d="m -41,258.64999 c -1.644706,0 -3,1.3553 -3,3 v 39 c 0,1.6447 1.355294,3 3,3 H 1 c 1.644705,0 3,-1.3553 3,-3 v -33 c 0,-1.6447 -1.355295,-3 -3,-3 h -21.998047 c -0.505981,0 -0.774153,-0.16677 -1.154297,-0.59766 -0.380145,-0.43089 -0.765928,-1.12884 -1.195312,-1.89257 -0.429386,-0.76373 -0.909713,-1.5975 -1.638672,-2.29297 -0.72896,-0.69549 -1.763671,-1.2168 -3.013672,-1.2168 z"
         id="path1233-0" />
      <path
         style="opacity:1;vector-effect:none;fill:url(#linearGradient1821);fill-opacity:1;stroke:none;stroke-width:1.99999988;stroke-linecap:round;stroke-linejoin:round;stroke-miterlimit:4;stroke-dasharray:none;stroke-dashoffset:0;stroke-opacity:1"
         d="m -40.999999,259.65195 h 12.999997 c 4,0 3.746593,6 7,6 H 0.999997 c 1.108,0 2.000001,0.892 2.000001,1.99999 v 33 c 0,1.10801 -0.892001,2.00001 -2.000001,2.00001 h -41.999996 c -1.108,0 -1.999999,-0.892 -1.999999,-2.00001 v -39 c 0,-1.10799 0.891999,-1.99999 1.999999,-1.99999 z"
         id="rect993-9"
         inkscape:connector-curvature="0"
         sodipodi:nodetypes="sccssssssss" />
      <path
         inkscape:connector-curvature="0"
         style="color:#000000;font-style:normal;font-variant:normal;font-weight:normal;font-stretch:normal;font-size:medium;line-height:normal;font-family:sans-serif;font-variant-ligatures:normal;font-variant-position:normal;font-variant-caps:normal;font-variant-numeric:normal;font-variant-alternates:normal;font-feature-settings:normal;text-indent:0;text-align:start;text-decoration:none;text-decoration-line:none;text-decoration-style:solid;text-decoration-color:#000000;letter-spacing:normal;word-spacing:normal;text-transform:none;writing-mode:lr-tb;direction:ltr;text-orientation:mixed;dominant-baseline:auto;baseline-shift:baseline;text-anchor:start;white-space:normal;shape-padding:0;clip-rule:nonzero;display:inline;overflow:visible;visibility:visible;opacity:1;isolation:auto;mix-blend-mode:normal;color-interpolation:sRGB;color-interpolation-filters:linearRGB;solid-color:#000000;solid-opacity:1;vector-effect:none;fill:#cc8630;fill-opacity:1;fill-rule:nonzero;stroke:none;stroke-width:1.99999988;stroke-linecap:round;stroke-linejoin:round;stroke-miterlimit:4;stroke-dasharray:none;stroke-dashoffset:0;stroke-opacity:1;color-rendering:auto;image-rendering:auto;shape-rendering:auto;text-rendering:auto;enable-background:accumulate"
         d="m -21,264.64998 c -1.120722,0 -2.041934,0.58128 -2.654297,1.2754 -0.612363,0.69411 -1.02356,1.49811 -1.4375,2.23437 -0.413939,0.73627 -0.825195,1.39861 -1.275391,1.82813 -0.450195,0.42951 -0.882812,0.66211 -1.632812,0.66211 h -13 c -1.644709,0 -3,1.35529 -3,3 v 26.99999 c 0,1.6447 1.355291,3 3,3 H 1 c 1.644709,0 3,-1.3553 3,-3 v -33 c 0,-1.6447 -1.355291,-3 -3,-3 z"
         id="path1270-4" />
      <path
         style="opacity:1;vector-effect:none;fill:url(#linearGradient1823);fill-opacity:1;stroke:none;stroke-width:1.99999988;stroke-linecap:round;stroke-linejoin:round;stroke-miterlimit:4;stroke-dasharray:none;stroke-dashoffset:0;stroke-opacity:1"
         d="M -40.999997,271.65194 H -28 c 4,0 3.746593,-6 7,-6 H 0.999999 c 1.108,0 2.000001,0.89202 2.000001,2 v 33 c 0,1.108 -0.892001,2.00001 -2.000001,2.00001 h -41.999996 c -1.108,0 -1.999999,-0.89201 -1.999999,-2.00001 v -27 c 0,-1.10798 0.891999,-2 1.999999,-2 z"
         id="rect993-6-9"
         inkscape:connector-curvature="0"
         sodipodi:nodetypes="sccssssssss" />
      <path
         sodipodi:nodetypes="sccssssss"
         inkscape:connector-curvature="0"
         id="rect5377"
         d="m -25.99999,279.64999 8,8e-5 5,4.99997 V 295.65 c 0,0.55401 -0.446,0.99999 -1,0.99999 h -12 c -0.554,0 -1,-0.44598 -1,-0.99999 v -14.99999 c 0,-0.554 0.446,-1.00002 1,-1.00002 z"
         style="opacity:1;fill:#cc8630;fill-opacity:1;stroke:none;stroke-width:1.99999988;stroke-linecap:round;stroke-linejoin:round;stroke-miterlimit:4;stroke-dasharray:none;stroke-opacity:1" />
      <path
         sodipodi:nodetypes="sccssssss"
         inkscape:connector-curvature="0"
         id="rect5377-3"
         d="m -25.99999,278.64996 8,8e-5 5.000001,4.99997 v 10.99998 c 0,0.55399 -0.446001,0.99998 -1.000001,0.99998 h -12 c -0.554,0 -1,-0.44599 -1,-0.99998 v -15 c 0,-0.554 0.446,-1.00003 1,-1.00003 z"
         style="opacity:1;fill:url(#linearGradient5401);fill-opacity:1;stroke:none;stroke-width:1.99999988;stroke-linecap:round;stroke-linejoin:round;stroke-miterlimit:4;stroke-dasharray:none;stroke-opacity:1" />
    </g>
  </g>
</svg>
