<?xml version="1.0" encoding="UTF-8" standalone="no"?>
<!-- Created with Inkscape (http://www.inkscape.org/) -->

<svg
   width="48"
   height="48"
   viewBox="0 0 48 48"
   version="1.1"
   id="svg8"
   inkscape:version="1.2 (dc2aedaf03, 2022-05-15)"
   sodipodi:docname="alt-torrents.svg"
   xmlns:inkscape="http://www.inkscape.org/namespaces/inkscape"
   xmlns:sodipodi="http://sodipodi.sourceforge.net/DTD/sodipodi-0.dtd"
   xmlns:xlink="http://www.w3.org/1999/xlink"
   xmlns="http://www.w3.org/2000/svg"
   xmlns:svg="http://www.w3.org/2000/svg"
   xmlns:rdf="http://www.w3.org/1999/02/22-rdf-syntax-ns#"
   xmlns:cc="http://creativecommons.org/ns#"
   xmlns:dc="http://purl.org/dc/elements/1.1/">
  <title
     id="title7895">Antu icon Theme</title>
  <defs
     id="defs2">
    <linearGradient
       inkscape:collect="always"
       xlink:href="#linearGradient3161"
       id="linearGradient932"
       x1="64.751122"
       y1="267.89072"
       x2="64.751122"
       y2="275.22406"
       gradientUnits="userSpaceOnUse" />
    <linearGradient
       inkscape:collect="always"
       xlink:href="#linearGradient856"
       id="linearGradient964"
       x1="28"
       y1="334.64804"
       x2="28.000002"
       y2="297.64999"
       gradientUnits="userSpaceOnUse" />
    <style
       id="current-color-scheme"
       type="text/css">
      .ColorScheme-Text {
        color:#122036;
      }
      </style>
    <style
       type="text/css"
       id="current-color-scheme-53">
      .ColorScheme-Text {
        color:#122036;
      }
      </style>
    <style
       id="current-color-scheme-5"
       type="text/css">
      .ColorScheme-Text {
        color:#122036;
      }
      </style>
    <style
       id="current-color-scheme-2"
       type="text/css">
      .ColorScheme-Text {
        color:#122036;
      }
      </style>
    <style
       id="current-color-scheme-1"
       type="text/css">
      .ColorScheme-Text {
        color:#122036;
      }
      </style>
    <style
       type="text/css"
       id="current-color-scheme-10">
      .ColorScheme-Text {
        color:#122036;
      }
      </style>
    <style
       id="current-color-scheme-0"
       type="text/css">
      .ColorScheme-Text {
        color:#122036;
      }
      </style>
    <style
       id="current-color-scheme-26"
       type="text/css">
      .ColorScheme-Text {
        color:#122036;
      }
      </style>
    <style
       id="current-color-scheme-7"
       type="text/css">
      .ColorScheme-Text {
        color:#122036;
      }
      </style>
    <linearGradient
       inkscape:collect="always"
       xlink:href="#linearGradient4631-3"
       id="linearGradient892"
       x1="73.946426"
       y1="301.47141"
       x2="73.946426"
       y2="281.47141"
       gradientUnits="userSpaceOnUse" />
    <style
       type="text/css"
       id="current-color-scheme-56">
      .ColorScheme-Text {
        color:#122036;
      }
      </style>
    <style
       id="current-color-scheme-53-29"
       type="text/css">
      .ColorScheme-Text {
        color:#122036;
      }
      </style>
    <style
       type="text/css"
       id="current-color-scheme-5-1">
      .ColorScheme-Text {
        color:#122036;
      }
      </style>
    <style
       type="text/css"
       id="current-color-scheme-2-2">
      .ColorScheme-Text {
        color:#122036;
      }
      </style>
    <style
       type="text/css"
       id="current-color-scheme-1-7">
      .ColorScheme-Text {
        color:#122036;
      }
      </style>
    <style
       id="current-color-scheme-10-0"
       type="text/css">
      .ColorScheme-Text {
        color:#122036;
      }
      </style>
    <style
       type="text/css"
       id="current-color-scheme-0-9">
      .ColorScheme-Text {
        color:#122036;
      }
      </style>
    <style
       type="text/css"
       id="current-color-scheme-26-3">
      .ColorScheme-Text {
        color:#122036;
      }
      </style>
    <style
       type="text/css"
       id="current-color-scheme-7-6">
      .ColorScheme-Text {
        color:#122036;
      }
      </style>
    <style
       id="current-color-scheme-535"
       type="text/css">
      .ColorScheme-Text {
        color:#122036;
      }
      </style>
    <style
       type="text/css"
       id="current-color-scheme-53-6">
      .ColorScheme-Text {
        color:#122036;
      }
      </style>
    <style
       id="current-color-scheme-5-2"
       type="text/css">
      .ColorScheme-Text {
        color:#122036;
      }
      </style>
    <style
       id="current-color-scheme-2-9"
       type="text/css">
      .ColorScheme-Text {
        color:#122036;
      }
      </style>
    <style
       id="current-color-scheme-1-1"
       type="text/css">
      .ColorScheme-Text {
        color:#122036;
      }
      </style>
    <style
       type="text/css"
       id="current-color-scheme-10-2">
      .ColorScheme-Text {
        color:#122036;
      }
      </style>
    <style
       id="current-color-scheme-0-7"
       type="text/css">
      .ColorScheme-Text {
        color:#122036;
      }
      </style>
    <style
       id="current-color-scheme-26-0"
       type="text/css">
      .ColorScheme-Text {
        color:#122036;
      }
      </style>
    <style
       id="current-color-scheme-7-9"
       type="text/css">
      .ColorScheme-Text {
        color:#122036;
      }
      </style>
    <style
       type="text/css"
       id="current-color-scheme-5356">
      .ColorScheme-Text {
        color:#122036;
      }
      </style>
    <style
       id="current-color-scheme-53-2"
       type="text/css">
      .ColorScheme-Text {
        color:#122036;
      }
      </style>
    <style
       type="text/css"
       id="current-color-scheme-5-9">
      .ColorScheme-Text {
        color:#122036;
      }
      </style>
    <style
       type="text/css"
       id="current-color-scheme-2-1">
      .ColorScheme-Text {
        color:#122036;
      }
      </style>
    <style
       type="text/css"
       id="current-color-scheme-1-2">
      .ColorScheme-Text {
        color:#122036;
      }
      </style>
    <style
       id="current-color-scheme-10-7"
       type="text/css">
      .ColorScheme-Text {
        color:#122036;
      }
      </style>
    <style
       type="text/css"
       id="current-color-scheme-0-0">
      .ColorScheme-Text {
        color:#122036;
      }
      </style>
    <style
       type="text/css"
       id="current-color-scheme-26-9">
      .ColorScheme-Text {
        color:#122036;
      }
      </style>
    <style
       type="text/css"
       id="current-color-scheme-7-3">
      .ColorScheme-Text {
        color:#122036;
      }
      </style>
    <style
       type="text/css"
       id="current-color-scheme-9">
      .ColorScheme-Text {
        color:#122036;
      }
      </style>
    <style
       id="current-color-scheme-53-20"
       type="text/css">
      .ColorScheme-Text {
        color:#122036;
      }
      </style>
    <style
       type="text/css"
       id="current-color-scheme-5-23">
      .ColorScheme-Text {
        color:#122036;
      }
      </style>
    <style
       type="text/css"
       id="current-color-scheme-2-7">
      .ColorScheme-Text {
        color:#122036;
      }
      </style>
    <style
       type="text/css"
       id="current-color-scheme-1-5">
      .ColorScheme-Text {
        color:#122036;
      }
      </style>
    <style
       id="current-color-scheme-10-9"
       type="text/css">
      .ColorScheme-Text {
        color:#122036;
      }
      </style>
    <style
       type="text/css"
       id="current-color-scheme-0-2">
      .ColorScheme-Text {
        color:#122036;
      }
      </style>
    <style
       type="text/css"
       id="current-color-scheme-26-2">
      .ColorScheme-Text {
        color:#122036;
      }
      </style>
    <style
       type="text/css"
       id="current-color-scheme-7-8">
      .ColorScheme-Text {
        color:#122036;
      }
      </style>
    <style
       id="current-color-scheme-70"
       type="text/css">
      .ColorScheme-Text {
        color:#122036;
      }
      </style>
    <style
       type="text/css"
       id="current-color-scheme-53-9">
      .ColorScheme-Text {
        color:#122036;
      }
      </style>
    <style
       id="current-color-scheme-5-3"
       type="text/css">
      .ColorScheme-Text {
        color:#122036;
      }
      </style>
    <style
       id="current-color-scheme-2-6"
       type="text/css">
      .ColorScheme-Text {
        color:#122036;
      }
      </style>
    <style
       id="current-color-scheme-1-0"
       type="text/css">
      .ColorScheme-Text {
        color:#122036;
      }
      </style>
    <style
       type="text/css"
       id="current-color-scheme-10-6">
      .ColorScheme-Text {
        color:#122036;
      }
      </style>
    <style
       id="current-color-scheme-0-26"
       type="text/css">
      .ColorScheme-Text {
        color:#122036;
      }
      </style>
    <style
       id="current-color-scheme-26-1"
       type="text/css">
      .ColorScheme-Text {
        color:#122036;
      }
      </style>
    <style
       id="current-color-scheme-7-87"
       type="text/css">
      .ColorScheme-Text {
        color:#122036;
      }
      </style>
    <style
       id="current-color-scheme-53562"
       type="text/css">
      .ColorScheme-Text {
        color:#122036;
      }
      </style>
    <style
       type="text/css"
       id="current-color-scheme-53-91">
      .ColorScheme-Text {
        color:#122036;
      }
      </style>
    <style
       id="current-color-scheme-5-27"
       type="text/css">
      .ColorScheme-Text {
        color:#122036;
      }
      </style>
    <style
       id="current-color-scheme-2-0"
       type="text/css">
      .ColorScheme-Text {
        color:#122036;
      }
      </style>
    <style
       id="current-color-scheme-1-9"
       type="text/css">
      .ColorScheme-Text {
        color:#122036;
      }
      </style>
    <style
       type="text/css"
       id="current-color-scheme-10-3">
      .ColorScheme-Text {
        color:#122036;
      }
      </style>
    <style
       id="current-color-scheme-0-6"
       type="text/css">
      .ColorScheme-Text {
        color:#122036;
      }
      </style>
    <style
       id="current-color-scheme-26-06"
       type="text/css">
      .ColorScheme-Text {
        color:#122036;
      }
      </style>
    <style
       id="current-color-scheme-7-2"
       type="text/css">
      .ColorScheme-Text {
        color:#122036;
      }
      </style>
    <linearGradient
       id="linearGradient4631-3"
       inkscape:collect="always">
      <stop
         id="stop4627-7"
         offset="0"
         style="stop-color:#c9c8f9;stop-opacity:1" />
      <stop
         id="stop4629-1"
         offset="1"
         style="stop-color:#f5f2ff;stop-opacity:1" />
    </linearGradient>
    <linearGradient
       inkscape:collect="always"
       id="linearGradient856">
      <stop
         style="stop-color:#6778d9;stop-opacity:1"
         offset="0"
         id="stop852" />
      <stop
         style="stop-color:#8997e5;stop-opacity:1"
         offset="1"
         id="stop854" />
    </linearGradient>
    <linearGradient
       inkscape:collect="always"
       id="linearGradient3161">
      <stop
         style="stop-color:#5c6bbf;stop-opacity:1"
         offset="0"
         id="stop3157" />
      <stop
         style="stop-color:#6a7ada;stop-opacity:1"
         offset="1"
         id="stop3159" />
    </linearGradient>
  </defs>
  <sodipodi:namedview
     id="base"
     pagecolor="#ffffff"
     bordercolor="#666666"
     borderopacity="1.0"
     inkscape:pageopacity="0.0"
     inkscape:pageshadow="2"
     inkscape:zoom="31.678384"
     inkscape:cx="11.648321"
     inkscape:cy="14.473592"
     inkscape:document-units="px"
     inkscape:current-layer="layer1"
     showgrid="true"
     units="px"
     inkscape:window-width="2160"
     inkscape:window-height="1337"
     inkscape:window-x="0"
     inkscape:window-y="0"
     inkscape:window-maximized="1"
     objecttolerance="10"
     gridtolerance="10"
     guidetolerance="10"
     inkscape:showpageshadow="2"
     inkscape:pagecheckerboard="0"
     inkscape:deskcolor="#d1d1d1">
    <inkscape:grid
       type="xygrid"
       id="grid7897"
       empspacing="4" />
  </sodipodi:namedview>
  <metadata
     id="metadata5">
    <rdf:RDF>
      <cc:Work
         rdf:about="">
        <dc:format>image/svg+xml</dc:format>
        <dc:type
           rdf:resource="http://purl.org/dc/dcmitype/StillImage" />
        <dc:title>Antu icon Theme</dc:title>
      </cc:Work>
    </rdf:RDF>
  </metadata>
  <g
     inkscape:label="Capa 1"
     inkscape:groupmode="layer"
     id="layer1"
     transform="translate(0,-266.64999)">
    <g
       id="g5234"
       transform="translate(-12.000001,-6.06979)">
      <g
         transform="translate(8.0000008,-15.928262)"
         id="g1286">
        <g
           id="g989"
           transform="matrix(1.4999999,0,0,1.4999999,-85.126671,-110.18802)"
           style="stroke:none">
          <path
             inkscape:connector-curvature="0"
             style="color:#000000;font-style:normal;font-variant:normal;font-weight:normal;font-stretch:normal;font-size:medium;line-height:normal;font-family:sans-serif;font-variant-ligatures:normal;font-variant-position:normal;font-variant-caps:normal;font-variant-numeric:normal;font-variant-alternates:normal;font-feature-settings:normal;text-indent:0;text-align:start;text-decoration:none;text-decoration-line:none;text-decoration-style:solid;text-decoration-color:#000000;letter-spacing:normal;word-spacing:normal;text-transform:none;writing-mode:lr-tb;direction:ltr;text-orientation:mixed;dominant-baseline:auto;baseline-shift:baseline;text-anchor:start;white-space:normal;shape-padding:0;clip-rule:nonzero;display:inline;overflow:visible;visibility:visible;opacity:1;isolation:auto;mix-blend-mode:normal;color-interpolation:sRGB;color-interpolation-filters:linearRGB;solid-color:#000000;solid-opacity:1;vector-effect:none;fill:#4b5799;fill-opacity:1;fill-rule:nonzero;stroke:none;stroke-width:1.99999988;stroke-linecap:round;stroke-linejoin:round;stroke-miterlimit:4;stroke-dasharray:none;stroke-dashoffset:0;stroke-opacity:1;color-rendering:auto;image-rendering:auto;shape-rendering:auto;text-rendering:auto;enable-background:accumulate"
             d="m 3,32.998047 c -1.6447064,0 -3,1.355295 -3,3 v 39 c 0,1.644705 1.3552936,3 3,3 h 42 c 1.644705,0 3,-1.355295 3,-3 v -33 c 0,-1.644705 -1.355295,-3 -3,-3 H 23.001953 c -0.505981,0 -0.774153,-0.166766 -1.154297,-0.597656 -0.380145,-0.43089 -0.765928,-1.128839 -1.195312,-1.892579 C 20.222958,35.744088 19.742631,34.910319 19.013672,34.214844 18.284712,33.519354 17.250001,32.998047 16,32.998047 Z"
             transform="matrix(0.66666671,0,0,0.66666671,59.417785,245.22536)"
             id="path1233" />
          <g
             style="stroke:none;stroke-width:2;stroke-linecap:round;stroke-linejoin:round;stroke-miterlimit:4;stroke-dasharray:none;stroke-opacity:1"
             inkscape:label="Capa 1"
             id="layer1-0-6-8"
             transform="translate(100.17173,14.206221)">
            <g
               style="stroke:none;stroke-width:2;stroke-linecap:round;stroke-linejoin:round;stroke-miterlimit:4;stroke-dasharray:none;stroke-opacity:1"
               id="g6719-0-7"
               transform="translate(-40.753942,-34.63084)" />
          </g>
          <path
             style="opacity:1;vector-effect:none;fill:url(#linearGradient932);fill-opacity:1;stroke:none;stroke-width:1.33333337;stroke-linecap:round;stroke-linejoin:round;stroke-miterlimit:4;stroke-dasharray:none;stroke-dashoffset:0;stroke-opacity:1"
             d="m 61.417785,267.89203 h 8.666665 c 2.666667,0 2.497729,4 4.666667,4 h 14.666667 c 0.738667,0 1.333334,0.59467 1.333334,1.33333 v 22 c 0,0.73867 -0.594667,1.33334 -1.333334,1.33334 H 61.417785 c -0.738667,0 -1.333333,-0.59467 -1.333333,-1.33334 v -26 c 0,-0.73866 0.594666,-1.33333 1.333333,-1.33333 z"
             id="rect993"
             inkscape:connector-curvature="0"
             sodipodi:nodetypes="sccssssssss" />
        </g>
        <path
           inkscape:connector-curvature="0"
           style="color:#000000;font-style:normal;font-variant:normal;font-weight:normal;font-stretch:normal;font-size:medium;line-height:normal;font-family:sans-serif;font-variant-ligatures:normal;font-variant-position:normal;font-variant-caps:normal;font-variant-numeric:normal;font-variant-alternates:normal;font-feature-settings:normal;text-indent:0;text-align:start;text-decoration:none;text-decoration-line:none;text-decoration-style:solid;text-decoration-color:#000000;letter-spacing:normal;word-spacing:normal;text-transform:none;writing-mode:lr-tb;direction:ltr;text-orientation:mixed;dominant-baseline:auto;baseline-shift:baseline;text-anchor:start;white-space:normal;shape-padding:0;clip-rule:nonzero;display:inline;overflow:visible;visibility:visible;opacity:1;isolation:auto;mix-blend-mode:normal;color-interpolation:sRGB;color-interpolation-filters:linearRGB;solid-color:#000000;solid-opacity:1;vector-effect:none;fill:#4b5799;fill-opacity:1;fill-rule:nonzero;stroke:none;stroke-width:1.99999988;stroke-linecap:round;stroke-linejoin:round;stroke-miterlimit:4;stroke-dasharray:none;stroke-dashoffset:0;stroke-opacity:1;color-rendering:auto;image-rendering:auto;shape-rendering:auto;text-rendering:auto;enable-background:accumulate"
           d="m 23,38.998047 c -1.120722,0 -2.041934,0.58128 -2.654297,1.275391 -0.612363,0.69411 -1.02356,1.498114 -1.4375,2.234374 -0.413939,0.73627 -0.825195,1.398606 -1.275391,1.828126 C 17.182617,44.765457 16.75,44.998047 16,44.998047 H 3 c -1.644709,0 -3,1.3553 -3,3 v 27 c 0,1.6447 1.355291,3 3,3 h 42 c 1.644709,0 3,-1.3553 3,-3 v -33 c 0,-1.6447 -1.355291,-3 -3,-3 z"
           transform="translate(4,257.64999)"
           id="path1270" />
        <path
           style="opacity:1;vector-effect:none;fill:url(#linearGradient964);fill-opacity:1.0;stroke:none;stroke-width:1.99999988;stroke-linecap:round;stroke-linejoin:round;stroke-miterlimit:4;stroke-dasharray:none;stroke-dashoffset:0;stroke-opacity:1"
           d="M 7.0000033,303.64999 H 20 c 4,0 3.746593,-6 7,-6 h 21.999999 c 1.108,0 2.000001,0.89202 2.000001,2 v 33 c 0,1.108 -0.892001,2.00001 -2.000001,2.00001 H 7.0000033 c -1.1080004,0 -1.9999993,-0.89201 -1.9999993,-2.00001 v -27 c 0,-1.10798 0.8919989,-2 1.9999993,-2 z"
           id="rect993-6"
           inkscape:connector-curvature="0"
           sodipodi:nodetypes="sccssssssss" />
      </g>
    </g>
    <g
       id="layer1-6"
       inkscape:label="Capa 1"
       transform="translate(-41.946428,7.17857)">
      <g
         id="g1593"
         transform="translate(35,14)" />
      <path
         id="path835-1"
         d="m 71.090958,282.47337 a 10,10 0 0 0 -7.216797,2.92774 10,10 0 0 0 -2.167968,10.89648 10,10 0 0 0 9.238281,6.17383 v -2 a 8,8 0 0 1 -0.798828,-0.0391 8,8 0 0 1 -0.791016,-0.12109 8,8 0 0 1 -0.773437,-0.19727 8,8 0 0 1 -0.751954,-0.27344 8,8 0 0 1 -0.720703,-0.34765 8,8 0 0 1 -0.68164,-0.41797 8,8 0 0 1 -0.636719,-0.48438 8,8 0 0 1 -0.583984,-0.54492 8,8 0 0 1 -0.529297,-0.60156 8,8 0 0 1 -0.464844,-0.65039 8,8 0 0 1 -0.396484,-0.69336 8,8 0 0 1 -0.261719,-0.56836 8,8 0 0 1 -0.269531,-0.75195 8,8 0 0 1 -0.191407,-0.77735 8,8 0 0 1 -0.113281,-0.79101 8,8 0 0 1 -0.03516,-0.79883 8,8 0 0 1 0.04687,-0.79883 8,8 0 0 1 0.125,-0.78906 8,8 0 0 1 0.203125,-0.77344 8,8 0 0 1 0.279297,-0.75 8,8 0 0 1 0.353515,-0.7168 8,8 0 0 1 0.421875,-0.67773 8,8 0 0 1 0.490235,-0.63477 8,8 0 0 1 0.423828,-0.45703 8,8 0 0 1 0.591797,-0.53711 8,8 0 0 1 0.644531,-0.47461 8,8 0 0 1 0.6875,-0.4082 8,8 0 0 1 0.724609,-0.33789 8,8 0 0 1 0.75586,-0.26172 8,8 0 0 1 0.777344,-0.1875 8,8 0 0 1 0.792968,-0.10742 8,8 0 0 1 0.798828,-0.0293 8,8 0 0 1 0.796875,0.0527 8,8 0 0 1 0.789063,0.13086 8,8 0 0 1 0.771484,0.20898 8,8 0 0 1 0.585938,0.2168 8,8 0 0 1 0.722656,0.3418 8,8 0 0 1 0.685547,0.41406 8,8 0 0 1 0.640625,0.47852 8,8 0 0 1 0.58789,0.54101 8,8 0 0 1 0.533204,0.59766 8,8 0 0 1 0.46875,0.64648 8,8 0 0 1 0.404296,0.68945 8,8 0 0 1 0.332032,0.72852 8,8 0 0 1 0.257812,0.75781 8,8 0 0 1 0.179688,0.77735 8,8 0 0 1 0.103515,0.79297 8,8 0 0 1 0.02344,0.625 h 2 a 10,10 0 0 0 -6.173821,-9.23828 10,10 0 0 0 -3.679688,-0.75977 z m -0.04492,2.99805 a 7,7 0 0 0 -5.050781,2.05078 7,7 0 0 0 -1.517578,7.62891 7,7 0 0 0 6.466797,4.32031 v -2 a 5,5 0 0 1 -0.5,-0.0254 5,5 0 0 1 -0.494141,-0.0742 5,5 0 0 1 -0.484375,-0.12305 5,5 0 0 1 -0.46875,-0.17187 5,5 0 0 1 -0.449219,-0.2168 5,5 0 0 1 -0.425781,-0.26172 5,5 0 0 1 -0.398437,-0.30273 5,5 0 0 1 -0.365235,-0.33984 5,5 0 0 1 -0.330078,-0.37696 5,5 0 0 1 -0.291015,-0.40625 5,5 0 0 1 -0.248047,-0.43359 5,5 0 0 1 -0.164063,-0.35352 5,5 0 0 1 -0.167968,-0.4707 5,5 0 0 1 -0.121094,-0.48633 5,5 0 0 1 -0.07031,-0.49414 5,5 0 0 1 -0.02148,-0.5 5,5 0 0 1 0.0293,-0.49805 5,5 0 0 1 0.07813,-0.49414 5,5 0 0 1 0.126953,-0.48242 5,5 0 0 1 0.173828,-0.46875 5,5 0 0 1 0.220703,-0.44922 5,5 0 0 1 0.265625,-0.42383 5,5 0 0 1 0.304688,-0.39453 5,5 0 0 1 0.265625,-0.28711 5,5 0 0 1 0.371093,-0.33593 5,5 0 0 1 0.402344,-0.29688 5,5 0 0 1 0.429688,-0.25391 5,5 0 0 1 0.453125,-0.21093 5,5 0 0 1 0.470703,-0.16407 5,5 0 0 1 0.486328,-0.11718 5,5 0 0 1 0.496094,-0.0684 5,5 0 0 1 0.498031,-0.0176 5,5 0 0 1 0.5,0.0332 5,5 0 0 1 0.492188,0.082 5,5 0 0 1 0.482422,0.13086 5,5 0 0 1 0.367187,0.13477 5,5 0 0 1 0.451172,0.21289 5,5 0 0 1 0.427735,0.25976 5,5 0 0 1 0.40039,0.29883 5,5 0 0 1 0.367188,0.33789 5,5 0 0 1 0.333984,0.37305 5,5 0 0 1 0.292969,0.40429 5,5 0 0 1 0.251953,0.43165 5,5 0 0 1 0.207031,0.45507 5,5 0 0 1 0.16211,0.47266 5,5 0 0 1 0.113281,0.48633 5,5 0 0 1 0.0625,0.49609 5,5 0 0 1 0.01563,0.39063 h 2 a 7,7 0 0 0 -4.320313,-6.4668 7,7 0 0 0 -2.578125,-0.5332 z m -0.04297,3 a 4,4 0 0 0 -2.886717,1.17188 4,4 0 0 0 -0.867188,4.35937 4,4 0 0 0 3.695313,2.46875 v -2 a 2,2 0 0 1 -0.199219,-0.01 2,2 0 0 1 -0.197266,-0.0293 2,2 0 0 1 -0.195312,-0.0508 2,2 0 0 1 -0.1875,-0.0684 2,2 0 0 1 -0.179688,-0.0859 2,2 0 0 1 -0.169921,-0.10547 2,2 0 0 1 -0.160157,-0.12109 2,2 0 0 1 -0.146484,-0.13672 2,2 0 0 1 -0.130859,-0.14844 2,2 0 0 1 -0.117188,-0.16406 2,2 0 0 1 -0.09961,-0.17383 2,2 0 0 1 -0.06445,-0.14062 2,2 0 0 1 -0.06641,-0.18946 2,2 0 0 1 -0.04883,-0.19336 2,2 0 0 1 -0.0293,-0.19726 2,2 0 0 1 -0.0078,-0.19922 2,2 0 0 1 0.01172,-0.20117 2,2 0 0 1 0.03125,-0.19727 2,2 0 0 1 0.05078,-0.19336 2,2 0 0 1 0.07031,-0.1875 2,2 0 0 1 0.08789,-0.17773 2,2 0 0 1 0.105469,-0.16992 2,2 0 0 1 0.123047,-0.15821 2,2 0 0 1 0.105468,-0.11523 2,2 0 0 1 0.148438,-0.13477 2,2 0 0 1 0.160156,-0.11718 2,2 0 0 1 0.171875,-0.10352 2,2 0 0 1 0.181641,-0.084 2,2 0 0 1 0.189453,-0.0664 2,2 0 0 1 0.193359,-0.0449 2,2 0 0 1 0.199219,-0.0273 2,2 0 0 1 0.199219,-0.008 2,2 0 0 1 0.199218,0.0137 2,2 0 0 1 0.197266,0.0312 2,2 0 0 1 0.19336,0.0527 2,2 0 0 1 0.146484,0.0547 2,2 0 0 1 0.179687,0.0859 2,2 0 0 1 0.171875,0.10352 2,2 0 0 1 0.160157,0.11914 2,2 0 0 1 0.146484,0.13476 2,2 0 0 1 0.132813,0.15039 2,2 0 0 1 0.11914,0.16016 2,2 0 0 1 0.09961,0.17383 2,2 0 0 1 0.08398,0.18164 2,2 0 0 1 0.06445,0.18945 2,2 0 0 1 0.04492,0.19531 2,2 0 0 1 0.02539,0.19727 2,2 0 0 1 0.0078,0.15627 h 2 a 4,4 0 0 0 -2.46875,-3.69531 4,4 0 0 0 -1.472656,-0.30469 z m -0.05664,6 v 2 h 18 v -2 z m 0,3 v 2 h 18 v -2 z m 0,3 v 2 h 18 v -2 z"
         style="opacity:1;vector-effect:none;fill:#4b5799;fill-opacity:1;stroke:none;stroke-width:2;stroke-linecap:round;stroke-linejoin:round;stroke-miterlimit:4;stroke-dasharray:none;stroke-dashoffset:0;stroke-opacity:1;paint-order:normal"
         inkscape:connector-curvature="0" />
      <path
         id="path835"
         d="m 71.090959,281.47337 a 10,10 0 0 0 -7.216797,2.92774 10,10 0 0 0 -2.167968,10.89648 10,10 0 0 0 9.238281,6.17383 v -2 a 8,8 0 0 1 -0.798828,-0.0391 8,8 0 0 1 -0.791016,-0.1211 8,8 0 0 1 -0.773437,-0.19726 8,8 0 0 1 -0.751954,-0.27344 8,8 0 0 1 -0.720703,-0.34766 8,8 0 0 1 -0.68164,-0.41796 8,8 0 0 1 -0.636719,-0.48438 8,8 0 0 1 -0.583984,-0.54492 8,8 0 0 1 -0.529297,-0.60156 8,8 0 0 1 -0.464844,-0.65039 8,8 0 0 1 -0.396484,-0.69336 8,8 0 0 1 -0.261719,-0.56836 8,8 0 0 1 -0.269531,-0.75196 8,8 0 0 1 -0.191407,-0.77734 8,8 0 0 1 -0.113281,-0.79102 8,8 0 0 1 -0.03516,-0.79882 8,8 0 0 1 0.04687,-0.79883 8,8 0 0 1 0.125,-0.78906 8,8 0 0 1 0.203125,-0.77344 8,8 0 0 1 0.279297,-0.75 8,8 0 0 1 0.353515,-0.7168 8,8 0 0 1 0.421875,-0.67773 8,8 0 0 1 0.490235,-0.63477 8,8 0 0 1 0.423828,-0.45703 8,8 0 0 1 0.591797,-0.53711 8,8 0 0 1 0.644531,-0.47461 8,8 0 0 1 0.6875,-0.4082 8,8 0 0 1 0.724609,-0.33789 8,8 0 0 1 0.75586,-0.26172 8,8 0 0 1 0.777344,-0.1875 8,8 0 0 1 0.792968,-0.10742 8,8 0 0 1 0.798828,-0.0293 8,8 0 0 1 0.796875,0.0527 8,8 0 0 1 0.789063,0.13086 8,8 0 0 1 0.771484,0.20898 8,8 0 0 1 0.585938,0.2168 8,8 0 0 1 0.722656,0.3418 8,8 0 0 1 0.685547,0.41406 8,8 0 0 1 0.640625,0.47851 8,8 0 0 1 0.58789,0.54102 8,8 0 0 1 0.533204,0.59766 8,8 0 0 1 0.46875,0.64648 8,8 0 0 1 0.404296,0.68945 8,8 0 0 1 0.332032,0.72852 8,8 0 0 1 0.257812,0.75781 8,8 0 0 1 0.179688,0.77734 8,8 0 0 1 0.103515,0.79297 8,8 0 0 1 0.02344,0.625 h 2 a 10,10 0 0 0 -6.173821,-9.23827 10,10 0 0 0 -3.679688,-0.75977 z m -0.04492,2.99805 a 7,7 0 0 0 -5.050781,2.05078 7,7 0 0 0 -1.517578,7.62891 7,7 0 0 0 6.466797,4.32031 v -2 a 5,5 0 0 1 -0.5,-0.0254 5,5 0 0 1 -0.494141,-0.0742 5,5 0 0 1 -0.484375,-0.12305 5,5 0 0 1 -0.46875,-0.17187 5,5 0 0 1 -0.449219,-0.2168 5,5 0 0 1 -0.425781,-0.26172 5,5 0 0 1 -0.398437,-0.30273 5,5 0 0 1 -0.365235,-0.33985 5,5 0 0 1 -0.330078,-0.37695 5,5 0 0 1 -0.291015,-0.40625 5,5 0 0 1 -0.248047,-0.43359 5,5 0 0 1 -0.164063,-0.35352 5,5 0 0 1 -0.167968,-0.4707 5,5 0 0 1 -0.121094,-0.48633 5,5 0 0 1 -0.07031,-0.49414 5,5 0 0 1 -0.02148,-0.5 5,5 0 0 1 0.0293,-0.49805 5,5 0 0 1 0.07813,-0.49414 5,5 0 0 1 0.126953,-0.48242 5,5 0 0 1 0.173828,-0.46875 5,5 0 0 1 0.220703,-0.44922 5,5 0 0 1 0.265625,-0.42383 5,5 0 0 1 0.304688,-0.39453 5,5 0 0 1 0.265625,-0.28711 5,5 0 0 1 0.371093,-0.33594 5,5 0 0 1 0.402344,-0.29687 5,5 0 0 1 0.429688,-0.25391 5,5 0 0 1 0.453125,-0.21093 5,5 0 0 1 0.470703,-0.16407 5,5 0 0 1 0.486328,-0.11718 5,5 0 0 1 0.496094,-0.0684 5,5 0 0 1 0.498031,-0.0176 5,5 0 0 1 0.5,0.0332 5,5 0 0 1 0.492188,0.082 5,5 0 0 1 0.482422,0.13086 5,5 0 0 1 0.367187,0.13476 5,5 0 0 1 0.451172,0.21289 5,5 0 0 1 0.427735,0.25977 5,5 0 0 1 0.40039,0.29883 5,5 0 0 1 0.367188,0.33789 5,5 0 0 1 0.333984,0.37305 5,5 0 0 1 0.292969,0.40429 5,5 0 0 1 0.251953,0.43164 5,5 0 0 1 0.207031,0.45508 5,5 0 0 1 0.16211,0.47266 5,5 0 0 1 0.113281,0.48633 5,5 0 0 1 0.0625,0.49609 5,5 0 0 1 0.01563,0.39063 h 2 a 7,7 0 0 0 -4.320313,-6.4668 7,7 0 0 0 -2.578125,-0.5332 z m -0.04297,3 a 4,4 0 0 0 -2.886717,1.17187 4,4 0 0 0 -0.867188,4.35938 4,4 0 0 0 3.695313,2.46875 v -2 a 2,2 0 0 1 -0.199219,-0.01 2,2 0 0 1 -0.197266,-0.0293 2,2 0 0 1 -0.195312,-0.0508 2,2 0 0 1 -0.1875,-0.0684 2,2 0 0 1 -0.179688,-0.0859 2,2 0 0 1 -0.169921,-0.10547 2,2 0 0 1 -0.160157,-0.12109 2,2 0 0 1 -0.146484,-0.13672 2,2 0 0 1 -0.130859,-0.14844 2,2 0 0 1 -0.117188,-0.16406 2,2 0 0 1 -0.09961,-0.17383 2,2 0 0 1 -0.06445,-0.14063 2,2 0 0 1 -0.06641,-0.18945 2,2 0 0 1 -0.04883,-0.19336 2,2 0 0 1 -0.0293,-0.19726 2,2 0 0 1 -0.0078,-0.19922 2,2 0 0 1 0.01172,-0.20117 2,2 0 0 1 0.03125,-0.19727 2,2 0 0 1 0.05078,-0.19336 2,2 0 0 1 0.07031,-0.1875 2,2 0 0 1 0.08789,-0.17773 2,2 0 0 1 0.105469,-0.16993 2,2 0 0 1 0.123047,-0.1582 2,2 0 0 1 0.105468,-0.11523 2,2 0 0 1 0.148438,-0.13477 2,2 0 0 1 0.160156,-0.11719 2,2 0 0 1 0.171875,-0.10351 2,2 0 0 1 0.181641,-0.084 2,2 0 0 1 0.189453,-0.0664 2,2 0 0 1 0.193359,-0.0449 2,2 0 0 1 0.199219,-0.0273 2,2 0 0 1 0.199219,-0.008 2,2 0 0 1 0.199218,0.0137 2,2 0 0 1 0.197266,0.0312 2,2 0 0 1 0.19336,0.0527 2,2 0 0 1 0.146484,0.0547 2,2 0 0 1 0.179687,0.0859 2,2 0 0 1 0.171875,0.10351 2,2 0 0 1 0.160157,0.11915 2,2 0 0 1 0.146484,0.13476 2,2 0 0 1 0.132813,0.15039 2,2 0 0 1 0.11914,0.16016 2,2 0 0 1 0.09961,0.17383 2,2 0 0 1 0.08398,0.18164 2,2 0 0 1 0.06445,0.18945 2,2 0 0 1 0.04492,0.19531 2,2 0 0 1 0.02539,0.19727 2,2 0 0 1 0.0078,0.15627 h 2 a 4,4 0 0 0 -2.46875,-3.69531 4,4 0 0 0 -1.472656,-0.30469 z m -0.05664,6 v 2 h 18 v -2 z m 0,3 v 2 h 18 v -2 z m 0,3 v 2 h 18 v -2 z"
         style="opacity:1;vector-effect:none;fill:url(#linearGradient892);fill-opacity:1.0;stroke:none;stroke-width:2;stroke-linecap:round;stroke-linejoin:round;stroke-miterlimit:4;stroke-dasharray:none;stroke-dashoffset:0;stroke-opacity:1;paint-order:normal"
         inkscape:connector-curvature="0" />
      <ellipse
         transform="scale(-1,1)"
         ry="0"
         rx="5"
         cy="312.64999"
         cx="-19.142857"
         id="path835-3-6"
         style="opacity:1;vector-effect:none;fill:#7caee6;fill-opacity:0.43043482;stroke:none;stroke-width:0;stroke-linecap:round;stroke-linejoin:round;stroke-miterlimit:4;stroke-dasharray:none;stroke-dashoffset:0;stroke-opacity:1;paint-order:normal" />
    </g>
  </g>
</svg>
