<?xml version="1.0" encoding="UTF-8" standalone="no"?>
<!-- Created with Inkscape (http://www.inkscape.org/) -->

<svg
   width="48"
   height="48"
   viewBox="0 0 48 48"
   version="1.1"
   id="svg8"
   inkscape:version="1.2 (dc2aedaf03, 2022-05-15)"
   sodipodi:docname="alt-blender.svg"
   xml:space="preserve"
   xmlns:inkscape="http://www.inkscape.org/namespaces/inkscape"
   xmlns:sodipodi="http://sodipodi.sourceforge.net/DTD/sodipodi-0.dtd"
   xmlns:xlink="http://www.w3.org/1999/xlink"
   xmlns="http://www.w3.org/2000/svg"
   xmlns:svg="http://www.w3.org/2000/svg"
   xmlns:rdf="http://www.w3.org/1999/02/22-rdf-syntax-ns#"
   xmlns:cc="http://creativecommons.org/ns#"
   xmlns:dc="http://purl.org/dc/elements/1.1/"><title
     id="title7895">Antu icon Theme</title><defs
     id="defs2"><linearGradient
       gradientTransform="matrix(1.4999999,0,0,1.4999999,-123.12667,-134.3187)"
       inkscape:collect="always"
       xlink:href="#linearGradient920"
       id="linearGradient6712"
       gradientUnits="userSpaceOnUse"
       x1="64.751114"
       y1="267.89072"
       x2="64.751114"
       y2="274.5574" /><linearGradient
       inkscape:collect="always"
       id="linearGradient920"><stop
         style="stop-color:#e55f38;stop-opacity:1"
         offset="0"
         id="stop916" /><stop
         style="stop-color:#fa6b40;stop-opacity:1"
         offset="1"
         id="stop918" /></linearGradient><linearGradient
       inkscape:collect="always"
       xlink:href="#linearGradient4622"
       id="linearGradient964-8-9"
       x1="28"
       y1="334.64804"
       x2="28.000002"
       y2="297.64999"
       gradientUnits="userSpaceOnUse"
       gradientTransform="translate(-38,-24.13068)" /><linearGradient
       id="linearGradient4622"
       inkscape:collect="always"><stop
         id="stop4618"
         offset="0"
         style="stop-color:#ff6a3e;stop-opacity:1" /><stop
         id="stop4620"
         offset="1"
         style="stop-color:#ff9065;stop-opacity:1" /></linearGradient><linearGradient
       inkscape:collect="always"
       id="linearGradient4547"><stop
         style="stop-color:#c3f7f9;stop-opacity:1"
         offset="0"
         id="stop4543" /><stop
         style="stop-color:#e5fafb;stop-opacity:1"
         offset="1"
         id="stop4545" /></linearGradient><style
       type="text/css"
       id="current-color-scheme">
      .ColorScheme-Text {
        color:#122036;
      }
      </style><style
       type="text/css"
       id="current-color-scheme-7">
      .ColorScheme-Text {
        color:#122036;
      }
      </style><style
       type="text/css"
       id="current-color-scheme-5">
      .ColorScheme-Text {
        color:#122036;
      }
      </style><style
       type="text/css"
       id="current-color-scheme-6">
      .ColorScheme-Text {
        color:#122036;
      }
      </style><style
       type="text/css"
       id="current-color-scheme-1">
      .ColorScheme-Text {
        color:#122036;
      }
      </style><style
       id="current-color-scheme-10"
       type="text/css">
      .ColorScheme-Text {
        color:#122036;
      }
      </style><style
       id="current-color-scheme-5-7"
       type="text/css">
      .ColorScheme-Text {
        color:#122036;
      }
      </style><style
       id="current-color-scheme-1-2"
       type="text/css">
      .ColorScheme-Text {
        color:#122036;
      }
      </style><style
       type="text/css"
       id="current-color-scheme-10-9">
      .ColorScheme-Text {
        color:#122036;
      }
      </style><linearGradient
       inkscape:collect="always"
       xlink:href="#linearGradient4547"
       id="linearGradient883"
       x1="16"
       y1="23"
       x2="16"
       y2="9"
       gradientUnits="userSpaceOnUse" /><style
       id="current-color-scheme-27"
       type="text/css">
      .ColorScheme-Text {
        color:#122036;
      }
      </style><style
       id="current-color-scheme-7-0"
       type="text/css">
      .ColorScheme-Text {
        color:#122036;
      }
      </style><style
       id="current-color-scheme-5-93"
       type="text/css">
      .ColorScheme-Text {
        color:#122036;
      }
      </style><style
       id="current-color-scheme-2"
       type="text/css">
      .ColorScheme-Text {
        color:#122036;
      }
      </style><style
       id="current-color-scheme-7-7"
       type="text/css">
      .ColorScheme-Text {
        color:#122036;
      }
      </style><style
       id="current-color-scheme-5-0"
       type="text/css">
      .ColorScheme-Text {
        color:#122036;
      }
      </style><style
       type="text/css"
       id="current-color-scheme-9">
      .ColorScheme-Text {
        color:#122036;
      }
      </style><style
       type="text/css"
       id="current-color-scheme-1-6">
      .ColorScheme-Text {
        color:#122036;
      }
      </style><style
       id="current-color-scheme-10-0"
       type="text/css">
      .ColorScheme-Text {
        color:#122036;
      }
      </style><style
       type="text/css"
       id="current-color-scheme-6-6">
      .ColorScheme-Text {
        color:#122036;
      }
      </style><style
       type="text/css"
       id="current-color-scheme-7-1">
      .ColorScheme-Text {
        color:#122036;
      }
      </style><style
       type="text/css"
       id="current-color-scheme-5-2">
      .ColorScheme-Text {
        color:#122036;
      }
      </style><style
       id="current-color-scheme-3"
       type="text/css">
      .ColorScheme-Text {
        color:#122036;
      }
      </style><style
       id="current-color-scheme-7-75"
       type="text/css">
      .ColorScheme-Text {
        color:#122036;
      }
      </style><style
       id="current-color-scheme-5-9"
       type="text/css">
      .ColorScheme-Text {
        color:#122036;
      }
      </style><style
       type="text/css"
       id="current-color-scheme-9-2">
      .ColorScheme-Text {
        color:#122036;
      }
      </style><style
       type="text/css"
       id="current-color-scheme-1-2-2">
      .ColorScheme-Text {
        color:#122036;
      }
      </style><style
       id="current-color-scheme-10-8"
       type="text/css">
      .ColorScheme-Text {
        color:#122036;
      }
      </style><style
       type="text/css"
       id="current-color-scheme-6-9">
      .ColorScheme-Text {
        color:#122036;
      }
      </style><style
       type="text/css"
       id="current-color-scheme-7-1-7">
      .ColorScheme-Text {
        color:#122036;
      }
      </style><style
       type="text/css"
       id="current-color-scheme-5-2-3">
      .ColorScheme-Text {
        color:#122036;
      }
      </style><style
       type="text/css"
       id="current-color-scheme-106">
      .ColorScheme-Text {
        color:#122036;
      }
      </style><style
       type="text/css"
       id="current-color-scheme-7-3">
      .ColorScheme-Text {
        color:#122036;
      }
      </style><style
       type="text/css"
       id="current-color-scheme-5-20">
      .ColorScheme-Text {
        color:#122036;
      }
      </style><style
       id="current-color-scheme-9-6"
       type="text/css">
      .ColorScheme-Text {
        color:#122036;
      }
      </style><style
       id="current-color-scheme-1-1"
       type="text/css">
      .ColorScheme-Text {
        color:#122036;
      }
      </style><style
       type="text/css"
       id="current-color-scheme-10-5">
      .ColorScheme-Text {
        color:#122036;
      }
      </style><style
       id="current-color-scheme-6-5"
       type="text/css">
      .ColorScheme-Text {
        color:#122036;
      }
      </style><style
       id="current-color-scheme-7-1-4"
       type="text/css">
      .ColorScheme-Text {
        color:#122036;
      }
      </style><style
       id="current-color-scheme-5-2-7"
       type="text/css">
      .ColorScheme-Text {
        color:#122036;
      }
      </style><linearGradient
       inkscape:collect="always"
       xlink:href="#linearGradient35783"
       id="linearGradient35785"
       x1="-10"
       y1="302.64999"
       x2="-10"
       y2="282.64999"
       gradientUnits="userSpaceOnUse" /><linearGradient
       inkscape:collect="always"
       id="linearGradient35783"><stop
         style="stop-color:#f2d2c2;stop-opacity:1;"
         offset="0"
         id="stop35779" /><stop
         style="stop-color:#fffcf2;stop-opacity:1;"
         offset="1"
         id="stop35781" /></linearGradient></defs><sodipodi:namedview
     id="base"
     pagecolor="#ffffff"
     bordercolor="#666666"
     borderopacity="1.0"
     inkscape:pageopacity="0.0"
     inkscape:pageshadow="2"
     inkscape:zoom="16.000001"
     inkscape:cx="46.687499"
     inkscape:cy="38.093749"
     inkscape:document-units="px"
     inkscape:current-layer="layer1"
     showgrid="true"
     units="px"
     inkscape:window-width="2160"
     inkscape:window-height="1337"
     inkscape:window-x="0"
     inkscape:window-y="0"
     inkscape:window-maximized="1"
     objecttolerance="10"
     gridtolerance="10"
     guidetolerance="10"
     inkscape:snap-bbox="true"
     inkscape:bbox-paths="true"
     inkscape:bbox-nodes="true"
     inkscape:snap-bbox-edge-midpoints="true"
     inkscape:snap-bbox-midpoints="true"
     inkscape:object-paths="true"
     inkscape:snap-intersection-paths="true"
     inkscape:showpageshadow="2"
     inkscape:pagecheckerboard="0"
     inkscape:deskcolor="#d1d1d1"><inkscape:grid
       type="xygrid"
       id="grid7897"
       empspacing="4" /></sodipodi:namedview><metadata
     id="metadata5"><rdf:RDF><cc:Work
         rdf:about=""><dc:format>image/svg+xml</dc:format><dc:type
           rdf:resource="http://purl.org/dc/dcmitype/StillImage" /><dc:title>Antu icon Theme</dc:title></cc:Work></rdf:RDF></metadata><g
     inkscape:label="Capa 1"
     inkscape:groupmode="layer"
     id="layer1"
     transform="translate(0,-266.64999)"><g
       id="g9230"
       transform="translate(34,2.13262)"><path
         id="path1233-1-0"
         d="m -31,266.51737 c -1.644706,0 -3,1.3553 -3,3 v 39 c 0,1.6447 1.355294,3 3,3 h 42 c 1.644705,0 3,-1.3553 3,-3 v -33 c 0,-1.6447 -1.355295,-3 -3,-3 h -21.998047 c -0.505981,0 -0.774153,-0.16677 -1.154297,-0.59766 -0.380145,-0.43089 -0.765928,-1.12884 -1.195312,-1.89257 -0.429386,-0.76373 -0.909713,-1.5975 -1.638672,-2.29297 -0.72896,-0.69549 -1.763671,-1.2168 -3.013672,-1.2168 z"
         style="color:#000000;font-style:normal;font-variant:normal;font-weight:normal;font-stretch:normal;font-size:medium;line-height:normal;font-family:sans-serif;font-variant-ligatures:normal;font-variant-position:normal;font-variant-caps:normal;font-variant-numeric:normal;font-variant-alternates:normal;font-feature-settings:normal;text-indent:0;text-align:start;text-decoration:none;text-decoration-line:none;text-decoration-style:solid;text-decoration-color:#000000;letter-spacing:normal;word-spacing:normal;text-transform:none;writing-mode:lr-tb;direction:ltr;text-orientation:mixed;dominant-baseline:auto;baseline-shift:baseline;text-anchor:start;white-space:normal;shape-padding:0;clip-rule:nonzero;display:inline;overflow:visible;visibility:visible;opacity:1;isolation:auto;mix-blend-mode:normal;color-interpolation:sRGB;color-interpolation-filters:linearRGB;solid-color:#000000;solid-opacity:1;vector-effect:none;fill:#cc4722;fill-opacity:1;fill-rule:nonzero;stroke:none;stroke-width:1.99999988;stroke-linecap:round;stroke-linejoin:round;stroke-miterlimit:4;stroke-dasharray:none;stroke-dashoffset:0;stroke-opacity:1;color-rendering:auto;image-rendering:auto;shape-rendering:auto;text-rendering:auto;enable-background:accumulate"
         inkscape:connector-curvature="0" /><path
         sodipodi:nodetypes="sccssssssss"
         inkscape:connector-curvature="0"
         id="rect993-62-0"
         d="m -30.999999,267.51932 h 12.999997 c 4,0 3.746593,6 7,6 h 21.999999 c 1.108,0 2.000001,0.89201 2.000001,2 v 32.99999 c 0,1.10801 -0.892001,2.00001 -2.000001,2.00001 h -41.999996 c -1.108,0 -1.999999,-0.892 -1.999999,-2.00001 v -38.99999 c 0,-1.10799 0.891999,-2 1.999999,-2 z"
         style="opacity:1;vector-effect:none;fill:url(#linearGradient6712);fill-opacity:1;stroke:none;stroke-width:1.99999988;stroke-linecap:round;stroke-linejoin:round;stroke-miterlimit:4;stroke-dasharray:none;stroke-dashoffset:0;stroke-opacity:1" /><path
         id="path1270-1-5"
         d="m -11,272.51736 c -1.12072,0 -2.04193,0.58128 -2.6543,1.27539 -0.61236,0.69411 -1.02356,1.49811 -1.4375,2.23437 -0.41394,0.73627 -0.82519,1.39861 -1.27539,1.82813 -0.45019,0.42952 -0.88281,0.66211 -1.63281,0.66211 h -13 c -1.64471,0 -3,1.3553 -3,3 v 27 c 0,1.6447 1.35529,3 3,3 h 42 c 1.64471,0 3,-1.3553 3,-3 v -33 c 0,-1.6447 -1.35529,-3 -3,-3 z"
         style="color:#000000;font-style:normal;font-variant:normal;font-weight:normal;font-stretch:normal;font-size:medium;line-height:normal;font-family:sans-serif;font-variant-ligatures:normal;font-variant-position:normal;font-variant-caps:normal;font-variant-numeric:normal;font-variant-alternates:normal;font-feature-settings:normal;text-indent:0;text-align:start;text-decoration:none;text-decoration-line:none;text-decoration-style:solid;text-decoration-color:#000000;letter-spacing:normal;word-spacing:normal;text-transform:none;writing-mode:lr-tb;direction:ltr;text-orientation:mixed;dominant-baseline:auto;baseline-shift:baseline;text-anchor:start;white-space:normal;shape-padding:0;clip-rule:nonzero;display:inline;overflow:visible;visibility:visible;opacity:1;isolation:auto;mix-blend-mode:normal;color-interpolation:sRGB;color-interpolation-filters:linearRGB;solid-color:#000000;solid-opacity:1;vector-effect:none;fill:#dd4d25;fill-opacity:1;fill-rule:nonzero;stroke:none;stroke-width:1.99999988;stroke-linecap:round;stroke-linejoin:round;stroke-miterlimit:4;stroke-dasharray:none;stroke-dashoffset:0;stroke-opacity:1;color-rendering:auto;image-rendering:auto;shape-rendering:auto;text-rendering:auto;enable-background:accumulate"
         inkscape:connector-curvature="0" /><path
         sodipodi:nodetypes="sccssssssss"
         inkscape:connector-curvature="0"
         id="rect993-6-7-1"
         d="m -31,279.51931 h 13 c 4,0 3.74659,-6 7,-6 h 22 c 1.108,0 2,0.89202 2,2 v 33 c 0,1.108 -0.892,2.00001 -2,2.00001 h -42 c -1.108,0 -2,-0.89201 -2,-2.00001 v -27 c 0,-1.10798 0.892,-2 2,-2 z"
         style="opacity:1;vector-effect:none;fill:url(#linearGradient964-8-9);fill-opacity:1;stroke:none;stroke-width:1.99999988;stroke-linecap:round;stroke-linejoin:round;stroke-miterlimit:4;stroke-dasharray:none;stroke-dashoffset:0;stroke-opacity:1" /></g><g
       inkscape:label="Capa 1"
       id="layer1-3"
       transform="translate(0,-0.001948)"><g
         id="g6041"
         transform="translate(12.000007,8)" /><g
         transform="translate(-35,-6)"
         id="layer1-6"
         inkscape:label="Capa 1"><g
           transform="translate(155,-84)"
           id="g949"><g
             id="g38193"
             transform="translate(-56,-49.000002)"><g
               transform="translate(-68,117.00195)"
               id="g1286"><g
                 id="g989"
                 transform="matrix(1.4999999,0,0,1.4999999,-85.126671,-110.18802)"
                 style="stroke:none"><g
                   style="stroke:none;stroke-width:2;stroke-linecap:round;stroke-linejoin:round;stroke-miterlimit:4;stroke-dasharray:none;stroke-opacity:1"
                   inkscape:label="Capa 1"
                   id="layer1-0-6-8"
                   transform="translate(100.17173,14.206221)"><g
                     style="stroke:none;stroke-width:2;stroke-linecap:round;stroke-linejoin:round;stroke-miterlimit:4;stroke-dasharray:none;stroke-opacity:1"
                     id="g6719-0-7"
                     transform="translate(-40.753942,-34.63084)" /></g></g></g><g
               id="g37091"
               transform="translate(-28,142.99976)"><path
                 id="rect33357-3-5"
                 style="fill:#dd4d25;fill-opacity:1;stroke:none;stroke-width:6;stroke-linecap:round;stroke-linejoin:round;stop-color:#000000"
                 d="m -17.826172,283.65756 a 2,2 0 0 0 -1.8125,0.84571 2,2 0 0 0 0.492188,2.78515 l 3.373046,2.36133 H -22 a 2,2 0 0 0 -2,2 2,2 0 0 0 2,2 h 4.861328 c -0.0059,0.0111 -0.01178,0.022 -0.01758,0.0332 l -4.953125,3.30274 a 2,2 0 0 0 -0.554687,2.77344 2,2 0 0 0 2.773437,0.55468 l 2.099609,-1.40039 c 0.789439,3.29818 3.744108,5.73633 7.291016,5.73633 4.154988,0 7.5,-3.345 7.5,-7.5 0,-3.40872 -2.252544,-6.27078 -5.355469,-7.18945 l -8.498047,-5.94922 a 2,2 0 0 0 -0.972656,-0.35352 z M -10.5,292.64975 c 2.492995,0 4.5,2.007 4.5,4.5 0,2.49301 -2.007005,4.5 -4.5,4.5 -2.492996,0 -4.5,-2.00699 -4.5,-4.5 0,-2.493 2.007004,-4.5 4.5,-4.5 z m 0,2 c -1.384999,0 -2.5,1.115 -2.5,2.5 0,1.38501 1.115001,2.5 2.5,2.5 1.384999,0 2.5,-1.11499 2.5,-2.5 0,-1.385 -1.115001,-2.5 -2.5,-2.5 z" /><path
                 id="rect33357-3"
                 style="fill:url(#linearGradient35785);fill-opacity:1;stroke:none;stroke-width:6;stroke-linecap:round;stroke-linejoin:round;stop-color:#000000"
                 d="m -17.826172,282.6578 a 2,2 0 0 0 -1.8125,0.84571 2,2 0 0 0 0.492188,2.78515 l 3.373046,2.36133 H -22 a 2,2 0 0 0 -2,2 2,2 0 0 0 2,2 h 4.861328 c -0.0059,0.0111 -0.01178,0.022 -0.01758,0.0332 l -4.953125,3.30274 a 2,2 0 0 0 -0.554687,2.77344 2,2 0 0 0 2.773437,0.55468 l 2.099609,-1.40039 c 0.789439,3.29818 3.744108,5.73633 7.291016,5.73633 4.1549876,0 7.5,-3.345 7.5,-7.5 0,-3.40872 -2.252544,-6.27078 -5.3554688,-7.18945 l -8.4980472,-5.94922 a 2,2 0 0 0 -0.972656,-0.35352 z M -10.5,291.64999 c 2.492995,0 4.5,2.007 4.5,4.5 0,2.49301 -2.007005,4.5 -4.5,4.5 -2.492996,0 -4.5,-2.00699 -4.5,-4.5 0,-2.493 2.007004,-4.5 4.5,-4.5 z m 0,2 c -1.384999,0 -2.5,1.115 -2.5,2.5 0,1.38501 1.115001,2.5 2.5,2.5 1.3849986,0 2.5,-1.11499 2.5,-2.5 0,-1.385 -1.1150014,-2.5 -2.5,-2.5 z" /></g></g></g></g></g></g></svg>
