<?xml version="1.0" encoding="UTF-8" standalone="no"?>
<!-- Created with Inkscape (http://www.inkscape.org/) -->

<svg
   width="48"
   height="48"
   viewBox="0 0 48 48"
   version="1.1"
   id="svg8"
   inkscape:version="1.2 (dc2aedaf03, 2022-05-15)"
   sodipodi:docname="alt-music.svg"
   xmlns:inkscape="http://www.inkscape.org/namespaces/inkscape"
   xmlns:sodipodi="http://sodipodi.sourceforge.net/DTD/sodipodi-0.dtd"
   xmlns:xlink="http://www.w3.org/1999/xlink"
   xmlns="http://www.w3.org/2000/svg"
   xmlns:svg="http://www.w3.org/2000/svg"
   xmlns:rdf="http://www.w3.org/1999/02/22-rdf-syntax-ns#"
   xmlns:cc="http://creativecommons.org/ns#"
   xmlns:dc="http://purl.org/dc/elements/1.1/">
  <title
     id="title7895">Antu icon Theme</title>
  <defs
     id="defs2">
    <linearGradient
       inkscape:collect="always"
       id="linearGradient866">
      <stop
         style="stop-color:#c474de;stop-opacity:1"
         offset="0"
         id="stop862" />
      <stop
         style="stop-color:#e771cf;stop-opacity:1"
         offset="1"
         id="stop864" />
    </linearGradient>
    <linearGradient
       gradientTransform="translate(-40,257.64999)"
       inkscape:collect="always"
       xlink:href="#linearGradient3629"
       id="linearGradient2608"
       x1="22"
       y1="42"
       x2="22"
       y2="18"
       gradientUnits="userSpaceOnUse" />
    <linearGradient
       inkscape:collect="always"
       id="linearGradient3629">
      <stop
         style="stop-color:#a73cd6;stop-opacity:1"
         offset="0"
         id="stop3625" />
      <stop
         style="stop-color:#e437ba;stop-opacity:1"
         offset="1"
         id="stop3627" />
    </linearGradient>
    <linearGradient
       gradientTransform="matrix(3.7795276,0,0,3.7795276,-40.999992,-815.86971)"
       gradientUnits="userSpaceOnUse"
       y2="290.38541"
       x2="6.3499999"
       y1="293.82498"
       x1="6.3499999"
       id="linearGradient9001"
       xlink:href="#linearGradient4631-7"
       inkscape:collect="always" />
    <linearGradient
       id="linearGradient4631-7"
       inkscape:collect="always">
      <stop
         id="stop4627-4"
         offset="0"
         style="stop-color:#e6daff;stop-opacity:1" />
      <stop
         id="stop4629-11"
         offset="1"
         style="stop-color:#fff2ff;stop-opacity:1" />
    </linearGradient>
    <linearGradient
       gradientTransform="translate(-40,225.65194)"
       inkscape:collect="always"
       xlink:href="#linearGradient3629"
       id="linearGradient3661"
       x1="28"
       y1="76.998055"
       x2="28"
       y2="38.998051"
       gradientUnits="userSpaceOnUse" />
    <linearGradient
       gradientTransform="matrix(1.4999999,0,0,1.4999999,-129.12667,-142.18607)"
       inkscape:collect="always"
       xlink:href="#linearGradient3637"
       id="linearGradient932-1"
       x1="64.751114"
       y1="268.5574"
       x2="64.751114"
       y2="274.5574"
       gradientUnits="userSpaceOnUse" />
    <linearGradient
       inkscape:collect="always"
       id="linearGradient3637">
      <stop
         style="stop-color:#b56bcc;stop-opacity:1"
         offset="0"
         id="stop3633" />
      <stop
         style="stop-color:#c474de;stop-opacity:1"
         offset="1"
         id="stop3635" />
    </linearGradient>
    <linearGradient
       inkscape:collect="always"
       xlink:href="#linearGradient866"
       id="linearGradient868"
       x1="-8"
       y1="300.64999"
       x2="-8"
       y2="268.64999"
       gradientUnits="userSpaceOnUse" />
  </defs>
  <sodipodi:namedview
     id="base"
     pagecolor="#ffffff"
     bordercolor="#666666"
     borderopacity="1.0"
     inkscape:pageopacity="0.0"
     inkscape:pageshadow="2"
     inkscape:zoom="32.000001"
     inkscape:cx="7.6874998"
     inkscape:cy="4.8593749"
     inkscape:document-units="px"
     inkscape:current-layer="g10527"
     showgrid="true"
     units="px"
     inkscape:window-width="2160"
     inkscape:window-height="1337"
     inkscape:window-x="0"
     inkscape:window-y="0"
     inkscape:window-maximized="1"
     objecttolerance="10"
     gridtolerance="10"
     guidetolerance="10"
     inkscape:snap-bbox="true"
     inkscape:bbox-paths="true"
     inkscape:bbox-nodes="true"
     inkscape:snap-bbox-edge-midpoints="true"
     inkscape:snap-bbox-midpoints="true"
     inkscape:object-paths="true"
     inkscape:snap-intersection-paths="true"
     inkscape:showpageshadow="2"
     inkscape:pagecheckerboard="0"
     inkscape:deskcolor="#d1d1d1">
    <inkscape:grid
       type="xygrid"
       id="grid7897"
       empspacing="4" />
  </sodipodi:namedview>
  <metadata
     id="metadata5">
    <rdf:RDF>
      <cc:Work
         rdf:about="">
        <dc:format>image/svg+xml</dc:format>
        <dc:type
           rdf:resource="http://purl.org/dc/dcmitype/StillImage" />
        <dc:title>Antu icon Theme</dc:title>
      </cc:Work>
    </rdf:RDF>
  </metadata>
  <g
     inkscape:label="Capa 1"
     inkscape:groupmode="layer"
     id="layer1"
     transform="translate(0,-266.64999)">
    <g
       id="g10527"
       transform="translate(40,10)">
      <path
         id="path1233-7"
         d="m -37,258.64999 c -1.644706,0 -3,1.3553 -3,3 v 39 c 0,1.6447 1.355294,3 3,3 H 5 c 1.644705,0 3,-1.3553 3,-3 v -33 c 0,-1.6447 -1.355295,-3 -3,-3 h -21.998047 c -0.505981,0 -0.774153,-0.16677 -1.154297,-0.59766 -0.380145,-0.43089 -0.765928,-1.12884 -1.195312,-1.89257 -0.429386,-0.76373 -0.909713,-1.5975 -1.638672,-2.29297 -0.72896,-0.69549 -1.763671,-1.2168 -3.013672,-1.2168 z"
         style="color:#000000;font-style:normal;font-variant:normal;font-weight:normal;font-stretch:normal;font-size:medium;line-height:normal;font-family:sans-serif;font-variant-ligatures:normal;font-variant-position:normal;font-variant-caps:normal;font-variant-numeric:normal;font-variant-alternates:normal;font-feature-settings:normal;text-indent:0;text-align:start;text-decoration:none;text-decoration-line:none;text-decoration-style:solid;text-decoration-color:#000000;letter-spacing:normal;word-spacing:normal;text-transform:none;writing-mode:lr-tb;direction:ltr;text-orientation:mixed;dominant-baseline:auto;baseline-shift:baseline;text-anchor:start;white-space:normal;shape-padding:0;clip-rule:nonzero;display:inline;overflow:visible;visibility:visible;opacity:1;isolation:auto;mix-blend-mode:normal;color-interpolation:sRGB;color-interpolation-filters:linearRGB;solid-color:#000000;solid-opacity:1;vector-effect:none;fill:#9033b2;fill-opacity:1;fill-rule:nonzero;stroke:none;stroke-width:1.99999988;stroke-linecap:round;stroke-linejoin:round;stroke-miterlimit:4;stroke-dasharray:none;stroke-dashoffset:0;stroke-opacity:1;color-rendering:auto;image-rendering:auto;shape-rendering:auto;text-rendering:auto;enable-background:accumulate"
         inkscape:connector-curvature="0" />
      <path
         sodipodi:nodetypes="sccssssssss"
         inkscape:connector-curvature="0"
         id="rect993-2"
         d="m -36.999999,259.65195 h 12.999997 c 4,0 3.746593,6 7,6 H 4.999997 c 1.108,0 2.000001,0.892 2.000001,1.99999 v 33 c 0,1.10801 -0.892001,2.00001 -2.000001,2.00001 h -41.999996 c -1.108,0 -1.999999,-0.892 -1.999999,-2.00001 v -39 c 0,-1.10799 0.891999,-1.99999 1.999999,-1.99999 z"
         style="opacity:1;vector-effect:none;fill:url(#linearGradient932-1);fill-opacity:1;stroke:none;stroke-width:1.99999988;stroke-linecap:round;stroke-linejoin:round;stroke-miterlimit:4;stroke-dasharray:none;stroke-dashoffset:0;stroke-opacity:1" />
      <path
         id="path1270-6"
         d="m -17,264.64998 c -1.120722,0 -2.041934,0.58128 -2.654297,1.2754 -0.612363,0.69411 -1.02356,1.49811 -1.4375,2.23437 -0.413939,0.73627 -0.825195,1.39861 -1.275391,1.82813 -0.450195,0.42951 -0.882812,0.66211 -1.632812,0.66211 h -13 c -1.644709,0 -3,1.35529 -3,3 v 26.99999 c 0,1.6447 1.355291,3 3,3 H 5 c 1.644709,0 3,-1.3553 3,-3 v -33 c 0,-1.6447 -1.355291,-3 -3,-3 z"
         style="color:#000000;font-style:normal;font-variant:normal;font-weight:normal;font-stretch:normal;font-size:medium;line-height:normal;font-family:sans-serif;font-variant-ligatures:normal;font-variant-position:normal;font-variant-caps:normal;font-variant-numeric:normal;font-variant-alternates:normal;font-feature-settings:normal;text-indent:0;text-align:start;text-decoration:none;text-decoration-line:none;text-decoration-style:solid;text-decoration-color:#000000;letter-spacing:normal;word-spacing:normal;text-transform:none;writing-mode:lr-tb;direction:ltr;text-orientation:mixed;dominant-baseline:auto;baseline-shift:baseline;text-anchor:start;white-space:normal;shape-padding:0;clip-rule:nonzero;display:inline;overflow:visible;visibility:visible;opacity:1;isolation:auto;mix-blend-mode:normal;color-interpolation:sRGB;color-interpolation-filters:linearRGB;solid-color:#000000;solid-opacity:1;vector-effect:none;fill:url(#linearGradient3661);fill-opacity:1;fill-rule:nonzero;stroke:none;stroke-width:1.99999988;stroke-linecap:round;stroke-linejoin:round;stroke-miterlimit:4;stroke-dasharray:none;stroke-dashoffset:0;stroke-opacity:1;color-rendering:auto;image-rendering:auto;shape-rendering:auto;text-rendering:auto;enable-background:accumulate"
         inkscape:connector-curvature="0" />
      <path
         sodipodi:nodetypes="sccssssssss"
         inkscape:connector-curvature="0"
         id="rect993-6-0"
         d="M -36.999997,271.65194 H -24 c 4,0 3.746593,-6 7,-6 H 4.999999 c 1.108,0 2.000001,0.89202 2.000001,2 v 33 c 0,1.108 -0.892001,2.00001 -2.000001,2.00001 h -41.999996 c -1.108,0 -1.999999,-0.89201 -1.999999,-2.00001 v -27 c 0,-1.10798 0.891999,-2 1.999999,-2 z"
         style="opacity:1;vector-effect:none;fill:url(#linearGradient868);fill-opacity:1;stroke:none;stroke-width:1.99999988;stroke-linecap:round;stroke-linejoin:round;stroke-miterlimit:4;stroke-dasharray:none;stroke-dashoffset:0;stroke-opacity:1" />
      <path
         inkscape:connector-curvature="0"
         style="opacity:1;fill:url(#linearGradient2608);fill-opacity:1;stroke:none;stroke-width:0.99999994;stroke-opacity:1"
         d="m -14,275.64999 -6,2 v 5 3.27539 c -0.471257,-0.16665 -0.970263,-0.27539 -1.5,-0.27539 -2.492999,0 -4.5,2.007 -4.5,4.5 0,2.493 2.007001,4.5 4.5,4.5 2.492999,0 4.5,-2.007 4.5,-4.5 v -8.5 l 3,-1 z m 8,9 -5,2 v 2 2 2.3457 c -0.455562,-0.21619 -0.960386,-0.3457 -1.5,-0.3457 -1.939,0 -3.5,1.56099 -3.5,3.5 0,1.93901 1.561,3.5 3.5,3.5 1.939003,0 3.5,-1.56099 3.5,-3.5 v -6.30078 l 3,-1.19922 z"
         id="rect4619" />
      <path
         inkscape:connector-curvature="0"
         style="opacity:1;fill:url(#linearGradient9001);fill-opacity:1;stroke:none;stroke-width:0.99999994;stroke-opacity:1"
         d="m -14,274.64999 -6,2 v 5 3.27539 c -0.471257,-0.16665 -0.970263,-0.27539 -1.5,-0.27539 -2.492999,0 -4.5,2.007 -4.5,4.5 0,2.493 2.007001,4.5 4.5,4.5 2.492999,0 4.5,-2.007 4.5,-4.5 v -8.5 l 3,-1 z m 8,9 -5,2 v 2 2 2.3457 c -0.455562,-0.21619 -0.960386,-0.3457 -1.5,-0.3457 -1.939,0 -3.5,1.56099 -3.5,3.5 0,1.93901 1.561,3.5 3.5,3.5 1.939003,0 3.5,-1.56099 3.5,-3.5 v -6.30078 l 3,-1.19922 z"
         id="rect4619-3" />
    </g>
  </g>
</svg>
