<?xml version="1.0" encoding="UTF-8" standalone="no"?>
<!-- Created with Inkscape (http://www.inkscape.org/) -->

<svg
   xmlns:dc="http://purl.org/dc/elements/1.1/"
   xmlns:cc="http://creativecommons.org/ns#"
   xmlns:rdf="http://www.w3.org/1999/02/22-rdf-syntax-ns#"
   xmlns:svg="http://www.w3.org/2000/svg"
   xmlns="http://www.w3.org/2000/svg"
   xmlns:xlink="http://www.w3.org/1999/xlink"
   xmlns:sodipodi="http://sodipodi.sourceforge.net/DTD/sodipodi-0.dtd"
   xmlns:inkscape="http://www.inkscape.org/namespaces/inkscape"
   width="48"
   height="48"
   viewBox="0 0 48 48"
   version="1.1"
   id="svg8"
   inkscape:version="0.91 r13725"
   sodipodi:docname="arch.svg">
  <title
     id="title7895">Antu icon Theme</title>
  <defs
     id="defs2">
    <linearGradient
       gradientTransform="matrix(0.23466667,0,0,0.23466667,-469.46491,1472.7907)"
       gradientUnits="userSpaceOnUse"
       y2="-5114.2363"
       x2="2102.8335"
       y1="-4960.8271"
       x1="2102.8335"
       id="linearGradient4836"
       xlink:href="#linearGradient4565"
       inkscape:collect="always" />
    <linearGradient
       inkscape:collect="always"
       id="linearGradient4565">
      <stop
         style="stop-color:#1780f2;stop-opacity:1"
         offset="0"
         id="stop4561" />
      <stop
         style="stop-color:#02b3fe;stop-opacity:1"
         offset="1"
         id="stop4563" />
    </linearGradient>
  </defs>
  <sodipodi:namedview
     id="base"
     pagecolor="#ffffff"
     bordercolor="#666666"
     borderopacity="1.0"
     inkscape:pageopacity="0.0"
     inkscape:pageshadow="2"
     inkscape:zoom="1"
     inkscape:cx="-113.16478"
     inkscape:cy="67.392867"
     inkscape:document-units="px"
     inkscape:current-layer="g911"
     showgrid="true"
     units="px"
     inkscape:window-width="1360"
     inkscape:window-height="697"
     inkscape:window-x="0"
     inkscape:window-y="0"
     inkscape:window-maximized="1"
     objecttolerance="10"
     gridtolerance="10"
     guidetolerance="10"
     inkscape:snap-bbox="true"
     inkscape:bbox-nodes="true">
    <inkscape:grid
       type="xygrid"
       id="grid7897"
       empspacing="4" />
  </sodipodi:namedview>
  <metadata
     id="metadata5">
    <rdf:RDF>
      <cc:Work
         rdf:about="">
        <dc:format>image/svg+xml</dc:format>
        <dc:type
           rdf:resource="http://purl.org/dc/dcmitype/StillImage" />
        <dc:title>Antu icon Theme</dc:title>
      </cc:Work>
    </rdf:RDF>
  </metadata>
  <g
     inkscape:label="Capa 1"
     inkscape:groupmode="layer"
     id="layer1"
     transform="translate(0,-266.64999)">
    <g
       id="g1535"
       transform="translate(35,-15.000005)">
      <g
         id="g911"
         transform="translate(-35,15)">
        <path
           style="opacity:1;fill:#1463bf;fill-opacity:1;stroke:none;stroke-width:0.30000001;stroke-miterlimit:4;stroke-dasharray:none;stroke-opacity:1"
           d="m 23.999976,268.65002 h 4.7e-5 C 36.187999,268.65002 46,278.462 46,290.65 c 0,12.18797 -9.812001,21.99997 -21.999977,21.99997 h -4.7e-5 c -12.188,0 -21.999977,-9.812 -21.999977,-21.99997 0,-12.188 9.811977,-21.99998 21.999977,-21.99998 z"
           id="rect4544"
           inkscape:connector-curvature="0" />
        <path
           style="opacity:1;fill:url(#linearGradient4836);fill-opacity:1.0;stroke:none;stroke-width:0.30000001;stroke-miterlimit:4;stroke-dasharray:none;stroke-opacity:1"
           d="m 23.999976,269.64998 h 2.3e-5 c 11.633999,0 20.999992,9.36599 20.999992,20.99999 0,11.634 -9.365993,21 -20.999992,21 h -2.3e-5 c -11.633999,0 -20.999992,-9.366 -20.999992,-21 0,-11.634 9.365993,-20.99999 20.999992,-20.99999 z"
           id="rect4544-5"
           inkscape:connector-curvature="0" />
        <path
           inkscape:connector-curvature="0"
           id="path4199-2"
           d="m 24.000008,275.64997 c -3.500001,12.24999 -14.000009,28.00002 -14.000009,28.00002 3.960276,-2.6402 7.38211,-3.9554 10.722177,-4.60401 a 3.5000023,4.3750028 0 0 1 -0.09571,-0.35203 3.5000023,4.3750028 0 0 1 -0.07519,-0.42383 3.5000023,4.3750028 0 0 1 -0.04102,-0.43409 3.5000023,4.3750028 0 0 1 -0.01027,-0.31103 3.5000023,4.3750028 0 0 1 0.01716,-0.4375 3.5000023,4.3750028 0 0 1 0.05128,-0.43067 3.5000023,4.3750028 0 0 1 0.08886,-0.42385 3.5000023,4.3750028 0 0 1 0.119623,-0.41017 3.5000023,4.3750028 0 0 1 0.150392,-0.39648 3.5000023,4.3750028 0 0 1 0.184569,-0.37256 3.5000023,4.3750028 0 0 1 0.211912,-0.34863 3.5000023,4.3750028 0 0 1 0.239261,-0.31787 3.5000023,4.3750028 0 0 1 0.259762,-0.29051 3.5000023,4.3750028 0 0 1 0.287112,-0.25293 3.5000023,4.3750028 0 0 1 0.3042,-0.21876 3.5000023,4.3750028 0 0 1 0.317869,-0.17775 3.5000023,4.3750028 0 0 1 0.331544,-0.13673 3.5000023,4.3750028 0 0 1 0.341798,-0.0957 3.5000023,4.3750028 0 0 1 0.348631,-0.0546 3.5000023,4.3750028 0 0 1 0.246095,-0.0105 3.5000023,4.3750028 0 0 1 0.348633,0.0205 3.5000023,4.3750028 0 0 1 0.345213,0.0685 3.5000023,4.3750028 0 0 1 0.341797,0.10605 3.5000023,4.3750028 0 0 1 0.328127,0.15027 3.5000023,4.3750028 0 0 1 0.314453,0.19139 3.5000023,4.3750028 0 0 1 0.297363,0.22902 3.5000023,4.3750028 0 0 1 0.280274,0.26317 3.5000023,4.3750028 0 0 1 0.256348,0.29736 3.5000023,4.3750028 0 0 1 0.229004,0.32814 3.5000023,4.3750028 0 0 1 0.205078,0.35547 3.5000023,4.3750028 0 0 1 0.17432,0.37938 3.5000023,4.3750028 0 0 1 0.14014,0.39992 3.5000023,4.3750028 0 0 1 0.112793,0.41698 3.5000023,4.3750028 0 0 1 0.07519,0.42385 3.5000023,4.3750028 0 0 1 0.04102,0.43407 3.5000023,4.3750028 0 0 1 0.01027,0.31104 3.5000023,4.3750028 0 0 1 -0.01716,0.4375 3.5000023,4.3750028 0 0 1 -0.05128,0.43066 3.5000023,4.3750028 0 0 1 -0.08886,0.42382 3.5000023,4.3750028 0 0 1 -0.06495,0.22902 c 3.340064,0.64857 6.7619,1.9638 10.722174,4.60399 0,0 -10.500008,-15.75 -14.000006,-28.00001 z"
           style="fill:#1463bf;fill-opacity:1;fill-rule:evenodd;stroke:none;stroke-width:1px;stroke-linecap:butt;stroke-linejoin:miter;stroke-opacity:1" />
        <path
           inkscape:connector-curvature="0"
           id="path4199-2-9"
           d="m 24.000008,274.64996 c -3.500001,12.25 -14.000009,28 -14.000009,28 3.960276,-2.64019 7.38211,-3.9554 10.722177,-4.60399 a 3.5000023,4.3750028 0 0 1 -0.09571,-0.35203 3.5000023,4.3750028 0 0 1 -0.07519,-0.42385 3.5000023,4.3750028 0 0 1 -0.04102,-0.43409 3.5000023,4.3750028 0 0 1 -0.01027,-0.31102 3.5000023,4.3750028 0 0 1 0.01716,-0.4375 3.5000023,4.3750028 0 0 1 0.05128,-0.43067 3.5000023,4.3750028 0 0 1 0.08886,-0.42385 3.5000023,4.3750028 0 0 1 0.119623,-0.41016 3.5000023,4.3750028 0 0 1 0.150392,-0.39648 3.5000023,4.3750028 0 0 1 0.184569,-0.37256 3.5000023,4.3750028 0 0 1 0.211912,-0.34862 3.5000023,4.3750028 0 0 1 0.239261,-0.31787 3.5000023,4.3750028 0 0 1 0.259762,-0.29051 3.5000023,4.3750028 0 0 1 0.287112,-0.25294 3.5000023,4.3750028 0 0 1 0.3042,-0.21876 3.5000023,4.3750028 0 0 1 0.317869,-0.17774 3.5000023,4.3750028 0 0 1 0.331544,-0.13672 3.5000023,4.3750028 0 0 1 0.341798,-0.0957 3.5000023,4.3750028 0 0 1 0.348631,-0.0546 3.5000023,4.3750028 0 0 1 0.246095,-0.0105 3.5000023,4.3750028 0 0 1 0.348633,0.0205 3.5000023,4.3750028 0 0 1 0.345213,0.0685 3.5000023,4.3750028 0 0 1 0.341797,0.10605 3.5000023,4.3750028 0 0 1 0.328127,0.15026 3.5000023,4.3750028 0 0 1 0.314453,0.19141 3.5000023,4.3750028 0 0 1 0.297363,0.22901 3.5000023,4.3750028 0 0 1 0.280274,0.26317 3.5000023,4.3750028 0 0 1 0.256348,0.29737 3.5000023,4.3750028 0 0 1 0.229004,0.32813 3.5000023,4.3750028 0 0 1 0.205078,0.35547 3.5000023,4.3750028 0 0 1 0.17432,0.37937 3.5000023,4.3750028 0 0 1 0.14014,0.39991 3.5000023,4.3750028 0 0 1 0.112793,0.41699 3.5000023,4.3750028 0 0 1 0.07519,0.42384 3.5000023,4.3750028 0 0 1 0.04102,0.43407 3.5000023,4.3750028 0 0 1 0.01027,0.31105 3.5000023,4.3750028 0 0 1 -0.01716,0.4375 3.5000023,4.3750028 0 0 1 -0.05128,0.43065 3.5000023,4.3750028 0 0 1 -0.08886,0.42381 3.5000023,4.3750028 0 0 1 -0.06495,0.22903 c 3.340064,0.64856 6.7619,1.96379 10.722174,4.60398 0,0 -10.500008,-15.75 -14.000006,-28 z"
           style="fill:#f1f9ff;fill-opacity:1;fill-rule:evenodd;stroke:none;stroke-width:1px;stroke-linecap:butt;stroke-linejoin:miter;stroke-opacity:1" />
      </g>
    </g>
  </g>
</svg>
