<?xml version="1.0" encoding="UTF-8" standalone="no"?>
<!-- Created with Inkscape (http://www.inkscape.org/) -->

<svg
   xmlns:dc="http://purl.org/dc/elements/1.1/"
   xmlns:cc="http://creativecommons.org/ns#"
   xmlns:rdf="http://www.w3.org/1999/02/22-rdf-syntax-ns#"
   xmlns:svg="http://www.w3.org/2000/svg"
   xmlns="http://www.w3.org/2000/svg"
   xmlns:xlink="http://www.w3.org/1999/xlink"
   xmlns:sodipodi="http://sodipodi.sourceforge.net/DTD/sodipodi-0.dtd"
   xmlns:inkscape="http://www.inkscape.org/namespaces/inkscape"
   width="48"
   height="48"
   viewBox="0 0 12.7 12.7"
   version="1.1"
   id="svg8"
   inkscape:version="0.92.4 5da689c313, 2019-01-14"
   sodipodi:docname="elementaryos.svg">
  <defs
     id="defs2">
    <linearGradient
       inkscape:collect="always"
       xlink:href="#linearGradient878"
       id="linearGradient1029"
       x1="0.95484799"
       y1="295.10901"
       x2="0.95484799"
       y2="284.79028"
       gradientUnits="userSpaceOnUse"
       gradientTransform="translate(5.5562498,0.529165)" />
    <linearGradient
       id="linearGradient878"
       inkscape:collect="always">
      <stop
         id="stop874"
         offset="0"
         style="stop-color:#3a9ae7;stop-opacity:1" />
      <stop
         id="stop876"
         offset="1"
         style="stop-color:#5ec6eb;stop-opacity:1" />
    </linearGradient>
  </defs>
  <sodipodi:namedview
     id="base"
     pagecolor="#ffffff"
     bordercolor="#666666"
     borderopacity="1.0"
     inkscape:pageopacity="0.0"
     inkscape:pageshadow="2"
     inkscape:zoom="7.919596"
     inkscape:cx="15.135666"
     inkscape:cy="11.701803"
     inkscape:document-units="px"
     inkscape:current-layer="layer1"
     showgrid="true"
     units="px"
     inkscape:showpageshadow="false"
     inkscape:snap-bbox="true"
     inkscape:bbox-paths="true"
     inkscape:bbox-nodes="true"
     inkscape:snap-bbox-edge-midpoints="true"
     inkscape:snap-bbox-midpoints="true"
     inkscape:object-paths="true"
     inkscape:snap-intersection-paths="true"
     inkscape:window-width="1870"
     inkscape:window-height="1141"
     inkscape:window-x="50"
     inkscape:window-y="30"
     inkscape:window-maximized="1">
    <inkscape:grid
       type="xygrid"
       id="grid815" />
  </sodipodi:namedview>
  <metadata
     id="metadata5">
    <rdf:RDF>
      <cc:Work
         rdf:about="">
        <dc:format>image/svg+xml</dc:format>
        <dc:type
           rdf:resource="http://purl.org/dc/dcmitype/StillImage" />
        <dc:title />
      </cc:Work>
    </rdf:RDF>
  </metadata>
  <g
     inkscape:label="Capa 1"
     inkscape:groupmode="layer"
     id="layer1"
     transform="translate(0,-284.29999)">
    <path
       inkscape:connector-curvature="0"
       id="rect4544"
       d="m 6.3499937,284.82916 h 1.25e-5 c 3.2247353,0 5.8208278,2.59609 5.8208278,5.82083 0,3.22473 -2.5960925,5.82083 -5.8208278,5.82083 h -1.25e-5 c -3.2247416,0 -5.8208272,-2.5961 -5.8208272,-5.82083 0,-3.22474 2.5960856,-5.82083 5.8208272,-5.82083 z"
       style="opacity:1;fill:#1c71a7;fill-opacity:1;stroke:none;stroke-width:0.07937501;stroke-miterlimit:4;stroke-dasharray:none;stroke-opacity:1" />
    <path
       inkscape:connector-curvature="0"
       id="rect4544-5"
       d="m 6.3499937,285.09373 h 6.1e-6 c 3.0781623,0 5.5562472,2.47809 5.5562472,5.55625 0,3.07816 -2.4780849,5.55625 -5.5562472,5.55625 h -6.1e-6 c -3.0781622,0 -5.5562479,-2.47809 -5.5562479,-5.55625 0,-3.07816 2.4780857,-5.55625 5.5562479,-5.55625 z"
       style="opacity:1;fill:url(#linearGradient1029);fill-opacity:1;stroke:none;stroke-width:0.07937501;stroke-miterlimit:4;stroke-dasharray:none;stroke-opacity:1" />
    <path
       inkscape:connector-curvature="0"
       d="m 6.3500002,286.94582 c -2.1918804,0 -3.9687504,1.77687 -3.9687504,3.96875 0,2.19189 1.77687,3.96875 3.9687504,3.96875 2.191879,0 3.9687498,-1.77686 3.9687498,-3.96875 0,-2.19188 -1.7768708,-3.96875 -3.9687498,-3.96875 z m 0,0.33072 c 1.666444,0 3.071202,1.12049 3.502008,2.64914 -0.371053,0.76534 -0.899036,1.45442 -1.542025,2.01125 -0.308884,0.2675 -0.646123,0.50596 -1.018645,0.67386 -0.372523,0.16791 -0.782269,0.26317 -1.190212,0.23978 -0.306495,-0.0176 -0.609263,-0.10295 -0.8776725,-0.25176 0.7113335,-0.38545 1.3531575,-0.89937 1.8785415,-1.51475 0.344852,-0.40392 0.646571,-0.86296 0.762744,-1.3812 0.05809,-0.25913 0.06793,-0.5305 0.01364,-0.79045 -0.05429,-0.25993 -0.174475,-0.50766 -0.35636,-0.70114 -0.177691,-0.18903 -0.410959,-0.32292 -0.661045,-0.39192 -0.250087,-0.069 -0.516223,-0.0743 -0.771426,-0.0277 -0.510406,0.0933 -0.9661055,0.38992 -1.3315981,0.7582 -0.6442339,0.64915 -1.0425065,1.56511 -0.96945,2.47675 0.036528,0.45582 0.1892803,0.90373 0.451032,1.27868 0.058427,0.0837 0.1226593,0.16341 0.1914094,0.23895 -0.3813164,0.13344 -0.7761383,0.22845 -1.1765685,0.28195 -0.343797,-0.55553 -0.542396,-1.21031 -0.542396,-1.91163 0,-2.00922 1.6287972,-3.63802 3.6380212,-3.63801 z m 0.02315,0.73505 c 0.255738,3.4e-4 0.513214,0.0778 0.717269,0.23192 0.183843,0.13889 0.320065,0.33648 0.397288,0.55356 0.07722,0.21708 0.09704,0.45282 0.07069,0.68172 -0.05269,0.45779 -0.283639,0.87762 -0.562653,1.24437 -0.494031,0.64936 -1.150697,1.1691 -1.8810224,1.53293 -0.074755,0.0372 -0.150694,0.0726 -0.2269628,0.10666 -0.1589132,-0.13907 -0.2951192,-0.30401 -0.3989422,-0.48783 -0.2169416,-0.38411 -0.2884829,-0.84037 -0.2463932,-1.27951 0.04209,-0.43912 0.192786,-0.86234 0.3952213,-1.25429 0.2347148,-0.45444 0.5546506,-0.8849 1.0025223,-1.13192 0.223937,-0.12351 0.47724,-0.19796 0.732979,-0.19761 z m 3.58221,2.41598 c 0.02132,0.15931 0.03266,0.32185 0.03266,0.487 0,2.00923 -1.628797,3.63802 -3.638021,3.63802 -1.1283998,0 -2.1368769,-0.51369 -2.8041695,-1.32003 0.4118721,-0.0935 0.8144266,-0.22791 1.2005468,-0.39893 0.1688537,0.1286 0.355332,0.23406 0.5535578,0.31006 0.5708519,0.21885 1.2189599,0.18719 1.7966869,-0.0128 0.577726,-0.19999 1.090039,-0.55898 1.53665,-0.97647 0.532029,-0.49736 0.9806,-1.08357 1.32209,-1.72681 z"
       id="path2993-3"
       style="color:#000000;display:inline;overflow:visible;visibility:visible;fill:#2278ad;fill-opacity:1;fill-rule:nonzero;stroke:none;stroke-width:0.26458332;marker:none;enable-background:accumulate" />
    <path
       inkscape:connector-curvature="0"
       d="m 6.3500001,286.68124 c -2.1918802,0 -3.9687502,1.77687 -3.9687502,3.96875 0,2.19189 1.77687,3.96875 3.9687502,3.96875 2.1918795,0 3.9687499,-1.77686 3.9687499,-3.96875 0,-2.19188 -1.7768704,-3.96875 -3.9687499,-3.96875 z m 0,0.33072 c 1.666444,0 3.0712021,1.12049 3.5020083,2.64914 -0.3710532,0.76534 -0.8990359,1.45442 -1.5420247,2.01125 -0.3088844,0.2675 -0.6461236,0.50596 -1.0186459,0.67386 -0.3725222,0.16791 -0.7822689,0.26317 -1.1902114,0.23978 -0.3064954,-0.0176 -0.6092632,-0.10295 -0.8776727,-0.25176 0.7113337,-0.38545 1.3531573,-0.89937 1.878542,-1.51475 0.3448515,-0.40392 0.6465704,-0.86296 0.7627437,-1.3812 0.058087,-0.25913 0.06793,-0.5305 0.013642,-0.79045 -0.054288,-0.25993 -0.1744752,-0.50766 -0.3563604,-0.70114 -0.177691,-0.18903 -0.4109582,-0.32292 -0.661045,-0.39192 -0.2500866,-0.069 -0.5162228,-0.0743 -0.7714258,-0.0277 -0.5104059,0.0933 -0.9661054,0.38992 -1.3315981,0.7582 -0.6442339,0.64915 -1.0425065,1.56511 -0.96945,2.47675 0.036528,0.45582 0.1892803,0.90373 0.451032,1.27868 0.058427,0.0837 0.1226593,0.16341 0.1914094,0.23895 -0.3813164,0.13344 -0.7761383,0.22845 -1.1765685,0.28195 -0.343797,-0.55553 -0.542396,-1.21031 -0.542396,-1.91163 0,-2.00922 1.6287972,-3.63802 3.6380211,-3.63801 z m 0.023151,0.73505 c 0.2557384,3.4e-4 0.5132145,0.0778 0.717269,0.23192 0.1838431,0.13889 0.3200654,0.33648 0.397288,0.55356 0.077223,0.21708 0.097041,0.45282 0.070694,0.68172 -0.052695,0.45779 -0.2836383,0.87762 -0.5626531,1.24437 -0.4940305,0.64936 -1.150697,1.1691 -1.8810221,1.53293 -0.074755,0.0372 -0.1506939,0.0726 -0.2269627,0.10666 -0.1589132,-0.13907 -0.2951192,-0.30401 -0.3989422,-0.48783 -0.2169416,-0.38411 -0.2884829,-0.84037 -0.2463932,-1.27951 0.04209,-0.43912 0.192786,-0.86234 0.3952213,-1.25429 0.2347148,-0.45444 0.5546507,-0.8849 1.0025226,-1.13192 0.2239362,-0.12351 0.4772401,-0.19796 0.7329784,-0.19761 z m 3.5822105,2.41598 c 0.021315,0.15931 0.032659,0.32185 0.032659,0.487 0,2.00923 -1.6287972,3.63802 -3.6380208,3.63802 -1.1284003,0 -2.1368773,-0.51369 -2.8041699,-1.32003 0.4118721,-0.0935 0.8144266,-0.22791 1.2005468,-0.39893 0.1688537,0.1286 0.3553319,0.23406 0.5535577,0.31006 0.5708523,0.21885 1.2189601,0.18719 1.7966867,-0.0128 0.5777262,-0.19999 1.0900394,-0.55898 1.53665,-0.97647 0.5320292,-0.49736 0.9805999,-1.08357 1.3220902,-1.72681 z"
       id="path2993"
       style="color:#000000;display:inline;overflow:visible;visibility:visible;fill:#eff9fd;fill-opacity:1;fill-rule:nonzero;stroke:none;stroke-width:0.26458332;marker:none;enable-background:accumulate" />
  </g>
</svg>
