<?xml version="1.0" encoding="UTF-8" standalone="no"?>
<!-- Created with Inkscape (http://www.inkscape.org/) -->

<svg
   xmlns:dc="http://purl.org/dc/elements/1.1/"
   xmlns:cc="http://creativecommons.org/ns#"
   xmlns:rdf="http://www.w3.org/1999/02/22-rdf-syntax-ns#"
   xmlns:svg="http://www.w3.org/2000/svg"
   xmlns="http://www.w3.org/2000/svg"
   xmlns:xlink="http://www.w3.org/1999/xlink"
   xmlns:sodipodi="http://sodipodi.sourceforge.net/DTD/sodipodi-0.dtd"
   xmlns:inkscape="http://www.inkscape.org/namespaces/inkscape"
   width="48"
   height="48"
   viewBox="0 0 48 48"
   version="1.1"
   id="svg8"
   inkscape:version="0.92.2 2405546, 2018-03-11"
   sodipodi:docname="folder-mega.svg">
  <title
     id="title7895">Antu icon Theme</title>
  <defs
     id="defs2">
    <linearGradient
       inkscape:collect="always"
       xlink:href="#linearGradient4631-59"
       id="linearGradient6792"
       gradientUnits="userSpaceOnUse"
       gradientTransform="matrix(0.375,0,0,0.375,-10.5,212.65632)"
       x1="-12"
       y1="291.64999"
       x2="-12"
       y2="243.64998" />
    <linearGradient
       id="linearGradient4631-59"
       inkscape:collect="always">
      <stop
         id="stop4627-49"
         offset="0"
         style="stop-color:#c2f0f2;stop-opacity:1" />
      <stop
         id="stop4629-0"
         offset="1"
         style="stop-color:#f2feff;stop-opacity:1" />
    </linearGradient>
    <linearGradient
       inkscape:collect="always"
       xlink:href="#linearGradient10231"
       id="linearGradient2671-9"
       gradientUnits="userSpaceOnUse"
       gradientTransform="translate(-49.00001,-23.99807)"
       x1="28"
       y1="334.64804"
       x2="28.000002"
       y2="297.64999" />
    <linearGradient
       inkscape:collect="always"
       id="linearGradient10231">
      <stop
         style="stop-color:#3e9ff4;stop-opacity:1"
         offset="0"
         id="stop10227" />
      <stop
         style="stop-color:#50c2f9;stop-opacity:1"
         offset="1"
         id="stop10229" />
    </linearGradient>
    <linearGradient
       inkscape:collect="always"
       xlink:href="#linearGradient10239-1"
       id="linearGradient6786"
       gradientUnits="userSpaceOnUse"
       x1="65.417786"
       y1="275.22406"
       x2="65.417786"
       y2="267.89072" />
    <linearGradient
       inkscape:collect="always"
       id="linearGradient10239-1">
      <stop
         style="stop-color:#348be7;stop-opacity:1"
         offset="0"
         id="stop10235-7" />
      <stop
         style="stop-color:#3997f1;stop-opacity:1"
         offset="1"
         id="stop10237-7" />
    </linearGradient>
  </defs>
  <sodipodi:namedview
     id="base"
     pagecolor="#ffffff"
     bordercolor="#666666"
     borderopacity="1.0"
     inkscape:pageopacity="0.0"
     inkscape:pageshadow="2"
     inkscape:zoom="5.6568544"
     inkscape:cx="-9.7905113"
     inkscape:cy="38.487199"
     inkscape:document-units="px"
     inkscape:current-layer="layer1"
     showgrid="true"
     units="px"
     inkscape:window-width="1360"
     inkscape:window-height="711"
     inkscape:window-x="0"
     inkscape:window-y="28"
     inkscape:window-maximized="1"
     objecttolerance="10"
     gridtolerance="10"
     guidetolerance="10"
     inkscape:snap-bbox="true"
     inkscape:bbox-paths="true"
     inkscape:bbox-nodes="true"
     inkscape:snap-bbox-edge-midpoints="true"
     inkscape:snap-bbox-midpoints="true"
     inkscape:object-paths="true"
     inkscape:snap-intersection-paths="true">
    <inkscape:grid
       type="xygrid"
       id="grid7897"
       empspacing="4" />
  </sodipodi:namedview>
  <metadata
     id="metadata5">
    <rdf:RDF>
      <cc:Work
         rdf:about="">
        <dc:format>image/svg+xml</dc:format>
        <dc:type
           rdf:resource="http://purl.org/dc/dcmitype/StillImage" />
        <dc:title>Antu icon Theme</dc:title>
      </cc:Work>
    </rdf:RDF>
  </metadata>
  <g
     inkscape:label="Capa 1"
     inkscape:groupmode="layer"
     id="layer1"
     transform="translate(0,-266.64999)">
    <g
       id="g8854"
       transform="translate(45.000009,2.0000077)">
      <g
         style="stroke:none"
         transform="matrix(1.4999999,0,0,1.4999999,-134.12668,-134.18608)"
         id="g989-0-2-4">
        <path
           id="path1233-2-0-4"
           transform="matrix(0.66666671,0,0,0.66666671,59.417785,245.22536)"
           d="m 3,32.998047 c -1.6447064,0 -3,1.355295 -3,3 v 39 c 0,1.644705 1.3552936,3 3,3 h 42 c 1.644705,0 3,-1.355295 3,-3 v -33 c 0,-1.644705 -1.355295,-3 -3,-3 H 23.001953 c -0.505981,0 -0.774153,-0.166766 -1.154297,-0.597656 -0.380145,-0.43089 -0.765928,-1.128839 -1.195312,-1.892579 C 20.222958,35.744088 19.742631,34.910319 19.013672,34.214844 18.284712,33.519354 17.250001,32.998047 16,32.998047 Z"
           style="color:#000000;font-style:normal;font-variant:normal;font-weight:normal;font-stretch:normal;font-size:medium;line-height:normal;font-family:sans-serif;font-variant-ligatures:normal;font-variant-position:normal;font-variant-caps:normal;font-variant-numeric:normal;font-variant-alternates:normal;font-feature-settings:normal;text-indent:0;text-align:start;text-decoration:none;text-decoration-line:none;text-decoration-style:solid;text-decoration-color:#000000;letter-spacing:normal;word-spacing:normal;text-transform:none;writing-mode:lr-tb;direction:ltr;text-orientation:mixed;dominant-baseline:auto;baseline-shift:baseline;text-anchor:start;white-space:normal;shape-padding:0;clip-rule:nonzero;display:inline;overflow:visible;visibility:visible;opacity:1;isolation:auto;mix-blend-mode:normal;color-interpolation:sRGB;color-interpolation-filters:linearRGB;solid-color:#000000;solid-opacity:1;vector-effect:none;fill:#286bb2;fill-opacity:1;fill-rule:nonzero;stroke:none;stroke-width:1.99999988;stroke-linecap:round;stroke-linejoin:round;stroke-miterlimit:4;stroke-dasharray:none;stroke-dashoffset:0;stroke-opacity:1;color-rendering:auto;image-rendering:auto;shape-rendering:auto;text-rendering:auto;enable-background:accumulate"
           inkscape:connector-curvature="0" />
        <g
           transform="translate(100.17173,14.206221)"
           id="layer1-0-6-8-76-2-4"
           inkscape:label="Capa 1"
           style="stroke:none;stroke-width:2;stroke-linecap:round;stroke-linejoin:round;stroke-miterlimit:4;stroke-dasharray:none;stroke-opacity:1">
          <g
             transform="translate(-40.753942,-34.63084)"
             id="g6719-0-7-1-3-4"
             style="stroke:none;stroke-width:2;stroke-linecap:round;stroke-linejoin:round;stroke-miterlimit:4;stroke-dasharray:none;stroke-opacity:1" />
        </g>
        <path
           sodipodi:nodetypes="sccssssssss"
           inkscape:connector-curvature="0"
           id="rect993-32-7-7"
           d="m 61.417785,267.89203 h 8.666665 c 2.666667,0 2.497729,4 4.666667,4 h 14.666667 c 0.738667,0 1.333334,0.59467 1.333334,1.33333 v 22 c 0,0.73867 -0.594667,1.33334 -1.333334,1.33334 H 61.417785 c -0.738667,0 -1.333333,-0.59467 -1.333333,-1.33334 v -26 c 0,-0.73866 0.594666,-1.33333 1.333333,-1.33333 z"
           style="opacity:1;vector-effect:none;fill:url(#linearGradient6786);fill-opacity:1;stroke:none;stroke-width:1.33333337;stroke-linecap:round;stroke-linejoin:round;stroke-miterlimit:4;stroke-dasharray:none;stroke-dashoffset:0;stroke-opacity:1" />
      </g>
      <path
         id="path1270-15-5-6"
         d="m -22.00001,272.64997 c -1.12072,0 -2.04193,0.58128 -2.6543,1.27539 -0.61236,0.69411 -1.02356,1.49811 -1.4375,2.23437 -0.41394,0.73627 -0.82519,1.39861 -1.27539,1.82813 -0.45019,0.42953 -0.88281,0.66211 -1.63281,0.66211 h -13 c -1.64471,0 -3,1.35531 -3,3 v 27 c 0,1.6447 1.35529,3 3,3 h 42 c 1.64471,0 3,-1.3553 3,-3 v -33 c 0,-1.64469 -1.35529,-3 -3,-3 z"
         style="color:#000000;font-style:normal;font-variant:normal;font-weight:normal;font-stretch:normal;font-size:medium;line-height:normal;font-family:sans-serif;font-variant-ligatures:normal;font-variant-position:normal;font-variant-caps:normal;font-variant-numeric:normal;font-variant-alternates:normal;font-feature-settings:normal;text-indent:0;text-align:start;text-decoration:none;text-decoration-line:none;text-decoration-style:solid;text-decoration-color:#000000;letter-spacing:normal;word-spacing:normal;text-transform:none;writing-mode:lr-tb;direction:ltr;text-orientation:mixed;dominant-baseline:auto;baseline-shift:baseline;text-anchor:start;white-space:normal;shape-padding:0;clip-rule:nonzero;display:inline;overflow:visible;visibility:visible;opacity:1;isolation:auto;mix-blend-mode:normal;color-interpolation:sRGB;color-interpolation-filters:linearRGB;solid-color:#000000;solid-opacity:1;vector-effect:none;fill:#3182d9;fill-opacity:1;fill-rule:nonzero;stroke:none;stroke-width:1.99999988;stroke-linecap:round;stroke-linejoin:round;stroke-miterlimit:4;stroke-dasharray:none;stroke-dashoffset:0;stroke-opacity:1;color-rendering:auto;image-rendering:auto;shape-rendering:auto;text-rendering:auto;enable-background:accumulate"
         inkscape:connector-curvature="0" />
      <path
         sodipodi:nodetypes="sccssssssss"
         inkscape:connector-curvature="0"
         id="rect993-6-99-9-3"
         d="m -42.00001,279.65192 h 13 c 4,0 3.74659,-6 7,-6 h 22 c 1.108,0 2,0.89202 2,2 v 33 c 0,1.108 -0.892,2.00001 -2,2.00001 h -42 c -1.108,0 -2,-0.89201 -2,-2.00001 v -27 c 0,-1.10798 0.892,-2 2,-2 z"
         style="opacity:1;vector-effect:none;fill:url(#linearGradient2671-9);fill-opacity:1;stroke:none;stroke-width:1.99999988;stroke-linecap:round;stroke-linejoin:round;stroke-miterlimit:4;stroke-dasharray:none;stroke-dashoffset:0;stroke-opacity:1" />
      <path
         sodipodi:nodetypes="sssssccccccccccccccc"
         id="rect4505-0-9-6-6-6-3"
         d="m -21,286.65002 c -4.986,0 -9,4.014 -9,9 0,4.98599 4.014,9 9,9 4.986,0 9,-4.01401 9,-9 0,-4.986 -4.014,-9 -9,-9 z m -6.00002,4.99983 3.00001,7e-5 3,3.00004 3,-3.00004 2.99999,-7e-5 v 9 l -2.99999,7e-5 -10e-6,-5.00007 -2,2 h -1 -1 l -2,-2 10e-6,5.00007 -3.00001,-7e-5 z"
         style="opacity:1;fill:#3182d9;fill-opacity:1;stroke:none;stroke-width:0.69436508;stroke-linecap:round;stroke-linejoin:round;stroke-miterlimit:4;stroke-dasharray:none;stroke-opacity:1"
         inkscape:connector-curvature="0" />
      <g
         transform="translate(-45.00001,-2)"
         id="layer1-60-0-1"
         inkscape:label="Capa 1">
        <g
           transform="translate(39.000008,-16)"
           id="g7878-4-3-89">
          <g
             id="g1286-8-6-6"
             transform="translate(-43.000008,-5.9980523)">
            <g
               style="stroke:none"
               transform="matrix(1.4999999,0,0,1.4999999,-85.126671,-110.18802)"
               id="g989-8-1-4">
              <g
                 transform="translate(100.17173,14.206221)"
                 id="layer1-0-6-8-77-0-3"
                 inkscape:label="Capa 1"
                 style="stroke:none;stroke-width:2;stroke-linecap:round;stroke-linejoin:round;stroke-miterlimit:4;stroke-dasharray:none;stroke-opacity:1">
                <g
                   transform="translate(-40.753942,-34.63084)"
                   id="g6719-0-7-6-6-3"
                   style="stroke:none;stroke-width:2;stroke-linecap:round;stroke-linejoin:round;stroke-miterlimit:4;stroke-dasharray:none;stroke-opacity:1" />
              </g>
            </g>
          </g>
          <path
             sodipodi:nodetypes="sssssccccccccccccccc"
             id="rect4505-0-9-6-6-3"
             d="m -15,303.65006 c -4.986,0 -9,4.014 -9,9 0,4.98599 4.014,9 9,9 4.986,0 9.0000002,-4.01401 9.0000002,-9 0,-4.986 -4.0140002,-9 -9.0000002,-9 z m -6.000016,4.99983 3.000008,7e-5 3,3.00003 3,-3.00003 2.999992,-7e-5 v 9 l -2.999992,7e-5 -8e-6,-5.00007 -2,2 h -1 -1 l -2,-2 8e-6,5.00007 -3.000008,-7e-5 z"
             style="opacity:1;fill:url(#linearGradient6792);fill-opacity:1;stroke:none;stroke-width:0.69436508;stroke-linecap:round;stroke-linejoin:round;stroke-miterlimit:4;stroke-dasharray:none;stroke-opacity:1"
             inkscape:connector-curvature="0" />
        </g>
      </g>
    </g>
  </g>
</svg>
