<?xml version="1.0" encoding="UTF-8" standalone="no"?>
<!-- Created with Inkscape (http://www.inkscape.org/) -->

<svg
   xmlns:dc="http://purl.org/dc/elements/1.1/"
   xmlns:cc="http://creativecommons.org/ns#"
   xmlns:rdf="http://www.w3.org/1999/02/22-rdf-syntax-ns#"
   xmlns:svg="http://www.w3.org/2000/svg"
   xmlns="http://www.w3.org/2000/svg"
   xmlns:xlink="http://www.w3.org/1999/xlink"
   xmlns:sodipodi="http://sodipodi.sourceforge.net/DTD/sodipodi-0.dtd"
   xmlns:inkscape="http://www.inkscape.org/namespaces/inkscape"
   width="48"
   height="48"
   viewBox="0 0 48 48"
   version="1.1"
   id="svg8"
   inkscape:version="0.91 r13725"
   sodipodi:docname="folder-github.svg">
  <title
     id="title7895">Antu icon Theme</title>
  <defs
     id="defs2">
    <linearGradient
       gradientTransform="matrix(3.7795276,0,0,3.7795276,-327.00004,-751.86981)"
       inkscape:collect="always"
       xlink:href="#linearGradient9530"
       id="linearGradient9532"
       x1="82.814583"
       y1="285.35834"
       x2="82.814583"
       y2="276.09793"
       gradientUnits="userSpaceOnUse" />
    <linearGradient
       inkscape:collect="always"
       id="linearGradient9530">
      <stop
         style="stop-color:#3c9bf3;stop-opacity:1"
         offset="0"
         id="stop9526" />
      <stop
         style="stop-color:#51c4f9;stop-opacity:1"
         offset="1"
         id="stop9528" />
    </linearGradient>
    <linearGradient
       gradientTransform="matrix(3.7795276,0,0,3.7795276,-327.00004,-751.86971)"
       inkscape:collect="always"
       xlink:href="#linearGradient9538"
       id="linearGradient9540"
       x1="78.845833"
       y1="277.15625"
       x2="78.845833"
       y2="274.77499"
       gradientUnits="userSpaceOnUse" />
    <linearGradient
       inkscape:collect="always"
       id="linearGradient9538">
      <stop
         style="stop-color:#348ae6;stop-opacity:1"
         offset="0"
         id="stop9534" />
      <stop
         style="stop-color:#3a98f2;stop-opacity:1"
         offset="1"
         id="stop9536" />
    </linearGradient>
    <linearGradient
       inkscape:collect="always"
       id="linearGradient4547">
      <stop
         style="stop-color:#c3f7f9;stop-opacity:1"
         offset="0"
         id="stop4543" />
      <stop
         style="stop-color:#e5fafb;stop-opacity:1"
         offset="1"
         id="stop4545" />
    </linearGradient>
    <linearGradient
       inkscape:collect="always"
       xlink:href="#linearGradient4547"
       id="linearGradient4366"
       x1="-15.000008"
       y1="315.64999"
       x2="-15.000008"
       y2="304.64999"
       gradientUnits="userSpaceOnUse" />
  </defs>
  <sodipodi:namedview
     id="base"
     pagecolor="#ffffff"
     bordercolor="#666666"
     borderopacity="1.0"
     inkscape:pageopacity="0.0"
     inkscape:pageshadow="2"
     inkscape:zoom="8"
     inkscape:cx="40.581133"
     inkscape:cy="4.1895386"
     inkscape:document-units="px"
     inkscape:current-layer="g7878"
     showgrid="true"
     units="px"
     inkscape:window-width="1360"
     inkscape:window-height="697"
     inkscape:window-x="0"
     inkscape:window-y="0"
     inkscape:window-maximized="1"
     objecttolerance="10"
     gridtolerance="10"
     guidetolerance="10"
     inkscape:snap-bbox="true"
     inkscape:bbox-paths="true"
     inkscape:bbox-nodes="true"
     inkscape:snap-bbox-edge-midpoints="true"
     inkscape:snap-bbox-midpoints="true"
     inkscape:snap-intersection-paths="true"
     inkscape:object-nodes="true"
     inkscape:object-paths="true">
    <inkscape:grid
       type="xygrid"
       id="grid7897"
       empspacing="4" />
  </sodipodi:namedview>
  <metadata
     id="metadata5">
    <rdf:RDF>
      <cc:Work
         rdf:about="">
        <dc:format>image/svg+xml</dc:format>
        <dc:type
           rdf:resource="http://purl.org/dc/dcmitype/StillImage" />
        <dc:title>Antu icon Theme</dc:title>
      </cc:Work>
    </rdf:RDF>
  </metadata>
  <g
     inkscape:label="Capa 1"
     inkscape:groupmode="layer"
     id="layer1"
     transform="translate(0,-266.64999)">
    <g
       id="g7878"
       transform="translate(39.000008,-16)">
      <path
         style="opacity:1;fill:#3182d9;fill-opacity:1;stroke:none;stroke-width:0.99999994;stroke-opacity:1"
         d="m -36.999987,285.64999 h 17.975773 l 5.024224,9 H 7.000011 c 1.107968,0 1.999974,0.89197 1.999974,1.99997 v 28.99998 c 0,1.10801 -0.892006,2.00001 -2.000012,2.00001 h -43.99996 c -1.108007,0 -2.000013,-0.892 -2.000013,-2.00001 v -37.99998 c 0,-1.108 0.892006,-1.99997 2.000013,-1.99997 z"
         id="rect9183-4"
         inkscape:connector-curvature="0"
         sodipodi:nodetypes="sccssssssss" />
      <path
         style="opacity:1;fill:url(#linearGradient9540);fill-opacity:1;stroke:none;stroke-width:0.99999994;stroke-opacity:1"
         d="m -36.999987,286.64994 h 17.000012 l 4.99996,9.00004 H 7.000011 c 0.554003,-4e-5 0.999987,0.44602 0.999987,0.99998 v 28.99998 c 0,0.554 -0.445984,1.00002 -0.999987,1.00002 h -43.999998 c -0.554003,0 -0.999988,-0.44602 -0.999988,-1.00002 v -37.99998 c 0,-0.554 0.445985,-1.00002 0.999988,-1.00002 z"
         id="rect9186-7"
         inkscape:connector-curvature="0"
         sodipodi:nodetypes="sccssssssss" />
      <path
         style="opacity:1;fill:#3182d9;fill-opacity:1;stroke:none;stroke-width:0.99999994;stroke-opacity:1"
         d="m -36.999987,296.65 17.000012,-4e-5 3.999988,-6 22.999998,4e-5 c 1.107968,0 1.999974,0.89201 1.999974,2.00002 v 32.99996 c 0,1.108 -0.892006,2.00001 -1.999974,2.00001 H -36.999987 C -38.107994,327.64999 -39,326.75798 -39,325.64998 v -26.99997 c 0,-1.108 0.892006,-2.00001 2.000013,-2.00001 z"
         id="rect9175-4"
         inkscape:connector-curvature="0"
         sodipodi:nodetypes="sccssssssss" />
      <path
         id="path7214"
         d="m -15,291.64993 -4,6 h -18 c -0.554003,0 -1,0.44604 -1,1 v 27 c 0,0.554 0.445997,1 1,1 H 7 c 0.554003,0 1,-0.446 1,-1 v -33 c 0,-0.55396 -0.445997,-1 -1,-1 z"
         style="opacity:0.98999999;fill:url(#linearGradient9532);fill-opacity:1;stroke:none;stroke-width:0.99999994;stroke-opacity:1"
         inkscape:connector-curvature="0" />
      <path
         style="opacity:1;fill:#3182d9;fill-opacity:1;stroke:none;stroke-width:2;stroke-linecap:round;stroke-linejoin:round;stroke-miterlimit:4;stroke-dasharray:none;stroke-dashoffset:0;stroke-opacity:1"
         d="m -19.011727,301.64999 a 1.0001,1.0001 0 0 0 -0.96875,0.80273 l -0.603515,3.01368 c -0.878809,0.97413 -1.416016,2.26227 -1.416016,3.68359 0,2.10262 1.169233,3.92161 2.894531,4.84766 -1.094417,0.95054 -1.802142,2.32688 -1.878906,3.87695 -0.03351,-0.0154 -0.06508,-0.0238 -0.09961,-0.041 -0.490607,-0.2453 -1.060928,-0.80608 -1.675782,-1.48242 -0.614854,-0.67634 -1.274249,-1.45643 -2.15039,-2.04687 -0.438071,-0.29522 -0.951461,-0.52997 -1.515625,-0.65235 -0.564164,-0.12237 -1.178494,-0.13218 -1.816407,0.0273 a 1.0004596,1.0004596 0 1 0 0.484376,1.9414 c 0.724174,-0.18104 1.169109,-0.0365 1.730468,0.3418 0.561359,0.37831 1.151964,1.03571 1.78711,1.73437 0.635146,0.69867 1.314825,1.45234 2.261718,1.92579 0.298379,0.14918 0.629534,0.25151 0.978516,0.31054 l 0,3.7168 c 0,0.554 0.446,1 1,1 0.554,0 1,-0.446 1,-1 l 0,-1 0,-2 c 0,-0.554 0.446,-1 1,-1 0.554,0 1,0.446 1,1 l 0,1 0,2 0,0.5 c 0,0.277 0.223,0.5 0.5,0.5 0.277,0 0.5,-0.223 0.5,-0.5 l 0,-1 0,-0.5 0,-4 c 0,-0.554 0.446,-1 1,-1 0.554,0 1,0.446 1,1 l 0,3 0,2 0,0.5 c 0,0.277 0.223,0.5 0.5,0.5 0.277,0 0.5,-0.223 0.5,-0.5 l 0,-1 0,-0.5 0,-1 0,-1 c 0,-0.554 0.446,-1 1,-1 0.554,0 1,0.446 1,1 l 0,1 0,1 0,1 c 0,0.554 0.446,1 1,1 0.554,0 1,-0.446 1,-1 l 0,-1 0,-4 -0.023438,0 c 0.014721,-0.16472 0.023438,-0.33132 0.023438,-0.5 0,-1.66311 -0.735239,-3.14545 -1.894531,-4.15234 1.725298,-0.92605 2.894531,-2.74504 2.894531,-4.84766 0,-1.42132 -0.537207,-2.70946 -1.416016,-3.68359 l -0.603515,-3.01368 a 1.0001,1.0001 0 0 0 -1.007813,-0.80273 1.0001,1.0001 0 0 0 -0.527344,0.16797 l -2.748046,1.83203 -1.394532,0 -2.748046,-1.83203 a 1.0001,1.0001 0 0 0 -0.566407,-0.16797 z"
         id="rect4268"
         inkscape:connector-curvature="0" />
      <path
         inkscape:connector-curvature="0"
         style="opacity:1;fill:url(#linearGradient4366);fill-opacity:1;stroke:none;stroke-width:2;stroke-linecap:round;stroke-linejoin:round;stroke-miterlimit:4;stroke-dasharray:none;stroke-dashoffset:0;stroke-opacity:1"
         d="m -18.981165,300.65001 a 1.0001,1.0001 0 0 0 -0.96875,0.80274 l -0.603515,3.01367 c -0.878809,0.97414 -1.416016,2.26228 -1.416016,3.68359 0,2.10262 1.169233,3.92161 2.894531,4.84766 -1.094417,0.95055 -1.802142,2.32688 -1.878906,3.87695 -0.03351,-0.0154 -0.06508,-0.0238 -0.09961,-0.041 -0.490607,-0.2453 -1.060928,-0.80608 -1.675782,-1.48242 -0.614854,-0.67634 -1.274249,-1.45643 -2.15039,-2.04687 -0.438071,-0.29523 -0.951461,-0.52997 -1.515625,-0.65235 -0.564164,-0.12237 -1.178494,-0.13219 -1.816407,0.0273 a 1.0004615,1.0004615 0 0 0 0.484376,1.94141 c 0.724174,-0.18104 1.169109,-0.0365 1.730468,0.34179 0.561359,0.37831 1.151964,1.03572 1.78711,1.73438 0.635146,0.69866 1.314825,1.45233 2.261718,1.92578 0.298379,0.14919 0.629534,0.25152 0.978516,0.31055 l 10e-7,3.7168 c 0,0.554 0.446,1 1,1 0.554,0 1,-0.446 1,-1 l 0,-1 0,-2 c 0,-0.554 0.446,-1 1,-1 0.554,0 1,0.446 1,1 l 0,1 0,2 0,0.5 c 0,0.277 0.223,0.5 0.5,0.5 0.277,0 0.5,-0.223 0.5,-0.5 l 0,-1 0,-0.5 0,-4 c 0,-0.554 0.446,-1 1,-1 0.554,0 1,0.446 1,1 l 0,3 0,2 0,0.5 c 0,0.277 0.223,0.5 0.5,0.5 0.277,0 0.5,-0.223 0.5,-0.5 l 0,-1 0,-0.5 0,-1 0,-1 c 0,-0.554 0.446,-1 1,-1 0.554,0 1,0.446 1,1 l 0,1 0,1 0,1 c 0,0.554 0.445999,1 0.9999991,1 0.554,0 1,-0.446 1,-1 l 0,-1 0,-4 -0.02344,0 c 0.01472,-0.16472 0.02344,-0.33132 0.02344,-0.5 0,-1.6631 -0.735239,-3.14545 -1.8945301,-4.15234 1.7252971,-0.92605 2.8945301,-2.74504 2.8945301,-4.84766 0,-1.42131 -0.537207,-2.70945 -1.416016,-3.68359 l -0.603515,-3.01367 a 1.0001,1.0001 0 0 0 -1.0078121,-0.80274 1.0001,1.0001 0 0 0 -0.527344,0.16797 l -2.748046,1.83203 -1.394532,0 -2.748046,-1.83203 a 1.0001,1.0001 0 0 0 -0.566407,-0.16797 z"
         id="rect4268-6" />
    </g>
  </g>
</svg>
