<?xml version="1.0" encoding="UTF-8" standalone="no"?>
<!-- Created with Inkscape (http://www.inkscape.org/) -->

<svg
   width="48"
   height="48"
   viewBox="0 0 48 48"
   version="1.1"
   id="svg8"
   inkscape:version="1.2 (dc2aedaf03, 2022-05-15)"
   sodipodi:docname="folder-txt.svg"
   xmlns:inkscape="http://www.inkscape.org/namespaces/inkscape"
   xmlns:sodipodi="http://sodipodi.sourceforge.net/DTD/sodipodi-0.dtd"
   xmlns:xlink="http://www.w3.org/1999/xlink"
   xmlns="http://www.w3.org/2000/svg"
   xmlns:svg="http://www.w3.org/2000/svg"
   xmlns:rdf="http://www.w3.org/1999/02/22-rdf-syntax-ns#"
   xmlns:cc="http://creativecommons.org/ns#"
   xmlns:dc="http://purl.org/dc/elements/1.1/">
  <title
     id="title7895">Antu icon Theme</title>
  <defs
     id="defs2">
    <linearGradient
       inkscape:collect="always"
       xlink:href="#linearGradient4547"
       id="linearGradient5401"
       x1="6.3499999"
       y1="293.03125"
       x2="6.3499999"
       y2="290.64999"
       gradientUnits="userSpaceOnUse"
       gradientTransform="matrix(3.7795276,0,0,3.7795276,-12,-812.86961)" />
    <linearGradient
       inkscape:collect="always"
       id="linearGradient4547">
      <stop
         style="stop-color:#c3f7f9;stop-opacity:1"
         offset="0"
         id="stop4543" />
      <stop
         style="stop-color:#e5fafb;stop-opacity:1"
         offset="1"
         id="stop4545" />
    </linearGradient>
    <linearGradient
       inkscape:collect="always"
       xlink:href="#linearGradient10239"
       id="linearGradient932"
       x1="65.417786"
       y1="275.22406"
       x2="65.417786"
       y2="267.89072"
       gradientUnits="userSpaceOnUse" />
    <linearGradient
       id="linearGradient10239"
       inkscape:collect="always">
      <stop
         id="stop10235"
         offset="0"
         style="stop-color:#5fa4ec;stop-opacity:1;" />
      <stop
         id="stop10237"
         offset="1"
         style="stop-color:#0f75d6;stop-opacity:1;" />
    </linearGradient>
    <linearGradient
       inkscape:collect="always"
       xlink:href="#linearGradient10231"
       id="linearGradient964"
       x1="28"
       y1="334.64804"
       x2="28.000002"
       y2="297.64999"
       gradientUnits="userSpaceOnUse" />
    <linearGradient
       id="linearGradient10231"
       inkscape:collect="always">
      <stop
         id="stop10227"
         offset="0"
         style="stop-color:#3e9ff4;stop-opacity:1" />
      <stop
         id="stop10229"
         offset="1"
         style="stop-color:#50c2f9;stop-opacity:1" />
    </linearGradient>
  </defs>
  <sodipodi:namedview
     id="base"
     pagecolor="#ffffff"
     bordercolor="#666666"
     borderopacity="1.0"
     inkscape:pageopacity="0.0"
     inkscape:pageshadow="2"
     inkscape:zoom="11.2"
     inkscape:cx="-11.25"
     inkscape:cy="15.223214"
     inkscape:document-units="px"
     inkscape:current-layer="g6041"
     showgrid="true"
     units="px"
     inkscape:window-width="2160"
     inkscape:window-height="1337"
     inkscape:window-x="0"
     inkscape:window-y="0"
     inkscape:window-maximized="1"
     objecttolerance="10"
     gridtolerance="10"
     guidetolerance="10"
     inkscape:showpageshadow="2"
     inkscape:pagecheckerboard="0"
     inkscape:deskcolor="#d1d1d1">
    <inkscape:grid
       type="xygrid"
       id="grid7897"
       empspacing="4" />
  </sodipodi:namedview>
  <metadata
     id="metadata5">
    <rdf:RDF>
      <cc:Work
         rdf:about="">
        <dc:format>image/svg+xml</dc:format>
        <dc:type
           rdf:resource="http://purl.org/dc/dcmitype/StillImage" />
        <dc:title>Antu icon Theme</dc:title>
      </cc:Work>
    </rdf:RDF>
  </metadata>
  <g
     inkscape:label="Capa 1"
     inkscape:groupmode="layer"
     id="layer1"
     transform="translate(0,-266.64999)">
    <g
       id="g6041"
       transform="translate(12.000007,8)">
      <g
         transform="translate(-16.000007,-29.998052)"
         id="g1286">
        <g
           id="g989"
           transform="matrix(1.4999999,0,0,1.4999999,-85.126671,-110.18802)"
           style="stroke:none">
          <path
             inkscape:connector-curvature="0"
             style="color:#000000;font-style:normal;font-variant:normal;font-weight:normal;font-stretch:normal;font-size:medium;line-height:normal;font-family:sans-serif;font-variant-ligatures:normal;font-variant-position:normal;font-variant-caps:normal;font-variant-numeric:normal;font-variant-alternates:normal;font-feature-settings:normal;text-indent:0;text-align:start;text-decoration:none;text-decoration-line:none;text-decoration-style:solid;text-decoration-color:#000000;letter-spacing:normal;word-spacing:normal;text-transform:none;writing-mode:lr-tb;direction:ltr;text-orientation:mixed;dominant-baseline:auto;baseline-shift:baseline;text-anchor:start;white-space:normal;shape-padding:0;clip-rule:nonzero;display:inline;overflow:visible;visibility:visible;opacity:1;isolation:auto;mix-blend-mode:normal;color-interpolation:sRGB;color-interpolation-filters:linearRGB;solid-color:#000000;solid-opacity:1;vector-effect:none;fill:#286bb2;fill-opacity:1;fill-rule:nonzero;stroke:none;stroke-width:1.99999988;stroke-linecap:round;stroke-linejoin:round;stroke-miterlimit:4;stroke-dasharray:none;stroke-dashoffset:0;stroke-opacity:1;color-rendering:auto;image-rendering:auto;shape-rendering:auto;text-rendering:auto;enable-background:accumulate"
             d="m 3,32.998047 c -1.6447064,0 -3,1.355295 -3,3 v 39 c 0,1.644705 1.3552936,3 3,3 h 42 c 1.644705,0 3,-1.355295 3,-3 v -33 c 0,-1.644705 -1.355295,-3 -3,-3 H 23.001953 c -0.505981,0 -0.774153,-0.166766 -1.154297,-0.597656 -0.380145,-0.43089 -0.765928,-1.128839 -1.195312,-1.892579 C 20.222958,35.744088 19.742631,34.910319 19.013672,34.214844 18.284712,33.519354 17.250001,32.998047 16,32.998047 Z"
             transform="matrix(0.66666671,0,0,0.66666671,59.417785,245.22536)"
             id="path1233" />
          <g
             style="stroke:none;stroke-width:2;stroke-linecap:round;stroke-linejoin:round;stroke-miterlimit:4;stroke-dasharray:none;stroke-opacity:1"
             inkscape:label="Capa 1"
             id="layer1-0-6-8"
             transform="translate(100.17173,14.206221)">
            <g
               style="stroke:none;stroke-width:2;stroke-linecap:round;stroke-linejoin:round;stroke-miterlimit:4;stroke-dasharray:none;stroke-opacity:1"
               id="g6719-0-7"
               transform="translate(-40.753942,-34.63084)" />
          </g>
          <path
             style="opacity:1;vector-effect:none;fill:url(#linearGradient932);fill-opacity:1;stroke:none;stroke-width:1.33333337;stroke-linecap:round;stroke-linejoin:round;stroke-miterlimit:4;stroke-dasharray:none;stroke-dashoffset:0;stroke-opacity:1"
             d="m 61.417785,267.89203 h 8.666665 c 2.666667,0 2.497729,4 4.666667,4 h 14.666667 c 0.738667,0 1.333334,0.59467 1.333334,1.33333 v 22 c 0,0.73867 -0.594667,1.33334 -1.333334,1.33334 H 61.417785 c -0.738667,0 -1.333333,-0.59467 -1.333333,-1.33334 v -26 c 0,-0.73866 0.594666,-1.33333 1.333333,-1.33333 z"
             id="rect993"
             inkscape:connector-curvature="0"
             sodipodi:nodetypes="sccssssssss" />
        </g>
        <path
           inkscape:connector-curvature="0"
           style="color:#000000;font-style:normal;font-variant:normal;font-weight:normal;font-stretch:normal;font-size:medium;line-height:normal;font-family:sans-serif;font-variant-ligatures:normal;font-variant-position:normal;font-variant-caps:normal;font-variant-numeric:normal;font-variant-alternates:normal;font-feature-settings:normal;text-indent:0;text-align:start;text-decoration:none;text-decoration-line:none;text-decoration-style:solid;text-decoration-color:#000000;letter-spacing:normal;word-spacing:normal;text-transform:none;writing-mode:lr-tb;direction:ltr;text-orientation:mixed;dominant-baseline:auto;baseline-shift:baseline;text-anchor:start;white-space:normal;shape-padding:0;clip-rule:nonzero;display:inline;overflow:visible;visibility:visible;opacity:1;isolation:auto;mix-blend-mode:normal;color-interpolation:sRGB;color-interpolation-filters:linearRGB;solid-color:#000000;solid-opacity:1;vector-effect:none;fill:#3182d9;fill-opacity:1;fill-rule:nonzero;stroke:none;stroke-width:1.99999988;stroke-linecap:round;stroke-linejoin:round;stroke-miterlimit:4;stroke-dasharray:none;stroke-dashoffset:0;stroke-opacity:1;color-rendering:auto;image-rendering:auto;shape-rendering:auto;text-rendering:auto;enable-background:accumulate"
           d="m 23,38.998047 c -1.120722,0 -2.041934,0.58128 -2.654297,1.275391 -0.612363,0.69411 -1.02356,1.498114 -1.4375,2.234374 -0.413939,0.73627 -0.825195,1.398606 -1.275391,1.828126 C 17.182617,44.765457 16.75,44.998047 16,44.998047 H 3 c -1.644709,0 -3,1.3553 -3,3 v 27 c 0,1.6447 1.355291,3 3,3 h 42 c 1.644709,0 3,-1.3553 3,-3 v -33 c 0,-1.6447 -1.355291,-3 -3,-3 z"
           transform="translate(4,257.64999)"
           id="path1270" />
        <path
           style="opacity:1;vector-effect:none;fill:url(#linearGradient964);fill-opacity:1;stroke:none;stroke-width:1.99999988;stroke-linecap:round;stroke-linejoin:round;stroke-miterlimit:4;stroke-dasharray:none;stroke-dashoffset:0;stroke-opacity:1"
           d="M 7.0000033,303.64999 H 20 c 4,0 3.746593,-6 7,-6 h 21.999999 c 1.108,0 2.000001,0.89202 2.000001,2 v 33 c 0,1.108 -0.892001,2.00001 -2.000001,2.00001 H 7.0000033 c -1.1080004,0 -1.9999993,-0.89201 -1.9999993,-2.00001 v -27 c 0,-1.10798 0.8919989,-2 1.9999993,-2 z"
           id="rect993-6"
           inkscape:connector-curvature="0"
           sodipodi:nodetypes="sccssssssss" />
      </g>
      <path
         sodipodi:nodetypes="sccssssss"
         inkscape:connector-curvature="0"
         id="rect5377"
         d="m 6,281.64999 8,8e-5 5,4.99997 V 297.65 c 0,0.55401 -0.446,0.99999 -1,0.99999 H 6 c -0.554,0 -1,-0.44598 -1,-0.99999 v -14.99999 c 0,-0.554 0.446,-1.00002 1,-1.00002 z"
         style="opacity:1;fill:#3182d9;fill-opacity:1;stroke:none;stroke-width:1.99999988;stroke-linecap:round;stroke-linejoin:round;stroke-miterlimit:4;stroke-dasharray:none;stroke-opacity:1" />
      <path
         sodipodi:nodetypes="sccssssss"
         inkscape:connector-curvature="0"
         id="rect5377-3"
         d="m 6,280.64996 8,8e-5 5.000001,4.99997 v 10.99998 c 0,0.55399 -0.446001,0.99998 -1.000001,0.99998 H 6 c -0.554,0 -1,-0.44599 -1,-0.99998 v -15 c 0,-0.554 0.446,-1.00003 1,-1.00003 z"
         style="opacity:1;fill:url(#linearGradient5401);fill-opacity:1;stroke:none;stroke-width:1.99999988;stroke-linecap:round;stroke-linejoin:round;stroke-miterlimit:4;stroke-dasharray:none;stroke-opacity:1" />
    </g>
  </g>
</svg>
