<?xml version="1.0" encoding="UTF-8" standalone="no"?>
<!-- Created with Inkscape (http://www.inkscape.org/) -->

<svg
   xmlns:dc="http://purl.org/dc/elements/1.1/"
   xmlns:cc="http://creativecommons.org/ns#"
   xmlns:rdf="http://www.w3.org/1999/02/22-rdf-syntax-ns#"
   xmlns:svg="http://www.w3.org/2000/svg"
   xmlns="http://www.w3.org/2000/svg"
   xmlns:xlink="http://www.w3.org/1999/xlink"
   xmlns:sodipodi="http://sodipodi.sourceforge.net/DTD/sodipodi-0.dtd"
   xmlns:inkscape="http://www.inkscape.org/namespaces/inkscape"
   width="48"
   height="48"
   viewBox="0 0 12.7 12.7"
   version="1.1"
   id="svg8"
   inkscape:version="0.92.1 r"
   sodipodi:docname="folder-red.svg">
  <defs
     id="defs2">
    <linearGradient
       gradientTransform="translate(181.42857,31.749996)"
       inkscape:collect="always"
       xlink:href="#linearGradient10239-6"
       id="linearGradient8900"
       x1="-184.37679"
       y1="175.66963"
       x2="-184.37679"
       y2="173.0238"
       gradientUnits="userSpaceOnUse" />
    <linearGradient
       id="linearGradient10239-6"
       inkscape:collect="always">
      <stop
         id="stop10235-1"
         offset="0"
         style="stop-color:#e55045;stop-opacity:1" />
      <stop
         id="stop10237-2"
         offset="1"
         style="stop-color:#fa584b;stop-opacity:1" />
    </linearGradient>
    <linearGradient
       gradientTransform="translate(181.42857,31.749996)"
       inkscape:collect="always"
       xlink:href="#linearGradient10231-8"
       id="linearGradient8908"
       x1="-180.40804"
       y1="183.60713"
       x2="-180.40804"
       y2="174.34673"
       gradientUnits="userSpaceOnUse" />
    <linearGradient
       id="linearGradient10231-8"
       inkscape:collect="always">
      <stop
         id="stop10227-9"
         offset="0"
         style="stop-color:#e85145;stop-opacity:1" />
      <stop
         id="stop10229-7"
         offset="1"
         style="stop-color:#fe756a;stop-opacity:1" />
    </linearGradient>
  </defs>
  <sodipodi:namedview
     id="base"
     pagecolor="#ffffff"
     bordercolor="#666666"
     borderopacity="1.0"
     inkscape:pageopacity="0.0"
     inkscape:pageshadow="2"
     inkscape:zoom="11.2"
     inkscape:cx="16.749917"
     inkscape:cy="27.65482"
     inkscape:document-units="px"
     inkscape:current-layer="layer1"
     showgrid="false"
     units="px"
     inkscape:window-width="1366"
     inkscape:window-height="697"
     inkscape:window-x="0"
     inkscape:window-y="0"
     inkscape:window-maximized="1" />
  <metadata
     id="metadata5">
    <rdf:RDF>
      <cc:Work
         rdf:about="">
        <dc:format>image/svg+xml</dc:format>
        <dc:type
           rdf:resource="http://purl.org/dc/dcmitype/StillImage" />
        <dc:title />
      </cc:Work>
    </rdf:RDF>
  </metadata>
  <g
     inkscape:label="Capa 1"
     inkscape:groupmode="layer"
     id="layer1"
     transform="translate(0,-284.29999)">
    <g
       id="g9526"
       transform="translate(5.5940476,80.58452)">
      <path
         sodipodi:nodetypes="sccssssssss"
         inkscape:connector-curvature="0"
         id="rect9183-4"
         d="m -5.0648776,204.50922 h 4.75608998 l 1.32932992,2.38125 h 5.5562501 c 0.29315,0 0.52916,0.236 0.52916,0.52916 v 7.67291 c 0,0.29316 -0.23601,0.52917 -0.52917,0.52917 h -11.64166 c -0.29316,0 -0.52917,-0.23601 -0.52917,-0.52917 v -10.05416 c 0,-0.29316 0.23601,-0.52916 0.52917,-0.52916 z"
         style="opacity:1;fill:#e53737;fill-opacity:1;stroke:none;stroke-width:0.26458332;stroke-opacity:1" />
      <path
         sodipodi:nodetypes="sccssssssss"
         inkscape:connector-curvature="0"
         id="rect9186-7"
         d="m -5.0648776,204.77379 h 4.49791988 l 1.3229101,2.38126 H 6.5767924 c 0.14658,-10e-6 0.26458,0.11801 0.26458,0.26458 v 7.67291 c 0,0.14658 -0.118,0.26459 -0.26458,0.26459 h -11.64167 c -0.14658,0 -0.26458,-0.11801 -0.26458,-0.26459 v -10.05416 c 0,-0.14658 0.118,-0.26459 0.26458,-0.26459 z"
         style="opacity:1;fill:url(#linearGradient8900);fill-opacity:1;stroke:none;stroke-width:0.26458332;stroke-opacity:1" />
      <path
         sodipodi:nodetypes="sccssssssss"
         inkscape:connector-curvature="0"
         id="rect9175-4"
         d="m -5.0648776,207.41964 4.49791988,-10e-6 1.0583302,-1.5875 6.08541992,1e-5 c 0.29315,0 0.52916,0.23601 0.52916,0.52917 v 8.73124 c 0,0.29316 -0.23601,0.52917 -0.52916,0.52917 h -11.64167 c -0.29316,0 -0.52917,-0.23601 -0.52917,-0.52917 v -7.14374 c 0,-0.29316 0.23601,-0.52917 0.52917,-0.52917 z"
         style="opacity:1;fill:#e53737;fill-opacity:1;stroke:none;stroke-width:0.26458332;stroke-opacity:1" />
      <path
         sodipodi:nodetypes="sccssssssss"
         inkscape:connector-curvature="0"
         id="rect9179-4"
         d="m -5.0648776,207.68423 4.76250008,-1e-5 1.0583299,-1.58751 5.82084002,2e-5 c 0.14658,0 0.26458,0.11801 0.26458,0.26458 v 8.73125 c 0,0.14658 -0.118,0.26459 -0.26458,0.26459 h -11.64167 c -0.14658,0 -0.26458,-0.11801 -0.26458,-0.26459 v -7.14375 c 0,-0.14657 0.118,-0.26458 0.26458,-0.26458 z"
         style="opacity:0.98999999;fill:url(#linearGradient8908);fill-opacity:1;stroke:none;stroke-width:0.26458332;stroke-opacity:1" />
    </g>
  </g>
</svg>
