<?xml version="1.0" encoding="UTF-8" standalone="no"?>
<!-- Created with Inkscape (http://www.inkscape.org/) -->

<svg
   xmlns:dc="http://purl.org/dc/elements/1.1/"
   xmlns:cc="http://creativecommons.org/ns#"
   xmlns:rdf="http://www.w3.org/1999/02/22-rdf-syntax-ns#"
   xmlns:svg="http://www.w3.org/2000/svg"
   xmlns="http://www.w3.org/2000/svg"
   xmlns:xlink="http://www.w3.org/1999/xlink"
   xmlns:sodipodi="http://sodipodi.sourceforge.net/DTD/sodipodi-0.dtd"
   xmlns:inkscape="http://www.inkscape.org/namespaces/inkscape"
   width="48"
   height="48"
   viewBox="0 0 48 48"
   version="1.1"
   id="svg8"
   inkscape:version="0.91 r13725"
   sodipodi:docname="neon.svg">
  <title
     id="title7895">Antu icon Theme</title>
  <defs
     id="defs2">
    <linearGradient
       gradientTransform="matrix(0.23466667,0,0,0.23466667,-469.46491,1472.7907)"
       gradientUnits="userSpaceOnUse"
       y2="-5114.2363"
       x2="2102.8335"
       y1="-4960.8271"
       x1="2102.8335"
       id="linearGradient4836"
       xlink:href="#linearGradient4737"
       inkscape:collect="always" />
    <linearGradient
       id="linearGradient4367"
       inkscape:collect="always">
      <stop
         id="stop4369"
         offset="0"
         style="stop-color:#015680;stop-opacity:1" />
      <stop
         id="stop4371"
         offset="1"
         style="stop-color:#008059;stop-opacity:1" />
    </linearGradient>
    <linearGradient
       id="linearGradient4321"
       inkscape:collect="always">
      <stop
         id="stop4323"
         offset="0"
         style="stop-color:#daf1f7;stop-opacity:1" />
      <stop
         id="stop4325"
         offset="1"
         style="stop-color:#daf9f1;stop-opacity:1" />
    </linearGradient>
    <linearGradient
       id="linearGradient4737"
       inkscape:collect="always">
      <stop
         id="stop4733"
         offset="0"
         style="stop-color:#018ed7;stop-opacity:1" />
      <stop
         id="stop4735"
         offset="1"
         style="stop-color:#00dc9a;stop-opacity:1" />
    </linearGradient>
    <linearGradient
       inkscape:collect="always"
       xlink:href="#linearGradient4367"
       id="linearGradient4199"
       x1="24"
       y1="311.64999"
       x2="24"
       y2="268.42664"
       gradientUnits="userSpaceOnUse" />
    <linearGradient
       inkscape:collect="always"
       xlink:href="#linearGradient4321"
       id="linearGradient4283"
       x1="24"
       y1="39"
       x2="24"
       y2="8"
       gradientUnits="userSpaceOnUse" />
    <linearGradient
       gradientTransform="translate(0,1)"
       inkscape:collect="always"
       xlink:href="#linearGradient4367"
       id="linearGradient4283-2"
       x1="24"
       y1="39"
       x2="24"
       y2="8"
       gradientUnits="userSpaceOnUse" />
  </defs>
  <sodipodi:namedview
     id="base"
     pagecolor="#ffffff"
     bordercolor="#666666"
     borderopacity="1.0"
     inkscape:pageopacity="0.0"
     inkscape:pageshadow="2"
     inkscape:zoom="5.6"
     inkscape:cx="4.1821893"
     inkscape:cy="24.258424"
     inkscape:document-units="px"
     inkscape:current-layer="layer1"
     showgrid="true"
     units="px"
     inkscape:window-width="1360"
     inkscape:window-height="697"
     inkscape:window-x="0"
     inkscape:window-y="0"
     inkscape:window-maximized="1"
     objecttolerance="10"
     gridtolerance="10"
     guidetolerance="10">
    <inkscape:grid
       type="xygrid"
       id="grid7897"
       empspacing="4" />
  </sodipodi:namedview>
  <metadata
     id="metadata5">
    <rdf:RDF>
      <cc:Work
         rdf:about="">
        <dc:format>image/svg+xml</dc:format>
        <dc:type
           rdf:resource="http://purl.org/dc/dcmitype/StillImage" />
        <dc:title>Antu icon Theme</dc:title>
      </cc:Work>
    </rdf:RDF>
  </metadata>
  <g
     inkscape:label="Capa 1"
     inkscape:groupmode="layer"
     id="layer1"
     transform="translate(0,-266.64999)">
    <g
       id="g1535"
       transform="translate(35,-15.000005)">
      <g
         id="g911"
         transform="translate(-35,15)">
        <path
           style="opacity:1;fill:url(#linearGradient4199);fill-opacity:1;stroke:none;stroke-width:0.30000001;stroke-miterlimit:4;stroke-dasharray:none;stroke-opacity:1"
           d="m 23.999976,268.65002 h 4.7e-5 C 36.187999,268.65002 46,278.462 46,290.65 c 0,12.18797 -9.812001,21.99997 -21.999977,21.99997 h -4.7e-5 c -12.188,0 -21.999977,-9.812 -21.999977,-21.99997 0,-12.188 9.811977,-21.99998 21.999977,-21.99998 z"
           id="rect4544"
           inkscape:connector-curvature="0" />
        <path
           style="opacity:1;fill:url(#linearGradient4836);fill-opacity:1.0;stroke:none;stroke-width:0.30000001;stroke-miterlimit:4;stroke-dasharray:none;stroke-opacity:1"
           d="m 23.999976,269.64998 h 2.3e-5 c 11.633999,0 20.999992,9.36599 20.999992,20.99999 0,11.634 -9.365993,21 -20.999992,21 h -2.3e-5 c -11.633999,0 -20.999992,-9.366 -20.999992,-21 0,-11.634 9.365993,-20.99999 20.999992,-20.99999 z"
           id="rect4544-5"
           inkscape:connector-curvature="0" />
      </g>
    </g>
    <path
       style="opacity:1;fill:url(#linearGradient4283-2);fill-opacity:1;stroke:none;stroke-width:2;stroke-linecap:round;stroke-linejoin:round;stroke-miterlimit:4;stroke-dasharray:none;stroke-opacity:1"
       d="M 24 8 C 23.216621 8 22.547267 8.4506456 22.21875 9.1035156 C 19.194963 9.4359056 16.43732 10.609356 14.166016 12.378906 C 13.837491 12.142386 13.437486 12 13 12 C 11.892 12 11 12.892 11 14 C 11 14.43749 11.142391 14.837486 11.378906 15.166016 C 9.6101661 17.436282 8.4449455 20.196712 8.109375 23.216797 C 7.4535348 23.544289 7 24.21444 7 25 C 7 25.78556 7.4535348 26.455711 8.109375 26.783203 C 8.4449455 29.803288 9.6101661 32.563718 11.378906 34.833984 C 11.142391 35.162514 11 35.56251 11 36 C 11 37.108 11.892 38 13 38 C 13.437486 38 13.837491 37.857614 14.166016 37.621094 C 16.436286 39.389833 19.196714 40.555054 22.216797 40.890625 C 22.544289 41.546465 23.21444 42 24 42 C 24.78556 42 25.455711 41.546465 25.783203 40.890625 C 28.803286 40.555054 31.563714 39.389833 33.833984 37.621094 C 34.162509 37.857614 34.562514 38 35 38 C 36.108 38 37 37.108 37 36 C 37 35.56251 36.857609 35.162514 36.621094 34.833984 C 38.389834 32.563718 39.555055 29.803288 39.890625 26.783203 C 40.546465 26.455711 41 25.78556 41 25 C 41 24.21444 40.546465 23.544289 39.890625 23.216797 C 39.555055 20.196712 38.389834 17.436282 36.621094 15.166016 C 36.857609 14.837486 37 14.43749 37 14 C 37 12.892 36.108 12 35 12 C 34.562514 12 34.162509 12.142386 33.833984 12.378906 C 31.56268 10.609356 28.805037 9.4359056 25.78125 9.1035156 C 25.452733 8.4506456 24.783379 8 24 8 z M 22.333984 11.107422 C 22.691715 11.645362 23.302804 12 24 12 C 24.697196 12 25.308285 11.645362 25.666016 11.107422 C 28.458504 11.436312 30.993366 12.576259 33.029297 14.292969 C 33.157061 15.163699 33.836305 15.842943 34.707031 15.970703 C 36.423413 18.006248 37.560249 20.543045 37.890625 23.333984 C 37.353488 23.691847 37 24.303421 37 25 C 37 25.696579 37.353488 26.308153 37.890625 26.666016 C 37.560249 29.456951 36.423413 31.993752 34.707031 34.029297 C 33.836305 34.157057 33.157061 34.836301 33.029297 35.707031 C 30.993755 37.423411 28.456954 38.560248 25.666016 38.890625 C 25.308153 38.353488 24.696579 38 24 38 C 23.303421 38 22.691847 38.353488 22.333984 38.890625 C 19.543046 38.560248 17.006245 37.423411 14.970703 35.707031 C 14.842939 34.836301 14.163695 34.157057 13.292969 34.029297 C 11.576587 31.993752 10.439751 29.456951 10.109375 26.666016 C 10.646512 26.308153 11 25.696579 11 25 C 11 24.303421 10.646512 23.691847 10.109375 23.333984 C 10.439751 20.543045 11.576587 18.006248 13.292969 15.970703 C 14.163695 15.842943 14.842939 15.163699 14.970703 14.292969 C 17.006634 12.576259 19.541496 11.436312 22.333984 11.107422 z M 24 14 C 23.188731 14 22.49596 14.480815 22.181641 15.171875 C 17.517331 16.023575 14 20.08241 14 25 C 14 29.91759 17.517331 33.976435 22.181641 34.828125 C 22.49596 35.519185 23.188731 36 24 36 C 24.811269 36 25.50404 35.519185 25.818359 34.828125 C 30.482669 33.976435 34 29.91759 34 25 C 34 20.08241 30.482669 16.023575 25.818359 15.171875 C 25.50404 14.480815 24.811269 14 24 14 z M 22.376953 17.164062 C 22.739307 17.668843 23.328495 18 24 18 C 24.671505 18 25.260693 17.668843 25.623047 17.164062 C 29.272028 17.909933 32 21.12415 32 25 C 32 28.87585 29.272028 32.090078 25.623047 32.835938 C 25.260693 32.331158 24.671505 32 24 32 C 23.328495 32 22.739307 32.331158 22.376953 32.835938 C 18.727972 32.090077 16 28.87585 16 25 C 16 21.12415 18.727972 17.909933 22.376953 17.164062 z M 24 22 C 22.338 22 21 23.338 21 25 C 21 26.662 22.338 28 24 28 C 25.662 28 27 26.662 27 25 C 27 23.338 25.662 22 24 22 z "
       transform="translate(0,266.64999)"
       id="rect4201-9" />
    <path
       style="opacity:1;fill:url(#linearGradient4283);fill-opacity:1;stroke:none;stroke-width:2;stroke-linecap:round;stroke-linejoin:round;stroke-miterlimit:4;stroke-dasharray:none;stroke-opacity:1"
       d="M 24 7 C 23.216621 7 22.547267 7.4506474 22.21875 8.1035156 C 19.194963 8.4359068 16.43732 9.6093609 14.166016 11.378906 C 13.837491 11.142391 13.437486 11 13 11 C 11.892 11 11 11.892 11 13 C 11 13.437486 11.142391 13.837491 11.378906 14.166016 C 9.6101658 16.436286 8.4449455 19.196714 8.109375 22.216797 C 7.4535348 22.544289 7 23.21444 7 24 C 7 24.78556 7.4535348 25.455711 8.109375 25.783203 C 8.4449455 28.803286 9.6101658 31.563714 11.378906 33.833984 C 11.142391 34.162509 11 34.562514 11 35 C 11 36.108 11.892 37 13 37 C 13.437486 37 13.837491 36.857609 14.166016 36.621094 C 16.436286 38.389834 19.196714 39.555055 22.216797 39.890625 C 22.544289 40.546465 23.21444 41 24 41 C 24.78556 41 25.455711 40.546465 25.783203 39.890625 C 28.803286 39.555055 31.563714 38.389834 33.833984 36.621094 C 34.162509 36.857609 34.562514 37 35 37 C 36.108 37 37 36.108 37 35 C 37 34.562514 36.857609 34.162509 36.621094 33.833984 C 38.389834 31.563714 39.555055 28.803286 39.890625 25.783203 C 40.546465 25.455711 41 24.78556 41 24 C 41 23.21444 40.546465 22.544289 39.890625 22.216797 C 39.555055 19.196714 38.389834 16.436286 36.621094 14.166016 C 36.857609 13.837491 37 13.437486 37 13 C 37 11.892 36.108 11 35 11 C 34.562514 11 34.162509 11.142391 33.833984 11.378906 C 31.56268 9.6093609 28.805037 8.4359068 25.78125 8.1035156 C 25.452733 7.4506474 24.783379 7 24 7 z M 22.333984 10.107422 C 22.691715 10.64536 23.302804 11 24 11 C 24.697196 11 25.308285 10.64536 25.666016 10.107422 C 28.458504 10.436315 30.993366 11.576259 33.029297 13.292969 C 33.157061 14.163695 33.836305 14.842939 34.707031 14.970703 C 36.423413 17.006245 37.560249 19.543046 37.890625 22.333984 C 37.353488 22.691847 37 23.303421 37 24 C 37 24.696579 37.353488 25.308153 37.890625 25.666016 C 37.560249 28.456954 36.423413 30.993755 34.707031 33.029297 C 33.836305 33.157061 33.157061 33.836305 33.029297 34.707031 C 30.993755 36.423413 28.456954 37.560249 25.666016 37.890625 C 25.308153 37.353488 24.696579 37 24 37 C 23.303421 37 22.691847 37.353488 22.333984 37.890625 C 19.543046 37.560249 17.006245 36.423413 14.970703 34.707031 C 14.842939 33.836305 14.163695 33.157061 13.292969 33.029297 C 11.576587 30.993755 10.439751 28.456954 10.109375 25.666016 C 10.646512 25.308153 11 24.696579 11 24 C 11 23.303421 10.646512 22.691847 10.109375 22.333984 C 10.439751 19.543046 11.576587 17.006245 13.292969 14.970703 C 14.163695 14.842939 14.842939 14.163695 14.970703 13.292969 C 17.006634 11.576259 19.541496 10.436315 22.333984 10.107422 z M 24 13 C 23.188731 13 22.49596 13.480815 22.181641 14.171875 C 17.517331 15.023575 14 19.08241 14 24 C 14 28.91759 17.517331 32.976435 22.181641 33.828125 C 22.49596 34.519185 23.188731 35 24 35 C 24.811269 35 25.50404 34.519185 25.818359 33.828125 C 30.482669 32.976435 34 28.91759 34 24 C 34 19.08241 30.482669 15.023575 25.818359 14.171875 C 25.50404 13.480815 24.811269 13 24 13 z M 22.376953 16.164062 C 22.739307 16.668843 23.328495 17 24 17 C 24.671505 17 25.260693 16.668843 25.623047 16.164062 C 29.272028 16.909933 32 20.12415 32 24 C 32 27.87585 29.272028 31.090078 25.623047 31.835938 C 25.260693 31.331157 24.671505 31 24 31 C 23.328495 31 22.739307 31.331157 22.376953 31.835938 C 18.727972 31.090077 16 27.87585 16 24 C 16 20.12415 18.727972 16.909933 22.376953 16.164062 z M 24 21 C 22.338 21 21 22.338 21 24 C 21 25.662 22.338 27 24 27 C 25.662 27 27 25.662 27 24 C 27 22.338 25.662 21 24 21 z "
       transform="translate(0,266.64999)"
       id="rect4201" />
    <g
       transform="translate(8,-8)"
       id="layer1-6"
       inkscape:label="Capa 1">
      <g
         transform="translate(10,-6)"
         id="g1574" />
    </g>
  </g>
</svg>
