<?xml version="1.0" encoding="UTF-8" standalone="no"?>
<!-- Created with Inkscape (http://www.inkscape.org/) -->

<svg
   xmlns:dc="http://purl.org/dc/elements/1.1/"
   xmlns:cc="http://creativecommons.org/ns#"
   xmlns:rdf="http://www.w3.org/1999/02/22-rdf-syntax-ns#"
   xmlns:svg="http://www.w3.org/2000/svg"
   xmlns="http://www.w3.org/2000/svg"
   xmlns:xlink="http://www.w3.org/1999/xlink"
   xmlns:sodipodi="http://sodipodi.sourceforge.net/DTD/sodipodi-0.dtd"
   xmlns:inkscape="http://www.inkscape.org/namespaces/inkscape"
   width="48"
   height="48"
   viewBox="0 0 48 48"
   version="1.1"
   id="svg8"
   inkscape:version="0.92.1 r"
   sodipodi:docname="start-here.svg">
  <title
     id="title7895">Antu icon Theme</title>
  <defs
     id="defs2">
    <linearGradient
       gradientTransform="matrix(0.23466667,0,0,0.23466667,-493.46492,1478.7908)"
       gradientUnits="userSpaceOnUse"
       y2="-5063.0996"
       x2="2102.8335"
       y1="-4960.8271"
       x1="2102.8335"
       id="linearGradient4836"
       xlink:href="#linearGradient4834"
       inkscape:collect="always" />
    <linearGradient
       id="linearGradient4834"
       inkscape:collect="always">
      <stop
         id="stop4830"
         offset="0"
         style="stop-color:#c0f1f3;stop-opacity:1" />
      <stop
         id="stop4832"
         offset="1"
         style="stop-color:#effafb;stop-opacity:1" />
    </linearGradient>
    <linearGradient
       gradientTransform="matrix(0.23466667,0,0,0.23466667,-418.00003,1515.5444)"
       inkscape:collect="always"
       xlink:href="#linearGradient8202-4"
       id="linearGradient7809"
       x1="1815.3411"
       y1="-5219.7202"
       x2="1815.3411"
       y2="-5236.7656"
       gradientUnits="userSpaceOnUse" />
    <linearGradient
       inkscape:collect="always"
       id="linearGradient8202-4">
      <stop
         style="stop-color:#3790f2;stop-opacity:1"
         offset="0"
         id="stop8198-5" />
      <stop
         style="stop-color:#53c7f9;stop-opacity:1"
         offset="1"
         id="stop8200-0" />
    </linearGradient>
    <linearGradient
       gradientTransform="matrix(0.23466667,0,0,0.23466667,-418.00003,1515.5444)"
       inkscape:collect="always"
       xlink:href="#linearGradient8202-4"
       id="linearGradient7833"
       x1="1815.3411"
       y1="-5151.5386"
       x2="1815.3411"
       y2="-5168.584"
       gradientUnits="userSpaceOnUse" />
    <linearGradient
       gradientTransform="matrix(0.23466667,0,0,0.23466667,-418.00003,1515.5444)"
       inkscape:collect="always"
       xlink:href="#linearGradient6884"
       id="linearGradient7849"
       x1="1815.3411"
       y1="-5185.6294"
       x2="1815.3411"
       y2="-5202.6748"
       gradientUnits="userSpaceOnUse" />
    <linearGradient
       inkscape:collect="always"
       id="linearGradient6884">
      <stop
         style="stop-color:#2b73bf;stop-opacity:1"
         offset="0"
         id="stop6880" />
      <stop
         style="stop-color:#3b99f3;stop-opacity:1"
         offset="1"
         id="stop6882" />
    </linearGradient>
    <linearGradient
       gradientTransform="matrix(0.23466667,0,0,0.23466667,-418.00003,1515.5444)"
       inkscape:collect="always"
       xlink:href="#linearGradient8202-4"
       id="linearGradient7817"
       x1="1781.2501"
       y1="-5185.6294"
       x2="1781.2501"
       y2="-5202.6748"
       gradientUnits="userSpaceOnUse" />
    <linearGradient
       gradientTransform="matrix(0.23466667,0,0,0.23466667,-418.00003,1515.5444)"
       inkscape:collect="always"
       xlink:href="#linearGradient6884"
       id="linearGradient7841"
       x1="1781.2501"
       y1="-5151.5386"
       x2="1781.2501"
       y2="-5168.584"
       gradientUnits="userSpaceOnUse" />
    <linearGradient
       gradientTransform="matrix(0.23466667,0,0,0.23466667,-418.00003,1515.5444)"
       inkscape:collect="always"
       xlink:href="#linearGradient8202-4"
       id="linearGradient7825"
       x1="1747.1592"
       y1="-5151.5386"
       x2="1747.1592"
       y2="-5168.584"
       gradientUnits="userSpaceOnUse" />
    <linearGradient
       gradientTransform="matrix(0.23466667,0,0,0.23466667,-418.00003,1515.5444)"
       inkscape:collect="always"
       xlink:href="#linearGradient6884"
       id="linearGradient7857"
       x1="1747.1592"
       y1="-5185.6294"
       x2="1747.1592"
       y2="-5202.6748"
       gradientUnits="userSpaceOnUse" />
    <linearGradient
       gradientTransform="matrix(0.23466667,0,0,0.23466667,-418.00003,1515.5444)"
       inkscape:collect="always"
       xlink:href="#linearGradient8202-4"
       id="linearGradient7801"
       x1="1747.1592"
       y1="-5219.7202"
       x2="1747.1592"
       y2="-5236.7656"
       gradientUnits="userSpaceOnUse" />
    <linearGradient
       gradientTransform="matrix(0.23466667,0,0,0.23466667,-418.00003,1515.5444)"
       inkscape:collect="always"
       xlink:href="#linearGradient6884"
       id="linearGradient7865"
       x1="1781.2501"
       y1="-5219.7202"
       x2="1781.2501"
       y2="-5236.7656"
       gradientUnits="userSpaceOnUse" />
  </defs>
  <sodipodi:namedview
     id="base"
     pagecolor="#ffffff"
     bordercolor="#666666"
     borderopacity="1.0"
     inkscape:pageopacity="0.0"
     inkscape:pageshadow="2"
     inkscape:zoom="7.919596"
     inkscape:cx="41.064864"
     inkscape:cy="31.645105"
     inkscape:document-units="px"
     inkscape:current-layer="layer1"
     showgrid="true"
     units="px"
     inkscape:window-width="1366"
     inkscape:window-height="697"
     inkscape:window-x="0"
     inkscape:window-y="0"
     inkscape:window-maximized="1"
     objecttolerance="10"
     gridtolerance="10"
     guidetolerance="10">
    <inkscape:grid
       type="xygrid"
       id="grid7897"
       empspacing="4" />
  </sodipodi:namedview>
  <metadata
     id="metadata5">
    <rdf:RDF>
      <cc:Work
         rdf:about="">
        <dc:format>image/svg+xml</dc:format>
        <dc:type
           rdf:resource="http://purl.org/dc/dcmitype/StillImage" />
        <dc:title>Antu icon Theme</dc:title>
      </cc:Work>
    </rdf:RDF>
  </metadata>
  <g
     inkscape:label="Capa 1"
     inkscape:groupmode="layer"
     id="layer1"
     transform="translate(0,-266.64999)">
    <g
       id="g8609"
       transform="translate(24.000009,-6.000055)">
      <path
         inkscape:connector-curvature="0"
         id="rect4544"
         d="m -3.3e-5,274.65007 h 4.7e-5 c 12.187976,0 21.999977,9.81198 21.999977,21.99998 0,12.18797 -9.812001,21.99997 -21.999977,21.99997 h -4.7e-5 c -12.188,0 -21.999977,-9.812 -21.999977,-21.99997 0,-12.188 9.811977,-21.99998 21.999977,-21.99998 z"
         style="opacity:1;fill:#b6e3e5;fill-opacity:1;stroke:none;stroke-width:0.30000001;stroke-miterlimit:4;stroke-dasharray:none;stroke-opacity:1" />
      <path
         inkscape:connector-curvature="0"
         id="rect4544-5"
         d="M -3.3e-5,275.65003 H -1e-5 c 11.633999,0 20.999992,9.36599 20.999992,20.99999 0,11.634 -9.365993,21 -20.999992,21 h -2.3e-5 c -11.633999,0 -20.999992,-9.366 -20.999992,-21 0,-11.634 9.365993,-20.99999 20.999992,-20.99999 z"
         style="opacity:1;fill:url(#linearGradient4836);fill-opacity:1;stroke:none;stroke-width:0.30000001;stroke-miterlimit:4;stroke-dasharray:none;stroke-opacity:1" />
      <path
         inkscape:connector-curvature="0"
         id="rect4666"
         d="m -8.000023,285.65001 c 1.662003,0 3.000002,1.338 3.000002,3 0,1.66201 -1.337999,3.00001 -3.000002,3.00001 -1.662003,0 -3.000002,-1.338 -3.000002,-3.00001 0,-1.662 1.337999,-3 3.000002,-3 z"
         style="opacity:1;fill:url(#linearGradient7801);fill-opacity:1;stroke:none;stroke-width:0.30000001;stroke-miterlimit:4;stroke-dasharray:none;stroke-opacity:1" />
      <path
         inkscape:connector-curvature="0"
         id="rect4668"
         d="m -2.5e-5,285.65001 c 1.662003,0 3.000002,1.338 3.000002,3 0,1.66201 -1.337999,3.00001 -3.000002,3.00001 -1.662004,0 -3.000002,-1.338 -3.000002,-3.00001 0,-1.662 1.337998,-3 3.000002,-3 z"
         style="opacity:1;fill:url(#linearGradient7865);fill-opacity:1;stroke:none;stroke-width:0.30000001;stroke-miterlimit:4;stroke-dasharray:none;stroke-opacity:1" />
      <path
         inkscape:connector-curvature="0"
         id="rect4670"
         d="m 7.999996,285.65001 c 1.662003,0 3.000002,1.338 3.000002,3 0,1.66201 -1.337999,3.00001 -3.000002,3.00001 -1.662003,0 -3.000002,-1.338 -3.000002,-3.00001 0,-1.662 1.337999,-3 3.000002,-3 z"
         style="opacity:1;fill:url(#linearGradient7809);fill-opacity:1;stroke:none;stroke-width:0.30000001;stroke-miterlimit:4;stroke-dasharray:none;stroke-opacity:1" />
      <path
         inkscape:connector-curvature="0"
         id="rect4666-3"
         d="m -8.000023,293.65001 c 1.662003,0 3.000002,1.338 3.000002,3 0,1.66198 -1.337999,2.99998 -3.000002,2.99998 -1.662003,0 -3.000002,-1.338 -3.000002,-2.99998 0,-1.662 1.337999,-3 3.000002,-3 z"
         style="opacity:1;fill:url(#linearGradient7857);fill-opacity:1;stroke:none;stroke-width:0.30000001;stroke-miterlimit:4;stroke-dasharray:none;stroke-opacity:1" />
      <path
         inkscape:connector-curvature="0"
         id="rect4668-6"
         d="m -2.5e-5,293.65001 c 1.662003,0 3.000002,1.338 3.000002,3 0,1.66198 -1.337999,2.99998 -3.000002,2.99998 -1.662004,0 -3.000002,-1.338 -3.000002,-2.99998 0,-1.662 1.337998,-3 3.000002,-3 z"
         style="opacity:1;fill:url(#linearGradient7817);fill-opacity:1;stroke:none;stroke-width:0.30000001;stroke-miterlimit:4;stroke-dasharray:none;stroke-opacity:1" />
      <path
         inkscape:connector-curvature="0"
         id="rect4670-0"
         d="m 7.999996,293.65001 c 1.662003,0 3.000002,1.338 3.000002,3 0,1.66198 -1.337999,2.99998 -3.000002,2.99998 -1.662003,0 -3.000002,-1.338 -3.000002,-2.99998 0,-1.662 1.337999,-3 3.000002,-3 z"
         style="opacity:1;fill:url(#linearGradient7849);fill-opacity:1;stroke:none;stroke-width:0.30000001;stroke-miterlimit:4;stroke-dasharray:none;stroke-opacity:1" />
      <path
         inkscape:connector-curvature="0"
         id="rect4666-6"
         d="m -8.000023,301.64998 c 1.662003,0 3.000002,1.338 3.000002,3.00001 0,1.662 -1.337999,3 -3.000002,3 -1.662003,0 -3.000002,-1.338 -3.000002,-3 0,-1.66201 1.337999,-3.00001 3.000002,-3.00001 z"
         style="opacity:1;fill:url(#linearGradient7825);fill-opacity:1;stroke:none;stroke-width:0.30000001;stroke-miterlimit:4;stroke-dasharray:none;stroke-opacity:1" />
      <path
         inkscape:connector-curvature="0"
         id="rect4668-2"
         d="m -2.5e-5,301.64998 c 1.662003,0 3.000002,1.338 3.000002,3.00001 0,1.662 -1.337999,3 -3.000002,3 -1.662004,0 -3.000002,-1.338 -3.000002,-3 0,-1.66201 1.337998,-3.00001 3.000002,-3.00001 z"
         style="opacity:1;fill:url(#linearGradient7841);fill-opacity:1;stroke:none;stroke-width:0.30000001;stroke-miterlimit:4;stroke-dasharray:none;stroke-opacity:1" />
      <path
         inkscape:connector-curvature="0"
         id="rect4670-6"
         d="m 7.999996,301.64998 c 1.662003,0 3.000002,1.338 3.000002,3.00001 0,1.662 -1.337999,3 -3.000002,3 -1.662003,0 -3.000002,-1.338 -3.000002,-3 0,-1.66201 1.337999,-3.00001 3.000002,-3.00001 z"
         style="opacity:1;fill:url(#linearGradient7833);fill-opacity:1;stroke:none;stroke-width:0.30000001;stroke-miterlimit:4;stroke-dasharray:none;stroke-opacity:1" />
    </g>
  </g>
</svg>
