<?xml version="1.0" encoding="UTF-8" standalone="no"?>
<!-- Created with Inkscape (http://www.inkscape.org/) -->

<svg
   xmlns:dc="http://purl.org/dc/elements/1.1/"
   xmlns:cc="http://creativecommons.org/ns#"
   xmlns:rdf="http://www.w3.org/1999/02/22-rdf-syntax-ns#"
   xmlns:svg="http://www.w3.org/2000/svg"
   xmlns="http://www.w3.org/2000/svg"
   xmlns:xlink="http://www.w3.org/1999/xlink"
   xmlns:sodipodi="http://sodipodi.sourceforge.net/DTD/sodipodi-0.dtd"
   xmlns:inkscape="http://www.inkscape.org/namespaces/inkscape"
   width="48"
   height="48"
   viewBox="0 0 48 48"
   version="1.1"
   id="svg8"
   inkscape:version="0.92.4 5da689c313, 2019-01-14"
   sodipodi:docname="start-here-kde.svg">
  <title
     id="title7895">Antu icon Theme</title>
  <defs
     id="defs2">
    <style
       type="text/css"
       id="current-color-scheme">
      .ColorScheme-Text {
        color:#122036;
      }
      </style>
    <style
       type="text/css"
       id="current-color-scheme-7">
      .ColorScheme-Text {
        color:#122036;
      }
      </style>
    <style
       type="text/css"
       id="current-color-scheme-5">
      .ColorScheme-Text {
        color:#122036;
      }
      </style>
    <style
       id="current-color-scheme-9"
       type="text/css">
      .ColorScheme-Text {
        color:#122036;
      }
      </style>
    <style
       id="current-color-scheme-1"
       type="text/css">
      .ColorScheme-Text {
        color:#122036;
      }
      </style>
    <style
       type="text/css"
       id="current-color-scheme-10">
      .ColorScheme-Text {
        color:#122036;
      }
      </style>
    <style
       id="current-color-scheme-6"
       type="text/css">
      .ColorScheme-Text {
        color:#122036;
      }
      </style>
    <style
       id="current-color-scheme-7-1"
       type="text/css">
      .ColorScheme-Text {
        color:#122036;
      }
      </style>
    <style
       id="current-color-scheme-5-2"
       type="text/css">
      .ColorScheme-Text {
        color:#122036;
      }
      </style>
    <style
       type="text/css"
       id="current-color-scheme-2">
      .ColorScheme-Text {
        color:#122036;
      }
      </style>
    <style
       type="text/css"
       id="current-color-scheme-7-9">
      .ColorScheme-Text {
        color:#122036;
      }
      </style>
    <style
       type="text/css"
       id="current-color-scheme-5-1">
      .ColorScheme-Text {
        color:#122036;
      }
      </style>
    <style
       id="current-color-scheme-9-2"
       type="text/css">
      .ColorScheme-Text {
        color:#122036;
      }
      </style>
    <style
       id="current-color-scheme-1-7"
       type="text/css">
      .ColorScheme-Text {
        color:#122036;
      }
      </style>
    <style
       type="text/css"
       id="current-color-scheme-10-0">
      .ColorScheme-Text {
        color:#122036;
      }
      </style>
    <style
       id="current-color-scheme-6-9"
       type="text/css">
      .ColorScheme-Text {
        color:#122036;
      }
      </style>
    <style
       id="current-color-scheme-7-1-3"
       type="text/css">
      .ColorScheme-Text {
        color:#122036;
      }
      </style>
    <style
       id="current-color-scheme-5-2-6"
       type="text/css">
      .ColorScheme-Text {
        color:#122036;
      }
      </style>
    <linearGradient
       gradientTransform="translate(-157,244.64999)"
       inkscape:collect="always"
       xlink:href="#linearGradient4582-3"
       id="linearGradient1427"
       x1="218.104"
       y1="126.49823"
       x2="218.01884"
       y2="94.236481"
       gradientUnits="userSpaceOnUse" />
    <linearGradient
       id="linearGradient4582-3"
       inkscape:collect="always">
      <stop
         id="stop4578-5"
         offset="0"
         style="stop-color:#c8c8c8;stop-opacity:1" />
      <stop
         id="stop4580-6"
         offset="1"
         style="stop-color:#f2f2f2;stop-opacity:1" />
    </linearGradient>
    <linearGradient
       inkscape:collect="always"
       xlink:href="#linearGradient2126"
       id="linearGradient4836"
       x1="2102.8335"
       y1="-4960.8271"
       x2="2102.8335"
       y2="-5114.2363"
       gradientUnits="userSpaceOnUse"
       gradientTransform="matrix(0.23466667,0,0,0.23466667,-425.46491,1537.2908)" />
    <linearGradient
       inkscape:collect="always"
       id="linearGradient2126">
      <stop
         style="stop-color:#475057;stop-opacity:1;"
         offset="0"
         id="stop2122" />
      <stop
         style="stop-color:#5e6a73;stop-opacity:1"
         offset="1"
         id="stop2124" />
    </linearGradient>
  </defs>
  <sodipodi:namedview
     id="base"
     pagecolor="#ffffff"
     bordercolor="#666666"
     borderopacity="1.0"
     inkscape:pageopacity="0.0"
     inkscape:pageshadow="2"
     inkscape:zoom="8"
     inkscape:cx="54.03514"
     inkscape:cy="-3.4421897"
     inkscape:document-units="px"
     inkscape:current-layer="g911"
     showgrid="true"
     units="px"
     inkscape:window-width="1870"
     inkscape:window-height="1141"
     inkscape:window-x="50"
     inkscape:window-y="30"
     inkscape:window-maximized="1"
     objecttolerance="10"
     gridtolerance="10"
     guidetolerance="10"
     inkscape:snap-bbox="true"
     inkscape:bbox-nodes="true"
     inkscape:bbox-paths="true"
     inkscape:snap-bbox-edge-midpoints="true"
     inkscape:snap-bbox-midpoints="true"
     inkscape:object-paths="true"
     inkscape:snap-intersection-paths="true">
    <inkscape:grid
       type="xygrid"
       id="grid7897"
       empspacing="4" />
  </sodipodi:namedview>
  <metadata
     id="metadata5">
    <rdf:RDF>
      <cc:Work
         rdf:about="">
        <dc:format>image/svg+xml</dc:format>
        <dc:type
           rdf:resource="http://purl.org/dc/dcmitype/StillImage" />
        <dc:title>Antu icon Theme</dc:title>
      </cc:Work>
    </rdf:RDF>
  </metadata>
  <g
     inkscape:label="Capa 1"
     inkscape:groupmode="layer"
     id="layer1"
     transform="translate(0,-266.64999)">
    <g
       id="g1535"
       transform="translate(35,-15.000005)">
      <g
         id="g911"
         transform="translate(-35,15)">
        <g
           id="g900"
           transform="translate(-44,-64.50002)">
          <path
             style="opacity:1;fill:#343b40;fill-opacity:1;stroke:none;stroke-width:0.30000001;stroke-miterlimit:4;stroke-dasharray:none;stroke-opacity:1"
             d="m 67.999977,333.15004 h 4.7e-5 c 12.187976,0 21.999977,9.81198 21.999977,21.99998 0,12.18797 -9.812001,21.99997 -21.999977,21.99997 h -4.7e-5 C 55.811977,377.14999 46,367.33799 46,355.15002 c 0,-12.188 9.811977,-21.99998 21.999977,-21.99998 z"
             id="rect4544"
             inkscape:connector-curvature="0" />
          <path
             style="opacity:1;fill:url(#linearGradient4836);fill-opacity:1;stroke:none;stroke-width:0.30000001;stroke-miterlimit:4;stroke-dasharray:none;stroke-opacity:1"
             d="M 67.999977,334.15 H 68 c 11.633999,0 20.999992,9.36599 20.999992,20.99999 0,11.63401 -9.365993,21 -20.999992,21 h -2.3e-5 c -11.633999,0 -20.999992,-9.36599 -20.999992,-21 0,-11.634 9.365993,-20.99999 20.999992,-20.99999 z"
             id="rect4544-5"
             inkscape:connector-curvature="0" />
          <path
             style="fill:#343b40;fill-opacity:1;stroke-width:0.95999706"
             d="m 70.984376,340.15002 a 1.0001,1.0001 0 0 0 -0.691406,0.29297 l -4,4 a 1.0001,1.0001 0 0 0 0,1.41407 l 7.292969,7.29296 -7.292969,7.29297 a 1.0001,1.0001 0 0 0 0,1.41407 l 4,3.99999 a 1.0001,1.0001 0 0 0 1.414062,0 l 12,-12 a 1.0001,1.0001 0 0 0 0,-1.41406 l -12,-12 a 1.0001,1.0001 0 0 0 -0.722656,-0.29297 z m -10.984375,3 c -1.662,0 -3,1.338 -3,3 0,1.662 1.338,3 3,3 1.662,0 3,-1.338 3,-3 0,-1.662 -1.338,-3 -3,-3 z m -4,9 c -2.215992,0 -4,1.784 -4,4 0,2.21598 1.784008,4 4,4 2.215992,0 4,-1.78402 4,-4 0,-2.216 -1.784008,-4 -4,-4 z m 5,10 c -2.77,0 -5,2.23 -5,5 0,2.77001 2.23,5 5,5 2.770001,0 5,-2.22999 5,-5 0,-2.77 -2.229999,-5 -5,-5 z"
             id="path1174"
             inkscape:connector-curvature="0" />
          <path
             id="rect4119-6"
             d="m 70.984381,339.14999 a 1.0001,1.0001 0 0 0 -0.69141,0.29298 l -4,4 a 1.0001,1.0001 0 0 0 0,1.41406 l 7.29297,7.29297 -7.29297,7.29297 a 1.0001,1.0001 0 0 0 0,1.41406 l 4,4 a 1.0001,1.0001 0 0 0 1.41406,0 l 12,-12 a 1.0001,1.0001 0 0 0 0,-1.41406 l -12,-12 a 1.0001,1.0001 0 0 0 -0.72265,-0.29298 z m -10.98438,3 c -1.662,0 -3,1.338 -3,3 0,1.662 1.338,3 3,3 1.662,0 3,-1.338 3,-3 0,-1.662 -1.338,-3 -3,-3 z m -4,9 c -2.21599,0 -4,1.784 -4,4 0,2.21598 1.78401,4 4,4 2.21599,0 4,-1.78402 4,-4 0,-2.216 -1.78401,-4 -4,-4 z m 5,10 c -2.77,0 -5,2.23 -5,5 0,2.77001 2.23,5 5,5 2.77,0 5,-2.22999 5,-5 0,-2.77 -2.23,-5 -5,-5 z"
             style="fill:url(#linearGradient1427);fill-opacity:1;stroke-width:0.95999706"
             inkscape:connector-curvature="0" />
        </g>
      </g>
    </g>
  </g>
</svg>
