<?xml version="1.0" encoding="UTF-8" standalone="no"?>
<!-- Created with Inkscape (http://www.inkscape.org/) -->

<svg
   width="48"
   height="48"
   viewBox="0 0 12.7 12.7"
   version="1.1"
   id="svg8"
   inkscape:version="1.2 (dc2aedaf03, 2022-05-15)"
   sodipodi:docname="ubuntu.svg"
   xmlns:inkscape="http://www.inkscape.org/namespaces/inkscape"
   xmlns:sodipodi="http://sodipodi.sourceforge.net/DTD/sodipodi-0.dtd"
   xmlns:xlink="http://www.w3.org/1999/xlink"
   xmlns="http://www.w3.org/2000/svg"
   xmlns:svg="http://www.w3.org/2000/svg"
   xmlns:rdf="http://www.w3.org/1999/02/22-rdf-syntax-ns#"
   xmlns:cc="http://creativecommons.org/ns#"
   xmlns:dc="http://purl.org/dc/elements/1.1/">
  <defs
     id="defs2">
    <style
       id="current-color-scheme"
       type="text/css">
      .ColorScheme-Text {
        color:#122036;
      }
      </style>
    <linearGradient
       id="linearGradient4622"
       inkscape:collect="always">
      <stop
         id="stop4618"
         offset="0"
         style="stop-color:#ff6a3e;stop-opacity:1" />
      <stop
         id="stop4620"
         offset="1"
         style="stop-color:#ff9065;stop-opacity:1" />
    </linearGradient>
    <style
       type="text/css"
       id="current-color-scheme-3">
      .ColorScheme-Text {
        color:#122036;
      }
      </style>
    <style
       type="text/css"
       id="current-color-scheme-7">
      .ColorScheme-Text {
        color:#122036;
      }
      </style>
    <style
       type="text/css"
       id="current-color-scheme-5">
      .ColorScheme-Text {
        color:#122036;
      }
      </style>
    <style
       id="current-color-scheme-9"
       type="text/css">
      .ColorScheme-Text {
        color:#122036;
      }
      </style>
    <style
       id="current-color-scheme-1"
       type="text/css">
      .ColorScheme-Text {
        color:#122036;
      }
      </style>
    <style
       type="text/css"
       id="current-color-scheme-10">
      .ColorScheme-Text {
        color:#122036;
      }
      </style>
    <style
       id="current-color-scheme-6"
       type="text/css">
      .ColorScheme-Text {
        color:#122036;
      }
      </style>
    <style
       id="current-color-scheme-7-1"
       type="text/css">
      .ColorScheme-Text {
        color:#122036;
      }
      </style>
    <style
       id="current-color-scheme-5-2"
       type="text/css">
      .ColorScheme-Text {
        color:#122036;
      }
      </style>
    <linearGradient
       inkscape:collect="always"
       xlink:href="#linearGradient4622"
       id="linearGradient899"
       x1="0.79375023"
       y1="295.41251"
       x2="0.79375023"
       y2="284.82916"
       gradientUnits="userSpaceOnUse" />
  </defs>
  <sodipodi:namedview
     id="base"
     pagecolor="#ffffff"
     bordercolor="#666666"
     borderopacity="1.0"
     inkscape:pageopacity="0.0"
     inkscape:pageshadow="2"
     inkscape:zoom="15.839192"
     inkscape:cx="31.504132"
     inkscape:cy="22.949403"
     inkscape:document-units="px"
     inkscape:current-layer="g833"
     showgrid="true"
     units="px"
     inkscape:showpageshadow="false"
     inkscape:snap-bbox="true"
     inkscape:bbox-paths="true"
     inkscape:bbox-nodes="true"
     inkscape:snap-bbox-edge-midpoints="true"
     inkscape:snap-bbox-midpoints="true"
     inkscape:object-paths="true"
     inkscape:snap-intersection-paths="true"
     inkscape:window-width="2160"
     inkscape:window-height="1337"
     inkscape:window-x="0"
     inkscape:window-y="0"
     inkscape:window-maximized="1"
     inkscape:pagecheckerboard="0"
     inkscape:deskcolor="#d1d1d1"
     showguides="true">
    <inkscape:grid
       type="xygrid"
       id="grid815" />
  </sodipodi:namedview>
  <metadata
     id="metadata5">
    <rdf:RDF>
      <cc:Work
         rdf:about="">
        <dc:format>image/svg+xml</dc:format>
        <dc:type
           rdf:resource="http://purl.org/dc/dcmitype/StillImage" />
        <dc:title />
      </cc:Work>
    </rdf:RDF>
  </metadata>
  <g
     inkscape:label="Capa 1"
     inkscape:groupmode="layer"
     id="layer1"
     transform="translate(0,-284.29999)">
    <g
       id="g833"
       transform="translate(-8.4666662,-7.6729165)">
      <g
         transform="translate(14.02292,8.2020865)"
         id="g8345">
        <path
           inkscape:connector-curvature="0"
           id="rect4544"
           d="m 0.79374387,284.3 h 1.25e-5 c 3.22473533,0 5.82082733,2.59609 5.82082733,5.82083 0,3.22473 -2.596092,5.82082 -5.82082733,5.82082 h -1.25e-5 c -3.22474157,0 -5.82082717,-2.59609 -5.82082717,-5.82082 0,-3.22474 2.5960856,-5.82083 5.82082717,-5.82083 z"
           style="opacity:1;fill:#dd4d25;fill-opacity:0.960784;stroke:none;stroke-width:0.079375;stroke-miterlimit:4;stroke-dasharray:none;stroke-opacity:1" />
        <path
           inkscape:connector-curvature="0"
           id="rect4544-5"
           d="m 0.79374387,284.56457 h 6.1e-6 c 3.07816233,0 5.55624773,2.47809 5.55624773,5.55625 0,3.07816 -2.4780854,5.55625 -5.55624773,5.55625 h -6.1e-6 c -3.07816217,0 -5.55624787,-2.47809 -5.55624787,-5.55625 0,-3.07816 2.4780857,-5.55625 5.55624787,-5.55625 z"
           style="opacity:1;fill:url(#linearGradient899);fill-opacity:1;stroke:none;stroke-width:0.079375;stroke-miterlimit:4;stroke-dasharray:none;stroke-opacity:1" />
      </g>
      <path
         id="path3414-1"
         style="fill:#de4d24;fill-opacity:0.960784;stroke-width:0.547414;stroke-linecap:round;stroke-linejoin:round"
         d="m 16.139583,294.35416 a 1.3229166,1.3229166 0 0 0 -1.322917,1.32292 1.3229166,1.3229166 0 0 0 1.322917,1.32292 1.3229166,1.3229166 0 0 0 1.322917,-1.32292 1.3229166,1.3229166 0 0 0 -1.322917,-1.32292 z m -1.322917,0.26459 a 3.96875,3.96875 0 0 0 -3.86488,3.07061 1.5875,1.5875 0 0 1 0.127124,-0.0568 1.5875,1.5875 0 0 1 0.182934,-0.0574 1.5875,1.5875 0 0 1 0.188619,-0.0346 1.5875,1.5875 0 0 1 0.191203,-0.0114 1.5875,1.5875 0 0 1 0.06408,0.001 1.5875,1.5875 0 0 1 0.06356,0.004 1.5875,1.5875 0 0 1 0.06356,0.006 1.5875,1.5875 0 0 1 0.06356,0.009 1.5875,1.5875 0 0 1 0.06253,0.0114 1.5875,1.5875 0 0 1 0.06253,0.014 1.5875,1.5875 0 0 1 0.06201,0.0165 1.5875,1.5875 0 0 1 0.06098,0.0191 1.5875,1.5875 0 0 1 0.05995,0.0217 1.5875,1.5875 0 0 1 0.05943,0.0238 1.5875,1.5875 0 0 1 0.0584,0.0263 1.5875,1.5875 0 0 1 0.0088,0.004 2.6458333,2.6458333 0 0 1 2.247925,-1.73426 1.5875,1.5875 0 0 1 -0.0155,-0.0842 1.5875,1.5875 0 0 1 -0.01137,-0.1912 1.5875,1.5875 0 0 1 0.01137,-0.1912 1.5875,1.5875 0 0 1 0.03462,-0.18862 1.5875,1.5875 0 0 1 0.05736,-0.18294 1.5875,1.5875 0 0 1 0.07855,-0.17518 1.5875,1.5875 0 0 1 0.09922,-0.16381 1.5875,1.5875 0 0 1 0.118339,-0.1509 1.5875,1.5875 0 0 1 0.0031,-0.003 3.96875,3.96875 0 0 0 -0.137976,-0.003 z m 2.897498,1.25728 a 1.5875,1.5875 0 0 1 -0.03307,0.18087 1.5875,1.5875 0 0 1 -0.05736,0.18294 1.5875,1.5875 0 0 1 -0.07855,0.17518 1.5875,1.5875 0 0 1 -0.09922,0.16381 1.5875,1.5875 0 0 1 -0.118339,0.1509 1.5875,1.5875 0 0 1 -0.135392,0.13539 1.5875,1.5875 0 0 1 -0.150895,0.11834 1.5875,1.5875 0 0 1 -0.08372,0.0506 2.6458333,2.6458333 0 0 1 0.504879,1.5534 2.6458333,2.6458333 0 0 1 -0.264584,1.1498 1.5875,1.5875 0 0 1 0.03359,0.0119 1.5875,1.5875 0 0 1 0.05943,0.0238 1.5875,1.5875 0 0 1 0.05839,0.0264 1.5875,1.5875 0 0 1 0.05736,0.0284 1.5875,1.5875 0 0 1 0.05581,0.031 1.5875,1.5875 0 0 1 0.05478,0.0331 1.5875,1.5875 0 0 1 0.05323,0.0351 1.5875,1.5875 0 0 1 0.05168,0.0372 1.5875,1.5875 0 0 1 0.05064,0.0393 1.5875,1.5875 0 0 1 0.04857,0.0419 1.5875,1.5875 0 0 1 0.04703,0.0429 1.5875,1.5875 0 0 1 0.04547,0.0455 1.5875,1.5875 0 0 1 0.04289,0.047 1.5875,1.5875 0 0 1 0.04186,0.0486 1.5875,1.5875 0 0 1 0.03927,0.0506 1.5875,1.5875 0 0 1 0.03721,0.0517 1.5875,1.5875 0 0 1 0.03514,0.0532 1.5875,1.5875 0 0 1 0.03307,0.0548 1.5875,1.5875 0 0 1 0.03101,0.0558 1.5875,1.5875 0 0 1 0.02842,0.0574 1.5875,1.5875 0 0 1 0.02635,0.0584 1.5875,1.5875 0 0 1 0.02377,0.0594 1.5875,1.5875 0 0 1 0.01447,0.0403 3.96875,3.96875 0 0 0 0.61805,-2.12338 3.96875,3.96875 0 0 0 -1.071252,-2.71147 z m -6.072498,1.91772 a 1.3229166,1.3229166 0 0 0 -1.322916,1.32291 1.3229166,1.3229166 0 0 0 1.322916,1.32292 1.3229166,1.3229166 0 0 0 1.322917,-1.32292 1.3229166,1.3229166 0 0 0 -1.322917,-1.32291 z m 5.027084,2.11666 a 1.3229166,1.3229166 0 0 0 -1.322917,1.32292 1.3229166,1.3229166 0 0 0 1.322917,1.32292 1.3229166,1.3229166 0 0 0 1.322916,-1.32292 1.3229166,1.3229166 0 0 0 -1.322916,-1.32292 z m -3.91294,0.3328 a 1.5875,1.5875 0 0 1 -0.0615,0.0615 1.5875,1.5875 0 0 1 -0.150895,0.11834 1.5875,1.5875 0 0 1 -0.163814,0.0992 1.5875,1.5875 0 0 1 -0.175183,0.0786 1.5875,1.5875 0 0 1 -0.182935,0.0574 1.5875,1.5875 0 0 1 -0.188619,0.0346 1.5875,1.5875 0 0 1 -0.191203,0.0114 1.5875,1.5875 0 0 1 -0.187585,-0.0114 3.96875,3.96875 0 0 0 3.362585,1.86346 3.96875,3.96875 0 0 0 0.850594,-0.0946 1.5875,1.5875 0 0 1 -0.05116,-0.0403 1.5875,1.5875 0 0 1 -0.135393,-0.13539 1.5875,1.5875 0 0 1 -0.118339,-0.1509 1.5875,1.5875 0 0 1 -0.09922,-0.16381 1.5875,1.5875 0 0 1 -0.07855,-0.17518 1.5875,1.5875 0 0 1 -0.05736,-0.18294 1.5875,1.5875 0 0 1 -0.03462,-0.18862 1.5875,1.5875 0 0 1 -0.01137,-0.1912 1.5875,1.5875 0 0 1 10e-4,-0.0145 2.6458333,2.6458333 0 0 1 -0.265617,0.0145 2.6458333,2.6458333 0 0 1 -2.060856,-0.99012 z" />
      <path
         id="path3414"
         style="fill:#fefefe;stroke-width:0.547414;stroke-linecap:round;stroke-linejoin:round;fill-opacity:1"
         d="M 16.139583 294.08957 A 1.3229166 1.3229166 0 0 0 14.816666 295.41249 A 1.3229166 1.3229166 0 0 0 16.139583 296.73541 A 1.3229166 1.3229166 0 0 0 17.4625 295.41249 A 1.3229166 1.3229166 0 0 0 16.139583 294.08957 z M 14.816666 294.35416 A 3.96875 3.96875 0 0 0 10.951786 297.42477 A 1.5875 1.5875 0 0 1 11.07891 297.36793 A 1.5875 1.5875 0 0 1 11.261844 297.31057 A 1.5875 1.5875 0 0 1 11.450463 297.27594 A 1.5875 1.5875 0 0 1 11.641666 297.26457 A 1.5875 1.5875 0 0 1 11.705745 297.26561 A 1.5875 1.5875 0 0 1 11.769307 297.26974 A 1.5875 1.5875 0 0 1 11.832869 297.27594 A 1.5875 1.5875 0 0 1 11.896431 297.28524 A 1.5875 1.5875 0 0 1 11.958959 297.29661 A 1.5875 1.5875 0 0 1 12.021488 297.31057 A 1.5875 1.5875 0 0 1 12.0835 297.3271 A 1.5875 1.5875 0 0 1 12.144478 297.34622 A 1.5875 1.5875 0 0 1 12.204423 297.36793 A 1.5875 1.5875 0 0 1 12.26385 297.3917 A 1.5875 1.5875 0 0 1 12.322245 297.41805 A 1.5875 1.5875 0 0 1 12.33103 297.42219 A 2.6458333 2.6458333 0 0 1 14.578955 295.68793 A 1.5875 1.5875 0 0 1 14.563452 295.60369 A 1.5875 1.5875 0 0 1 14.552083 295.41249 A 1.5875 1.5875 0 0 1 14.563452 295.22129 A 1.5875 1.5875 0 0 1 14.598075 295.03267 A 1.5875 1.5875 0 0 1 14.655436 294.84973 A 1.5875 1.5875 0 0 1 14.733984 294.67455 A 1.5875 1.5875 0 0 1 14.833203 294.51074 A 1.5875 1.5875 0 0 1 14.951542 294.35984 A 1.5875 1.5875 0 0 1 14.954642 294.35674 A 3.96875 3.96875 0 0 0 14.816666 294.35416 z M 17.714164 295.61144 A 1.5875 1.5875 0 0 1 17.681091 295.79231 A 1.5875 1.5875 0 0 1 17.62373 295.97525 A 1.5875 1.5875 0 0 1 17.545182 296.15043 A 1.5875 1.5875 0 0 1 17.445963 296.31424 A 1.5875 1.5875 0 0 1 17.327624 296.46514 A 1.5875 1.5875 0 0 1 17.192232 296.60053 A 1.5875 1.5875 0 0 1 17.041337 296.71887 A 1.5875 1.5875 0 0 1 16.957621 296.76951 A 2.6458333 2.6458333 0 0 1 17.4625 298.32291 A 2.6458333 2.6458333 0 0 1 17.197916 299.47271 A 1.5875 1.5875 0 0 1 17.231506 299.48459 A 1.5875 1.5875 0 0 1 17.290934 299.50836 A 1.5875 1.5875 0 0 1 17.349328 299.53472 A 1.5875 1.5875 0 0 1 17.406689 299.56314 A 1.5875 1.5875 0 0 1 17.4625 299.59415 A 1.5875 1.5875 0 0 1 17.517277 299.62722 A 1.5875 1.5875 0 0 1 17.570503 299.66236 A 1.5875 1.5875 0 0 1 17.62218 299.69957 A 1.5875 1.5875 0 0 1 17.672823 299.73884 A 1.5875 1.5875 0 0 1 17.721398 299.7807 A 1.5875 1.5875 0 0 1 17.768424 299.82359 A 1.5875 1.5875 0 0 1 17.813899 299.86907 A 1.5875 1.5875 0 0 1 17.856791 299.91609 A 1.5875 1.5875 0 0 1 17.898649 299.96467 A 1.5875 1.5875 0 0 1 17.937923 300.01531 A 1.5875 1.5875 0 0 1 17.97513 300.06699 A 1.5875 1.5875 0 0 1 18.01027 300.12021 A 1.5875 1.5875 0 0 1 18.043343 300.17499 A 1.5875 1.5875 0 0 1 18.074348 300.2308 A 1.5875 1.5875 0 0 1 18.102771 300.28816 A 1.5875 1.5875 0 0 1 18.129126 300.34656 A 1.5875 1.5875 0 0 1 18.152897 300.40598 A 1.5875 1.5875 0 0 1 18.167366 300.44629 A 3.96875 3.96875 0 0 0 18.785416 298.32291 A 3.96875 3.96875 0 0 0 17.714164 295.61144 z M 11.641666 297.52916 A 1.3229166 1.3229166 0 0 0 10.31875 298.85207 A 1.3229166 1.3229166 0 0 0 11.641666 300.17499 A 1.3229166 1.3229166 0 0 0 12.964583 298.85207 A 1.3229166 1.3229166 0 0 0 11.641666 297.52916 z M 16.66875 299.64582 A 1.3229166 1.3229166 0 0 0 15.345833 300.96874 A 1.3229166 1.3229166 0 0 0 16.66875 302.29166 A 1.3229166 1.3229166 0 0 0 17.991666 300.96874 A 1.3229166 1.3229166 0 0 0 16.66875 299.64582 z M 12.75581 299.97862 A 1.5875 1.5875 0 0 1 12.694315 300.04011 A 1.5875 1.5875 0 0 1 12.54342 300.15845 A 1.5875 1.5875 0 0 1 12.379606 300.25767 A 1.5875 1.5875 0 0 1 12.204423 300.33622 A 1.5875 1.5875 0 0 1 12.021488 300.39358 A 1.5875 1.5875 0 0 1 11.832869 300.4282 A 1.5875 1.5875 0 0 1 11.641666 300.43957 A 1.5875 1.5875 0 0 1 11.454081 300.4282 A 3.96875 3.96875 0 0 0 14.816666 302.29166 A 3.96875 3.96875 0 0 0 15.66726 302.19709 A 1.5875 1.5875 0 0 1 15.616101 302.15678 A 1.5875 1.5875 0 0 1 15.480708 302.02139 A 1.5875 1.5875 0 0 1 15.362369 301.87049 A 1.5875 1.5875 0 0 1 15.263151 301.70668 A 1.5875 1.5875 0 0 1 15.184602 301.5315 A 1.5875 1.5875 0 0 1 15.127242 301.34856 A 1.5875 1.5875 0 0 1 15.092618 301.15994 A 1.5875 1.5875 0 0 1 15.08125 300.96874 A 1.5875 1.5875 0 0 1 15.082283 300.95427 A 2.6458333 2.6458333 0 0 1 14.816666 300.96874 A 2.6458333 2.6458333 0 0 1 12.75581 299.97862 z " />
    </g>
  </g>
</svg>
