<?xml version="1.0" encoding="UTF-8" standalone="no"?>
<!-- Created with Inkscape (http://www.inkscape.org/) -->

<svg
   xmlns:dc="http://purl.org/dc/elements/1.1/"
   xmlns:cc="http://creativecommons.org/ns#"
   xmlns:rdf="http://www.w3.org/1999/02/22-rdf-syntax-ns#"
   xmlns:svg="http://www.w3.org/2000/svg"
   xmlns="http://www.w3.org/2000/svg"
   xmlns:xlink="http://www.w3.org/1999/xlink"
   xmlns:sodipodi="http://sodipodi.sourceforge.net/DTD/sodipodi-0.dtd"
   xmlns:inkscape="http://www.inkscape.org/namespaces/inkscape"
   width="48"
   height="48"
   viewBox="0 0 12.7 12.7"
   version="1.1"
   id="svg8"
   inkscape:version="0.92.4 5da689c313, 2019-01-14"
   sodipodi:docname="ubuntu.svg">
  <defs
     id="defs2">
    <style
       id="current-color-scheme"
       type="text/css">
      .ColorScheme-Text {
        color:#122036;
      }
      </style>
    <linearGradient
       id="linearGradient4622"
       inkscape:collect="always">
      <stop
         id="stop4618"
         offset="0"
         style="stop-color:#ff6a3e;stop-opacity:1" />
      <stop
         id="stop4620"
         offset="1"
         style="stop-color:#ff9065;stop-opacity:1" />
    </linearGradient>
    <style
       type="text/css"
       id="current-color-scheme-3">
      .ColorScheme-Text {
        color:#122036;
      }
      </style>
    <style
       type="text/css"
       id="current-color-scheme-7">
      .ColorScheme-Text {
        color:#122036;
      }
      </style>
    <style
       type="text/css"
       id="current-color-scheme-5">
      .ColorScheme-Text {
        color:#122036;
      }
      </style>
    <style
       id="current-color-scheme-9"
       type="text/css">
      .ColorScheme-Text {
        color:#122036;
      }
      </style>
    <style
       id="current-color-scheme-1"
       type="text/css">
      .ColorScheme-Text {
        color:#122036;
      }
      </style>
    <style
       type="text/css"
       id="current-color-scheme-10">
      .ColorScheme-Text {
        color:#122036;
      }
      </style>
    <style
       id="current-color-scheme-6"
       type="text/css">
      .ColorScheme-Text {
        color:#122036;
      }
      </style>
    <style
       id="current-color-scheme-7-1"
       type="text/css">
      .ColorScheme-Text {
        color:#122036;
      }
      </style>
    <style
       id="current-color-scheme-5-2"
       type="text/css">
      .ColorScheme-Text {
        color:#122036;
      }
      </style>
    <linearGradient
       inkscape:collect="always"
       xlink:href="#linearGradient4622"
       id="linearGradient899"
       x1="0.79375023"
       y1="295.41251"
       x2="0.79375023"
       y2="284.82916"
       gradientUnits="userSpaceOnUse" />
  </defs>
  <sodipodi:namedview
     id="base"
     pagecolor="#ffffff"
     bordercolor="#666666"
     borderopacity="1.0"
     inkscape:pageopacity="0.0"
     inkscape:pageshadow="2"
     inkscape:zoom="11.2"
     inkscape:cx="42.280974"
     inkscape:cy="24.906976"
     inkscape:document-units="px"
     inkscape:current-layer="g833"
     showgrid="true"
     units="px"
     inkscape:showpageshadow="false"
     inkscape:snap-bbox="true"
     inkscape:bbox-paths="true"
     inkscape:bbox-nodes="true"
     inkscape:snap-bbox-edge-midpoints="true"
     inkscape:snap-bbox-midpoints="true"
     inkscape:object-paths="true"
     inkscape:snap-intersection-paths="true"
     inkscape:window-width="1870"
     inkscape:window-height="1141"
     inkscape:window-x="50"
     inkscape:window-y="30"
     inkscape:window-maximized="1">
    <inkscape:grid
       type="xygrid"
       id="grid815" />
  </sodipodi:namedview>
  <metadata
     id="metadata5">
    <rdf:RDF>
      <cc:Work
         rdf:about="">
        <dc:format>image/svg+xml</dc:format>
        <dc:type
           rdf:resource="http://purl.org/dc/dcmitype/StillImage" />
        <dc:title />
      </cc:Work>
    </rdf:RDF>
  </metadata>
  <g
     inkscape:label="Capa 1"
     inkscape:groupmode="layer"
     id="layer1"
     transform="translate(0,-284.29999)">
    <g
       id="g833"
       transform="translate(-8.4666662,-7.6729165)">
      <g
         transform="translate(14.022916,8.2020815)"
         id="g8345">
        <path
           inkscape:connector-curvature="0"
           id="rect4544"
           d="m 0.79374387,284.3 h 1.25e-5 c 3.22473533,0 5.82082733,2.59609 5.82082733,5.82083 0,3.22473 -2.596092,5.82082 -5.82082733,5.82082 h -1.25e-5 c -3.22474157,0 -5.82082717,-2.59609 -5.82082717,-5.82082 0,-3.22474 2.5960856,-5.82083 5.82082717,-5.82083 z"
           style="opacity:1;fill:#dd4d25;fill-opacity:0.96078432;stroke:none;stroke-width:0.07937501;stroke-miterlimit:4;stroke-dasharray:none;stroke-opacity:1" />
        <path
           inkscape:connector-curvature="0"
           id="rect4544-5"
           d="m 0.79374387,284.56457 h 6.1e-6 c 3.07816233,0 5.55624773,2.47809 5.55624773,5.55625 0,3.07816 -2.4780854,5.55625 -5.55624773,5.55625 h -6.1e-6 c -3.07816217,0 -5.55624787,-2.47809 -5.55624787,-5.55625 0,-3.07816 2.4780857,-5.55625 5.55624787,-5.55625 z"
           style="opacity:1;fill:url(#linearGradient899);fill-opacity:1;stroke:none;stroke-width:0.07937501;stroke-miterlimit:4;stroke-dasharray:none;stroke-opacity:1" />
      </g>
      <path
         inkscape:connector-curvature="0"
         style="fill:#dd4d25;fill-opacity:0.96078432;stroke:none;stroke-width:0.4913691;stroke-linecap:round;stroke-linejoin:round;stroke-miterlimit:4;stroke-dasharray:none;stroke-opacity:1"
         d="m 16.139583,294.08957 c -0.439737,0 -0.79375,0.35401 -0.79375,0.79375 0,0.43974 0.354013,0.79375 0.79375,0.79375 0.439738,0 0.79375,-0.35401 0.79375,-0.79375 0,-0.43974 -0.354012,-0.79375 -0.79375,-0.79375 z m -1.240235,1.05885 v 5.3e-4 a 3.4395833,3.4395833 0 0 0 -1.955952,0.55397 l 0.720369,1.10949 a 2.1166666,2.1166666 0 0 1 0.182934,-0.10645 2.1166666,2.1166666 0 0 1 0.192754,-0.0873 2.1166666,2.1166666 0 0 1 0.200504,-0.0677 2.1166666,2.1166666 0 0 1 0.206189,-0.0475 2.1166666,2.1166666 0 0 1 0.209806,-0.0264 2.1166666,2.1166666 0 0 1 0.211357,-0.006 2.1166666,2.1166666 0 0 1 0.126607,0.006 2.1166666,2.1166666 0 0 1 0.209807,0.0284 2.1166666,2.1166666 0 0 1 0.205672,0.0491 2.1166666,2.1166666 0 0 1 0.199988,0.0693 2.1166666,2.1166666 0 0 1 0.116272,0.0512 2.1166666,2.1166666 0 0 1 0.186552,0.10025 2.1166666,2.1166666 0 0 1 0.175183,0.11834 2.1166666,2.1166666 0 0 1 0.16278,0.13539 2.1166666,2.1166666 0 0 1 0.148312,0.1509 2.1166666,2.1166666 0 0 1 0.132292,0.16485 2.1166666,2.1166666 0 0 1 0.115755,0.17776 2.1166666,2.1166666 0 0 1 0.09663,0.18759 2.1166666,2.1166666 0 0 1 0.07803,0.19689 2.1166666,2.1166666 0 0 1 0.05788,0.2036 l 1.28881,-0.29714 a 3.4395833,3.4395833 0 0 0 -1.256254,-1.95182 c -0.0094,0.0102 -0.01341,0.0248 -0.02325,0.0346 -0.09565,0.0956 -0.209195,0.17346 -0.335897,0.22686 -0.126702,0.0534 -0.266316,0.0827 -0.412895,0.0827 -0.146579,0 -0.286193,-0.0293 -0.412895,-0.0827 -0.126703,-0.0534 -0.24025,-0.13123 -0.335897,-0.22688 -0.09565,-0.0956 -0.173446,-0.20918 -0.226859,-0.33589 -0.05195,-0.12322 -0.07906,-0.25935 -0.08062,-0.40153 a 3.4395833,3.4395833 0 0 0 -0.183968,-0.0103 z m -2.556949,1.04954 a 3.4395833,3.4395833 0 0 0 -0.883667,1.66502 c 0.0211,0.007 0.0462,0.005 0.06666,0.0134 0.126702,0.0534 0.240249,0.1312 0.335896,0.22685 0.09565,0.0956 0.173447,0.2092 0.22686,0.3359 0.05341,0.12671 0.08268,0.26631 0.08268,0.4129 0,0.14657 -0.02927,0.28619 -0.08268,0.41289 -0.05341,0.1267 -0.131213,0.24025 -0.22686,0.3359 -0.07667,0.0766 -0.171892,0.13166 -0.269234,0.1819 a 3.4395833,3.4395833 0 0 0 1.013891,1.4397 l 0.850078,-1.01337 a 2.1166666,2.1166666 0 0 1 -0.03256,-0.0279 2.1166666,2.1166666 0 0 1 -0.152446,-0.14727 2.1166666,2.1166666 0 0 1 -0.136426,-0.16175 2.1166666,2.1166666 0 0 1 -0.119889,-0.17415 2.1166666,2.1166666 0 0 1 -0.101802,-0.18552 2.1166666,2.1166666 0 0 1 -0.08268,-0.19482 2.1166666,2.1166666 0 0 1 -0.06305,-0.20205 2.1166666,2.1166666 0 0 1 -0.04237,-0.20723 2.1166666,2.1166666 0 0 1 -0.0217,-0.21032 2.1166666,2.1166666 0 0 1 -0.0016,-0.0424 2.1166666,2.1166666 0 0 1 0.0036,-0.21188 2.1166666,2.1166666 0 0 1 0.02481,-0.2098 2.1166666,2.1166666 0 0 1 0.04599,-0.20671 2.1166666,2.1166666 0 0 1 0.06615,-0.20102 2.1166666,2.1166666 0 0 1 0.08578,-0.19327 2.1166666,2.1166666 0 0 1 0.104386,-0.18397 2.1166666,2.1166666 0 0 1 0.12299,-0.1726 2.1166666,2.1166666 0 0 1 0.13901,-0.15916 z m -1.494483,1.86036 c -0.439737,0 -0.79375,0.35401 -0.79375,0.79375 0,0.43973 0.354013,0.79375 0.79375,0.79375 0.439738,0 0.79375,-0.35402 0.79375,-0.79375 0,-0.43974 -0.354012,-0.79375 -0.79375,-0.79375 z m 7.400065,0.28938 -1.319816,0.092 a 2.1166666,2.1166666 0 0 1 0.0052,0.13694 2.1166666,2.1166666 0 0 1 -0.0093,0.21136 2.1166666,2.1166666 0 0 1 -0.03049,0.20929 2.1166666,2.1166666 0 0 1 -0.05168,0.20515 2.1166666,2.1166666 0 0 1 -0.07131,0.19896 2.1166666,2.1166666 0 0 1 -0.09095,0.1912 2.1166666,2.1166666 0 0 1 -0.109555,0.18087 2.1166666,2.1166666 0 0 1 -0.12764,0.16898 2.1166666,2.1166666 0 0 1 -0.143144,0.15555 2.1166666,2.1166666 0 0 1 -0.15813,0.14056 2.1166666,2.1166666 0 0 1 -0.171566,0.12402 2.1166666,2.1166666 0 0 1 -0.117305,0.0708 2.1166666,2.1166666 0 0 1 -0.189136,0.094 2.1166666,2.1166666 0 0 1 -0.197921,0.0749 2.1166666,2.1166666 0 0 1 -0.204638,0.0548 2.1166666,2.1166666 0 0 1 -0.208773,0.0341 2.1166666,2.1166666 0 0 1 -0.211356,0.0129 2.1166666,2.1166666 0 0 1 -0.211356,-0.008 2.1166666,2.1166666 0 0 1 -0.20929,-0.0289 2.1166666,2.1166666 0 0 1 -0.205672,-0.0501 2.1166666,2.1166666 0 0 1 -0.199471,-0.0703 2.1166666,2.1166666 0 0 1 -0.191719,-0.0899 l -0.621151,1.16788 a 3.4395833,3.4395833 0 0 0 2.986381,0.11679 c -0.01935,-0.0803 -0.04858,-0.157 -0.04858,-0.24339 0,-0.14658 0.02927,-0.28619 0.08268,-0.4129 0.05341,-0.1267 0.131213,-0.24025 0.22686,-0.33589 0.09565,-0.0957 0.209194,-0.17345 0.335896,-0.22686 0.126703,-0.0534 0.266316,-0.0827 0.412895,-0.0827 0.146579,0 0.286192,0.0293 0.412895,0.0827 0.01232,0.005 0.02048,0.0166 0.03256,0.0222 a 3.4395833,3.4395833 0 0 0 0.604614,-2.19677 z m -0.785481,2.62103 c -0.439738,0 -0.79375,0.35401 -0.79375,0.79375 0,0.43974 0.354012,0.79375 0.79375,0.79375 0.439737,0 0.79375,-0.35401 0.79375,-0.79375 0,-0.43974 -0.354013,-0.79375 -0.79375,-0.79375 z"
         id="path826-3" />
      <path
         style="fill:#fefefe;fill-opacity:1;stroke:none;stroke-width:1.85714304;stroke-linecap:round;stroke-linejoin:round;stroke-miterlimit:4;stroke-dasharray:none;stroke-opacity:1"
         d="M 29 7 C 27.338002 7 26 8.3379906 26 10 C 26 11.662009 27.338002 13 29 13 C 30.662002 13 32 11.662009 32 10 C 32 8.3379906 30.662002 7 29 7 z M 24.3125 11.001953 L 24.3125 11.003906 A 13 13 0 0 0 16.919922 13.097656 L 19.642578 17.291016 A 7.9999997 7.9999997 0 0 1 20.333984 16.888672 A 7.9999997 7.9999997 0 0 1 21.0625 16.558594 A 7.9999997 7.9999997 0 0 1 21.820312 16.302734 A 7.9999997 7.9999997 0 0 1 22.599609 16.123047 A 7.9999997 7.9999997 0 0 1 23.392578 16.023438 A 7.9999997 7.9999997 0 0 1 24.191406 16.001953 A 7.9999997 7.9999997 0 0 1 24.669922 16.023438 A 7.9999997 7.9999997 0 0 1 25.462891 16.130859 A 7.9999997 7.9999997 0 0 1 26.240234 16.316406 A 7.9999997 7.9999997 0 0 1 26.996094 16.578125 A 7.9999997 7.9999997 0 0 1 27.435547 16.771484 A 7.9999997 7.9999997 0 0 1 28.140625 17.150391 A 7.9999997 7.9999997 0 0 1 28.802734 17.597656 A 7.9999997 7.9999997 0 0 1 29.417969 18.109375 A 7.9999997 7.9999997 0 0 1 29.978516 18.679688 A 7.9999997 7.9999997 0 0 1 30.478516 19.302734 A 7.9999997 7.9999997 0 0 1 30.916016 19.974609 A 7.9999997 7.9999997 0 0 1 31.28125 20.683594 A 7.9999997 7.9999997 0 0 1 31.576172 21.427734 A 7.9999997 7.9999997 0 0 1 31.794922 22.197266 L 36.666016 21.074219 A 13 13 0 0 0 31.917969 13.697266 C 31.882441 13.735817 31.867269 13.791086 31.830078 13.828125 C 31.468566 14.189448 31.039421 14.48372 30.560547 14.685547 C 30.081673 14.887374 29.553999 14.998047 29 14.998047 C 28.446001 14.998047 27.918327 14.887374 27.439453 14.685547 C 26.960576 14.48372 26.531422 14.189637 26.169922 13.828125 C 25.80841 13.466802 25.514376 13.037498 25.3125 12.558594 C 25.116154 12.09288 25.013709 11.578389 25.007812 11.041016 A 13 13 0 0 0 24.3125 11.001953 z M 14.648438 14.96875 A 13 13 0 0 0 11.308594 21.261719 C 11.388342 21.288175 11.483218 21.280752 11.560547 21.3125 C 12.039424 21.514327 12.468578 21.80841 12.830078 22.169922 C 13.19159 22.531245 13.485624 22.960587 13.6875 23.439453 C 13.889365 23.918357 14 24.445959 14 25 C 14 25.553965 13.889365 26.081681 13.6875 26.560547 C 13.485635 27.039413 13.191579 27.468566 12.830078 27.830078 C 12.540302 28.11959 12.180407 28.327695 11.8125 28.517578 A 13 13 0 0 0 15.644531 33.958984 L 18.857422 30.128906 A 7.9999997 7.9999997 0 0 1 18.734375 30.023438 A 7.9999997 7.9999997 0 0 1 18.158203 29.466797 A 7.9999997 7.9999997 0 0 1 17.642578 28.855469 A 7.9999997 7.9999997 0 0 1 17.189453 28.197266 A 7.9999997 7.9999997 0 0 1 16.804688 27.496094 A 7.9999997 7.9999997 0 0 1 16.492188 26.759766 A 7.9999997 7.9999997 0 0 1 16.253906 25.996094 A 7.9999997 7.9999997 0 0 1 16.09375 25.212891 A 7.9999997 7.9999997 0 0 1 16.011719 24.417969 A 7.9999997 7.9999997 0 0 1 16.005859 24.257812 A 7.9999997 7.9999997 0 0 1 16.019531 23.457031 A 7.9999997 7.9999997 0 0 1 16.113281 22.664062 A 7.9999997 7.9999997 0 0 1 16.287109 21.882812 A 7.9999997 7.9999997 0 0 1 16.537109 21.123047 A 7.9999997 7.9999997 0 0 1 16.861328 20.392578 A 7.9999997 7.9999997 0 0 1 17.255859 19.697266 A 7.9999997 7.9999997 0 0 1 17.720703 19.044922 A 7.9999997 7.9999997 0 0 1 18.246094 18.443359 L 14.648438 14.96875 z M 9 22 C 7.3380019 22 6 23.337991 6 25 C 6 26.661972 7.3380019 28 9 28 C 10.662002 28 12 26.661972 12 25 C 12 23.337991 10.662002 22 9 22 z M 36.96875 23.09375 L 31.980469 23.441406 A 7.9999997 7.9999997 0 0 1 32 23.958984 A 7.9999997 7.9999997 0 0 1 31.964844 24.757812 A 7.9999997 7.9999997 0 0 1 31.849609 25.548828 A 7.9999997 7.9999997 0 0 1 31.654297 26.324219 A 7.9999997 7.9999997 0 0 1 31.384766 27.076172 A 7.9999997 7.9999997 0 0 1 31.041016 27.798828 A 7.9999997 7.9999997 0 0 1 30.626953 28.482422 A 7.9999997 7.9999997 0 0 1 30.144531 29.121094 A 7.9999997 7.9999997 0 0 1 29.603516 29.708984 A 7.9999997 7.9999997 0 0 1 29.005859 30.240234 A 7.9999997 7.9999997 0 0 1 28.357422 30.708984 A 7.9999997 7.9999997 0 0 1 27.914062 30.976562 A 7.9999997 7.9999997 0 0 1 27.199219 31.332031 A 7.9999997 7.9999997 0 0 1 26.451172 31.615234 A 7.9999997 7.9999997 0 0 1 25.677734 31.822266 A 7.9999997 7.9999997 0 0 1 24.888672 31.951172 A 7.9999997 7.9999997 0 0 1 24.089844 32 A 7.9999997 7.9999997 0 0 1 23.291016 31.970703 A 7.9999997 7.9999997 0 0 1 22.5 31.861328 A 7.9999997 7.9999997 0 0 1 21.722656 31.671875 A 7.9999997 7.9999997 0 0 1 20.96875 31.40625 A 7.9999997 7.9999997 0 0 1 20.244141 31.066406 L 17.896484 35.480469 A 13 13 0 0 0 29.183594 35.921875 C 29.11046 35.618379 29 35.328467 29 35.001953 C 29 34.44795 29.110635 33.92031 29.3125 33.441406 C 29.514365 32.96254 29.808421 32.533349 30.169922 32.171875 C 30.531434 31.810174 30.960576 31.516318 31.439453 31.314453 C 31.918327 31.112626 32.446001 31.001953 33 31.001953 C 33.553999 31.001953 34.081669 31.112626 34.560547 31.314453 C 34.607111 31.333351 34.637937 31.377272 34.683594 31.398438 A 13 13 0 0 0 36.96875 23.095703 L 36.96875 23.09375 z M 34 33 C 32.337998 33 31 34.337991 31 36 C 31 37.662009 32.337998 39 34 39 C 35.661998 39 37 37.662009 37 36 C 37 34.337991 35.661998 33 34 33 z "
         transform="matrix(0.26458333,0,0,0.26458333,8.4666662,291.97291)"
         id="path826" />
    </g>
  </g>
</svg>
