<?xml version="1.0" encoding="UTF-8" standalone="no"?>
<!-- Created with Inkscape (http://www.inkscape.org/) -->

<svg
   xmlns:dc="http://purl.org/dc/elements/1.1/"
   xmlns:cc="http://creativecommons.org/ns#"
   xmlns:rdf="http://www.w3.org/1999/02/22-rdf-syntax-ns#"
   xmlns:svg="http://www.w3.org/2000/svg"
   xmlns="http://www.w3.org/2000/svg"
   xmlns:xlink="http://www.w3.org/1999/xlink"
   xmlns:sodipodi="http://sodipodi.sourceforge.net/DTD/sodipodi-0.dtd"
   xmlns:inkscape="http://www.inkscape.org/namespaces/inkscape"
   width="48"
   height="48"
   viewBox="0 0 48 48"
   version="1.1"
   id="svg8"
   inkscape:version="0.92.1 r"
   sodipodi:docname="user-trash.svg">
  <title
     id="title7895">Antu icon Theme</title>
  <defs
     id="defs2">
    <linearGradient
       gradientTransform="translate(-72,258.64999)"
       inkscape:collect="always"
       xlink:href="#linearGradient5645"
       id="linearGradient4728"
       x1="24"
       y1="44"
       x2="24"
       y2="18"
       gradientUnits="userSpaceOnUse" />
    <linearGradient
       id="linearGradient5645"
       inkscape:collect="always">
      <stop
         id="stop5641"
         offset="0"
         style="stop-color:#505d66;stop-opacity:1" />
      <stop
         id="stop5643"
         offset="1"
         style="stop-color:#607280;stop-opacity:1" />
    </linearGradient>
    <linearGradient
       gradientTransform="matrix(0.76363635,0,0,0.76363635,-72.436363,66.42636)"
       inkscape:collect="always"
       xlink:href="#linearGradient4792"
       id="linearGradient4776"
       x1="41.325539"
       y1="301.42435"
       x2="41.166668"
       y2="289.69763"
       gradientUnits="userSpaceOnUse" />
    <linearGradient
       id="linearGradient4792"
       inkscape:collect="always">
      <stop
         id="stop4788"
         offset="0"
         style="stop-color:#455466;stop-opacity:0.5" />
      <stop
         id="stop4790"
         offset="1"
         style="stop-color:#455466;stop-opacity:0.99293292" />
    </linearGradient>
    <linearGradient
       gradientTransform="matrix(0.76363635,0,0,0.76363635,-72.436363,66.42636)"
       inkscape:collect="always"
       xlink:href="#linearGradient4774"
       id="linearGradient4778"
       x1="32.043125"
       y1="300.96136"
       x2="32"
       y2="289.69763"
       gradientUnits="userSpaceOnUse" />
    <linearGradient
       inkscape:collect="always"
       id="linearGradient4774">
      <stop
         style="stop-color:#455466;stop-opacity:0.5"
         offset="0"
         id="stop4770" />
      <stop
         style="stop-color:#455466;stop-opacity:0.91872793"
         offset="1"
         id="stop4772" />
    </linearGradient>
    <linearGradient
       gradientTransform="matrix(0.76363635,0,0,0.76363635,-72.436363,66.42636)"
       inkscape:collect="always"
       xlink:href="#linearGradient4786"
       id="linearGradient4780"
       x1="22.833334"
       y1="301.48334"
       x2="22.833334"
       y2="289.69763"
       gradientUnits="userSpaceOnUse" />
    <linearGradient
       id="linearGradient4786"
       inkscape:collect="always">
      <stop
         id="stop4782"
         offset="0"
         style="stop-color:#455466;stop-opacity:0.5" />
      <stop
         id="stop4784"
         offset="1"
         style="stop-color:#455466;stop-opacity:1" />
    </linearGradient>
    <linearGradient
       gradientTransform="translate(-72,258.64999)"
       inkscape:collect="always"
       xlink:href="#linearGradient5680"
       id="linearGradient4745"
       x1="24"
       y1="10"
       x2="24"
       y2="5"
       gradientUnits="userSpaceOnUse" />
    <linearGradient
       inkscape:collect="always"
       id="linearGradient5680">
      <stop
         style="stop-color:#566570;stop-opacity:1"
         offset="0"
         id="stop5676" />
      <stop
         style="stop-color:#607280;stop-opacity:1"
         offset="1"
         id="stop5678" />
    </linearGradient>
    <linearGradient
       gradientTransform="translate(-72,258.64999)"
       inkscape:collect="always"
       xlink:href="#linearGradient5680"
       id="linearGradient4737"
       x1="22"
       y1="16"
       x2="22"
       y2="11"
       gradientUnits="userSpaceOnUse" />
  </defs>
  <sodipodi:namedview
     id="base"
     pagecolor="#ffffff"
     bordercolor="#666666"
     borderopacity="1.0"
     inkscape:pageopacity="0.0"
     inkscape:pageshadow="2"
     inkscape:zoom="5.6"
     inkscape:cx="-19.379322"
     inkscape:cy="16.902746"
     inkscape:document-units="px"
     inkscape:current-layer="layer1"
     showgrid="true"
     units="px"
     inkscape:window-width="1366"
     inkscape:window-height="697"
     inkscape:window-x="0"
     inkscape:window-y="0"
     inkscape:window-maximized="1"
     objecttolerance="10"
     gridtolerance="10"
     guidetolerance="10">
    <inkscape:grid
       type="xygrid"
       id="grid7897"
       empspacing="4" />
  </sodipodi:namedview>
  <metadata
     id="metadata5">
    <rdf:RDF>
      <cc:Work
         rdf:about="">
        <dc:format>image/svg+xml</dc:format>
        <dc:type
           rdf:resource="http://purl.org/dc/dcmitype/StillImage" />
        <dc:title>Antu icon Theme</dc:title>
      </cc:Work>
    </rdf:RDF>
  </metadata>
  <g
     inkscape:label="Capa 1"
     inkscape:groupmode="layer"
     id="layer1"
     transform="translate(0,-266.64999)">
    <g
       id="g6116"
       transform="translate(72,8)">
      <path
         id="rect4627"
         d="m -52,262.64999 c -1.661979,0 -3,1.33803 -3,3 v 3 h -6 c -1.662,0 -3,1.33803 -3,3 v 1 3 h 2 v 14 10 c 0,2.21601 1.783987,4 4,4 h 20 c 2.216013,0 4,-1.78399 4,-4 v -22 -2 h 2 v -3 -1 c 0,-1.66197 -1.337999,-3 -3,-3 h -6 v -3 c 0,-1.66197 -1.338021,-3 -3,-3 z m 1,4 h 6 v 2 h -6 z"
         style="opacity:1;fill:#455466;fill-opacity:1;stroke:none;stroke-width:1.99999988;stroke-linecap:round;stroke-linejoin:round;stroke-miterlimit:4;stroke-dasharray:none;stroke-opacity:1"
         inkscape:connector-curvature="0" />
      <path
         id="rect4639"
         d="m -61,275.64999 v 4 7 13 c 0,1.66198 1.338021,3 3,3 h 20 c 1.661979,0 3,-1.33802 3,-3 v -13 -7 -4 z"
         style="opacity:1;fill:url(#linearGradient4728);fill-opacity:1;stroke:none;stroke-width:1.99999988;stroke-linecap:round;stroke-linejoin:round;stroke-miterlimit:4;stroke-dasharray:none;stroke-opacity:1"
         inkscape:connector-curvature="0" />
      <path
         id="rect4643"
         d="m -61,269.64999 c -1.107975,0 -2,0.89202 -2,2 v 1 2 h 2 26 2 v -2 -1 c 0,-1.10798 -0.892025,-2 -2,-2 z"
         style="opacity:1;fill:url(#linearGradient4737);fill-opacity:1;stroke:none;stroke-width:1.99999988;stroke-linecap:round;stroke-linejoin:round;stroke-miterlimit:4;stroke-dasharray:none;stroke-opacity:1"
         inkscape:connector-curvature="0" />
      <path
         id="rect4647"
         d="m -52,263.64999 c -1.108026,0 -2,0.89197 -2,2 v 1 2 h 2 v -3 h 8 v 3 h 2 v -2 -1 c 0,-1.10803 -0.891974,-2 -2,-2 z"
         style="opacity:1;fill:url(#linearGradient4745);fill-opacity:1;stroke:none;stroke-width:1.99999988;stroke-linecap:round;stroke-linejoin:round;stroke-miterlimit:4;stroke-dasharray:none;stroke-opacity:1"
         inkscape:connector-curvature="0" />
      <path
         id="rect4747"
         d="m -55,279.65 c 1.108,0 1.999999,0.892 1.999999,1.99999 V 295.65 c 0,1.108 -0.891999,1.99999 -1.999999,1.99999 -1.108001,0 -2,-0.89199 -2,-1.99999 v -14.00001 c 0,-1.10799 0.891999,-1.99999 2,-1.99999 z"
         style="opacity:1;fill:url(#linearGradient4780);fill-opacity:1;stroke:none;stroke-width:2;stroke-linecap:round;stroke-linejoin:round;stroke-miterlimit:4;stroke-dasharray:none;stroke-opacity:1"
         inkscape:connector-curvature="0" />
      <path
         id="rect4747-8"
         d="m -41,279.65 c 1.108,0 2,0.892 2,1.99999 V 295.65 c 0,1.108 -0.892,1.99999 -2,1.99999 -1.108,0 -2,-0.89199 -2,-1.99999 v -14.00001 c 0,-1.10799 0.892,-1.99999 2,-1.99999 z"
         style="opacity:1;fill:url(#linearGradient4776);fill-opacity:1;stroke:none;stroke-width:2;stroke-linecap:round;stroke-linejoin:round;stroke-miterlimit:4;stroke-dasharray:none;stroke-opacity:1"
         inkscape:connector-curvature="0" />
      <path
         id="rect4747-7"
         d="m -48.000001,279.65 c 1.108,0 2,0.892 2,1.99999 V 295.65 c 0,1.108 -0.892,1.99999 -2,1.99999 -1.108,0 -2,-0.89199 -2,-1.99999 v -14.00001 c 0,-1.10799 0.892,-1.99999 2,-1.99999 z"
         style="opacity:1;fill:url(#linearGradient4778);fill-opacity:1;stroke:none;stroke-width:2;stroke-linecap:round;stroke-linejoin:round;stroke-miterlimit:4;stroke-dasharray:none;stroke-opacity:1"
         inkscape:connector-curvature="0" />
    </g>
  </g>
</svg>
