<?xml version="1.0" encoding="UTF-8" standalone="no"?>
<!-- Created with Inkscape (http://www.inkscape.org/) -->

<svg
   xmlns:dc="http://purl.org/dc/elements/1.1/"
   xmlns:cc="http://creativecommons.org/ns#"
   xmlns:rdf="http://www.w3.org/1999/02/22-rdf-syntax-ns#"
   xmlns:svg="http://www.w3.org/2000/svg"
   xmlns="http://www.w3.org/2000/svg"
   xmlns:xlink="http://www.w3.org/1999/xlink"
   xmlns:sodipodi="http://sodipodi.sourceforge.net/DTD/sodipodi-0.dtd"
   xmlns:inkscape="http://www.inkscape.org/namespaces/inkscape"
   width="48"
   height="48"
   viewBox="0 0 48 48"
   version="1.1"
   id="svg8"
   inkscape:version="0.92.1 r"
   sodipodi:docname="user-trash-full.svg">
  <title
     id="title7895">Antu icon Theme</title>
  <defs
     id="defs2">
    <linearGradient
       gradientUnits="userSpaceOnUse"
       y2="18"
       x2="24"
       y1="44"
       x1="24"
       id="linearGradient4728-3"
       xlink:href="#linearGradient4569"
       inkscape:collect="always"
       gradientTransform="translate(-34,275.14997)" />
    <linearGradient
       id="linearGradient4569"
       inkscape:collect="always">
      <stop
         id="stop4565"
         offset="0"
         style="stop-color:#cdcdcd;stop-opacity:1" />
      <stop
         id="stop4567"
         offset="1"
         style="stop-color:#e5e5e5;stop-opacity:1" />
    </linearGradient>
    <linearGradient
       inkscape:collect="always"
       xlink:href="#linearGradient4513"
       id="linearGradient4547"
       x1="24"
       y1="303.64999"
       x2="24"
       y2="296.64999"
       gradientUnits="userSpaceOnUse"
       gradientTransform="translate(-34,8.4999961)" />
    <linearGradient
       inkscape:collect="always"
       id="linearGradient4513">
      <stop
         style="stop-color:#a6a6a6;stop-opacity:0.3019608"
         offset="0"
         id="stop4509" />
      <stop
         style="stop-color:#a6a6a6;stop-opacity:1"
         offset="1"
         id="stop4511" />
    </linearGradient>
  </defs>
  <sodipodi:namedview
     id="base"
     pagecolor="#ffffff"
     bordercolor="#666666"
     borderopacity="1.0"
     inkscape:pageopacity="0.0"
     inkscape:pageshadow="2"
     inkscape:zoom="7.919596"
     inkscape:cx="-5.8940867"
     inkscape:cy="24.105353"
     inkscape:document-units="px"
     inkscape:current-layer="g7689"
     showgrid="true"
     units="px"
     inkscape:window-width="1366"
     inkscape:window-height="697"
     inkscape:window-x="0"
     inkscape:window-y="0"
     inkscape:window-maximized="1"
     objecttolerance="10"
     gridtolerance="10"
     guidetolerance="10">
    <inkscape:grid
       type="xygrid"
       id="grid7897"
       empspacing="4" />
  </sodipodi:namedview>
  <metadata
     id="metadata5">
    <rdf:RDF>
      <cc:Work
         rdf:about="">
        <dc:format>image/svg+xml</dc:format>
        <dc:type
           rdf:resource="http://purl.org/dc/dcmitype/StillImage" />
        <dc:title>Antu icon Theme</dc:title>
      </cc:Work>
    </rdf:RDF>
  </metadata>
  <g
     inkscape:label="Capa 1"
     inkscape:groupmode="layer"
     id="layer1"
     transform="translate(0,-266.64999)">
    <g
       id="g7689"
       transform="translate(34,-8.5)">
      <path
         inkscape:connector-curvature="0"
         id="rect4936"
         d="m -17.000003,278.15001 h 9.999999 c 0.554003,0 1.000003,0.44602 1.000003,1.00003 v 11.99999 c 0,0.55401 -0.446,0.99999 -1.000003,0.99999 h -9.999999 c -0.553999,0 -0.999999,-0.44598 -0.999999,-0.99999 v -11.99999 c 0,-0.55401 0.446,-1.00003 0.999999,-1.00003 z"
         style="opacity:1;fill:#1774cc;fill-opacity:1;stroke:none;stroke-width:0.30000004;stroke-miterlimit:4;stroke-dasharray:none;stroke-opacity:1" />
      <path
         inkscape:connector-curvature="0"
         id="rect4938"
         d="M -17.000003,279.15004 H -7 v 11.99999 h -10.000003 z"
         style="opacity:1;fill:#2fb7fb;fill-opacity:1;stroke:none;stroke-width:0.30000004;stroke-miterlimit:4;stroke-dasharray:none;stroke-opacity:1" />
      <path
         inkscape:connector-curvature="0"
         id="rect4944"
         d="M -8.000056,280.15006 H 2.000049 c 0.553973,0 0.99995,0.44598 0.99995,0.99995 v 10.0001 c 0,0.55397 -0.445977,0.99995 -0.99995,0.99995 H -8.000056 c -0.553969,0 -0.999946,-0.44598 -0.999946,-0.99995 v -10.0001 c 0,-0.55397 0.445977,-0.99995 0.999946,-0.99995 z"
         style="opacity:1;fill:#cca300;fill-opacity:1;stroke:none;stroke-width:0.30000004;stroke-miterlimit:4;stroke-dasharray:none;stroke-opacity:1" />
      <path
         inkscape:connector-curvature="0"
         id="rect4932"
         d="m -22,284.15001 h 9.999998 c 0.554,0 0.999999,0.44598 0.999999,0.99999 v 6 c 0,0.554 -0.445999,0.99998 -0.999999,0.99998 H -22 c -0.554004,0 -1.000003,-0.44598 -1.000003,-0.99998 v -6 c 0,-0.55401 0.445999,-0.99999 1.000003,-0.99999 z"
         style="opacity:1;fill:#63cc21;fill-opacity:1;stroke:none;stroke-width:0.30000004;stroke-miterlimit:4;stroke-dasharray:none;stroke-opacity:1" />
      <path
         inkscape:connector-curvature="0"
         id="rect4934"
         d="m -22,285.15 h 9.999998 v 6 H -22 Z"
         style="opacity:1;fill:#9ae81f;fill-opacity:1;stroke:none;stroke-width:0.30000004;stroke-miterlimit:4;stroke-dasharray:none;stroke-opacity:1" />
      <path
         inkscape:connector-curvature="0"
         id="rect4946"
         d="m -8.000003,281.14993 h 9.999999 v 10.00003 h -9.999999 z"
         style="opacity:1;fill:#ffe000;fill-opacity:1;stroke:none;stroke-width:0.30000004;stroke-miterlimit:4;stroke-dasharray:none;stroke-opacity:1" />
      <path
         inkscape:connector-curvature="0"
         id="rect4940"
         d="m -9.000017,285.15 h 7.000029 c 0.553992,0 0.999984,0.44602 0.999984,0.99998 v 5.00005 c 0,0.55397 -0.445992,0.99999 -0.999984,0.99999 h -7.000029 c -0.553991,0 -0.999987,-0.44602 -0.999987,-0.99999 v -5.00005 c 0,-0.55396 0.445996,-0.99998 0.999987,-0.99998 z"
         style="opacity:1;fill:#cc3333;fill-opacity:1;stroke:none;stroke-width:0.30000004;stroke-miterlimit:4;stroke-dasharray:none;stroke-opacity:1" />
      <path
         inkscape:connector-curvature="0"
         id="rect4942"
         d="m -9.000002,286.15002 h 6.999999 v 5.00001 h -6.999999 z"
         style="opacity:1;fill:#f64e4e;fill-opacity:1;stroke:none;stroke-width:0.30000004;stroke-miterlimit:4;stroke-dasharray:none;stroke-opacity:1" />
      <path
         id="rect4627-5"
         d="m -22,290.14997 c -1.107998,0 -2,0.892 -2,2 v 1 13 10 c 0,2.21601 1.783987,4 4,4 H 0 c 2.216013,0 4,-1.78399 4,-4 v -22 -1 -1 c 0,-1.108 -0.892002,-2 -2,-2 z"
         style="opacity:1;fill:#a6a6a6;fill-opacity:1;stroke:none;stroke-width:1.99999988;stroke-linecap:round;stroke-linejoin:round;stroke-miterlimit:4;stroke-dasharray:none;stroke-opacity:1"
         inkscape:connector-curvature="0" />
      <path
         id="rect4639-0"
         d="m -22,291.14997 c -0.554,0 -1,0.446 -1,1 v 2 2 7 13 c 0,1.66198 1.338021,3 3,3 H 0 c 1.661979,0 3,-1.33802 3,-3 v -13 -7 -2 -2 c 0,-0.554 -0.446,-1 -1,-1 z"
         style="opacity:1;fill:url(#linearGradient4728-3);fill-opacity:1;stroke:none;stroke-width:1.99999988;stroke-linecap:round;stroke-linejoin:round;stroke-miterlimit:4;stroke-dasharray:none;stroke-opacity:1"
         inkscape:connector-curvature="0" />
      <path
         inkscape:connector-curvature="0"
         style="opacity:1;fill:url(#linearGradient4547);fill-opacity:1;stroke:none;stroke-width:2;stroke-linecap:round;stroke-linejoin:round;stroke-miterlimit:4;stroke-dasharray:none;stroke-opacity:1"
         d="m -16.5,296.14999 c -0.831,0 -1.5,0.669 -1.5,1.5 v 15 c 0,0.831 0.669,1.5 1.5,1.5 0.831,0 1.5,-0.669 1.5,-1.5 v -15 c 0,-0.831 -0.669,-1.5 -1.5,-1.5 z m 6,0 c -0.831,0 -1.5,0.669 -1.5,1.5 v 15 c 0,0.831 0.669,1.5 1.5,1.5 0.8309999,0 1.4999999,-0.669 1.4999999,-1.5 v -15 c 0,-0.831 -0.669,-1.5 -1.4999999,-1.5 z m 5.9999999,0 c -0.8310001,0 -1.5,0.669 -1.5,1.5 v 15 c 0,0.831 0.6689999,1.5 1.5,1.5 0.831,0 1.5,-0.669 1.5,-1.5 v -15 c 0,-0.831 -0.669,-1.5 -1.5,-1.5 z"
         id="rect4510" />
    </g>
  </g>
</svg>
