<?xml version="1.0" encoding="UTF-8" standalone="no"?>
<!-- Created with Inkscape (http://www.inkscape.org/) -->

<svg
   xmlns:dc="http://purl.org/dc/elements/1.1/"
   xmlns:cc="http://creativecommons.org/ns#"
   xmlns:rdf="http://www.w3.org/1999/02/22-rdf-syntax-ns#"
   xmlns:svg="http://www.w3.org/2000/svg"
   xmlns="http://www.w3.org/2000/svg"
   xmlns:xlink="http://www.w3.org/1999/xlink"
   xmlns:sodipodi="http://sodipodi.sourceforge.net/DTD/sodipodi-0.dtd"
   xmlns:inkscape="http://www.inkscape.org/namespaces/inkscape"
   width="64"
   height="64"
   viewBox="0 0 64 64"
   version="1.1"
   id="svg8"
   inkscape:version="0.92.4 5da689c313, 2019-01-14"
   sodipodi:docname="application-x-font-ttf.svg">
  <title
     id="title7895">Antu icon Theme</title>
  <defs
     id="defs2">
    <linearGradient
       gradientTransform="translate(-92,8)"
       inkscape:collect="always"
       xlink:href="#linearGradient4656"
       id="linearGradient1149"
       x1="86"
       y1="308.64999"
       x2="86"
       y2="252.64999"
       gradientUnits="userSpaceOnUse" />
    <linearGradient
       inkscape:collect="always"
       id="linearGradient4656">
      <stop
         style="stop-color:#e4e4e4;stop-opacity:1"
         offset="0"
         id="stop4652" />
      <stop
         style="stop-color:#fbfbfb;stop-opacity:1"
         offset="1"
         id="stop4654" />
    </linearGradient>
    <linearGradient
       id="linearGradient2126"
       inkscape:collect="always">
      <stop
         id="stop2122"
         offset="0"
         style="stop-color:#475057;stop-opacity:1;" />
      <stop
         id="stop2124"
         offset="1"
         style="stop-color:#5e6a73;stop-opacity:1" />
    </linearGradient>
    <linearGradient
       gradientUnits="userSpaceOnUse"
       y2="290.64999"
       x2="16"
       y1="310.64999"
       x1="16"
       id="linearGradient1256"
       xlink:href="#linearGradient2126"
       inkscape:collect="always"
       gradientTransform="translate(-24,8)" />
  </defs>
  <sodipodi:namedview
     id="base"
     pagecolor="#ffffff"
     bordercolor="#666666"
     borderopacity="1.0"
     inkscape:pageopacity="0.0"
     inkscape:pageshadow="2"
     inkscape:zoom="8"
     inkscape:cx="44.529922"
     inkscape:cy="16.576668"
     inkscape:document-units="px"
     inkscape:current-layer="layer1"
     showgrid="true"
     units="px"
     inkscape:window-width="1920"
     inkscape:window-height="1049"
     inkscape:window-x="0"
     inkscape:window-y="0"
     inkscape:window-maximized="1"
     objecttolerance="10"
     gridtolerance="10"
     guidetolerance="10"
     inkscape:snap-bbox="true"
     inkscape:bbox-paths="true"
     inkscape:bbox-nodes="true"
     inkscape:snap-bbox-edge-midpoints="true"
     inkscape:snap-bbox-midpoints="true"
     inkscape:object-paths="true"
     inkscape:snap-intersection-paths="true"
     inkscape:showpageshadow="false">
    <inkscape:grid
       type="xygrid"
       id="grid7897"
       empspacing="4" />
  </sodipodi:namedview>
  <metadata
     id="metadata5">
    <rdf:RDF>
      <cc:Work
         rdf:about="">
        <dc:format>image/svg+xml</dc:format>
        <dc:type
           rdf:resource="http://purl.org/dc/dcmitype/StillImage" />
        <dc:title>Antu icon Theme</dc:title>
      </cc:Work>
    </rdf:RDF>
  </metadata>
  <g
     inkscape:label="Capa 1"
     inkscape:groupmode="layer"
     id="layer1"
     transform="translate(0,-250.64999)">
    <g
       id="g1769"
       transform="translate(38,-6)">
      <path
         id="rect971"
         d="m -29,257.64999 h 46 c 2.216,0 4,1.784 4,4 v 54 c 0,2.216 -1.784,4 -4,4 h -46 c -2.216,0 -4,-1.784 -4,-4 v -54 c 0,-2.216 1.784,-4 4,-4 z"
         style="opacity:1;vector-effect:none;fill:#90a4ae;fill-opacity:1;stroke:none;stroke-width:2;stroke-linecap:round;stroke-linejoin:round;stroke-miterlimit:4;stroke-dasharray:none;stroke-dashoffset:0;stroke-opacity:1"
         inkscape:connector-curvature="0"
         sodipodi:nodetypes="sssssssss" />
      <path
         id="rect971-2"
         d="m -29,258.64999 h 46 c 1.662,0 3,1.338 3,3 v 54 c 0,1.662 -1.338,3 -3,3 h -46 c -1.662,0 -3,-1.338 -3,-3 v -54 c 0,-1.662 1.338,-3 3,-3 z"
         style="opacity:1;vector-effect:none;fill:url(#linearGradient1149);fill-opacity:1.0;stroke:none;stroke-width:2;stroke-linecap:round;stroke-linejoin:round;stroke-miterlimit:4;stroke-dasharray:none;stroke-dashoffset:0;stroke-opacity:1"
         inkscape:connector-curvature="0"
         sodipodi:nodetypes="sssssssss" />
    </g>
    <g
       transform="translate(16,-16)"
       id="layer1-60"
       inkscape:label="Capa 1">
      <g
         transform="translate(24,-8)"
         id="g2069">
        <path
           style="opacity:1;fill:#343b40;fill-opacity:1;stroke:none;stroke-width:0.80800003;stroke-linecap:round;stroke-linejoin:round;stroke-miterlimit:4;stroke-dasharray:none;stroke-opacity:1;paint-order:stroke markers fill"
           d="m -22,293.64999 v 5 3 h 3 v -1 c 0,-1.108 0.892,-2 2,-2 h 2 4 v 14 2 c 0,1.108 -0.892,2 -2,2 h -2 v 4 h 14 v -4 h -2 c -1.108,0 -2,-0.892 -2,-2 v -2 -14 h 6 c 1.108,0 2,0.892 2,2 v 1 h 3 v -4 -4 z"
           id="rect879"
           inkscape:connector-curvature="0" />
        <path
           style="opacity:1;fill:url(#linearGradient1256);fill-opacity:1;stroke:none;stroke-width:0.80800003;stroke-linecap:round;stroke-linejoin:round;stroke-miterlimit:4;stroke-dasharray:none;stroke-opacity:1;paint-order:stroke markers fill"
           d="m -21,294.64999 v 3 3 h 1 c 0,-0.831 0.334703,-1.5808 0.876953,-2.12305 0.54225,-0.54225 1.292047,-0.87695 2.123047,-0.87695 h 7 v 17 c 0,0.831 -0.334703,1.5808 -0.876953,2.12305 -0.54225,0.54225 -1.292047,0.87695 -2.123047,0.87695 h -1 v 1 1 h 12 v -1 -1 h -1 c -0.831,0 -1.580797,-0.3347 -2.123047,-0.87695 C -5.665297,316.23079 -6,315.48099 -6,314.64999 v -17 h 7 c 0.831,0 1.580797,0.3347 2.123047,0.87695 C 3.665297,299.06919 4,299.81899 4,300.64999 h 1 v -4 -2 z"
           id="rect965"
           inkscape:connector-curvature="0" />
      </g>
    </g>
  </g>
</svg>
