<?xml version="1.0" encoding="UTF-8" standalone="no"?>
<!-- Created with Inkscape (http://www.inkscape.org/) -->

<svg
   xmlns:dc="http://purl.org/dc/elements/1.1/"
   xmlns:cc="http://creativecommons.org/ns#"
   xmlns:rdf="http://www.w3.org/1999/02/22-rdf-syntax-ns#"
   xmlns:svg="http://www.w3.org/2000/svg"
   xmlns="http://www.w3.org/2000/svg"
   xmlns:xlink="http://www.w3.org/1999/xlink"
   xmlns:sodipodi="http://sodipodi.sourceforge.net/DTD/sodipodi-0.dtd"
   xmlns:inkscape="http://www.inkscape.org/namespaces/inkscape"
   width="64"
   height="64"
   viewBox="0 0 16.933333 16.933333"
   version="1.1"
   id="svg1399"
   inkscape:version="0.92.4 5da689c313, 2019-01-14"
   sodipodi:docname="application-x-shellscript.svg">
  <defs
     id="defs1393">
    <linearGradient
       gradientUnits="userSpaceOnUse"
       y2="252.64999"
       x2="88"
       y1="306.64999"
       x1="88"
       id="linearGradient1149"
       xlink:href="#linearGradient915"
       inkscape:collect="always"
       gradientTransform="matrix(0.26458333,0,0,0.26458333,-26.462531,217.49957)" />
    <linearGradient
       id="linearGradient915"
       inkscape:collect="always">
      <stop
         id="stop911"
         offset="0"
         style="stop-color:#494949;stop-opacity:1" />
      <stop
         id="stop913"
         offset="1"
         style="stop-color:#222222;stop-opacity:1" />
    </linearGradient>
  </defs>
  <sodipodi:namedview
     id="base"
     pagecolor="#ffffff"
     bordercolor="#666666"
     borderopacity="1.0"
     inkscape:pageopacity="0.0"
     inkscape:pageshadow="2"
     inkscape:zoom="7.9195959"
     inkscape:cx="-15.735422"
     inkscape:cy="19.532841"
     inkscape:document-units="px"
     inkscape:current-layer="layer1"
     showgrid="false"
     inkscape:showpageshadow="false"
     units="px"
     inkscape:window-width="1920"
     inkscape:window-height="1049"
     inkscape:window-x="0"
     inkscape:window-y="0"
     inkscape:window-maximized="1" />
  <metadata
     id="metadata1396">
    <rdf:RDF>
      <cc:Work
         rdf:about="">
        <dc:format>image/svg+xml</dc:format>
        <dc:type
           rdf:resource="http://purl.org/dc/dcmitype/StillImage" />
        <dc:title></dc:title>
      </cc:Work>
    </rdf:RDF>
  </metadata>
  <g
     inkscape:label="Capa 1"
     inkscape:groupmode="layer"
     id="layer1"
     transform="translate(0,-280.06672)">
    <g
       id="g1543"
       transform="translate(12.175031,-3.2214985)">
      <path
         inkscape:connector-curvature="0"
         style="opacity:1;vector-effect:none;fill:#030303;fill-opacity:1;stroke:none;stroke-width:0.52916664;stroke-linecap:round;stroke-linejoin:round;stroke-miterlimit:4;stroke-dasharray:none;stroke-dashoffset:0;stroke-opacity:1"
         d="m -9.7937813,283.5528 c -0.5863167,0 -1.0583337,0.47202 -1.0583337,1.05833 v 3.70417 1.05833 9.525 c 0,0.58632 0.472017,1.05834 1.0583337,1.05834 H 2.3770514 c 0.586317,0 1.058334,-0.47202 1.058334,-1.05834 v -9.525 -1.05833 -0.26458 -3.43959 c 0,-0.58631 -0.472017,-1.05833 -1.058334,-1.05833 z"
         id="rect971" />
      <path
         inkscape:connector-curvature="0"
         style="opacity:1;vector-effect:none;fill:url(#linearGradient1149);fill-opacity:1;stroke:none;stroke-width:0.52916664;stroke-linecap:round;stroke-linejoin:round;stroke-miterlimit:4;stroke-dasharray:none;stroke-dashoffset:0;stroke-opacity:1"
         d="m -9.7937813,283.81738 c -0.4397377,0 -0.7937497,0.35402 -0.7937497,0.79375 v 3.175 0.52917 0.79375 9.78958 c 0,0.43974 0.354012,0.79375 0.7937497,0.79375 H 2.3770514 c 0.439738,0 0.79375,-0.35401 0.79375,-0.79375 v -9.78958 -0.79375 -0.52917 -3.175 c 0,-0.43973 -0.354012,-0.79375 -0.79375,-0.79375 z"
         id="rect971-2" />
      <path
         id="rect1052-1"
         d="m -10.587531,284.87572 v 1.05833 H 3.1708014 v -1.05833 z m 0,2.11666 v 1.05834 H 3.1708014 v -1.05834 z m 0,2.11667 v 1.05833 H 3.1708014 v -1.05833 z m 0,2.11667 v 1.05833 H 3.1708014 v -1.05833 z m 0,2.11666 v 1.05834 H 3.1708014 v -1.05834 z m 0,2.11667 v 1.05833 H 3.1708014 v -1.05833 z m 0,2.11667 v 1.05833 H 3.1708014 v -1.05833 z"
         style="opacity:1;fill:#0f0f0f;fill-opacity:0.39215686;stroke:none;stroke-width:1.05833328;stroke-linecap:round;stroke-linejoin:round;stroke-miterlimit:4;stroke-dasharray:none;stroke-opacity:1"
         inkscape:connector-curvature="0" />
      <path
         style="opacity:1;fill:#ffffff;fill-opacity:1;stroke:none;stroke-width:1.05833328;stroke-linecap:round;stroke-linejoin:round;stroke-miterlimit:4;stroke-dasharray:none;stroke-opacity:1"
         d="m -9.2646147,284.61113 v 0.52917 h -0.5291666 v 0.52916 h 0.5291666 v 0.52917 h -0.5291666 v 0.52917 h 0.5291666 v 0.52916 h 0.5291667 v -0.52916 h 0.5291666 v 0.52916 h 0.5291667 v -0.52916 h 0.5291667 v -0.52917 h -0.5291667 v -0.52917 h 0.5291667 v -0.52916 h -0.5291667 v -0.52917 h -0.5291667 v 0.52917 H -8.735448 v -0.52917 z m 0.5291667,1.05833 h 0.5291666 v 0.52917 H -8.735448 Z"
         id="rect925-7-7"
         inkscape:connector-curvature="0" />
    </g>
  </g>
</svg>
