<?xml version="1.0" encoding="UTF-8" standalone="no"?>
<!-- Created with Inkscape (http://www.inkscape.org/) -->

<svg
   xmlns:dc="http://purl.org/dc/elements/1.1/"
   xmlns:cc="http://creativecommons.org/ns#"
   xmlns:rdf="http://www.w3.org/1999/02/22-rdf-syntax-ns#"
   xmlns:svg="http://www.w3.org/2000/svg"
   xmlns="http://www.w3.org/2000/svg"
   xmlns:xlink="http://www.w3.org/1999/xlink"
   xmlns:sodipodi="http://sodipodi.sourceforge.net/DTD/sodipodi-0.dtd"
   xmlns:inkscape="http://www.inkscape.org/namespaces/inkscape"
   width="64"
   height="64"
   viewBox="0 0 16.933333 16.933333"
   version="1.1"
   id="svg1399"
   inkscape:version="0.92.4 5da689c313, 2019-01-14"
   sodipodi:docname="audio-mp3.svg">
  <defs
     id="defs1393">
    <linearGradient
       gradientUnits="userSpaceOnUse"
       y2="252.64999"
       x2="88"
       y1="306.64999"
       x1="88"
       id="linearGradient1149"
       xlink:href="#linearGradient4894"
       inkscape:collect="always"
       gradientTransform="translate(-8,-256.64999)" />
    <linearGradient
       inkscape:collect="always"
       id="linearGradient4894">
      <stop
         style="stop-color:#306dee;stop-opacity:1"
         offset="0"
         id="stop4890" />
      <stop
         style="stop-color:#5795fb;stop-opacity:1"
         offset="1"
         id="stop4892" />
    </linearGradient>
  </defs>
  <sodipodi:namedview
     id="base"
     pagecolor="#ffffff"
     bordercolor="#666666"
     borderopacity="1.0"
     inkscape:pageopacity="0.0"
     inkscape:pageshadow="2"
     inkscape:zoom="7.9195959"
     inkscape:cx="-15.735422"
     inkscape:cy="19.532841"
     inkscape:document-units="px"
     inkscape:current-layer="layer1"
     showgrid="false"
     inkscape:showpageshadow="false"
     units="px"
     inkscape:window-width="1920"
     inkscape:window-height="1049"
     inkscape:window-x="0"
     inkscape:window-y="0"
     inkscape:window-maximized="1" />
  <metadata
     id="metadata1396">
    <rdf:RDF>
      <cc:Work
         rdf:about="">
        <dc:format>image/svg+xml</dc:format>
        <dc:type
           rdf:resource="http://purl.org/dc/dcmitype/StillImage" />
        <dc:title></dc:title>
      </cc:Work>
    </rdf:RDF>
  </metadata>
  <g
     inkscape:label="Capa 1"
     inkscape:groupmode="layer"
     id="layer1"
     transform="translate(0,-280.06672)">
    <g
       id="g1638"
       transform="translate(12.442301,-3.4887691)">
      <g
         inkscape:label="Capa 1"
         id="layer1-6"
         transform="matrix(0.26458333,0,0,0.26458333,-12.442301,217.23768)">
        <g
           id="g1769"
           transform="translate(38,-6)">
          <path
             inkscape:connector-curvature="0"
             id="rect971"
             transform="translate(-84,264.64999)"
             d="m 55,-7 c -2.216,0 -4,1.784 -4,4 v 14 4 36 c 0,2.216 1.784,4 4,4 h 46 c 2.216,0 4,-1.784 4,-4 V 15 11 10 -3 c 0,-2.216 -1.784,-4 -4,-4 z"
             style="opacity:1;vector-effect:none;fill:#1e62df;fill-opacity:1;stroke:none;stroke-width:2;stroke-linecap:round;stroke-linejoin:round;stroke-miterlimit:4;stroke-dasharray:none;stroke-dashoffset:0;stroke-opacity:1" />
          <path
             inkscape:connector-curvature="0"
             transform="translate(-84,264.64999)"
             id="rect971-2"
             d="m 55,-6 c -1.662,0 -3,1.338 -3,3 v 12 2 3 37 c 0,1.662 1.338,3 3,3 h 46 c 1.662,0 3,-1.338 3,-3 V 14 11 9 -3 c 0,-1.662 -1.338,-3 -3,-3 z"
             style="opacity:1;vector-effect:none;fill:url(#linearGradient1149);fill-opacity:1;stroke:none;stroke-width:2;stroke-linecap:round;stroke-linejoin:round;stroke-miterlimit:4;stroke-dasharray:none;stroke-dashoffset:0;stroke-opacity:1" />
        </g>
      </g>
      <g
         inkscape:label="Capa 1"
         id="layer1-67"
         transform="matrix(0.26458333,0,0,0.26458333,-12.442301,215.38558)">
        <g
           transform="translate(-6,-93.00001)"
           id="g1529" />
        <g
           id="g9421"
           transform="translate(23.999999,-1.569155)">
          <path
             sodipodi:nodetypes="cccccssssccccccsssscccccccccccssssccc"
             inkscape:connector-curvature="0"
             id="rect4545"
             d="m 4.0000003,277.21923 -5.00000004,2.00002 v 2.00001 1.99997 2.34573 c -0.45556196,-0.21619 -0.96038596,-0.34583 -1.49999996,-0.34583 -1.939,0 -3.500001,1.56098 -3.500001,3.5 0,1.93901 1.561001,3.49999 3.500001,3.49999 1.93900296,0 3.621779,-1.5648 3.5,-3.49999 v -6.30078 l 3,-1.19921 z m 8.9999987,2.99989 -6.9999997,3 v 11.02344 c -1.009822,-0.64493 -2.207938,-1.02342 -3.5,-1.02342 -3.600998,0 -6.5,2.89898 -6.5,6.5 0,3.60098 2.899002,6.49999 6.5,6.49999 3.601002,0 6.5,-2.89901 6.5,-6.49999 0,-0.034 -0.0047,-0.0688 -0.0059,-0.10356 l 0.0059,0.004 v -9.40037 -2.00001 l 4.0000017,-2.00005 z m 8,8.0002 -5.000001,2.00001 v 1.99998 2.00001 2.34569 c -0.455562,-0.21619 -0.960386,-0.34583 -1.5,-0.34583 -1.938997,0 -3.499997,1.56099 -3.499997,3.5 0,1.93901 1.561,3.49999 3.499997,3.49999 1.939003,0 3.558845,-1.56189 3.500001,-3.49999 v -6.30078 l 3,-1.19924 z"
             style="opacity:1;fill:#1e62df;fill-opacity:1;stroke:none;stroke-width:1;stroke-opacity:1" />
          <path
             sodipodi:nodetypes="cccccssssccccccsssscccccccccccssssccc"
             inkscape:connector-curvature="0"
             id="rect4545-5"
             d="m 4.0000003,276.21928 -5.00000004,2.00002 v 2.00001 1.99997 2.34573 c -0.45556196,-0.21619 -0.96038596,-0.34583 -1.49999996,-0.34583 -1.939,0 -3.5,1.56099 -3.5,3.5 0,1.93901 1.561,3.49999 3.5,3.49999 1.93900296,0 3.5,-1.56098 3.5,-3.49999 v -6.30078 l 3,-1.1992 z M 13,279.21902 l -7.0000007,3 v 11.02344 c -1.009822,-0.64493 -2.207938,-1.02341 -3.5,-1.02341 -3.600998,0 -6.5,2.89897 -6.5,6.49999 0,3.60098 2.899002,6.49999 6.5,6.49999 3.601003,0 6.5,-2.89901 6.5,-6.49999 0,-0.034 -0.0047,-0.0688 -0.0059,-0.10356 l 0.0059,0.004 v -9.40037 -2.00001 L 13,285.21909 Z m 7.999999,8.00016 -5.000001,2.00002 v 1.99997 2.00001 2.34569 c -0.455562,-0.21619 -0.960386,-0.34582 -1.5,-0.34582 -1.938997,0 -3.499997,1.56098 -3.499997,3.49999 0,1.93901 1.561,3.49999 3.499997,3.49999 1.939003,0 3.540049,-1.5614 3.500001,-3.49999 v -6.30078 l 3,-1.19924 z"
             style="opacity:1;fill:#f7faff;fill-opacity:1;stroke:none;stroke-width:1;stroke-opacity:1" />
        </g>
      </g>
      <path
         id="path946-5-6"
         d="m -8.3412592,285.14299 c -0.2198686,0 -0.3968749,0.17701 -0.3968749,0.39687 0,0.21987 0.1770063,0.39688 0.3968749,0.39688 0.2198688,0 0.396875,-0.17701 0.396875,-0.39688 0,-0.21986 -0.1770062,-0.39687 -0.396875,-0.39687 z m -1.3229165,0.52917 c -0.2198688,0 -0.3968753,0.177 -0.3968753,0.39687 0,0.21987 0.1770065,0.39688 0.3968753,0.39688 0.2198684,0 0.3968749,-0.17701 0.3968749,-0.39688 0,-0.21987 -0.1770065,-0.39687 -0.3968749,-0.39687 z m 1.3229165,0.79375 c -0.2198686,0 -0.3968749,0.177 -0.3968749,0.39687 0,0.21987 0.1770063,0.39688 0.3968749,0.39688 0.2198688,0 0.396875,-0.17701 0.396875,-0.39688 0,-0.21987 -0.1770062,-0.39687 -0.396875,-0.39687 z m -1.3229165,0.52916 c -0.2198688,0 -0.3968753,0.17701 -0.3968753,0.39688 0,0.21987 0.1770065,0.39687 0.3968753,0.39687 0.2198684,0 0.3968749,-0.177 0.3968749,-0.39687 0,-0.21987 -0.1770065,-0.39688 -0.3968749,-0.39688 z m 0,1.32292 c -0.2198688,0 -0.3968753,0.17701 -0.3968753,0.39687 0,0.21987 0.1770065,0.39688 0.3968753,0.39688 0.2198684,0 0.3968749,-0.17701 0.3968749,-0.39688 0,-0.21986 -0.1770065,-0.39687 -0.3968749,-0.39687 z"
         style="opacity:1;fill:#1e62df;fill-opacity:1;stroke:none;stroke-width:0.26458332;stroke-opacity:1"
         inkscape:connector-curvature="0" />
      <path
         id="path946-5"
         d="m -8.3412592,284.87841 c -0.2198686,0 -0.3968749,0.177 -0.3968749,0.39687 0,0.21987 0.1770063,0.39688 0.3968749,0.39688 0.2198688,0 0.396875,-0.17701 0.396875,-0.39688 0,-0.21987 -0.1770062,-0.39687 -0.396875,-0.39687 z m -1.3229165,0.52916 c -0.2198688,0 -0.3968753,0.17701 -0.3968753,0.39688 0,0.21987 0.1770065,0.39687 0.3968753,0.39687 0.2198684,0 0.3968749,-0.177 0.3968749,-0.39687 0,-0.21987 -0.1770065,-0.39688 -0.3968749,-0.39688 z m 1.3229165,0.79375 c -0.2198686,0 -0.3968749,0.17701 -0.3968749,0.39688 0,0.21987 0.1770063,0.39687 0.3968749,0.39687 0.2198688,0 0.396875,-0.177 0.396875,-0.39687 0,-0.21987 -0.1770062,-0.39688 -0.396875,-0.39688 z m -1.3229165,0.52917 c -0.2198688,0 -0.3968753,0.17701 -0.3968753,0.39687 0,0.21987 0.1770065,0.39688 0.3968753,0.39688 0.2198684,0 0.3968749,-0.17701 0.3968749,-0.39688 0,-0.21986 -0.1770065,-0.39687 -0.3968749,-0.39687 z m 0,1.32292 c -0.2198688,0 -0.3968753,0.177 -0.3968753,0.39687 0,0.21987 0.1770065,0.39688 0.3968753,0.39688 0.2198684,0 0.3968749,-0.17701 0.3968749,-0.39688 0,-0.21987 -0.1770065,-0.39687 -0.3968749,-0.39687 z"
         style="opacity:1;fill:#f7faff;fill-opacity:1;stroke:none;stroke-width:0.26458332;stroke-opacity:1"
         inkscape:connector-curvature="0" />
      <path
         id="path946-5-6-2"
         d="m 0.38999087,299.43049 c 0.219869,0 0.396875,-0.17701 0.396875,-0.39688 0,-0.21986 -0.177006,-0.39687 -0.396875,-0.39687 -0.219869,0 -0.396875,0.17701 -0.396875,0.39687 0,0.21987 0.177006,0.39688 0.396875,0.39688 z m 1.32291603,-0.52917 c 0.219869,0 0.396875,-0.177 0.396875,-0.39687 0,-0.21987 -0.177006,-0.39688 -0.396875,-0.39688 -0.219868,0 -0.396874,0.17701 -0.396874,0.39688 0,0.21987 0.177006,0.39687 0.396874,0.39687 z m -1.32291603,-0.79375 c 0.219869,0 0.396875,-0.177 0.396875,-0.39687 0,-0.21987 -0.177006,-0.39688 -0.396875,-0.39688 -0.219869,0 -0.396875,0.17701 -0.396875,0.39688 0,0.21987 0.177006,0.39687 0.396875,0.39687 z m 1.32291603,-0.52916 c 0.219869,0 0.396875,-0.17701 0.396875,-0.39688 0,-0.21987 -0.177006,-0.39687 -0.396875,-0.39687 -0.219868,0 -0.396874,0.177 -0.396874,0.39687 0,0.21987 0.177006,0.39688 0.396874,0.39688 z m 0,-1.32292 c 0.219869,0 0.396875,-0.17701 0.396875,-0.39688 0,-0.21986 -0.177006,-0.39687 -0.396875,-0.39687 -0.219868,0 -0.396874,0.17701 -0.396874,0.39687 0,0.21987 0.177006,0.39688 0.396874,0.39688 z"
         style="opacity:1;fill:#1e62df;fill-opacity:1;stroke:none;stroke-width:0.26458332;stroke-opacity:1"
         inkscape:connector-curvature="0" />
      <path
         id="path946-5-9"
         d="m 0.38999087,299.16591 c 0.219869,0 0.396875,-0.17701 0.396875,-0.39688 0,-0.21987 -0.177006,-0.39687 -0.396875,-0.39687 -0.219869,0 -0.396875,0.177 -0.396875,0.39687 0,0.21987 0.177006,0.39688 0.396875,0.39688 z m 1.32291603,-0.52917 c 0.219869,0 0.396875,-0.17701 0.396875,-0.39688 0,-0.21986 -0.177006,-0.39687 -0.396875,-0.39687 -0.219868,0 -0.396874,0.17701 -0.396874,0.39687 0,0.21987 0.177006,0.39688 0.396874,0.39688 z m -1.32291603,-0.79375 c 0.219869,0 0.396875,-0.17701 0.396875,-0.39688 0,-0.21986 -0.177006,-0.39687 -0.396875,-0.39687 -0.219869,0 -0.396875,0.17701 -0.396875,0.39687 0,0.21987 0.177006,0.39688 0.396875,0.39688 z m 1.32291603,-0.52917 c 0.219869,0 0.396875,-0.177 0.396875,-0.39687 0,-0.21987 -0.177006,-0.39688 -0.396875,-0.39688 -0.219868,0 -0.396874,0.17701 -0.396874,0.39688 0,0.21987 0.177006,0.39687 0.396874,0.39687 z m 0,-1.32291 c 0.219869,0 0.396875,-0.17701 0.396875,-0.39688 0,-0.21987 -0.177006,-0.39687 -0.396875,-0.39687 -0.219868,0 -0.396874,0.177 -0.396874,0.39687 0,0.21987 0.177006,0.39688 0.396874,0.39688 z"
         style="opacity:1;fill:#f7faff;fill-opacity:1;stroke:none;stroke-width:0.26458332;stroke-opacity:1"
         inkscape:connector-curvature="0" />
    </g>
  </g>
</svg>
