<?xml version="1.0" encoding="UTF-8" standalone="no"?>
<!-- Created with Inkscape (http://www.inkscape.org/) -->

<svg
   xmlns:dc="http://purl.org/dc/elements/1.1/"
   xmlns:cc="http://creativecommons.org/ns#"
   xmlns:rdf="http://www.w3.org/1999/02/22-rdf-syntax-ns#"
   xmlns:svg="http://www.w3.org/2000/svg"
   xmlns="http://www.w3.org/2000/svg"
   xmlns:xlink="http://www.w3.org/1999/xlink"
   xmlns:sodipodi="http://sodipodi.sourceforge.net/DTD/sodipodi-0.dtd"
   xmlns:inkscape="http://www.inkscape.org/namespaces/inkscape"
   width="128"
   height="128"
   viewBox="0 0 128 128"
   version="1.1"
   id="svg8"
   inkscape:version="0.92.2 2405546, 2018-03-11"
   sodipodi:docname="alt-gitlab.svg">
  <title
     id="title7895">Antu icon Theme</title>
  <defs
     id="defs2">
    <linearGradient
       inkscape:collect="always"
       xlink:href="#linearGradient920"
       id="linearGradient948-0-3"
       x1="17"
       y1="362.14999"
       x2="17"
       y2="346.64999"
       gradientUnits="userSpaceOnUse"
       gradientTransform="matrix(2,0,0,2,31.99997,-470.55157)" />
    <linearGradient
       inkscape:collect="always"
       id="linearGradient920">
      <stop
         style="stop-color:#e55f38;stop-opacity:1"
         offset="0"
         id="stop916" />
      <stop
         style="stop-color:#fa6b40;stop-opacity:1"
         offset="1"
         id="stop918" />
    </linearGradient>
    <linearGradient
       inkscape:collect="always"
       xlink:href="#linearGradient4622"
       id="linearGradient980-9-7"
       x1="41"
       y1="404.64999"
       x2="41"
       y2="354.64999"
       gradientUnits="userSpaceOnUse"
       gradientTransform="matrix(2,0,0,2,31.99997,-470.55157)" />
    <linearGradient
       id="linearGradient4622"
       inkscape:collect="always">
      <stop
         id="stop4618"
         offset="0"
         style="stop-color:#ff6a3e;stop-opacity:1" />
      <stop
         id="stop4620"
         offset="1"
         style="stop-color:#ff9065;stop-opacity:1" />
    </linearGradient>
    <linearGradient
       gradientTransform="matrix(2.0000005,0,0,2.0000005,43.99996,-284.55171)"
       inkscape:collect="always"
       xlink:href="#linearGradient4631-05"
       id="linearGradient3218"
       x1="31.265352"
       y1="302.33362"
       x2="30"
       y2="285.64999"
       gradientUnits="userSpaceOnUse" />
    <linearGradient
       id="linearGradient4631-05"
       inkscape:collect="always">
      <stop
         id="stop4627-8"
         offset="0"
         style="stop-color:#f2d2c2;stop-opacity:1" />
      <stop
         id="stop4629-55"
         offset="1"
         style="stop-color:#fffcf2;stop-opacity:1" />
    </linearGradient>
  </defs>
  <sodipodi:namedview
     id="base"
     pagecolor="#ffffff"
     bordercolor="#666666"
     borderopacity="1.0"
     inkscape:pageopacity="0.0"
     inkscape:pageshadow="2"
     inkscape:zoom="3.959798"
     inkscape:cx="95.134325"
     inkscape:cy="42.569356"
     inkscape:document-units="px"
     inkscape:current-layer="layer1"
     showgrid="true"
     units="px"
     inkscape:window-width="1360"
     inkscape:window-height="711"
     inkscape:window-x="0"
     inkscape:window-y="28"
     inkscape:window-maximized="1"
     objecttolerance="10"
     gridtolerance="10"
     guidetolerance="10"
     inkscape:snap-bbox="true"
     inkscape:bbox-nodes="true"
     inkscape:snap-bbox-edge-midpoints="true"
     inkscape:snap-bbox-midpoints="true"
     inkscape:object-paths="true"
     inkscape:snap-intersection-paths="true"
     inkscape:bbox-paths="true">
    <inkscape:grid
       type="xygrid"
       id="grid7897"
       empspacing="4" />
  </sodipodi:namedview>
  <metadata
     id="metadata5">
    <rdf:RDF>
      <cc:Work
         rdf:about="">
        <dc:format>image/svg+xml</dc:format>
        <dc:type
           rdf:resource="http://purl.org/dc/dcmitype/StillImage" />
        <dc:title>Antu icon Theme</dc:title>
      </cc:Work>
    </rdf:RDF>
  </metadata>
  <g
     inkscape:label="Capa 1"
     inkscape:groupmode="layer"
     id="layer1"
     transform="translate(0,-186.64999)">
    <g
       id="g7688"
       transform="translate(-43.99997,-30.09841)">
      <path
         inkscape:connector-curvature="0"
         style="color:#000000;font-style:normal;font-variant:normal;font-weight:normal;font-stretch:normal;font-size:medium;line-height:normal;font-family:sans-serif;font-variant-ligatures:normal;font-variant-position:normal;font-variant-caps:normal;font-variant-numeric:normal;font-variant-alternates:normal;font-feature-settings:normal;text-indent:0;text-align:start;text-decoration:none;text-decoration-line:none;text-decoration-style:solid;text-decoration-color:#000000;letter-spacing:normal;word-spacing:normal;text-transform:none;writing-mode:lr-tb;direction:ltr;text-orientation:mixed;dominant-baseline:auto;baseline-shift:baseline;text-anchor:start;white-space:normal;shape-padding:0;clip-rule:nonzero;display:inline;overflow:visible;visibility:visible;opacity:1;isolation:auto;mix-blend-mode:normal;color-interpolation:sRGB;color-interpolation-filters:linearRGB;solid-color:#000000;solid-opacity:1;vector-effect:none;fill:#cc4722;fill-opacity:1;fill-rule:nonzero;stroke:none;stroke-width:2;stroke-linecap:round;stroke-linejoin:round;stroke-miterlimit:4;stroke-dasharray:none;stroke-dashoffset:0;stroke-opacity:1;color-rendering:auto;image-rendering:auto;shape-rendering:auto;text-rendering:auto;enable-background:accumulate"
         d="m 51.99997,221.74841 c -3.8607,0 -7,3.1393 -7,7 v 103.99998 c 0,3.8607 3.1393,7 7,7 h 112 c 3.8607,0 7,-3.1393 7,-7 v -87.99998 c 0,-3.8607 -3.1393,-7 -7,-7 h -56 c -0.71667,0 -1.72147,-0.70632 -2.85938,-2.125 -1.1379,-1.41868 -2.3552,-3.40752 -3.67968,-5.42578 -1.32449,-2.01826 -2.76048,-4.07436 -4.44532,-5.67578 -1.68483,-1.60144 -3.68229,-2.77344 -6.01562,-2.77344 z"
         id="path1651-9-6" />
      <path
         style="opacity:1;vector-effect:none;fill:url(#linearGradient948-0-3);fill-opacity:1;stroke:none;stroke-width:2;stroke-linecap:round;stroke-linejoin:round;stroke-miterlimit:4;stroke-dasharray:none;stroke-dashoffset:0;stroke-opacity:1"
         d="m 51.99997,222.74841 h 39 c 8,0 12,16 17,16 h 56 c 3.324,0 6,2.676 6,6 v 87.99998 c 0,3.324 -2.676,6 -6,6 h -112 c -3.324,0 -6,-2.676 -6,-6 V 228.74841 c 0,-3.324 2.676,-6 6,-6 z"
         id="rect1558-7-3"
         inkscape:connector-curvature="0"
         sodipodi:nodetypes="sccssssssss" />
      <path
         inkscape:connector-curvature="0"
         style="color:#000000;font-style:normal;font-variant:normal;font-weight:normal;font-stretch:normal;font-size:medium;line-height:normal;font-family:sans-serif;font-variant-ligatures:normal;font-variant-position:normal;font-variant-caps:normal;font-variant-numeric:normal;font-variant-alternates:normal;font-feature-settings:normal;text-indent:0;text-align:start;text-decoration:none;text-decoration-line:none;text-decoration-style:solid;text-decoration-color:#000000;letter-spacing:normal;word-spacing:normal;text-transform:none;writing-mode:lr-tb;direction:ltr;text-orientation:mixed;dominant-baseline:auto;baseline-shift:baseline;text-anchor:start;white-space:normal;shape-padding:0;clip-rule:nonzero;display:inline;overflow:visible;visibility:visible;opacity:1;isolation:auto;mix-blend-mode:normal;color-interpolation:sRGB;color-interpolation-filters:linearRGB;solid-color:#000000;solid-opacity:1;vector-effect:none;fill:#dd4d25;fill-opacity:1;fill-rule:nonzero;stroke:none;stroke-width:2;stroke-linecap:round;stroke-linejoin:round;stroke-miterlimit:4;stroke-dasharray:none;stroke-dashoffset:0;stroke-opacity:1;color-rendering:auto;image-rendering:auto;shape-rendering:auto;text-rendering:auto;enable-background:accumulate"
         d="m 107.99997,237.74841 c -1.78333,0 -3.15353,1.29368 -4.42188,2.875 -1.26834,1.58132 -2.48854,3.59248 -3.78906,5.57422 -1.30051,1.98174 -2.67702,3.92564 -4.14844,5.32422 -1.47141,1.39856 -2.97395,2.22656 -4.64062,2.22656 h -39 c -3.8607,0 -7,3.1393 -7,7 v 71.99998 c 0,3.8607 3.1393,7 7,7 h 112 c 3.8607,0 7,-3.1393 7,-7 v -87.99998 c 0,-3.8607 -3.1393,-7 -7,-7 z"
         id="path1644-5-9" />
      <path
         style="opacity:1;vector-effect:none;fill:url(#linearGradient980-9-7);fill-opacity:1;stroke:none;stroke-width:2;stroke-linecap:round;stroke-linejoin:round;stroke-miterlimit:4;stroke-dasharray:none;stroke-dashoffset:0;stroke-opacity:1"
         d="m 51.99997,254.74841 h 39 c 8,0 12,-16 17,-16 h 56 c 3.324,0 6,2.676 6,6 v 87.99998 c 0,3.324 -2.676,6 -6,6 h -112 c -3.324,0 -6,-2.676 -6,-6 v -71.99998 c 0,-3.324 2.676,-6 6,-6 z"
         id="rect1558-6-3-4"
         inkscape:connector-curvature="0"
         sodipodi:nodetypes="sccssssssss" />
      <path
         sodipodi:nodetypes="cccccccccccccc"
         inkscape:connector-curvature="0"
         id="path4241-2-5-0"
         d="m 93.96481,275.74933 c -0.82779,0.014 -1.56084,0.5383 -1.84375,1.3164 l -8,22.00001 c -0.27739,0.7631 -0.0659,1.6182 0.53516,2.16406 l 22,20.00001 c 0.76241,0.69146 1.9251,0.69146 2.6875,0 l 22.00001,-20.00001 c 0.60109,-0.54586 0.81254,-1.40096 0.53516,-2.16406 l -8.00001,-22.00001 c -0.56086,-1.53944 -2.63332,-1.7885 -3.54297,-0.42578 l -8.33594,11.10845 h -8 l -8.33594,-11.10845 c -0.37779,-0.56686 -1.0181,-0.90248 -1.69922,-0.89062 z"
         style="color:#000000;font-style:normal;font-variant:normal;font-weight:normal;font-stretch:normal;font-size:medium;line-height:normal;font-family:sans-serif;text-indent:0;text-align:start;text-decoration:none;text-decoration-line:none;text-decoration-style:solid;text-decoration-color:#000000;letter-spacing:normal;word-spacing:normal;text-transform:none;writing-mode:lr-tb;direction:ltr;baseline-shift:baseline;text-anchor:start;white-space:normal;clip-rule:nonzero;display:inline;overflow:visible;visibility:visible;opacity:1;isolation:auto;mix-blend-mode:normal;color-interpolation:sRGB;color-interpolation-filters:linearRGB;solid-color:#000000;solid-opacity:1;fill:#dd4d25;fill-opacity:1;fill-rule:evenodd;stroke:none;stroke-width:4.00000095;stroke-linecap:round;stroke-linejoin:round;stroke-miterlimit:4;stroke-dasharray:none;stroke-dashoffset:0;stroke-opacity:1;color-rendering:auto;image-rendering:auto;shape-rendering:auto;text-rendering:auto;enable-background:accumulate" />
      <path
         sodipodi:nodetypes="cccccccccccccc"
         inkscape:connector-curvature="0"
         id="path4241-2-5"
         d="m 93.964816,274.74935 c -0.827798,0.014 -1.560842,0.5383 -1.84375,1.3164 l -8.000002,22 c -0.277388,0.7631 -0.06594,1.6182 0.535156,2.16406 l 22.00001,20.00001 c 0.7624,0.69146 1.92509,0.69146 2.6875,0 l 22,-20.00001 c 0.60109,-0.54586 0.81255,-1.40096 0.53516,-2.16406 l -8,-22 c -0.56087,-1.53944 -2.63333,-1.7885 -3.54297,-0.42578 l -8.33594,11.10844 h -8 l -8.335945,-11.10844 c -0.37779,-0.56686 -1.018106,-0.90248 -1.699219,-0.89062 z"
         style="color:#000000;font-style:normal;font-variant:normal;font-weight:normal;font-stretch:normal;font-size:medium;line-height:normal;font-family:sans-serif;text-indent:0;text-align:start;text-decoration:none;text-decoration-line:none;text-decoration-style:solid;text-decoration-color:#000000;letter-spacing:normal;word-spacing:normal;text-transform:none;writing-mode:lr-tb;direction:ltr;baseline-shift:baseline;text-anchor:start;white-space:normal;clip-rule:nonzero;display:inline;overflow:visible;visibility:visible;opacity:1;isolation:auto;mix-blend-mode:normal;color-interpolation:sRGB;color-interpolation-filters:linearRGB;solid-color:#000000;solid-opacity:1;fill:url(#linearGradient3218);fill-opacity:1;fill-rule:evenodd;stroke:none;stroke-width:4.00000095;stroke-linecap:round;stroke-linejoin:round;stroke-miterlimit:4;stroke-dasharray:none;stroke-dashoffset:0;stroke-opacity:1;color-rendering:auto;image-rendering:auto;shape-rendering:auto;text-rendering:auto;enable-background:accumulate" />
    </g>
  </g>
</svg>
