<?xml version="1.0" encoding="UTF-8" standalone="no"?>
<!-- Created with Inkscape (http://www.inkscape.org/) -->

<svg
   width="128"
   height="128"
   viewBox="0 0 33.866665 33.866665"
   version="1.1"
   id="svg1399"
   inkscape:version="1.2 (dc2aedaf03, 2022-05-15)"
   sodipodi:docname="alt-torrents.svg"
   xmlns:inkscape="http://www.inkscape.org/namespaces/inkscape"
   xmlns:sodipodi="http://sodipodi.sourceforge.net/DTD/sodipodi-0.dtd"
   xmlns:xlink="http://www.w3.org/1999/xlink"
   xmlns="http://www.w3.org/2000/svg"
   xmlns:svg="http://www.w3.org/2000/svg"
   xmlns:rdf="http://www.w3.org/1999/02/22-rdf-syntax-ns#"
   xmlns:cc="http://creativecommons.org/ns#"
   xmlns:dc="http://purl.org/dc/elements/1.1/">
  <defs
     id="defs1393">
    <linearGradient
       gradientTransform="translate(-21.637661,8.6137023)"
       inkscape:collect="always"
       xlink:href="#linearGradient4631-3"
       id="linearGradient892"
       x1="22.340424"
       y1="296.01898"
       x2="22.340424"
       y2="282.61957"
       gradientUnits="userSpaceOnUse" />
    <linearGradient
       id="linearGradient4631-3"
       inkscape:collect="always">
      <stop
         id="stop4627-7"
         offset="0"
         style="stop-color:#c9c8f9;stop-opacity:1" />
      <stop
         id="stop4629-1"
         offset="1"
         style="stop-color:#f5f2ff;stop-opacity:1" />
    </linearGradient>
    <linearGradient
       inkscape:collect="always"
       xlink:href="#linearGradient24152"
       id="linearGradient15700"
       gradientUnits="userSpaceOnUse"
       x1="3.9687512"
       y1="9.260416"
       x2="3.968751"
       y2="-1.0583341"
       gradientTransform="translate(-8.608023,258.88653)" />
    <linearGradient
       inkscape:collect="always"
       id="linearGradient24152">
      <stop
         style="stop-color:#7a86c3;stop-opacity:1;"
         offset="0"
         id="stop24148" />
      <stop
         style="stop-color:#6370bf;stop-opacity:1;"
         offset="1"
         id="stop24150" />
    </linearGradient>
    <linearGradient
       inkscape:collect="always"
       xlink:href="#linearGradient25400"
       id="linearGradient15702"
       gradientUnits="userSpaceOnUse"
       x1="14.552084"
       y1="31.749998"
       x2="14.552084"
       y2="3.968749"
       gradientTransform="translate(-8.608023,258.88653)" />
    <linearGradient
       inkscape:collect="always"
       id="linearGradient25400">
      <stop
         style="stop-color:#6c7ddb;stop-opacity:1;"
         offset="0"
         id="stop25396" />
      <stop
         style="stop-color:#8391e3;stop-opacity:1;"
         offset="1"
         id="stop25398" />
    </linearGradient>
  </defs>
  <sodipodi:namedview
     id="base"
     pagecolor="#ffffff"
     bordercolor="#666666"
     borderopacity="1.0"
     inkscape:pageopacity="0.0"
     inkscape:pageshadow="2"
     inkscape:zoom="7.9195959"
     inkscape:cx="21.465742"
     inkscape:cy="38.448931"
     inkscape:document-units="px"
     inkscape:current-layer="layer1"
     showgrid="false"
     inkscape:showpageshadow="false"
     units="px"
     inkscape:window-width="2160"
     inkscape:window-height="1337"
     inkscape:window-x="0"
     inkscape:window-y="0"
     inkscape:window-maximized="1"
     inkscape:pagecheckerboard="0"
     inkscape:deskcolor="#d1d1d1" />
  <metadata
     id="metadata1396">
    <rdf:RDF>
      <cc:Work
         rdf:about="">
        <dc:format>image/svg+xml</dc:format>
        <dc:type
           rdf:resource="http://purl.org/dc/dcmitype/StillImage" />
        <dc:title />
      </cc:Work>
    </rdf:RDF>
  </metadata>
  <g
     inkscape:label="Capa 1"
     inkscape:groupmode="layer"
     id="layer1"
     transform="translate(0,-263.13338)">
    <g
       id="g103272"
       transform="translate(11.253855,6.8926866)">
      <path
         d="m -7.814271,257.56361 c -1.754372,0 -3.175,1.42064 -3.175,3.175 v 24.87084 c 0,1.75437 1.420628,3.175 3.175,3.175 h 26.987497 c 1.75437,0 3.175,-1.42063 3.175,-3.175 v -20.6375 c 0,-1.75437 -1.42063,-3.175 -3.175,-3.175 H 6.208646 c -0.516918,0 -0.945646,-0.22365 -1.377177,-0.59686 -0.431532,-0.37322 -0.847997,-0.8929 -1.297596,-1.42576 -0.899198,-1.06572 -1.970135,-2.21072 -3.675227,-2.21072 z"
         style="color:#000000;font-style:normal;font-variant:normal;font-weight:normal;font-stretch:normal;font-size:medium;line-height:normal;font-family:sans-serif;font-variant-ligatures:normal;font-variant-position:normal;font-variant-caps:normal;font-variant-numeric:normal;font-variant-alternates:normal;font-variant-east-asian:normal;font-feature-settings:normal;font-variation-settings:normal;text-indent:0;text-align:start;text-decoration:none;text-decoration-line:none;text-decoration-style:solid;text-decoration-color:#000000;letter-spacing:normal;word-spacing:normal;text-transform:none;writing-mode:lr-tb;direction:ltr;text-orientation:mixed;dominant-baseline:auto;baseline-shift:baseline;text-anchor:start;white-space:normal;shape-padding:0;shape-margin:0;inline-size:0;clip-rule:nonzero;display:inline;overflow:visible;visibility:visible;isolation:auto;mix-blend-mode:normal;color-interpolation:sRGB;color-interpolation-filters:linearRGB;solid-color:#000000;solid-opacity:1;fill:#4a5599;fill-opacity:1;fill-rule:nonzero;stroke:none;stroke-width:0.529167;stroke-linecap:butt;stroke-linejoin:miter;stroke-miterlimit:4;stroke-dasharray:none;stroke-dashoffset:0;stroke-opacity:1;color-rendering:auto;image-rendering:auto;shape-rendering:auto;text-rendering:auto;enable-background:accumulate;stop-color:#000000"
         id="path1242-6"
         sodipodi:nodetypes="sssssssssssss" />
      <path
         id="rect1149-4-0-1"
         style="fill:url(#linearGradient15700);fill-opacity:1;stroke-width:0.264583"
         d="m -7.814271,257.8282 h 7.672919 c 3.175,0 3.96875,4.23334 6.35,4.23334 l 12.964581,-10e-6 c 1.61237,0 2.910414,1.29805 2.910414,2.91041 v 20.63751 c 0,1.61237 -1.298046,2.91042 -2.910414,2.91042 h -26.9875 c -1.612369,0 -2.910414,-1.29805 -2.910414,-2.91042 V 260.7386 c 0,-1.61236 1.298045,-2.9104 2.910414,-2.9104 z"
         sodipodi:nodetypes="sccssssssss" />
      <path
         d="m 19.173227,261.79694 c 1.754371,0 3.174999,1.42064 3.174999,3.175 v 20.9021 c 0,1.75437 -1.420628,3.175 -3.174999,3.175 H -7.814271 c -1.754369,0 -3.175,-1.42063 -3.175,-3.175 v -16.66876 c 0,-1.75436 1.420631,-3.175 3.175,-3.175 h 8.20208 c 0.516919,0 0.945647,-0.22364 1.377178,-0.59686 0.431531,-0.37322 0.847996,-0.8929 1.297595,-1.42576 0.899198,-1.06571 1.970136,-2.21071 3.675228,-2.21071 z"
         style="color:#000000;font-style:normal;font-variant:normal;font-weight:normal;font-stretch:normal;font-size:medium;line-height:normal;font-family:sans-serif;font-variant-ligatures:normal;font-variant-position:normal;font-variant-caps:normal;font-variant-numeric:normal;font-variant-alternates:normal;font-variant-east-asian:normal;font-feature-settings:normal;font-variation-settings:normal;text-indent:0;text-align:start;text-decoration:none;text-decoration-line:none;text-decoration-style:solid;text-decoration-color:#000000;letter-spacing:normal;word-spacing:normal;text-transform:none;writing-mode:lr-tb;direction:ltr;text-orientation:mixed;dominant-baseline:auto;baseline-shift:baseline;text-anchor:start;white-space:normal;shape-padding:0;shape-margin:0;inline-size:0;clip-rule:nonzero;display:inline;overflow:visible;visibility:visible;isolation:auto;mix-blend-mode:normal;color-interpolation:sRGB;color-interpolation-filters:linearRGB;solid-color:#000000;solid-opacity:1;fill:#4a5599;fill-opacity:1;fill-rule:nonzero;stroke:none;stroke-width:0.529167;stroke-linecap:butt;stroke-linejoin:miter;stroke-miterlimit:4;stroke-dasharray:none;stroke-dashoffset:0;stroke-opacity:1;color-rendering:auto;image-rendering:auto;shape-rendering:auto;text-rendering:auto;enable-background:accumulate;stop-color:#000000"
         id="path1242-2-0"
         sodipodi:nodetypes="sssssssssssss" />
      <path
         id="rect1149-4-0-6-6"
         style="fill:url(#linearGradient15702);fill-opacity:1;stroke-width:0.264583"
         d="M 19.173227,262.06153 H 6.737808 c -3.175,0 -3.96875,4.23334 -6.350001,4.23334 l -8.20208,-10e-6 c -1.61237,0 -2.910414,1.29805 -2.910414,2.91041 v 16.66877 c 0,1.61237 1.298046,2.91041 2.910414,2.91041 h 26.9875 c 1.612369,0 2.910414,-1.29804 2.910414,-2.91041 v -20.90211 c 0,-1.61236 -1.298045,-2.9104 -2.910414,-2.9104 z"
         sodipodi:nodetypes="sccssssssss" />
    </g>
    <g
       id="g1543"
       transform="translate(19.405575,-12.924292)">
      <path
         style="opacity:1;vector-effect:none;fill:#4b5799;fill-opacity:1;stroke:none;stroke-width:0.30574077;stroke-linecap:round;stroke-linejoin:round;stroke-miterlimit:4;stroke-dasharray:none;stroke-dashoffset:0;stroke-opacity:1;paint-order:normal"
         d="m -1.044938,291.40394 c -1.930665,-0.0281 -3.790498,0.72646 -5.155758,2.09186 -2.043101,2.04304 -2.654355,5.11562 -1.548742,7.78505 1.105703,2.66954 3.710655,4.4101 6.600113,4.41006 H 13.931926 V 304.368 H -1.149325 c -0.194148,5e-5 -0.388177,-0.01 -0.581359,-0.0289 -0.193056,-0.0195 -0.385015,-0.0487 -0.575159,-0.0873 -0.190207,-0.0385 -0.378373,-0.0864 -0.56379,-0.14366 -0.185283,-0.0573 -0.367583,-0.12392 -0.54622,-0.19946 -0.178779,-0.0756 -0.353664,-0.16012 -0.523999,-0.25321 -0.170326,-0.093 -0.335897,-0.19437 -0.496093,-0.30387 -0.16012,-0.10967 -0.314653,-0.2273 -0.463021,-0.35243 -0.148456,-0.12494 -0.290571,-0.25723 -0.425814,-0.39635 -0.135193,-0.13925 -0.263339,-0.28516 -0.383956,-0.43718 -0.120648,-0.15205 -0.233617,-0.31003 -0.338481,-0.47336 -0.104996,-0.16335 -0.201752,-0.33186 -0.289904,-0.50488 -0.06873,-0.13493 -0.132168,-0.27251 -0.19017,-0.41238 -0.07422,-0.17939 -0.139408,-0.36238 -0.195337,-0.54828 -0.05607,-0.18583 -0.102808,-0.37434 -0.140043,-0.56483 -0.03714,-0.19039 -0.06473,-0.38252 -0.08268,-0.57567 -0.01796,-0.19325 -0.02623,-0.38728 -0.02481,-0.58136 0.0015,-0.19406 0.01272,-0.38792 0.03359,-0.58086 0.02072,-0.19293 0.05107,-0.38472 0.09095,-0.57463 0.04002,-0.18994 0.08952,-0.37776 0.148312,-0.56275 0.05857,-0.185 0.126347,-0.36696 0.203088,-0.54519 0.07703,-0.17816 0.162918,-0.35235 0.257349,-0.52193 0.09419,-0.1697 0.196811,-0.33458 0.307475,-0.49403 0.110763,-0.15931 0.229422,-0.31298 0.355533,-0.46044 0.09845,-0.11525 0.201365,-0.22661 0.308508,-0.33383 0.137241,-0.13716 0.281253,-0.26737 0.431499,-0.39015 0.150212,-0.1228 0.30647,-0.23801 0.468188,-0.3452 0.161854,-0.10734 0.328978,-0.20651 0.500745,-0.29714 0.171669,-0.0906 0.347761,-0.17249 0.527616,-0.24546 0.179806,-0.0729 0.363142,-0.13667 0.549321,-0.19121 0.186235,-0.0547 0.375089,-0.10007 0.565856,-0.13591 0.190636,-0.0358 0.38294,-0.062 0.576193,-0.0785 0.193321,-0.0166 0.387349,-0.0235 0.581359,-0.0207 0.19412298,0.003 0.38797998,0.0155 0.58084398,0.0377 0.19284,0.0221 0.384455,0.0538 0.574125,0.0951 0.189666,0.0414 0.377141,0.0923 0.561723,0.15245 0.1441,0.0468 0.286319,0.0992 0.42633002,0.15709 0.179234,0.0744 0.354636,0.15769 0.525549,0.2496 0.170953,0.0917 0.337214,0.19192 0.49816,0.30024 0.16092,0.10844 0.316316,0.22486 0.465605,0.34882 0.149452,0.12402 0.292602,0.25544 0.428915,0.39377 0.136172,0.13816 0.265352,0.28303 0.387056,0.43408 0.121811,0.15113 0.235987,0.30825 0.342099,0.47078 0.105991,0.16261 0.203781,0.33042 0.293005,0.50281 0.08921,0.17226 0.169754,0.34886 0.241328,0.52915 0.07167,0.18039 0.134282,0.36425 0.187587,0.55089 0.05335,0.18664 0.09733,0.37583 0.131775,0.56689 0.0344,0.19087 0.05923,0.38335 0.07441,0.57671 0.01177,0.15112 0.01763,0.30265 0.01757,0.45422 h 1.322916 c 4e-5,-2.88945 -1.740538,-5.4944 -4.410069,-6.6001 -0.83423002,-0.34559 -1.72641502,-0.52988 -2.629296,-0.54312 z m -0.02687,1.85208 c -1.430196,-0.021 -2.807978,0.53787 -3.819405,1.54926 -1.513566,1.51343 -1.966357,3.78963 -1.147217,5.76709 0.819134,1.97737 2.748778,3.2666 4.889107,3.26647 h 15.081249 v -1.32292 H -1.149325 c -0.132363,7e-5 -0.264648,-0.006 -0.396358,-0.0196 -0.13165,-0.0132 -0.262554,-0.0331 -0.392224,-0.0594 -0.129715,-0.0263 -0.258033,-0.0591 -0.384473,-0.0982 -0.126383,-0.0391 -0.250734,-0.0844 -0.372587,-0.13591 -0.12183,-0.0516 -0.241007,-0.10915 -0.357084,-0.1726 -0.116036,-0.0634 -0.228831,-0.13256 -0.337964,-0.20722 -0.109364,-0.0748 -0.214916,-0.15497 -0.316259,-0.24029 -0.101076,-0.0852 -0.197832,-0.17541 -0.289905,-0.27027 -0.09225,-0.095 -0.179694,-0.19447 -0.262,-0.29817 -0.08215,-0.10358 -0.15907,-0.21121 -0.230476,-0.32247 -0.0715,-0.11136 -0.137382,-0.22622 -0.197405,-0.34416 -0.04689,-0.0922 -0.09016,-0.18611 -0.129707,-0.28164 -0.05064,-0.12224 -0.09514,-0.24694 -0.133325,-0.37362 -0.03826,-0.12666 -0.07017,-0.25515 -0.0956,-0.38499 -0.02531,-0.12989 -0.04411,-0.26097 -0.05633,-0.39274 -0.01229,-0.13175 -0.01798,-0.26404 -0.01705,-0.39636 9.79e-4,-0.13224 0.0086,-0.26435 0.02274,-0.39584 0.01411,-0.1317 0.03481,-0.26259 0.06201,-0.39222 0.02735,-0.12942 0.06115,-0.25739 0.101285,-0.38344 0.03995,-0.12608 0.08617,-0.25008 0.138493,-0.37155 0.05242,-0.12153 0.110889,-0.24037 0.175183,-0.35606 0.06427,-0.11574 0.134296,-0.22819 0.209807,-0.33693 0.07551,-0.10853 0.1564,-0.21321 0.242362,-0.31367 0.06711,-0.0787 0.137273,-0.1547 0.210323,-0.22789 0.09368,-0.0936 0.191993,-0.1824 0.294556,-0.26614 0.102468,-0.0836 0.209055,-0.16212 0.31936,-0.23513 0.110241,-0.0732 0.224071,-0.14077 0.341065,-0.20257 0.117022,-0.0618 0.237062,-0.11765 0.359668,-0.16743 0.122636,-0.0496 0.247677,-0.0931 0.374654,-0.13022 0.12688,-0.0372 0.255543,-0.0681 0.385506,-0.0925 0.130108,-0.0245 0.261358,-0.0424 0.393257,-0.0537 0.131804,-0.0113 0.264088,-0.0159 0.396359,-0.014 0.13228598,0.002 0.26439798,0.0103 0.39584098,0.0253 0.131574,0.0151 0.262307,0.0369 0.391707,0.0651 0.129119,0.0282 0.256747,0.0629 0.382406,0.10387 0.09834,0.032 0.195396,0.0679 0.290938,0.10749 0.122296,0.0505 0.24199,0.10706 0.358635,0.1695 0.116521,0.0627 0.229833,0.13115 0.33951402,0.20515 0.109835,0.0739 0.215904,0.15323 0.31781,0.23772 0.101731,0.0845 0.199177,0.17399 0.291972,0.2682 0.0929,0.0942 0.181036,0.19306 0.264066,0.2961 0.08299,0.10302 0.160771,0.21012 0.233061,0.3209 0.07235,0.11098 0.139094,0.2255 0.199988,0.34314 0.06093,0.11741 0.115944,0.23779 0.164848,0.36071 0.04878,0.12302 0.09138,0.2484 0.127641,0.37568 0.03638,0.1271 0.06639,0.25593 0.08992,0.38603 0.02344,0.13033 0.04034,0.26175 0.05064,0.39377 0.008,0.10298 0.01195,0.20624 0.01188,0.30954 h 1.322915 c 1.27e-4,-2.14033 -1.28909,-4.06996 -3.26646802,-4.8891 -0.617985,-0.2559 -1.278882,-0.39234 -1.94768498,-0.40205 z m -0.02739,1.85209 c -0.929623,-0.0136 -1.825152,0.34973 -2.482536,1.00717 -0.983423,0.98375 -1.277515,2.46298 -0.745174,3.74809 0.532333,1.28525 1.786447,2.12331 3.177583,2.12339 h 15.081251 v -1.32292 H -1.149325 c -0.07058,8e-5 -0.14112,-0.003 -0.211356,-0.0103 -0.07025,-0.007 -0.140104,-0.0179 -0.20929,-0.032 -0.06904,-0.014 -0.137336,-0.0314 -0.204638,-0.0522 -0.06748,-0.0208 -0.133884,-0.045 -0.198954,-0.0724 -0.06506,-0.0275 -0.128699,-0.0582 -0.190687,-0.092 -0.06192,-0.0338 -0.122114,-0.0707 -0.180351,-0.11059 -0.05826,-0.0399 -0.114482,-0.0827 -0.168465,-0.12815 -0.05387,-0.0455 -0.105441,-0.0936 -0.154512,-0.14418 -0.04931,-0.0507 -0.09605,-0.10381 -0.140043,-0.15917 -0.04384,-0.0553 -0.08489,-0.11271 -0.12299,-0.17208 -0.038,-0.0594 -0.07301,-0.12059 -0.104903,-0.18345 -0.02504,-0.0492 -0.04813,-0.0994 -0.06925,-0.15038 -0.02707,-0.0651 -0.05087,-0.13148 -0.07131,-0.19895 -0.0203,-0.0677 -0.03721,-0.13631 -0.05064,-0.20567 -0.01347,-0.0692 -0.02347,-0.13907 -0.02997,-0.20929 -0.0066,-0.0702 -0.0097,-0.1408 -0.0093,-0.21136 6.08e-4,-0.0706 0.0047,-0.14116 0.0124,-0.21136 0.0075,-0.0701 0.01858,-0.13977 0.03307,-0.20877 0.01449,-0.0691 0.03243,-0.13737 0.05374,-0.20464 0.02131,-0.0673 0.04597,-0.13357 0.0739,-0.19844 0.028,-0.0647 0.05922,-0.12803 0.09353,-0.18965 0.0342,-0.0616 0.07145,-0.12144 0.111621,-0.17932 0.0404,-0.0581 0.08369,-0.11416 0.129708,-0.16794 0.03579,-0.0417 0.0732,-0.0821 0.112138,-0.12093 0.04979,-0.05 0.102051,-0.0974 0.156579,-0.14211 0.05471,-0.0447 0.111628,-0.0866 0.170533,-0.12557 0.0588,-0.039 0.119505,-0.075 0.181901,-0.108 0.06238,-0.033 0.126362,-0.0628 0.191719,-0.0894 0.06546,-0.0264 0.132211,-0.0495 0.199988,-0.0692 0.06769,-0.0199 0.136331,-0.0365 0.205672,-0.0496 0.06942,-0.013 0.139441,-0.0224 0.209806,-0.0284 0.07028,-0.006 0.140816,-0.009 0.211357,-0.008 0.07047,10e-4 0.14083698,0.006 0.21083998,0.014 0.07012,0.008 0.139802,0.0196 0.208773,0.0346 0.06892,0.015 0.137045,0.0335 0.204121,0.0553 0.05241,0.0171 0.10412,0.0363 0.15503,0.0574 0.0652,0.0269 0.129015,0.0571 0.191202,0.0904 0.06225,0.0335 0.12279,0.07 0.181385,0.10955 0.05858,0.0394 0.115144,0.0816 0.169498,0.12661 0.0542,0.0451 0.106114,0.0929 0.155547,0.14314 0.04964,0.0503 0.09672,0.1031 0.141076,0.15813 0.04416,0.0549 0.08555,0.112 0.124023,0.17105 0.03867,0.059 0.07438,0.11987 0.106971,0.18242 0.03248,0.0627 0.0618,0.12707 0.08785,0.19275 0.02607,0.0657 0.04883,0.13258 0.06821,0.20051 0.01926,0.0677 0.03512,0.13637 0.04754,0.20567 0.01262,0.0694 0.02176,0.13946 0.02739,0.20981 0.0042,0.055 0.0063,0.11018 0.0062,0.16536 H 2.290251 c -8.1e-5,-1.39114 -0.838129,-2.64524 -2.12338502,-3.17758 -0.401704,-0.1664 -0.831314,-0.25514 -1.26607198,-0.26149 z"
         id="path932-9"
         inkscape:connector-curvature="0"
         sodipodi:nodetypes="cccccccccccccccccccccccccccccccccccccccccccccccccccccccccccccccccccccccccccccccccccccccccccccccccccccccccccccccccccccccccccccccccccccccccccccccccccccccccccccccccccccccccccccc" />
      <path
         style="opacity:1;vector-effect:none;fill:url(#linearGradient892);fill-opacity:1;stroke:none;stroke-width:0.30574077;stroke-linecap:round;stroke-linejoin:round;stroke-miterlimit:4;stroke-dasharray:none;stroke-dashoffset:0;stroke-opacity:1;paint-order:normal"
         d="m -1.044938,291.13936 c -1.930665,-0.0281 -3.790497,0.72646 -5.155757,2.09186 -2.043102,2.04304 -2.654356,5.11562 -1.548743,7.78506 1.105703,2.66953 3.710655,4.4101 6.600114,4.41006 h 15.08125 v -1.32291 h -15.08125 c -0.194148,5e-5 -0.388177,-0.01 -0.58136,-0.0289 -0.193055,-0.0195 -0.385015,-0.0487 -0.575159,-0.0873 -0.190207,-0.0385 -0.378372,-0.0864 -0.563789,-0.14366 -0.185283,-0.0573 -0.367584,-0.12392 -0.54622,-0.19947 -0.178779,-0.0756 -0.353664,-0.16012 -0.523999,-0.25321 -0.170326,-0.093 -0.335897,-0.19437 -0.496094,-0.30386 -0.160119,-0.10968 -0.314653,-0.22731 -0.463021,-0.35243 -0.148455,-0.12494 -0.29057,-0.25723 -0.425814,-0.39636 -0.135193,-0.13924 -0.263338,-0.28515 -0.383955,-0.43718 -0.120649,-0.15205 -0.233617,-0.31003 -0.338481,-0.47336 -0.104996,-0.16335 -0.201752,-0.33186 -0.289905,-0.50488 -0.06873,-0.13493 -0.132167,-0.2725 -0.190169,-0.41238 -0.07422,-0.17939 -0.139409,-0.36238 -0.195337,-0.54828 -0.05607,-0.18583 -0.102808,-0.37434 -0.140043,-0.56483 -0.03714,-0.19039 -0.06473,-0.38252 -0.08268,-0.57567 -0.01795,-0.19325 -0.02623,-0.38728 -0.0248,-0.58136 0.0015,-0.19406 0.01272,-0.38791 0.03359,-0.58085 0.02072,-0.19294 0.05107,-0.38473 0.09095,-0.57464 0.04002,-0.18994 0.08952,-0.37776 0.148311,-0.56275 0.05857,-0.185 0.126347,-0.36696 0.203089,-0.54519 0.07703,-0.17816 0.162917,-0.35235 0.257348,-0.52193 0.09419,-0.1697 0.196811,-0.33458 0.307475,-0.49403 0.110763,-0.15931 0.229423,-0.31298 0.355534,-0.46044 0.09845,-0.11525 0.201365,-0.22661 0.308508,-0.33383 0.13724,-0.13716 0.281253,-0.26737 0.431498,-0.39015 0.150213,-0.1228 0.306471,-0.23801 0.468189,-0.3452 0.161853,-0.10734 0.328977,-0.20651 0.500744,-0.29714 0.17167,-0.0906 0.347762,-0.17249 0.527617,-0.24546 0.179806,-0.0729 0.363141,-0.13667 0.54932,-0.19121 0.186235,-0.0547 0.37509,-0.10007 0.565857,-0.13591 0.190635,-0.0358 0.382939,-0.062 0.576192,-0.0785 0.193321,-0.0166 0.38735,-0.0235 0.58136,-0.0207 0.19412198,0.003 0.38797898,0.0155 0.58084298,0.0377 0.192841,0.0221 0.384455,0.0538 0.574125,0.0951 0.189666,0.0414 0.377142,0.0923 0.561723,0.15245 0.144101,0.0468 0.286319,0.0992 0.42633102,0.15709 0.179234,0.0744 0.354636,0.15769 0.525549,0.2496 0.170953,0.0917 0.337214,0.19192 0.498161,0.30024 0.160918,0.10844 0.316314,0.22486 0.465604,0.34882 0.149451,0.12402 0.292602,0.25544 0.428915,0.39377 0.136171,0.13816 0.265351,0.28303 0.387056,0.43408 0.12181,0.15113 0.235986,0.30825 0.342098,0.47078 0.105991,0.16261 0.203782,0.33042 0.293005,0.50281 0.08921,0.17226 0.169754,0.34886 0.241329,0.52916 0.07167,0.18039 0.134281,0.36424 0.187586,0.55088 0.05335,0.18664 0.09733,0.37584 0.131775,0.56689 0.0344,0.19087 0.05923,0.38335 0.07441,0.57671 0.01177,0.15112 0.01763,0.30265 0.01757,0.45423 h 1.322916 c 4e-5,-2.88946 -1.740537,-5.49441 -4.410067,-6.60011 -0.83423002,-0.34559 -1.72641602,-0.52988 -2.629297,-0.54312 z m -0.02687,1.85208 c -1.430196,-0.021 -2.807978,0.53787 -3.819405,1.54926 -1.513565,1.51343 -1.966357,3.78963 -1.147217,5.76709 0.819135,1.97738 2.748779,3.2666 4.889107,3.26647 h 15.081249 v -1.32292 h -15.08125 c -0.132364,8e-5 -0.264649,-0.006 -0.396358,-0.0196 -0.13165,-0.0132 -0.262555,-0.0331 -0.392225,-0.0594 -0.129714,-0.0263 -0.258032,-0.0591 -0.384472,-0.0982 -0.126383,-0.0391 -0.250734,-0.0844 -0.372587,-0.13591 -0.12183,-0.0516 -0.241007,-0.10915 -0.357084,-0.1726 -0.116037,-0.0634 -0.228832,-0.13256 -0.337964,-0.20722 -0.109364,-0.0748 -0.214917,-0.15497 -0.31626,-0.24029 -0.101076,-0.0852 -0.197831,-0.17541 -0.289905,-0.27027 -0.09225,-0.095 -0.179694,-0.19447 -0.261999,-0.29817 -0.08215,-0.10358 -0.15907,-0.21121 -0.230477,-0.32247 -0.0715,-0.11136 -0.137382,-0.22622 -0.197404,-0.34416 -0.04689,-0.0922 -0.09016,-0.18611 -0.129708,-0.28164 -0.05064,-0.12224 -0.09514,-0.24694 -0.133325,-0.37362 -0.03826,-0.12666 -0.07017,-0.25515 -0.0956,-0.38499 -0.02531,-0.12989 -0.04411,-0.26097 -0.05633,-0.39274 -0.01229,-0.13175 -0.01798,-0.26404 -0.01705,-0.39636 9.79e-4,-0.13224 0.0086,-0.26435 0.02274,-0.39584 0.01411,-0.1317 0.03481,-0.26259 0.06201,-0.39222 0.02735,-0.12942 0.06115,-0.25739 0.101286,-0.38344 0.03994,-0.12608 0.08617,-0.25008 0.138493,-0.37155 0.05242,-0.12153 0.110888,-0.24037 0.175183,-0.35606 0.06427,-0.11574 0.134295,-0.22819 0.209806,-0.33693 0.07551,-0.10853 0.156401,-0.21321 0.242363,-0.31367 0.06711,-0.0787 0.137273,-0.1547 0.210323,-0.22789 0.09368,-0.0936 0.191992,-0.1824 0.294555,-0.26614 0.102469,-0.0836 0.209055,-0.16212 0.319361,-0.23513 0.11024,-0.0732 0.22407,-0.14077 0.341064,-0.20257 0.117023,-0.0618 0.237062,-0.11765 0.359668,-0.16743 0.122636,-0.0496 0.247677,-0.0931 0.374654,-0.13022 0.126881,-0.0372 0.255544,-0.0681 0.385506,-0.0925 0.130109,-0.0245 0.261358,-0.0424 0.393258,-0.0537 0.131803,-0.0113 0.264088,-0.0159 0.396358,-0.014 0.13228698,0.002 0.26439898,0.0103 0.39584198,0.0253 0.131573,0.0151 0.262306,0.0369 0.391707,0.0651 0.129118,0.0282 0.256746,0.0629 0.382406,0.10387 0.09834,0.032 0.195396,0.0679 0.290938,0.10749 0.122295,0.0505 0.24199,0.10706 0.358634,0.1695 0.116521,0.0627 0.229833,0.13115 0.33951402,0.20515 0.109835,0.0739 0.215905,0.15323 0.31781,0.23772 0.101731,0.0845 0.199178,0.17399 0.291972,0.2682 0.0929,0.0942 0.181036,0.19306 0.264067,0.2961 0.08299,0.10302 0.160771,0.21012 0.233061,0.32091 0.07235,0.11097 0.139093,0.22549 0.199987,0.34313 0.06093,0.11741 0.115944,0.2378 0.164848,0.36071 0.04878,0.12302 0.09138,0.2484 0.127641,0.37568 0.03638,0.1271 0.06639,0.25594 0.08992,0.38603 0.02344,0.13033 0.04034,0.26175 0.05064,0.39377 0.008,0.10299 0.01195,0.20624 0.01188,0.30954 h 1.322914 c 1.29e-4,-2.14033 -1.289089,-4.06996 -3.26646702,-4.8891 -0.617984,-0.2559 -1.278882,-0.39234 -1.94768398,-0.40205 z m -0.02739,1.85209 c -0.929622,-0.0136 -1.825152,0.34973 -2.482535,1.00717 -0.983423,0.98375 -1.277516,2.46298 -0.745175,3.74809 0.532334,1.28526 1.786448,2.12331 3.177584,2.12339 h 15.08125 v -1.32292 h -15.08125 c -0.07058,9e-5 -0.14112,-0.003 -0.211357,-0.0103 -0.07025,-0.007 -0.140103,-0.0179 -0.209289,-0.032 -0.06904,-0.014 -0.137337,-0.0314 -0.204639,-0.0522 -0.06748,-0.0208 -0.133884,-0.045 -0.198954,-0.0724 -0.06506,-0.0275 -0.128699,-0.0582 -0.190686,-0.092 -0.06192,-0.0338 -0.122115,-0.0707 -0.180351,-0.11059 -0.05826,-0.0399 -0.114483,-0.0827 -0.168465,-0.12815 -0.05387,-0.0455 -0.105441,-0.0936 -0.154513,-0.14418 -0.04931,-0.0507 -0.09605,-0.10381 -0.140043,-0.15917 -0.04384,-0.0553 -0.08489,-0.11271 -0.12299,-0.17208 -0.038,-0.0594 -0.07301,-0.12059 -0.104903,-0.18345 -0.02504,-0.0492 -0.04813,-0.0994 -0.06925,-0.15038 -0.02707,-0.0651 -0.05087,-0.13148 -0.07131,-0.19895 -0.0203,-0.0677 -0.0372,-0.13631 -0.05064,-0.20567 -0.01347,-0.0692 -0.02347,-0.13907 -0.02997,-0.20929 -0.0066,-0.0702 -0.0097,-0.1408 -0.0093,-0.21136 6.08e-4,-0.0706 0.0047,-0.14116 0.0124,-0.21136 0.0075,-0.0701 0.01858,-0.13977 0.03307,-0.20877 0.01449,-0.0691 0.03243,-0.13737 0.05374,-0.20464 0.02131,-0.0673 0.04597,-0.13357 0.0739,-0.19844 0.028,-0.0647 0.05922,-0.12803 0.09353,-0.18965 0.0342,-0.0616 0.07145,-0.12144 0.111622,-0.17932 0.0404,-0.0581 0.08369,-0.11416 0.129707,-0.16794 0.03579,-0.0417 0.0732,-0.0821 0.112138,-0.12093 0.04979,-0.05 0.102052,-0.0974 0.15658,-0.14211 0.05471,-0.0447 0.111628,-0.0866 0.170532,-0.12557 0.0588,-0.039 0.119505,-0.075 0.181901,-0.108 0.06238,-0.033 0.126363,-0.0628 0.19172,-0.0894 0.06546,-0.0264 0.132211,-0.0495 0.199987,-0.0692 0.06769,-0.0199 0.136331,-0.0365 0.205673,-0.0496 0.06942,-0.013 0.139441,-0.0224 0.209806,-0.0284 0.07028,-0.006 0.140815,-0.009 0.211357,-0.008 0.07047,0.001 0.14083598,0.006 0.21083898,0.014 0.07012,0.008 0.139802,0.0196 0.208773,0.0346 0.06892,0.015 0.137045,0.0335 0.204122,0.0553 0.05241,0.0171 0.10412,0.0363 0.155029,0.0574 0.0652,0.0269 0.129016,0.0571 0.191203,0.0904 0.06225,0.0335 0.12279,0.07 0.181384,0.10955 0.05857,0.0394 0.115145,0.0816 0.169499,0.12661 0.0542,0.0451 0.106114,0.0929 0.155546,0.14314 0.04964,0.0503 0.09672,0.1031 0.141077,0.15813 0.04416,0.0549 0.08555,0.112 0.124023,0.17105 0.03867,0.059 0.07437,0.11987 0.10697,0.18242 0.03248,0.0627 0.0618,0.12707 0.08785,0.19275 0.02607,0.0657 0.04884,0.13258 0.06821,0.20051 0.01926,0.0677 0.03513,0.13637 0.04754,0.20567 0.01262,0.0694 0.02176,0.13946 0.02739,0.20981 0.0042,0.055 0.0063,0.11018 0.0062,0.16536 H 2.290251 c -8.1e-5,-1.39114 -0.838129,-2.64524 -2.12338502,-3.17758 -0.401703,-0.1664 -0.831314,-0.25514 -1.26607198,-0.26149 z"
         id="path932"
         inkscape:connector-curvature="0"
         sodipodi:nodetypes="cccccccccccccccccccccccccccccccccccccccccccccccccccccccccccccccccccccccccccccccccccccccccccccccccccccccccccccccccccccccccccccccccccccccccccccccccccccccccccccccccccccccccccccc" />
    </g>
  </g>
</svg>
