<?xml version="1.0" encoding="UTF-8" standalone="no"?>
<!-- Created with Inkscape (http://www.inkscape.org/) -->

<svg
   width="128"
   height="128"
   viewBox="0 0 128 128"
   version="1.1"
   id="svg8"
   inkscape:version="1.2 (dc2aedaf03, 2022-05-15)"
   sodipodi:docname="alt-mega.svg"
   xmlns:inkscape="http://www.inkscape.org/namespaces/inkscape"
   xmlns:sodipodi="http://sodipodi.sourceforge.net/DTD/sodipodi-0.dtd"
   xmlns:xlink="http://www.w3.org/1999/xlink"
   xmlns="http://www.w3.org/2000/svg"
   xmlns:svg="http://www.w3.org/2000/svg"
   xmlns:rdf="http://www.w3.org/1999/02/22-rdf-syntax-ns#"
   xmlns:cc="http://creativecommons.org/ns#"
   xmlns:dc="http://purl.org/dc/elements/1.1/">
  <title
     id="title7895">Antu icon Theme</title>
  <defs
     id="defs2">
    <linearGradient
       inkscape:collect="always"
       xlink:href="#linearGradient4631"
       id="linearGradient2681"
       gradientUnits="userSpaceOnUse"
       gradientTransform="translate(72,5.00001)"
       x1="-12"
       y1="291.64999"
       x2="-12"
       y2="243.64998" />
    <linearGradient
       id="linearGradient4631"
       inkscape:collect="always">
      <stop
         id="stop4627"
         offset="0"
         style="stop-color:#f2c2ca;stop-opacity:1" />
      <stop
         id="stop4629"
         offset="1"
         style="stop-color:#ffffff;stop-opacity:1" />
    </linearGradient>
    <linearGradient
       inkscape:collect="always"
       xlink:href="#linearGradient122764"
       id="linearGradient105189"
       gradientUnits="userSpaceOnUse"
       x1="3.968751"
       y1="6.6145825"
       x2="3.968751"
       y2="-1.0583341"
       gradientTransform="matrix(3.7795276,0,0,3.7795276,-68.999993,129.65)" />
    <linearGradient
       inkscape:collect="always"
       id="linearGradient122764">
      <stop
         style="stop-color:#f07575;stop-opacity:1;"
         offset="0"
         id="stop122760" />
      <stop
         style="stop-color:#e04b4b;stop-opacity:1;"
         offset="1"
         id="stop122762" />
    </linearGradient>
    <linearGradient
       inkscape:collect="always"
       xlink:href="#linearGradient123253"
       id="linearGradient105191"
       gradientUnits="userSpaceOnUse"
       x1="14.552084"
       y1="31.749998"
       x2="14.552084"
       y2="3.968749"
       gradientTransform="matrix(3.7795276,0,0,3.7795276,-68.999993,129.65)" />
    <linearGradient
       inkscape:collect="always"
       id="linearGradient123253">
      <stop
         style="stop-color:#ec4e4e;stop-opacity:1;"
         offset="0"
         id="stop123249" />
      <stop
         style="stop-color:#fb6464;stop-opacity:1;"
         offset="1"
         id="stop123251" />
    </linearGradient>
  </defs>
  <sodipodi:namedview
     id="base"
     pagecolor="#ffffff"
     bordercolor="#666666"
     borderopacity="1.0"
     inkscape:pageopacity="0.0"
     inkscape:pageshadow="2"
     inkscape:zoom="3.959798"
     inkscape:cx="73.993674"
     inkscape:cy="46.340748"
     inkscape:document-units="px"
     inkscape:current-layer="layer1"
     showgrid="true"
     units="px"
     inkscape:window-width="2160"
     inkscape:window-height="1337"
     inkscape:window-x="0"
     inkscape:window-y="0"
     inkscape:window-maximized="1"
     objecttolerance="10"
     gridtolerance="10"
     guidetolerance="10"
     inkscape:snap-bbox="true"
     inkscape:bbox-nodes="true"
     inkscape:snap-bbox-edge-midpoints="true"
     inkscape:snap-bbox-midpoints="true"
     inkscape:object-paths="true"
     inkscape:snap-intersection-paths="true"
     inkscape:bbox-paths="true"
     inkscape:showpageshadow="2"
     inkscape:pagecheckerboard="0"
     inkscape:deskcolor="#d1d1d1">
    <inkscape:grid
       type="xygrid"
       id="grid7897"
       empspacing="4" />
  </sodipodi:namedview>
  <metadata
     id="metadata5">
    <rdf:RDF>
      <cc:Work
         rdf:about="">
        <dc:format>image/svg+xml</dc:format>
        <dc:type
           rdf:resource="http://purl.org/dc/dcmitype/StillImage" />
        <dc:title>Antu icon Theme</dc:title>
      </cc:Work>
    </rdf:RDF>
  </metadata>
  <g
     inkscape:label="Capa 1"
     inkscape:groupmode="layer"
     id="layer1"
     transform="translate(0,-186.64999)">
    <g
       id="g124142"
       transform="translate(78.999993,67)">
      <path
         d="m -65.999993,124.64999 c -6.63069,0 -12,5.36932 -12,12 v 94.00003 c 0,6.63069 5.36931,12 12,12 H 36.000008 c 6.63069,0 12,-5.36931 12,-12 V 152.65 c 0,-6.63068 -5.36931,-12 -12,-12 H -12.99998 c -1.953713,0 -3.57411,-0.84528 -5.205089,-2.25586 -1.63098,-1.41058 -3.205002,-3.37474 -4.904278,-5.38868 -3.398551,-4.02791 -7.446198,-8.35547 -13.890633,-8.35547 z"
         style="color:#000000;font-style:normal;font-variant:normal;font-weight:normal;font-stretch:normal;font-size:medium;line-height:normal;font-family:sans-serif;font-variant-ligatures:normal;font-variant-position:normal;font-variant-caps:normal;font-variant-numeric:normal;font-variant-alternates:normal;font-variant-east-asian:normal;font-feature-settings:normal;font-variation-settings:normal;text-indent:0;text-align:start;text-decoration:none;text-decoration-line:none;text-decoration-style:solid;text-decoration-color:#000000;letter-spacing:normal;word-spacing:normal;text-transform:none;writing-mode:lr-tb;direction:ltr;text-orientation:mixed;dominant-baseline:auto;baseline-shift:baseline;text-anchor:start;white-space:normal;shape-padding:0;shape-margin:0;inline-size:0;clip-rule:nonzero;display:inline;overflow:visible;visibility:visible;isolation:auto;mix-blend-mode:normal;color-interpolation:sRGB;color-interpolation-filters:linearRGB;solid-color:#000000;solid-opacity:1;fill:#993434;fill-opacity:1;fill-rule:nonzero;stroke:none;stroke-width:2;stroke-linecap:butt;stroke-linejoin:miter;stroke-miterlimit:4;stroke-dasharray:none;stroke-dashoffset:0;stroke-opacity:1;color-rendering:auto;image-rendering:auto;shape-rendering:auto;text-rendering:auto;enable-background:accumulate;stop-color:#000000"
         id="path1242-19"
         sodipodi:nodetypes="sssssssssssss" />
      <path
         id="rect1149-4-0-62"
         style="fill:url(#linearGradient105189);fill-opacity:1;stroke-width:0.999999"
         d="m -65.999993,125.64999 29.000013,2e-5 c 12,0 15,16.00001 24,16.00001 l 48.999988,-2e-5 c 6.093997,0 11.000013,4.906 11.000013,10.99996 v 78.00006 c 0,6.09399 -4.906016,10.99997 -11.000013,10.99997 H -65.999993 c -6.093997,0 -10.999975,-4.90598 -10.999975,-10.99997 v -94.00006 c 0,-6.09399 4.905978,-10.99997 10.999975,-10.99997 z"
         sodipodi:nodetypes="sccssssssss" />
      <path
         d="m 36.000008,140.64998 c 6.63069,0 12,5.36932 12,12 V 231.65 c 0,6.63073 -5.36931,12.00004 -12,12.00004 H -65.999993 c -6.63069,0 -12,-5.36931 -12,-12.00004 v -63 c 0,-6.63068 5.36931,-12 12,-12 h 30.999988 c 1.953713,0 3.57411,-0.84528 5.20509,-2.25586 1.630979,-1.41058 3.205039,-3.37474 4.904315,-5.38868 3.398513,-4.0279 7.44616,-8.35546 13.890595,-8.35546 z"
         style="color:#000000;font-style:normal;font-variant:normal;font-weight:normal;font-stretch:normal;font-size:medium;line-height:normal;font-family:sans-serif;font-variant-ligatures:normal;font-variant-position:normal;font-variant-caps:normal;font-variant-numeric:normal;font-variant-alternates:normal;font-variant-east-asian:normal;font-feature-settings:normal;font-variation-settings:normal;text-indent:0;text-align:start;text-decoration:none;text-decoration-line:none;text-decoration-style:solid;text-decoration-color:#000000;letter-spacing:normal;word-spacing:normal;text-transform:none;writing-mode:lr-tb;direction:ltr;text-orientation:mixed;dominant-baseline:auto;baseline-shift:baseline;text-anchor:start;white-space:normal;shape-padding:0;shape-margin:0;inline-size:0;clip-rule:nonzero;display:inline;overflow:visible;visibility:visible;isolation:auto;mix-blend-mode:normal;color-interpolation:sRGB;color-interpolation-filters:linearRGB;solid-color:#000000;solid-opacity:1;fill:#b24444;fill-opacity:1;fill-rule:nonzero;stroke:none;stroke-width:2;stroke-linecap:butt;stroke-linejoin:miter;stroke-miterlimit:4;stroke-dasharray:none;stroke-dashoffset:0;stroke-opacity:1;color-rendering:auto;image-rendering:auto;shape-rendering:auto;text-rendering:auto;enable-background:accumulate;stop-color:#000000"
         id="path1242-2-54"
         sodipodi:nodetypes="sssssssssssss" />
      <path
         id="rect1149-4-0-6-49"
         style="fill:url(#linearGradient105191);fill-opacity:1;stroke-width:0.999999"
         d="m 36.000008,141.64998 -47.000013,2e-5 c -12,0 -15,16 -24,16 l -30.999988,-2e-5 c -6.093997,0 -10.999975,4.906 -10.999975,10.99996 V 231.65 c 0,6.094 4.905978,11.00002 10.999975,11.00002 H 36.000008 c 6.093997,0 10.999975,-4.90602 10.999975,-11.00002 v -79.00006 c 0,-6.09396 -4.905978,-10.99996 -10.999975,-10.99996 z"
         sodipodi:nodetypes="sccssssssss" />
    </g>
    <g
       id="g6333"
       transform="translate(4,-6.00005)">
      <path
         id="rect4505-0-9-4"
         d="m 60,248.64999 c -13.296,0 -24,10.704 -24,24 0,13.29597 10.704,24 24,24 13.296,0 24,-10.70403 24,-24 0,-13.296 -10.704,-24 -24,-24 z m -14,15 h 6 l 8,9 8,-9 h 6 v 20 h -6 v -11 l -6,6 h -2 -2 l -6,-6 v 11 h -6 z"
         style="opacity:1;fill:#b24444;fill-opacity:1;stroke:none;stroke-width:1.85164022;stroke-linecap:round;stroke-linejoin:round;stroke-miterlimit:4;stroke-dasharray:none;stroke-opacity:1"
         inkscape:connector-curvature="0" />
      <path
         id="rect4505-0-9"
         d="m 60,247.64999 c -13.296,0 -24,10.704 -24,24 0,13.29597 10.704,24 24,24 13.296,0 24,-10.70403 24,-24 0,-13.296 -10.704,-24 -24,-24 z m -14,15 h 6 l 8,9 8,-9 h 6 v 20 h -6 v -11 l -6,6 h -2 -2 l -6,-6 v 11 h -6 z"
         style="opacity:1;fill:url(#linearGradient2681);fill-opacity:1;stroke:none;stroke-width:1.85164022;stroke-linecap:round;stroke-linejoin:round;stroke-miterlimit:4;stroke-dasharray:none;stroke-opacity:1"
         inkscape:connector-curvature="0" />
    </g>
  </g>
</svg>
