<?xml version="1.0" encoding="UTF-8" standalone="no"?>
<!-- Created with Inkscape (http://www.inkscape.org/) -->

<svg
   xmlns:dc="http://purl.org/dc/elements/1.1/"
   xmlns:cc="http://creativecommons.org/ns#"
   xmlns:rdf="http://www.w3.org/1999/02/22-rdf-syntax-ns#"
   xmlns:svg="http://www.w3.org/2000/svg"
   xmlns="http://www.w3.org/2000/svg"
   xmlns:xlink="http://www.w3.org/1999/xlink"
   xmlns:sodipodi="http://sodipodi.sourceforge.net/DTD/sodipodi-0.dtd"
   xmlns:inkscape="http://www.inkscape.org/namespaces/inkscape"
   width="128"
   height="128"
   viewBox="0 0 128 128"
   version="1.1"
   id="svg8"
   inkscape:version="0.92.2 2405546, 2018-03-11"
   sodipodi:docname="alt-favorites.svg">
  <title
     id="title7895">Antu icon Theme</title>
  <defs
     id="defs2">
    <linearGradient
       gradientTransform="matrix(2,0,0,2,-54,-484.65001)"
       inkscape:collect="always"
       xlink:href="#linearGradient3041"
       id="linearGradient948-3"
       x1="17"
       y1="371.64999"
       x2="17"
       y2="346.64999"
       gradientUnits="userSpaceOnUse" />
    <linearGradient
       inkscape:collect="always"
       id="linearGradient3041">
      <stop
         style="stop-color:#cc4444;stop-opacity:1"
         offset="0"
         id="stop3037" />
      <stop
         style="stop-color:#ec4f4f;stop-opacity:1"
         offset="1"
         id="stop3039" />
    </linearGradient>
    <linearGradient
       gradientTransform="matrix(2.0000005,0,0,2.0000005,-198.00005,-298.65016)"
       gradientUnits="userSpaceOnUse"
       y2="279.64999"
       x2="109.99998"
       y1="300.64999"
       x1="109.99998"
       id="linearGradient926"
       xlink:href="#linearGradient4631"
       inkscape:collect="always" />
    <linearGradient
       id="linearGradient4631"
       inkscape:collect="always">
      <stop
         id="stop4627"
         offset="0"
         style="stop-color:#f2c2ca;stop-opacity:1" />
      <stop
         id="stop4629"
         offset="1"
         style="stop-color:#ffffff;stop-opacity:1" />
    </linearGradient>
    <linearGradient
       gradientTransform="matrix(2,0,0,2,-54,-484.65001)"
       inkscape:collect="always"
       xlink:href="#linearGradient1474"
       id="linearGradient980-0"
       x1="41"
       y1="404.64999"
       x2="41"
       y2="354.64999"
       gradientUnits="userSpaceOnUse" />
    <linearGradient
       inkscape:collect="always"
       id="linearGradient1474">
      <stop
         style="stop-color:#ec4e4e;stop-opacity:1"
         offset="0"
         id="stop1470" />
      <stop
         style="stop-color:#fb6565;stop-opacity:1"
         offset="1"
         id="stop1472" />
    </linearGradient>
  </defs>
  <sodipodi:namedview
     id="base"
     pagecolor="#ffffff"
     bordercolor="#666666"
     borderopacity="1.0"
     inkscape:pageopacity="0.0"
     inkscape:pageshadow="2"
     inkscape:zoom="1.979899"
     inkscape:cx="57.707653"
     inkscape:cy="43.751522"
     inkscape:document-units="px"
     inkscape:current-layer="layer1"
     showgrid="true"
     units="px"
     inkscape:window-width="1360"
     inkscape:window-height="711"
     inkscape:window-x="0"
     inkscape:window-y="28"
     inkscape:window-maximized="1"
     objecttolerance="10"
     gridtolerance="10"
     guidetolerance="10"
     inkscape:snap-bbox="true"
     inkscape:bbox-nodes="true"
     inkscape:snap-bbox-edge-midpoints="true"
     inkscape:snap-bbox-midpoints="true"
     inkscape:object-paths="true"
     inkscape:snap-intersection-paths="true"
     inkscape:bbox-paths="true">
    <inkscape:grid
       type="xygrid"
       id="grid7897"
       empspacing="4" />
  </sodipodi:namedview>
  <metadata
     id="metadata5">
    <rdf:RDF>
      <cc:Work
         rdf:about="">
        <dc:format>image/svg+xml</dc:format>
        <dc:type
           rdf:resource="http://purl.org/dc/dcmitype/StillImage" />
        <dc:title>Antu icon Theme</dc:title>
      </cc:Work>
    </rdf:RDF>
  </metadata>
  <g
     inkscape:label="Capa 1"
     inkscape:groupmode="layer"
     id="layer1"
     transform="translate(0,-186.64999)">
    <g
       id="g13296"
       transform="translate(42,-15.99998)">
      <path
         id="path1651-6"
         d="m -34,207.64997 c -3.860703,0 -7,3.1393 -7,7 v 104 c 0,3.8607 3.139297,7 7,7 H 78 c 3.8607,0 7,-3.1393 7,-7 v -88 c 0,-3.8607 -3.1393,-7 -7,-7 H 22 c -0.716666,0 -1.721469,-0.70632 -2.859375,-2.125 -1.137904,-1.41868 -2.355204,-3.40752 -3.679687,-5.42578 -1.324484,-2.01826 -2.760475,-4.07436 -4.445313,-5.67578 C 9.330789,208.82197 7.333334,207.64997 5,207.64997 Z"
         style="color:#000000;font-style:normal;font-variant:normal;font-weight:normal;font-stretch:normal;font-size:medium;line-height:normal;font-family:sans-serif;font-variant-ligatures:normal;font-variant-position:normal;font-variant-caps:normal;font-variant-numeric:normal;font-variant-alternates:normal;font-feature-settings:normal;text-indent:0;text-align:start;text-decoration:none;text-decoration-line:none;text-decoration-style:solid;text-decoration-color:#000000;letter-spacing:normal;word-spacing:normal;text-transform:none;writing-mode:lr-tb;direction:ltr;text-orientation:mixed;dominant-baseline:auto;baseline-shift:baseline;text-anchor:start;white-space:normal;shape-padding:0;clip-rule:nonzero;display:inline;overflow:visible;visibility:visible;opacity:1;isolation:auto;mix-blend-mode:normal;color-interpolation:sRGB;color-interpolation-filters:linearRGB;solid-color:#000000;solid-opacity:1;vector-effect:none;fill:#993434;fill-opacity:1;fill-rule:nonzero;stroke:none;stroke-width:2;stroke-linecap:round;stroke-linejoin:round;stroke-miterlimit:4;stroke-dasharray:none;stroke-dashoffset:0;stroke-opacity:1;color-rendering:auto;image-rendering:auto;shape-rendering:auto;text-rendering:auto;enable-background:accumulate"
         inkscape:connector-curvature="0" />
      <path
         sodipodi:nodetypes="sccssssssss"
         inkscape:connector-curvature="0"
         id="rect1558-4"
         d="M -34,208.64997 H 5 c 8,0 12,16 17,16 h 56 c 3.324,0 6,2.676 6,6 v 88 c 0,3.324 -2.676,6 -6,6 H -34 c -3.324,0 -6,-2.676 -6,-6 v -104 c 0,-3.324 2.676,-6 6,-6 z"
         style="opacity:1;vector-effect:none;fill:url(#linearGradient948-3);fill-opacity:1;stroke:none;stroke-width:2;stroke-linecap:round;stroke-linejoin:round;stroke-miterlimit:4;stroke-dasharray:none;stroke-dashoffset:0;stroke-opacity:1" />
      <path
         id="path1644-6"
         d="m 22,223.64997 c -1.783334,0 -3.153529,1.29368 -4.421875,2.875 -1.268344,1.58132 -2.488546,3.59248 -3.789063,5.57422 -1.300516,1.98174 -2.677023,3.92564 -4.148437,5.32422 C 8.169213,238.82197 6.666666,239.64997 5,239.64997 h -39 c -3.860703,0 -7,3.1393 -7,7 v 72 c 0,3.8607 3.139297,7 7,7 H 78 c 3.8607,0 7,-3.1393 7,-7 v -88 c 0,-3.8607 -3.1393,-7 -7,-7 z"
         style="color:#000000;font-style:normal;font-variant:normal;font-weight:normal;font-stretch:normal;font-size:medium;line-height:normal;font-family:sans-serif;font-variant-ligatures:normal;font-variant-position:normal;font-variant-caps:normal;font-variant-numeric:normal;font-variant-alternates:normal;font-feature-settings:normal;text-indent:0;text-align:start;text-decoration:none;text-decoration-line:none;text-decoration-style:solid;text-decoration-color:#000000;letter-spacing:normal;word-spacing:normal;text-transform:none;writing-mode:lr-tb;direction:ltr;text-orientation:mixed;dominant-baseline:auto;baseline-shift:baseline;text-anchor:start;white-space:normal;shape-padding:0;clip-rule:nonzero;display:inline;overflow:visible;visibility:visible;opacity:1;isolation:auto;mix-blend-mode:normal;color-interpolation:sRGB;color-interpolation-filters:linearRGB;solid-color:#000000;solid-opacity:1;vector-effect:none;fill:#b24444;fill-opacity:1;fill-rule:nonzero;stroke:none;stroke-width:2;stroke-linecap:round;stroke-linejoin:round;stroke-miterlimit:4;stroke-dasharray:none;stroke-dashoffset:0;stroke-opacity:1;color-rendering:auto;image-rendering:auto;shape-rendering:auto;text-rendering:auto;enable-background:accumulate"
         inkscape:connector-curvature="0" />
      <path
         sodipodi:nodetypes="sccssssssss"
         inkscape:connector-curvature="0"
         id="rect1558-6-2"
         d="M -34,240.64997 H 5 c 8,0 12,-16 17,-16 h 56 c 3.324,0 6,2.676 6,6 v 88 c 0,3.324 -2.676,6 -6,6 H -34 c -3.324,0 -6,-2.676 -6,-6 v -72 c 0,-3.324 2.676,-6 6,-6 z"
         style="opacity:1;vector-effect:none;fill:url(#linearGradient980-0);fill-opacity:1;stroke:none;stroke-width:2;stroke-linecap:round;stroke-linejoin:round;stroke-miterlimit:4;stroke-dasharray:none;stroke-dashoffset:0;stroke-opacity:1" />
      <path
         style="opacity:0.98999999;vector-effect:none;fill:#b24444;fill-opacity:1;stroke:none;stroke-width:4.00000095;stroke-linecap:round;stroke-linejoin:round;stroke-miterlimit:4;stroke-dasharray:none;stroke-dashoffset:0;stroke-opacity:1"
         d="m 11.99999,261.65003 c -7.693939,0 -13.893367,6.1468 -13.992191,13.81642 -0.0054,0.061 -0.008,0.1222 -0.0078,0.1836 0,0.5064 0.0262,1.00392 0.07812,1.4961 0.391776,5.9017 3.038907,10.95931 6.925784,15.33203 4.213819,4.74058 9.844054,8.8075 15.886722,12.83594 0.671804,0.4478 1.546948,0.4478 2.218744,0 6.042682,-4.02844 11.672903,-8.09536 15.886724,-12.83594 3.886881,-4.37272 6.534022,-9.4303 6.925782,-15.33203 0.0518,-0.49218 0.0782,-0.98972 0.0782,-1.4961 -5.8e-4,-0.0666 -0.004,-0.133 -0.012,-0.1992 -0.1072,-7.6622 -6.299602,-13.80078 -13.988204,-13.80078 -3.92586,0 -7.462581,1.60164 -9.999994,4.1875 -2.537417,-2.58586 -6.074148,-4.1875 -10.000007,-4.1875 z"
         id="rect833-3-2"
         inkscape:connector-curvature="0"
         sodipodi:nodetypes="sccccccccccscs" />
      <path
         style="opacity:0.98999999;vector-effect:none;fill:url(#linearGradient926);fill-opacity:1;stroke:none;stroke-width:4.00000095;stroke-linecap:round;stroke-linejoin:round;stroke-miterlimit:4;stroke-dasharray:none;stroke-dashoffset:0;stroke-opacity:1"
         d="m 11.999964,260.65003 c -7.693941,0 -13.893369,6.1468 -13.992193,13.81642 -0.0054,0.061 -0.008,0.1222 -0.0078,0.1836 0,0.5064 0.0262,1.00392 0.07812,1.4961 0.391776,5.9017 3.038907,10.95931 6.925792,15.33203 4.213801,4.74058 9.844042,8.8075 15.886694,12.83594 0.67182,0.4478 1.54696,0.4478 2.21876,0 6.042674,-4.02844 11.672895,-8.09536 15.886716,-12.83594 3.886881,-4.37272 6.534022,-9.4303 6.925782,-15.33203 0.0518,-0.49218 0.0782,-0.98972 0.0782,-1.4961 -5.8e-4,-0.0666 -0.004,-0.133 -0.012,-0.1992 -0.1072,-7.6622 -6.299602,-13.80078 -13.988204,-13.80078 -3.92586,0 -7.462573,1.60164 -9.999994,4.1875 -2.537421,-2.58586 -6.074132,-4.1875 -9.999993,-4.1875 z"
         id="rect833-3-2-9"
         inkscape:connector-curvature="0"
         sodipodi:nodetypes="sccccccccccscs" />
    </g>
  </g>
</svg>
