<?xml version="1.0" encoding="UTF-8" standalone="no"?>
<!-- Created with Inkscape (http://www.inkscape.org/) -->

<svg
   xmlns:dc="http://purl.org/dc/elements/1.1/"
   xmlns:cc="http://creativecommons.org/ns#"
   xmlns:rdf="http://www.w3.org/1999/02/22-rdf-syntax-ns#"
   xmlns:svg="http://www.w3.org/2000/svg"
   xmlns="http://www.w3.org/2000/svg"
   xmlns:xlink="http://www.w3.org/1999/xlink"
   xmlns:sodipodi="http://sodipodi.sourceforge.net/DTD/sodipodi-0.dtd"
   xmlns:inkscape="http://www.inkscape.org/namespaces/inkscape"
   width="128"
   height="128"
   viewBox="0 0 128 128"
   version="1.1"
   id="svg8"
   inkscape:version="0.91 r13725"
   sodipodi:docname="arch.svg">
  <title
     id="title7895">Antu icon Theme</title>
  <defs
     id="defs2">
    <linearGradient
       gradientTransform="matrix(3.7795275,0,0,3.7795275,-27.743682,-849.68691)"
       inkscape:collect="always"
       xlink:href="#linearGradient4565"
       id="linearGradient4581"
       x1="32.740517"
       y1="304.88913"
       x2="32.740517"
       y2="278.43082"
       gradientUnits="userSpaceOnUse" />
    <linearGradient
       inkscape:collect="always"
       id="linearGradient4565">
      <stop
         style="stop-color:#1780f2;stop-opacity:1"
         offset="0"
         id="stop4561" />
      <stop
         style="stop-color:#02b3fe;stop-opacity:1"
         offset="1"
         id="stop4563" />
    </linearGradient>
  </defs>
  <sodipodi:namedview
     id="base"
     pagecolor="#ffffff"
     bordercolor="#666666"
     borderopacity="1.0"
     inkscape:pageopacity="0.0"
     inkscape:pageshadow="2"
     inkscape:zoom="0.35"
     inkscape:cx="446.65075"
     inkscape:cy="-87.609548"
     inkscape:document-units="px"
     inkscape:current-layer="g1525"
     showgrid="true"
     units="px"
     inkscape:window-width="1360"
     inkscape:window-height="697"
     inkscape:window-x="0"
     inkscape:window-y="0"
     inkscape:window-maximized="1"
     objecttolerance="10"
     gridtolerance="10"
     guidetolerance="10">
    <inkscape:grid
       type="xygrid"
       id="grid7897"
       empspacing="4" />
  </sodipodi:namedview>
  <metadata
     id="metadata5">
    <rdf:RDF>
      <cc:Work
         rdf:about="">
        <dc:format>image/svg+xml</dc:format>
        <dc:type
           rdf:resource="http://purl.org/dc/dcmitype/StillImage" />
        <dc:title>Antu icon Theme</dc:title>
      </cc:Work>
    </rdf:RDF>
  </metadata>
  <g
     inkscape:label="Capa 1"
     inkscape:groupmode="layer"
     id="layer1"
     transform="translate(0,-186.64999)">
    <g
       id="g1525"
       transform="translate(-32,-4)">
      <path
         style="opacity:1;fill:#1463bf;fill-opacity:1;stroke:none;stroke-width:0.18711726;stroke-miterlimit:4;stroke-dasharray:none;stroke-opacity:1"
         d="m 96.000003,191.64999 c 34.901997,0 62.999997,28.09799 62.999997,63 0,34.90197 -28.098,63 -62.999997,63 -34.902002,0 -63.000003,-28.09803 -63.000003,-63 0,-34.90201 28.098001,-63 63.000003,-63 z"
         id="rect4500"
         inkscape:connector-curvature="0" />
      <path
         style="opacity:1;fill:url(#linearGradient4581);fill-opacity:1.0;stroke:none;stroke-width:0.18414716;stroke-miterlimit:4;stroke-dasharray:none;stroke-opacity:1"
         d="m 96.000003,192.64998 c 34.347997,0 61.999997,27.652 61.999997,62.00001 0,34.348 -27.652,62.00001 -61.999997,62.00001 -34.348002,0 -62.000005,-27.65201 -62.000005,-62.00001 0,-34.34801 27.652003,-62.00001 62.000005,-62.00001 z"
         id="rect4500-3"
         inkscape:connector-curvature="0" />
      <path
         inkscape:connector-curvature="0"
         id="path4199-2"
         d="m 95.999978,219.65007 c -8.749992,30.62491 -34.999964,69.99992 -34.999964,69.99992 9.900675,-6.60051 18.455241,-9.88855 26.805396,-11.51001 a 8.7499921,10.93749 0 0 1 -0.239284,-0.8801 8.7499921,10.93749 0 0 1 -0.187989,-1.05962 8.7499921,10.93749 0 0 1 -0.10255,-1.08518 8.7499921,10.93749 0 0 1 -0.02567,-0.77759 8.7499921,10.93749 0 0 1 0.0429,-1.09375 8.7499921,10.93749 0 0 1 0.128177,-1.07664 8.7499921,10.93749 0 0 1 0.222173,-1.0596 8.7499921,10.93749 0 0 1 0.299056,-1.02545 8.7499921,10.93749 0 0 1 0.37598,-0.9912 8.7499921,10.93749 0 0 1 0.46142,-0.93138 8.7499921,10.93749 0 0 1 0.529782,-0.87157 8.7499921,10.93749 0 0 1 0.598151,-0.79468 8.7499921,10.93749 0 0 1 0.649406,-0.72627 8.7499921,10.93749 0 0 1 0.717783,-0.63239 8.7499921,10.93749 0 0 1 0.760493,-0.54685 8.7499921,10.93749 0 0 1 0.794673,-0.44434 8.7499921,10.93749 0 0 1 0.82886,-0.34184 8.7499921,10.93749 0 0 1 0.854495,-0.23917 8.7499921,10.93749 0 0 1 0.871577,-0.1365 8.7499921,10.93749 0 0 1 0.615234,-0.0272 8.7499921,10.93749 0 0 1 0.87158,0.0513 8.7499921,10.93749 0 0 1 0.86303,0.17112 8.7499921,10.93749 0 0 1 0.8545,0.26522 8.7499921,10.93749 0 0 1 0.82031,0.37567 8.7499921,10.93749 0 0 1 0.786133,0.47849 8.7499921,10.93749 0 0 1 0.74341,0.57252 8.7499921,10.93749 0 0 1 0.70068,0.65796 8.7499921,10.93749 0 0 1 0.64087,0.7434 8.7499921,10.93749 0 0 1 0.57251,0.82033 8.7499921,10.93749 0 0 1 0.5127,0.88869 8.7499921,10.93749 0 0 1 0.43579,0.94843 8.7499921,10.93749 0 0 1 0.35035,0.9998 8.7499921,10.93749 0 0 1 0.28199,1.04245 8.7499921,10.93749 0 0 1 0.18798,1.05961 8.7499921,10.93749 0 0 1 0.1026,1.0852 8.7499921,10.93749 0 0 1 0.0257,0.77757 8.7499921,10.93749 0 0 1 -0.0429,1.09376 8.7499921,10.93749 0 0 1 -0.12818,1.07666 8.7499921,10.93749 0 0 1 -0.22217,1.05957 8.7499921,10.93749 0 0 1 -0.16236,0.57251 c 8.35015,1.62144 16.90472,4.9095 26.80539,11.50996 0,0 -26.24997,-39.37492 -34.999965,-69.99991 z"
         style="fill:#1463bf;fill-opacity:1;fill-rule:evenodd;stroke:none;stroke-width:1px;stroke-linecap:butt;stroke-linejoin:miter;stroke-opacity:1" />
      <path
         inkscape:connector-curvature="0"
         id="path4199-2-9"
         d="m 95.999957,218.65008 c -8.74999,30.62491 -34.999956,69.99991 -34.999956,69.99991 9.900672,-6.6005 18.455237,-9.88855 26.80539,-11.51 a 8.7499901,10.937487 0 0 1 -0.239284,-0.88011 8.7499901,10.937487 0 0 1 -0.187989,-1.05961 8.7499901,10.937487 0 0 1 -0.10255,-1.08519 8.7499901,10.937487 0 0 1 -0.02567,-0.77759 8.7499901,10.937487 0 0 1 0.0429,-1.09375 8.7499901,10.937487 0 0 1 0.128177,-1.07664 8.7499901,10.937487 0 0 1 0.222173,-1.0596 8.7499901,10.937487 0 0 1 0.299056,-1.02544 8.7499901,10.937487 0 0 1 0.375979,-0.9912 8.7499901,10.937487 0 0 1 0.461421,-0.93138 8.7499901,10.937487 0 0 1 0.529781,-0.87158 8.7499901,10.937487 0 0 1 0.598151,-0.79467 8.7499901,10.937487 0 0 1 0.649406,-0.72627 8.7499901,10.937487 0 0 1 0.717783,-0.6324 8.7499901,10.937487 0 0 1 0.760493,-0.54685 8.7499901,10.937487 0 0 1 0.794672,-0.44433 8.7499901,10.937487 0 0 1 0.828861,-0.34184 8.7499901,10.937487 0 0 1 0.854495,-0.23918 8.7499901,10.937487 0 0 1 0.871576,-0.1365 8.7499901,10.937487 0 0 1 0.615234,-0.0273 8.7499901,10.937487 0 0 1 0.87158,0.0513 8.7499901,10.937487 0 0 1 0.863033,0.17111 8.7499901,10.937487 0 0 1 0.85449,0.26523 8.7499901,10.937487 0 0 1 0.82032,0.37567 8.7499901,10.937487 0 0 1 0.786131,0.47848 8.7499901,10.937487 0 0 1 0.74341,0.57252 8.7499901,10.937487 0 0 1 0.70068,0.65797 8.7499901,10.937487 0 0 1 0.64087,0.7434 8.7499901,10.937487 0 0 1 0.57251,0.82031 8.7499901,10.937487 0 0 1 0.5127,0.8887 8.7499901,10.937487 0 0 1 0.43579,0.94843 8.7499901,10.937487 0 0 1 0.35035,0.9998 8.7499901,10.937487 0 0 1 0.28198,1.04245 8.7499901,10.937487 0 0 1 0.18798,1.05961 8.7499901,10.937487 0 0 1 0.10264,1.08519 8.7499901,10.937487 0 0 1 0.0257,0.77759 8.7499901,10.937487 0 0 1 -0.0429,1.09376 8.7499901,10.937487 0 0 1 -0.12818,1.07665 8.7499901,10.937487 0 0 1 -0.22216,1.05956 8.7499901,10.937487 0 0 1 -0.16236,0.57252 c 8.35014,1.62144 16.90472,4.90949 26.80538,11.50995 0,0 -26.24996,-39.3749 -34.999954,-69.99989 z"
         style="fill:#f1f9ff;fill-opacity:1;fill-rule:evenodd;stroke:none;stroke-width:1px;stroke-linecap:butt;stroke-linejoin:miter;stroke-opacity:1" />
    </g>
  </g>
</svg>
