<?xml version="1.0" encoding="UTF-8" standalone="no"?>
<!-- Created with Inkscape (http://www.inkscape.org/) -->

<svg
   xmlns:dc="http://purl.org/dc/elements/1.1/"
   xmlns:cc="http://creativecommons.org/ns#"
   xmlns:rdf="http://www.w3.org/1999/02/22-rdf-syntax-ns#"
   xmlns:svg="http://www.w3.org/2000/svg"
   xmlns="http://www.w3.org/2000/svg"
   xmlns:xlink="http://www.w3.org/1999/xlink"
   xmlns:sodipodi="http://sodipodi.sourceforge.net/DTD/sodipodi-0.dtd"
   xmlns:inkscape="http://www.inkscape.org/namespaces/inkscape"
   width="128"
   height="128"
   viewBox="0 0 128 128"
   version="1.1"
   id="svg8"
   inkscape:version="0.92.4 5da689c313, 2019-01-14"
   sodipodi:docname="elementaryos.svg">
  <title
     id="title7895">Antu icon Theme</title>
  <defs
     id="defs2">
    <linearGradient
       gradientTransform="matrix(3.7795276,0,0,3.7795276,-69.000001,-710.86971)"
       inkscape:collect="always"
       xlink:href="#linearGradient878"
       id="linearGradient880"
       x1="5.8208323"
       y1="294.88333"
       x2="5.8208323"
       y2="262.60416"
       gradientUnits="userSpaceOnUse" />
    <linearGradient
       inkscape:collect="always"
       id="linearGradient878">
      <stop
         style="stop-color:#3a9ae7;stop-opacity:1"
         offset="0"
         id="stop874" />
      <stop
         style="stop-color:#5ec6eb;stop-opacity:1"
         offset="1"
         id="stop876" />
    </linearGradient>
  </defs>
  <sodipodi:namedview
     id="base"
     pagecolor="#ffffff"
     bordercolor="#666666"
     borderopacity="1.0"
     inkscape:pageopacity="0.0"
     inkscape:pageshadow="2"
     inkscape:zoom="5.6"
     inkscape:cx="107.12123"
     inkscape:cy="39.724264"
     inkscape:document-units="px"
     inkscape:current-layer="g847"
     showgrid="true"
     units="px"
     inkscape:window-width="1870"
     inkscape:window-height="1141"
     inkscape:window-x="50"
     inkscape:window-y="30"
     inkscape:window-maximized="1"
     objecttolerance="10"
     gridtolerance="10"
     guidetolerance="10">
    <inkscape:grid
       type="xygrid"
       id="grid7897"
       empspacing="4" />
  </sodipodi:namedview>
  <metadata
     id="metadata5">
    <rdf:RDF>
      <cc:Work
         rdf:about="">
        <dc:format>image/svg+xml</dc:format>
        <dc:type
           rdf:resource="http://purl.org/dc/dcmitype/StillImage" />
        <dc:title>Antu icon Theme</dc:title>
      </cc:Work>
    </rdf:RDF>
  </metadata>
  <g
     inkscape:label="Capa 1"
     inkscape:groupmode="layer"
     id="layer1"
     transform="translate(0,-186.64999)">
    <g
       id="g1525"
       transform="translate(-32,-4)">
      <g
         id="g847"
         transform="translate(144,-88)">
        <path
           style="overflow:visible;opacity:1;fill:#1c71a7;fill-opacity:1;stroke:none;stroke-width:0.18711726;stroke-miterlimit:4;stroke-dasharray:none;stroke-opacity:1"
           d="m -48,279.64999 c 34.901999,0 62.999999,28.09799 62.999999,63 0,34.90197 -28.098,63 -62.999999,63 -34.902,0 -63,-28.09803 -63,-63 0,-34.90201 28.098,-63 63,-63 z"
           id="rect4500-6"
           inkscape:connector-curvature="0" />
        <path
           style="overflow:visible;opacity:1;fill:url(#linearGradient880);fill-opacity:1;stroke:none;stroke-width:0.18414716;stroke-miterlimit:4;stroke-dasharray:none;stroke-opacity:1"
           d="m -48,280.64998 c 34.347999,0 61.999999,27.652 61.999999,62.00001 0,34.34801 -27.652,62.00001 -61.999999,62.00001 -34.347999,0 -62,-27.652 -62,-62.00001 0,-34.34801 27.652001,-62.00001 62,-62.00001 z"
           id="rect4500-3-1"
           inkscape:connector-curvature="0" />
        <path
           d="m -48.000001,297.64999 c -25.40509,0 -45.999985,20.59491 -45.999985,46.00003 0,25.40511 20.594895,45.99998 45.999985,45.99998 25.40509,0 45.9999898,-20.59487 45.9999898,-45.99998 0,-25.40512 -20.5948998,-46.00003 -45.9999898,-46.00003 z m 0,3.83335 c 19.315,0 35.59692,12.9871 40.5901998,30.70499 -4.3007098,8.87067 -10.4203198,16.85745 -17.8729098,23.31149 -3.58015,3.10038 -7.48893,5.86431 -11.80667,7.81039 -4.31773,1.94608 -9.066923,3.05031 -13.795202,2.77916 -3.55245,-0.20334 -7.061695,-1.19331 -10.172709,-2.91809 8.244749,-4.46756 15.683836,-10.42417 21.773331,-17.5567 3.99702,-4.6817 7.49411,-10.00222 8.84062,-16.00895 0.67326,-3.0034 0.78735,-6.1488 0.15814,-9.16173 -0.62923,-3.01288 -2.02227,-5.88408 -4.13041,-8.12662 -2.05954,-2.19084 -4.76324,-3.74287 -7.66188,-4.54258 -2.898641,-0.79959 -5.983302,-0.86158 -8.941248,-0.32126 -5.915882,1.0811 -11.197685,4.51934 -15.43395,8.78789 -7.467024,7.52395 -12.08322,18.14042 -11.236458,28.70692 0.423391,5.28321 2.193862,10.47469 5.227712,14.82062 0.677195,0.96998 1.421684,1.89407 2.218536,2.76956 -4.419663,1.54674 -8.995869,2.64779 -13.637078,3.26793 -3.984797,-6.43888 -6.286665,-14.02809 -6.286665,-22.15672 0,-23.28798 18.878654,-42.16664 42.166654,-42.16664 z m 0.268335,8.51958 c 2.964146,0.004 5.948435,0.90142 8.313535,2.68812 2.13085,1.60977 3.70974,3.89994 4.60479,6.41605 0.89506,2.5161 1.12476,5.2484 0.81938,7.90144 -0.61076,5.30608 -3.28753,10.17218 -6.52146,14.42294 -5.726083,7.52648 -13.337207,13.55051 -21.802075,17.76752 -0.866448,0.43144 -1.746624,0.84185 -2.630625,1.23621 -1.841891,-1.61182 -3.420592,-3.52358 -4.623956,-5.65421 -2.514474,-4.45194 -3.343674,-9.74049 -2.855836,-14.83019 0.487845,-5.08966 2.234499,-9.99503 4.580834,-14.53787 2.720474,-5.26731 6.428705,-10.25647 11.619786,-13.11961 2.595543,-1.43154 5.531473,-2.2944 8.495627,-2.2904 z m 41.5197748,28.00248 c 0.24707,1.84657 0.37853,3.73047 0.37853,5.64462 0,23.28797 -18.8786398,42.16664 -42.1666478,42.16664 -13.078776,0 -24.76758,-5.95393 -32.501862,-15.2998 4.77382,-1.08423 9.439644,-2.64166 13.914992,-4.62395 1.95711,1.49054 4.118491,2.71295 6.416041,3.59377 6.616485,2.53663 14.128413,2.16956 20.824577,-0.14854 6.69617,-2.31813 12.63416,-6.4789 17.81062,-11.31787 6.16651,-5.76461 11.36569,-12.5591 15.3237498,-20.01487 z"
           id="path2993-5-3"
           style="color:#000000;display:inline;overflow:visible;visibility:visible;fill:#1c71a7;fill-opacity:1;fill-rule:nonzero;stroke:none;stroke-width:1.21052587;marker:none;enable-background:accumulate"
           inkscape:connector-curvature="0" />
        <path
           inkscape:connector-curvature="0"
           style="color:#000000;display:inline;overflow:visible;visibility:visible;fill:#eff9fd;fill-opacity:1;fill-rule:nonzero;stroke:none;stroke-width:1.21052587;marker:none;enable-background:accumulate"
           id="path2993-5"
           d="m -48.000003,296.65 c -25.40509,0 -45.999986,20.59491 -45.999986,46.00003 0,25.40511 20.594896,45.99999 45.999986,45.99999 25.405092,0 45.9999818,-20.59488 45.9999818,-45.99999 0,-25.40512 -20.5948898,-46.00003 -45.9999818,-46.00003 z m 0,3.83335 c 19.314992,0 35.596912,12.9871 40.5902018,30.705 -4.3007198,8.87066 -10.4203198,16.85744 -17.8729098,23.31148 -3.58015,3.10038 -7.48893,5.86431 -11.80667,7.81039 -4.31773,1.94608 -9.066924,3.05031 -13.795204,2.77917 -3.552449,-0.20334 -7.061695,-1.19331 -10.172709,-2.9181 8.244749,-4.46755 15.683836,-10.42417 21.773333,-17.5567 3.99702,-4.6817 7.49411,-10.00222 8.84062,-16.00895 0.67325,-3.0034 0.78735,-6.1488 0.15813,-9.16172 -0.62922,-3.01289 -2.02226,-5.88408 -4.1304,-8.12663 -2.05954,-2.19084 -4.76324,-3.74287 -7.66188,-4.54258 -2.898642,-0.79959 -5.983303,-0.86158 -8.941248,-0.32126 -5.915883,1.0811 -11.197686,4.51934 -15.433952,8.7879 -7.467023,7.52394 -12.083219,18.14041 -11.236456,28.70691 0.42339,5.28321 2.193862,10.47469 5.22771,14.82062 0.677196,0.96998 1.421684,1.89407 2.218536,2.76956 -4.419663,1.54674 -8.995867,2.64779 -13.637076,3.26793 -3.984799,-6.43887 -6.286667,-14.02809 -6.286667,-22.15672 0,-23.28798 18.878654,-42.16664 42.166655,-42.16664 z m 0.268336,8.51958 c 2.964145,0.004 5.948436,0.90142 8.313536,2.68812 2.13085,1.60977 3.70974,3.89994 4.60479,6.41605 0.89505,2.51611 1.12476,5.2484 0.81938,7.90144 -0.61076,5.30608 -3.28753,10.17218 -6.52146,14.42294 -5.726085,7.52648 -13.337208,13.55052 -21.802077,17.76752 -0.866449,0.43144 -1.746625,0.84186 -2.630625,1.23621 -1.841891,-1.61181 -3.420592,-3.52358 -4.623956,-5.65421 -2.514475,-4.45194 -3.343673,-9.74048 -2.855836,-14.83018 0.487846,-5.08967 2.234499,-9.99504 4.580834,-14.53788 2.720474,-5.2673 6.428705,-10.25647 11.619786,-13.11961 2.595543,-1.43154 5.531473,-2.2944 8.495628,-2.2904 z m 41.5197758,28.00249 c 0.24706,1.84656 0.37853,3.73047 0.37853,5.64461 0,23.28797 -18.8786498,42.16664 -42.1666498,42.16664 -13.078776,0 -24.76758,-5.95393 -32.501863,-15.29979 4.773821,-1.08424 9.439645,-2.64167 13.914994,-4.62395 1.957108,1.49053 4.11849,2.71294 6.41604,3.59376 6.616485,2.53663 14.128413,2.16956 20.824579,-0.14853 6.69617,-2.31814 12.63416,-6.47891 17.81062,-11.31788 6.16651,-5.76461 11.36568,-12.5591 15.3237498,-20.01486 z" />
      </g>
    </g>
  </g>
</svg>
