<?xml version="1.0" encoding="UTF-8" standalone="no"?>
<!-- Created with Inkscape (http://www.inkscape.org/) -->

<svg
   xmlns:dc="http://purl.org/dc/elements/1.1/"
   xmlns:cc="http://creativecommons.org/ns#"
   xmlns:rdf="http://www.w3.org/1999/02/22-rdf-syntax-ns#"
   xmlns:svg="http://www.w3.org/2000/svg"
   xmlns="http://www.w3.org/2000/svg"
   xmlns:xlink="http://www.w3.org/1999/xlink"
   xmlns:sodipodi="http://sodipodi.sourceforge.net/DTD/sodipodi-0.dtd"
   xmlns:inkscape="http://www.inkscape.org/namespaces/inkscape"
   width="128"
   height="128"
   viewBox="0 0 33.866666 33.866666"
   version="1.1"
   id="svg8"
   inkscape:version="0.92.3 (2405546, 2018-03-11)"
   sodipodi:docname="folder-games.svg">
  <defs
     id="defs2">
    <linearGradient
       id="linearGradient4631"
       inkscape:collect="always">
      <stop
         id="stop4627"
         offset="0"
         style="stop-color:#c2f0f2;stop-opacity:1" />
      <stop
         id="stop4629"
         offset="1"
         style="stop-color:#f2feff;stop-opacity:1" />
    </linearGradient>
    <linearGradient
       gradientUnits="userSpaceOnUse"
       y2="346.64999"
       x2="17"
       y1="362.14999"
       x1="17"
       id="linearGradient948"
       xlink:href="#linearGradient10239"
       inkscape:collect="always" />
    <linearGradient
       inkscape:collect="always"
       id="linearGradient10239">
      <stop
         style="stop-color:#348be7;stop-opacity:1"
         offset="0"
         id="stop10235" />
      <stop
         style="stop-color:#3997f1;stop-opacity:1"
         offset="1"
         id="stop10237" />
    </linearGradient>
    <linearGradient
       gradientUnits="userSpaceOnUse"
       y2="354.64999"
       x2="41"
       y1="404.64999"
       x1="41"
       id="linearGradient980"
       xlink:href="#linearGradient10231"
       inkscape:collect="always" />
    <linearGradient
       inkscape:collect="always"
       id="linearGradient10231">
      <stop
         style="stop-color:#3e9ff4;stop-opacity:1"
         offset="0"
         id="stop10227" />
      <stop
         style="stop-color:#50c2f9;stop-opacity:1"
         offset="1"
         id="stop10229" />
    </linearGradient>
    <linearGradient
       inkscape:collect="always"
       xlink:href="#linearGradient4631"
       id="linearGradient934"
       x1="32.499069"
       y1="47.998798"
       x2="32.499069"
       y2="27.998037"
       gradientUnits="userSpaceOnUse" />
  </defs>
  <sodipodi:namedview
     id="base"
     pagecolor="#ffffff"
     bordercolor="#666666"
     borderopacity="1.0"
     inkscape:pageopacity="0.0"
     inkscape:pageshadow="2"
     inkscape:zoom="1"
     inkscape:cx="217.13718"
     inkscape:cy="-37.309107"
     inkscape:document-units="px"
     inkscape:current-layer="g1971-1-1"
     showgrid="true"
     units="px"
     inkscape:showpageshadow="false"
     inkscape:snap-bbox="true"
     inkscape:bbox-paths="true"
     inkscape:bbox-nodes="true"
     inkscape:snap-bbox-edge-midpoints="true"
     inkscape:snap-bbox-midpoints="true"
     inkscape:object-paths="true"
     inkscape:snap-intersection-paths="true"
     inkscape:window-width="1250"
     inkscape:window-height="741"
     inkscape:window-x="30"
     inkscape:window-y="30"
     inkscape:window-maximized="1">
    <inkscape:grid
       type="xygrid"
       id="grid815" />
  </sodipodi:namedview>
  <metadata
     id="metadata5">
    <rdf:RDF>
      <cc:Work
         rdf:about="">
        <dc:format>image/svg+xml</dc:format>
        <dc:type
           rdf:resource="http://purl.org/dc/dcmitype/StillImage" />
        <dc:title></dc:title>
      </cc:Work>
    </rdf:RDF>
  </metadata>
  <g
     inkscape:label="Capa 1"
     inkscape:groupmode="layer"
     id="layer1"
     transform="translate(0,-263.13333)">
    <g
       id="g6216"
       transform="translate(13.229166,1.05834)">
      <g
         transform="matrix(0.5291465,0,0,0.5291465,34.395166,124.58924)"
         id="g1971-1-1"
         style="fill:#dcf2ff;fill-opacity:1">
        <g
           inkscape:label="Capa 1"
           id="layer1-3"
           transform="matrix(0.50001905,0,0,0.50001905,-90.002169,166.49694)">
          <g
             id="g5211"
             transform="translate(76,-3.999995)">
            <g
               transform="matrix(2,0,0,2,-88,-496.64999)"
               id="g1658">
              <path
                 id="path1651"
                 transform="matrix(0.5,0,0,0.5,5.5,263.64999)"
                 d="m 9,165 c -3.8607028,0 -7,3.1393 -7,7 v 104 c 0,3.8607 3.1392972,7 7,7 h 112 c 3.8607,0 7,-3.1393 7,-7 v -88 c 0,-3.8607 -3.1393,-7 -7,-7 H 65 c -0.716666,0 -1.721469,-0.70632 -2.859375,-2.125 -1.137904,-1.41868 -2.355204,-3.40752 -3.679687,-5.42578 -1.324484,-2.01826 -2.760475,-4.07436 -4.445313,-5.67578 C 52.330789,166.172 50.333334,165 48,165 Z"
                 style="color:#000000;font-style:normal;font-variant:normal;font-weight:normal;font-stretch:normal;font-size:medium;line-height:normal;font-family:sans-serif;font-variant-ligatures:normal;font-variant-position:normal;font-variant-caps:normal;font-variant-numeric:normal;font-variant-alternates:normal;font-feature-settings:normal;text-indent:0;text-align:start;text-decoration:none;text-decoration-line:none;text-decoration-style:solid;text-decoration-color:#000000;letter-spacing:normal;word-spacing:normal;text-transform:none;writing-mode:lr-tb;direction:ltr;text-orientation:mixed;dominant-baseline:auto;baseline-shift:baseline;text-anchor:start;white-space:normal;shape-padding:0;clip-rule:nonzero;display:inline;overflow:visible;visibility:visible;opacity:1;isolation:auto;mix-blend-mode:normal;color-interpolation:sRGB;color-interpolation-filters:linearRGB;solid-color:#000000;solid-opacity:1;vector-effect:none;fill:#286bb2;fill-opacity:1;fill-rule:nonzero;stroke:none;stroke-width:2;stroke-linecap:round;stroke-linejoin:round;stroke-miterlimit:4;stroke-dasharray:none;stroke-dashoffset:0;stroke-opacity:1;color-rendering:auto;image-rendering:auto;shape-rendering:auto;text-rendering:auto;enable-background:accumulate"
                 inkscape:connector-curvature="0" />
              <path
                 sodipodi:nodetypes="sccssssssss"
                 inkscape:connector-curvature="0"
                 id="rect1558"
                 d="m 10,346.64999 h 19.5 c 4,0 6,8 8.5,8 h 28 c 1.662,0 3,1.338 3,3 v 44 c 0,1.662 -1.338,3 -3,3 H 10 c -1.662,0 -3,-1.338 -3,-3 v -52 c 0,-1.662 1.338,-3 3,-3 z"
                 style="opacity:1;vector-effect:none;fill:url(#linearGradient948);fill-opacity:1;stroke:none;stroke-width:1;stroke-linecap:round;stroke-linejoin:round;stroke-miterlimit:4;stroke-dasharray:none;stroke-dashoffset:0;stroke-opacity:1" />
              <path
                 id="path1644"
                 transform="matrix(0.5,0,0,0.5,5.5,263.64999)"
                 d="m 65,181 c -1.783334,0 -3.153529,1.29368 -4.421875,2.875 -1.268344,1.58132 -2.488546,3.59248 -3.789063,5.57422 -1.300516,1.98174 -2.677023,3.92564 -4.148437,5.32422 C 51.169213,196.172 49.666666,197 48,197 H 9 c -3.8607028,0 -7,3.1393 -7,7 v 72 c 0,3.8607 3.1392972,7 7,7 h 112 c 3.8607,0 7,-3.1393 7,-7 v -88 c 0,-3.8607 -3.1393,-7 -7,-7 z"
                 style="color:#000000;font-style:normal;font-variant:normal;font-weight:normal;font-stretch:normal;font-size:medium;line-height:normal;font-family:sans-serif;font-variant-ligatures:normal;font-variant-position:normal;font-variant-caps:normal;font-variant-numeric:normal;font-variant-alternates:normal;font-feature-settings:normal;text-indent:0;text-align:start;text-decoration:none;text-decoration-line:none;text-decoration-style:solid;text-decoration-color:#000000;letter-spacing:normal;word-spacing:normal;text-transform:none;writing-mode:lr-tb;direction:ltr;text-orientation:mixed;dominant-baseline:auto;baseline-shift:baseline;text-anchor:start;white-space:normal;shape-padding:0;clip-rule:nonzero;display:inline;overflow:visible;visibility:visible;opacity:1;isolation:auto;mix-blend-mode:normal;color-interpolation:sRGB;color-interpolation-filters:linearRGB;solid-color:#000000;solid-opacity:1;vector-effect:none;fill:#3182d9;fill-opacity:1;fill-rule:nonzero;stroke:none;stroke-width:2;stroke-linecap:round;stroke-linejoin:round;stroke-miterlimit:4;stroke-dasharray:none;stroke-dashoffset:0;stroke-opacity:1;color-rendering:auto;image-rendering:auto;shape-rendering:auto;text-rendering:auto;enable-background:accumulate"
                 inkscape:connector-curvature="0" />
              <path
                 sodipodi:nodetypes="sccssssssss"
                 inkscape:connector-curvature="0"
                 id="rect1558-6"
                 d="m 10,362.64999 h 19.5 c 4,0 6,-8 8.5,-8 h 28 c 1.662,0 3,1.338 3,3 v 44 c 0,1.662 -1.338,3 -3,3 H 10 c -1.662,0 -3,-1.338 -3,-3 v -36 c 0,-1.662 1.338,-3 3,-3 z"
                 style="opacity:1;vector-effect:none;fill:url(#linearGradient980);fill-opacity:1;stroke:none;stroke-width:1;stroke-linecap:round;stroke-linejoin:round;stroke-miterlimit:4;stroke-dasharray:none;stroke-dashoffset:0;stroke-opacity:1" />
            </g>
          </g>
        </g>
        <g
           transform="translate(-0.999998,1)"
           id="g839-0-8"
           style="fill:#dcf2ff;fill-opacity:1" />
        <path
           sodipodi:nodetypes="ccccccccsscccccccccccsssssssssssssssssssssssssss"
           inkscape:connector-curvature="0"
           style="opacity:1;vector-effect:none;fill:#3182d9;fill-opacity:1;stroke:none;stroke-width:2.00000024;stroke-linecap:round;stroke-linejoin:round;stroke-miterlimit:4;stroke-dasharray:none;stroke-dashoffset:0;stroke-opacity:1"
           d="m -72.939602,290.32538 c -2.357653,-0.0144 -4.644595,0.80458 -6.457031,2.3125 -3.567251,2.967 -4.625057,7.99805 -2.554688,12.15039 2.070499,4.15264 6.725619,6.33544 11.242188,5.27149 4.516207,-1.0639 7.707407,-5.09455 7.707031,-9.73438 h -10 l 6.017578,-7.98633 c -1.716954,-1.29392 -3.8052,-2.00004 -5.955078,-2.01367 z m 31.939453,0.002 c -4.432003,0 -8,3.568 -8,8 v 2 9 l 2,-2 1.9375,2 2.0625,-2 2,2 2,-2 2,2 2,-2 1.999998,2 v -9 -2 c 0,-4.432 -3.567995,-8 -7.999998,-8 z m -36.001953,4.99805 c 1.108,0 2,0.89199 2,2 0,1.10801 -0.892,2 -2,2 -1.108,0 -2,-0.89199 -2,-2 0,-1.10801 0.892,-2 2,-2 z m 32.501953,0.002 c 0.830999,0 1.5,0.669 1.5,1.5 0,0.831 -0.669001,1.5 -1.5,1.5 -0.831005,0 -1.5,-0.669 -1.5,-1.5 0,-0.831 0.668995,-1.5 1.5,-1.5 z m 7,0 c 0.830999,0 1.5,0.66899 1.5,1.5 0,0.831 -0.669001,1.5 -1.5,1.5 -0.831006,0 -1.5,-0.669 -1.5,-1.5 0,-0.83101 0.668994,-1.5 1.5,-1.5 z m -21.501953,3.99799 c -1.108,0 -2,0.892 -2,2 0,1.108 0.892,2 2,2 1.108,0 2,-0.892 2,-2 0,-1.108 -0.892,-2 -2,-2 z m 6,0 c -1.108,0 -2,0.892 -2,2 0,1.108 0.892,2 2,2 1.108,0 2,-0.892 2,-2 0,-1.108 -0.892,-2 -2,-2 z"
           id="rect1066-3-5-5" />
        <path
           sodipodi:nodetypes="ccccccccsscccccccccccsssssssssssssssssssssssssss"
           inkscape:connector-curvature="0"
           style="opacity:1;vector-effect:none;fill:url(#linearGradient934);fill-opacity:1;stroke:none;stroke-width:2.00000024;stroke-linecap:round;stroke-linejoin:round;stroke-miterlimit:4;stroke-dasharray:none;stroke-dashoffset:0;stroke-opacity:1"
           d="m 17.060547,28.998047 c -2.357653,-0.01445 -4.644595,0.804583 -6.457031,2.3125 -3.5672513,2.967001 -4.6250575,7.998049 -2.5546879,12.150391 2.0704989,4.15264 6.7256189,6.335435 11.2421879,5.271484 4.516207,-1.063898 7.707407,-5.094546 7.707031,-9.734375 h -10 l 6.017578,-7.986328 c -1.716954,-1.29392 -3.8052,-2.000047 -5.955078,-2.013672 z M 49,29 c -4.432003,0 -8,3.568 -8,8 v 2 9 l 2,-2 1.9375,2 2.0625,-2 2,2 2,-2 2,2 2,-2 2,2 v -9 -2 c 0,-4.432 -3.567997,-8 -8,-8 z m -36.001953,4.998047 c 1.108,0 2,0.891994 2,2 0,1.108006 -0.892,2 -2,2 -1.108,0 -2,-0.891994 -2,-2 0,-1.108006 0.892,-2 2,-2 z M 45.5,34 C 46.330999,34 47,34.669 47,35.5 47,36.331 46.330999,37 45.5,37 44.668995,37 44,36.331 44,35.5 44,34.669 44.668995,34 45.5,34 Z m 7,0 C 53.330999,34 54,34.66899 54,35.5 54,36.331 53.330999,37 52.5,37 51.668994,37 51,36.331 51,35.5 51,34.66899 51.668994,34 52.5,34 Z m -21.501953,3.997992 c -1.108,0 -2,0.892 -2,2 0,1.108 0.892,2 2,2 1.108,0 2,-0.892 2,-2 0,-1.108 -0.892,-2 -2,-2 z m 6,0 c -1.108,0 -2,0.892 -2,2 0,1.108 0.892,2 2,2 1.108,0 2,-0.892 2,-2 0,-1.108 -0.892,-2 -2,-2 z"
           transform="translate(-89.999998,260.82856)"
           id="rect1066-3-5" />
      </g>
      <g
         inkscape:label="Capa 1"
         id="layer1-4"
         transform="translate(-13.229166,-1.05834)">
        <g
           id="g6240"
           transform="translate(11.112499,-4.762492)" />
      </g>
    </g>
  </g>
</svg>
