<?xml version="1.0" encoding="UTF-8" standalone="no"?>
<!-- Created with Inkscape (http://www.inkscape.org/) -->

<svg
   xmlns:dc="http://purl.org/dc/elements/1.1/"
   xmlns:cc="http://creativecommons.org/ns#"
   xmlns:rdf="http://www.w3.org/1999/02/22-rdf-syntax-ns#"
   xmlns:svg="http://www.w3.org/2000/svg"
   xmlns="http://www.w3.org/2000/svg"
   xmlns:xlink="http://www.w3.org/1999/xlink"
   xmlns:sodipodi="http://sodipodi.sourceforge.net/DTD/sodipodi-0.dtd"
   xmlns:inkscape="http://www.inkscape.org/namespaces/inkscape"
   width="128"
   height="128"
   viewBox="0 0 128 128"
   version="1.1"
   id="svg8"
   inkscape:version="0.91 r13725"
   sodipodi:docname="folder-encrypted.svg">
  <title
     id="title7895">Antu icon Theme</title>
  <defs
     id="defs2">
    <linearGradient
       gradientTransform="matrix(3.7795275,0,0,3.7795275,27.120554,-829.99771)"
       inkscape:collect="always"
       xlink:href="#linearGradient10239"
       id="linearGradient6795"
       x1="-6.9110637"
       y1="272.42764"
       x2="-6.9110637"
       y2="265.81305"
       gradientUnits="userSpaceOnUse" />
    <linearGradient
       gradientTransform="matrix(3.7795275,0,0,3.7795275,-16.821079,-865.60561)"
       inkscape:collect="always"
       xlink:href="#linearGradient10231"
       id="linearGradient4532"
       x1="15.298494"
       y1="304.60306"
       x2="15.298494"
       y2="279.20306"
       gradientUnits="userSpaceOnUse" />
    <linearGradient
       id="linearGradient10231"
       inkscape:collect="always">
      <stop
         id="stop10227"
         offset="0"
         style="stop-color:#3a5166;stop-opacity:1" />
      <stop
         id="stop10229"
         offset="1"
         style="stop-color:#647e8b;stop-opacity:1" />
    </linearGradient>
    <linearGradient
       id="linearGradient10239"
       inkscape:collect="always">
      <stop
         id="stop10235"
         offset="0"
         style="stop-color:#2f435a;stop-opacity:1" />
      <stop
         id="stop10237"
         offset="1"
         style="stop-color:#384d63;stop-opacity:1" />
    </linearGradient>
    <style
       id="current-color-scheme"
       type="text/css">
      .ColorScheme-Text {
        color:#122036;
      }
      </style>
    <style
       id="current-color-scheme-7"
       type="text/css">
      .ColorScheme-Text {
        color:#122036;
      }
      </style>
    <style
       id="current-color-scheme-5"
       type="text/css">
      .ColorScheme-Text {
        color:#122036;
      }
      </style>
    <style
       type="text/css"
       id="current-color-scheme-9">
      .ColorScheme-Text {
        color:#122036;
      }
      </style>
    <style
       type="text/css"
       id="current-color-scheme-1">
      .ColorScheme-Text {
        color:#122036;
      }
      </style>
    <style
       id="current-color-scheme-10"
       type="text/css">
      .ColorScheme-Text {
        color:#122036;
      }
      </style>
    <style
       type="text/css"
       id="current-color-scheme-6">
      .ColorScheme-Text {
        color:#122036;
      }
      </style>
    <style
       type="text/css"
       id="current-color-scheme-7-1">
      .ColorScheme-Text {
        color:#122036;
      }
      </style>
    <style
       type="text/css"
       id="current-color-scheme-5-2">
      .ColorScheme-Text {
        color:#122036;
      }
      </style>
    <linearGradient
       inkscape:collect="always"
       id="linearGradient4582-3">
      <stop
         style="stop-color:#c8d3d4;stop-opacity:1"
         offset="0"
         id="stop4578-5" />
      <stop
         style="stop-color:#f3f5f6;stop-opacity:1"
         offset="1"
         id="stop4580-6" />
    </linearGradient>
    <linearGradient
       gradientTransform="translate(0.9999997,-256.1857)"
       gradientUnits="userSpaceOnUse"
       y2="285.1857"
       x2="31"
       y1="306.1857"
       x1="31"
       id="linearGradient4306"
       xlink:href="#linearGradient4582-3"
       inkscape:collect="always" />
  </defs>
  <sodipodi:namedview
     id="base"
     pagecolor="#ffffff"
     bordercolor="#666666"
     borderopacity="1.0"
     inkscape:pageopacity="0.0"
     inkscape:pageshadow="2"
     inkscape:zoom="5.6568542"
     inkscape:cx="44.837808"
     inkscape:cy="24.69066"
     inkscape:document-units="px"
     inkscape:current-layer="layer1-6"
     showgrid="true"
     units="px"
     inkscape:window-width="1360"
     inkscape:window-height="699"
     inkscape:window-x="0"
     inkscape:window-y="0"
     inkscape:window-maximized="1"
     objecttolerance="10"
     gridtolerance="10"
     guidetolerance="10">
    <inkscape:grid
       type="xygrid"
       id="grid7897"
       empspacing="4" />
  </sodipodi:namedview>
  <metadata
     id="metadata5">
    <rdf:RDF>
      <cc:Work
         rdf:about="">
        <dc:format>image/svg+xml</dc:format>
        <dc:type
           rdf:resource="http://purl.org/dc/dcmitype/StillImage" />
        <dc:title>Antu icon Theme</dc:title>
      </cc:Work>
    </rdf:RDF>
  </metadata>
  <g
     inkscape:label="Capa 1"
     inkscape:groupmode="layer"
     id="layer1"
     transform="translate(0,-186.64999)">
    <g
       id="g5223"
       transform="translate(23.999997,20.000005)">
      <path
         sodipodi:nodetypes="sccssssssss"
         inkscape:connector-curvature="0"
         id="rect4937-8-6"
         d="m -20.000017,174.65003 42.999986,-4e-5 11.999996,13.99997 h 3.500001 c 2.216009,0 4.000026,1.78402 4.000026,3.99999 v 14.00001 c 0,2.21602 -1.784017,4.00003 -4.000026,4.00003 h -58.499945 c -2.216013,0 -4.000025,-1.78401 -4.000025,-4.00003 v -27.99994 c 0,-2.21598 1.784012,-3.99999 3.999987,-3.99999 z"
         style="opacity:1;vector-effect:none;fill:#223240;fill-opacity:1;stroke:none;stroke-width:0.75590551;stroke-linecap:round;stroke-linejoin:round;stroke-miterlimit:4;stroke-dasharray:none;stroke-dashoffset:0;stroke-opacity:1;paint-order:normal" />
      <path
         sodipodi:nodetypes="scccssss"
         inkscape:connector-curvature="0"
         id="rect9379-4-2"
         d="M -20.000093,175.65002 H 21.999906 L 35.999922,191.65 21.999906,205.64998 h -41.999999 c -1.662009,0 -2.999999,-1.33799 -2.999999,-3 v -23.99996 c 0,-1.66201 1.33799,-3 2.999999,-3 z"
         style="opacity:1;fill:url(#linearGradient6795);fill-opacity:1.0;stroke:none;stroke-width:0.99999994;stroke-opacity:1" />
      <path
         sodipodi:nodetypes="cccssssssssc"
         inkscape:connector-curvature="0"
         id="rect4931-3-6"
         d="M -22.962184,201.64999 H 22.999969 L 34.999965,188.65 h 65.000065 c 2.21596,0 3.99998,1.78401 3.99998,4.00003 v 89.99996 c 0,2.21597 -1.78402,3.99999 -3.99998,3.99999 H -19.999979 c -2.216013,0 -4.001121,-1.78402 -4.000025,-3.99999 l 0.0378,-76.99998 c 0.0011,-2.21601 1.783975,-4.00157 3.999987,-4.00002 z"
         style="opacity:1;vector-effect:none;fill:#223240;fill-opacity:1;stroke:none;stroke-width:0.75590551;stroke-linecap:round;stroke-linejoin:round;stroke-miterlimit:4;stroke-dasharray:none;stroke-dashoffset:0;stroke-opacity:1;paint-order:normal" />
      <path
         sodipodi:nodetypes="sccssssssss"
         inkscape:connector-curvature="0"
         id="rect9376-6-1"
         d="m -20.000093,202.64998 h 44.000008 l 12.000007,-12.99999 h 63.999983 c 1.662015,0 3.000005,1.33799 3.000005,3 v 90 c 0,1.66201 -1.33799,3 -3.000005,3 H -20.000093 c -1.662009,0 -2.999999,-1.33799 -2.999999,-3 v -77.00001 c 0,-1.66201 1.33799,-3.00386 2.999999,-3 z"
         style="opacity:1;fill:url(#linearGradient4532);fill-opacity:1.0;stroke:none;stroke-width:0.99999994;stroke-opacity:1" />
    </g>
    <g
       transform="matrix(2.0000005,0,0,2.0000005,-1.5e-5,-314.65013)"
       id="layer1-6"
       inkscape:label="Capa 1">
      <g
         id="g4164"
         transform="translate(0,-1.0000054)">
        <path
           style="opacity:1;fill:#223240;fill-opacity:1;stroke:none;stroke-width:4;stroke-linecap:round;stroke-linejoin:round;stroke-miterlimit:4;stroke-dasharray:none;stroke-dashoffset:0;stroke-opacity:1"
           d="m 32,278.14999 c -3.878,0 -7,3.122 -7,7 l 0,2 -1,0 c -0.554,0 -1,0.446 -1,1 l 0,13 c 0,0.554 0.446,1 1,1 l 11,0 0,-2 2,0 0,-2 -2,0 0,-2 2,0 0,-2 2,0 0,-2 2,0 0,-4 c 0,-0.554 -0.446,-1 -1,-1 l -1,0 0,-2 c 0,-3.878 -3.122,-7 -7,-7 z m 7,16 0,2 2,0 0,-2 z m 0,2 -2,0 0,2 2,0 z m 0,2 0,2 2,0 0,-2 z m 0,2 -2,0 0,2 2,0 z m -7,-19 c 2.216,0 4,1.784 4,4 l 0,2 -8,0 0,-2 c 0,-2.216 1.784,-4 4,-4 z m -0.103516,10 0.207032,0 c 1.051116,0 1.896484,0.84537 1.896484,1.89648 l 0,0.20704 c 0,0.72373 -0.406988,1.342 -1,1.6621 l 0,3.23438 c 0,0.554 -0.446,1 -1,1 -0.554,0 -1,-0.446 -1,-1 l 0,-3.23438 c -0.593012,-0.3201 -1,-0.93837 -1,-1.6621 l 0,-0.20704 c 0,-1.05111 0.845368,-1.89648 1.896484,-1.89648 z"
           id="rect4256-0-2"
           inkscape:connector-curvature="0"
           sodipodi:nodetypes="sscsssscccccccccccsscssccccccccccccccccccccssccsssssscssscsss" />
        <path
           style="opacity:1;fill:url(#linearGradient4306);fill-opacity:1;stroke:none;stroke-width:4;stroke-linecap:round;stroke-linejoin:round;stroke-miterlimit:4;stroke-dasharray:none;stroke-dashoffset:0;stroke-opacity:1"
           d="m 32,27 c -3.878,0 -7,3.122 -7,7 l 0,2 -1,0 c -0.554,0 -1,0.446 -1,1 l 0,13 c 0,0.554 0.446,1 1,1 l 11,0 0,-2 2,0 0,-2 -2,0 0,-2 2,0 0,-2 2,0 0,-2 2,0 0,-4 c 0,-0.554 -0.446,-1 -1,-1 l -1,0 0,-2 c 0,-3.878 -3.122,-7 -7,-7 z m 7,16 0,2 2,0 0,-2 z m 0,2 -2,0 0,2 2,0 z m 0,2 0,2 2,0 0,-2 z m 0,2 -2,0 0,2 2,0 z M 32,30 c 2.216,0 4,1.784 4,4 l 0,2 -8,0 0,-2 c 0,-2.216 1.784,-4 4,-4 z m -0.103516,10 0.207032,0 C 33.154632,40 34,40.845374 34,41.896484 l 0,0.207032 c 0,0.72373 -0.406988,1.342009 -1,1.662109 L 33,47 c 0,0.554 -0.446,1 -1,1 -0.554,0 -1,-0.446 -1,-1 l 0,-3.234375 c -0.593012,-0.3201 -1,-0.938379 -1,-1.662109 l 0,-0.207032 C 30,40.845374 30.845368,40 31.896484,40 Z"
           transform="translate(0,250.64999)"
           id="rect4256-0"
           inkscape:connector-curvature="0"
           sodipodi:nodetypes="sscsssscccccccccccsscssccccccccccccccccccccssccsssssscssscsss" />
      </g>
    </g>
  </g>
</svg>
