<?xml version="1.0" encoding="UTF-8" standalone="no"?>
<!-- Created with Inkscape (http://www.inkscape.org/) -->

<svg
   width="128"
   height="128"
   viewBox="0 0 128 128"
   version="1.1"
   id="svg8"
   inkscape:version="1.2 (dc2aedaf03, 2022-05-15)"
   sodipodi:docname="folder-mega.svg"
   xmlns:inkscape="http://www.inkscape.org/namespaces/inkscape"
   xmlns:sodipodi="http://sodipodi.sourceforge.net/DTD/sodipodi-0.dtd"
   xmlns:xlink="http://www.w3.org/1999/xlink"
   xmlns="http://www.w3.org/2000/svg"
   xmlns:svg="http://www.w3.org/2000/svg"
   xmlns:rdf="http://www.w3.org/1999/02/22-rdf-syntax-ns#"
   xmlns:cc="http://creativecommons.org/ns#"
   xmlns:dc="http://purl.org/dc/elements/1.1/">
  <title
     id="title7895">Antu icon Theme</title>
  <defs
     id="defs2">
    <linearGradient
       inkscape:collect="always"
       xlink:href="#linearGradient4631-59"
       id="linearGradient6788"
       gradientUnits="userSpaceOnUse"
       gradientTransform="translate(-424,-21.64998)"
       x1="-12"
       y1="291.64999"
       x2="-12"
       y2="243.64998" />
    <linearGradient
       id="linearGradient4631-59"
       inkscape:collect="always">
      <stop
         id="stop4627-49"
         offset="0"
         style="stop-color:#c2f0f2;stop-opacity:1" />
      <stop
         id="stop4629-0"
         offset="1"
         style="stop-color:#f2feff;stop-opacity:1" />
    </linearGradient>
    <linearGradient
       inkscape:collect="always"
       xlink:href="#linearGradient5283"
       id="linearGradient5285"
       x1="3.968751"
       y1="6.6145825"
       x2="3.968751"
       y2="-1.0583341"
       gradientUnits="userSpaceOnUse"
       gradientTransform="matrix(3.7795276,0,0,3.7795276,-26.000004,156.64999)" />
    <linearGradient
       inkscape:collect="always"
       id="linearGradient5283">
      <stop
         style="stop-color:#3694ee;stop-opacity:1;"
         offset="0"
         id="stop5279" />
      <stop
         style="stop-color:#2383e6;stop-opacity:1;"
         offset="1"
         id="stop5281" />
    </linearGradient>
    <linearGradient
       inkscape:collect="always"
       xlink:href="#linearGradient5912"
       id="linearGradient5914"
       x1="14.552084"
       y1="31.749998"
       x2="14.552084"
       y2="3.968749"
       gradientUnits="userSpaceOnUse"
       gradientTransform="matrix(3.7795276,0,0,3.7795276,-26.000004,156.64999)" />
    <linearGradient
       inkscape:collect="always"
       id="linearGradient5912">
      <stop
         style="stop-color:#40a1f4;stop-opacity:1;"
         offset="0"
         id="stop5908" />
      <stop
         style="stop-color:#50c1f9;stop-opacity:1;"
         offset="1"
         id="stop5910" />
    </linearGradient>
  </defs>
  <sodipodi:namedview
     id="base"
     pagecolor="#ffffff"
     bordercolor="#666666"
     borderopacity="1.0"
     inkscape:pageopacity="0.0"
     inkscape:pageshadow="2"
     inkscape:zoom="5.6"
     inkscape:cx="26.607143"
     inkscape:cy="23.660714"
     inkscape:document-units="px"
     inkscape:current-layer="layer1"
     showgrid="true"
     units="px"
     inkscape:window-width="2160"
     inkscape:window-height="1337"
     inkscape:window-x="0"
     inkscape:window-y="0"
     inkscape:window-maximized="1"
     objecttolerance="10"
     gridtolerance="10"
     guidetolerance="10"
     inkscape:snap-bbox="true"
     inkscape:bbox-nodes="true"
     inkscape:snap-bbox-edge-midpoints="true"
     inkscape:snap-bbox-midpoints="true"
     inkscape:object-paths="true"
     inkscape:snap-intersection-paths="true"
     inkscape:bbox-paths="true"
     inkscape:showpageshadow="2"
     inkscape:pagecheckerboard="0"
     inkscape:deskcolor="#d1d1d1">
    <inkscape:grid
       type="xygrid"
       id="grid7897"
       empspacing="4" />
  </sodipodi:namedview>
  <metadata
     id="metadata5">
    <rdf:RDF>
      <cc:Work
         rdf:about="">
        <dc:format>image/svg+xml</dc:format>
        <dc:type
           rdf:resource="http://purl.org/dc/dcmitype/StillImage" />
        <dc:title>Antu icon Theme</dc:title>
      </cc:Work>
    </rdf:RDF>
  </metadata>
  <g
     inkscape:label="Capa 1"
     inkscape:groupmode="layer"
     id="layer1"
     transform="translate(0,-186.64999)">
    <g
       id="g66541"
       transform="translate(36.000001,40)">
      <path
         d="m -22.999997,151.64999 c -6.630695,0 -11.999998,5.36932 -11.999998,12 v 94 c 0,6.6307 5.369303,12.00001 11.999998,12.00001 h 101.99999 c 6.63069,0 12,-5.36931 12,-12.00001 v -78 c 0,-6.63068 -5.36931,-12 -12,-12 H 30.000005 c -1.953705,0 -3.574095,-0.84528 -5.205078,-2.25586 -1.630987,-1.41058 -3.205028,-3.37474 -4.9043,-5.38868 -3.398544,-4.0279 -7.44618,-8.35546 -13.8906226,-8.35546 z"
         style="color:#000000;font-style:normal;font-variant:normal;font-weight:normal;font-stretch:normal;font-size:medium;line-height:normal;font-family:sans-serif;font-variant-ligatures:normal;font-variant-position:normal;font-variant-caps:normal;font-variant-numeric:normal;font-variant-alternates:normal;font-variant-east-asian:normal;font-feature-settings:normal;font-variation-settings:normal;text-indent:0;text-align:start;text-decoration:none;text-decoration-line:none;text-decoration-style:solid;text-decoration-color:#000000;letter-spacing:normal;word-spacing:normal;text-transform:none;writing-mode:lr-tb;direction:ltr;text-orientation:mixed;dominant-baseline:auto;baseline-shift:baseline;text-anchor:start;white-space:normal;shape-padding:0;shape-margin:0;inline-size:0;clip-rule:nonzero;display:inline;overflow:visible;visibility:visible;isolation:auto;mix-blend-mode:normal;color-interpolation:sRGB;color-interpolation-filters:linearRGB;solid-color:#000000;solid-opacity:1;fill:#286bb2;fill-opacity:1;fill-rule:nonzero;stroke:none;stroke-width:2;stroke-linecap:butt;stroke-linejoin:miter;stroke-miterlimit:4;stroke-dasharray:none;stroke-dashoffset:0;stroke-opacity:1;color-rendering:auto;image-rendering:auto;shape-rendering:auto;text-rendering:auto;enable-background:accumulate;stop-color:#000000"
         id="path1242"
         sodipodi:nodetypes="sssssssssssss" />
      <path
         id="rect1149-4-0"
         style="fill:url(#linearGradient5285);fill-opacity:1;stroke-width:0.999999"
         d="m -22.999997,152.64999 29.0000093,2e-5 c 12.0000007,0 15.0000007,16 24.0000007,16 l 48.999992,-2e-5 c 6.093997,0 10.99999,4.906 10.99999,10.99996 v 78.00004 c 0,6.094 -4.906001,11 -10.99999,11 H -22.999997 c -6.093993,0 -10.99999,-4.906 -10.99999,-11 v -94.00004 c 0,-6.09398 4.905997,-10.99996 10.99999,-10.99996 z"
         sodipodi:nodetypes="sccssssssss" />
      <path
         d="m 78.999997,167.64997 c 6.630694,0 11.999996,5.36932 11.999996,12 v 79.00004 c 0,6.6307 -5.369302,12.00001 -11.999996,12.00001 H -22.999995 c -6.630689,0 -12,-5.36931 -12,-12.00001 V 195.65 c 0,-6.63068 5.369311,-12.00001 12,-12.00001 H 7.9999928 c 1.9537066,0 3.5740972,-0.84528 5.2050812,-2.25586 1.630983,-1.41058 3.205024,-3.37474 4.904296,-5.38868 3.398543,-4.0279 7.446183,-8.35546 13.890625,-8.35546 z"
         style="color:#000000;font-style:normal;font-variant:normal;font-weight:normal;font-stretch:normal;font-size:medium;line-height:normal;font-family:sans-serif;font-variant-ligatures:normal;font-variant-position:normal;font-variant-caps:normal;font-variant-numeric:normal;font-variant-alternates:normal;font-variant-east-asian:normal;font-feature-settings:normal;font-variation-settings:normal;text-indent:0;text-align:start;text-decoration:none;text-decoration-line:none;text-decoration-style:solid;text-decoration-color:#000000;letter-spacing:normal;word-spacing:normal;text-transform:none;writing-mode:lr-tb;direction:ltr;text-orientation:mixed;dominant-baseline:auto;baseline-shift:baseline;text-anchor:start;white-space:normal;shape-padding:0;shape-margin:0;inline-size:0;clip-rule:nonzero;display:inline;overflow:visible;visibility:visible;isolation:auto;mix-blend-mode:normal;color-interpolation:sRGB;color-interpolation-filters:linearRGB;solid-color:#000000;solid-opacity:1;fill:#3182d9;fill-opacity:1;fill-rule:nonzero;stroke:none;stroke-width:2;stroke-linecap:butt;stroke-linejoin:miter;stroke-miterlimit:4;stroke-dasharray:none;stroke-dashoffset:0;stroke-opacity:1;color-rendering:auto;image-rendering:auto;shape-rendering:auto;text-rendering:auto;enable-background:accumulate;stop-color:#000000"
         id="path1242-2"
         sodipodi:nodetypes="sssssssssssss" />
      <path
         id="rect1149-4-0-6"
         style="fill:url(#linearGradient5914);fill-opacity:1;stroke-width:0.999999"
         d="m 78.999997,168.64997 -47.000009,2e-5 c -12,0 -15,16.00001 -24.0000031,16.00001 l -30.9999899,-2e-5 c -6.093997,0 -10.99999,4.906 -10.99999,10.99996 v 63.00007 c 0,6.094 4.906001,11.00001 10.99999,11.00001 H 78.999997 c 6.093993,0 10.99999,-4.90601 10.99999,-11.00001 v -79.00008 c 0,-6.09396 -4.905997,-10.99996 -10.99999,-10.99996 z"
         sodipodi:nodetypes="sccssssssss" />
    </g>
    <g
       id="g7476"
       transform="translate(35.000012,-24.00001)">
      <g
         id="g6808"
         transform="translate(139,-561.09837)">
        <g
           inkscape:label="Capa 1"
           id="layer1-3-2-4-8"
           transform="translate(-902.00001,661.09838)"
           style="fill:#b24444;fill-opacity:1;stroke:none;stroke-opacity:1">
          <g
             id="g5223-8-9-7-5"
             transform="translate(752,-55.00002)"
             style="fill:#b24444;fill-opacity:1;stroke:none;stroke-opacity:1">
            <g
               transform="matrix(2,0,0,2,-35.999997,-520.64999)"
               id="g1658-37-3-4-7"
               style="fill:#b24444;fill-opacity:1;stroke:none;stroke-opacity:1" />
            <path
               inkscape:connector-curvature="0"
               style="opacity:1;fill:#3182d9;fill-opacity:1;stroke:none;stroke-width:1.85164022;stroke-linecap:round;stroke-linejoin:round;stroke-miterlimit:4;stroke-dasharray:none;stroke-opacity:1"
               d="m -436,221 c -13.296,0 -24,10.704 -24,24 0,13.29597 10.704,24 24,24 13.296,0 24,-10.70403 24,-24 0,-13.296 -10.704,-24 -24,-24 z m -14,15 h 6 l 8,9 8,-9 h 6 v 20 h -6 v -11 l -6,6 h -2 -2 l -6,-6 v 11 h -6 z"
               transform="translate(476,0.64997)"
               id="rect4505-0-9-4-4" />
          </g>
        </g>
        <g
           inkscape:label="Capa 1"
           id="layer1-3-2-1"
           transform="translate(-902.00001,660.09838)">
          <g
             id="g5223-8-9-8"
             transform="translate(752,-55.00002)">
            <g
               transform="matrix(2,0,0,2,-35.999997,-520.64999)"
               id="g1658-37-3-5" />
            <path
               inkscape:connector-curvature="0"
               style="opacity:1;fill:url(#linearGradient6788);fill-opacity:1;stroke:none;stroke-width:1.85164022;stroke-linecap:round;stroke-linejoin:round;stroke-miterlimit:4;stroke-dasharray:none;stroke-opacity:1"
               d="m -436,221 c -13.296,0 -24,10.704 -24,24 0,13.29597 10.704,24 24,24 13.296,0 24,-10.70403 24,-24 0,-13.296 -10.704,-24 -24,-24 z m -14,15 h 6 l 8,9 8,-9 h 6 v 20 h -6 v -11 l -6,6 h -2 -2 l -6,-6 v 11 h -6 z"
               transform="translate(476,0.64997)"
               id="rect4505-0-9-9" />
          </g>
        </g>
      </g>
    </g>
  </g>
</svg>
