<?xml version="1.0" encoding="UTF-8" standalone="no"?>
<!-- Created with Inkscape (http://www.inkscape.org/) -->

<svg
   width="128"
   height="128"
   viewBox="0 0 128 128"
   version="1.1"
   id="svg8"
   inkscape:version="1.2 (dc2aedaf03, 2022-05-15)"
   sodipodi:docname="folder-pictures.svg"
   xmlns:inkscape="http://www.inkscape.org/namespaces/inkscape"
   xmlns:sodipodi="http://sodipodi.sourceforge.net/DTD/sodipodi-0.dtd"
   xmlns:xlink="http://www.w3.org/1999/xlink"
   xmlns="http://www.w3.org/2000/svg"
   xmlns:svg="http://www.w3.org/2000/svg"
   xmlns:rdf="http://www.w3.org/1999/02/22-rdf-syntax-ns#"
   xmlns:cc="http://creativecommons.org/ns#"
   xmlns:dc="http://purl.org/dc/elements/1.1/">
  <title
     id="title7895">Antu icon Theme</title>
  <defs
     id="defs2">
    <linearGradient
       inkscape:collect="always"
       xlink:href="#linearGradient4627"
       id="linearGradient6169"
       x1="65"
       y1="99"
       x2="65.007301"
       y2="79.000206"
       gradientUnits="userSpaceOnUse"
       gradientTransform="matrix(1.0003399,0,0,1,-63.029401,162.64984)" />
    <linearGradient
       id="linearGradient4627"
       inkscape:collect="always">
      <stop
         id="stop4623"
         offset="0"
         style="stop-color:#c2f7f9;stop-opacity:1" />
      <stop
         id="stop4625"
         offset="1"
         style="stop-color:#e5fafb;stop-opacity:1" />
    </linearGradient>
    <linearGradient
       inkscape:collect="always"
       xlink:href="#linearGradient5283"
       id="linearGradient5285"
       x1="3.968751"
       y1="6.6145825"
       x2="3.968751"
       y2="-1.0583341"
       gradientUnits="userSpaceOnUse"
       gradientTransform="matrix(3.7795276,0,0,3.7795276,-30.000005,148.65)" />
    <linearGradient
       inkscape:collect="always"
       id="linearGradient5283">
      <stop
         style="stop-color:#3694ee;stop-opacity:1;"
         offset="0"
         id="stop5279" />
      <stop
         style="stop-color:#2383e6;stop-opacity:1;"
         offset="1"
         id="stop5281" />
    </linearGradient>
    <linearGradient
       inkscape:collect="always"
       xlink:href="#linearGradient5912"
       id="linearGradient5914"
       x1="14.552084"
       y1="31.749998"
       x2="14.552084"
       y2="3.968749"
       gradientUnits="userSpaceOnUse"
       gradientTransform="matrix(3.7795276,0,0,3.7795276,-30.000005,148.65)" />
    <linearGradient
       inkscape:collect="always"
       id="linearGradient5912">
      <stop
         style="stop-color:#40a1f4;stop-opacity:1;"
         offset="0"
         id="stop5908" />
      <stop
         style="stop-color:#50c1f9;stop-opacity:1;"
         offset="1"
         id="stop5910" />
    </linearGradient>
  </defs>
  <sodipodi:namedview
     id="base"
     pagecolor="#ffffff"
     bordercolor="#666666"
     borderopacity="1.0"
     inkscape:pageopacity="0.0"
     inkscape:pageshadow="2"
     inkscape:zoom="8"
     inkscape:cx="76.625"
     inkscape:cy="31.8125"
     inkscape:document-units="px"
     inkscape:current-layer="g6837"
     showgrid="true"
     units="px"
     inkscape:window-width="2160"
     inkscape:window-height="1337"
     inkscape:window-x="0"
     inkscape:window-y="0"
     inkscape:window-maximized="1"
     objecttolerance="10"
     gridtolerance="10"
     guidetolerance="10"
     inkscape:showpageshadow="2"
     inkscape:pagecheckerboard="0"
     inkscape:deskcolor="#d1d1d1">
    <inkscape:grid
       type="xygrid"
       id="grid7897"
       empspacing="4" />
  </sodipodi:namedview>
  <metadata
     id="metadata5">
    <rdf:RDF>
      <cc:Work
         rdf:about="">
        <dc:format>image/svg+xml</dc:format>
        <dc:type
           rdf:resource="http://purl.org/dc/dcmitype/StillImage" />
        <dc:title>Antu icon Theme</dc:title>
      </cc:Work>
    </rdf:RDF>
  </metadata>
  <g
     inkscape:label="Capa 1"
     inkscape:groupmode="layer"
     id="layer1"
     transform="translate(0,-186.64999)">
    <g
       id="g6837"
       transform="translate(64.000001,23.999995)">
      <g
         id="g55653"
         transform="translate(-23.999999,23.999995)">
        <path
           d="m -26.999998,143.65 c -6.630695,0 -11.999998,5.36932 -11.999998,12 v 94 c 0,6.6307 5.369303,12.00001 11.999998,12.00001 h 101.99999 c 6.63069,0 12,-5.36931 12,-12.00001 v -78 c 0,-6.63068 -5.36931,-12 -12,-12 H 26.000004 c -1.953705,0 -3.574095,-0.84528 -5.205078,-2.25586 -1.630987,-1.41058 -3.205028,-3.37474 -4.9043,-5.38868 C 12.492082,147.97756 8.4444464,143.65 2.0000034,143.65 Z"
           style="color:#000000;font-style:normal;font-variant:normal;font-weight:normal;font-stretch:normal;font-size:medium;line-height:normal;font-family:sans-serif;font-variant-ligatures:normal;font-variant-position:normal;font-variant-caps:normal;font-variant-numeric:normal;font-variant-alternates:normal;font-variant-east-asian:normal;font-feature-settings:normal;font-variation-settings:normal;text-indent:0;text-align:start;text-decoration:none;text-decoration-line:none;text-decoration-style:solid;text-decoration-color:#000000;letter-spacing:normal;word-spacing:normal;text-transform:none;writing-mode:lr-tb;direction:ltr;text-orientation:mixed;dominant-baseline:auto;baseline-shift:baseline;text-anchor:start;white-space:normal;shape-padding:0;shape-margin:0;inline-size:0;clip-rule:nonzero;display:inline;overflow:visible;visibility:visible;isolation:auto;mix-blend-mode:normal;color-interpolation:sRGB;color-interpolation-filters:linearRGB;solid-color:#000000;solid-opacity:1;fill:#286bb2;fill-opacity:1;fill-rule:nonzero;stroke:none;stroke-width:2;stroke-linecap:butt;stroke-linejoin:miter;stroke-miterlimit:4;stroke-dasharray:none;stroke-dashoffset:0;stroke-opacity:1;color-rendering:auto;image-rendering:auto;shape-rendering:auto;text-rendering:auto;enable-background:accumulate;stop-color:#000000"
           id="path1242"
           sodipodi:nodetypes="sssssssssssss" />
        <path
           id="rect1149-4-0"
           style="fill:url(#linearGradient5285);fill-opacity:1;stroke-width:0.999999"
           d="m -26.999998,144.65 29.0000093,2e-5 c 12.0000007,0 15.0000007,16 24.0000007,16 l 48.999992,-2e-5 c 6.093997,0 10.99999,4.906 10.99999,10.99996 V 249.65 c 0,6.094 -4.906001,11 -10.99999,11 H -26.999998 c -6.093993,0 -10.99999,-4.906 -10.99999,-11 v -94.00004 c 0,-6.09398 4.905997,-10.99996 10.99999,-10.99996 z"
           sodipodi:nodetypes="sccssssssss" />
        <path
           d="m 74.999996,159.64998 c 6.630694,0 11.999996,5.36932 11.999996,12 v 79.00004 c 0,6.6307 -5.369302,12.00001 -11.999996,12.00001 H -26.999996 c -6.630689,0 -12,-5.36931 -12,-12.00001 v -63.00001 c 0,-6.63068 5.369311,-12.00001 12,-12.00001 H 3.9999918 c 1.9537066,0 3.5740971,-0.84528 5.2050808,-2.25586 1.6309834,-1.41058 3.2050244,-3.37474 4.9042964,-5.38868 3.398543,-4.0279 7.446183,-8.35546 13.890625,-8.35546 z"
           style="color:#000000;font-style:normal;font-variant:normal;font-weight:normal;font-stretch:normal;font-size:medium;line-height:normal;font-family:sans-serif;font-variant-ligatures:normal;font-variant-position:normal;font-variant-caps:normal;font-variant-numeric:normal;font-variant-alternates:normal;font-variant-east-asian:normal;font-feature-settings:normal;font-variation-settings:normal;text-indent:0;text-align:start;text-decoration:none;text-decoration-line:none;text-decoration-style:solid;text-decoration-color:#000000;letter-spacing:normal;word-spacing:normal;text-transform:none;writing-mode:lr-tb;direction:ltr;text-orientation:mixed;dominant-baseline:auto;baseline-shift:baseline;text-anchor:start;white-space:normal;shape-padding:0;shape-margin:0;inline-size:0;clip-rule:nonzero;display:inline;overflow:visible;visibility:visible;isolation:auto;mix-blend-mode:normal;color-interpolation:sRGB;color-interpolation-filters:linearRGB;solid-color:#000000;solid-opacity:1;fill:#3182d9;fill-opacity:1;fill-rule:nonzero;stroke:none;stroke-width:2;stroke-linecap:butt;stroke-linejoin:miter;stroke-miterlimit:4;stroke-dasharray:none;stroke-dashoffset:0;stroke-opacity:1;color-rendering:auto;image-rendering:auto;shape-rendering:auto;text-rendering:auto;enable-background:accumulate;stop-color:#000000"
           id="path1242-2"
           sodipodi:nodetypes="sssssssssssss" />
        <path
           id="rect1149-4-0-6"
           style="fill:url(#linearGradient5914);fill-opacity:1;stroke-width:0.999999"
           d="m 74.999996,160.64998 -47.000009,2e-5 c -12,0 -15,16.00001 -24.0000031,16.00001 l -30.9999899,-2e-5 c -6.093997,0 -10.99999,4.906 -10.99999,10.99996 v 63.00007 c 0,6.094 4.906001,11.00001 10.99999,11.00001 H 74.999996 c 6.093993,0 10.99999,-4.90601 10.99999,-11.00001 v -79.00008 c 0,-6.09396 -4.905997,-10.99996 -10.99999,-10.99996 z"
           sodipodi:nodetypes="sccssssssss" />
      </g>
      <path
         inkscape:connector-curvature="0"
         id="path6156-2"
         d="m -14.012752,218.64985 c -3.879322,0 -7.002383,3.12201 -7.002383,6.99999 0,3.87802 3.123061,7.00003 7.002383,7.00003 3.879322,0 7.0023802,-3.12201 7.0023802,-7.00003 0,-3.87798 -3.1230582,-6.99999 -7.0023802,-6.99999 z m 24.996778,17.99804 a 1.0004402,1.0001001 0 0 0 -0.81278,0.43555 l -13.5866448,19.62304 -8.8076822,-10.69137 a 1.0004401,1.0001 0 0 0 -0.789332,-0.36511 1.0004401,1.0001 0 0 0 -0.777611,0.39258 l -13.004408,17.00002 a 1.0004401,1.0001 0 0 0 0.795188,1.60739 H 1.0099292 a 1.0004401,1.0001 0 0 0 0.03326,-0.002 H 27.997668 a 1.0004402,1.0001001 0 0 0 0.842086,-1.54298 L 11.83397,237.1051 a 1.0004402,1.0001001 0 0 0 -0.849898,-0.45706 z"
         style="color:#000000;font-style:normal;font-variant:normal;font-weight:normal;font-stretch:normal;font-size:medium;line-height:normal;font-family:sans-serif;font-variant-ligatures:normal;font-variant-position:normal;font-variant-caps:normal;font-variant-numeric:normal;font-variant-alternates:normal;font-feature-settings:normal;text-indent:0;text-align:start;text-decoration:none;text-decoration-line:none;text-decoration-style:solid;text-decoration-color:#000000;letter-spacing:normal;word-spacing:normal;text-transform:none;writing-mode:lr-tb;direction:ltr;text-orientation:mixed;dominant-baseline:auto;baseline-shift:baseline;text-anchor:start;white-space:normal;shape-padding:0;clip-rule:nonzero;display:inline;overflow:visible;visibility:visible;opacity:1;isolation:auto;mix-blend-mode:normal;color-interpolation:sRGB;color-interpolation-filters:linearRGB;solid-color:#000000;solid-opacity:1;vector-effect:none;fill:#3182d9;fill-opacity:1;fill-rule:nonzero;stroke:none;stroke-width:2.00033998;stroke-linecap:round;stroke-linejoin:round;stroke-miterlimit:4;stroke-dasharray:none;stroke-dashoffset:0;stroke-opacity:1;color-rendering:auto;image-rendering:auto;shape-rendering:auto;text-rendering:auto;enable-background:accumulate" />
      <path
         inkscape:connector-curvature="0"
         id="path6156"
         d="m -14.012748,217.64987 c -3.879318,0 -7.00238,3.122 -7.00238,6.99998 0,3.87802 3.123062,7.00003 7.00238,7.00003 3.879318,0 7.0023802,-3.12201 7.0023802,-7.00003 0,-3.87798 -3.1230622,-6.99998 -7.0023802,-6.99998 z m 24.996774,17.99803 a 1.00044,1.0001001 0 0 0 -0.812776,0.43555 l -13.5866488,19.62304 -8.8076792,-10.69137 a 1.0004399,1.0001 0 0 0 -0.789327,-0.3651 1.0004399,1.0001 0 0 0 -0.777612,0.39258 l -13.004415,17.00001 A 1.0004399,1.0001 0 0 0 -25.99924,263.65 H 1.0099332 a 1.0004399,1.0001 0 0 0 0.03326,-0.002 H 27.997669 a 1.00044,1.0001001 0 0 0 0.842082,-1.54299 l -17.005781,-26 a 1.00044,1.0001001 0 0 0 -0.849898,-0.45706 z"
         style="color:#000000;font-style:normal;font-variant:normal;font-weight:normal;font-stretch:normal;font-size:medium;line-height:normal;font-family:sans-serif;font-variant-ligatures:normal;font-variant-position:normal;font-variant-caps:normal;font-variant-numeric:normal;font-variant-alternates:normal;font-feature-settings:normal;text-indent:0;text-align:start;text-decoration:none;text-decoration-line:none;text-decoration-style:solid;text-decoration-color:#000000;letter-spacing:normal;word-spacing:normal;text-transform:none;writing-mode:lr-tb;direction:ltr;text-orientation:mixed;dominant-baseline:auto;baseline-shift:baseline;text-anchor:start;white-space:normal;shape-padding:0;clip-rule:nonzero;display:inline;overflow:visible;visibility:visible;opacity:1;isolation:auto;mix-blend-mode:normal;color-interpolation:sRGB;color-interpolation-filters:linearRGB;solid-color:#000000;solid-opacity:1;vector-effect:none;fill:url(#linearGradient6169);fill-opacity:1;fill-rule:nonzero;stroke:none;stroke-width:2.00033998;stroke-linecap:round;stroke-linejoin:round;stroke-miterlimit:4;stroke-dasharray:none;stroke-dashoffset:0;stroke-opacity:1;color-rendering:auto;image-rendering:auto;shape-rendering:auto;text-rendering:auto;enable-background:accumulate" />
    </g>
  </g>
</svg>
