<?xml version="1.0" encoding="UTF-8" standalone="no"?>
<!-- Created with Inkscape (http://www.inkscape.org/) -->

<svg
   width="128"
   height="128"
   viewBox="0 0 128 128"
   version="1.1"
   id="svg8"
   inkscape:version="1.2 (dc2aedaf03, 2022-05-15)"
   sodipodi:docname="folder-image-people.svg"
   xmlns:inkscape="http://www.inkscape.org/namespaces/inkscape"
   xmlns:sodipodi="http://sodipodi.sourceforge.net/DTD/sodipodi-0.dtd"
   xmlns:xlink="http://www.w3.org/1999/xlink"
   xmlns="http://www.w3.org/2000/svg"
   xmlns:svg="http://www.w3.org/2000/svg"
   xmlns:rdf="http://www.w3.org/1999/02/22-rdf-syntax-ns#"
   xmlns:cc="http://creativecommons.org/ns#"
   xmlns:dc="http://purl.org/dc/elements/1.1/">
  <title
     id="title7895">Antu icon Theme</title>
  <defs
     id="defs2">
    <linearGradient
       inkscape:collect="always"
       id="linearGradient4631">
      <stop
         style="stop-color:#c2f0f2;stop-opacity:1"
         offset="0"
         id="stop4627" />
      <stop
         style="stop-color:#f2feff;stop-opacity:1"
         offset="1"
         id="stop4629" />
    </linearGradient>
    <style
       type="text/css"
       id="current-color-scheme">
      .ColorScheme-Text {
        color:#122036;
      }
      </style>
    <style
       type="text/css"
       id="current-color-scheme-7">
      .ColorScheme-Text {
        color:#122036;
      }
      </style>
    <style
       type="text/css"
       id="current-color-scheme-5">
      .ColorScheme-Text {
        color:#122036;
      }
      </style>
    <style
       id="current-color-scheme-9"
       type="text/css">
      .ColorScheme-Text {
        color:#122036;
      }
      </style>
    <style
       id="current-color-scheme-1"
       type="text/css">
      .ColorScheme-Text {
        color:#122036;
      }
      </style>
    <style
       type="text/css"
       id="current-color-scheme-10">
      .ColorScheme-Text {
        color:#122036;
      }
      </style>
    <style
       id="current-color-scheme-6"
       type="text/css">
      .ColorScheme-Text {
        color:#122036;
      }
      </style>
    <style
       id="current-color-scheme-7-1"
       type="text/css">
      .ColorScheme-Text {
        color:#122036;
      }
      </style>
    <style
       id="current-color-scheme-5-2"
       type="text/css">
      .ColorScheme-Text {
        color:#122036;
      }
      </style>
    <linearGradient
       inkscape:collect="always"
       xlink:href="#linearGradient4631"
       id="linearGradient1016"
       x1="60"
       y1="302.64999"
       x2="60"
       y2="246.64999"
       gradientUnits="userSpaceOnUse"
       gradientTransform="translate(2.624379,-8.97997)" />
    <linearGradient
       inkscape:collect="always"
       xlink:href="#linearGradient5283"
       id="linearGradient5285"
       x1="3.968751"
       y1="6.6145825"
       x2="3.968751"
       y2="-1.0583341"
       gradientUnits="userSpaceOnUse"
       gradientTransform="matrix(3.7795276,0,0,3.7795276,-52.000004,103.64999)" />
    <linearGradient
       inkscape:collect="always"
       id="linearGradient5283">
      <stop
         style="stop-color:#3694ee;stop-opacity:1;"
         offset="0"
         id="stop5279" />
      <stop
         style="stop-color:#2383e6;stop-opacity:1;"
         offset="1"
         id="stop5281" />
    </linearGradient>
    <linearGradient
       inkscape:collect="always"
       xlink:href="#linearGradient5912"
       id="linearGradient5914"
       x1="14.552084"
       y1="31.749998"
       x2="14.552084"
       y2="3.968749"
       gradientUnits="userSpaceOnUse"
       gradientTransform="matrix(3.7795276,0,0,3.7795276,-52.000004,103.64999)" />
    <linearGradient
       inkscape:collect="always"
       id="linearGradient5912">
      <stop
         style="stop-color:#40a1f4;stop-opacity:1;"
         offset="0"
         id="stop5908" />
      <stop
         style="stop-color:#50c1f9;stop-opacity:1;"
         offset="1"
         id="stop5910" />
    </linearGradient>
  </defs>
  <sodipodi:namedview
     id="base"
     pagecolor="#ffffff"
     bordercolor="#666666"
     borderopacity="1.0"
     inkscape:pageopacity="0.0"
     inkscape:pageshadow="2"
     inkscape:zoom="5.6568543"
     inkscape:cx="63.462834"
     inkscape:cy="38.979261"
     inkscape:document-units="px"
     inkscape:current-layer="layer1"
     showgrid="true"
     units="px"
     inkscape:window-width="2160"
     inkscape:window-height="1337"
     inkscape:window-x="0"
     inkscape:window-y="0"
     inkscape:window-maximized="1"
     objecttolerance="10"
     gridtolerance="10"
     guidetolerance="10"
     inkscape:showpageshadow="2"
     inkscape:pagecheckerboard="0"
     inkscape:deskcolor="#d1d1d1">
    <inkscape:grid
       type="xygrid"
       id="grid7897"
       empspacing="4" />
  </sodipodi:namedview>
  <metadata
     id="metadata5">
    <rdf:RDF>
      <cc:Work
         rdf:about="">
        <dc:format>image/svg+xml</dc:format>
        <dc:type
           rdf:resource="http://purl.org/dc/dcmitype/StillImage" />
        <dc:title>Antu icon Theme</dc:title>
      </cc:Work>
    </rdf:RDF>
  </metadata>
  <g
     inkscape:label="Capa 1"
     inkscape:groupmode="layer"
     id="layer1"
     transform="translate(0,-186.64999)">
    <g
       id="g74410"
       transform="translate(62.000001,93.000003)">
      <path
         d="m -48.999997,98.649987 c -6.630695,0 -11.999998,5.369323 -11.999998,12.000003 v 94 c 0,6.6307 5.369303,12.00001 11.999998,12.00001 h 101.99999 c 6.63069,0 12,-5.36931 12,-12.00001 v -78 c 0,-6.63068 -5.36931,-12 -12,-12 H 4.0000054 c -1.9537058,0 -3.57409513,-0.84528 -5.2050785,-2.25586 -1.6309871,-1.41058 -3.205028,-3.37474 -4.9042999,-5.38868 -3.3985436,-4.0279 -7.44618,-8.355463 -13.890623,-8.355463 z"
         style="color:#000000;font-style:normal;font-variant:normal;font-weight:normal;font-stretch:normal;font-size:medium;line-height:normal;font-family:sans-serif;font-variant-ligatures:normal;font-variant-position:normal;font-variant-caps:normal;font-variant-numeric:normal;font-variant-alternates:normal;font-variant-east-asian:normal;font-feature-settings:normal;font-variation-settings:normal;text-indent:0;text-align:start;text-decoration:none;text-decoration-line:none;text-decoration-style:solid;text-decoration-color:#000000;letter-spacing:normal;word-spacing:normal;text-transform:none;writing-mode:lr-tb;direction:ltr;text-orientation:mixed;dominant-baseline:auto;baseline-shift:baseline;text-anchor:start;white-space:normal;shape-padding:0;shape-margin:0;inline-size:0;clip-rule:nonzero;display:inline;overflow:visible;visibility:visible;isolation:auto;mix-blend-mode:normal;color-interpolation:sRGB;color-interpolation-filters:linearRGB;solid-color:#000000;solid-opacity:1;fill:#286bb2;fill-opacity:1;fill-rule:nonzero;stroke:none;stroke-width:2;stroke-linecap:butt;stroke-linejoin:miter;stroke-miterlimit:4;stroke-dasharray:none;stroke-dashoffset:0;stroke-opacity:1;color-rendering:auto;image-rendering:auto;shape-rendering:auto;text-rendering:auto;enable-background:accumulate;stop-color:#000000"
         id="path1242"
         sodipodi:nodetypes="sssssssssssss" />
      <path
         id="rect1149-4-0"
         style="fill:url(#linearGradient5285);fill-opacity:1;stroke-width:0.999999"
         d="m -48.999997,99.649987 29.000009,2e-5 c 12.0000009,0 15.0000009,16.000003 24.000001,16.000003 l 48.999992,-2e-5 c 6.093997,0 10.99999,4.906 10.99999,10.99996 v 78.00004 c 0,6.094 -4.906001,11 -10.99999,11 H -48.999997 c -6.093993,0 -10.99999,-4.906 -10.99999,-11 v -94.00004 c 0,-6.09398 4.905997,-10.999963 10.99999,-10.999963 z"
         sodipodi:nodetypes="sccssssssss" />
      <path
         d="m 52.999997,114.64997 c 6.630694,0 11.999996,5.36932 11.999996,12 v 79.00004 c 0,6.6307 -5.369302,12.00001 -11.999996,12.00001 H -48.999995 c -6.630689,0 -12,-5.36931 -12,-12.00001 V 142.65 c 0,-6.63068 5.369311,-12.00001 12,-12.00001 h 30.999988 c 1.953706,0 3.574097,-0.84528 5.205081,-2.25586 1.630983,-1.41058 3.2050239,-3.37474 4.9042957,-5.38868 3.3985437,-4.0279 7.44618339,-8.35546 13.8906257,-8.35546 z"
         style="color:#000000;font-style:normal;font-variant:normal;font-weight:normal;font-stretch:normal;font-size:medium;line-height:normal;font-family:sans-serif;font-variant-ligatures:normal;font-variant-position:normal;font-variant-caps:normal;font-variant-numeric:normal;font-variant-alternates:normal;font-variant-east-asian:normal;font-feature-settings:normal;font-variation-settings:normal;text-indent:0;text-align:start;text-decoration:none;text-decoration-line:none;text-decoration-style:solid;text-decoration-color:#000000;letter-spacing:normal;word-spacing:normal;text-transform:none;writing-mode:lr-tb;direction:ltr;text-orientation:mixed;dominant-baseline:auto;baseline-shift:baseline;text-anchor:start;white-space:normal;shape-padding:0;shape-margin:0;inline-size:0;clip-rule:nonzero;display:inline;overflow:visible;visibility:visible;isolation:auto;mix-blend-mode:normal;color-interpolation:sRGB;color-interpolation-filters:linearRGB;solid-color:#000000;solid-opacity:1;fill:#3182d9;fill-opacity:1;fill-rule:nonzero;stroke:none;stroke-width:2;stroke-linecap:butt;stroke-linejoin:miter;stroke-miterlimit:4;stroke-dasharray:none;stroke-dashoffset:0;stroke-opacity:1;color-rendering:auto;image-rendering:auto;shape-rendering:auto;text-rendering:auto;enable-background:accumulate;stop-color:#000000"
         id="path1242-2"
         sodipodi:nodetypes="sssssssssssss" />
      <path
         id="rect1149-4-0-6"
         style="fill:url(#linearGradient5914);fill-opacity:1;stroke-width:0.999999"
         d="m 52.999997,115.64997 -47.0000092,2e-5 c -12.0000001,0 -15.0000002,16.00001 -24.0000028,16.00001 l -30.99999,-2e-5 c -6.093997,0 -10.99999,4.906 -10.99999,10.99996 v 63.00007 c 0,6.094 4.906001,11.00001 10.99999,11.00001 H 52.999997 c 6.093993,0 10.99999,-4.90601 10.99999,-11.00001 v -79.00008 c 0,-6.09396 -4.905997,-10.99996 -10.99999,-10.99996 z"
         sodipodi:nodetypes="sccssssssss" />
    </g>
    <g
       transform="matrix(2,0,0,2,-12,-500.64999)"
       id="g1658" />
    <g
       id="g5223"
       transform="translate(23.999997,20.000005)" />
    <path
       style="opacity:1;fill:#3182d9;fill-opacity:1;stroke:none;stroke-width:2.00000048;stroke-linecap:round;stroke-linejoin:round;stroke-miterlimit:4;stroke-dasharray:none;stroke-opacity:1"
       d="m 64,239.64999 c -7.756002,0 -14.000003,6.244 -14.000003,14 0,7.75601 6.244001,14.00001 14.000003,14.00001 7.756002,0 14.000004,-6.244 14.000004,-14.00001 0,-7.756 -6.244002,-14 -14.000004,-14 z M 64,271.65 c -10.516023,0 -19.995233,6.33524 -24.019538,16.05078 16.260544,10.80214 32.263658,10.446 48.039076,0 C 83.995233,277.98524 74.516023,271.65 64,271.65 Z"
       id="rect911-2"
       inkscape:connector-curvature="0" />
    <path
       style="opacity:1;fill:url(#linearGradient1016);fill-opacity:1;stroke:none;stroke-width:2.00000048;stroke-linecap:round;stroke-linejoin:round;stroke-miterlimit:4;stroke-dasharray:none;stroke-opacity:1"
       d="m 64,238.64999 c -7.756002,0 -14.000003,6.244 -14.000003,14 0,7.75601 6.244001,14.00001 14.000003,14.00001 7.756002,0 14.000004,-6.244 14.000004,-14.00001 0,-7.756 -6.244002,-14 -14.000004,-14 z M 64,270.65 c -10.516023,0 -19.995233,6.33524 -24.019538,16.05078 16.260544,10.80214 32.263658,10.446 48.039078,0 C 83.99523,276.98524 74.516023,270.65 64,270.65 Z"
       id="rect911-2-9"
       inkscape:connector-curvature="0" />
  </g>
</svg>
