<?xml version="1.0" encoding="UTF-8" standalone="no"?>
<!-- Created with Inkscape (http://www.inkscape.org/) -->

<svg
   xmlns:dc="http://purl.org/dc/elements/1.1/"
   xmlns:cc="http://creativecommons.org/ns#"
   xmlns:rdf="http://www.w3.org/1999/02/22-rdf-syntax-ns#"
   xmlns:svg="http://www.w3.org/2000/svg"
   xmlns="http://www.w3.org/2000/svg"
   xmlns:xlink="http://www.w3.org/1999/xlink"
   xmlns:sodipodi="http://sodipodi.sourceforge.net/DTD/sodipodi-0.dtd"
   xmlns:inkscape="http://www.inkscape.org/namespaces/inkscape"
   width="128"
   height="128"
   viewBox="0 0 128 128"
   version="1.1"
   id="svg8"
   inkscape:version="0.92.2 2405546, 2018-03-11"
   sodipodi:docname="folder-pictures.svg">
  <title
     id="title7895">Antu icon Theme</title>
  <defs
     id="defs2">
    <linearGradient
       inkscape:collect="always"
       xlink:href="#linearGradient4627"
       id="linearGradient6169"
       x1="65"
       y1="99"
       x2="65.007301"
       y2="79.000206"
       gradientUnits="userSpaceOnUse"
       gradientTransform="matrix(1.0003399,0,0,1,-63.029401,162.64984)" />
    <linearGradient
       id="linearGradient4627"
       inkscape:collect="always">
      <stop
         id="stop4623"
         offset="0"
         style="stop-color:#c2f7f9;stop-opacity:1" />
      <stop
         id="stop4625"
         offset="1"
         style="stop-color:#e5fafb;stop-opacity:1" />
    </linearGradient>
    <linearGradient
       inkscape:collect="always"
       xlink:href="#linearGradient10239"
       id="linearGradient948"
       x1="17"
       y1="362.14999"
       x2="17"
       y2="346.64999"
       gradientUnits="userSpaceOnUse" />
    <linearGradient
       id="linearGradient10239"
       inkscape:collect="always">
      <stop
         id="stop10235"
         offset="0"
         style="stop-color:#348be7;stop-opacity:1" />
      <stop
         id="stop10237"
         offset="1"
         style="stop-color:#3997f1;stop-opacity:1" />
    </linearGradient>
    <linearGradient
       inkscape:collect="always"
       xlink:href="#linearGradient10231"
       id="linearGradient980"
       x1="41"
       y1="404.64999"
       x2="41"
       y2="354.64999"
       gradientUnits="userSpaceOnUse" />
    <linearGradient
       id="linearGradient10231"
       inkscape:collect="always">
      <stop
         id="stop10227"
         offset="0"
         style="stop-color:#3e9ff4;stop-opacity:1" />
      <stop
         id="stop10229"
         offset="1"
         style="stop-color:#50c2f9;stop-opacity:1" />
    </linearGradient>
  </defs>
  <sodipodi:namedview
     id="base"
     pagecolor="#ffffff"
     bordercolor="#666666"
     borderopacity="1.0"
     inkscape:pageopacity="0.0"
     inkscape:pageshadow="2"
     inkscape:zoom="1.979899"
     inkscape:cx="76.612868"
     inkscape:cy="46.049637"
     inkscape:document-units="px"
     inkscape:current-layer="g6837"
     showgrid="true"
     units="px"
     inkscape:window-width="1360"
     inkscape:window-height="711"
     inkscape:window-x="0"
     inkscape:window-y="28"
     inkscape:window-maximized="1"
     objecttolerance="10"
     gridtolerance="10"
     guidetolerance="10">
    <inkscape:grid
       type="xygrid"
       id="grid7897"
       empspacing="4" />
  </sodipodi:namedview>
  <metadata
     id="metadata5">
    <rdf:RDF>
      <cc:Work
         rdf:about="">
        <dc:format>image/svg+xml</dc:format>
        <dc:type
           rdf:resource="http://purl.org/dc/dcmitype/StillImage" />
        <dc:title>Antu icon Theme</dc:title>
      </cc:Work>
    </rdf:RDF>
  </metadata>
  <g
     inkscape:label="Capa 1"
     inkscape:groupmode="layer"
     id="layer1"
     transform="translate(0,-186.64999)">
    <g
       id="g6837"
       transform="translate(64.000001,23.999995)">
      <g
         transform="matrix(2,0,0,2,-76.000001,-524.64999)"
         id="g1658">
        <path
           id="path1651"
           transform="matrix(0.5,0,0,0.5,5.5,263.64999)"
           d="m 9,165 c -3.8607028,0 -7,3.1393 -7,7 v 104 c 0,3.8607 3.1392972,7 7,7 h 112 c 3.8607,0 7,-3.1393 7,-7 v -88 c 0,-3.8607 -3.1393,-7 -7,-7 H 65 c -0.716666,0 -1.721469,-0.70632 -2.859375,-2.125 -1.137904,-1.41868 -2.355204,-3.40752 -3.679687,-5.42578 -1.324484,-2.01826 -2.760475,-4.07436 -4.445313,-5.67578 C 52.330789,166.172 50.333334,165 48,165 Z"
           style="color:#000000;font-style:normal;font-variant:normal;font-weight:normal;font-stretch:normal;font-size:medium;line-height:normal;font-family:sans-serif;font-variant-ligatures:normal;font-variant-position:normal;font-variant-caps:normal;font-variant-numeric:normal;font-variant-alternates:normal;font-feature-settings:normal;text-indent:0;text-align:start;text-decoration:none;text-decoration-line:none;text-decoration-style:solid;text-decoration-color:#000000;letter-spacing:normal;word-spacing:normal;text-transform:none;writing-mode:lr-tb;direction:ltr;text-orientation:mixed;dominant-baseline:auto;baseline-shift:baseline;text-anchor:start;white-space:normal;shape-padding:0;clip-rule:nonzero;display:inline;overflow:visible;visibility:visible;opacity:1;isolation:auto;mix-blend-mode:normal;color-interpolation:sRGB;color-interpolation-filters:linearRGB;solid-color:#000000;solid-opacity:1;vector-effect:none;fill:#286bb2;fill-opacity:1;fill-rule:nonzero;stroke:none;stroke-width:2;stroke-linecap:round;stroke-linejoin:round;stroke-miterlimit:4;stroke-dasharray:none;stroke-dashoffset:0;stroke-opacity:1;color-rendering:auto;image-rendering:auto;shape-rendering:auto;text-rendering:auto;enable-background:accumulate"
           inkscape:connector-curvature="0" />
        <path
           sodipodi:nodetypes="sccssssssss"
           inkscape:connector-curvature="0"
           id="rect1558"
           d="m 10,346.64999 h 19.5 c 4,0 6,8 8.5,8 h 28 c 1.662,0 3,1.338 3,3 v 44 c 0,1.662 -1.338,3 -3,3 H 10 c -1.662,0 -3,-1.338 -3,-3 v -52 c 0,-1.662 1.338,-3 3,-3 z"
           style="opacity:1;vector-effect:none;fill:url(#linearGradient948);fill-opacity:1;stroke:none;stroke-width:1;stroke-linecap:round;stroke-linejoin:round;stroke-miterlimit:4;stroke-dasharray:none;stroke-dashoffset:0;stroke-opacity:1" />
        <path
           id="path1644"
           transform="matrix(0.5,0,0,0.5,5.5,263.64999)"
           d="m 65,181 c -1.783334,0 -3.153529,1.29368 -4.421875,2.875 -1.268344,1.58132 -2.488546,3.59248 -3.789063,5.57422 -1.300516,1.98174 -2.677023,3.92564 -4.148437,5.32422 C 51.169213,196.172 49.666666,197 48,197 H 9 c -3.8607028,0 -7,3.1393 -7,7 v 72 c 0,3.8607 3.1392972,7 7,7 h 112 c 3.8607,0 7,-3.1393 7,-7 v -88 c 0,-3.8607 -3.1393,-7 -7,-7 z"
           style="color:#000000;font-style:normal;font-variant:normal;font-weight:normal;font-stretch:normal;font-size:medium;line-height:normal;font-family:sans-serif;font-variant-ligatures:normal;font-variant-position:normal;font-variant-caps:normal;font-variant-numeric:normal;font-variant-alternates:normal;font-feature-settings:normal;text-indent:0;text-align:start;text-decoration:none;text-decoration-line:none;text-decoration-style:solid;text-decoration-color:#000000;letter-spacing:normal;word-spacing:normal;text-transform:none;writing-mode:lr-tb;direction:ltr;text-orientation:mixed;dominant-baseline:auto;baseline-shift:baseline;text-anchor:start;white-space:normal;shape-padding:0;clip-rule:nonzero;display:inline;overflow:visible;visibility:visible;opacity:1;isolation:auto;mix-blend-mode:normal;color-interpolation:sRGB;color-interpolation-filters:linearRGB;solid-color:#000000;solid-opacity:1;vector-effect:none;fill:#3182d9;fill-opacity:1;fill-rule:nonzero;stroke:none;stroke-width:2;stroke-linecap:round;stroke-linejoin:round;stroke-miterlimit:4;stroke-dasharray:none;stroke-dashoffset:0;stroke-opacity:1;color-rendering:auto;image-rendering:auto;shape-rendering:auto;text-rendering:auto;enable-background:accumulate"
           inkscape:connector-curvature="0" />
        <path
           sodipodi:nodetypes="sccssssssss"
           inkscape:connector-curvature="0"
           id="rect1558-6"
           d="m 10,362.64999 h 19.5 c 4,0 6,-8 8.5,-8 h 28 c 1.662,0 3,1.338 3,3 v 44 c 0,1.662 -1.338,3 -3,3 H 10 c -1.662,0 -3,-1.338 -3,-3 v -36 c 0,-1.662 1.338,-3 3,-3 z"
           style="opacity:1;vector-effect:none;fill:url(#linearGradient980);fill-opacity:1;stroke:none;stroke-width:1;stroke-linecap:round;stroke-linejoin:round;stroke-miterlimit:4;stroke-dasharray:none;stroke-dashoffset:0;stroke-opacity:1" />
      </g>
      <path
         inkscape:connector-curvature="0"
         id="path6156-2"
         d="m -14.012752,218.64985 c -3.879322,0 -7.002383,3.12201 -7.002383,6.99999 0,3.87802 3.123061,7.00003 7.002383,7.00003 3.879322,0 7.0023802,-3.12201 7.0023802,-7.00003 0,-3.87798 -3.1230582,-6.99999 -7.0023802,-6.99999 z m 24.996778,17.99804 a 1.0004402,1.0001001 0 0 0 -0.81278,0.43555 l -13.5866448,19.62304 -8.8076822,-10.69137 a 1.0004401,1.0001 0 0 0 -0.789332,-0.36511 1.0004401,1.0001 0 0 0 -0.777611,0.39258 l -13.004408,17.00002 a 1.0004401,1.0001 0 0 0 0.795188,1.60739 H 1.0099292 a 1.0004401,1.0001 0 0 0 0.03326,-0.002 H 27.997668 a 1.0004402,1.0001001 0 0 0 0.842086,-1.54298 L 11.83397,237.1051 a 1.0004402,1.0001001 0 0 0 -0.849898,-0.45706 z"
         style="color:#000000;font-style:normal;font-variant:normal;font-weight:normal;font-stretch:normal;font-size:medium;line-height:normal;font-family:sans-serif;font-variant-ligatures:normal;font-variant-position:normal;font-variant-caps:normal;font-variant-numeric:normal;font-variant-alternates:normal;font-feature-settings:normal;text-indent:0;text-align:start;text-decoration:none;text-decoration-line:none;text-decoration-style:solid;text-decoration-color:#000000;letter-spacing:normal;word-spacing:normal;text-transform:none;writing-mode:lr-tb;direction:ltr;text-orientation:mixed;dominant-baseline:auto;baseline-shift:baseline;text-anchor:start;white-space:normal;shape-padding:0;clip-rule:nonzero;display:inline;overflow:visible;visibility:visible;opacity:1;isolation:auto;mix-blend-mode:normal;color-interpolation:sRGB;color-interpolation-filters:linearRGB;solid-color:#000000;solid-opacity:1;vector-effect:none;fill:#3182d9;fill-opacity:1;fill-rule:nonzero;stroke:none;stroke-width:2.00033998;stroke-linecap:round;stroke-linejoin:round;stroke-miterlimit:4;stroke-dasharray:none;stroke-dashoffset:0;stroke-opacity:1;color-rendering:auto;image-rendering:auto;shape-rendering:auto;text-rendering:auto;enable-background:accumulate" />
      <path
         inkscape:connector-curvature="0"
         id="path6156"
         d="m -14.012748,217.64987 c -3.879318,0 -7.00238,3.122 -7.00238,6.99998 0,3.87802 3.123062,7.00003 7.00238,7.00003 3.879318,0 7.0023802,-3.12201 7.0023802,-7.00003 0,-3.87798 -3.1230622,-6.99998 -7.0023802,-6.99998 z m 24.996774,17.99803 a 1.00044,1.0001001 0 0 0 -0.812776,0.43555 l -13.5866488,19.62304 -8.8076792,-10.69137 a 1.0004399,1.0001 0 0 0 -0.789327,-0.3651 1.0004399,1.0001 0 0 0 -0.777612,0.39258 l -13.004415,17.00001 A 1.0004399,1.0001 0 0 0 -25.99924,263.65 H 1.0099332 a 1.0004399,1.0001 0 0 0 0.03326,-0.002 H 27.997669 a 1.00044,1.0001001 0 0 0 0.842082,-1.54299 l -17.005781,-26 a 1.00044,1.0001001 0 0 0 -0.849898,-0.45706 z"
         style="color:#000000;font-style:normal;font-variant:normal;font-weight:normal;font-stretch:normal;font-size:medium;line-height:normal;font-family:sans-serif;font-variant-ligatures:normal;font-variant-position:normal;font-variant-caps:normal;font-variant-numeric:normal;font-variant-alternates:normal;font-feature-settings:normal;text-indent:0;text-align:start;text-decoration:none;text-decoration-line:none;text-decoration-style:solid;text-decoration-color:#000000;letter-spacing:normal;word-spacing:normal;text-transform:none;writing-mode:lr-tb;direction:ltr;text-orientation:mixed;dominant-baseline:auto;baseline-shift:baseline;text-anchor:start;white-space:normal;shape-padding:0;clip-rule:nonzero;display:inline;overflow:visible;visibility:visible;opacity:1;isolation:auto;mix-blend-mode:normal;color-interpolation:sRGB;color-interpolation-filters:linearRGB;solid-color:#000000;solid-opacity:1;vector-effect:none;fill:url(#linearGradient6169);fill-opacity:1;fill-rule:nonzero;stroke:none;stroke-width:2.00033998;stroke-linecap:round;stroke-linejoin:round;stroke-miterlimit:4;stroke-dasharray:none;stroke-dashoffset:0;stroke-opacity:1;color-rendering:auto;image-rendering:auto;shape-rendering:auto;text-rendering:auto;enable-background:accumulate" />
    </g>
  </g>
</svg>
