<?xml version="1.0" encoding="UTF-8" standalone="no"?>
<!-- Created with Inkscape (http://www.inkscape.org/) -->

<svg
   xmlns:dc="http://purl.org/dc/elements/1.1/"
   xmlns:cc="http://creativecommons.org/ns#"
   xmlns:rdf="http://www.w3.org/1999/02/22-rdf-syntax-ns#"
   xmlns:svg="http://www.w3.org/2000/svg"
   xmlns="http://www.w3.org/2000/svg"
   xmlns:xlink="http://www.w3.org/1999/xlink"
   xmlns:sodipodi="http://sodipodi.sourceforge.net/DTD/sodipodi-0.dtd"
   xmlns:inkscape="http://www.inkscape.org/namespaces/inkscape"
   width="128"
   height="128"
   viewBox="0 0 128 128"
   version="1.1"
   id="svg8"
   inkscape:version="0.92.2 2405546, 2018-03-11"
   sodipodi:docname="folder-image-people.svg">
  <title
     id="title7895">Antu icon Theme</title>
  <defs
     id="defs2">
    <linearGradient
       gradientTransform="matrix(3.7795275,0,0,3.7795275,27.120554,-829.99771)"
       inkscape:collect="always"
       xlink:href="#linearGradient6793"
       id="linearGradient6795"
       x1="-6.9110637"
       y1="272.42764"
       x2="-6.9110637"
       y2="265.81305"
       gradientUnits="userSpaceOnUse" />
    <linearGradient
       inkscape:collect="always"
       id="linearGradient6793">
      <stop
         style="stop-color:#3489e5;stop-opacity:1"
         offset="0"
         id="stop6789" />
      <stop
         style="stop-color:#3b99f3;stop-opacity:1"
         offset="1"
         id="stop6791" />
    </linearGradient>
    <linearGradient
       gradientTransform="matrix(3.7795275,0,0,3.7795275,-16.821079,-865.60561)"
       inkscape:collect="always"
       xlink:href="#linearGradient4530"
       id="linearGradient4532"
       x1="15.298494"
       y1="304.60306"
       x2="15.298494"
       y2="279.20306"
       gradientUnits="userSpaceOnUse" />
    <linearGradient
       inkscape:collect="always"
       id="linearGradient4530">
      <stop
         style="stop-color:#3c99f3;stop-opacity:1"
         offset="0"
         id="stop4526" />
      <stop
         style="stop-color:#52c6f9;stop-opacity:1"
         offset="1"
         id="stop4528" />
    </linearGradient>
    <linearGradient
       inkscape:collect="always"
       id="linearGradient4631">
      <stop
         style="stop-color:#c2f0f2;stop-opacity:1"
         offset="0"
         id="stop4627" />
      <stop
         style="stop-color:#f2feff;stop-opacity:1"
         offset="1"
         id="stop4629" />
    </linearGradient>
    <style
       type="text/css"
       id="current-color-scheme">
      .ColorScheme-Text {
        color:#122036;
      }
      </style>
    <style
       type="text/css"
       id="current-color-scheme-7">
      .ColorScheme-Text {
        color:#122036;
      }
      </style>
    <style
       type="text/css"
       id="current-color-scheme-5">
      .ColorScheme-Text {
        color:#122036;
      }
      </style>
    <style
       id="current-color-scheme-9"
       type="text/css">
      .ColorScheme-Text {
        color:#122036;
      }
      </style>
    <style
       id="current-color-scheme-1"
       type="text/css">
      .ColorScheme-Text {
        color:#122036;
      }
      </style>
    <style
       type="text/css"
       id="current-color-scheme-10">
      .ColorScheme-Text {
        color:#122036;
      }
      </style>
    <style
       id="current-color-scheme-6"
       type="text/css">
      .ColorScheme-Text {
        color:#122036;
      }
      </style>
    <style
       id="current-color-scheme-7-1"
       type="text/css">
      .ColorScheme-Text {
        color:#122036;
      }
      </style>
    <style
       id="current-color-scheme-5-2"
       type="text/css">
      .ColorScheme-Text {
        color:#122036;
      }
      </style>
    <linearGradient
       inkscape:collect="always"
       xlink:href="#linearGradient4631"
       id="linearGradient1016"
       x1="60"
       y1="302.64999"
       x2="60"
       y2="246.64999"
       gradientUnits="userSpaceOnUse"
       gradientTransform="translate(2.624379,-8.97997)" />
  </defs>
  <sodipodi:namedview
     id="base"
     pagecolor="#ffffff"
     bordercolor="#666666"
     borderopacity="1.0"
     inkscape:pageopacity="0.0"
     inkscape:pageshadow="2"
     inkscape:zoom="2.8284271"
     inkscape:cx="99.976568"
     inkscape:cy="40.539469"
     inkscape:document-units="px"
     inkscape:current-layer="layer1"
     showgrid="true"
     units="px"
     inkscape:window-width="1360"
     inkscape:window-height="711"
     inkscape:window-x="0"
     inkscape:window-y="28"
     inkscape:window-maximized="1"
     objecttolerance="10"
     gridtolerance="10"
     guidetolerance="10">
    <inkscape:grid
       type="xygrid"
       id="grid7897"
       empspacing="4" />
  </sodipodi:namedview>
  <metadata
     id="metadata5">
    <rdf:RDF>
      <cc:Work
         rdf:about="">
        <dc:format>image/svg+xml</dc:format>
        <dc:type
           rdf:resource="http://purl.org/dc/dcmitype/StillImage" />
        <dc:title>Antu icon Theme</dc:title>
      </cc:Work>
    </rdf:RDF>
  </metadata>
  <g
     inkscape:label="Capa 1"
     inkscape:groupmode="layer"
     id="layer1"
     transform="translate(0,-186.64999)">
    <g
       id="g5223"
       transform="translate(23.999997,20.000005)">
      <path
         sodipodi:nodetypes="sccssssssss"
         inkscape:connector-curvature="0"
         id="rect4937-8-6"
         d="m -20.000017,174.65003 42.999986,-4e-5 11.999996,13.99997 h 3.500001 c 2.216009,0 4.000026,1.78402 4.000026,3.99999 v 14.00001 c 0,2.21602 -1.784017,4.00003 -4.000026,4.00003 h -58.499945 c -2.216013,0 -4.000025,-1.78401 -4.000025,-4.00003 v -27.99994 c 0,-2.21598 1.784012,-3.99999 3.999987,-3.99999 z"
         style="opacity:1;vector-effect:none;fill:#3182d9;fill-opacity:1;stroke:none;stroke-width:0.75590551;stroke-linecap:round;stroke-linejoin:round;stroke-miterlimit:4;stroke-dasharray:none;stroke-dashoffset:0;stroke-opacity:1;paint-order:normal" />
      <path
         sodipodi:nodetypes="scccssss"
         inkscape:connector-curvature="0"
         id="rect9379-4-2"
         d="M -20.000093,175.65002 H 21.999906 L 35.999922,191.65 21.999906,205.64998 h -41.999999 c -1.662009,0 -2.999999,-1.33799 -2.999999,-3 v -23.99996 c 0,-1.66201 1.33799,-3 2.999999,-3 z"
         style="opacity:1;fill:url(#linearGradient6795);fill-opacity:1;stroke:none;stroke-width:0.99999994;stroke-opacity:1" />
      <path
         sodipodi:nodetypes="cccssssssssc"
         inkscape:connector-curvature="0"
         id="rect4931-3-6"
         d="M -22.962184,201.64999 H 22.999969 L 34.999965,188.65 h 65.000065 c 2.21596,0 3.99998,1.78401 3.99998,4.00003 v 89.99996 c 0,2.21597 -1.78402,3.99999 -3.99998,3.99999 H -19.999979 c -2.216013,0 -4.001121,-1.78402 -4.000025,-3.99999 l 0.0378,-76.99998 c 0.0011,-2.21601 1.783975,-4.00157 3.999987,-4.00002 z"
         style="opacity:1;vector-effect:none;fill:#3182d9;fill-opacity:1;stroke:none;stroke-width:0.75590551;stroke-linecap:round;stroke-linejoin:round;stroke-miterlimit:4;stroke-dasharray:none;stroke-dashoffset:0;stroke-opacity:1;paint-order:normal" />
      <path
         sodipodi:nodetypes="sccssssssss"
         inkscape:connector-curvature="0"
         id="rect9376-6-1"
         d="m -20.000093,202.64998 h 44.000008 l 12.000007,-12.99999 h 63.999983 c 1.662015,0 3.000005,1.33799 3.000005,3 v 90 c 0,1.66201 -1.33799,3 -3.000005,3 H -20.000093 c -1.662009,0 -2.999999,-1.33799 -2.999999,-3 v -77.00001 c 0,-1.66201 1.33799,-3.00386 2.999999,-3 z"
         style="opacity:1;fill:url(#linearGradient4532);fill-opacity:1;stroke:none;stroke-width:0.99999994;stroke-opacity:1" />
    </g>
    <path
       style="opacity:1;fill:#358bd9;fill-opacity:1;stroke:none;stroke-width:2.00000048;stroke-linecap:round;stroke-linejoin:round;stroke-miterlimit:4;stroke-dasharray:none;stroke-opacity:1"
       d="m 64,239.64999 c -7.756002,0 -14.000003,6.244 -14.000003,14 0,7.75601 6.244001,14.00001 14.000003,14.00001 7.756002,0 14.000004,-6.244 14.000004,-14.00001 0,-7.756 -6.244002,-14 -14.000004,-14 z M 64,271.65 c -10.516023,0 -19.995233,6.33524 -24.019538,16.05078 16.260544,10.80214 32.263658,10.446 48.039076,0 C 83.995233,277.98524 74.516023,271.65 64,271.65 Z"
       id="rect911-2"
       inkscape:connector-curvature="0" />
    <path
       style="opacity:1;fill:url(#linearGradient1016);fill-opacity:1;stroke:none;stroke-width:2.00000048;stroke-linecap:round;stroke-linejoin:round;stroke-miterlimit:4;stroke-dasharray:none;stroke-opacity:1"
       d="m 64,238.64999 c -7.756002,0 -14.000003,6.244 -14.000003,14 0,7.75601 6.244001,14.00001 14.000003,14.00001 7.756002,0 14.000004,-6.244 14.000004,-14.00001 0,-7.756 -6.244002,-14 -14.000004,-14 z M 64,270.65 c -10.516023,0 -19.995233,6.33524 -24.019538,16.05078 16.260544,10.80214 32.263658,10.446 48.039078,0 C 83.99523,276.98524 74.516023,270.65 64,270.65 Z"
       id="rect911-2-9"
       inkscape:connector-curvature="0" />
  </g>
</svg>
