<?xml version="1.0" encoding="UTF-8" standalone="no"?>
<!-- Created with Inkscape (http://www.inkscape.org/) -->

<svg
   xmlns:dc="http://purl.org/dc/elements/1.1/"
   xmlns:cc="http://creativecommons.org/ns#"
   xmlns:rdf="http://www.w3.org/1999/02/22-rdf-syntax-ns#"
   xmlns:svg="http://www.w3.org/2000/svg"
   xmlns="http://www.w3.org/2000/svg"
   xmlns:xlink="http://www.w3.org/1999/xlink"
   xmlns:sodipodi="http://sodipodi.sourceforge.net/DTD/sodipodi-0.dtd"
   xmlns:inkscape="http://www.inkscape.org/namespaces/inkscape"
   width="128"
   height="128"
   viewBox="0 0 128 128"
   version="1.1"
   id="svg8"
   inkscape:version="0.92.1 r"
   sodipodi:docname="folder-pictures.svg">
  <title
     id="title7895">Antu icon Theme</title>
  <defs
     id="defs2">
    <linearGradient
       inkscape:collect="always"
       xlink:href="#linearGradient4627"
       id="linearGradient6169"
       x1="65"
       y1="99"
       x2="65.007301"
       y2="79.000206"
       gradientUnits="userSpaceOnUse"
       gradientTransform="matrix(1.0003399,0,0,1,-63.029401,160.64979)" />
    <linearGradient
       id="linearGradient4627"
       inkscape:collect="always">
      <stop
         id="stop4623"
         offset="0"
         style="stop-color:#c2f7f9;stop-opacity:1" />
      <stop
         id="stop4625"
         offset="1"
         style="stop-color:#e5fafb;stop-opacity:1" />
    </linearGradient>
    <linearGradient
       gradientTransform="matrix(3.7795275,0,0,3.7795275,-12.879447,-833.9977)"
       inkscape:collect="always"
       xlink:href="#linearGradient6793"
       id="linearGradient6795"
       x1="-6.9110637"
       y1="272.42764"
       x2="-6.9110637"
       y2="265.81305"
       gradientUnits="userSpaceOnUse" />
    <linearGradient
       inkscape:collect="always"
       id="linearGradient6793">
      <stop
         style="stop-color:#3489e5;stop-opacity:1"
         offset="0"
         id="stop6789" />
      <stop
         style="stop-color:#3b99f3;stop-opacity:1"
         offset="1"
         id="stop6791" />
    </linearGradient>
    <linearGradient
       gradientTransform="matrix(3.7795275,0,0,3.7795275,-56.82108,-869.6056)"
       inkscape:collect="always"
       xlink:href="#linearGradient4530"
       id="linearGradient4532"
       x1="15.298494"
       y1="304.60306"
       x2="15.298494"
       y2="279.20306"
       gradientUnits="userSpaceOnUse" />
    <linearGradient
       inkscape:collect="always"
       id="linearGradient4530">
      <stop
         style="stop-color:#3c99f3;stop-opacity:1"
         offset="0"
         id="stop4526" />
      <stop
         style="stop-color:#52c6f9;stop-opacity:1"
         offset="1"
         id="stop4528" />
    </linearGradient>
  </defs>
  <sodipodi:namedview
     id="base"
     pagecolor="#ffffff"
     bordercolor="#666666"
     borderopacity="1.0"
     inkscape:pageopacity="0.0"
     inkscape:pageshadow="2"
     inkscape:zoom="11.2"
     inkscape:cx="68.928777"
     inkscape:cy="48.936476"
     inkscape:document-units="px"
     inkscape:current-layer="layer1"
     showgrid="true"
     units="px"
     inkscape:window-width="1366"
     inkscape:window-height="697"
     inkscape:window-x="0"
     inkscape:window-y="0"
     inkscape:window-maximized="1"
     objecttolerance="10"
     gridtolerance="10"
     guidetolerance="10">
    <inkscape:grid
       type="xygrid"
       id="grid7897"
       empspacing="4" />
  </sodipodi:namedview>
  <metadata
     id="metadata5">
    <rdf:RDF>
      <cc:Work
         rdf:about="">
        <dc:format>image/svg+xml</dc:format>
        <dc:type
           rdf:resource="http://purl.org/dc/dcmitype/StillImage" />
        <dc:title>Antu icon Theme</dc:title>
      </cc:Work>
    </rdf:RDF>
  </metadata>
  <g
     inkscape:label="Capa 1"
     inkscape:groupmode="layer"
     id="layer1"
     transform="translate(0,-186.64999)">
    <g
       id="g6837"
       transform="translate(64.000001,23.999995)">
      <path
         sodipodi:nodetypes="sccssssssss"
         inkscape:connector-curvature="0"
         id="rect4937-8-6"
         d="m -60.000018,170.65004 42.999986,-4e-5 11.9999962,13.99997 h 3.500001 c 2.216009,0 4.000026,1.78402 4.000026,3.99999 v 14.00001 c 0,2.21602 -1.784017,4.00003 -4.000026,4.00003 H -59.99998 c -2.216013,0 -4.000025,-1.78401 -4.000025,-4.00003 v -27.99994 c 0,-2.21598 1.784012,-3.99999 3.999987,-3.99999 z"
         style="opacity:1;vector-effect:none;fill:#3182d9;fill-opacity:1;stroke:none;stroke-width:0.75590551;stroke-linecap:round;stroke-linejoin:round;stroke-miterlimit:4;stroke-dasharray:none;stroke-dashoffset:0;stroke-opacity:1;paint-order:normal" />
      <path
         sodipodi:nodetypes="scccssss"
         inkscape:connector-curvature="0"
         id="rect9379-4-2"
         d="m -60.000094,171.65003 h 41.999999 l 14.0000162,15.99998 -14.0000162,13.99998 h -41.999999 c -1.662009,0 -2.999999,-1.33799 -2.999999,-3 v -23.99996 c 0,-1.66201 1.33799,-3 2.999999,-3 z"
         style="opacity:1;fill:url(#linearGradient6795);fill-opacity:1;stroke:none;stroke-width:0.99999994;stroke-opacity:1" />
      <path
         sodipodi:nodetypes="cccssssssssc"
         inkscape:connector-curvature="0"
         id="rect4931-3-6"
         d="m -62.962185,197.65 h 45.962153 L -5.0000358,184.65001 H 60.000024 c 2.21596,0 3.99998,1.78401 3.99998,4.00003 V 278.65 c 0,2.21597 -1.78402,3.99999 -3.99998,3.99999 H -59.99998 c -2.216013,0 -4.001121,-1.78402 -4.000025,-3.99999 l 0.0378,-76.99998 c 0.0011,-2.21601 1.783975,-4.00157 3.999987,-4.00002 z"
         style="opacity:1;vector-effect:none;fill:#3182d9;fill-opacity:1;stroke:none;stroke-width:0.75590551;stroke-linecap:round;stroke-linejoin:round;stroke-miterlimit:4;stroke-dasharray:none;stroke-dashoffset:0;stroke-opacity:1;paint-order:normal" />
      <path
         sodipodi:nodetypes="sccssssssss"
         inkscape:connector-curvature="0"
         id="rect9376-6-1"
         d="m -60.000094,198.64999 h 44.000008 L -4.0000788,185.65 H 59.999904 c 1.66201,0 3,1.33799 3,3 v 90 c 0,1.66201 -1.33799,3 -3,3 H -60.000094 c -1.662009,0 -2.999999,-1.33799 -2.999999,-3 v -77.00001 c 0,-1.66201 1.33799,-3.00386 2.999999,-3 z"
         style="opacity:1;fill:url(#linearGradient4532);fill-opacity:1;stroke:none;stroke-width:0.99999994;stroke-opacity:1" />
      <path
         inkscape:connector-curvature="0"
         id="path6156-2"
         d="m -14.012752,216.6498 c -3.879322,0 -7.002383,3.12201 -7.002383,6.99999 0,3.87802 3.123061,7.00003 7.002383,7.00003 3.879322,0 7.0023802,-3.12201 7.0023802,-7.00003 0,-3.87798 -3.1230582,-6.99999 -7.0023802,-6.99999 z m 24.996778,17.99804 a 1.0004402,1.0001001 0 0 0 -0.81278,0.43555 l -13.5866448,19.62304 -8.8076822,-10.69137 a 1.0004401,1.0001 0 0 0 -0.789332,-0.36511 1.0004401,1.0001 0 0 0 -0.777611,0.39258 l -13.004408,17.00002 a 1.0004401,1.0001 0 0 0 0.795188,1.60739 H 1.0099292 a 1.0004401,1.0001 0 0 0 0.03326,-0.002 H 27.997668 a 1.0004402,1.0001001 0 0 0 0.842086,-1.54298 L 11.83397,235.10505 a 1.0004402,1.0001001 0 0 0 -0.849898,-0.45706 z"
         style="color:#000000;font-style:normal;font-variant:normal;font-weight:normal;font-stretch:normal;font-size:medium;line-height:normal;font-family:sans-serif;font-variant-ligatures:normal;font-variant-position:normal;font-variant-caps:normal;font-variant-numeric:normal;font-variant-alternates:normal;font-feature-settings:normal;text-indent:0;text-align:start;text-decoration:none;text-decoration-line:none;text-decoration-style:solid;text-decoration-color:#000000;letter-spacing:normal;word-spacing:normal;text-transform:none;writing-mode:lr-tb;direction:ltr;text-orientation:mixed;dominant-baseline:auto;baseline-shift:baseline;text-anchor:start;white-space:normal;shape-padding:0;clip-rule:nonzero;display:inline;overflow:visible;visibility:visible;opacity:1;isolation:auto;mix-blend-mode:normal;color-interpolation:sRGB;color-interpolation-filters:linearRGB;solid-color:#000000;solid-opacity:1;vector-effect:none;fill:#358bd9;fill-opacity:1;fill-rule:nonzero;stroke:none;stroke-width:2.00033998;stroke-linecap:round;stroke-linejoin:round;stroke-miterlimit:4;stroke-dasharray:none;stroke-dashoffset:0;stroke-opacity:1;color-rendering:auto;image-rendering:auto;shape-rendering:auto;text-rendering:auto;enable-background:accumulate" />
      <path
         inkscape:connector-curvature="0"
         id="path6156"
         d="m -14.012748,215.64982 c -3.879318,0 -7.00238,3.122 -7.00238,6.99998 0,3.87802 3.123062,7.00003 7.00238,7.00003 3.879318,0 7.0023802,-3.12201 7.0023802,-7.00003 0,-3.87798 -3.1230622,-6.99998 -7.0023802,-6.99998 z m 24.996774,17.99803 a 1.00044,1.0001001 0 0 0 -0.812776,0.43555 l -13.5866488,19.62304 -8.8076792,-10.69137 a 1.0004399,1.0001 0 0 0 -0.789327,-0.3651 1.0004399,1.0001 0 0 0 -0.777612,0.39258 l -13.004415,17.00001 a 1.0004399,1.0001 0 0 0 0.795192,1.60739 H 1.0099332 a 1.0004399,1.0001 0 0 0 0.03326,-0.002 H 27.997669 a 1.00044,1.0001001 0 0 0 0.842082,-1.54299 l -17.005781,-26 a 1.00044,1.0001001 0 0 0 -0.849898,-0.45706 z"
         style="color:#000000;font-style:normal;font-variant:normal;font-weight:normal;font-stretch:normal;font-size:medium;line-height:normal;font-family:sans-serif;font-variant-ligatures:normal;font-variant-position:normal;font-variant-caps:normal;font-variant-numeric:normal;font-variant-alternates:normal;font-feature-settings:normal;text-indent:0;text-align:start;text-decoration:none;text-decoration-line:none;text-decoration-style:solid;text-decoration-color:#000000;letter-spacing:normal;word-spacing:normal;text-transform:none;writing-mode:lr-tb;direction:ltr;text-orientation:mixed;dominant-baseline:auto;baseline-shift:baseline;text-anchor:start;white-space:normal;shape-padding:0;clip-rule:nonzero;display:inline;overflow:visible;visibility:visible;opacity:1;isolation:auto;mix-blend-mode:normal;color-interpolation:sRGB;color-interpolation-filters:linearRGB;solid-color:#000000;solid-opacity:1;vector-effect:none;fill:url(#linearGradient6169);fill-opacity:1;fill-rule:nonzero;stroke:none;stroke-width:2.00033998;stroke-linecap:round;stroke-linejoin:round;stroke-miterlimit:4;stroke-dasharray:none;stroke-dashoffset:0;stroke-opacity:1;color-rendering:auto;image-rendering:auto;shape-rendering:auto;text-rendering:auto;enable-background:accumulate" />
    </g>
  </g>
</svg>
