<?xml version="1.0" encoding="UTF-8" standalone="no"?>
<!-- Created with Inkscape (http://www.inkscape.org/) -->

<svg
   xmlns:dc="http://purl.org/dc/elements/1.1/"
   xmlns:cc="http://creativecommons.org/ns#"
   xmlns:rdf="http://www.w3.org/1999/02/22-rdf-syntax-ns#"
   xmlns:svg="http://www.w3.org/2000/svg"
   xmlns="http://www.w3.org/2000/svg"
   xmlns:xlink="http://www.w3.org/1999/xlink"
   xmlns:sodipodi="http://sodipodi.sourceforge.net/DTD/sodipodi-0.dtd"
   xmlns:inkscape="http://www.inkscape.org/namespaces/inkscape"
   width="128"
   height="128"
   viewBox="0 0 128 128"
   version="1.1"
   id="svg8"
   inkscape:version="0.92.2 2405546, 2018-03-11"
   sodipodi:docname="insync-folder.svg">
  <title
     id="title7895">Antu icon Theme</title>
  <defs
     id="defs2">
    <style
       id="current-color-scheme"
       type="text/css">
      .ColorScheme-Text {
        color:#122036;
      }
      </style>
    <style
       id="current-color-scheme-7"
       type="text/css">
      .ColorScheme-Text {
        color:#122036;
      }
      </style>
    <style
       id="current-color-scheme-5"
       type="text/css">
      .ColorScheme-Text {
        color:#122036;
      }
      </style>
    <style
       type="text/css"
       id="current-color-scheme-9">
      .ColorScheme-Text {
        color:#122036;
      }
      </style>
    <style
       type="text/css"
       id="current-color-scheme-1">
      .ColorScheme-Text {
        color:#122036;
      }
      </style>
    <style
       id="current-color-scheme-10"
       type="text/css">
      .ColorScheme-Text {
        color:#122036;
      }
      </style>
    <style
       type="text/css"
       id="current-color-scheme-6">
      .ColorScheme-Text {
        color:#122036;
      }
      </style>
    <style
       type="text/css"
       id="current-color-scheme-7-1">
      .ColorScheme-Text {
        color:#122036;
      }
      </style>
    <style
       type="text/css"
       id="current-color-scheme-5-2">
      .ColorScheme-Text {
        color:#122036;
      }
      </style>
    <style
       id="current-color-scheme-3"
       type="text/css">
      .ColorScheme-Text {
        color:#122036;
      }
      </style>
    <style
       id="current-color-scheme-7-6"
       type="text/css">
      .ColorScheme-Text {
        color:#122036;
      }
      </style>
    <style
       id="current-color-scheme-5-0"
       type="text/css">
      .ColorScheme-Text {
        color:#122036;
      }
      </style>
    <style
       type="text/css"
       id="current-color-scheme-9-6">
      .ColorScheme-Text {
        color:#122036;
      }
      </style>
    <style
       type="text/css"
       id="current-color-scheme-1-2">
      .ColorScheme-Text {
        color:#122036;
      }
      </style>
    <style
       id="current-color-scheme-10-6"
       type="text/css">
      .ColorScheme-Text {
        color:#122036;
      }
      </style>
    <style
       type="text/css"
       id="current-color-scheme-6-1">
      .ColorScheme-Text {
        color:#122036;
      }
      </style>
    <style
       type="text/css"
       id="current-color-scheme-7-1-8">
      .ColorScheme-Text {
        color:#122036;
      }
      </style>
    <style
       type="text/css"
       id="current-color-scheme-5-2-7">
      .ColorScheme-Text {
        color:#122036;
      }
      </style>
    <style
       id="current-color-scheme-70"
       type="text/css">
      .ColorScheme-Text {
        color:#122036;
      }
      </style>
    <style
       id="current-color-scheme-36"
       type="text/css">
      .ColorScheme-Text {
        color:#122036;
      }
      </style>
    <linearGradient
       inkscape:collect="always"
       id="linearGradient4565">
      <stop
         style="stop-color:#1780f2;stop-opacity:1"
         offset="0"
         id="stop4561" />
      <stop
         style="stop-color:#02b3fe;stop-opacity:1"
         offset="1"
         id="stop4563" />
    </linearGradient>
    <style
       id="current-color-scheme-8"
       type="text/css">
      .ColorScheme-Text {
        color:#122036;
      }
      </style>
    <linearGradient
       id="linearGradient4627"
       inkscape:collect="always">
      <stop
         id="stop4623"
         offset="0"
         style="stop-color:#ffc900;stop-opacity:1" />
      <stop
         id="stop4625"
         offset="1"
         style="stop-color:#ffe200;stop-opacity:1" />
    </linearGradient>
    <linearGradient
       inkscape:collect="always"
       xlink:href="#linearGradient4565"
       id="linearGradient1180"
       x1="64"
       y1="288.64999"
       x2="64"
       y2="271.64999"
       gradientUnits="userSpaceOnUse" />
    <linearGradient
       inkscape:collect="always"
       xlink:href="#linearGradient4627"
       id="linearGradient1192"
       x1="73"
       y1="270.64999"
       x2="70"
       y2="241.64999"
       gradientUnits="userSpaceOnUse" />
    <linearGradient
       gradientTransform="translate(3)"
       inkscape:collect="always"
       xlink:href="#linearGradient4565"
       id="linearGradient1180-1"
       x1="64"
       y1="288.64999"
       x2="64"
       y2="271.64999"
       gradientUnits="userSpaceOnUse" />
    <linearGradient
       gradientTransform="translate(-43.999997,128.00001)"
       inkscape:collect="always"
       xlink:href="#linearGradient4631"
       id="linearGradient1365"
       x1="64"
       y1="282.64999"
       x2="64"
       y2="242.64999"
       gradientUnits="userSpaceOnUse" />
    <linearGradient
       id="linearGradient4631"
       inkscape:collect="always">
      <stop
         id="stop4627"
         offset="0"
         style="stop-color:#c2f0f2;stop-opacity:1" />
      <stop
         id="stop4629"
         offset="1"
         style="stop-color:#f2feff;stop-opacity:1" />
    </linearGradient>
    <linearGradient
       gradientUnits="userSpaceOnUse"
       y2="279.20306"
       x2="15.298494"
       y1="304.60306"
       x1="15.298494"
       id="linearGradient4532-5"
       xlink:href="#linearGradient4530"
       inkscape:collect="always"
       gradientTransform="matrix(3.7795275,0,0,3.7795275,-36.821079,-717.6056)" />
    <linearGradient
       id="linearGradient4530"
       inkscape:collect="always">
      <stop
         id="stop4526"
         offset="0"
         style="stop-color:#3c99f3;stop-opacity:1" />
      <stop
         id="stop4528"
         offset="1"
         style="stop-color:#52c6f9;stop-opacity:1" />
    </linearGradient>
    <linearGradient
       gradientUnits="userSpaceOnUse"
       y2="265.81305"
       x2="-6.9110637"
       y1="272.42764"
       x1="-6.9110637"
       id="linearGradient6795-4"
       xlink:href="#linearGradient6793"
       inkscape:collect="always"
       gradientTransform="matrix(3.7795275,0,0,3.7795275,7.120554,-681.9977)" />
    <linearGradient
       id="linearGradient6793"
       inkscape:collect="always">
      <stop
         id="stop6789"
         offset="0"
         style="stop-color:#3489e5;stop-opacity:1" />
      <stop
         id="stop6791"
         offset="1"
         style="stop-color:#3b99f3;stop-opacity:1" />
    </linearGradient>
    <linearGradient
       inkscape:collect="always"
       xlink:href="#linearGradient4631"
       id="linearGradient1514"
       x1="64"
       y1="96"
       x2="64"
       y2="56"
       gradientUnits="userSpaceOnUse" />
  </defs>
  <sodipodi:namedview
     id="base"
     pagecolor="#ffffff"
     bordercolor="#666666"
     borderopacity="1.0"
     inkscape:pageopacity="0.0"
     inkscape:pageshadow="2"
     inkscape:zoom="1"
     inkscape:cx="36.748177"
     inkscape:cy="74.381454"
     inkscape:document-units="px"
     inkscape:current-layer="layer1"
     showgrid="false"
     units="px"
     inkscape:window-width="1360"
     inkscape:window-height="711"
     inkscape:window-x="0"
     inkscape:window-y="28"
     inkscape:window-maximized="1"
     objecttolerance="10"
     gridtolerance="10"
     guidetolerance="10"
     inkscape:showpageshadow="false"
     showborder="false">
    <inkscape:grid
       type="xygrid"
       id="grid7897"
       empspacing="4" />
  </sodipodi:namedview>
  <metadata
     id="metadata5">
    <rdf:RDF>
      <cc:Work
         rdf:about="">
        <dc:format>image/svg+xml</dc:format>
        <dc:type
           rdf:resource="http://purl.org/dc/dcmitype/StillImage" />
        <dc:title>Antu icon Theme</dc:title>
      </cc:Work>
    </rdf:RDF>
  </metadata>
  <g
     inkscape:label="Capa 1"
     inkscape:groupmode="layer"
     id="layer1"
     transform="translate(0,-186.64999)">
    <g
       id="g1463"
       transform="translate(44,-128)" />
    <g
       id="g1576">
      <path
         style="opacity:1;vector-effect:none;fill:#3182d9;fill-opacity:1;stroke:none;stroke-width:0.75590551;stroke-linecap:round;stroke-linejoin:round;stroke-miterlimit:4;stroke-dasharray:none;stroke-dashoffset:0;stroke-opacity:1;paint-order:normal"
         d="m -40.000017,322.65004 42.999986,-4e-5 11.999996,13.99997 h 3.500001 c 2.216009,0 4.000026,1.78402 4.000026,3.99999 v 14.00001 c 0,2.21602 -1.784017,4.00003 -4.000026,4.00003 h -58.499945 c -2.216013,0 -4.000025,-1.78401 -4.000025,-4.00003 v -27.99994 c 0,-2.21598 1.784012,-3.99999 3.999987,-3.99999 z"
         id="rect4937-8-6-6"
         inkscape:connector-curvature="0"
         sodipodi:nodetypes="sccssssssss"
         transform="translate(44,-128)" />
      <path
         style="opacity:1;fill:url(#linearGradient6795-4);fill-opacity:1;stroke:none;stroke-width:0.99999994;stroke-opacity:1"
         d="M -40.000093,323.65003 H 1.999906 l 14.000016,15.99998 -14.000016,13.99998 h -41.999999 c -1.662009,0 -2.999999,-1.33799 -2.999999,-3 v -23.99996 c 0,-1.66201 1.33799,-3 2.999999,-3 z"
         id="rect9379-4-2-3"
         inkscape:connector-curvature="0"
         sodipodi:nodetypes="scccssss"
         transform="translate(44,-128)" />
      <path
         style="opacity:1;vector-effect:none;fill:#3182d9;fill-opacity:1;stroke:none;stroke-width:0.75590551;stroke-linecap:round;stroke-linejoin:round;stroke-miterlimit:4;stroke-dasharray:none;stroke-dashoffset:0;stroke-opacity:1;paint-order:normal"
         d="M -42.962184,349.65 H 2.999969 l 11.999996,-12.99999 h 65.00006 c 2.21596,0 3.99998,1.78401 3.99998,4.00003 V 430.65 c 0,2.21597 -1.78402,3.99999 -3.99998,3.99999 H -39.999979 c -2.216013,0 -4.001121,-1.78402 -4.000025,-3.99999 l 0.0378,-76.99998 c 0.0011,-2.21601 1.783975,-4.00157 3.999987,-4.00002 z"
         id="rect4931-3-6-2"
         inkscape:connector-curvature="0"
         sodipodi:nodetypes="cccssssssssc"
         transform="translate(44,-128)" />
      <path
         style="opacity:1;fill:url(#linearGradient4532-5);fill-opacity:1;stroke:none;stroke-width:0.99999994;stroke-opacity:1"
         d="M -40.000093,350.64999 H 3.999915 L 15.999922,337.65 h 63.999983 c 1.66201,0 3,1.33799 3,3 v 90 c 0,1.66201 -1.33799,3 -3,3 H -40.000093 c -1.662009,0 -2.999999,-1.33799 -2.999999,-3 v -77.00001 c 0,-1.66201 1.33799,-3.00386 2.999999,-3 z"
         id="rect9376-6-1-0"
         inkscape:connector-curvature="0"
         sodipodi:nodetypes="sccssssssss"
         transform="translate(44,-128)" />
      <path
         id="path1505-7"
         d="m 57,240.64999 a 1.0001,1.0001 0 0 0 -0.859375,1.50977 l 16.000004,27 a 1.0001,1.0001 0 0 0 0.85937,0.49023 h 16 a 1.0001,1.0001 0 0 0 0.8457,-1.5332 l -17,-27 a 1.0001,1.0001 0 0 0 -0.8457,-0.4668 z m -1.980469,3 a 1.0001,1.0001 0 0 0 -0.861328,0.46094 l -16,25 a 1.0001,1.0001 0 0 0 -0.0098,1.0625 l 8,13 a 1.0001,1.0001 0 0 0 1.693359,0.0156 l 15.999997,-25 a 1.0001,1.0001 0 0 0 0.01,-1.0625 l -7.999997,-13 a 1.0001,1.0001 0 0 0 -0.832031,-0.47656 z m 2.980469,27 a 1.0001,1.0001 0 0 0 -0.841797,0.45898 l -9,14 A 1.0001,1.0001 0 0 0 49,286.64999 h 29.999999 a 1.0001,1.0001 0 0 0 0.8418,-0.45898 l 9,-14 a 1.0001,1.0001 0 0 0 -0.8418,-1.54102 z"
         style="color:#000000;font-style:normal;font-variant:normal;font-weight:normal;font-stretch:normal;font-size:medium;line-height:normal;font-family:sans-serif;font-variant-ligatures:normal;font-variant-position:normal;font-variant-caps:normal;font-variant-numeric:normal;font-variant-alternates:normal;font-feature-settings:normal;text-indent:0;text-align:start;text-decoration:none;text-decoration-line:none;text-decoration-style:solid;text-decoration-color:#000000;letter-spacing:normal;word-spacing:normal;text-transform:none;writing-mode:lr-tb;direction:ltr;text-orientation:mixed;dominant-baseline:auto;baseline-shift:baseline;text-anchor:start;white-space:normal;shape-padding:0;clip-rule:nonzero;display:inline;overflow:visible;visibility:visible;opacity:1;isolation:auto;mix-blend-mode:normal;color-interpolation:sRGB;color-interpolation-filters:linearRGB;solid-color:#000000;solid-opacity:1;vector-effect:none;fill:#358bd9;fill-opacity:1;fill-rule:nonzero;stroke:none;stroke-width:2;stroke-linecap:round;stroke-linejoin:round;stroke-miterlimit:4;stroke-dasharray:none;stroke-dashoffset:0;stroke-opacity:1;color-rendering:auto;image-rendering:auto;shape-rendering:auto;text-rendering:auto;enable-background:accumulate"
         inkscape:connector-curvature="0" />
      <path
         id="path1505"
         transform="translate(0,186.64999)"
         d="M 57 53 A 1.0001 1.0001 0 0 0 56.140625 54.509766 L 72.140625 81.509766 A 1.0001 1.0001 0 0 0 73 82 L 89 82 A 1.0001 1.0001 0 0 0 89.845703 80.466797 L 72.845703 53.466797 A 1.0001 1.0001 0 0 0 72 53 L 57 53 z M 55.019531 56 A 1.0001 1.0001 0 0 0 54.158203 56.460938 L 38.158203 81.460938 A 1.0001 1.0001 0 0 0 38.148438 82.523438 L 46.148438 95.523438 A 1.0001 1.0001 0 0 0 47.841797 95.539062 L 63.841797 70.539062 A 1.0001 1.0001 0 0 0 63.851562 69.476562 L 55.851562 56.476562 A 1.0001 1.0001 0 0 0 55.019531 56 z M 58 83 A 1.0001 1.0001 0 0 0 57.158203 83.458984 L 48.158203 97.458984 A 1.0001 1.0001 0 0 0 49 99 L 79 99 A 1.0001 1.0001 0 0 0 79.841797 98.541016 L 88.841797 84.541016 A 1.0001 1.0001 0 0 0 88 83 L 58 83 z "
         style="color:#000000;font-style:normal;font-variant:normal;font-weight:normal;font-stretch:normal;font-size:medium;line-height:normal;font-family:sans-serif;font-variant-ligatures:normal;font-variant-position:normal;font-variant-caps:normal;font-variant-numeric:normal;font-variant-alternates:normal;font-feature-settings:normal;text-indent:0;text-align:start;text-decoration:none;text-decoration-line:none;text-decoration-style:solid;text-decoration-color:#000000;letter-spacing:normal;word-spacing:normal;text-transform:none;writing-mode:lr-tb;direction:ltr;text-orientation:mixed;dominant-baseline:auto;baseline-shift:baseline;text-anchor:start;white-space:normal;shape-padding:0;clip-rule:nonzero;display:inline;overflow:visible;visibility:visible;opacity:1;isolation:auto;mix-blend-mode:normal;color-interpolation:sRGB;color-interpolation-filters:linearRGB;solid-color:#000000;solid-opacity:1;vector-effect:none;fill:url(#linearGradient1514);fill-opacity:1;fill-rule:nonzero;stroke:none;stroke-width:2;stroke-linecap:round;stroke-linejoin:round;stroke-miterlimit:4;stroke-dasharray:none;stroke-dashoffset:0;stroke-opacity:1;color-rendering:auto;image-rendering:auto;shape-rendering:auto;text-rendering:auto;enable-background:accumulate" />
    </g>
  </g>
</svg>
