<?xml version="1.0" encoding="UTF-8" standalone="no"?>
<!-- Created with Inkscape (http://www.inkscape.org/) -->

<svg
   xmlns:dc="http://purl.org/dc/elements/1.1/"
   xmlns:cc="http://creativecommons.org/ns#"
   xmlns:rdf="http://www.w3.org/1999/02/22-rdf-syntax-ns#"
   xmlns:svg="http://www.w3.org/2000/svg"
   xmlns="http://www.w3.org/2000/svg"
   xmlns:xlink="http://www.w3.org/1999/xlink"
   xmlns:sodipodi="http://sodipodi.sourceforge.net/DTD/sodipodi-0.dtd"
   xmlns:inkscape="http://www.inkscape.org/namespaces/inkscape"
   width="128"
   height="128"
   viewBox="0 0 128 128"
   version="1.1"
   id="svg8"
   inkscape:version="0.91 r13725"
   sodipodi:docname="neon.svg">
  <title
     id="title7895">Antu icon Theme</title>
  <defs
     id="defs2">
    <linearGradient
       gradientTransform="matrix(3.7795275,0,0,3.7795275,-27.743682,-849.68691)"
       inkscape:collect="always"
       xlink:href="#linearGradient4737"
       id="linearGradient4581"
       x1="32.740517"
       y1="307.0058"
       x2="32.740517"
       y2="277.37247"
       gradientUnits="userSpaceOnUse" />
    <linearGradient
       id="linearGradient4367"
       inkscape:collect="always">
      <stop
         id="stop4369"
         offset="0"
         style="stop-color:#015680;stop-opacity:1" />
      <stop
         id="stop4371"
         offset="1"
         style="stop-color:#008059;stop-opacity:1" />
    </linearGradient>
    <linearGradient
       id="linearGradient4321"
       inkscape:collect="always">
      <stop
         id="stop4323"
         offset="0"
         style="stop-color:#daf1f7;stop-opacity:1" />
      <stop
         id="stop4325"
         offset="1"
         style="stop-color:#daf9f1;stop-opacity:1" />
    </linearGradient>
    <linearGradient
       id="linearGradient4737"
       inkscape:collect="always">
      <stop
         id="stop4733"
         offset="0"
         style="stop-color:#018ed7;stop-opacity:1" />
      <stop
         id="stop4735"
         offset="1"
         style="stop-color:#00dc9a;stop-opacity:1" />
    </linearGradient>
    <linearGradient
       inkscape:collect="always"
       xlink:href="#linearGradient4367"
       id="linearGradient4436"
       x1="128"
       y1="270.64999"
       x2="128"
       y2="178.64999"
       gradientUnits="userSpaceOnUse"
       gradientTransform="translate(-64,25)" />
    <linearGradient
       inkscape:collect="always"
       xlink:href="#linearGradient4321"
       id="linearGradient4444"
       x1="64"
       y1="112"
       x2="64"
       y2="16"
       gradientUnits="userSpaceOnUse" />
    <linearGradient
       inkscape:collect="always"
       xlink:href="#linearGradient4367"
       id="linearGradient4452"
       x1="96"
       y1="314.64999"
       x2="96"
       y2="190.64999"
       gradientUnits="userSpaceOnUse" />
  </defs>
  <sodipodi:namedview
     id="base"
     pagecolor="#ffffff"
     bordercolor="#666666"
     borderopacity="1.0"
     inkscape:pageopacity="0.0"
     inkscape:pageshadow="2"
     inkscape:zoom="2.8"
     inkscape:cx="98.737186"
     inkscape:cy="86.964808"
     inkscape:document-units="px"
     inkscape:current-layer="layer1"
     showgrid="true"
     units="px"
     inkscape:window-width="1360"
     inkscape:window-height="697"
     inkscape:window-x="0"
     inkscape:window-y="0"
     inkscape:window-maximized="1"
     objecttolerance="10"
     gridtolerance="10"
     guidetolerance="10">
    <inkscape:grid
       type="xygrid"
       id="grid7897"
       empspacing="4" />
  </sodipodi:namedview>
  <metadata
     id="metadata5">
    <rdf:RDF>
      <cc:Work
         rdf:about="">
        <dc:format>image/svg+xml</dc:format>
        <dc:type
           rdf:resource="http://purl.org/dc/dcmitype/StillImage" />
        <dc:title>Antu icon Theme</dc:title>
      </cc:Work>
    </rdf:RDF>
  </metadata>
  <g
     inkscape:label="Capa 1"
     inkscape:groupmode="layer"
     id="layer1"
     transform="translate(0,-186.64999)">
    <g
       id="g1525"
       transform="translate(-32,-4)">
      <path
         style="opacity:1;fill:url(#linearGradient4452);fill-opacity:1;stroke:none;stroke-width:0.18711726;stroke-miterlimit:4;stroke-dasharray:none;stroke-opacity:1"
         d="m 96.000003,191.64999 c 34.901997,0 62.999997,28.09799 62.999997,63 0,34.90197 -28.098,63 -62.999997,63 -34.902002,0 -63.000003,-28.09803 -63.000003,-63 0,-34.90201 28.098001,-63 63.000003,-63 z"
         id="rect4500"
         inkscape:connector-curvature="0" />
      <path
         style="opacity:1;fill:url(#linearGradient4581);fill-opacity:1;stroke:none;stroke-width:0.18414716;stroke-miterlimit:4;stroke-dasharray:none;stroke-opacity:1"
         d="m 96.000003,192.64998 c 34.347997,0 61.999997,27.652 61.999997,62.00001 0,34.348 -27.652,62.00001 -61.999997,62.00001 -34.348002,0 -62.000005,-27.65201 -62.000005,-62.00001 0,-34.34801 27.652003,-62.00001 62.000005,-62.00001 z"
         id="rect4500-3"
         inkscape:connector-curvature="0" />
    </g>
    <path
       inkscape:connector-curvature="0"
       style="opacity:1;fill:url(#linearGradient4436);fill-opacity:1;stroke:none;stroke-width:2;stroke-linecap:round;stroke-linejoin:round;stroke-miterlimit:4;stroke-dasharray:none;stroke-opacity:1"
       d="m 64,200.64999 c -3.11954,0 -5.667,2.35701 -5.96875,5.39453 -7.3072,0.93947 -14.07051,3.56872 -19.875,7.50391 -0.91651,-0.56656 -1.99519,-0.89844 -3.15625,-0.89844 -3.324,0 -6,2.676 -6,6 0,0.88738 0.196221,1.72599 0.539062,2.48242 -5.983924,6.75728 -9.996258,15.29672 -11.169921,24.7461 C 15.843969,246.58646 14,248.89265 14,251.64999 c 0,2.75734 1.843969,5.06352 4.369141,5.77148 1.173663,9.44938 5.185997,17.98882 11.169921,24.7461 C 29.196221,282.924 29,283.76261 29,284.64999 c 0,3.324 2.676,6 6,6 1.16106,0 2.23974,-0.33188 3.15625,-0.89844 5.80449,3.93519 12.5678,6.56444 19.875,7.50391 0.30175,3.03752 2.84921,5.39453 5.96875,5.39453 3.11954,0 5.667,-2.35701 5.96875,-5.39453 7.3072,-0.93947 14.07051,-3.56872 19.875,-7.50391 0.91651,0.56656 1.99519,0.89844 3.15625,0.89844 3.324,0 6,-2.676 6,-6 0,-0.88738 -0.19622,-1.72599 -0.53906,-2.48242 5.98392,-6.75728 9.99626,-15.29672 11.16992,-24.7461 2.52517,-0.70796 4.36914,-3.01414 4.36914,-5.77148 0,-2.75734 -1.84397,-5.06353 -4.36914,-5.77148 -1.17366,-9.44938 -5.186,-17.98882 -11.16992,-24.7461 C 98.80378,220.37598 99,219.53737 99,218.64999 c 0,-3.324 -2.676,-6 -6,-6 -1.16106,0 -2.23974,0.33188 -3.15625,0.89844 -5.80449,-3.93519 -12.5678,-6.56444 -19.875,-7.50391 C 69.667,203.007 67.11954,200.64999 64,200.64999 Z m -3.10742,11.13086 c 0.90605,0.54822 1.96684,0.86914 3.10742,0.86914 1.14058,0 2.20137,-0.32092 3.10742,-0.86914 7.38722,0.56308 14.19789,3.11087 19.90625,7.12109 0.13221,3.20529 2.74742,5.74805 5.98633,5.74805 0.18005,0 0.35727,-0.012 0.5332,-0.0273 5.6075,6.12737 9.32126,14.01616 10.24024,22.76367 -1.09546,1.08587 -1.77344,2.59214 -1.77344,4.26363 0,1.67149 0.67798,3.17776 1.77344,4.26367 -0.91898,8.74752 -4.63274,16.6363 -10.24024,22.76367 -0.17593,-0.0154 -0.35315,-0.0273 -0.5332,-0.0273 -3.23891,0 -5.85412,2.54276 -5.98633,5.74805 -5.70836,4.01022 -12.51903,6.55801 -19.90625,7.12109 -0.90605,-0.54825 -1.96684,-0.86918 -3.10742,-0.86918 -1.14058,0 -2.20137,0.32093 -3.10742,0.86914 -7.38722,-0.56308 -14.19789,-3.11087 -19.90625,-7.12109 -0.13221,-3.20529 -2.74742,-5.74805 -5.98633,-5.74805 -0.180054,0 -0.357274,0.012 -0.533203,0.0273 C 28.859302,272.54996 25.14554,264.66118 24.226562,255.91366 25.32202,254.82775 26,253.32148 26,251.64999 c 0,-1.67149 -0.67798,-3.17776 -1.773438,-4.26367 0.918978,-8.74752 4.63274,-16.6363 10.240235,-22.76367 0.175929,0.0154 0.353149,0.0273 0.533203,0.0273 3.23891,0 5.85412,-2.54276 5.98633,-5.74805 5.70836,-4.01022 12.51903,-6.55801 19.90625,-7.12109 z M 64,218.64999 c -2.42947,0 -4.50583,1.43279 -5.45117,3.5 C 44.55102,224.70115 34,236.89378 34,251.64999 c 0,14.75621 10.55102,26.94884 24.54883,29.5 0.94534,2.06721 3.0217,3.5 5.45117,3.5 2.42947,0 4.50583,-1.43279 5.45117,-3.5 C 83.44898,278.59883 94,266.4062 94,251.64999 c 0,-14.75621 -10.55102,-26.94884 -24.54883,-29.5 -0.94534,-2.06721 -3.0217,-3.5 -5.45117,-3.5 z m -4.87891,9.49219 c 1.08661,1.51834 2.86127,2.50781 4.87891,2.50781 2.01764,0 3.7923,-0.98947 4.87891,-2.50781 C 79.82026,230.38403 88,240.0264 88,251.64999 88,263.27358 79.82026,272.91595 68.87891,275.1578 67.7923,273.63946 66.01764,272.64999 64,272.64999 c -2.01764,0 -3.7923,0.98947 -4.87891,2.50781 C 48.17974,272.91595 40,263.27358 40,251.64999 40,240.0264 48.17974,230.38403 59.12109,228.14218 Z M 64,239.64999 c -6.648,0 -12,5.352 -12,12 0,6.648 5.352,12 12,12 6.648,0 12,-5.352 12,-12 0,-6.648 -5.352,-12 -12,-12 z"
       id="rect4216-7-9-3-9" />
    <path
       style="opacity:1;fill:url(#linearGradient4444);fill-opacity:1;stroke:none;stroke-width:2;stroke-linecap:round;stroke-linejoin:round;stroke-miterlimit:4;stroke-dasharray:none;stroke-opacity:1"
       d="M 64 13 C 60.880461 13 58.333004 15.357007 58.03125 18.394531 C 50.724048 19.334004 43.960739 21.963254 38.15625 25.898438 C 37.239738 25.331877 36.161062 25 35 25 C 31.676 25 29 27.676 29 31 C 29 31.887376 29.196221 32.725993 29.539062 33.482422 C 23.555138 40.239702 19.542804 48.779144 18.369141 58.228516 C 15.843969 58.936475 14 61.242665 14 64 C 14 66.757335 15.843969 69.063525 18.369141 69.771484 C 19.542804 79.220856 23.555138 87.760298 29.539062 94.517578 C 29.196221 95.274007 29 96.112624 29 97 C 29 100.324 31.676 103 35 103 C 36.161062 103 37.239738 102.66812 38.15625 102.10156 C 43.960739 106.03675 50.724048 108.666 58.03125 109.60547 C 58.333004 112.64299 60.880461 115 64 115 C 67.119539 115 69.666996 112.64299 69.96875 109.60547 C 77.275952 108.666 84.039261 106.03675 89.84375 102.10156 C 90.760262 102.66812 91.838938 103 93 103 C 96.324 103 99 100.324 99 97 C 99 96.112624 98.803779 95.274007 98.460938 94.517578 C 104.44486 87.760298 108.4572 79.220856 109.63086 69.771484 C 112.15603 69.063525 114 66.757335 114 64 C 114 61.242665 112.15603 58.936475 109.63086 58.228516 C 108.4572 48.779144 104.44486 40.239702 98.460938 33.482422 C 98.803779 32.725993 99 31.887376 99 31 C 99 27.676 96.324 25 93 25 C 91.838938 25 90.760262 25.331877 89.84375 25.898438 C 84.039261 21.963254 77.275952 19.334004 69.96875 18.394531 C 69.666996 15.357007 67.119539 13 64 13 z M 60.892578 24.130859 C 61.79863 24.679075 62.859424 25 64 25 C 65.140576 25 66.20137 24.679075 67.107422 24.130859 C 74.494639 24.693935 81.305313 27.241735 87.013672 31.251953 C 87.145879 34.457237 89.761094 37 93 37 C 93.180054 37 93.357274 36.988038 93.533203 36.972656 C 99.140698 43.10003 102.85446 50.988815 103.77344 59.736328 C 102.67798 60.82224 102 62.328509 102 64 C 102 65.671491 102.67798 67.17776 103.77344 68.263672 C 102.85446 77.011185 99.140698 84.89997 93.533203 91.027344 C 93.357274 91.011962 93.180054 91 93 91 C 89.761094 91 87.145879 93.542763 87.013672 96.748047 C 81.305313 100.75827 74.494639 103.30606 67.107422 103.86914 C 66.20137 103.32093 65.140576 103 64 103 C 62.859424 103 61.79863 103.32093 60.892578 103.86914 C 53.505361 103.30606 46.694687 100.75827 40.986328 96.748047 C 40.854121 93.542763 38.238906 91 35 91 C 34.819946 91 34.642726 91.011962 34.466797 91.027344 C 28.859302 84.89997 25.14554 77.011185 24.226562 68.263672 C 25.32202 67.17776 26 65.671491 26 64 C 26 62.328509 25.32202 60.82224 24.226562 59.736328 C 25.14554 50.988815 28.859302 43.10003 34.466797 36.972656 C 34.642726 36.988038 34.819946 37 35 37 C 38.238906 37 40.854121 34.457237 40.986328 31.251953 C 46.694687 27.241735 53.505361 24.693935 60.892578 24.130859 z M 64 31 C 61.570533 31 59.494174 32.432791 58.548828 34.5 C 44.551018 37.051158 34 49.243787 34 64 C 34 78.756213 44.551018 90.948842 58.548828 93.5 C 59.494174 95.567209 61.570533 97 64 97 C 66.429467 97 68.505826 95.567209 69.451172 93.5 C 83.448982 90.948842 94 78.756213 94 64 C 94 49.243787 83.448982 37.051158 69.451172 34.5 C 68.505826 32.432791 66.429467 31 64 31 z M 59.121094 40.492188 C 60.207697 42.010531 61.98236 43 64 43 C 66.01764 43 67.792303 42.010531 68.878906 40.492188 C 79.820262 42.734041 88 52.376406 88 64 C 88 75.623594 79.820262 85.265959 68.878906 87.507812 C 67.792303 85.989469 66.01764 85 64 85 C 61.98236 85 60.207697 85.989469 59.121094 87.507812 C 48.179738 85.265959 40 75.623594 40 64 C 40 52.376406 48.179738 42.734041 59.121094 40.492188 z M 64 52 C 57.352 52 52 57.352 52 64 C 52 70.648 57.352 76 64 76 C 70.648 76 76 70.648 76 64 C 76 57.352 70.648 52 64 52 z "
       transform="translate(0,186.64999)"
       id="rect4216-7-9-3" />
  </g>
</svg>
