<?xml version="1.0" encoding="UTF-8" standalone="no"?>
<!-- Created with Inkscape (http://www.inkscape.org/) -->

<svg
   xmlns:dc="http://purl.org/dc/elements/1.1/"
   xmlns:cc="http://creativecommons.org/ns#"
   xmlns:rdf="http://www.w3.org/1999/02/22-rdf-syntax-ns#"
   xmlns:svg="http://www.w3.org/2000/svg"
   xmlns="http://www.w3.org/2000/svg"
   xmlns:xlink="http://www.w3.org/1999/xlink"
   xmlns:sodipodi="http://sodipodi.sourceforge.net/DTD/sodipodi-0.dtd"
   xmlns:inkscape="http://www.inkscape.org/namespaces/inkscape"
   width="128"
   height="128"
   viewBox="0 0 128 128"
   version="1.1"
   id="svg8"
   inkscape:version="0.92.2 2405546, 2018-03-11"
   sodipodi:docname="start-here-kde.svg"
   inkscape:export-filename="/home/fabian/os_mac.png"
   inkscape:export-xdpi="96"
   inkscape:export-ydpi="96">
  <title
     id="title7895">Antu icon Theme</title>
  <defs
     id="defs2">
    <linearGradient
       gradientTransform="matrix(3.7795275,0,0,3.7795275,-27.743682,-849.68691)"
       inkscape:collect="always"
       xlink:href="#linearGradient4582"
       id="linearGradient4581"
       x1="32.740517"
       y1="307.0058"
       x2="32.740517"
       y2="277.37247"
       gradientUnits="userSpaceOnUse" />
    <linearGradient
       inkscape:collect="always"
       id="linearGradient4582">
      <stop
         style="stop-color:#e3e3e3;stop-opacity:1"
         offset="0"
         id="stop4578" />
      <stop
         style="stop-color:#fcfcfc;stop-opacity:1"
         offset="1"
         id="stop4580" />
    </linearGradient>
    <linearGradient
       gradientTransform="matrix(3.7795275,0,0,3.7795275,-16,-799.86971)"
       inkscape:collect="always"
       xlink:href="#linearGradient4582"
       id="linearGradient4616"
       x1="7.4083333"
       y1="295.14792"
       x2="7.4083333"
       y2="283.50626"
       gradientUnits="userSpaceOnUse" />
    <linearGradient
       inkscape:collect="always"
       id="linearGradient10239">
      <stop
         style="stop-color:#2f435a;stop-opacity:1"
         offset="0"
         id="stop10235" />
      <stop
         style="stop-color:#384d63;stop-opacity:1"
         offset="1"
         id="stop10237" />
    </linearGradient>
    <style
       type="text/css"
       id="current-color-scheme">
      .ColorScheme-Text {
        color:#122036;
      }
      </style>
    <style
       type="text/css"
       id="current-color-scheme-7">
      .ColorScheme-Text {
        color:#122036;
      }
      </style>
    <style
       type="text/css"
       id="current-color-scheme-5">
      .ColorScheme-Text {
        color:#122036;
      }
      </style>
    <style
       id="current-color-scheme-9"
       type="text/css">
      .ColorScheme-Text {
        color:#122036;
      }
      </style>
    <style
       id="current-color-scheme-1"
       type="text/css">
      .ColorScheme-Text {
        color:#122036;
      }
      </style>
    <style
       type="text/css"
       id="current-color-scheme-10">
      .ColorScheme-Text {
        color:#122036;
      }
      </style>
    <style
       id="current-color-scheme-6"
       type="text/css">
      .ColorScheme-Text {
        color:#122036;
      }
      </style>
    <style
       id="current-color-scheme-7-1"
       type="text/css">
      .ColorScheme-Text {
        color:#122036;
      }
      </style>
    <style
       id="current-color-scheme-5-2"
       type="text/css">
      .ColorScheme-Text {
        color:#122036;
      }
      </style>
    <linearGradient
       gradientTransform="translate(-414.57142,-283.14804)"
       gradientUnits="userSpaceOnUse"
       y2="495.29883"
       x2="421.55664"
       y1="529.29803"
       x1="421.57141"
       id="linearGradient999"
       xlink:href="#linearGradient10239"
       inkscape:collect="always" />
    <linearGradient
       inkscape:collect="always"
       xlink:href="#linearGradient10239"
       id="linearGradient983"
       x1="-26.375"
       y1="276.02499"
       x2="-26.375"
       y2="246.02499"
       gradientUnits="userSpaceOnUse" />
  </defs>
  <sodipodi:namedview
     id="base"
     pagecolor="#ffffff"
     bordercolor="#666666"
     borderopacity="1.0"
     inkscape:pageopacity="0.0"
     inkscape:pageshadow="2"
     inkscape:zoom="0.99999999"
     inkscape:cx="97.172896"
     inkscape:cy="-40.996667"
     inkscape:document-units="px"
     inkscape:current-layer="layer1-6"
     showgrid="false"
     units="px"
     inkscape:window-width="1360"
     inkscape:window-height="711"
     inkscape:window-x="0"
     inkscape:window-y="28"
     inkscape:window-maximized="1"
     objecttolerance="10"
     gridtolerance="10"
     guidetolerance="10"
     inkscape:snap-bbox="true"
     inkscape:bbox-nodes="true">
    <inkscape:grid
       type="xygrid"
       id="grid7897"
       empspacing="4" />
  </sodipodi:namedview>
  <metadata
     id="metadata5">
    <rdf:RDF>
      <cc:Work
         rdf:about="">
        <dc:format>image/svg+xml</dc:format>
        <dc:type
           rdf:resource="http://purl.org/dc/dcmitype/StillImage" />
        <dc:title>Antu icon Theme</dc:title>
      </cc:Work>
    </rdf:RDF>
  </metadata>
  <g
     inkscape:label="Capa 1"
     inkscape:groupmode="layer"
     id="layer1"
     transform="translate(0,-186.64999)">
    <g
       id="g1525"
       transform="translate(-32,-4)">
      <path
         style="opacity:1;fill:#9cbbcc;fill-opacity:1;stroke:none;stroke-width:0.18711726;stroke-miterlimit:4;stroke-dasharray:none;stroke-opacity:1"
         d="m 96.000003,191.64999 c 34.901997,0 62.999997,28.09799 62.999997,63 0,34.90197 -28.098,63 -62.999997,63 -34.902002,0 -63.000003,-28.09803 -63.000003,-63 0,-34.90201 28.098001,-63 63.000003,-63 z"
         id="rect4500"
         inkscape:connector-curvature="0" />
      <path
         style="opacity:1;fill:url(#linearGradient4581);fill-opacity:1.0;stroke:none;stroke-width:0.18414716;stroke-miterlimit:4;stroke-dasharray:none;stroke-opacity:1"
         d="m 96.000003,192.64998 c 34.347997,0 61.999997,27.652 61.999997,62.00001 0,34.348 -27.652,62.00001 -61.999997,62.00001 -34.348002,0 -62.000005,-27.65201 -62.000005,-62.00001 0,-34.34801 27.652003,-62.00001 62.000005,-62.00001 z"
         id="rect4500-3"
         inkscape:connector-curvature="0" />
    </g>
    <path
       style="fill:#9cbbcc;fill-opacity:1;stroke-width:2.2399931"
       d="m 74.970704,204.64999 c -0.519271,0.008 -1.015166,0.21718 -1.382812,0.58398 l -11,11 c -0.782039,0.78128 -0.782039,2.04879 0,2.83008 l 21.412109,21.58594 -21.445312,22.61719 c -0.750986,0.78635 -0.736236,2.02858 0.0332,2.79687 l 11,11 c 0.789,0.78664 2.06867,0.777 2.845703,-0.0215 l 33.999998,-35 c 0.76189,-0.78463 0.75234,-2.03571 -0.0215,-2.8086 l -34.000003,-34 c -0.381999,-0.38113 -0.901833,-0.59173 -1.441406,-0.58398 z m -33.970703,8 c -3.878001,0 -7,3.122 -7,7 0,3.87799 3.121999,7 7,7 3.877999,0 7,-3.12201 7,-7 0,-3.878 -3.122001,-7 -7,-7 z m -9,26 c -6.093978,0 -11,4.90602 -11,11 0,6.09397 4.906022,11 11,11 6.09398,0 11,-4.90603 11,-11 0,-6.09398 -4.90602,-11 -11,-11 z m 15,32 c -8.310001,0 -15,6.69 -15,15 0,8.30999 6.689999,15 15,15 8.309999,0 15,-6.69001 15,-15 0,-8.31 -6.690001,-15 -15,-15 z"
       id="rect4119-1"
       inkscape:connector-curvature="0" />
    <g
       transform="matrix(2.1333334,0,0,2.1333334,-110.26667,-376.33668)"
       id="layer1-9"
       inkscape:label="Capa 1">
      <g
         transform="translate(65.687499,3.2500024)"
         id="g1527">
        <g
           inkscape:label="Capa 1"
           id="layer1-6"
           transform="translate(48,24)">
          <path
             id="rect4119"
             d="m -42.78125,248.36874 c 1.817812,0 3.28125,1.46344 3.28125,3.28125 0,1.81781 -1.463438,3.28125 -3.28125,3.28125 -1.817813,0 -3.28125,-1.46344 -3.28125,-3.28125 0,-1.81781 1.463437,-3.28125 3.28125,-3.28125 z"
             style="fill:#dd4d25;fill-opacity:1;stroke-width:1.04999673"
             inkscape:connector-curvature="0" />
          <flowRoot
             line-height="125%"
             style="font-size:32.50000381px;line-height:125%;font-family:sans-serif"
             id="flowRoot4170"
             transform="translate(-448.57142,-248.64803)">
            <flowRegion
               id="flowRegion4172">
              <rect
                 width="87.750008"
                 x="452.32144"
                 y="489.79807"
                 height="48.750004"
                 id="rect4174" />
            </flowRegion>
            <flowPara
               id="flowPara4176">Plasm</flowPara>
          </flowRoot>
          <path
             id="rect4308"
             d="m -47,260.55624 h 4.1e-5 c 2.856553,0 5.15623,2.29969 5.15623,5.15624 v 0 c 0,2.85655 -2.299677,5.15623 -5.15623,5.15623 H -47 c -2.856552,0 -5.156229,-2.29968 -5.156229,-5.15623 v 0 c 0,-2.85655 2.299677,-5.15624 5.156229,-5.15624 z"
             style="fill:#008c52;fill-opacity:1;stroke-width:1.14583075"
             inkscape:connector-curvature="0" />
          <path
             id="rect4312"
             d="m -39.96875,275.55624 c 3.895312,0 7.03125,3.13594 7.03125,7.03125 0,3.89531 -3.135938,7.03125 -7.03125,7.03125 -3.895313,0 -7.03125,-3.13594 -7.03125,-7.03125 0,-3.89531 3.135937,-7.03125 7.03125,-7.03125 z"
             style="fill:#1a6cb2;fill-opacity:1;stroke-width:1.0817312"
             inkscape:connector-curvature="0" />
          <path
             id="rect4308-6"
             d="m -47,261.02499 h 2.4e-5 c 2.596874,0 4.687488,2.09063 4.687488,4.68749 v 0 c 0,2.59687 -2.090614,4.68749 -4.687488,4.68749 H -47 c -2.596863,0 -4.687488,-2.09062 -4.687488,-4.68749 v 0 c 0,-2.59686 2.090625,-4.68749 4.687488,-4.68749 z"
             style="fill:#26c186;fill-opacity:1;stroke-width:1.04166436"
             inkscape:connector-curvature="0" />
          <path
             id="rect4119-7"
             d="m -42.78125,248.83749 c 1.558125,0 2.8125,1.25438 2.8125,2.8125 0,1.55813 -1.254375,2.8125 -2.8125,2.8125 -1.558125,0 -2.8125,-1.25437 -2.8125,-2.8125 0,-1.55812 1.254375,-2.8125 2.8125,-2.8125 z"
             style="fill:#ff8b60;fill-opacity:1;stroke-width:0.89999717"
             inkscape:connector-curvature="0" />
          <path
             id="rect4312-5"
             d="m -39.96875,276.02499 c 3.635625,0 6.5625,2.92688 6.5625,6.5625 0,3.63563 -2.926875,6.5625 -6.5625,6.5625 -3.635625,0 -6.5625,-2.92687 -6.5625,-6.5625 0,-3.63562 2.926875,-6.5625 6.5625,-6.5625 z"
             style="fill:#2aa9f6;fill-opacity:1;stroke-width:1.00961578"
             inkscape:connector-curvature="0" />
          <path
             style="color:#000000;font-style:normal;font-variant:normal;font-weight:normal;font-stretch:normal;font-size:medium;line-height:normal;font-family:sans-serif;font-variant-ligatures:normal;font-variant-position:normal;font-variant-caps:normal;font-variant-numeric:normal;font-variant-alternates:normal;font-feature-settings:normal;text-indent:0;text-align:start;text-decoration:none;text-decoration-line:none;text-decoration-style:solid;text-decoration-color:#000000;letter-spacing:normal;word-spacing:normal;text-transform:none;writing-mode:lr-tb;direction:ltr;text-orientation:mixed;dominant-baseline:auto;baseline-shift:baseline;text-anchor:start;white-space:normal;shape-padding:0;clip-rule:nonzero;display:inline;overflow:visible;visibility:visible;opacity:1;isolation:auto;mix-blend-mode:normal;color-interpolation:sRGB;color-interpolation-filters:linearRGB;solid-color:#000000;solid-opacity:1;vector-effect:none;fill:#223240;fill-opacity:1;fill-rule:nonzero;stroke:none;stroke-width:3.99999976;stroke-linecap:round;stroke-linejoin:round;stroke-miterlimit:4;stroke-dasharray:none;stroke-dashoffset:0;stroke-opacity:1;color-rendering:auto;image-rendering:auto;shape-rendering:auto;text-rendering:auto;enable-background:accumulate"
             d="m 74.970703,17 c -0.519271,0.0078 -1.015166,0.217188 -1.382812,0.583984 l -11,11 c -0.782039,0.781283 -0.782039,2.048795 0,2.830078 L 83.999999,53.000001 62.554688,75.617188 c -0.750986,0.786342 -0.736239,2.028582 0.0332,2.796874 l 11,11 c 0.789,0.786645 2.06867,0.776984 2.845703,-0.02148 l 33.999996,-35 c 0.76189,-0.78463 0.75232,-2.035709 -0.0215,-2.808594 l -34.000001,-34 C 76.030087,17.202856 75.510276,16.992255 74.970703,17 Z"
             transform="matrix(0.46874999,0,0,0.46874999,-61.999999,236.64999)"
             id="path972"
             inkscape:connector-curvature="0"
             sodipodi:nodetypes="ccccccccccccc" />
          <path
             style="fill:url(#linearGradient983);fill-opacity:1;stroke:none;stroke-width:0.46875px;stroke-linecap:butt;stroke-linejoin:miter;stroke-opacity:1"
             d="m -32.46875,272.74374 5.625,5.625 16.40625,-16.875 -16.40625,-16.40625 -5.625,5.625 10.78125,10.78125 z"
             id="path975"
             inkscape:connector-curvature="0"
             sodipodi:nodetypes="ccccccc" />
        </g>
      </g>
    </g>
  </g>
</svg>
