<?xml version="1.0" encoding="UTF-8" standalone="no"?>
<!-- Created with Inkscape (http://www.inkscape.org/) -->

<svg
   xmlns:dc="http://purl.org/dc/elements/1.1/"
   xmlns:cc="http://creativecommons.org/ns#"
   xmlns:rdf="http://www.w3.org/1999/02/22-rdf-syntax-ns#"
   xmlns:svg="http://www.w3.org/2000/svg"
   xmlns="http://www.w3.org/2000/svg"
   xmlns:xlink="http://www.w3.org/1999/xlink"
   xmlns:sodipodi="http://sodipodi.sourceforge.net/DTD/sodipodi-0.dtd"
   xmlns:inkscape="http://www.inkscape.org/namespaces/inkscape"
   width="128"
   height="128"
   viewBox="0 0 128 128"
   version="1.1"
   id="svg8"
   inkscape:version="0.92.4 5da689c313, 2019-01-14"
   sodipodi:docname="start-here-kde.svg">
  <title
     id="title7895">Antu icon Theme</title>
  <defs
     id="defs2">
    <linearGradient
       gradientTransform="translate(446,501.64999)"
       inkscape:collect="always"
       xlink:href="#linearGradient4582-3"
       id="linearGradient1120"
       x1="47"
       y1="113.24989"
       x2="74.970703"
       y2="17"
       gradientUnits="userSpaceOnUse" />
    <linearGradient
       id="linearGradient4582-3"
       inkscape:collect="always">
      <stop
         id="stop4578-5"
         offset="0"
         style="stop-color:#c8c8c8;stop-opacity:1" />
      <stop
         id="stop4580-6"
         offset="1"
         style="stop-color:#f2f2f2;stop-opacity:1" />
    </linearGradient>
    <linearGradient
       gradientTransform="matrix(3.7795275,0,0,3.7795275,386.25632,-538.68691)"
       inkscape:collect="always"
       xlink:href="#linearGradient2126"
       id="linearGradient4581"
       x1="32.740517"
       y1="307.0058"
       x2="32.740517"
       y2="277.37247"
       gradientUnits="userSpaceOnUse" />
    <linearGradient
       inkscape:collect="always"
       id="linearGradient2126">
      <stop
         style="stop-color:#475057;stop-opacity:1;"
         offset="0"
         id="stop2122" />
      <stop
         style="stop-color:#5e6a73;stop-opacity:1"
         offset="1"
         id="stop2124" />
    </linearGradient>
  </defs>
  <sodipodi:namedview
     id="base"
     pagecolor="#ffffff"
     bordercolor="#666666"
     borderopacity="1.0"
     inkscape:pageopacity="0.0"
     inkscape:pageshadow="2"
     inkscape:zoom="1"
     inkscape:cx="269.95945"
     inkscape:cy="-23.776895"
     inkscape:document-units="px"
     inkscape:current-layer="g1525"
     showgrid="false"
     units="px"
     inkscape:window-width="1870"
     inkscape:window-height="1141"
     inkscape:window-x="50"
     inkscape:window-y="30"
     inkscape:window-maximized="1"
     objecttolerance="10"
     gridtolerance="10"
     guidetolerance="10">
    <inkscape:grid
       type="xygrid"
       id="grid7897"
       empspacing="4" />
  </sodipodi:namedview>
  <metadata
     id="metadata5">
    <rdf:RDF>
      <cc:Work
         rdf:about="">
        <dc:format>image/svg+xml</dc:format>
        <dc:type
           rdf:resource="http://purl.org/dc/dcmitype/StillImage" />
        <dc:title>Antu icon Theme</dc:title>
      </cc:Work>
    </rdf:RDF>
  </metadata>
  <g
     inkscape:label="Capa 1"
     inkscape:groupmode="layer"
     id="layer1"
     transform="translate(0,-186.64999)">
    <g
       id="g1525"
       transform="translate(-32,-4)">
      <g
         id="g1202"
         transform="translate(-414,-311)">
        <path
           inkscape:connector-curvature="0"
           id="rect4500"
           d="m 510,502.64999 c 34.902,0 63,28.09799 63,63 0,34.90197 -28.098,63 -63,63 -34.902,0 -63,-28.09803 -63,-63 0,-34.90201 28.098,-63 63,-63 z"
           style="opacity:1;fill:#343b40;fill-opacity:1;stroke:none;stroke-width:0.18711726;stroke-miterlimit:4;stroke-dasharray:none;stroke-opacity:1" />
        <path
           inkscape:connector-curvature="0"
           id="rect4500-3"
           d="m 510,503.64998 c 34.348,0 62,27.652 62,62.00001 0,34.348 -27.652,62.00001 -62,62.00001 -34.348,0 -62,-27.65201 -62,-62.00001 0,-34.34801 27.652,-62.00001 62,-62.00001 z"
           style="opacity:1;fill:url(#linearGradient4581);fill-opacity:1;stroke:none;stroke-width:0.18414716;stroke-miterlimit:4;stroke-dasharray:none;stroke-opacity:1" />
        <path
           inkscape:connector-curvature="0"
           id="rect4119-1"
           d="m 520.9707,519.64999 c -0.51927,0.008 -1.01516,0.21718 -1.38281,0.58398 l -11,11 c -0.78204,0.78128 -0.78204,2.04879 0,2.83008 L 530,555.64999 508.55469,578.26718 c -0.75099,0.78635 -0.73624,2.02858 0.0332,2.79687 l 11,11 c 0.789,0.78664 2.06867,0.777 2.8457,-0.0215 l 34,-35 c 0.76189,-0.78463 0.75234,-2.03571 -0.0215,-2.8086 l -34,-34 c -0.382,-0.38113 -0.90184,-0.59173 -1.44141,-0.58398 z m -33.9707,8 c -3.878,0 -7,3.122 -7,7 0,3.87799 3.122,7 7,7 3.878,0 7,-3.12201 7,-7 0,-3.878 -3.122,-7 -7,-7 z m -9,26 c -6.09398,0 -11,4.90602 -11,11 0,6.09397 4.90602,11 11,11 6.09398,0 11,-4.90603 11,-11 0,-6.09398 -4.90602,-11 -11,-11 z m 15,32 c -8.31,0 -15,6.69 -15,15 0,8.30999 6.69,15 15,15 8.31,0 15,-6.69001 15,-15 0,-8.31 -6.69,-15 -15,-15 z"
           style="fill:#343b40;fill-opacity:1;stroke-width:2.2399931" />
        <path
           id="rect4119"
           d="m 520.9707,518.64999 c -0.51927,0.008 -1.01516,0.21719 -1.38281,0.58398 l -11,11 c -0.78204,0.78128 -0.78204,2.0488 0,2.83008 L 530,554.64999 508.55469,577.26718 c -0.75099,0.78634 -0.73624,2.02858 0.0332,2.79687 l 11,11 c 0.789,0.78665 2.06867,0.77698 2.8457,-0.0215 l 34,-35 c 0.76189,-0.78463 0.75234,-2.03571 -0.0215,-2.80859 l -34,-34 c -0.38198,-0.38114 -0.90181,-0.59174 -1.44139,-0.58399 z m -33.9707,8 c -3.878,0 -7,3.122 -7,7 0,3.87799 3.122,7 7,7 3.878,0 7,-3.12201 7,-7 0,-3.878 -3.122,-7 -7,-7 z m -9,26 c -6.09398,0 -11,4.90602 -11,11 0,6.09397 4.90602,11 11,11 6.09398,0 11,-4.90603 11,-11 0,-6.09398 -4.90602,-11 -11,-11 z m 15,32 c -8.31,0 -15,6.69 -15,15 0,8.30999 6.69,15 15,15 8.31,0 15,-6.69001 15,-15 0,-8.31 -6.69,-15 -15,-15 z"
           style="fill:url(#linearGradient1120);fill-opacity:1;stroke-width:2.2399931"
           inkscape:connector-curvature="0" />
      </g>
    </g>
  </g>
</svg>
