<?xml version="1.0" encoding="UTF-8" standalone="no"?>
<!-- Created with Inkscape (http://www.inkscape.org/) -->

<svg
   xmlns:dc="http://purl.org/dc/elements/1.1/"
   xmlns:cc="http://creativecommons.org/ns#"
   xmlns:rdf="http://www.w3.org/1999/02/22-rdf-syntax-ns#"
   xmlns:svg="http://www.w3.org/2000/svg"
   xmlns="http://www.w3.org/2000/svg"
   xmlns:xlink="http://www.w3.org/1999/xlink"
   xmlns:sodipodi="http://sodipodi.sourceforge.net/DTD/sodipodi-0.dtd"
   xmlns:inkscape="http://www.inkscape.org/namespaces/inkscape"
   width="128"
   height="128"
   viewBox="0 0 128 128"
   version="1.1"
   id="svg8"
   inkscape:version="0.92.2 5c3e80d, 2017-08-06"
   sodipodi:docname="start-here.svg">
  <title
     id="title7895">Antu icon Theme</title>
  <defs
     id="defs2">
    <linearGradient
       gradientTransform="matrix(3.7795275,0,0,3.7795275,-27.743682,-849.68691)"
       inkscape:collect="always"
       xlink:href="#linearGradient10231"
       id="linearGradient4581"
       x1="32.740517"
       y1="304.88913"
       x2="32.740517"
       y2="278.43082"
       gradientUnits="userSpaceOnUse" />
    <linearGradient
       inkscape:collect="always"
       id="linearGradient10231">
      <stop
         style="stop-color:#3e9ff4;stop-opacity:1"
         offset="0"
         id="stop10227" />
      <stop
         style="stop-color:#50c2f9;stop-opacity:1"
         offset="1"
         id="stop10229" />
    </linearGradient>
    <linearGradient
       gradientTransform="matrix(7.8110237,0,0,7.8110237,29.866666,-1999.0906)"
       inkscape:collect="always"
       xlink:href="#linearGradient4547"
       id="linearGradient4601"
       x1="8.4666662"
       y1="291.09381"
       x2="8.4666662"
       y2="284.94864"
       gradientUnits="userSpaceOnUse" />
    <linearGradient
       id="linearGradient4547"
       inkscape:collect="always">
      <stop
         id="stop4543"
         offset="0"
         style="stop-color:#c3f7f9;stop-opacity:1" />
      <stop
         id="stop4545"
         offset="1"
         style="stop-color:#e5fafb;stop-opacity:1" />
    </linearGradient>
  </defs>
  <sodipodi:namedview
     id="base"
     pagecolor="#ffffff"
     bordercolor="#666666"
     borderopacity="1.0"
     inkscape:pageopacity="0.0"
     inkscape:pageshadow="2"
     inkscape:zoom="3.959798"
     inkscape:cx="22.680777"
     inkscape:cy="60.192875"
     inkscape:document-units="px"
     inkscape:current-layer="layer1"
     showgrid="true"
     units="px"
     inkscape:window-width="1366"
     inkscape:window-height="697"
     inkscape:window-x="0"
     inkscape:window-y="0"
     inkscape:window-maximized="1"
     objecttolerance="10"
     gridtolerance="10"
     guidetolerance="10">
    <inkscape:grid
       type="xygrid"
       id="grid7897"
       empspacing="4" />
  </sodipodi:namedview>
  <metadata
     id="metadata5">
    <rdf:RDF>
      <cc:Work
         rdf:about="">
        <dc:format>image/svg+xml</dc:format>
        <dc:type
           rdf:resource="http://purl.org/dc/dcmitype/StillImage" />
        <dc:title>Antu icon Theme</dc:title>
      </cc:Work>
    </rdf:RDF>
  </metadata>
  <g
     inkscape:label="Capa 1"
     inkscape:groupmode="layer"
     id="layer1"
     transform="translate(0,-186.64999)">
    <g
       id="g1525"
       transform="translate(-32,-4)">
      <path
         style="opacity:1;fill:#3182d9;fill-opacity:1;stroke:none;stroke-width:0.18711726;stroke-miterlimit:4;stroke-dasharray:none;stroke-opacity:1"
         d="m 96.000003,191.64999 c 34.901997,0 62.999997,28.09799 62.999997,63 0,34.90197 -28.098,63 -62.999997,63 -34.902002,0 -63.000003,-28.09803 -63.000003,-63 0,-34.90201 28.098001,-63 63.000003,-63 z"
         id="rect4500"
         inkscape:connector-curvature="0" />
      <path
         style="opacity:1;fill:url(#linearGradient4581);fill-opacity:1;stroke:none;stroke-width:0.18414716;stroke-miterlimit:4;stroke-dasharray:none;stroke-opacity:1"
         d="m 96.000003,192.64998 c 34.347997,0 61.999997,27.652 61.999997,62.00001 0,34.348 -27.652,62.00001 -61.999997,62.00001 -34.348002,0 -62.000005,-27.65201 -62.000005,-62.00001 0,-34.34801 27.652003,-62.00001 62.000005,-62.00001 z"
         id="rect4500-3"
         inkscape:connector-curvature="0" />
      <path
         id="rect4673-2"
         d="m 73,223.64999 c -4.985999,0 -9,4.01399 -9,9 0,4.98601 4.014001,9 9,9 4.985999,0 9,-4.01399 9,-9 0,-4.98601 -4.014001,-9 -9,-9 z m 23,0 c -4.986,0 -9,4.01399 -9,9 0,4.98601 4.014,9 9,9 4.986,0 9,-4.01399 9,-9 0,-4.98601 -4.014,-9 -9,-9 z m 23,0 c -4.98597,0 -9,4.01399 -9,9 0,4.98593 4.01403,9 9,9 4.98598,0 9,-4.01407 9,-9 0,-4.98601 -4.01402,-9 -9,-9 z m -46,23 c -4.985999,0 -9,4.01399 -9,9 0,4.98601 4.014001,9 9,9 4.985999,0 9,-4.01399 9,-9 0,-4.98601 -4.014001,-9 -9,-9 z m 23,0 c -4.986,0 -9,4.01399 -9,9 0,4.98601 4.014,9 9,9 4.986,0 9,-4.01399 9,-9 0,-4.98601 -4.014,-9 -9,-9 z m 23,0 c -4.98597,0 -9,4.01399 -9,9 0,4.98593 4.01403,9 9,9 4.98597,0 9,-4.01407 9,-9 0,-4.98601 -4.01403,-9 -9,-9 z m -46,23 c -4.986,0 -9,4.01399 -9,9 0,4.98601 4.014,9 9,9 4.985999,0 9,-4.01399 9,-9 0,-4.98601 -4.014001,-9 -9,-9 z m 23,0 c -4.986,0 -9,4.01399 -9,9 0,4.98601 4.014,9 9,9 4.986,0 9,-4.01399 9,-9 0,-4.98601 -4.014,-9 -9,-9 z m 23,0 c -4.98597,0 -9,4.01407 -9,9 0,4.98601 4.01403,9 9,9 4.98597,0 9,-4.01399 9,-9 0,-4.98593 -4.01403,-9 -9,-9 z"
         style="opacity:1;fill:#358bd9;fill-opacity:1;stroke:none;stroke-width:0.30000001;stroke-miterlimit:4;stroke-dasharray:none;stroke-opacity:1"
         inkscape:connector-curvature="0" />
      <path
         style="opacity:1;fill:url(#linearGradient4601);fill-opacity:1;stroke:none;stroke-width:0.30000001;stroke-miterlimit:4;stroke-dasharray:none;stroke-opacity:1"
         d="m 73,222.64999 c -4.985999,0 -9,4.01399 -9,9 0,4.98601 4.014001,9 9,9 4.985999,0 9,-4.01399 9,-9 0,-4.98601 -4.014001,-9 -9,-9 z m 23,0 c -4.986,0 -9,4.01399 -9,9 0,4.98601 4.014,9 9,9 4.986,0 9,-4.01399 9,-9 0,-4.98601 -4.014,-9 -9,-9 z m 23,0 c -4.98597,0 -9,4.01399 -9,9 0,4.98593 4.01403,9 9,9 4.98598,0 9,-4.01407 9,-9 0,-4.98601 -4.01402,-9 -9,-9 z m -46,23 c -4.985999,0 -9,4.01399 -9,9 0,4.98601 4.014001,9 9,9 4.985999,0 9,-4.01399 9,-9 0,-4.98601 -4.014001,-9 -9,-9 z m 23,0 c -4.986,0 -9,4.01399 -9,9 0,4.98601 4.014,9 9,9 4.986,0 9,-4.01399 9,-9 0,-4.98601 -4.014,-9 -9,-9 z m 23,0 c -4.98597,0 -9,4.01399 -9,9 0,4.98593 4.01403,9 9,9 4.98597,0 9,-4.01407 9,-9 0,-4.98601 -4.01403,-9 -9,-9 z m -46,23 c -4.986,0 -9,4.01399 -9,9 0,4.98601 4.014,9 9,9 4.985999,0 9,-4.01399 9,-9 0,-4.98601 -4.014001,-9 -9,-9 z m 23,0 c -4.986,0 -9,4.01399 -9,9 0,4.98601 4.014,9 9,9 4.986,0 9,-4.01399 9,-9 0,-4.98601 -4.014,-9 -9,-9 z m 23,0 c -4.98597,0 -9,4.01407 -9,9 0,4.98601 4.01403,9 9,9 4.98597,0 9,-4.01399 9,-9 0,-4.98593 -4.01403,-9 -9,-9 z"
         id="rect4673"
         inkscape:connector-curvature="0" />
    </g>
  </g>
</svg>
