<?xml version="1.0" encoding="UTF-8" standalone="no"?>
<!-- Created with Inkscape (http://www.inkscape.org/) -->

<svg
   width="128"
   height="128"
   viewBox="0 0 128 128"
   version="1.1"
   id="svg8"
   inkscape:version="1.2 (dc2aedaf03, 2022-05-15)"
   sodipodi:docname="ubuntu.svg"
   xml:space="preserve"
   xmlns:inkscape="http://www.inkscape.org/namespaces/inkscape"
   xmlns:sodipodi="http://sodipodi.sourceforge.net/DTD/sodipodi-0.dtd"
   xmlns:xlink="http://www.w3.org/1999/xlink"
   xmlns="http://www.w3.org/2000/svg"
   xmlns:svg="http://www.w3.org/2000/svg"
   xmlns:rdf="http://www.w3.org/1999/02/22-rdf-syntax-ns#"
   xmlns:cc="http://creativecommons.org/ns#"
   xmlns:dc="http://purl.org/dc/elements/1.1/"><title
     id="title7895">Antu icon Theme</title><defs
     id="defs2"><linearGradient
       gradientTransform="matrix(3.7795276,0,0,3.7795276,-13.000001,-798.86971)"
       inkscape:collect="always"
       xlink:href="#linearGradient4622"
       id="linearGradient960"
       x1="5.6885414"
       y1="293.75885"
       x2="6.1301332"
       y2="262.34933"
       gradientUnits="userSpaceOnUse" /><linearGradient
       id="linearGradient4622"
       inkscape:collect="always"><stop
         id="stop4618"
         offset="0"
         style="stop-color:#ff6a3e;stop-opacity:1" /><stop
         id="stop4620"
         offset="1"
         style="stop-color:#ff9065;stop-opacity:1" /></linearGradient><style
       id="style5129">.cls-1{fill:#e9500e;}</style></defs><sodipodi:namedview
     id="base"
     pagecolor="#ffffff"
     bordercolor="#666666"
     borderopacity="1.0"
     inkscape:pageopacity="0.0"
     inkscape:pageshadow="2"
     inkscape:zoom="5.6"
     inkscape:cx="48.75"
     inkscape:cy="66.160714"
     inkscape:document-units="px"
     inkscape:current-layer="g847"
     showgrid="true"
     units="px"
     inkscape:window-width="2160"
     inkscape:window-height="1337"
     inkscape:window-x="0"
     inkscape:window-y="0"
     inkscape:window-maximized="1"
     objecttolerance="10"
     gridtolerance="10"
     guidetolerance="10"
     inkscape:showpageshadow="2"
     inkscape:pagecheckerboard="0"
     inkscape:deskcolor="#d1d1d1"><inkscape:grid
       type="xygrid"
       id="grid7897"
       empspacing="4" /></sodipodi:namedview><metadata
     id="metadata5"><rdf:RDF><cc:Work
         rdf:about=""><dc:format>image/svg+xml</dc:format><dc:type
           rdf:resource="http://purl.org/dc/dcmitype/StillImage" /><dc:title>Antu icon Theme</dc:title></cc:Work></rdf:RDF></metadata><g
     inkscape:label="Capa 1"
     inkscape:groupmode="layer"
     id="layer1"
     transform="translate(0,-186.64999)"><g
       id="g1525"
       transform="translate(-32,-4)"><g
         id="g847"
         transform="translate(88.000001)"><path
           inkscape:connector-curvature="0"
           id="rect4500-6"
           d="m 7.9999998,191.64999 c 34.9019992,0 62.9999992,28.09799 62.9999992,63 0,34.90197 -28.098,63 -62.9999992,63 -34.9019998,0 -63.0000008,-28.09803 -63.0000008,-63 0,-34.90201 28.098001,-63 63.0000008,-63 z"
           style="overflow:visible;opacity:1;fill:#dd4d25;fill-opacity:1;stroke:none;stroke-width:0.18711726;stroke-miterlimit:4;stroke-dasharray:none;stroke-opacity:1" /><path
           inkscape:connector-curvature="0"
           id="rect4500-3-1"
           d="m 7.9999998,192.64998 c 34.3479992,0 61.9999992,27.652 61.9999992,62.00001 0,34.34801 -27.652,62.00001 -61.9999992,62.00001 -34.3479988,0 -62.0000018,-27.652 -62.0000018,-62.00001 0,-34.34801 27.652003,-62.00001 62.0000018,-62.00001 z"
           style="overflow:visible;opacity:1;fill:url(#linearGradient960);fill-opacity:1;stroke:none;stroke-width:0.18414716;stroke-miterlimit:4;stroke-dasharray:none;stroke-opacity:1" /><g
           id="g8153"
           transform="translate(-1)"><path
             id="path7111-2"
             style="fill:#dd4d25;fill-opacity:1;stroke-width:2;stroke-linecap:round;stroke-linejoin:round"
             d="m 25.999999,211.64999 a 14,14 0 0 0 -14,14 14,14 0 0 0 14,14 14,14 0 0 0 14,-14 14,14 0 0 0 -14,-14 z m -16,3 a 41,41 0 0 0 -35.689453,21.01172 18,18 0 0 1 1.035156,0.0391 18,18 0 0 1 1.337891,0.15039 18,18 0 0 1 1.322265,0.25 18,18 0 0 1 1.298829,0.34766 18,18 0 0 1 1.271484,0.44531 18,18 0 0 1 1.234375,0.53906 18,18 0 0 1 1.189453,0.62891 18,18 0 0 1 1.123047,0.70312 31,31 0 0 1 23.970703,-13.94921 18,18 0 0 1 0.357422,-3.17188 18,18 0 0 1 1.332031,-3.80469 18,18 0 0 1 1.97461,-3.14257 41,41 0 0 0 -1.757813,-0.0469 z m 32.974609,16.64648 a 18,18 0 0 1 -0.757812,2.16407 18,18 0 0 1 -2.144531,3.41211 18,18 0 0 1 -2.84961,2.84961 18,18 0 0 1 -0.466797,0.29296 31,31 0 0 1 4.244141,15.63477 31,31 0 0 1 -4.949219,16.63867 18,18 0 0 1 0.191407,0.16602 18,18 0 0 1 0.953125,0.95312 18,18 0 0 1 0.876953,1.01953 18,18 0 0 1 0.800781,1.08204 18,18 0 0 1 0.714844,1.14062 18,18 0 0 1 0.628906,1.18945 18,18 0 0 1 0.539062,1.23438 18,18 0 0 1 0.445313,1.27148 18,18 0 0 1 0.347656,1.29883 41,41 0 0 0 9.451172,-25.99414 41,41 0 0 0 -8.025391,-24.35352 z m -68.974609,8.35352 a 14,14 0 0 0 -14,14 14,14 0 0 0 14,14 14,14 0 0 0 14,-14 14,14 0 0 0 -14,-14 z m 8.384766,29.85547 a 18,18 0 0 1 -0.574219,0.36133 18,18 0 0 1 -3.804688,1.33203 18,18 0 0 1 -4.005859,0.45117 18,18 0 0 1 -1.693359,-0.19141 41,41 0 0 0 37.470703,25.17383 18,18 0 0 1 -1.994141,-3.17187 18,18 0 0 1 -1.332031,-3.80469 18,18 0 0 1 -0.376953,-3.34961 31,31 0 0 1 -23.689453,-16.80078 z m 41.615234,2.14453 a 14,14 0 0 0 -14,14 14,14 0 0 0 14,14 14,14 0 0 0 14,-14 14,14 0 0 0 -14,-14 z" /><path
             id="path7111"
             style="fill:#ffffff;fill-opacity:1;stroke-width:2;stroke-linecap:round;stroke-linejoin:round"
             d="m 25.999999,210.64999 a 14,14 0 0 0 -14,14 14,14 0 0 0 14,14 14,14 0 0 0 14,-14 14,14 0 0 0 -14,-14 z m -16,3 a 41,41 0 0 0 -35.689453,21.01172 18,18 0 0 1 1.035156,0.0391 18,18 0 0 1 1.337891,0.15039 18,18 0 0 1 1.322265,0.25 18,18 0 0 1 1.298829,0.34766 18,18 0 0 1 1.271484,0.44531 18,18 0 0 1 1.234375,0.53906 18,18 0 0 1 1.189453,0.62891 18,18 0 0 1 1.123047,0.70312 31,31 0 0 1 23.970703,-13.94921 18,18 0 0 1 0.357422,-3.17188 18,18 0 0 1 1.332031,-3.80469 18,18 0 0 1 1.97461,-3.14257 41,41 0 0 0 -1.757813,-0.0469 z m 32.974609,16.64648 a 18,18 0 0 1 -0.757812,2.16407 18,18 0 0 1 -2.144531,3.41211 18,18 0 0 1 -2.84961,2.84961 18,18 0 0 1 -0.466797,0.29296 31,31 0 0 1 4.244141,15.63477 31,31 0 0 1 -4.949219,16.63867 18,18 0 0 1 0.191407,0.16602 18,18 0 0 1 0.953125,0.95312 18,18 0 0 1 0.876953,1.01953 18,18 0 0 1 0.800781,1.08204 18,18 0 0 1 0.714844,1.14062 18,18 0 0 1 0.628906,1.18945 18,18 0 0 1 0.539062,1.23438 18,18 0 0 1 0.445313,1.27148 18,18 0 0 1 0.347656,1.29883 41,41 0 0 0 9.451172,-25.99414 41,41 0 0 0 -8.025391,-24.35352 z m -68.974609,8.35352 a 14,14 0 0 0 -14,14 14,14 0 0 0 14,14 14,14 0 0 0 14,-14 14,14 0 0 0 -14,-14 z m 8.384766,29.85547 a 18,18 0 0 1 -0.574219,0.36133 18,18 0 0 1 -3.804688,1.33203 18,18 0 0 1 -4.005859,0.45117 18,18 0 0 1 -1.693359,-0.19141 41,41 0 0 0 37.470703,25.17383 18,18 0 0 1 -1.994141,-3.17187 18,18 0 0 1 -1.3320311,-3.80469 18,18 0 0 1 -0.3769531,-3.34961 31,31 0 0 1 -23.6894528,-16.80078 z m 41.615234,2.14453 a 14,14 0 0 0 -14,14 14,14 0 0 0 14,14 14,14 0 0 0 14,-14 14,14 0 0 0 -14,-14 z" /></g></g></g></g></svg>
