<?xml version="1.0" encoding="UTF-8" standalone="no"?>
<!-- Created with Inkscape (http://www.inkscape.org/) -->

<svg
   xmlns:dc="http://purl.org/dc/elements/1.1/"
   xmlns:cc="http://creativecommons.org/ns#"
   xmlns:rdf="http://www.w3.org/1999/02/22-rdf-syntax-ns#"
   xmlns:svg="http://www.w3.org/2000/svg"
   xmlns="http://www.w3.org/2000/svg"
   xmlns:xlink="http://www.w3.org/1999/xlink"
   xmlns:sodipodi="http://sodipodi.sourceforge.net/DTD/sodipodi-0.dtd"
   xmlns:inkscape="http://www.inkscape.org/namespaces/inkscape"
   width="32"
   height="32"
   viewBox="0 0 32 32"
   version="1.1"
   id="svg8"
   inkscape:version="0.92.2 2405546, 2018-03-11"
   sodipodi:docname="alt-github.svg">
  <title
     id="title7895">Antu icon Theme</title>
  <defs
     id="defs2">
    <linearGradient
       inkscape:collect="always"
       xlink:href="#linearGradient3169"
       id="linearGradient2543"
       gradientUnits="userSpaceOnUse"
       gradientTransform="translate(-68.514582,-4.90158)"
       x1="23.514582"
       y1="314.64999"
       x2="23.514582"
       y2="300.64999" />
    <linearGradient
       inkscape:collect="always"
       id="linearGradient3169">
      <stop
         style="stop-color:#e7ebed;stop-opacity:1;"
         offset="0"
         id="stop3165" />
      <stop
         style="stop-color:#ffffff;stop-opacity:1"
         offset="1"
         id="stop3167" />
    </linearGradient>
    <linearGradient
       inkscape:collect="always"
       xlink:href="#linearGradient2742"
       id="linearGradient1679-4-7"
       gradientUnits="userSpaceOnUse"
       x1="22"
       y1="287.64999"
       x2="22"
       y2="263.64999"
       gradientTransform="translate(-65,23.09842)" />
    <linearGradient
       inkscape:collect="always"
       id="linearGradient2742">
      <stop
         style="stop-color:#4f6773;stop-opacity:1"
         offset="0"
         id="stop2738" />
      <stop
         style="stop-color:#607d8b;stop-opacity:1"
         offset="1"
         id="stop2740" />
    </linearGradient>
    <linearGradient
       gradientTransform="translate(-61,-5.90158)"
       inkscape:collect="always"
       xlink:href="#linearGradient2748"
       id="linearGradient2533"
       gradientUnits="userSpaceOnUse"
       x1="8"
       y1="295.64999"
       x2="8"
       y2="288.64999" />
    <linearGradient
       inkscape:collect="always"
       id="linearGradient2748">
      <stop
         style="stop-color:#455a64;stop-opacity:1"
         offset="0"
         id="stop2744" />
      <stop
         style="stop-color:#4f6773;stop-opacity:1"
         offset="1"
         id="stop2746" />
    </linearGradient>
  </defs>
  <sodipodi:namedview
     id="base"
     pagecolor="#ffffff"
     bordercolor="#666666"
     borderopacity="1.0"
     inkscape:pageopacity="0.0"
     inkscape:pageshadow="2"
     inkscape:zoom="22.4"
     inkscape:cx="14.012233"
     inkscape:cy="7.1875435"
     inkscape:document-units="px"
     inkscape:current-layer="layer1"
     showgrid="true"
     units="px"
     inkscape:window-width="1360"
     inkscape:window-height="711"
     inkscape:window-x="0"
     inkscape:window-y="28"
     inkscape:window-maximized="1"
     objecttolerance="10"
     gridtolerance="10"
     guidetolerance="10"
     inkscape:snap-bbox="true"
     inkscape:bbox-paths="true"
     inkscape:bbox-nodes="true"
     inkscape:snap-bbox-edge-midpoints="true"
     inkscape:snap-bbox-midpoints="true"
     inkscape:object-paths="true"
     inkscape:snap-intersection-paths="true">
    <inkscape:grid
       type="xygrid"
       id="grid7897"
       empspacing="4" />
  </sodipodi:namedview>
  <metadata
     id="metadata5">
    <rdf:RDF>
      <cc:Work
         rdf:about="">
        <dc:format>image/svg+xml</dc:format>
        <dc:type
           rdf:resource="http://purl.org/dc/dcmitype/StillImage" />
        <dc:title>Antu icon Theme</dc:title>
      </cc:Work>
    </rdf:RDF>
  </metadata>
  <g
     inkscape:label="Capa 1"
     inkscape:groupmode="layer"
     id="layer1"
     transform="translate(0,-282.64999)">
    <g
       id="g6330"
       transform="translate(61,1.90158)">
      <path
         inkscape:connector-curvature="0"
         id="path1151-3-3-3"
         d="m -59,281.74841 c -1.090679,0 -2,0.90931 -2,2 v 26 c 0,1.09069 0.909309,2 2,2 h 28 c 1.090691,0 2,-0.90931 2,-2 v -22 c 0,-1.09069 -0.909321,-2 -2,-2 h -14 c -0.166667,0 -0.219367,-0.025 -0.419922,-0.26563 -0.200555,-0.24067 -0.435547,-0.68163 -0.685547,-1.18164 -0.25,-0.5 -0.515008,-1.05903 -0.939453,-1.56836 -0.424445,-0.50934 -1.121745,-0.98437 -1.955078,-0.98437 z"
         style="color:#000000;font-style:normal;font-variant:normal;font-weight:normal;font-stretch:normal;font-size:medium;line-height:normal;font-family:sans-serif;font-variant-ligatures:normal;font-variant-position:normal;font-variant-caps:normal;font-variant-numeric:normal;font-variant-alternates:normal;font-feature-settings:normal;text-indent:0;text-align:start;text-decoration:none;text-decoration-line:none;text-decoration-style:solid;text-decoration-color:#000000;letter-spacing:normal;word-spacing:normal;text-transform:none;writing-mode:lr-tb;direction:ltr;text-orientation:mixed;dominant-baseline:auto;baseline-shift:baseline;text-anchor:start;white-space:normal;shape-padding:0;clip-rule:nonzero;display:inline;overflow:visible;visibility:visible;opacity:1;isolation:auto;mix-blend-mode:normal;color-interpolation:sRGB;color-interpolation-filters:linearRGB;solid-color:#000000;solid-opacity:1;vector-effect:none;fill:#35454d;fill-opacity:1;fill-rule:nonzero;stroke:none;stroke-width:2;stroke-linecap:round;stroke-linejoin:round;stroke-miterlimit:4;stroke-dasharray:none;stroke-dashoffset:0;stroke-opacity:1;color-rendering:auto;image-rendering:auto;shape-rendering:auto;text-rendering:auto;enable-background:accumulate"
         sodipodi:nodetypes="ssssssssscccss" />
      <path
         sodipodi:nodetypes="ssssssssccs"
         inkscape:connector-curvature="0"
         style="fill:url(#linearGradient2533);fill-opacity:1;stroke-width:2;stroke-miterlimit:4;stroke-dasharray:none"
         id="path13-6-3-1-3-0-7-7-3-1-6"
         d="m -59,282.74842 c -0.55401,0 -1,0.44598 -1,0.99999 v 26.00001 c 0,0.554 0.44599,0.99999 1,0.99999 h 28.000001 c 0.554009,0 0.999999,-0.44599 0.999999,-0.99999 v -22.00001 c 0,-0.55401 -0.445991,-0.99999 -0.999999,-0.99999 L -45,286.74841 c -2,0 -2,-4 -4,-4 z" />
      <path
         inkscape:connector-curvature="0"
         id="path1105-5-2-2"
         d="m -45,285.74841 c -0.833333,0 -1.554289,0.54936 -1.894531,1.09375 -0.340243,0.54439 -0.491342,1.08889 -0.666016,1.55469 -0.174673,0.46579 -0.360335,0.83439 -0.552734,1.03515 -0.1924,0.20077 -0.358941,0.31641 -0.886719,0.31641 h -10 c -1.090679,0 -2,0.90931 -2,2 v 18 c 0,1.09069 0.909309,2 2,2 h 28 c 1.090691,0 2,-0.90931 2,-2 v -22 c 0,-1.09069 -0.909321,-2 -2,-2 z"
         style="color:#000000;font-style:normal;font-variant:normal;font-weight:normal;font-stretch:normal;font-size:medium;line-height:normal;font-family:sans-serif;font-variant-ligatures:normal;font-variant-position:normal;font-variant-caps:normal;font-variant-numeric:normal;font-variant-alternates:normal;font-feature-settings:normal;text-indent:0;text-align:start;text-decoration:none;text-decoration-line:none;text-decoration-style:solid;text-decoration-color:#000000;letter-spacing:normal;word-spacing:normal;text-transform:none;writing-mode:lr-tb;direction:ltr;text-orientation:mixed;dominant-baseline:auto;baseline-shift:baseline;text-anchor:start;white-space:normal;shape-padding:0;clip-rule:nonzero;display:inline;overflow:visible;visibility:visible;opacity:1;isolation:auto;mix-blend-mode:normal;color-interpolation:sRGB;color-interpolation-filters:linearRGB;solid-color:#000000;solid-opacity:1;vector-effect:none;fill:#35454d;fill-opacity:1;fill-rule:nonzero;stroke:none;stroke-width:2;stroke-linecap:butt;stroke-linejoin:miter;stroke-miterlimit:4;stroke-dasharray:none;stroke-dashoffset:0;stroke-opacity:1;color-rendering:auto;image-rendering:auto;shape-rendering:auto;text-rendering:auto;enable-background:accumulate"
         sodipodi:nodetypes="scccssssssssss" />
      <path
         d="m -59,290.74841 c -0.55401,0 -1,0.44598 -1,1 v 18 c 0,0.554 0.44599,1 1,1 h 28 c 0.55401,0 1,-0.44599 1,-1 v -22 c 0,-0.55402 -0.44599,-1 -1,-1 h -14 c -2,0 -1,4 -4,4 z"
         id="path13-6-3-1-3-0-7-7-9-2-4-9-0"
         style="fill:url(#linearGradient1679-4-7);fill-opacity:1;stroke:none;stroke-width:2;stroke-miterlimit:4;stroke-dasharray:none;stroke-opacity:1"
         inkscape:connector-curvature="0"
         sodipodi:nodetypes="ssssssssccs" />
      <path
         style="opacity:1;fill:#35454d;fill-opacity:1;stroke:none;stroke-width:2;stroke-linecap:round;stroke-linejoin:round;stroke-miterlimit:4;stroke-dasharray:none;stroke-dashoffset:0;stroke-opacity:0.98039216"
         d="m -49.498047,294.74799 c -0.276893,-9.9e-4 -0.501927,0.22309 -0.501953,0.5 v 2.83593 c -0.628307,0.89407 -1,1.98355 -1,3.16407 0,2.35577 1.469509,4.35023 3.542969,5.13672 C -47.79717,306.92464 -48,307.56006 -48,308.24799 c 0,0.0415 0.0103,0.0799 0.01172,0.12108 H -48 v 0.0645 c -0.683346,-0.28598 -1.042851,-0.74333 -1.449219,-1.28516 -0.343,-0.45733 -0.67282,-1.00763 -1.216797,-1.50975 -0.543976,-0.50219 -1.361762,-0.89067 -2.333984,-0.89067 -1.352323,-0.0191 -1.352323,2.01911 0,2 0.527778,0 0.709992,0.11151 0.978516,0.35937 0.268523,0.24786 0.563703,0.69757 0.970703,1.24023 0.589236,0.78565 1.531012,1.68456 3.050781,2.125 v 1.2754 h 1 v -0.5 -2 c 0,-0.277 0.223,-0.5 0.5,-0.5 0.277,0 0.5,0.223 0.5,0.5 v 1.5 1 h 1 v -0.5 -3 c 0,-0.277 0.223,-0.5 0.5,-0.5 0.277,0 0.5,0.223 0.5,0.5 v 2.5 1 h 1 v -0.5 -0.5 -1.5 c 0,-0.277 0.223,-0.5 0.5,-0.5 0.277,0 0.5,0.223 0.5,0.5 v 1.5 0.5 0.5 h 1 v -3.37892 h -0.01172 c 0.0014,-0.0411 0.01172,-0.0796 0.01172,-0.12108 0,-0.68793 -0.20283,-1.32335 -0.542969,-1.86329 2.07346,-0.78649 3.542969,-2.78094 3.542969,-5.13671 0,-1.18052 -0.371693,-2.26998 -1,-3.16407 v -2.83593 c 1.09e-4,-0.28236 -0.233413,-0.50881 -0.515625,-0.5 -0.06258,0.002 -0.124196,0.0161 -0.181641,0.041 l -2.572265,1.10157 c -0.395961,-0.09 -0.8065,-0.14259 -1.230469,-0.14259 h -2 c -0.423969,0 -0.834508,0.0526 -1.230469,0.14259 l -2.572265,-1.10157 c -0.06169,-0.0266 -0.128114,-0.0406 -0.195313,-0.041 z"
         id="rect4165-6-5-3"
         inkscape:connector-curvature="0" />
      <path
         style="opacity:1;fill:url(#linearGradient2543);fill-opacity:1;stroke:none;stroke-width:2;stroke-linecap:round;stroke-linejoin:round;stroke-miterlimit:4;stroke-dasharray:none;stroke-dashoffset:0;stroke-opacity:0.98039216"
         d="m -49.498047,293.74841 c -0.276893,-9.9e-4 -0.501927,0.22309 -0.501953,0.5 v 2.83593 c -0.628307,0.89407 -1,1.98355 -1,3.16407 0,2.35577 1.469509,4.35023 3.542969,5.13672 C -47.79717,305.92506 -48,306.56048 -48,307.24841 c 0,0.0415 0.0103,0.0799 0.01172,0.12108 H -48 v 0.0645 c -0.683346,-0.28598 -1.042851,-0.74333 -1.449219,-1.28516 -0.343,-0.45733 -0.67282,-1.00763 -1.216797,-1.50975 -0.543976,-0.50219 -1.361762,-0.89067 -2.333984,-0.89067 -1.352323,-0.0191 -1.352323,2.01911 0,2 0.527778,0 0.709992,0.11151 0.978516,0.35937 0.268523,0.24786 0.563703,0.69757 0.970703,1.24023 0.589236,0.78565 1.531012,1.68456 3.050781,2.125 v 1.2754 h 1 v -0.5 -2 c 0,-0.277 0.223,-0.5 0.5,-0.5 0.277,0 0.5,0.223 0.5,0.5 v 1.5 1 h 1 v -0.5 -3 c 0,-0.277 0.223,-0.5 0.5,-0.5 0.277,0 0.5,0.223 0.5,0.5 v 2.5 1 h 1 v -0.5 -0.5 -1.5 c 0,-0.277 0.223,-0.5 0.5,-0.5 0.277,0 0.5,0.223 0.5,0.5 v 1.5 0.5 0.5 h 1 v -3.37892 h -0.01172 c 0.0014,-0.0411 0.01172,-0.0796 0.01172,-0.12108 0,-0.68793 -0.20283,-1.32335 -0.542969,-1.86329 2.07346,-0.78649 3.542969,-2.78094 3.542969,-5.13671 0,-1.18052 -0.371693,-2.26998 -1,-3.16407 v -2.83593 c 1.09e-4,-0.28236 -0.233413,-0.50881 -0.515625,-0.5 -0.06258,0.002 -0.124196,0.0161 -0.181641,0.041 l -2.572265,1.10157 c -0.395961,-0.09 -0.8065,-0.14259 -1.230469,-0.14259 h -2 c -0.423969,0 -0.834508,0.0526 -1.230469,0.14259 l -2.572265,-1.10157 c -0.06169,-0.0266 -0.128114,-0.0406 -0.195313,-0.041 z"
         id="rect4165-6-5"
         inkscape:connector-curvature="0" />
    </g>
  </g>
</svg>
