<?xml version="1.0" encoding="UTF-8" standalone="no"?>
<!-- Created with Inkscape (http://www.inkscape.org/) -->

<svg
   xmlns:dc="http://purl.org/dc/elements/1.1/"
   xmlns:cc="http://creativecommons.org/ns#"
   xmlns:rdf="http://www.w3.org/1999/02/22-rdf-syntax-ns#"
   xmlns:svg="http://www.w3.org/2000/svg"
   xmlns="http://www.w3.org/2000/svg"
   xmlns:xlink="http://www.w3.org/1999/xlink"
   xmlns:sodipodi="http://sodipodi.sourceforge.net/DTD/sodipodi-0.dtd"
   xmlns:inkscape="http://www.inkscape.org/namespaces/inkscape"
   width="32"
   height="32"
   viewBox="0 0 32 32"
   version="1.1"
   id="svg8"
   inkscape:version="0.92.2 2405546, 2018-03-11"
   sodipodi:docname="alt-videos.svg">
  <title
     id="title7895">Antu icon Theme</title>
  <defs
     id="defs2">
    <linearGradient
       gradientUnits="userSpaceOnUse"
       y2="293.13947"
       x2="4.8927851"
       y1="295.59131"
       x1="4.9278646"
       id="linearGradient11619"
       xlink:href="#linearGradient4631-3"
       inkscape:collect="always"
       gradientTransform="matrix(3.7795275,0,0,3.7795275,-82.625,-814.28042)" />
    <linearGradient
       id="linearGradient4631-3"
       inkscape:collect="always">
      <stop
         id="stop4627-7"
         offset="0"
         style="stop-color:#c9c8f9;stop-opacity:1" />
      <stop
         id="stop4629-1"
         offset="1"
         style="stop-color:#f5f2ff;stop-opacity:1" />
    </linearGradient>
    <linearGradient
       gradientTransform="translate(-82,20.99998)"
       inkscape:collect="always"
       xlink:href="#linearGradient856"
       id="linearGradient1351-5-3"
       x1="22"
       y1="287.64999"
       x2="22"
       y2="263.64999"
       gradientUnits="userSpaceOnUse" />
    <linearGradient
       inkscape:collect="always"
       id="linearGradient856">
      <stop
         style="stop-color:#6778d9;stop-opacity:1"
         offset="0"
         id="stop852" />
      <stop
         style="stop-color:#8997e5;stop-opacity:1"
         offset="1"
         id="stop854" />
    </linearGradient>
    <linearGradient
       gradientTransform="translate(-78,-8.00001)"
       inkscape:collect="always"
       xlink:href="#linearGradient3161"
       id="linearGradient1160-22-0"
       x1="8"
       y1="295.64999"
       x2="8"
       y2="288.64999"
       gradientUnits="userSpaceOnUse" />
    <linearGradient
       inkscape:collect="always"
       id="linearGradient3161">
      <stop
         style="stop-color:#5c6bbf;stop-opacity:1"
         offset="0"
         id="stop3157" />
      <stop
         style="stop-color:#6a7ada;stop-opacity:1"
         offset="1"
         id="stop3159" />
    </linearGradient>
  </defs>
  <sodipodi:namedview
     id="base"
     pagecolor="#ffffff"
     bordercolor="#666666"
     borderopacity="1.0"
     inkscape:pageopacity="0.0"
     inkscape:pageshadow="2"
     inkscape:zoom="5.6"
     inkscape:cx="-40.017497"
     inkscape:cy="15.856699"
     inkscape:document-units="px"
     inkscape:current-layer="layer1"
     showgrid="true"
     units="px"
     inkscape:window-width="1360"
     inkscape:window-height="711"
     inkscape:window-x="0"
     inkscape:window-y="28"
     inkscape:window-maximized="1"
     objecttolerance="10"
     gridtolerance="10"
     guidetolerance="10"
     inkscape:snap-bbox="true"
     inkscape:bbox-paths="true"
     inkscape:bbox-nodes="true"
     inkscape:snap-bbox-edge-midpoints="true"
     inkscape:snap-bbox-midpoints="true"
     inkscape:object-paths="true"
     inkscape:snap-intersection-paths="true">
    <inkscape:grid
       type="xygrid"
       id="grid7897"
       empspacing="4" />
  </sodipodi:namedview>
  <metadata
     id="metadata5">
    <rdf:RDF>
      <cc:Work
         rdf:about="">
        <dc:format>image/svg+xml</dc:format>
        <dc:type
           rdf:resource="http://purl.org/dc/dcmitype/StillImage" />
        <dc:title>Antu icon Theme</dc:title>
      </cc:Work>
    </rdf:RDF>
  </metadata>
  <g
     inkscape:label="Capa 1"
     inkscape:groupmode="layer"
     id="layer1"
     transform="translate(0,-282.64999)">
    <g
       id="g7212"
       transform="translate(78,4.00001)">
      <path
         sodipodi:nodetypes="ssssssssscccss"
         style="color:#000000;font-style:normal;font-variant:normal;font-weight:normal;font-stretch:normal;font-size:medium;line-height:normal;font-family:sans-serif;font-variant-ligatures:normal;font-variant-position:normal;font-variant-caps:normal;font-variant-numeric:normal;font-variant-alternates:normal;font-feature-settings:normal;text-indent:0;text-align:start;text-decoration:none;text-decoration-line:none;text-decoration-style:solid;text-decoration-color:#000000;letter-spacing:normal;word-spacing:normal;text-transform:none;writing-mode:lr-tb;direction:ltr;text-orientation:mixed;dominant-baseline:auto;baseline-shift:baseline;text-anchor:start;white-space:normal;shape-padding:0;clip-rule:nonzero;display:inline;overflow:visible;visibility:visible;opacity:1;isolation:auto;mix-blend-mode:normal;color-interpolation:sRGB;color-interpolation-filters:linearRGB;solid-color:#000000;solid-opacity:1;vector-effect:none;fill:#3f4980;fill-opacity:1;fill-rule:nonzero;stroke:none;stroke-width:2;stroke-linecap:round;stroke-linejoin:round;stroke-miterlimit:4;stroke-dasharray:none;stroke-dashoffset:0;stroke-opacity:1;color-rendering:auto;image-rendering:auto;shape-rendering:auto;text-rendering:auto;enable-background:accumulate"
         d="m -76,279.64998 c -1.090679,0 -2,0.90931 -2,2 v 26 c 0,1.09069 0.909309,2 2,2 h 28 c 1.090691,0 2,-0.90931 2,-2 v -22 c 0,-1.09069 -0.909321,-2 -2,-2 h -14 c -0.166667,0 -0.219367,-0.025 -0.419922,-0.26563 -0.200555,-0.24067 -0.435547,-0.68163 -0.685547,-1.18164 -0.25,-0.5 -0.515008,-1.05903 -0.939453,-1.56836 -0.424445,-0.50934 -1.121745,-0.98437 -1.955078,-0.98437 z"
         id="path1151-60-1"
         inkscape:connector-curvature="0" />
      <path
         d="m -76,280.64999 c -0.55401,0 -1,0.44598 -1,0.99999 v 26.00001 c 0,0.554 0.44599,0.99999 1,0.99999 h 28.000001 c 0.554009,0 0.999999,-0.44599 0.999999,-0.99999 v -22.00001 c 0,-0.55401 -0.445991,-0.99999 -0.999999,-0.99999 L -62,284.64998 c -2,0 -2,-4 -4,-4 z"
         id="path13-6-3-1-3-0-7-7-43-8"
         style="fill:url(#linearGradient1160-22-0);fill-opacity:1;stroke-width:2;stroke-miterlimit:4;stroke-dasharray:none"
         inkscape:connector-curvature="0"
         sodipodi:nodetypes="ssssssssccs" />
      <path
         sodipodi:nodetypes="scccssssssssss"
         style="color:#000000;font-style:normal;font-variant:normal;font-weight:normal;font-stretch:normal;font-size:medium;line-height:normal;font-family:sans-serif;font-variant-ligatures:normal;font-variant-position:normal;font-variant-caps:normal;font-variant-numeric:normal;font-variant-alternates:normal;font-feature-settings:normal;text-indent:0;text-align:start;text-decoration:none;text-decoration-line:none;text-decoration-style:solid;text-decoration-color:#000000;letter-spacing:normal;word-spacing:normal;text-transform:none;writing-mode:lr-tb;direction:ltr;text-orientation:mixed;dominant-baseline:auto;baseline-shift:baseline;text-anchor:start;white-space:normal;shape-padding:0;clip-rule:nonzero;display:inline;overflow:visible;visibility:visible;opacity:1;isolation:auto;mix-blend-mode:normal;color-interpolation:sRGB;color-interpolation-filters:linearRGB;solid-color:#000000;solid-opacity:1;vector-effect:none;fill:#4b5799;fill-opacity:1;fill-rule:nonzero;stroke:none;stroke-width:2;stroke-linecap:butt;stroke-linejoin:miter;stroke-miterlimit:4;stroke-dasharray:none;stroke-dashoffset:0;stroke-opacity:1;color-rendering:auto;image-rendering:auto;shape-rendering:auto;text-rendering:auto;enable-background:accumulate"
         d="m -62,283.64998 c -0.833333,0 -1.554289,0.54936 -1.894531,1.09375 -0.340243,0.54439 -0.491342,1.08889 -0.666016,1.55469 -0.174673,0.46579 -0.360335,0.83439 -0.552734,1.03515 -0.1924,0.20077 -0.358941,0.31641 -0.886719,0.31641 h -10 c -1.090679,0 -2,0.90931 -2,2 v 18 c 0,1.09069 0.909309,2 2,2 h 28 c 1.090691,0 2,-0.90931 2,-2 v -22 c 0,-1.09069 -0.909321,-2 -2,-2 z"
         id="path1105-46-4"
         inkscape:connector-curvature="0" />
      <path
         sodipodi:nodetypes="ssssssssccs"
         inkscape:connector-curvature="0"
         style="fill:url(#linearGradient1351-5-3);fill-opacity:1;stroke:none;stroke-width:2;stroke-miterlimit:4;stroke-dasharray:none;stroke-opacity:1"
         id="path13-6-3-1-3-0-7-7-9-2-9-7"
         d="m -76,288.64998 c -0.55401,0 -1,0.44598 -1,0.99999 v 18.00001 c 0,0.554 0.44599,0.99999 1,0.99999 h 28.000001 c 0.554009,0 0.999999,-0.44599 0.999999,-0.99999 v -22.00001 c 0,-0.55401 -0.445991,-0.99999 -0.999999,-0.99999 L -62,284.64997 c -2,0 -1,4 -4,4 z" />
      <path
         id="rect11549-7"
         d="m -68,294.64825 c -0.554033,0 -1,0.44594 -1,0.99999 v 8.00001 c 0,0.554 0.445967,0.99999 1,0.99999 h 8 c 0.554033,0 1,-0.44599 1,-0.99999 v -2.58595 l 3.292969,3.29298 c 0.629995,0.62956 1.706681,0.18369 1.707031,-0.70703 v -8.00001 c 1.84e-4,-0.56391 -0.465631,-1.01647 -1.029297,-0.99999 -0.255008,0.008 -0.49746,0.11263 -0.677734,0.29291 L -59,298.23415 v -2.58595 c 0,-0.55404 -0.445967,-0.99999 -1,-0.99999 z"
         style="opacity:1;fill:#4b5799;fill-opacity:1;stroke:none;stroke-width:1.99999988;stroke-linecap:round;stroke-linejoin:round;stroke-miterlimit:4;stroke-dasharray:none;stroke-opacity:1"
         inkscape:connector-curvature="0" />
      <path
         inkscape:connector-curvature="0"
         id="rect11549"
         d="m -68,293.6483 c -0.554033,0 -1,0.44595 -1,0.99999 v 8.00001 c 0,0.554 0.445967,0.99999 1,0.99999 h 7.999999 c 0.554033,0 1.000001,-0.44599 1.000001,-0.99999 v -2.58595 l 3.292968,3.29295 c 0.629995,0.62955 1.706681,0.18368 1.707031,-0.707 v -8.00001 c 1.84e-4,-0.56391 -0.465631,-1.01647 -1.029297,-0.99999 -0.255008,0.008 -0.49746,0.11263 -0.677734,0.29291 L -59,297.2342 v -2.58595 c 0,-0.55404 -0.445968,-0.99999 -1.000001,-0.99999 z"
         style="opacity:1;fill:url(#linearGradient11619);fill-opacity:1;stroke:none;stroke-width:1.99999988;stroke-linecap:round;stroke-linejoin:round;stroke-miterlimit:4;stroke-dasharray:none;stroke-opacity:1" />
    </g>
  </g>
</svg>
