<?xml version="1.0" encoding="UTF-8" standalone="no"?>
<!-- Created with Inkscape (http://www.inkscape.org/) -->

<svg
   xmlns:dc="http://purl.org/dc/elements/1.1/"
   xmlns:cc="http://creativecommons.org/ns#"
   xmlns:rdf="http://www.w3.org/1999/02/22-rdf-syntax-ns#"
   xmlns:svg="http://www.w3.org/2000/svg"
   xmlns="http://www.w3.org/2000/svg"
   xmlns:xlink="http://www.w3.org/1999/xlink"
   xmlns:sodipodi="http://sodipodi.sourceforge.net/DTD/sodipodi-0.dtd"
   xmlns:inkscape="http://www.inkscape.org/namespaces/inkscape"
   width="32"
   height="32"
   viewBox="0 0 32 32"
   version="1.1"
   id="svg8"
   inkscape:version="0.92.4 5da689c313, 2019-01-14"
   sodipodi:docname="folder-torrents-alt32.svg">
  <title
     id="title7895">Antu icon Theme</title>
  <defs
     id="defs2">
    <linearGradient
       gradientTransform="matrix(3.7795275,0,0,3.7795275,-16,283.64994)"
       inkscape:collect="always"
       xlink:href="#linearGradient10239"
       id="linearGradient10241"
       x1="1.8520881"
       y1="2.3812332"
       x2="1.8520881"
       y2="0.79373336"
       gradientUnits="userSpaceOnUse" />
    <linearGradient
       inkscape:collect="always"
       id="linearGradient10239">
      <stop
         style="stop-color:#348be7;stop-opacity:1"
         offset="0"
         id="stop10235" />
      <stop
         style="stop-color:#3997f1;stop-opacity:1"
         offset="1"
         id="stop10237" />
    </linearGradient>
    <style
       id="current-color-scheme"
       type="text/css">
      .ColorScheme-Text {
        color:#122036;
      }
      </style>
    <style
       type="text/css"
       id="current-color-scheme-53">
      .ColorScheme-Text {
        color:#122036;
      }
      </style>
    <style
       id="current-color-scheme-5"
       type="text/css">
      .ColorScheme-Text {
        color:#122036;
      }
      </style>
    <style
       id="current-color-scheme-2"
       type="text/css">
      .ColorScheme-Text {
        color:#122036;
      }
      </style>
    <style
       id="current-color-scheme-1"
       type="text/css">
      .ColorScheme-Text {
        color:#122036;
      }
      </style>
    <style
       type="text/css"
       id="current-color-scheme-10">
      .ColorScheme-Text {
        color:#122036;
      }
      </style>
    <style
       id="current-color-scheme-0"
       type="text/css">
      .ColorScheme-Text {
        color:#122036;
      }
      </style>
    <style
       id="current-color-scheme-26"
       type="text/css">
      .ColorScheme-Text {
        color:#122036;
      }
      </style>
    <style
       id="current-color-scheme-7"
       type="text/css">
      .ColorScheme-Text {
        color:#122036;
      }
      </style>
    <style
       type="text/css"
       id="current-color-scheme-535">
      .ColorScheme-Text {
        color:#122036;
      }
      </style>
    <style
       id="current-color-scheme-53-6"
       type="text/css">
      .ColorScheme-Text {
        color:#122036;
      }
      </style>
    <style
       type="text/css"
       id="current-color-scheme-5-2">
      .ColorScheme-Text {
        color:#122036;
      }
      </style>
    <style
       type="text/css"
       id="current-color-scheme-2-9">
      .ColorScheme-Text {
        color:#122036;
      }
      </style>
    <style
       type="text/css"
       id="current-color-scheme-1-1">
      .ColorScheme-Text {
        color:#122036;
      }
      </style>
    <style
       id="current-color-scheme-10-2"
       type="text/css">
      .ColorScheme-Text {
        color:#122036;
      }
      </style>
    <style
       type="text/css"
       id="current-color-scheme-0-7">
      .ColorScheme-Text {
        color:#122036;
      }
      </style>
    <style
       type="text/css"
       id="current-color-scheme-26-0">
      .ColorScheme-Text {
        color:#122036;
      }
      </style>
    <style
       type="text/css"
       id="current-color-scheme-7-9">
      .ColorScheme-Text {
        color:#122036;
      }
      </style>
    <style
       id="current-color-scheme-5356"
       type="text/css">
      .ColorScheme-Text {
        color:#122036;
      }
      </style>
    <style
       type="text/css"
       id="current-color-scheme-53-2">
      .ColorScheme-Text {
        color:#122036;
      }
      </style>
    <style
       id="current-color-scheme-5-9"
       type="text/css">
      .ColorScheme-Text {
        color:#122036;
      }
      </style>
    <style
       id="current-color-scheme-2-1"
       type="text/css">
      .ColorScheme-Text {
        color:#122036;
      }
      </style>
    <style
       id="current-color-scheme-1-2"
       type="text/css">
      .ColorScheme-Text {
        color:#122036;
      }
      </style>
    <style
       type="text/css"
       id="current-color-scheme-10-7">
      .ColorScheme-Text {
        color:#122036;
      }
      </style>
    <style
       id="current-color-scheme-0-0"
       type="text/css">
      .ColorScheme-Text {
        color:#122036;
      }
      </style>
    <style
       id="current-color-scheme-26-9"
       type="text/css">
      .ColorScheme-Text {
        color:#122036;
      }
      </style>
    <style
       id="current-color-scheme-7-3"
       type="text/css">
      .ColorScheme-Text {
        color:#122036;
      }
      </style>
    <style
       id="current-color-scheme-9"
       type="text/css">
      .ColorScheme-Text {
        color:#122036;
      }
      </style>
    <style
       type="text/css"
       id="current-color-scheme-53-20">
      .ColorScheme-Text {
        color:#122036;
      }
      </style>
    <style
       id="current-color-scheme-5-23"
       type="text/css">
      .ColorScheme-Text {
        color:#122036;
      }
      </style>
    <style
       id="current-color-scheme-2-7"
       type="text/css">
      .ColorScheme-Text {
        color:#122036;
      }
      </style>
    <style
       id="current-color-scheme-1-5"
       type="text/css">
      .ColorScheme-Text {
        color:#122036;
      }
      </style>
    <style
       type="text/css"
       id="current-color-scheme-10-9">
      .ColorScheme-Text {
        color:#122036;
      }
      </style>
    <style
       id="current-color-scheme-0-2"
       type="text/css">
      .ColorScheme-Text {
        color:#122036;
      }
      </style>
    <style
       id="current-color-scheme-26-2"
       type="text/css">
      .ColorScheme-Text {
        color:#122036;
      }
      </style>
    <style
       id="current-color-scheme-7-8"
       type="text/css">
      .ColorScheme-Text {
        color:#122036;
      }
      </style>
    <style
       type="text/css"
       id="current-color-scheme-70">
      .ColorScheme-Text {
        color:#122036;
      }
      </style>
    <style
       id="current-color-scheme-53-9"
       type="text/css">
      .ColorScheme-Text {
        color:#122036;
      }
      </style>
    <style
       type="text/css"
       id="current-color-scheme-5-3">
      .ColorScheme-Text {
        color:#122036;
      }
      </style>
    <style
       type="text/css"
       id="current-color-scheme-2-6">
      .ColorScheme-Text {
        color:#122036;
      }
      </style>
    <style
       type="text/css"
       id="current-color-scheme-1-0">
      .ColorScheme-Text {
        color:#122036;
      }
      </style>
    <style
       id="current-color-scheme-10-6"
       type="text/css">
      .ColorScheme-Text {
        color:#122036;
      }
      </style>
    <style
       type="text/css"
       id="current-color-scheme-0-26">
      .ColorScheme-Text {
        color:#122036;
      }
      </style>
    <style
       type="text/css"
       id="current-color-scheme-26-1">
      .ColorScheme-Text {
        color:#122036;
      }
      </style>
    <style
       type="text/css"
       id="current-color-scheme-7-87">
      .ColorScheme-Text {
        color:#122036;
      }
      </style>
    <linearGradient
       inkscape:collect="always"
       xlink:href="#linearGradient4631-3"
       id="linearGradient1551"
       x1="19.058588"
       y1="26.955078"
       x2="19.058588"
       y2="10.955078"
       gradientUnits="userSpaceOnUse" />
    <style
       type="text/css"
       id="current-color-scheme-53562">
      .ColorScheme-Text {
        color:#122036;
      }
      </style>
    <style
       id="current-color-scheme-53-91"
       type="text/css">
      .ColorScheme-Text {
        color:#122036;
      }
      </style>
    <style
       type="text/css"
       id="current-color-scheme-5-27">
      .ColorScheme-Text {
        color:#122036;
      }
      </style>
    <style
       type="text/css"
       id="current-color-scheme-2-0">
      .ColorScheme-Text {
        color:#122036;
      }
      </style>
    <style
       type="text/css"
       id="current-color-scheme-1-9">
      .ColorScheme-Text {
        color:#122036;
      }
      </style>
    <style
       id="current-color-scheme-10-3"
       type="text/css">
      .ColorScheme-Text {
        color:#122036;
      }
      </style>
    <style
       type="text/css"
       id="current-color-scheme-0-6">
      .ColorScheme-Text {
        color:#122036;
      }
      </style>
    <style
       type="text/css"
       id="current-color-scheme-26-06">
      .ColorScheme-Text {
        color:#122036;
      }
      </style>
    <style
       type="text/css"
       id="current-color-scheme-7-2">
      .ColorScheme-Text {
        color:#122036;
      }
      </style>
    <linearGradient
       inkscape:collect="always"
       id="linearGradient4631-3">
      <stop
         style="stop-color:#c9c8f9;stop-opacity:1"
         offset="0"
         id="stop4627-7" />
      <stop
         style="stop-color:#f5f2ff;stop-opacity:1"
         offset="1"
         id="stop4629-1" />
    </linearGradient>
    <linearGradient
       gradientUnits="userSpaceOnUse"
       y2="263.64999"
       x2="22"
       y1="287.64999"
       x1="22"
       id="linearGradient1351-5-3"
       xlink:href="#linearGradient856"
       inkscape:collect="always"
       gradientTransform="translate(-82,20.99998)" />
    <linearGradient
       id="linearGradient856"
       inkscape:collect="always">
      <stop
         id="stop852"
         offset="0"
         style="stop-color:#6778d9;stop-opacity:1" />
      <stop
         id="stop854"
         offset="1"
         style="stop-color:#8997e5;stop-opacity:1" />
    </linearGradient>
    <linearGradient
       gradientUnits="userSpaceOnUse"
       y2="288.64999"
       x2="8"
       y1="295.64999"
       x1="8"
       id="linearGradient1160-22-0"
       xlink:href="#linearGradient3161"
       inkscape:collect="always"
       gradientTransform="translate(-78,-8.00001)" />
    <linearGradient
       id="linearGradient3161"
       inkscape:collect="always">
      <stop
         id="stop3157"
         offset="0"
         style="stop-color:#5c6bbf;stop-opacity:1" />
      <stop
         id="stop3159"
         offset="1"
         style="stop-color:#6a7ada;stop-opacity:1" />
    </linearGradient>
  </defs>
  <sodipodi:namedview
     id="base"
     pagecolor="#ffffff"
     bordercolor="#666666"
     borderopacity="1.0"
     inkscape:pageopacity="0.0"
     inkscape:pageshadow="2"
     inkscape:zoom="15.839192"
     inkscape:cx="31.323264"
     inkscape:cy="11.44287"
     inkscape:document-units="px"
     inkscape:current-layer="g1781"
     showgrid="true"
     units="px"
     inkscape:window-width="1920"
     inkscape:window-height="1049"
     inkscape:window-x="0"
     inkscape:window-y="0"
     inkscape:window-maximized="1"
     objecttolerance="10"
     gridtolerance="10"
     guidetolerance="10">
    <inkscape:grid
       type="xygrid"
       id="grid7897"
       empspacing="4" />
  </sodipodi:namedview>
  <metadata
     id="metadata5">
    <rdf:RDF>
      <cc:Work
         rdf:about="">
        <dc:format>image/svg+xml</dc:format>
        <dc:type
           rdf:resource="http://purl.org/dc/dcmitype/StillImage" />
        <dc:title>Antu icon Theme</dc:title>
      </cc:Work>
    </rdf:RDF>
  </metadata>
  <g
     inkscape:label="Capa 1"
     inkscape:groupmode="layer"
     id="layer1"
     transform="translate(0,-282.64999)">
    <g
       id="g7212"
       transform="translate(78,4.00001)">
      <path
         sodipodi:nodetypes="ssssssssscccss"
         style="color:#000000;font-style:normal;font-variant:normal;font-weight:normal;font-stretch:normal;font-size:medium;line-height:normal;font-family:sans-serif;font-variant-ligatures:normal;font-variant-position:normal;font-variant-caps:normal;font-variant-numeric:normal;font-variant-alternates:normal;font-feature-settings:normal;text-indent:0;text-align:start;text-decoration:none;text-decoration-line:none;text-decoration-style:solid;text-decoration-color:#000000;letter-spacing:normal;word-spacing:normal;text-transform:none;writing-mode:lr-tb;direction:ltr;text-orientation:mixed;dominant-baseline:auto;baseline-shift:baseline;text-anchor:start;white-space:normal;shape-padding:0;clip-rule:nonzero;display:inline;overflow:visible;visibility:visible;opacity:1;isolation:auto;mix-blend-mode:normal;color-interpolation:sRGB;color-interpolation-filters:linearRGB;solid-color:#000000;solid-opacity:1;vector-effect:none;fill:#3f4980;fill-opacity:1;fill-rule:nonzero;stroke:none;stroke-width:2;stroke-linecap:round;stroke-linejoin:round;stroke-miterlimit:4;stroke-dasharray:none;stroke-dashoffset:0;stroke-opacity:1;color-rendering:auto;image-rendering:auto;shape-rendering:auto;text-rendering:auto;enable-background:accumulate"
         d="m -76,279.64998 c -1.090679,0 -2,0.90931 -2,2 v 26 c 0,1.09069 0.909309,2 2,2 h 28 c 1.090691,0 2,-0.90931 2,-2 v -22 c 0,-1.09069 -0.909321,-2 -2,-2 h -14 c -0.166667,0 -0.219367,-0.025 -0.419922,-0.26563 -0.200555,-0.24067 -0.435547,-0.68163 -0.685547,-1.18164 -0.25,-0.5 -0.515008,-1.05903 -0.939453,-1.56836 -0.424445,-0.50934 -1.121745,-0.98437 -1.955078,-0.98437 z"
         id="path1151-60-1"
         inkscape:connector-curvature="0" />
      <path
         d="m -76,280.64999 c -0.55401,0 -1,0.44598 -1,0.99999 v 26.00001 c 0,0.554 0.44599,0.99999 1,0.99999 h 28.000001 c 0.554009,0 0.999999,-0.44599 0.999999,-0.99999 v -22.00001 c 0,-0.55401 -0.445991,-0.99999 -0.999999,-0.99999 L -62,284.64998 c -2,0 -2,-4 -4,-4 z"
         id="path13-6-3-1-3-0-7-7-43-8"
         style="fill:url(#linearGradient1160-22-0);fill-opacity:1;stroke-width:2;stroke-miterlimit:4;stroke-dasharray:none"
         inkscape:connector-curvature="0"
         sodipodi:nodetypes="ssssssssccs" />
      <path
         sodipodi:nodetypes="scccssssssssss"
         style="color:#000000;font-style:normal;font-variant:normal;font-weight:normal;font-stretch:normal;font-size:medium;line-height:normal;font-family:sans-serif;font-variant-ligatures:normal;font-variant-position:normal;font-variant-caps:normal;font-variant-numeric:normal;font-variant-alternates:normal;font-feature-settings:normal;text-indent:0;text-align:start;text-decoration:none;text-decoration-line:none;text-decoration-style:solid;text-decoration-color:#000000;letter-spacing:normal;word-spacing:normal;text-transform:none;writing-mode:lr-tb;direction:ltr;text-orientation:mixed;dominant-baseline:auto;baseline-shift:baseline;text-anchor:start;white-space:normal;shape-padding:0;clip-rule:nonzero;display:inline;overflow:visible;visibility:visible;opacity:1;isolation:auto;mix-blend-mode:normal;color-interpolation:sRGB;color-interpolation-filters:linearRGB;solid-color:#000000;solid-opacity:1;vector-effect:none;fill:#4b5799;fill-opacity:1;fill-rule:nonzero;stroke:none;stroke-width:2;stroke-linecap:butt;stroke-linejoin:miter;stroke-miterlimit:4;stroke-dasharray:none;stroke-dashoffset:0;stroke-opacity:1;color-rendering:auto;image-rendering:auto;shape-rendering:auto;text-rendering:auto;enable-background:accumulate"
         d="m -62,283.64998 c -0.833333,0 -1.554289,0.54936 -1.894531,1.09375 -0.340243,0.54439 -0.491342,1.08889 -0.666016,1.55469 -0.174673,0.46579 -0.360335,0.83439 -0.552734,1.03515 -0.1924,0.20077 -0.358941,0.31641 -0.886719,0.31641 h -10 c -1.090679,0 -2,0.90931 -2,2 v 18 c 0,1.09069 0.909309,2 2,2 h 28 c 1.090691,0 2,-0.90931 2,-2 v -22 c 0,-1.09069 -0.909321,-2 -2,-2 z"
         id="path1105-46-4"
         inkscape:connector-curvature="0" />
      <path
         sodipodi:nodetypes="ssssssssccs"
         inkscape:connector-curvature="0"
         style="fill:url(#linearGradient1351-5-3);fill-opacity:1;stroke:none;stroke-width:2;stroke-miterlimit:4;stroke-dasharray:none;stroke-opacity:1"
         id="path13-6-3-1-3-0-7-7-9-2-9-7"
         d="m -76,288.64998 c -0.55401,0 -1,0.44598 -1,0.99999 v 18.00001 c 0,0.554 0.44599,0.99999 1,0.99999 h 28.000001 c 0.554009,0 0.999999,-0.44599 0.999999,-0.99999 v -22.00001 c 0,-0.55401 -0.445991,-0.99999 -0.999999,-0.99999 L -62,284.64997 c -2,0 -1,4 -4,4 z" />
    </g>
    <g
       id="g1781"
       transform="translate(-4,24.999995)" />
    <g
       id="layer1-62"
       inkscape:label="Capa 1"
       transform="translate(9.998057,5.00036)">
      <g
         transform="translate(21,-5)"
         id="g2317">
        <g
           transform="translate(-6.056645,5.044562)"
           id="layer1-2"
           inkscape:label="Capa 1">
          <g
             transform="translate(-9.941412,-9.794972)"
             id="g3958">
            <path
               id="path835-6"
               d="m 4.117188,300.30057 a 8,8.0530043 0 0 0 -5.773438,2.35938 8,8.0530043 0 0 0 -1.734375,8.77539 A 8,8.0530043 0 0 0 4,316.40604 v -0.006 h 12 v -1 H 4 a 7,7.0463786 0 0 1 -0.699219,-0.0351 7,7.0463786 0 0 1 -0.691406,-0.10547 7,7.0463786 0 0 1 -0.677734,-0.17383 7,7.0463786 0 0 1 -0.658203,-0.24219 7,7.0463786 0 0 1 -0.628907,-0.30664 7,7.0463786 0 0 1 -0.597656,-0.36719 7,7.0463786 0 0 1 -0.556641,-0.42773 7,7.0463786 0 0 1 -0.511718,-0.47852 7,7.0463786 0 0 1 -0.460938,-0.52929 7,7.0463786 0 0 1 -0.408203,-0.57422 7,7.0463786 0 0 1 -0.347656,-0.61133 7,7.0463786 0 0 1 -0.228516,-0.49805 7,7.0463786 0 0 1 -0.236328,-0.66406 7,7.0463786 0 0 1 -0.167969,-0.68359 7,7.0463786 0 0 1 -0.09961,-0.69727 7,7.0463786 0 0 1 -0.0293,-0.70312 7,7.0463786 0 0 1 0.04102,-0.70313 7,7.0463786 0 0 1 0.109375,-0.69727 7,7.0463786 0 0 1 0.177734,-0.67968 7,7.0463786 0 0 1 0.244141,-0.66016 7,7.0463786 0 0 1 0.308594,-0.63281 7,7.0463786 0 0 1 0.371093,-0.59766 7,7.0463786 0 0 1 0.427735,-0.55664 7,7.0463786 0 0 1 0.371093,-0.4043 7,7.0463786 0 0 1 0.517578,-0.47265 7,7.0463786 0 0 1 0.564453,-0.41797 7,7.0463786 0 0 1 0.601563,-0.35938 7,7.0463786 0 0 1 0.634766,-0.29687 7,7.0463786 0 0 1 0.660156,-0.23242 7,7.0463786 0 0 1 0.679687,-0.16406 7,7.0463786 0 0 1 0.69336,-0.0957 7,7.0463786 0 0 1 0.699218,-0.0234 7,7.0463786 0 0 1 0.699219,0.0449 7,7.0463786 0 0 1 0.689453,0.11523 7,7.0463786 0 0 1 0.675782,0.18359 7,7.0463786 0 0 1 0.513672,0.19141 7,7.0463786 0 0 1 0.630859,0.30078 7,7.0463786 0 0 1 0.599609,0.36524 7,7.0463786 0 0 1 0.560547,0.42187 7,7.0463786 0 0 1 0.515625,0.47656 7,7.0463786 0 0 1 0.464844,0.52539 7,7.0463786 0 0 1 0.412109,0.57032 7,7.0463786 0 0 1 0.351563,0.60742 7,7.0463786 0 0 1 0.291015,0.64062 7,7.0463786 0 0 1 0.22461,0.66797 7,7.0463786 0 0 1 0.158203,0.68555 7,7.0463786 0 0 1 0.08984,0.69922 7,7.0463786 0 0 1 0.02149,0.54883 h 1 A 8,8.0530043 0 0 0 7.060547,300.91378 8,8.0530043 0 0 0 4.117188,300.3005 Z m -0.0293,2.02735 a 6,6.039753 0 0 0 -4.330076,1.76757 6,6.039753 0 0 0 -1.300781,6.58204 A 6,6.039753 0 0 0 4,314.40604 v -0.006 h 12 v -1 H 4 a 5,5.0331273 0 0 1 -0.5,-0.0254 5,5.0331273 0 0 1 -0.494141,-0.0742 5,5.0331273 0 0 1 -0.484375,-0.125 5,5.0331273 0 0 1 -0.46875,-0.17187 5,5.0331273 0 0 1 -0.449218,-0.22071 5,5.0331273 0 0 1 -0.425782,-0.26172 5,5.0331273 0 0 1 -0.398437,-0.30468 5,5.0331273 0 0 1 -0.365235,-0.34375 5,5.0331273 0 0 1 -0.330078,-0.37696 5,5.0331273 0 0 1 -0.291015,-0.41015 5,5.0331273 0 0 1 -0.248047,-0.43555 5,5.0331273 0 0 1 -0.164063,-0.35742 5,5.0331273 0 0 1 -0.167968,-0.47266 5,5.0331273 0 0 1 -0.121094,-0.48828 5,5.0331273 0 0 1 -0.07031,-0.49805 5,5.0331273 0 0 1 -0.02148,-0.5039 5,5.0331273 0 0 1 0.0293,-0.50196 5,5.0331273 0 0 1 0.07813,-0.49609 5,5.0331273 0 0 1 0.126953,-0.48633 5,5.0331273 0 0 1 0.173828,-0.47265 5,5.0331273 0 0 1 0.220703,-0.45118 5,5.0331273 0 0 1 0.265625,-0.42773 5,5.0331273 0 0 1 0.304688,-0.39648 5,5.0331273 0 0 1 0.265625,-0.28907 5,5.0331273 0 0 1 0.371094,-0.33789 5,5.0331273 0 0 1 0.402343,-0.29883 5,5.0331273 0 0 1 0.429688,-0.25585 5,5.0331273 0 0 1 0.453125,-0.2129 5,5.0331273 0 0 1 0.470703,-0.16601 5,5.0331273 0 0 1 0.486328,-0.11719 5,5.0331273 0 0 1 0.496094,-0.0684 5,5.0331273 0 0 1 0.498047,-0.0176 5,5.0331273 0 0 1 0.5,0.0332 5,5.0331273 0 0 1 0.492187,0.082 5,5.0331273 0 0 1 0.482422,0.13281 5,5.0331273 0 0 1 0.367187,0.13477 5,5.0331273 0 0 1 0.451172,0.2168 5,5.0331273 0 0 1 0.427735,0.25976 5,5.0331273 0 0 1 0.40039,0.30078 5,5.0331273 0 0 1 0.367188,0.33985 5,5.0331273 0 0 1 0.333984,0.375 5,5.0331273 0 0 1 0.292969,0.4082 5,5.0331273 0 0 1 0.251953,0.43359 5,5.0331273 0 0 1 0.207031,0.45899 5,5.0331273 0 0 1 0.16211,0.47656 5,5.0331273 0 0 1 0.113281,0.48828 5,5.0331273 0 0 1 0.0625,0.5 5,5.0331273 0 0 1 0.01562,0.39259 h 1 a 6,6.039753 0 0 0 -3.703128,-5.58004 6,6.039753 0 0 0 -2.208984,-0.45898 z m -0.0293,2.02734 A 4,4.0265021 0 0 0 1.171875,305.53299 4,4.0265021 0 0 0 0.304688,309.92167 4,4.0265021 0 0 0 4,312.40799 v -0.008 h 12 v -1 H 4 a 3,3.0198765 0 0 1 -0.298828,-0.0156 3,3.0198765 0 0 1 -0.296875,-0.0449 3,3.0198765 0 0 1 -0.291016,-0.0742 3,3.0198765 0 0 1 -0.28125,-0.10351 3,3.0198765 0 0 1 -0.269531,-0.13086 3,3.0198765 0 0 1 -0.255859,-0.1582 3,3.0198765 0 0 1 -0.240235,-0.18164 3,3.0198765 0 0 1 -0.21875,-0.20704 3,3.0198765 0 0 1 -0.197265,-0.22656 3,3.0198765 0 0 1 -0.173829,-0.24609 3,3.0198765 0 0 1 -0.15039,-0.26172 3,3.0198765 0 0 1 -0.09766,-0.21289 3,3.0198765 0 0 1 -0.101563,-0.28516 3,3.0198765 0 0 1 -0.07226,-0.29297 3,3.0198765 0 0 1 -0.04102,-0.29882 A 3,3.0198765 0 0 1 1,308.35905 a 3,3.0198765 0 0 1 0.01758,-0.30274 3,3.0198765 0 0 1 0.04687,-0.29687 3,3.0198765 0 0 1 0.07617,-0.29297 3,3.0198765 0 0 1 0.105469,-0.28125 3,3.0198765 0 0 1 0.130859,-0.27148 3,3.0198765 0 0 1 0.160156,-0.25586 3,3.0198765 0 0 1 0.181641,-0.24024 3,3.0198765 0 0 1 0.160156,-0.17187 3,3.0198765 0 0 1 0.222656,-0.20313 3,3.0198765 0 0 1 0.240235,-0.17969 3,3.0198765 0 0 1 0.257812,-0.15429 3,3.0198765 0 0 1 0.273438,-0.12696 3,3.0198765 0 0 1 0.283203,-0.0996 3,3.0198765 0 0 1 0.291016,-0.0703 3,3.0198765 0 0 1 0.296875,-0.041 3,3.0198765 0 0 1 0.298828,-0.01 3,3.0198765 0 0 1 0.300781,0.0195 3,3.0198765 0 0 1 0.294922,0.0488 3,3.0198765 0 0 1 0.289062,0.0801 3,3.0198765 0 0 1 0.220704,0.082 3,3.0198765 0 0 1 0.271484,0.12891 3,3.0198765 0 0 1 0.255859,0.15625 3,3.0198765 0 0 1 0.240235,0.17969 3,3.0198765 0 0 1 0.220703,0.20508 3,3.0198765 0 0 1 0.199219,0.22461 3,3.0198765 0 0 1 0.175781,0.24414 3,3.0198765 0 0 1 0.152343,0.26172 3,3.0198765 0 0 1 0.125,0.27343 3,3.0198765 0 0 1 0.0957,0.28711 3,3.0198765 0 0 1 0.06836,0.29297 3,3.0198765 0 0 1 0.03711,0.29883 3,3.0198765 0 0 1 0.0098,0.23636 h 1 A 4,4.0265021 0 0 0 5.53125,304.65959 4,4.0265021 0 0 0 4.058594,304.3549 Z"
               style="opacity:1;vector-effect:none;fill:#4b5799;fill-opacity:1;stroke:none;stroke-width:2.01527119;stroke-linecap:round;stroke-linejoin:round;stroke-miterlimit:4;stroke-dasharray:none;stroke-dashoffset:0;stroke-opacity:1;paint-order:normal"
               inkscape:connector-curvature="0" />
            <path
               id="path835"
               transform="translate(-12,288.39999)"
               d="M 16.117188,10.900391 A 8,8.0530043 0 0 0 10.34375,13.259766 8,8.0530043 0 0 0 8.609375,22.035156 8,8.0530043 0 0 0 16,27.005859 V 27 H 28 V 26 H 16 A 7,7.0463786 0 0 1 15.300781,25.964844 7,7.0463786 0 0 1 14.609375,25.859375 7,7.0463786 0 0 1 13.931641,25.685547 7,7.0463786 0 0 1 13.273438,25.443359 7,7.0463786 0 0 1 12.644531,25.136719 7,7.0463786 0 0 1 12.046875,24.769531 7,7.0463786 0 0 1 11.490234,24.341797 7,7.0463786 0 0 1 10.978516,23.863281 7,7.0463786 0 0 1 10.517578,23.333984 7,7.0463786 0 0 1 10.109375,22.759766 7,7.0463786 0 0 1 9.7617188,22.148438 7,7.0463786 0 0 1 9.5332031,21.650391 7,7.0463786 0 0 1 9.296875,20.986328 7,7.0463786 0 0 1 9.1289062,20.302734 7,7.0463786 0 0 1 9.0292969,19.605469 7,7.0463786 0 0 1 9,18.902344 7,7.0463786 0 0 1 9.0410156,18.199219 7,7.0463786 0 0 1 9.1503906,17.501953 7,7.0463786 0 0 1 9.328125,16.822266 7,7.0463786 0 0 1 9.5722656,16.162109 7,7.0463786 0 0 1 9.8808594,15.529297 7,7.0463786 0 0 1 10.251953,14.931641 7,7.0463786 0 0 1 10.679688,14.375 a 7,7.0463786 0 0 1 0.371093,-0.404297 7,7.0463786 0 0 1 0.517578,-0.472656 7,7.0463786 0 0 1 0.564453,-0.417969 7,7.0463786 0 0 1 0.601563,-0.359375 7,7.0463786 0 0 1 0.634766,-0.296875 7,7.0463786 0 0 1 0.660156,-0.232422 7,7.0463786 0 0 1 0.679687,-0.164062 7,7.0463786 0 0 1 0.69336,-0.0957 7,7.0463786 0 0 1 0.699218,-0.02344 7,7.0463786 0 0 1 0.699219,0.04492 7,7.0463786 0 0 1 0.689453,0.115234 7,7.0463786 0 0 1 0.675782,0.183594 7,7.0463786 0 0 1 0.513672,0.191406 7,7.0463786 0 0 1 0.630859,0.300782 7,7.0463786 0 0 1 0.599609,0.365234 7,7.0463786 0 0 1 0.560547,0.421875 7,7.0463786 0 0 1 0.515625,0.476562 7,7.0463786 0 0 1 0.464844,0.525391 7,7.0463786 0 0 1 0.412109,0.570313 7,7.0463786 0 0 1 0.351563,0.607422 7,7.0463786 0 0 1 0.291015,0.640624 7,7.0463786 0 0 1 0.22461,0.667969 7,7.0463786 0 0 1 0.158203,0.685547 7,7.0463786 0 0 1 0.08984,0.699219 A 7,7.0463786 0 0 1 23,18.953125 h 1 a 8,8.0530043 0 0 0 -4.939453,-7.439453 8,8.0530043 0 0 0 -2.943359,-0.613281 z m -0.0293,2.027343 A 6,6.039753 0 0 0 11.757812,14.695312 6,6.039753 0 0 0 10.457031,21.277344 6,6.039753 0 0 0 16,25.005859 V 25 H 28 V 24 H 16 a 5,5.0331273 0 0 1 -0.5,-0.02539 5,5.0331273 0 0 1 -0.494141,-0.07422 5,5.0331273 0 0 1 -0.484375,-0.125 5,5.0331273 0 0 1 -0.46875,-0.171875 5,5.0331273 0 0 1 -0.449218,-0.220704 5,5.0331273 0 0 1 -0.425782,-0.261718 5,5.0331273 0 0 1 -0.398437,-0.304688 5,5.0331273 0 0 1 -0.365235,-0.34375 A 5,5.0331273 0 0 1 12.083984,22.095703 5,5.0331273 0 0 1 11.792969,21.685547 5,5.0331273 0 0 1 11.544922,21.25 5,5.0331273 0 0 1 11.380859,20.892578 5,5.0331273 0 0 1 11.212891,20.419922 5,5.0331273 0 0 1 11.091797,19.931641 5,5.0331273 0 0 1 11.021484,19.433594 5,5.0331273 0 0 1 11,18.929688 a 5,5.0331273 0 0 1 0.0293,-0.501954 5,5.0331273 0 0 1 0.07813,-0.496093 5,5.0331273 0 0 1 0.126953,-0.486329 5,5.0331273 0 0 1 0.173828,-0.472656 5,5.0331273 0 0 1 0.220703,-0.451172 5,5.0331273 0 0 1 0.265625,-0.427734 5,5.0331273 0 0 1 0.304688,-0.396484 5,5.0331273 0 0 1 0.265625,-0.289063 5,5.0331273 0 0 1 0.371094,-0.337891 5,5.0331273 0 0 1 0.402343,-0.298828 5,5.0331273 0 0 1 0.429688,-0.255859 5,5.0331273 0 0 1 0.453125,-0.212891 5,5.0331273 0 0 1 0.470703,-0.166015 5,5.0331273 0 0 1 0.486328,-0.117188 5,5.0331273 0 0 1 0.496094,-0.06836 5,5.0331273 0 0 1 0.498047,-0.01758 5,5.0331273 0 0 1 0.5,0.0332 5,5.0331273 0 0 1 0.492187,0.08203 5,5.0331273 0 0 1 0.482422,0.132813 5,5.0331273 0 0 1 0.367187,0.134765 5,5.0331273 0 0 1 0.451172,0.216797 5,5.0331273 0 0 1 0.427735,0.259766 5,5.0331273 0 0 1 0.40039,0.300781 5,5.0331273 0 0 1 0.367188,0.339844 5,5.0331273 0 0 1 0.333984,0.375 5,5.0331273 0 0 1 0.292969,0.408203 5,5.0331273 0 0 1 0.251953,0.433594 5,5.0331273 0 0 1 0.207031,0.458984 5,5.0331273 0 0 1 0.16211,0.476563 5,5.0331273 0 0 1 0.113281,0.488281 5,5.0331273 0 0 1 0.0625,0.5 A 5,5.0331273 0 0 1 21,18.966797 h 1 a 6,6.039753 0 0 0 -3.703125,-5.580078 6,6.039753 0 0 0 -2.208984,-0.458985 z m -0.0293,2.027344 A 4,4.0265021 0 0 0 13.171875,16.132812 4,4.0265021 0 0 0 12.304688,20.521484 4,4.0265021 0 0 0 16,23.007812 V 23 H 28 V 22 H 16 a 3,3.0198765 0 0 1 -0.298828,-0.01563 3,3.0198765 0 0 1 -0.296875,-0.04492 3,3.0198765 0 0 1 -0.291016,-0.07422 3,3.0198765 0 0 1 -0.28125,-0.103515 3,3.0198765 0 0 1 -0.269531,-0.13086 3,3.0198765 0 0 1 -0.255859,-0.158203 3,3.0198765 0 0 1 -0.240235,-0.18164 3,3.0198765 0 0 1 -0.21875,-0.207032 3,3.0198765 0 0 1 -0.197265,-0.226562 3,3.0198765 0 0 1 -0.173829,-0.246094 3,3.0198765 0 0 1 -0.15039,-0.261719 3,3.0198765 0 0 1 -0.09766,-0.21289 3,3.0198765 0 0 1 -0.101563,-0.285157 3,3.0198765 0 0 1 -0.07226,-0.292968 3,3.0198765 0 0 1 -0.04102,-0.298828 A 3,3.0198765 0 0 1 13,18.958984 a 3,3.0198765 0 0 1 0.01758,-0.302734 3,3.0198765 0 0 1 0.04687,-0.296875 3,3.0198765 0 0 1 0.07617,-0.292969 3,3.0198765 0 0 1 0.105469,-0.28125 3,3.0198765 0 0 1 0.130859,-0.271484 3,3.0198765 0 0 1 0.160156,-0.25586 3,3.0198765 0 0 1 0.181641,-0.240234 3,3.0198765 0 0 1 0.160156,-0.171875 3,3.0198765 0 0 1 0.222656,-0.203125 3,3.0198765 0 0 1 0.240235,-0.179687 3,3.0198765 0 0 1 0.257812,-0.154297 3,3.0198765 0 0 1 0.273438,-0.126953 3,3.0198765 0 0 1 0.283203,-0.09961 3,3.0198765 0 0 1 0.291016,-0.07031 3,3.0198765 0 0 1 0.296875,-0.04102 3,3.0198765 0 0 1 0.298828,-0.0098 3,3.0198765 0 0 1 0.300781,0.01953 3,3.0198765 0 0 1 0.294922,0.04883 3,3.0198765 0 0 1 0.289062,0.08008 3,3.0198765 0 0 1 0.220704,0.08203 3,3.0198765 0 0 1 0.271484,0.128906 3,3.0198765 0 0 1 0.255859,0.15625 3,3.0198765 0 0 1 0.240235,0.179688 3,3.0198765 0 0 1 0.220703,0.205078 3,3.0198765 0 0 1 0.199219,0.22461 3,3.0198765 0 0 1 0.175781,0.24414 3,3.0198765 0 0 1 0.152343,0.261719 3,3.0198765 0 0 1 0.125,0.273437 3,3.0198765 0 0 1 0.0957,0.28711 3,3.0198765 0 0 1 0.06836,0.292968 3,3.0198765 0 0 1 0.03711,0.298829 A 3,3.0198765 0 0 1 19,18.980469 h 1 a 4,4.0265021 0 0 0 -2.46875,-3.720703 4,4.0265021 0 0 0 -1.472656,-0.304688 z"
               style="opacity:1;vector-effect:none;fill:url(#linearGradient1551);fill-opacity:1.0;stroke:none;stroke-width:2.01527119;stroke-linecap:round;stroke-linejoin:round;stroke-miterlimit:4;stroke-dasharray:none;stroke-dashoffset:0;stroke-opacity:1;paint-order:normal"
               inkscape:connector-curvature="0" />
          </g>
        </g>
      </g>
    </g>
  </g>
</svg>
