<?xml version="1.0" encoding="UTF-8" standalone="no"?>
<!-- Created with Inkscape (http://www.inkscape.org/) -->

<svg
   xmlns:dc="http://purl.org/dc/elements/1.1/"
   xmlns:cc="http://creativecommons.org/ns#"
   xmlns:rdf="http://www.w3.org/1999/02/22-rdf-syntax-ns#"
   xmlns:svg="http://www.w3.org/2000/svg"
   xmlns="http://www.w3.org/2000/svg"
   xmlns:xlink="http://www.w3.org/1999/xlink"
   xmlns:sodipodi="http://sodipodi.sourceforge.net/DTD/sodipodi-0.dtd"
   xmlns:inkscape="http://www.inkscape.org/namespaces/inkscape"
   width="32"
   height="32"
   viewBox="0 0 32 32"
   version="1.1"
   id="svg8"
   inkscape:version="0.92.2 2405546, 2018-03-11"
   sodipodi:docname="alt-favorites.svg">
  <title
     id="title7895">Antu icon Theme</title>
  <defs
     id="defs2">
    <linearGradient
       gradientTransform="matrix(0.6,0,0,0.6,-100.17174,118.12726)"
       gradientUnits="userSpaceOnUse"
       y2="299.8302"
       x2="93.619507"
       y1="314.8302"
       x1="93.619507"
       id="linearGradient940-97"
       xlink:href="#linearGradient4631"
       inkscape:collect="always" />
    <linearGradient
       id="linearGradient4631"
       inkscape:collect="always">
      <stop
         id="stop4627"
         offset="0"
         style="stop-color:#f2c2ca;stop-opacity:1" />
      <stop
         id="stop4629"
         offset="1"
         style="stop-color:#ffffff;stop-opacity:1" />
    </linearGradient>
    <linearGradient
       gradientTransform="translate(-64,24.99998)"
       inkscape:collect="always"
       xlink:href="#linearGradient1474"
       id="linearGradient1351-0"
       x1="22"
       y1="287.64999"
       x2="22"
       y2="263.64999"
       gradientUnits="userSpaceOnUse" />
    <linearGradient
       inkscape:collect="always"
       id="linearGradient1474">
      <stop
         style="stop-color:#ec4e4e;stop-opacity:1"
         offset="0"
         id="stop1470" />
      <stop
         style="stop-color:#fb6565;stop-opacity:1"
         offset="1"
         id="stop1472" />
    </linearGradient>
    <linearGradient
       gradientTransform="translate(-60,-4.00001)"
       inkscape:collect="always"
       xlink:href="#linearGradient3047"
       id="linearGradient1160-33"
       x1="8"
       y1="295.64999"
       x2="8"
       y2="288.64999"
       gradientUnits="userSpaceOnUse" />
    <linearGradient
       id="linearGradient3047"
       inkscape:collect="always">
      <stop
         id="stop3043"
         offset="0"
         style="stop-color:#dd4a4a;stop-opacity:1" />
      <stop
         id="stop3045"
         offset="1"
         style="stop-color:#ec4f4f;stop-opacity:1" />
    </linearGradient>
  </defs>
  <sodipodi:namedview
     id="base"
     pagecolor="#ffffff"
     bordercolor="#666666"
     borderopacity="1.0"
     inkscape:pageopacity="0.0"
     inkscape:pageshadow="2"
     inkscape:zoom="15.839192"
     inkscape:cx="10.951742"
     inkscape:cy="21.511177"
     inkscape:document-units="px"
     inkscape:current-layer="layer1"
     showgrid="true"
     units="px"
     inkscape:window-width="1360"
     inkscape:window-height="711"
     inkscape:window-x="0"
     inkscape:window-y="28"
     inkscape:window-maximized="1"
     objecttolerance="10"
     gridtolerance="10"
     guidetolerance="10"
     inkscape:snap-bbox="true"
     inkscape:bbox-paths="true"
     inkscape:bbox-nodes="true"
     inkscape:snap-bbox-edge-midpoints="true"
     inkscape:snap-bbox-midpoints="true"
     inkscape:object-paths="true"
     inkscape:snap-intersection-paths="true">
    <inkscape:grid
       type="xygrid"
       id="grid7897"
       empspacing="4" />
  </sodipodi:namedview>
  <metadata
     id="metadata5">
    <rdf:RDF>
      <cc:Work
         rdf:about="">
        <dc:format>image/svg+xml</dc:format>
        <dc:type
           rdf:resource="http://purl.org/dc/dcmitype/StillImage" />
        <dc:title>Antu icon Theme</dc:title>
      </cc:Work>
    </rdf:RDF>
  </metadata>
  <g
     inkscape:label="Capa 1"
     inkscape:groupmode="layer"
     id="layer1"
     transform="translate(0,-282.64999)">
    <g
       id="g5235"
       transform="translate(60,10e-6)">
      <path
         sodipodi:nodetypes="ssssssssscccss"
         style="color:#000000;font-style:normal;font-variant:normal;font-weight:normal;font-stretch:normal;font-size:medium;line-height:normal;font-family:sans-serif;font-variant-ligatures:normal;font-variant-position:normal;font-variant-caps:normal;font-variant-numeric:normal;font-variant-alternates:normal;font-feature-settings:normal;text-indent:0;text-align:start;text-decoration:none;text-decoration-line:none;text-decoration-style:solid;text-decoration-color:#000000;letter-spacing:normal;word-spacing:normal;text-transform:none;writing-mode:lr-tb;direction:ltr;text-orientation:mixed;dominant-baseline:auto;baseline-shift:baseline;text-anchor:start;white-space:normal;shape-padding:0;clip-rule:nonzero;display:inline;overflow:visible;visibility:visible;opacity:1;isolation:auto;mix-blend-mode:normal;color-interpolation:sRGB;color-interpolation-filters:linearRGB;solid-color:#000000;solid-opacity:1;vector-effect:none;fill:#993434;fill-opacity:1;fill-rule:nonzero;stroke:none;stroke-width:2;stroke-linecap:round;stroke-linejoin:round;stroke-miterlimit:4;stroke-dasharray:none;stroke-dashoffset:0;stroke-opacity:1;color-rendering:auto;image-rendering:auto;shape-rendering:auto;text-rendering:auto;enable-background:accumulate"
         d="m -58,283.64998 c -1.090679,0 -2,0.90931 -2,2 v 26 c 0,1.09069 0.909309,2 2,2 h 28 c 1.090691,0 2,-0.90931 2,-2 v -22 c 0,-1.09069 -0.909321,-2 -2,-2 h -14 c -0.166667,0 -0.219367,-0.025 -0.419922,-0.26563 -0.200555,-0.24067 -0.435547,-0.68163 -0.685547,-1.18164 -0.25,-0.5 -0.515008,-1.05903 -0.939453,-1.56836 -0.424445,-0.50934 -1.121745,-0.98437 -1.955078,-0.98437 z"
         id="path1151-94"
         inkscape:connector-curvature="0" />
      <path
         d="m -58,284.64999 c -0.55401,0 -1,0.44598 -1,0.99999 v 26.00001 c 0,0.554 0.44599,0.99999 1,0.99999 h 28.000001 c 0.554009,0 0.999999,-0.44599 0.999999,-0.99999 v -22.00001 c 0,-0.55401 -0.445991,-0.99999 -0.999999,-0.99999 L -44,288.64998 c -2,0 -2,-4 -4,-4 z"
         id="path13-6-3-1-3-0-7-7-2"
         style="fill:url(#linearGradient1160-33);fill-opacity:1;stroke-width:2;stroke-miterlimit:4;stroke-dasharray:none"
         inkscape:connector-curvature="0"
         sodipodi:nodetypes="ssssssssccs" />
      <path
         sodipodi:nodetypes="scccssssssssss"
         style="color:#000000;font-style:normal;font-variant:normal;font-weight:normal;font-stretch:normal;font-size:medium;line-height:normal;font-family:sans-serif;font-variant-ligatures:normal;font-variant-position:normal;font-variant-caps:normal;font-variant-numeric:normal;font-variant-alternates:normal;font-feature-settings:normal;text-indent:0;text-align:start;text-decoration:none;text-decoration-line:none;text-decoration-style:solid;text-decoration-color:#000000;letter-spacing:normal;word-spacing:normal;text-transform:none;writing-mode:lr-tb;direction:ltr;text-orientation:mixed;dominant-baseline:auto;baseline-shift:baseline;text-anchor:start;white-space:normal;shape-padding:0;clip-rule:nonzero;display:inline;overflow:visible;visibility:visible;opacity:1;isolation:auto;mix-blend-mode:normal;color-interpolation:sRGB;color-interpolation-filters:linearRGB;solid-color:#000000;solid-opacity:1;vector-effect:none;fill:#b24444;fill-opacity:1;fill-rule:nonzero;stroke:none;stroke-width:2;stroke-linecap:butt;stroke-linejoin:miter;stroke-miterlimit:4;stroke-dasharray:none;stroke-dashoffset:0;stroke-opacity:1;color-rendering:auto;image-rendering:auto;shape-rendering:auto;text-rendering:auto;enable-background:accumulate"
         d="m -44,287.64998 c -0.833333,0 -1.554289,0.54936 -1.894531,1.09375 -0.340243,0.54439 -0.491342,1.08889 -0.666016,1.55469 -0.174673,0.46579 -0.360335,0.83439 -0.552734,1.03515 -0.1924,0.20077 -0.358941,0.31641 -0.886719,0.31641 h -10 c -1.090679,0 -2,0.90931 -2,2 v 18 c 0,1.09069 0.909309,2 2,2 h 28 c 1.090691,0 2,-0.90931 2,-2 v -22 c 0,-1.09069 -0.909321,-2 -2,-2 z"
         id="path1105-1"
         inkscape:connector-curvature="0" />
      <path
         sodipodi:nodetypes="ssssssssccs"
         inkscape:connector-curvature="0"
         style="fill:url(#linearGradient1351-0);fill-opacity:1;stroke:none;stroke-width:2;stroke-miterlimit:4;stroke-dasharray:none;stroke-opacity:1"
         id="path13-6-3-1-3-0-7-7-9-2-28"
         d="m -58,292.64998 c -0.55401,0 -1,0.44598 -1,0.99999 v 18.00001 c 0,0.554 0.44599,0.99999 1,0.99999 h 28.000001 c 0.554009,0 0.999999,-0.44599 0.999999,-0.99999 v -22.00001 c 0,-0.55401 -0.445991,-0.99999 -0.999999,-0.99999 L -44,288.64997 c -2,0 -1,4 -4,4 z" />
      <path
         style="opacity:0.97000002;vector-effect:none;fill:#b24444;fill-opacity:1;stroke:none;stroke-width:2;stroke-linecap:round;stroke-linejoin:round;stroke-miterlimit:4;stroke-dasharray:none;stroke-dashoffset:0;stroke-opacity:1"
         d="m -47.000001,296.65017 c -2.150412,0 -3.879138,1.68415 -3.980469,3.80859 -0.01265,0.063 -0.01919,0.12712 -0.01953,0.19141 0,2.05556 1.453921,3.86273 2.886719,5.42578 1.432797,1.56305 3.024102,2.8991 3.40625,3.28125 0.39053,0.39037 1.023532,0.39037 1.414062,0 0.382148,-0.38215 1.973453,-1.7182 3.406246,-3.28125 1.432799,-1.56305 2.886719,-3.37022 2.886719,-5.42578 1.68e-4,-0.0669 -0.0064,-0.13363 -0.01956,-0.19922 v -0.002 c -0.106224,-2.11975 -1.833372,-3.79878 -3.980466,-3.79878 -1.204344,0 -2.267883,0.53816 -3,1.375 -0.732118,-0.83684 -1.795656,-1.375 -3,-1.375 z"
         id="rect880-7-6"
         inkscape:connector-curvature="0"
         sodipodi:nodetypes="scccccccccscs" />
      <path
         style="opacity:0.97000002;vector-effect:none;fill:url(#linearGradient940-97);fill-opacity:1;stroke:none;stroke-width:2;stroke-linecap:round;stroke-linejoin:round;stroke-miterlimit:4;stroke-dasharray:none;stroke-dashoffset:0;stroke-opacity:1"
         d="m -47.000001,295.65017 c -2.150412,0 -3.879138,1.68415 -3.980469,3.80859 -0.01265,0.063 -0.01919,0.12712 -0.01953,0.19141 0,2.05556 1.453921,3.86273 2.886719,5.42578 1.432797,1.56305 3.024102,2.8991 3.40625,3.28125 0.39053,0.39037 1.023532,0.39037 1.414062,0 0.382148,-0.38215 1.973453,-1.7182 3.406246,-3.28125 1.432799,-1.56305 2.886719,-3.37022 2.886719,-5.42578 1.68e-4,-0.0669 -0.0064,-0.13363 -0.01956,-0.19922 v -0.002 c -0.106224,-2.11975 -1.833372,-3.79878 -3.980466,-3.79878 -1.204344,0 -2.267883,0.53816 -3,1.375 -0.732118,-0.83684 -1.795656,-1.375 -3,-1.375 z"
         id="rect880-7"
         inkscape:connector-curvature="0"
         sodipodi:nodetypes="scccccccccscs" />
    </g>
  </g>
</svg>
