<?xml version="1.0" encoding="UTF-8" standalone="no"?>
<!-- Created with Inkscape (http://www.inkscape.org/) -->

<svg
   xmlns:dc="http://purl.org/dc/elements/1.1/"
   xmlns:cc="http://creativecommons.org/ns#"
   xmlns:rdf="http://www.w3.org/1999/02/22-rdf-syntax-ns#"
   xmlns:svg="http://www.w3.org/2000/svg"
   xmlns="http://www.w3.org/2000/svg"
   xmlns:xlink="http://www.w3.org/1999/xlink"
   xmlns:sodipodi="http://sodipodi.sourceforge.net/DTD/sodipodi-0.dtd"
   xmlns:inkscape="http://www.inkscape.org/namespaces/inkscape"
   width="32"
   height="32"
   viewBox="0 0 32 32"
   version="1.1"
   id="svg8"
   inkscape:version="0.92.2 2405546, 2018-03-11"
   sodipodi:docname="alt-documents.svg">
  <title
     id="title7895">Antu icon Theme</title>
  <defs
     id="defs2">
    <linearGradient
       gradientUnits="userSpaceOnUse"
       y2="293.93365"
       x2="5.4570312"
       y1="295.78574"
       x1="5.4570312"
       id="linearGradient6079"
       xlink:href="#linearGradient4631-5"
       inkscape:collect="always"
       gradientTransform="matrix(3.7795275,0,0,3.7795275,-52.625,-808.38765)" />
    <linearGradient
       id="linearGradient4631-5"
       inkscape:collect="always">
      <stop
         id="stop4627-78"
         offset="0"
         style="stop-color:#f2e9c2;stop-opacity:1" />
      <stop
         id="stop4629-5"
         offset="1"
         style="stop-color:#fffff2;stop-opacity:1" />
    </linearGradient>
    <linearGradient
       gradientTransform="translate(-52,26.892857)"
       inkscape:collect="always"
       xlink:href="#linearGradient1536"
       id="linearGradient1819"
       gradientUnits="userSpaceOnUse"
       x1="22"
       y1="287.64999"
       x2="22"
       y2="263.64999" />
    <linearGradient
       inkscape:collect="always"
       id="linearGradient1536">
      <stop
         style="stop-color:#f09d37;stop-opacity:1"
         offset="0"
         id="stop1532" />
      <stop
         style="stop-color:#f9b956;stop-opacity:1"
         offset="1"
         id="stop1534" />
    </linearGradient>
    <linearGradient
       gradientTransform="translate(-48,-2.1071429)"
       inkscape:collect="always"
       xlink:href="#linearGradient3571"
       id="linearGradient1817"
       gradientUnits="userSpaceOnUse"
       x1="8"
       y1="295.64999"
       x2="8"
       y2="288.64999" />
    <linearGradient
       inkscape:collect="always"
       id="linearGradient3571">
      <stop
         style="stop-color:#d98e33;stop-opacity:1"
         offset="0"
         id="stop3567" />
      <stop
         style="stop-color:#f19f39;stop-opacity:1"
         offset="1"
         id="stop3569" />
    </linearGradient>
  </defs>
  <sodipodi:namedview
     id="base"
     pagecolor="#ffffff"
     bordercolor="#666666"
     borderopacity="1.0"
     inkscape:pageopacity="0.0"
     inkscape:pageshadow="2"
     inkscape:zoom="5.6"
     inkscape:cx="-40.017497"
     inkscape:cy="15.856699"
     inkscape:document-units="px"
     inkscape:current-layer="layer1"
     showgrid="true"
     units="px"
     inkscape:window-width="1360"
     inkscape:window-height="711"
     inkscape:window-x="0"
     inkscape:window-y="28"
     inkscape:window-maximized="1"
     objecttolerance="10"
     gridtolerance="10"
     guidetolerance="10"
     inkscape:snap-bbox="true"
     inkscape:bbox-paths="true"
     inkscape:bbox-nodes="true"
     inkscape:snap-bbox-edge-midpoints="true"
     inkscape:snap-bbox-midpoints="true"
     inkscape:object-paths="true"
     inkscape:snap-intersection-paths="true">
    <inkscape:grid
       type="xygrid"
       id="grid7897"
       empspacing="4" />
  </sodipodi:namedview>
  <metadata
     id="metadata5">
    <rdf:RDF>
      <cc:Work
         rdf:about="">
        <dc:format>image/svg+xml</dc:format>
        <dc:type
           rdf:resource="http://purl.org/dc/dcmitype/StillImage" />
        <dc:title>Antu icon Theme</dc:title>
      </cc:Work>
    </rdf:RDF>
  </metadata>
  <g
     inkscape:label="Capa 1"
     inkscape:groupmode="layer"
     id="layer1"
     transform="translate(0,-282.64999)">
    <g
       id="g8530"
       transform="translate(48,-1.89286)">
      <path
         sodipodi:nodetypes="ssssssssscccss"
         style="color:#000000;font-style:normal;font-variant:normal;font-weight:normal;font-stretch:normal;font-size:medium;line-height:normal;font-family:sans-serif;font-variant-ligatures:normal;font-variant-position:normal;font-variant-caps:normal;font-variant-numeric:normal;font-variant-alternates:normal;font-feature-settings:normal;text-indent:0;text-align:start;text-decoration:none;text-decoration-line:none;text-decoration-style:solid;text-decoration-color:#000000;letter-spacing:normal;word-spacing:normal;text-transform:none;writing-mode:lr-tb;direction:ltr;text-orientation:mixed;dominant-baseline:auto;baseline-shift:baseline;text-anchor:start;white-space:normal;shape-padding:0;clip-rule:nonzero;display:inline;overflow:visible;visibility:visible;opacity:1;isolation:auto;mix-blend-mode:normal;color-interpolation:sRGB;color-interpolation-filters:linearRGB;solid-color:#000000;solid-opacity:1;vector-effect:none;fill:#b2752a;fill-opacity:1;fill-rule:nonzero;stroke:none;stroke-width:2;stroke-linecap:round;stroke-linejoin:round;stroke-miterlimit:4;stroke-dasharray:none;stroke-dashoffset:0;stroke-opacity:1;color-rendering:auto;image-rendering:auto;shape-rendering:auto;text-rendering:auto;enable-background:accumulate"
         d="m -46,285.54285 c -1.090679,0 -2,0.90931 -2,2 v 26 c 0,1.09069 0.909309,2 2,2 h 28 c 1.090691,0 2,-0.90931 2,-2 v -22 c 0,-1.09069 -0.909321,-2 -2,-2 h -14 c -0.166667,0 -0.219367,-0.025 -0.419922,-0.26563 -0.200555,-0.24067 -0.435547,-0.68163 -0.685547,-1.18164 -0.25,-0.5 -0.515008,-1.05903 -0.939453,-1.56836 -0.424445,-0.50934 -1.121745,-0.98437 -1.955078,-0.98437 z"
         id="path1151-9"
         inkscape:connector-curvature="0" />
      <path
         d="m -46,286.54286 c -0.55401,0 -1,0.44598 -1,0.99999 v 26.00001 c 0,0.554 0.44599,0.99999 1,0.99999 h 28.000001 c 0.554009,0 0.999999,-0.44599 0.999999,-0.99999 v -22.00001 c 0,-0.55401 -0.445991,-0.99999 -0.999999,-0.99999 L -32,290.54285 c -2,0 -2,-4 -4,-4 z"
         id="path13-6-3-1-3-0-7-7-8"
         style="fill:url(#linearGradient1817);fill-opacity:1;stroke-width:2;stroke-miterlimit:4;stroke-dasharray:none"
         inkscape:connector-curvature="0"
         sodipodi:nodetypes="ssssssssccs" />
      <path
         sodipodi:nodetypes="scccssssssssss"
         style="color:#000000;font-style:normal;font-variant:normal;font-weight:normal;font-stretch:normal;font-size:medium;line-height:normal;font-family:sans-serif;font-variant-ligatures:normal;font-variant-position:normal;font-variant-caps:normal;font-variant-numeric:normal;font-variant-alternates:normal;font-feature-settings:normal;text-indent:0;text-align:start;text-decoration:none;text-decoration-line:none;text-decoration-style:solid;text-decoration-color:#000000;letter-spacing:normal;word-spacing:normal;text-transform:none;writing-mode:lr-tb;direction:ltr;text-orientation:mixed;dominant-baseline:auto;baseline-shift:baseline;text-anchor:start;white-space:normal;shape-padding:0;clip-rule:nonzero;display:inline;overflow:visible;visibility:visible;opacity:1;isolation:auto;mix-blend-mode:normal;color-interpolation:sRGB;color-interpolation-filters:linearRGB;solid-color:#000000;solid-opacity:1;vector-effect:none;fill:#cc8630;fill-opacity:1;fill-rule:nonzero;stroke:none;stroke-width:2;stroke-linecap:butt;stroke-linejoin:miter;stroke-miterlimit:4;stroke-dasharray:none;stroke-dashoffset:0;stroke-opacity:1;color-rendering:auto;image-rendering:auto;shape-rendering:auto;text-rendering:auto;enable-background:accumulate"
         d="m -32,289.54285 c -0.833333,0 -1.554289,0.54936 -1.894531,1.09375 -0.340243,0.54439 -0.491342,1.08889 -0.666016,1.55469 -0.174673,0.46579 -0.360335,0.83439 -0.552734,1.03515 -0.1924,0.20077 -0.358941,0.31641 -0.886719,0.31641 h -10 c -1.090679,0 -2,0.90931 -2,2 v 18 c 0,1.09069 0.909309,2 2,2 h 28 c 1.090691,0 2,-0.90931 2,-2 v -22 c 0,-1.09069 -0.909321,-2 -2,-2 z"
         id="path1105-2"
         inkscape:connector-curvature="0" />
      <path
         sodipodi:nodetypes="ssssssssccs"
         inkscape:connector-curvature="0"
         style="fill:url(#linearGradient1819);fill-opacity:1;stroke:none;stroke-width:2;stroke-miterlimit:4;stroke-dasharray:none;stroke-opacity:1"
         id="path13-6-3-1-3-0-7-7-9-2-2"
         d="m -46,294.54286 c -0.55401,0 -1,0.44598 -1,0.99999 v 18.00001 c 0,0.554 0.44599,0.99999 1,0.99999 h 28.000001 c 0.554009,0 0.999999,-0.44599 0.999999,-0.99999 v -22.00001 c 0,-0.55401 -0.445991,-0.99999 -0.999999,-0.99999 L -32,290.54285 c -2,0 -1,4 -4,4 z" />
      <path
         sodipodi:nodetypes="sccssssss"
         inkscape:connector-curvature="0"
         id="rect6055-9"
         d="m -35.999999,299.54286 5.999999,-8e-5 3,3 v 8.00005 c 0,0.554 -0.446,1.00002 -1,1.00002 h -7.999999 C -36.554,311.54286 -37,311.09684 -37,310.54284 v -9.99999 c 0,-0.554 0.446,-1 1.000001,-0.99999 z"
         style="opacity:1;fill:#cc8630;fill-opacity:1;stroke:none;stroke-width:1.99999988;stroke-linecap:round;stroke-linejoin:round;stroke-miterlimit:4;stroke-dasharray:none;stroke-opacity:1" />
      <path
         sodipodi:nodetypes="sccssssss"
         inkscape:connector-curvature="0"
         id="rect6055"
         d="m -35.999999,298.54284 5.999999,-8e-5 3,3 v 8.00004 c 0,0.55401 -0.446,1.00003 -1,1.00003 h -7.999999 C -36.554,310.54284 -37,310.09681 -37,309.5428 v -9.99998 c 0,-0.55401 0.446,-0.99999 1.000001,-0.99998 z"
         style="opacity:1;fill:url(#linearGradient6079);fill-opacity:1;stroke:none;stroke-width:1.99999988;stroke-linecap:round;stroke-linejoin:round;stroke-miterlimit:4;stroke-dasharray:none;stroke-opacity:1" />
    </g>
  </g>
</svg>
