<?xml version="1.0" encoding="UTF-8" standalone="no"?>
<!-- Created with Inkscape (http://www.inkscape.org/) -->

<svg
   xmlns:dc="http://purl.org/dc/elements/1.1/"
   xmlns:cc="http://creativecommons.org/ns#"
   xmlns:rdf="http://www.w3.org/1999/02/22-rdf-syntax-ns#"
   xmlns:svg="http://www.w3.org/2000/svg"
   xmlns="http://www.w3.org/2000/svg"
   xmlns:xlink="http://www.w3.org/1999/xlink"
   xmlns:sodipodi="http://sodipodi.sourceforge.net/DTD/sodipodi-0.dtd"
   xmlns:inkscape="http://www.inkscape.org/namespaces/inkscape"
   width="32"
   height="32"
   viewBox="0 0 32 32"
   version="1.1"
   id="svg8"
   inkscape:version="0.92.1 r"
   sodipodi:docname="folder-cloud.svg">
  <title
     id="title7895">Antu icon Theme</title>
  <defs
     id="defs2">
    <linearGradient
       gradientTransform="matrix(3.7795275,0,0,3.7795275,-17,286.64994)"
       inkscape:collect="always"
       xlink:href="#linearGradient10239"
       id="linearGradient10241"
       x1="1.8520881"
       y1="2.3812332"
       x2="1.8520881"
       y2="0.79373336"
       gradientUnits="userSpaceOnUse" />
    <linearGradient
       inkscape:collect="always"
       id="linearGradient10239">
      <stop
         style="stop-color:#348be7;stop-opacity:1"
         offset="0"
         id="stop10235" />
      <stop
         style="stop-color:#3997f1;stop-opacity:1"
         offset="1"
         id="stop10237" />
    </linearGradient>
    <linearGradient
       gradientTransform="matrix(3.7795275,0,0,3.7795275,-17,286.64994)"
       inkscape:collect="always"
       xlink:href="#linearGradient10231"
       id="linearGradient10233"
       x1="4.7625046"
       y1="7.6729002"
       x2="4.7625046"
       y2="1.5874833"
       gradientUnits="userSpaceOnUse" />
    <linearGradient
       inkscape:collect="always"
       id="linearGradient10231">
      <stop
         style="stop-color:#3e9ff4;stop-opacity:1"
         offset="0"
         id="stop10227" />
      <stop
         style="stop-color:#50c2f9;stop-opacity:1"
         offset="1"
         id="stop10229" />
    </linearGradient>
    <linearGradient
       gradientTransform="matrix(3.7795275,0,0,3.7795275,-15.732143,-803.5303)"
       inkscape:collect="always"
       xlink:href="#linearGradient4547"
       id="linearGradient5333"
       x1="3.8978794"
       y1="294.79355"
       x2="3.8978794"
       y2="292.94147"
       gradientUnits="userSpaceOnUse" />
    <linearGradient
       id="linearGradient4547"
       inkscape:collect="always">
      <stop
         id="stop4543"
         offset="0"
         style="stop-color:#c3f7f9;stop-opacity:1" />
      <stop
         id="stop4545"
         offset="1"
         style="stop-color:#e5fafb;stop-opacity:1" />
    </linearGradient>
  </defs>
  <sodipodi:namedview
     id="base"
     pagecolor="#ffffff"
     bordercolor="#666666"
     borderopacity="1.0"
     inkscape:pageopacity="0.0"
     inkscape:pageshadow="2"
     inkscape:zoom="7.919596"
     inkscape:cx="0.86346294"
     inkscape:cy="9.2892447"
     inkscape:document-units="px"
     inkscape:current-layer="layer1"
     showgrid="true"
     units="px"
     inkscape:window-width="1366"
     inkscape:window-height="697"
     inkscape:window-x="0"
     inkscape:window-y="0"
     inkscape:window-maximized="1"
     objecttolerance="10"
     gridtolerance="10"
     guidetolerance="10">
    <inkscape:grid
       type="xygrid"
       id="grid7897"
       empspacing="4" />
  </sodipodi:namedview>
  <metadata
     id="metadata5">
    <rdf:RDF>
      <cc:Work
         rdf:about="">
        <dc:format>image/svg+xml</dc:format>
        <dc:type
           rdf:resource="http://purl.org/dc/dcmitype/StillImage" />
        <dc:title>Antu icon Theme</dc:title>
      </cc:Work>
    </rdf:RDF>
  </metadata>
  <g
     inkscape:label="Capa 1"
     inkscape:groupmode="layer"
     id="layer1"
     transform="translate(0,-282.64999)">
    <g
       id="g5973"
       transform="translate(17,-4.000005)">
      <path
         sodipodi:nodetypes="ccccccc"
         inkscape:connector-curvature="0"
         id="path13-6-7-64-1-3-02-8-0"
         d="m -16,289.64999 h 12 l 3,6 H 14.000001 V 315.65 H -16 Z"
         style="fill:url(#linearGradient10241);fill-opacity:1;stroke-width:1.00000012" />
      <path
         sodipodi:nodetypes="ssssssssccsccccccc"
         inkscape:connector-curvature="0"
         style="fill:#3182d9;fill-opacity:1;stroke-width:1.00000012"
         id="path13-6-3-1-3-0-7-7"
         d="m -16,288.65 c -0.55401,0 -1,0.44598 -1,0.99999 V 315.65 c 0,0.554 0.44599,0.99999 1,0.99999 H 14.000001 C 14.55401,316.64999 15,316.204 15,315.65 v -20.00001 c 0,-0.55401 -0.450268,-1.0687 -0.999999,-0.99999 H 0 l -3,-6 z m 0,0.99999 h 12 l 3,6 H 14.000001 V 315.65 H -16 Z" />
      <path
         sodipodi:nodetypes="sssssscsccsccccccc"
         inkscape:connector-curvature="0"
         style="fill:#3182d9;fill-opacity:1;stroke-width:1.00000012"
         id="path13-0-0-9-9-8"
         d="m -15.999949,295.64999 c -0.55401,0 -0.999998,0.44602 -1,1.00002 L -17,315.65 c -2e-6,0.554 0.44599,0.99999 1,0.99999 H 14.000001 C 14.55401,316.64999 15,316.204 15,315.65 v -23.00001 c 0,0 0,-0.99999 -0.999999,-0.99999 H -2 l -1.999948,4.00003 z m 0,1.00002 H -2.999948 L -1,292.64999 H 14.000001 V 315.65 H -16 Z" />
      <path
         inkscape:connector-curvature="0"
         id="path13-5-2-9-4-2-6"
         d="M -15.999949,296.65001 H -2.999948 L -1,292.64999 H 14.000001 V 315.65 H -16 Z"
         style="fill:url(#linearGradient10233);fill-opacity:1;stroke-width:1.00000012"
         sodipodi:nodetypes="ccccccc" />
      <path
         style="opacity:1;fill:#358bd9;fill-opacity:1;stroke:none;stroke-width:0.29999995;stroke-miterlimit:4;stroke-dasharray:none;stroke-opacity:1"
         d="m 0.554689,300.65006 c -2.100689,0 -3.839335,1.43301 -4.339844,3.37308 -0.3273,-0.23357 -0.72565,-0.37304 -1.160156,-0.37304 -1.10798,0 -2,0.89205 -2,2.00002 0,0.0151 0.0054,0.034 0.0059,0.0488 -1.7011011,0.24075 -3.0058586,1.68155 -3.0058586,3.45116 0,1.93901 1.561003,3.49999 3.4999996,3.49999 h 11 c 1.939,0 3.5,-1.56098 3.5,-3.49999 0,-1.78632 -1.329963,-3.23535 -3.054688,-3.45506 0.02192,-0.18066 0.05469,-0.35792 0.05469,-0.54493 0,-2.49297 -2.007014,-4.50002 -4.5,-4.50002 z"
         id="rect4515-0"
         inkscape:connector-curvature="0" />
      <path
         style="opacity:1;fill:url(#linearGradient5333);fill-opacity:1;stroke:none;stroke-width:0.29999995;stroke-miterlimit:4;stroke-dasharray:none;stroke-opacity:1"
         d="m 0.5,299.65006 c -2.100689,0 -3.839335,1.43301 -4.339844,3.37308 -0.3273,-0.23357 -0.72565,-0.37304 -1.160156,-0.37304 -1.10798,0 -2,0.89205 -2,2.00002 0,0.0151 0.0054,0.034 0.0059,0.0488 -1.7011011,0.24075 -3.0058586,1.68155 -3.0058586,3.45116 0,1.93901 1.561003,3.49999 3.4999996,3.49999 h 11 c 1.939,0 3.5,-1.56098 3.5,-3.49999 0,-1.78632 -1.329963,-3.23535 -3.054688,-3.45506 0.02192,-0.18066 0.05469,-0.35792 0.05469,-0.54493 0,-2.49297 -2.007014,-4.50002 -4.5,-4.50002 z"
         id="rect4515"
         inkscape:connector-curvature="0" />
    </g>
  </g>
</svg>
