<?xml version="1.0" encoding="UTF-8" standalone="no"?>
<!-- Created with Inkscape (http://www.inkscape.org/) -->

<svg
   xmlns:dc="http://purl.org/dc/elements/1.1/"
   xmlns:cc="http://creativecommons.org/ns#"
   xmlns:rdf="http://www.w3.org/1999/02/22-rdf-syntax-ns#"
   xmlns:svg="http://www.w3.org/2000/svg"
   xmlns="http://www.w3.org/2000/svg"
   xmlns:xlink="http://www.w3.org/1999/xlink"
   xmlns:sodipodi="http://sodipodi.sourceforge.net/DTD/sodipodi-0.dtd"
   xmlns:inkscape="http://www.inkscape.org/namespaces/inkscape"
   width="32"
   height="32"
   viewBox="0 0 32 32"
   version="1.1"
   id="svg8"
   inkscape:version="0.91 r13725"
   sodipodi:docname="folder-encrypted.svg">
  <title
     id="title7895">Antu icon Theme</title>
  <defs
     id="defs2">
    <linearGradient
       gradientTransform="matrix(3.7795275,0,0,3.7795275,-18,292.64994)"
       inkscape:collect="always"
       xlink:href="#linearGradient10231"
       id="linearGradient10233"
       x1="4.7625046"
       y1="7.6729002"
       x2="4.7625046"
       y2="1.5874833"
       gradientUnits="userSpaceOnUse" />
    <linearGradient
       inkscape:collect="always"
       id="linearGradient10231">
      <stop
         style="stop-color:#3a5166;stop-opacity:1"
         offset="0"
         id="stop10227" />
      <stop
         style="stop-color:#647e8b;stop-opacity:1"
         offset="1"
         id="stop10229" />
    </linearGradient>
    <linearGradient
       gradientTransform="matrix(3.7795275,0,0,3.7795275,-18,292.64994)"
       inkscape:collect="always"
       xlink:href="#linearGradient10239"
       id="linearGradient10241"
       x1="1.8520881"
       y1="2.3812332"
       x2="1.8520881"
       y2="0.79373336"
       gradientUnits="userSpaceOnUse" />
    <linearGradient
       inkscape:collect="always"
       id="linearGradient10239">
      <stop
         style="stop-color:#2f435a;stop-opacity:1"
         offset="0"
         id="stop10235" />
      <stop
         style="stop-color:#384d63;stop-opacity:1"
         offset="1"
         id="stop10237" />
    </linearGradient>
    <style
       type="text/css"
       id="current-color-scheme">
      .ColorScheme-Text {
        color:#122036;
      }
      </style>
    <style
       type="text/css"
       id="current-color-scheme-7">
      .ColorScheme-Text {
        color:#122036;
      }
      </style>
    <style
       type="text/css"
       id="current-color-scheme-5">
      .ColorScheme-Text {
        color:#122036;
      }
      </style>
    <style
       id="current-color-scheme-9"
       type="text/css">
      .ColorScheme-Text {
        color:#122036;
      }
      </style>
    <style
       id="current-color-scheme-1"
       type="text/css">
      .ColorScheme-Text {
        color:#122036;
      }
      </style>
    <style
       type="text/css"
       id="current-color-scheme-10">
      .ColorScheme-Text {
        color:#122036;
      }
      </style>
    <style
       id="current-color-scheme-6"
       type="text/css">
      .ColorScheme-Text {
        color:#122036;
      }
      </style>
    <style
       id="current-color-scheme-7-1"
       type="text/css">
      .ColorScheme-Text {
        color:#122036;
      }
      </style>
    <style
       id="current-color-scheme-5-2"
       type="text/css">
      .ColorScheme-Text {
        color:#122036;
      }
      </style>
    <linearGradient
       id="linearGradient4582-3"
       inkscape:collect="always">
      <stop
         id="stop4578-5"
         offset="0"
         style="stop-color:#c8d3d4;stop-opacity:1" />
      <stop
         id="stop4580-6"
         offset="1"
         style="stop-color:#f3f5f6;stop-opacity:1" />
    </linearGradient>
    <linearGradient
       gradientTransform="translate(5.0000002,9)"
       gradientUnits="userSpaceOnUse"
       y2="5"
       x2="11"
       y1="17"
       x1="11"
       id="linearGradient4239-0"
       xlink:href="#linearGradient4582-3"
       inkscape:collect="always" />
  </defs>
  <sodipodi:namedview
     id="base"
     pagecolor="#ffffff"
     bordercolor="#666666"
     borderopacity="1.0"
     inkscape:pageopacity="0.0"
     inkscape:pageshadow="2"
     inkscape:zoom="2"
     inkscape:cx="4.7482032"
     inkscape:cy="51.574374"
     inkscape:document-units="px"
     inkscape:current-layer="layer1"
     showgrid="true"
     units="px"
     inkscape:window-width="1360"
     inkscape:window-height="699"
     inkscape:window-x="0"
     inkscape:window-y="0"
     inkscape:window-maximized="1"
     objecttolerance="10"
     gridtolerance="10"
     guidetolerance="10"
     inkscape:snap-bbox="true"
     inkscape:bbox-paths="true"
     inkscape:bbox-nodes="true"
     inkscape:snap-bbox-edge-midpoints="true"
     inkscape:snap-bbox-midpoints="true"
     inkscape:object-paths="true"
     inkscape:object-nodes="true"
     inkscape:snap-intersection-paths="true">
    <inkscape:grid
       type="xygrid"
       id="grid7897"
       empspacing="4" />
  </sodipodi:namedview>
  <metadata
     id="metadata5">
    <rdf:RDF>
      <cc:Work
         rdf:about="">
        <dc:format>image/svg+xml</dc:format>
        <dc:type
           rdf:resource="http://purl.org/dc/dcmitype/StillImage" />
        <dc:title>Antu icon Theme</dc:title>
      </cc:Work>
    </rdf:RDF>
  </metadata>
  <g
     inkscape:label="Capa 1"
     inkscape:groupmode="layer"
     id="layer1"
     transform="translate(0,-282.64999)">
    <g
       id="g8355"
       transform="translate(18,-10.000005)">
      <path
         sodipodi:nodetypes="ssssssssccsccccccc"
         inkscape:connector-curvature="0"
         style="fill:#223240;fill-opacity:1;stroke-width:1.00000012"
         id="path13-6-3-1-3-0-7-7"
         d="m -17,294.65 c -0.55401,0 -1,0.44598 -1,0.99999 l 0,26.00001 c 0,0.554 0.44599,0.99999 1,0.99999 l 30.000001,0 C 13.55401,322.64999 14,322.204 14,321.65 l 0,-20.00001 c 0,-0.55401 -0.450268,-1.0687 -0.999999,-0.99999 L -1,300.65 l -3,-6 z m 0,6.99999 12,0 3,0 15.000001,0 0,20.00001 -30.000001,0 z" />
      <path
         sodipodi:nodetypes="ccccccc"
         inkscape:connector-curvature="0"
         id="path13-6-7-64-1-3-02-8-0"
         d="m -17,295.64999 h 12 l 3,6 H 13.000001 V 321.65 H -17 Z"
         style="fill:url(#linearGradient10241);fill-opacity:1;stroke-width:1.00000012" />
      <path
         sodipodi:nodetypes="sssssscsccs"
         inkscape:connector-curvature="0"
         style="fill:#223240;fill-opacity:1;stroke-width:1.00000012"
         id="path13-0-0-9-9-8"
         d="m -16.999949,301.64999 c -0.55401,0 -0.999998,0.44602 -1,1.00002 L -18,321.65 c -2e-6,0.554 0.44599,0.99999 1,0.99999 l 30.000001,0 C 13.55401,322.64999 14,322.204 14,321.65 l 0,-23.00001 c 0,0 0,-0.99999 -0.999999,-0.99999 L -3,297.65 l -1.999948,4.00003 z" />
      <path
         inkscape:connector-curvature="0"
         id="path13-5-2-9-4-2-6"
         d="m -16.999949,302.65001 h 13 l 1.999948,-4.00002 H 13 V 321.65 h -30.000001 z"
         style="fill:url(#linearGradient10233);fill-opacity:1;stroke-width:1.00000012"
         sodipodi:nodetypes="ccccccc" />
    </g>
    <path
       sodipodi:nodetypes="sscssscccccccccccccccscssccccccccccccccccccccssccssssccccss"
       inkscape:connector-curvature="0"
       id="rect4165-5"
       d="m 16,296.64999 c -2.216,0 -4,1.78399 -4,4 l 0,0.99999 c -0.554,0 -1,0.44601 -1,1.00001 l 0,6 c 0,0.55399 0.446,1 1,1 l 6,0 0,-1 1,0 0,-1.00001 -1,0 0,-0.99999 1,0 0,-1 1,0 0,-1.00001 -1,0 0,-0.99999 1,0 0,0.99999 1,0 0,-1.99999 c 0,-0.554 -0.446,-1.00001 -1,-1.00001 l 0,-0.99999 c 0,-2.21601 -1.784,-4 -4,-4 z m 4,9 0,1 1,0 0,-1 z m 0,1 -1,0 0,0.99999 1,0 z m 0,0.99999 0,1.00001 1,0 0,-1.00001 z m 0,2.00001 0,-1 -1,0 0,1 z m -4,-11.00001 c 1.108,0 2,0.89201 2,2.00001 l 0,0.99999 -4,0 0,-0.99999 c 0,-1.108 0.892,-2.00001 2,-2.00001 z m 0,4.00001 c 1.108,0 2,0.892 2,1.99999 0,0.74108 -0.404201,1.37906 -1,1.72461 l 0,2.2754 -2,0 0,-2.2754 c -0.595799,-0.34555 -1,-0.98353 -1,-1.72461 0,-1.10799 0.892,-1.99999 2,-1.99999 z"
       style="opacity:1;fill:#223240;fill-opacity:1;stroke:none;stroke-width:2;stroke-linecap:round;stroke-linejoin:round;stroke-miterlimit:4;stroke-dasharray:none;stroke-opacity:1" />
    <path
       style="opacity:1;fill:url(#linearGradient4239-0);fill-opacity:1;stroke:none;stroke-width:2;stroke-linecap:round;stroke-linejoin:round;stroke-miterlimit:4;stroke-dasharray:none;stroke-opacity:1"
       d="M 16 13 C 13.784 13 12 14.784 12 17 L 12 18 C 11.446 18 11 18.446 11 19 L 11 25 C 11 25.554 11.446 26 12 26 L 18 26 L 18 25 L 19 25 L 19 24 L 18 24 L 18 23 L 19 23 L 19 22 L 20 22 L 20 21 L 21 21 L 21 19 C 21 18.446 20.554 18 20 18 L 20 17 C 20 14.784 18.216 13 16 13 z M 20 22 L 20 23 L 21 23 L 21 22 L 20 22 z M 20 23 L 19 23 L 19 24 L 20 24 L 20 23 z M 20 24 L 20 25 L 21 25 L 21 24 L 20 24 z M 20 25 L 19 25 L 19 26 L 20 26 L 20 25 z M 16 15 C 17.108 15 18 15.892 18 17 L 18 18 L 14 18 L 14 17 C 14 15.892 14.892 15 16 15 z M 16 19 C 17.108 19 18 19.892 18 21 C 18 21.74107 17.595799 22.379049 17 22.724609 L 17 25 L 15 25 L 15 22.724609 C 14.404201 22.379049 14 21.74107 14 21 C 14 19.892 14.892 19 16 19 z "
       transform="translate(0,282.64999)"
       id="rect4165-0" />
  </g>
</svg>
