<?xml version="1.0" encoding="UTF-8" standalone="no"?>
<!-- Created with Inkscape (http://www.inkscape.org/) -->

<svg
   xmlns:dc="http://purl.org/dc/elements/1.1/"
   xmlns:cc="http://creativecommons.org/ns#"
   xmlns:rdf="http://www.w3.org/1999/02/22-rdf-syntax-ns#"
   xmlns:svg="http://www.w3.org/2000/svg"
   xmlns="http://www.w3.org/2000/svg"
   xmlns:xlink="http://www.w3.org/1999/xlink"
   xmlns:sodipodi="http://sodipodi.sourceforge.net/DTD/sodipodi-0.dtd"
   xmlns:inkscape="http://www.inkscape.org/namespaces/inkscape"
   width="32"
   height="32"
   viewBox="0 0 32 32"
   version="1.1"
   id="svg8"
   inkscape:version="0.92.2 2405546, 2018-03-11"
   sodipodi:docname="folder-unlocked.svg.svg">
  <title
     id="title7895">Antu icon Theme</title>
  <defs
     id="defs2">
    <linearGradient
       gradientTransform="matrix(3.7795275,0,0,3.7795275,3.42695e-7,286.64994)"
       inkscape:collect="always"
       xlink:href="#linearGradient10239"
       id="linearGradient10241"
       x1="1.8520881"
       y1="2.3812332"
       x2="1.8520881"
       y2="0.79373336"
       gradientUnits="userSpaceOnUse" />
    <linearGradient
       inkscape:collect="always"
       id="linearGradient10239">
      <stop
         style="stop-color:#348be7;stop-opacity:1"
         offset="0"
         id="stop10235" />
      <stop
         style="stop-color:#3997f1;stop-opacity:1"
         offset="1"
         id="stop10237" />
    </linearGradient>
    <linearGradient
       gradientTransform="matrix(3.7795275,0,0,3.7795275,3.42695e-7,286.64994)"
       inkscape:collect="always"
       xlink:href="#linearGradient10231"
       id="linearGradient10233"
       x1="4.7625046"
       y1="7.6729002"
       x2="4.7625046"
       y2="1.5874833"
       gradientUnits="userSpaceOnUse" />
    <linearGradient
       inkscape:collect="always"
       id="linearGradient10231">
      <stop
         style="stop-color:#3e9ff4;stop-opacity:1"
         offset="0"
         id="stop10227" />
      <stop
         style="stop-color:#50c2f9;stop-opacity:1"
         offset="1"
         id="stop10229" />
    </linearGradient>
    <linearGradient
       id="linearGradient4547"
       inkscape:collect="always">
      <stop
         id="stop4543"
         offset="0"
         style="stop-color:#c3f7f9;stop-opacity:1" />
      <stop
         id="stop4545"
         offset="1"
         style="stop-color:#e5fafb;stop-opacity:1" />
    </linearGradient>
    <linearGradient
       inkscape:collect="always"
       xlink:href="#linearGradient4547"
       id="linearGradient847"
       x1="-9"
       y1="311.64999"
       x2="-9"
       y2="300.64999"
       gradientUnits="userSpaceOnUse" />
    <linearGradient
       inkscape:collect="always"
       xlink:href="#linearGradient4547"
       id="linearGradient853"
       gradientUnits="userSpaceOnUse"
       x1="-9"
       y1="311.64999"
       x2="-9"
       y2="300.64999" />
  </defs>
  <sodipodi:namedview
     id="base"
     pagecolor="#ffffff"
     bordercolor="#666666"
     borderopacity="1.0"
     inkscape:pageopacity="0.0"
     inkscape:pageshadow="2"
     inkscape:zoom="15.839192"
     inkscape:cx="0.77897388"
     inkscape:cy="10.920461"
     inkscape:document-units="px"
     inkscape:current-layer="layer1"
     showgrid="true"
     units="px"
     inkscape:window-width="1360"
     inkscape:window-height="711"
     inkscape:window-x="0"
     inkscape:window-y="28"
     inkscape:window-maximized="1"
     objecttolerance="10"
     gridtolerance="10"
     guidetolerance="10">
    <inkscape:grid
       type="xygrid"
       id="grid7897"
       empspacing="4" />
  </sodipodi:namedview>
  <metadata
     id="metadata5">
    <rdf:RDF>
      <cc:Work
         rdf:about="">
        <dc:format>image/svg+xml</dc:format>
        <dc:type
           rdf:resource="http://purl.org/dc/dcmitype/StillImage" />
        <dc:title>Antu icon Theme</dc:title>
      </cc:Work>
    </rdf:RDF>
  </metadata>
  <g
     inkscape:label="Capa 1"
     inkscape:groupmode="layer"
     id="layer1"
     transform="translate(0,-282.64999)">
    <g
       id="g6719"
       transform="translate(0,-4.000005)">
      <path
         sodipodi:nodetypes="ccccccc"
         inkscape:connector-curvature="0"
         id="path13-6-7-64-1-3-02-8-0"
         d="M 0.99999986,289.64999 H 13 l 3,6 H 31.000001 V 315.65 H 0.99999986 Z"
         style="fill:url(#linearGradient10241);fill-opacity:1;stroke-width:1.00000012" />
      <path
         sodipodi:nodetypes="ssssssssccsccccccc"
         inkscape:connector-curvature="0"
         style="fill:#3182d9;fill-opacity:1;stroke-width:1.00000012"
         id="path13-6-3-1-3-0-7-7"
         d="M 0.99999986,288.65 C 0.44599029,288.65 0,289.09598 0,289.64999 V 315.65 c 0,0.554 0.44599029,0.99999 0.99999986,0.99999 H 31.000001 C 31.55401,316.64999 32,316.204 32,315.65 v -20.00001 c 0,-0.55401 -0.450268,-1.0687 -0.999999,-0.99999 H 17 l -3,-6 z m 0,0.99999 H 13 l 3,6 H 31.000001 V 315.65 H 0.99999986 Z" />
      <path
         sodipodi:nodetypes="sssssscsccsccccccc"
         inkscape:connector-curvature="0"
         style="fill:#3182d9;fill-opacity:1;stroke-width:1.00000012"
         id="path13-0-0-9-9-8"
         d="m 1.0000509,295.64999 c -0.55400958,0 -0.999998364564,0.44602 -0.999999876375,1.00002 L 0,315.65 c -1.5118072e-6,0.554 0.44599029,0.99999 0.99999986,0.99999 H 31.000001 C 31.55401,316.64999 32,316.204 32,315.65 v -23.00001 c 0,0 0,-0.99999 -0.999999,-0.99999 H 15 l -1.999948,4.00003 z m 0,1.00002 H 14.000052 L 16,292.64999 H 31.000001 V 315.65 H 0.99999986 Z" />
      <path
         inkscape:connector-curvature="0"
         id="path13-5-2-9-4-2-6"
         d="M 1.0000509,296.65001 H 14.000052 L 16,292.64999 H 31.000001 V 315.65 H 0.99999986 Z"
         style="fill:url(#linearGradient10233);fill-opacity:1;stroke-width:1.00000012"
         sodipodi:nodetypes="ccccccc" />
    </g>
    <g
       id="g851"
       transform="translate(24.571705,-4.29187)">
      <path
         inkscape:connector-curvature="0"
         style="opacity:1;fill:#358bd9;fill-opacity:1;stroke:none;stroke-width:1.20000005;stroke-linecap:round;stroke-linejoin:round;stroke-miterlimit:4;stroke-dasharray:none;stroke-opacity:1"
         d="m -8.5717046,300.94186 c -1.8609334,0 -3.3478834,1.28447 -3.7988284,3 h 2.210937 c 0.352969,-0.56361 0.8710882,-1 1.5878914,-1 1.1079996,0 1.9999998,0.892 1.9999998,2 v 1 h -3 -1.0000002 -2 c -0.554,0 -1,0.446 -1,1 v 6 c 0,0.55399 0.446,1 1,1 h 8 c 0.5540004,0 1,-0.44601 1,-1 v -6 c 0,-0.554 -0.4459996,-1 -1,-1 v -1 c 0,-2.216 -1.7839998,-4 -3.9999996,-4 z m 0,6 c 1.1079996,0 1.9999998,0.892 1.9999998,2 0,0.74106 -0.4042008,1.37905 -1.0000002,1.72461 v 2.27539 h -1.9999998 v -2.27539 c -0.5957992,-0.34557 -1.0000002,-0.98355 -1.0000002,-1.72461 0,-1.108 0.8920002,-2 2.0000004,-2 z"
         id="rect4165-5" />
      <path
         inkscape:connector-curvature="0"
         style="opacity:1;fill:url(#linearGradient853);fill-opacity:1;stroke:none;stroke-width:2;stroke-linecap:round;stroke-linejoin:round;stroke-miterlimit:4;stroke-dasharray:none;stroke-opacity:1"
         d="m -8.5717048,299.94186 c -1.8609332,0 -3.3478832,1.28447 -3.7988282,3 h 2.210938 c 0.3529683,-0.5636 0.8710872,-1 1.5878902,-1 1.108,0 2,0.892 2,2 v 1 h -3 -1.0000002 -2 c -0.554,0 -1,0.44601 -1,1 v 6 c 0,0.554 0.446,1 1,1 h 8.0000002 c 0.554,0 0.9999998,-0.446 0.9999998,-1 v -6 c 0,-0.55399 -0.4459998,-1 -0.9999998,-1 v -1 c 0,-2.216 -1.784,-4 -4,-4 z m 0,6 c 1.108,0 2,0.892 2,2 0,0.74107 -0.404201,1.37906 -1,1.72461 v 2.27539 h -2 v -2.27539 c -0.5957992,-0.34555 -1.0000002,-0.98354 -1.0000002,-1.72461 0,-1.108 0.8920002,-2 2.0000002,-2 z"
         id="rect4165-3" />
    </g>
  </g>
</svg>
