<?xml version="1.0" encoding="UTF-8" standalone="no"?>
<!-- Created with Inkscape (http://www.inkscape.org/) -->

<svg
   xmlns:dc="http://purl.org/dc/elements/1.1/"
   xmlns:cc="http://creativecommons.org/ns#"
   xmlns:rdf="http://www.w3.org/1999/02/22-rdf-syntax-ns#"
   xmlns:svg="http://www.w3.org/2000/svg"
   xmlns="http://www.w3.org/2000/svg"
   xmlns:xlink="http://www.w3.org/1999/xlink"
   xmlns:sodipodi="http://sodipodi.sourceforge.net/DTD/sodipodi-0.dtd"
   xmlns:inkscape="http://www.inkscape.org/namespaces/inkscape"
   width="32"
   height="32"
   viewBox="0 0 32 32"
   version="1.1"
   id="svg8"
   inkscape:version="0.92.2 2405546, 2018-03-11"
   sodipodi:docname="folder-temp.svg">
  <title
     id="title7895">Antu icon Theme</title>
  <defs
     id="defs2">
    <linearGradient
       gradientTransform="matrix(3.7795275,0,0,3.7795275,-4.625,-811.28041)"
       inkscape:collect="always"
       xlink:href="#linearGradient4547"
       id="linearGradient7715"
       x1="5.4570312"
       y1="295.78574"
       x2="5.4570312"
       y2="294.19824"
       gradientUnits="userSpaceOnUse" />
    <linearGradient
       id="linearGradient4547"
       inkscape:collect="always">
      <stop
         id="stop4543"
         offset="0"
         style="stop-color:#c3f7f9;stop-opacity:1" />
      <stop
         id="stop4545"
         offset="1"
         style="stop-color:#e5fafb;stop-opacity:1" />
    </linearGradient>
    <linearGradient
       gradientTransform="matrix(3.7795275,0,0,3.7795275,0,282.64994)"
       inkscape:collect="always"
       xlink:href="#linearGradient10231"
       id="linearGradient10233"
       x1="4.7625046"
       y1="7.6729002"
       x2="4.7625046"
       y2="1.5874833"
       gradientUnits="userSpaceOnUse" />
    <linearGradient
       inkscape:collect="always"
       id="linearGradient10231">
      <stop
         style="stop-color:#3e9ff4;stop-opacity:1"
         offset="0"
         id="stop10227" />
      <stop
         style="stop-color:#50c2f9;stop-opacity:1"
         offset="1"
         id="stop10229" />
    </linearGradient>
    <linearGradient
       gradientTransform="matrix(3.7795275,0,0,3.7795275,0,282.64994)"
       inkscape:collect="always"
       xlink:href="#linearGradient10239"
       id="linearGradient10241"
       x1="1.8520881"
       y1="2.3812332"
       x2="1.8520881"
       y2="0.79373336"
       gradientUnits="userSpaceOnUse" />
    <linearGradient
       inkscape:collect="always"
       id="linearGradient10239">
      <stop
         style="stop-color:#348be7;stop-opacity:1"
         offset="0"
         id="stop10235" />
      <stop
         style="stop-color:#3997f1;stop-opacity:1"
         offset="1"
         id="stop10237" />
    </linearGradient>
  </defs>
  <sodipodi:namedview
     id="base"
     pagecolor="#ffffff"
     bordercolor="#666666"
     borderopacity="1.0"
     inkscape:pageopacity="0.0"
     inkscape:pageshadow="2"
     inkscape:zoom="15.839192"
     inkscape:cx="22.091696"
     inkscape:cy="8.162908"
     inkscape:document-units="px"
     inkscape:current-layer="layer1"
     showgrid="true"
     units="px"
     inkscape:window-width="1360"
     inkscape:window-height="711"
     inkscape:window-x="0"
     inkscape:window-y="28"
     inkscape:window-maximized="1"
     objecttolerance="10"
     gridtolerance="10"
     guidetolerance="10">
    <inkscape:grid
       type="xygrid"
       id="grid7897"
       empspacing="4" />
  </sodipodi:namedview>
  <metadata
     id="metadata5">
    <rdf:RDF>
      <cc:Work
         rdf:about="">
        <dc:format>image/svg+xml</dc:format>
        <dc:type
           rdf:resource="http://purl.org/dc/dcmitype/StillImage" />
        <dc:title>Antu icon Theme</dc:title>
      </cc:Work>
    </rdf:RDF>
  </metadata>
  <g
     inkscape:label="Capa 1"
     inkscape:groupmode="layer"
     id="layer1"
     transform="translate(0,-282.64999)">
    <path
       style="fill:url(#linearGradient10241);fill-opacity:1;stroke-width:1.00000012"
       d="m 1,285.64999 h 12 l 3,6 h 15.000001 v 20 H 1 Z"
       id="path13-6-7-64-1-3-02-8-0"
       inkscape:connector-curvature="0"
       sodipodi:nodetypes="ccccccc" />
    <path
       d="m 1,284.64999 c -0.55401,0 -1,0.44598 -1,1 v 26 c 0,0.554 0.44599,1 1,1 h 30.000001 c 0.554009,0 0.999999,-0.44599 0.999999,-1 v -20 c 0,-0.55402 -0.450268,-1.0687 -0.999999,-1 H 17 l -3,-6 z m 0,1 h 12 l 3,6 h 15.000001 v 20 H 1 Z"
       id="path13-6-3-1-3-0-7-7"
       style="fill:#3182d9;fill-opacity:1;stroke-width:1.00000012"
       inkscape:connector-curvature="0"
       sodipodi:nodetypes="ssssssssccsccccccc" />
    <path
       d="m 1.000051,291.64999 c -0.55401,0 -0.999998,0.44601 -1,1.00002 L 0,311.64999 c -2e-6,0.554 0.44599,1 1,1 h 30.000001 c 0.554009,0 0.999999,-0.44599 0.999999,-1 v -23 c 0,0 0,-1 -0.999999,-1 H 15 l -1.999948,4.00003 z m 0,1.00002 H 14.000052 L 16,288.64999 h 15.000001 v 23 H 1 Z"
       id="path13-0-0-9-9-8"
       style="fill:#3182d9;fill-opacity:1;stroke-width:1.00000012"
       inkscape:connector-curvature="0"
       sodipodi:nodetypes="sssssscsccsccccccc" />
    <path
       sodipodi:nodetypes="ccccccc"
       style="fill:url(#linearGradient10233);fill-opacity:1;stroke-width:1.00000012"
       d="m 1.000051,292.65001 h 13 l 1.999948,-4.00002 H 31 v 23 H 0.999999 Z"
       id="path13-5-2-9-4-2-6"
       inkscape:connector-curvature="0" />
    <path
       inkscape:connector-curvature="0"
       style="opacity:1;fill:#358bd9;fill-opacity:1;stroke:none;stroke-width:2.33333325;stroke-linecap:round;stroke-linejoin:round;stroke-miterlimit:4;stroke-dasharray:none;stroke-opacity:1"
       d="m 16,295.64999 c -3.878,0 -6.9999995,3.12202 -6.9999995,7 0,3.87801 3.1219995,7 6.9999995,7 3.878,0 7,-3.12199 7,-7 0,-3.87798 -3.122,-7 -7,-7 z m 0,3 c 0.554,0 1,0.446 1,1 v 3 h 2 c 0.554,0 1,0.446 1,1 0,0.55399 -0.446,1 -1,1 h -3 c -0.554,0 -1,-0.44601 -1,-1 v -4 c 0,-0.554 0.446,-1 1,-1 z"
       id="rect7658-0-5" />
    <path
       inkscape:connector-curvature="0"
       id="rect7658-0"
       d="m 16,294.64999 c -3.878,0 -7,3.12202 -7,7 0,3.87802 3.122,7 7,7 3.878,0 7,-3.12198 7,-7 0,-3.87798 -3.122,-7 -7,-7 z m 0,3 c 0.554,0 1,0.446 1,1 v 3 h 2 c 0.554,0 1,0.446 1,1 0,0.554 -0.446,1 -1,1 h -3 c -0.554,0 -1,-0.446 -1,-1 v -4 c 0,-0.554 0.446,-1 1,-1 z"
       style="opacity:1;fill:url(#linearGradient7715);fill-opacity:1;stroke:none;stroke-width:2.33333325;stroke-linecap:round;stroke-linejoin:round;stroke-miterlimit:4;stroke-dasharray:none;stroke-opacity:1" />
  </g>
</svg>
