<?xml version="1.0" encoding="UTF-8" standalone="no"?>
<!-- Created with Inkscape (http://www.inkscape.org/) -->

<svg
   xmlns:dc="http://purl.org/dc/elements/1.1/"
   xmlns:cc="http://creativecommons.org/ns#"
   xmlns:rdf="http://www.w3.org/1999/02/22-rdf-syntax-ns#"
   xmlns:svg="http://www.w3.org/2000/svg"
   xmlns="http://www.w3.org/2000/svg"
   xmlns:xlink="http://www.w3.org/1999/xlink"
   xmlns:sodipodi="http://sodipodi.sourceforge.net/DTD/sodipodi-0.dtd"
   xmlns:inkscape="http://www.inkscape.org/namespaces/inkscape"
   width="32"
   height="32"
   viewBox="0 0 32 32"
   version="1.1"
   id="svg8"
   inkscape:version="0.92.1 r"
   sodipodi:docname="folder-videos.svg">
  <title
     id="title7895">Antu icon Theme</title>
  <defs
     id="defs2">
    <linearGradient
       gradientTransform="matrix(3.7795275,0,0,3.7795275,-18,286.64994)"
       inkscape:collect="always"
       xlink:href="#linearGradient10239"
       id="linearGradient10241"
       x1="1.8520881"
       y1="2.3812332"
       x2="1.8520881"
       y2="0.79373336"
       gradientUnits="userSpaceOnUse" />
    <linearGradient
       inkscape:collect="always"
       id="linearGradient10239">
      <stop
         style="stop-color:#348be7;stop-opacity:1"
         offset="0"
         id="stop10235" />
      <stop
         style="stop-color:#3997f1;stop-opacity:1"
         offset="1"
         id="stop10237" />
    </linearGradient>
    <linearGradient
       gradientTransform="matrix(3.7795275,0,0,3.7795275,-18,286.64994)"
       inkscape:collect="always"
       xlink:href="#linearGradient10231"
       id="linearGradient10233"
       x1="4.7625046"
       y1="7.6729002"
       x2="4.7625046"
       y2="1.5874833"
       gradientUnits="userSpaceOnUse" />
    <linearGradient
       inkscape:collect="always"
       id="linearGradient10231">
      <stop
         style="stop-color:#3e9ff4;stop-opacity:1"
         offset="0"
         id="stop10227" />
      <stop
         style="stop-color:#50c2f9;stop-opacity:1"
         offset="1"
         id="stop10229" />
    </linearGradient>
    <linearGradient
       gradientTransform="matrix(3.7795275,0,0,3.7795275,-22.625,-807.2804)"
       inkscape:collect="always"
       xlink:href="#linearGradient4547"
       id="linearGradient11619"
       x1="4.9278646"
       y1="295.52115"
       x2="4.9278646"
       y2="293.93365"
       gradientUnits="userSpaceOnUse" />
    <linearGradient
       id="linearGradient4547"
       inkscape:collect="always">
      <stop
         id="stop4543"
         offset="0"
         style="stop-color:#c3f7f9;stop-opacity:1" />
      <stop
         id="stop4545"
         offset="1"
         style="stop-color:#e5fafb;stop-opacity:1" />
    </linearGradient>
  </defs>
  <sodipodi:namedview
     id="base"
     pagecolor="#ffffff"
     bordercolor="#666666"
     borderopacity="1.0"
     inkscape:pageopacity="0.0"
     inkscape:pageshadow="2"
     inkscape:zoom="15.839192"
     inkscape:cx="14.956562"
     inkscape:cy="10.829893"
     inkscape:document-units="px"
     inkscape:current-layer="layer1"
     showgrid="true"
     units="px"
     inkscape:window-width="1366"
     inkscape:window-height="697"
     inkscape:window-x="0"
     inkscape:window-y="0"
     inkscape:window-maximized="1"
     objecttolerance="10"
     gridtolerance="10"
     guidetolerance="10">
    <inkscape:grid
       type="xygrid"
       id="grid7897"
       empspacing="4" />
  </sodipodi:namedview>
  <metadata
     id="metadata5">
    <rdf:RDF>
      <cc:Work
         rdf:about="">
        <dc:format>image/svg+xml</dc:format>
        <dc:type
           rdf:resource="http://purl.org/dc/dcmitype/StillImage" />
        <dc:title>Antu icon Theme</dc:title>
      </cc:Work>
    </rdf:RDF>
  </metadata>
  <g
     inkscape:label="Capa 1"
     inkscape:groupmode="layer"
     id="layer1"
     transform="translate(0,-282.64999)">
    <g
       id="g12259"
       transform="translate(18,-4.000005)">
      <path
         sodipodi:nodetypes="ccccccc"
         inkscape:connector-curvature="0"
         id="path13-6-7-64-1-3-02-8-0"
         d="m -17,289.64999 h 12 l 3,6 H 13.000001 V 315.65 H -17 Z"
         style="fill:url(#linearGradient10241);fill-opacity:1;stroke-width:1.00000012" />
      <path
         sodipodi:nodetypes="ssssssssccsccccccc"
         inkscape:connector-curvature="0"
         style="fill:#3182d9;fill-opacity:1;stroke-width:1.00000012"
         id="path13-6-3-1-3-0-7-7"
         d="m -17,288.65 c -0.55401,0 -1,0.44598 -1,0.99999 V 315.65 c 0,0.554 0.44599,0.99999 1,0.99999 H 13.000001 C 13.55401,316.64999 14,316.204 14,315.65 v -20.00001 c 0,-0.55401 -0.450268,-1.0687 -0.999999,-0.99999 H -1 l -3,-6 z m 0,0.99999 h 12 l 3,6 H 13.000001 V 315.65 H -17 Z" />
      <path
         sodipodi:nodetypes="sssssscsccsccccccc"
         inkscape:connector-curvature="0"
         style="fill:#3182d9;fill-opacity:1;stroke-width:1.00000012"
         id="path13-0-0-9-9-8"
         d="m -16.999949,295.64999 c -0.55401,0 -0.999998,0.44602 -1,1.00002 L -18,315.65 c -2e-6,0.554 0.44599,0.99999 1,0.99999 H 13.000001 C 13.55401,316.64999 14,316.204 14,315.65 v -23.00001 c 0,0 0,-0.99999 -0.999999,-0.99999 H -3 l -1.999948,4.00003 z m 0,1.00002 H -3.999948 L -2,292.64999 H 13.000001 V 315.65 H -17 Z" />
      <path
         inkscape:connector-curvature="0"
         id="path13-5-2-9-4-2-6"
         d="m -16.999949,296.65001 h 13 l 1.999948,-4.00002 H 13 V 315.65 h -30.000001 z"
         style="fill:url(#linearGradient10233);fill-opacity:1;stroke-width:1.00000012"
         sodipodi:nodetypes="ccccccc" />
      <path
         id="rect11549-7"
         d="m -8,301.64825 c -0.5540329,0 -0.9999998,0.44594 -0.9999998,0.99999 v 8.00001 c 0,0.554 0.4459669,0.99999 0.9999998,0.99999 h 8 c 0.554033,0 1,-0.44599 1,-0.99999 v -2.58595 l 3.292969,3.29298 C 4.922964,311.98484 5.99965,311.53897 6,310.64825 v -8.00001 c 1.84e-4,-0.56391 -0.465631,-1.01647 -1.029297,-0.99999 -0.255008,0.008 -0.49746,0.11263 -0.677734,0.29291 L 1,305.23415 v -2.58595 c 0,-0.55404 -0.445967,-0.99999 -1,-0.99999 z"
         style="opacity:1;fill:#358bd9;fill-opacity:1;stroke:none;stroke-width:1.99999988;stroke-linecap:round;stroke-linejoin:round;stroke-miterlimit:4;stroke-dasharray:none;stroke-opacity:1"
         inkscape:connector-curvature="0" />
      <path
         inkscape:connector-curvature="0"
         id="rect11549"
         d="m -8.0000003,300.6483 c -0.554033,0 -0.9999998,0.44595 -0.9999998,0.99999 v 8.00001 c 0,0.554 0.4459668,0.99999 0.9999998,0.99999 H -1e-6 C 0.554032,310.64829 1,310.2023 1,309.6483 v -2.58595 l 3.292968,3.29295 c 0.629995,0.62955 1.706681,0.18368 1.707031,-0.707 v -8.00001 c 1.84e-4,-0.56391 -0.465631,-1.01647 -1.029297,-0.99999 -0.255008,0.008 -0.49746,0.11263 -0.677734,0.29291 L 1,304.2342 v -2.58595 C 1,301.09421 0.554032,300.64826 -1e-6,300.64826 Z"
         style="opacity:1;fill:url(#linearGradient11619);fill-opacity:1;stroke:none;stroke-width:1.99999988;stroke-linecap:round;stroke-linejoin:round;stroke-miterlimit:4;stroke-dasharray:none;stroke-opacity:1" />
    </g>
  </g>
</svg>
