<?xml version="1.0" encoding="UTF-8" standalone="no"?>
<!-- Created with Inkscape (http://www.inkscape.org/) -->

<svg
   xmlns:dc="http://purl.org/dc/elements/1.1/"
   xmlns:cc="http://creativecommons.org/ns#"
   xmlns:rdf="http://www.w3.org/1999/02/22-rdf-syntax-ns#"
   xmlns:svg="http://www.w3.org/2000/svg"
   xmlns="http://www.w3.org/2000/svg"
   xmlns:xlink="http://www.w3.org/1999/xlink"
   xmlns:sodipodi="http://sodipodi.sourceforge.net/DTD/sodipodi-0.dtd"
   xmlns:inkscape="http://www.inkscape.org/namespaces/inkscape"
   width="32"
   height="32"
   viewBox="0 0 32 32"
   version="1.1"
   id="svg8"
   inkscape:version="0.92.3 (2405546, 2018-03-11)"
   sodipodi:docname="kuyen.svg">
  <title
     id="title7895">Antu icon Theme</title>
  <defs
     id="defs2">
    <linearGradient
       gradientTransform="translate(10)"
       inkscape:collect="always"
       xlink:href="#a-0"
       id="linearGradient956"
       x1="16"
       y1="312.64999"
       x2="16"
       y2="285.64999"
       gradientUnits="userSpaceOnUse" />
    <linearGradient
       y2="287.64999"
       y1="304.64999"
       x2="27"
       x1="27"
       gradientUnits="userSpaceOnUse"
       id="b"
       gradientTransform="translate(-11.543946,1.96094)">
      <stop
         id="stop10"
         stop-color="#9bd4e3"
         offset="0" />
      <stop
         id="stop12"
         stop-color="#f7fafc"
         offset="1" />
    </linearGradient>
    <linearGradient
       y2="372.65002"
       y1="400.64996"
       x2="-96"
       x1="-96"
       gradientUnits="userSpaceOnUse"
       id="a-0"
       gradientTransform="translate(112,-88.00002)">
      <stop
         id="stop5"
         stop-color="#094b71"
         offset="0" />
      <stop
         id="stop7"
         stop-color="#052f47"
         offset="1" />
    </linearGradient>
    <linearGradient
       inkscape:collect="always"
       xlink:href="#b"
       id="linearGradient863"
       x1="26"
       y1="306.64999"
       x2="26"
       y2="289.64999"
       gradientUnits="userSpaceOnUse" />
    <filter
       inkscape:collect="always"
       style="color-interpolation-filters:sRGB"
       id="filter901"
       x="-0.04917134"
       width="1.0983427"
       y="-0.046883168"
       height="1.0937663">
      <feGaussianBlur
         inkscape:collect="always"
         stdDeviation="0.35009771"
         id="feGaussianBlur903" />
    </filter>
  </defs>
  <sodipodi:namedview
     id="base"
     pagecolor="#ffffff"
     bordercolor="#666666"
     borderopacity="1.0"
     inkscape:pageopacity="0.0"
     inkscape:pageshadow="2"
     inkscape:zoom="15.839192"
     inkscape:cx="8.9035318"
     inkscape:cy="6.9850324"
     inkscape:document-units="px"
     inkscape:current-layer="layer1"
     showgrid="true"
     units="px"
     inkscape:window-width="1874"
     inkscape:window-height="1141"
     inkscape:window-x="46"
     inkscape:window-y="30"
     inkscape:window-maximized="1"
     objecttolerance="10"
     gridtolerance="10"
     guidetolerance="10">
    <inkscape:grid
       type="xygrid"
       id="grid7897"
       empspacing="4" />
  </sodipodi:namedview>
  <metadata
     id="metadata5">
    <rdf:RDF>
      <cc:Work
         rdf:about="">
        <dc:format>image/svg+xml</dc:format>
        <dc:type
           rdf:resource="http://purl.org/dc/dcmitype/StillImage" />
        <dc:title>Antu icon Theme</dc:title>
      </cc:Work>
    </rdf:RDF>
  </metadata>
  <g
     inkscape:label="Capa 1"
     inkscape:groupmode="layer"
     id="layer1"
     transform="translate(0,-282.64999)">
    <g
       id="g1468"
       transform="translate(-10)">
      <path
         inkscape:connector-curvature="0"
         id="rect903"
         d="m 26,283.64999 c 8.31,0 15,6.69 15,15 0,8.31 -6.69,15 -15,15 -8.31,0 -15,-6.69 -15,-15 0,-8.31 6.69,-15 15,-15 z"
         style="opacity:1;fill:#042233;fill-opacity:1;stroke:none;stroke-width:1.97685266;stroke-linecap:round;stroke-linejoin:round;stroke-miterlimit:4;stroke-dasharray:none;stroke-opacity:1" />
      <path
         inkscape:connector-curvature="0"
         id="rect903-2"
         d="m 26,284.64999 c 7.756,0 14,6.244 14,14 0,7.756 -6.244,14 -14,14 -7.756,0 -14,-6.244 -14,-14 0,-7.756 6.244,-14 14,-14 z"
         style="opacity:1;fill:url(#linearGradient956);fill-opacity:1.0;stroke:none;stroke-width:1.84506249;stroke-linecap:round;stroke-linejoin:round;stroke-miterlimit:4;stroke-dasharray:none;stroke-opacity:1" />
      <path
         inkscape:connector-curvature="0"
         style="opacity:1;fill:#ffffff;fill-opacity:0.63529414;stroke:none;stroke-width:0.85552949;stroke-linecap:round;stroke-linejoin:round;stroke-miterlimit:4;stroke-dasharray:none;stroke-opacity:1;paint-order:stroke markers fill;filter:url(#filter901)"
         d="m 24.912107,289.72811 a 9,9 0 0 0 -7.91211,8.92188 9,9 0 0 0 9,9 9,9 0 0 0 8.087891,-5.07813 9,9 0 0 1 -0.451172,0.0547 9,9 0 0 1 -0.636719,0.0234 9,9 0 0 1 -0.898437,-0.0449 9,9 0 0 1 -0.888671,-0.13476 9,9 0 0 1 -0.873047,-0.22266 9,9 0 0 1 -0.84375,-0.30859 9,9 0 0 1 -0.810547,-0.39063 9,9 0 0 1 -0.767578,-0.4707 9,9 0 0 1 -0.716797,-0.54492 9,9 0 0 1 -0.658203,-0.61328 9,9 0 0 1 -0.59375,-0.67579 9,9 0 0 1 -0.521485,-0.73046 9,9 0 0 1 -0.449218,-0.78125 9,9 0 0 1 -0.367188,-0.82033 9,9 0 0 1 -0.283203,-0.85351 9,9 0 0 1 -0.197266,-0.87891 9,9 0 0 1 -0.107421,-0.89257 9,9 0 0 1 -0.02344,-0.63671 9,9 0 0 1 0.04492,-0.89844 9,9 0 0 1 0.134766,-0.88867 9,9 0 0 1 0.222656,-0.87304 9,9 0 0 1 0.308594,-0.84375 9,9 0 0 1 0.201171,-0.41798 z"
         id="path845-6" />
      <path
         inkscape:connector-curvature="0"
         style="opacity:1;fill:url(#linearGradient863);fill-opacity:1;stroke:none;stroke-width:0.85552949;stroke-linecap:round;stroke-linejoin:round;stroke-miterlimit:4;stroke-dasharray:none;stroke-opacity:1;paint-order:stroke markers fill"
         d="M 24.912109,289.72811 A 9,9 0 0 0 17,298.64999 a 9,9 0 0 0 9,9 9,9 0 0 0 8.087891,-5.07813 9,9 0 0 1 -0.451172,0.0547 9,9 0 0 1 -0.636719,0.0234 9,9 0 0 1 -0.898438,-0.0449 9,9 0 0 1 -0.888671,-0.13477 9,9 0 0 1 -0.873047,-0.22265 9,9 0 0 1 -0.84375,-0.3086 9,9 0 0 1 -0.810547,-0.39062 9,9 0 0 1 -0.767578,-0.47071 9,9 0 0 1 -0.716797,-0.54492 9,9 0 0 1 -0.658203,-0.61328 9,9 0 0 1 -0.59375,-0.67578 9,9 0 0 1 -0.521485,-0.73047 9,9 0 0 1 -0.449218,-0.78125 9,9 0 0 1 -0.367188,-0.82031 9,9 0 0 1 -0.283203,-0.85352 9,9 0 0 1 -0.197266,-0.8789 A 9,9 0 0 1 24.023438,294.2867 9,9 0 0 1 24,293.64999 a 9,9 0 0 1 0.04492,-0.89844 9,9 0 0 1 0.134766,-0.88867 9,9 0 0 1 0.222656,-0.87305 9,9 0 0 1 0.308594,-0.84375 9,9 0 0 1 0.201171,-0.41797 z"
         id="path845" />
    </g>
  </g>
</svg>
