<?xml version="1.0" encoding="UTF-8" standalone="no"?>
<!-- Created with Inkscape (http://www.inkscape.org/) -->

<svg
   xmlns:dc="http://purl.org/dc/elements/1.1/"
   xmlns:cc="http://creativecommons.org/ns#"
   xmlns:rdf="http://www.w3.org/1999/02/22-rdf-syntax-ns#"
   xmlns:svg="http://www.w3.org/2000/svg"
   xmlns="http://www.w3.org/2000/svg"
   xmlns:xlink="http://www.w3.org/1999/xlink"
   xmlns:sodipodi="http://sodipodi.sourceforge.net/DTD/sodipodi-0.dtd"
   xmlns:inkscape="http://www.inkscape.org/namespaces/inkscape"
   width="32"
   height="32"
   viewBox="0 0 32 32"
   version="1.1"
   id="svg8"
   inkscape:version="0.92.1 r"
   sodipodi:docname="folder-sound.svg">
  <title
     id="title7895">Antu icon Theme</title>
  <defs
     id="defs2">
    <linearGradient
       gradientTransform="matrix(3.7795275,0,0,3.7795275,-19,289.64994)"
       inkscape:collect="always"
       xlink:href="#linearGradient10239"
       id="linearGradient10241"
       x1="1.8520881"
       y1="2.3812332"
       x2="1.8520881"
       y2="0.79373336"
       gradientUnits="userSpaceOnUse" />
    <linearGradient
       inkscape:collect="always"
       id="linearGradient10239">
      <stop
         style="stop-color:#348be7;stop-opacity:1"
         offset="0"
         id="stop10235" />
      <stop
         style="stop-color:#3997f1;stop-opacity:1"
         offset="1"
         id="stop10237" />
    </linearGradient>
    <linearGradient
       gradientTransform="matrix(3.7795275,0,0,3.7795275,-19,289.64994)"
       inkscape:collect="always"
       xlink:href="#linearGradient10231"
       id="linearGradient10233"
       x1="4.7625046"
       y1="7.6729002"
       x2="4.7625046"
       y2="1.5874833"
       gradientUnits="userSpaceOnUse" />
    <linearGradient
       inkscape:collect="always"
       id="linearGradient10231">
      <stop
         style="stop-color:#3e9ff4;stop-opacity:1"
         offset="0"
         id="stop10227" />
      <stop
         style="stop-color:#50c2f9;stop-opacity:1"
         offset="1"
         id="stop10229" />
    </linearGradient>
    <linearGradient
       gradientTransform="matrix(3.7795275,0,0,3.7795275,-23.625,-804.2804)"
       inkscape:collect="always"
       xlink:href="#linearGradient4547"
       id="linearGradient9304"
       x1="5.1924481"
       y1="295.78574"
       x2="5.1924481"
       y2="293.40448"
       gradientUnits="userSpaceOnUse" />
    <linearGradient
       id="linearGradient4547"
       inkscape:collect="always">
      <stop
         id="stop4543"
         offset="0"
         style="stop-color:#c3f7f9;stop-opacity:1" />
      <stop
         id="stop4545"
         offset="1"
         style="stop-color:#e5fafb;stop-opacity:1" />
    </linearGradient>
  </defs>
  <sodipodi:namedview
     id="base"
     pagecolor="#ffffff"
     bordercolor="#666666"
     borderopacity="1.0"
     inkscape:pageopacity="0.0"
     inkscape:pageshadow="2"
     inkscape:zoom="5.6"
     inkscape:cx="-0.45255452"
     inkscape:cy="1.5781543"
     inkscape:document-units="px"
     inkscape:current-layer="layer1"
     showgrid="true"
     units="px"
     inkscape:window-width="1366"
     inkscape:window-height="697"
     inkscape:window-x="0"
     inkscape:window-y="0"
     inkscape:window-maximized="1"
     objecttolerance="10"
     gridtolerance="10"
     guidetolerance="10">
    <inkscape:grid
       type="xygrid"
       id="grid7897"
       empspacing="4" />
  </sodipodi:namedview>
  <metadata
     id="metadata5">
    <rdf:RDF>
      <cc:Work
         rdf:about="">
        <dc:format>image/svg+xml</dc:format>
        <dc:type
           rdf:resource="http://purl.org/dc/dcmitype/StillImage" />
        <dc:title>Antu icon Theme</dc:title>
      </cc:Work>
    </rdf:RDF>
  </metadata>
  <g
     inkscape:label="Capa 1"
     inkscape:groupmode="layer"
     id="layer1"
     transform="translate(0,-282.64999)">
    <g
       id="g9944"
       transform="translate(19,-7.000005)">
      <path
         sodipodi:nodetypes="ccccccc"
         inkscape:connector-curvature="0"
         id="path13-6-7-64-1-3-02-8-0"
         d="m -18,292.64999 h 12 l 3,6 H 12.000001 V 318.65 H -18 Z"
         style="fill:url(#linearGradient10241);fill-opacity:1;stroke-width:1.00000012" />
      <path
         sodipodi:nodetypes="ssssssssccsccccccc"
         inkscape:connector-curvature="0"
         style="fill:#3182d9;fill-opacity:1;stroke-width:1.00000012"
         id="path13-6-3-1-3-0-7-7"
         d="m -18,291.65 c -0.55401,0 -1,0.44598 -1,0.99999 V 318.65 c 0,0.554 0.44599,0.99999 1,0.99999 H 12.000001 C 12.55401,319.64999 13,319.204 13,318.65 v -20.00001 c 0,-0.55401 -0.450268,-1.0687 -0.999999,-0.99999 H -2 l -3,-6 z m 0,0.99999 h 12 l 3,6 H 12.000001 V 318.65 H -18 Z" />
      <path
         sodipodi:nodetypes="sssssscsccsccccccc"
         inkscape:connector-curvature="0"
         style="fill:#3182d9;fill-opacity:1;stroke-width:1.00000012"
         id="path13-0-0-9-9-8"
         d="m -17.999949,298.64999 c -0.55401,0 -0.999998,0.44602 -1,1.00002 L -19,318.65 c -2e-6,0.554 0.44599,0.99999 1,0.99999 H 12.000001 C 12.55401,319.64999 13,319.204 13,318.65 v -23.00001 c 0,0 0,-0.99999 -0.999999,-0.99999 H -4 l -1.999948,4.00003 z m 0,1.00002 H -4.999948 L -3,295.64999 H 12.000001 V 318.65 H -18 Z" />
      <path
         inkscape:connector-curvature="0"
         id="path13-5-2-9-4-2-6"
         d="m -17.999949,299.65001 h 13 l 1.999948,-4.00002 H 12 V 318.65 h -30.000001 z"
         style="fill:url(#linearGradient10233);fill-opacity:1;stroke-width:1.00000012"
         sodipodi:nodetypes="ccccccc" />
      <path
         id="rect4689"
         d="m 3,300.65006 -5,2 v 3 1 2.55078 c -0.589552,-0.34167 -1.266971,-0.55078 -2,-0.55078 -2.216,0 -4,1.78403 -4,4 0,2.21601 1.784,4 4,4 2.216,0 4,-1.78399 4,-4 v -5 -1.80078 l 3,-1.19922 z"
         style="opacity:1;fill:#358bd9;fill-opacity:1;stroke:none;stroke-width:1;stroke-opacity:1"
         inkscape:connector-curvature="0" />
      <path
         id="rect4689-9"
         d="m 3,299.65001 -5,2.00001 v 3 0.99999 2.5508 c -0.589552,-0.34166 -1.266971,-0.55079 -2,-0.55079 -2.216,0 -4,1.78402 -4,3.99999 0,2.21601 1.784,4.00003 4,4.00003 2.216,0 4,-1.78402 4,-4.00003 V 306.65 304.84924 L 3,303.65 Z"
         style="opacity:1;fill:url(#linearGradient9304);fill-opacity:1;stroke:none;stroke-width:1;stroke-opacity:1"
         inkscape:connector-curvature="0" />
    </g>
  </g>
</svg>
