<?xml version="1.0" encoding="UTF-8" standalone="no"?>
<!-- Created with Inkscape (http://www.inkscape.org/) -->

<svg
   xmlns:dc="http://purl.org/dc/elements/1.1/"
   xmlns:cc="http://creativecommons.org/ns#"
   xmlns:rdf="http://www.w3.org/1999/02/22-rdf-syntax-ns#"
   xmlns:svg="http://www.w3.org/2000/svg"
   xmlns="http://www.w3.org/2000/svg"
   xmlns:xlink="http://www.w3.org/1999/xlink"
   xmlns:sodipodi="http://sodipodi.sourceforge.net/DTD/sodipodi-0.dtd"
   xmlns:inkscape="http://www.inkscape.org/namespaces/inkscape"
   width="32"
   height="32"
   viewBox="0 0 32 32"
   version="1.1"
   id="svg8"
   inkscape:version="0.92.4 5da689c313, 2019-01-14"
   sodipodi:docname="mageia.svg">
  <title
     id="title7895">Antu icon Theme</title>
  <defs
     id="defs2">
    <style
       id="current-color-scheme"
       type="text/css">
      .ColorScheme-Text {
        color:#122036;
      }
      </style>
    <linearGradient
       inkscape:collect="always"
       xlink:href="#linearGradient1266"
       id="linearGradient1268"
       x1="6.0000014"
       y1="317.64999"
       x2="6.0000014"
       y2="291.64999"
       gradientUnits="userSpaceOnUse" />
    <linearGradient
       inkscape:collect="always"
       id="linearGradient1266">
      <stop
         style="stop-color:#0081b7;stop-opacity:1"
         offset="0"
         id="stop1262" />
      <stop
         style="stop-color:#00a4e8;stop-opacity:1"
         offset="1"
         id="stop1264" />
    </linearGradient>
  </defs>
  <sodipodi:namedview
     id="base"
     pagecolor="#ffffff"
     bordercolor="#666666"
     borderopacity="1.0"
     inkscape:pageopacity="0.0"
     inkscape:pageshadow="2"
     inkscape:zoom="8"
     inkscape:cx="-20.58178"
     inkscape:cy="17.40147"
     inkscape:document-units="px"
     inkscape:current-layer="layer1"
     showgrid="true"
     units="px"
     inkscape:window-width="1870"
     inkscape:window-height="1141"
     inkscape:window-x="50"
     inkscape:window-y="30"
     inkscape:window-maximized="1"
     objecttolerance="10"
     gridtolerance="10"
     guidetolerance="10"
     inkscape:snap-bbox="true"
     inkscape:bbox-nodes="true"
     showborder="true"
     inkscape:showpageshadow="false">
    <inkscape:grid
       type="xygrid"
       id="grid7897"
       empspacing="4" />
  </sodipodi:namedview>
  <metadata
     id="metadata5">
    <rdf:RDF>
      <cc:Work
         rdf:about="">
        <dc:format>image/svg+xml</dc:format>
        <dc:type
           rdf:resource="http://purl.org/dc/dcmitype/StillImage" />
        <dc:title>Antu icon Theme</dc:title>
      </cc:Work>
    </rdf:RDF>
  </metadata>
  <g
     inkscape:label="Capa 1"
     inkscape:groupmode="layer"
     id="layer1"
     transform="translate(0,-282.64999)">
    <g
       id="g856"
       transform="translate(-46,-43.999984)">
      <g
         inkscape:label="Capa 1"
         id="layer1-2"
         transform="translate(46,43.999984)">
        <g
           id="g1574"
           transform="translate(10,-6)">
          <path
             inkscape:connector-curvature="0"
             id="rect903"
             d="m 6,289.64999 c 8.31,0 15,6.69 15,15 0,8.31 -6.69,15 -15,15 -8.31,0 -15,-6.69 -15,-15 0,-8.31 6.69,-15 15,-15 z"
             style="opacity:1;fill:#006b98;fill-opacity:1;stroke:none;stroke-width:1.97685266;stroke-linecap:round;stroke-linejoin:round;stroke-miterlimit:4;stroke-dasharray:none;stroke-opacity:1" />
          <path
             inkscape:connector-curvature="0"
             id="rect903-2"
             d="m 6,290.64999 c 7.756,0 14,6.244 14,14 0,7.756 -6.244,14 -14,14 -7.756,0 -14,-6.244 -14,-14 0,-7.756 6.244,-14 14,-14 z"
             style="opacity:1;fill:url(#linearGradient1268);fill-opacity:1;stroke:none;stroke-width:1.84506249;stroke-linecap:round;stroke-linejoin:round;stroke-miterlimit:4;stroke-dasharray:none;stroke-opacity:1" />
        </g>
      </g>
      <path
         id="path932"
         d="m 61.5,332.64999 c -0.277,0 -0.5,0.223 -0.5,0.5 0,0.277 0.223,0.5 0.5,0.5 0.277,0 0.5,-0.223 0.5,-0.5 0,-0.277 -0.223,-0.5 -0.5,-0.5 z m 1.5,1 c -0.554,0 -1,0.446 -1,1 0,0.554 0.446,1 1,1 0.554,0 1,-0.446 1,-1 0,-0.554 -0.446,-1 -1,-1 z m -2,2 c -0.554,0 -1,0.446 -1,1 0,0.554 0.446,1 1,1 0.554,0 1,-0.446 1,-1 0,-0.554 -0.446,-1 -1,-1 z m 2.5,1 c -0.831,0 -1.5,0.669 -1.5,1.5 0,0.831 0.669,1.5 1.5,1.5 0.831,0 1.5,-0.669 1.5,-1.5 0,-0.831 -0.669,-1.5 -1.5,-1.5 z m -3,2 c -0.831,0 -1.5,0.669 -1.5,1.5 0,0.831 0.669,1.5 1.5,1.5 0.831,0 1.5,-0.669 1.5,-1.5 0,-0.831 -0.669,-1.5 -1.5,-1.5 z m -2.82422,3.49805 A 7.0000001,7.0000001 0 0 0 55,347.64999 a 7.0000001,7.0000001 0 0 0 7,7 7.0000001,7.0000001 0 0 0 7,-7 7.0000001,7.0000001 0 0 0 -2.67773,-5.49609 4.9999999,4.9999999 0 0 1 -0.19532,0.31836 4.9999999,4.9999999 0 0 1 -0.30273,0.39843 4.9999999,4.9999999 0 0 1 -0.33984,0.36524 4.9999999,4.9999999 0 0 1 -0.37696,0.33008 4.9999999,4.9999999 0 0 1 -0.40625,0.29101 4.9999999,4.9999999 0 0 1 -0.43359,0.25 4.9999999,4.9999999 0 0 1 -0.45508,0.20313 4.9999999,4.9999999 0 0 1 -0.47461,0.1582 4.9999999,4.9999999 0 0 1 -0.48828,0.10937 4.9999999,4.9999999 0 0 1 -0.49609,0.0605 4.9999999,4.9999999 0 0 1 -0.35352,0.0117 4.9999999,4.9999999 0 0 1 -0.5,-0.0254 4.9999999,4.9999999 0 0 1 -0.49414,-0.0742 4.9999999,4.9999999 0 0 1 -0.48438,-0.12305 4.9999999,4.9999999 0 0 1 -0.46875,-0.17187 4.9999999,4.9999999 0 0 1 -0.44921,-0.2168 4.9999999,4.9999999 0 0 1 -0.42579,-0.26172 4.9999999,4.9999999 0 0 1 -0.39843,-0.30273 4.9999999,4.9999999 0 0 1 -0.36524,-0.33985 4.9999999,4.9999999 0 0 1 -0.33008,-0.37695 4.9999999,4.9999999 0 0 1 -0.29101,-0.40625 4.9999999,4.9999999 0 0 1 -0.11719,-0.20312 z"
         style="fill:#006b98;fill-opacity:1;stroke:none;stroke-width:2.15384626;stroke-linecap:round;stroke-linejoin:round;stroke-miterlimit:4;stroke-dasharray:none;stroke-opacity:1"
         inkscape:connector-curvature="0" />
      <path
         id="path932-3"
         d="m 61.499998,331.65 c -0.277002,0 -0.500002,0.22299 -0.500002,0.49999 0,0.27704 0.222993,0.49999 0.500002,0.49999 0.277001,0 0.499997,-0.22299 0.499997,-0.49999 0,-0.27704 -0.222992,-0.49999 -0.499997,-0.49999 z m 1.5,0.99998 c -0.554,0 -1.000003,0.44603 -1.000003,1.00003 0,0.554 0.446003,0.99999 1.000003,0.99999 0.553999,0 0.999998,-0.44599 0.999998,-0.99999 0,-0.554 -0.445999,-1.00003 -0.999998,-1.00003 z M 60.999996,334.65 c -0.553999,0 -0.999998,0.44598 -0.999998,0.99998 0,0.55401 0.445999,1.00003 0.999998,1.00003 0.554,0 0.999999,-0.44602 0.999999,-1.00003 0,-0.554 -0.445999,-0.99998 -0.999999,-0.99998 z m 2.499999,0.99998 c -0.830997,0 -1.5,0.66902 -1.5,1.50002 0,0.83101 0.669003,1.49998 1.5,1.49998 0.831001,0 1.5,-0.66897 1.5,-1.49998 0,-0.831 -0.668999,-1.50002 -1.5,-1.50002 z m -3,2.00002 c -0.830997,0 -1.5,0.66901 -1.5,1.49998 0,0.831 0.669003,1.50002 1.5,1.50002 0.831001,0 1.5,-0.66902 1.5,-1.50002 0,-0.83097 -0.668999,-1.49998 -1.5,-1.49998 z m -2.824218,3.49803 a 6.9999999,6.9999999 0 0 0 -2.675781,5.50197 6.9999999,6.9999999 0 0 0 6.999999,6.99998 6.9999999,6.9999999 0 0 0 7.000003,-6.99998 6.9999999,6.9999999 0 0 0 -2.677731,-5.49608 4.9999998,4.9999998 0 0 1 -0.195326,0.31824 4.9999998,4.9999998 0 0 1 -0.30274,0.39843 4.9999998,4.9999998 0 0 1 -0.339856,0.36511 4.9999998,4.9999998 0 0 1 -0.37697,0.32995 4.9999998,4.9999998 0 0 1 -0.40625,0.29102 4.9999998,4.9999998 0 0 1 -0.433591,0.24983 4.9999998,4.9999998 0 0 1 -0.455078,0.20296 4.9999998,4.9999998 0 0 1 -0.47461,0.15836 4.9999998,4.9999998 0 0 1 -0.488281,0.10923 4.9999998,4.9999998 0 0 1 -0.496089,0.0605 4.9999998,4.9999998 0 0 1 -0.353537,0.0113 4.9999998,4.9999998 0 0 1 -0.500002,-0.0265 4.9999998,4.9999998 0 0 1 -0.494139,-0.0741 4.9999998,4.9999998 0 0 1 -0.48438,-0.12321 4.9999998,4.9999998 0 0 1 -0.468749,-0.17197 4.9999998,4.9999998 0 0 1 -0.449212,-0.21694 4.9999998,4.9999998 0 0 1 -0.42579,-0.26155 4.9999998,4.9999998 0 0 1 -0.39843,-0.30274 4.9999998,4.9999998 0 0 1 -0.365254,-0.33978 4.9999998,4.9999998 0 0 1 -0.330066,-0.37682 4.9999998,4.9999998 0 0 1 -0.291024,-0.40626 4.9999998,4.9999998 0 0 1 -0.117203,-0.20334 z"
         style="fill:#d9eff9;fill-opacity:1;stroke:none;stroke-width:2.15384603;stroke-linecap:round;stroke-linejoin:round;stroke-miterlimit:4;stroke-dasharray:none;stroke-opacity:1"
         inkscape:connector-curvature="0" />
    </g>
  </g>
</svg>
