<?xml version="1.0" encoding="UTF-8" standalone="no"?>
<!-- Created with Inkscape (http://www.inkscape.org/) -->

<svg
   xmlns:dc="http://purl.org/dc/elements/1.1/"
   xmlns:cc="http://creativecommons.org/ns#"
   xmlns:rdf="http://www.w3.org/1999/02/22-rdf-syntax-ns#"
   xmlns:svg="http://www.w3.org/2000/svg"
   xmlns="http://www.w3.org/2000/svg"
   xmlns:xlink="http://www.w3.org/1999/xlink"
   xmlns:sodipodi="http://sodipodi.sourceforge.net/DTD/sodipodi-0.dtd"
   xmlns:inkscape="http://www.inkscape.org/namespaces/inkscape"
   width="32"
   height="32"
   viewBox="0 0 32 32"
   version="1.1"
   id="svg8"
   inkscape:version="0.91 r13725"
   sodipodi:docname="manjaro.svg">
  <title
     id="title7895">Antu icon Theme</title>
  <defs
     id="defs2">
    <linearGradient
       gradientTransform="translate(-10,6)"
       inkscape:collect="always"
       xlink:href="#0"
       id="linearGradient956"
       x1="16"
       y1="312.64999"
       x2="16"
       y2="285.64999"
       gradientUnits="userSpaceOnUse" />
    <linearGradient
       id="linearGradient4157"
       gradientUnits="userSpaceOnUse"
       y2="517.8"
       x2="0"
       y1="545.8">
      <stop
         id="stop4159"
         stop-color="#3889e9" />
      <stop
         id="stop4161"
         stop-color="#5ea5fb"
         offset="1" />
    </linearGradient>
    <linearGradient
       y2="518.14"
       x2="0"
       y1="545.14"
       gradientUnits="userSpaceOnUse"
       id="0">
      <stop
         id="stop4164"
         stop-color="#00a661" />
      <stop
         id="stop4166"
         stop-color="#37ce97"
         offset="1" />
    </linearGradient>
    <linearGradient
       id="linearGradient4168"
       gradientUnits="userSpaceOnUse"
       y2="1015.56"
       x2="23.12"
       y1="1043.02"
       x1="25.425">
      <stop
         id="stop4170"
         stop-color="#dfe2e3" />
      <stop
         id="stop4172"
         stop-color="#fdfdfe"
         offset="1" />
    </linearGradient>
  </defs>
  <sodipodi:namedview
     id="base"
     pagecolor="#ffffff"
     bordercolor="#666666"
     borderopacity="1.0"
     inkscape:pageopacity="0.0"
     inkscape:pageshadow="2"
     inkscape:zoom="32"
     inkscape:cx="15.993015"
     inkscape:cy="17.129024"
     inkscape:document-units="px"
     inkscape:current-layer="g4174"
     showgrid="true"
     units="px"
     inkscape:window-width="1360"
     inkscape:window-height="697"
     inkscape:window-x="0"
     inkscape:window-y="0"
     inkscape:window-maximized="1"
     objecttolerance="10"
     gridtolerance="10"
     guidetolerance="10"
     inkscape:snap-bbox="true"
     inkscape:bbox-nodes="true">
    <inkscape:grid
       type="xygrid"
       id="grid7897"
       empspacing="4" />
  </sodipodi:namedview>
  <metadata
     id="metadata5">
    <rdf:RDF>
      <cc:Work
         rdf:about="">
        <dc:format>image/svg+xml</dc:format>
        <dc:type
           rdf:resource="http://purl.org/dc/dcmitype/StillImage" />
        <dc:title>Antu icon Theme</dc:title>
      </cc:Work>
    </rdf:RDF>
  </metadata>
  <g
     inkscape:label="Capa 1"
     inkscape:groupmode="layer"
     id="layer1"
     transform="translate(0,-282.64999)">
    <g
       id="g1574"
       transform="translate(10,-6)">
      <path
         inkscape:connector-curvature="0"
         id="rect903"
         d="m 6,289.64999 c 8.31,0 15,6.69 15,15 0,8.31 -6.69,15 -15,15 -8.31,0 -15,-6.69 -15,-15 0,-8.31 6.69,-15 15,-15 z"
         style="opacity:1;fill:#008c52;fill-opacity:1;stroke:none;stroke-width:1.97685266;stroke-linecap:round;stroke-linejoin:round;stroke-miterlimit:4;stroke-dasharray:none;stroke-opacity:1" />
      <path
         inkscape:connector-curvature="0"
         id="rect903-2"
         d="m 6,290.64999 c 7.756,0 14,6.244 14,14 0,7.756 -6.244,14 -14,14 -7.756,0 -14,-6.244 -14,-14 0,-7.756 6.244,-14 14,-14 z"
         style="opacity:1;fill:url(#linearGradient956);fill-opacity:1.0;stroke:none;stroke-width:1.84506249;stroke-linecap:round;stroke-linejoin:round;stroke-miterlimit:4;stroke-dasharray:none;stroke-opacity:1" />
      <g
         id="g4174"
         transform="matrix(0.64505808,0,0,0.64505808,-292.30764,-22.234876)">
        <path
           style="opacity:1;fill:#008c52;fill-opacity:1;stroke:none;stroke-width:2;stroke-linecap:round;stroke-linejoin:round;stroke-miterlimit:4;stroke-dasharray:none;stroke-opacity:1"
           d="m 451.59909,497.45112 0,9.30149 6.20099,0 0,-3.10049 7.75124,0 0,-6.201 -7.75124,0 -6.20099,0 z m 15.50248,0 0,23.25372 6.20099,0 0,-23.25372 -6.20099,0 z m -7.75124,7.75124 0,15.50248 6.20099,0 0,-15.50248 -6.20099,0 z m -7.75124,3.1005 0,12.40198 6.20099,0 0,-12.40198 -6.20099,0 z"
           id="rect4213"
           inkscape:connector-curvature="0" />
        <path
           style="opacity:1;fill:#edfaf5;fill-opacity:1;stroke:none;stroke-width:2;stroke-linecap:round;stroke-linejoin:round;stroke-miterlimit:4;stroke-dasharray:none;stroke-opacity:1"
           d="m 451.59909,495.90087 0,9.30149 6.20099,0 0,-3.10049 7.75125,0 0,-6.201 -7.75125,0 -6.20099,0 z m 15.50249,0 0,23.25372 6.20099,0 0,-23.25372 -6.20099,0 z m -7.75124,7.75124 0,15.50248 6.20099,0 0,-15.50248 -6.20099,0 z m -7.75125,3.1005 0,12.40198 6.20099,0 0,-12.40198 -6.20099,0 z"
           id="rect4213-6"
           inkscape:connector-curvature="0" />
      </g>
    </g>
  </g>
</svg>
