<?xml version="1.0" encoding="UTF-8" standalone="no"?>
<!-- Created with Inkscape (http://www.inkscape.org/) -->

<svg
   width="32"
   height="32"
   viewBox="0 0 32 32"
   version="1.1"
   id="svg8"
   inkscape:version="1.2 (dc2aedaf03, 2022-05-15)"
   sodipodi:docname="ubuntu.svg"
   xmlns:inkscape="http://www.inkscape.org/namespaces/inkscape"
   xmlns:sodipodi="http://sodipodi.sourceforge.net/DTD/sodipodi-0.dtd"
   xmlns:xlink="http://www.w3.org/1999/xlink"
   xmlns="http://www.w3.org/2000/svg"
   xmlns:svg="http://www.w3.org/2000/svg"
   xmlns:rdf="http://www.w3.org/1999/02/22-rdf-syntax-ns#"
   xmlns:cc="http://creativecommons.org/ns#"
   xmlns:dc="http://purl.org/dc/elements/1.1/">
  <title
     id="title7895">Antu icon Theme</title>
  <defs
     id="defs2">
    <style
       id="current-color-scheme"
       type="text/css">
      .ColorScheme-Text {
        color:#122036;
      }
      </style>
    <style
       type="text/css"
       id="current-color-scheme-53">
      .ColorScheme-Text {
        color:#122036;
      }
      </style>
    <style
       id="current-color-scheme-5"
       type="text/css">
      .ColorScheme-Text {
        color:#122036;
      }
      </style>
    <style
       id="current-color-scheme-2"
       type="text/css">
      .ColorScheme-Text {
        color:#122036;
      }
      </style>
    <style
       id="current-color-scheme-1"
       type="text/css">
      .ColorScheme-Text {
        color:#122036;
      }
      </style>
    <style
       type="text/css"
       id="current-color-scheme-10">
      .ColorScheme-Text {
        color:#122036;
      }
      </style>
    <style
       id="current-color-scheme-0"
       type="text/css">
      .ColorScheme-Text {
        color:#122036;
      }
      </style>
    <style
       id="current-color-scheme-26"
       type="text/css">
      .ColorScheme-Text {
        color:#122036;
      }
      </style>
    <style
       id="current-color-scheme-6"
       type="text/css">
      .ColorScheme-Text {
        color:#122036;
      }
      </style>
    <style
       type="text/css"
       id="current-color-scheme-53-7">
      .ColorScheme-Text {
        color:#122036;
      }
      </style>
    <style
       id="current-color-scheme-5-5"
       type="text/css">
      .ColorScheme-Text {
        color:#122036;
      }
      </style>
    <style
       id="current-color-scheme-2-3"
       type="text/css">
      .ColorScheme-Text {
        color:#122036;
      }
      </style>
    <style
       id="current-color-scheme-1-5"
       type="text/css">
      .ColorScheme-Text {
        color:#122036;
      }
      </style>
    <style
       type="text/css"
       id="current-color-scheme-10-6">
      .ColorScheme-Text {
        color:#122036;
      }
      </style>
    <style
       id="current-color-scheme-0-2"
       type="text/css">
      .ColorScheme-Text {
        color:#122036;
      }
      </style>
    <style
       id="current-color-scheme-67"
       type="text/css">
      .ColorScheme-Text {
        color:#122036;
      }
      </style>
    <linearGradient
       gradientTransform="translate(23,-18)"
       inkscape:collect="always"
       xlink:href="#linearGradient4622"
       id="linearGradient1082"
       x1="-5"
       y1="317.64999"
       x2="-5"
       y2="289.64999"
       gradientUnits="userSpaceOnUse" />
    <linearGradient
       inkscape:collect="always"
       id="linearGradient4622">
      <stop
         style="stop-color:#ff6a3e;stop-opacity:1"
         offset="0"
         id="stop4618" />
      <stop
         style="stop-color:#ff9065;stop-opacity:1"
         offset="1"
         id="stop4620" />
    </linearGradient>
  </defs>
  <sodipodi:namedview
     id="base"
     pagecolor="#ffffff"
     bordercolor="#666666"
     borderopacity="1.0"
     inkscape:pageopacity="0.0"
     inkscape:pageshadow="2"
     inkscape:zoom="31.678384"
     inkscape:cx="25.032843"
     inkscape:cy="14.284188"
     inkscape:document-units="px"
     inkscape:current-layer="layer1"
     showgrid="true"
     units="px"
     inkscape:window-width="2160"
     inkscape:window-height="1337"
     inkscape:window-x="0"
     inkscape:window-y="0"
     inkscape:window-maximized="1"
     objecttolerance="10"
     gridtolerance="10"
     guidetolerance="10"
     inkscape:snap-bbox="true"
     inkscape:bbox-paths="true"
     inkscape:bbox-nodes="true"
     inkscape:snap-bbox-edge-midpoints="true"
     inkscape:snap-bbox-midpoints="true"
     inkscape:object-paths="true"
     inkscape:snap-intersection-paths="true"
     inkscape:showpageshadow="2"
     inkscape:pagecheckerboard="0"
     inkscape:deskcolor="#d1d1d1">
    <inkscape:grid
       type="xygrid"
       id="grid7897"
       empspacing="4" />
  </sodipodi:namedview>
  <metadata
     id="metadata5">
    <rdf:RDF>
      <cc:Work
         rdf:about="">
        <dc:format>image/svg+xml</dc:format>
        <dc:type
           rdf:resource="http://purl.org/dc/dcmitype/StillImage" />
        <dc:title>Antu icon Theme</dc:title>
      </cc:Work>
    </rdf:RDF>
  </metadata>
  <g
     inkscape:label="Capa 1"
     inkscape:groupmode="layer"
     id="layer1"
     transform="translate(0,-282.64999)">
    <g
       id="g863"
       transform="translate(-2,13)">
      <path
         inkscape:connector-curvature="0"
         id="rect903-3"
         d="m 18,270.64999 c 8.31,0 15,6.69 15,15 0,8.31 -6.69,15 -15,15 -8.31,0 -15,-6.69 -15,-15 0,-8.31 6.69,-15 15,-15 z"
         style="opacity:1;fill:#df4f26;fill-opacity:1;stroke:none;stroke-width:1.97685266;stroke-linecap:round;stroke-linejoin:round;stroke-miterlimit:4;stroke-dasharray:none;stroke-opacity:1" />
      <path
         inkscape:connector-curvature="0"
         id="rect903-2-6"
         d="m 18,271.64999 c 7.756,0 14,6.244 14,14 0,7.756 -6.244,14 -14,14 -7.756,0 -14,-6.244 -14,-14 0,-7.756 6.244,-14 14,-14 z"
         style="opacity:1;fill:url(#linearGradient1082);fill-opacity:1;stroke:none;stroke-width:1.84506249;stroke-linecap:round;stroke-linejoin:round;stroke-miterlimit:4;stroke-dasharray:none;stroke-opacity:1" />
    </g>
    <path
       id="path1216"
       style="fill:#df4f26;fill-opacity:1;stroke-width:1.86097;stroke-linecap:round;stroke-linejoin:round"
       d="m 16,289.64999 a 10,10 0 0 0 -9.8789062,8.48633 4,4 0 0 1 0.1425781,-0.0898 A 4,4 0 0 1 7.109375,297.7496 4,4 0 0 1 8,297.64999 a 4,4 0 0 1 0.3144531,0.0117 4,4 0 0 1 0.3105469,0.0371 4,4 0 0 1 0.3085938,0.0625 4,4 0 0 1 0.3027343,0.084 4,4 0 0 1 0.025391,0.01 A 7,7 0 0 1 16,292.64999 a 4,4 0 0 1 0.09961,-0.89062 4,4 0 0 1 0.296875,-0.84571 4,4 0 0 1 0.476563,-0.75781 4,4 0 0 1 0.419922,-0.41992 A 10,10 0 0 0 16,289.64999 Z m 4,0 a 3,3 0 0 0 -3,3 3,3 0 0 0 3,3 3,3 0 0 0 3,-3 3,3 0 0 0 -3,-3 z m 3.902344,3.87695 a 4,4 0 0 1 -0.002,0.0137 4,4 0 0 1 -0.296875,0.8457 4,4 0 0 1 -0.476563,0.75781 4,4 0 0 1 -0.632812,0.63281 4,4 0 0 1 -0.476563,0.30078 7,7 0 0 1 0.982422,3.57227 7,7 0 0 1 -0.791016,3.1875 4,4 0 0 1 0.02734,0.008 4,4 0 0 1 0.294922,0.10938 4,4 0 0 1 0.285156,0.13086 4,4 0 0 1 0.273438,0.15429 4,4 0 0 1 0.261718,0.17383 4,4 0 0 1 0.246094,0.19531 4,4 0 0 1 0.230469,0.2129 4,4 0 0 1 0.212891,0.23046 4,4 0 0 1 0.195312,0.2461 4,4 0 0 1 0.173828,0.26172 4,4 0 0 1 0.138672,0.24609 A 10,10 0 0 0 26,299.64999 10,10 0 0 0 23.902344,293.52694 Z M 8,298.64999 a 3,3 0 0 0 -3,3 3,3 0 0 0 3,3 3,3 0 0 0 3,-3 3,3 0 0 0 -3,-3 z m 13,5 a 3,3 0 0 0 -3,3 3,3 0 0 0 3,3 3,3 0 0 0 3,-3 3,3 0 0 0 -3,-3 z m -10.121094,0.74219 a 4,4 0 0 1 -0.384765,0.38476 4,4 0 0 1 -0.7578129,0.47657 4,4 0 0 1 -0.8457031,0.29687 4,4 0 0 1 -0.8613281,0.0957 A 10,10 0 0 0 16,309.64999 a 10,10 0 0 0 2.125,-0.25391 4,4 0 0 1 -0.251953,-0.25195 4,4 0 0 1 -0.476563,-0.75781 4,4 0 0 1 -0.296875,-0.8457 A 4,4 0 0 1 17,306.64999 4,4 0 0 1 17.009766,306.5621 7,7 0 0 1 16,306.64999 7,7 0 0 1 10.878906,304.39218 Z" />
    <path
       id="path1216-2"
       style="fill:#fefefe;fill-opacity:1;stroke-width:1.86097;stroke-linecap:round;stroke-linejoin:round"
       d="m 16,288.64999 a 10,10 0 0 0 -9.878906,8.48633 4,4 0 0 1 0.142578,-0.0899 A 4,4 0 0 1 7.109375,296.7496 4,4 0 0 1 8,296.65 a 4,4 0 0 1 0.314453,0.0117 4,4 0 0 1 0.310547,0.0371 4,4 0 0 1 0.308594,0.0625 4,4 0 0 1 0.302734,0.084 4,4 0 0 1 0.02539,0.01 7,7 0 0 1 6.738281,-5.2053 4,4 0 0 1 0.09961,-0.89062 4,4 0 0 1 0.296875,-0.84571 4,4 0 0 1 0.476563,-0.75781 4,4 0 0 1 0.419922,-0.41992 A 10,10 0 0 0 16,288.64999 Z m 4,0 a 3,3 0 0 0 -3,3 3,3 0 0 0 3,3 3,3 0 0 0 3,-3 3,3 0 0 0 -3,-3 z m 3.902344,3.87695 a 4,4 0 0 1 -0.002,0.0137 4,4 0 0 1 -0.296875,0.8457 4,4 0 0 1 -0.476563,0.75781 4,4 0 0 1 -0.632812,0.63281 4,4 0 0 1 -0.476563,0.30078 7,7 0 0 1 0.982422,3.57227 7,7 0 0 1 -0.791016,3.1875 4,4 0 0 1 0.02734,0.008 4,4 0 0 1 0.294922,0.10938 4,4 0 0 1 0.285156,0.13086 4,4 0 0 1 0.273438,0.15429 4,4 0 0 1 0.261718,0.17383 4,4 0 0 1 0.246094,0.19531 4,4 0 0 1 0.230469,0.2129 4,4 0 0 1 0.212891,0.23046 4,4 0 0 1 0.195312,0.2461 4,4 0 0 1 0.173828,0.26172 4,4 0 0 1 0.138672,0.24609 A 10,10 0 0 0 26,298.64999 10,10 0 0 0 23.902344,292.52694 Z M 8,297.64999 a 3,3 0 0 0 -3,3 3,3 0 0 0 3,3 3,3 0 0 0 3,-3 3,3 0 0 0 -3,-3 z m 13,5 a 3,3 0 0 0 -3,3 3,3 0 0 0 3,3 3,3 0 0 0 3,-3 3,3 0 0 0 -3,-3 z m -10.121094,0.74219 a 4,4 0 0 1 -0.384765,0.38476 4,4 0 0 1 -0.757813,0.47657 4,4 0 0 1 -0.845703,0.29687 4,4 0 0 1 -0.861328,0.0957 10,10 0 0 0 7.970703,4.00391 10,10 0 0 0 2.125,-0.25391 4,4 0 0 1 -0.251953,-0.25195 4,4 0 0 1 -0.476563,-0.75781 4,4 0 0 1 -0.296875,-0.8457 A 4,4 0 0 1 17,305.64999 4,4 0 0 1 17.009766,305.5621 7,7 0 0 1 16,305.64999 7,7 0 0 1 10.878906,303.39218 Z" />
  </g>
</svg>
