<?xml version="1.0" encoding="UTF-8" standalone="no"?>
<!-- Created with Inkscape (http://www.inkscape.org/) -->

<svg
   xmlns:dc="http://purl.org/dc/elements/1.1/"
   xmlns:cc="http://creativecommons.org/ns#"
   xmlns:rdf="http://www.w3.org/1999/02/22-rdf-syntax-ns#"
   xmlns:svg="http://www.w3.org/2000/svg"
   xmlns="http://www.w3.org/2000/svg"
   xmlns:xlink="http://www.w3.org/1999/xlink"
   xmlns:sodipodi="http://sodipodi.sourceforge.net/DTD/sodipodi-0.dtd"
   xmlns:inkscape="http://www.inkscape.org/namespaces/inkscape"
   width="32"
   height="32"
   viewBox="0 0 32 32"
   version="1.1"
   id="svg8"
   inkscape:version="0.92.1 r"
   sodipodi:docname="user-trash.svg">
  <title
     id="title7895">Antu icon Theme</title>
  <defs
     id="defs2">
    <linearGradient
       gradientTransform="matrix(3.7795275,0,0,3.7795275,-12,-799.86961)"
       inkscape:collect="always"
       xlink:href="#linearGradient4795"
       id="linearGradient4732-6"
       x1="3.175"
       y1="294.88333"
       x2="3.175"
       y2="293.56039"
       gradientUnits="userSpaceOnUse" />
    <linearGradient
       id="linearGradient4795"
       inkscape:collect="always">
      <stop
         id="stop4791"
         offset="0"
         style="stop-color:#455466;stop-opacity:0.5" />
      <stop
         id="stop4793"
         offset="1"
         style="stop-color:#3c4a59;stop-opacity:1" />
    </linearGradient>
    <linearGradient
       gradientTransform="matrix(3.7795275,0,0,3.7795275,-17,-799.86951)"
       inkscape:collect="always"
       xlink:href="#linearGradient4795"
       id="linearGradient4732-7"
       x1="3.175"
       y1="294.88333"
       x2="3.175"
       y2="293.56039"
       gradientUnits="userSpaceOnUse" />
    <linearGradient
       inkscape:collect="always"
       xlink:href="#linearGradient4795"
       id="linearGradient4732"
       x1="3.175"
       y1="294.88333"
       x2="3.175"
       y2="293.56039"
       gradientUnits="userSpaceOnUse"
       gradientTransform="matrix(3.7795275,0,0,3.7795275,-22,-799.86961)" />
    <linearGradient
       gradientTransform="translate(-21,290.64999)"
       inkscape:collect="always"
       xlink:href="#linearGradient4702"
       id="linearGradient4704"
       x1="16"
       y1="28"
       x2="16"
       y2="12"
       gradientUnits="userSpaceOnUse" />
    <linearGradient
       inkscape:collect="always"
       id="linearGradient4702">
      <stop
         style="stop-color:#505d67;stop-opacity:1"
         offset="0"
         id="stop4698" />
      <stop
         style="stop-color:#5f717f;stop-opacity:1"
         offset="1"
         id="stop4700" />
    </linearGradient>
    <linearGradient
       gradientTransform="translate(-21,290.64999)"
       inkscape:collect="always"
       xlink:href="#linearGradient4719"
       id="linearGradient4721"
       x1="16"
       y1="6"
       x2="16"
       y2="3"
       gradientUnits="userSpaceOnUse" />
    <linearGradient
       inkscape:collect="always"
       id="linearGradient4719">
      <stop
         style="stop-color:#576671;stop-opacity:1"
         offset="0"
         id="stop4715" />
      <stop
         style="stop-color:#5f717f;stop-opacity:1"
         offset="1"
         id="stop4717" />
    </linearGradient>
    <linearGradient
       gradientTransform="translate(-21,290.64999)"
       inkscape:collect="always"
       xlink:href="#linearGradient4711"
       id="linearGradient4713"
       x1="16"
       y1="10"
       x2="16"
       y2="7"
       gradientUnits="userSpaceOnUse" />
    <linearGradient
       inkscape:collect="always"
       id="linearGradient4711">
      <stop
         style="stop-color:#576772;stop-opacity:1"
         offset="0"
         id="stop4707" />
      <stop
         style="stop-color:#5f717e;stop-opacity:1"
         offset="1"
         id="stop4709" />
    </linearGradient>
  </defs>
  <sodipodi:namedview
     id="base"
     pagecolor="#ffffff"
     bordercolor="#666666"
     borderopacity="1.0"
     inkscape:pageopacity="0.0"
     inkscape:pageshadow="2"
     inkscape:zoom="15.839192"
     inkscape:cx="-4.4321239"
     inkscape:cy="9.8592752"
     inkscape:document-units="px"
     inkscape:current-layer="layer1"
     showgrid="true"
     units="px"
     inkscape:window-width="1366"
     inkscape:window-height="697"
     inkscape:window-x="0"
     inkscape:window-y="0"
     inkscape:window-maximized="1"
     objecttolerance="10"
     gridtolerance="10"
     guidetolerance="10">
    <inkscape:grid
       type="xygrid"
       id="grid7897"
       empspacing="4" />
  </sodipodi:namedview>
  <metadata
     id="metadata5">
    <rdf:RDF>
      <cc:Work
         rdf:about="">
        <dc:format>image/svg+xml</dc:format>
        <dc:type
           rdf:resource="http://purl.org/dc/dcmitype/StillImage" />
        <dc:title>Antu icon Theme</dc:title>
      </cc:Work>
    </rdf:RDF>
  </metadata>
  <g
     inkscape:label="Capa 1"
     inkscape:groupmode="layer"
     id="layer1"
     transform="translate(0,-282.64999)">
    <g
       id="g5475"
       transform="translate(21,-8)">
      <path
         id="rect4605"
         d="m -8.0000001,292.64999 c -1.107972,0 -1.9999999,0.89203 -1.9999999,2 v 2 h -4 c -1.108002,0 -2,0.892 -2,2 v 1 2 h 1 v 1 10 5 c 0,1.66198 1.338023,3 3,3 H 1.9999999 c 1.661976,0 3,-1.33802 3,-3 v -5 -10 -1 h 1 v -2 -1 c 0,-1.108 -0.891998,-2 -2,-2 h -4 v -2 c 0,-1.10797 -0.892028,-2 -2,-2 z m 1,3 h 4 v 1 h -4 z"
         style="opacity:0.98999999;fill:#3c4a59;fill-opacity:1;stroke:none;stroke-width:1.99999988;stroke-linecap:round;stroke-linejoin:round;stroke-miterlimit:4;stroke-dasharray:none;stroke-opacity:1"
         inkscape:connector-curvature="0" />
      <path
         id="rect4632"
         d="m -14,297.64999 c -0.553994,0 -1,0.44601 -1,1 v 1 1 h 1 17.9999999 1 v -1 -1 c 0,-0.55399 -0.446007,-1 -1,-1 z"
         style="opacity:0.98999999;fill:url(#linearGradient4713);fill-opacity:1;stroke:none;stroke-width:1.99999988;stroke-linecap:round;stroke-linejoin:round;stroke-miterlimit:4;stroke-dasharray:none;stroke-opacity:1"
         inkscape:connector-curvature="0" />
      <path
         id="rect4636"
         d="m -14,301.64999 v 2 9 5 c 0,1.108 0.892,2 2,2 H 1.9999999 c 1.108,0 2,-0.892 2,-2 v -5 -9 -2 h -2 H -12 Z"
         style="opacity:0.98999999;fill:url(#linearGradient4704);fill-opacity:1;stroke:none;stroke-width:1.99999988;stroke-linecap:round;stroke-linejoin:round;stroke-miterlimit:4;stroke-dasharray:none;stroke-opacity:1"
         inkscape:connector-curvature="0" />
      <path
         id="rect4640"
         d="m -8.0000001,293.64999 c -0.554027,0 -1,0.44597 -1,1 v 1 1 h 1 v -2 h 6 v 2 h 1 v -1 -1 c 0,-0.55403 -0.445973,-1 -1,-1 z"
         style="opacity:0.98999999;fill:url(#linearGradient4721);fill-opacity:1;stroke:none;stroke-width:1.99999988;stroke-linecap:round;stroke-linejoin:round;stroke-miterlimit:4;stroke-dasharray:none;stroke-opacity:1"
         inkscape:connector-curvature="0" />
      <path
         inkscape:connector-curvature="0"
         id="rect4675"
         d="m -10,304.65002 c 0.554,0 1.0000001,0.44598 1.0000001,0.99999 v 9.99998 c 0,0.55401 -0.4460001,1.00003 -1.0000001,1.00003 -0.554,0 -1,-0.44602 -1,-1.00003 v -9.99998 c 0,-0.55401 0.446,-0.99999 1,-0.99999 z"
         style="opacity:0.98999999;fill:url(#linearGradient4732);fill-opacity:1;stroke:none;stroke-width:1.99999988;stroke-linecap:round;stroke-linejoin:round;stroke-miterlimit:4;stroke-dasharray:none;stroke-opacity:1" />
      <path
         id="rect4675-3"
         d="m -5.0000001,304.65002 c 0.554,0 1,0.44598 1,0.99999 v 9.99998 c 0,0.55401 -0.446,1.00003 -1,1.00003 -0.554,0 -1.0000006,-0.44602 -1.0000006,-1.00003 v -9.99998 c 0,-0.55401 0.4460006,-0.99999 1.0000006,-0.99999 z"
         style="opacity:0.98999999;fill:url(#linearGradient4732-7);fill-opacity:1;stroke:none;stroke-width:1.99999988;stroke-linecap:round;stroke-linejoin:round;stroke-miterlimit:4;stroke-dasharray:none;stroke-opacity:1"
         inkscape:connector-curvature="0" />
      <path
         id="rect4675-26"
         d="m -1e-7,304.65002 c 0.554,0 1,0.44598 1,0.99999 v 9.99998 c 0,0.55401 -0.446,1.00003 -1,1.00003 -0.554,0 -1,-0.44602 -1,-1.00003 v -9.99998 c 0,-0.55401 0.446,-0.99999 1,-0.99999 z"
         style="opacity:0.98999999;fill:url(#linearGradient4732-6);fill-opacity:1;stroke:none;stroke-width:1.99999988;stroke-linecap:round;stroke-linejoin:round;stroke-miterlimit:4;stroke-dasharray:none;stroke-opacity:1"
         inkscape:connector-curvature="0" />
    </g>
  </g>
</svg>
