<?xml version="1.0" encoding="UTF-8" standalone="no"?>
<!-- Created with Inkscape (http://www.inkscape.org/) -->

<svg
   width="32"
   height="32"
   viewBox="0 0 32 32"
   version="1.1"
   id="svg8"
   inkscape:version="1.2 (dc2aedaf03, 2022-05-15)"
   sodipodi:docname="windows.svg"
   xmlns:inkscape="http://www.inkscape.org/namespaces/inkscape"
   xmlns:sodipodi="http://sodipodi.sourceforge.net/DTD/sodipodi-0.dtd"
   xmlns:xlink="http://www.w3.org/1999/xlink"
   xmlns="http://www.w3.org/2000/svg"
   xmlns:svg="http://www.w3.org/2000/svg"
   xmlns:rdf="http://www.w3.org/1999/02/22-rdf-syntax-ns#"
   xmlns:cc="http://creativecommons.org/ns#"
   xmlns:dc="http://purl.org/dc/elements/1.1/">
  <title
     id="title7895">Antu icon Theme</title>
  <defs
     id="defs2">
    <style
       id="current-color-scheme"
       type="text/css">
      .ColorScheme-Text {
        color:#122036;
      }
      </style>
    <linearGradient
       inkscape:collect="always"
       id="linearGradient4902">
      <stop
         style="stop-color:#0d72ec;stop-opacity:1"
         offset="0"
         id="stop4898" />
      <stop
         style="stop-color:#36b2fb;stop-opacity:1"
         offset="1"
         id="stop4900" />
    </linearGradient>
    <linearGradient
       inkscape:collect="always"
       xlink:href="#linearGradient4902"
       id="linearGradient879"
       x1="6"
       y1="318.64999"
       x2="6"
       y2="290.64999"
       gradientUnits="userSpaceOnUse" />
  </defs>
  <sodipodi:namedview
     id="base"
     pagecolor="#ffffff"
     bordercolor="#666666"
     borderopacity="1.0"
     inkscape:pageopacity="0.0"
     inkscape:pageshadow="2"
     inkscape:zoom="8"
     inkscape:cx="42"
     inkscape:cy="27.6875"
     inkscape:document-units="px"
     inkscape:current-layer="layer1-6"
     showgrid="true"
     units="px"
     inkscape:window-width="2160"
     inkscape:window-height="1337"
     inkscape:window-x="0"
     inkscape:window-y="0"
     inkscape:window-maximized="1"
     objecttolerance="10"
     gridtolerance="10"
     guidetolerance="10"
     inkscape:snap-bbox="true"
     inkscape:bbox-nodes="true"
     showborder="true"
     inkscape:showpageshadow="false"
     inkscape:pagecheckerboard="0"
     inkscape:deskcolor="#d1d1d1">
    <inkscape:grid
       type="xygrid"
       id="grid7897"
       empspacing="4" />
  </sodipodi:namedview>
  <metadata
     id="metadata5">
    <rdf:RDF>
      <cc:Work
         rdf:about="">
        <dc:format>image/svg+xml</dc:format>
        <dc:type
           rdf:resource="http://purl.org/dc/dcmitype/StillImage" />
        <dc:title>Antu icon Theme</dc:title>
      </cc:Work>
    </rdf:RDF>
  </metadata>
  <g
     inkscape:label="Capa 1"
     inkscape:groupmode="layer"
     id="layer1"
     transform="translate(0,-282.64999)">
    <g
       id="g1574"
       transform="translate(10,-6)">
      <path
         inkscape:connector-curvature="0"
         id="rect903"
         d="m 6,289.64999 c 8.31,0 15,6.69 15,15 0,8.31 -6.69,15 -15,15 -8.31,0 -15,-6.69 -15,-15 0,-8.31 6.69,-15 15,-15 z"
         style="opacity:1;fill:#1d63b4;fill-opacity:1;stroke:none;stroke-width:1.97685266;stroke-linecap:round;stroke-linejoin:round;stroke-miterlimit:4;stroke-dasharray:none;stroke-opacity:1" />
      <path
         inkscape:connector-curvature="0"
         id="rect903-2"
         d="m 6,290.64999 c 7.756,0 14,6.244 14,14 0,7.756 -6.244,14 -14,14 -7.756,0 -14,-6.244 -14,-14 0,-7.756 6.244,-14 14,-14 z"
         style="opacity:1;fill:url(#linearGradient879);fill-opacity:1;stroke:none;stroke-width:1.84506249;stroke-linecap:round;stroke-linejoin:round;stroke-miterlimit:4;stroke-dasharray:none;stroke-opacity:1" />
    </g>
    <g
       style="fill:#f37d5c;fill-opacity:1"
       inkscape:label="Capa 1"
       id="layer1-3"
       transform="matrix(3.7795275,0,0,3.7795275,-3.870769e-8,-806.86961)" />
    <g
       id="layer1-6"
       inkscape:label="Capa 1">
      <g
         transform="translate(-26.3125,-24.6875)"
         id="g24" />
      <g
         transform="translate(0,-0.99997)"
         id="g825" />
      <path
         id="rect2640-6"
         style="fill:#1d63b4;fill-opacity:1;stroke-width:2;stroke-linecap:round;stroke-linejoin:round"
         d="m 8,291.64999 v 7 h 7 v -7 z m 9,0 v 7 h 7 v -7 z m -9,9 v 7 h 7 v -7 z m 9,0 v 7 h 7 v -7 z" />
      <path
         id="rect2640"
         style="fill:#f1f9ff;fill-opacity:1;stroke-width:2;stroke-linecap:round;stroke-linejoin:round"
         d="M 8 290.64999 L 8 297.64999 L 15 297.64999 L 15 290.64999 L 8 290.64999 z M 17 290.64999 L 17 297.64999 L 24 297.64999 L 24 290.64999 L 17 290.64999 z M 8 299.64999 L 8 306.64999 L 15 306.64999 L 15 299.64999 L 8 299.64999 z M 17 299.64999 L 17 306.64999 L 24 306.64999 L 24 299.64999 L 17 299.64999 z " />
    </g>
  </g>
</svg>
