<?xml version="1.0" encoding="UTF-8" standalone="no"?>
<!-- Created with Inkscape (http://www.inkscape.org/) -->

<svg
   width="128"
   height="128"
   viewBox="0 0 128 128"
   version="1.1"
   id="svg8"
   inkscape:version="1.2 (dc2aedaf03, 2022-05-15)"
   sodipodi:docname="system-file-manager.svg"
   xml:space="preserve"
   xmlns:inkscape="http://www.inkscape.org/namespaces/inkscape"
   xmlns:sodipodi="http://sodipodi.sourceforge.net/DTD/sodipodi-0.dtd"
   xmlns:xlink="http://www.w3.org/1999/xlink"
   xmlns="http://www.w3.org/2000/svg"
   xmlns:svg="http://www.w3.org/2000/svg"
   xmlns:rdf="http://www.w3.org/1999/02/22-rdf-syntax-ns#"
   xmlns:cc="http://creativecommons.org/ns#"
   xmlns:dc="http://purl.org/dc/elements/1.1/"><title
     id="title7895">Antu icon Theme</title><defs
     id="defs2"><style
       id="current-color-scheme"
       type="text/css">
      .ColorScheme-Text {
        color:#122036;
      }
      </style><style
       id="current-color-scheme-1"
       type="text/css">
      .ColorScheme-Text {
        color:#122036;
      }
      </style><style
       type="text/css"
       id="current-color-scheme-10">
      .ColorScheme-Text {
        color:#122036;
      }
      </style><style
       type="text/css"
       id="current-color-scheme-5">
      .ColorScheme-Text {
        color:#122036;
      }
      </style><style
       type="text/css"
       id="current-color-scheme-1-2">
      .ColorScheme-Text {
        color:#122036;
      }
      </style><style
       id="current-color-scheme-10-9"
       type="text/css">
      .ColorScheme-Text {
        color:#122036;
      }
      </style><style
       type="text/css"
       id="current-color-scheme-56">
      .ColorScheme-Text {
        color:#122036;
      }
      </style><style
       type="text/css"
       id="current-color-scheme-1-29">
      .ColorScheme-Text {
        color:#122036;
      }
      </style><style
       id="current-color-scheme-10-1"
       type="text/css">
      .ColorScheme-Text {
        color:#122036;
      }
      </style><style
       id="current-color-scheme-5-2"
       type="text/css">
      .ColorScheme-Text {
        color:#122036;
      }
      </style><style
       id="current-color-scheme-1-2-7"
       type="text/css">
      .ColorScheme-Text {
        color:#122036;
      }
      </style><style
       type="text/css"
       id="current-color-scheme-10-9-0">
      .ColorScheme-Text {
        color:#122036;
      }
      </style><linearGradient
       inkscape:collect="always"
       id="linearGradient5912"><stop
         style="stop-color:#4d94f5;stop-opacity:1;"
         offset="0"
         id="stop5908" /><stop
         style="stop-color:#61c3ff;stop-opacity:1;"
         offset="1"
         id="stop5910" /></linearGradient><linearGradient
       inkscape:collect="always"
       id="linearGradient5283"><stop
         style="stop-color:#7282a1;stop-opacity:1;"
         offset="0"
         id="stop5279" /><stop
         style="stop-color:#5e6a88;stop-opacity:1;"
         offset="1"
         id="stop5281" /></linearGradient><linearGradient
       inkscape:collect="always"
       xlink:href="#linearGradient5283"
       id="linearGradient5285"
       x1="3.968751"
       y1="6.6145825"
       x2="3.968751"
       y2="-1.0583341"
       gradientUnits="userSpaceOnUse" /><linearGradient
       inkscape:collect="always"
       xlink:href="#linearGradient5912"
       id="linearGradient5914"
       x1="14.552084"
       y1="31.749998"
       x2="14.552084"
       y2="3.968749"
       gradientUnits="userSpaceOnUse" /></defs><sodipodi:namedview
     id="base"
     pagecolor="#ffffff"
     bordercolor="#666666"
     borderopacity="1.0"
     inkscape:pageopacity="0.0"
     inkscape:pageshadow="2"
     inkscape:zoom="4"
     inkscape:cx="138.25"
     inkscape:cy="35.375"
     inkscape:document-units="px"
     inkscape:current-layer="layer1"
     showgrid="true"
     units="px"
     inkscape:window-width="2160"
     inkscape:window-height="1337"
     inkscape:window-x="0"
     inkscape:window-y="0"
     inkscape:window-maximized="1"
     objecttolerance="10"
     gridtolerance="10"
     guidetolerance="10"
     inkscape:showpageshadow="2"
     inkscape:pagecheckerboard="0"
     inkscape:deskcolor="#d1d1d1"><inkscape:grid
       type="xygrid"
       id="grid7897"
       empspacing="4" /></sodipodi:namedview><metadata
     id="metadata5"><rdf:RDF><cc:Work
         rdf:about=""><dc:format>image/svg+xml</dc:format><dc:type
           rdf:resource="http://purl.org/dc/dcmitype/StillImage" /><dc:title>Antu icon Theme</dc:title></cc:Work></rdf:RDF></metadata><g
     inkscape:label="Capa 1"
     inkscape:groupmode="layer"
     id="layer1"
     transform="translate(0,-186.64999)"><g
       id="g707"
       transform="matrix(3.7795276,0,0,3.7795276,9.999997,196.64999)"><path
         d="m 0.79375195,-1.3229175 c -1.75437153,0 -3.17499965,1.42063295 -3.17499965,3.1750008 V 26.722917 c 0,1.754373 1.42062812,3.175001 3.17499965,3.175001 H 27.781249 c 1.75437,0 3.175,-1.420628 3.175,-3.175001 V 6.0854176 c 0,-1.7543678 -1.42063,-3.1750007 -3.175,-3.1750007 h -12.96458 c -0.516918,0 -0.945646,-0.2236471 -1.377177,-0.5968631 C 13.00796,1.9403377 12.591495,1.4206536 12.141896,0.88779851 11.242698,-0.17791695 10.171761,-1.3229175 8.4666688,-1.3229175 Z"
         style="color:#000000;font-style:normal;font-variant:normal;font-weight:normal;font-stretch:normal;font-size:medium;line-height:normal;font-family:sans-serif;font-variant-ligatures:normal;font-variant-position:normal;font-variant-caps:normal;font-variant-numeric:normal;font-variant-alternates:normal;font-variant-east-asian:normal;font-feature-settings:normal;font-variation-settings:normal;text-indent:0;text-align:start;text-decoration:none;text-decoration-line:none;text-decoration-style:solid;text-decoration-color:#000000;letter-spacing:normal;word-spacing:normal;text-transform:none;writing-mode:lr-tb;direction:ltr;text-orientation:mixed;dominant-baseline:auto;baseline-shift:baseline;text-anchor:start;white-space:normal;shape-padding:0;shape-margin:0;inline-size:0;clip-rule:nonzero;display:inline;overflow:visible;visibility:visible;isolation:auto;mix-blend-mode:normal;color-interpolation:sRGB;color-interpolation-filters:linearRGB;solid-color:#000000;solid-opacity:1;fill:#353c4b;fill-opacity:1;fill-rule:nonzero;stroke:none;stroke-width:0.529167;stroke-linecap:butt;stroke-linejoin:miter;stroke-miterlimit:4;stroke-dasharray:none;stroke-dashoffset:0;stroke-opacity:1;color-rendering:auto;image-rendering:auto;shape-rendering:auto;text-rendering:auto;enable-background:accumulate;stop-color:#000000"
         id="path1242"
         sodipodi:nodetypes="sssssssssssss" /><path
         id="rect1149-4-0"
         style="fill:url(#linearGradient5285);fill-opacity:1;stroke-width:0.264583"
         d="m 0.79375195,-1.0583341 7.67291895,5.3e-6 c 3.1750001,0 3.9687501,4.2333343 6.3500001,4.2333343 l 12.964581,-5.2e-6 c 1.61237,0 2.910414,1.2980461 2.910414,2.9104067 v 20.63751 c 0,1.612371 -1.298046,2.910417 -2.910414,2.910417 H 0.79375195 c -1.61236909,0 -2.91041415,-1.298046 -2.91041415,-2.910417 V 1.8520727 c 0,-1.61236592 1.29804506,-2.9104068 2.91041415,-2.9104068 z"
         sodipodi:nodetypes="sccssssssss" /><path
         d="m 27.78125,2.9104116 c 1.754371,0 3.174999,1.4206329 3.174999,3.1750007 V 26.987506 c 0,1.754373 -1.420628,3.175001 -3.174999,3.175001 H 0.79375248 c -1.75436994,0 -3.17500018,-1.420628 -3.17500018,-3.175001 V 10.318752 c 0,-1.7543679 1.42063024,-3.1750008 3.17500018,-3.1750008 H 8.9958324 c 0.5169182,0 0.9456465,-0.2236471 1.3771776,-0.5968631 0.431531,-0.3732161 0.847996,-0.8929002 1.297595,-1.4257553 0.899198,-1.0657154 1.970136,-2.2107159 3.675228,-2.2107159 z"
         style="color:#000000;font-style:normal;font-variant:normal;font-weight:normal;font-stretch:normal;font-size:medium;line-height:normal;font-family:sans-serif;font-variant-ligatures:normal;font-variant-position:normal;font-variant-caps:normal;font-variant-numeric:normal;font-variant-alternates:normal;font-variant-east-asian:normal;font-feature-settings:normal;font-variation-settings:normal;text-indent:0;text-align:start;text-decoration:none;text-decoration-line:none;text-decoration-style:solid;text-decoration-color:#000000;letter-spacing:normal;word-spacing:normal;text-transform:none;writing-mode:lr-tb;direction:ltr;text-orientation:mixed;dominant-baseline:auto;baseline-shift:baseline;text-anchor:start;white-space:normal;shape-padding:0;shape-margin:0;inline-size:0;clip-rule:nonzero;display:inline;overflow:visible;visibility:visible;isolation:auto;mix-blend-mode:normal;color-interpolation:sRGB;color-interpolation-filters:linearRGB;solid-color:#000000;solid-opacity:1;fill:#3b74b2;fill-opacity:1;fill-rule:nonzero;stroke:none;stroke-width:0.529167;stroke-linecap:butt;stroke-linejoin:miter;stroke-miterlimit:4;stroke-dasharray:none;stroke-dashoffset:0;stroke-opacity:1;color-rendering:auto;image-rendering:auto;shape-rendering:auto;text-rendering:auto;enable-background:accumulate;stop-color:#000000"
         id="path1242-2"
         sodipodi:nodetypes="sssssssssssss" /><path
         id="rect1149-4-0-6"
         style="fill:url(#linearGradient5914);fill-opacity:1;stroke-width:0.264583"
         d="m 27.78125,3.174995 -12.435419,5.3e-6 c -3.175,0 -3.96875,4.2333343 -6.3500007,4.2333343 l -8.20208047,-5.3e-6 c -1.61237015,0 -2.91041413,1.2980461 -2.91041413,2.9104067 v 16.66877 c 0,1.612371 1.2980461,2.910417 2.91041413,2.910417 H 27.78125 c 1.612369,0 2.910414,-1.298046 2.910414,-2.910417 V 6.0854017 c 0,-1.6123606 -1.298045,-2.9104067 -2.910414,-2.9104067 z"
         sodipodi:nodetypes="sccssssssss" /></g><g
       id="g5235"
       transform="translate(31.999998,-19.999995)"><g
         transform="matrix(2,0,0,2,-43.999998,-480.64999)"
         id="g1658" /><g
         transform="matrix(2.0000005,0,0,2.0000005,7.999995,-300.65015)"
         id="g6698"><path
           inkscape:connector-curvature="0"
           style="color:#000000;font-style:normal;font-variant:normal;font-weight:normal;font-stretch:normal;font-size:medium;line-height:normal;font-family:sans-serif;font-variant-ligatures:normal;font-variant-position:normal;font-variant-caps:normal;font-variant-numeric:normal;font-variant-alternates:normal;font-feature-settings:normal;text-indent:0;text-align:start;text-decoration:none;text-decoration-line:none;text-decoration-style:solid;text-decoration-color:#000000;letter-spacing:normal;word-spacing:normal;text-transform:none;writing-mode:lr-tb;direction:ltr;text-orientation:mixed;dominant-baseline:auto;baseline-shift:baseline;text-anchor:start;white-space:normal;shape-padding:0;clip-rule:nonzero;display:inline;overflow:visible;visibility:visible;opacity:1;isolation:auto;mix-blend-mode:normal;color-interpolation:sRGB;color-interpolation-filters:linearRGB;solid-color:#000000;solid-opacity:1;vector-effect:none;fill:#3b74b2;fill-opacity:1;fill-rule:nonzero;stroke:none;stroke-width:2;stroke-linecap:butt;stroke-linejoin:miter;stroke-miterlimit:4;stroke-dasharray:none;stroke-dashoffset:0;stroke-opacity:1;color-rendering:auto;image-rendering:auto;shape-rendering:auto;text-rendering:auto;enable-background:accumulate"
           d="m 12.476308,281.64999 a 1.0001,1.0001 0 0 0 -0.71289,0.32422 l -10.99999976,12 a 1.0001,1.0001 0 0 0 0.73632986,1.67578 h 1.9999995 v 9 c 0,0.554 0.4459999,1 0.9999997,1 H 19.499744 c 0.554,0 1,-0.446 1,-1 v -9 h 1.999999 a 1.0001,1.0001 0 0 0 0.767578,-1.64063 l -1.767578,-2.12109 v -0.23828 -3.5 -1.5 c 0,-0.55399 -0.446,-1 -0.999999,-1 h -1 c -0.554,0 -1,0.44601 -1,1 v 1.5 0.13867 l -5.232421,-6.27929 a 1.0001,1.0001 0 0 0 -0.791015,-0.35938 z"
           id="path6023-9" /><path
           inkscape:connector-curvature="0"
           style="color:#000000;font-style:normal;font-variant:normal;font-weight:normal;font-stretch:normal;font-size:medium;line-height:normal;font-family:sans-serif;font-variant-ligatures:normal;font-variant-position:normal;font-variant-caps:normal;font-variant-numeric:normal;font-variant-alternates:normal;font-feature-settings:normal;text-indent:0;text-align:start;text-decoration:none;text-decoration-line:none;text-decoration-style:solid;text-decoration-color:#000000;letter-spacing:normal;word-spacing:normal;text-transform:none;writing-mode:lr-tb;direction:ltr;text-orientation:mixed;dominant-baseline:auto;baseline-shift:baseline;text-anchor:start;white-space:normal;shape-padding:0;clip-rule:nonzero;display:inline;overflow:visible;visibility:visible;opacity:1;isolation:auto;mix-blend-mode:normal;color-interpolation:sRGB;color-interpolation-filters:linearRGB;solid-color:#000000;solid-opacity:1;vector-effect:none;fill:#eaf6ff;fill-opacity:1;fill-rule:nonzero;stroke:none;stroke-width:2;stroke-linecap:butt;stroke-linejoin:miter;stroke-miterlimit:4;stroke-dasharray:none;stroke-dashoffset:0;stroke-opacity:1;color-rendering:auto;image-rendering:auto;shape-rendering:auto;text-rendering:auto;enable-background:accumulate"
           d="m 12.476309,281.14999 a 1.0001,1.0001 0 0 0 -0.71289,0.32422 L 0.76341989,293.4742 a 1.0001,1.0001 0 0 0 0.73632981,1.67578 h 1.9999996 v 9 c 0,0.554 0.4459999,1 0.9999997,1 h 14.999996 c 0.554,0 1,-0.446 1,-1 v -9 h 1.999999 a 1.0001,1.0001 0 0 0 0.767578,-1.64062 l -1.767578,-2.12109 v -0.23829 -1.99999 -3 c 0,-0.55399 -0.445999,-1 -0.999999,-1 h -1 c -0.554,0 -1,0.44601 -1,1 v 1.63867 l -5.232421,-6.2793 a 1.0001,1.0001 0 0 0 -0.791015,-0.35937 z"
           id="path6023" /></g></g></g></svg>
