<svg 
    height="16"
    viewBox="0 0 4.2333332 4.2333335"
    width="16"
    xmlns="http://www.w3.org/2000/svg">
    <defs id="defs2">
    <style
       type="text/css"
       id="current-color-scheme">
      .ColorScheme-Text {
        color:#36404d;
      }
      </style>
    </defs>
    <path
        d="m-.00000004 291.97291c-.1465791 0-.2645833.118-.2645833.26458v.26459h-.2645833a.26460979.26460979 0 0 0 -.1870687.45165l.5291667.52917a.26460979.26460979 0 0 0 .3741373 0l.5291666-.52917a.26460979.26460979 0 0 0 -.1870686-.45165h-.2645833v-.26459c0-.14658-.1180042-.26458-.2645834-.26458zm-1.58749996 1.85208c-.1465792 0-.2645833.11801-.2645833.26459s.1180041.26458.2645833.26458h3.175c.1465792 0 .2645834-.118.2645834-.26458s-.1180042-.26459-.2645834-.26459zm1.59163416.79375a.26460979.26460979 0 0 0 -.1912028.0775l-.5291667.52916a.26460979.26460979 0 0 0 .1870687.45166h.2645833v.26458c0 .14658.1180042.26458.2645833.26458.1465792 0 .2645834-.118.2645834-.26458v-.26458h.2645833a.26460979.26460979 0 0 0 .1870686-.45166l-.5291666-.52914a.26460979.26460979 0 0 0 -.1829345-.0775z" 
        fill="currentColor" 
        transform="translate(2.116667 -291.972898)"
        style="fill:currentColor;fill-opacity:1;stroke:none"
        class="ColorScheme-Text"/>
</svg>
