<svg 
    height="16"
    viewBox="0 0 16 16" 
    width="16" 
    xmlns="http://www.w3.org/2000/svg">
    <defs id="defs2">
    <style
       type="text/css"
       id="current-color-scheme">
      .ColorScheme-Text {
        color:#122036;
      }
      </style>
    </defs>
    <path
        d="m10.970703 2c-.08745.00298-.174124.0174297-.257812.0429688l-10.00000038 3c-.42277697.1267524-.71247518.5156624-.71289062.9570312v3c-.00002584.3787913.21395347.72509.55273438.8945312l1.44726562.7226568v1.382812c.0003798.408699.2494007.776043.6289062.927734l5 2c.6564675.262232 1.3703807-.220829 1.3710938-.927734v-1.611328l1.683594.560547c.647787.215964 1.316718-.26638 1.316406-.949219v-9c.000184-.5639067-.465631-1.0164628-1.029297-1zm3.013672.9863281a1.0001 1.0001 0 0 0 -.984375 1.0136719v7a1.0001 1.0001 0 1 0 2 0v-7a1.0001 1.0001 0 0 0 -1.015625-1.0136719z"
        fill="currentColor"
        style="fill:currentColor;fill-opacity:1;stroke:none"
        class="ColorScheme-Text"/>
</svg>
