<svg 
    height="16"
    viewBox="0 0 4.2333332 4.2333335"
    width="16"
    xmlns="http://www.w3.org/2000/svg">
    <defs id="defs2">
    <style
       type="text/css"
       id="current-color-scheme">
      .ColorScheme-Text {
        color:#36404d;
      }
      </style>
    </defs>
    <path 
        d="m.00413416 293.03124c-.071597-.001-.1405819.0269-.1912028.0775l-.5291667.52916c-.1665701.16669-.048579.45156.1870687.45165h.2645833v.26459c0 .14658.1180042.26458.2645833.26458.1465792 0 .2645834-.118.2645834-.26458v-.26459h.2645832c.2356477-.00009.3536386-.28496.1870686-.45165l-.5291665-.52916c-.048595-.0486-.1142027-.0764-.1829345-.0775zm-1.29811206 1.41542c-.074497-.009-.1535001.0135-.2160075.076l-.5291666.52917c-.050644.0506-.078611.11961-.077515.1912.00108.0687.028896.13434.077515.18294l.5291666.52916c.1666862.16657.4515595.0486.4516521-.18707v-.26458h.26458326c.1465792 0 .2645834-.118.2645834-.26458s-.1180042-.26459-.2645834-.26459h-.26458326v-.26458c-.0000579-.14728-.1114826-.24842-.2356446-.26303zm2.5879557 0c-.1241621.0146-.2355866.11575-.2356445.26303v.26458h-.26458344c-.1465791 0-.2645833.11801-.2645833.26459s.1180042.26458.2645833.26458h.26458344v.26458c.0000926.23565.284966.35364.4516519.18707l.5291667-.52916c.048619-.0486.076419-.11421.077515-.18294.00108-.0716-.02687-.14058-.077515-.1912l-.5291667-.52917c-.062507-.0625-.1415103-.0847-.2160074-.076zm-1.29397784 1.23041c-.1465791 0-.2645833.11801-.2645833.26459v.26458h-.2645833c-.2356476.00009-.3536387.28497-.1870687.45165l.5291667.52917c.050621.0506.1196057.0786.1912028.0775.068732-.001.1343395-.0289.1829345-.0775l.5291665-.52917c.16657-.16668.048579-.45156-.1870686-.45165h-.2645832v-.26458c0-.14658-.1180042-.26459-.2645834-.26459z" fill="currentColor"
        transform="translate(2.116667 -293.031236)"
        style="fill:currentColor;fill-opacity:1;stroke:none"
        class="ColorScheme-Text"/>
</svg>
