<svg 
    height="16" 
    viewBox="0 0 4.2333332 4.2333335"
    width="16"
    xmlns="http://www.w3.org/2000/svg">
    <defs id="defs2">
    <style
       type="text/css"
       id="current-color-scheme">
      .ColorScheme-Text {
        color:#36404d;
      }
      </style>
    </defs>
    <path
        d="m3 1c-1.108 0-2 .8919937-2 2v10c0 1.108006.892 2 2 2h10c1.108 0 2-.891994 2-2v-10c0-1.1080063-.892-2-2-2zm0 4h10v8h-10zm2 1c-.554 0-1 .446-1 1v4c0 .554.446 1 1 1s1-.446 1-1v-4c0-.554-.446-1-1-1zm4.5 0c-1.385 0-2.5 1.115-2.5 2.5v1c0 1.385 1.115 2.5 2.5 2.5s2.5-1.115 2.5-2.5v-1c0-1.385-1.115-2.5-2.5-2.5zm0 2c.2770001 0 .5.2229999.5.5v1c0 .2770001-.2229999.5-.5.5s-.5-.2229999-.5-.5v-1c0-.2770001.2229999-.5.5-.5z"
        fill="currentColor"
        transform="matrix(.26458333 0 0 .26458333 0 .000002)"
        style="fill:currentColor;fill-opacity:1;stroke:none"
        class="ColorScheme-Text"/>
</svg>
