<?xml version="1.0" encoding="UTF-8" standalone="no"?>
<!-- Created with Inkscape (http://www.inkscape.org/) -->

<svg
   xmlns:dc="http://purl.org/dc/elements/1.1/"
   xmlns:cc="http://creativecommons.org/ns#"
   xmlns:rdf="http://www.w3.org/1999/02/22-rdf-syntax-ns#"
   xmlns:svg="http://www.w3.org/2000/svg"
   xmlns="http://www.w3.org/2000/svg"
   xmlns:xlink="http://www.w3.org/1999/xlink"
   xmlns:sodipodi="http://sodipodi.sourceforge.net/DTD/sodipodi-0.dtd"
   xmlns:inkscape="http://www.inkscape.org/namespaces/inkscape"
   width="32"
   height="32"
   viewBox="0 0 32 32"
   version="1.1"
   id="svg8"
   inkscape:version="0.91 r13725"
   sodipodi:docname="security-medium.svg">
  <title
     id="title7895">Antu icon Theme</title>
  <defs
     id="defs2">
    <linearGradient
       gradientTransform="translate(-47,283.64999)"
       gradientUnits="userSpaceOnUse"
       y2="3.9999862"
       x2="16"
       y1="27.999987"
       x1="16"
       id="linearGradient4434-7"
       xlink:href="#linearGradient4627"
       inkscape:collect="always" />
    <linearGradient
       id="linearGradient4627"
       inkscape:collect="always">
      <stop
         id="stop4623"
         offset="0"
         style="stop-color:#ffc900;stop-opacity:1" />
      <stop
         id="stop4625"
         offset="1"
         style="stop-color:#ffe200;stop-opacity:1" />
    </linearGradient>
  </defs>
  <sodipodi:namedview
     id="base"
     pagecolor="#ffffff"
     bordercolor="#666666"
     borderopacity="1.0"
     inkscape:pageopacity="0.0"
     inkscape:pageshadow="2"
     inkscape:zoom="11.313708"
     inkscape:cx="0.28470481"
     inkscape:cy="12.112334"
     inkscape:document-units="px"
     inkscape:current-layer="layer1"
     showgrid="true"
     units="px"
     inkscape:window-width="1360"
     inkscape:window-height="697"
     inkscape:window-x="0"
     inkscape:window-y="0"
     inkscape:window-maximized="1"
     objecttolerance="10"
     gridtolerance="10"
     guidetolerance="10"
     inkscape:snap-bbox="true"
     inkscape:bbox-nodes="true"
     inkscape:showpageshadow="false"
     inkscape:bbox-paths="true"
     inkscape:snap-bbox-edge-midpoints="true"
     inkscape:snap-bbox-midpoints="true"
     inkscape:object-paths="true"
     inkscape:snap-intersection-paths="true"
     inkscape:object-nodes="false"
     inkscape:snap-smooth-nodes="false"
     inkscape:snap-midpoints="false">
    <inkscape:grid
       type="xygrid"
       id="grid7897"
       empspacing="4" />
  </sodipodi:namedview>
  <metadata
     id="metadata5">
    <rdf:RDF>
      <cc:Work
         rdf:about="">
        <dc:format>image/svg+xml</dc:format>
        <dc:type
           rdf:resource="http://purl.org/dc/dcmitype/StillImage" />
        <dc:title>Antu icon Theme</dc:title>
      </cc:Work>
    </rdf:RDF>
  </metadata>
  <g
     inkscape:label="Capa 1"
     inkscape:groupmode="layer"
     id="layer1"
     transform="translate(0,-282.64999)">
    <g
       id="g7210"
       transform="translate(47,0)">
      <path
         inkscape:connector-curvature="0"
         style="opacity:1;fill:#fe9500;fill-opacity:1;stroke:none;stroke-width:2;stroke-linecap:round;stroke-linejoin:round;stroke-miterlimit:4;stroke-dasharray:none;stroke-dashoffset:0;stroke-opacity:1"
         d="m -41,286.64999 c -1.107997,0 -2,0.892 -2,2 l 0,10 c 0,0.0555 0.01123,0.10777 0.01563,0.16211 -0.0029,0.11337 -0.01563,0.22376 -0.01563,0.33789 l 0,1 c 0,6.925 5.351999,12.5 12,12.5 6.648001,0 12,-5.575 12,-12.5 l 0,-1 c 0,-0.11413 -0.01274,-0.22452 -0.01563,-0.33789 0.0044,-0.0543 0.01563,-0.10661 0.01563,-0.16211 l 0,-10 c 0,-1.108 -0.892003,-2 -2,-2 l -10,0 -10,0 z"
         id="rect4187-1" />
      <path
         inkscape:connector-curvature="0"
         style="opacity:1;fill:url(#linearGradient4434-7);fill-opacity:1;stroke:none;stroke-width:2;stroke-linecap:round;stroke-linejoin:round;stroke-miterlimit:4;stroke-dasharray:none;stroke-dashoffset:0;stroke-opacity:1"
         d="m -41,287.64999 c -0.553988,0 -1,0.44601 -1,1 l 0,10.5 0,0.5 0,0.5 c 0,6.371 4.906,11.5 11,11.5 6.094,0 11,-5.129 11,-11.5 l 0,-0.5 0,-0.5 0,-10.5 c 0,-0.55399 -0.446012,-1 -1,-1 l -10,0 -10,0 z"
         id="rect4200-8" />
      <path
         inkscape:connector-curvature="0"
         id="rect5924-9-33"
         d="m -31.000005,307.64998 c -1.107996,0 -1.999998,-0.892 -1.999998,-2 0,-1.108 0.892002,-2 1.999998,-2 1.108002,0 2.000004,0.892 2.000004,2 0,1.108 -0.892002,2 -2.000004,2 z m 0,-6 c -1.107996,0 -1.999998,-0.892 -1.999998,-2 l 0,-3 0,-3 c 0,-1.108 0.892002,-2 1.999998,-2 1.108002,0 2.000004,0.892 2.000004,2 l 0,3 0,3 c 0,1.108 -0.892002,2 -2.000004,2 z"
         style="opacity:1;fill:#fe9807;fill-opacity:1;stroke:none;stroke-width:2;stroke-linecap:round;stroke-linejoin:round;stroke-miterlimit:4;stroke-dasharray:none;stroke-opacity:1"
         sodipodi:nodetypes="ssssssscssscss" />
      <path
         inkscape:connector-curvature="0"
         id="rect5924-9-3-8"
         d="m -31.000005,306.64998 c -1.107996,0 -1.999998,-0.892 -1.999998,-2 0,-1.108 0.892002,-2 1.999998,-2 1.108002,0 2.000004,0.892 2.000004,2 0,1.108 -0.892002,2 -2.000004,2 z m 0,-6 c -1.107996,0 -1.999998,-0.892 -1.999998,-2 l 0,-3 0,-3 c 0,-1.108 0.892002,-2 1.999998,-2 1.108002,0 2.000004,0.892 2.000004,2 l 0,3 0,3 c 0,1.108 -0.892002,2 -2.000004,2 z"
         style="opacity:1;fill:#714500;fill-opacity:1;stroke:none;stroke-width:2;stroke-linecap:round;stroke-linejoin:round;stroke-miterlimit:4;stroke-dasharray:none;stroke-opacity:1"
         sodipodi:nodetypes="ssssssscssscss" />
    </g>
  </g>
</svg>
