<?xml version="1.0" encoding="UTF-8" standalone="no"?>
<!-- Created with Inkscape (http://www.inkscape.org/) -->

<svg
   xmlns:dc="http://purl.org/dc/elements/1.1/"
   xmlns:cc="http://creativecommons.org/ns#"
   xmlns:rdf="http://www.w3.org/1999/02/22-rdf-syntax-ns#"
   xmlns:svg="http://www.w3.org/2000/svg"
   xmlns="http://www.w3.org/2000/svg"
   xmlns:xlink="http://www.w3.org/1999/xlink"
   xmlns:sodipodi="http://sodipodi.sourceforge.net/DTD/sodipodi-0.dtd"
   xmlns:inkscape="http://www.inkscape.org/namespaces/inkscape"
   width="32"
   height="32"
   viewBox="0 0 32 32"
   version="1.1"
   id="svg8"
   inkscape:version="0.91 r13725"
   sodipodi:docname="security-low.svg">
  <title
     id="title7895">Antu icon Theme</title>
  <defs
     id="defs2">
    <linearGradient
       gradientTransform="translate(0,282.64999)"
       gradientUnits="userSpaceOnUse"
       y2="3.9999862"
       x2="16"
       y1="27.999987"
       x1="16"
       id="linearGradient4434-8"
       xlink:href="#linearGradient4582"
       inkscape:collect="always" />
    <linearGradient
       inkscape:collect="always"
       id="linearGradient4582">
      <stop
         style="stop-color:#fc393d;stop-opacity:1"
         offset="0"
         id="stop4578" />
      <stop
         style="stop-color:#fd5238;stop-opacity:1"
         offset="1"
         id="stop4580" />
    </linearGradient>
  </defs>
  <sodipodi:namedview
     id="base"
     pagecolor="#ffffff"
     bordercolor="#666666"
     borderopacity="1.0"
     inkscape:pageopacity="0.0"
     inkscape:pageshadow="2"
     inkscape:zoom="16"
     inkscape:cx="18.301294"
     inkscape:cy="13.822203"
     inkscape:document-units="px"
     inkscape:current-layer="layer1"
     showgrid="true"
     units="px"
     inkscape:window-width="1360"
     inkscape:window-height="697"
     inkscape:window-x="0"
     inkscape:window-y="0"
     inkscape:window-maximized="1"
     objecttolerance="10"
     gridtolerance="10"
     guidetolerance="10"
     inkscape:snap-bbox="true"
     inkscape:bbox-nodes="true"
     inkscape:showpageshadow="false"
     inkscape:bbox-paths="true"
     inkscape:snap-bbox-edge-midpoints="true"
     inkscape:snap-bbox-midpoints="true"
     inkscape:object-paths="true"
     inkscape:snap-intersection-paths="true"
     inkscape:object-nodes="false"
     inkscape:snap-smooth-nodes="false"
     inkscape:snap-midpoints="false">
    <inkscape:grid
       type="xygrid"
       id="grid7897"
       empspacing="4" />
  </sodipodi:namedview>
  <metadata
     id="metadata5">
    <rdf:RDF>
      <cc:Work
         rdf:about="">
        <dc:format>image/svg+xml</dc:format>
        <dc:type
           rdf:resource="http://purl.org/dc/dcmitype/StillImage" />
        <dc:title>Antu icon Theme</dc:title>
      </cc:Work>
    </rdf:RDF>
  </metadata>
  <g
     inkscape:label="Capa 1"
     inkscape:groupmode="layer"
     id="layer1"
     transform="translate(0,-282.64999)">
    <path
       id="rect4187-7"
       d="m 6,285.64999 c -1.108,0 -2,0.892 -2,2 l 0,10 c 0,0.0555 0.0112,0.10777 0.0156,0.16211 C 4.0126,297.92547 4,298.03586 4,298.14999 l 0,1 c 0,6.925 5.351999,12.5 12,12.5 6.648001,0 12,-5.575 12,-12.5 l 0,-1 c 0,-0.11413 -0.01274,-0.22452 -0.01563,-0.33789 C 27.98877,297.7578 28,297.70549 28,297.64999 l 0,-10 c 0,-1.108 -0.892003,-2 -2,-2 l -10,0 -10,0 z"
       style="opacity:1;fill:#b2262c;fill-opacity:1;stroke:none;stroke-width:2;stroke-linecap:round;stroke-linejoin:round;stroke-miterlimit:4;stroke-dasharray:none;stroke-dashoffset:0;stroke-opacity:1"
       inkscape:connector-curvature="0" />
    <path
       id="rect4200-5"
       d="m 6,286.64999 c -0.553988,0 -1,0.44601 -1,1 l 0,10.5 0,0.5 0,0.5 c 0,6.371 4.906,11.5 11,11.5 6.094,0 11,-5.129 11,-11.5 l 0,-0.5 0,-0.5 0,-10.5 c 0,-0.55399 -0.446012,-1 -1,-1 l -10,0 -10,0 z"
       style="opacity:1;fill:url(#linearGradient4434-8);fill-opacity:1;stroke:none;stroke-width:2;stroke-linecap:round;stroke-linejoin:round;stroke-miterlimit:4;stroke-dasharray:none;stroke-dashoffset:0;stroke-opacity:1"
       inkscape:connector-curvature="0" />
    <path
       inkscape:connector-curvature="0"
       style="opacity:1;fill:#fd7a75;fill-opacity:1;stroke:none;stroke-width:2;stroke-linecap:round;stroke-linejoin:round;stroke-miterlimit:4;stroke-dasharray:none;stroke-dashoffset:0;stroke-opacity:1"
       d="m 6,286.64999 c -0.5539979,0 -1,0.446 -1,1 l 0,4 0,7 11,0 0,-6 0,-4 0,-2 -3,0 -7,0 z m 10,12 0,12 c 1.5235,0 2.972156,-0.30617 4.289062,-0.86133 1.316909,-0.55515 2.501969,-1.35939 3.496094,-2.35351 0.994125,-0.99413 1.79836,-2.17919 2.353516,-3.4961 C 26.693828,302.62215 27,301.17349 27,299.64999 l 0,-1 -11,0 z"
       id="rect4146" />
    <path
       inkscape:connector-curvature="0"
       id="path4291"
       d="m 11.000004,291.64998 a 1.9919532,1.9931688 0 0 0 -1.386837,3.42153 l 3.571153,3.57332 -3.571153,3.57332 a 1.9919532,1.9931688 0 1 0 2.816465,2.8182 l 3.571153,-3.57331 3.571152,3.57331 a 1.9919532,1.9931688 0 1 0 2.816465,-2.8182 l -3.571153,-3.57332 3.571153,-3.57332 a 1.9919532,1.9931688 0 0 0 -1.447133,-3.42153 1.9919532,1.9931688 0 0 0 -1.369332,0.60333 l -3.571152,3.57335 -3.571153,-3.57335 a 1.9919532,1.9931688 0 0 0 -1.429629,-0.60333 z"
       style="color:#000000;font-style:normal;font-variant:normal;font-weight:normal;font-stretch:normal;font-size:medium;line-height:normal;font-family:sans-serif;text-indent:0;text-align:start;text-decoration:none;text-decoration-line:none;text-decoration-style:solid;text-decoration-color:#000000;letter-spacing:normal;word-spacing:normal;text-transform:none;direction:ltr;block-progression:tb;writing-mode:lr-tb;baseline-shift:baseline;text-anchor:start;white-space:normal;clip-rule:nonzero;display:inline;overflow:visible;visibility:visible;opacity:1;isolation:auto;mix-blend-mode:normal;color-interpolation:sRGB;color-interpolation-filters:linearRGB;solid-color:#000000;solid-opacity:1;fill:#b2262c;fill-opacity:1;fill-rule:evenodd;stroke:none;stroke-width:6.66666651;stroke-linecap:round;stroke-linejoin:round;stroke-miterlimit:4;stroke-dasharray:none;stroke-dashoffset:0;stroke-opacity:1;color-rendering:auto;image-rendering:auto;shape-rendering:auto;text-rendering:auto;enable-background:accumulate" />
    <path
       inkscape:connector-curvature="0"
       id="path4291-5"
       d="m 11,290.65 a 1.9919533,1.9931688 0 0 0 -1.386837,3.42149 l 3.571153,3.57335 -3.571153,3.57332 a 1.9919533,1.9931688 0 1 0 2.816465,2.8182 l 3.571153,-3.57335 3.571152,3.57335 a 1.9919533,1.9931688 0 1 0 2.816464,-2.8182 l -3.571151,-3.57332 3.571151,-3.57335 a 1.9919533,1.9931688 0 0 0 -1.447131,-3.42149 1.9919533,1.9931688 0 0 0 -1.369333,0.60332 l -3.571152,3.57332 -3.571153,-3.57332 A 1.9919533,1.9931688 0 0 0 11,290.65 Z"
       style="color:#000000;font-style:normal;font-variant:normal;font-weight:normal;font-stretch:normal;font-size:medium;line-height:normal;font-family:sans-serif;text-indent:0;text-align:start;text-decoration:none;text-decoration-line:none;text-decoration-style:solid;text-decoration-color:#000000;letter-spacing:normal;word-spacing:normal;text-transform:none;direction:ltr;block-progression:tb;writing-mode:lr-tb;baseline-shift:baseline;text-anchor:start;white-space:normal;clip-rule:nonzero;display:inline;overflow:visible;visibility:visible;opacity:1;isolation:auto;mix-blend-mode:normal;color-interpolation:sRGB;color-interpolation-filters:linearRGB;solid-color:#000000;solid-opacity:1;fill:#ffffff;fill-opacity:1;fill-rule:evenodd;stroke:none;stroke-width:6.66666651;stroke-linecap:round;stroke-linejoin:round;stroke-miterlimit:4;stroke-dasharray:none;stroke-dashoffset:0;stroke-opacity:1;color-rendering:auto;image-rendering:auto;shape-rendering:auto;text-rendering:auto;enable-background:accumulate" />
  </g>
</svg>
