<?xml version="1.0" encoding="UTF-8" standalone="no"?>
<!-- Created with Inkscape (http://www.inkscape.org/) -->

<svg
   xmlns:dc="http://purl.org/dc/elements/1.1/"
   xmlns:cc="http://creativecommons.org/ns#"
   xmlns:rdf="http://www.w3.org/1999/02/22-rdf-syntax-ns#"
   xmlns:svg="http://www.w3.org/2000/svg"
   xmlns="http://www.w3.org/2000/svg"
   xmlns:xlink="http://www.w3.org/1999/xlink"
   xmlns:sodipodi="http://sodipodi.sourceforge.net/DTD/sodipodi-0.dtd"
   xmlns:inkscape="http://www.inkscape.org/namespaces/inkscape"
   width="32"
   height="32"
   viewBox="0 0 32 32"
   version="1.1"
   id="svg8"
   inkscape:version="0.91 r13725"
   sodipodi:docname="weather-snow-rain.svg">
  <title
     id="title7895">Antu icon Theme</title>
  <defs
     id="defs2">
    <linearGradient
       id="i-84"
       gradientUnits="userSpaceOnUse"
       x1="-96"
       x2="-96"
       y1="401.64999"
       y2="371.64999"
       gradientTransform="translate(24,-84.00003)">
      <stop
         offset="0"
         stop-color="#4c7080"
         id="stop29" />
      <stop
         offset="1"
         stop-color="#263740"
         id="stop31-8" />
    </linearGradient>
    <linearGradient
       id="b-83"
       gradientUnits="userSpaceOnUse"
       x1="-96"
       x2="-96"
       y1="400.64996"
       y2="372.65002"
       gradientTransform="translate(24,-84.00003)">
      <stop
         offset="0"
         stop-color="#6899ae"
         id="stop10-87" />
      <stop
         offset="1"
         stop-color="#3d5866"
         id="stop12-5" />
    </linearGradient>
    <linearGradient
       id="c-41"
       gradientUnits="userSpaceOnUse"
       x1="-96.000137"
       x2="-96"
       y1="387.6499"
       y2="377.64999"
       gradientTransform="translate(24,-84.00003)">
      <stop
         offset="0"
         stop-color="#c2ebfd"
         id="stop15-9" />
      <stop
         offset="1"
         stop-color="#f2fafe"
         id="stop17-57" />
    </linearGradient>
    <linearGradient
       id="e-41"
       gradientUnits="userSpaceOnUse"
       x1="-92"
       x2="-92"
       xlink:href="#a-9"
       y1="393.64996"
       y2="391.64996"
       gradientTransform="translate(24,-84.00003)" />
    <linearGradient
       id="a-9">
      <stop
         offset="0"
         stop-color="#9bd4e3"
         id="stop5-3" />
      <stop
         offset="1"
         stop-color="#f7fafc"
         id="stop7-2" />
    </linearGradient>
    <linearGradient
       id="j-6"
       gradientUnits="userSpaceOnUse"
       x1="-91"
       x2="-90.999863"
       xlink:href="#a-9"
       y1="398.63419"
       y2="395.63416"
       gradientTransform="translate(24,-84.00003)" />
    <linearGradient
       id="f-05"
       gradientUnits="userSpaceOnUse"
       x1="-96.09375"
       x2="-96.09375"
       xlink:href="#a-9"
       y1="399.64993"
       y2="396.64993"
       gradientTransform="translate(24,-84.00003)" />
    <linearGradient
       id="g-2"
       gradientUnits="userSpaceOnUse"
       x1="-102"
       x2="-102"
       xlink:href="#a-9"
       y1="393.64996"
       y2="391.64996"
       gradientTransform="translate(24,-84.00003)" />
    <linearGradient
       gradientTransform="translate(24,-84.00003)"
       id="l"
       gradientUnits="userSpaceOnUse"
       x1="-98"
       x2="-98"
       xlink:href="#a-9"
       y1="395.64999"
       y2="390.64999" />
    <filter
       style="color-interpolation-filters:sRGB"
       id="k-1"
       height="1.1141289"
       width="1.082841"
       x="-0.041420002"
       y="-0.057064999">
      <feGaussianBlur
         stdDeviation=".18984375"
         id="feGaussianBlur35" />
    </filter>
    <filter
       style="color-interpolation-filters:sRGB"
       id="m"
       height="1.168"
       width="1.252"
       x="-0.126"
       y="-0.083999999">
      <feGaussianBlur
         stdDeviation=".21"
         id="feGaussianBlur39" />
    </filter>
    <filter
       style="color-interpolation-filters:sRGB"
       id="h-24"
       height="1.144001"
       width="1.072"
       x="-0.035999998"
       y="-0.071999997">
      <feGaussianBlur
         stdDeviation=".2099995"
         id="feGaussianBlur26-5" />
    </filter>
    <filter
       style="color-interpolation-filters:sRGB"
       id="d-34"
       height="1.12"
       width="1.08"
       x="-0.039999999"
       y="-0.059999999">
      <feGaussianBlur
         stdDeviation=".30000019"
         id="feGaussianBlur20-9" />
    </filter>
  </defs>
  <sodipodi:namedview
     id="base"
     pagecolor="#ffffff"
     bordercolor="#666666"
     borderopacity="1.0"
     inkscape:pageopacity="0.0"
     inkscape:pageshadow="2"
     inkscape:zoom="4"
     inkscape:cx="-64.640476"
     inkscape:cy="0.91466187"
     inkscape:document-units="px"
     inkscape:current-layer="layer1"
     showgrid="true"
     units="px"
     inkscape:window-width="1360"
     inkscape:window-height="697"
     inkscape:window-x="0"
     inkscape:window-y="0"
     inkscape:window-maximized="1"
     objecttolerance="10"
     gridtolerance="10"
     guidetolerance="10"
     inkscape:snap-bbox="true"
     inkscape:bbox-nodes="true"
     inkscape:showpageshadow="false"
     inkscape:bbox-paths="true"
     inkscape:snap-bbox-edge-midpoints="true"
     inkscape:snap-bbox-midpoints="true"
     inkscape:object-paths="true"
     inkscape:snap-intersection-paths="true"
     inkscape:object-nodes="false"
     inkscape:snap-smooth-nodes="false"
     inkscape:snap-midpoints="false">
    <inkscape:grid
       type="xygrid"
       id="grid7897"
       empspacing="4" />
  </sodipodi:namedview>
  <metadata
     id="metadata5">
    <rdf:RDF>
      <cc:Work
         rdf:about="">
        <dc:format>image/svg+xml</dc:format>
        <dc:type
           rdf:resource="http://purl.org/dc/dcmitype/StillImage" />
        <dc:title>Antu icon Theme</dc:title>
      </cc:Work>
    </rdf:RDF>
  </metadata>
  <g
     inkscape:label="Capa 1"
     inkscape:groupmode="layer"
     id="layer1"
     transform="translate(0,-282.64999)">
    <g
       id="g18196"
       transform="translate(88,-3.99997)">
      <path
         id="path43-2"
         d="m -85,287.64996 25.999999,0 c 1.108001,0 2.000001,0.89201 2.000001,2.00001 l 0,25.99998 c 0,1.108 -0.892,2.00001 -2.000001,2.00001 l -25.999999,0 c -1.108,0 -2,-0.89201 -2,-2.00001 l 0,-25.99998 c 0,-1.108 0.892,-2.00001 2,-2.00001 z"
         inkscape:connector-curvature="0"
         style="fill:url(#i-84)" />
      <path
         id="path45-0"
         d="m -85,288.64999 25.999999,0 c 0.554001,0 1.000001,0.44598 1.000001,0.99998 l 0,26.00001 c 0,0.55397 -0.446,0.99999 -1.000001,0.99999 l -25.999999,0 c -0.554,0 -1,-0.44602 -1,-0.99999 l 0,-26.00001 c 0,-0.554 0.446,-0.99998 1,-0.99998 z"
         inkscape:connector-curvature="0"
         style="fill:url(#b-83)" />
      <path
         id="path47-2"
         d="m -78,307.64996 c -0.554,0 -1,0.446 -1,1 0,0.554 0.446,1 1,1 0.554,0 1,-0.446 1,-1 0,-0.554 -0.446,-1 -1,-1 z m 10.5,0 c -0.831,0 -1.5,0.669 -1.5,1.5 0,0.831 0.669,1.5 1.5,1.5 0.831,0 1.5,-0.669 1.5,-1.5 0,-0.831 -0.669,-1.5 -1.5,-1.5 z m -4.015625,5 c -0.822344,0 -1.484375,0.66203 -1.484375,1.48437 l 0,0.0312 c 0,0.82235 0.662031,1.48438 1.484375,1.48438 l 0.03125,0 C -70.662031,315.64996 -70,314.98793 -70,314.16558 l 0,-0.0312 c 0,-0.82234 -0.662031,-1.48437 -1.484375,-1.48437 z"
         inkscape:connector-curvature="0"
         style="fill:#666666;fill-opacity:0.53157899;filter:url(#h-24)" />
      <path
         id="path49-2"
         d="m -71.546875,312.64991 0.03125,0 c 0.822344,0 1.484375,0.66204 1.484375,1.48438 l 0,0.0312 c 0,0.82235 -0.662031,1.48438 -1.484375,1.48438 l -0.03125,0 c -0.822344,5e-5 -1.484375,-0.66198 -1.484375,-1.48433 l 0,-0.0312 c 0,-0.82234 0.662031,-1.48438 1.484375,-1.48438 z"
         inkscape:connector-curvature="0"
         style="fill:url(#f-05)" />
      <path
         id="path51-9"
         d="m -70.500141,292.64995 c -2.100688,0 -3.839338,1.43302 -4.339848,3.37309 -0.3273,-0.23357 -0.72565,-0.37304 -1.160151,-0.37304 -1.10798,0 -2,0.89204 -2,2.00002 0,0.0151 0.005,0.034 0.006,0.0488 -1.7011,0.24075 -3.00586,1.68155 -3.00586,3.45116 0,1.93901 1.561,3.49999 3.5,3.49999 l 10.999999,0 c 1.939,0 3.5,-1.56098 3.5,-3.49999 0,-1.78632 -1.329963,-3.23535 -3.054688,-3.45506 0.02192,-0.18066 0.05469,-0.35792 0.05469,-0.54493 0,-2.49297 -2.007014,-4.50002 -4.500002,-4.50002 z"
         inkscape:connector-curvature="0"
         style="fill:#666666;fill-opacity:0.53157899;filter:url(#d-34)" />
      <path
         id="path53-74"
         d="m -70.50014,292.64995 c -2.10069,0 -3.83934,1.43302 -4.33985,3.37309 -0.327299,-0.23357 -0.72565,-0.37304 -1.16015,-0.37304 -1.10798,0 -2,0.89204 -2,2.00002 0,0.0151 0.005,0.034 0.006,0.0488 -1.7011,0.24075 -3.00586,1.68155 -3.00586,3.45116 0,1.93901 1.561,3.49999 3.5,3.49999 l 11,0 c 1.938999,0 3.5,-1.56098 3.5,-3.49999 0,-1.78632 -1.329964,-3.23535 -3.054688,-3.45506 0.02192,-0.18066 0.05469,-0.35792 0.05469,-0.54493 0,-2.49297 -2.007014,-4.50002 -4.500001,-4.50002 z"
         inkscape:connector-curvature="0"
         style="fill:url(#c-41)" />
      <path
         id="path55-3"
         d="m -67.5,307.64996 c 0.831,0 1.5,0.669 1.5,1.5 0,0.831 -0.669,1.5 -1.5,1.5 -0.831,0 -1.5,-0.669 -1.5,-1.5 0,-0.831 0.669,-1.5 1.5,-1.5 z"
         inkscape:connector-curvature="0"
         style="fill:url(#e-41)" />
      <path
         id="path57-56"
         d="m -78,307.64996 c 0.554,0 1,0.446 1,1 0,0.554 -0.446,1 -1,1 -0.554,0 -1,-0.446 -1,-1 0,-0.554 0.446,-1 1,-1 z"
         inkscape:connector-curvature="0"
         style="fill:url(#g-2)" />
      <path
         id="path59-1"
         d="m -67,311.64996 -0.902344,1.55078 -0.0039,0.0215 C -67.96355,313.34843 -68,313.48622 -68,313.63433 c 0,0.55399 0.446,1 1,1 0.554,0 1,-0.44601 1,-1 0,-0.1436 -0.03194,-0.27914 -0.08594,-0.40234 l -0.0039,-0.0156 z"
         inkscape:connector-curvature="0"
         style="fill:#515151;fill-rule:evenodd;filter:url(#k-1)" />
      <path
         id="path61-4"
         d="m -66.99986,311.64976 -0.90234,1.55079 -0.004,0.0215 c -0.0573,0.12622 -0.0938,0.26399 -0.0938,0.41211 0,0.55399 0.446,1 1,1 0.554,0 1,-0.44601 1,-1 0,-0.1436 -0.0319,-0.27914 -0.0859,-0.40234 l -0.004,-0.0156 z"
         inkscape:connector-curvature="0"
         style="fill:url(#j-6)" />
      <path
         id="path65-0"
         d="m -74,305.64996 -1.65234,2.87109 c -0.21953,0.32111 -0.34766,0.7089 -0.34766,1.12891 0,1.108 0.892,2 2,2 1.108,0 2,-0.892 2,-2 0,-0.41649 -0.12563,-0.80155 -0.3418,-1.12109 l 0,-0.002 z"
         inkscape:connector-curvature="0"
         style="fill:#212121;fill-opacity:0.53157899;fill-rule:evenodd;filter:url(#m)" />
      <path
         id="path67-3"
         d="m -74,305.64996 -1.65234,2.87109 c -0.21953,0.32111 -0.34766,0.7089 -0.34766,1.12891 0,1.108 0.892,2 2,2 1.108,0 2,-0.892 2,-2 0,-0.41649 -0.12563,-0.80155 -0.3418,-1.12109 l 0,-0.002 z"
         inkscape:connector-curvature="0"
         style="fill:url(#l);fill-rule:evenodd" />
    </g>
  </g>
</svg>
