<svg height="32" viewBox="0 0 32 32" width="32" xmlns="http://www.w3.org/2000/svg" xmlns:xlink="http://www.w3.org/1999/xlink"><linearGradient id="a"><stop offset="0" stop-color="#9bd4e3"/><stop offset="1" stop-color="#f7fafc"/></linearGradient><linearGradient id="b" gradientUnits="userSpaceOnUse" x1="-95.99999853038" x2="-96.00000230991" y1="400.64997490543" y2="372.65002573663"><stop offset="0" stop-color="#094b71"/><stop offset="1" stop-color="#052f47"/></linearGradient><linearGradient id="c" gradientUnits="userSpaceOnUse" x1="27" x2="27" xlink:href="#a" y1="304.64999" y2="287.64999"/><filter id="d" color-interpolation-filters="sRGB" height="1.093766" width="1.098343" x="-.049171" y="-.046883"><feGaussianBlur stdDeviation=".35009771"/></filter><linearGradient id="e" gradientUnits="userSpaceOnUse" x1="-99" x2="-99" xlink:href="#a" y1="393.64999" y2="389.64999"/><filter id="f" color-interpolation-filters="sRGB" height="1.256" width="1.1536" x="-.0768" y="-.128"><feGaussianBlur stdDeviation=".32"/></filter><g transform="translate(112 -370.64999)"><path d="m-109 371.64999h25.999999c1.108001 0 2.000001.89201 2.000001 2.00001v25.99998c0 1.108-.892 2.00001-2.000001 2.00001h-25.999999c-1.108 0-2-.89201-2-2.00001v-25.99998c0-1.108.892-2.00001 2-2.00001z" fill="#042233"/><path d="m-109 372.65002h25.999999c.554001 0 1.000001.44598 1.000001.99998v26.00001c0 .55397-.446.99999-1.000001.99999h-25.999999c-.554 0-1-.44602-1-.99999v-26.00001c0-.554.446-.99998 1-.99998z" fill="url(#b)"/><g transform="translate(-122 88)"><path d="m26.912109 287.72811a9 9 0 0 0 -7.912109 8.92188 9 9 0 0 0 9 9 9 9 0 0 0 8.087891-5.07813 9 9 0 0 1 -.451172.0547 9 9 0 0 1 -.636719.0234 9 9 0 0 1 -.898438-.0449 9 9 0 0 1 -.888671-.13477 9 9 0 0 1 -.873047-.22265 9 9 0 0 1 -.84375-.3086 9 9 0 0 1 -.810547-.39062 9 9 0 0 1 -.767578-.47071 9 9 0 0 1 -.716797-.54492 9 9 0 0 1 -.658203-.61328 9 9 0 0 1 -.59375-.67578 9 9 0 0 1 -.521485-.73047 9 9 0 0 1 -.449218-.78125 9 9 0 0 1 -.367188-.82031 9 9 0 0 1 -.283203-.85352 9 9 0 0 1 -.197266-.8789 9 9 0 0 1 -.107421-.89258 9 9 0 0 1 -.023438-.63671 9 9 0 0 1 .04492-.89844 9 9 0 0 1 .134766-.88867 9 9 0 0 1 .222656-.87305 9 9 0 0 1 .308594-.84375 9 9 0 0 1 .201171-.41797z" fill="#fff" fill-opacity=".634409" filter="url(#d)"/><path d="m26.912109 287.72811a9 9 0 0 0 -7.912109 8.92188 9 9 0 0 0 9 9 9 9 0 0 0 8.087891-5.07813 9 9 0 0 1 -.451172.0547 9 9 0 0 1 -.636719.0234 9 9 0 0 1 -.898438-.0449 9 9 0 0 1 -.888671-.13477 9 9 0 0 1 -.873047-.22265 9 9 0 0 1 -.84375-.3086 9 9 0 0 1 -.810547-.39062 9 9 0 0 1 -.767578-.47071 9 9 0 0 1 -.716797-.54492 9 9 0 0 1 -.658203-.61328 9 9 0 0 1 -.59375-.67578 9 9 0 0 1 -.521485-.73047 9 9 0 0 1 -.449218-.78125 9 9 0 0 1 -.367188-.82031 9 9 0 0 1 -.283203-.85352 9 9 0 0 1 -.197266-.8789 9 9 0 0 1 -.107421-.89258 9 9 0 0 1 -.023438-.63671 9 9 0 0 1 .04492-.89844 9 9 0 0 1 .134766-.88867 9 9 0 0 1 .222656-.87305 9 9 0 0 1 .308594-.84375 9 9 0 0 1 .201171-.41797z" fill="url(#c)"/></g><g fill="#fff"><path d="m-108.5 374.64999c.277 0 .5.223.5.5s-.223.5-.5.5-.5-.223-.5-.5.223-.5.5-.5z" fill-opacity=".742718" opacity=".99"/><path d="m-106.5 376.64999c.277 0 .5.223.5.5s-.223.5-.5.5-.5-.223-.5-.5.223-.5.5-.5z" fill-opacity=".742718" opacity=".99"/><path d="m-101.5 373.64999c.277 0 .5.223.5.5s-.223.5-.5.5-.5-.223-.5-.5.223-.5.5-.5z" fill-opacity=".742718" opacity=".99"/><path d="m-105.5 385.64999c.277 0 .5.223.5.5s-.223.5-.5.5-.5-.223-.5-.5.223-.5.5-.5z" fill-opacity=".742718" opacity=".99"/><path d="m-108.5 383.64999c.277 0 .5.223.5.5s-.223.5-.5.5-.5-.223-.5-.5.223-.5.5-.5z" fill-opacity=".742718" opacity=".99"/><path d="m-105.5 397.64999c.277 0 .5.223.5.5s-.223.5-.5.5-.5-.223-.5-.5.223-.5.5-.5z" fill-opacity=".742718" opacity=".99"/><path d="m-108.5 396.64999c.277 0 .5.223.5.5s-.223.5-.5.5-.5-.223-.5-.5.223-.5.5-.5z" fill-opacity=".742718" opacity=".99"/><path d="m-91.5 380.64999c.277 0 .5.223.5.5s-.223.5-.5.5-.5-.223-.5-.5.223-.5.5-.5z" fill-opacity=".713759" opacity=".99"/><path d="m-83.5 382.64999c.277 0 .5.223.5.5s-.223.5-.5.5-.5-.223-.5-.5.223-.5.5-.5z" fill-opacity=".713759" opacity=".99"/><path d="m-87.5 376.64999c.277 0 .5.223.5.5s-.223.5-.5.5-.5-.223-.5-.5.223-.5.5-.5z" fill-opacity=".713759" opacity=".99"/><path d="m-85.5 374.64999c.277 0 .5.223.5.5s-.223.5-.5.5-.5-.223-.5-.5.223-.5.5-.5z" fill-opacity=".713759" opacity=".99"/><path d="m-90.5 373.64999c.277 0 .5.223.5.5s-.223.5-.5.5-.5-.223-.5-.5.223-.5.5-.5z" fill-opacity=".713759" opacity=".99"/><path d="m-90.5 396.64999c.277 0 .5.223.5.5s-.223.5-.5.5-.5-.223-.5-.5.223-.5.5-.5z" fill-opacity=".713759" opacity=".99"/></g><path d="m-98.49986 388.65003a2.5 2.5 0 0 0 -2.16406 1.25391 1.5 1.5 0 0 0 -.83594-.25391 1.5 1.5 0 0 0 -1.47852 1.25781 2 2 0 0 0 -1.02148 1.74219 2 2 0 0 0 2 2h6 1a1 1 0 0 0 1-1 1 1 0 0 0 -1-1 1 1 0 0 0 -.0898.004 1.5 1.5 0 0 0 .0898-.5039 1.5 1.5 0 0 0 -1.03711-1.42578 2.5 2.5 0 0 0 -2.46289-2.07422zm2.50586 4.91016a1 1 0 0 0 -.006.0898v-.0879a1.5 1.5 0 0 0 .006-.002z" fill="#003959" fill-opacity=".531579" filter="url(#f)"/><path d="m-100.5 396.64999c.277 0 .5.223.5.5s-.223.5-.5.5-.5-.223-.5-.5.223-.5.5-.5z" fill="#fff" fill-opacity=".742718" opacity=".99"/><path d="m-95.5 398.64999c.277 0 .5.223.5.5s-.223.5-.5.5-.5-.223-.5-.5.223-.5.5-.5z" fill="#fff" fill-opacity=".713759" opacity=".99"/><path d="m-105.5 389.64999c.277 0 .5.223.5.5s-.223.5-.5.5-.5-.223-.5-.5.223-.5.5-.5z" fill="#fff" fill-opacity=".742718" opacity=".99"/><path d="m-107.5 392.64999c.277 0 .5.223.5.5s-.223.5-.5.5-.5-.223-.5-.5.223-.5.5-.5z" fill="#fff" fill-opacity=".742718" opacity=".99"/><path d="m-83.5 398.64999c.277 0 .5.223.5.5s-.223.5-.5.5-.5-.223-.5-.5.223-.5.5-.5z" fill="#fff" fill-opacity=".713759" opacity=".99"/><path d="m-104.5 380.64999c.277 0 .5.223.5.5s-.223.5-.5.5-.5-.223-.5-.5.223-.5.5-.5z" fill="#fff" fill-opacity=".742718" opacity=".99"/><path d="m-98.5 388.64999a2.5 2.5 0 0 0 -2.16406 1.25391 1.5 1.5 0 0 0 -.83594-.25391 1.5 1.5 0 0 0 -1.47852 1.25781 2 2 0 0 0 -1.02148 1.74219 2 2 0 0 0 2 2h6 1a1 1 0 0 0 1-1 1 1 0 0 0 -1-1 1 1 0 0 0 -.0898.004 1.5 1.5 0 0 0 .0898-.50391 1.5 1.5 0 0 0 -1.03711-1.42578 2.5 2.5 0 0 0 -2.46289-2.07422zm2.50586 4.91016a1 1 0 0 0 -.006.0898v-.0879a1.5 1.5 0 0 0 .006-.002z" fill="url(#e)" opacity=".99"/><path d="m-85.5 393.64999c.277 0 .5.223.5.5s-.223.5-.5.5-.5-.223-.5-.5.223-.5.5-.5z" fill="#b8cad5"/><path d="m-87.5 384.64999c.277 0 .5.223.5.5s-.223.5-.5.5-.5-.223-.5-.5.223-.5.5-.5z" fill="#b8cad5"/><path d="m-83.5 390.64999c.277 0 .5.223.5.5s-.223.5-.5.5-.5-.223-.5-.5.223-.5.5-.5z" fill="#b8cad5"/></g></svg>