<?xml version="1.0" encoding="UTF-8" standalone="no"?>
<!-- Created with Inkscape (http://www.inkscape.org/) -->

<svg
   xmlns:dc="http://purl.org/dc/elements/1.1/"
   xmlns:cc="http://creativecommons.org/ns#"
   xmlns:rdf="http://www.w3.org/1999/02/22-rdf-syntax-ns#"
   xmlns:svg="http://www.w3.org/2000/svg"
   xmlns="http://www.w3.org/2000/svg"
   xmlns:xlink="http://www.w3.org/1999/xlink"
   xmlns:sodipodi="http://sodipodi.sourceforge.net/DTD/sodipodi-0.dtd"
   xmlns:inkscape="http://www.inkscape.org/namespaces/inkscape"
   width="32"
   height="32"
   viewBox="0 0 32 32"
   version="1.1"
   id="svg8"
   inkscape:version="0.91 r13725"
   sodipodi:docname="weather-snow-scattered-night.svg">
  <title
     id="title7895">Antu icon Theme</title>
  <defs
     id="defs2">
    <linearGradient
       id="b-6"
       gradientUnits="userSpaceOnUse"
       x1="-96"
       x2="-96"
       y1="400.64996"
       y2="372.65002"
       gradientTransform="translate(28,-84)">
      <stop
         offset="0"
         stop-color="#094b71"
         id="stop10-63" />
      <stop
         offset="1"
         stop-color="#052f47"
         id="stop12-99" />
    </linearGradient>
    <linearGradient
       id="c-34"
       gradientUnits="userSpaceOnUse"
       x1="-96.000137"
       x2="-96.000137"
       xlink:href="#a-9"
       y1="387.6499"
       y2="380.64993"
       gradientTransform="translate(28,-84)" />
    <linearGradient
       id="a-9">
      <stop
         offset="0"
         stop-color="#9bd4e3"
         id="stop5-3" />
      <stop
         offset="1"
         stop-color="#f7fafc"
         id="stop7-2" />
    </linearGradient>
    <linearGradient
       id="h-8"
       gradientUnits="userSpaceOnUse"
       x1="-90"
       x2="-90"
       xlink:href="#a-9"
       y1="397.64996"
       y2="395.64996"
       gradientTransform="translate(28,-84)" />
    <linearGradient
       id="e-53"
       gradientUnits="userSpaceOnUse"
       x1="-92"
       x2="-92"
       xlink:href="#a-9"
       y1="393.64996"
       y2="391.64996"
       gradientTransform="translate(28,-84)" />
    <linearGradient
       id="g-5"
       gradientUnits="userSpaceOnUse"
       x1="-96.0625"
       x2="-96.0625"
       xlink:href="#a-9"
       y1="398.64996"
       y2="395.64996"
       gradientTransform="translate(28,-84)" />
    <linearGradient
       id="f-89"
       gradientUnits="userSpaceOnUse"
       x1="-98"
       x2="-98.03125"
       xlink:href="#a-9"
       y1="393.64996"
       y2="390.64996"
       gradientTransform="translate(28,-84)" />
    <linearGradient
       id="i-6"
       gradientUnits="userSpaceOnUse"
       x1="-102"
       x2="-102"
       xlink:href="#a-9"
       y1="393.64996"
       y2="391.64996"
       gradientTransform="translate(28,-84)" />
    <filter
       style="color-interpolation-filters:sRGB"
       id="j-5"
       height="1.144001"
       width="1.072"
       x="-0.035999998"
       y="-0.071999997">
      <feGaussianBlur
         stdDeviation=".2099995"
         id="feGaussianBlur24" />
    </filter>
    <filter
       style="color-interpolation-filters:sRGB"
       id="filter19147"
       height="1.144001"
       width="1.072"
       x="-0.035999998"
       y="-0.071999997">
      <feGaussianBlur
         stdDeviation=".2099995"
         id="feGaussianBlur19149" />
    </filter>
    <filter
       style="color-interpolation-filters:sRGB"
       id="l-0"
       height="1.312003"
       width="1.3119971"
       x="-0.155999"
       y="-0.156001">
      <feGaussianBlur
         stdDeviation=".19499838"
         id="feGaussianBlur30-9" />
    </filter>
    <filter
       style="color-interpolation-filters:sRGB"
       id="k-21"
       height="1.312"
       width="1.312"
       x="-0.156"
       y="-0.156">
      <feGaussianBlur
         stdDeviation=".195"
         id="feGaussianBlur27-3" />
    </filter>
    <filter
       style="color-interpolation-filters:sRGB"
       id="filter19155"
       height="1.144001"
       width="1.072"
       x="-0.035999998"
       y="-0.071999997">
      <feGaussianBlur
         stdDeviation=".2099995"
         id="feGaussianBlur19157" />
    </filter>
    <filter
       style="color-interpolation-filters:sRGB"
       id="d-9"
       height="1.12"
       width="1.08"
       x="-0.039999999"
       y="-0.059999999">
      <feGaussianBlur
         stdDeviation=".30000019"
         id="feGaussianBlur16-1" />
    </filter>
  </defs>
  <sodipodi:namedview
     id="base"
     pagecolor="#ffffff"
     bordercolor="#666666"
     borderopacity="1.0"
     inkscape:pageopacity="0.0"
     inkscape:pageshadow="2"
     inkscape:zoom="4"
     inkscape:cx="-64.640476"
     inkscape:cy="0.91466187"
     inkscape:document-units="px"
     inkscape:current-layer="layer1"
     showgrid="true"
     units="px"
     inkscape:window-width="1360"
     inkscape:window-height="697"
     inkscape:window-x="0"
     inkscape:window-y="0"
     inkscape:window-maximized="1"
     objecttolerance="10"
     gridtolerance="10"
     guidetolerance="10"
     inkscape:snap-bbox="true"
     inkscape:bbox-nodes="true"
     inkscape:showpageshadow="false"
     inkscape:bbox-paths="true"
     inkscape:snap-bbox-edge-midpoints="true"
     inkscape:snap-bbox-midpoints="true"
     inkscape:object-paths="true"
     inkscape:snap-intersection-paths="true"
     inkscape:object-nodes="false"
     inkscape:snap-smooth-nodes="false"
     inkscape:snap-midpoints="false">
    <inkscape:grid
       type="xygrid"
       id="grid7897"
       empspacing="4" />
  </sodipodi:namedview>
  <metadata
     id="metadata5">
    <rdf:RDF>
      <cc:Work
         rdf:about="">
        <dc:format>image/svg+xml</dc:format>
        <dc:type
           rdf:resource="http://purl.org/dc/dcmitype/StillImage" />
        <dc:title>Antu icon Theme</dc:title>
      </cc:Work>
    </rdf:RDF>
  </metadata>
  <g
     inkscape:label="Capa 1"
     inkscape:groupmode="layer"
     id="layer1"
     transform="translate(0,-282.64999)">
    <g
       id="g19833"
       transform="translate(84,-4)">
      <path
         id="path34-0"
         d="m -81,287.64999 25.999999,0 C -53.892,287.64999 -53,288.542 -53,289.65 l 0,25.99998 c 0,1.108 -0.892,2.00001 -2.000001,2.00001 l -25.999999,0 c -1.108,0 -2,-0.89201 -2,-2.00001 L -83,289.65 c 0,-1.108 0.892,-2.00001 2,-2.00001 z"
         inkscape:connector-curvature="0"
         style="fill:#042233" />
      <path
         id="path36-3"
         d="m -81,288.65002 25.999999,0 C -54.446,288.65002 -54,289.096 -54,289.65 l 0,26.00001 c 0,0.55397 -0.446,0.99999 -1.000001,0.99999 L -81,316.65 c -0.554,0 -1,-0.44602 -1,-0.99999 L -82,289.65 c 0,-0.554 0.446,-0.99998 1,-0.99998 z"
         inkscape:connector-curvature="0"
         style="fill:url(#b-6)" />
      <path
         id="path40-6"
         d="m -74,307.65004 c -0.554,0 -1,0.446 -1,1 0,0.554 0.446,1 1,1 0.554,0 1,-0.446 1,-1 0,-0.554 -0.446,-1 -1,-1 z"
         inkscape:connector-curvature="0"
         style="fill:#ffffff;fill-opacity:0.53157899;filter:url(#j-5)" />
      <path
         id="path42-18"
         d="m -63.5,307.65004 c -0.831,0 -1.5,0.669 -1.5,1.5 0,0.831 0.669,1.5 1.5,1.5 0.831,0 1.5,-0.669 1.5,-1.5 0,-0.831 -0.669,-1.5 -1.5,-1.5 z"
         inkscape:connector-curvature="0"
         style="fill:#ffffff;fill-opacity:0.53157899;filter:url(#j-5)" />
      <path
         id="path44-7"
         d="m -69.5,306.65004 c -0.831,0 -1.5,0.669 -1.5,1.5 0,0.831 0.669,1.5 1.5,1.5 0.831,0 1.5,-0.669 1.5,-1.5 0,-0.831 -0.669,-1.5 -1.5,-1.5 z"
         inkscape:connector-curvature="0"
         style="fill:#ffffff;fill-opacity:0.53157899;filter:url(#k-21)" />
      <path
         id="path46-0"
         d="m -67.515625,311.65004 c -0.822344,0 -1.484375,0.66203 -1.484375,1.48437 l 0,0.0312 c 0,0.82235 0.662031,1.48438 1.484375,1.48438 l 0.03125,0 c 0.822344,0 1.484375,-0.66203 1.484375,-1.48438 l 0,-0.0312 c 0,-0.82234 -0.662031,-1.48437 -1.484375,-1.48437 z"
         inkscape:connector-curvature="0"
         style="fill:#ffffff;fill-opacity:0.53157899;filter:url(#l-0)" />
      <path
         id="path48-5"
         d="m -62,311.65004 c -0.554,0 -1,0.446 -1,1 0,0.554 0.446,1 1,1 0.554,0 1,-0.446 1,-1 0,-0.554 -0.446,-1 -1,-1 z"
         inkscape:connector-curvature="0"
         style="fill:#ffffff;fill-opacity:0.53157899;filter:url(#j-5)" />
      <path
         id="path50-1"
         d="m -66.500141,292.64998 c -2.100688,0 -3.839338,1.43302 -4.339848,3.37309 -0.3273,-0.23357 -0.72565,-0.37304 -1.160151,-0.37304 -1.10798,0 -2,0.89204 -2,2.00002 0,0.0151 0.005,0.034 0.006,0.0488 -1.7011,0.24075 -3.00586,1.68155 -3.00586,3.45116 0,1.93901 1.561,3.49999 3.5,3.49999 l 10.999999,0 c 1.939,0 3.5,-1.56098 3.5,-3.49999 0,-1.78632 -1.329963,-3.23535 -3.054688,-3.45506 0.02192,-0.18066 0.05469,-0.35792 0.05469,-0.54493 0,-2.49297 -2.007014,-4.50002 -4.500002,-4.50002 z"
         inkscape:connector-curvature="0"
         style="fill:#ffffff;fill-opacity:0.53157899;filter:url(#d-9)" />
      <path
         id="path52-1"
         d="m -66.50014,292.64998 c -2.10069,0 -3.83934,1.43302 -4.33985,3.37309 -0.327299,-0.23357 -0.72565,-0.37304 -1.16015,-0.37304 -1.10798,0 -2,0.89204 -2,2.00002 0,0.0151 0.005,0.034 0.006,0.0488 -1.7011,0.24075 -3.00586,1.68155 -3.00586,3.45116 0,1.93901 1.561,3.49999 3.5,3.49999 l 11,0 c 1.938999,0 3.5,-1.56098 3.5,-3.49999 0,-1.78632 -1.329964,-3.23535 -3.054688,-3.45506 0.02192,-0.18066 0.05469,-0.35792 0.05469,-0.54493 0,-2.49297 -2.007014,-4.50002 -4.500001,-4.50002 z"
         inkscape:connector-curvature="0"
         style="fill:url(#c-34)" />
      <path
         id="path54-0"
         d="m -69.5,306.64999 c 0.831,0 1.5,0.669 1.5,1.5 0,0.831 -0.669,1.5 -1.5,1.5 -0.831,0 -1.5,-0.669 -1.5,-1.5 0,-0.831 0.669,-1.5 1.5,-1.5 z"
         inkscape:connector-curvature="0"
         style="fill:url(#f-89)" />
      <path
         id="path56-3"
         d="m -67.515625,311.64999 0.03125,0 c 0.822344,0 1.484375,0.66204 1.484375,1.48438 l 0,0.0312 c 0,0.82235 -0.662031,1.48438 -1.484375,1.48438 l -0.03125,0 C -68.337969,314.65 -69,313.98797 -69,313.16562 l 0,-0.0312 c 0,-0.82234 0.662031,-1.48438 1.484375,-1.48438 z"
         inkscape:connector-curvature="0"
         style="fill:url(#g-5)" />
      <path
         id="path58-0"
         d="m -63.5,307.64999 c 0.831,0 1.5,0.669 1.5,1.5 0,0.831 -0.669,1.5 -1.5,1.5 -0.831,0 -1.5,-0.669 -1.5,-1.5 0,-0.831 0.669,-1.5 1.5,-1.5 z"
         inkscape:connector-curvature="0"
         style="fill:url(#e-53)" />
      <path
         id="path60-0"
         d="m -62,311.64999 c 0.554,0 1,0.446 1,1 0,0.554 -0.446,1 -1,1 -0.554,0 -1,-0.446 -1,-1 0,-0.554 0.446,-1 1,-1 z"
         inkscape:connector-curvature="0"
         style="fill:url(#h-8)" />
      <path
         id="path62-4"
         d="m -74,307.64999 c 0.554,0 1,0.446 1,1 0,0.554 -0.446,1 -1,1 -0.554,0 -1,-0.446 -1,-1 0,-0.554 0.446,-1 1,-1 z"
         inkscape:connector-curvature="0"
         style="fill:url(#i-6)" />
    </g>
  </g>
</svg>
