<svg height="32" viewBox="0 0 32 32" width="32" xmlns="http://www.w3.org/2000/svg" xmlns:xlink="http://www.w3.org/1999/xlink"><linearGradient id="a" gradientUnits="userSpaceOnUse" x1="-82.99999999335" x2="-109.00000084694" y1="399.6499497242" y2="373.65001312258"><stop offset="0" stop-color="#6899ae"/><stop offset="1" stop-color="#3d5866"/></linearGradient><linearGradient id="b" gradientUnits="userSpaceOnUse" x1="-91.94544912783" x2="-91.94530928531" y1="393.60494904762" y2="383.60503739285"><stop offset="0" stop-color="#c2ebfd"/><stop offset="1" stop-color="#f2fafe"/></linearGradient><linearGradient id="c" gradientUnits="userSpaceOnUse" x1="-83" x2="-110" y1="400.64999" y2="372.64999"><stop offset="0" stop-color="#4c7080"/><stop offset="1" stop-color="#263740"/></linearGradient><filter id="d" color-interpolation-filters="sRGB" height="1.12" width="1.08" x="-.04" y="-.06"><feGaussianBlur stdDeviation=".30000018"/></filter><linearGradient id="e" gradientUnits="userSpaceOnUse" x1="-70" x2="-70" y1="389.64999" y2="380.64999"><stop offset="0" stop-color="#c1ecfe"/><stop offset="1" stop-color="#f7fafc"/></linearGradient><filter id="f" color-interpolation-filters="sRGB" height="1.112" width="1.084" x="-.042" y="-.056"><feGaussianBlur stdDeviation=".28"/></filter><g transform="translate(112 -370.64999)"><path d="m-109 371.64999h25.999999c1.108001 0 2.000001.89201 2.000001 2.00001v25.99998c0 1.108-.892 2.00001-2.000001 2.00001h-25.999999c-1.108 0-2-.89201-2-2.00001v-25.99998c0-1.108.892-2.00001 2-2.00001z" fill="url(#c)"/><path d="m-109 372.65002h25.999999c.554001 0 1.000001.44598 1.000001.99998v26.00001c0 .55397-.446.99999-1.000001.99999h-25.999999c-.554 0-1-.44602-1-.99999v-26.00001c0-.554.446-.99998 1-.99998z" fill="url(#a)"/><path d="m-90.445592 382.605c-2.100688 0-3.839338 1.43302-4.339848 3.37309-.3273-.23357-.72565-.37304-1.160151-.37304-1.10798 0-2 .89204-2 2.00002 0 .0151.005.034.006.0488-1.701099.24075-3.005859 1.68155-3.005859 3.45116 0 1.93901 1.561 3.49999 3.499999 3.49999h10.999999c1.939 0 3.5-1.56098 3.5-3.49999 0-1.78632-1.329963-3.23535-3.054688-3.45506.02192-.18066.05469-.35792.05469-.54493 0-2.49297-2.007014-4.50002-4.500002-4.50002z" fill="#2d2d2d" fill-opacity=".531579" filter="url(#d)"/><path d="m-90.445452 382.60502c-2.10069 0-3.83934 1.43302-4.33985 3.37309-.327299-.23357-.72565-.37304-1.16015-.37304-1.10798 0-2 .89204-2 2.00002 0 .0151.005.034.006.0488-1.701098.24075-3.005858 1.68155-3.005858 3.45116 0 1.93901 1.561 3.49999 3.499998 3.49999h11c1.938999 0 3.5-1.56098 3.5-3.49999 0-1.78632-1.329964-3.23535-3.054688-3.45506.02192-.18066.05469-.35792.05469-.54493 0-2.49297-2.007014-4.50002-4.500001-4.50002z" fill="url(#b)"/><g transform="translate(-30.625 .125)"><path d="m-69.50003 378.64999c-1.44139 0-2.67131.86427-3.20898 2.10352-.20943-.0604-.42688-.10352-.65625-.10352-1.30999 0-2.36329 1.05525-2.36329 2.36523v.26954c0 .19841.0306.38834.0762.57226-1.36644.47604-2.34765 1.76025-2.34765 3.29297 0 1.939 1.561 3.5 3.5 3.5h8c2.493 0 4.5-2.007 4.5-4.5 0-2.33682-1.770773-4.22301-4.04492-4.45312-.22308-1.72098-1.67141-3.04688-3.45508-3.04688z" fill="#003959" fill-opacity=".531579" filter="url(#f)"/><path d="m-69.50003 378.64999c-1.44139 0-2.67131.86427-3.20898 2.10352-.20943-.0604-.42688-.10352-.65625-.10352-1.30999 0-2.36329 1.05525-2.36329 2.36523v.26954c0 .19841.0306.38834.0762.57226-1.36644.47604-2.34765 1.76025-2.34765 3.29297 0 1.939 1.561 3.5 3.5 3.5h8c2.493 0 4.5-2.007 4.5-4.5 0-2.33682-1.770773-4.22301-4.04492-4.45312-.22308-1.72098-1.67141-3.04688-3.45508-3.04688z" fill="url(#e)"/></g></g></svg>