<svg height="32" viewBox="0 0 32 32" width="32" xmlns="http://www.w3.org/2000/svg" xmlns:xlink="http://www.w3.org/1999/xlink"><linearGradient id="a"><stop offset="0" stop-color="#9bd4e3"/><stop offset="1" stop-color="#f7fafc"/></linearGradient><linearGradient id="b" gradientUnits="userSpaceOnUse" x1="-82.99999999335" x2="-109.00000084694" y1="399.6499497242" y2="373.65001312258"><stop offset="0" stop-color="#6899ae"/><stop offset="1" stop-color="#a6b3e8"/></linearGradient><linearGradient id="c" gradientUnits="userSpaceOnUse" x1="-93.94544912783" x2="-93.94530928531" y1="389.60494904762" y2="379.60503739285"><stop offset="0" stop-color="#c2ebfd"/><stop offset="1" stop-color="#f2fafe"/></linearGradient><linearGradient id="d" gradientUnits="userSpaceOnUse" x1="-92" x2="-92" xlink:href="#a" y1="393.649975" y2="391.649975"/><linearGradient id="e" gradientUnits="userSpaceOnUse" x1="-98" x2="-98.03125" xlink:href="#a" y1="395.649971" y2="392.649971"/><linearGradient id="f" gradientUnits="userSpaceOnUse" x1="-96.0625" x2="-96.0625" xlink:href="#a" y1="399.650015" y2="396.650015"/><linearGradient id="g" gradientUnits="userSpaceOnUse" x1="-90" x2="-90" xlink:href="#a" y1="397.649975" y2="395.649975"/><linearGradient id="h" gradientUnits="userSpaceOnUse" x1="-102" x2="-102" xlink:href="#a" y1="393.649975" y2="391.649975"/><filter id="i" color-interpolation-filters="sRGB" height="1.144001" width="1.072" x="-.036" y="-.072"><feGaussianBlur stdDeviation=".2099995"/></filter><linearGradient id="j" gradientUnits="userSpaceOnUse" x1="-83" x2="-110" y1="400.64999" y2="372.64999"><stop offset="0" stop-color="#4c7080"/><stop offset="1" stop-color="#8189b2"/></linearGradient><filter id="k" color-interpolation-filters="sRGB" height="1.12" width="1.08" x="-.04" y="-.06"><feGaussianBlur stdDeviation=".30000018"/></filter><linearGradient id="l" gradientUnits="userSpaceOnUse" x1="-100" x2="-100" y1="385.649986" y2="375.649986"><stop offset="0" stop-color="#ffc900"/><stop offset="1" stop-color="#ffe200"/></linearGradient><filter id="m" color-interpolation-filters="sRGB" height="1.096" width="1.096" x="-.048" y="-.048"><feGaussianBlur stdDeviation=".28"/></filter><g transform="translate(112 -370.64999)"><path d="m-109 371.64999h25.999999c1.108001 0 2.000001.89201 2.000001 2.00001v25.99998c0 1.108-.892 2.00001-2.000001 2.00001h-25.999999c-1.108 0-2-.89201-2-2.00001v-25.99998c0-1.108.892-2.00001 2-2.00001z" fill="url(#j)"/><path d="m-109 372.65002h25.999999c.554001 0 1.000001.44598 1.000001.99998v26.00001c0 .55397-.446.99999-1.000001.99999h-25.999999c-.554 0-1-.44602-1-.99999v-26.00001c0-.554.446-.99998 1-.99998z" fill="url(#b)"/><path d="m14.5 22c-.831 0-1.5.669-1.5 1.5s.669 1.5 1.5 1.5 1.5-.669 1.5-1.5-.669-1.5-1.5-1.5zm-4.5-1c-.554 0-1 .446-1 1s.446 1 1 1 1-.446 1-1-.446-1-1-1zm10.5 0c-.831 0-1.5.669-1.5 1.5s.669 1.5 1.5 1.5 1.5-.669 1.5-1.5-.669-1.5-1.5-1.5zm-4.015625 5c-.822344 0-1.484375.662035-1.484375 1.484375v.03125c0 .82235.662031 1.484375 1.484375 1.484375h.03125c.822344 0 1.484375-.662025 1.484375-1.484375v-.03125c0-.82234-.662031-1.484375-1.484375-1.484375zm5.515625-1c-.554 0-1 .446-1 1s.446 1 1 1 1-.446 1-1-.446-1-1-1z" fill="#666" fill-opacity=".531579" filter="url(#i)" transform="translate(-112 370.64999)"/><path d="m-97.5 392.64999c.831 0 1.5.669 1.5 1.5s-.669 1.5-1.5 1.5-1.5-.669-1.5-1.5.669-1.5 1.5-1.5z" fill="url(#e)"/><path d="m-95.515625 396.65003h.03125c.822344 0 1.484375.66204 1.484375 1.48438v.0312c0 .82235-.662031 1.48438-1.484375 1.48438h-.03125c-.822344.00005-1.484375-.66198-1.484375-1.48433v-.0312c0-.82234.662031-1.48438 1.484375-1.48438z" fill="url(#f)"/><path d="m-91.5 391.64999c.831 0 1.5.669 1.5 1.5s-.669 1.5-1.5 1.5-1.5-.669-1.5-1.5.669-1.5 1.5-1.5z" fill="url(#d)"/><path d="m-90 395.64999c.554 0 1 .446 1 1s-.446 1-1 1-1-.446-1-1 .446-1 1-1z" fill="url(#g)"/><path d="m-102 391.64999c.554 0 1 .446 1 1s-.446 1-1 1-1-.446-1-1 .446-1 1-1z" fill="url(#h)"/><rect fill="#8f7f18" filter="url(#m)" height="14" ry="7" width="14" x="-107" y="374.64999"/><rect fill="url(#l)" height="14" ry="7" width="14" x="-107" y="374.64999"/><path d="m-92.445592 378.605c-2.100688 0-3.839338 1.43302-4.339848 3.37309-.3273-.23357-.72565-.37304-1.160151-.37304-1.10798 0-2 .89204-2 2.00002 0 .0151.005.034.006.0488-1.701099.24075-3.005859 1.68155-3.005859 3.45116 0 1.93901 1.561 3.49999 3.499999 3.49999h10.999999c1.939 0 3.5-1.56098 3.5-3.49999 0-1.78632-1.329963-3.23535-3.054688-3.45506.02192-.18066.05469-.35792.05469-.54493 0-2.49297-2.007014-4.50002-4.500002-4.50002z" fill="#2d2d2d" fill-opacity=".531579" filter="url(#k)"/><path d="m-92.445452 378.60502c-2.10069 0-3.83934 1.43302-4.33985 3.37309-.327299-.23357-.72565-.37304-1.16015-.37304-1.10798 0-2 .89204-2 2.00002 0 .0151.005.034.006.0488-1.701098.24075-3.005858 1.68155-3.005858 3.45116 0 1.93901 1.561 3.49999 3.499998 3.49999h11c1.938999 0 3.5-1.56098 3.5-3.49999 0-1.78632-1.329964-3.23535-3.054688-3.45506.02192-.18066.05469-.35792.05469-.54493 0-2.49297-2.007014-4.50002-4.500001-4.50002z" fill="url(#c)"/></g></svg>