<svg height="32" viewBox="0 0 32 32" width="32" xmlns="http://www.w3.org/2000/svg" xmlns:xlink="http://www.w3.org/1999/xlink"><linearGradient id="a"><stop offset="0" stop-color="#9bd4e3"/><stop offset="1" stop-color="#f7fafc"/></linearGradient><linearGradient id="b" gradientUnits="userSpaceOnUse" x1="-95.99999853038" x2="-96.00000230991" y1="400.64997490543" y2="372.65002573663"><stop offset="0" stop-color="#6899ae"/><stop offset="1" stop-color="#3d5866"/></linearGradient><linearGradient id="c" gradientUnits="userSpaceOnUse" x1="-96.00013912783" x2="-95.99999928531" y1="387.64990904762" y2="377.64999739285"><stop offset="0" stop-color="#c2ebfd"/><stop offset="1" stop-color="#f2fafe"/></linearGradient><filter id="d" color-interpolation-filters="sRGB" height="1.12" width="1.08" x="-.04" y="-.06"><feGaussianBlur stdDeviation=".30000019"/></filter><linearGradient id="e" gradientUnits="userSpaceOnUse" x1="-92" x2="-92" xlink:href="#a" y1="393.649975" y2="391.649975"/><linearGradient id="f" gradientUnits="userSpaceOnUse" x1="-96.09375" x2="-96.09375" xlink:href="#a" y1="399.649925" y2="396.649925"/><linearGradient id="g" gradientUnits="userSpaceOnUse" x1="-102" x2="-102" xlink:href="#a" y1="393.649975" y2="391.649975"/><filter id="h" color-interpolation-filters="sRGB" height="1.144001" width="1.072" x="-.036" y="-.072"><feGaussianBlur stdDeviation=".2099995"/></filter><linearGradient id="i" gradientUnits="userSpaceOnUse" x1="-96" x2="-96" y1="401.64999" y2="371.64999"><stop offset="0" stop-color="#4c7080"/><stop offset="1" stop-color="#263740"/></linearGradient><linearGradient id="j" gradientUnits="userSpaceOnUse" x1="-90.999999" x2="-90.99986" xlink:href="#a" y1="398.634189" y2="395.63417"/><filter id="k" color-interpolation-filters="sRGB" height="1.114129" width="1.082841" x="-.04142" y="-.057065"><feGaussianBlur stdDeviation=".18984375"/></filter><linearGradient id="l" gradientUnits="userSpaceOnUse" x1="-98" x2="-98" xlink:href="#a" y1="395.64999" y2="390.64999"/><filter id="m" color-interpolation-filters="sRGB" height="1.168" width="1.252" x="-.126" y="-.084"><feGaussianBlur stdDeviation=".21"/></filter><g transform="translate(112 -370.64999)"><path d="m-109 371.64999h25.999999c1.108001 0 2.000001.89201 2.000001 2.00001v25.99998c0 1.108-.892 2.00001-2.000001 2.00001h-25.999999c-1.108 0-2-.89201-2-2.00001v-25.99998c0-1.108.892-2.00001 2-2.00001z" fill="url(#i)"/><path d="m-109 372.65002h25.999999c.554001 0 1.000001.44598 1.000001.99998v26.00001c0 .55397-.446.99999-1.000001.99999h-25.999999c-.554 0-1-.44602-1-.99999v-26.00001c0-.554.446-.99998 1-.99998z" fill="url(#b)"/><path d="m10 21c-.554 0-1 .446-1 1s.446 1 1 1 1-.446 1-1-.446-1-1-1zm10.5 0c-.831 0-1.5.669-1.5 1.5s.669 1.5 1.5 1.5 1.5-.669 1.5-1.5-.669-1.5-1.5-1.5zm-4.015625 5c-.822344 0-1.484375.662035-1.484375 1.484375v.03125c0 .82235.662031 1.484375 1.484375 1.484375h.03125c.822344 0 1.484375-.662025 1.484375-1.484375v-.03125c0-.82234-.662031-1.484375-1.484375-1.484375z" fill="#666" fill-opacity=".531579" filter="url(#h)" transform="translate(-112 370.64999)"/><path d="m-95.546875 396.64994h.03125c.822344 0 1.484375.66204 1.484375 1.48438v.0312c0 .82235-.662031 1.48438-1.484375 1.48438h-.03125c-.822344.00005-1.484375-.66198-1.484375-1.48433v-.0312c0-.82234.662031-1.48438 1.484375-1.48438z" fill="url(#f)"/><path d="m-94.500141 376.64998c-2.100688 0-3.839338 1.43302-4.339848 3.37309-.3273-.23357-.72565-.37304-1.160151-.37304-1.10798 0-2 .89204-2 2.00002 0 .0151.005.034.006.0488-1.7011.24075-3.00586 1.68155-3.00586 3.45116 0 1.93901 1.561 3.49999 3.5 3.49999h10.999999c1.939 0 3.5-1.56098 3.5-3.49999 0-1.78632-1.329963-3.23535-3.054688-3.45506.02192-.18066.05469-.35792.05469-.54493 0-2.49297-2.007014-4.50002-4.500002-4.50002z" fill="#666" fill-opacity=".531579" filter="url(#d)"/><path d="m-94.50014 376.64998c-2.10069 0-3.83934 1.43302-4.33985 3.37309-.327299-.23357-.72565-.37304-1.16015-.37304-1.10798 0-2 .89204-2 2.00002 0 .0151.005.034.006.0488-1.7011.24075-3.00586 1.68155-3.00586 3.45116 0 1.93901 1.561 3.49999 3.5 3.49999h11c1.938999 0 3.5-1.56098 3.5-3.49999 0-1.78632-1.329964-3.23535-3.054688-3.45506.02192-.18066.05469-.35792.05469-.54493 0-2.49297-2.007014-4.50002-4.500001-4.50002z" fill="url(#c)"/><path d="m-91.5 391.64999c.831 0 1.5.669 1.5 1.5s-.669 1.5-1.5 1.5-1.5-.669-1.5-1.5.669-1.5 1.5-1.5z" fill="url(#e)"/><path d="m-102 391.64999c.554 0 1 .446 1 1s-.446 1-1 1-1-.446-1-1 .446-1 1-1z" fill="url(#g)"/><path d="m21 25-.902344 1.550781-.0039.02148c-.057306.126205-.093756.263994-.093756.412114 0 .55399.446 1 1 1s1-.44601 1-1c0-.1436-.03194-.279144-.08594-.402344l-.0039-.01563z" fill="#515151" fill-rule="evenodd" filter="url(#k)" transform="translate(-112 370.64999)"/><path d="m-90.99986 395.64979-.90234 1.55079-.004.0215c-.0573.12622-.0938.26399-.0938.41211 0 .55399.446 1 1 1s1-.44601 1-1c0-.1436-.0319-.27914-.0859-.40234l-.004-.0156z" fill="url(#j)"/><g fill-rule="evenodd"><path d="m-98 389.64999-1.65234 2.87109c-.21953.32111-.34766.7089-.34766 1.12891 0 1.108.892 2 2 2s2-.892 2-2c0-.41649-.12563-.80155-.3418-1.12109v-.002z" fill="#212121" fill-opacity=".531579" filter="url(#m)"/><path d="m-98 389.64999-1.65234 2.87109c-.21953.32111-.34766.7089-.34766 1.12891 0 1.108.892 2 2 2s2-.892 2-2c0-.41649-.12563-.80155-.3418-1.12109v-.002z" fill="url(#l)"/></g></g></svg>