<svg height="32" viewBox="0 0 32 32" width="32" xmlns="http://www.w3.org/2000/svg" xmlns:xlink="http://www.w3.org/1999/xlink"><linearGradient id="a" gradientUnits="userSpaceOnUse" x1="-82.99999999335" x2="-109.00000084694" y1="399.6499497242" y2="373.65001312258"><stop offset="0" stop-color="#91d7ff"/><stop offset="1" stop-color="#1780f2"/></linearGradient><linearGradient id="b" gradientUnits="userSpaceOnUse" x1="-83" x2="-110" y1="400.64999" y2="372.64999"><stop offset="0" stop-color="#80c0e5"/><stop offset="1" stop-color="#136dcc"/></linearGradient><linearGradient id="c" gradientUnits="userSpaceOnUse" x1="-96" x2="-96" y1="390.649982" y2="380.649982"><stop offset="0" stop-color="#ffc900"/><stop offset="1" stop-color="#ffe200"/></linearGradient><filter id="d" color-interpolation-filters="sRGB" height="1.192" width="1.192" x="-.096" y="-.096"><feGaussianBlur stdDeviation=".56"/></filter><g transform="translate(112 -370.64999)"><path d="m-109 371.64999h25.999999c1.108001 0 2.000001.89201 2.000001 2.00001v25.99998c0 1.108-.892 2.00001-2.000001 2.00001h-25.999999c-1.108 0-2-.89201-2-2.00001v-25.99998c0-1.108.892-2.00001 2-2.00001z" fill="url(#b)"/><path d="m-109 372.65002h25.999999c.554001 0 1.000001.44598 1.000001.99998v26.00001c0 .55397-.446.99999-1.000001.99999h-25.999999c-.554 0-1-.44602-1-.99999v-26.00001c0-.554.446-.99998 1-.99998z" fill="url(#a)"/><rect fill="#ffe22b" filter="url(#d)" height="14" ry="7" width="14" x="-103" y="379.64999"/><rect fill="url(#c)" height="14" ry="7" width="14" x="-103" y="379.64999"/></g></svg>