<?xml version="1.0" encoding="UTF-8" standalone="no"?>
<!-- Created with Inkscape (http://www.inkscape.org/) -->

<svg
   xmlns:dc="http://purl.org/dc/elements/1.1/"
   xmlns:cc="http://creativecommons.org/ns#"
   xmlns:rdf="http://www.w3.org/1999/02/22-rdf-syntax-ns#"
   xmlns:svg="http://www.w3.org/2000/svg"
   xmlns="http://www.w3.org/2000/svg"
   xmlns:xlink="http://www.w3.org/1999/xlink"
   xmlns:sodipodi="http://sodipodi.sourceforge.net/DTD/sodipodi-0.dtd"
   xmlns:inkscape="http://www.inkscape.org/namespaces/inkscape"
   width="32"
   height="32"
   viewBox="0 0 32 32"
   version="1.1"
   id="svg8"
   inkscape:version="0.91 r13725"
   sodipodi:docname="weather-few-clouds-night.svg">
  <title
     id="title7895">Antu icon Theme</title>
  <defs
     id="defs2">
    <linearGradient
       id="b-8"
       gradientUnits="userSpaceOnUse"
       x1="-96"
       x2="-96"
       y1="400.64996"
       y2="372.65002"
       gradientTransform="translate(112,-88.00002)">
      <stop
         offset="0"
         stop-color="#094b71"
         id="stop10-0" />
      <stop
         offset="1"
         stop-color="#052f47"
         id="stop12-9" />
    </linearGradient>
    <linearGradient
       gradientTransform="translate(-11.543946,1.96094)"
       id="c-9"
       gradientUnits="userSpaceOnUse"
       x1="27"
       x2="27"
       xlink:href="#a-9"
       y1="304.64999"
       y2="287.64999" />
    <linearGradient
       id="a-9">
      <stop
         offset="0"
         stop-color="#9bd4e3"
         id="stop5-3" />
      <stop
         offset="1"
         stop-color="#f7fafc"
         id="stop7-2" />
    </linearGradient>
    <linearGradient
       id="e-4"
       gradientUnits="userSpaceOnUse"
       x1="-99"
       x2="-99"
       xlink:href="#a-9"
       y1="393.64999"
       y2="389.64999"
       gradientTransform="translate(109,-87)" />
    <filter
       style="color-interpolation-filters:sRGB"
       id="d-7"
       height="1.093766"
       width="1.098343"
       x="-0.049171001"
       y="-0.046882998">
      <feGaussianBlur
         stdDeviation=".35009771"
         id="feGaussianBlur16" />
    </filter>
    <filter
       style="color-interpolation-filters:sRGB"
       id="f"
       height="1.256"
       width="1.1536"
       x="-0.076800004"
       y="-0.12800001">
      <feGaussianBlur
         stdDeviation=".32"
         id="feGaussianBlur20" />
    </filter>
  </defs>
  <sodipodi:namedview
     id="base"
     pagecolor="#ffffff"
     bordercolor="#666666"
     borderopacity="1.0"
     inkscape:pageopacity="0.0"
     inkscape:pageshadow="2"
     inkscape:zoom="16"
     inkscape:cx="16.94469"
     inkscape:cy="7.5239757"
     inkscape:document-units="px"
     inkscape:current-layer="layer1"
     showgrid="true"
     units="px"
     inkscape:window-width="1360"
     inkscape:window-height="697"
     inkscape:window-x="0"
     inkscape:window-y="0"
     inkscape:window-maximized="1"
     objecttolerance="10"
     gridtolerance="10"
     guidetolerance="10"
     inkscape:snap-bbox="true"
     inkscape:bbox-nodes="true"
     inkscape:showpageshadow="false"
     inkscape:bbox-paths="true"
     inkscape:snap-bbox-edge-midpoints="true"
     inkscape:snap-bbox-midpoints="true"
     inkscape:object-paths="true"
     inkscape:snap-intersection-paths="true"
     inkscape:object-nodes="false"
     inkscape:snap-smooth-nodes="false"
     inkscape:snap-midpoints="false">
    <inkscape:grid
       type="xygrid"
       id="grid7897"
       empspacing="4" />
  </sodipodi:namedview>
  <metadata
     id="metadata5">
    <rdf:RDF>
      <cc:Work
         rdf:about="">
        <dc:format>image/svg+xml</dc:format>
        <dc:type
           rdf:resource="http://purl.org/dc/dcmitype/StillImage" />
        <dc:title>Antu icon Theme</dc:title>
      </cc:Work>
    </rdf:RDF>
  </metadata>
  <g
     inkscape:label="Capa 1"
     inkscape:groupmode="layer"
     id="layer1"
     transform="translate(0,-282.64999)">
    <path
       style="fill:#042233"
       inkscape:connector-curvature="0"
       d="m 3,283.64999 25.999999,0 C 30.108,283.64999 31,284.542 31,285.65 l 0,25.99998 c 0,1.108 -0.892,2.00001 -2.000001,2.00001 L 3,313.64999 c -1.108,0 -2,-0.89201 -2,-2.00001 L 1,285.65 c 0,-1.108 0.892,-2.00001 2,-2.00001 z"
       id="path24" />
    <path
       style="fill:url(#b-8)"
       inkscape:connector-curvature="0"
       d="m 3,284.65 25.999999,0 C 29.554,284.65 30,285.09598 30,285.64998 l 0,26.00001 c 0,0.55397 -0.446,0.99999 -1.000001,0.99999 L 3,312.64998 c -0.554,0 -1,-0.44602 -1,-0.99999 L 2,285.64998 C 2,285.09598 2.446,284.65 3,284.65 Z"
       id="path26" />
    <path
       style="fill:#ffffff;fill-opacity:0.63440899;filter:url(#d-7)"
       inkscape:connector-curvature="0"
       d="m 15.368155,289.68905 a 9,9 0 0 0 -7.9121092,8.92188 9,9 0 0 0 9.0000002,9 9,9 0 0 0 8.087891,-5.07813 9,9 0 0 1 -0.451172,0.0547 9,9 0 0 1 -0.636719,0.0234 9,9 0 0 1 -0.898438,-0.0449 9,9 0 0 1 -0.888671,-0.13477 9,9 0 0 1 -0.873047,-0.22265 9,9 0 0 1 -0.84375,-0.3086 9,9 0 0 1 -0.810547,-0.39062 9,9 0 0 1 -0.767578,-0.47071 9,9 0 0 1 -0.716797,-0.54492 9,9 0 0 1 -0.658203,-0.61328 9,9 0 0 1 -0.59375,-0.67578 9,9 0 0 1 -0.521485,-0.73047 9,9 0 0 1 -0.449218,-0.78125 9,9 0 0 1 -0.367188,-0.82031 9,9 0 0 1 -0.283203,-0.85352 9,9 0 0 1 -0.197266,-0.8789 9,9 0 0 1 -0.107421,-0.89258 9,9 0 0 1 -0.02344,-0.63671 9,9 0 0 1 0.04492,-0.89844 9,9 0 0 1 0.134766,-0.88867 9,9 0 0 1 0.222656,-0.87305 9,9 0 0 1 0.308594,-0.84375 9,9 0 0 1 0.201171,-0.41797 z"
       id="path30" />
    <path
       style="fill:url(#c-9)"
       inkscape:connector-curvature="0"
       d="m 15.368163,289.68905 a 9,9 0 0 0 -7.9121085,8.92188 9,9 0 0 0 8.9999995,9 9,9 0 0 0 8.087891,-5.07813 9,9 0 0 1 -0.451172,0.0547 9,9 0 0 1 -0.636719,0.0234 9,9 0 0 1 -0.898438,-0.0449 9,9 0 0 1 -0.888671,-0.13477 9,9 0 0 1 -0.873047,-0.22265 9,9 0 0 1 -0.84375,-0.3086 9,9 0 0 1 -0.810547,-0.39062 9,9 0 0 1 -0.767578,-0.47071 9,9 0 0 1 -0.716797,-0.54492 9,9 0 0 1 -0.658203,-0.61328 9,9 0 0 1 -0.59375,-0.67578 9,9 0 0 1 -0.521485,-0.73047 9,9 0 0 1 -0.449218,-0.78125 9,9 0 0 1 -0.367188,-0.82031 9,9 0 0 1 -0.283203,-0.85352 9,9 0 0 1 -0.197266,-0.8789 9,9 0 0 1 -0.107421,-0.89258 9,9 0 0 1 -0.02344,-0.63671 9,9 0 0 1 0.04492,-0.89844 9,9 0 0 1 0.134766,-0.88867 9,9 0 0 1 0.222656,-0.87305 9,9 0 0 1 0.308594,-0.84375 9,9 0 0 1 0.201171,-0.41797 z"
       id="path32" />
    <path
       style="fill:#003959;fill-opacity:0.53157899;filter:url(#f)"
       inkscape:connector-curvature="0"
       d="M 10.5,301.64999 A 2.5,2.5 0 0 0 8.33594,302.9039 1.5,1.5 0 0 0 7.5,302.64999 1.5,1.5 0 0 0 6.02148,303.9078 2,2 0 0 0 5,305.64999 a 2,2 0 0 0 2,2 l 6,0 1,0 a 1,1 0 0 0 1,-1 1,1 0 0 0 -1,-1 1,1 0 0 0 -0.0898,0.004 A 1.5,1.5 0 0 0 14,305.15009 1.5,1.5 0 0 0 12.96289,303.72431 2.5,2.5 0 0 0 10.5,301.65009 Z m 2.50586,4.91016 a 1,1 0 0 0 -0.006,0.0898 l 0,-0.0879 a 1.5,1.5 0 0 0 0.006,-0.002 z"
       id="path62" />
    <path
       style="opacity:0.98999999;fill:url(#e-4)"
       inkscape:connector-curvature="0"
       d="M 10.5,301.64999 A 2.5,2.5 0 0 0 8.33594,302.9039 1.5,1.5 0 0 0 7.5,302.64999 1.5,1.5 0 0 0 6.02148,303.9078 2,2 0 0 0 5,305.64999 a 2,2 0 0 0 2,2 l 6,0 1,0 a 1,1 0 0 0 1,-1 1,1 0 0 0 -1,-1 1,1 0 0 0 -0.0898,0.004 A 1.5,1.5 0 0 0 14,305.15008 1.5,1.5 0 0 0 12.96289,303.7243 2.5,2.5 0 0 0 10.5,301.65008 Z m 2.50586,4.91016 a 1,1 0 0 0 -0.006,0.0898 l 0,-0.0879 a 1.5,1.5 0 0 0 0.006,-0.002 z"
       id="path76" />
  </g>
</svg>
