<?xml version="1.0" encoding="UTF-8" standalone="no"?>
<!-- Created with Inkscape (http://www.inkscape.org/) -->

<svg
   xmlns:dc="http://purl.org/dc/elements/1.1/"
   xmlns:cc="http://creativecommons.org/ns#"
   xmlns:rdf="http://www.w3.org/1999/02/22-rdf-syntax-ns#"
   xmlns:svg="http://www.w3.org/2000/svg"
   xmlns="http://www.w3.org/2000/svg"
   xmlns:xlink="http://www.w3.org/1999/xlink"
   xmlns:sodipodi="http://sodipodi.sourceforge.net/DTD/sodipodi-0.dtd"
   xmlns:inkscape="http://www.inkscape.org/namespaces/inkscape"
   width="32"
   height="32"
   viewBox="0 0 32 32"
   version="1.1"
   id="svg8"
   inkscape:version="0.91 r13725"
   sodipodi:docname="weather-freezing-rain.svg">
  <title
     id="title7895">Antu icon Theme</title>
  <defs
     id="defs2">
    <linearGradient
       id="j"
       gradientUnits="userSpaceOnUse"
       x1="-96"
       x2="-96"
       y1="401.64999"
       y2="371.64999"
       gradientTransform="translate(28,-86)">
      <stop
         offset="0"
         stop-color="#4c7080"
         id="stop26" />
      <stop
         offset="1"
         stop-color="#263740"
         id="stop28" />
    </linearGradient>
    <linearGradient
       id="a-4"
       gradientUnits="userSpaceOnUse"
       x1="-96"
       x2="-96"
       y1="400.64996"
       y2="372.65002"
       gradientTransform="translate(28,-86)">
      <stop
         offset="0"
         stop-color="#6899ae"
         id="stop5-1" />
      <stop
         offset="1"
         stop-color="#3d5866"
         id="stop7-54" />
    </linearGradient>
    <linearGradient
       id="g-4"
       gradientUnits="userSpaceOnUse"
       x1="-90"
       x2="-90"
       xlink:href="#k"
       y1="397.64996"
       y2="395.64996"
       gradientTransform="translate(28,-86)" />
    <linearGradient
       id="k">
      <stop
         offset="0"
         stop-color="#3e9ff4"
         id="stop31-4" />
      <stop
         offset="1"
         stop-color="#50c2f9"
         id="stop33-9" />
    </linearGradient>
    <linearGradient
       id="d-03"
       gradientUnits="userSpaceOnUse"
       x1="-92"
       x2="-92"
       xlink:href="#k"
       y1="393.64996"
       y2="391.64996"
       gradientTransform="translate(28,-86)" />
    <linearGradient
       id="f-8"
       gradientUnits="userSpaceOnUse"
       x1="-96.0625"
       x2="-96.0625"
       xlink:href="#k"
       y1="398.64996"
       y2="395.64996"
       gradientTransform="translate(28,-86)" />
    <linearGradient
       id="e-55"
       gradientUnits="userSpaceOnUse"
       x1="-98"
       x2="-98.03125"
       xlink:href="#k"
       y1="393.64996"
       y2="390.64996"
       gradientTransform="translate(28,-86)" />
    <linearGradient
       id="h-6"
       gradientUnits="userSpaceOnUse"
       x1="-102"
       x2="-102"
       xlink:href="#k"
       y1="393.64996"
       y2="391.64996"
       gradientTransform="translate(28,-86)" />
    <linearGradient
       id="b-5"
       gradientUnits="userSpaceOnUse"
       x1="-96.000137"
       x2="-96"
       y1="387.6499"
       y2="377.64999"
       gradientTransform="translate(28,-86)">
      <stop
         offset="0"
         stop-color="#c2ebfd"
         id="stop10-22" />
      <stop
         offset="1"
         stop-color="#f2fafe"
         id="stop12-27" />
    </linearGradient>
    <filter
       style="color-interpolation-filters:sRGB"
       id="i"
       height="1.144001"
       width="1.072"
       x="-0.035999998"
       y="-0.071999997">
      <feGaussianBlur
         stdDeviation=".2099995"
         id="feGaussianBlur23-1" />
    </filter>
    <filter
       style="color-interpolation-filters:sRGB"
       id="c-3"
       height="1.12"
       width="1.08"
       x="-0.039999999"
       y="-0.059999999">
      <feGaussianBlur
         stdDeviation=".30000019"
         id="feGaussianBlur15-8" />
    </filter>
  </defs>
  <sodipodi:namedview
     id="base"
     pagecolor="#ffffff"
     bordercolor="#666666"
     borderopacity="1.0"
     inkscape:pageopacity="0.0"
     inkscape:pageshadow="2"
     inkscape:zoom="5.6568542"
     inkscape:cx="-28.910903"
     inkscape:cy="5.069446"
     inkscape:document-units="px"
     inkscape:current-layer="layer1"
     showgrid="true"
     units="px"
     inkscape:window-width="1360"
     inkscape:window-height="697"
     inkscape:window-x="0"
     inkscape:window-y="0"
     inkscape:window-maximized="1"
     objecttolerance="10"
     gridtolerance="10"
     guidetolerance="10"
     inkscape:snap-bbox="true"
     inkscape:bbox-nodes="true"
     inkscape:showpageshadow="false"
     inkscape:bbox-paths="true"
     inkscape:snap-bbox-edge-midpoints="true"
     inkscape:snap-bbox-midpoints="true"
     inkscape:object-paths="true"
     inkscape:snap-intersection-paths="true"
     inkscape:object-nodes="false"
     inkscape:snap-smooth-nodes="false"
     inkscape:snap-midpoints="false">
    <inkscape:grid
       type="xygrid"
       id="grid7897"
       empspacing="4" />
  </sodipodi:namedview>
  <metadata
     id="metadata5">
    <rdf:RDF>
      <cc:Work
         rdf:about="">
        <dc:format>image/svg+xml</dc:format>
        <dc:type
           rdf:resource="http://purl.org/dc/dcmitype/StillImage" />
        <dc:title>Antu icon Theme</dc:title>
      </cc:Work>
    </rdf:RDF>
  </metadata>
  <g
     inkscape:label="Capa 1"
     inkscape:groupmode="layer"
     id="layer1"
     transform="translate(0,-282.64999)">
    <g
       id="g11598"
       transform="translate(84,-2)">
      <path
         id="path37-3"
         d="m -81,285.64999 26,0 c 1.108,0 2,0.89201 2,2.00001 l 0,25.99998 c 0,1.108 -0.892,2.00001 -2,2.00001 l -26,0 c -1.108,0 -2,-0.89201 -2,-2.00001 L -83,287.65 c 0,-1.108 0.892,-2.00001 2,-2.00001 z"
         inkscape:connector-curvature="0"
         style="fill:url(#j)" />
      <path
         id="path39-6"
         d="m -81,286.65002 26,0 c 0.554,0 1,0.44598 1,0.99998 l 0,26.00001 c 0,0.55397 -0.446,0.99999 -1,0.99999 l -26,0 c -0.554,0 -1,-0.44602 -1,-0.99999 L -82,287.65 c 0,-0.554 0.446,-0.99998 1,-0.99998 z"
         inkscape:connector-curvature="0"
         style="fill:url(#a-4)" />
      <path
         id="path41-33"
         d="m -69.5,304.64999 c -0.831,0 -1.5,0.669 -1.5,1.5 0,0.831 0.669,1.5 1.5,1.5 0.831,0 1.5,-0.669 1.5,-1.5 0,-0.831 -0.669,-1.5 -1.5,-1.5 z m -4.5,1 c -0.554,0 -1,0.446 -1,1 0,0.554 0.446,1 1,1 0.554,0 1,-0.446 1,-1 0,-0.554 -0.446,-1 -1,-1 z m 10.5,0 c -0.831,0 -1.5,0.669 -1.5,1.5 0,0.831 0.669,1.5 1.5,1.5 0.831,0 1.5,-0.669 1.5,-1.5 0,-0.831 -0.669,-1.5 -1.5,-1.5 z m -4.01563,4 c -0.82234,0 -1.48437,0.66203 -1.48437,1.48438 l 0,0.0312 c 0,0.82235 0.66203,1.48437 1.48437,1.48437 l 0.0312,0 c 0.82235,0 1.48438,-0.66202 1.48438,-1.48437 l 0,-0.0312 c 0,-0.82235 -0.66203,-1.48438 -1.48438,-1.48438 z m 5.51563,0 c -0.554,0 -1,0.446 -1,1 0,0.554 0.446,1 1,1 0.554,0 1,-0.446 1,-1 0,-0.554 -0.446,-1 -1,-1 z"
         inkscape:connector-curvature="0"
         style="fill-opacity:0.38172003;filter:url(#i)" />
      <path
         id="path43-4"
         d="m -69.5,304.64999 c 0.831,0 1.5,0.669 1.5,1.5 0,0.831 -0.669,1.5 -1.5,1.5 -0.831,0 -1.5,-0.669 -1.5,-1.5 0,-0.831 0.669,-1.5 1.5,-1.5 z"
         inkscape:connector-curvature="0"
         style="fill:url(#e-55)" />
      <path
         id="path45-4"
         d="m -67.51563,309.64999 0.0312,0 c 0.82235,0 1.48438,0.66204 1.48438,1.48438 l 0,0.0312 c 0,0.82235 -0.66203,1.48438 -1.48438,1.48438 l -0.0312,0 C -68.33797,312.65 -69,311.98797 -69,311.16562 l 0,-0.0312 c 0,-0.82234 0.66203,-1.48438 1.48437,-1.48438 z"
         inkscape:connector-curvature="0"
         style="fill:url(#f-8)" />
      <path
         id="path47-39"
         d="m -66.50014,290.64998 c -2.10069,0 -3.83934,1.43302 -4.33985,3.37309 -0.3273,-0.23357 -0.72565,-0.37304 -1.16015,-0.37304 -1.10798,0 -2,0.89204 -2,2.00002 0,0.0151 0.005,0.034 0.006,0.0488 -1.7011,0.24075 -3.00586,1.68155 -3.00586,3.45116 0,1.93901 1.561,3.49999 3.5,3.49999 l 11,0 c 1.939,0 3.5,-1.56098 3.5,-3.49999 0,-1.78632 -1.32996,-3.23535 -3.05469,-3.45506 0.0219,-0.18066 0.0547,-0.35792 0.0547,-0.54493 0,-2.49297 -2.00701,-4.50002 -4.5,-4.50002 z"
         inkscape:connector-curvature="0"
         style="fill:#666666;fill-opacity:0.53157899;filter:url(#c-3)" />
      <path
         id="path49-72"
         d="m -66.50014,290.64998 c -2.10069,0 -3.83934,1.43302 -4.33985,3.37309 -0.3273,-0.23357 -0.72565,-0.37304 -1.16015,-0.37304 -1.10798,0 -2,0.89204 -2,2.00002 0,0.0151 0.005,0.034 0.006,0.0488 -1.7011,0.24075 -3.00586,1.68155 -3.00586,3.45116 0,1.93901 1.561,3.49999 3.5,3.49999 l 11,0 c 1.939,0 3.5,-1.56098 3.5,-3.49999 0,-1.78632 -1.32996,-3.23535 -3.05469,-3.45506 0.0219,-0.18066 0.0547,-0.35792 0.0547,-0.54493 0,-2.49297 -2.00701,-4.50002 -4.5,-4.50002 z"
         inkscape:connector-curvature="0"
         style="fill:url(#b-5)" />
      <path
         id="path51-5"
         d="m -63.5,305.64999 c 0.831,0 1.5,0.669 1.5,1.5 0,0.831 -0.669,1.5 -1.5,1.5 -0.831,0 -1.5,-0.669 -1.5,-1.5 0,-0.831 0.669,-1.5 1.5,-1.5 z"
         inkscape:connector-curvature="0"
         style="fill:url(#d-03)" />
      <path
         id="path53-8"
         d="m -62,309.64999 c 0.554,0 1,0.446 1,1 0,0.554 -0.446,1 -1,1 -0.554,0 -1,-0.446 -1,-1 0,-0.554 0.446,-1 1,-1 z"
         inkscape:connector-curvature="0"
         style="fill:url(#g-4)" />
      <path
         id="path55-9"
         d="m -74,305.64999 c 0.554,0 1,0.446 1,1 0,0.554 -0.446,1 -1,1 -0.554,0 -1,-0.446 -1,-1 0,-0.554 0.446,-1 1,-1 z"
         inkscape:connector-curvature="0"
         style="fill:url(#h-6)" />
    </g>
  </g>
</svg>
