<svg height="32" viewBox="0 0 32 32" width="32" xmlns="http://www.w3.org/2000/svg" xmlns:xlink="http://www.w3.org/1999/xlink"><linearGradient id="a" gradientUnits="userSpaceOnUse" x1="-95.99999853038" x2="-96.00000230991" y1="400.64997490543" y2="372.65002573663"><stop offset="0" stop-color="#6899ae"/><stop offset="1" stop-color="#3d5866"/></linearGradient><linearGradient id="b" gradientUnits="userSpaceOnUse" x1="-96.00013912783" x2="-95.99999928531" y1="387.64990904762" y2="377.64999739285"><stop offset="0" stop-color="#c2ebfd"/><stop offset="1" stop-color="#f2fafe"/></linearGradient><filter id="c" color-interpolation-filters="sRGB" height="1.12" width="1.08" x="-.04" y="-.06"><feGaussianBlur stdDeviation=".30000019"/></filter><linearGradient id="d" gradientUnits="userSpaceOnUse" x1="-92" x2="-92" xlink:href="#k" y1="393.649975" y2="391.649975"/><linearGradient id="e" gradientUnits="userSpaceOnUse" x1="-90" x2="-90" xlink:href="#k" y1="397.649975" y2="395.649975"/><linearGradient id="f" gradientUnits="userSpaceOnUse" x1="-102" x2="-102" xlink:href="#k" y1="393.649975" y2="391.649975"/><filter id="g" color-interpolation-filters="sRGB" height="1.144001" width="1.072" x="-.036" y="-.072"><feGaussianBlur stdDeviation=".2099995"/></filter><linearGradient id="h" gradientUnits="userSpaceOnUse" x1="-96" x2="-96" y1="401.64999" y2="371.64999"><stop offset="0" stop-color="#4c7080"/><stop offset="1" stop-color="#263740"/></linearGradient><linearGradient id="i" gradientUnits="userSpaceOnUse" x1="-99" x2="-99" xlink:href="#k" y1="396.64999" y2="394.64999"/><filter id="j" color-interpolation-filters="sRGB" height="1.336" width="1.336" x="-.168" y="-.168"><feGaussianBlur stdDeviation=".14"/></filter><linearGradient id="k"><stop offset="0" stop-color="#3e9ff4"/><stop offset="1" stop-color="#50c2f9"/></linearGradient><g transform="translate(112 -370.64999)"><path d="m-109 371.64999h25.999999c1.108001 0 2.000001.89201 2.000001 2.00001v25.99998c0 1.108-.892 2.00001-2.000001 2.00001h-25.999999c-1.108 0-2-.89201-2-2.00001v-25.99998c0-1.108.892-2.00001 2-2.00001z" fill="url(#h)"/><path d="m-109 372.65002h25.999999c.554001 0 1.000001.44598 1.000001.99998v26.00001c0 .55397-.446.99999-1.000001.99999h-25.999999c-.554 0-1-.44602-1-.99999v-26.00001c0-.554.446-.99998 1-.99998z" fill="url(#a)"/><path d="m10 21c-.554 0-1 .446-1 1s.446 1 1 1 1-.446 1-1-.446-1-1-1zm10.5 0c-.831 0-1.5.669-1.5 1.5s.669 1.5 1.5 1.5 1.5-.669 1.5-1.5-.669-1.5-1.5-1.5zm1.5 4c-.554 0-1 .446-1 1s.446 1 1 1 1-.446 1-1-.446-1-1-1z" fill="#242424" fill-opacity=".693548" filter="url(#g)" transform="translate(-112 370.64999)"/><path d="m-94.500141 376.64998c-2.100688 0-3.839338 1.43302-4.339848 3.37309-.3273-.23357-.72565-.37304-1.160151-.37304-1.10798 0-2 .89204-2 2.00002 0 .0151.005.034.006.0488-1.7011.24075-3.00586 1.68155-3.00586 3.45116 0 1.93901 1.561 3.49999 3.5 3.49999h10.999999c1.939 0 3.5-1.56098 3.5-3.49999 0-1.78632-1.329963-3.23535-3.054688-3.45506.02192-.18066.05469-.35792.05469-.54493 0-2.49297-2.007014-4.50002-4.500002-4.50002z" fill="#666" fill-opacity=".531579" filter="url(#c)"/><path d="m-94.50014 376.64998c-2.10069 0-3.83934 1.43302-4.33985 3.37309-.327299-.23357-.72565-.37304-1.16015-.37304-1.10798 0-2 .89204-2 2.00002 0 .0151.005.034.006.0488-1.7011.24075-3.00586 1.68155-3.00586 3.45116 0 1.93901 1.561 3.49999 3.5 3.49999h11c1.938999 0 3.5-1.56098 3.5-3.49999 0-1.78632-1.329964-3.23535-3.054688-3.45506.02192-.18066.05469-.35792.05469-.54493 0-2.49297-2.007014-4.50002-4.500001-4.50002z" fill="url(#b)"/><path d="m-91.5 391.64999c.831 0 1.5.669 1.5 1.5s-.669 1.5-1.5 1.5-1.5-.669-1.5-1.5.669-1.5 1.5-1.5z" fill="url(#d)"/><path d="m-90 395.64999c.554 0 1 .446 1 1s-.446 1-1 1-1-.446-1-1 .446-1 1-1z" fill="url(#e)"/><path d="m-102 391.64999c.554 0 1 .446 1 1s-.446 1-1 1-1-.446-1-1 .446-1 1-1z" fill="url(#f)"/><path d="m-99 394.64999c.554 0 1 .446 1 1s-.446 1-1 1-1-.446-1-1 .446-1 1-1z" fill="#303030" fill-opacity=".704301" filter="url(#j)"/><path d="m-99 394.64999c.554 0 1 .446 1 1s-.446 1-1 1-1-.446-1-1 .446-1 1-1z" fill="url(#i)" opacity=".92"/></g></svg>