<svg
    height="22" 
    viewBox="0 0 22 22"
    width="22"
    xmlns="http://www.w3.org/2000/svg">
    <defs id="defs2">
    <style
       type="text/css"
       id="current-color-scheme">
      .ColorScheme-Text {
        color:#36404d;
      }
      </style>
    </defs>
    <path 
        d="m7.0003805 3c-.3591472-.0002921-.6908691.1920503-.8690578.5039061l-3.9996192 6.9999999c-.1756046.307415-.1756046.684773 0 .992188l3.9996192 7c.1781888.311856.5099106.504198.8690578.503906h7.9992385c.359147.000292.69087-.19205.869059-.503906l3.999619-7c.175604-.307415.175604-.684773 0-.992188l-3.999619-6.9999999c-.178189-.3118559-.509911-.5041984-.869059-.5039061zm3.9996195 4.9999999c1.661842 0 2.999715 1.338 2.999715 3.0000001 0 1.662-1.337873 3-2.999715 3s-2.9997147-1.338-2.9997147-3c0-1.6620001 1.3378727-3.0000001 2.9997147-3.0000001z" 
        fill="currentColor" 
        fill-rule="evenodd"
        style="fill:currentColor;fill-opacity:1;stroke:none"
        class="ColorScheme-Text"/>
</svg>
