<svg 
    height="22"
    viewBox="0 0 5.8208332 5.8208335"
    width="22" 
    xmlns="http://www.w3.org/2000/svg">
    <defs id="defs2">
    <style
       type="text/css"
       id="current-color-scheme">
      .ColorScheme-Text {
        color:#36404d;
      }
      </style>
    </defs>
    <path 
        d="m-.79375004 289.32709c-1.02605416 0-1.85208326.82603-1.85208326 1.85208 0 1.02606.8260291 1.85209 1.85208326 1.85209.4850564 0 .924155-.18579 1.2536702-.48886l.3467489.34675a.52921958.52921958 0 0 0 .1421104.51624l.26458334.26459a.52921958.52921958 0 1 0 .7482745-.74828l-.2645834-.26458a.52921958.52921958 0 0 0 -.3798215-.1602.52921958.52921958 0 0 0 -.135909.0186l-.38602324-.38603c.1659954-.27778.26303324-.6019.26303324-.95033 0-1.02605-.82602924-1.85208-1.85208344-1.85208zm-.00723.79375h.01447c.5823101 0 1.0510986.46879 1.0510986 1.0511v.0145c0 .58231-.4687885 1.0511-1.0510986 1.0511h-.01447c-.58230996 0-1.05109856-.46879-1.05109856-1.0511v-.0145c0-.58231.4687886-1.0511 1.05109856-1.0511z"
        fill="currentColor"
        transform="translate(3.1712 -288.797913)"
        style="fill:currentColor;fill-opacity:1;stroke:none"
        class="ColorScheme-Text"/>
</svg>
