<svg 
    height="22" 
    viewBox="0 0 22 22"
    width="22"
    xmlns="http://www.w3.org/2000/svg">
    <defs id="defs2">
    <style
       type="text/css"
       id="current-color-scheme">
      .ColorScheme-Text {
        color:#122036;
      }
      </style>
    </defs>
    <path 
        d="m4 2c-1.108 0-2 .892-2 2v14c0 1.108.892 2 2 2h14c1.108 0 2-.892 2-2v-14c0-1.108-.892-2-2-2zm0 6h14v10h-14zm1 1v2h2v-2zm3 0v2h2v-2zm4 0v2h2v-2zm3 0v2h2v-2zm-10 3v2h2v-2zm3 0v2h2v-2zm4 0v2h2v-2zm3 0v2h2v-2zm-10 3v2h2v-2zm3 0v2h2v-2zm4 0v2h2v-2zm3 0v2h2v-2z" fill="currentColor"
        style="fill:currentColor;fill-opacity:1;stroke:none"
        class="ColorScheme-Text"/>
</svg>
