<svg
    height="22" 
    viewBox="0 0 22 22"
    width="22" 
    xmlns="http://www.w3.org/2000/svg">
    <defs id="defs2">
    <style
       type="text/css"
       id="current-color-scheme">
      .ColorScheme-Text {
        color:#122036;
      }
      </style>
    </defs>
    <path 
        d="m14.986328 3.0136719c-.08334.00271-.166012.015834-.246094.039063l-13.99999962 4c-.42880698.1228737-.72439939.5148726-.72460938.960937v5.0000001c-.00022521.43057.27515435.812955.68359375.949219l2.31640625.771484v1.279297c-.0002252.43057.2751543.812955.6835938.949219l6 2c.6477872.215965 1.3167182-.26638 1.3164062-.949219v-1.099609l3.726562 1.060547c.638128.181309 1.272719-.297554 1.273438-.960938v-13.0000001c.000184-.5639067-.465631-1.0164628-1.029297-1zm6.013672.9863281a1.0001 1.0001 0 0 0 -.984375 1.0136719v11.0000001a1.0001 1.0001 0 1 0 2 0v-11.0000001a1.0001 1.0001 0 0 0 -1.015625-1.0136719zm-3 3a1.0001 1.0001 0 0 0 -.984375 1.0136719v5.0000001a1.0001 1.0001 0 1 0 2 0v-5.0000001a1.0001 1.0001 0 0 0 -1.015625-1.0136719z" 
        fill="currentColor"
        style="fill:currentColor;fill-opacity:1;stroke:none"
        class="ColorScheme-Text"/>
</svg>
