<svg
    height="22" 
    viewBox="0 0 5.8208332 5.8208335" 
    width="22"
    xmlns="http://www.w3.org/2000/svg">
    <defs id="defs2">
    <style
       type="text/css"
       id="current-color-scheme">
      .ColorScheme-Text {
        color:#36404d;
      }
      </style>
    </defs>
    <path 
        d="m1.0583334 291.70833c-.29315833 0-.52916673.23601-.52916673.52917v3.70416c0 .29316.2360084.52917.52916673.52917h3.7041666c.2931584 0 .5291667-.23601.5291667-.52917v-3.70416c0-.29316-.2360083-.52917-.5291667-.52917zm0 1.5875h3.7041666v2.64583h-3.7041666zm1.0583333.52917c-.1465792 0-.2645833.118-.2645833.26458v1.32292c0 .14658.1180041.26458.2645833.26458s.2645833-.118.2645833-.26458v-1.32292c0-.14658-.1180041-.26458-.2645833-.26458zm1.190625 0c-.3664479 0-.6614583.29501-.6614583.66146v.52916c0 .36645.2950104.66146.6614583.66146s.6614583-.29501.6614583-.66146v-.52916c0-.36645-.2950104-.66146-.6614583-.66146zm0 .52916c.07329 0 .1322917.059.1322917.1323v.52916c0 .0733-.059002.13229-.1322917.13229-.07329 0-.1322917-.059-.1322917-.13229v-.52916c0-.0733.059002-.1323.1322917-.1323z" fill="currentColor" 
        transform="translate(0 -291.17916)"
        style="fill:currentColor;fill-opacity:1;stroke:none"
        class="ColorScheme-Text"/>
</svg>
