<svg 
    height="22" 
    viewBox="0 0 22 22"
    width="22" 
    xmlns="http://www.w3.org/2000/svg">
    <defs id="defs2">
    <style
       type="text/css"
       id="current-color-scheme">
      .ColorScheme-Text {
        color:#36404d;
      }
      </style>
    </defs>
    <path 
        d="m4 2c-1.108 0-2 .892-2 2v4c0 1.108.892 2 2 2h4c1.108 0 2-.892 2-2v-4c0-1.108-.892-2-2-2zm10 0c-1.108 0-2 .892-2 2v4c0 1.108.892 2 2 2h4c1.108 0 2-.892 2-2v-4c0-1.108-.892-2-2-2zm-9.3339844 2h2.6679688c.3693333 0 .6660156.2966823.6660156.6660156v2.6679688c0 .3693333-.2966823.6660156-.6660156.6660156h-2.6679688c-.3693333 0-.6660156-.2966823-.6660156-.6660156v-2.6679688c0-.3693333.2966823-.6660156.6660156-.6660156zm-.6660156 8c-1.108 0-2 .892-2 2v4c0 1.108.892 2 2 2h4c1.108 0 2-.892 2-2v-4c0-1.108-.892-2-2-2zm10 0c-1.108 0-2 .892-2 2v4c0 1.108.892 2 2 2h4c1.108 0 2-.892 2-2v-4c0-1.108-.892-2-2-2zm.666016 2h2.667968c.369334 0 .666016.296682.666016.666016v2.667968c0 .369334-.296682.666016-.666016.666016h-2.667968c-.369334 0-.666016-.296682-.666016-.666016v-2.667968c0-.369334.296682-.666016.666016-.666016z" fill="currentColor"
        style="fill:currentColor;fill-opacity:1;stroke:none"
        class="ColorScheme-Text"/>
</svg>
