<svg 
    height="22" 
    viewBox="0 0 22 22"
    width="22" 
    xmlns="http://www.w3.org/2000/svg">
    <defs id="defs2">
    <style
       type="text/css"
       id="current-color-scheme">
      .ColorScheme-Text {
        color:#36404d;
      }
      </style>
    </defs>
    <path 
        d="m4 2c-1.108 0-2 .892-2 2v4c0 1.108.892 2 2 2h4c1.108 0 2-.892 2-2v-4c0-1.108-.892-2-2-2zm.6660156 2h2.6679688c.3693333 0 .6660156.2966823.6660156.6660156v2.6679688c0 .3693333-.2966823.6660156-.6660156.6660156h-2.6679688c-.3693333 0-.6660156-.2966823-.6660156-.6660156v-2.6679688c0-.3693333.2966823-.6660156.6660156-.6660156zm9.3339844 0c-1.108 0-2 .892-2 2v4c0 1.108.892 2 2 2h4c1.108 0 2-.892 2-2v-4c0-1.108-.892-2-2-2zm-5 8c-.554 0-1 .446-1 1v2h-1c-.798591.000171-1.2748732.890133-.8320312 1.554688l2 3c.181985.273066.4863521.439512.8144531.445312.340556.005925.6607143-.161883.8496093-.445312l1.9999998-3c.442842-.664554-.033444-1.554517-.832031-1.554688h-1v-2c0-.554-.446-1-1-1z" 
        fill="currentColor"
        style="fill:currentColor;fill-opacity:1;stroke:none"
        class="ColorScheme-Text"/>
</svg>
