<svg
    height="22"
    viewBox="0 0 5.8208332 5.8208335" 
    width="22"
    xmlns="http://www.w3.org/2000/svg">
    <defs id="defs2">
    <style
       type="text/css"
       id="current-color-scheme">
      .ColorScheme-Text {
        color:#36404d;
      }
      </style>
    </defs>
    <path 
        d="m11 2c-4.9859996 0-9 4.0140004-9 9 0 4.986 4.0140004 9 9 9 4.986 0 9-4.014 9-9 0-4.9859996-4.014-9-9-9zm-3.0195312 3.9785156a2.0001999 2.0001999 0 0 1 1.4316406.6054688l1.5878906 1.5878906 1.585938-1.5878906a2.0002001 2.0002001 0 0 1 1.373046-.6054688 2.0002001 2.0002001 0 0 1 1.455078 3.4335938l-1.585937 1.5878906 1.585937 1.585938a2.0001999 2.0001999 0 1 1 -2.828124 2.828124l-1.585938-1.585937-1.5878906 1.585937a2.0002001 2.0002001 0 1 1 -2.828125-2.828124l1.5878906-1.585938-1.5878906-1.5878906a2.0001999 2.0001999 0 0 1 1.3964844-3.4335938z" fill="currentColor" 
        transform="scale(.26458333)"
        style="fill:currentColor;fill-opacity:1;stroke:none"
        class="ColorScheme-Text"/>
</svg>
