<svg 
    height="22"
    viewBox="0 0 22 22" 
    width="22" 
    xmlns="http://www.w3.org/2000/svg">
    <defs id="defs2">
    <style
       type="text/css"
       id="current-color-scheme">
      .ColorScheme-Text {
        color:#122036;
      }
      </style>
    </defs>
    <path 
        d="m11 2c-4.986 0-9 4.014-9 9s4.014 9 9 9 9-4.014 9-9-4.014-9-9-9zm-4.0097656 3.9902344a1.0001 1.0001 0 0 1 .7167968.3027344l3.2929688 3.2929687 3.292969-3.2929687a1.0001 1.0001 0 0 1 .6875-.3027344 1.0001 1.0001 0 0 1 .726562 1.7167968l-3.292969 3.2929688 3.292969 3.292969a1.0001 1.0001 0 1 1 -1.414062 1.414062l-3.292969-3.292969-3.2929688 3.292969a1.0001 1.0001 0 1 1 -1.4140624-1.414062l3.2929687-3.292969-3.2929687-3.2929688a1.0001 1.0001 0 0 1 .6972656-1.7167968z"
        fill="currentColor"
        class="ColorScheme-Text"/>
</svg>
