<svg
    height="22" 
    viewBox="0 0 5.8208332 5.8208335"
    width="22"
    xmlns="http://www.w3.org/2000/svg">
    <defs id="defs2">
    <style
       type="text/css"
       id="current-color-scheme">
      .ColorScheme-Text {
        color:#36404d;
      }
      </style>
    </defs>
    <path 
        d="m4 2c-1.1080002 0-2 .8919937-2 2v14c0 1.107969.8919998 2 2 2h14c1.108 0 2-.892031 2-2v-14c0-1.1080063-.892-2-2-2zm8.904297 2.0039062c.031969-.0015495.063728-.0015495.095703 0h4c.549572.0019276.994145.4465127.996094.9960938v4c-.000508.8893228-1.074409 1.336008-1.705078.7089844l-4-4c-.601892-.5981481-.231666-1.6268419.613281-1.7050782zm-7.9218751 7.9941408c.2711911-.00377.5334686.102506.7246093.294922l4 4c.6270618.630667.1803675 1.70655-.7089843 1.707031h-4c-.5495865-.001945-.994166-.44846-.9960938-.998047v-4c-.0021789-.546753.433803-.993901.9804688-1.003906z"
        fill="currentColor"
        transform="scale(.26458333)"
        style="fill:currentColor;fill-opacity:1;stroke:none"
        class="ColorScheme-Text"/>
</svg>
