<svg 
    height="22"
    viewBox="0 0 5.8208332 5.8208335" 
    width="22" 
    xmlns="http://www.w3.org/2000/svg">
    <defs id="defs2">
    <style
       type="text/css"
       id="current-color-scheme">
      .ColorScheme-Text {
        color:#36404d;
      }
      </style>
    </defs>
    <path 
        d="m4 2c-1.1080002 0-2 .8919937-2 2v14c0 1.107969.8919998 2 2 2h14c1.108 0 2-.892031 2-2v-14c0-1.1080063-.892-2-2-2zm3.9726562 5a1.0001001 1.0001001 0 0 1 1.0253907.9960938v6.0019532a1.0001001 1.0001001 0 0 1 -1.7050781.708984l-2.9960938-2.998047a1.0001001 1.0001001 0 0 1 0-1.416015l2.9960938-2.9980471a1.0001001 1.0001001 0 0 1 .6796874-.2949219zm6.0156248 0a1.0001 1.0001 0 0 1 .716797.2949219l3.003906 2.9980471a1.0001 1.0001 0 0 1 0 1.416015l-3.003906 2.998047a1.0001 1.0001 0 0 1 -1.705078-.708984v-6.0019532a1.0001 1.0001 0 0 1 .988281-.9960938z" 
        fill="currentColor"
        transform="scale(.26458333)"
        style="fill:currentColor;fill-opacity:1;stroke:none"
        class="ColorScheme-Text"/>
</svg>
