<svg
    height="22"
    viewBox="0 0 5.8208332 5.8208335"
    width="22"
    xmlns="http://www.w3.org/2000/svg">
    <defs id="defs2">
    <style
       type="text/css"
       id="current-color-scheme">
      .ColorScheme-Text {
        color:#36404d;
      }
      </style>
    </defs>
    <path 
        d="m5.2916666 292.23749c0-.29316-.2360067-.52916-.5291667-.52916h-3.7041666c-.29315011 0-.52916664.236-.52916664.52916v3.70417c0 .29316.23601653.52917.52916664.52917h3.7041666c.29316 0 .5291667-.23601.5291667-.52917zm-1.3229166 1.0511a.26460981.26460981 0 0 1 -.2635499.2713h-1.5880167a.26460981.26460981 0 0 1 -.1875854-.45113l.7932333-.79272a.26460981.26460981 0 0 1 .3746539 0l.7932333.79272a.26460981.26460981 0 0 1 .078031.17983zm0 1.59164a.26460979.26460979 0 0 1 -.078031.18965l-.7932333.79478a.26460979.26460979 0 0 1 -.3746539 0l-.7932338-.79478a.26460979.26460979 0 0 1 .1875854-.45114h1.5880167a.26460979.26460979 0 0 1 .2635499.26149z"
        fill="currentColor"
        stroke-width=".264583" 
        transform="translate(0 -291.17916)"
        style="fill:currentColor;fill-opacity:1;stroke:none"
        class="ColorScheme-Text"/>
</svg>
