<svg
    height="22"
    viewBox="0 0 5.8208332 5.8208335"
    width="22"
    xmlns="http://www.w3.org/2000/svg">
    <defs id="defs2">
    <style
       type="text/css"
       id="current-color-scheme">
      .ColorScheme-Text {
        color:#36404d;
      }
      </style>
    </defs>
    <path 
        d="m4 2c-1.1080002 0-2 .8919937-2 2v14c0 1.107969.8919998 2 2 2h14c1.108 0 2-.892031 2-2v-14c0-1.1080063-.892-2-2-2zm8.978516 2.0019531c.271192-.0037795.533468.1025439.724609.2949219l4 4c.627062.630652.180366 1.70654-.708984 1.707031h-4c-.549587-.00189-.994167-.4484655-.996094-.9980466v-4c-.00218-.5467465.433803-.9938905.980469-1.0039063zm-8.0664066 7.9999999c.0319748-.001549.0637321-.001549.0957031 0h4c.5495751.001928.9941445.446513.9960935.996094v4c-.000508.889323-1.0744089 1.336008-1.7050779.708984l-4-4c-.6018914-.598148-.2316661-1.626842.6132813-1.705078z"
        fill="currentColor" 
        transform="scale(.26458333)"
        style="fill:currentColor;fill-opacity:1;stroke:none"
        class="ColorScheme-Text"/>
</svg>
