<svg 
    height="22"
    viewBox="0 0 5.8208332 5.8208335" 
    width="22" 
    xmlns="http://www.w3.org/2000/svg">
    <defs id="defs2">
    <style
       type="text/css"
       id="current-color-scheme">
      .ColorScheme-Text {
        color:#36404d;
      }
      </style>
    </defs>
    <path 
        d="m4 2c-1.1080002 0-2 .8919937-2 2v14c0 1.107969.8919998 2 2 2h14c1.108 0 2-.892031 2-2v-14c0-1.1080063-.892-2-2-2zm1 2h12c.554 0 1 .446 1 1v12c0 .554-.446 1-1 1h-12c-.554 0-1-.446-1-1v-12c0-.554.446-1 1-1zm1.0019531 1a1.0001 1.0001 0 0 0 -1.0039062 1.0039062v2.9960938a1.0001 1.0001 0 0 0 1.7128906.7089844l2.9960937-3.0039063a1.0001 1.0001 0 0 0 -.7089843-1.7050781zm6.9980469 0a1.0001 1.0001 0 0 0 -.708984 1.7050781l3.003906 3.0039063a1.0001 1.0001 0 0 0 1.705078-.7089844v-2.9960938a1.0001 1.0001 0 0 0 -1.003906-1.0039062zm-7.0136719 6.998047a1.0001001 1.0001001 0 0 0 -.9882812 1.003906v2.996094a1.0001001 1.0001001 0 0 0 1.0039062 1.003906h2.9960938a1.0001001 1.0001001 0 0 0 .7089843-1.712891l-2.9960937-2.996093a1.0001001 1.0001001 0 0 0 -.7246094-.294922zm9.9804689 0a1.0001 1.0001 0 0 0 -.671875.294922l-3.003906 2.996093a1.0001 1.0001 0 0 0 .708984 1.712891h2.996094a1.0001 1.0001 0 0 0 1.003906-1.003906v-2.996094a1.0001 1.0001 0 0 0 -1.033203-1.003906z" 
        fill="currentColor"
        transform="scale(.26458333)"
        style="fill:currentColor;fill-opacity:1;stroke:none"
        class="ColorScheme-Text"/>
</svg>
