<?xml version="1.0" encoding="UTF-8" standalone="no"?>
<svg
   xmlns:dc="http://purl.org/dc/elements/1.1/"
   xmlns:cc="http://creativecommons.org/ns#"
   xmlns:rdf="http://www.w3.org/1999/02/22-rdf-syntax-ns#"
   xmlns:svg="http://www.w3.org/2000/svg"
   xmlns="http://www.w3.org/2000/svg"
   xmlns:xlink="http://www.w3.org/1999/xlink"
   xmlns:sodipodi="http://sodipodi.sourceforge.net/DTD/sodipodi-0.dtd"
   xmlns:inkscape="http://www.inkscape.org/namespaces/inkscape"
   height="16"
   viewBox="0 0 16 16"
   width="16"
   version="1.1"
   id="svg6"
   sodipodi:docname="system-restart.svg"
   inkscape:version="0.92.2 2405546, 2018-03-11">
  <metadata
     id="metadata10">
    <rdf:RDF>
      <cc:Work
         rdf:about="">
        <dc:format>image/svg+xml</dc:format>
        <dc:type
           rdf:resource="http://purl.org/dc/dcmitype/StillImage" />
        <dc:title></dc:title>
      </cc:Work>
    </rdf:RDF>
  </metadata>
  <sodipodi:namedview
     pagecolor="#ffffff"
     bordercolor="#666666"
     borderopacity="1"
     objecttolerance="10"
     gridtolerance="10"
     guidetolerance="10"
     inkscape:pageopacity="0"
     inkscape:pageshadow="2"
     inkscape:window-width="1360"
     inkscape:window-height="711"
     id="namedview8"
     showgrid="true"
     showguides="false"
     inkscape:zoom="1"
     inkscape:cx="189.22584"
     inkscape:cy="-32.857638"
     inkscape:window-x="0"
     inkscape:window-y="28"
     inkscape:window-maximized="1"
     inkscape:current-layer="svg6"
     inkscape:snap-bbox="true"
     inkscape:bbox-paths="true"
     inkscape:bbox-nodes="true"
     inkscape:snap-bbox-edge-midpoints="true"
     inkscape:snap-bbox-midpoints="true"
     inkscape:object-paths="true"
     inkscape:snap-intersection-paths="true">
    <inkscape:grid
       type="xygrid"
       id="grid868" />
  </sodipodi:namedview>
  <defs
     id="defs2">
    <style
       type="text/css"
       id="current-color-scheme">
      .ColorScheme-Text {
        color:#122036;
      }
      </style>
    <linearGradient
       inkscape:collect="always"
       xlink:href="#linearGradient4565"
       id="linearGradient866"
       x1="26.508476"
       y1="16.254236"
       x2="26"
       y2="2.762711"
       gradientUnits="userSpaceOnUse"
       gradientTransform="translate(-18.254238,-1.7457623)" />
    <style
       id="current-color-scheme-5"
       type="text/css">
      .ColorScheme-Text {
        color:#122036;
      }
      </style>
    <style
       id="current-color-scheme-2"
       type="text/css">
      .ColorScheme-Text {
        color:#122036;
      }
      </style>
    <style
       id="current-color-scheme-1"
       type="text/css">
      .ColorScheme-Text {
        color:#122036;
      }
      </style>
    <style
       type="text/css"
       id="current-color-scheme-10">
      .ColorScheme-Text {
        color:#122036;
      }
      </style>
    <style
       id="current-color-scheme-0"
       type="text/css">
      .ColorScheme-Text {
        color:#122036;
      }
      </style>
    <linearGradient
       id="linearGradient4565"
       inkscape:collect="always">
      <stop
         id="stop4561"
         offset="0"
         style="stop-color:#1780f2;stop-opacity:1" />
      <stop
         id="stop4563"
         offset="1"
         style="stop-color:#02b3fe;stop-opacity:1" />
    </linearGradient>
  </defs>
  <path
     style="opacity:1;vector-effect:none;fill:#1770d9;fill-opacity:0.98039216;stroke:none;stroke-width:1.98768997;stroke-linecap:round;stroke-linejoin:round;stroke-miterlimit:4;stroke-dasharray:none;stroke-dashoffset:0;stroke-opacity:1"
     d="m 8,0 c 4.432,0 8,3.568 8,8 0,4.432 -3.568,8 -8,8 C 3.568,16 0,12.432 0,8 0,3.568 3.568,0 8,0 Z"
     id="rect843" />
  <path
     style="opacity:1;vector-effect:none;fill:url(#linearGradient866);fill-opacity:1.0;stroke:none;stroke-width:1.73922873;stroke-linecap:round;stroke-linejoin:round;stroke-miterlimit:4;stroke-dasharray:none;stroke-dashoffset:0;stroke-opacity:1"
     d="m 8,1 c 3.878,0 7,3.122 7,7 0,3.878 -3.122,7 -7,7 C 4.122,15 1,11.878 1,8 1,4.122 4.122,1 8,1 Z"
     id="rect843-6" />
  <path
     inkscape:connector-curvature="0"
     style="color:#000000;font-style:normal;font-variant:normal;font-weight:normal;font-stretch:normal;font-size:medium;line-height:normal;font-family:sans-serif;font-variant-ligatures:normal;font-variant-position:normal;font-variant-caps:normal;font-variant-numeric:normal;font-variant-alternates:normal;font-feature-settings:normal;text-indent:0;text-align:start;text-decoration:none;text-decoration-line:none;text-decoration-style:solid;text-decoration-color:#000000;letter-spacing:normal;word-spacing:normal;text-transform:none;writing-mode:lr-tb;direction:ltr;text-orientation:mixed;dominant-baseline:auto;baseline-shift:baseline;text-anchor:start;white-space:normal;shape-padding:0;clip-rule:nonzero;display:inline;overflow:visible;visibility:visible;opacity:1;isolation:auto;mix-blend-mode:normal;color-interpolation:sRGB;color-interpolation-filters:linearRGB;solid-color:#000000;solid-opacity:1;vector-effect:none;fill:#1670d9;fill-opacity:0.98039216;fill-rule:nonzero;stroke:none;stroke-width:2;stroke-linecap:round;stroke-linejoin:round;stroke-miterlimit:4;stroke-dasharray:none;stroke-dashoffset:0;stroke-opacity:1;color-rendering:auto;image-rendering:auto;shape-rendering:auto;text-rendering:auto;enable-background:accumulate"
     d="M 8,3 C 7.812587,3.00563 7.6305318,3.063836 7.4746094,3.1679688 l -3,2 c -0.5935879,0.3958833 -0.5935879,1.2681791 0,1.6640624 l 3,2 C 8.1391629,9.2748732 9.0291259,8.7985866 9.0292969,8 V 7.1757812 A 3,3 0 0 1 10.800781,8.8515625 3,3 0 0 1 10.150391,12.121093 3,3 0 0 1 6.8808594,12.771483 3,3 0 0 1 5.0292969,10 c 0,-0.554 -0.446,-1 -1,-1 -0.554,0 -1,0.446 -1,1 A 5,5 0 0 0 6.1152344,14.61914 5,5 0 0 0 11.564453,13.535155 5,5 0 0 0 12.648438,8.0859375 5,5 0 0 0 9.0292969,5.1054688 V 4 C 9.0294809,3.4360933 8.5636669,2.9835374 8,3 Z"
     id="path956-6" />
  <path
     style="color:#000000;font-style:normal;font-variant:normal;font-weight:normal;font-stretch:normal;font-size:medium;line-height:normal;font-family:sans-serif;font-variant-ligatures:normal;font-variant-position:normal;font-variant-caps:normal;font-variant-numeric:normal;font-variant-alternates:normal;font-feature-settings:normal;text-indent:0;text-align:start;text-decoration:none;text-decoration-line:none;text-decoration-style:solid;text-decoration-color:#000000;letter-spacing:normal;word-spacing:normal;text-transform:none;writing-mode:lr-tb;direction:ltr;text-orientation:mixed;dominant-baseline:auto;baseline-shift:baseline;text-anchor:start;white-space:normal;shape-padding:0;clip-rule:nonzero;display:inline;overflow:visible;visibility:visible;opacity:1;isolation:auto;mix-blend-mode:normal;color-interpolation:sRGB;color-interpolation-filters:linearRGB;solid-color:#000000;solid-opacity:1;vector-effect:none;fill:#dbf0fe;fill-opacity:0.98039216;fill-rule:nonzero;stroke:none;stroke-width:2;stroke-linecap:round;stroke-linejoin:round;stroke-miterlimit:4;stroke-dasharray:none;stroke-dashoffset:0;stroke-opacity:1;color-rendering:auto;image-rendering:auto;shape-rendering:auto;text-rendering:auto;enable-background:accumulate"
     d="M 7.9707031 2 C 7.7832901 2.00563 7.6012349 2.0638359 7.4453125 2.1679688 L 4.4453125 4.1679688 C 3.8517246 4.5638521 3.8517246 5.4361479 4.4453125 5.8320312 L 7.4453125 7.8320312 C 8.1098662 8.2748732 8.9998288 7.7985866 9 7 L 9 6.1757812 A 3 3 0 0 1 10.771484 7.8515625 A 3 3 0 0 1 10.121094 11.121094 A 3 3 0 0 1 6.8515625 11.771484 A 3 3 0 0 1 5 9 C 5 8.446 4.554 8 4 8 C 3.446 8 3 8.446 3 9 A 5 5 0 0 0 6.0859375 13.619141 A 5 5 0 0 0 11.535156 12.535156 A 5 5 0 0 0 12.619141 7.0859375 A 5 5 0 0 0 9 4.1054688 L 9 3 C 9.000184 2.4360933 8.5343695 1.9835373 7.9707031 2 z "
     id="path956" />
</svg>
