<svg 
    height="22"
    viewBox="0 0 22 22"
    width="22" 
    xmlns="http://www.w3.org/2000/svg">
    <defs id="defs2">
    <style
       type="text/css"
       id="current-color-scheme">
      .ColorScheme-Text {
        color:#122036;
      }
      </style>
    </defs>
    <path 
        d="m11 3c-4.4319999 0-8 3.56802-8 8 0 4.43202 3.5680001 8 8 8 4.432 0 8-3.56798 8-8 0-4.43198-3.568-8-8-8zm0 4c.554 0 1 .446 1 1s-.446 1-1 1-1-.446-1-1 .446-1 1-1zm0 3c.554 0 1 .446 1 1v4c0 .554-.446 1-1 1s-1-.446-1-1v-4c0-.554.446-1 1-1z" 
        fill="currentColor"
        style="fill:currentColor;fill-opacity:1;stroke:none"
        class="ColorScheme-Text"/>
</svg>
