<svg 
    height="22" 
    viewBox="0 0 5.8208332 5.8208335"
    width="22" 
    xmlns="http://www.w3.org/2000/svg">
    <defs id="defs2">
    <style
       type="text/css"
       id="current-color-scheme">
      .ColorScheme-Text {
        color:#36404d;
      }
      </style>
    </defs>
    <g
        transform="translate(3.704167 -288.53339)">
        <path
            d="m-2.9104167 289.06256c-.1465791 0-.2645833.118-.2645833.26458v4.23334c0 .14658.1180042.26458.2645833.26458h2.9104167.20153819a1.190625 1.190625 0 0 1 -.01292-.0181 1.190625 1.190625 0 0 1 -.058911-.10335 1.190625 1.190625 0 0 1 -.048576-.10852 1.190625 1.190625 0 0 1 -.037724-.11317 1.190625 1.190625 0 0 1 -.025839-.11576 1.190625 1.190625 0 0 1 -.014468-.11834 1.190625 1.190625 0 0 1 -.0031-.0842 1.190625 1.190625 0 0 1 .0062-.11885 1.190625 1.190625 0 0 1 .017571-.11783 1.190625 1.190625 0 0 1 .029456-.11523 1.190625 1.190625 0 0 1 .040824-.11163 1.190625 1.190625 0 0 1 .051676-.10748 1.190625 1.190625 0 0 1 .062012-.10129 1.190625 1.190625 0 0 1 .072347-.0946 1.190625 1.190625 0 0 1 .081132-.0873 1.190625 1.190625 0 0 1 .0894-.0786 1.190625 1.190625 0 0 1 .096635-.0692 1.190625 1.190625 0 0 1 .1033528-.0589 1.190625 1.190625 0 0 1 .1085205-.0486 1.190625 1.190625 0 0 1 .1131713-.0377 1.190625 1.190625 0 0 1 .1157552-.0258 1.190625 1.190625 0 0 1 .11833911-.0145 1.190625 1.190625 0 0 1 .084231-.003 1.190625 1.190625 0 0 1 .1188559.006 1.190625 1.190625 0 0 1 .1178221.0176 1.190625 1.190625 0 0 1 .1152385.0295 1.190625 1.190625 0 0 1 .044958.0165v-.0698-2.64584c0-.14658-.1180042-.26458-.2645833-.26458zm1.5875.52917h.52916669v.52916h.5291667v.52917h-.5291667v.52917h.5291667v.52916h-.5291667v-.52916h-.52916669v-.52917h.52916669v-.52917h-.52916669zm-.5291666 1.85208c.1465791 0 .2645833.118.2645833.26458v.52917h.2645833c.2356477.0001.35363869.28496.1870687.45165l-.5291667.52917c-.1033277.10329-.2708095.10329-.3741372 0l-.5291667-.52917c-.16657-.16669-.048579-.45155.1870686-.45165h.2645833v-.52917c0-.14658.1180042-.26458.2645834-.26458z"
            fill="currentColor"
            style="fill:currentColor;fill-opacity:1;stroke:none"
            class="ColorScheme-Text"/>
        <path 
            d="m1.190625 292.23756c.5130271 0 .9260417.41301.9260417.92604s-.4130146.92604-.9260417.92604c-.51302711 0-.92604171-.41301-.92604171-.92604s.4130146-.92604.92604171-.92604z"
            fill="#a5dcb6"
            opacity=".99" 
            stroke-width=".264583"/>
        </g>
</svg>
